<!--
Cleat Wall Organization Equipment
Copyright (C) 2025  Corporate Hacks

This program is free software: you can redistribute it and/or modify
it under the terms of the GNU General Public License as published by
the Free Software Foundation, either version 3 of the License, or
(at your option) any later version.

This program is distributed in the hope that it will be useful,
but WITHOUT ANY WARRANTY; without even the implied warranty of
MERCHANTABILITY or FITNESS FOR A PARTICULAR PURPOSE.  See the
GNU General Public License for more details.

You should have received a copy of the GNU General Public License
along with this program.  If not, see <http://www.gnu.org/licenses/>.
-->

<svg xmlns="http://www.w3.org/2000/svg" width="1300mm" height="900mm" viewBox="0 0 1300 900">
    <path fill="none" stroke="#000" stroke-width=".1mm" d="M607.55 514.482v-11.63h5.2v-11.23h-5.2v-11.63h5.2v-11.23h-5.2v-11.63h5.259l14.264-14.264 4.927 2.041v11.354h-5.2v10.987h5.2v11.387h-5.2v10.987h5.2v11.329l-13.529 13.529H607.55M632 514.482v-11.63h5.2v-11.23H632v-11.63h5.2v-11.23H632v-11.63h5.259l14.264-14.264 4.927 2.041v11.354h-5.2v10.987h5.2v11.387h-5.2v10.987h5.2v11.329l-13.529 13.529H632M656.45 503.295v-11.387h5.2V480.92h-5.2v-11.387h5.2v-11.187h25.6v11.187h5.2v11.387h-5.2v10.988h5.2v11.387h-5.2v11.187h-25.6v-11.187h-5.2"/>
    <path fill="none" stroke="#000" stroke-width=".1mm" d="M653.252 442.868h-2.402v-11.43h-5v11.43h-25.6v-11.43h-5v11.43h-2.402l-.518-.025-.514-.077-.504-.126-.49-.175-.47-.223-.447-.267-.418-.31-.385-.349-.349-.385-.31-.418-.267-.447-.222-.47-.176-.49-.126-.504-.077-.514-.025-.518v-46.754l.025-.518.077-.514.126-.504.176-.49.222-.47.267-.447.31-.418.349-.385.385-.349.418-.31.447-.267.47-.222.49-.176.504-.126.514-.077.518-.025h2.402v11.43h5v-11.43h25.6v11.43h5v-11.43h2.402l.518.025.514.077.504.126.49.176.47.222.447.267.418.31.385.349.349.385.31.418.267.447.223.47.175.49.126.504.077.514.025.518v46.754l-.025.518-.077.514-.126.504-.175.49-.223.47-.267.447-.31.418-.349.385-.385.349-.418.31-.447.267-.47.223-.49.175-.504.126-.514.077-.518.025"/>
    <path fill="none" stroke="#000" stroke-width=".1mm" d="M650.85 419.808h-5v-11.23h5v11.23M620.25 419.808h-5v-11.23h5v11.23"/>
</svg>
