<?xml version="1.0" standalone="no"?>
<!DOCTYPE svg PUBLIC "-//W3C//DTD SVG 1.1//EN" "http://www.w3.org/Graphics/SVG/1.1/DTD/svg11.dtd">
<svg width="1300mm" height="900mm" viewBox="0 0 1300 900" xmlns="http://www.w3.org/2000/svg" version="1.1">
<polyline z="0" points="607.55,514.482 607.55,502.852 612.75,502.852 612.75,491.622 607.55,491.622 607.55,479.992 612.75,479.992 612.75,468.762 607.55,468.762 607.55,457.132 612.809,457.132 627.073,442.868 632,444.909 632,456.263 626.8,456.263 626.8,467.25 632,467.25 632,478.637 626.8,478.637 626.8,489.624 632,489.624 632,500.953 618.471,514.482 607.55,514.482" fill="none" stroke="black" stroke-width="0.1mm" />
<polyline z="0" points="632,514.482 632,502.852 637.2,502.852 637.2,491.622 632,491.622 632,479.992 637.2,479.992 637.2,468.762 632,468.762 632,457.132 637.259,457.132 651.523,442.868 656.45,444.909 656.45,456.263 651.25,456.263 651.25,467.25 656.45,467.25 656.45,478.637 651.25,478.637 651.25,489.624 656.45,489.624 656.45,500.953 642.921,514.482 632,514.482" fill="none" stroke="black" stroke-width="0.1mm" />
<polyline z="0" points="656.45,503.295 656.45,491.908 661.65,491.908 661.65,480.92 656.45,480.92 656.45,469.533 661.65,469.533 661.65,458.346 687.25,458.346 687.25,469.533 692.45,469.533 692.45,480.92 687.25,480.92 687.25,491.908 692.45,491.908 692.45,503.295 687.25,503.295 687.25,514.482 661.65,514.482 661.65,503.295 656.45,503.295" fill="none" stroke="black" stroke-width="0.1mm" />
<polyline z="0" points="653.252,442.868 650.85,442.868 650.85,431.438 645.85,431.438 645.85,442.868 620.25,442.868 620.25,431.438 615.25,431.438 615.25,442.868 612.848,442.868 612.33,442.843 611.816,442.766 611.312,442.64 610.822,442.465 610.352,442.242 609.905,441.975 609.487,441.665 609.102,441.316 608.753,440.931 608.443,440.513 608.176,440.066 607.954,439.596 607.778,439.106 607.652,438.602 607.575,438.088 607.55,437.57 607.55,390.816 607.575,390.298 607.652,389.784 607.778,389.28 607.954,388.79 608.176,388.32 608.443,387.873 608.753,387.455 609.102,387.07 609.487,386.721 609.905,386.411 610.352,386.144 610.822,385.922 611.312,385.746 611.816,385.62 612.33,385.543 612.848,385.518 615.25,385.518 615.25,396.948 620.25,396.948 620.25,385.518 645.85,385.518 645.85,396.948 650.85,396.948 650.85,385.518 653.252,385.518 653.77,385.543 654.284,385.62 654.788,385.746 655.278,385.922 655.748,386.144 656.195,386.411 656.613,386.721 656.998,387.07 657.347,387.455 657.657,387.873 657.924,388.32 658.147,388.79 658.322,389.28 658.448,389.784 658.525,390.298 658.55,390.816 658.55,437.57 658.525,438.088 658.448,438.602 658.322,439.106 658.147,439.596 657.924,440.066 657.657,440.513 657.347,440.931 656.998,441.316 656.613,441.665 656.195,441.975 655.748,442.242 655.278,442.465 654.788,442.64 654.284,442.766 653.77,442.843 653.252,442.868" fill="none" stroke="black" stroke-width="0.1mm" />
<polyline z="0" points="650.85,419.808 645.85,419.808 645.85,408.578 650.85,408.578 650.85,419.808" fill="none" stroke="black" stroke-width="0.1mm" />
<polyline z="0" points="620.25,419.808 615.25,419.808 615.25,408.578 620.25,408.578 620.25,419.808" fill="none" stroke="black" stroke-width="0.1mm" />
</svg>