Cleat Wall Organization Equipment
Copyright (C) 2025  Corporate Hacks

This program is free software: you can redistribute it and/or modify
it under the terms of the GNU General Public License as published by
the Free Software Foundation, either version 3 of the License, or
(at your option) any later version.

This program is distributed in the hope that it will be useful,
but WITHOUT ANY WARRANTY; without even the implied warranty of
MERCHANTABILITY or FITNESS FOR A PARTICULAR PURPOSE.  See the
GNU General Public License for more details.

You should have received a copy of the GNU General Public License
along with this program.  If not, see <http://www.gnu.org/licenses/>.


<svg xmlns="http://www.w3.org/2000/svg" xml:space="preserve" width="1300mm" height="900mm" viewBox="0 0 1300 900">
    <path d="M390.649 575.993v11.429h-5v-11.429h5m10 0h5v11.429h-5v-11.429m-10-23.257v11.429h-5v-11.429h5m15 0v11.429h-5v-11.429h5m12.325-7.3h5v6.357h-5v-6.357m0-13.114h5v6.357h-5v-6.357m-27.325-2.843v11.428h-5v-11.428h5m15 0v11.428h-5v-11.428h5m12.325-3.914v-6.358h5v6.358h-5m-47.525 110.236v-18.379h5.2v-4.205h5.2v-6.883h-5.2v-5.341h-5.2v-1.943h7.04v-5h-7.04v-9.885h5.2v-16.429h-5.2v-16.829h5.2v-16.428h-5.2V512.45h6.961v5.2h6.56v-5.2h6.961v5.2h6.561v-5.2h6.961v5.2h6.56v-5h-2.405l-14.323-14.322 2.042-4.928h8.967v5.2h8.601v-5.2h9.002v5.2h8.601v-5.2h3.801v8.084h5.2v8.283h-5.2v7.883h5.252l-34.902 81.99v-5.59h-6.84v5.2h-7.24v-5.2h-6.84v5.2h-1.08v21.968l-.007.156-.022.155-.038.153-.051.149-.065.143-.077.136-.091.129-.103.119-.113.109-.123.098-.132.085-.138.074-.146.059-.151.046-.155.031-.156.016-.156.002-.156-.014-3.32-.441v12.545l-.007.156-.022.155-.038.153-.051.149-.065.143-.077.136-.091.129-.103.119-.113.109-.123.098-.132.085-.138.074-.146.059-.151.046-.155.031-.156.016-.156.002-.156-.014-6.12-.813M673.322 614.103v5h-23.057v-5h23.057m23.458 0h23.057v5H696.78v-5m-46.715-17.325v5h-23.057v-5h23.057m46.515 0v5h-23.058v-5h23.058m23.457 0h23.057v5h-23.057v-5m-69.972-10h-23.057v-5h23.057v5m46.515 0h-23.058v-5h23.058v5m23.457 0v-5h23.057v5h-23.057m-116.486 7.043v-6.961h5.2v-6.561h-5.2v-6.96h5.2v-6.761h18.257v5.2h23.057v-5.2h23.457v5.2h23.058v-5.2h23.457v5.2h23.057v-5.2h18.257v6.761h5.2v6.96h-5.2v6.561h5.2v6.961h-5.2v6.561h5.2v6.96h-5.2v6.761h-18.057v5h18.057v12.325H739.58v5.2h-21.972v-5.2h-21.571v5.2h-21.972v-5.2h-21.571v5.2h-21.972v-5.2h-21.771v-12.325h18.057v-5h-18.057v-6.761h-5.2v-6.96h5.2v-6.561h-5.2" style="fill:none;stroke:#000;stroke-width:.1mm"/>
    <path fill="none" stroke="#000" stroke-width=".1mm" d="M674.065 566.578v-5.2h-21.571v5.2h-21.972v-5.2h-21.771v-3.601h-5.2v-9.001h5.2v-8.602h-5.2v-9.001h5.2v-8.801h152.6v8.801h5.2v9.001h-5.2v8.602h5.2v9.001h-5.2v3.601H739.58v5.2h-21.972v-5.2h-21.571v5.2h-21.972"/>
    <path d="M752.861 473.093v-.286l.029-.286.057-.281.084-.275.112-.264.137-.252.161-.237.185-.22.205-.2.224-.179.242-.155.255-.132.266-.104.277-.077.282-.051.287-.021.286.007.285.036.279.063.273.092.261.118.249.143.233.168.215.19.195.21.173.228.15.246.124.258.099.27.07.278.043.283.015.287-.015.287-.043.283-.07.278-.099.27-.124.258-.15.246-.173.228-.195.21-.215.19-.233.168-.249.143-.261.118-.273.092-.279.063-.285.036-.286.007-.287-.021-.282-.051-.277-.077-.266-.104-.255-.132-.242-.155-.224-.179-.205-.2-.185-.22-.161-.237-.137-.252-.112-.264-.084-.275-.057-.281-.029-.286m-135.617-.143-.014.287-.043.283-.071.278-.099.27-.123.258-.15.246-.173.228-.195.21-.216.19-.233.168-.248.143-.262.118-.272.092-.28.063-.284.036-.287.007-.286-.021-.282-.051-.277-.077-.267-.104-.255-.132-.241-.155-.224-.179-.206-.2-.185-.22-.161-.237-.137-.252-.111-.264-.085-.275-.057-.281-.028-.286v-.286l.028-.286.057-.281.085-.275.111-.264.137-.252.161-.237.185-.22.206-.2.224-.179.241-.155.255-.132.267-.104.277-.077.282-.051.286-.021.287.007.284.036.28.063.272.092.262.118.248.143.233.168.216.19.195.21.173.228.15.246.123.258.099.27.071.278.043.283.014.287m126.727.153v-.306l.031-.305.061-.301.09-.293.119-.283.146-.269.173-.254.197-.235.22-.214.24-.191.258-.166.273-.14.285-.112.295-.083.302-.054.306-.023.306.008.305.039.298.067.292.098.279.126.265.154.25.178.23.204.208.224.186.245.16.262.132.276.105.289.076.297.046.303.015.306-.015.306-.046.303-.076.297-.105.289-.132.276-.16.262-.186.245-.208.224-.23.204-.25.178-.265.154-.279.126-.292.098-.298.067-.305.039-.306.008-.306-.023-.302-.054-.295-.083-.285-.112-.273-.14-.258-.166-.24-.191-.22-.214-.197-.235-.173-.254-.146-.269-.119-.283-.09-.293-.061-.301-.031-.305m-117.837-.153-.015.306-.046.303-.076.297-.105.289-.132.276-.16.262-.186.245-.208.224-.23.204-.25.178-.265.154-.279.126-.292.098-.298.067-.305.039-.306.008-.306-.023-.302-.054-.295-.083-.285-.112-.273-.14-.258-.166-.24-.191-.22-.214-.197-.235-.173-.254-.146-.269-.119-.283-.09-.293-.061-.301-.031-.305v-.306l.031-.305.061-.301.09-.293.119-.283.146-.269.173-.254.197-.235.22-.214.24-.191.258-.166.273-.14.285-.112.295-.083.302-.054.306-.023.306.008.305.039.298.067.292.098.279.126.265.154.25.178.23.204.208.224.186.245.16.262.132.276.105.289.076.297.046.303.015.306m108.551.163v-.326l.032-.325.065-.32.096-.312.127-.301.156-.287.184-.27.209-.25.234-.228.255-.203.275-.177.29-.149.304-.119.263-.075.374-.071.324-.024.327.008.323.041.318.072.31.104.298.135.282.163.266.19.245.217.222.239.197.26.17.279.141.294.112.307.081.316.049.323.016.326-.016.326-.049.323-.081.317-.112.306-.141.294-.17.279-.197.26-.222.239-.245.217-.266.19-.282.163-.298.135-.31.104-.318.072-.323.041-.327.008-.325-.024-.322-.058-.314-.088-.304-.119-.29-.149-.275-.177-.255-.203-.234-.228-.209-.25-.184-.27-.156-.287-.127-.301-.096-.312-.065-.32-.032-.325m-9.288 0v-.326l.033-.325.065-.32.096-.312.127-.301.155-.287.184-.27.21-.25.234-.228.255-.203.275-.177.29-.149.304-.119.263-.075.374-.071.324-.024.327.008.323.041.318.072.31.104.298.135.282.163.266.19.245.217.222.239.197.26.17.279.141.294.112.307.081.316.049.323.016.326-.016.326-.049.323-.081.317-.112.306-.141.294-.17.279-.197.26-.222.239-.245.217-.266.19-.282.163-.298.135-.31.104-.318.072-.323.041-.327.008-.325-.024-.322-.058-.314-.088-.304-.119-.29-.149-.275-.177-.255-.203-.234-.228-.21-.25-.184-.27-.155-.287-.127-.301-.096-.312-.065-.32-.033-.325m-87.234 0v-.326l.032-.325.065-.32.096-.312.127-.301.156-.287.183-.27.211-.25.234-.228.255-.203.274-.177.291-.149.304-.119.263-.075.373-.071.325-.024.326.008.324.041.318.072.31.104.297.135.283.163.265.19.245.217.222.239.197.26.171.279.141.294.112.307.08.316.049.323.016.326-.016.326-.049.323-.08.317-.112.306-.141.294-.171.279-.197.26-.222.239-.245.217-.265.19-.283.163-.297.135-.31.104-.318.072-.324.041-.326.008-.326-.024-.321-.058-.314-.088-.304-.119-.291-.149-.274-.177-.255-.203-.234-.228-.211-.25-.183-.27-.156-.287-.127-.301-.096-.312-.065-.32-.032-.325m-2.742-.163-.016.326-.049.323-.08.317-.112.306-.141.294-.171.279-.197.26-.222.239-.245.217-.265.19-.283.163-.297.135-.31.104-.318.072-.324.041-.327.008-.325-.024-.321-.058-.314-.088-.304-.119-.291-.149-.275-.177-.255-.203-.233-.228-.211-.25-.183-.27-.156-.287-.127-.301-.096-.312-.065-.32-.032-.325v-.326l.032-.325.065-.32.096-.312.127-.301.156-.287.183-.27.211-.25.233-.228.255-.203.275-.177.291-.149.304-.119.263-.075.373-.071.324-.024.327.008.324.041.318.072.31.104.297.135.283.163.265.19.245.217.222.239.197.26.171.279.141.294.112.307.08.316.049.323.016.326m79.103.203v-.406l.04-.403.081-.398.119-.388.158-.374.193-.356.228-.334.262-.311.29-.284.317-.253.341-.219.361-.186.377-.148.391-.109.399-.071.405-.03.405.01.402.051.397.089.383.129.37.167.351.203.307.22.327.286.276.296.245.324.212.346.175.366.139.381.1.393.06.401.02.405-.02.405-.06.401-.1.393-.139.381-.175.366-.212.346-.245.324-.276.296-.304.269-.33.237-.351.203-.37.167-.383.129-.397.089-.402.051-.405.01-.405-.03-.399-.071-.391-.109-.377-.148-.361-.186-.341-.219-.317-.253-.29-.284-.262-.311-.228-.334-.193-.356-.158-.374-.119-.388-.081-.398-.04-.403m-58.941-.203-.02.405-.06.401-.101.393-.139.381-.175.366-.212.346-.245.324-.276.296-.304.269-.33.237-.351.203-.369.167-.384.129-.397.089-.402.051-.405.01-.405-.03-.399-.071-.391-.109-.377-.148-.361-.186-.341-.219-.317-.253-.29-.284-.262-.311-.228-.334-.193-.356-.158-.374-.119-.388-.081-.398-.04-.403v-.406l.04-.403.081-.398.119-.388.158-.374.193-.356.228-.334.262-.311.29-.284.317-.253.341-.219.361-.186.377-.148.391-.109.399-.071.405-.03.405.01.402.051.397.089.384.129.369.167.351.203.307.22.327.286.276.296.245.324.212.346.175.366.139.381.101.393.06.401.02.405m26.511 0-.024.484-.072.479-.12.47-.166.456-.209.436-.253.414-.293.387-.33.354-.363.322-.394.283-.42.242-.442.199-.459.155-.473.107-.481.061-.484.012-.484-.036-.477-.085-.467-.131-.451-.177-.431-.221-.407-.263-.379-.302-.347-.339-.312-.372-.273-.399-.232-.426-.188-.447-.143-.463-.096-.475-.048-.483v-.484l.048-.483.096-.475.143-.463.188-.447.232-.426.273-.399.312-.372.347-.339.379-.302.407-.263.431-.221.451-.177.467-.131.477-.085.484-.036.484.012.481.061.473.107.459.155.442.199.42.242.394.283.363.322.33.354.293.387.253.414.209.436.166.456.12.47.072.479.024.484m19.969.242v-.484l.048-.483.096-.475.143-.463.188-.447.232-.426.272-.4.312-.371.348-.339.378-.302.408-.263.431-.221.451-.177.467-.131.477-.085.485-.036.119-.002.363.014.482.061.472.107.46.155.442.199.42.242.393.283.364.322.33.354.292.387.253.414.21.436.166.456.12.47.072.479.024.484-.024.484-.072.479-.12.47-.166.456-.21.436-.253.414-.292.387-.33.354-.364.322-.393.283-.42.242-.442.199-.46.155-.472.107-.481.061-.485.012-.483-.036-.477-.085-.467-.131-.451-.177-.431-.221-.408-.263-.378-.302-.348-.339-.312-.371-.272-.4-.232-.426-.188-.447-.143-.463-.096-.475-.048-.483m-14.05 0v-.484l.048-.483.096-.475.143-.463.188-.447.232-.426.273-.399.312-.372.347-.339.379-.302.407-.263.432-.221.451-.177.466-.131.477-.085.486-.036.119-.002.362.014.482.061.473.107.46.155.441.199.42.242.394.283.364.322.329.354.293.387.253.414.209.436.167.456.119.47.072.479.024.484-.024.484-.072.479-.119.47-.167.456-.209.436-.253.414-.293.387-.329.354-.364.322-.394.283-.42.242-.441.199-.46.155-.473.107-.481.061-.484.012-.484-.036-.477-.085-.466-.131-.451-.177-.432-.221-.407-.263-.379-.302-.347-.339-.312-.372-.273-.399-.232-.426-.188-.447-.143-.463-.096-.475-.048-.483m-29.399 1.421-.143-.463-.096-.475-.048-.483v-.484l.048-.483.096-.475.143-.463.188-.447.231-.426.273-.399.312-.372.347-.339.379-.302.408-.263.431-.221.451-.177.467-.131.477-.085.485-.036.119-.002.363.014.482.061.472.107.46.155.442.199.419.242.394.283.364.322.329.354.293.387.253.414.21.436.166.456.12.47.072.479.024.484-.024.484-.072.479-.12.47-.166.456-.21.436-.253.414-.293.387-.329.354-.364.322-.394.283-.419.242-.442.199-.46.155-.472.107-.481.061-.485.012-.483-.036-.477-.085-.467-.131-.451-.177-.431-.221-.408-.263-.379-.302-.347-.339-.312-.372-.273-.399-.231-.426-.188-.447M608.751 493.4v-6.557h-5.2v-6.757h5.2v-6.357h-5.2v-6.758h5.2v-6.357h-5.2v-6.757h5.2V447.3h18.257v5.2h23.057v-5.2h23.457v5.2h23.058v-5.2h23.457v5.2h23.057v-5.2h18.257v6.557h5.2v6.757h-5.2v6.357h5.2v6.758h-5.2v6.357h5.2v6.757h-5.2v6.557h-152.6M815.294 591.978v5h-21.572v-5h21.572m43.543 0v5h-21.572v-5h21.572m21.971 0h21.572v5h-21.572v-5m-114.257-15.2h27.171v5.2h21.572v-5.2h21.971v5.2h21.572v-5.2h21.971v5.2h21.572v-5.2h27.171v7.24h-5.2v6.84h5.2v7.24h-5.2v6.84h5.2v7.24H902.38v-5.2h-21.572v5.2h-21.971v-5.2h-21.572v5.2h-21.971v-5.2h-21.572v5.2h-27.171v-7.24h5.2v-6.84h-5.2v-7.24h5.2v-6.84h-5.2v-7.24" style="fill:none;stroke:#000;stroke-width:.1mm"/>
    <path fill="none" stroke="#000" stroke-width=".1mm" d="M815.294 612.178h21.971v5.2h21.572v-5.2h21.971v5.2h21.572v-5.2h27.171v8.283h-5.2v7.884h5.2v8.283H902.38v-5.2h-21.572v5.2h-21.971v-5.2h-21.572v5.2h-21.971v-5.2h-21.572v5.2h-27.171v-8.283h5.2v-7.884h-5.2v-8.283h27.171v5.2h21.572v-5.2"/>
    <path d="m588.642 479.778.009-.181.017-.084.026-.083.077-.163.108-.142.135-.119.07-.045.168-.076.083-.023.085-.015.183-.005.084.011.175.049.078.035.151.098.128.125.099.146.07.164.035.176.005.087-.005.087-.035.176-.07.165-.099.146-.128.124-.149.098-.169.065-.081.019-.18.014-.179-.023-.081-.023-.167-.075-.071-.046-.135-.119-.109-.143-.04-.074-.062-.17-.026-.176m-9.711 0 .009-.178.044-.173.077-.16.107-.142.136-.119.07-.045.165-.075.173-.039.18-.005.084.011.176.049.077.035.152.098.127.124.1.147.07.164.035.176.005.087-.005.087-.035.176-.07.167-.045.071-.117.141-.063.055-.152.099-.168.065-.082.019-.182.014-.084-.007-.176-.04-.164-.074-.071-.046-.136-.119-.107-.141-.078-.164-.025-.079-.027-.179m-115.545.003.008-.181.044-.173.077-.159.108-.143.135-.119.07-.045.168-.076.083-.023.085-.015.182-.005.085.011.175.049.077.035.152.098.127.124.1.147.07.164.035.176.005.087-.005.087-.035.176-.07.167-.045.071-.117.141-.063.055-.152.099-.168.065-.081.019-.181.014-.176-.023-.172-.057-.076-.04-.073-.047-.135-.119-.108-.142-.077-.16-.045-.175-.007-.083m-7.926-.048-.017.177-.053.17-.085.157-.115.138-.064.055-.151.099-.168.065-.082.019-.182.014-.084-.007-.176-.04-.164-.074-.071-.046-.137-.121-.054-.064-.095-.154-.06-.167-.027-.176.009-.18.017-.083.062-.172.041-.074.108-.144.136-.119.07-.045.165-.075.173-.039.18-.005.084.011.176.049.077.035.153.099.064.056.116.138.084.156.053.17.017.177m29.925 0-.005.109-.016.108-.027.105-.037.102-.047.099-.057.093-.065.087-.074.079-.082.072-.089.064-.094.054-.099.045-.103.035-.107.023-.108.014-.108.003-.109-.008-.107-.019-.104-.03-.103-.039-.096-.05-.092-.059-.085-.068-.078-.076-.07-.083-.061-.09-.052-.095-.042-.101-.032-.104-.022-.107-.01-.105.01-.223.022-.104.032-.104.042-.101.052-.095.062-.091.069-.083.078-.076.085-.067.091-.059.098-.05.102-.04.104-.029.105-.019.222-.006.105.014.106.024.104.035.099.044.094.055.089.063.082.073.074.079.065.087.057.093.047.098.037.102.027.106.016.108.005.108m83.439-.054.011-.108.022-.107.032-.104.042-.101.052-.095.062-.091.069-.083.078-.076.085-.067.091-.059.098-.05.101-.04.105-.029.107-.02.108-.007.11.002.107.014.106.024.104.035.099.044.094.055.088.063.082.073.074.079.066.088.057.092.047.098.037.102.027.106.016.108.005.108-.005.109-.016.108-.027.105-.037.102-.047.099-.057.092-.066.088-.074.079-.082.072-.088.064-.094.054-.099.045-.103.035-.107.023-.108.014-.109.003-.108-.008-.107-.019-.105-.03-.101-.039-.097-.05-.092-.059-.085-.068-.078-.076-.07-.083-.061-.09-.052-.095-.042-.101-.032-.104-.022-.107-.011-.108v-.109m-10.107 0 .011-.108.021-.107.032-.103.043-.102.051-.095.061-.091.071-.083.078-.076.085-.067.092-.059.096-.05.102-.04.104-.029.108-.02.108-.007.11.002.107.014.106.024.103.035.1.044.094.055.088.063.082.073.074.079.066.088.057.092.046.098.038.103.026.105.017.108.005.108-.005.109-.017.108-.026.105-.038.102-.046.099-.057.092-.066.088-.074.079-.082.072-.088.064-.094.054-.1.045-.102.035-.107.023-.108.014-.109.003-.108-.008-.108-.019-.104-.03-.102-.039-.096-.05-.092-.059-.085-.068-.078-.076-.071-.084-.061-.089-.051-.095-.043-.102-.032-.103-.021-.107-.011-.108v-.109m-83.439.054-.005.109-.017.108-.026.106-.037.101-.047.099-.057.092-.066.088-.074.079-.082.072-.088.064-.094.054-.1.045-.102.035-.107.023-.108.014-.109.003-.108-.008-.107-.019-.105-.03-.101-.039-.097-.05-.092-.059-.085-.068-.078-.076-.07-.083-.061-.09-.052-.095-.042-.101-.032-.104-.022-.107-.011-.106.011-.221.022-.105.032-.104.042-.101.052-.095.062-.091.069-.083.078-.076.085-.067.091-.059.098-.05.101-.04.105-.029.107-.02.108-.007.11.002.107.014.106.024.103.035.1.044.094.055.088.063.082.073.074.079.066.088.057.092.047.098.037.102.026.106.017.108.005.108m72.935-.064.013-.128.025-.126.038-.123.05-.119.061-.113.073-.105.083-.1.092-.089.1-.081.109-.069.114-.059.119-.047.125-.034.126-.023.128-.01.129.004.128.016.125.028.122.041.117.053.112.064.104.075.097.086.087.093.078.103.067.11.055.116.045.121.031.125.02.127.006.128-.006.129-.019.127-.032.124-.045.122-.055.115-.067.111-.078.102-.087.095-.097.085-.104.074-.112.065-.117.053-.122.041-.125.028-.128.016-.129.004-.128-.01-.126-.023-.125-.034-.119-.047-.114-.059-.109-.07-.1-.08-.092-.09-.083-.099-.073-.106-.061-.112-.05-.119-.038-.124-.025-.125-.013-.128v-.129m-52.323.064-.006.129-.019.127-.032.124-.045.122-.055.115-.067.111-.078.102-.087.095-.097.085-.105.074-.111.065-.117.053-.122.041-.126.028-.127.016-.129.004-.128-.01-.126-.023-.125-.034-.119-.047-.114-.059-.109-.07-.1-.08-.092-.09-.084-.099-.072-.106-.061-.112-.05-.119-.038-.124-.025-.124-.015-.194.015-.193.025-.125.038-.123.05-.119.061-.113.072-.105.084-.1.092-.089.1-.081.109-.069.114-.059.119-.047.125-.034.126-.023.128-.01.129.004.127.016.126.028.122.041.117.053.111.064.105.075.097.086.087.093.078.103.067.11.055.116.045.121.031.125.02.127.006.128m41.422-.074.015-.148.03-.145.043-.142.058-.136.071-.131.083-.123.096-.113.106-.104.116-.093.125-.08.132-.068.138-.054.143-.04.146-.026.148-.011.148.004.147.018.145.033.141.047.135.061.129.074.12.087.112.099.101.108.089.118.078.127.064.134.051.14.037.143.022.147.007.148-.007.149-.022.146-.037.145-.051.139-.064.133-.078.127-.089.119-.101.108-.112.099-.119.086-.13.074-.135.062-.14.047-.146.032-.147.019-.148.004-.148-.011-.146-.026-.143-.04-.138-.054-.132-.068-.125-.08-.116-.093-.106-.104-.096-.113-.083-.123-.071-.131-.058-.136-.043-.143-.03-.145-.015-.147v-.149m-30.52.074-.008.149-.022.146-.037.145-.051.139-.064.133-.077.127-.089.117-.216.21-.118.085-.128.074-.136.062-.14.047-.145.032-.148.019-.148.004-.148-.011-.146-.026-.143-.04-.138-.054-.132-.068-.125-.08-.116-.093-.106-.104-.096-.113-.083-.123-.071-.131-.058-.136-.043-.143-.03-.144-.016-.223.016-.223.03-.144.043-.142.058-.136.071-.131.083-.123.096-.113.106-.104.116-.093.125-.08.132-.068.138-.054.143-.04.146-.026.148-.011.148.004.148.018.144.033.141.047.136.061.128.074.12.087.112.099.101.109.09.117.077.127.064.134.051.14.037.143.022.147.008.148m19.223-.084.016-.167.034-.165.049-.161.065-.154.081-.149.094-.138.109-.129.12-.118.132-.105.141-.091.15-.077.156-.061.162-.045.166-.03.167-.013.169.005.166.021.165.037.159.053.153.07.146.084.136.098.127.112.114.123.102.134.088.143.072.152.058.158.042.163.025.166.008.168-.008.168-.025.167-.042.162-.058.159-.072.151-.088.144-.102.134-.114.123-.127.112-.136.098-.146.084-.153.069-.16.054-.164.037-.166.021-.169.004-.167-.012-.166-.03-.162-.045-.156-.061-.15-.078-.141-.09-.132-.105-.12-.118-.109-.128-.094-.14-.081-.148-.065-.154-.049-.162-.034-.164-.016-.168v-.168m-7.959-.25.025.166.008.168-.008.168-.025.167-.042.162-.058.159-.072.151-.088.144-.102.134-.114.124-.126.111-.137.098-.145.084-.154.069-.16.054-.164.037-.166.021-.169.004-.167-.012-.166-.03-.162-.045-.156-.061-.15-.078-.141-.09-.132-.105-.12-.118-.097-.116-.106-.153-.08-.147-.066-.154-.049-.161-.033-.164-.019-.253.019-.252.033-.164.049-.161.066-.154.08-.149.094-.138.109-.129.12-.118.132-.105.141-.091.15-.077.156-.061.162-.045.166-.03.167-.013.169.005.166.021.165.037.159.053.154.07.145.084.137.098.126.112.114.123.102.134.088.143.072.152.058.158.042.163m70.904-13.148v-.168l.017-.168.033-.164.05-.162.065-.155.08-.147.095-.14.108-.128.121-.118.131-.105.142-.09.149-.078.156-.061.163-.045.165-.03.168-.012.168.004.167.021.164.037.16.054.153.069.145.084.137.098.127.112.114.123.101.134.088.144.073.151.058.159.041.162.025.167.008.168-.008.168-.025.166-.041.163-.058.158-.073.152-.088.144-.101.134-.114.122-.127.112-.137.098-.145.084-.153.07-.159.053-.165.037-.167.021-.168.005-.168-.013-.165-.03-.163-.045-.156-.061-.149-.077-.142-.091-.131-.105-.121-.118-.108-.129-.095-.138-.08-.148-.065-.155-.05-.161-.033-.165-.017-.167m-133.817-.084-.008.168-.026.166-.04.164-.058.157-.073.152-.088.144-.101.134-.114.122-.127.112-.137.098-.145.084-.154.07-.158.053-.165.037-.167.021-.168.005-.168-.013-.165-.03-.163-.045-.156-.061-.149-.077-.142-.091-.131-.105-.121-.118-.108-.129-.095-.138-.08-.148-.065-.155-.05-.161-.033-.164-.019-.252.019-.253.033-.163.05-.162.065-.155.08-.147.095-.14.108-.128.121-.118.131-.105.142-.09.149-.078.156-.061.163-.045.165-.03.168-.012.168.004.167.021.164.037.159.054.154.069.145.084.137.098.127.112.114.123.101.134.088.144.073.151.058.158.04.163.026.167.008.168m124.028-.094.018-.187.038-.184.055-.181.073-.172.09-.166.105-.155.121-.144.135-.131.147-.118.158-.101.167-.087.175-.068.181-.05.185-.034.188-.014.188.005.186.024.184.041.178.06.171.077.163.094.152.11.142.125.128.137.113.15.098.161.081.169.065.177.046.182.028.186.009.188-.009.187-.028.186-.046.182-.065.177-.081.169-.098.161-.113.15-.128.137-.142.125-.152.11-.163.094-.171.077-.178.06-.184.041-.186.024-.188.005-.188-.014-.185-.033-.181-.051-.175-.068-.167-.086-.158-.102-.147-.117-.135-.132-.121-.143-.105-.156-.09-.166-.073-.172-.055-.18-.038-.184-.018-.187v-.188m-114.238.094-.009.187-.028.186-.047.183-.064.176-.081.169-.098.161-.114.15-.128.137-.141.125-.153.11-.162.094-.172.077-.178.06-.183.041-.187.024-.188.005-.187-.014-.185-.033-.182-.051-.174-.068-.167-.086-.159-.102-.146-.117-.135-.132-.121-.144-.106-.155-.089-.165-.073-.173-.056-.18-.037-.184-.019-.187v-.188l.019-.187.037-.184.056-.181.073-.173.089-.165.106-.154.121-.145.135-.131.146-.118.159-.101.167-.087.174-.068.182-.05.185-.034.187-.014.188.005.187.024.183.041.178.06.172.077.162.094.153.11.141.125.128.137.114.15.098.161.081.169.064.176.047.183.028.186.009.188m104.051.104v-.208l.021-.207.041-.203.061-.199.081-.192.099-.182.117-.172.134-.159.149-.145.162-.13.175-.112.185-.095.193-.076.2-.056.204-.037.208-.015.207.005.206.026.203.046.197.066.19.086.179.104.169.121.156.138.141.152.126.165.108.178.09.187.071.195.052.202.031.205.01.208-.01.207-.031.205-.052.203-.071.194-.09.187-.108.178-.126.166-.141.151-.156.138-.169.122-.179.103-.19.086-.197.066-.203.046-.206.026-.207.005-.208-.015-.204-.037-.201-.056-.192-.075-.185-.096-.175-.112-.162-.13-.149-.145-.134-.159-.117-.171-.099-.184-.081-.19-.061-.199-.041-.204-.021-.206m-93.864-.104-.01.207-.031.205-.052.203-.071.194-.09.187-.108.178-.126.166-.141.151-.156.138-.169.122-.179.103-.19.086-.197.066-.203.046-.206.026-.207.005-.208-.015-.204-.037-.201-.056-.192-.075-.185-.096-.175-.112-.162-.13-.149-.145-.134-.159-.117-.171-.099-.184-.081-.19-.061-.199-.041-.204-.021-.206v-.208l.021-.207.041-.203.061-.199.081-.192.099-.182.117-.172.134-.159.149-.145.162-.13.175-.112.185-.095.193-.076.2-.056.204-.037.208-.015.207.005.206.026.203.046.197.066.19.086.179.104.169.121.156.138.141.152.126.165.108.178.09.187.071.195.052.202.031.205.01.208m83.281.113v-.227l.023-.226.045-.223.067-.218.088-.21.109-.2.127-.188.147-.174.163-.159.178-.142.191-.123.203-.104.211-.083.22-.061.224-.041.226-.016.228.006.226.028.221.05.216.073.208.093.197.114.185.133.171.151.154.166.138.181.119.195.098.205.078.213.055.222.035.224.011.228-.011.227-.035.225-.055.221-.078.213-.098.205-.119.195-.138.181-.154.167-.171.151-.185.132-.197.114-.208.094-.215.072-.222.05-.226.029-.228.006-.226-.017-.224-.04-.22-.062-.211-.082-.203-.105-.191-.123-.178-.142-.163-.159-.147-.174-.127-.188-.109-.199-.088-.21-.067-.218-.045-.223-.023-.227m-72.698-.113-.011.227-.034.225-.056.22-.078.214-.098.205-.119.195-.138.181-.154.167-.171.151-.185.132-.197.114-.207.094-.216.072-.222.05-.226.029-.227.006-.227-.017-.224-.04-.22-.062-.211-.082-.202-.105-.192-.123-.178-.142-.163-.159-.146-.174-.128-.188-.109-.199-.088-.21-.067-.218-.045-.223-.023-.227v-.227l.023-.226.045-.223.067-.218.088-.21.109-.2.128-.188.146-.174.163-.159.178-.142.192-.123.202-.104.211-.083.22-.061.224-.041.227-.016.227.006.226.028.222.05.216.073.207.093.197.114.185.133.171.151.154.166.138.181.119.195.098.205.078.213.056.222.034.224.011.228m61.718.123v-.247l.024-.246.049-.242.073-.237.096-.228.118-.217.139-.204.16-.19.177-.173.193-.154.208-.134.22-.113.231-.09.238-.067.243-.044.247-.018.247.007.245.031.242.054.234.079.226.102.213.123.201.145.186.164.168.18.15.198.129.211.106.223.085.233.061.239.037.245.012.247-.012.247-.037.244-.061.24-.085.232-.106.223-.129.212-.15.196-.183.195-.171.151-.201.144-.213.124-.226.101-.235.079-.241.055-.245.031-.247.006-.247-.018-.243-.044-.238-.066-.231-.091-.22-.113-.208-.134-.193-.154-.177-.173-.16-.19-.139-.203-.118-.217-.096-.228-.073-.237-.049-.243-.024-.246m-10.981 0v-.247l.025-.246.049-.242.073-.237.096-.228.118-.217.139-.205.159-.189.178-.173.193-.154.208-.134.22-.113.23-.09.238-.067.244-.044.246-.018.247.007.246.031.242.054.234.079.225.102.214.123.201.145.186.164.168.18.149.198.129.211.107.223.085.233.061.239.037.245.012.247-.012.247-.037.244-.061.24-.085.232-.107.223-.129.212-.149.197-.168.18-.186.165-.201.144-.214.124-.225.101-.235.079-.241.055-.246.031-.247.006-.246-.018-.244-.044-.238-.066-.23-.091-.22-.113-.208-.134-.193-.154-.178-.173-.159-.189-.139-.204-.118-.217-.096-.228-.073-.237-.049-.243-.025-.246m-33.735 0v-.247l.025-.246.049-.242.073-.237.096-.228.118-.217.139-.205.159-.189.178-.173.193-.154.208-.134.22-.113.23-.09.238-.067.244-.044.246-.018.247.007.246.031.242.054.234.079.225.102.214.123.201.145.186.164.168.18.149.198.129.211.107.223.085.233.061.239.037.245.012.247-.012.247-.037.244-.061.24-.085.232-.107.223-.129.212-.149.197-.168.18-.186.165-.201.144-.191.11-.248.115-.235.079-.241.055-.246.031-.247.006-.246-.018-.244-.044-.238-.066-.23-.091-.22-.113-.208-.134-.193-.154-.178-.173-.159-.189-.139-.204-.118-.217-.096-.228-.073-.237-.049-.243-.025-.246m-6.021-.123-.012.247-.037.244-.061.241-.085.231-.107.223-.129.212-.15.197-.168.18-.186.165-.2.144-.191.11-.249.115-.235.079-.241.055-.245.031-.247.006-.247-.018-.243-.044-.238-.066-.231-.091-.22-.113-.208-.134-.193-.154-.177-.173-.16-.189-.138-.204-.119-.217-.095-.228-.073-.237-.049-.243-.025-.246v-.247l.025-.246.049-.242.073-.237.095-.228.119-.217.138-.205.16-.189.177-.173.193-.154.208-.134.22-.113.231-.09.238-.067.243-.044.247-.018.247.007.245.031.242.054.234.079.226.102.214.123.2.145.186.164.168.18.15.198.129.211.107.223.085.232.061.24.037.245.012.247m28.379.133v-.267l.027-.266.053-.261.079-.256.103-.246.128-.235.15-.221.172-.204.191-.186.209-.167.225-.145.237-.122.248-.097.258-.072.263-.047.266-.02.267.007.265.033.26.059.254.085.244.11.231.134.217.155.201.178.181.195.161.213.14.228.115.241.092.251.065.259.041.264.013.267-.013.266-.041.264-.065.259-.092.251-.115.241-.14.229-.161.212-.181.196-.201.177-.217.156-.231.133-.244.11-.273.09-.241.054-.265.034-.267.006-.266-.019-.263-.047-.257-.072-.249-.098-.237-.122-.225-.144-.209-.167-.191-.187-.172-.204-.15-.221-.128-.234-.103-.247-.079-.255-.053-.262-.027-.266m-6.075.397-.065.259-.092.251-.115.241-.14.229-.161.212-.182.196-.201.177-.217.156-.231.133-.243.11-.254.085-.26.059-.265.034-.267.006-.266-.019-.263-.047-.257-.072-.249-.098-.237-.122-.225-.144-.209-.167-.191-.187-.172-.204-.151-.221-.127-.234-.104-.247-.078-.255-.053-.262-.027-.266v-.267l.027-.266.053-.261.078-.256.104-.246.127-.235.151-.221.172-.204.191-.186.209-.167.225-.145.237-.122.248-.097.258-.072.263-.047.266-.02.267.007.265.033.26.059.254.085.243.11.231.134.217.155.201.178.182.195.161.213.14.228.115.241.092.251.065.259.04.264.013.267-.013.266-.04.264m84.563 15.074h-5.2v6.429H576.58v5.2h-21.972v-5.2h-21.571v5.2h-21.972v-5.2h-21.571v5.2h-21.972v-5.2h-21.771v-6.429h-5.2v-11.828h5.2v-11.429h-5.2v-11.828h5.2v-11.429h-5.2v-11.828h5.2V411.8h18.057v-5.2h23.457v5.2h23.057v-5.2h23.458v5.2h23.057v-5.2h23.457v5.2h18.057v11.629h5.2v11.828h-5.2v11.429h5.2v11.828h-5.2v11.429h5.2v11.828M518.541 336.55l.009-.181.016-.084.027-.083.077-.163.108-.142.135-.119.07-.045.168-.076.083-.023.085-.015.183-.005.083.011.176.049.077.035.152.098.127.124.1.147.069.164.036.176.004.087-.004.086-.036.177-.069.165-.1.146-.127.124-.149.097-.169.066-.082.019-.179.013-.18-.022-.08-.023-.168-.075-.07-.046-.135-.12-.109-.143-.04-.073-.062-.17-.026-.176m-9.711 0 .009-.178.044-.173.077-.16.107-.142.136-.119.07-.045.165-.075.173-.039.18-.005.083.011.177.049.076.035.153.098.126.124.101.147.069.164.036.176.004.087-.004.086-.036.177-.07.167-.044.071-.117.141-.063.055-.152.099-.168.065-.083.019-.181.014-.084-.007-.177-.04-.164-.074-.07-.046-.136-.12-.107-.14-.078-.164-.025-.08-.027-.178m-115.545.003.008-.181.044-.173.077-.16.108-.142.135-.119.07-.045.168-.076.083-.023.085-.015.182-.005.084.011.176.049.076.035.153.098.126.124.101.147.069.164.036.176.004.087-.004.086-.036.177-.07.167-.044.071-.117.141-.063.055-.152.099-.168.065-.082.019-.18.013-.176-.022-.172-.058-.076-.039-.073-.047-.135-.12-.108-.141-.077-.16-.045-.175-.007-.083m-7.926-.048-.017.177-.053.17-.085.157-.115.138-.064.055-.152.099-.167.065-.083.019-.181.014-.084-.007-.177-.04-.164-.074-.07-.046-.138-.121-.053-.065-.095-.153-.06-.167-.027-.176.009-.18.017-.083.062-.172.041-.074.108-.144.136-.119.07-.045.165-.075.173-.039.18-.005.083.011.177.049.076.035.154.099.064.056.115.138.085.156.053.17.017.177m29.925 0-.005.109-.016.108-.027.105-.037.102-.048.099-.056.093-.066.087-.073.079-.082.072-.089.064-.094.054-.099.045-.104.034-.106.024-.108.014-.108.003-.109-.008-.107-.019-.105-.03-.102-.039-.097-.05-.091-.059-.085-.068-.078-.076-.07-.083-.061-.09-.052-.095-.043-.101-.032-.104-.022-.107-.009-.105.01-.223.021-.104.032-.104.043-.101.052-.095.061-.091.07-.083.078-.076.085-.068.091-.058.098-.05.101-.04.105-.029.105-.019.221-.006.106.013.106.025.104.035.099.044.094.055.089.063.081.073.074.079.066.087.057.093.047.098.037.102.027.106.016.108.005.108m83.438-.054.011-.108.022-.107.032-.104.043-.101.052-.095.061-.091.07-.083.078-.076.085-.068.091-.058.098-.05.1-.04.106-.029.107-.02.108-.007.109.002.108.013.106.025.104.035.099.044.094.055.088.063.081.073.075.079.066.087.057.093.047.098.037.102.027.106.016.108.005.108-.005.109-.016.108-.027.105-.037.102-.048.099-.056.092-.066.088-.074.079-.082.072-.088.064-.094.054-.099.045-.104.034-.106.024-.108.014-.109.003-.108-.008-.107-.019-.106-.03-.101-.039-.097-.05-.091-.059-.085-.068-.078-.076-.07-.083-.061-.09-.052-.095-.043-.101-.032-.104-.022-.107-.011-.108v-.109m-10.107 0 .011-.108.021-.108.032-.103.044-.101.051-.095.061-.091.071-.083.078-.076.085-.068.091-.058.097-.05.101-.04.105-.029.108-.02.108-.007.109.002.108.013.106.025.103.035.1.044.094.055.088.063.081.073.075.079.066.087.056.093.047.098.038.103.026.105.017.108.005.108-.005.109-.017.108-.026.105-.038.102-.047.099-.056.092-.066.088-.074.079-.082.072-.088.064-.094.054-.1.045-.103.035-.106.023-.108.014-.109.003-.108-.008-.108-.019-.105-.03-.102-.039-.095-.05-.092-.059-.085-.068-.078-.076-.071-.084-.061-.089-.051-.096-.044-.101-.032-.103-.021-.107-.011-.108v-.109m-83.438.054-.005.109-.017.108-.026.106-.037.101-.048.099-.056.092-.066.088-.074.079-.082.072-.088.064-.094.054-.1.045-.103.035-.106.023-.108.014-.109.003-.108-.008-.107-.019-.106-.03-.101-.039-.097-.05-.091-.059-.085-.068-.078-.076-.07-.083-.061-.09-.052-.095-.043-.101-.032-.104-.022-.107-.01-.106.011-.221.021-.105.032-.104.043-.101.052-.095.061-.091.07-.083.078-.076.085-.068.091-.058.098-.05.1-.04.106-.029.107-.02.108-.007.109.002.108.013.106.025.103.035.1.044.094.055.088.063.081.073.075.079.066.087.057.093.047.098.037.102.026.106.017.108.005.108m72.934-.064.013-.128.025-.126.038-.123.051-.119.061-.113.073-.105.083-.1.092-.089.1-.081.108-.069.115-.059.119-.047.124-.034.127-.023.128-.01.129.004.128.016.125.028.122.041.117.053.112.064.104.075.096.086.088.093.078.103.066.11.056.116.045.121.031.125.02.127.006.128-.006.129-.02.127-.031.124-.045.122-.056.115-.066.111-.078.102-.088.094-.096.086-.104.074-.112.065-.117.053-.122.041-.125.028-.128.016-.129.004-.128-.01-.127-.023-.124-.034-.119-.047-.114-.059-.109-.07-.1-.08-.092-.09-.083-.099-.073-.106-.061-.113-.051-.118-.038-.124-.025-.125-.013-.128v-.129m-52.322.064-.006.129-.02.127-.031.124-.045.122-.056.115-.066.111-.078.102-.088.094-.096.085-.105.075-.112.065-.116.053-.122.041-.126.028-.127.016-.129.004-.128-.01-.127-.023-.124-.034-.119-.047-.114-.059-.109-.07-.1-.08-.092-.09-.084-.099-.072-.106-.061-.113-.051-.118-.038-.124-.024-.124-.015-.194.015-.193.024-.125.038-.123.051-.119.061-.113.072-.105.084-.1.092-.089.1-.081.108-.069.115-.059.119-.047.124-.034.127-.023.128-.01.129.004.127.016.126.028.122.041.117.053.111.064.105.075.096.086.088.093.078.103.066.11.056.116.045.121.031.125.02.127.006.128m41.421-.074.015-.148.03-.145.043-.142.058-.136.072-.131.083-.123.096-.113.106-.104.116-.093.124-.08.133-.068.137-.054.143-.04.147-.026.148-.011.148.004.147.018.145.033.141.047.135.061.129.074.12.087.112.099.101.108.089.118.078.127.064.134.051.139.036.144.023.147.006.148-.006.149-.023.146-.036.145-.051.139-.064.133-.078.127-.09.119-.1.108-.112.099-.12.086-.129.074-.135.062-.141.047-.145.032-.147.019-.148.004-.148-.011-.147-.026-.143-.04-.137-.054-.133-.068-.124-.08-.116-.093-.106-.104-.096-.114-.083-.122-.072-.131-.057-.136-.044-.143-.03-.145-.015-.147v-.149m-30.52.074-.007.149-.023.146-.036.145-.051.139-.065.133-.076.127-.089.117-.216.21-.118.085-.128.074-.136.062-.141.047-.144.032-.148.019-.148.004-.148-.011-.147-.026-.143-.04-.137-.054-.133-.068-.124-.08-.116-.093-.106-.104-.096-.114-.083-.122-.072-.131-.057-.136-.044-.143-.029-.144-.016-.223.016-.223.029-.144.043-.142.058-.136.072-.131.083-.123.096-.113.106-.104.116-.093.124-.08.133-.068.137-.054.143-.04.147-.026.148-.011.148.004.148.018.144.033.141.047.136.061.128.074.12.087.112.099.101.109.09.117.076.127.065.134.051.139.036.144.023.147.007.148m19.223-.084.016-.167.034-.165.05-.161.065-.155.081-.148.094-.138.109-.129.12-.118.132-.105.141-.091.149-.077.157-.061.162-.045.166-.03.167-.013.169.005.166.021.164.037.16.053.153.07.146.084.136.098.127.112.114.122.102.134.087.144.073.152.058.158.041.163.026.166.007.168-.007.168-.026.167-.041.162-.058.159-.073.151-.087.143-.102.135-.115.123-.126.112-.136.098-.146.084-.153.069-.16.054-.164.037-.166.021-.169.004-.167-.012-.166-.03-.162-.045-.156-.061-.151-.078-.14-.09-.132-.105-.12-.118-.109-.128-.094-.14-.082-.148-.064-.154-.05-.162-.034-.164-.016-.168v-.168m-7.959-.25.026.166.008.168-.008.168-.026.167-.041.162-.058.159-.073.151-.087.143-.102.135-.115.123-.125.112-.137.098-.145.084-.154.069-.16.054-.164.037-.166.021-.169.004-.167-.012-.166-.03-.162-.045-.156-.061-.151-.078-.14-.09-.132-.105-.12-.118-.097-.116-.106-.153-.081-.147-.066-.154-.049-.161-.032-.164-.019-.253.019-.252.032-.165.049-.16.067-.155.08-.148.094-.138.109-.129.12-.118.132-.105.141-.091.149-.077.157-.061.162-.045.166-.03.167-.013.169.005.166.021.164.037.16.053.154.07.145.084.137.098.125.112.115.122.102.134.087.144.073.152.058.158.041.163m70.904-13.148v-.168l.017-.168.033-.164.05-.162.066-.155.08-.147.095-.14.108-.128.121-.118.131-.105.142-.09.149-.078.156-.061.163-.045.165-.03.168-.012.168.004.167.021.164.037.16.054.153.069.145.084.137.098.126.112.115.123.101.134.088.144.073.151.058.159.041.162.025.167.008.168-.008.168-.025.166-.041.163-.058.158-.073.152-.088.144-.101.134-.114.122-.127.112-.137.098-.146.084-.152.07-.16.053-.164.037-.167.021-.168.005-.168-.013-.165-.03-.163-.045-.156-.061-.15-.077-.141-.091-.131-.105-.121-.118-.108-.129-.095-.138-.08-.148-.066-.155-.05-.161-.033-.165-.017-.167m-133.816-.084-.008.168-.026.166-.04.164-.058.157-.073.152-.088.144-.101.134-.114.122-.127.112-.137.098-.145.084-.154.07-.159.053-.164.037-.167.021-.168.005-.168-.013-.165-.03-.163-.045-.156-.061-.15-.077-.141-.091-.131-.105-.121-.118-.108-.129-.095-.138-.08-.148-.066-.155-.05-.161-.032-.164-.019-.252.019-.253.032-.163.05-.162.066-.155.08-.147.095-.14.108-.128.121-.118.131-.105.142-.09.149-.078.156-.061.163-.045.165-.03.168-.012.168.004.167.021.164.037.159.054.154.069.145.084.137.098.126.112.115.123.101.134.088.144.073.151.058.158.04.163.026.167.008.168m124.027-.094.018-.187.038-.184.055-.181.074-.173.09-.165.105-.155.121-.144.135-.131.147-.118.158-.101.167-.087.175-.068.181-.05.185-.034.188-.014.188.005.186.024.183.041.179.06.171.077.163.094.152.11.142.125.128.137.113.15.097.161.082.169.065.177.046.182.028.186.009.188-.009.187-.028.186-.046.182-.065.177-.082.169-.097.161-.113.15-.128.137-.142.125-.152.11-.163.094-.171.077-.179.06-.183.041-.186.024-.188.005-.188-.014-.185-.033-.181-.051-.176-.068-.166-.086-.158-.102-.147-.117-.135-.132-.121-.143-.105-.156-.09-.166-.074-.172-.055-.18-.038-.184-.018-.187v-.188m-114.237.094-.009.187-.029.186-.046.183-.064.176-.082.169-.097.161-.114.149-.129.138-.14.125-.153.11-.162.094-.172.077-.178.06-.183.041-.187.024-.188.005-.187-.014-.185-.033-.182-.051-.175-.068-.167-.086-.158-.102-.146-.117-.135-.132-.121-.144-.106-.155-.089-.165-.074-.174-.056-.179-.037-.184-.019-.187v-.188l.019-.187.037-.184.056-.181.074-.173.089-.165.106-.155.121-.144.135-.131.146-.118.158-.101.168-.087.174-.068.182-.05.185-.034.187-.014.188.005.187.024.183.041.178.06.172.077.162.094.153.11.14.125.129.137.114.15.097.161.082.169.064.176.046.183.029.186.009.188m104.05.104v-.208l.021-.207.041-.203.061-.199.082-.192.099-.182.117-.172.134-.159.149-.145.162-.13.174-.112.186-.095.192-.076.201-.056.204-.037.208-.015.207.005.206.026.203.046.197.066.19.086.179.104.169.121.155.138.142.152.126.165.107.178.091.187.071.195.051.202.032.205.009.208-.009.207-.032.205-.051.202-.071.195-.091.187-.107.178-.126.166-.141.151-.156.138-.169.122-.179.103-.19.086-.197.066-.203.046-.206.026-.207.005-.208-.015-.204-.037-.201-.056-.192-.075-.186-.096-.174-.112-.162-.13-.149-.145-.134-.159-.117-.171-.099-.184-.082-.19-.061-.199-.041-.204-.021-.206m-93.864-.104-.009.207-.032.205-.051.202-.071.195-.091.187-.107.178-.126.166-.141.151-.156.138-.169.122-.179.103-.19.086-.197.066-.203.046-.206.026-.207.005-.208-.015-.204-.037-.201-.056-.192-.075-.186-.096-.174-.112-.162-.13-.149-.145-.134-.159-.117-.171-.099-.184-.082-.19-.061-.199-.041-.204-.021-.206v-.208l.021-.207.041-.203.061-.199.082-.192.099-.182.117-.172.134-.159.149-.145.162-.13.174-.112.186-.095.192-.076.201-.056.204-.037.208-.015.207.005.206.026.203.046.197.066.19.086.179.104.169.121.155.138.142.152.126.165.107.178.091.187.071.195.051.202.032.205.009.208m83.281.113v-.227l.023-.226.045-.223.067-.218.089-.21.109-.2.127-.188.147-.174.163-.159.178-.142.19-.123.203-.104.212-.083.22-.061.224-.041.226-.016.228.006.226.028.221.05.216.073.208.093.197.114.185.133.17.151.155.166.138.181.118.195.099.205.078.213.055.222.035.224.011.228-.011.227-.035.225-.055.221-.078.213-.099.205-.118.194-.138.181-.155.167-.17.152-.185.132-.197.114-.208.094-.216.072-.221.05-.226.029-.228.006-.226-.017-.224-.04-.22-.062-.211-.082-.203-.105-.191-.123-.178-.142-.163-.159-.147-.174-.127-.188-.109-.2-.089-.209-.067-.218-.045-.223-.023-.227m-72.697-.113-.011.227-.034.225-.056.22-.078.214-.099.205-.118.194-.138.181-.155.167-.17.152-.185.132-.197.114-.207.094-.217.072-.221.05-.226.029-.227.006-.227-.017-.224-.04-.22-.062-.211-.082-.202-.105-.192-.123-.178-.142-.163-.159-.146-.174-.128-.188-.109-.2-.089-.209-.067-.218-.045-.223-.023-.227v-.227l.023-.226.045-.223.067-.218.089-.21.109-.2.128-.188.146-.174.163-.159.178-.142.191-.123.203-.104.211-.083.22-.061.224-.041.227-.016.227.006.226.028.221.05.217.073.207.093.197.114.185.133.17.151.155.166.138.181.118.195.099.205.078.213.056.222.034.224.011.228m61.717.123v-.247l.024-.246.049-.242.073-.237.097-.228.118-.217.139-.205.16-.189.177-.173.193-.154.207-.134.22-.113.231-.09.239-.067.243-.044.247-.018.247.007.245.031.241.054.235.079.226.102.213.123.201.145.186.164.168.18.15.198.128.211.107.223.085.233.061.239.037.245.012.247-.012.247-.037.244-.061.24-.085.232-.107.223-.128.211-.15.197-.169.181-.185.165-.201.144-.213.124-.226.101-.235.079-.241.055-.245.031-.247.006-.247-.018-.243-.044-.239-.066-.23-.091-.221-.113-.207-.134-.193-.154-.177-.173-.16-.19-.139-.203-.118-.217-.097-.228-.073-.237-.049-.243-.024-.246m-10.981 0v-.247l.025-.246.049-.242.073-.237.097-.228.118-.217.139-.205.159-.189.178-.173.193-.154.207-.134.221-.113.229-.09.239-.067.244-.044.246-.018.247.007.246.031.241.054.235.079.225.102.214.123.201.145.186.164.168.18.149.198.128.211.108.223.085.233.061.239.037.245.012.247-.012.247-.037.244-.061.24-.085.232-.108.223-.128.212-.149.197-.169.18-.185.165-.201.144-.214.124-.225.101-.235.079-.241.055-.246.031-.247.006-.246-.018-.244-.044-.239-.066-.229-.091-.221-.113-.207-.134-.193-.154-.178-.173-.159-.19-.139-.203-.118-.217-.097-.228-.073-.237-.049-.243-.025-.246m-33.735 0v-.247l.025-.246.049-.242.073-.237.097-.228.118-.217.139-.205.159-.189.178-.173.193-.154.207-.134.221-.113.229-.09.239-.067.244-.044.246-.018.247.007.246.031.241.054.235.079.225.102.214.123.201.145.186.164.168.18.149.198.128.211.108.223.085.233.061.239.037.245.012.247-.012.247-.037.244-.061.24-.085.232-.108.223-.128.212-.149.197-.169.18-.185.165-.201.144-.192.11-.248.115-.234.079-.241.055-.246.031-.247.006-.246-.018-.244-.044-.239-.066-.229-.091-.221-.113-.207-.134-.193-.154-.178-.173-.159-.19-.139-.203-.118-.217-.097-.228-.073-.237-.049-.243-.025-.246m-6.021-.123-.011.247-.038.244-.06.241-.085.231-.108.223-.128.211-.15.197-.169.181-.185.165-.2.144-.192.11-.249.115-.234.079-.241.055-.245.031-.247.006-.247-.018-.243-.044-.239-.066-.23-.091-.221-.113-.207-.134-.193-.154-.177-.173-.16-.19-.138-.203-.119-.218-.095-.227-.074-.237-.049-.243-.025-.246v-.247l.025-.246.049-.242.074-.237.095-.228.119-.217.138-.205.16-.189.177-.173.193-.154.207-.134.22-.113.231-.09.239-.067.243-.044.247-.018.247.007.245.031.241.054.235.079.226.102.214.123.2.145.186.164.168.18.15.198.128.211.108.223.085.232.06.24.038.245.011.247m28.406-.4.053-.261.079-.256.104-.246.128-.235.15-.221.172-.204.19-.186.25-.193.184-.119.237-.122.249-.097.258-.072.263-.047.266-.02.267.007.265.033.26.059.254.085.244.11.231.134.217.155.2.178.182.195.161.213.139.228.116.241.092.25.065.26.041.264.012.267-.012.266-.041.264-.065.259-.092.251-.116.241-.139.228-.161.213-.182.196-.2.177-.217.156-.231.133-.244.11-.254.085-.26.059-.265.034-.267.006-.266-.019-.263-.047-.258-.072-.248-.098-.238-.122-.224-.144-.209-.167-.191-.187-.172-.204-.15-.221-.128-.235-.104-.246-.079-.255-.053-.262-.027-.266v-.267l.027-.266m-6.258-.641.092.25.065.26.04.264.013.267-.013.266-.04.264-.065.259-.092.251-.116.241-.139.228-.161.213-.183.196-.2.177-.217.156-.231.133-.243.11-.254.085-.26.059-.265.034-.267.006-.266-.019-.263-.047-.258-.072-.248-.098-.238-.122-.224-.144-.209-.167-.191-.187-.172-.205-.151-.22-.127-.234-.105-.247-.078-.255-.053-.262-.027-.266v-.267l.027-.266.053-.261.078-.256.105-.246.127-.235.151-.221.172-.204.191-.186.209-.167.225-.145.236-.122.249-.097.258-.072.263-.047.266-.02.267.007.265.033.26.059.254.085.243.11.231.134.217.155.201.178.182.195.161.213.139.228.116.241m71.029-32.733v-.286l.029-.286.057-.281.084-.275.113-.264.137-.252.161-.237.185-.22.205-.2.224-.179.241-.155.226-.116.297-.12.276-.077.282-.051.287-.021.286.007.285.036.279.063.273.092.24.108.27.153.233.168.214.19.196.21.173.228.149.246.125.258.099.27.07.278.043.283.014.287-.014.287-.043.283-.07.278-.099.27-.125.258-.149.246-.173.228-.196.21-.214.19-.233.168-.249.143-.261.118-.273.092-.279.063-.285.036-.286.007-.287-.021-.282-.051-.277-.077-.266-.104-.256-.132-.241-.155-.224-.179-.205-.2-.185-.221-.161-.236-.137-.253-.113-.263-.084-.275-.057-.281-.029-.286m-135.617-.143-.013.287-.044.283-.07.278-.099.27-.124.258-.149.246-.173.228-.195.21-.216.19-.233.168-.248.143-.262.118-.272.092-.28.063-.284.036-.287.007-.286-.021-.282-.051-.277-.077-.267-.104-.255-.132-.241-.155-.225-.179-.205-.2-.185-.221-.161-.236-.137-.252-.112-.264-.085-.275-.057-.281-.028-.286v-.286l.028-.286.057-.281.085-.275.112-.264.137-.252.161-.237.185-.22.205-.2.225-.179.241-.155.255-.132.267-.104.277-.077.282-.051.286-.021.287.007.284.036.28.063.272.092.262.118.248.143.233.168.216.19.195.21.173.228.149.246.124.258.099.27.07.278.044.283.013.287m126.727.153v-.306l.031-.305.061-.301.09-.293.12-.283.146-.269.173-.254.197-.235.22-.214.24-.191.257-.166.274-.14.284-.112.296-.083.302-.054.306-.023.306.008.305.039.298.067.292.098.279.126.265.154.25.178.229.204.209.224.186.245.159.262.133.276.105.289.076.297.046.303.015.306-.015.306-.046.303-.076.297-.105.289-.133.276-.159.262-.186.245-.209.224-.229.204-.25.178-.265.154-.279.126-.292.098-.298.067-.305.039-.306.008-.306-.023-.302-.054-.296-.083-.284-.112-.274-.14-.257-.166-.24-.191-.22-.214-.197-.235-.173-.254-.146-.269-.12-.283-.09-.293-.061-.301-.031-.305m-117.836-.153-.015.306-.046.303-.076.297-.105.289-.133.276-.159.262-.186.245-.209.224-.229.204-.25.178-.265.154-.279.126-.292.098-.298.067-.305.039-.306.008-.306-.023-.302-.054-.296-.083-.284-.112-.274-.14-.257-.166-.24-.191-.22-.214-.197-.235-.173-.254-.146-.269-.12-.283-.09-.293-.061-.301-.031-.305v-.306l.031-.305.061-.301.09-.293.12-.283.146-.269.173-.254.197-.235.22-.214.24-.191.257-.166.274-.14.284-.112.296-.083.302-.054.306-.023.306.008.305.039.298.067.292.098.279.126.265.154.25.178.229.204.209.224.186.245.159.262.133.276.105.289.076.297.046.303.015.306m105.808 0-.015.326-.05.323-.08.316-.112.307-.142.294-.169.279-.197.26-.223.239-.244.217-.266.19-.282.163-.298.135-.31.104-.318.072-.323.041-.327.008-.325-.024-.322-.058-.315-.088-.303-.119-.291-.149-.274-.177-.255-.203-.234-.228-.21-.25-.184-.27-.155-.287-.128-.301-.096-.312-.065-.32-.033-.325v-.326l.033-.325.065-.32.096-.312.128-.301.155-.287.184-.27.21-.25.234-.228.255-.203.274-.177.291-.149.303-.119.315-.088.322-.058.325-.024.299.008.351.041.318.072.31.104.298.135.282.163.266.19.244.217.223.239.197.26.169.279.142.294.112.306.08.317.05.323.015.326m2.737 0 .005-.162.032-.326.065-.32.096-.312.128-.301.156-.287.183-.27.21-.25.234-.228.255-.203.274-.177.291-.149.303-.119.315-.088.322-.058.325-.024.327.008.323.041.318.072.31.104.298.135.282.163.266.19.244.217.223.239.197.26.169.279.142.294.112.306.08.317.05.323.015.326-.015.326-.05.323-.08.316-.112.307-.142.294-.169.279-.197.26-.223.239-.244.217-.266.19-.282.163-.298.135-.31.104-.318.072-.323.041-.327.008-.325-.024-.322-.058-.315-.088-.303-.119-.291-.149-.274-.177-.255-.203-.234-.228-.21-.25-.183-.27-.156-.288-.128-.3-.096-.312-.065-.32-.032-.326-.005-.162m-96.517.163v-.326l.032-.325.065-.32.096-.312.128-.301.156-.287.183-.27.211-.25.234-.228.255-.203.274-.177.29-.149.304-.119.315-.088.321-.058.326-.024.326.008.324.041.318.072.31.104.297.135.283.163.265.19.244.217.223.239.197.26.17.279.142.294.112.306.08.317.049.323.016.326-.016.326-.049.323-.08.316-.112.307-.142.294-.17.279-.197.26-.223.239-.244.217-.265.19-.283.163-.297.135-.31.104-.318.072-.324.041-.326.008-.325-.024-.374-.071-.263-.075-.304-.119-.29-.149-.274-.177-.255-.203-.234-.228-.211-.251-.183-.269-.156-.288-.128-.3-.096-.312-.065-.32-.032-.325m-2.741-.163-.016.326-.049.323-.08.316-.112.307-.142.294-.17.279-.197.26-.223.239-.244.217-.265.19-.283.163-.297.135-.31.104-.318.072-.324.041-.327.008-.324-.024-.374-.071-.263-.075-.304-.119-.291-.149-.274-.177-.255-.203-.233-.228-.211-.251-.183-.269-.156-.288-.128-.3-.096-.312-.065-.32-.032-.325v-.326l.032-.325.065-.32.096-.312.128-.301.156-.287.183-.27.211-.25.233-.228.255-.203.274-.177.291-.149.304-.119.315-.088.321-.058.325-.024.327.008.324.041.318.072.31.104.297.135.283.163.265.19.244.217.223.239.197.26.17.279.142.294.112.306.08.317.049.323.016.326m79.097 0 .005-.202.04-.404.081-.398.119-.388.159-.374.193-.356.228-.335.262-.31.29-.284.317-.253.34-.219.362-.186.377-.148.391-.109.399-.071.405-.03.405.01.402.051.396.089.384.129.37.167.351.203.33.237.303.269.277.296.245.324.211.346.176.366.139.381.1.393.06.401.02.405-.02.405-.06.401-.1.393-.139.381-.176.366-.211.346-.245.324-.277.296-.303.269-.33.237-.351.203-.37.167-.384.129-.396.089-.402.051-.405.01-.405-.03-.399-.071-.391-.109-.377-.148-.362-.186-.34-.219-.317-.253-.29-.284-.262-.311-.228-.334-.193-.356-.159-.374-.119-.388-.081-.398-.04-.404-.005-.202m-58.936 0-.019.405-.061.401-.1.393-.139.381-.176.366-.211.346-.245.324-.276.296-.327.286-.307.22-.351.203-.369.167-.385.129-.396.089-.402.051-.405.01-.405-.03-.399-.071-.391-.109-.377-.148-.362-.186-.34-.219-.317-.253-.29-.284-.262-.311-.228-.334-.193-.356-.159-.374-.119-.388-.081-.398-.04-.403v-.406l.04-.403.081-.398.119-.388.159-.374.193-.356.228-.335.262-.31.29-.284.317-.253.34-.219.362-.186.377-.148.391-.109.399-.071.405-.03.405.01.402.051.396.089.385.129.369.167.351.203.33.237.303.269.277.296.245.324.211.346.176.366.139.381.1.393.061.401.019.405m46.474 0 .006-.241.048-.484.096-.475.143-.463.189-.447.232-.426.272-.4.312-.371.348-.339.378-.302.407-.263.431-.221.452-.177.467-.131.477-.085.483-.036.485.012.481.061.472.107.46.155.442.199.42.242.393.283.364.322.33.354.292.387.252.414.211.436.166.455.119.471.073.479.024.484-.024.484-.073.479-.119.47-.166.456-.211.436-.252.414-.292.387-.33.354-.364.322-.393.283-.42.242-.442.199-.46.155-.472.107-.481.061-.485.012-.483-.036-.477-.085-.467-.131-.452-.177-.431-.221-.407-.263-.378-.302-.348-.339-.312-.372-.272-.399-.232-.426-.189-.447-.143-.463-.096-.475-.048-.484-.006-.241m-14.044.241-.006-.241.006-.241.048-.484.096-.475.143-.463.189-.447.232-.426.273-.4.312-.371.347-.339.379-.302.406-.263.432-.221.451-.177.467-.131.477-.085.484-.036.484.012.481.061.473.107.46.155.441.199.42.242.394.283.363.322.33.354.293.387.252.414.21.436.167.456.119.47.072.479.024.484-.024.484-.072.479-.119.47-.167.456-.21.436-.252.414-.293.387-.33.354-.363.322-.394.283-.42.242-.441.199-.46.155-.473.107-.481.061-.484.012-.484-.036-.477-.085-.467-.131-.451-.177-.432-.221-.406-.263-.379-.302-.347-.339-.312-.372-.273-.399-.232-.426-.189-.447-.143-.463-.096-.475-.048-.484m-15.493.959-.096-.475-.048-.484-.006-.241.006-.241.048-.484.096-.475.143-.463.189-.447.232-.426.273-.4.312-.371.347-.339.379-.302.406-.263.431-.221.452-.177.467-.131.477-.085.484-.036.484.012.481.061.473.107.459.155.442.199.42.242.394.283.362.322.331.354.293.387.252.414.21.436.166.456.12.47.072.479.024.484-.025.496-.071.467-.12.47-.166.456-.21.436-.252.414-.293.387-.331.354-.362.322-.394.283-.42.242-.442.199-.459.155-.473.107-.481.061-.484.012-.484-.036-.477-.085-.467-.131-.452-.177-.431-.221-.406-.263-.379-.302-.347-.339-.312-.372-.273-.399-.232-.426-.189-.447-.143-.463m-5.067 1.125-.252.414-.293.387-.33.354-.363.322-.394.283-.419.242-.442.199-.46.155-.472.107-.481.061-.485.012-.483-.036-.477-.085-.468-.131-.451-.177-.431-.221-.407-.263-.379-.302-.347-.339-.312-.372-.273-.399-.231-.426-.189-.447-.143-.463-.096-.475-.048-.484-.007-.241.007-.241.048-.484.096-.475.143-.463.189-.447.231-.426.273-.4.312-.371.347-.339.379-.302.407-.263.431-.221.451-.177.468-.131.477-.085.483-.036.485.012.481.061.472.107.46.155.442.199.419.242.394.283.363.322.33.354.293.387.252.414.211.436.166.455.119.471.073.479.023.484-.023.484-.073.479-.119.47-.166.456-.211.436m93.898 53.625h-21.771v5.2h-21.972v-5.2h-21.571v5.2h-21.972v-5.2h-21.571v5.2H397.42v-5.2h-21.771v-6.429h-5.2v-11.828h5.2v-11.429h-5.2v-11.828h5.2v-11.429h-5.2v-11.828h5.2v-11.629h18.057v-5.2h23.457v5.2h23.057v-5.2h23.458v5.2h23.057v-5.2h23.457v5.2h18.057v11.629h5.2v11.828h-5.2v11.429h5.2v11.828h-5.2v11.429h5.2v11.828h-5.2v6.429" style="fill:none;stroke:#000;stroke-width:.1mm"/>
    <path d="M410.351 432.765v11.429h-5v-11.429h5m10 0h5v11.429h-5v-11.429m-10-23.257v11.429h-5v-11.429h5m10 0h5v11.429h-5v-11.429m-27.325-7.3v6.357h-5v-6.357h5m0-13.114v6.357h-5v-6.357h5m17.325-2.843v11.428h-5v-11.428h5m10 0h5v11.428h-5v-11.428m-27.325-10.272v6.358h-5v-6.358h5m47.525-6.757v22.029h-5.2v16.428h5.2v16.829h-5.2v16.429h5.2v9.885h-7.04v5h7.04v1.943h-5.2v5.341h-5.2v6.883h5.2v4.205h5.2v18.379l-6.12.813-.156.014-.156-.002-.156-.016-.155-.031-.151-.046-.146-.059-.138-.074-.132-.085-.123-.098-.113-.109-.103-.119-.091-.129-.077-.136-.065-.143-.051-.149-.038-.153-.022-.156-.007-.155v-12.545l-3.32.441-.156.014-.156-.002-.156-.016-.155-.031-.151-.046-.146-.059-.138-.074-.132-.085-.123-.098-.113-.109-.103-.119-.091-.129-.077-.136-.065-.143-.051-.149-.038-.153-.022-.156-.007-.155v-21.968h-1.08v-5.2h-6.84v5.2h-7.24v-5.2h-6.84v5.59l-34.902-81.99h5.252v-7.883h-5.2v-8.283h5.2v-8.084h3.801v5.2h8.601v-5.2h9.002v5.2h8.601v-5.2h8.967l2.042 4.928-14.323 14.322h-2.405v5h6.56v-5.2h6.961v5.2h6.561v-5.2h6.961v5.2h6.56v-5.2h6.961" style="fill:none;stroke:#000;stroke-width:.1mm"/>
    <desc>
        Drill Bit Template - Keyboard Upper.dxf - scale = 1.000000, origin = (0.000000, 0.000000), method = manual
    </desc>
    <path d="M511.065 596.428v5h-21.571v-5h21.571m21.972 0h21.571v5h-21.571v-5m-92.486-26.514h5.2v-16.429h-5.2v-16.828h5.2v-16.629h18.057v-5.2h23.457v5.2h23.057v-5.2h23.458v5.2h23.057v-5.2h23.457v5.2h18.057v16.629h5.2v16.828h-5.2v16.429h5.2v16.828h-5.2v9.686H576.58v5h21.771v1.743h5.2v16.828h-5.2v16.629h-152.6v-16.629h-5.2v-16.828h5.2v-1.743h21.771v-5h-21.771v-9.686h-5.2v-16.828" style="fill:none;stroke:#000;stroke-width:.1mm"/>
    <path d="M223.819 1464v40.16h5.905V1464m-467.716 0v40.16h-5.906V1464Zm14.173 0v40.16h-5.905V1464Zm28.347 0v40.16h-5.906V1464Zm14.173 0v40.16h-5.906V1464Zm14.173 0v40.16h-5.905V1464Zm28.346 0v40.16h-5.905V1464Zm14.174 0v40.16h-5.906V1464Zm28.346 0v40.16h-5.905V1464Zm14.173 0v40.16h-5.905V1464Zm14.174 0v40.16h-5.906V1464Zm28.346 0v40.16h-5.905V1464Zm14.173 0v40.16h-5.905V1464Zm28.347 0v40.16h-5.906V1464Zm14.173 0v40.16H11.22V1464Zm14.173 0v40.16h-5.905V1464Zm28.347 0v40.16H53.74V1464Zm14.173 0v40.16h-5.906V1464Zm28.346 0v40.16H96.26V1464zm14.174 0v40.16h-5.906V1464Zm14.173 0v40.16h-5.906V1464Zm28.346 0v40.16h-5.905V1464Zm14.173 0v40.16h-5.905V1464Zm28.347 0v40.16h-5.906V1464Zm14.173 0v40.16h-5.905V1464Z" style="fill:none;stroke:red" transform="matrix(.26458 0 0 .26458 522.051 231.967)"/>
    <path d="M155.906 1504.16v25.98m70.866-25.98v25.98m-481.89 0V1464m439.37 0v66.14m28.346-25.98v25.98m28.347-66.14v66.14m-170.079-25.98v25.98m28.347-25.98v25.98m-42.52-25.98v25.98m56.693-25.98v25.98m28.346-66.14v66.14m-14.173-25.98v25.98M85.039 1464v66.14m-113.386-25.98v25.98M0 1504.16v25.98m-42.52-25.98v25.98m56.693-25.98v25.98M42.52 1464v66.14m-127.56-25.98v25.98m14.174-25.98v25.98m14.173-66.14v66.14m255.118-25.98v25.98m-425.197-25.98v25.98m42.52-25.98v25.98m354.331-25.98v25.98M-212.598 1464v66.14m42.519-25.98v25.98m-28.346-25.98v25.98m56.693-25.98v25.98m42.52-25.98v25.98m-28.347-25.98v25.98m14.173-66.14v66.14m99.213-66.14v66.14m42.52-25.98v25.98m-269.292-25.98v25.98m85.039-66.14v66.14m411.024 0V1464h-510.236" style="fill:none;stroke:#00f" transform="matrix(.26458 0 0 .26458 522.051 231.967)"/>
    <path fill="none" stroke="#000" stroke-width=".1mm" d="M771.751 545.128h152.6v7.083h5.2v7.284h-5.2v7.083h-152.6v-7.083h-5.2v-7.284h5.2v-7.083"/>
    <path d="M223.819 1464v40.16h5.905V1464m-467.716 0v40.16h-5.906V1464Zm14.173 0v40.16h-5.905V1464Zm28.347 0v40.16h-5.906V1464Zm14.173 0v40.16h-5.906V1464Zm14.173 0v40.16h-5.905V1464Zm28.346 0v40.16h-5.905V1464Zm14.174 0v40.16h-5.906V1464Zm28.346 0v40.16h-5.905V1464Zm14.173 0v40.16h-5.905V1464Zm14.174 0v40.16h-5.906V1464Zm28.346 0v40.16h-5.905V1464Zm14.173 0v40.16h-5.905V1464Zm28.347 0v40.16h-5.906V1464Zm14.173 0v40.16H11.22V1464Zm14.173 0v40.16h-5.905V1464Zm28.347 0v40.16H53.74V1464Zm14.173 0v40.16h-5.906V1464Zm28.346 0v40.16H96.26V1464zm14.174 0v40.16h-5.906V1464Zm14.173 0v40.16h-5.906V1464Zm28.346 0v40.16h-5.905V1464Zm14.173 0v40.16h-5.905V1464Zm28.347 0v40.16h-5.906V1464Zm14.173 0v40.16h-5.905V1464Z" style="fill:none;stroke:red" transform="matrix(.26458 0 0 .26458 848.051 161.917)"/>
    <path d="M155.906 1504.16v25.98m70.866-25.98v25.98m-481.89 0V1464m439.37 0v66.14m28.346-25.98v25.98m28.347-66.14v66.14m-170.079-25.98v25.98m28.347-25.98v25.98m-42.52-25.98v25.98m56.693-25.98v25.98m28.346-66.14v66.14m-14.173-25.98v25.98M85.039 1464v66.14m-113.386-25.98v25.98M0 1504.16v25.98m-42.52-25.98v25.98m56.693-25.98v25.98M42.52 1464v66.14m-127.56-25.98v25.98m14.174-25.98v25.98m14.173-66.14v66.14m255.118-25.98v25.98m-425.197-25.98v25.98m42.52-25.98v25.98m354.331-25.98v25.98M-212.598 1464v66.14m42.519-25.98v25.98m-28.346-25.98v25.98m56.693-25.98v25.98m42.52-25.98v25.98m-28.347-25.98v25.98m14.173-66.14v66.14m99.213-66.14v66.14m42.52-25.98v25.98m-269.292-25.98v25.98m85.039-66.14v66.14m411.024 0V1464h-510.236" style="fill:none;stroke:#00f" transform="matrix(.26458 0 0 .26458 848.051 161.917)"/>
</svg>
