<?xml version="1.0" encoding="UTF-8" standalone="no"?>
<svg
   width="1300mm"
   height="900mm"
   viewBox="0 0 1300 900"
   version="1.1"
   id="svg10"
   sodipodi:docname="FrameLetterLandscape.svg"
   inkscape:version="1.4 (e7c3feb100, 2024-10-09)"
   xmlns:inkscape="http://www.inkscape.org/namespaces/inkscape"
   xmlns:sodipodi="http://sodipodi.sourceforge.net/DTD/sodipodi-0.dtd"
   xmlns="http://www.w3.org/2000/svg"
   xmlns:svg="http://www.w3.org/2000/svg">
  <defs
     id="defs10" />
  <sodipodi:namedview
     id="namedview10"
     pagecolor="#505050"
     bordercolor="#eeeeee"
     borderopacity="1"
     inkscape:showpageshadow="0"
     inkscape:pageopacity="0"
     inkscape:pagecheckerboard="0"
     inkscape:deskcolor="#505050"
     inkscape:document-units="mm"
     inkscape:zoom="0.083614244"
     inkscape:cx="-586.02456"
     inkscape:cy="-316.93165"
     inkscape:window-width="1920"
     inkscape:window-height="1011"
     inkscape:window-x="0"
     inkscape:window-y="32"
     inkscape:window-maximized="1"
     inkscape:current-layer="svg10" />
  <polyline
     z="0"
     points="486.091,570.582 453.109,570.582 453.109,565.382 420.527,565.382 420.527,570.582 387.545,570.582 387.545,565.382 354.964,565.382 354.964,570.582 321.982,570.582 321.982,565.382 294.4,565.382 294.4,539.318 289.2,539.318 289.2,513.055 294.4,513.055 294.4,487.191 289.2,487.191 289.2,460.927 294.4,460.927 294.4,435.064 289.2,435.064 289.2,408.8 294.4,408.8 294.4,382.937 289.2,382.937 289.2,356.673 294.4,356.673 294.4,330.809 289.2,330.809 289.2,304.546 294.4,304.546 294.4,278.482 321.982,278.482 321.982,273.282 354.964,273.282 354.964,278.482 387.545,278.482 387.545,273.282 420.527,273.282 420.527,278.482 453.109,278.482 453.109,273.282 486.091,273.282 486.091,278.482 518.673,278.482 518.673,273.282 551.655,273.282 551.655,278.482 584.236,278.482 584.236,273.282 617.218,273.282 617.218,278.482 644.8,278.482 644.8,304.546 650,304.546 650,330.809 644.8,330.809 644.8,356.673 650,356.673 650,382.937 644.8,382.937 644.8,408.8 650,408.8 650,435.064 644.8,435.064 644.8,460.927 650,460.927 650,487.191 644.8,487.191 644.8,513.055 650,513.055 650,539.318 644.8,539.318 644.8,565.382 617.218,565.382 617.218,570.582 584.236,570.582 584.236,565.382 551.655,565.382 551.655,570.582 518.673,570.582 518.673,565.382 486.091,565.382 486.091,570.582"
     fill="none"
     stroke="#000000"
     stroke-width="0.1mm"
     id="polyline3"
     style="vector-effect:non-scaling-stroke;stroke-width:0.264583;stroke-dasharray:none;-inkscape-stroke:hairline"
     transform="translate(129.336,208.468)" />
  <path
     id="polyline8"
     style="vector-effect:non-scaling-stroke;fill:none;stroke:#000000;stroke-width:0.264583;-inkscape-stroke:hairline"
     d="m 435.83,464.456 -0.337,-0.371 -0.298,-0.402 -0.257,-0.429 -0.213,-0.452 -0.169,-0.471 -0.122,-0.486 -0.073,-0.495 -0.025,-0.502 V 205.352 l 0.025,-0.502 0.073,-0.494 0.122,-0.486 0.169,-0.472 0.213,-0.452 0.257,-0.429 0.298,-0.402 0.337,-0.371 0.371,-0.337 0.402,-0.298 0.429,-0.257 0.452,-0.213 0.472,-0.169 0.486,-0.122 0.494,-0.073 0.502,-0.025 h 318.99596 l 0.502,0.025 0.494,0.073 0.486,0.122 0.472,0.169 0.452,0.213 0.429,0.257 0.402,0.298 0.371,0.337 0.337,0.371 0.298,0.402 0.257,0.429 0.214,0.452 0.168,0.472 0.122,0.486 0.073,0.494 0.025,0.502 v 255.496 l -0.025,0.502 -0.073,0.495 -0.122,0.486 -0.168,0.471 -0.214,0.452 -0.257,0.429 -0.298,0.402 -0.337,0.371 -0.371,0.337 -0.402,0.298 -0.429,0.257 -0.452,0.214 -0.472,0.168 -0.486,0.122 -0.494,0.073 -0.502,0.025 H 439.438 l -0.502,-0.025 -0.494,-0.073 -0.486,-0.122 -0.472,-0.168 -0.452,-0.214 -0.429,-0.257 -0.402,-0.298 -0.371,-0.337 m -12.094,12.094 v -26.064 h -5.2 v -26.263 h 5.2 v -25.864 h -5.2 v -26.264 h 5.2 v -25.863 h -5.2 v -26.264 h 5.2 v -25.863 h -5.2 v -26.264 h 5.2 v -25.864 h -5.2 v -26.263 h 5.2 V 189.65 h 27.582 v -5.2 H 484.3 v 5.2 h 32.581 v -5.2 h 32.982 v 5.2 h 32.582 v -5.2 h 32.98196 v 5.2 h 32.582 v -5.2 h 32.982 v 5.2 h 32.581 v -5.2 h 32.982 v 5.2 h 27.582 v 26.064 h 5.2 v 26.263 h -5.2 v 25.864 h 5.2 v 26.264 h -5.2 v 25.863 h 5.2 v 26.264 h -5.2 v 25.863 h 5.2 v 26.264 h -5.2 v 25.864 h 5.2 v 26.263 h -5.2 v 26.064 h -27.582 v 5.2 h -32.982 v -5.2 h -32.581 v 5.2 h -32.982 v -5.2 h -32.582 v 5.2 H 582.445 v -5.2 h -32.582 v 5.2 h -32.982 v -5.2 H 484.3 v 5.2 h -32.982 v -5.2 h -27.582" />
  <polyline
     z="0"
     points="486.091,570.582 453.109,570.582 453.109,565.382 420.527,565.382 420.527,570.582 387.545,570.582 387.545,565.382 354.964,565.382 354.964,570.582 321.982,570.582 321.982,565.382 294.4,565.382 294.4,539.318 289.2,539.318 289.2,513.055 294.4,513.055 294.4,487.191 289.2,487.191 289.2,460.927 294.4,460.927 294.4,435.064 289.2,435.064 289.2,408.8 294.4,408.8 294.4,382.937 289.2,382.937 289.2,356.673 294.4,356.673 294.4,330.809 289.2,330.809 289.2,304.546 294.4,304.546 294.4,278.482 321.982,278.482 321.982,273.282 354.964,273.282 354.964,278.482 387.545,278.482 387.545,273.282 420.527,273.282 420.527,278.482 453.109,278.482 453.109,273.282 486.091,273.282 486.091,278.482 518.673,278.482 518.673,273.282 551.655,273.282 551.655,278.482 584.236,278.482 584.236,273.282 617.218,273.282 617.218,278.482 644.8,278.482 644.8,304.546 650,304.546 650,330.809 644.8,330.809 644.8,356.673 650,356.673 650,382.937 644.8,382.937 644.8,408.8 650,408.8 650,435.064 644.8,435.064 644.8,460.927 650,460.927 650,487.191 644.8,487.191 644.8,513.055 650,513.055 650,539.318 644.8,539.318 644.8,565.382 617.218,565.382 617.218,570.582 584.236,570.582 584.236,565.382 551.655,565.382 551.655,570.582 518.673,570.582 518.673,565.382 486.091,565.382 486.091,570.582"
     fill="none"
     stroke="#000000"
     stroke-width="0.1mm"
     id="polyline3-0"
     style="vector-effect:non-scaling-stroke;stroke-width:0.264583;stroke-dasharray:none;-inkscape-stroke:hairline"
     transform="rotate(180,714.668,526.166)" />
  <path
     id="polyline8-5"
     style="vector-effect:non-scaling-stroke;fill:none;stroke:#000000;stroke-width:0.264583;-inkscape-stroke:hairline"
     d="m 1122.8419,201.744 0.337,0.371 0.298,0.402 0.257,0.429 0.213,0.452 0.169,0.471 0.122,0.486 0.073,0.495 0.025,0.502 v 255.496 l -0.025,0.502 -0.073,0.494 -0.122,0.486 -0.169,0.472 -0.213,0.452 -0.257,0.429 -0.298,0.402 -0.337,0.371 -0.371,0.337 -0.402,0.298 -0.429,0.257 -0.452,0.213 -0.472,0.169 -0.486,0.122 -0.494,0.073 -0.502,0.025 H 800.23808 l -0.502,-0.025 -0.494,-0.073 -0.486,-0.122 -0.472,-0.169 -0.452,-0.213 -0.429,-0.257 -0.402,-0.298 -0.371,-0.337 -0.337,-0.371 -0.298,-0.402 -0.257,-0.429 -0.214,-0.452 -0.168,-0.472 -0.122,-0.486 -0.073,-0.494 -0.025,-0.502 V 205.352 l 0.025,-0.502 0.073,-0.495 0.122,-0.486 0.168,-0.471 0.214,-0.452 0.257,-0.429 0.298,-0.402 0.337,-0.371 0.371,-0.337 0.402,-0.298 0.429,-0.257 0.452,-0.214 0.472,-0.168 0.486,-0.122 0.494,-0.073 0.502,-0.025 h 318.99582 l 0.502,0.025 0.494,0.073 0.486,0.122 0.472,0.168 0.452,0.214 0.429,0.257 0.402,0.298 0.371,0.337 m 12.094,-12.094 v 26.064 h 5.2 v 26.263 h -5.2 v 25.864 h 5.2 v 26.264 h -5.2 v 25.863 h 5.2 v 26.264 h -5.2 v 25.863 h 5.2 v 26.264 h -5.2 v 25.864 h 5.2 v 26.263 h -5.2 v 26.064 h -27.582 v 5.2 h -32.982 v -5.2 h -32.581 v 5.2 h -32.9819 v -5.2 h -32.582 v 5.2 h -32.98196 v -5.2 h -32.58196 v 5.2 h -32.982 v -5.2 h -32.581 v 5.2 h -32.982 v -5.2 h -27.582 v -26.064 h -5.2 v -26.263 h 5.2 v -25.864 h -5.2 v -26.264 h 5.2 v -25.863 h -5.2 v -26.264 h 5.2 v -25.863 h -5.2 v -26.264 h 5.2 v -25.864 h -5.2 v -26.263 h 5.2 V 189.65 h 27.582 v -5.2 h 32.982 v 5.2 h 32.581 v -5.2 h 32.982 v 5.2 h 32.58196 v -5.2 H 976.227 v 5.2 h 32.582 v -5.2 h 32.9819 v 5.2 h 32.581 v -5.2 h 32.982 v 5.2 h 27.582" />
  <polyline
     z="0"
     points="591.7,646.171 619.482,646.171 619.482,651.371 652.064,651.371 652.064,646.171 685.045,646.171 685.045,651.371 717.627,651.371 717.627,646.171 750.609,646.171 750.609,651.371 783.191,651.371 783.191,646.171 816.173,646.171 816.173,651.371 848.755,651.371 848.755,646.171 881.736,646.171 881.736,651.371 914.318,651.371 914.318,646.171 942.1,646.171 942.1,653.451 947.3,653.451 947.3,660.931 942.1,660.931 942.1,668.011 947.3,668.011 947.3,675.491 942.1,675.491 942.1,682.771 914.318,682.771 914.318,677.571 881.736,677.571 881.736,682.771 848.755,682.771 848.755,677.571 816.173,677.571 816.173,682.771 783.191,682.771 783.191,677.571 750.609,677.571 750.609,682.771 717.627,682.771 717.627,677.571 685.045,677.571 685.045,682.771 652.064,682.771 652.064,677.571 619.482,677.571 619.482,682.771 591.7,682.771 591.7,675.491 586.5,675.491 586.5,668.011 591.7,668.011 591.7,660.931 586.5,660.931 586.5,653.451 591.7,653.451 591.7,646.171"
     fill="none"
     stroke="#000000"
     stroke-width="0.1mm"
     id="polyline4"
     style="vector-effect:non-scaling-stroke;stroke-width:0.264583;stroke-dasharray:none;-inkscape-stroke:hairline"
     transform="matrix(0,1,1,0,-320.371,-168.25)" />
  <polyline
     z="0"
     points="650,626.718 289.2,626.718 289.2,607.873 294.4,607.873 294.4,589.427 289.2,589.427 289.2,570.582 650,570.582 650,589.427 644.8,589.427 644.8,607.873 650,607.873 650,626.718"
     fill="none"
     stroke="#000000"
     stroke-width="0.1mm"
     id="polyline5"
     style="vector-effect:non-scaling-stroke;stroke-width:0.264583;stroke-dasharray:none;-inkscape-stroke:hairline"
     transform="matrix(0,1,1,0,-208.182,129.05)" />
  <polyline
     z="0"
     points="655.2,626.718 655.2,619.438 650,619.438 650,611.958 655.2,611.958 655.2,604.878 650,604.878 650,597.398 655.2,597.398 655.2,590.118 682.982,590.118 682.982,595.318 715.564,595.318 715.564,590.118 748.545,590.118 748.545,595.318 781.127,595.318 781.127,590.118 814.109,590.118 814.109,595.318 846.691,595.318 846.691,590.118 879.673,590.118 879.673,595.318 912.255,595.318 912.255,590.118 945.236,590.118 945.236,595.318 977.818,595.318 977.818,590.118 1005.6,590.118 1005.6,597.398 1010.8,597.398 1010.8,604.878 1005.6,604.878 1005.6,611.958 1010.8,611.958 1010.8,619.438 1005.6,619.438 1005.6,626.718 977.818,626.718 977.818,621.518 945.236,621.518 945.236,626.718 912.255,626.718 912.255,621.518 879.673,621.518 879.673,626.718 846.691,626.718 846.691,621.518 814.109,621.518 814.109,626.718 781.127,626.718 781.127,621.518 748.545,621.518 748.545,626.718 715.564,626.718 715.564,621.518 682.982,621.518 682.982,626.718 655.2,626.718"
     fill="none"
     stroke="#000000"
     stroke-width="0.1mm"
     id="polyline6"
     style="vector-effect:non-scaling-stroke;stroke-width:0.264583;stroke-dasharray:none;-inkscape-stroke:hairline"
     transform="matrix(0,1,1,0,-300.918,-231.75)" />
  <polyline
     z="0"
     points="591.7,646.171 619.482,646.171 619.482,651.371 652.064,651.371 652.064,646.171 685.045,646.171 685.045,651.371 717.627,651.371 717.627,646.171 750.609,646.171 750.609,651.371 783.191,651.371 783.191,646.171 816.173,646.171 816.173,651.371 848.755,651.371 848.755,646.171 881.736,646.171 881.736,651.371 914.318,651.371 914.318,646.171 942.1,646.171 942.1,653.451 947.3,653.451 947.3,660.931 942.1,660.931 942.1,668.011 947.3,668.011 947.3,675.491 942.1,675.491 942.1,682.771 914.318,682.771 914.318,677.571 881.736,677.571 881.736,682.771 848.755,682.771 848.755,677.571 816.173,677.571 816.173,682.771 783.191,682.771 783.191,677.571 750.609,677.571 750.609,682.771 717.627,682.771 717.627,677.571 685.045,677.571 685.045,682.771 652.064,682.771 652.064,677.571 619.482,677.571 619.482,682.771 591.7,682.771 591.7,675.491 586.5,675.491 586.5,668.011 591.7,668.011 591.7,660.931 586.5,660.931 586.5,653.451 591.7,653.451 591.7,646.171"
     fill="none"
     stroke="#000000"
     stroke-width="0.1mm"
     id="polyline4-6"
     style="vector-effect:non-scaling-stroke;stroke-width:0.264583;stroke-dasharray:none;-inkscape-stroke:hairline"
     transform="matrix(0,1,1,0,-393.571,-168.25)" />
  <polyline
     z="0"
     points="650,626.718 289.2,626.718 289.2,607.873 294.4,607.873 294.4,589.427 289.2,589.427 289.2,570.582 650,570.582 650,589.427 644.8,589.427 644.8,607.873 650,607.873 650,626.718"
     fill="none"
     stroke="#000000"
     stroke-width="0.1mm"
     id="polyline5-1"
     style="vector-effect:non-scaling-stroke;stroke-width:0.264583;stroke-dasharray:none;-inkscape-stroke:hairline"
     transform="matrix(0,1,1,0,-410.718,129.05)" />
  <polyline
     z="0"
     points="655.2,626.718 655.2,619.438 650,619.438 650,611.958 655.2,611.958 655.2,604.878 650,604.878 650,597.398 655.2,597.398 655.2,590.118 682.982,590.118 682.982,595.318 715.564,595.318 715.564,590.118 748.545,590.118 748.545,595.318 781.127,595.318 781.127,590.118 814.109,590.118 814.109,595.318 846.691,595.318 846.691,590.118 879.673,590.118 879.673,595.318 912.255,595.318 912.255,590.118 945.236,590.118 945.236,595.318 977.818,595.318 977.818,590.118 1005.6,590.118 1005.6,597.398 1010.8,597.398 1010.8,604.878 1005.6,604.878 1005.6,611.958 1010.8,611.958 1010.8,619.438 1005.6,619.438 1005.6,626.718 977.818,626.718 977.818,621.518 945.236,621.518 945.236,626.718 912.255,626.718 912.255,621.518 879.673,621.518 879.673,626.718 846.691,626.718 846.691,621.518 814.109,621.518 814.109,626.718 781.127,626.718 781.127,621.518 748.545,621.518 748.545,626.718 715.564,626.718 715.564,621.518 682.982,621.518 682.982,626.718 655.2,626.718"
     fill="none"
     stroke="#000000"
     stroke-width="0.1mm"
     id="polyline6-5"
     style="vector-effect:non-scaling-stroke;stroke-width:0.264583;stroke-dasharray:none;-inkscape-stroke:hairline"
     transform="matrix(0,1,1,0,-374.118,-231.75)" />
  <path
     id="polyline2"
     style="vector-effect:non-scaling-stroke;fill:none;stroke:#000000;stroke-width:0.264583;-inkscape-stroke:hairline"
     d="m 357.283,308.795 h 5 v 25.864 h -5 v -25.864 m -31.4,-187.845 h 7.48 v 5.2 h 7.08 v -5.2 h 7.48 v 5.2 h 7.08 v -5.2 h 7.48 v 31.464 h -5.2 v 25.863 h 5.2 v 26.264 h -5.2 v 25.864 h 5.2 v 26.263 h -5.2 v 25.86399 h 5.2 v 15.402 l 14.123,-14.123 5.33,2.20801 h -5.603 v 18.445 h 5.2 v 18.84499 h -5.2 V 341.755 h 5.342 l -13.67,13.67 h -5.522 v 5.498 h -5.2 v 25.863 h 5.2 v 31.464 h -7.48 v -5.2 h -7.08 v 5.2 h -7.48 v -5.2 h -7.08 v 5.2 h -7.48 v -31.464 h 5.2 v -25.863 h -5.2 v -26.264 h 5.2 v -25.864 h -5.2 v -26.263 h 5.2 v -25.864 h -5.2 v -26.263 h 5.2 v -25.864 h -5.2 v -26.264 h 5.2 v -25.863 h -5.2 V 120.95" />
  <path
     id="polyline10"
     style="vector-effect:non-scaling-stroke;fill:none;stroke:#000000;stroke-width:0.264583;-inkscape-stroke:hairline"
     d="m 264.63,230.405 v -25.864 h 5 v 25.864 h -5 m -31.4,187.845 v -31.464 h 5.2 v -25.86301 h -5.2 v -26.264 h 5.2 v -25.864 h -5.2 v -26.263 h 5.2 v -25.864 h -5.2 V 230.405 h 5.2 v -25.864 h -5.2 v -26.264 h 5.2 v -25.863 h -5.2 V 120.95 h 7.48 v 5.2 h 7.08 v -5.2 h 7.48 v 5.2 h 7.08 v -5.2 h 7.48 v 31.464 h -5.2 v 25.863 h 5.2 v 5.498 h 5.521 l 13.67,13.67 h -5.341 v 18.446 h 5.2 v 18.845 h -5.2 v 18.445 h 5.603 l -5.33,2.208 -14.123,-14.123 v 15.402 h -5.2 v 25.864 h 5.2 v 26.263 h -5.2 v 25.864 h 5.2 v 26.264 h -5.2 v 25.863 h 5.2 v 31.46399 h -7.48 v -5.2 h -7.08 v 5.2 h -7.48 v -5.2 h -7.08 v 5.2 h -7.48" />
  <path
     id="polyline2-2"
     style="vector-effect:non-scaling-stroke;fill:none;stroke:#000000;stroke-width:0.264583;-inkscape-stroke:hairline"
     d="m 294.483,308.795 h -5 v 25.864 h 5 v -25.864 m 31.4,-187.845 h -7.48 v 5.2 h -7.08 v -5.2 h -7.48 v 5.2 h -7.08 v -5.2 h -7.48 v 31.464 h 5.2 v 25.863 h -5.2 v 26.264 h 5.2 v 25.864 h -5.2 v 26.263 h 5.2 v 25.86399 h -5.2 v 15.402 l -14.123,-14.123 -5.33,2.20801 h 5.603 v 18.445 h -5.2 v 18.84499 h 5.2 V 341.755 h -5.342 l 13.67,13.67 h 5.522 v 5.498 h 5.2 v 25.863 h -5.2 v 31.464 h 7.48 v -5.2 h 7.08 v 5.2 h 7.48 v -5.2 h 7.08 v 5.2 h 7.48 v -31.464 h -5.2 v -25.863 h 5.2 v -26.264 h -5.2 v -25.864 h 5.2 v -26.263 h -5.2 v -25.864 h 5.2 v -26.263 h -5.2 v -25.864 h 5.2 v -26.264 h -5.2 v -25.863 h 5.2 V 120.95" />
  <path
     id="polyline10-4"
     style="vector-effect:non-scaling-stroke;fill:none;stroke:#000000;stroke-width:0.264583;-inkscape-stroke:hairline"
     d="m 387.136,230.405 v -25.864 h -5 v 25.864 h 5 m 31.4,187.845 v -31.464 h -5.2 v -25.86301 h 5.2 v -26.264 h -5.2 v -25.864 h 5.2 v -26.263 h -5.2 v -25.864 h 5.2 V 230.405 h -5.2 v -25.864 h 5.2 v -26.264 h -5.2 v -25.863 h 5.2 V 120.95 h -7.48 v 5.2 h -7.08 v -5.2 h -7.48 v 5.2 h -7.08 v -5.2 h -7.48 v 31.464 h 5.2 v 25.863 h -5.2 v 5.498 h -5.521 l -13.67,13.67 h 5.341 v 18.446 h -5.2 v 18.845 h 5.2 v 18.445 h -5.603 l 5.33,2.208 14.123,-14.123 v 15.402 h 5.2 v 25.864 h -5.2 v 26.263 h 5.2 v 25.864 h -5.2 v 26.264 h 5.2 v 25.863 h -5.2 v 31.46399 h 7.48 v -5.2 h 7.08 v 5.2 h 7.48 v -5.2 h 7.08 v 5.2 h 7.48" />
</svg>
