<!--
Cleat Wall Organization Equipment
Copyright (C) 2025  Corporate Hacks

This program is free software: you can redistribute it and/or modify
it under the terms of the GNU General Public License as published by
the Free Software Foundation, either version 3 of the License, or
(at your option) any later version.

This program is distributed in the hope that it will be useful,
but WITHOUT ANY WARRANTY; without even the implied warranty of
MERCHANTABILITY or FITNESS FOR A PARTICULAR PURPOSE.  See the
GNU General Public License for more details.

You should have received a copy of the GNU General Public License
along with this program.  If not, see <http://www.gnu.org/licenses/>.
-->

<svg xmlns="http://www.w3.org/2000/svg" width="1300mm" height="900mm" viewBox="0 0 1300 900">
    <path fill="none" stroke="#000" stroke-width=".1mm" d="M326.15 606.858v-32.309h-5.2V542.04h5.2v-32.109h-5.2v-32.509h5.2v-32.109h-5.2v-32.51h5.2v-32.109h-5.2v-32.509h5.2v-32.109h-5.2v-32.509h5.2v-27.109h26.064v-5.2h26.263v5.2h25.864v-5.2h26.264v5.2h25.863v-5.2h26.264v5.2h25.863v-5.2h26.264v5.2h25.864v-5.2h26.263v5.2h26.064v27.109h5.2v32.509h-5.2v32.109h5.2v32.509h-5.2v32.109h5.2v32.51h-5.2v32.109h5.2v32.509h-5.2v32.109h5.2v32.509h-5.2v32.309h-21.809v5.2h-27.209v-5.2h-26.809v5.2h-27.209v-5.2h-26.809v5.2h-27.21v-5.2h-26.809v5.2h-27.209v-5.2h-26.809v5.2h-27.209v-5.2H326.15" style="vector-effect:non-scaling-stroke;stroke-width:.264583;stroke-dasharray:none;-inkscape-stroke:hairline" transform="matrix(1 0 0 -1 124.402 701.258)"/>
    <path d="m759.946 106.493-.337.371-.298.402-.257.43-.213.452-.169.471-.122.486-.073.494-.025.503v318.995l.025.503.073.494.122.486.169.471.213.452.257.43.298.402.337.371.371.336.402.298.429.257.452.214.472.169.486.121.494.074.502.025h255.496l.502-.025.494-.074.486-.121.472-.169.452-.214.429-.257.402-.298.371-.336.337-.371.298-.402.257-.43.214-.452.168-.471.122-.486.073-.494.025-.503V110.102l-.025-.503-.073-.494-.122-.486-.168-.471-.214-.452-.257-.43-.298-.402-.337-.371-.371-.336-.402-.298-.429-.257-.452-.214-.472-.169-.486-.121-.494-.074-.502-.024H763.554l-.502.024-.494.074-.486.121-.472.169-.452.214-.429.257-.402.298-.371.336M747.852 94.4v32.309h-5.2v32.509h5.2v32.109h-5.2v32.509h5.2v32.109h-5.2v32.51h5.2v32.109h-5.2v32.509h5.2v32.109h-5.2v32.509h5.2V444.8h26.064v5.2h26.263v-5.2h25.864v5.2h26.264v-5.2h25.863v5.2h26.264v-5.2h25.863v5.2h26.264v-5.2h25.864v5.2h26.263v-5.2h26.064v-27.109h5.2v-32.509h-5.2v-32.109h5.2v-32.509h-5.2v-32.109h5.2v-32.51h-5.2v-32.109h5.2v-32.509h-5.2v-32.109h5.2v-32.509h-5.2V94.4h-21.809v-5.2h-27.209v5.2h-26.809v-5.2h-27.209v5.2h-26.809v-5.2h-27.21v5.2h-26.809v-5.2h-27.209v5.2H796.87v-5.2h-27.209v5.2h-21.809" style="vector-effect:non-scaling-stroke;fill:none;stroke:#000;stroke-width:.264583;-inkscape-stroke:hairline"/>
    <path fill="none" stroke="#000" stroke-width=".1mm" d="M326.15 606.858v-32.309h-5.2V542.04h5.2v-32.109h-5.2v-32.509h5.2v-32.109h-5.2v-32.51h5.2v-32.109h-5.2v-32.509h5.2v-32.109h-5.2v-32.509h5.2v-27.109h26.064v-5.2h26.263v5.2h25.864v-5.2h26.264v5.2h25.863v-5.2h26.264v5.2h25.863v-5.2h26.264v5.2h25.864v-5.2h26.263v5.2h26.064v27.109h5.2v32.509h-5.2v32.109h5.2v32.509h-5.2v32.109h5.2v32.51h-5.2v32.109h5.2v32.509h-5.2v32.109h5.2v32.509h-5.2v32.309h-21.809v5.2h-27.209v-5.2h-26.809v5.2h-27.209v-5.2h-26.809v5.2h-27.21v-5.2h-26.809v5.2h-27.209v-5.2h-26.809v5.2h-27.209v-5.2H326.15" style="vector-effect:non-scaling-stroke;stroke-width:.264583;stroke-dasharray:none;-inkscape-stroke:hairline" transform="translate(124.402 198.742)"/>
    <path fill="none" stroke="#000" stroke-width=".1mm" d="M320.95 704.794v-18.845h5.2v-18.446h-5.2v-18.845h297.3v18.845h-5.2v18.446h5.2v18.845h-297.3" style="vector-effect:non-scaling-stroke;stroke-width:.264583;stroke-dasharray:none;-inkscape-stroke:hairline" transform="rotate(-90 709.68 390.321)"/>
    <path fill="none" stroke="#000" stroke-width=".1mm" d="M320.95 648.658v-7.48h5.2v-7.08h-5.2v-7.48h5.2v-7.08h-5.2v-7.48h31.464v5.2h25.863v-5.2h26.264v5.2h25.864v-5.2h26.263v5.2h25.864v-5.2h26.263v5.2h25.864v-5.2h26.264v5.2h25.863v-5.2h31.464v7.48h-5.2v7.08h5.2v7.48h-5.2v7.08h5.2v7.48h-31.464v-5.2h-25.863v5.2h-26.264v-5.2h-25.864v5.2h-26.263v-5.2h-25.864v5.2h-26.263v-5.2h-25.864v5.2h-26.264v-5.2h-25.863v5.2H320.95" style="vector-effect:non-scaling-stroke;stroke-width:.264583;stroke-dasharray:none;-inkscape-stroke:hairline" transform="rotate(-90 669.565 430.435)"/>
    <path fill="none" stroke="#000" stroke-width=".1mm" d="M618.25 619.338h5.2v-7.28h22.009v5.2h26.809v-5.2h27.209v5.2h26.809v-5.2h27.209v5.2h26.81v-5.2h27.209v5.2h26.809v-5.2h27.209v5.2h26.809v-5.2h22.009v7.28h5.2v7.48h-5.2v7.08h5.2v7.48h-5.2v7.28h-22.009v-5.2h-26.809v5.2h-27.209v-5.2h-26.809v5.2h-27.209v-5.2h-26.81v5.2h-27.209v-5.2h-26.809v5.2h-27.209v-5.2h-26.809v5.2H623.45v-7.28h-5.2v-7.48h5.2v-7.08h-5.2v-7.48" style="vector-effect:non-scaling-stroke;stroke-width:.264583;stroke-dasharray:none;-inkscape-stroke:hairline" transform="rotate(-90 858.33 538.971)"/>
    <path fill="none" stroke="#000" stroke-width=".1mm" d="M320.95 704.794v-18.845h5.2v-18.446h-5.2v-18.845h297.3v18.845h-5.2v18.446h5.2v18.845h-297.3" style="vector-effect:non-scaling-stroke;stroke-width:.264583;stroke-dasharray:none;-inkscape-stroke:hairline" transform="matrix(0 -1 -1 0 1463.246 1100)"/>
    <path fill="none" stroke="#000" stroke-width=".1mm" d="M320.95 648.658v-7.48h5.2v-7.08h-5.2v-7.48h5.2v-7.08h-5.2v-7.48h31.464v5.2h25.863v-5.2h26.264v5.2h25.864v-5.2h26.263v5.2h25.864v-5.2h26.263v5.2h25.864v-5.2h26.264v5.2h25.863v-5.2h31.464v7.48h-5.2v7.08h5.2v7.48h-5.2v7.08h5.2v7.48h-31.464v-5.2h-25.863v5.2h-26.264v-5.2h-25.864v5.2h-26.263v-5.2h-25.864v5.2h-26.263v-5.2h-25.864v5.2h-26.264v-5.2h-25.863v5.2H320.95" style="vector-effect:non-scaling-stroke;stroke-width:.264583;stroke-dasharray:none;-inkscape-stroke:hairline" transform="matrix(0 -1 -1 0 1463.246 1100)"/>
    <path fill="none" stroke="#000" stroke-width=".1mm" d="M618.25 619.338h5.2v-7.28h22.009v5.2h26.809v-5.2h27.209v5.2h26.809v-5.2h27.209v5.2h26.81v-5.2h27.209v5.2h26.809v-5.2h27.209v5.2h26.809v-5.2h22.009v7.28h5.2v7.48h-5.2v7.08h5.2v7.48h-5.2v7.28h-22.009v-5.2h-26.809v5.2h-27.209v-5.2h-26.809v5.2h-27.209v-5.2h-26.81v5.2h-27.209v-5.2h-26.809v5.2h-27.209v-5.2h-26.809v5.2H623.45v-7.28h-5.2v-7.48h5.2v-7.08h-5.2v-7.48" style="vector-effect:non-scaling-stroke;stroke-width:.264583;stroke-dasharray:none;-inkscape-stroke:hairline" transform="matrix(0 -1 -1 0 1543.474 1397.3)"/>
    <path d="m759.946 793.507-.337-.371-.298-.402-.257-.43-.213-.452-.169-.471-.122-.486-.073-.494-.025-.503V470.903l.025-.503.073-.494.122-.486.169-.471.213-.452.257-.43.298-.402.337-.371.371-.336.402-.298.429-.257.452-.214.472-.169.486-.121.494-.074.502-.025h255.496l.502.025.494.074.486.121.472.169.452.214.429.257.402.298.371.336.337.371.298.402.257.43.214.452.168.471.122.486.073.494.025.503v318.995l-.025.503-.073.494-.122.486-.168.471-.214.452-.257.43-.298.402-.337.371-.371.336-.402.298-.429.257-.452.214-.472.169-.486.121-.494.074-.502.024H763.554l-.502-.024-.494-.074-.486-.121-.472-.169-.452-.214-.429-.257-.402-.298-.371-.336M747.852 805.6v-32.309h-5.2v-32.509h5.2v-32.109h-5.2v-32.509h5.2v-32.109h-5.2v-32.51h5.2v-32.109h-5.2v-32.509h5.2v-32.109h-5.2v-32.509h5.2V455.2h26.064V450h26.263v5.2h25.864V450h26.264v5.2h25.863V450h26.264v5.2h25.863V450h26.264v5.2h25.864V450h26.263v5.2h26.064v27.109h5.2v32.509h-5.2v32.109h5.2v32.509h-5.2v32.109h5.2v32.51h-5.2v32.109h5.2v32.509h-5.2v32.109h5.2v32.509h-5.2V805.6h-21.809v5.2h-27.209v-5.2h-26.809v5.2h-27.209v-5.2h-26.809v5.2h-27.21v-5.2h-26.809v5.2h-27.209v-5.2H796.87v5.2h-27.209v-5.2h-21.809M316.3 708.473v-32.109h5v32.109h-5m-.2 102.327v-37.709h5.2v-32.109h-5.2v-24.757h-5.521l-13.67-13.67h5.341v-18.446h-5.2v-18.845h5.2v-18.445h-5.602l5.33-2.208 14.122 14.123v-14.879h5.2v-32.11h-5.2v-32.509h5.2v-32.109h-5.2v-32.509h5.2v-32.109h-5.2V455.2h7.28V450h7.48v5.2h7.08V450h7.48v5.2h7.28v27.309h-5.2v32.109h5.2v32.509h-5.2v32.109h5.2v32.509h-5.2v32.11h5.2v32.509h-5.2v32.109h5.2v32.509h-5.2v32.109h5.2V810.8h-7.48v-5.2h-7.08v5.2h-7.48v-5.2h-7.08v5.2h-7.48M413.952 552.327v32.109h-5v-32.109h5M445.352 450v37.709h-5.2v32.109h5.2v32.509h-5.2v32.109h5.2v32.509h-5.2v32.11h5.2v32.509h-5.2v32.109h5.2v32.509h-5.2v32.109h5.2V805.6h-7.28v5.2h-7.48v-5.2h-7.08v5.2h-7.48v-5.2h-7.28v-27.309h5.2v-32.109h-5.2v-32.509h5.2v-32.109h-5.2v-32.509h5.2v-32.11h-5.2v-14.879l-14.122 14.123-5.33-2.208h5.602v-18.445h-5.2v-18.845h5.2v-18.446h-5.341l13.67-13.67h5.521v-24.757h5.2v-32.109h-5.2V450h7.48v5.2h7.08V450h7.48v5.2h7.08V450h7.48" style="vector-effect:non-scaling-stroke;fill:none;stroke:#000;stroke-width:.264583;-inkscape-stroke:hairline"/>
    <path d="M389.1 708.473v-32.109h-5v32.109h5m.2 102.327v-37.709h-5.2v-32.109h5.2v-24.757h5.521l13.67-13.67h-5.341v-18.446h5.2v-18.845h-5.2v-18.445h5.602l-5.33-2.208-14.122 14.123v-14.879h-5.2v-32.11h5.2v-32.509h-5.2v-32.109h5.2v-32.509h-5.2v-32.109h5.2V455.2h-7.28V450h-7.48v5.2h-7.08V450h-7.48v5.2h-7.28v27.309h5.2v32.109h-5.2v32.509h5.2v32.109h-5.2v32.509h5.2v32.11h-5.2v32.509h5.2v32.109h-5.2v32.509h5.2v32.109h-5.2V810.8h7.48v-5.2h7.08v5.2h7.48v-5.2h7.08v5.2h7.48M291.448 552.327v32.109h5v-32.109h-5M260.048 450v37.709h5.2v32.109h-5.2v32.509h5.2v32.109h-5.2v32.509h5.2v32.11h-5.2v32.509h5.2v32.109h-5.2v32.509h5.2v32.109h-5.2V805.6h7.28v5.2h7.48v-5.2h7.08v5.2h7.48v-5.2h7.28v-27.309h-5.2v-32.109h5.2v-32.509h-5.2v-32.109h5.2v-32.509h-5.2v-32.11h5.2v-14.879l14.122 14.123 5.33-2.208h-5.602v-18.445h5.2v-18.845h-5.2v-18.446h5.341l-13.67-13.67h-5.521v-24.757h-5.2v-32.109h5.2V450h-7.48v5.2h-7.08V450h-7.48v5.2h-7.08V450h-7.48" style="vector-effect:non-scaling-stroke;fill:none;stroke:#000;stroke-width:.264583;-inkscape-stroke:hairline"/>
</svg>
