<!--
Cleat Wall Organization Equipment
Copyright (C) 2025  Corporate Hacks

This program is free software: you can redistribute it and/or modify
it under the terms of the GNU General Public License as published by
the Free Software Foundation, either version 3 of the License, or
(at your option) any later version.

This program is distributed in the hope that it will be useful,
but WITHOUT ANY WARRANTY; without even the implied warranty of
MERCHANTABILITY or FITNESS FOR A PARTICULAR PURPOSE.  See the
GNU General Public License for more details.

You should have received a copy of the GNU General Public License
along with this program.  If not, see <http://www.gnu.org/licenses/>.
-->

<svg xmlns="http://www.w3.org/2000/svg" width="1300mm" height="900mm" viewBox="0 0 1300 900">
    <path fill="none" stroke="#000" stroke-width=".1mm" d="M486.091 570.582h-32.982v-5.2h-32.582v5.2h-32.982v-5.2h-32.581v5.2h-32.982v-5.2H294.4v-26.064h-5.2v-26.263h5.2v-25.864h-5.2v-26.264h5.2v-25.863h-5.2V408.8h5.2v-25.863h-5.2v-26.264h5.2v-25.864h-5.2v-26.263h5.2v-26.064h27.582v-5.2h32.982v5.2h32.581v-5.2h32.982v5.2h32.582v-5.2h32.982v5.2h32.582v-5.2h32.982v5.2h32.581v-5.2h32.982v5.2H644.8v26.064h5.2v26.263h-5.2v25.864h5.2v26.264h-5.2V408.8h5.2v26.264h-5.2v25.863h5.2v26.264h-5.2v25.864h5.2v26.263h-5.2v26.064h-27.582v5.2h-32.982v-5.2h-32.581v5.2h-32.982v-5.2h-32.582v5.2" style="vector-effect:non-scaling-stroke;stroke-width:.264583;stroke-dasharray:none;-inkscape-stroke:hairline" transform="translate(129.336 208.468)"/>
    <path d="m435.83 464.456-.337-.371-.298-.402-.257-.429-.213-.452-.169-.471-.122-.486-.073-.495-.025-.502V205.352l.025-.502.073-.494.122-.486.169-.472.213-.452.257-.429.298-.402.337-.371.371-.337.402-.298.429-.257.452-.213.472-.169.486-.122.494-.073.502-.025h318.996l.502.025.494.073.486.122.472.169.452.213.429.257.402.298.371.337.337.371.298.402.257.429.214.452.168.472.122.486.073.494.025.502v255.496l-.025.502-.073.495-.122.486-.168.471-.214.452-.257.429-.298.402-.337.371-.371.337-.402.298-.429.257-.452.214-.472.168-.486.122-.494.073-.502.025H439.438l-.502-.025-.494-.073-.486-.122-.472-.168-.452-.214-.429-.257-.402-.298-.371-.337m-12.094 12.094v-26.064h-5.2v-26.263h5.2v-25.864h-5.2v-26.264h5.2v-25.863h-5.2v-26.264h5.2v-25.863h-5.2v-26.264h5.2v-25.864h-5.2v-26.263h5.2V189.65h27.582v-5.2H484.3v5.2h32.581v-5.2h32.982v5.2h32.582v-5.2h32.982v5.2h32.582v-5.2h32.982v5.2h32.581v-5.2h32.982v5.2h27.582v26.064h5.2v26.263h-5.2v25.864h5.2v26.264h-5.2v25.863h5.2v26.264h-5.2v25.863h5.2v26.264h-5.2v25.864h5.2v26.263h-5.2v26.064h-27.582v5.2h-32.982v-5.2h-32.581v5.2h-32.982v-5.2h-32.582v5.2h-32.982v-5.2h-32.582v5.2h-32.982v-5.2H484.3v5.2h-32.982v-5.2h-27.582" style="vector-effect:non-scaling-stroke;fill:none;stroke:#000;stroke-width:.264583;-inkscape-stroke:hairline"/>
    <path fill="none" stroke="#000" stroke-width=".1mm" d="M486.091 570.582h-32.982v-5.2h-32.582v5.2h-32.982v-5.2h-32.581v5.2h-32.982v-5.2H294.4v-26.064h-5.2v-26.263h5.2v-25.864h-5.2v-26.264h5.2v-25.863h-5.2V408.8h5.2v-25.863h-5.2v-26.264h5.2v-25.864h-5.2v-26.263h5.2v-26.064h27.582v-5.2h32.982v5.2h32.581v-5.2h32.982v5.2h32.582v-5.2h32.982v5.2h32.582v-5.2h32.982v5.2h32.581v-5.2h32.982v5.2H644.8v26.064h5.2v26.263h-5.2v25.864h5.2v26.264h-5.2V408.8h5.2v26.264h-5.2v25.863h5.2v26.264h-5.2v25.864h5.2v26.263h-5.2v26.064h-27.582v5.2h-32.982v-5.2h-32.581v5.2h-32.982v-5.2h-32.582v5.2" style="vector-effect:non-scaling-stroke;stroke-width:.264583;stroke-dasharray:none;-inkscape-stroke:hairline" transform="rotate(180 714.668 526.166)"/>
    <path d="m1122.842 201.744.337.371.298.402.257.429.213.452.169.471.122.486.073.495.025.502v255.496l-.025.502-.073.494-.122.486-.17.472-.212.452-.257.429-.298.402-.337.371-.371.337-.402.298-.43.257-.451.213-.472.169-.486.122-.494.073-.502.025H800.238l-.502-.025-.494-.073-.486-.122-.472-.169-.452-.213-.429-.257-.402-.298-.37-.337-.338-.371-.298-.402-.257-.429-.214-.452-.168-.472-.122-.486-.073-.494-.025-.502V205.352l.025-.502.073-.495.122-.486.168-.471.214-.452.257-.429.298-.402.337-.371.371-.337.402-.298.43-.257.451-.214.472-.168.486-.122.494-.073.502-.025h318.996l.502.025.494.073.486.122.472.168.452.214.429.257.402.298.37.337m12.095-12.094v26.064h5.2v26.263h-5.2v25.864h5.2v26.264h-5.2v25.863h5.2v26.264h-5.2v25.863h5.2v26.264h-5.2v25.864h5.2v26.263h-5.2v26.064h-27.582v5.2h-32.982v-5.2h-32.581v5.2h-32.982v-5.2h-32.582v5.2h-32.982v-5.2h-32.582v5.2h-32.982v-5.2h-32.58v5.2h-32.983v-5.2h-27.582v-26.064h-5.2v-26.263h5.2v-25.864h-5.2v-26.264h5.2v-25.863h-5.2v-26.264h5.2v-25.863h-5.2v-26.264h5.2v-25.864h-5.2v-26.263h5.2V189.65h27.582v-5.2H845.1v5.2h32.581v-5.2h32.982v5.2h32.582v-5.2h32.982v5.2h32.582v-5.2h32.982v5.2h32.58v-5.2h32.983v5.2h27.582" style="vector-effect:non-scaling-stroke;fill:none;stroke:#000;stroke-width:.264583;-inkscape-stroke:hairline"/>
    <path fill="none" stroke="#000" stroke-width=".1mm" d="M591.7 646.171h27.782v5.2h32.582v-5.2h32.981v5.2h32.582v-5.2h32.982v5.2h32.582v-5.2h32.982v5.2h32.582v-5.2h32.981v5.2h32.582v-5.2H942.1v7.28h5.2v7.48h-5.2v7.08h5.2v7.48h-5.2v7.28h-27.782v-5.2h-32.582v5.2h-32.981v-5.2h-32.582v5.2h-32.982v-5.2h-32.582v5.2h-32.982v-5.2h-32.582v5.2h-32.981v-5.2h-32.582v5.2H591.7v-7.28h-5.2v-7.48h5.2v-7.08h-5.2v-7.48h5.2v-7.28" style="vector-effect:non-scaling-stroke;stroke-width:.264583;stroke-dasharray:none;-inkscape-stroke:hairline" transform="matrix(0 1 1 0 -320.371 -168.25)"/>
    <path fill="none" stroke="#000" stroke-width=".1mm" d="M650 626.718H289.2v-18.845h5.2v-18.446h-5.2v-18.845H650v18.845h-5.2v18.446h5.2v18.845" style="vector-effect:non-scaling-stroke;stroke-width:.264583;stroke-dasharray:none;-inkscape-stroke:hairline" transform="matrix(0 1 1 0 -208.182 129.05)"/>
    <path fill="none" stroke="#000" stroke-width=".1mm" d="M655.2 626.718v-7.28H650v-7.48h5.2v-7.08H650v-7.48h5.2v-7.28h27.782v5.2h32.582v-5.2h32.981v5.2h32.582v-5.2h32.982v5.2h32.582v-5.2h32.982v5.2h32.582v-5.2h32.981v5.2h32.582v-5.2h27.782v7.28h5.2v7.48h-5.2v7.08h5.2v7.48h-5.2v7.28h-27.782v-5.2h-32.582v5.2h-32.981v-5.2h-32.582v5.2h-32.982v-5.2h-32.582v5.2h-32.982v-5.2h-32.582v5.2h-32.981v-5.2h-32.582v5.2H655.2" style="vector-effect:non-scaling-stroke;stroke-width:.264583;stroke-dasharray:none;-inkscape-stroke:hairline" transform="matrix(0 1 1 0 -300.918 -231.75)"/>
    <path fill="none" stroke="#000" stroke-width=".1mm" d="M591.7 646.171h27.782v5.2h32.582v-5.2h32.981v5.2h32.582v-5.2h32.982v5.2h32.582v-5.2h32.982v5.2h32.582v-5.2h32.981v5.2h32.582v-5.2H942.1v7.28h5.2v7.48h-5.2v7.08h5.2v7.48h-5.2v7.28h-27.782v-5.2h-32.582v5.2h-32.981v-5.2h-32.582v5.2h-32.982v-5.2h-32.582v5.2h-32.982v-5.2h-32.582v5.2h-32.981v-5.2h-32.582v5.2H591.7v-7.28h-5.2v-7.48h5.2v-7.08h-5.2v-7.48h5.2v-7.28" style="vector-effect:non-scaling-stroke;stroke-width:.264583;stroke-dasharray:none;-inkscape-stroke:hairline" transform="matrix(0 1 1 0 -393.571 -168.25)"/>
    <path fill="none" stroke="#000" stroke-width=".1mm" d="M650 626.718H289.2v-18.845h5.2v-18.446h-5.2v-18.845H650v18.845h-5.2v18.446h5.2v18.845" style="vector-effect:non-scaling-stroke;stroke-width:.264583;stroke-dasharray:none;-inkscape-stroke:hairline" transform="matrix(0 1 1 0 -410.718 129.05)"/>
    <path fill="none" stroke="#000" stroke-width=".1mm" d="M655.2 626.718v-7.28H650v-7.48h5.2v-7.08H650v-7.48h5.2v-7.28h27.782v5.2h32.582v-5.2h32.981v5.2h32.582v-5.2h32.982v5.2h32.582v-5.2h32.982v5.2h32.582v-5.2h32.981v5.2h32.582v-5.2h27.782v7.28h5.2v7.48h-5.2v7.08h5.2v7.48h-5.2v7.28h-27.782v-5.2h-32.582v5.2h-32.981v-5.2h-32.582v5.2h-32.982v-5.2h-32.582v5.2h-32.982v-5.2h-32.582v5.2h-32.981v-5.2h-32.582v5.2H655.2" style="vector-effect:non-scaling-stroke;stroke-width:.264583;stroke-dasharray:none;-inkscape-stroke:hairline" transform="matrix(0 1 1 0 -374.118 -231.75)"/>
    <path d="M357.283 308.795h5v25.864h-5v-25.864m-31.4-187.845h7.48v5.2h7.08v-5.2h7.48v5.2h7.08v-5.2h7.48v31.464h-5.2v25.863h5.2v26.264h-5.2v25.864h5.2v26.263h-5.2v25.864h5.2v15.402l14.123-14.123 5.33 2.208h-5.603v18.445h5.2v18.845h-5.2v18.446h5.342l-13.67 13.67h-5.522v5.498h-5.2v25.863h5.2v31.464h-7.48v-5.2h-7.08v5.2h-7.48v-5.2h-7.08v5.2h-7.48v-31.464h5.2v-25.863h-5.2v-26.264h5.2v-25.864h-5.2v-26.263h5.2v-25.864h-5.2v-26.263h5.2v-25.864h-5.2v-26.264h5.2v-25.863h-5.2V120.95M264.63 230.405v-25.864h5v25.864h-5m-31.4 187.845v-31.464h5.2v-25.863h-5.2v-26.264h5.2v-25.864h-5.2v-26.263h5.2v-25.864h-5.2v-26.263h5.2v-25.864h-5.2v-26.264h5.2v-25.863h-5.2V120.95h7.48v5.2h7.08v-5.2h7.48v5.2h7.08v-5.2h7.48v31.464h-5.2v25.863h5.2v5.498h5.521l13.67 13.67h-5.341v18.446h5.2v18.845h-5.2v18.445h5.603l-5.33 2.208-14.123-14.123v15.402h-5.2v25.864h5.2v26.263h-5.2v25.864h5.2v26.264h-5.2v25.863h5.2v31.464h-7.48v-5.2h-7.08v5.2h-7.48v-5.2h-7.08v5.2h-7.48" style="vector-effect:non-scaling-stroke;fill:none;stroke:#000;stroke-width:.264583;-inkscape-stroke:hairline"/>
    <path d="M294.483 308.795h-5v25.864h5v-25.864m31.4-187.845h-7.48v5.2h-7.08v-5.2h-7.48v5.2h-7.08v-5.2h-7.48v31.464h5.2v25.863h-5.2v26.264h5.2v25.864h-5.2v26.263h5.2v25.864h-5.2v15.402l-14.123-14.123-5.33 2.208h5.603v18.445h-5.2v18.845h5.2v18.446h-5.342l13.67 13.67h5.522v5.498h5.2v25.863h-5.2v31.464h7.48v-5.2h7.08v5.2h7.48v-5.2h7.08v5.2h7.48v-31.464h-5.2v-25.863h5.2v-26.264h-5.2v-25.864h5.2v-26.263h-5.2v-25.864h5.2v-26.263h-5.2v-25.864h5.2v-26.264h-5.2v-25.863h5.2V120.95M387.136 230.405v-25.864h-5v25.864h5m31.4 187.845v-31.464h-5.2v-25.863h5.2v-26.264h-5.2v-25.864h5.2v-26.263h-5.2v-25.864h5.2v-26.263h-5.2v-25.864h5.2v-26.264h-5.2v-25.863h5.2V120.95h-7.48v5.2h-7.08v-5.2h-7.48v5.2h-7.08v-5.2h-7.48v31.464h5.2v25.863h-5.2v5.498h-5.521l-13.67 13.67h5.341v18.446h-5.2v18.845h5.2v18.445h-5.603l5.33 2.208 14.123-14.123v15.402h5.2v25.864h-5.2v26.263h5.2v25.864h-5.2v26.264h5.2v25.863h-5.2v31.464h7.48v-5.2h7.08v5.2h7.48v-5.2h7.08v5.2h7.48" style="vector-effect:non-scaling-stroke;fill:none;stroke:#000;stroke-width:.264583;-inkscape-stroke:hairline"/>
</svg>
