<!--
Cleat Wall Organization Equipment
Copyright (C) 2025  Corporate Hacks

This program is free software: you can redistribute it and/or modify
it under the terms of the GNU General Public License as published by
the Free Software Foundation, either version 3 of the License, or
(at your option) any later version.

This program is distributed in the hope that it will be useful,
but WITHOUT ANY WARRANTY; without even the implied warranty of
MERCHANTABILITY or FITNESS FOR A PARTICULAR PURPOSE.  See the
GNU General Public License for more details.

You should have received a copy of the GNU General Public License
along with this program.  If not, see <http://www.gnu.org/licenses/>.
-->

<svg xmlns="http://www.w3.org/2000/svg" width="1300mm" height="900mm" viewBox="0 0 1300 900">
    <path fill="none" stroke="#000" stroke-width=".1mm" d="M467.85 669.675v-23.257h-5.2v-23.457h5.2v-23.057h-5.2v-23.458h5.2v-23.057h-5.2v-23.457h5.2v-18.057h22.86v-5.2h23.06v5.2h22.66v-5.2h23.06v5.2h22.86v18.057h5.2v23.457h-5.2v23.057h5.2v23.458h-5.2v23.057h5.2v23.457h-5.2v23.257h-114.5" style="vector-effect:non-scaling-stroke;stroke-width:.264583;stroke-dasharray:none;-inkscape-stroke:hairline" transform="matrix(1 0 0 -1 216.147 1119.675)"/>
    <path fill="none" stroke="#000" stroke-width=".1mm" d="M587.55 669.675v-31.567h5.2v-31.166h-5.2v-31.567h28.26v5.2h22.66v-5.2h23.06v5.2h22.66v-5.2h28.26v31.567h-5.2v31.166h5.2v31.567h-28.26v-5.2h-22.66v5.2h-23.06v-5.2h-22.66v5.2h-28.26" style="vector-effect:non-scaling-stroke;stroke-width:.264583;stroke-dasharray:none;-inkscape-stroke:hairline" transform="rotate(90 886.961 586.411)"/>
    <path fill="none" stroke="#000" stroke-width=".1mm" d="M587.55 669.675v-31.567h5.2v-31.166h-5.2v-31.567h28.26v5.2h22.66v-5.2h23.06v5.2h22.66v-5.2h28.26v31.567h-5.2v31.166h5.2v31.567h-28.26v-5.2h-22.66v5.2h-23.06v-5.2h-22.66v5.2h-28.26" style="vector-effect:non-scaling-stroke;stroke-width:.264583;stroke-dasharray:none;-inkscape-stroke:hairline" transform="rotate(90 824.511 648.861)"/>
    <path fill="none" stroke="#000" stroke-width=".1mm" d="M712.45 651.156v-18.718h5.2v-18.519h114.5v18.519h5.2v18.718h-5.2v18.519h-114.5v-18.519h-5.2" style="vector-effect:non-scaling-stroke;stroke-width:.264583;stroke-dasharray:none;-inkscape-stroke:hairline" transform="rotate(90 934.111 633.561)"/>
    <path fill="none" stroke="#000" stroke-width=".1mm" d="M712.45 651.156v-18.718h5.2v-18.519h114.5v18.519h5.2v18.718h-5.2v18.519h-114.5v-18.519h-5.2" style="vector-effect:non-scaling-stroke;stroke-width:.264583;stroke-dasharray:none;-inkscape-stroke:hairline" transform="rotate(90 996.561 571.111)"/>
    <path fill="none" stroke="#000" stroke-width=".1mm" d="M718.679 506.675v-5.2h-23.058v5.2h-23.457v-5.2h-23.057v5.2H625.65v-113.35h18.719v5.2h18.318v-5.2h18.686l2.041 4.927-14.323 14.323h-19.984v5h23.057v-5.2h23.457v5.2h23.058v-5.2h23.457v5.2h23.057v-5.2h18.257v31.367h5.2v31.566h-5.2v31.367h-18.257v-5.2h-23.057v5.2h-23.457" style="vector-effect:non-scaling-stroke;stroke-width:.264583;stroke-dasharray:none;-inkscape-stroke:hairline" transform="rotate(90 514.286 338.636)"/>
    <path fill="none" stroke="#000" stroke-width=".1mm" d="M625.65 506.675h-23.457v-5.2h-23.057v5.2h-23.457v-5.2h-23.058v5.2h-23.457v-5.2h-23.057v5.2H467.85v-31.367h-5.2v-31.566h5.2v-31.367h18.257v5.2h23.057v-5.2h23.457v5.2h23.058v-5.2h23.457v5.2h23.057v-5h-19.984l-14.323-14.323 2.041-4.927h18.686v5.2h18.318v-5.2h18.719v113.35" style="vector-effect:non-scaling-stroke;stroke-width:.264583;stroke-dasharray:none;-inkscape-stroke:hairline" transform="rotate(90 514.286 338.636)"/>
    <path fill="none" stroke="#000" stroke-width=".1mm" d="M718.679 506.675v-5.2h-23.058v5.2h-23.457v-5.2h-23.057v5.2H625.65v-113.35h18.719v5.2h18.318v-5.2h18.686l2.041 4.927-14.323 14.323h-19.984v5h23.057v-5.2h23.457v5.2h23.058v-5.2h23.457v5.2h23.057v-5.2h18.257v31.367h5.2v31.566h-5.2v31.367h-18.257v-5.2h-23.057v5.2h-23.457" style="vector-effect:non-scaling-stroke;stroke-width:.264583;stroke-dasharray:none;-inkscape-stroke:hairline" transform="matrix(0 1 1 0 47.222 -338.65)"/>
    <path fill="none" stroke="#000" stroke-width=".1mm" d="M625.65 506.675h-23.457v-5.2h-23.057v5.2h-23.457v-5.2h-23.058v5.2h-23.457v-5.2h-23.057v5.2H467.85v-31.367h-5.2v-31.566h5.2v-31.367h18.257v5.2h23.057v-5.2h23.457v5.2h23.058v-5.2h23.457v5.2h23.057v-5h-19.984l-14.323-14.323 2.041-4.927h18.686v5.2h18.318v-5.2h18.719v113.35" style="vector-effect:non-scaling-stroke;stroke-width:.264583;stroke-dasharray:none;-inkscape-stroke:hairline" transform="matrix(0 1 1 0 47.222 -12.65)"/>
    <path fill="none" stroke="#000" stroke-width=".1mm" d="M582.35 393.325h-114.5v-23.257h-5.2v-23.457h5.2v-23.057h-5.2v-23.458h5.2v-23.057h-5.2v-23.457h5.2v-18.057h22.86v-5.2h23.06v5.2h22.66v-5.2h23.06v5.2h22.86v18.057h5.2v23.457h-5.2v23.057h5.2v23.458h-5.2v23.057h5.2v23.457h-5.2v23.257" style="vector-effect:non-scaling-stroke;stroke-width:.264583;stroke-dasharray:none;-inkscape-stroke:hairline" transform="translate(216.147 56.675)"/>
    <path fill="none" stroke="#000" stroke-width=".1mm" d="M467.85 669.675v-23.257h-5.2v-23.457h5.2v-23.057h-5.2v-23.458h5.2v-23.057h-5.2v-23.457h5.2v-18.057h22.86v-5.2h23.06v5.2h22.66v-5.2h23.06v5.2h22.86v18.057h5.2v23.457h-5.2v23.057h5.2v23.458h-5.2v23.057h5.2v23.457h-5.2v23.257h-114.5" style="vector-effect:non-scaling-stroke;stroke-width:.264583;stroke-dasharray:none;-inkscape-stroke:hairline" transform="matrix(1 0 0 -1 91.247 1119.675)"/>
    <path fill="none" stroke="#000" stroke-width=".1mm" d="M582.35 393.325h-114.5v-23.257h-5.2v-23.457h5.2v-23.057h-5.2v-23.458h5.2v-23.057h-5.2v-23.457h5.2v-18.057h22.86v-5.2h23.06v5.2h22.66v-5.2h23.06v5.2h22.86v18.057h5.2v23.457h-5.2v23.057h5.2v23.458h-5.2v23.057h5.2v23.457h-5.2v23.257" style="vector-effect:non-scaling-stroke;stroke-width:.264583;stroke-dasharray:none;-inkscape-stroke:hairline" transform="translate(91.247 56.675)"/>
</svg>
