<!--
Cleat Wall Organization Equipment
Copyright (C) 2025  Corporate Hacks

This program is free software: you can redistribute it and/or modify
it under the terms of the GNU General Public License as published by
the Free Software Foundation, either version 3 of the License, or
(at your option) any later version.

This program is distributed in the hope that it will be useful,
but WITHOUT ANY WARRANTY; without even the implied warranty of
MERCHANTABILITY or FITNESS FOR A PARTICULAR PURPOSE.  See the
GNU General Public License for more details.

You should have received a copy of the GNU General Public License
along with this program.  If not, see <http://www.gnu.org/licenses/>.
-->

<svg xmlns="http://www.w3.org/2000/svg" width="1300mm" height="900mm" viewBox="0 0 1300 900">
    <path fill="none" stroke="#000" stroke-width=".1mm" d="M469.846 325.1h7.833v5.2h7.434v-5.2h7.833v5.2h7.433v-5.2h7.834v5.2h7.433v-5.2h7.833v5.2h7.434v-5.2h7.833v15.791h-5.2v10.191h5.2v10.591h-5.2v10.191h5.2v10.591h-5.2v10.19h5.2v10.591h-5.2v10.191h5.2v10.591h-5.2v10.191h5.2V450h-7.833v-5.2h-7.434v5.2h-7.833v-5.2h-7.433v5.2h-7.834v-5.2h-7.433v5.2h-7.833v-5.2h-7.434v5.2h-7.833v-15.791h5.2v-10.191h-5.2v-10.591h5.2v-10.191h-5.2v-10.591h5.2v-10.19h-5.2v-10.591h5.2v-10.191h-5.2v-10.591h5.2v-10.191h-5.2V325.1"/>
    <path d="M543.73 552.227v11.137h-5v-11.137h5m0-22.672v11.136h-5v-11.136h5m0-22.673v11.136h-5v-11.136h5m0-22.673v11.136h-5v-11.136h5m0-11.536h-5v-11.137h5v11.137m-.317 102.227v-5.2h-7.777v5.2h-8.178v-5.2h-7.977v-16.529h5.2v-16.128h-5.2v-16.529h5.2v-16.128h-5.2v-16.529h5.2v-16.128h-5.2V455.2h7.977V450h8.178v5.2h7.777V450h8.177v5.2h7.777V450h8.178v5.2h7.777V450h8.177v5.2h7.777V450h8.178v5.2h7.977v6.336h-5.2v11.137h5.2v11.536h-5.2v11.136h5.2v11.537h-5.2v11.136h5.2v11.537h-5.2v11.136h5.2v11.536h-5.2v11.137h5.2v6.336h-7.977v5.2h-8.178v-5.2h-7.777v5.2h-8.177v-5.2h-7.777v5.2h-8.178v-5.2h-7.777v5.2h-8.177" style="fill:none;stroke:#000;stroke-width:.1mm" transform="translate(-49.635)"/>
    <path fill="none" stroke="#000" stroke-width=".1mm" d="M584.976 444.8h-7.99v5.2h-8.191v-5.2h-7.791v5.2h-8.191v-5.2h-7.79v5.2h-6.277v-5.4h5.2v-16.129h-5.2v-16.528h5.2v-16.129h-5.2v-16.528h5.2v-16.129h-5.2v-16.528h5.2V330.5h-5.2v-5.4h6.277v5.2h7.79v-5.2h8.19v5.2h7.792v-5.2h8.19v5.2h7.99v114.5M469.846 558.638h-5.2v10.864h-6.136v5.2h-11.537v-5.2h-11.136v5.2H424.3v-5.2h-11.137v5.2h-11.536v-5.2H390.49v5.2h-11.536v-5.2h-11.136v5.2h-11.537v-5.2h-6.136v-10.864h-5.2v-11.063h5.2v-10.664h-5.2v-11.064h5.2v-10.663h-5.2V504.12h5.2v-10.663h-5.2v-11.064h5.2v-10.664h-5.2v-11.063h5.2v-5.664h10.39v-5.2h10.592v5.2h10.19v-5.2h10.592v5.2h10.19v-5.2h10.59v5.2h10.192v-5.2h10.59v5.2h10.192v-5.2h10.59v5.2h10.392v5.664h5.2v11.063h-5.2v10.664h5.2v11.064h-5.2v10.663h5.2v11.064h-5.2v10.663h5.2v11.064h-5.2v10.664h5.2v11.063"/>
    <path fill="none" stroke="#000" stroke-width=".1mm" d="M356.282 325.1v5.2h-6.136v10.864h-5.2v11.063h5.2v10.664h-5.2v11.064h5.2v10.663h-5.2v11.064h5.2v10.663h-5.2v11.064h5.2v10.664h-5.2v11.063h5.2v5.664h10.39v5.2h10.592v-5.2h10.19v5.2h10.592v-5.2h10.19v5.2h10.59v-5.2h10.192v5.2h10.59v-5.2h10.192v5.2h10.59v-5.2h10.392v-5.664h5.2v-11.063h-5.2v-10.664h5.2v-11.064h-5.2v-10.663h5.2v-11.064h-5.2v-10.663h5.2v-11.064h-5.2v-10.664h5.2v-11.063h-5.2V330.3h-6.136v-5.2h-11.537v5.2h-11.136v-5.2H424.3v5.2h-11.137v-5.2h-11.536v5.2H390.49v-5.2h-11.536v5.2h-11.136v-5.2h-11.537M672.926 574.9h-7.833v-5.2h-7.434v5.2h-7.833v-5.2h-7.433v5.2h-7.834v-5.2h-7.433v5.2h-7.833v-5.2h-7.434v5.2h-7.833v-15.791h5.2v-10.191h-5.2v-10.591h5.2v-10.191h-5.2v-10.591h5.2v-10.19h-5.2v-10.591h5.2v-10.191h-5.2v-10.591h5.2v-10.191h-5.2V450h7.833v5.2h7.434V450h7.833v5.2h7.433V450h7.834v5.2h7.433V450h7.833v5.2h7.434V450h7.833v15.791h-5.2v10.191h5.2v10.591h-5.2v10.191h5.2v10.591h-5.2v10.19h5.2v10.591h-5.2v10.191h5.2v10.591h-5.2v10.191h5.2V574.9"/>
    <path d="M719.364 321.198V310.06h5v11.137h-5m0 22.672v-11.136h5v11.136h-5m0 22.673v-11.136h5v11.136h-5m0 22.673V378.08h5v11.136h-5m0 11.536h5v11.137h-5v-11.137m.318-102.227v5.2h7.777v-5.2h8.178v5.2h7.977v16.529h-5.2v16.128h5.2v16.529h-5.2v16.128h5.2v16.529h-5.2v16.128h5.2v16.529h-7.977v5.2h-8.178v-5.2h-7.777v5.2h-8.177v-5.2h-7.777v5.2h-8.178v-5.2h-7.777v5.2h-8.177v-5.2h-7.777v5.2h-8.178v-5.2h-7.977v-6.336h5.2v-11.137h-5.2v-11.536h5.2V378.08h-5.2v-11.537h5.2v-11.136h-5.2V343.87h5.2v-11.136h-5.2v-11.536h5.2V310.06h-5.2v-6.336h7.977v-5.2h8.178v5.2h7.777v-5.2h8.177v5.2h7.777v-5.2h8.178v5.2h7.777v-5.2h8.177" style="fill:none;stroke:#000;stroke-width:.1mm" transform="translate(-70.688 26.575)"/>
    <path fill="none" stroke="#000" stroke-width=".1mm" d="M557.796 455.2h7.99V450h8.19v5.2h7.792V450h8.19v5.2h7.79V450h6.278v5.4h-5.2v16.129h5.2v16.528h-5.2v16.129h5.2v16.528h-5.2v16.129h5.2v16.528h-5.2V569.5h5.2v5.4h-6.277v-5.2h-7.79v5.2h-8.191v-5.2h-7.791v5.2h-8.191v-5.2h-7.99V455.2M672.926 341.164h5.2V330.3h6.136v-5.2h11.537v5.2h11.136v-5.2h11.536v5.2h11.137v-5.2h11.536v5.2h11.137v-5.2h11.536v5.2h11.136v-5.2h11.537v5.2h6.136v10.864h5.2v11.063h-5.2v10.664h5.2v11.064h-5.2v10.663h5.2v11.064h-5.2v10.663h5.2v11.064h-5.2v10.664h5.2v11.063h-5.2v5.664h-10.391v5.2h-10.591v-5.2h-10.191v5.2h-10.591v-5.2H740.67v5.2h-10.59v-5.2H719.89v5.2h-10.591v-5.2h-10.191v5.2h-10.591v-5.2h-10.391v-5.664h-5.2v-11.063h5.2v-10.664h-5.2v-11.064h5.2v-10.663h-5.2v-11.064h5.2v-10.663h-5.2v-11.064h5.2v-10.664h-5.2v-11.063M786.49 574.9v-5.2h6.136v-10.864h5.2v-11.063h-5.2v-10.664h5.2v-11.064h-5.2v-10.663h5.2v-11.064h-5.2v-10.663h5.2v-11.064h-5.2v-10.664h5.2v-11.063h-5.2V455.2h-10.391V450h-10.591v5.2h-10.191V450h-10.591v5.2H740.67V450h-10.59v5.2H719.89V450h-10.591v5.2h-10.191V450h-10.591v5.2h-10.391v5.664h-5.2v11.063h5.2v10.664h-5.2v11.064h5.2v10.663h-5.2v11.064h5.2v10.663h-5.2v11.064h5.2v10.664h-5.2v11.063h5.2V569.7h6.136v5.2h11.537v-5.2h11.136v5.2h11.536v-5.2h11.137v5.2h11.536v-5.2h11.137v5.2h11.536v-5.2h11.136v5.2h11.537"/>
    <path d="M1197.859 393.72h-5v-10.664h5v10.663m56.067 97.973h-7.834v-5.2h-7.433v5.2h-7.833v-5.2h-7.434v5.2h-7.833v-5.2h-7.433v5.2h-7.834v-5.2h-7.633v-5.864h5.2v-10.663h-5.2v-11.064h5.2v-10.664h-5.2v-11.063h5.2V426.51h-5.2v-11.063h5.2v-10.664h-5.2v-3.875l-14.123 14.123-4.927-2.04v-8.159h5.2v-7.79h-5.2v-8.19h5.2v-7.792h-5.2v-8.19h5.2v-6.078h2.977v5.2h7.778v-5.2h8.177v5.2h7.777v-5.2h8.177v5.2h7.778v-5.2h8.177v5.2h7.777v-5.2h8.177v5.2h7.778v-5.2h8.177v16.264h-5.2v10.663h5.2v11.064h-5.2v10.664h5.2v11.063h-5.2v10.664h5.2v11.063h-5.2v10.664h5.2v11.064h-5.2v10.663h5.2v5.864h-7.633v5.2M1197.859 600.328h-5v-10.663h5v10.663m63.7 16.264h-8.177v-5.2h-7.778v5.2h-8.177v-5.2h-7.777v5.2h-8.177v-5.2h-7.778v5.2h-8.177v-5.2h-7.777v5.2h-8.177v-5.2h-7.778v5.2h-2.977v-6.077h-5.2v-8.19h5.2v-7.792h-5.2v-8.19h5.2v-7.79h-5.2v-8.159l4.927-2.04 14.123 14.122v-3.875h5.2v-10.664h-5.2v-11.063h5.2V546.21h-5.2v-11.063h5.2v-10.664h-5.2V513.42h5.2v-10.663h-5.2v-5.864h7.633v-5.2h7.834v5.2h7.433v-5.2h7.833v5.2h7.434v-5.2h7.833v5.2h7.433v-5.2h7.834v5.2h7.633v5.864h-5.2v10.663h5.2v11.064h-5.2v10.664h5.2v11.063h-5.2v10.664h5.2v11.063h-5.2v10.664h5.2v11.064h-5.2v10.663h5.2v16.264" style="fill:none;stroke:#000;stroke-width:.1mm" transform="translate(-306.505 -41.692)"/>
    <path d="M1168.409 507.956h5v10.663h-5v-10.663m-63.7-16.264h8.177v5.2h7.778v-5.2h8.177v5.2h7.777v-5.2h8.177v5.2h7.778v-5.2h8.177v5.2h7.777v-5.2h8.177v5.2h7.778v-5.2h2.977v6.077h5.2v8.191h-5.2v7.791h5.2v8.19h-5.2v7.791h5.2v8.158l-4.927 2.041-14.123-14.123v3.875h-5.2v10.664h5.2v11.063h-5.2v10.664h5.2v11.063h-5.2v10.664h5.2v11.064h-5.2v10.663h5.2v5.864h-7.633v5.2h-7.834v-5.2h-7.433v5.2h-7.833v-5.2h-7.434v5.2h-7.833v-5.2h-7.433v5.2h-7.834v-5.2h-7.633v-5.864h5.2v-10.663h-5.2v-11.064h5.2v-10.664h-5.2v-11.063h5.2V551.41h-5.2v-11.063h5.2v-10.664h-5.2V518.62h5.2v-10.663h-5.2v-16.264M1168.409 464.765h5v10.663h-5v-10.663m-56.067-97.973h7.834v5.2h7.433v-5.2h7.833v5.2h7.434v-5.2h7.833v5.2h7.433v-5.2h7.834v5.2h7.633v5.864h-5.2v10.663h5.2v11.064h-5.2v10.664h5.2v11.063h-5.2v10.664h5.2v11.063h-5.2v10.664h5.2v3.875l14.123-14.123 4.927 2.041v8.158h-5.2v7.791h5.2v8.19h-5.2v7.791h5.2v8.191h-5.2v6.077h-2.977v-5.2h-7.778v5.2h-8.177v-5.2h-7.777v5.2h-8.177v-5.2h-7.778v5.2h-8.177v-5.2h-7.777v5.2h-8.177v-5.2h-7.778v5.2h-8.177v-16.264h5.2v-10.663h-5.2v-11.064h5.2v-10.664h-5.2v-11.063h5.2V421.31h-5.2v-11.063h5.2v-10.664h-5.2V388.52h5.2v-10.663h-5.2v-5.864h7.633v-5.2" style="fill:none;stroke:#000;stroke-width:.1mm" transform="translate(-306.505 -41.692)"/>
</svg>
