<?xml version="1.0" encoding="UTF-8" standalone="no"?>
<svg
   width="1300mm"
   height="900mm"
   viewBox="0 0 1300 900"
   version="1.1"
   id="svg15"
   sodipodi:docname="FrameDefault.svg"
   inkscape:version="1.4 (e7c3feb100, 2024-10-09)"
   xmlns:inkscape="http://www.inkscape.org/namespaces/inkscape"
   xmlns:sodipodi="http://sodipodi.sourceforge.net/DTD/sodipodi-0.dtd"
   xmlns="http://www.w3.org/2000/svg"
   xmlns:svg="http://www.w3.org/2000/svg">
  <defs
     id="defs15" />
  <sodipodi:namedview
     id="namedview15"
     pagecolor="#505050"
     bordercolor="#eeeeee"
     borderopacity="1"
     inkscape:showpageshadow="0"
     inkscape:pageopacity="0"
     inkscape:pagecheckerboard="0"
     inkscape:deskcolor="#505050"
     inkscape:document-units="mm"
     inkscape:zoom="0.23649679"
     inkscape:cx="1522.2194"
     inkscape:cy="1752.6665"
     inkscape:window-width="1920"
     inkscape:window-height="1011"
     inkscape:window-x="0"
     inkscape:window-y="32"
     inkscape:window-maximized="1"
     inkscape:current-layer="svg15" />
  <path
     id="polyline2"
     style="vector-effect:non-scaling-stroke;fill:none;stroke:#000000;stroke-width:0.264583;stroke-dasharray:none;-inkscape-stroke:hairline"
     d="m 582.75998,562.1 h 5 v 15.8 h -5 v -15.8 m -31.4,-21.4 h 8.661 v 5.2 h 8.261 v -5.2 h 8.661 v 5.2 h 8.261 v -5.2 h 2.756 v 4.875 h 5.521 l 13.67,13.67 h -5.341 v 18.446 h 5.2 v 18.845 h -5.2 v 18.445 h 5.602 l -5.33,2.208 -14.322,-14.323 V 594.1 h -5 v 15.8 h 5.2 v 16.2 h -5.2 v 15.8 h 5.2 v 16.2 h -5.2 v 15.8 h 5.2 v 16.2 h -5.2 v 15.8 h 5.2 v 11 h -7.28 v 5.2 h -7.48 v -5.2 h -7.08 v 5.2 h -7.48 v -5.2 h -7.28 v -11 h 5.2 v -15.8 h -5.2 v -16.2 h 5.2 v -15.8 h -5.2 v -16.2 h 5.2 v -15.8 h -5.2 v -16.2 h 5.2 v -15.8 h -5.2 v -16.2 h 5.2 v -15.8 h -5.2 v -21.4" />
  <polyline
     z="0"
     points="377.9,540.742 377.9,521.897 383.1,521.897 383.1,503.451 377.9,503.451 377.9,484.606 559.3,484.606 559.3,503.451 554.1,503.451 554.1,521.897 559.3,521.897 559.3,540.742 377.9,540.742"
     fill="none"
     stroke="#000000"
     stroke-width="0.1mm"
     id="polyline3"
     transform="rotate(90,532.22901,695.02901)"
     style="vector-effect:non-scaling-stroke;stroke-width:0.264583;stroke-dasharray:none;-inkscape-stroke:hairline" />
  <path
     id="polyline8"
     style="vector-effect:non-scaling-stroke;fill:none;stroke:#000000;stroke-width:0.264583;stroke-dasharray:none;-inkscape-stroke:hairline"
     d="m 495.10798,684.9 v 15.8 h -5 v -15.8 h 5 m 0.2,-139 v 11 h -5.2 v 15.8 h 5.2 v 16.2 h -5.2 v 15.8 h 5.2 v 16.2 h -5.2 v 15.8 h 5.2 v 16.2 h -5.2 v 15.8 h 5 v -8.766 l 14.323,-14.323 5.33,2.208 h -5.60299 v 18.445 h 5.2 v 18.845 h -5.2 v 18.446 h 5.34199 l -13.66999,13.67 h -5.522 v 4.875 h -2.756 v -5.2 h -8.261 v 5.2 h -8.661 v -5.2 h -8.261 v 5.2 h -8.661 v -21.4 h 5.2 v -15.8 h -5.2 v -16.2 h 5.2 v -15.8 h -5.2 v -16.2 h 5.2 v -15.8 h -5.2 v -16.2 h 5.2 v -15.8 h -5.2 v -16.2 h 5.2 v -15.8 h -5.2 v -11 h 7.28 v -5.2 h 7.48 v 5.2 h 7.07999 v -5.2 h 7.48001 v 5.2 h 7.27999" />
  <path
     id="polyline14"
     style="vector-effect:non-scaling-stroke;fill:none;stroke:#000000;stroke-width:0.264583;stroke-dasharray:none;-inkscape-stroke:hairline"
     d="m 680.41198,573.645 h -5 v -16.272 h 5 v 16.272 m 0,32.946 h -5 v -16.273 h 5 v 16.273 m 0,32.945 h -5 v -16.272 h 5 v 16.272 m 0,32.946 h -5 v -16.273 h 5 v 16.273 m 0,32.945 h -5 v -16.272 h 5 v 16.272 m 6.104,11.473 h -8.461 v 5.2 h -8.661 v -5.2 h -8.26 v 5.2 h -8.66099 v -5.2 h -8.461 v -11.473 h 5.2 v -16.272 h -5.2 v -16.673 h 5.2 v -16.273 h -5.2 v -16.673 h 5.2 v -16.272 h -5.2 v -16.673 h 5.2 v -16.273 h -5.2 v -16.673 h 5.2 v -16.272 h -5.2 V 545.9 h 8.461 v -5.2 h 8.66099 v 5.2 h 8.26 v -5.2 h 8.661 v 5.2 h 8.461 v 171" />
  <path
     id="polyline2-0"
     style="vector-effect:non-scaling-stroke;fill:none;stroke:#000000;stroke-width:0.264583;stroke-dasharray:none;-inkscape-stroke:hairline"
     d="m 519.95998,562.1 h -5 v 15.8 h 5 v -15.8 m 31.4,-21.4 h -8.661 v 5.2 h -8.261 v -5.2 h -8.66099 v 5.2 h -8.261 v -5.2 h -2.756 v 4.875 h -5.521 l -13.67,13.67 h 5.341 v 18.446 h -5.2 v 18.845 h 5.2 v 18.445 h -5.602 l 5.33,2.208 14.322,-14.323 V 594.1 h 5 v 15.8 h -5.2 v 16.2 h 5.2 v 15.8 h -5.2 v 16.2 h 5.2 v 15.8 h -5.2 v 16.2 h 5.2 v 15.8 h -5.2 v 11 h 7.28 v 5.2 h 7.48 v -5.2 h 7.08 v 5.2 h 7.48 v -5.2 h 7.28 v -11 h -5.2 v -15.8 h 5.2 v -16.2 h -5.2 v -15.8 h 5.2 v -16.2 h -5.2 v -15.8 h 5.2 v -16.2 h -5.2 v -15.8 h 5.2 v -16.2 h -5.2 v -15.8 h 5.2 v -21.4" />
  <polyline
     z="0"
     points="377.9,540.742 377.9,521.897 383.1,521.897 383.1,503.451 377.9,503.451 377.9,484.606 559.3,484.606 559.3,503.451 554.1,503.451 554.1,521.897 559.3,521.897 559.3,540.742 377.9,540.742"
     fill="none"
     stroke="#000000"
     stroke-width="0.1mm"
     id="polyline3-3"
     transform="matrix(0,1,1,0,258.046,162.8)"
     style="vector-effect:non-scaling-stroke;stroke-width:0.264583;stroke-dasharray:none;-inkscape-stroke:hairline" />
  <path
     id="polyline8-0"
     style="vector-effect:non-scaling-stroke;fill:none;stroke:#000000;stroke-width:0.264583;stroke-dasharray:none;-inkscape-stroke:hairline"
     d="m 607.61198,684.9 v 15.8 h 5 v -15.8 h -5 m -0.2,-139 v 11 h 5.2 v 15.8 h -5.2 v 16.2 h 5.2 v 15.8 h -5.2 v 16.2 h 5.2 v 15.8 h -5.2 v 16.2 h 5.2 v 15.8 h -5 v -8.766 l -14.323,-14.323 -5.33,2.208 h 5.603 v 18.445 h -5.2 v 18.845 h 5.2 v 18.446 h -5.342 l 13.67,13.67 h 5.522 v 4.875 h 2.756 v -5.2 h 8.261 v 5.2 h 8.661 v -5.2 h 8.261 v 5.2 h 8.661 v -21.4 h -5.2 v -15.8 h 5.2 v -16.2 h -5.2 v -15.8 h 5.2 v -16.2 h -5.2 v -15.8 h 5.2 v -16.2 h -5.2 v -15.8 h 5.2 v -16.2 h -5.2 v -15.8 h 5.2 v -11 h -7.28 v -5.2 h -7.48 v 5.2 h -7.08 v -5.2 h -7.48 v 5.2 h -7.28" />
  <path
     id="polyline14-6"
     style="vector-effect:non-scaling-stroke;fill:none;stroke:#000000;stroke-width:0.264583;stroke-dasharray:none;-inkscape-stroke:hairline"
     d="m 804.89201,573.645 h 5 v -16.272 h -5 v 16.272 m 0,32.946 h 5 v -16.273 h -5 v 16.273 m 0,32.945 h 5 v -16.272 h -5 v 16.272 m 0,32.946 h 5 v -16.273 h -5 v 16.273 m 0,32.945 h 5 v -16.272 h -5 v 16.272 m -6.104,11.473 h 8.461 v 5.2 h 8.661 v -5.2 h 8.26 v 5.2 h 8.661 v -5.2 h 8.461 v -11.473 h -5.2 v -16.272 h 5.2 v -16.673 h -5.2 v -16.273 h 5.2 v -16.673 h -5.2 v -16.272 h 5.2 v -16.673 h -5.2 v -16.273 h 5.2 v -16.673 h -5.2 v -16.272 h 5.2 V 545.9 h -8.461 v -5.2 h -8.661 v 5.2 h -8.26 v -5.2 h -8.661 v 5.2 h -8.461 v 171" />
  <path
     id="polyline5"
     style="vector-effect:non-scaling-stroke;fill:none;stroke:#000000;stroke-width:0.264583;stroke-dasharray:none;-inkscape-stroke:hairline"
     d="m 502.799,379.206 0.121,-0.486 0.169,-0.472 0.214,-0.452 0.257,-0.429 0.298,-0.402 0.336,-0.371 0.371,-0.337 0.402,-0.298 0.43,-0.257 0.452,-0.214 0.471,-0.168 0.486,-0.122 0.494,-0.073 0.503,-0.025 h 139.595 l 0.503,0.025 0.494,0.073 0.485,0.122 0.472,0.168 0.452,0.214 0.43,0.257 0.402,0.298 0.371,0.337 0.336,0.371 0.298,0.402 0.257,0.429 0.214,0.452 0.169,0.472 0.121,0.486 0.074,0.494 0.024,0.502 v 139.596 l -0.024,0.502 -0.074,0.494 -0.121,0.486 -0.169,0.472 -0.214,0.452 -0.257,0.429 -0.298,0.402 -0.336,0.371 -0.371,0.337 -0.402,0.298 -0.43,0.257 -0.452,0.214 -0.472,0.168 -0.485,0.122 -0.494,0.073 -0.503,0.025 H 507.803 l -0.503,-0.025 -0.494,-0.073 -0.486,-0.122 -0.471,-0.168 -0.452,-0.214 -0.43,-0.257 -0.402,-0.298 -0.371,-0.337 -0.336,-0.371 -0.298,-0.402 -0.257,-0.429 -0.214,-0.452 -0.169,-0.472 -0.121,-0.486 -0.074,-0.494 -0.025,-0.502 V 380.202 l 0.025,-0.502 0.074,-0.494 M 486.9,375.773 h 5.2 V 364.5 h 16 v -5.2 h 16.2 v 5.2 h 15.8 v -5.2 h 16.2 v 5.2 h 15.8 v -5.2 h 16.2 v 5.2 h 15.8 v -5.2 h 16.2 v 5.2 h 15.8 v -5.2 h 16.2 v 5.2 h 10.8 v 15.527 h 5.2 v 15.728 h -5.2 v 15.327 h 5.2 v 15.727 h -5.2 v 15.327 h 5.2 v 15.728 h -5.2 v 15.327 h 5.2 v 15.727 h -5.2 v 15.327 h 5.2 v 15.728 h -5.2 V 535.5 h -10.8 v 5.2 h -16.2 v -5.2 h -15.8 v 5.2 h -16.2 v -5.2 h -15.8 v 5.2 h -16.2 v -5.2 h -15.8 v 5.2 h -16.2 v -5.2 h -15.8 v 5.2 h -16.2 v -5.2 h -16 v -11.273 h -5.2 v -16.672 h 5.2 v -16.273 h -5.2 v -16.673 h 5.2 v -16.273 h -5.2 v -16.672 h 5.2 v -16.273 h -5.2 v -16.673 h 5.2 v -16.273 h -5.2 v -16.672" />
  <polyline
     z="0"
     points="559.3,463.406 559.3,447.206 564.5,447.206 564.5,431.406 559.3,431.406 559.3,415.206 564.5,415.206 564.5,399.406 559.3,399.406 559.3,383.206 564.5,383.206 564.5,367.406 559.3,367.406 559.3,351.206 564.5,351.206 564.5,335.406 559.3,335.406 559.3,319.206 564.5,319.206 564.5,308.406 580.027,308.406 580.027,303.206 595.755,303.206 595.755,308.406 611.082,308.406 611.082,303.206 626.809,303.206 626.809,308.406 642.136,308.406 642.136,303.206 657.864,303.206 657.864,308.406 673.191,308.406 673.191,303.206 688.918,303.206 688.918,308.406 704.245,308.406 704.245,303.206 719.973,303.206 719.973,308.406 735.5,308.406 735.5,319.206 740.7,319.206 740.7,335.406 735.5,335.406 735.5,351.206 740.7,351.206 740.7,367.406 735.5,367.406 735.5,383.206 740.7,383.206 740.7,399.406 735.5,399.406 735.5,415.206 740.7,415.206 740.7,431.406 735.5,431.406 735.5,447.206 740.7,447.206 740.7,463.406 735.5,463.406 735.5,479.406 724.227,479.406 724.227,484.606 707.555,484.606 707.555,479.406 691.282,479.406 691.282,484.606 674.609,484.606 674.609,479.406 658.336,479.406 658.336,484.606 641.664,484.606 641.664,479.406 625.391,479.406 625.391,484.606 608.718,484.606 608.718,479.406 592.445,479.406 592.445,484.606 575.773,484.606 575.773,479.406 564.5,479.406 564.5,463.406 559.3,463.406"
     fill="none"
     stroke="#000000"
     stroke-width="0.1mm"
     id="polyline6"
     transform="matrix(0,1,1,0,365.09401,-200)"
     style="vector-effect:non-scaling-stroke;stroke-width:0.264583;stroke-dasharray:none;-inkscape-stroke:hairline" />
  <polyline
     z="0"
     points="740.7,560.194 761.627,560.194 761.627,565.394 776.955,565.394 776.955,560.194 792.682,560.194 792.682,565.394 808.009,565.394 808.009,560.194 823.736,560.194 823.736,565.394 839.064,565.394 839.064,560.194 854.791,560.194 854.791,565.394 870.118,565.394 870.118,560.194 885.845,560.194 885.845,565.394 901.173,565.394 901.173,560.194 922.1,560.194 922.1,567.674 916.9,567.674 916.9,574.754 922.1,574.754 922.1,582.234 916.9,582.234 916.9,589.314 922.1,589.314 922.1,596.794 901.173,596.794 901.173,591.594 885.845,591.594 885.845,596.794 870.118,596.794 870.118,591.594 854.791,591.594 854.791,596.794 839.064,596.794 839.064,591.594 823.736,591.594 823.736,596.794 808.009,596.794 808.009,591.594 792.682,591.594 792.682,596.794 776.955,596.794 776.955,591.594 761.627,591.594 761.627,596.794 740.7,596.794 740.7,589.314 745.9,589.314 745.9,582.234 740.7,582.234 740.7,574.754 745.9,574.754 745.9,567.674 740.7,567.674 740.7,560.194"
     fill="none"
     stroke="#000000"
     stroke-width="0.1mm"
     id="polyline15"
     transform="rotate(90,804.947,242.147)"
     style="vector-effect:non-scaling-stroke;stroke-width:0.264583;stroke-dasharray:none;-inkscape-stroke:hairline" />
  <path
     id="polyline5-6"
     style="vector-effect:non-scaling-stroke;fill:none;stroke:#000000;stroke-width:0.264583;stroke-dasharray:none;-inkscape-stroke:hairline"
     d="m 502.799,197.806 0.121,-0.486 0.169,-0.472 0.214,-0.452 0.257,-0.429 0.298,-0.402 0.336,-0.371 0.371,-0.337 0.402,-0.298 0.43,-0.257 0.452,-0.214 0.471,-0.168 0.486,-0.122 0.494,-0.073 0.503,-0.025 h 139.595 l 0.503,0.025 0.494,0.073 0.485,0.122 0.472,0.168 0.452,0.214 0.43,0.257 0.402,0.298 0.371,0.337 0.336,0.371 0.298,0.402 0.257,0.429 0.214,0.452 0.169,0.472 0.121,0.486 0.074,0.494 0.024,0.502 v 139.596 l -0.024,0.502 -0.074,0.494 -0.121,0.486 -0.169,0.472 -0.214,0.452 -0.257,0.429 -0.298,0.402 -0.336,0.371 -0.371,0.337 -0.402,0.298 -0.43,0.257 -0.452,0.214 -0.472,0.168 -0.485,0.122 -0.494,0.073 -0.503,0.025 H 507.803 l -0.503,-0.025 -0.494,-0.073 -0.486,-0.122 -0.471,-0.168 -0.452,-0.214 -0.43,-0.257 -0.402,-0.298 -0.371,-0.337 -0.336,-0.371 -0.298,-0.402 -0.257,-0.429 -0.214,-0.452 -0.169,-0.472 -0.121,-0.486 -0.074,-0.494 -0.025,-0.502 V 198.802 l 0.025,-0.502 0.074,-0.494 M 486.9,194.373 h 5.2 V 183.1 h 16 v -5.2 h 16.2 v 5.2 h 15.8 v -5.2 h 16.2 v 5.2 h 15.8 v -5.2 h 16.2 v 5.2 h 15.8 v -5.2 h 16.2 v 5.2 h 15.8 v -5.2 h 16.2 v 5.2 h 10.8 v 15.527 h 5.2 v 15.728 h -5.2 v 15.327 h 5.2 v 15.727 h -5.2 v 15.327 h 5.2 v 15.728 h -5.2 v 15.327 h 5.2 v 15.727 h -5.2 v 15.327 h 5.2 v 15.728 h -5.2 V 354.1 h -10.8 v 5.2 h -16.2 v -5.2 h -15.8 v 5.2 h -16.2 v -5.2 h -15.8 v 5.2 h -16.2 v -5.2 h -15.8 v 5.2 h -16.2 v -5.2 h -15.8 v 5.2 h -16.2 v -5.2 h -16 v -11.273 h -5.2 v -16.672 h 5.2 v -16.273 h -5.2 v -16.673 h 5.2 v -16.273 h -5.2 v -16.672 h 5.2 v -16.273 h -5.2 v -16.673 h 5.2 v -16.273 h -5.2 v -16.672" />
  <polyline
     z="0"
     points="559.3,463.406 559.3,447.206 564.5,447.206 564.5,431.406 559.3,431.406 559.3,415.206 564.5,415.206 564.5,399.406 559.3,399.406 559.3,383.206 564.5,383.206 564.5,367.406 559.3,367.406 559.3,351.206 564.5,351.206 564.5,335.406 559.3,335.406 559.3,319.206 564.5,319.206 564.5,308.406 580.027,308.406 580.027,303.206 595.755,303.206 595.755,308.406 611.082,308.406 611.082,303.206 626.809,303.206 626.809,308.406 642.136,308.406 642.136,303.206 657.864,303.206 657.864,308.406 673.191,308.406 673.191,303.206 688.918,303.206 688.918,308.406 704.245,308.406 704.245,303.206 719.973,303.206 719.973,308.406 735.5,308.406 735.5,319.206 740.7,319.206 740.7,335.406 735.5,335.406 735.5,351.206 740.7,351.206 740.7,367.406 735.5,367.406 735.5,383.206 740.7,383.206 740.7,399.406 735.5,399.406 735.5,415.206 740.7,415.206 740.7,431.406 735.5,431.406 735.5,447.206 740.7,447.206 740.7,463.406 735.5,463.406 735.5,479.406 724.227,479.406 724.227,484.606 707.555,484.606 707.555,479.406 691.282,479.406 691.282,484.606 674.609,484.606 674.609,479.406 658.336,479.406 658.336,484.606 641.664,484.606 641.664,479.406 625.391,479.406 625.391,484.606 608.718,484.606 608.718,479.406 592.445,479.406 592.445,484.606 575.773,484.606 575.773,479.406 564.5,479.406 564.5,463.406 559.3,463.406"
     fill="none"
     stroke="#000000"
     stroke-width="0.1mm"
     id="polyline6-1"
     transform="matrix(0,1,1,0,365.09401,-381.4)"
     style="vector-effect:non-scaling-stroke;stroke-width:0.264583;stroke-dasharray:none;-inkscape-stroke:hairline" />
  <polyline
     z="0"
     points="740.7,560.194 761.627,560.194 761.627,565.394 776.955,565.394 776.955,560.194 792.682,560.194 792.682,565.394 808.009,565.394 808.009,560.194 823.736,560.194 823.736,565.394 839.064,565.394 839.064,560.194 854.791,560.194 854.791,565.394 870.118,565.394 870.118,560.194 885.845,560.194 885.845,565.394 901.173,565.394 901.173,560.194 922.1,560.194 922.1,567.674 916.9,567.674 916.9,574.754 922.1,574.754 922.1,582.234 916.9,582.234 916.9,589.314 922.1,589.314 922.1,596.794 901.173,596.794 901.173,591.594 885.845,591.594 885.845,596.794 870.118,596.794 870.118,591.594 854.791,591.594 854.791,596.794 839.064,596.794 839.064,591.594 823.736,591.594 823.736,596.794 808.009,596.794 808.009,591.594 792.682,591.594 792.682,596.794 776.955,596.794 776.955,591.594 761.627,591.594 761.627,596.794 740.7,596.794 740.7,589.314 745.9,589.314 745.9,582.234 740.7,582.234 740.7,574.754 745.9,574.754 745.9,567.674 740.7,567.674 740.7,560.194"
     fill="none"
     stroke="#000000"
     stroke-width="0.1mm"
     id="polyline15-3"
     transform="matrix(0,1,1,0,-109.894,-381.4)"
     style="vector-effect:non-scaling-stroke;stroke-width:0.264583;stroke-dasharray:none;-inkscape-stroke:hairline" />
</svg>
