Cleat Wall Organization Equipment
Copyright (C) 2025  Corporate Hacks

This program is free software: you can redistribute it and/or modify
it under the terms of the GNU General Public License as published by
the Free Software Foundation, either version 3 of the License, or
(at your option) any later version.

This program is distributed in the hope that it will be useful,
but WITHOUT ANY WARRANTY; without even the implied warranty of
MERCHANTABILITY or FITNESS FOR A PARTICULAR PURPOSE.  See the
GNU General Public License for more details.

You should have received a copy of the GNU General Public License
along with this program.  If not, see <http://www.gnu.org/licenses/>.


<svg xmlns="http://www.w3.org/2000/svg" width="1300mm" height="900mm" viewBox="0 0 1300 900">
    <path d="M582.76 562.1h5v15.8h-5v-15.8m-31.4-21.4h8.661v5.2h8.261v-5.2h8.661v5.2h8.261v-5.2h2.756v4.875h5.521l13.67 13.67h-5.341v18.446h5.2v18.845h-5.2v18.445h5.602l-5.33 2.208-14.322-14.323V594.1h-5v15.8h5.2v16.2h-5.2v15.8h5.2v16.2h-5.2v15.8h5.2v16.2h-5.2v15.8h5.2v11h-7.28v5.2h-7.48v-5.2h-7.08v5.2h-7.48v-5.2h-7.28v-11h5.2v-15.8h-5.2v-16.2h5.2v-15.8h-5.2v-16.2h5.2v-15.8h-5.2v-16.2h5.2v-15.8h-5.2v-16.2h5.2v-15.8h-5.2v-21.4" style="vector-effect:non-scaling-stroke;fill:none;stroke:#000;stroke-width:.264583;stroke-dasharray:none;-inkscape-stroke:hairline"/>
    <path fill="none" stroke="#000" stroke-width=".1mm" d="M377.9 540.742v-18.845h5.2v-18.446h-5.2v-18.845h181.4v18.845h-5.2v18.446h5.2v18.845H377.9" style="vector-effect:non-scaling-stroke;stroke-width:.264583;stroke-dasharray:none;-inkscape-stroke:hairline" transform="rotate(90 532.229 695.029)"/>
    <path d="M495.108 684.9v15.8h-5v-15.8h5m.2-139v11h-5.2v15.8h5.2v16.2h-5.2v15.8h5.2v16.2h-5.2v15.8h5.2v16.2h-5.2v15.8h5v-8.766l14.323-14.323 5.33 2.208h-5.603v18.445h5.2v18.845h-5.2v18.446h5.342l-13.67 13.67h-5.522v4.875h-2.756v-5.2h-8.261v5.2h-8.661v-5.2h-8.261v5.2h-8.661v-21.4h5.2v-15.8h-5.2v-16.2h5.2v-15.8h-5.2v-16.2h5.2v-15.8h-5.2v-16.2h5.2v-15.8h-5.2v-16.2h5.2v-15.8h-5.2v-11h7.28v-5.2h7.48v5.2h7.08v-5.2h7.48v5.2h7.28M680.412 573.645h-5v-16.272h5v16.272m0 32.946h-5v-16.273h5v16.273m0 32.945h-5v-16.272h5v16.272m0 32.946h-5v-16.273h5v16.273m0 32.945h-5v-16.272h5v16.272m6.104 11.473h-8.461v5.2h-8.661v-5.2h-8.26v5.2h-8.661v-5.2h-8.461v-11.473h5.2v-16.272h-5.2v-16.673h5.2v-16.273h-5.2v-16.673h5.2v-16.272h-5.2v-16.673h5.2v-16.273h-5.2v-16.673h5.2v-16.272h-5.2V545.9h8.461v-5.2h8.661v5.2h8.26v-5.2h8.661v5.2h8.461v171" style="vector-effect:non-scaling-stroke;fill:none;stroke:#000;stroke-width:.264583;stroke-dasharray:none;-inkscape-stroke:hairline"/>
    <path d="M519.96 562.1h-5v15.8h5v-15.8m31.4-21.4h-8.661v5.2h-8.261v-5.2h-8.661v5.2h-8.261v-5.2h-2.756v4.875h-5.521l-13.67 13.67h5.341v18.446h-5.2v18.845h5.2v18.445h-5.602l5.33 2.208 14.322-14.323V594.1h5v15.8h-5.2v16.2h5.2v15.8h-5.2v16.2h5.2v15.8h-5.2v16.2h5.2v15.8h-5.2v11h7.28v5.2h7.48v-5.2h7.08v5.2h7.48v-5.2h7.28v-11h-5.2v-15.8h5.2v-16.2h-5.2v-15.8h5.2v-16.2h-5.2v-15.8h5.2v-16.2h-5.2v-15.8h5.2v-16.2h-5.2v-15.8h5.2v-21.4" style="vector-effect:non-scaling-stroke;fill:none;stroke:#000;stroke-width:.264583;stroke-dasharray:none;-inkscape-stroke:hairline"/>
    <path fill="none" stroke="#000" stroke-width=".1mm" d="M377.9 540.742v-18.845h5.2v-18.446h-5.2v-18.845h181.4v18.845h-5.2v18.446h5.2v18.845H377.9" style="vector-effect:non-scaling-stroke;stroke-width:.264583;stroke-dasharray:none;-inkscape-stroke:hairline" transform="matrix(0 1 1 0 258.046 162.8)"/>
    <path d="M607.612 684.9v15.8h5v-15.8h-5m-.2-139v11h5.2v15.8h-5.2v16.2h5.2v15.8h-5.2v16.2h5.2v15.8h-5.2v16.2h5.2v15.8h-5v-8.766l-14.323-14.323-5.33 2.208h5.603v18.445h-5.2v18.845h5.2v18.446h-5.342l13.67 13.67h5.522v4.875h2.756v-5.2h8.261v5.2h8.661v-5.2h8.261v5.2h8.661v-21.4h-5.2v-15.8h5.2v-16.2h-5.2v-15.8h5.2v-16.2h-5.2v-15.8h5.2v-16.2h-5.2v-15.8h5.2v-16.2h-5.2v-15.8h5.2v-11h-7.28v-5.2h-7.48v5.2h-7.08v-5.2h-7.48v5.2h-7.28M804.892 573.645h5v-16.272h-5v16.272m0 32.946h5v-16.273h-5v16.273m0 32.945h5v-16.272h-5v16.272m0 32.946h5v-16.273h-5v16.273m0 32.945h5v-16.272h-5v16.272m-6.104 11.473h8.461v5.2h8.661v-5.2h8.26v5.2h8.661v-5.2h8.461v-11.473h-5.2v-16.272h5.2v-16.673h-5.2v-16.273h5.2v-16.673h-5.2v-16.272h5.2v-16.673h-5.2v-16.273h5.2v-16.673h-5.2v-16.272h5.2V545.9h-8.461v-5.2h-8.661v5.2h-8.26v-5.2h-8.661v5.2h-8.461v171M502.799 379.206l.121-.486.169-.472.214-.452.257-.429.298-.402.336-.371.371-.337.402-.298.43-.257.452-.214.471-.168.486-.122.494-.073.503-.025h139.595l.503.025.494.073.485.122.472.168.452.214.43.257.402.298.371.337.336.371.298.402.257.429.214.452.169.472.121.486.074.494.024.502v139.596l-.024.502-.074.494-.121.486-.169.472-.214.452-.257.429-.298.402-.336.371-.371.337-.402.298-.43.257-.452.214-.472.168-.485.122-.494.073-.503.025H507.803l-.503-.025-.494-.073-.486-.122-.471-.168-.452-.214-.43-.257-.402-.298-.371-.337-.336-.371-.298-.402-.257-.429-.214-.452-.169-.472-.121-.486-.074-.494-.025-.502V380.202l.025-.502.074-.494m-15.899-3.433h5.2V364.5h16v-5.2h16.2v5.2h15.8v-5.2h16.2v5.2h15.8v-5.2h16.2v5.2h15.8v-5.2h16.2v5.2h15.8v-5.2h16.2v5.2h10.8v15.527h5.2v15.728h-5.2v15.327h5.2v15.727h-5.2v15.327h5.2v15.728h-5.2v15.327h5.2v15.727h-5.2v15.327h5.2v15.728h-5.2V535.5h-10.8v5.2h-16.2v-5.2h-15.8v5.2h-16.2v-5.2h-15.8v5.2h-16.2v-5.2h-15.8v5.2h-16.2v-5.2h-15.8v5.2h-16.2v-5.2h-16v-11.273h-5.2v-16.672h5.2v-16.273h-5.2v-16.673h5.2v-16.273h-5.2v-16.672h5.2v-16.273h-5.2v-16.673h5.2v-16.273h-5.2v-16.672" style="vector-effect:non-scaling-stroke;fill:none;stroke:#000;stroke-width:.264583;stroke-dasharray:none;-inkscape-stroke:hairline"/>
    <path fill="none" stroke="#000" stroke-width=".1mm" d="M559.3 463.406v-16.2h5.2v-15.8h-5.2v-16.2h5.2v-15.8h-5.2v-16.2h5.2v-15.8h-5.2v-16.2h5.2v-15.8h-5.2v-16.2h5.2v-10.8h15.527v-5.2h15.728v5.2h15.327v-5.2h15.727v5.2h15.327v-5.2h15.728v5.2h15.327v-5.2h15.727v5.2h15.327v-5.2h15.728v5.2H735.5v10.8h5.2v16.2h-5.2v15.8h5.2v16.2h-5.2v15.8h5.2v16.2h-5.2v15.8h5.2v16.2h-5.2v15.8h5.2v16.2h-5.2v16h-11.273v5.2h-16.672v-5.2h-16.273v5.2h-16.673v-5.2h-16.273v5.2h-16.672v-5.2h-16.273v5.2h-16.673v-5.2h-16.273v5.2h-16.672v-5.2H564.5v-16h-5.2" style="vector-effect:non-scaling-stroke;stroke-width:.264583;stroke-dasharray:none;-inkscape-stroke:hairline" transform="matrix(0 1 1 0 365.094 -200)"/>
    <path fill="none" stroke="#000" stroke-width=".1mm" d="M740.7 560.194h20.927v5.2h15.328v-5.2h15.727v5.2h15.327v-5.2h15.727v5.2h15.328v-5.2h15.727v5.2h15.327v-5.2h15.727v5.2h15.328v-5.2H922.1v7.48h-5.2v7.08h5.2v7.48h-5.2v7.08h5.2v7.48h-20.927v-5.2h-15.328v5.2h-15.727v-5.2h-15.327v5.2h-15.727v-5.2h-15.328v5.2h-15.727v-5.2h-15.327v5.2h-15.727v-5.2h-15.328v5.2H740.7v-7.48h5.2v-7.08h-5.2v-7.48h5.2v-7.08h-5.2v-7.48" style="vector-effect:non-scaling-stroke;stroke-width:.264583;stroke-dasharray:none;-inkscape-stroke:hairline" transform="rotate(90 804.947 242.147)"/>
    <path d="m502.799 197.806.121-.486.169-.472.214-.452.257-.429.298-.402.336-.371.371-.337.402-.298.43-.257.452-.214.471-.168.486-.122.494-.073.503-.025h139.595l.503.025.494.073.485.122.472.168.452.214.43.257.402.298.371.337.336.371.298.402.257.429.214.452.169.472.121.486.074.494.024.502v139.596l-.024.502-.074.494-.121.486-.169.472-.214.452-.257.429-.298.402-.336.371-.371.337-.402.298-.43.257-.452.214-.472.168-.485.122-.494.073-.503.025H507.803l-.503-.025-.494-.073-.486-.122-.471-.168-.452-.214-.43-.257-.402-.298-.371-.337-.336-.371-.298-.402-.257-.429-.214-.452-.169-.472-.121-.486-.074-.494-.025-.502V198.802l.025-.502.074-.494m-15.899-3.433h5.2V183.1h16v-5.2h16.2v5.2h15.8v-5.2h16.2v5.2h15.8v-5.2h16.2v5.2h15.8v-5.2h16.2v5.2h15.8v-5.2h16.2v5.2h10.8v15.527h5.2v15.728h-5.2v15.327h5.2v15.727h-5.2v15.327h5.2v15.728h-5.2v15.327h5.2v15.727h-5.2v15.327h5.2v15.728h-5.2V354.1h-10.8v5.2h-16.2v-5.2h-15.8v5.2h-16.2v-5.2h-15.8v5.2h-16.2v-5.2h-15.8v5.2h-16.2v-5.2h-15.8v5.2h-16.2v-5.2h-16v-11.273h-5.2v-16.672h5.2v-16.273h-5.2v-16.673h5.2v-16.273h-5.2v-16.672h5.2v-16.273h-5.2v-16.673h5.2v-16.273h-5.2v-16.672" style="vector-effect:non-scaling-stroke;fill:none;stroke:#000;stroke-width:.264583;stroke-dasharray:none;-inkscape-stroke:hairline"/>
    <path fill="none" stroke="#000" stroke-width=".1mm" d="M559.3 463.406v-16.2h5.2v-15.8h-5.2v-16.2h5.2v-15.8h-5.2v-16.2h5.2v-15.8h-5.2v-16.2h5.2v-15.8h-5.2v-16.2h5.2v-10.8h15.527v-5.2h15.728v5.2h15.327v-5.2h15.727v5.2h15.327v-5.2h15.728v5.2h15.327v-5.2h15.727v5.2h15.327v-5.2h15.728v5.2H735.5v10.8h5.2v16.2h-5.2v15.8h5.2v16.2h-5.2v15.8h5.2v16.2h-5.2v15.8h5.2v16.2h-5.2v15.8h5.2v16.2h-5.2v16h-11.273v5.2h-16.672v-5.2h-16.273v5.2h-16.673v-5.2h-16.273v5.2h-16.672v-5.2h-16.273v5.2h-16.673v-5.2h-16.273v5.2h-16.672v-5.2H564.5v-16h-5.2" style="vector-effect:non-scaling-stroke;stroke-width:.264583;stroke-dasharray:none;-inkscape-stroke:hairline" transform="matrix(0 1 1 0 365.094 -381.4)"/>
    <path fill="none" stroke="#000" stroke-width=".1mm" d="M740.7 560.194h20.927v5.2h15.328v-5.2h15.727v5.2h15.327v-5.2h15.727v5.2h15.328v-5.2h15.727v5.2h15.327v-5.2h15.727v5.2h15.328v-5.2H922.1v7.48h-5.2v7.08h5.2v7.48h-5.2v7.08h5.2v7.48h-20.927v-5.2h-15.328v5.2h-15.727v-5.2h-15.327v5.2h-15.727v-5.2h-15.328v5.2h-15.727v-5.2h-15.327v5.2h-15.727v-5.2h-15.328v5.2H740.7v-7.48h5.2v-7.08h-5.2v-7.48h5.2v-7.08h-5.2v-7.48" style="vector-effect:non-scaling-stroke;stroke-width:.264583;stroke-dasharray:none;-inkscape-stroke:hairline" transform="matrix(0 1 1 0 -109.894 -381.4)"/>
</svg>
