<!--
Cleat Wall Organization Equipment
Copyright (C) 2025  Corporate Hacks

This program is free software: you can redistribute it and/or modify
it under the terms of the GNU General Public License as published by
the Free Software Foundation, either version 3 of the License, or
(at your option) any later version.

This program is distributed in the hope that it will be useful,
but WITHOUT ANY WARRANTY; without even the implied warranty of
MERCHANTABILITY or FITNESS FOR A PARTICULAR PURPOSE.  See the
GNU General Public License for more details.

You should have received a copy of the GNU General Public License
along with this program.  If not, see <http://www.gnu.org/licenses/>.
-->

<svg xmlns="http://www.w3.org/2000/svg" width="1300mm" height="900mm" viewBox="0 0 1300 900">
    <path fill="none" stroke="#000" stroke-width=".1mm" d="M502.735 625.39v-15.183h-5.25v-15.384h5.25V579.64h149.89v45.75h-17.216v5.25h-17.415v-5.25h-17.016v5.25h-17.415v-5.25h-17.016v5.25h-17.415v-5.25h-17.016v5.25h-17.415v-5.25h-11.966" style="fill:none;stroke:#000;stroke-opacity:1;vector-effect:non-scaling-stroke;-inkscape-stroke:hairline;stroke-width:.26458333;stroke-dasharray:none" transform="rotate(90 703.625 475.5)"/>
    <path d="M497.485 424.5v17.416h5.25v17.015h-5.25v17.416h5.25v17.015h-5.25v17.416h5.25v17.015h-5.25v17.416h5.25v17.015h-5.25v17.416H514.9v-5.25h17.015v5.25h17.416v-5.25h17.015v5.25h17.416v-5.25h17.015v5.25h17.416v-5.25h17.015v5.25h17.416v-64.872l-.434-8.846-1.301-8.763-2.152-8.593-2.984-8.341-3.788-8.008-4.554-7.599-5.278-7.115-5.948-6.564-6.564-5.948-7.115-5.278-7.6-4.554-8.007-3.788-8.341-2.984-8.593-2.152-8.763-1.301-8.846-.434zm64.957 20.124.344.026.342.06.333.094.322.126.308.16.291.186.27.216.248.242.222.265.196.285.165.304.134.32.102.33.07.34.033.344v.346l-.034.344-.069.339-.102.332-.134.319-.165.304-.196.285-.222.265-.248.242-.27.216-.29.187-.309.159-.322.126-.333.093-.342.06-.344.027-.347-.01-.343-.042-.337-.077-.329-.11-.315-.142-.3-.174-.28-.2-.26-.23-.235-.254-.21-.276-.18-.296-.15-.312-.118-.325-.086-.335-.051-.342-.018-.346.018-.346.05-.342.087-.335.118-.325.15-.312.18-.296.21-.276.235-.253.26-.23.28-.201.3-.174.315-.142.329-.11.337-.077.343-.043zm.893 30.888 3.903.293 3.856.68 3.768 1.06 3.644 1.43 3.484 1.787 3.289 2.123 3.06 2.44 2.803 2.735 2.516 2.999 2.206 3.234 1.872 3.438 1.521 3.608 1.154 3.74.775 3.838.39 3.897.049 1.956-.049 1.956-.39 3.897-.775 3.837-1.154 3.74-1.52 3.609-1.873 3.438-2.206 3.234-2.516 3-2.802 2.733-3.061 2.441-3.29 2.123-3.483 1.787-3.644 1.43-3.768 1.06-3.856.68-3.903.293-3.915-.098-3.885-.487-3.816-.87-3.71-1.248-3.569-1.61-3.39-1.957-3.18-2.285-2.935-2.59-2.662-2.87-2.364-3.121-2.042-3.341-1.7-3.527-1.337-3.678-.966-3.795-.583-3.871-.196-3.91.196-3.91.583-3.87.966-3.796 1.338-3.678 1.699-3.527 2.042-3.341 2.364-3.12 2.662-2.87 2.935-2.59 3.18-2.286 3.39-1.957 3.569-1.61 3.71-1.248 3.816-.87 3.885-.487z" style="fill:none;stroke:#000;stroke-opacity:1;vector-effect:non-scaling-stroke;-inkscape-stroke:hairline;stroke-width:.26458333;stroke-dasharray:none"/>
    <path fill="none" stroke="#000" stroke-width=".1mm" d="M543.235 424.5h-15.383v-5.25h-14.984v5.25h-15.383V269.36h45.75v17.216h5.25v17.415h-5.25v17.016h5.25v17.415h-5.25v17.016h5.25v17.415h-5.25v17.016h5.25v17.415h-5.25V424.5" style="fill:none;stroke:#000;stroke-opacity:1;vector-effect:non-scaling-stroke;-inkscape-stroke:hairline;stroke-width:.26458333;stroke-dasharray:none"/>
    <path d="M652.625 429.75v149.89h149.89v-59.622l-.434-8.846-1.3-8.763-2.153-8.593-2.984-8.341-3.788-8.008-4.554-7.599-5.278-7.115-5.948-6.564-6.564-5.948-7.115-5.278-7.6-4.554-8.007-3.788-8.341-2.984-8.593-2.152-8.763-1.3-8.846-.435zm59.533 20.124.347.01.343.042.337.077.33.11.314.142.3.174.281.2.259.23.235.254.209.276.18.296.151.312.118.325.086.335.05.342.019.346-.018.346-.051.342-.086.335-.118.325-.15.312-.181.296-.209.276-.235.253-.259.23-.281.201-.3.174-.315.142-.33.11-.336.077-.343.043-.347.009-.344-.026-.342-.06-.333-.094-.322-.126-.308-.159-.29-.187-.271-.216-.248-.242-.222-.265-.196-.285-.165-.304-.134-.319-.102-.332-.069-.339-.034-.344v-.346l.034-.344.069-.339.102-.332.134-.319.165-.304.196-.285.222-.265.248-.242.27-.216.291-.187.308-.16.322-.125.333-.093.342-.06zm-.892 30.888 3.914.098 3.885.487 3.816.87 3.71 1.248 3.57 1.61 3.39 1.957 3.18 2.285 2.934 2.591 2.662 2.869 2.364 3.12 2.042 3.342 1.699 3.527 1.338 3.678.966 3.795.583 3.871.196 3.91-.196 3.91-.583 3.87-.966 3.796-1.338 3.678-1.699 3.527-2.042 3.341-2.364 3.12-2.662 2.87-2.935 2.591-3.179 2.285-3.39 1.957-3.57 1.61-3.71 1.248-3.816.87-3.885.487-3.914.098-3.904-.293-3.856-.68-3.768-1.06-3.644-1.43-3.484-1.787-3.289-2.123-3.061-2.44-2.802-2.735-2.516-2.999-2.206-3.234-1.872-3.438-1.521-3.608-1.154-3.741-.775-3.837-.39-3.896v-3.914l.39-3.896.775-3.837 1.154-3.74 1.521-3.609 1.872-3.438 2.206-3.234 2.516-3 2.802-2.733 3.061-2.44 3.289-2.124 3.484-1.787 3.644-1.43 3.768-1.06 3.856-.68z" style="fill:none;stroke:#000;stroke-opacity:1;vector-effect:non-scaling-stroke;-inkscape-stroke:hairline;stroke-width:.26458333;stroke-dasharray:none"/>
</svg>
