<?xml version="1.0" standalone="no"?>
<!DOCTYPE svg PUBLIC "-//W3C//DTD SVG 1.1//EN" "http://www.w3.org/Graphics/SVG/1.1/DTD/svg11.dtd">
<svg width="1300mm" height="900mm" viewBox="0 0 1300 900" xmlns="http://www.w3.org/2000/svg" version="1.1">
<polyline z="0" points="474.44,597.435 474.44,580.584 479.69,580.584 479.69,564.133 474.44,564.133 474.44,547.282 479.69,547.282 479.69,530.831 474.44,530.831 474.44,513.979 479.69,513.979 479.69,497.528 474.44,497.528 474.44,480.677 479.69,480.677 479.69,464.226 474.44,464.226 474.44,447.375 549.472,447.375 556.824,447.736 564.108,448.817 571.25,450.605 578.182,453.087 584.839,456.235 591.155,460.02 597.069,464.406 602.525,469.35 607.469,474.806 611.855,480.72 615.64,487.036 618.789,493.693 621.27,500.625 623.058,507.767 624.139,515.051 624.5,522.403 624.5,597.435 607.649,597.435 607.649,592.185 591.198,592.185 591.198,597.435 574.347,597.435 574.347,592.185 557.896,592.185 557.896,597.435 541.044,597.435 541.044,592.185 524.593,592.185 524.593,597.435 507.742,597.435 507.742,592.185 491.291,592.185 491.291,597.435 474.44,597.435" fill="none" stroke="black" stroke-width="0.1mm" />
<polyline z="0" points="507.108,554.231 506.6,553.832 506.068,553.337 505.527,552.737 504.998,552.035 504.503,551.237 504.141,550.507 503.865,549.801 503.648,549.038 503.514,548.3 503.458,547.585 503.472,546.885 503.577,545.969 503.938,543.972 504.064,542.97 504.086,542.376 504.069,541.954 502.729,538.485 501.657,534.944 501.003,532.466 500.387,528.818 500.063,524.657 500.057,521.124 500.268,517.668 500.72,514.235 501.411,510.843 502.762,506.205 504.521,501.784 506.738,497.452 509.369,493.339 512.304,489.619 515.079,486.714 517.93,484.221 520.907,482.063 524.914,479.506 529.145,477.347 533.564,475.604 538.131,474.293 542.801,473.427 547.534,473.013 552.292,473.055 560.544,472.691 562.451,472.513 563.974,472.269 565.146,471.981 566.109,471.652 567.065,471.224 568.528,470.408 570.114,469.42 571.402,468.658 572.807,467.951 574.04,467.465 575.472,467.049 577.039,466.743 578.762,466.568 580.17,466.555 581.388,466.65 582.389,466.819 583.207,467.032 583.877,467.272 584.428,467.526 584.887,467.789 585.273,468.06 585.636,468.368 585.962,468.703 586.283,469.093 586.606,469.563 587.024,470.297 587.571,471.509 588.583,474.066 589.027,474.998 589.375,475.595 589.721,476.087 590.126,476.562 590.723,477.147 591.75,477.984 593.86,479.649 594.294,480.084 594.613,480.468 594.861,480.823 595.065,481.181 595.247,481.58 595.409,482.038 595.55,482.575 595.663,483.218 595.742,484.129 595.736,485.403 595.555,487.268 594.824,491.06 594.042,494.816 593.806,496.741 593.742,498.533 593.865,500.669 595.596,504.635 596.967,508.716 597.978,512.901 598.62,517.158 598.891,521.454 598.786,525.757 598.307,530.039 597.857,533.279 597.113,536.449 596.002,539.816 594.473,543.368 592.471,547.076 589.809,551.084 586.801,554.816 586.118,555.575 583.74,558.027 581.198,560.308 578.506,562.409 574.461,565.07 570.439,567.191 566.177,568.951 561.809,570.289 557.299,571.223 552.685,571.736 548.014,571.815 546.261,571.73 541.97,571.263 537.116,570.289 532.492,568.902 528.177,567.142 524.991,565.479 522.535,563.908 518.727,561.112 515.934,558.718 513.31,556.108 512.802,555.9 512.199,555.717 511.332,555.54 509.672,555.288 509.026,555.146 508.487,554.976 508.044,554.788 507.59,554.545 507.108,554.231" fill="none" stroke="black" stroke-width="0.1mm" />
<polyline z="0" points="474.44,447.375 474.44,302.565 544.222,302.565 551.574,302.926 558.858,304.007 566,305.795 572.932,308.276 579.589,311.425 585.905,315.21 591.819,319.596 597.275,324.54 602.219,329.996 606.605,335.91 610.39,342.226 613.539,348.883 616.02,355.815 617.808,362.957 618.889,370.241 619.25,377.593 619.25,447.375 474.44,447.375" fill="none" stroke="black" stroke-width="0.1mm" />
<polyline z="0" points="501.858,409.421 501.35,409.022 500.818,408.527 500.277,407.927 499.748,407.225 499.253,406.427 498.891,405.697 498.615,404.991 498.398,404.228 498.264,403.49 498.208,402.775 498.222,402.075 498.327,401.159 498.688,399.162 498.814,398.16 498.836,397.566 498.819,397.144 497.479,393.675 496.407,390.134 495.753,387.656 495.137,384.008 494.813,379.847 494.807,376.314 495.018,372.858 495.47,369.425 496.161,366.033 497.512,361.395 499.271,356.974 501.488,352.642 504.119,348.529 507.054,344.809 509.829,341.904 512.68,339.411 515.657,337.253 519.664,334.696 523.895,332.537 528.314,330.794 532.881,329.483 537.551,328.617 542.284,328.203 547.042,328.245 555.294,327.881 557.201,327.703 558.724,327.459 559.896,327.171 560.859,326.842 561.815,326.414 563.278,325.598 564.864,324.61 566.152,323.848 567.557,323.141 568.79,322.655 570.222,322.239 571.789,321.933 573.512,321.758 574.92,321.745 576.138,321.84 577.139,322.009 577.957,322.222 578.627,322.462 579.178,322.716 579.637,322.979 580.023,323.25 580.386,323.558 580.712,323.893 581.033,324.283 581.356,324.753 581.774,325.487 582.321,326.699 583.333,329.256 583.777,330.188 584.125,330.785 584.471,331.277 584.876,331.752 585.473,332.337 586.5,333.174 588.61,334.839 589.044,335.274 589.363,335.658 589.611,336.013 589.815,336.371 589.997,336.77 590.159,337.228 590.3,337.765 590.413,338.408 590.492,339.319 590.486,340.593 590.305,342.458 589.574,346.25 588.792,350.006 588.556,351.931 588.492,353.723 588.615,355.859 590.346,359.825 591.717,363.906 592.728,368.091 593.37,372.348 593.641,376.644 593.536,380.947 593.057,385.229 592.607,388.469 591.863,391.639 590.752,395.006 589.223,398.558 587.221,402.266 584.559,406.274 581.551,410.006 580.868,410.765 578.49,413.217 575.948,415.498 573.256,417.599 569.211,420.26 565.189,422.381 560.927,424.141 556.559,425.479 552.049,426.413 547.435,426.926 542.764,427.005 541.011,426.92 536.72,426.453 531.866,425.479 527.242,424.092 522.927,422.332 519.741,420.669 517.285,419.098 513.477,416.302 510.684,413.908 508.06,411.298 507.552,411.09 506.949,410.907 506.082,410.73 504.422,410.478 503.776,410.336 503.237,410.166 502.794,409.978 502.34,409.735 501.858,409.421" fill="none" stroke="black" stroke-width="0.1mm" />
<polyline z="0" points="624.5,447.375 670.25,447.375 670.25,464.026 675.5,464.026 675.5,480.877 670.25,480.877 670.25,497.328 675.5,497.328 675.5,514.179 670.25,514.179 670.25,530.631 675.5,530.631 675.5,547.482 670.25,547.482 670.25,563.933 675.5,563.933 675.5,580.784 670.25,580.784 670.25,597.435 654.867,597.435 654.867,592.185 639.883,592.185 639.883,597.435 624.5,597.435 624.5,447.375" fill="none" stroke="black" stroke-width="0.1mm" />
<polyline z="0" points="680.75,546.435 825.56,546.435 825.56,592.185 808.909,592.185 808.909,597.435 792.058,597.435 792.058,592.185 775.607,592.185 775.607,597.435 758.756,597.435 758.756,592.185 742.304,592.185 742.304,597.435 725.453,597.435 725.453,592.185 709.002,592.185 709.002,597.435 692.151,597.435 692.151,592.185 680.75,592.185 680.75,577.002 675.5,577.002 675.5,561.618 680.75,561.618 680.75,546.435" fill="none" stroke="black" stroke-width="0.1mm" />
</svg>