<?xml version="1.0" encoding="UTF-8" standalone="no"?>
<svg
   width="1300mm"
   height="900mm"
   viewBox="0 0 1300 900"
   version="1.1"
   id="svg8"
   sodipodi:docname="RoundBrandLocate.svg"
   inkscape:version="1.3.2 (091e20ef0f, 2023-11-25)"
   xmlns:inkscape="http://www.inkscape.org/namespaces/inkscape"
   xmlns:sodipodi="http://sodipodi.sourceforge.net/DTD/sodipodi-0.dtd"
   xmlns="http://www.w3.org/2000/svg"
   xmlns:svg="http://www.w3.org/2000/svg">
  <defs
     id="defs8" />
  <sodipodi:namedview
     id="namedview8"
     pagecolor="#505050"
     bordercolor="#eeeeee"
     borderopacity="1"
     inkscape:showpageshadow="0"
     inkscape:pageopacity="0"
     inkscape:pagecheckerboard="0"
     inkscape:deskcolor="#505050"
     inkscape:document-units="mm"
     inkscape:zoom="0.23112646"
     inkscape:cx="1752.2874"
     inkscape:cy="1525.1391"
     inkscape:window-width="1920"
     inkscape:window-height="1011"
     inkscape:window-x="0"
     inkscape:window-y="32"
     inkscape:window-maximized="1"
     inkscape:current-layer="svg8" />
  <polyline
     z="0"
     points="502.735,625.39 502.735,610.207 497.485,610.207 497.485,594.823 502.735,594.823 502.735,579.64 652.625,579.64 652.625,625.39 635.409,625.39 635.409,630.64 617.994,630.64 617.994,625.39 600.978,625.39 600.978,630.64 583.563,630.64 583.563,625.39 566.547,625.39 566.547,630.64 549.132,630.64 549.132,625.39 532.116,625.39 532.116,630.64 514.701,630.64 514.701,625.39 502.735,625.39"
     fill="none"
     stroke="#000000"
     stroke-width="0.1mm"
     id="polyline1"
     transform="rotate(90,703.625,475.5)"
     style="fill:none;stroke:#000000;stroke-opacity:1;vector-effect:non-scaling-stroke;-inkscape-stroke:hairline;stroke-width:0.26458333;stroke-dasharray:none" />
  <path
     id="polyline2"
     d="M 497.48488 424.50019 L 497.48488 441.91618 L 502.73521 441.91618 L 502.73521 458.93116 L 497.48488 458.93116 L 497.48488 476.34715 L 502.73521 476.34715 L 502.73521 493.36213 L 497.48488 493.36213 L 497.48488 510.77812 L 502.73521 510.77812 L 502.73521 527.79311 L 497.48488 527.79311 L 497.48488 545.2091 L 502.73521 545.2091 L 502.73521 562.22408 L 497.48488 562.22408 L 497.48488 579.64007 L 514.90087 579.64007 L 514.90087 574.38975 L 531.91585 574.38975 L 531.91585 579.64007 L 549.33184 579.64007 L 549.33184 574.38975 L 566.34683 574.38975 L 566.34683 579.64007 L 583.76282 579.64007 L 583.76282 574.38975 L 600.7778 574.38975 L 600.7778 579.64007 L 618.19379 579.64007 L 618.19379 574.38975 L 635.20877 574.38975 L 635.20877 579.64007 L 652.62476 579.64007 L 652.62476 514.76806 L 652.1912 505.92209 L 650.88999 497.1588 L 648.73818 488.56604 L 645.75387 480.22495 L 641.96598 472.21717 L 637.41226 464.61815 L 632.13403 457.50282 L 626.18607 450.93888 L 619.62213 444.99093 L 612.5068 439.71321 L 604.90778 435.15897 L 596.9 431.37109 L 588.55891 428.38677 L 579.96615 426.23497 L 571.20286 424.93375 L 562.35689 424.50019 L 497.48488 424.50019 z M 562.44215 444.62402 L 562.7858 444.64986 L 563.1279 444.71084 L 563.46121 444.80386 L 563.78316 444.92995 L 564.09115 445.08911 L 564.38209 445.27618 L 564.65184 445.49219 L 564.89989 445.73403 L 565.12209 445.99913 L 565.31795 446.28387 L 565.4828 446.58824 L 565.61715 446.90709 L 565.71896 447.23885 L 565.7882 447.57785 L 565.82179 447.92201 L 565.82179 448.26825 L 565.7882 448.61189 L 565.71896 448.95089 L 565.61715 449.28317 L 565.4828 449.60201 L 565.31795 449.90587 L 565.12209 450.19113 L 564.89989 450.45623 L 564.65184 450.69807 L 564.38209 450.91408 L 564.09115 451.10115 L 563.78316 451.25979 L 563.46121 451.38588 L 563.1279 451.4789 L 562.7858 451.53988 L 562.44215 451.56624 L 562.09489 451.55693 L 561.75176 451.51404 L 561.41483 451.43704 L 561.08617 451.32697 L 560.77094 451.18486 L 560.47122 451.01123 L 560.1901 450.81021 L 559.9312 450.58025 L 559.69607 450.32703 L 559.48678 450.05108 L 559.30591 449.75498 L 559.15605 449.44285 L 559.03823 449.11781 L 558.95193 448.78294 L 558.90077 448.44084 L 558.8832 448.09513 L 558.90077 447.7489 L 558.95193 447.4068 L 559.03823 447.07194 L 559.15605 446.74689 L 559.30591 446.43477 L 559.48678 446.13918 L 559.69607 445.86322 L 559.9312 445.61001 L 560.1901 445.38005 L 560.47122 445.17903 L 560.77094 445.00488 L 561.08617 444.86277 L 561.41483 444.75321 L 561.75176 444.67622 L 562.09489 444.63281 L 562.44215 444.62402 z M 563.33512 475.51206 L 567.23824 475.80507 L 571.09382 476.48513 L 574.86207 477.54501 L 578.50577 478.9749 L 581.9898 480.76187 L 585.279 482.88525 L 588.3398 485.32593 L 591.14221 488.06013 L 593.65782 491.05892 L 595.86389 494.29283 L 597.73612 497.73086 L 599.25696 501.33891 L 600.4109 505.07976 L 601.18604 508.91726 L 601.5762 512.81418 L 601.62478 514.77013 L 601.5762 516.72608 L 601.18604 520.623 L 600.4109 524.45998 L 599.25696 528.20083 L 597.73612 531.80888 L 595.86389 535.24692 L 593.65782 538.48083 L 591.14221 541.48013 L 588.3398 544.21381 L 585.279 546.655 L 581.9898 548.77787 L 578.50577 550.56484 L 574.86207 551.99525 L 571.09382 553.05513 L 567.23824 553.73519 L 563.33512 554.0282 L 559.42012 553.93001 L 555.53508 553.44322 L 551.71878 552.57299 L 548.00893 551.325 L 544.44015 549.71477 L 541.04915 547.75778 L 537.87001 545.47316 L 534.93479 542.88211 L 532.27294 540.01303 L 529.90926 536.89178 L 527.867 533.5509 L 526.16788 530.02398 L 524.82998 526.34617 L 523.86415 522.55105 L 523.28124 518.67997 L 523.08487 514.77013 L 523.28124 510.85977 L 523.86415 506.98921 L 524.82998 503.19409 L 526.16788 499.51576 L 527.867 495.98885 L 529.90926 492.64797 L 532.27294 489.52723 L 534.93479 486.65815 L 537.87001 484.06709 L 541.04915 481.78196 L 544.44015 479.82498 L 548.00893 478.21525 L 551.71878 476.96675 L 555.53508 476.09704 L 559.42012 475.61025 L 563.33512 475.51206 z "
     style="fill:none;stroke:#000000;stroke-opacity:1;vector-effect:non-scaling-stroke;-inkscape-stroke:hairline;stroke-width:0.26458333;stroke-dasharray:none" />
  <polyline
     z="0"
     points="543.235,424.5 527.852,424.5 527.852,419.25 512.868,419.25 512.868,424.5 497.485,424.5 497.485,269.36 543.235,269.36 543.235,286.576 548.485,286.576 548.485,303.991 543.235,303.991 543.235,321.007 548.485,321.007 548.485,338.422 543.235,338.422 543.235,355.438 548.485,355.438 548.485,372.853 543.235,372.853 543.235,389.869 548.485,389.869 548.485,407.284 543.235,407.284 543.235,424.5"
     fill="none"
     stroke="black"
     stroke-width="0.1mm"
     id="polyline5"
     style="fill:none;stroke:#000000;stroke-opacity:1;vector-effect:non-scaling-stroke;-inkscape-stroke:hairline;stroke-width:0.26458333;stroke-dasharray:none" />
  <path
     id="polyline6"
     d="M 652.62476 429.75 L 652.62476 579.64007 L 802.51484 579.64007 L 802.51484 520.01787 L 802.08076 511.1719 L 800.78006 502.40913 L 798.62826 493.81585 L 795.64394 485.47476 L 791.85606 477.46698 L 787.30181 469.86796 L 782.0241 462.75315 L 776.07614 456.18921 L 769.5122 450.24125 L 762.39687 444.96302 L 754.79786 440.40878 L 746.79008 436.62089 L 738.44898 433.6371 L 729.85623 431.48477 L 721.09294 430.18408 L 712.24696 429.75 L 652.62476 429.75 z M 712.15808 449.87383 L 712.50483 449.88313 L 712.84796 449.92603 L 713.18489 450.00302 L 713.51407 450.11309 L 713.82878 450.2552 L 714.12902 450.42884 L 714.41014 450.62986 L 714.66904 450.85982 L 714.90417 451.11303 L 715.11294 451.38899 L 715.29381 451.68509 L 715.44419 451.99722 L 715.56201 452.32174 L 715.64779 452.65712 L 715.69895 452.99922 L 715.71704 453.34494 L 715.69895 453.69117 L 715.64779 454.03275 L 715.56201 454.36813 L 715.44419 454.69318 L 715.29381 455.00479 L 715.11294 455.30089 L 714.90417 455.57684 L 714.66904 455.83006 L 714.41014 456.06002 L 714.12902 456.26104 L 713.82878 456.43519 L 713.51407 456.57678 L 713.18489 456.68685 L 712.84796 456.76385 L 712.50483 456.80674 L 712.15808 456.81604 L 711.81392 456.79021 L 711.47182 456.72923 L 711.13902 456.63621 L 710.81708 456.51012 L 710.50909 456.35096 L 710.21815 456.16389 L 709.94788 455.94788 L 709.69983 455.70603 L 709.47814 455.44093 L 709.28177 455.1562 L 709.11692 454.85182 L 708.98308 454.53298 L 708.88076 454.20122 L 708.81203 453.86222 L 708.77793 453.51805 L 708.77793 453.17182 L 708.81203 452.82817 L 708.88076 452.48918 L 708.98308 452.1569 L 709.11692 451.83805 L 709.28177 451.5342 L 709.47814 451.24894 L 709.69983 450.98384 L 709.94788 450.742 L 710.21815 450.52599 L 710.50909 450.33892 L 710.81708 450.17976 L 711.13902 450.05418 L 711.47182 449.96117 L 711.81392 449.90019 L 712.15808 449.87383 z M 711.26615 480.76187 L 715.18012 480.86005 L 719.06515 481.34685 L 722.88094 482.21708 L 726.59079 483.46506 L 730.16008 485.07478 L 733.55109 487.03177 L 736.73022 489.3169 L 739.66493 491.90796 L 742.32678 494.77703 L 744.69098 497.89777 L 746.73323 501.23917 L 748.43184 504.76609 L 749.77026 508.4439 L 750.73609 512.23902 L 751.319 516.1101 L 751.51485 520.01994 L 751.319 523.92978 L 750.73609 527.80086 L 749.77026 531.59598 L 748.43184 535.27379 L 746.73323 538.80122 L 744.69098 542.1421 L 742.32678 545.26284 L 739.66493 548.13192 L 736.73022 550.72297 L 733.55109 553.00811 L 730.16008 554.96509 L 726.59079 556.57481 L 722.88094 557.8228 L 719.06515 558.69303 L 715.18012 559.17982 L 711.26615 559.27801 L 707.36199 558.985 L 703.5059 558.30494 L 699.73817 557.24506 L 696.09395 555.81517 L 692.60992 554.0282 L 689.32123 551.90481 L 686.25992 549.46414 L 683.45802 546.72994 L 680.9419 543.73115 L 678.73583 540.49724 L 676.86411 537.05921 L 675.34276 533.45116 L 674.18882 529.70979 L 673.41419 525.87281 L 673.02404 521.97692 L 673.02404 518.06295 L 673.41419 514.16707 L 674.18882 510.33009 L 675.34276 506.58923 L 676.86411 502.98118 L 678.73583 499.54315 L 680.9419 496.30924 L 683.45802 493.30994 L 686.25992 490.57626 L 689.32123 488.13506 L 692.60992 486.01219 L 696.09395 484.22522 L 699.73817 482.79482 L 703.5059 481.73494 L 707.36199 481.05487 L 711.26615 480.76187 z "
     style="fill:none;stroke:#000000;stroke-opacity:1;vector-effect:non-scaling-stroke;-inkscape-stroke:hairline;stroke-width:0.26458333;stroke-dasharray:none" />
</svg>
