Cleat Wall Organization Equipment
Copyright (C) 2025  Corporate Hacks

This program is free software: you can redistribute it and/or modify
it under the terms of the GNU General Public License as published by
the Free Software Foundation, either version 3 of the License, or
(at your option) any later version.

This program is distributed in the hope that it will be useful,
but WITHOUT ANY WARRANTY; without even the implied warranty of
MERCHANTABILITY or FITNESS FOR A PARTICULAR PURPOSE.  See the
GNU General Public License for more details.

You should have received a copy of the GNU General Public License
along with this program.  If not, see <http://www.gnu.org/licenses/>.


<svg xmlns="http://www.w3.org/2000/svg" width="1300mm" height="900mm" viewBox="0 0 1300 900">
    <path fill="none" stroke="#000" stroke-width=".1mm" d="M474.44 597.435v-16.851h5.25v-16.451h-5.25v-16.851h5.25v-16.451h-5.25v-16.852h5.25v-16.451h-5.25v-16.851h5.25v-16.451h-5.25v-16.851h75.032l7.352.361 7.284 1.081 7.142 1.788 6.932 2.482 6.657 3.148 6.316 3.785 5.914 4.386 5.456 4.944 4.944 5.456 4.386 5.914 3.785 6.316 3.149 6.657 2.481 6.932 1.788 7.142 1.081 7.284.361 7.352v75.032h-16.851v-5.25h-16.451v5.25h-16.851v-5.25h-16.451v5.25h-16.852v-5.25h-16.451v5.25h-16.851v-5.25h-16.451v5.25H474.44"/>
    <path fill="none" stroke="#000" stroke-width=".1mm" d="m507.108 554.231-.508-.399-.532-.495-.541-.6-.529-.702-.495-.798-.362-.73-.276-.706-.217-.763-.134-.738-.056-.715.014-.7.105-.916.361-1.997.126-1.002.022-.594-.017-.422-1.34-3.469-1.072-3.541-.654-2.478-.616-3.648-.324-4.161-.006-3.533.211-3.456.452-3.433.691-3.392 1.351-4.638 1.759-4.421 2.217-4.332 2.631-4.113 2.935-3.72 2.775-2.905 2.851-2.493 2.977-2.158 4.007-2.557 4.231-2.159 4.419-1.743 4.567-1.311 4.67-.866 4.733-.414 4.758.042 8.252-.364 1.907-.178 1.523-.244 1.172-.288.963-.329.956-.428 1.463-.816 1.586-.988 1.288-.762 1.405-.707 1.233-.486 1.432-.416 1.567-.306 1.723-.175 1.408-.013 1.218.095 1.001.169.818.213.67.24.551.254.459.263.386.271.363.308.326.335.321.39.323.47.418.734.547 1.212 1.012 2.557.444.932.348.597.346.492.405.475.597.585 1.027.837 2.11 1.665.434.435.319.384.248.355.204.358.182.399.162.458.141.537.113.643.079.911-.006 1.274-.181 1.865-.731 3.792-.782 3.756-.236 1.925-.064 1.792.123 2.136 1.731 3.966 1.371 4.081 1.011 4.185.642 4.257.271 4.296-.105 4.303-.479 4.282-.45 3.24-.744 3.17-1.111 3.367-1.529 3.552-2.002 3.708-2.662 4.008-3.008 3.732-.683.759-2.378 2.452-2.542 2.281-2.692 2.101-4.045 2.661-4.022 2.121-4.262 1.76-4.368 1.338-4.51.934-4.614.513-4.671.079-1.753-.085-4.291-.467-4.854-.974-4.624-1.387-4.315-1.76-3.186-1.663-2.456-1.571-3.808-2.796-2.793-2.394-2.624-2.61-.508-.208-.603-.183-.867-.177-1.66-.252-.646-.142-.539-.17-.443-.188-.454-.243-.482-.314M474.44 447.375v-144.81h69.782l7.352.361 7.284 1.081 7.142 1.788 6.932 2.481 6.657 3.149 6.316 3.785 5.914 4.386 5.456 4.944 4.944 5.456 4.386 5.914 3.785 6.316 3.149 6.657 2.481 6.932 1.788 7.142 1.081 7.284.361 7.352v69.782H474.44"/>
    <path fill="none" stroke="#000" stroke-width=".1mm" d="m501.858 409.421-.508-.399-.532-.495-.541-.6-.529-.702-.495-.798-.362-.73-.276-.706-.217-.763-.134-.738-.056-.715.014-.7.105-.916.361-1.997.126-1.002.022-.594-.017-.422-1.34-3.469-1.072-3.541-.654-2.478-.616-3.648-.324-4.161-.006-3.533.211-3.456.452-3.433.691-3.392 1.351-4.638 1.759-4.421 2.217-4.332 2.631-4.113 2.935-3.72 2.775-2.905 2.851-2.493 2.977-2.158 4.007-2.557 4.231-2.159 4.419-1.743 4.567-1.311 4.67-.866 4.733-.414 4.758.042 8.252-.364 1.907-.178 1.523-.244 1.172-.288.963-.329.956-.428 1.463-.816 1.586-.988 1.288-.762 1.405-.707 1.233-.486 1.432-.416 1.567-.306 1.723-.175 1.408-.013 1.218.095 1.001.169.818.213.67.24.551.254.459.263.386.271.363.308.326.335.321.39.323.47.418.734.547 1.212 1.012 2.557.444.932.348.597.346.492.405.475.597.585 1.027.837 2.11 1.665.434.435.319.384.248.355.204.358.182.399.162.458.141.537.113.643.079.911-.006 1.274-.181 1.865-.731 3.792-.782 3.756-.236 1.925-.064 1.792.123 2.136 1.731 3.966 1.371 4.081 1.011 4.185.642 4.257.271 4.296-.105 4.303-.479 4.282-.45 3.24-.744 3.17-1.111 3.367-1.529 3.552-2.002 3.708-2.662 4.008-3.008 3.732-.683.759-2.378 2.452-2.542 2.281-2.692 2.101-4.045 2.661-4.022 2.121-4.262 1.76-4.368 1.338-4.51.934-4.614.513-4.671.079-1.753-.085-4.291-.467-4.854-.974-4.624-1.387-4.315-1.76-3.186-1.663-2.456-1.571-3.808-2.796-2.793-2.394-2.624-2.61-.508-.208-.603-.183-.867-.177-1.66-.252-.646-.142-.539-.17-.443-.188-.454-.243-.482-.314M624.5 447.375h45.75v16.651h5.25v16.851h-5.25v16.451h5.25v16.851h-5.25v16.452h5.25v16.851h-5.25v16.451h5.25v16.851h-5.25v16.651h-15.383v-5.25h-14.984v5.25H624.5v-150.06M680.75 546.435h144.81v45.75h-16.651v5.25h-16.851v-5.25h-16.451v5.25h-16.851v-5.25h-16.452v5.25h-16.851v-5.25h-16.451v5.25h-16.851v-5.25H680.75v-15.183h-5.25v-15.384h5.25v-15.183"/>
</svg>
