<?xml version="1.0" encoding="UTF-8" standalone="no"?>
<svg
   width="1300mm"
   height="900mm"
   viewBox="0 0 1300 900"
   version="1.1"
   id="svg2"
   sodipodi:docname="HexLayoutTools.svg"
   inkscape:version="1.3.2 (091e20ef0f, 2023-11-25)"
   xmlns:inkscape="http://www.inkscape.org/namespaces/inkscape"
   xmlns:sodipodi="http://sodipodi.sourceforge.net/DTD/sodipodi-0.dtd"
   xmlns="http://www.w3.org/2000/svg"
   xmlns:svg="http://www.w3.org/2000/svg">
  <defs
     id="defs2" />
  <sodipodi:namedview
     id="namedview2"
     pagecolor="#505050"
     bordercolor="#eeeeee"
     borderopacity="1"
     inkscape:showpageshadow="0"
     inkscape:pageopacity="0"
     inkscape:pagecheckerboard="0"
     inkscape:deskcolor="#505050"
     inkscape:document-units="mm"
     inkscape:zoom="0.12679647"
     inkscape:cx="2350.2231"
     inkscape:cy="2259.5265"
     inkscape:window-width="1920"
     inkscape:window-height="1011"
     inkscape:window-x="0"
     inkscape:window-y="32"
     inkscape:window-maximized="1"
     inkscape:current-layer="svg2" />
  <polyline
     z="0"
     points="192.7,593.096 192.7,554.796 522.9,554.796 522.9,443.298 650,516.68 777.1,443.298 777.1,554.796 1107.3,554.796 1107.3,593.096 192.7,593.096"
     fill="none"
     stroke="#000000"
     stroke-width="0.1mm"
     id="polyline1"
     style="vector-effect:non-scaling-stroke;stroke-width:0.264583;stroke-dasharray:none;-inkscape-stroke:hairline"
     transform="translate(0,-35.215785)" />
  <g
     id="g3"
     transform="matrix(-1,0,0,1,714.54166,0)">
    <polyline
       z="0"
       points="218.2,443.298 212.792,438.144 207.945,432.552 203.653,426.525 199.952,420.116 196.879,413.385 194.46,406.391 192.7,399.13 243.515,369.793 243.515,311.117 250.682,309.01 257.949,307.609 265.315,306.904 272.715,306.904 280.081,307.609 287.347,309.01 294.515,311.117 294.515,369.793 345.33,399.13 343.57,406.391 341.151,413.385 338.078,420.116 334.377,426.525 330.085,432.552 325.237,438.144 319.83,443.298 269.015,413.96 218.2,443.298"
       fill="none"
       stroke="#000000"
       stroke-width="0.1mm"
       id="polyline2"
       style="vector-effect:non-scaling-stroke;stroke-width:0.264583;stroke-dasharray:none;-inkscape-stroke:hairline"
       transform="translate(0,74.899)" />
    <polyline
       z="0"
       points="218.2,443.298 212.792,438.144 207.945,432.552 203.653,426.525 199.952,420.116 196.879,413.385 194.46,406.391 192.7,399.13 243.515,369.793 243.515,311.117 250.682,309.01 257.949,307.609 265.315,306.904 272.715,306.904 280.081,307.609 287.347,309.01 294.515,311.117 294.515,369.793 345.33,399.13 343.57,406.391 341.151,413.385 338.078,420.116 334.377,426.525 330.085,432.552 325.237,438.144 319.83,443.298 269.015,413.96 218.2,443.298"
       fill="none"
       stroke="#000000"
       stroke-width="0.1mm"
       id="polyline2-3"
       style="vector-effect:non-scaling-stroke;stroke-width:0.264583;stroke-dasharray:none;-inkscape-stroke:hairline"
       transform="matrix(1,0,0,-1,101.815,825.101)" />
  </g>
  <g
     id="g2"
     transform="translate(-21.147916)">
    <polyline
       z="0"
       points="218.2,443.298 212.792,438.144 207.945,432.552 203.653,426.525 199.952,420.116 196.879,413.385 194.46,406.391 192.7,399.13 243.515,369.793 243.515,311.117 250.682,309.01 257.949,307.609 265.315,306.904 272.715,306.904 280.081,307.609 287.347,309.01 294.515,311.117 294.515,369.793 345.33,399.13 343.57,406.391 341.151,413.385 338.078,420.116 334.377,426.525 330.085,432.552 325.237,438.144 319.83,443.298 269.015,413.96 218.2,443.298"
       fill="none"
       stroke="#000000"
       stroke-width="0.1mm"
       id="polyline2-6"
       style="vector-effect:non-scaling-stroke;stroke-width:0.264583;stroke-dasharray:none;-inkscape-stroke:hairline"
       transform="translate(606.60625,74.899)" />
    <polyline
       z="0"
       points="218.2,443.298 212.792,438.144 207.945,432.552 203.653,426.525 199.952,420.116 196.879,413.385 194.46,406.391 192.7,399.13 243.515,369.793 243.515,311.117 250.682,309.01 257.949,307.609 265.315,306.904 272.715,306.904 280.081,307.609 287.347,309.01 294.515,311.117 294.515,369.793 345.33,399.13 343.57,406.391 341.151,413.385 338.078,420.116 334.377,426.525 330.085,432.552 325.237,438.144 319.83,443.298 269.015,413.96 218.2,443.298"
       fill="none"
       stroke="#000000"
       stroke-width="0.1mm"
       id="polyline2-3-7"
       style="vector-effect:non-scaling-stroke;stroke-width:0.264583;stroke-dasharray:none;-inkscape-stroke:hairline"
       transform="matrix(1,0,0,-1,708.42125,825.101)" />
  </g>
</svg>
