<!--
Cleat Wall Organization Equipment
Copyright (C) 2025  Corporate Hacks

This program is free software: you can redistribute it and/or modify
it under the terms of the GNU General Public License as published by
the Free Software Foundation, either version 3 of the License, or
(at your option) any later version.

This program is distributed in the hope that it will be useful,
but WITHOUT ANY WARRANTY; without even the implied warranty of
MERCHANTABILITY or FITNESS FOR A PARTICULAR PURPOSE.  See the
GNU General Public License for more details.

You should have received a copy of the GNU General Public License
along with this program.  If not, see <http://www.gnu.org/licenses/>.
-->

<svg xmlns="http://www.w3.org/2000/svg" width="1300mm" height="900mm" viewBox="0 0 1300 900">
    <path fill="none" stroke="#000" stroke-width=".1mm" d="M192.7 593.096v-38.3h330.2V443.298L650 516.68l127.1-73.382v111.498h330.2v38.3H192.7" style="vector-effect:non-scaling-stroke;stroke-width:.264583;stroke-dasharray:none;-inkscape-stroke:hairline" transform="translate(0 -35.216)"/>
    <g fill="none" stroke="#000" stroke-width=".1mm">
        <path d="m218.2 443.298-5.408-5.154-4.847-5.592-4.292-6.027-3.701-6.409-3.073-6.731-2.419-6.994-1.76-7.261 50.815-29.337v-58.676l7.167-2.107 7.267-1.401 7.366-.705h7.4l7.366.705 7.266 1.401 7.168 2.107v58.676l50.815 29.337-1.76 7.261-2.419 6.994-3.073 6.731-3.701 6.409-4.292 6.027-4.848 5.592-5.407 5.154-50.815-29.338-50.815 29.338" style="vector-effect:non-scaling-stroke;stroke-width:.264583;stroke-dasharray:none;-inkscape-stroke:hairline" transform="matrix(-1 0 0 1 714.542 74.899)"/>
        <path d="m218.2 443.298-5.408-5.154-4.847-5.592-4.292-6.027-3.701-6.409-3.073-6.731-2.419-6.994-1.76-7.261 50.815-29.337v-58.676l7.167-2.107 7.267-1.401 7.366-.705h7.4l7.366.705 7.266 1.401 7.168 2.107v58.676l50.815 29.337-1.76 7.261-2.419 6.994-3.073 6.731-3.701 6.409-4.292 6.027-4.848 5.592-5.407 5.154-50.815-29.338-50.815 29.338" style="vector-effect:non-scaling-stroke;stroke-width:.264583;stroke-dasharray:none;-inkscape-stroke:hairline" transform="rotate(180 306.363 412.55)"/>
    </g>
    <g fill="none" stroke="#000" stroke-width=".1mm">
        <path d="m218.2 443.298-5.408-5.154-4.847-5.592-4.292-6.027-3.701-6.409-3.073-6.731-2.419-6.994-1.76-7.261 50.815-29.337v-58.676l7.167-2.107 7.267-1.401 7.366-.705h7.4l7.366.705 7.266 1.401 7.168 2.107v58.676l50.815 29.337-1.76 7.261-2.419 6.994-3.073 6.731-3.701 6.409-4.292 6.027-4.848 5.592-5.407 5.154-50.815-29.338-50.815 29.338" style="vector-effect:non-scaling-stroke;stroke-width:.264583;stroke-dasharray:none;-inkscape-stroke:hairline" transform="translate(585.458 74.899)"/>
        <path d="m218.2 443.298-5.408-5.154-4.847-5.592-4.292-6.027-3.701-6.409-3.073-6.731-2.419-6.994-1.76-7.261 50.815-29.337v-58.676l7.167-2.107 7.267-1.401 7.366-.705h7.4l7.366.705 7.266 1.401 7.168 2.107v58.676l50.815 29.337-1.76 7.261-2.419 6.994-3.073 6.731-3.701 6.409-4.292 6.027-4.848 5.592-5.407 5.154-50.815-29.338-50.815 29.338" style="vector-effect:non-scaling-stroke;stroke-width:.264583;stroke-dasharray:none;-inkscape-stroke:hairline" transform="matrix(1 0 0 -1 687.273 825.101)"/>
    </g>
</svg>
