<?xml version="1.0" encoding="UTF-8" standalone="no"?>
<svg
   width="1300mm"
   height="900mm"
   viewBox="0 0 1300 900"
   version="1.1"
   id="svg6"
   sodipodi:docname="Shelf3x3.svg"
   inkscape:version="1.3.2 (091e20ef0f, 2023-11-25)"
   xmlns:inkscape="http://www.inkscape.org/namespaces/inkscape"
   xmlns:sodipodi="http://sodipodi.sourceforge.net/DTD/sodipodi-0.dtd"
   xmlns="http://www.w3.org/2000/svg"
   xmlns:svg="http://www.w3.org/2000/svg">
  <defs
     id="defs6" />
  <sodipodi:namedview
     id="namedview6"
     pagecolor="#505050"
     bordercolor="#eeeeee"
     borderopacity="1"
     inkscape:showpageshadow="0"
     inkscape:pageopacity="0"
     inkscape:pagecheckerboard="0"
     inkscape:deskcolor="#505050"
     inkscape:document-units="mm"
     inkscape:zoom="0.23112646"
     inkscape:cx="2271.4837"
     inkscape:cy="1992.4157"
     inkscape:window-width="1499"
     inkscape:window-height="749"
     inkscape:window-x="50"
     inkscape:window-y="118"
     inkscape:window-maximized="0"
     inkscape:current-layer="svg6" />
  <polyline
     z="0"
     points="519.427,583.65 519.427,573.067 514.227,573.067 514.227,562.283 519.427,562.283 519.427,551.9 514.227,551.9 514.227,541.117 519.427,541.117 519.427,530.733 514.227,530.733 514.227,519.95 519.427,519.95 519.427,509.567 514.227,509.567 514.227,498.783 519.427,498.783 519.427,488.2 532.562,488.2 532.562,493.4 545.298,493.4 545.298,488.2 558.4,488.2 560.441,493.127 546.177,507.391 546.177,512.45 556.863,512.45 556.863,507.25 567.948,507.25 567.948,512.45 578.634,512.45 578.634,507.25 589.72,507.25 589.72,512.45 600.406,512.45 600.406,507.25 611.491,507.25 611.491,512.45 622.573,512.45 529.561,583.65 519.427,583.65"
     fill="none"
     stroke="#000000"
     stroke-width="0.1mm"
     id="polyline1"
     transform="rotate(-90,510.72824,444.37824)"
     style="vector-effect:non-scaling-stroke;stroke-width:0.264583;stroke-dasharray:none;-inkscape-stroke:hairline" />
  <polyline
     z="0"
     points="607.239,411.8 514.227,340.6 525.309,340.6 525.309,335.4 536.394,335.4 536.394,340.6 547.08,340.6 547.08,335.4 558.166,335.4 558.166,340.6 568.852,340.6 568.852,335.4 579.937,335.4 579.937,340.6 590.623,340.6 590.623,335.541 576.359,321.277 578.4,316.35 591.502,316.35 591.502,321.55 604.238,321.55 604.238,316.35 617.373,316.35 617.373,326.933 622.573,326.933 622.573,337.717 617.373,337.717 617.373,348.1 622.573,348.1 622.573,358.883 617.373,358.883 617.373,369.267 622.573,369.267 622.573,380.05 617.373,380.05 617.373,390.433 622.573,390.433 622.573,401.217 617.373,401.217 617.373,411.8 607.239,411.8"
     fill="none"
     stroke="#000000"
     stroke-width="0.1mm"
     id="polyline3"
     transform="rotate(-90,620.87177,287.22176)"
     style="vector-effect:non-scaling-stroke;stroke-width:0.264583;stroke-dasharray:none;-inkscape-stroke:hairline" />
  <polyline
     z="0"
     points="519.427,583.65 519.427,573.067 514.227,573.067 514.227,562.283 519.427,562.283 519.427,551.9 514.227,551.9 514.227,541.117 519.427,541.117 519.427,530.733 514.227,530.733 514.227,519.95 519.427,519.95 519.427,509.567 514.227,509.567 514.227,498.783 519.427,498.783 519.427,488.2 532.562,488.2 532.562,493.4 545.298,493.4 545.298,488.2 558.4,488.2 560.441,493.127 546.177,507.391 546.177,512.45 556.863,512.45 556.863,507.25 567.948,507.25 567.948,512.45 578.634,512.45 578.634,507.25 589.72,507.25 589.72,512.45 600.406,512.45 600.406,507.25 611.491,507.25 611.491,512.45 622.573,512.45 529.561,583.65 519.427,583.65"
     fill="none"
     stroke="#000000"
     stroke-width="0.1mm"
     id="polyline1-2"
     transform="rotate(90,683.45324,454.74677)"
     style="vector-effect:non-scaling-stroke;stroke-width:0.264583;stroke-dasharray:none;-inkscape-stroke:hairline" />
  <polyline
     z="0"
     points="607.239,411.8 514.227,340.6 525.309,340.6 525.309,335.4 536.394,335.4 536.394,340.6 547.08,340.6 547.08,335.4 558.166,335.4 558.166,340.6 568.852,340.6 568.852,335.4 579.937,335.4 579.937,340.6 590.623,340.6 590.623,335.541 576.359,321.277 578.4,316.35 591.502,316.35 591.502,321.55 604.238,321.55 604.238,316.35 617.373,316.35 617.373,326.933 622.573,326.933 622.573,337.717 617.373,337.717 617.373,348.1 622.573,348.1 622.573,358.883 617.373,358.883 617.373,369.267 622.573,369.267 622.573,380.05 617.373,380.05 617.373,390.433 622.573,390.433 622.573,401.217 617.373,401.217 617.373,411.8 607.239,411.8"
     fill="none"
     stroke="#000000"
     stroke-width="0.1mm"
     id="polyline3-7"
     transform="rotate(90,621.74675,440.05323)"
     style="vector-effect:non-scaling-stroke;stroke-width:0.264583;stroke-dasharray:none;-inkscape-stroke:hairline" />
  <polyline
     z="0"
     points="514.227,488.2 514.227,477.114 519.427,477.114 519.427,466.429 514.227,466.429 514.227,455.343 519.427,455.343 519.427,444.657 514.227,444.657 514.227,433.571 519.427,433.571 519.427,422.886 514.227,422.886 514.227,411.8 601.027,411.8 601.027,422.886 595.827,422.886 595.827,433.571 601.027,433.571 601.027,444.657 595.827,444.657 595.827,455.343 601.027,455.343 601.027,466.429 595.827,466.429 595.827,477.114 601.027,477.114 601.027,488.2 514.227,488.2"
     fill="none"
     stroke="#000000"
     stroke-width="0.1mm"
     id="polyline2"
     transform="rotate(90,570.01276,496.66523)"
     style="vector-effect:non-scaling-stroke;stroke-width:0.264583;stroke-dasharray:none;-inkscape-stroke:hairline" />
  <polyline
     z="0"
     points="622.573,411.8 622.573,401.017 627.773,401.017 627.773,390.633 622.573,390.633 622.573,379.85 627.773,379.85 627.773,369.467 622.573,369.467 622.573,358.683 627.773,358.683 627.773,348.3 622.573,348.3 622.573,337.517 627.773,337.517 627.773,327.133 622.573,327.133 622.573,316.35 632.395,316.35 632.395,321.55 641.817,321.55 641.817,316.35 651.64,316.35 651.64,321.55 661.062,321.55 661.062,316.35 670.884,316.35 670.884,321.55 680.306,321.55 680.306,316.35 690.129,316.35 690.129,321.55 699.551,321.55 699.551,316.35 709.373,316.35 709.373,327.133 704.173,327.133 704.173,337.517 709.373,337.517 709.373,348.3 704.173,348.3 704.173,358.683 709.373,358.683 709.373,369.467 704.173,369.467 704.173,379.85 709.373,379.85 709.373,390.633 704.173,390.633 704.173,401.017 709.373,401.017 709.373,411.8 699.551,411.8 699.551,406.6 690.129,406.6 690.129,411.8 680.306,411.8 680.306,406.6 670.884,406.6 670.884,411.8 661.062,411.8 661.062,406.6 651.64,406.6 651.64,411.8 641.817,411.8 641.817,406.6 632.395,406.6 632.395,411.8 622.573,411.8"
     fill="none"
     stroke="#000000"
     stroke-width="0.1mm"
     id="polyline4"
     transform="rotate(90,631.88576,450.19223)"
     style="vector-effect:non-scaling-stroke;stroke-width:0.264583;stroke-dasharray:none;-inkscape-stroke:hairline" />
  <polyline
     z="0"
     points="627.773,539.444 704.173,539.444 704.173,552.379 709.373,552.379 709.373,565.515 704.173,565.515 704.173,578.45 699.751,578.45 699.751,583.65 689.929,583.65 689.929,578.45 680.506,578.45 680.506,583.65 670.684,583.65 670.684,578.45 661.262,578.45 661.262,583.65 651.44,583.65 651.44,578.45 642.017,578.45 642.017,583.65 632.195,583.65 632.195,578.45 627.773,578.45 627.773,565.515 622.573,565.515 622.573,552.379 627.773,552.379 627.773,539.444"
     fill="none"
     stroke="#000000"
     stroke-width="0.1mm"
     id="polyline5"
     transform="rotate(90,649.80776,468.11423)"
     style="vector-effect:non-scaling-stroke;stroke-width:0.264583;stroke-dasharray:none;-inkscape-stroke:hairline" />
  <polyline
     z="0"
     points="709.373,568.25 785.773,568.25 785.773,578.45 781.351,578.45 781.351,583.65 771.529,583.65 771.529,578.45 762.106,578.45 762.106,583.65 752.284,583.65 752.284,578.45 742.862,578.45 742.862,583.65 733.04,583.65 733.04,578.45 723.617,578.45 723.617,583.65 713.795,583.65 713.795,578.45 709.373,578.45 709.373,568.25"
     fill="none"
     stroke="#000000"
     stroke-width="0.1mm"
     id="polyline6"
     transform="rotate(-90,659.24023,572.61224)"
     style="vector-effect:non-scaling-stroke;stroke-width:0.264583;stroke-dasharray:none;-inkscape-stroke:hairline" />
  <polyline
     z="0"
     points="514.227,488.2 514.227,477.114 519.427,477.114 519.427,466.429 514.227,466.429 514.227,455.343 519.427,455.343 519.427,444.657 514.227,444.657 514.227,433.571 519.427,433.571 519.427,422.886 514.227,422.886 514.227,411.8 601.027,411.8 601.027,422.886 595.827,422.886 595.827,433.571 601.027,433.571 601.027,444.657 595.827,444.657 595.827,455.343 601.027,455.343 601.027,466.429 595.827,466.429 595.827,477.114 601.027,477.114 601.027,488.2 514.227,488.2"
     fill="none"
     stroke="#000000"
     stroke-width="0.1mm"
     id="polyline2-3"
     transform="rotate(90,526.61276,540.06523)"
     style="vector-effect:non-scaling-stroke;stroke-width:0.264583;stroke-dasharray:none;-inkscape-stroke:hairline" />
  <polyline
     z="0"
     points="622.573,411.8 622.573,401.017 627.773,401.017 627.773,390.633 622.573,390.633 622.573,379.85 627.773,379.85 627.773,369.467 622.573,369.467 622.573,358.683 627.773,358.683 627.773,348.3 622.573,348.3 622.573,337.517 627.773,337.517 627.773,327.133 622.573,327.133 622.573,316.35 632.395,316.35 632.395,321.55 641.817,321.55 641.817,316.35 651.64,316.35 651.64,321.55 661.062,321.55 661.062,316.35 670.884,316.35 670.884,321.55 680.306,321.55 680.306,316.35 690.129,316.35 690.129,321.55 699.551,321.55 699.551,316.35 709.373,316.35 709.373,327.133 704.173,327.133 704.173,337.517 709.373,337.517 709.373,348.3 704.173,348.3 704.173,358.683 709.373,358.683 709.373,369.467 704.173,369.467 704.173,379.85 709.373,379.85 709.373,390.633 704.173,390.633 704.173,401.017 709.373,401.017 709.373,411.8 699.551,411.8 699.551,406.6 690.129,406.6 690.129,411.8 680.306,411.8 680.306,406.6 670.884,406.6 670.884,411.8 661.062,411.8 661.062,406.6 651.64,406.6 651.64,411.8 641.817,411.8 641.817,406.6 632.395,406.6 632.395,411.8 622.573,411.8"
     fill="none"
     stroke="#000000"
     stroke-width="0.1mm"
     id="polyline4-5"
     transform="rotate(90,588.48576,493.59223)"
     style="vector-effect:non-scaling-stroke;stroke-width:0.264583;stroke-dasharray:none;-inkscape-stroke:hairline" />
  <polyline
     z="0"
     points="627.773,539.444 704.173,539.444 704.173,552.379 709.373,552.379 709.373,565.515 704.173,565.515 704.173,578.45 699.751,578.45 699.751,583.65 689.929,583.65 689.929,578.45 680.506,578.45 680.506,583.65 670.684,583.65 670.684,578.45 661.262,578.45 661.262,583.65 651.44,583.65 651.44,578.45 642.017,578.45 642.017,583.65 632.195,583.65 632.195,578.45 627.773,578.45 627.773,565.515 622.573,565.515 622.573,552.379 627.773,552.379 627.773,539.444"
     fill="none"
     stroke="#000000"
     stroke-width="0.1mm"
     id="polyline5-9"
     transform="rotate(90,606.40776,511.51423)"
     style="vector-effect:non-scaling-stroke;stroke-width:0.264583;stroke-dasharray:none;-inkscape-stroke:hairline" />
  <polyline
     z="0"
     points="709.373,568.25 785.773,568.25 785.773,578.45 781.351,578.45 781.351,583.65 771.529,583.65 771.529,578.45 762.106,578.45 762.106,583.65 752.284,583.65 752.284,578.45 742.862,578.45 742.862,583.65 733.04,583.65 733.04,578.45 723.617,578.45 723.617,583.65 713.795,583.65 713.795,578.45 709.373,578.45 709.373,568.25"
     fill="none"
     stroke="#000000"
     stroke-width="0.1mm"
     id="polyline6-2"
     transform="rotate(-90,702.64023,616.01224)"
     style="vector-effect:non-scaling-stroke;stroke-width:0.264583;stroke-dasharray:none;-inkscape-stroke:hairline" />
</svg>
