Cleat Wall Organization Equipment
Copyright (C) 2025  Corporate Hacks

This program is free software: you can redistribute it and/or modify
it under the terms of the GNU General Public License as published by
the Free Software Foundation, either version 3 of the License, or
(at your option) any later version.

This program is distributed in the hope that it will be useful,
but WITHOUT ANY WARRANTY; without even the implied warranty of
MERCHANTABILITY or FITNESS FOR A PARTICULAR PURPOSE.  See the
GNU General Public License for more details.

You should have received a copy of the GNU General Public License
along with this program.  If not, see <http://www.gnu.org/licenses/>.


<svg xmlns="http://www.w3.org/2000/svg" width="1300mm" height="900mm" viewBox="0 0 1300 900">
    <path fill="none" stroke="#000" stroke-width=".1mm" d="M404.055 474.451h11.081v-5.2h11.085v5.2h10.686v-5.2h11.086v5.2h10.686v-5.2h11.085v5.2h10.686v-5.058l-14.264-14.264 2.208-5.33v5.602h12.735v-5.2h13.136v5.2H507.2v5.383h5.2v10.784h-5.2v10.383h5.2v10.783h-5.2v10.384h5.2v10.783h-5.2v10.383h5.2v10.784h-5.2v10.583h-10.134l-93.011-71.2" style="vector-effect:non-scaling-stroke;stroke-width:.264583;stroke-dasharray:none;-inkscape-stroke:hairline" transform="rotate(90 658.855 536.796)"/>
    <path fill="none" stroke="#000" stroke-width=".1mm" d="M512.4 460.784h5.2v-5.383h12.935v-5.2h13.136v5.2h12.735v-5.602l2.208 5.33-14.264 14.264v5.058h10.686v-5.2h11.085v5.2h10.686v-5.2h11.086v5.2h10.686v-5.2h11.085v5.2h11.081l-93.011 71.2H517.6v-10.583h-5.2v-10.784h5.2v-10.383h-5.2v-10.783h5.2v-10.384h-5.2v-10.783h5.2v-10.383h-5.2v-10.784" style="vector-effect:non-scaling-stroke;stroke-width:.264583;stroke-dasharray:none;-inkscape-stroke:hairline" transform="rotate(90 688.87 410.929)"/>
    <path fill="none" stroke="#000" stroke-width=".1mm" d="M404.055 474.451h11.081v-5.2h11.085v5.2h10.686v-5.2h11.086v5.2h10.686v-5.2h11.085v5.2h10.686v-5.058l-14.264-14.264 2.208-5.33v5.602h12.735v-5.2h13.136v5.2H507.2v5.383h5.2v10.784h-5.2v10.383h5.2v10.783h-5.2v10.384h5.2v10.783h-5.2v10.383h5.2v10.784h-5.2v10.583h-10.134l-93.011-71.2" style="vector-effect:non-scaling-stroke;stroke-width:.264583;stroke-dasharray:none;-inkscape-stroke:hairline" transform="rotate(-90 473.53 273.329)"/>
    <path fill="none" stroke="#000" stroke-width=".1mm" d="M512.4 460.784h5.2v-5.383h12.935v-5.2h13.136v5.2h12.735v-5.602l2.208 5.33-14.264 14.264v5.058h10.686v-5.2h11.085v5.2h10.686v-5.2h11.086v5.2h10.686v-5.2h11.085v5.2h11.081l-93.011 71.2H517.6v-10.583h-5.2v-10.784h5.2v-10.383h-5.2v-10.783h5.2v-10.384h-5.2v-10.783h5.2v-10.383h-5.2v-10.784" style="vector-effect:non-scaling-stroke;stroke-width:.264583;stroke-dasharray:none;-inkscape-stroke:hairline" transform="rotate(-90 503.545 399.196)"/>
    <path fill="none" stroke="#000" stroke-width=".1mm" d="M404.055 449.799v-10.783h5.2v-10.384h-5.2v-10.783h5.2v-10.383h-5.2v-10.784h5.2v-10.383h-5.2v-10.783h5.2v-10.384h-5.2v-10.783h15.467v5.2h15.066v-5.2h15.467v5.2h15.067v-5.2h15.466v5.2h15.067v-5.2h15.467v5.2h15.066v-5.2h15.467v10.783h-5.2v10.384h5.2v10.783h-5.2v10.383h5.2v10.784h-5.2v10.383h5.2v10.783h-5.2v10.384h5.2v10.783h-15.467v-5.2h-15.066v5.2h-15.467v-5.2h-15.067v5.2h-15.466v-5.2h-15.067v5.2h-15.467v-5.2h-15.066v5.2h-15.467" style="vector-effect:non-scaling-stroke;stroke-width:.264583;stroke-dasharray:none;-inkscape-stroke:hairline" transform="rotate(90 566.895 553.182)"/>
    <path fill="none" stroke="#000" stroke-width=".1mm" d="M620.745 464.937v-11.086h137.6v11.086h-5.2v10.685h5.2v11.086h-5.2v10.686h5.2v11.086h-5.2v10.685h5.2v11.086h-137.6v-11.086h5.2V508.48h-5.2v-11.086h5.2v-10.686h-5.2v-11.086h5.2v-10.685h-5.2" style="vector-effect:non-scaling-stroke;stroke-width:.264583;stroke-dasharray:none;-inkscape-stroke:hairline" transform="rotate(90 655.163 424.76)"/>
    <path fill="none" stroke="#000" stroke-width=".1mm" d="M620.745 530.251h127.2v10.2h-10.067v5.2h-15.466v-5.2h-15.067v5.2h-15.467v-5.2h-15.066v5.2h-15.467v-5.2h-15.067v5.2h-15.466v-5.2h-10.067v-10.2" style="vector-effect:non-scaling-stroke;stroke-width:.264583;stroke-dasharray:none;-inkscape-stroke:hairline" transform="rotate(90 652.563 427.36)"/>
    <path fill="none" stroke="#000" stroke-width=".1mm" d="M758.345 525.051v-13.135h5.2V499.18h-5.2v-13.135h137.6v13.135h-5.2v12.736h5.2v13.135h-15.267v5.2h-15.466v-5.2h-15.067v5.2h-15.467v-5.2h-15.066v5.2h-15.467v-5.2h-15.067v5.2h-15.466v-5.2h-15.267" style="vector-effect:non-scaling-stroke;stroke-width:.264583;stroke-dasharray:none;-inkscape-stroke:hairline" transform="rotate(-90 713.157 573.13)"/>
    <path fill="none" stroke="#000" stroke-width=".1mm" d="M404.055 449.799v-10.783h5.2v-10.384h-5.2v-10.783h5.2v-10.383h-5.2v-10.784h5.2v-10.383h-5.2v-10.783h5.2v-10.384h-5.2v-10.783h15.467v5.2h15.066v-5.2h15.467v5.2h15.067v-5.2h15.466v5.2h15.067v-5.2h15.467v5.2h15.066v-5.2h15.467v10.783h-5.2v10.384h5.2v10.783h-5.2v10.383h5.2v10.784h-5.2v10.383h5.2v10.783h-5.2v10.384h5.2v10.783h-15.467v-5.2h-15.066v5.2h-15.467v-5.2h-15.067v5.2h-15.466v-5.2h-15.067v5.2h-15.467v-5.2h-15.066v5.2h-15.467" style="vector-effect:non-scaling-stroke;stroke-width:.264583;stroke-dasharray:none;-inkscape-stroke:hairline" transform="rotate(90 498.095 621.982)"/>
    <path fill="none" stroke="#000" stroke-width=".1mm" d="M620.745 464.937v-11.086h137.6v11.086h-5.2v10.685h5.2v11.086h-5.2v10.686h5.2v11.086h-5.2v10.685h5.2v11.086h-137.6v-11.086h5.2V508.48h-5.2v-11.086h5.2v-10.686h-5.2v-11.086h5.2v-10.685h-5.2" style="vector-effect:non-scaling-stroke;stroke-width:.264583;stroke-dasharray:none;-inkscape-stroke:hairline" transform="rotate(90 586.363 493.56)"/>
    <path fill="none" stroke="#000" stroke-width=".1mm" d="M620.745 530.251h127.2v10.2h-10.067v5.2h-15.466v-5.2h-15.067v5.2h-15.467v-5.2h-15.066v5.2h-15.467v-5.2h-15.067v5.2h-15.466v-5.2h-10.067v-10.2" style="vector-effect:non-scaling-stroke;stroke-width:.264583;stroke-dasharray:none;-inkscape-stroke:hairline" transform="rotate(90 583.763 496.16)"/>
    <path fill="none" stroke="#000" stroke-width=".1mm" d="M758.345 525.051v-13.135h5.2V499.18h-5.2v-13.135h137.6v13.135h-5.2v12.736h5.2v13.135h-15.267v5.2h-15.466v-5.2h-15.067v5.2h-15.467v-5.2h-15.066v5.2h-15.467v-5.2h-15.067v5.2h-15.466v-5.2h-15.267" style="vector-effect:non-scaling-stroke;stroke-width:.264583;stroke-dasharray:none;-inkscape-stroke:hairline" transform="rotate(-90 781.957 641.93)"/>
</svg>
