<?xml version="1.0" encoding="UTF-8" standalone="no"?>
<svg
   width="1300mm"
   height="900mm"
   viewBox="0 0 1300 900"
   version="1.1"
   id="svg6"
   sodipodi:docname="Shelf9x6.svg"
   inkscape:version="1.3.2 (091e20ef0f, 2023-11-25)"
   xmlns:inkscape="http://www.inkscape.org/namespaces/inkscape"
   xmlns:sodipodi="http://sodipodi.sourceforge.net/DTD/sodipodi-0.dtd"
   xmlns="http://www.w3.org/2000/svg"
   xmlns:svg="http://www.w3.org/2000/svg">
  <defs
     id="defs6" />
  <sodipodi:namedview
     id="namedview6"
     pagecolor="#505050"
     bordercolor="#eeeeee"
     borderopacity="1"
     inkscape:showpageshadow="0"
     inkscape:pageopacity="0"
     inkscape:pagecheckerboard="0"
     inkscape:deskcolor="#505050"
     inkscape:document-units="mm"
     inkscape:zoom="0.16343109"
     inkscape:cx="1875.4082"
     inkscape:cy="1447.0931"
     inkscape:window-width="1920"
     inkscape:window-height="1011"
     inkscape:window-x="0"
     inkscape:window-y="32"
     inkscape:window-maximized="1"
     inkscape:current-layer="svg6" />
  <polyline
     z="0"
     points="454.76,622.053 361.884,474.653 372.852,474.653 372.852,469.453 383.937,469.453 383.937,474.653 394.623,474.653 394.623,469.453 405.709,469.453 405.709,474.653 416.395,474.653 416.395,469.453 427.48,469.453 427.48,474.653 438.166,474.653 438.166,469.594 423.902,455.33 426.11,450 426.11,455.603 438.845,455.603 438.845,450.403 451.981,450.403 451.981,455.603 464.916,455.603 464.916,469.453 470.116,469.453 470.116,488.703 464.916,488.703 464.916,507.553 470.116,507.553 470.116,526.803 464.916,526.803 464.916,545.653 470.116,545.653 470.116,564.903 464.916,564.903 464.916,583.753 470.116,583.753 470.116,603.003 464.916,603.003 464.916,622.053 454.76,622.053"
     fill="none"
     stroke="#000000"
     stroke-width="0.1mm"
     id="polyline1"
     transform="rotate(90,730.90406,541.14893)"
     style="vector-effect:non-scaling-stroke;stroke-width:0.264583;stroke-dasharray:none;-inkscape-stroke:hairline" />
  <polyline
     z="0"
     points="377.24,450 367.084,450 367.084,430.95 361.884,430.95 361.884,411.7 367.084,411.7 367.084,392.85 361.884,392.85 361.884,373.6 367.084,373.6 367.084,354.75 361.884,354.75 361.884,335.5 367.084,335.5 367.084,316.65 361.884,316.65 361.884,297.4 367.084,297.4 367.084,283.55 380.019,283.55 380.019,278.35 393.155,278.35 393.155,283.55 405.89,283.55 405.89,277.947 408.098,283.277 393.834,297.541 393.834,302.6 404.52,302.6 404.52,297.4 415.605,297.4 415.605,302.6 426.291,302.6 426.291,297.4 437.377,297.4 437.377,302.6 448.063,302.6 448.063,297.4 459.148,297.4 459.148,302.6 470.116,302.6 377.24,450"
     fill="none"
     stroke="#000000"
     stroke-width="0.1mm"
     id="polyline5"
     transform="rotate(90,574.29593,353.65107)"
     style="vector-effect:non-scaling-stroke;stroke-width:0.264583;stroke-dasharray:none;-inkscape-stroke:hairline" />
  <polyline
     z="0"
     points="454.76,622.053 361.884,474.653 372.852,474.653 372.852,469.453 383.937,469.453 383.937,474.653 394.623,474.653 394.623,469.453 405.709,469.453 405.709,474.653 416.395,474.653 416.395,469.453 427.48,469.453 427.48,474.653 438.166,474.653 438.166,469.594 423.902,455.33 426.11,450 426.11,455.603 438.845,455.603 438.845,450.403 451.981,450.403 451.981,455.603 464.916,455.603 464.916,469.453 470.116,469.453 470.116,488.703 464.916,488.703 464.916,507.553 470.116,507.553 470.116,526.803 464.916,526.803 464.916,545.653 470.116,545.653 470.116,564.903 464.916,564.903 464.916,583.753 470.116,583.753 470.116,603.003 464.916,603.003 464.916,622.053 454.76,622.053"
     fill="none"
     stroke="#000000"
     stroke-width="0.1mm"
     id="polyline1-1"
     transform="rotate(-90,405.67757,205.67757)"
     style="vector-effect:non-scaling-stroke;stroke-width:0.264583;stroke-dasharray:none;-inkscape-stroke:hairline" />
  <polyline
     z="0"
     points="377.24,450 367.084,450 367.084,430.95 361.884,430.95 361.884,411.7 367.084,411.7 367.084,392.85 361.884,392.85 361.884,373.6 367.084,373.6 367.084,354.75 361.884,354.75 361.884,335.5 367.084,335.5 367.084,316.65 361.884,316.65 361.884,297.4 367.084,297.4 367.084,283.55 380.019,283.55 380.019,278.35 393.155,278.35 393.155,283.55 405.89,283.55 405.89,277.947 408.098,283.277 393.834,297.541 393.834,302.6 404.52,302.6 404.52,297.4 415.605,297.4 415.605,302.6 426.291,302.6 426.291,297.4 437.377,297.4 437.377,302.6 448.063,302.6 448.063,297.4 459.148,297.4 459.148,302.6 470.116,302.6 377.24,450"
     fill="none"
     stroke="#000000"
     stroke-width="0.1mm"
     id="polyline5-2"
     transform="rotate(-90,421.12243,221.12243)"
     style="vector-effect:non-scaling-stroke;stroke-width:0.264583;stroke-dasharray:none;-inkscape-stroke:hairline" />
  <polyline
     z="0"
     points="470.116,616.853 470.116,603.718 475.316,603.718 475.316,590.982 470.116,590.982 470.116,577.847 709.316,577.847 709.316,590.982 704.116,590.982 704.116,603.718 709.316,603.718 709.316,616.853 690.931,616.853 690.931,622.053 672.347,622.053 672.347,616.853 654.162,616.853 654.162,622.053 635.578,622.053 635.578,616.853 617.393,616.853 617.393,622.053 598.808,622.053 598.808,616.853 580.624,616.853 580.624,622.053 562.039,622.053 562.039,616.853 543.854,616.853 543.854,622.053 525.27,622.053 525.27,616.853 507.085,616.853 507.085,622.053 488.501,622.053 488.501,616.853 470.116,616.853"
     fill="none"
     stroke="#000000"
     stroke-width="0.1mm"
     id="polyline2"
     transform="rotate(90,534.39006,583.83493)"
     style="vector-effect:non-scaling-stroke;stroke-width:0.264583;stroke-dasharray:none;-inkscape-stroke:hairline" />
  <polyline
     z="0"
     points="470.116,577.847 470.116,566.761 475.316,566.761 475.316,556.076 470.116,556.076 470.116,544.99 475.316,544.99 475.316,534.304 470.116,534.304 470.116,523.218 475.316,523.218 475.316,512.533 470.116,512.533 470.116,501.447 709.316,501.447 709.316,512.533 704.116,512.533 704.116,523.218 709.316,523.218 709.316,534.304 704.116,534.304 704.116,544.99 709.316,544.99 709.316,556.076 704.116,556.076 704.116,566.761 709.316,566.761 709.316,577.847 470.116,577.847"
     fill="none"
     stroke="#000000"
     stroke-width="0.1mm"
     id="polyline3"
     transform="rotate(90,534.39006,583.83493)"
     style="vector-effect:non-scaling-stroke;stroke-width:0.264583;stroke-dasharray:none;-inkscape-stroke:hairline" />
  <polyline
     z="0"
     points="470.116,450 470.116,430.75 475.316,430.75 475.316,411.9 470.116,411.9 470.116,392.65 475.316,392.65 475.316,373.8 470.116,373.8 470.116,354.55 475.316,354.55 475.316,335.7 470.116,335.7 470.116,316.45 475.316,316.45 475.316,297.6 470.116,297.6 470.116,278.35 488.701,278.35 488.701,283.55 506.885,283.55 506.885,278.35 525.47,278.35 525.47,283.55 543.654,283.55 543.654,278.35 562.239,278.35 562.239,283.55 580.424,283.55 580.424,278.35 599.008,278.35 599.008,283.55 617.193,283.55 617.193,278.35 635.778,278.35 635.778,283.55 653.962,283.55 653.962,278.35 672.547,278.35 672.547,283.55 690.731,283.55 690.731,278.35 709.316,278.35 709.316,297.6 704.116,297.6 704.116,316.45 709.316,316.45 709.316,335.7 704.116,335.7 704.116,354.55 709.316,354.55 709.316,373.8 704.116,373.8 704.116,392.65 709.316,392.65 709.316,411.9 704.116,411.9 704.116,430.75 709.316,430.75 709.316,450 690.731,450 690.731,444.8 672.547,444.8 672.547,450 653.962,450 653.962,444.8 635.778,444.8 635.778,450 617.193,450 617.193,444.8 599.008,444.8 599.008,450 580.424,450 580.424,444.8 562.239,444.8 562.239,450 543.654,450 543.654,444.8 525.47,444.8 525.47,450 506.885,450 506.885,444.8 488.701,444.8 488.701,450 470.116,450"
     fill="none"
     stroke="#000000"
     stroke-width="0.1mm"
     id="polyline4"
     transform="rotate(90,516.36656,565.81143)"
     style="vector-effect:non-scaling-stroke;stroke-width:0.264583;stroke-dasharray:none;-inkscape-stroke:hairline" />
  <polyline
     z="0"
     points="709.316,606.653 938.116,606.653 938.116,616.853 924.931,616.853 924.931,622.053 906.347,622.053 906.347,616.853 888.162,616.853 888.162,622.053 869.578,622.053 869.578,616.853 851.393,616.853 851.393,622.053 832.808,622.053 832.808,616.853 814.624,616.853 814.624,622.053 796.039,622.053 796.039,616.853 777.854,616.853 777.854,622.053 759.27,622.053 759.27,616.853 741.085,616.853 741.085,622.053 722.501,622.053 722.501,616.853 709.316,616.853 709.316,606.653"
     fill="none"
     stroke="#000000"
     stroke-width="0.1mm"
     id="polyline6"
     transform="rotate(-90,736.50094,726.37594)"
     style="vector-effect:non-scaling-stroke;stroke-width:0.264583;stroke-dasharray:none;-inkscape-stroke:hairline" />
  <polyline
     z="0"
     points="470.116,616.853 470.116,603.718 475.316,603.718 475.316,590.982 470.116,590.982 470.116,577.847 709.316,577.847 709.316,590.982 704.116,590.982 704.116,603.718 709.316,603.718 709.316,616.853 690.931,616.853 690.931,622.053 672.347,622.053 672.347,616.853 654.162,616.853 654.162,622.053 635.578,622.053 635.578,616.853 617.393,616.853 617.393,622.053 598.808,622.053 598.808,616.853 580.624,616.853 580.624,622.053 562.039,622.053 562.039,616.853 543.854,616.853 543.854,622.053 525.27,622.053 525.27,616.853 507.085,616.853 507.085,622.053 488.501,622.053 488.501,616.853 470.116,616.853"
     fill="none"
     stroke="#000000"
     stroke-width="0.1mm"
     id="polyline2-9"
     transform="rotate(90,653.99006,464.23493)"
     style="vector-effect:non-scaling-stroke;stroke-width:0.264583;stroke-dasharray:none;-inkscape-stroke:hairline" />
  <polyline
     z="0"
     points="470.116,577.847 470.116,566.761 475.316,566.761 475.316,556.076 470.116,556.076 470.116,544.99 475.316,544.99 475.316,534.304 470.116,534.304 470.116,523.218 475.316,523.218 475.316,512.533 470.116,512.533 470.116,501.447 709.316,501.447 709.316,512.533 704.116,512.533 704.116,523.218 709.316,523.218 709.316,534.304 704.116,534.304 704.116,544.99 709.316,544.99 709.316,556.076 704.116,556.076 704.116,566.761 709.316,566.761 709.316,577.847 470.116,577.847"
     fill="none"
     stroke="#000000"
     stroke-width="0.1mm"
     id="polyline3-3"
     transform="rotate(90,653.99006,464.23493)"
     style="vector-effect:non-scaling-stroke;stroke-width:0.264583;stroke-dasharray:none;-inkscape-stroke:hairline" />
  <polyline
     z="0"
     points="470.116,450 470.116,430.75 475.316,430.75 475.316,411.9 470.116,411.9 470.116,392.65 475.316,392.65 475.316,373.8 470.116,373.8 470.116,354.55 475.316,354.55 475.316,335.7 470.116,335.7 470.116,316.45 475.316,316.45 475.316,297.6 470.116,297.6 470.116,278.35 488.701,278.35 488.701,283.55 506.885,283.55 506.885,278.35 525.47,278.35 525.47,283.55 543.654,283.55 543.654,278.35 562.239,278.35 562.239,283.55 580.424,283.55 580.424,278.35 599.008,278.35 599.008,283.55 617.193,283.55 617.193,278.35 635.778,278.35 635.778,283.55 653.962,283.55 653.962,278.35 672.547,278.35 672.547,283.55 690.731,283.55 690.731,278.35 709.316,278.35 709.316,297.6 704.116,297.6 704.116,316.45 709.316,316.45 709.316,335.7 704.116,335.7 704.116,354.55 709.316,354.55 709.316,373.8 704.116,373.8 704.116,392.65 709.316,392.65 709.316,411.9 704.116,411.9 704.116,430.75 709.316,430.75 709.316,450 690.731,450 690.731,444.8 672.547,444.8 672.547,450 653.962,450 653.962,444.8 635.778,444.8 635.778,450 617.193,450 617.193,444.8 599.008,444.8 599.008,450 580.424,450 580.424,444.8 562.239,444.8 562.239,450 543.654,450 543.654,444.8 525.47,444.8 525.47,450 506.885,450 506.885,444.8 488.701,444.8 488.701,450 470.116,450"
     fill="none"
     stroke="#000000"
     stroke-width="0.1mm"
     id="polyline4-1"
     transform="rotate(90,635.96656,446.21143)"
     style="vector-effect:non-scaling-stroke;stroke-width:0.264583;stroke-dasharray:none;-inkscape-stroke:hairline" />
  <polyline
     z="0"
     points="709.316,606.653 938.116,606.653 938.116,616.853 924.931,616.853 924.931,622.053 906.347,622.053 906.347,616.853 888.162,616.853 888.162,622.053 869.578,622.053 869.578,616.853 851.393,616.853 851.393,622.053 832.808,622.053 832.808,616.853 814.624,616.853 814.624,622.053 796.039,622.053 796.039,616.853 777.854,616.853 777.854,622.053 759.27,622.053 759.27,616.853 741.085,616.853 741.085,622.053 722.501,622.053 722.501,616.853 709.316,616.853 709.316,606.653"
     fill="none"
     stroke="#000000"
     stroke-width="0.1mm"
     id="polyline6-9"
     transform="rotate(-90,616.90093,606.77592)"
     style="vector-effect:non-scaling-stroke;stroke-width:0.264583;stroke-dasharray:none;-inkscape-stroke:hairline" />
</svg>
