<!--
Cleat Wall Organization Equipment
Copyright (C) 2025  Corporate Hacks

This program is free software: you can redistribute it and/or modify
it under the terms of the GNU General Public License as published by
the Free Software Foundation, either version 3 of the License, or
(at your option) any later version.

This program is distributed in the hope that it will be useful,
but WITHOUT ANY WARRANTY; without even the implied warranty of
MERCHANTABILITY or FITNESS FOR A PARTICULAR PURPOSE.  See the
GNU General Public License for more details.

You should have received a copy of the GNU General Public License
along with this program.  If not, see <http://www.gnu.org/licenses/>.
-->

<svg xmlns="http://www.w3.org/2000/svg" width="1300mm" height="900mm" viewBox="0 0 1300 900">
    <path fill="none" stroke="#000" stroke-width=".1mm" d="M562.475 585.101v-11.086h5.2V563.33h-5.2v-11.086h5.2v-10.686h-5.2v-11.086h5.2v-10.685h-5.2v-11.086h391.6v11.086h-5.2v10.685h5.2v11.086h-5.2v10.686h5.2v11.086h-5.2v10.685h5.2v11.086h-391.6" style="vector-effect:non-scaling-stroke;fill:none;stroke:#000;stroke-width:.264583;stroke-dasharray:none;stroke-opacity:1;-inkscape-stroke:hairline" transform="rotate(-90 760.688 643.387)"/>
    <path fill="none" stroke="#000" stroke-width=".1mm" d="M581.113 508.701v-5.2h-18.638v-13.135h5.2V477.63h-5.2v-13.135h391.6v13.135h-5.2v12.736h5.2v13.135h-18.638v5.2h-18.838v-5.2h-18.438v5.2h-18.838v-5.2h-18.438v5.2h-18.839v-5.2h-18.438v5.2H804.77v-5.2h-18.438v5.2h-18.838v-5.2h-18.438v5.2h-18.838v-5.2H711.78v5.2h-18.838v-5.2h-18.438v5.2h-18.839v-5.2h-18.438v5.2h-18.838v-5.2h-18.438v5.2h-18.838" style="vector-effect:non-scaling-stroke;fill:none;stroke:#000;stroke-width:.264583;stroke-dasharray:none;stroke-opacity:1;-inkscape-stroke:hairline" transform="rotate(90 601.486 489.011)"/>
    <path fill="none" stroke="#000" stroke-width=".1mm" d="M583.02 457.499v-5.2h-18.438v5.2h-18.838v-5.2h-18.438v5.2h-18.838v-5.2H490.03v5.2h-18.838v-5.2h-18.438v5.2h-18.839v-5.2h-18.438v5.2h-18.838v-5.2h-18.438v5.2h-18.838v-5.2h-13.438v-10.2h381.2v10.2h-13.438v5.2h-18.838v-5.2h-18.438v5.2h-18.838v-5.2h-18.438v5.2h-18.839v-5.2h-18.438v5.2H583.02" style="vector-effect:non-scaling-stroke;fill:none;stroke:#000;stroke-width:.264583;stroke-dasharray:none;stroke-opacity:1;-inkscape-stroke:hairline" transform="rotate(-90 721.314 461.011)"/>
    <path fill="none" stroke="#000" stroke-width=".1mm" d="M588.42 442.099h-18.838v-5.2h-18.438v5.2h-18.838v-5.2h-18.438v5.2H495.03v-5.2h-18.438v5.2h-18.838v-5.2h-18.439v5.2h-18.838v-5.2h-18.438v5.2h-18.838v-5.2h-18.438v5.2h-18.838v-14.311h5.2v-13.911h-5.2v-14.311h5.2v-13.911h-5.2v-14.312h5.2v-13.911h-5.2v-14.311h5.2V329.21h-5.2v-14.311h18.838v5.2h18.438v-5.2h18.838v5.2h18.438v-5.2h18.838v5.2h18.439v-5.2h18.838v5.2h18.438v-5.2h18.838v5.2h18.438v-5.2h18.838v5.2h18.438v-5.2h18.838v5.2h18.438v-5.2h18.838v5.2h18.439v-5.2h18.838v5.2h18.438v-5.2h18.838v5.2h18.438v-5.2h18.838v14.311h-5.2v13.911h5.2v14.311h-5.2v13.911h5.2v14.312h-5.2v13.911h5.2v14.311h-5.2v13.911h5.2v14.311h-18.838v-5.2h-18.438v5.2h-18.838v-5.2h-18.438v5.2h-18.838v-5.2h-18.439v5.2h-18.838v-5.2H588.42v5.2" style="vector-effect:non-scaling-stroke;fill:none;stroke:#000;stroke-width:.264583;stroke-dasharray:none;stroke-opacity:1;-inkscape-stroke:hairline" transform="rotate(-90 663.611 523.914)"/>
    <path fill="none" stroke="#000" stroke-width=".1mm" d="m438.856 585.101-92.931-102.95h11.011v-5.2h11.085v5.2h10.686v-5.2h11.086v5.2h10.686v-5.2h11.085v5.2h10.686v-5.058l-14.264-14.264 2.208-5.33v5.602h12.735v-5.2h13.136v5.2H449v8.911h5.2v14.311H449v13.911h5.2v14.311H449v13.912h5.2v14.311H449v13.911h5.2v14.311H449v14.111h-10.144" style="vector-effect:non-scaling-stroke;fill:none;stroke:#000;stroke-width:.264583;stroke-dasharray:none;stroke-opacity:1;-inkscape-stroke:hairline" transform="rotate(90 703.48 599.423)"/>
    <path fill="none" stroke="#000" stroke-width=".1mm" d="M459.4 585.101V570.99h-5.2v-14.311h5.2v-13.911h-5.2v-14.311h5.2v-13.912h-5.2v-14.311h5.2v-13.911h-5.2v-14.311h5.2v-8.911h12.935v-5.2h13.136v5.2h12.735v-5.602l2.208 5.33-14.264 14.264v5.058h10.686v-5.2h11.085v5.2h10.686v-5.2h11.086v5.2h10.686v-5.2h11.085v5.2h11.011l-92.931 102.95H459.4" style="vector-effect:non-scaling-stroke;fill:none;stroke:#000;stroke-width:.264583;stroke-dasharray:none;stroke-opacity:1;-inkscape-stroke:hairline" transform="rotate(90 849.351 453.551)"/>
    <path fill="none" stroke="#000" stroke-width=".1mm" d="m438.856 585.101-92.931-102.95h11.011v-5.2h11.085v5.2h10.686v-5.2h11.086v5.2h10.686v-5.2h11.085v5.2h10.686v-5.058l-14.264-14.264 2.208-5.33v5.602h12.735v-5.2h13.136v5.2H449v8.911h5.2v14.311H449v13.911h5.2v14.311H449v13.912h5.2v14.311H449v13.911h5.2v14.311H449v14.111h-10.144M459.4 585.101V570.99h-5.2v-14.311h5.2v-13.911h-5.2v-14.311h5.2v-13.912h-5.2v-14.311h5.2v-13.911h-5.2v-14.311h5.2v-8.911h12.935v-5.2h13.136v5.2h12.735v-5.602l2.208 5.33-14.264 14.264v5.058h10.686v-5.2h11.085v5.2h10.686v-5.2h11.086v5.2h10.686v-5.2h11.085v5.2h11.011l-92.931 102.95H459.4" style="vector-effect:non-scaling-stroke;fill:none;stroke:#000;stroke-width:.264583;stroke-dasharray:none;stroke-opacity:1;-inkscape-stroke:hairline" transform="rotate(-90 459.387 199.084)"/>
    <path fill="none" stroke="#000" stroke-width=".1mm" d="M562.475 585.101v-11.086h5.2V563.33h-5.2v-11.086h5.2v-10.686h-5.2v-11.086h5.2v-10.685h-5.2v-11.086h391.6v11.086h-5.2v10.685h5.2v11.086h-5.2v10.686h5.2v11.086h-5.2v10.685h5.2v11.086h-391.6" style="vector-effect:non-scaling-stroke;fill:none;stroke:#000;stroke-width:.264583;stroke-dasharray:none;stroke-opacity:1;-inkscape-stroke:hairline" transform="rotate(-90 564.888 447.587)"/>
    <path fill="none" stroke="#000" stroke-width=".1mm" d="M581.113 508.701v-5.2h-18.638v-13.135h5.2V477.63h-5.2v-13.135h391.6v13.135h-5.2v12.736h5.2v13.135h-18.638v5.2h-18.838v-5.2h-18.438v5.2h-18.838v-5.2h-18.438v5.2h-18.839v-5.2h-18.438v5.2H804.77v-5.2h-18.438v5.2h-18.838v-5.2h-18.438v5.2h-18.838v-5.2H711.78v5.2h-18.838v-5.2h-18.438v5.2h-18.839v-5.2h-18.438v5.2h-18.838v-5.2h-18.438v5.2h-18.838" style="vector-effect:non-scaling-stroke;fill:none;stroke:#000;stroke-width:.264583;stroke-dasharray:none;stroke-opacity:1;-inkscape-stroke:hairline" transform="rotate(90 797.286 293.211)"/>
    <path fill="none" stroke="#000" stroke-width=".1mm" d="M583.02 457.499v-5.2h-18.438v5.2h-18.838v-5.2h-18.438v5.2h-18.838v-5.2H490.03v5.2h-18.838v-5.2h-18.438v5.2h-18.839v-5.2h-18.438v5.2h-18.838v-5.2h-18.438v5.2h-18.838v-5.2h-13.438v-10.2h381.2v10.2h-13.438v5.2h-18.838v-5.2h-18.438v5.2h-18.838v-5.2h-18.438v5.2h-18.839v-5.2h-18.438v5.2H583.02" style="vector-effect:non-scaling-stroke;fill:none;stroke:#000;stroke-width:.264583;stroke-dasharray:none;stroke-opacity:1;-inkscape-stroke:hairline" transform="rotate(-90 525.514 265.211)"/>
    <path fill="none" stroke="#000" stroke-width=".1mm" d="M588.42 442.099h-18.838v-5.2h-18.438v5.2h-18.838v-5.2h-18.438v5.2H495.03v-5.2h-18.438v5.2h-18.838v-5.2h-18.439v5.2h-18.838v-5.2h-18.438v5.2h-18.838v-5.2h-18.438v5.2h-18.838v-14.311h5.2v-13.911h-5.2v-14.311h5.2v-13.911h-5.2v-14.312h5.2v-13.911h-5.2v-14.311h5.2V329.21h-5.2v-14.311h18.838v5.2h18.438v-5.2h18.838v5.2h18.438v-5.2h18.838v5.2h18.439v-5.2h18.838v5.2h18.438v-5.2h18.838v5.2h18.438v-5.2h18.838v5.2h18.438v-5.2h18.838v5.2h18.438v-5.2h18.838v5.2h18.439v-5.2h18.838v5.2h18.438v-5.2h18.838v5.2h18.438v-5.2h18.838v14.311h-5.2v13.911h5.2v14.311h-5.2v13.911h5.2v14.312h-5.2v13.911h5.2v14.311h-5.2v13.911h5.2v14.311h-18.838v-5.2h-18.438v5.2h-18.838v-5.2h-18.438v5.2h-18.838v-5.2h-18.439v5.2h-18.838v-5.2H588.42v5.2" style="vector-effect:non-scaling-stroke;fill:none;stroke:#000;stroke-width:.264583;stroke-dasharray:none;stroke-opacity:1;-inkscape-stroke:hairline" transform="rotate(-90 467.811 328.114)"/>
</svg>
