Cleat Wall Organization Equipment
Copyright (C) 2025  Corporate Hacks

This program is free software: you can redistribute it and/or modify
it under the terms of the GNU General Public License as published by
the Free Software Foundation, either version 3 of the License, or
(at your option) any later version.

This program is distributed in the hope that it will be useful,
but WITHOUT ANY WARRANTY; without even the implied warranty of
MERCHANTABILITY or FITNESS FOR A PARTICULAR PURPOSE.  See the
GNU General Public License for more details.

You should have received a copy of the GNU General Public License
along with this program.  If not, see <http://www.gnu.org/licenses/>.


<svg xmlns="http://www.w3.org/2000/svg" width="1300mm" height="900mm" viewBox="0 0 1300 900">
    <path fill="none" stroke="#000" stroke-width=".1mm" d="M497.675 647.05v-18.095h5.2v-17.696h-5.2v-18.095h5.2v-17.696h-5.2v-18.095h5.2v-17.696h-5.2v-18.095h5.2v-17.696h-5.2v-18.095h5.2v-17.696h-5.2V450h15.467v5.2h15.066V450h15.467v5.2h15.067V450h15.466v5.2h15.067V450h15.467v5.2h15.066V450h15.467v18.095h-5.2v17.696h5.2v18.095h-5.2v17.696h5.2v18.095h-5.2v17.696h5.2v18.095h-5.2v17.696h5.2v18.095h-5.2v17.696h5.2v18.095h-15.467v-5.2h-15.066v5.2h-15.467v-5.2h-15.067v5.2h-15.466v-5.2h-15.067v5.2h-15.467v-5.2h-15.066v5.2h-15.467" style="stroke-width:.26458333;stroke-dasharray:none;vector-effect:non-scaling-stroke;-inkscape-stroke:hairline" transform="rotate(90 622.95 643.579)"/>
    <path fill="none" stroke="#000" stroke-width=".1mm" d="M635.275 641.85v-10.2h127.2v10.2h-10.067v5.2h-15.466v-5.2h-15.067v5.2h-15.467v-5.2h-15.066v5.2h-15.467v-5.2h-15.067v5.2h-15.466v-5.2h-10.067" style="stroke-width:.26458333;stroke-dasharray:none;vector-effect:non-scaling-stroke;-inkscape-stroke:hairline" transform="rotate(90 621.146 509.376)"/>
    <path fill="none" stroke="#000" stroke-width=".1mm" d="M640.475 631.65v-10.886h-5.2v-11.085h5.2v-10.686h-5.2v-11.086h5.2v-10.686h-5.2v-11.085h5.2V555.25h127.2v10.886h5.2v11.085h-5.2v10.686h5.2v11.086h-5.2v10.686h5.2v11.085h-5.2v10.886h-127.2" style="stroke-width:.26458333;stroke-dasharray:none;vector-effect:non-scaling-stroke;-inkscape-stroke:hairline" transform="rotate(90 623.746 506.776)"/>
    <path fill="none" stroke="#000" stroke-width=".1mm" d="M772.875 613.515v-13.136h5.2v-12.935h127.2v12.935h5.2v13.136h-5.2v12.935h-10.067v5.2h-15.466v-5.2h-15.067v5.2h-15.467v-5.2h-15.066v5.2h-15.467v-5.2h-15.067v5.2h-15.466v-5.2h-10.067v-12.935h-5.2" style="stroke-width:.26458333;stroke-dasharray:none;vector-effect:non-scaling-stroke;-inkscape-stroke:hairline" transform="rotate(-90 708.304 720.476)"/>
    <path fill="none" stroke="#000" stroke-width=".1mm" d="M497.675 647.05v-18.095h5.2v-17.696h-5.2v-18.095h5.2v-17.696h-5.2v-18.095h5.2v-17.696h-5.2v-18.095h5.2v-17.696h-5.2v-18.095h5.2v-17.696h-5.2V450h15.467v5.2h15.066V450h15.467v5.2h15.067V450h15.466v5.2h15.067V450h15.467v5.2h15.066V450h15.467v18.095h-5.2v17.696h5.2v18.095h-5.2v17.696h5.2v18.095h-5.2v17.696h5.2v18.095h-5.2v17.696h5.2v18.095h-5.2v17.696h5.2v18.095h-15.467v-5.2h-15.066v5.2h-15.467v-5.2h-15.067v5.2h-15.466v-5.2h-15.067v5.2h-15.467v-5.2h-15.066v5.2h-15.467" style="stroke-width:.26458333;stroke-dasharray:none;vector-effect:non-scaling-stroke;-inkscape-stroke:hairline" transform="rotate(90 691.75 574.779)"/>
    <path fill="none" stroke="#000" stroke-width=".1mm" d="M635.275 641.85v-10.2h127.2v10.2h-10.067v5.2h-15.466v-5.2h-15.067v5.2h-15.467v-5.2h-15.066v5.2h-15.467v-5.2h-15.067v5.2h-15.466v-5.2h-10.067" style="stroke-width:.26458333;stroke-dasharray:none;vector-effect:non-scaling-stroke;-inkscape-stroke:hairline" transform="rotate(90 689.946 440.576)"/>
    <path fill="none" stroke="#000" stroke-width=".1mm" d="M640.475 631.65v-10.886h-5.2v-11.085h5.2v-10.686h-5.2v-11.086h5.2v-10.686h-5.2v-11.085h5.2V555.25h127.2v10.886h5.2v11.085h-5.2v10.686h5.2v11.086h-5.2v10.686h5.2v11.085h-5.2v10.886h-127.2" style="stroke-width:.26458333;stroke-dasharray:none;vector-effect:non-scaling-stroke;-inkscape-stroke:hairline" transform="rotate(90 692.546 437.976)"/>
    <path fill="none" stroke="#000" stroke-width=".1mm" d="M772.875 613.515v-13.136h5.2v-12.935h127.2v12.935h5.2v13.136h-5.2v12.935h-10.067v5.2h-15.466v-5.2h-15.067v5.2h-15.467v-5.2h-15.066v5.2h-15.467v-5.2h-15.067v5.2h-15.466v-5.2h-10.067v-12.935h-5.2" style="stroke-width:.26458333;stroke-dasharray:none;vector-effect:non-scaling-stroke;-inkscape-stroke:hairline" transform="rotate(-90 639.504 651.676)"/>
    <path fill="none" stroke="#000" stroke-width=".1mm" d="M394.725 647.05v-17.895h-5.2v-18.096h5.2v-17.695h-5.2v-18.096h5.2v-17.695h-5.2v-18.096h5.2v-17.695h-5.2v-18.096h5.2v-17.695h-5.2v-18.096h5.2V450h13.135v5.2h12.736V450h13.102l2.041 4.927-14.123 14.123h10.745v5.2h10.685v-5.2h11.086v5.2h10.686v-5.2h11.086v5.2h10.685v-5.2h11.086v5.325l-92.79 172.675h-10.16" style="stroke-width:.26458333;stroke-dasharray:none;vector-effect:non-scaling-stroke;-inkscape-stroke:hairline" transform="rotate(90 622.715 477.285)"/>
    <path fill="none" stroke="#000" stroke-width=".1mm" d="M492.475 450h-10.16l-92.79-172.675V272h11.086v5.2h10.685V272h11.086v5.2h10.686V272h11.086v5.2h10.685V272h10.745l-14.123-14.123 2.041-4.927h13.102v5.2h12.736v-5.2h13.135v17.895h5.2v18.096h-5.2v17.695h5.2v18.096h-5.2v17.695h5.2v18.096h-5.2v17.695h5.2v18.096h-5.2v17.695h5.2v18.096h-5.2V450" style="stroke-width:.26458333;stroke-dasharray:none;vector-effect:non-scaling-stroke;-inkscape-stroke:hairline" transform="rotate(90 608.485 491.515)"/>
    <path fill="none" stroke="#000" stroke-width=".1mm" d="M394.725 647.05v-17.895h-5.2v-18.096h5.2v-17.695h-5.2v-18.096h5.2v-17.695h-5.2v-18.096h5.2v-17.695h-5.2v-18.096h5.2v-17.695h-5.2v-18.096h5.2V450h13.135v5.2h12.736V450h13.102l2.041 4.927-14.123 14.123h10.745v5.2h10.685v-5.2h11.086v5.2h10.686v-5.2h11.086v5.2h10.685v-5.2h11.086v5.325l-92.79 172.675h-10.16" style="stroke-width:.26458333;stroke-dasharray:none;vector-effect:non-scaling-stroke;-inkscape-stroke:hairline" transform="rotate(-90 386.59 383.64)"/>
    <path fill="none" stroke="#000" stroke-width=".1mm" d="M492.475 450h-10.16l-92.79-172.675V272h11.086v5.2h10.685V272h11.086v5.2h10.686V272h11.086v5.2h10.685V272h10.745l-14.123-14.123 2.041-4.927h13.102v5.2h12.736v-5.2h13.135v17.895h5.2v18.096h-5.2v17.695h5.2v18.096h-5.2v17.695h5.2v18.096h-5.2v17.695h5.2v18.096h-5.2v17.695h5.2v18.096h-5.2V450" style="stroke-width:.26458333;stroke-dasharray:none;vector-effect:non-scaling-stroke;-inkscape-stroke:hairline" transform="rotate(-90 569.41 172.36)"/>
</svg>
