Cleat Wall Organization Equipment
Copyright (C) 2025  Corporate Hacks

This program is free software: you can redistribute it and/or modify
it under the terms of the GNU General Public License as published by
the Free Software Foundation, either version 3 of the License, or
(at your option) any later version.

This program is distributed in the hope that it will be useful,
but WITHOUT ANY WARRANTY; without even the implied warranty of
MERCHANTABILITY or FITNESS FOR A PARTICULAR PURPOSE.  See the
GNU General Public License for more details.

You should have received a copy of the GNU General Public License
along with this program.  If not, see <http://www.gnu.org/licenses/>.


<svg xmlns="http://www.w3.org/2000/svg" width="1300mm" height="900mm" viewBox="0 0 1300 900">
    <g stroke-width=".1mm" style="fill:none;stroke:#000;stroke-opacity:1;vector-effect:non-scaling-stroke;-inkscape-stroke:hairline;stroke-width:.26458333;stroke-dasharray:none">
        <path d="M443.277 602.6v-16.933h-5.2v-17.134h5.2V551.8h-5.2v-17.133h5.2v-16.734h-5.2V500.8h5.2v-16.733h-5.2v-17.134h5.2V450h13.135v5.2h12.736V450h13.102l2.041 4.927-14.264 14.264v5.059h10.686v-5.2h11.085v5.2h10.686v-5.2h11.086v5.2h10.686v-5.2h11.085v5.2h10.982L453.428 602.6h-10.151" style="vector-effect:non-scaling-stroke;fill:none;fill-opacity:1;stroke-width:.26458333;stroke-dasharray:none;-inkscape-stroke:hairline;stroke:#000;stroke-opacity:1" transform="rotate(90 660.876 439.124)"/>
        <path d="M541.123 450h-10.151l-92.895-128.35h10.982v-5.2h11.085v5.2h10.686v-5.2h11.086v5.2h10.686v-5.2h11.085v5.2h10.686v-5.059l-14.264-14.264 2.041-4.927h13.102v5.2h12.736v-5.2h13.135v16.933h5.2v17.134h-5.2V348.2h5.2v17.133h-5.2v16.734h5.2V399.2h-5.2v16.733h5.2v17.134h-5.2V450" style="vector-effect:non-scaling-stroke;fill:none;fill-opacity:1;stroke-width:.26458333;stroke-dasharray:none;-inkscape-stroke:hairline;stroke:#000;stroke-opacity:1" transform="rotate(90 644.424 455.576)"/>
        <path d="M443.277 602.6v-16.933h-5.2v-17.134h5.2V551.8h-5.2v-17.133h5.2v-16.734h-5.2V500.8h5.2v-16.733h-5.2v-17.134h5.2V450h13.135v5.2h12.736V450h13.102l2.041 4.927-14.264 14.264v5.059h10.686v-5.2h11.085v5.2h10.686v-5.2h11.086v5.2h10.686v-5.2h11.085v5.2h10.982L453.428 602.6h-10.151" style="vector-effect:non-scaling-stroke;fill:none;fill-opacity:1;stroke-width:.26458333;stroke-dasharray:none;-inkscape-stroke:hairline;stroke:#000;stroke-opacity:1" transform="rotate(-90 421.476 374.076)"/>
        <path d="M541.123 450h-10.151l-92.895-128.35h10.982v-5.2h11.085v5.2h10.686v-5.2h11.086v5.2h10.686v-5.2h11.085v5.2h10.686v-5.059l-14.264-14.264 2.041-4.927h13.102v5.2h12.736v-5.2h13.135v16.933h5.2v17.134h-5.2V348.2h5.2v17.133h-5.2v16.734h5.2V399.2h-5.2v16.733h5.2v17.134h-5.2V450" style="vector-effect:non-scaling-stroke;fill:none;fill-opacity:1;stroke-width:.26458333;stroke-dasharray:none;-inkscape-stroke:hairline;stroke:#000;stroke-opacity:1" transform="rotate(-90 557.624 205.024)"/>
        <path d="M546.323 584.465v-13.136h5.2v-12.935h152.6v12.935h5.2v13.136h-5.2V597.4h-12.889v5.2h-18.289v-5.2h-17.889v5.2h-18.289v-5.2h-17.888v5.2H600.59v-5.2h-17.889v5.2h-18.289v-5.2h-12.889v-12.935h-5.2M546.323 558.394v-11.086h5.2v-10.685h-5.2v-11.086h5.2v-10.686h-5.2v-11.086h5.2V493.08h-5.2v-11.086h163v11.086h-5.2v10.685h5.2v11.086h-5.2v10.686h5.2v11.086h-5.2v10.685h5.2v11.086h-163" style="vector-effect:non-scaling-stroke;fill:none;fill-opacity:1;stroke-width:.26458333;stroke-dasharray:none;-inkscape-stroke:hairline;stroke:#000;stroke-opacity:1" transform="rotate(90 648.473 459.824)"/>
        <path d="M546.323 450v-17.133h5.2v-16.734h-5.2V399h5.2v-16.733h-5.2v-17.134h5.2V348.4h-5.2v-17.133h5.2v-16.734h-5.2V297.4h18.289v5.2h17.889v-5.2h18.289v5.2h17.889v-5.2h18.288v5.2h17.889v-5.2h18.289v5.2h17.889v-5.2h18.289v17.133h-5.2v16.734h5.2V348.4h-5.2v16.733h5.2v17.134h-5.2V399h5.2v17.133h-5.2v16.734h5.2V450h-18.289v-5.2h-17.889v5.2h-18.289v-5.2h-17.889v5.2h-18.288v-5.2H600.79v5.2h-18.289v-5.2h-17.889v5.2h-18.289" style="vector-effect:non-scaling-stroke;fill:none;fill-opacity:1;stroke-width:.26458333;stroke-dasharray:none;-inkscape-stroke:hairline;stroke:#000;stroke-opacity:1" transform="rotate(90 640.276 451.427)"/>
        <path d="M709.323 587.2h152.6v10.2h-12.889v5.2h-18.289v-5.2h-17.889v5.2h-18.289v-5.2h-17.888v5.2H758.39v-5.2h-17.889v5.2h-18.289v-5.2h-12.889v-10.2" style="vector-effect:non-scaling-stroke;fill:none;fill-opacity:1;stroke-width:.26458333;stroke-dasharray:none;-inkscape-stroke:hairline;stroke:#000;stroke-opacity:1" transform="rotate(-90 631.95 592.847)"/>
        <path d="M546.323 584.465v-13.136h5.2v-12.935h152.6v12.935h5.2v13.136h-5.2V597.4h-12.889v5.2h-18.289v-5.2h-17.889v5.2h-18.289v-5.2h-17.888v5.2H600.59v-5.2h-17.889v5.2h-18.289v-5.2h-12.889v-12.935h-5.2M546.323 558.394v-11.086h5.2v-10.685h-5.2v-11.086h5.2v-10.686h-5.2v-11.086h5.2V493.08h-5.2v-11.086h163v11.086h-5.2v10.685h5.2v11.086h-5.2v10.686h5.2v11.086h-5.2v10.685h5.2v11.086h-163" style="vector-effect:non-scaling-stroke;fill:none;fill-opacity:1;stroke-width:.26458333;stroke-dasharray:none;-inkscape-stroke:hairline;stroke:#000;stroke-opacity:1" transform="rotate(90 566.973 541.324)"/>
        <path d="M546.323 450v-17.133h5.2v-16.734h-5.2V399h5.2v-16.733h-5.2v-17.134h5.2V348.4h-5.2v-17.133h5.2v-16.734h-5.2V297.4h18.289v5.2h17.889v-5.2h18.289v5.2h17.889v-5.2h18.288v5.2h17.889v-5.2h18.289v5.2h17.889v-5.2h18.289v17.133h-5.2v16.734h5.2V348.4h-5.2v16.733h5.2v17.134h-5.2V399h5.2v17.133h-5.2v16.734h5.2V450h-18.289v-5.2h-17.889v5.2h-18.289v-5.2h-17.889v5.2h-18.288v-5.2H600.79v5.2h-18.289v-5.2h-17.889v5.2h-18.289" style="vector-effect:non-scaling-stroke;fill:none;fill-opacity:1;stroke-width:.26458333;stroke-dasharray:none;-inkscape-stroke:hairline;stroke:#000;stroke-opacity:1" transform="rotate(90 558.776 532.927)"/>
        <path d="M709.323 587.2h152.6v10.2h-12.889v5.2h-18.289v-5.2h-17.889v5.2h-18.289v-5.2h-17.888v5.2H758.39v-5.2h-17.889v5.2h-18.289v-5.2h-12.889v-10.2" style="vector-effect:non-scaling-stroke;fill:none;fill-opacity:1;stroke-width:.26458333;stroke-dasharray:none;-inkscape-stroke:hairline;stroke:#000;stroke-opacity:1" transform="rotate(-90 713.45 674.347)"/>
    </g>
</svg>
