Cleat Wall Organization Equipment
Copyright (C) 2025  Corporate Hacks

This program is free software: you can redistribute it and/or modify
it under the terms of the GNU General Public License as published by
the Free Software Foundation, either version 3 of the License, or
(at your option) any later version.

This program is distributed in the hope that it will be useful,
but WITHOUT ANY WARRANTY; without even the implied warranty of
MERCHANTABILITY or FITNESS FOR A PARTICULAR PURPOSE.  See the
GNU General Public License for more details.

You should have received a copy of the GNU General Public License
along with this program.  If not, see <http://www.gnu.org/licenses/>.


<svg xmlns="http://www.w3.org/2000/svg" width="1300mm" height="900mm" viewBox="0 0 1300 900">
    <path fill="none" stroke="#000" stroke-width=".1mm" d="M387.337 500.9v-11.489h5.2v-11.089h-5.2v-11.489h5.2v-11.089h-5.2v-11.488h5.2v-11.089h-5.2v-11.489h5.2v-11.089h-5.2V399.1h18.322v5.2h17.921v-5.2h18.322v5.2h17.922v-5.2h18.322v5.2h17.921v-5.2h18.322v5.2h17.922v-5.2h18.322v5.2h17.921v-5.2h18.322v5.2h17.922v-5.2h18.322v5.2h17.921v-5.2h18.322v5.2h17.922v-5.2h18.322v5.2h17.921v-5.2h18.322v5.2h17.922v-5.2h18.322v5.2h17.921v-5.2h18.322v11.489h-5.2v11.089h5.2v11.489h-5.2v11.089h5.2v11.488h-5.2v11.089h5.2v11.489h-5.2v11.089h5.2V500.9h-18.322v-5.2h-17.921v5.2h-18.322v-5.2H731.85v5.2h-18.322v-5.2h-17.921v5.2h-18.322v-5.2h-17.922v5.2h-18.322v-5.2H623.12v5.2h-18.322v-5.2h-17.922v5.2h-18.322v-5.2h-17.921v5.2h-18.322v-5.2h-17.922v5.2h-18.322v-5.2h-17.921v5.2h-18.322v-5.2h-17.922v5.2H423.58v-5.2h-17.921v5.2h-18.322" style="vector-effect:non-scaling-stroke;stroke-width:.264583;stroke-dasharray:none;-inkscape-stroke:hairline" transform="rotate(90 735.685 380.994)"/>
    <path fill="none" stroke="#000" stroke-width=".1mm" d="M495.663 511.416h417v11.086h-5.2v10.685h5.2v11.086h-5.2v10.686h5.2v11.086h-5.2v10.685h5.2v11.086h-417V576.73h5.2v-10.685h-5.2v-11.086h5.2v-10.686h-5.2v-11.086h5.2v-10.685h-5.2v-11.086" style="vector-effect:non-scaling-stroke;stroke-width:.264583;stroke-dasharray:none;-inkscape-stroke:hairline" transform="rotate(90 787.052 324.743)"/>
    <path fill="none" stroke="#000" stroke-width=".1mm" d="M513.785 587.816h18.321v5.2h17.922v-5.2h18.322v5.2h17.922v-5.2h18.321v5.2h17.922v-5.2h18.322v5.2h17.922v-5.2h18.321v5.2h17.922v-5.2h18.322v5.2h17.922v-5.2h18.321v5.2h17.922v-5.2h18.322v5.2h17.922v-5.2h18.321v5.2h17.922v-5.2h18.322v5.2h17.922v-5.2h18.321v5.2h18.122v10.2h-417v-10.2h18.122v-5.2" style="vector-effect:non-scaling-stroke;stroke-width:.264583;stroke-dasharray:none;-inkscape-stroke:hairline" transform="rotate(90 832.952 370.643)"/>
    <path fill="none" stroke="#000" stroke-width=".1mm" d="M513.785 399.1v-5.2h-18.122v-13.135h5.2v-12.736h-5.2v-13.135h417v13.135h-5.2v12.736h5.2V393.9h-18.122v5.2H876.22v-5.2h-17.922v5.2h-18.322v-5.2h-17.922v5.2h-18.321v-5.2h-17.922v5.2h-18.322v-5.2h-17.922v5.2h-18.321v-5.2h-17.922v5.2h-18.322v-5.2H677.08v5.2h-18.321v-5.2h-17.922v5.2h-18.322v-5.2h-17.922v5.2h-18.321v-5.2H568.35v5.2h-18.322v-5.2h-17.922v5.2h-18.321" style="vector-effect:non-scaling-stroke;stroke-width:.264583;stroke-dasharray:none;-inkscape-stroke:hairline" transform="rotate(90 670.59 208.282)"/>
    <path fill="none" stroke="#000" stroke-width=".1mm" d="M387.337 500.9v-11.489h5.2v-11.089h-5.2v-11.489h5.2v-11.089h-5.2v-11.488h5.2v-11.089h-5.2v-11.489h5.2v-11.089h-5.2V399.1h18.322v5.2h17.921v-5.2h18.322v5.2h17.922v-5.2h18.322v5.2h17.921v-5.2h18.322v5.2h17.922v-5.2h18.322v5.2h17.921v-5.2h18.322v5.2h17.922v-5.2h18.322v5.2h17.921v-5.2h18.322v5.2h17.922v-5.2h18.322v5.2h17.921v-5.2h18.322v5.2h17.922v-5.2h18.322v5.2h17.921v-5.2h18.322v11.489h-5.2v11.089h5.2v11.489h-5.2v11.089h5.2v11.488h-5.2v11.089h5.2v11.489h-5.2v11.089h5.2V500.9h-18.322v-5.2h-17.921v5.2h-18.322v-5.2H731.85v5.2h-18.322v-5.2h-17.921v5.2h-18.322v-5.2h-17.922v5.2h-18.322v-5.2H623.12v5.2h-18.322v-5.2h-17.922v5.2h-18.322v-5.2h-17.921v5.2h-18.322v-5.2h-17.922v5.2h-18.322v-5.2h-17.921v5.2h-18.322v-5.2h-17.922v5.2H423.58v-5.2h-17.921v5.2h-18.322" style="vector-effect:non-scaling-stroke;stroke-width:.264583;stroke-dasharray:none;-inkscape-stroke:hairline" transform="rotate(90 526.83 589.848)"/>
    <path fill="none" stroke="#000" stroke-width=".1mm" d="M495.663 511.416h417v11.086h-5.2v10.685h5.2v11.086h-5.2v10.686h5.2v11.086h-5.2v10.685h5.2v11.086h-417V576.73h5.2v-10.685h-5.2v-11.086h5.2v-10.686h-5.2v-11.086h5.2v-10.685h-5.2v-11.086" style="vector-effect:non-scaling-stroke;stroke-width:.264583;stroke-dasharray:none;-inkscape-stroke:hairline" transform="rotate(90 578.552 533.243)"/>
    <path fill="none" stroke="#000" stroke-width=".1mm" d="M513.785 587.816h18.321v5.2h17.922v-5.2h18.322v5.2h17.922v-5.2h18.321v5.2h17.922v-5.2h18.322v5.2h17.922v-5.2h18.321v5.2h17.922v-5.2h18.322v5.2h17.922v-5.2h18.321v5.2h17.922v-5.2h18.322v5.2h17.922v-5.2h18.321v5.2h17.922v-5.2h18.322v5.2h17.922v-5.2h18.321v5.2h18.122v10.2h-417v-10.2h18.122v-5.2" style="vector-effect:non-scaling-stroke;stroke-width:.264583;stroke-dasharray:none;-inkscape-stroke:hairline" transform="rotate(90 624.452 579.143)"/>
    <path fill="none" stroke="#000" stroke-width=".1mm" d="M513.785 399.1v-5.2h-18.122v-13.135h5.2v-12.736h-5.2v-13.135h417v13.135h-5.2v12.736h5.2V393.9h-18.122v5.2H876.22v-5.2h-17.922v5.2h-18.322v-5.2h-17.922v5.2h-18.321v-5.2h-17.922v5.2h-18.322v-5.2h-17.922v5.2h-18.321v-5.2h-17.922v5.2h-18.322v-5.2H677.08v5.2h-18.321v-5.2h-17.922v5.2h-18.322v-5.2h-17.922v5.2h-18.321v-5.2H568.35v5.2h-18.322v-5.2h-17.922v5.2h-18.321" style="vector-effect:non-scaling-stroke;stroke-width:.264583;stroke-dasharray:none;-inkscape-stroke:hairline" transform="rotate(90 462.09 416.782)"/>
    <path fill="none" stroke="#000" stroke-width=".1mm" d="M387.337 591.814v-11.489h5.2v-11.089h-5.2v-11.489h5.2v-11.088h-5.2V535.17h5.2v-11.089h-5.2v-11.489h5.2v-6.089h12.935v-5.2h13.136v5.2h12.735V500.9l2.208 5.33-14.264 14.264v5.059h10.686v-5.2h11.085v5.2h10.686v-5.2h11.086v5.2h10.686v-5.2h11.085v5.2h11.062l-93.126 77.663v-5.313h-10v-6.089h-5.2" style="vector-effect:non-scaling-stroke;stroke-width:.264583;stroke-dasharray:none;-inkscape-stroke:hairline" transform="rotate(90 837.909 483.218)"/>
    <path fill="none" stroke="#000" stroke-width=".1mm" d="M495.663 387.697h-5.2v6.089h-10v5.314l-93.126-77.664h11.062v-5.2h11.085v5.2h10.686v-5.2h11.086v5.2h10.686v-5.2h11.085v5.2h10.686v-5.058l-14.264-14.264 2.208-5.33v5.602h12.735v-5.2h13.136v5.2h12.935v6.089h5.2v11.489h-5.2v11.089h5.2v11.489h-5.2v11.088h5.2v11.489h-5.2v11.089h5.2v11.489" style="vector-effect:non-scaling-stroke;stroke-width:.264583;stroke-dasharray:none;-inkscape-stroke:hairline" transform="rotate(90 637.325 479.686)"/>
    <path fill="none" stroke="#000" stroke-width=".1mm" d="M387.337 591.814v-11.489h5.2v-11.089h-5.2v-11.489h5.2v-11.088h-5.2V535.17h5.2v-11.089h-5.2v-11.489h5.2v-6.089h12.935v-5.2h13.136v5.2h12.735V500.9l2.208 5.33-14.264 14.264v5.059h10.686v-5.2h11.085v5.2h10.686v-5.2h11.086v5.2h10.686v-5.2h11.085v5.2h11.062l-93.126 77.663v-5.313h-10v-6.089h-5.2" style="vector-effect:non-scaling-stroke;stroke-width:.264583;stroke-dasharray:none;-inkscape-stroke:hairline" transform="rotate(-90 394.676 177.997)"/>
    <path fill="none" stroke="#000" stroke-width=".1mm" d="M495.663 387.697h-5.2v6.089h-10v5.314l-93.126-77.664h11.062v-5.2h11.085v5.2h10.686v-5.2h11.086v5.2h10.686v-5.2h11.085v5.2h10.686v-5.058l-14.264-14.264 2.208-5.33v5.602h12.735v-5.2h13.136v5.2h12.935v6.089h5.2v11.489h-5.2v11.089h5.2v11.489h-5.2v11.088h5.2v11.489h-5.2v11.089h5.2v11.489" style="vector-effect:non-scaling-stroke;stroke-width:.264583;stroke-dasharray:none;-inkscape-stroke:hairline" transform="rotate(-90 550.898 130.102)"/>
</svg>
