Cleat Wall Organization Equipment
Copyright (C) 2025  Corporate Hacks

This program is free software: you can redistribute it and/or modify
it under the terms of the GNU General Public License as published by
the Free Software Foundation, either version 3 of the License, or
(at your option) any later version.

This program is distributed in the hope that it will be useful,
but WITHOUT ANY WARRANTY; without even the implied warranty of
MERCHANTABILITY or FITNESS FOR A PARTICULAR PURPOSE.  See the
GNU General Public License for more details.

You should have received a copy of the GNU General Public License
along with this program.  If not, see <http://www.gnu.org/licenses/>.


<svg xmlns="http://www.w3.org/2000/svg" width="1300mm" height="900mm" viewBox="0 0 1300 900">
    <path fill="none" stroke="#000" stroke-width=".1mm" d="m454.76 622.053-92.876-147.4h10.968v-5.2h11.085v5.2h10.686v-5.2h11.086v5.2h10.686v-5.2h11.085v5.2h10.686v-5.059l-14.264-14.264 2.208-5.33v5.603h12.735v-5.2h13.136v5.2h12.935v13.85h5.2v19.25h-5.2v18.85h5.2v19.25h-5.2v18.85h5.2v19.25h-5.2v18.85h5.2v19.25h-5.2v19.05H454.76" style="vector-effect:non-scaling-stroke;stroke-width:.264583;stroke-dasharray:none;-inkscape-stroke:hairline" transform="rotate(90 730.904 541.149)"/>
    <path fill="none" stroke="#000" stroke-width=".1mm" d="M377.24 450h-10.156v-19.05h-5.2V411.7h5.2v-18.85h-5.2V373.6h5.2v-18.85h-5.2V335.5h5.2v-18.85h-5.2V297.4h5.2v-13.85h12.935v-5.2h13.136v5.2h12.735v-5.603l2.208 5.33-14.264 14.264v5.059h10.686v-5.2h11.085v5.2h10.686v-5.2h11.086v5.2h10.686v-5.2h11.085v5.2h10.968L377.24 450" style="vector-effect:non-scaling-stroke;stroke-width:.264583;stroke-dasharray:none;-inkscape-stroke:hairline" transform="rotate(90 574.296 353.651)"/>
    <path fill="none" stroke="#000" stroke-width=".1mm" d="m454.76 622.053-92.876-147.4h10.968v-5.2h11.085v5.2h10.686v-5.2h11.086v5.2h10.686v-5.2h11.085v5.2h10.686v-5.059l-14.264-14.264 2.208-5.33v5.603h12.735v-5.2h13.136v5.2h12.935v13.85h5.2v19.25h-5.2v18.85h5.2v19.25h-5.2v18.85h5.2v19.25h-5.2v18.85h5.2v19.25h-5.2v19.05H454.76" style="vector-effect:non-scaling-stroke;stroke-width:.264583;stroke-dasharray:none;-inkscape-stroke:hairline" transform="rotate(-90 405.678 205.678)"/>
    <path fill="none" stroke="#000" stroke-width=".1mm" d="M377.24 450h-10.156v-19.05h-5.2V411.7h5.2v-18.85h-5.2V373.6h5.2v-18.85h-5.2V335.5h5.2v-18.85h-5.2V297.4h5.2v-13.85h12.935v-5.2h13.136v5.2h12.735v-5.603l2.208 5.33-14.264 14.264v5.059h10.686v-5.2h11.085v5.2h10.686v-5.2h11.086v5.2h10.686v-5.2h11.085v5.2h10.968L377.24 450" style="vector-effect:non-scaling-stroke;stroke-width:.264583;stroke-dasharray:none;-inkscape-stroke:hairline" transform="rotate(-90 421.122 221.122)"/>
    <path fill="none" stroke="#000" stroke-width=".1mm" d="M470.116 616.853v-13.135h5.2v-12.736h-5.2v-13.135h239.2v13.135h-5.2v12.736h5.2v13.135h-18.385v5.2h-18.584v-5.2h-18.185v5.2h-18.584v-5.2h-18.185v5.2h-18.585v-5.2h-18.184v5.2h-18.585v-5.2h-18.185v5.2H525.27v-5.2h-18.185v5.2h-18.584v-5.2h-18.385M470.116 577.847v-11.086h5.2v-10.685h-5.2V544.99h5.2v-10.686h-5.2v-11.086h5.2v-10.685h-5.2v-11.086h239.2v11.086h-5.2v10.685h5.2v11.086h-5.2v10.686h5.2v11.086h-5.2v10.685h5.2v11.086h-239.2" style="vector-effect:non-scaling-stroke;stroke-width:.264583;stroke-dasharray:none;-inkscape-stroke:hairline" transform="rotate(90 534.39 583.835)"/>
    <path fill="none" stroke="#000" stroke-width=".1mm" d="M470.116 450v-19.25h5.2V411.9h-5.2v-19.25h5.2V373.8h-5.2v-19.25h5.2V335.7h-5.2v-19.25h5.2V297.6h-5.2v-19.25h18.585v5.2h18.184v-5.2h18.585v5.2h18.184v-5.2h18.585v5.2h18.185v-5.2h18.584v5.2h18.185v-5.2h18.585v5.2h18.184v-5.2h18.585v5.2h18.184v-5.2h18.585v19.25h-5.2v18.85h5.2v19.25h-5.2v18.85h5.2v19.25h-5.2v18.85h5.2v19.25h-5.2v18.85h5.2V450h-18.585v-5.2h-18.184v5.2h-18.585v-5.2h-18.184v5.2h-18.585v-5.2h-18.185v5.2h-18.584v-5.2h-18.185v5.2h-18.585v-5.2H525.47v5.2h-18.585v-5.2h-18.184v5.2h-18.585" style="vector-effect:non-scaling-stroke;stroke-width:.264583;stroke-dasharray:none;-inkscape-stroke:hairline" transform="rotate(90 516.367 565.811)"/>
    <path fill="none" stroke="#000" stroke-width=".1mm" d="M709.316 606.653h228.8v10.2h-13.185v5.2h-18.584v-5.2h-18.185v5.2h-18.584v-5.2h-18.185v5.2h-18.585v-5.2h-18.184v5.2h-18.585v-5.2h-18.185v5.2H759.27v-5.2h-18.185v5.2h-18.584v-5.2h-13.185v-10.2" style="vector-effect:non-scaling-stroke;stroke-width:.264583;stroke-dasharray:none;-inkscape-stroke:hairline" transform="rotate(-90 736.5 726.376)"/>
    <path fill="none" stroke="#000" stroke-width=".1mm" d="M470.116 616.853v-13.135h5.2v-12.736h-5.2v-13.135h239.2v13.135h-5.2v12.736h5.2v13.135h-18.385v5.2h-18.584v-5.2h-18.185v5.2h-18.584v-5.2h-18.185v5.2h-18.585v-5.2h-18.184v5.2h-18.585v-5.2h-18.185v5.2H525.27v-5.2h-18.185v5.2h-18.584v-5.2h-18.385M470.116 577.847v-11.086h5.2v-10.685h-5.2V544.99h5.2v-10.686h-5.2v-11.086h5.2v-10.685h-5.2v-11.086h239.2v11.086h-5.2v10.685h5.2v11.086h-5.2v10.686h5.2v11.086h-5.2v10.685h5.2v11.086h-239.2" style="vector-effect:non-scaling-stroke;stroke-width:.264583;stroke-dasharray:none;-inkscape-stroke:hairline" transform="rotate(90 653.99 464.235)"/>
    <path fill="none" stroke="#000" stroke-width=".1mm" d="M470.116 450v-19.25h5.2V411.9h-5.2v-19.25h5.2V373.8h-5.2v-19.25h5.2V335.7h-5.2v-19.25h5.2V297.6h-5.2v-19.25h18.585v5.2h18.184v-5.2h18.585v5.2h18.184v-5.2h18.585v5.2h18.185v-5.2h18.584v5.2h18.185v-5.2h18.585v5.2h18.184v-5.2h18.585v5.2h18.184v-5.2h18.585v19.25h-5.2v18.85h5.2v19.25h-5.2v18.85h5.2v19.25h-5.2v18.85h5.2v19.25h-5.2v18.85h5.2V450h-18.585v-5.2h-18.184v5.2h-18.585v-5.2h-18.184v5.2h-18.585v-5.2h-18.185v5.2h-18.584v-5.2h-18.185v5.2h-18.585v-5.2H525.47v5.2h-18.585v-5.2h-18.184v5.2h-18.585" style="vector-effect:non-scaling-stroke;stroke-width:.264583;stroke-dasharray:none;-inkscape-stroke:hairline" transform="rotate(90 635.967 446.211)"/>
    <path fill="none" stroke="#000" stroke-width=".1mm" d="M709.316 606.653h228.8v10.2h-13.185v5.2h-18.584v-5.2h-18.185v5.2h-18.584v-5.2h-18.185v5.2h-18.585v-5.2h-18.184v5.2h-18.585v-5.2h-18.185v5.2H759.27v-5.2h-18.185v5.2h-18.584v-5.2h-13.185v-10.2" style="vector-effect:non-scaling-stroke;stroke-width:.264583;stroke-dasharray:none;-inkscape-stroke:hairline" transform="rotate(-90 616.9 606.776)"/>
</svg>
