Cleat Wall Organization Equipment
Copyright (C) 2025  Corporate Hacks

This program is free software: you can redistribute it and/or modify
it under the terms of the GNU General Public License as published by
the Free Software Foundation, either version 3 of the License, or
(at your option) any later version.

This program is distributed in the hope that it will be useful,
but WITHOUT ANY WARRANTY; without even the implied warranty of
MERCHANTABILITY or FITNESS FOR A PARTICULAR PURPOSE.  See the
GNU General Public License for more details.

You should have received a copy of the GNU General Public License
along with this program.  If not, see <http://www.gnu.org/licenses/>.


<svg xmlns="http://www.w3.org/2000/svg" width="1300mm" height="900mm" viewBox="0 0 1300 900">
    <path fill="none" stroke="#000" stroke-width=".1mm" d="M519.427 583.65v-10.583h-5.2v-10.784h5.2V551.9h-5.2v-10.783h5.2v-10.384h-5.2V519.95h5.2v-10.383h-5.2v-10.784h5.2V488.2h13.135v5.2h12.736v-5.2H558.4l2.041 4.927-14.264 14.264v5.059h10.686v-5.2h11.085v5.2h10.686v-5.2h11.086v5.2h10.686v-5.2h11.085v5.2h11.082l-93.012 71.2h-10.134" style="vector-effect:non-scaling-stroke;stroke-width:.264583;stroke-dasharray:none;-inkscape-stroke:hairline" transform="rotate(-90 510.728 444.378)"/>
    <path fill="none" stroke="#000" stroke-width=".1mm" d="m607.239 411.8-93.012-71.2h11.082v-5.2h11.085v5.2h10.686v-5.2h11.086v5.2h10.686v-5.2h11.085v5.2h10.686v-5.059l-14.264-14.264 2.041-4.927h13.102v5.2h12.736v-5.2h13.135v10.583h5.2v10.784h-5.2V348.1h5.2v10.783h-5.2v10.384h5.2v10.783h-5.2v10.383h5.2v10.784h-5.2V411.8h-10.134" style="vector-effect:non-scaling-stroke;stroke-width:.264583;stroke-dasharray:none;-inkscape-stroke:hairline" transform="rotate(-90 620.872 287.222)"/>
    <path fill="none" stroke="#000" stroke-width=".1mm" d="M519.427 583.65v-10.583h-5.2v-10.784h5.2V551.9h-5.2v-10.783h5.2v-10.384h-5.2V519.95h5.2v-10.383h-5.2v-10.784h5.2V488.2h13.135v5.2h12.736v-5.2H558.4l2.041 4.927-14.264 14.264v5.059h10.686v-5.2h11.085v5.2h10.686v-5.2h11.086v5.2h10.686v-5.2h11.085v5.2h11.082l-93.012 71.2h-10.134" style="vector-effect:non-scaling-stroke;stroke-width:.264583;stroke-dasharray:none;-inkscape-stroke:hairline" transform="rotate(90 683.453 454.747)"/>
    <path fill="none" stroke="#000" stroke-width=".1mm" d="m607.239 411.8-93.012-71.2h11.082v-5.2h11.085v5.2h10.686v-5.2h11.086v5.2h10.686v-5.2h11.085v5.2h10.686v-5.059l-14.264-14.264 2.041-4.927h13.102v5.2h12.736v-5.2h13.135v10.583h5.2v10.784h-5.2V348.1h5.2v10.783h-5.2v10.384h5.2v10.783h-5.2v10.383h5.2v10.784h-5.2V411.8h-10.134" style="vector-effect:non-scaling-stroke;stroke-width:.264583;stroke-dasharray:none;-inkscape-stroke:hairline" transform="rotate(90 621.747 440.053)"/>
    <path fill="none" stroke="#000" stroke-width=".1mm" d="M514.227 488.2v-11.086h5.2v-10.685h-5.2v-11.086h5.2v-10.686h-5.2v-11.086h5.2v-10.685h-5.2V411.8h86.8v11.086h-5.2v10.685h5.2v11.086h-5.2v10.686h5.2v11.086h-5.2v10.685h5.2V488.2h-86.8" style="vector-effect:non-scaling-stroke;stroke-width:.264583;stroke-dasharray:none;-inkscape-stroke:hairline" transform="rotate(90 570.013 496.665)"/>
    <path fill="none" stroke="#000" stroke-width=".1mm" d="M622.573 411.8v-10.783h5.2v-10.384h-5.2V379.85h5.2v-10.383h-5.2v-10.784h5.2V348.3h-5.2v-10.783h5.2v-10.384h-5.2V316.35h9.822v5.2h9.422v-5.2h9.823v5.2h9.422v-5.2h9.822v5.2h9.422v-5.2h9.823v5.2h9.422v-5.2h9.822v10.783h-5.2v10.384h5.2V348.3h-5.2v10.383h5.2v10.784h-5.2v10.383h5.2v10.783h-5.2v10.384h5.2V411.8h-9.822v-5.2h-9.422v5.2h-9.823v-5.2h-9.422v5.2h-9.822v-5.2h-9.422v5.2h-9.823v-5.2h-9.422v5.2h-9.822" style="vector-effect:non-scaling-stroke;stroke-width:.264583;stroke-dasharray:none;-inkscape-stroke:hairline" transform="rotate(90 631.886 450.192)"/>
    <path fill="none" stroke="#000" stroke-width=".1mm" d="M627.773 539.444h76.4v12.935h5.2v13.136h-5.2v12.935h-4.422v5.2h-9.822v-5.2h-9.423v5.2h-9.822v-5.2h-9.422v5.2h-9.822v-5.2h-9.423v5.2h-9.822v-5.2h-4.422v-12.935h-5.2v-13.136h5.2v-12.935" style="vector-effect:non-scaling-stroke;stroke-width:.264583;stroke-dasharray:none;-inkscape-stroke:hairline" transform="rotate(90 649.808 468.114)"/>
    <path fill="none" stroke="#000" stroke-width=".1mm" d="M709.373 568.25h76.4v10.2h-4.422v5.2h-9.822v-5.2h-9.423v5.2h-9.822v-5.2h-9.422v5.2h-9.822v-5.2h-9.423v5.2h-9.822v-5.2h-4.422v-10.2" style="vector-effect:non-scaling-stroke;stroke-width:.264583;stroke-dasharray:none;-inkscape-stroke:hairline" transform="rotate(-90 659.24 572.612)"/>
    <path fill="none" stroke="#000" stroke-width=".1mm" d="M514.227 488.2v-11.086h5.2v-10.685h-5.2v-11.086h5.2v-10.686h-5.2v-11.086h5.2v-10.685h-5.2V411.8h86.8v11.086h-5.2v10.685h5.2v11.086h-5.2v10.686h5.2v11.086h-5.2v10.685h5.2V488.2h-86.8" style="vector-effect:non-scaling-stroke;stroke-width:.264583;stroke-dasharray:none;-inkscape-stroke:hairline" transform="rotate(90 526.613 540.065)"/>
    <path fill="none" stroke="#000" stroke-width=".1mm" d="M622.573 411.8v-10.783h5.2v-10.384h-5.2V379.85h5.2v-10.383h-5.2v-10.784h5.2V348.3h-5.2v-10.783h5.2v-10.384h-5.2V316.35h9.822v5.2h9.422v-5.2h9.823v5.2h9.422v-5.2h9.822v5.2h9.422v-5.2h9.823v5.2h9.422v-5.2h9.822v10.783h-5.2v10.384h5.2V348.3h-5.2v10.383h5.2v10.784h-5.2v10.383h5.2v10.783h-5.2v10.384h5.2V411.8h-9.822v-5.2h-9.422v5.2h-9.823v-5.2h-9.422v5.2h-9.822v-5.2h-9.422v5.2h-9.823v-5.2h-9.422v5.2h-9.822" style="vector-effect:non-scaling-stroke;stroke-width:.264583;stroke-dasharray:none;-inkscape-stroke:hairline" transform="rotate(90 588.486 493.592)"/>
    <path fill="none" stroke="#000" stroke-width=".1mm" d="M627.773 539.444h76.4v12.935h5.2v13.136h-5.2v12.935h-4.422v5.2h-9.822v-5.2h-9.423v5.2h-9.822v-5.2h-9.422v5.2h-9.822v-5.2h-9.423v5.2h-9.822v-5.2h-4.422v-12.935h-5.2v-13.136h5.2v-12.935" style="vector-effect:non-scaling-stroke;stroke-width:.264583;stroke-dasharray:none;-inkscape-stroke:hairline" transform="rotate(90 606.408 511.514)"/>
    <path fill="none" stroke="#000" stroke-width=".1mm" d="M709.373 568.25h76.4v10.2h-4.422v5.2h-9.822v-5.2h-9.423v5.2h-9.822v-5.2h-9.422v5.2h-9.822v-5.2h-9.423v5.2h-9.822v-5.2h-4.422v-10.2" style="vector-effect:non-scaling-stroke;stroke-width:.264583;stroke-dasharray:none;-inkscape-stroke:hairline" transform="rotate(-90 702.64 616.012)"/>
</svg>
