<!--
Cleat Wall Organization Equipment
Copyright (C) 2025  Corporate Hacks

This program is free software: you can redistribute it and/or modify
it under the terms of the GNU General Public License as published by
the Free Software Foundation, either version 3 of the License, or
(at your option) any later version.

This program is distributed in the hope that it will be useful,
but WITHOUT ANY WARRANTY; without even the implied warranty of
MERCHANTABILITY or FITNESS FOR A PARTICULAR PURPOSE.  See the
GNU General Public License for more details.

You should have received a copy of the GNU General Public License
along with this program.  If not, see <http://www.gnu.org/licenses/>.
-->

<svg xmlns="http://www.w3.org/2000/svg" width="1300mm" height="900mm" viewBox="0 0 1300 900">
    <path fill="none" stroke="#000" stroke-width=".1mm" d="M428.24 548.525 335.45 375.85v-5.325h11.086v5.2h10.685v-5.2h11.086v5.2h10.686v-5.2h11.086v5.2h10.685v-5.2h10.745l-14.123-14.123 2.041-4.927h13.102v5.2h12.736v-5.2H438.4v17.895h5.2v18.096h-5.2v17.695h5.2v18.096h-5.2v17.695h5.2v18.096h-5.2v17.695h5.2v18.096h-5.2v17.695h5.2v18.096h-5.2v17.895h-10.16M448.8 548.525V530.63h-5.2v-18.096h5.2v-17.695h-5.2v-18.096h5.2v-17.695h-5.2v-18.096h5.2v-17.695h-5.2v-18.096h5.2v-17.695h-5.2V369.37h5.2v-17.895h13.135v5.2h12.736v-5.2h13.102l2.041 4.927-14.123 14.123h10.745v5.2h10.685v-5.2h11.086v5.2h10.686v-5.2h11.086v5.2h10.685v-5.2h11.086v5.325l-92.79 172.675H448.8" style="vector-effect:non-scaling-stroke;stroke-width:.264583;stroke-dasharray:none;-inkscape-stroke:hairline" transform="translate(274.208 -98.525)"/>
    <path fill="none" stroke="#000" stroke-width=".1mm" d="M428.24 548.525 335.45 375.85v-5.325h11.086v5.2h10.685v-5.2h11.086v5.2h10.686v-5.2h11.086v5.2h10.685v-5.2h10.745l-14.123-14.123 2.041-4.927h13.102v5.2h12.736v-5.2H438.4v17.895h5.2v18.096h-5.2v17.695h5.2v18.096h-5.2v17.695h5.2v18.096h-5.2v17.695h5.2v18.096h-5.2v17.695h5.2v18.096h-5.2v17.895h-10.16" style="vector-effect:non-scaling-stroke;stroke-width:.264583;stroke-dasharray:none;-inkscape-stroke:hairline" transform="rotate(180 512.4 400.737)"/>
    <path fill="none" stroke="#000" stroke-width=".1mm" d="M448.8 548.525V530.63h-5.2v-18.096h5.2v-17.695h-5.2v-18.096h5.2v-17.695h-5.2v-18.096h5.2v-17.695h-5.2v-18.096h5.2v-17.695h-5.2V369.37h5.2v-17.895h13.135v5.2h12.736v-5.2h13.102l2.041 4.927-14.123 14.123h10.745v5.2h10.685v-5.2h11.086v5.2h10.686v-5.2h11.086v5.2h10.685v-5.2h11.086v5.325l-92.79 172.675H448.8" style="vector-effect:non-scaling-stroke;stroke-width:.264583;stroke-dasharray:none;-inkscape-stroke:hairline" transform="rotate(180 649.008 400.737)"/>
    <path d="m610.586 633.892-.075-.211-.055-.218-.032-.221-.011-.225v-1.584l.011-.225.032-.221.055-.218.075-.211.096-.202.115-.192.133-.18.151-.166.166-.15.18-.134.191-.115.202-.095.212-.075.217-.055.221-.033.226-.011h55.558l.226.011.221.033.217.055.212.075.202.095.191.115.18.134.166.15.151.166.133.18.115.192.096.202.075.211.055.218.032.221.012.226v1.582l-.012.226-.032.221-.055.218-.075.211-.096.202-.115.192-.133.18-.151.166-.166.15-.18.134-.191.115-.202.095-.212.075-.217.055-.221.033-.226.011h-55.558l-.226-.011-.221-.033-.217-.055-.212-.075-.202-.095-.191-.115-.18-.134-.166-.15-.151-.166-.133-.18-.115-.192-.096-.202M581.2 647.05v-18.095h5.2v-17.696h-5.2v-18.095h5.2v-17.696h-5.2v-18.095h5.2v-17.696h-5.2v-18.095h5.2v-17.696h-5.2v-18.095h5.2v-17.696h-5.2V450h15.467v5.2h15.066V450H627.2v5.2h15.067V450h15.466v5.2H672.8V450h15.467v5.2h15.066V450H718.8v18.095h-5.2v17.696h5.2v18.095h-5.2v17.696h5.2v18.095h-5.2v17.696h5.2v18.095h-5.2v17.696h5.2v18.095h-5.2v17.696h5.2v18.095h-15.467v-5.2h-15.066v5.2H672.8v-5.2h-15.067v5.2h-15.466v-5.2H627.2v5.2h-15.467v-5.2h-15.066v5.2H581.2M748.186 633.892l-.075-.211-.055-.218-.032-.221-.011-.225v-1.584l.011-.225.032-.221.055-.218.075-.211.096-.202.115-.192.133-.18.151-.166.166-.15.18-.134.191-.115.202-.095.212-.075.217-.055.221-.033.226-.011h55.558l.226.011.221.033.217.055.212.075.202.095.191.115.18.134.166.15.151.166.133.18.115.192.096.202.075.211.055.218.032.221.012.226v1.582l-.012.226-.032.221-.055.218-.075.211-.096.202-.115.192-.133.18-.151.166-.166.15-.18.134-.191.115-.202.095-.212.075-.217.055-.221.033-.226.011h-55.558l-.226-.011-.221-.033-.217-.055-.212-.075-.202-.095-.191-.115-.18-.134-.166-.15-.151-.166-.133-.18-.115-.192-.096-.202M718.8 647.05v-18.095h5.2v-17.696h-5.2v-18.095h5.2v-17.696h-5.2v-18.095h5.2v-17.696h-5.2v-18.095h5.2v-17.696h-5.2v-18.095h5.2v-17.696h-5.2V450h15.467v5.2h15.066V450H764.8v5.2h15.067V450h15.466v5.2H810.4V450h15.467v5.2h15.066V450H856.4v18.095h-5.2v17.696h5.2v18.095h-5.2v17.696h5.2v18.095h-5.2v17.696h5.2v18.095h-5.2v17.696h5.2v18.095h-5.2v17.696h5.2v18.095h-15.467v-5.2h-15.066v5.2H810.4v-5.2h-15.067v5.2h-15.466v-5.2H764.8v5.2h-15.467v-5.2h-15.066v5.2H718.8" style="vector-effect:non-scaling-stroke;fill:none;stroke:#000;stroke-width:.264583;-inkscape-stroke:hairline"/>
    <path fill="none" stroke="#000" stroke-width=".1mm" d="M689.35 533.125h127.2v10.2h-10.067v5.2h-15.466v-5.2H775.95v5.2h-15.467v-5.2h-15.066v5.2H729.95v-5.2h-15.067v5.2h-15.466v-5.2H689.35v-10.2" style="vector-effect:non-scaling-stroke;stroke-width:.264583;stroke-dasharray:none;-inkscape-stroke:hairline" transform="translate(-240.55 -158.087)"/>
    <path fill="none" stroke="#000" stroke-width=".1mm" d="M694.55 533.125v-10.886h-5.2v-11.085h5.2v-10.686h-5.2v-11.086h5.2v-10.686h-5.2v-11.085h5.2v-10.886h127.2v10.886h5.2v11.085h-5.2v10.686h5.2v11.086h-5.2v10.686h5.2v11.085h-5.2v10.886h-127.2" style="vector-effect:non-scaling-stroke;stroke-width:.264583;stroke-dasharray:none;-inkscape-stroke:hairline" transform="translate(-245.75 113.925)"/>
    <path fill="none" stroke="#000" stroke-width=".1mm" d="M826.95 514.99v-13.136h5.2v-12.935h127.2v12.935h5.2v13.136h-5.2v12.935h-10.067v5.2h-15.466v-5.2H918.75v5.2h-15.467v-5.2h-15.066v5.2H872.75v-5.2h-15.067v5.2h-15.466v-5.2H832.15V514.99h-5.2" style="vector-effect:non-scaling-stroke;stroke-width:.264583;stroke-dasharray:none;-inkscape-stroke:hairline" transform="translate(-383.35 -54.275)"/>
    <path fill="none" stroke="#000" stroke-width=".1mm" d="M689.35 533.125h127.2v10.2h-10.067v5.2h-15.466v-5.2H775.95v5.2h-15.467v-5.2h-15.066v5.2H729.95v-5.2h-15.067v5.2h-15.466v-5.2H689.35v-10.2" style="vector-effect:non-scaling-stroke;stroke-width:.264583;stroke-dasharray:none;-inkscape-stroke:hairline" transform="rotate(180 632.675 513.688)"/>
    <path fill="none" stroke="#000" stroke-width=".1mm" d="M694.55 533.125v-10.886h-5.2v-11.085h5.2v-10.686h-5.2v-11.086h5.2v-10.686h-5.2v-11.085h5.2v-10.886h127.2v10.886h5.2v11.085h-5.2v10.686h5.2v11.086h-5.2v10.686h5.2v11.085h-5.2v10.886h-127.2" style="vector-effect:non-scaling-stroke;stroke-width:.264583;stroke-dasharray:none;-inkscape-stroke:hairline" transform="rotate(180 635.275 513.688)"/>
    <path fill="none" stroke="#000" stroke-width=".1mm" d="M826.95 514.99v-13.136h5.2v-12.935h127.2v12.935h5.2v13.136h-5.2v12.935h-10.067v5.2h-15.466v-5.2H918.75v5.2h-15.467v-5.2h-15.066v5.2H872.75v-5.2h-15.067v5.2h-15.466v-5.2H832.15V514.99h-5.2" style="vector-effect:non-scaling-stroke;stroke-width:.264583;stroke-dasharray:none;-inkscape-stroke:hairline" transform="rotate(180 704.075 461.781)"/>
</svg>
