Cleat Wall Organization Equipment
Copyright (C) 2025  Corporate Hacks

This program is free software: you can redistribute it and/or modify
it under the terms of the GNU General Public License as published by
the Free Software Foundation, either version 3 of the License, or
(at your option) any later version.

This program is distributed in the hope that it will be useful,
but WITHOUT ANY WARRANTY; without even the implied warranty of
MERCHANTABILITY or FITNESS FOR A PARTICULAR PURPOSE.  See the
GNU General Public License for more details.

You should have received a copy of the GNU General Public License
along with this program.  If not, see <http://www.gnu.org/licenses/>.


<svg xmlns="http://www.w3.org/2000/svg" width="1300mm" height="900mm" viewBox="0 0 1300 900">
    <path fill="none" stroke="#000" stroke-width=".1mm" d="M229.887 724.326v-7.28h-5.2v-7.48h5.2v-7.08h-5.2v-7.48h5.2v-7.28h22.009v5.2h26.809v-5.2h27.209v5.2h26.809v-5.2h27.209v5.2h26.81v-5.2h27.209v5.2h26.809v-5.2h27.209v5.2h26.809v-5.2h22.009v7.28h5.2v7.48h-5.2v7.08h5.2v7.48h-5.2v7.28h-22.009v-5.2h-26.809v5.2H440.76v-5.2h-26.809v5.2h-27.209v-5.2h-26.81v5.2h-27.209v-5.2h-26.809v5.2h-27.209v-5.2h-26.809v5.2h-22.009" style="vector-effect:non-scaling-stroke;stroke-width:.264583;stroke-dasharray:none;-inkscape-stroke:hairline" transform="rotate(90 733.475 938.151)"/>
    <path d="m537.958 668.094-.337-.371-.298-.402-.257-.428-.213-.453-.169-.471-.122-.485-.073-.496-.025-.502V450.265l.025-.501.073-.496.122-.485.169-.471.213-.453.257-.428.298-.402.337-.371.371-.337.402-.298.429-.258.452-.213.472-.169.485-.122.495-.072.503-.026h255.494l.503.026.495.072.485.122.472.169.452.213.429.258.402.298.371.337.337.371.298.402.257.428.214.453.168.471.122.485.073.496.025.501v214.221l-.025.502-.073.496-.122.485-.168.471-.214.453-.257.428-.298.402-.337.371-.371.337-.402.298-.429.257-.452.215-.472.168-.485.122-.495.072-.502.025H541.566l-.502-.025-.495-.072-.485-.122-.472-.168-.452-.215-.429-.257-.402-.298-.371-.337m-12.094 12.094v-22.311h-5.2v-22.511h5.2v-22.112h-5.2v-22.511h5.2v-22.111h-5.2V546.12h5.2v-22.111h-5.2v-22.511h5.2v-22.112h-5.2v-22.511h5.2v-22.312h21.809v-5.2h27.209v5.2h26.809v-5.2H628.9v5.2h26.809v-5.2h27.21v5.2h26.809v-5.2h27.209v5.2h26.809v-5.2h27.209v5.2h21.809v22.312h5.2v22.511h-5.2v22.112h5.2v22.511h-5.2v22.111h5.2v22.512h-5.2v22.111h5.2v22.511h-5.2v22.112h5.2v22.511h-5.2v22.311h-21.809v5.201h-27.209v-5.201h-26.809v5.201h-27.209v-5.201h-26.809v5.201h-27.21v-5.201H628.9v5.201h-27.209v-5.201h-26.809v5.201h-27.209v-5.201h-21.809" style="vector-effect:non-scaling-stroke;fill:none;stroke:#000;stroke-width:.264583;stroke-dasharray:none;-inkscape-stroke:hairline"/>
    <path fill="none" stroke="#000" stroke-width=".1mm" d="M251.696 431.7v-5.201h-21.809v-22.311h-5.2v-22.511h5.2v-22.112h-5.2v-22.511h5.2v-22.111h-5.2v-22.512h5.2V270.32h-5.2v-22.511h5.2v-22.112h-5.2v-22.511h5.2v-22.312h21.809v-5.2h27.209v5.2h26.809v-5.2h27.209v5.2h26.809v-5.2h27.21v5.2h26.809v-5.2h27.209v5.2h26.809v-5.2h27.209v5.2h21.809v22.312h5.2v22.511h-5.2v22.112h5.2v22.511h-5.2v22.111h5.2v22.512h-5.2v22.111h5.2v22.511h-5.2v22.112h5.2v22.511h-5.2v22.311h-21.809v5.201h-27.209v-5.201H440.96v5.201h-27.209v-5.201h-26.809v5.201h-27.21v-5.201h-26.809v5.201h-27.209v-5.201h-26.809v5.201h-27.209" style="vector-effect:non-scaling-stroke;stroke-width:.264583;stroke-dasharray:none;-inkscape-stroke:hairline" transform="translate(295.977 -2.337)"/>
    <path d="m240.658 668.094-.337-.371-.298-.402-.257-.428-.213-.453-.169-.471-.122-.485-.073-.496-.025-.502V450.265l.025-.501.073-.496.122-.485.169-.471.213-.453.257-.428.298-.402.337-.371.371-.337.402-.298.429-.258.452-.213.472-.169.485-.122.495-.072.503-.026h255.494l.503.026.495.072.485.122.472.169.452.213.429.258.402.298.371.337.337.371.298.402.257.428.214.453.168.471.122.485.073.496.025.501v214.221l-.025.502-.073.496-.122.485-.168.471-.214.453-.257.428-.298.402-.337.371-.371.337-.402.298-.429.257-.452.215-.472.168-.485.122-.495.072-.502.025H244.266l-.502-.025-.495-.072-.485-.122-.472-.168-.452-.215-.429-.257-.402-.298-.371-.337m-12.094 12.094v-22.311h-5.2v-22.511h5.2v-22.112h-5.2v-22.511h5.2v-22.111h-5.2V546.12h5.2v-22.111h-5.2v-22.511h5.2v-22.112h-5.2v-22.511h5.2v-22.312h21.809v-5.2h27.209v5.2h26.809v-5.2H331.6v5.2h26.809v-5.2h27.21v5.2h26.809v-5.2h27.209v5.2h26.809v-5.2h27.209v5.2h21.809v22.312h5.2v22.511h-5.2v22.112h5.2v22.511h-5.2v22.111h5.2v22.512h-5.2v22.111h5.2v22.511h-5.2v22.112h5.2v22.511h-5.2v22.311h-21.809v5.201h-27.209v-5.201h-26.809v5.201h-27.209v-5.201h-26.809v5.201h-27.21v-5.201H331.6v5.201h-27.209v-5.201h-26.809v5.201h-27.209v-5.201h-21.809" style="vector-effect:non-scaling-stroke;fill:none;stroke:#000;stroke-width:.264583;stroke-dasharray:none;-inkscape-stroke:hairline"/>
    <path fill="none" stroke="#000" stroke-width=".1mm" d="M251.696 431.7v-5.201h-21.809v-22.311h-5.2v-22.511h5.2v-22.112h-5.2v-22.511h5.2v-22.111h-5.2v-22.512h5.2V270.32h-5.2v-22.511h5.2v-22.112h-5.2v-22.511h5.2v-22.312h21.809v-5.2h27.209v5.2h26.809v-5.2h27.209v5.2h26.809v-5.2h27.21v5.2h26.809v-5.2h27.209v5.2h26.809v-5.2h27.209v5.2h21.809v22.312h5.2v22.511h-5.2v22.112h5.2v22.511h-5.2v22.111h5.2v22.512h-5.2v22.111h5.2v22.511h-5.2v22.112h5.2v22.511h-5.2v22.311h-21.809v5.201h-27.209v-5.201H440.96v5.201h-27.209v-5.201h-26.809v5.201h-27.21v-5.201h-26.809v5.201h-27.209v-5.201h-26.809v5.201h-27.209" style="vector-effect:non-scaling-stroke;stroke-width:.264583;stroke-dasharray:none;-inkscape-stroke:hairline" transform="translate(-1.323 -2.337)"/>
    <path d="M947.017 245.672v22.111h-5v-22.111h5m.2-72.335v27.712h-5.2v22.111h5v-7.635h5.721l13.67 13.67h-5.341v18.446h5.2v18.845h-5.2v18.445h5.603l-5.33 2.208-14.123-14.123v17.278h-5.2v22.112h5.2v22.511h-5.2v22.111h5.2v22.512h-5.2v22.111h5.2v27.712h-7.48v-5.2h-7.08v5.2h-7.48v-5.2h-7.08v5.2h-7.48v-27.712h5.2V379.54h-5.2v-22.512h5.2v-22.111h-5.2v-22.511h5.2v-22.112h-5.2v-22.511h5.2v-22.111h-5.2V223.16h5.2v-22.111h-5.2v-27.712h7.48v5.201h7.08v-5.201h7.48v5.201h7.08v-5.201h7.48" style="vector-effect:non-scaling-stroke;fill:none;stroke:#000;stroke-width:.264583;stroke-dasharray:none;-inkscape-stroke:hairline"/>
    <path fill="none" stroke="#000" stroke-width=".1mm" d="M521.987 631.59h297.3v18.845h-5.2v18.446h5.2v18.845h-297.3v-18.845h5.2v-18.446h-5.2V631.59" style="vector-effect:non-scaling-stroke;stroke-width:.264583;stroke-dasharray:none;-inkscape-stroke:hairline" transform="rotate(90 900.425 807.801)"/>
    <path fill="none" stroke="#000" stroke-width=".1mm" d="M527.187 687.726h22.009v5.2h26.809v-5.2h27.209v5.2h26.809v-5.2h27.209v5.2h26.81v-5.2h27.209v5.2h26.809v-5.2h27.209v5.2h26.809v-5.2h22.009v7.28h5.2v7.48h-5.2v7.08h5.2v7.48h-5.2v7.28h-22.009v-5.2h-26.809v5.2H738.06v-5.2h-26.809v5.2h-27.209v-5.2h-26.81v5.2h-27.209v-5.2h-26.809v5.2h-27.209v-5.2h-26.809v5.2h-22.009v-7.28h-5.2v-7.48h5.2v-7.08h-5.2v-7.48h5.2v-7.28" style="vector-effect:non-scaling-stroke;stroke-width:.264583;stroke-dasharray:none;-inkscape-stroke:hairline" transform="rotate(90 900.425 807.801)"/>
    <path d="M849.364 334.917h5v22.111h-5v-22.111m-31.4-161.58h7.48v5.2h7.08v-5.2h7.48v5.2h7.08v-5.2h7.48v27.712h-5.2v22.111h5.2v22.512h-5.2v22.111h5.2v22.511h-5.2v22.112h5.2v17.278l14.123-14.123 5.33 2.208h-5.603v18.445h5.2v18.845h-5.2v18.446h5.341l-13.67 13.67h-5.721v-7.635h-5v22.111h5.2v27.712h-7.48v-5.201h-7.08v5.201h-7.48v-5.201h-7.08v5.201h-7.48v-27.712h5.2V379.54h-5.2v-22.512h5.2v-22.111h-5.2v-22.511h5.2v-22.112h-5.2v-22.511h5.2v-22.111h-5.2V223.16h5.2v-22.111h-5.2v-27.712" style="vector-effect:non-scaling-stroke;fill:none;stroke:#000;stroke-width:.264583;stroke-dasharray:none;-inkscape-stroke:hairline"/>
    <path fill="none" stroke="#000" stroke-width=".1mm" d="M229.887 724.326v-7.28h-5.2v-7.48h5.2v-7.08h-5.2v-7.48h5.2v-7.28h22.009v5.2h26.809v-5.2h27.209v5.2h26.809v-5.2h27.209v5.2h26.81v-5.2h27.209v5.2h26.809v-5.2h27.209v5.2h26.809v-5.2h22.009v7.28h5.2v7.48h-5.2v7.08h5.2v7.48h-5.2v7.28h-22.009v-5.2h-26.809v5.2H440.76v-5.2h-26.809v5.2h-27.209v-5.2h-26.81v5.2h-27.209v-5.2h-26.809v5.2h-27.209v-5.2h-26.809v5.2h-22.009" style="vector-effect:non-scaling-stroke;stroke-width:.264583;stroke-dasharray:none;-inkscape-stroke:hairline" transform="rotate(-90 587.162 364.188)"/>
    <path d="M966.87 357.028v-22.111h5v22.111h-5m-.2 72.335v-27.712h5.2V379.54h-5v7.635h-5.721l-13.67-13.67h5.341v-18.446h-5.2v-18.845h5.2v-18.445h-5.603l5.33-2.208 14.123 14.123v-17.278h5.2v-22.112h-5.2v-22.511h5.2v-22.111h-5.2V223.16h5.2v-22.111h-5.2v-27.712h7.48v5.2h7.08v-5.2h7.48v5.2h7.08v-5.2h7.48v27.712h-5.2v22.111h5.2v22.512h-5.2v22.111h5.2v22.511h-5.2v22.112h5.2v22.511h-5.2v22.111h5.2v22.512h-5.2v22.111h5.2v27.712h-7.48v-5.201h-7.08v5.201h-7.48v-5.201h-7.08v5.201h-7.48" style="vector-effect:non-scaling-stroke;fill:none;stroke:#000;stroke-width:.264583;stroke-dasharray:none;-inkscape-stroke:hairline"/>
    <path fill="none" stroke="#000" stroke-width=".1mm" d="M521.987 631.59h297.3v18.845h-5.2v18.446h5.2v18.845h-297.3v-18.845h5.2v-18.446h-5.2V631.59" style="vector-effect:non-scaling-stroke;stroke-width:.264583;stroke-dasharray:none;-inkscape-stroke:hairline" transform="rotate(-90 717.512 531.138)"/>
    <path fill="none" stroke="#000" stroke-width=".1mm" d="M527.187 687.726h22.009v5.2h26.809v-5.2h27.209v5.2h26.809v-5.2h27.209v5.2h26.81v-5.2h27.209v5.2h26.809v-5.2h27.209v5.2h26.809v-5.2h22.009v7.28h5.2v7.48h-5.2v7.08h5.2v7.48h-5.2v7.28h-22.009v-5.2h-26.809v5.2H738.06v-5.2h-26.809v5.2h-27.209v-5.2h-26.81v5.2h-27.209v-5.2h-26.809v5.2h-27.209v-5.2h-26.809v5.2h-22.009v-7.28h-5.2v-7.48h5.2v-7.08h-5.2v-7.48h5.2v-7.28" style="vector-effect:non-scaling-stroke;stroke-width:.264583;stroke-dasharray:none;-inkscape-stroke:hairline" transform="rotate(-90 717.512 531.138)"/>
    <path d="M879.217 267.783h-5v-22.111h5v22.111m31.4 161.58h-7.48v-5.2h-7.08v5.2h-7.48v-5.2h-7.08v5.2h-7.48v-27.712h5.2V379.54h-5.2v-22.512h5.2v-22.111h-5.2v-22.511h5.2v-22.112h-5.2v-17.278l-14.123 14.123-5.33-2.208h5.603v-18.445h-5.2v-18.845h5.2v-18.446h-5.341l13.67-13.67h5.721v7.635h5v-22.111h-5.2v-27.712h7.48v5.201h7.08v-5.201h7.48v5.201h7.08v-5.201h7.48v27.712h-5.2v22.111h5.2v22.512h-5.2v22.111h5.2v22.511h-5.2v22.112h5.2v22.511h-5.2v22.111h5.2v22.512h-5.2v22.111h5.2v27.712" style="vector-effect:non-scaling-stroke;fill:none;stroke:#000;stroke-width:.264583;stroke-dasharray:none;-inkscape-stroke:hairline"/>
    <path d="m1338.001 657.625-.203-.223-.18-.244-.155-.258-.129-.272-.101-.285-.074-.293-.044-.298-.015-.303V490.178l.015-.304.044-.298.074-.293.101-.285.129-.272.155-.258.18-.244.203-.223.223-.203.243-.179.258-.156.273-.128.284-.102.293-.073.299-.044.303-.015h206.546l.303.015.299.044.293.073.284.102.273.128.258.156.243.179.223.203.203.223.18.244.155.258.129.272.101.285.074.293.044.298.015.304v165.271l-.015.303-.044.298-.074.293-.101.285-.129.272-.155.258-.18.244-.203.223-.223.203-.243.179-.258.156-.273.128-.284.102-.293.074-.299.043-.304.016h-206.544l-.304-.016-.299-.043-.293-.074-.284-.102-.273-.128-.258-.156-.243-.179-.223-.203M1300 695.626V450h286.9v245.626H1300M1338.001 411.999l-.203-.223-.18-.244-.155-.258-.129-.272-.101-.285-.074-.293-.044-.298-.015-.303V244.552l.015-.304.044-.298.074-.293.101-.285.129-.272.155-.258.18-.244.203-.223.223-.203.243-.179.258-.156.273-.128.284-.102.293-.073.299-.044.303-.015h206.546l.303.015.299.044.293.073.284.102.273.128.258.156.243.179.223.203.203.223.18.244.155.258.129.272.101.285.074.293.044.298.015.304v165.271l-.015.303-.044.298-.074.293-.101.285-.129.272-.155.258-.18.244-.203.223-.223.203-.243.179-.258.156-.273.128-.284.102-.293.074-.299.043-.304.016h-206.544l-.304-.016-.299-.043-.293-.074-.284-.102-.273-.128-.258-.156-.243-.179-.223-.203M1300 450V204.374h286.9V450H1300M1586.9 695.626V450h286.9v245.626h-286.9M1586.9 450V204.374h286.9V450h-286.9" style="vector-effect:non-scaling-stroke;fill:none;stroke:red;stroke-width:.264583;-inkscape-stroke:hairline"/>
</svg>
