<!--
Cleat Wall Organization Equipment
Copyright (C) 2025  Corporate Hacks

This program is free software: you can redistribute it and/or modify
it under the terms of the GNU General Public License as published by
the Free Software Foundation, either version 3 of the License, or
(at your option) any later version.

This program is distributed in the hope that it will be useful,
but WITHOUT ANY WARRANTY; without even the implied warranty of
MERCHANTABILITY or FITNESS FOR A PARTICULAR PURPOSE.  See the
GNU General Public License for more details.

You should have received a copy of the GNU General Public License
along with this program.  If not, see <http://www.gnu.org/licenses/>.
-->

<svg xmlns="http://www.w3.org/2000/svg" width="1300mm" height="900mm" viewBox="0 0 1300 900">
    <path d="M1300 450v226.575h221.812V450zm39.178 36.1h143.456l.304.015.3.045.292.072.284.102.273.129.258.156.243.179.223.202.204.224.18.243.154.259.13.272.101.284.073.293.044.298.015.304v148.22l-.015.305-.044.298-.073.293-.1.284-.13.272-.156.259-.179.243-.204.224-.223.202-.243.179-.258.156-.273.13-.284.1-.292.073-.3.045-.304.016h-143.456l-.304-.016-.3-.045-.292-.072-.284-.102-.273-.13-.258-.155-.243-.179-.223-.202-.204-.224-.179-.243-.155-.26-.13-.27-.1-.285-.074-.293-.044-.298-.015-.305v-148.22l.015-.304.044-.298.073-.293.101-.284.13-.272.155-.259.18-.243.203-.224.223-.202.243-.179.258-.156.273-.13.284-.101.292-.072.3-.045zM1521.812 450V223.425H1300V450zm-39.178-36.1h-143.456l-.304-.015-.3-.045-.292-.072-.284-.102-.273-.13-.258-.155-.243-.179-.223-.202-.204-.224-.18-.243-.154-.26-.13-.27-.101-.285-.073-.293-.044-.298-.015-.304v-148.22l.015-.305.044-.298.073-.293.101-.284.13-.272.155-.259.18-.243.203-.224.223-.202.243-.179.258-.156.273-.13.284-.1.292-.073.3-.045.304-.016h143.456l.304.016.3.045.292.072.284.102.273.13.258.155.243.179.223.202.204.224.179.243.155.26.13.27.1.285.074.293.044.298.015.305v148.22l-.015.304-.044.298-.073.293-.1.284-.131.272-.155.259-.179.243-.204.224-.223.202-.243.179-.258.156-.273.13-.284.101-.292.072-.3.045zM1743.625 450V223.425h-221.813V450zM1743.625 676.575V450h-221.813v226.575z" style="vector-effect:non-scaling-stroke;fill:none;stroke:red;stroke-width:.264583;stroke-dasharray:none;stroke-opacity:1;-inkscape-stroke:hairline"/>
    <path d="M554.625 450.099v5.2H534.48v15.852h-5.2v21.25h5.2v20.853h-5.2v21.254h5.2v20.852h-5.2v21.252h5.2v20.852h-5.2v21.252h5.2v20.853h-5.2v21.252h5.2v21.052h15.892v5.2h21.292v-5.2h20.892v5.2h21.292v-5.2h20.892v5.2h21.292v-5.2h20.892v5.2h21.292v-5.2h20.892v5.2H740.4v-5.2h15.892V660.82h5.2v-21.252h-5.2v-20.853h5.2v-21.252h-5.2v-20.852h5.2V555.36h-5.2v-20.852h5.2v-21.254h-5.2v-20.852h5.2V471.15h-5.2v-15.853h-20.146V450.1h-20.347v5.2h-19.947v-5.2h-20.346v5.2h-19.947v-5.2h-20.346v5.2h-19.947v-5.2H594.92v5.2h-19.947v-5.2zm-4.443 15.799h190.406l.503.025.496.073.485.121.471.17.453.213.428.258.402.298.371.336.337.371.298.402.257.429.214.453.168.471.122.485.073.495.025.502v195.17l-.025.503-.073.495-.122.485-.168.47-.214.454-.257.429-.298.402-.337.371-.37.336-.403.298-.428.257-.453.215-.47.169-.486.12-.496.074-.502.025H550.181l-.502-.025-.496-.073-.485-.121-.47-.169-.454-.215-.428-.257-.402-.298-.37-.336-.338-.37-.298-.403-.257-.429-.213-.453-.169-.47-.122-.486-.073-.495-.025-.503V471l.025-.502.073-.495.122-.485.17-.47.212-.454.257-.429.298-.402.337-.371.371-.336.402-.298.428-.258.453-.214.471-.169.485-.12.496-.074z" style="vector-effect:non-scaling-stroke;fill:none;stroke:#000;stroke-width:.264583;stroke-dasharray:none;stroke-opacity:1;-inkscape-stroke:hairline"/>
    <path fill="none" stroke="#000" stroke-width=".1mm" d="M536.713 428.948h-5.2V450h-15.892v5.2h-21.292V450h-20.892v5.2h-21.292V450h-20.892v5.2h-21.292V450h-20.892v5.2h-21.292V450h-20.892v5.2h-21.292V450h-15.892v-21.052h-5.2v-21.252h5.2v-20.853h-5.2v-21.252h5.2v-20.852h-5.2v-21.252h5.2v-20.852h-5.2v-21.254h5.2v-20.852h-5.2v-21.251h5.2v-15.853h20.146v-5.199h20.347v5.199h19.947v-5.199h20.346v5.199h19.947v-5.199h20.346v5.199h19.947v-5.199h20.346v5.199h19.947v-5.199h20.347v5.199h20.146v15.853h5.2v21.251h-5.2v20.852h5.2v21.254h-5.2v20.852h5.2v21.252h-5.2v20.852h5.2v21.252h-5.2v20.853h5.2v21.252" style="vector-effect:non-scaling-stroke;fill:none;stroke:#000;stroke-width:.264583;stroke-dasharray:none;stroke-opacity:1;-inkscape-stroke:hairline" transform="translate(-7.434 231.873)"/>
    <path fill="none" stroke="#000" stroke-width=".1mm" d="M526.313 625.639v-7.48h5.2v-7.08h-5.2v-7.48h5.2v-7.08h-5.2v-7.48h25.546v5.199h19.947v-5.199h20.347v5.199h19.946v-5.199h20.347v5.199h19.946v-5.199h20.347v5.199h19.946v-5.199h20.347v5.199h19.947v-5.199h25.546v7.48h-5.2v7.08h5.2v7.48h-5.2v7.08h5.2v7.48h-25.546v-5.2h-19.947v5.2h-20.347v-5.2h-19.946v5.2h-20.347v-5.2h-19.946v5.2h-20.347v-5.2h-19.946v5.2h-20.347v-5.2h-19.947v5.2h-25.546" style="vector-effect:non-scaling-stroke;fill:none;stroke:#000;stroke-width:.264583;stroke-dasharray:none;stroke-opacity:1;-inkscape-stroke:hairline" transform="rotate(90 768.371 691.96)"/>
    <path fill="none" stroke="#000" stroke-width=".1mm" d="M758.525 596.319h5.2v-7.28h16.092v5.199h20.892v-5.199h21.292v5.199h20.892v-5.199h21.292v5.199h20.892v-5.199h21.292v5.199h20.892v-5.199h21.292v5.199h20.892v-5.199h16.092v7.28h5.2v7.48h-5.2v7.08h5.2v7.48h-5.2v7.28h-16.092v-5.2h-20.892v5.2h-21.292v-5.2h-20.892v5.2h-21.292v-5.2h-20.892v5.2h-21.292v-5.2h-20.892v5.2h-21.292v-5.2h-20.892v5.2h-16.092v-7.28h-5.2v-7.48h5.2v-7.08h-5.2v-7.48" style="vector-effect:non-scaling-stroke;fill:none;stroke:#000;stroke-width:.264583;stroke-dasharray:none;stroke-opacity:1;-inkscape-stroke:hairline" transform="rotate(90 866.177 557.553)"/>
    <path fill="none" stroke="#000" stroke-width=".1mm" d="M526.313 644.483v-18.844h232.212v18.844h-5.2v18.447h5.2v18.845H526.313V662.93h5.2v-18.447h-5.2" style="vector-effect:non-scaling-stroke;fill:none;stroke:#000;stroke-width:.264583;stroke-dasharray:none;stroke-opacity:1;-inkscape-stroke:hairline" transform="rotate(-90 745.34 463.087)"/>
    <path fill="none" stroke="#000" stroke-width=".1mm" d="M526.313 625.639v-7.48h5.2v-7.08h-5.2v-7.48h5.2v-7.08h-5.2v-7.48h25.546v5.199h19.947v-5.199h20.347v5.199h19.946v-5.199h20.347v5.199h19.946v-5.199h20.347v5.199h19.946v-5.199h20.347v5.199h19.947v-5.199h25.546v7.48h-5.2v7.08h5.2v7.48h-5.2v7.08h5.2v7.48h-25.546v-5.2h-19.947v5.2h-20.347v-5.2h-19.946v5.2h-20.347v-5.2h-19.946v5.2h-20.347v-5.2h-19.946v5.2h-20.347v-5.2h-19.947v5.2h-25.546" style="vector-effect:non-scaling-stroke;fill:none;stroke:#000;stroke-width:.264583;stroke-dasharray:none;stroke-opacity:1;-inkscape-stroke:hairline" transform="rotate(-90 745.34 463.087)"/>
    <path fill="none" stroke="#000" stroke-width=".1mm" d="M758.525 596.319h5.2v-7.28h16.092v5.199h20.892v-5.199h21.292v5.199h20.892v-5.199h21.292v5.199h20.892v-5.199h21.292v5.199h20.892v-5.199h21.292v5.199h20.892v-5.199h16.092v7.28h5.2v7.48h-5.2v7.08h5.2v7.48h-5.2v7.28h-16.092v-5.2h-20.892v5.2h-21.292v-5.2h-20.892v5.2h-21.292v-5.2h-20.892v5.2h-21.292v-5.2h-20.892v5.2h-21.292v-5.2h-20.892v5.2h-16.092v-7.28h-5.2v-7.48h5.2v-7.08h-5.2v-7.48" style="vector-effect:non-scaling-stroke;fill:none;stroke:#000;stroke-width:.264583;stroke-dasharray:none;stroke-opacity:1;-inkscape-stroke:hairline" transform="rotate(-90 806.545 634.093)"/>
    <path fill="none" stroke="#000" stroke-width=".1mm" d="M526.313 644.483v-18.844h232.212v18.844h-5.2v18.447h5.2v18.845H526.313V662.93h5.2v-18.447h-5.2" style="vector-effect:non-scaling-stroke;fill:none;stroke:#000;stroke-width:.264583;stroke-dasharray:none;stroke-opacity:1;-inkscape-stroke:hairline" transform="rotate(90 968.598 659.974)"/>
    <path d="m910.197 347.833-5.33-2.208-14.123 14.123V339.24h-5.2v-20.852h5.2v-21.252h-5.2v-20.853h5.2V255.03h-5.2v-20.852h5.2v-16.052h-7.28v-5.2h-7.48v5.2h-7.08v-5.2h-7.48v5.2h-7.28v16.052h5.2v20.852h-5.2v21.252h5.2v20.853h-5.2v21.252h5.2v20.852h-5.2v21.252h5.2v20.853h-5.2v21.252h5.2v20.852h-5.2V449.9h7.48v-5.198h7.081v5.198h7.48v-5.198h7.08v5.198h7.479V423.45h-5.2v-20.852h5v14.642h5.722l13.67-13.67h-5.342v-18.446h5.2v-18.845h-5.2v-18.445zm-19.653 12.659v20.853h-5v-20.853zM817.544 314.995h-5.603V296.55h5.2v-18.845h-5.2V259.26h5.342l-13.67-13.67h-5.722v14.642h-5v-20.852h5.2v-26.452h-7.48v5.2h-7.08v-5.2h-7.48v5.2h-7.08v-5.2h-7.48v26.452h5.2v20.852h-5.2v21.252h5.2v20.853h-5.2v21.252h5.2v20.852h-5.2v21.252h5.2v20.853h-5.2v21.252h5.2v20.852h-5.2v16.053h7.28v5.199h7.48v-5.2h7.08v5.2h7.48v-5.2h7.28V428.65h-5.2v-20.852h5.2v-21.252h-5.2v-20.853h5.2V344.44h-5.2v-20.852h5.2V303.08l14.123 14.123zm-19.653-33.512v20.853h-5v-20.853z" style="vector-effect:non-scaling-stroke;fill:none;stroke:#000;stroke-width:.264583;stroke-dasharray:none;stroke-opacity:1;-inkscape-stroke:hairline"/>
    <path d="m890.744 314.994 5.33 2.209 14.123-14.124v20.509h5.2v20.852h-5.2v21.252h5.2v20.853h-5.2v21.252h5.2v20.852h-5.2V444.7h7.28v5.2h7.48v-5.2h7.08v5.2h7.48v-5.2h7.28v-16.052h-5.2v-20.852h5.2v-21.252h-5.2v-20.853h5.2V344.44h-5.2v-20.852h5.2v-21.253h-5.2v-20.853h5.2V260.23h-5.2v-20.852h5.2v-26.451h-7.48v5.198h-7.081v-5.198h-7.48v5.198h-7.08v-5.198h-7.479v26.451h5.2v20.852h-5v-14.642h-5.722l-13.67 13.67h5.342v18.447h-5.2v18.845h5.2v18.444zm19.653-12.659v-20.853h5v20.853zM798.091 347.833h5.603v18.445h-5.2v18.845h5.2v18.446h-5.342l13.67 13.67h5.722v-14.642h5v20.852h-5.2V449.9h7.48v-5.2h7.08v5.2h7.48v-5.2h7.08v5.2h7.48v-26.452h-5.2v-20.852h5.2v-21.252h-5.2v-20.853h5.2V339.24h-5.2v-20.852h5.2v-21.252h-5.2v-20.853h5.2V255.03h-5.2v-20.852h5.2v-16.053h-7.28v-5.2h-7.48v5.2h-7.08v-5.2h-7.48v5.2h-7.28v16.053h5.2v20.852h-5.2v21.252h5.2v20.853h-5.2v21.252h5.2v20.852h-5.2v20.508l-14.123-14.123zm19.653 33.512v-20.853h5v20.853zM554.625 450.099v-5.2H534.48v-15.852h-5.2v-21.25h5.2v-20.853h-5.2V365.69h5.2v-20.852h-5.2v-21.252h5.2v-20.852h-5.2v-21.252h5.2v-20.853h-5.2v-21.252h5.2v-21.052h15.892v-5.2h21.292v5.2h20.892v-5.2h21.292v5.2h20.892v-5.2h21.292v5.2h20.892v-5.2h21.292v5.2h20.892v-5.2H740.4v5.2h15.892v21.052h5.2v21.252h-5.2v20.853h5.2v21.252h-5.2v20.852h5.2v21.252h-5.2v20.852h5.2v21.254h-5.2v20.852h5.2v21.251h-5.2V444.9h-20.146v5.199h-20.347v-5.2h-19.947v5.2h-20.346v-5.2h-19.947v5.2h-20.346v-5.2h-19.947v5.2H594.92v-5.2h-19.947v5.2zm-4.443-15.799h190.406l.503-.025.496-.073.485-.12.471-.17.453-.214.428-.258.402-.298.371-.336.337-.37.298-.403.257-.429.214-.453.168-.47.122-.486.073-.495.025-.502v-195.17l-.025-.503-.073-.495-.122-.485-.168-.47-.214-.454-.257-.429-.298-.402-.337-.37-.37-.337-.403-.298-.428-.257-.453-.215-.47-.169-.486-.12-.496-.074-.502-.025H550.181l-.502.025-.496.073-.485.121-.47.17-.454.214-.428.257-.402.298-.37.336-.338.371-.298.402-.257.43-.213.452-.169.471-.122.485-.073.495-.025.503v195.17l.025.502.073.495.122.485.17.471.212.453.257.43.298.401.337.371.371.336.402.298.428.258.453.214.471.17.485.12.496.073z" style="vector-effect:non-scaling-stroke;fill:none;stroke:#000;stroke-width:.264583;stroke-dasharray:none;stroke-opacity:1;-inkscape-stroke:hairline"/>
    <path fill="none" stroke="#000" stroke-width=".1mm" d="M536.713 428.948h-5.2V450h-15.892v5.2h-21.292V450h-20.892v5.2h-21.292V450h-20.892v5.2h-21.292V450h-20.892v5.2h-21.292V450h-20.892v5.2h-21.292V450h-15.892v-21.052h-5.2v-21.252h5.2v-20.853h-5.2v-21.252h5.2v-20.852h-5.2v-21.252h5.2v-20.852h-5.2v-21.254h5.2v-20.852h-5.2v-21.251h5.2v-15.853h20.146v-5.199h20.347v5.199h19.947v-5.199h20.346v5.199h19.947v-5.199h20.346v5.199h19.947v-5.199h20.346v5.199h19.947v-5.199h20.347v5.199h20.146v15.853h5.2v21.251h-5.2v20.852h5.2v21.254h-5.2v20.852h5.2v21.252h-5.2v20.852h5.2v21.252h-5.2v20.853h5.2v21.252" style="vector-effect:non-scaling-stroke;fill:none;stroke:#000;stroke-width:.264583;stroke-dasharray:none;stroke-opacity:1;-inkscape-stroke:hairline" transform="matrix(1 0 0 -1 -7.434 668.325)"/>
</svg>
