Cleat Wall Organization Equipment
Copyright (C) 2025  Corporate Hacks

This program is free software: you can redistribute it and/or modify
it under the terms of the GNU General Public License as published by
the Free Software Foundation, either version 3 of the License, or
(at your option) any later version.

This program is distributed in the hope that it will be useful,
but WITHOUT ANY WARRANTY; without even the implied warranty of
MERCHANTABILITY or FITNESS FOR A PARTICULAR PURPOSE.  See the
GNU General Public License for more details.

You should have received a copy of the GNU General Public License
along with this program.  If not, see <http://www.gnu.org/licenses/>.


<svg xmlns="http://www.w3.org/2000/svg" width="1300mm" height="900mm" viewBox="0 0 1300 900">
    <path fill="none" stroke="#000" stroke-width=".1mm" d="M237.962 728.894v-18.845h5.2v-18.446h-5.2v-18.845h189.35v18.845h-5.2v18.446h5.2v18.845h-189.35" style="vector-effect:non-scaling-stroke;fill:none;stroke:#000;stroke-width:.264583;stroke-dasharray:none;stroke-opacity:1;-inkscape-stroke:hairline" transform="rotate(90 776.643 765.992)"/>
    <path fill="none" stroke="#000" stroke-width=".1mm" d="M255.157 672.758v-5.201h-11.995v-22.784h-5.2v-22.984h5.2v-22.584h-5.2v-22.984h5.2v-22.584h-5.2v-22.984h5.2v-22.584h-5.2v-22.984h5.2v-22.584h-5.2v-22.984h5.2v-17.585h16.25v-5.2h16.45v5.2h16.05v-5.2h16.45v5.2h16.05v-5.2h16.45v5.2h16.05v-5.2h16.45v5.2h16.05v-5.2h16.45v5.2h16.25v17.585h5.2v22.984h-5.2v22.584h5.2v22.984h-5.2v22.584h5.2v22.984h-5.2v22.584h5.2v22.984h-5.2v22.584h5.2v22.984h-5.2v22.784h-11.995v5.201h-17.396v-5.201h-16.995v5.201H358.33v-5.201h-16.995v5.201h-17.396v-5.201h-16.995v5.201h-17.396v-5.201h-16.995v5.201h-17.396" style="vector-effect:non-scaling-stroke;fill:none;stroke:#000;stroke-width:.264583;stroke-dasharray:none;stroke-opacity:1;-inkscape-stroke:hairline" transform="translate(269.015 -222.759)"/>
    <path d="M421.603 193.973v5.2h-7.28v17.786h5.2v22.583h-5.2v22.984h5.2v22.584h-5.2v22.985h5.2v22.583h-5.2v22.984h5.2v22.584h-5.2v22.984h5.2v22.584h-5.2V450h7.48v-5.2h7.08v5.2h7.48v-5.2h7.08v5.2h7.48v-28.185h-5.2V399.23h5v8.581h5.721l13.67-13.67h-5.34v-18.446h5.2V356.85h-5.2v-18.445h5.602l-5.33-2.208-14.122 14.123v-19.642h-5.2v-22.583h5.2V285.11h-5.2v-22.584h5.2v-22.984h-5.2V216.96h5.2v-17.785h-7.28v-5.2h-7.48v5.2h-7.08v-5.2zm24.12 159.69h5v22.583h-5zM717.776 193.973v5.2h-16.25v17.585h-5.2v22.984h5.2v22.584h-5.2v22.984h5.2v22.584h-5.2v22.984h5.2v22.584h-5.2v22.984h5.2v22.584h-5.2v22.984h5.2v22.784h11.996V450h17.396v-5.2h16.995v5.2h17.396v-5.2h16.995v5.2H799.7v-5.2h16.994v5.2h17.397v-5.2h16.995v5.2h17.395v-5.2h11.996v-22.785h5.2V399.03h-5.2v-22.584h5.2v-22.984h-5.2v-22.584h5.2v-22.984h-5.2V285.31h5.2v-22.984h-5.2v-22.584h5.2v-22.984h-5.2v-17.585h-16.25v-5.2h-16.45v5.2h-16.05v-5.2h-16.45v5.2h-16.05v-5.2h-16.45v5.2h-16.05v-5.2h-16.45v5.2h-16.05v-5.2zm-.546 15.8h147.544l.502.026.496.072.485.122.472.169.452.213.429.258.402.298.37.337.338.37.298.403.257.428.214.453.168.471.122.485.073.496.025.5v214.222l-.025.502-.073.496-.122.485-.168.471-.214.453-.257.428-.298.402-.337.371-.371.337-.402.298-.43.257-.451.215-.472.168-.485.122-.496.072-.501.025H717.229l-.502-.025-.495-.072-.485-.122-.472-.168-.452-.215-.43-.257-.401-.298-.371-.337-.337-.371-.298-.402-.257-.428-.213-.453-.17-.47-.121-.486-.073-.496-.025-.502V214.875l.025-.5.073-.497.122-.485.169-.47.213-.454.257-.428.298-.402.337-.37.37-.338.403-.298.429-.258.452-.213.472-.169.485-.122.495-.072zM414.324 450v28.186h5.2v22.584h-5.2v22.984h5.2v22.584h-5.2v22.984h5.2v22.583h-5.2v22.985h5.2v22.584h-5.2v22.984h5.2v22.583h-5.2v17.785h7.28v5.2h7.48v-5.2h7.08v5.2h7.48v-5.2h7.28v-17.785h-5.2v-22.583h5.2v-22.984h-5.2V614.89h5.2v-22.985h-5.2v-22.583h5.2V549.68l14.123 14.123 5.33-2.208h-5.603V543.15h5.2v-18.845h-5.2v-18.447h5.34l-13.67-13.67h-5.72v8.582h-5v-22.584h5.2V450h-7.48v5.2h-7.08v-5.2h-7.48v5.2h-7.08v-5.2zm31.4 73.754h5v22.584h-5z" style="vector-effect:non-scaling-stroke;fill:none;stroke:#000;stroke-width:.264583;stroke-dasharray:none;stroke-opacity:1;-inkscape-stroke:hairline"/>
    <path fill="none" stroke="#000" stroke-width=".1mm" d="M683.338 692.294h21.65v5.2h16.05v-5.2h16.45v5.2h16.05v-5.2h16.45v5.2h16.05v-5.2h16.45v5.2h16.05v-5.2h16.45v5.2h16.05v-5.2h21.65v7.48h-5.2v7.08h5.2v7.48h-5.2v7.08h5.2v7.48h-21.65v-5.2h-16.05v5.2h-16.45v-5.2h-16.05v5.2h-16.45v-5.2h-16.05v5.2h-16.45v-5.2h-16.05v5.2h-16.45v-5.2h-16.05v5.2h-21.65v-7.48h5.2v-7.08h-5.2v-7.48h5.2v-7.08h-5.2v-7.48" style="vector-effect:non-scaling-stroke;fill:none;stroke:#000;stroke-width:.264583;stroke-dasharray:none;stroke-opacity:1;-inkscape-stroke:hairline" transform="rotate(90 981.03 525.004)"/>
    <path fill="none" stroke="#000" stroke-width=".1mm" d="M872.688 699.574h5.2v-7.28h12.195v5.2h16.996v-5.2h17.395v5.2h16.996v-5.2h17.395v5.2h16.996v-5.2h17.395v5.2h16.996v-5.2h17.395v5.2h16.996v-5.2h12.195v7.28h5.2v7.48h-5.2v7.08h5.2v7.48h-5.2v7.28h-12.195v-5.2h-16.996v5.2h-17.395v-5.2h-16.996v5.2h-17.395v-5.2h-16.996v5.2H941.47v-5.2h-16.996v5.2h-17.395v-5.2h-16.996v5.2h-12.195v-7.28h-5.2v-7.48h5.2v-7.08h-5.2v-7.48" style="vector-effect:non-scaling-stroke;fill:none;stroke:#000;stroke-width:.264583;stroke-dasharray:none;stroke-opacity:1;-inkscape-stroke:hairline" transform="rotate(90 929.392 540.043)"/>
    <path fill="none" stroke="#000" stroke-width=".1mm" d="M237.962 728.894v-18.845h5.2v-18.446h-5.2v-18.845h189.35v18.845h-5.2v18.446h5.2v18.845h-189.35" style="vector-effect:non-scaling-stroke;fill:none;stroke:#000;stroke-width:.264583;stroke-dasharray:none;stroke-opacity:1;-inkscape-stroke:hairline" transform="rotate(-90 525.817 384.834)"/>
    <path fill="none" stroke="#000" stroke-width=".1mm" d="M255.157 672.758v-5.201h-11.995v-22.784h-5.2v-22.984h5.2v-22.584h-5.2v-22.984h5.2v-22.584h-5.2v-22.984h5.2v-22.584h-5.2v-22.984h5.2v-22.584h-5.2v-22.984h5.2v-17.585h16.25v-5.2h16.45v5.2h16.05v-5.2h16.45v5.2h16.05v-5.2h16.45v5.2h16.05v-5.2h16.45v5.2h16.05v-5.2h16.45v5.2h16.25v17.585h5.2v22.984h-5.2v22.584h5.2v22.984h-5.2v22.584h5.2v22.984h-5.2v22.584h5.2v22.984h-5.2v22.584h5.2v22.984h-5.2v22.784h-11.995v5.201h-17.396v-5.201h-16.995v5.201H358.33v-5.201h-16.995v5.201h-17.396v-5.201h-16.995v5.201h-17.396v-5.201h-16.995v5.201h-17.396" style="vector-effect:non-scaling-stroke;fill:none;stroke:#000;stroke-width:.264583;stroke-dasharray:none;stroke-opacity:1;-inkscape-stroke:hairline" transform="matrix(1 0 0 -1 269.015 1122.759)"/>
    <path d="M499.696 450v-5.201h7.28v-17.785h-5.2V404.43h5.2v-22.984h-5.2v-22.584h5.2v-22.984h-5.2v-22.584h5.2V290.31h-5.2v-22.584h5.2v-22.984h-5.2v-22.584h5.2v-28.185h-7.48v5.201h-7.08v-5.2h-7.48v5.2h-7.08v-5.2h-7.48v28.184h5.2v22.584h-5v-8.581h-5.72l-13.67 13.67h5.34v18.446h-5.2v18.845h5.2v18.445h-5.602l5.33 2.208 14.122-14.123v19.642h5.2v22.584h-5.2v22.984h5.2v22.584h-5.2v22.984h5.2v22.584h-5.2v17.785h7.28v5.2h7.48v-5.2h7.08v5.2zm-24.12-159.69h-5v-22.584h5zM717.776 706.027v-5.2h-16.25v-17.585h-5.2v-22.984h5.2v-22.584h-5.2V614.69h5.2v-22.584h-5.2v-22.984h5.2v-22.584h-5.2v-22.984h5.2V500.97h-5.2v-22.984h5.2v-22.784h11.996V450h17.396v5.2h16.995v-5.2h17.396v5.2h16.995v-5.2H799.7v5.2h16.994v-5.2h17.397v5.2h16.995v-5.2h17.395v5.2h11.996v22.785h5.2v22.984h-5.2v22.584h5.2v22.984h-5.2v22.584h5.2v22.984h-5.2v22.584h5.2v22.984h-5.2v22.584h5.2v22.984h-5.2v17.585h-16.25v5.2h-16.45v-5.2h-16.05v5.2h-16.45v-5.2h-16.05v5.2h-16.45v-5.2h-16.05v5.2h-16.45v-5.2h-16.05v5.2zm-.546-15.8h147.544l.502-.026.496-.072.485-.122.472-.169.452-.213.429-.258.402-.298.37-.337.338-.37.298-.403.257-.428.214-.453.168-.471.122-.485.073-.496.025-.5V470.903l-.025-.502-.073-.496-.122-.485-.168-.471-.214-.453-.257-.428-.298-.402-.337-.371-.371-.337-.402-.298-.43-.257-.451-.215-.472-.168-.485-.122-.496-.072-.501-.025H717.229l-.502.025-.495.072-.485.122-.472.168-.452.215-.43.257-.401.298-.371.337-.337.371-.299.402-.256.428-.213.453-.17.471-.121.485-.073.496-.025.502v214.221l.025.5.073.497.122.485.169.47.213.454.256.428.299.402.337.37.37.338.403.298.429.258.452.213.472.169.485.122.495.072zM506.977 706.027v-28.185h-5.2v-22.584h5.2v-22.984h-5.2V609.69h5.2v-22.984h-5.2v-22.584h5.2v-22.984h-5.2v-22.584h5.2V495.57h-5.2v-22.584h5.2v-17.785h-7.28v-5.2h-7.48v5.2h-7.08v-5.2h-7.48v5.2h-7.28v17.785h5.2v22.584h-5.2v22.984h5.2v22.584h-5.2v22.984h5.2v22.584h-5.2v19.642l-14.123-14.123-5.33 2.208h5.602v18.445h-5.2v18.845h5.2v18.446h-5.34l13.67 13.67h5.72v-8.581h5v22.584h-5.2v28.185h7.48v-5.201h7.08v5.2h7.48v-5.2h7.08v5.2zm-31.4-73.753h-5V609.69h5z" style="vector-effect:non-scaling-stroke;fill:none;stroke:#000;stroke-width:.264583;stroke-dasharray:none;stroke-opacity:1;-inkscape-stroke:hairline"/>
    <path fill="none" stroke="#000" stroke-width=".1mm" d="M683.338 692.294h21.65v5.2h16.05v-5.2h16.45v5.2h16.05v-5.2h16.45v5.2h16.05v-5.2h16.45v5.2h16.05v-5.2h16.45v5.2h16.05v-5.2h21.65v7.48h-5.2v7.08h5.2v7.48h-5.2v7.08h5.2v7.48h-21.65v-5.2h-16.05v5.2h-16.45v-5.2h-16.05v5.2h-16.45v-5.2h-16.05v5.2h-16.45v-5.2h-16.05v5.2h-16.45v-5.2h-16.05v5.2h-21.65v-7.48h5.2v-7.08h-5.2v-7.48h5.2v-7.08h-5.2v-7.48" style="vector-effect:non-scaling-stroke;fill:none;stroke:#000;stroke-width:.264583;stroke-dasharray:none;stroke-opacity:1;-inkscape-stroke:hairline" transform="rotate(-90 574.123 525.876)"/>
    <path fill="none" stroke="#000" stroke-width=".1mm" d="M872.688 699.574h5.2v-7.28h12.195v5.2h16.996v-5.2h17.395v5.2h16.996v-5.2h17.395v5.2h16.996v-5.2h17.395v5.2h16.996v-5.2h17.395v5.2h16.996v-5.2h12.195v7.28h5.2v7.48h-5.2v7.08h5.2v7.48h-5.2v7.28h-12.195v-5.2h-16.996v5.2h-17.395v-5.2h-16.996v5.2h-17.395v-5.2h-16.996v5.2H941.47v-5.2h-16.996v5.2h-17.395v-5.2h-16.996v5.2h-12.195v-7.28h-5.2v-7.48h5.2v-7.08h-5.2v-7.48" style="vector-effect:non-scaling-stroke;fill:none;stroke:#000;stroke-width:.264583;stroke-dasharray:none;stroke-opacity:1;-inkscape-stroke:hairline" transform="rotate(-90 815.112 730.265)"/>
    <path d="M1300 450v245.626h178.95V450Zm39.177 36.101h100.596l.303.015.299.044.293.073.284.101.273.13.258.155.243.18.223.203.202.222.18.244.156.259.129.271.1.285.075.293.044.298.015.304V656.45l-.015.302-.044.299-.074.293-.101.284-.13.272-.154.259-.18.244-.203.222-.223.203-.243.18-.258.155-.273.13-.284.1-.293.074-.3.044-.303.016h-100.594l-.304-.016-.3-.044-.292-.073-.284-.102-.273-.129-.258-.155-.243-.18-.223-.203-.203-.222-.18-.244-.155-.259-.13-.272-.1-.284-.074-.293-.044-.299-.015-.302V489.178l.015-.304.044-.298.074-.293.1-.285.13-.271.155-.259.18-.244.203-.222.223-.203.243-.18.258-.155.273-.13.284-.1.293-.074.299-.044zM1478.95 204.374V450h178.95V204.374ZM1478.95 450v245.626h178.95V450ZM1478.95 450V204.374H1300V450zm-39.177-36.101h-100.596l-.303-.015-.3-.044-.292-.073-.284-.102-.273-.129-.258-.155-.243-.18-.223-.203-.203-.222-.18-.244-.155-.259-.129-.271-.101-.285-.074-.293-.044-.298-.015-.304V243.55l.015-.303.044-.298.074-.293.101-.285.129-.272.155-.258.18-.244.203-.223.223-.203.243-.18.258-.155.273-.13.284-.1.293-.073.3-.044.303-.016h100.594l.304.016.299.044.293.073.284.1.273.13.258.156.243.179.223.203.203.223.18.244.155.258.13.272.1.285.074.293.044.298.015.303v167.271l-.015.304-.044.298-.074.293-.1.285-.13.272-.155.258-.18.244-.203.223-.223.203-.243.179-.258.156-.273.129-.284.101-.293.073-.299.044z" style="vector-effect:non-scaling-stroke;fill:none;stroke:red;stroke-width:.264583;stroke-dasharray:none;stroke-opacity:1;-inkscape-stroke:hairline"/>
</svg>
