<?xml version="1.0" standalone="no"?>
<!DOCTYPE svg PUBLIC "-//W3C//DTD SVG 1.1//EN" "http://www.w3.org/Graphics/SVG/1.1/DTD/svg11.dtd">
<svg width="1300mm" height="900mm" viewBox="0 0 1300 900" xmlns="http://www.w3.org/2000/svg" version="1.1">
<polyline z="0" points="454.2,542.438 465.699,542.438 465.699,537.238 476.784,537.238 476.784,542.438 487.47,542.438 487.47,537.238 498.556,537.238 498.556,542.438 509.242,542.438 509.242,537.238 520.327,537.238 520.327,542.438 531.013,542.438 531.013,537.379 516.749,523.115 518.957,517.785 518.957,523.388 531.692,523.388 531.692,518.188 544.828,518.188 544.828,523.388 557.763,523.388 557.763,528.348 562.763,528.348 562.763,518.188 574.834,518.188 588.363,531.717 588.363,538.318 588.346,538.639 588.299,538.959 588.219,539.273 588.11,539.578 587.971,539.87 587.803,540.147 587.609,540.406 587.39,540.644 587.149,540.861 586.888,541.052 586.608,541.216 586.314,541.352 586.009,541.458 585.694,541.534 585.376,541.577 577.78,542.242 576.701,542.39 575.644,542.644 574.617,543.001 573.631,543.457 572.694,544.008 571.816,544.648 571.005,545.372 570.27,546.172 569.618,547.041 569.054,547.971 568.584,548.951 568.213,549.973 567.945,551.026 567.781,552.1 567.726,553.185 567.776,554.271 567.934,555.347 568.197,556.401 568.562,557.425 569.027,558.407 569.587,559.339 570.235,560.211 570.966,561.015 571.773,561.744 572.648,562.389 573.582,562.944 574.567,563.404 575.663,563.791 575.663,565.915 575.647,566.234 575.6,566.552 575.522,566.864 575.413,567.166 575.276,567.457 575.111,567.733 574.919,567.991 574.704,568.229 574.465,568.444 574.207,568.636 573.932,568.801 573.641,568.939 573.339,569.047 573.026,569.125 572.709,569.173 572.39,569.188 562.763,569.188 562.763,559.028 557.763,559.028 557.763,563.988 547.763,563.988 547.763,569.221 454.2,542.438" fill="none" stroke="black" stroke-width="0.1mm" />
<polyline z="0" points="557.763,538.708 562.763,538.708 562.763,548.668 557.763,548.668 557.763,538.708" fill="none" stroke="black" stroke-width="0.1mm" />
<polyline z="0" points="566.229,517.785 547.39,517.785 547.39,512.585 528.952,512.585 528.952,517.785 510.114,517.785 510.114,512.585 491.676,512.585 491.676,517.785 472.838,517.785 472.838,512.585 454.2,512.585 454.2,502.385 845.8,502.385 845.8,512.585 827.162,512.585 827.162,517.785 808.324,517.785 808.324,512.585 789.886,512.585 789.886,517.785 771.048,517.785 771.048,512.585 752.61,512.585 752.61,517.785 733.771,517.785 733.771,512.585 715.333,512.585 715.333,517.785 696.495,517.785 696.495,512.585 678.057,512.585 678.057,517.785 659.219,517.785 659.219,512.585 640.781,512.585 640.781,517.785 621.943,517.785 621.943,512.585 603.505,512.585 603.505,517.785 584.667,517.785 584.667,512.585 566.229,512.585 566.229,517.785" fill="none" stroke="black" stroke-width="0.1mm" />
<polyline z="0" points="566.029,502.385 566.029,497.185 547.59,497.185 547.59,502.385 528.752,502.385 528.752,497.185 510.314,497.185 510.314,502.385 491.476,502.385 491.476,497.185 473.038,497.185 473.038,502.385 454.2,502.385 454.2,492.025 459.4,492.025 459.4,482.065 454.2,482.065 454.2,471.705 459.4,471.705 459.4,461.745 454.2,461.745 454.2,451.385 473.038,451.385 473.038,456.585 491.476,456.585 491.476,451.385 510.314,451.385 510.314,456.585 528.752,456.585 528.752,451.385 547.59,451.385 547.59,456.585 566.029,456.585 566.029,451.385 584.867,451.385 584.867,456.585 603.305,456.585 603.305,451.385 622.143,451.385 622.143,456.585 640.581,456.585 640.581,451.385 659.419,451.385 659.419,456.585 677.857,456.585 677.857,451.385 696.695,451.385 696.695,456.585 715.133,456.585 715.133,451.385 733.971,451.385 733.971,456.585 752.41,456.585 752.41,451.385 771.248,451.385 771.248,456.585 789.686,456.585 789.686,451.385 808.524,451.385 808.524,456.585 826.962,456.585 826.962,451.385 845.8,451.385 845.8,461.745 840.6,461.745 840.6,471.705 845.8,471.705 845.8,482.065 840.6,482.065 840.6,492.025 845.8,492.025 845.8,502.385 826.962,502.385 826.962,497.185 808.524,497.185 808.524,502.385 789.686,502.385 789.686,497.185 771.248,497.185 771.248,502.385 752.41,502.385 752.41,497.185 733.971,497.185 733.971,502.385 715.133,502.385 715.133,497.185 696.695,497.185 696.695,502.385 677.857,502.385 677.857,497.185 659.419,497.185 659.419,502.385 640.581,502.385 640.581,497.185 622.143,497.185 622.143,502.385 603.305,502.385 603.305,497.185 584.867,497.185 584.867,502.385 566.029,502.385" fill="none" stroke="black" stroke-width="0.1mm" />
<polyline z="0" points="588.363,531.717 601.891,518.188 613.963,518.188 613.963,528.348 618.963,528.348 618.963,523.388 631.898,523.388 631.898,518.188 645.034,518.188 645.034,523.388 657.769,523.388 657.769,517.785 659.977,523.115 645.713,537.379 645.713,542.438 656.399,542.438 656.399,537.238 667.484,537.238 667.484,542.438 678.17,542.438 678.17,537.238 689.256,537.238 689.256,542.438 699.942,542.438 699.942,537.238 711.027,537.238 711.027,542.438 722.525,542.438 628.963,569.221 628.963,563.988 618.963,563.988 618.963,559.028 613.963,559.028 613.963,569.188 604.335,569.188 604.017,569.173 603.699,569.125 603.387,569.047 603.084,568.939 602.794,568.801 602.518,568.636 602.26,568.444 602.022,568.229 601.806,567.991 601.615,567.733 601.449,567.457 601.312,567.166 601.204,566.864 601.126,566.552 601.078,566.234 601.063,565.915 601.063,563.791 602.159,563.404 603.144,562.944 604.077,562.389 604.952,561.744 605.759,561.015 606.49,560.211 607.139,559.339 607.698,558.407 608.163,557.425 608.529,556.401 608.792,555.347 608.949,554.271 609,553.185 608.944,552.1 608.781,551.026 608.512,549.973 608.141,548.951 607.672,547.971 607.108,547.041 606.456,546.172 605.72,545.372 604.91,544.648 604.032,544.008 603.094,543.457 602.108,543.001 601.082,542.644 600.024,542.39 598.946,542.242 591.35,541.577 591.031,541.534 590.716,541.458 590.411,541.352 590.117,541.216 589.838,541.052 589.577,540.861 589.335,540.644 589.117,540.406 588.923,540.147 588.755,539.87 588.615,539.578 588.506,539.273 588.427,538.959 588.379,538.639 588.363,538.318 588.363,531.717" fill="none" stroke="black" stroke-width="0.1mm" />
<polyline z="0" points="613.963,538.708 618.963,538.708 618.963,548.668 613.963,548.668 613.963,538.708" fill="none" stroke="black" stroke-width="0.1mm" />
<polyline z="0" points="621.943,451.385 621.943,446.185 603.505,446.185 603.505,451.385 584.667,451.385 584.667,446.185 566.229,446.185 566.229,451.385 547.39,451.385 547.39,446.185 528.952,446.185 528.952,451.385 510.114,451.385 510.114,446.185 491.676,446.185 491.676,451.385 472.838,451.385 472.838,446.185 454.2,446.185 454.2,433.05 459.4,433.05 459.4,420.314 454.2,420.314 454.2,407.179 845.8,407.179 845.8,420.314 840.6,420.314 840.6,433.05 845.8,433.05 845.8,446.185 827.162,446.185 827.162,451.385 808.324,451.385 808.324,446.185 789.886,446.185 789.886,451.385 771.048,451.385 771.048,446.185 752.61,446.185 752.61,451.385 733.771,451.385 733.771,446.185 715.333,446.185 715.333,451.385 696.495,451.385 696.495,446.185 678.057,446.185 678.057,451.385 659.219,451.385 659.219,446.185 640.781,446.185 640.781,451.385 621.943,451.385" fill="none" stroke="black" stroke-width="0.1mm" />
<polyline z="0" points="459.4,396.093 459.4,385.408 454.2,385.408 454.2,374.322 459.4,374.322 459.4,363.636 454.2,363.636 454.2,352.55 459.4,352.55 459.4,341.865 454.2,341.865 454.2,330.779 845.8,330.779 845.8,341.865 840.6,341.865 840.6,352.55 845.8,352.55 845.8,363.636 840.6,363.636 840.6,374.322 845.8,374.322 845.8,385.408 840.6,385.408 840.6,396.093 845.8,396.093 845.8,407.179 454.2,407.179 454.2,396.093 459.4,396.093" fill="none" stroke="black" stroke-width="0.1mm" />
</svg>