<!--
Cleat Wall Organization Equipment
Copyright (C) 2025  Corporate Hacks

This program is free software: you can redistribute it and/or modify
it under the terms of the GNU General Public License as published by
the Free Software Foundation, either version 3 of the License, or
(at your option) any later version.

This program is distributed in the hope that it will be useful,
but WITHOUT ANY WARRANTY; without even the implied warranty of
MERCHANTABILITY or FITNESS FOR A PARTICULAR PURPOSE.  See the
GNU General Public License for more details.

You should have received a copy of the GNU General Public License
along with this program.  If not, see <http://www.gnu.org/licenses/>.
-->

<svg xmlns="http://www.w3.org/2000/svg" width="1300mm" height="900mm" viewBox="0 0 1300 900">
    <path fill="none" stroke="#000" stroke-width=".1mm" d="M454.2 542.438h11.499v-5.2h11.085v5.2h10.686v-5.2h11.086v5.2h10.686v-5.2h11.085v5.2h10.686v-5.059l-14.264-14.264 2.208-5.33v5.603h12.735v-5.2h13.136v5.2h12.935v4.96h5v-10.16h12.071l13.529 13.529v6.601l-.017.321-.047.32-.08.314-.109.305-.139.292-.168.277-.194.259-.219.238-.241.217-.261.191-.28.164-.294.136-.305.106-.315.076-.318.043-7.596.665-1.079.148-1.057.254-1.027.357-.986.456-.937.551-.878.64-.811.724-.735.8-.652.869-.564.93-.47.98-.371 1.022-.268 1.053-.164 1.074-.055 1.085.05 1.086.158 1.076.263 1.054.365 1.024.465.982.56.932.648.872.731.804.807.729.875.645.934.555.985.46 1.096.387v2.124l-.016.319-.047.318-.078.312-.109.302-.137.291-.165.276-.192.258-.215.238-.239.215-.258.192-.275.165-.291.138-.302.108-.313.078-.317.048-.319.015h-9.627v-10.16h-5v4.96h-10v5.233L454.2 542.438"/>
    <path fill="none" stroke="#000" stroke-width=".1mm" d="M557.763 538.708h5v9.96h-5v-9.96M566.229 517.785H547.39v-5.2h-18.438v5.2h-18.838v-5.2h-18.438v5.2h-18.838v-5.2H454.2v-10.2h391.6v10.2h-18.638v5.2h-18.838v-5.2h-18.438v5.2h-18.838v-5.2H752.61v5.2h-18.839v-5.2h-18.438v5.2h-18.838v-5.2h-18.438v5.2h-18.838v-5.2h-18.438v5.2h-18.838v-5.2h-18.438v5.2h-18.838v-5.2h-18.438v5.2"/>
    <path fill="none" stroke="#000" stroke-width=".1mm" d="M566.029 502.385v-5.2H547.59v5.2h-18.838v-5.2h-18.438v5.2h-18.838v-5.2h-18.438v5.2H454.2v-10.36h5.2v-9.96h-5.2v-10.36h5.2v-9.96h-5.2v-10.36h18.838v5.2h18.438v-5.2h18.838v5.2h18.438v-5.2h18.838v5.2h18.439v-5.2h18.838v5.2h18.438v-5.2h18.838v5.2h18.438v-5.2h18.838v5.2h18.438v-5.2h18.838v5.2h18.438v-5.2h18.838v5.2h18.439v-5.2h18.838v5.2h18.438v-5.2h18.838v5.2h18.438v-5.2H845.8v10.36h-5.2v9.96h5.2v10.36h-5.2v9.96h5.2v10.36h-18.838v-5.2h-18.438v5.2h-18.838v-5.2h-18.438v5.2H752.41v-5.2h-18.439v5.2h-18.838v-5.2h-18.438v5.2h-18.838v-5.2h-18.438v5.2h-18.838v-5.2h-18.438v5.2h-18.838v-5.2h-18.438v5.2h-18.838M588.363 531.717l13.528-13.529h12.072v10.16h5v-4.96h12.935v-5.2h13.136v5.2h12.735v-5.603l2.208 5.33-14.264 14.264v5.059h10.686v-5.2h11.085v5.2h10.686v-5.2h11.086v5.2h10.686v-5.2h11.085v5.2h11.498l-93.562 26.783v-5.233h-10v-4.96h-5v10.16h-9.628l-.318-.015-.318-.048-.312-.078-.303-.108-.29-.138-.276-.165-.258-.192-.238-.215-.216-.238-.191-.258-.166-.276-.137-.291-.108-.302-.078-.312-.048-.318-.015-.319v-2.124l1.096-.387.985-.46.933-.555.875-.645.807-.729.731-.804.649-.872.559-.932.465-.982.366-1.024.263-1.054.157-1.076.051-1.086-.056-1.085-.163-1.074-.269-1.053-.371-1.022-.469-.98-.564-.93-.652-.869-.736-.8-.81-.724-.878-.64-.938-.551-.986-.456-1.026-.357-1.058-.254-1.078-.148-7.596-.665-.319-.043-.315-.076-.305-.106-.294-.136-.279-.164-.261-.191-.242-.217-.218-.238-.194-.259-.168-.277-.14-.292-.109-.305-.079-.314-.048-.32-.016-.321v-6.601"/>
    <path fill="none" stroke="#000" stroke-width=".1mm" d="M613.963 538.708h5v9.96h-5v-9.96M621.943 451.385v-5.2h-18.438v5.2h-18.838v-5.2h-18.438v5.2H547.39v-5.2h-18.438v5.2h-18.838v-5.2h-18.438v5.2h-18.838v-5.2H454.2V433.05h5.2v-12.736h-5.2v-13.135h391.6v13.135h-5.2v12.736h5.2v13.135h-18.638v5.2h-18.838v-5.2h-18.438v5.2h-18.838v-5.2H752.61v5.2h-18.839v-5.2h-18.438v5.2h-18.838v-5.2h-18.438v5.2h-18.838v-5.2h-18.438v5.2h-18.838M459.4 396.093v-10.685h-5.2v-11.086h5.2v-10.686h-5.2V352.55h5.2v-10.685h-5.2v-11.086h391.6v11.086h-5.2v10.685h5.2v11.086h-5.2v10.686h5.2v11.086h-5.2v10.685h5.2v11.086H454.2v-11.086h5.2"/>
</svg>
