<!--
Cleat Wall Organization Equipment
Copyright (C) 2025  Corporate Hacks

This program is free software: you can redistribute it and/or modify
it under the terms of the GNU General Public License as published by
the Free Software Foundation, either version 3 of the License, or
(at your option) any later version.

This program is distributed in the hope that it will be useful,
but WITHOUT ANY WARRANTY; without even the implied warranty of
MERCHANTABILITY or FITNESS FOR A PARTICULAR PURPOSE.  See the
GNU General Public License for more details.

You should have received a copy of the GNU General Public License
along with this program.  If not, see <http://www.gnu.org/licenses/>.
-->

<svg xmlns="http://www.w3.org/2000/svg" width="1300mm" height="900mm" viewBox="0 0 1300 900">
    <path fill="none" stroke="#000" stroke-width=".1mm" d="M473.9 575v-75.25h11.31v5.2h10.911v-5.2h11.277l2.041 4.927L495.116 519h-1.156v5h19.66v-5.2h20.06v5.2h19.66v-5.2h14.86v18.667h5.2v18.866h-5.2V575h-14.86v-5.2h-19.66v5.2h-20.06v-5.2h-19.66v5.2H473.9" style="vector-effect:non-scaling-stroke;stroke-width:.264583;stroke-dasharray:none;-inkscape-stroke:hairline" transform="rotate(90 595.775 511.825)"/>
    <path d="M588.8 250.53v-19.66h5v19.66h-5m-51 39.92v-19.86h-5.2v-20.06h5.2v-19.66h-5.2v-20.06h5.2v-19.86h17.133v5.2h16.734v-5.2H588.8v19.86h5v-19.86h17.133v5.2h16.734v-5.2H644.8v19.86h5.2v20.06h-5.2v19.66h5.2v20.06h-5.2v19.86h-51v-19.86h-5v19.86h-51" style="vector-effect:non-scaling-stroke;fill:none;stroke:#000;stroke-width:.264583;-inkscape-stroke:hairline"/>
    <path fill="none" stroke="#000" stroke-width=".1mm" d="M533.68 400.25h-20.06v-5.2h-19.66v5.2H479.1v-18.667h-5.2v-18.866h5.2V344.05h14.86v5.2h19.66v-5.2h20.06v5.2h19.66v-5h-1.156l-14.323-14.323 2.041-4.927h11.277v5.2h10.911V325h11.31v75.25h-20.06v-5.2h-19.66v5.2" style="vector-effect:non-scaling-stroke;stroke-width:.264583;stroke-dasharray:none;-inkscape-stroke:hairline" transform="rotate(90 458.65 474.2)"/>
    <path fill="none" stroke="#000" stroke-width=".1mm" d="M473.9 575v-75.25h11.31v5.2h10.911v-5.2h11.277l2.041 4.927L495.116 519h-1.156v5h19.66v-5.2h20.06v5.2h19.66v-5.2h14.86v18.667h5.2v18.866h-5.2V575h-14.86v-5.2h-19.66v5.2h-20.06v-5.2h-19.66v5.2H473.9" style="vector-effect:non-scaling-stroke;stroke-width:.264583;stroke-dasharray:none;-inkscape-stroke:hairline" transform="rotate(-90 526.2 437.15)"/>
    <path fill="none" stroke="#000" stroke-width=".1mm" d="M533.68 400.25h-20.06v-5.2h-19.66v5.2H479.1v-18.667h-5.2v-18.866h5.2V344.05h14.86v5.2h19.66v-5.2h20.06v5.2h19.66v-5h-1.156l-14.323-14.323 2.041-4.927h11.277v5.2h10.911V325h11.31v75.25h-20.06v-5.2h-19.66v5.2" style="vector-effect:non-scaling-stroke;stroke-width:.264583;stroke-dasharray:none;-inkscape-stroke:hairline" transform="rotate(-90 663.325 399.525)"/>
    <path d="M706.2 230.87h5v19.66h-5v-19.66M650 210.81h5.2v-19.86h17.133v5.2h16.734v-5.2H706.2v19.86h5v-19.86h17.133v5.2h16.734v-5.2H762.2v19.86h5.2v20.06h-5.2v19.66h5.2v20.06h-5.2v19.86h-51v-19.86h-5v19.86h-51v-19.86H650v-20.06h5.2v-19.66H650v-20.06M588.8 330.37v19.66h5v-19.66h-5m-51-39.92v19.86h-5.2v20.06h5.2v19.66h-5.2v20.06h5.2v19.86h17.133v-5.2h16.734v5.2H588.8v-19.86h5v19.86h17.133v-5.2h16.734v5.2H644.8v-19.86h5.2v-20.06h-5.2v-19.66h5.2v-20.06h-5.2v-19.86h-51v19.86h-5v-19.86h-51" style="vector-effect:non-scaling-stroke;fill:none;stroke:#000;stroke-width:.264583;-inkscape-stroke:hairline"/>
    <path d="M706.2 350.03h5v-19.66h-5v19.66M650 370.09h5.2v19.86h17.133v-5.2h16.734v5.2H706.2v-19.86h5v19.86h17.133v-5.2h16.734v5.2H762.2v-19.86h5.2v-20.06h-5.2v-19.66h5.2v-20.06h-5.2v-19.86h-51v19.86h-5v-19.86h-51v19.86H650v20.06h5.2v19.66H650v20.06M551.467 645.15v5h18.466v-5h-18.466m-18.867-56.2v5.4h5.2v16.733h-5.2v17.134h5.2v16.733h-5.2v5.4h5.2v16.733h-5.2v17.134h5.2v16.733h-5.2v5.4h18.867v-5.2h18.466v5.2H588.8v-5.4h-5.2v-16.733h5.2v-17.134h-5.2V650.35h5.2v-5.4h-5.2v-16.733h5.2v-17.134h-5.2V594.35h5.2v-5.4h-18.867v5.2h-18.466v-5.2H532.6" style="vector-effect:non-scaling-stroke;fill:none;stroke:#000;stroke-width:.264583;-inkscape-stroke:hairline"/>
    <path fill="none" stroke="#000" stroke-width=".1mm" d="M785.1 541.47v11.11h5.2v11.31h-5.2V575h-107v-11.11h-5.2v-11.31h5.2v-11.11h107" style="vector-effect:non-scaling-stroke;stroke-width:.264583;stroke-dasharray:none;-inkscape-stroke:hairline" transform="matrix(0 1 1 0 137.06 -81.25)"/>
    <path fill="none" stroke="#000" stroke-width=".1mm" d="M672.9 537.467v18.866h-5.2V575h-14.86v-5.2h-19.66v5.2h-20.06v-5.2h-19.66v5.2H573.4v-56.2h20.06v5.2h19.66v-5.2h20.06v5.2h19.66v-5.2h14.86v18.667h5.2" style="vector-effect:non-scaling-stroke;stroke-width:.264583;stroke-dasharray:none;-inkscape-stroke:hairline" transform="rotate(90 661.5 577.55)"/>
    <path d="M607.667 645.15v5h18.466v-5h-18.466m-18.867-56.2v5.4h5.2v16.733h-5.2v17.134h5.2v16.733h-5.2v5.4h5.2v16.733h-5.2v17.134h5.2v16.733h-5.2v5.4h18.867v-5.2h18.466v5.2H645v-5.4h-5.2v-16.733h5.2v-17.134h-5.2V650.35h5.2v-5.4h-5.2v-16.733h5.2v-17.134h-5.2V594.35h5.2v-5.4h-18.867v5.2h-18.466v-5.2H588.8" style="vector-effect:non-scaling-stroke;fill:none;stroke:#000;stroke-width:.264583;-inkscape-stroke:hairline"/>
    <path fill="none" stroke="#000" stroke-width=".1mm" d="M785.1 541.47v11.11h5.2v11.31h-5.2V575h-107v-11.11h-5.2v-11.31h5.2v-11.11h107" style="vector-effect:non-scaling-stroke;stroke-width:.264583;stroke-dasharray:none;-inkscape-stroke:hairline" transform="matrix(0 1 1 0 103.53 -81.25)"/>
    <path fill="none" stroke="#000" stroke-width=".1mm" d="M672.9 537.467v18.866h-5.2V575h-14.86v-5.2h-19.66v5.2h-20.06v-5.2h-19.66v5.2H573.4v-56.2h20.06v5.2h19.66v-5.2h20.06v5.2h19.66v-5.2h14.86v18.667h5.2" style="vector-effect:non-scaling-stroke;stroke-width:.264583;stroke-dasharray:none;-inkscape-stroke:hairline" transform="rotate(-90 604.05 458.8)"/>
</svg>
