<!--
Cleat Wall Organization Equipment
Copyright (C) 2025  Corporate Hacks

This program is free software: you can redistribute it and/or modify
it under the terms of the GNU General Public License as published by
the Free Software Foundation, either version 3 of the License, or
(at your option) any later version.

This program is distributed in the hope that it will be useful,
but WITHOUT ANY WARRANTY; without even the implied warranty of
MERCHANTABILITY or FITNESS FOR A PARTICULAR PURPOSE.  See the
GNU General Public License for more details.

You should have received a copy of the GNU General Public License
along with this program.  If not, see <http://www.gnu.org/licenses/>.
-->

<svg xmlns="http://www.w3.org/2000/svg" width="1300mm" height="900mm" viewBox="0 0 1300 900">
    <path fill="none" stroke="#000" stroke-width=".1mm" d="M458.9 582.715v-17.46h-5.2v-17.66h5.2v-17.46h107v17.46h5.2v17.66h-5.2v17.46h-107" style="vector-effect:non-scaling-stroke;stroke-width:.264583;stroke-dasharray:none;-inkscape-stroke:hairline" transform="rotate(90 473.145 548.345)"/>
    <path d="M724.575 273.529h5v19.428h-5v-19.428m-51-19.829h75.25v17.66h-5.2v17.261h5.2v17.627l-4.927 2.041-14.123-14.123v18.62h-5.2v19.428h5.2v19.829h-5.2v19.428h5.2V391.3h-18.867v-5.2h-18.466v5.2h-18.867v-19.829h5.2v-19.428h-5.2v-19.829h5.2v-19.428h-5.2v-19.829h5.2v-19.428h-5.2V253.7M494.975 332.414h5v19.429h-5v-19.429m0-19.828v-19.429h5v19.429h-5m-51 78.714v-19.629h-5.2v-19.828h5.2v-19.429h-5.2v-19.828h5.2v-19.429h-5.2v-19.828h5.2V253.7h17.133v5.2h16.734v-5.2h17.133v19.629h5V253.7h17.133v5.2h16.734v-5.2h17.133v19.629h5.2v19.828h-5.2v19.429h5.2v19.828h-5.2v19.429h5.2v19.828h-5.2V391.3h-51v-19.629h-5V391.3h-51" style="vector-effect:non-scaling-stroke;fill:none;stroke:#000;stroke-width:.264583;stroke-dasharray:none;-inkscape-stroke:hairline"/>
    <path d="M612.375 332.414h5v19.429h-5v-19.429m0-19.828v-19.429h5v19.429h-5m-56.2 19.828v-19.828h5.2v-19.429h-5.2v-19.828h5.2V253.7h17.133v5.2h16.734v-5.2h17.133v19.629h5V253.7h17.133v5.2h16.734v-5.2h17.133v19.629h5.2v19.828h-5.2v19.429h5.2v19.828h-5.2v19.429h5.2v19.828h-5.2V391.3h-51v-19.629h-5V391.3h-51v-19.629h-5.2v-19.828h5.2v-19.429h-5.2M494.975 450.186h5v-19.429h-5v19.429m0 19.828v19.429h5v-19.429h-5m-51-78.714v19.629h-5.2v19.828h5.2v19.429h-5.2v19.828h5.2v19.429h-5.2v19.828h5.2V528.9h17.133v-5.2h16.734v5.2h17.133v-19.629h5V528.9h17.133v-5.2h16.734v5.2h17.133v-19.629h5.2v-19.828h-5.2v-19.429h5.2v-19.828h-5.2v-19.429h5.2v-19.828h-5.2V391.3h-51v19.629h-5V391.3h-51" style="vector-effect:non-scaling-stroke;fill:none;stroke:#000;stroke-width:.264583;stroke-dasharray:none;-inkscape-stroke:hairline"/>
    <path d="M612.375 450.186h5v-19.429h-5v19.429m0 19.828v19.429h5v-19.429h-5m-56.2-19.828v19.828h5.2v19.429h-5.2v19.828h5.2V528.9h17.133v-5.2h16.734v5.2h17.133v-19.629h5V528.9h17.133v-5.2h16.734v5.2h17.133v-19.629h5.2v-19.828h-5.2v-19.429h5.2v-19.828h-5.2v-19.429h5.2v-19.828h-5.2V391.3h-51v19.629h-5V391.3h-51v19.629h-5.2v19.828h5.2v19.429h-5.2" style="vector-effect:non-scaling-stroke;fill:none;stroke:#000;stroke-width:.264583;stroke-dasharray:none;-inkscape-stroke:hairline"/>
    <path d="M729.575 489.643v19.428h-5v-19.428h5m.2-98.343v19.829h-5.2v19.428h5.2v19.829h-5.2v19.428h5.2v18.62l14.123-14.123 4.927 2.041v17.627h-5.2v17.261h5.2v17.66h-75.25v-19.829h5.2v-19.428h-5.2v-19.829h5.2v-19.428h-5.2v-19.829h5.2v-19.428h-5.2V391.3h18.867v5.2h18.466v-5.2h18.867" style="vector-effect:non-scaling-stroke;fill:none;stroke:#000;stroke-width:.264583;stroke-dasharray:none;-inkscape-stroke:hairline"/>
    <path fill="none" stroke="#000" stroke-width=".1mm" d="M768.167 473.935v5.2H785.1v13.467h5v-13.467h16.933v-5.2h17.134v5.2H841.1v13.467h5.2v18.866h-5.2v13.467h-16.933v5.2h-17.134v-5.2H790.1v-13.467h-5v13.467h-16.933v5.2h-17.134v-5.2H734.1v-13.467h-5.2v-18.866h5.2v-13.467h16.933v-5.2h17.134" style="vector-effect:non-scaling-stroke;stroke-width:.264583;stroke-dasharray:none;-inkscape-stroke:hairline" transform="rotate(90 637.035 437.035)"/>
    <path fill="none" stroke="#000" stroke-width=".1mm" d="M728.9 473.935v18.867h-5.2v18.466h5.2v18.867h-19.829v-5.2h-19.428v5.2h-19.829v-5.2h-19.428v5.2h-19.829v-5.2h-19.428v5.2H591.3v-56.2h19.829v5.2h19.428v-5.2h19.829v5.2h19.428v-5.2h19.829v5.2h19.428v-5.2H728.9" style="vector-effect:non-scaling-stroke;stroke-width:.264583;stroke-dasharray:none;-inkscape-stroke:hairline" transform="rotate(90 836.38 498.78)"/>
    <path fill="none" stroke="#000" stroke-width=".1mm" d="M458.9 582.715v-17.46h-5.2v-17.66h5.2v-17.46h107v17.46h5.2v17.66h-5.2v17.46h-107" style="vector-effect:non-scaling-stroke;stroke-width:.264583;stroke-dasharray:none;-inkscape-stroke:hairline" transform="matrix(0 1 1 0 -38.78 75.2)"/>
    <path d="M754.025 411.129h-5v19.428h5v-19.428m51-19.829h-75.25v17.66h5.2v17.261h-5.2v17.627l4.927 2.041 14.123-14.123v18.62h5.2v19.428h-5.2v19.829h5.2v19.428h-5.2V528.9h18.867v-5.2h18.466v5.2h18.867v-19.829h-5.2v-19.428h5.2v-19.829h-5.2v-19.428h5.2v-19.829h-5.2v-19.428h5.2V391.3" style="vector-effect:non-scaling-stroke;fill:none;stroke:#000;stroke-width:.264583;stroke-dasharray:none;-inkscape-stroke:hairline"/>
    <path d="M749.025 352.043v19.428h5v-19.428h-5m-.2-98.343v19.829h5.2v19.428h-5.2v19.829h5.2v19.428h-5.2v18.62l-14.123-14.123-4.927 2.041v17.627h5.2v17.261h-5.2v17.66h75.25v-19.829h-5.2v-19.428h5.2v-19.829h-5.2v-19.428h5.2v-19.829h-5.2v-19.428h5.2V253.7h-18.867v5.2h-18.466v-5.2h-18.867" style="vector-effect:non-scaling-stroke;fill:none;stroke:#000;stroke-width:.264583;stroke-dasharray:none;-inkscape-stroke:hairline"/>
    <path fill="none" stroke="#000" stroke-width=".1mm" d="M768.167 473.935v5.2H785.1v13.467h5v-13.467h16.933v-5.2h17.134v5.2H841.1v13.467h5.2v18.866h-5.2v13.467h-16.933v5.2h-17.134v-5.2H790.1v-13.467h-5v13.467h-16.933v5.2h-17.134v-5.2H734.1v-13.467h-5.2v-18.866h5.2v-13.467h16.933v-5.2h17.134" style="vector-effect:non-scaling-stroke;stroke-width:.264583;stroke-dasharray:none;-inkscape-stroke:hairline" transform="matrix(0 1 1 0 126.2 -200)"/>
    <path fill="none" stroke="#000" stroke-width=".1mm" d="M728.9 473.935v18.867h-5.2v18.466h5.2v18.867h-19.829v-5.2h-19.428v5.2h-19.829v-5.2h-19.428v5.2h-19.829v-5.2h-19.428v5.2H591.3v-56.2h19.829v5.2h19.428v-5.2h19.829v5.2h19.428v-5.2h19.829v5.2h19.428v-5.2H728.9" style="vector-effect:non-scaling-stroke;stroke-width:.264583;stroke-dasharray:none;-inkscape-stroke:hairline" transform="matrix(0 1 1 0 331.09 -200)"/>
</svg>
