<?xml version="1.0" encoding="UTF-8" standalone="no"?>
<svg
   width="1300mm"
   height="900mm"
   viewBox="0 0 1300 900"
   version="1.1"
   id="svg13"
   sodipodi:docname="TwoComp5in.svg"
   inkscape:version="1.3.2 (091e20ef0f, 2023-11-25)"
   xmlns:inkscape="http://www.inkscape.org/namespaces/inkscape"
   xmlns:sodipodi="http://sodipodi.sourceforge.net/DTD/sodipodi-0.dtd"
   xmlns="http://www.w3.org/2000/svg"
   xmlns:svg="http://www.w3.org/2000/svg">
  <defs
     id="defs13" />
  <sodipodi:namedview
     id="namedview13"
     pagecolor="#505050"
     bordercolor="#eeeeee"
     borderopacity="1"
     inkscape:showpageshadow="0"
     inkscape:pageopacity="0"
     inkscape:pagecheckerboard="0"
     inkscape:deskcolor="#505050"
     inkscape:document-units="mm"
     inkscape:zoom="0.31017308"
     inkscape:cx="1678.0954"
     inkscape:cy="1620.0632"
     inkscape:window-width="1920"
     inkscape:window-height="1011"
     inkscape:window-x="0"
     inkscape:window-y="32"
     inkscape:window-maximized="1"
     inkscape:current-layer="svg13" />
  <polyline
     z="0"
     points="458.9,582.715 458.9,565.255 453.7,565.255 453.7,547.595 458.9,547.595 458.9,530.135 565.9,530.135 565.9,547.595 571.1,547.595 571.1,565.255 565.9,565.255 565.9,582.715 458.9,582.715"
     fill="none"
     stroke="#000000"
     stroke-width="0.1mm"
     id="polyline1"
     style="vector-effect:non-scaling-stroke;stroke-width:0.264583;stroke-dasharray:none;-inkscape-stroke:hairline"
     transform="rotate(90,473.145,548.345)" />
  <path
     id="polyline3"
     style="vector-effect:non-scaling-stroke;fill:none;stroke:#000000;stroke-width:0.264583;stroke-dasharray:none;-inkscape-stroke:hairline"
     d="m 724.575,273.529 h 5 v 19.428 h -5 v -19.428 m -51,-19.829 h 75.25 v 17.66 h -5.2 v 17.261 h 5.2 v 17.627 l -4.927,2.041 -14.123,-14.123 v 18.62 h -5.2 v 19.428 h 5.2 v 19.829 h -5.2 v 19.428 h 5.2 V 391.3 h -18.867 v -5.2 h -18.466 v 5.2 h -18.867 v -19.829 h 5.2 v -19.428 h -5.2 v -19.829 h 5.2 v -19.428 h -5.2 v -19.829 h 5.2 v -19.428 h -5.2 V 253.7" />
  <path
     id="polyline6"
     style="vector-effect:non-scaling-stroke;fill:none;stroke:#000000;stroke-width:0.264583;stroke-dasharray:none;-inkscape-stroke:hairline"
     d="m 494.975,332.414 h 5 v 19.429 h -5 v -19.429 m 0,-19.828 v -19.429 h 5 v 19.429 h -5 m -51,78.714 v -19.629 h -5.2 v -19.828 h 5.2 v -19.429 h -5.2 v -19.828 h 5.2 v -19.429 h -5.2 v -19.828 h 5.2 V 253.7 h 17.133 v 5.2 h 16.734 v -5.2 h 17.133 v 19.629 h 5 V 253.7 h 17.133 v 5.2 h 16.734 v -5.2 h 17.133 v 19.629 h 5.2 v 19.828 h -5.2 v 19.429 h 5.2 v 19.828 h -5.2 v 19.429 h 5.2 v 19.828 h -5.2 V 391.3 h -51 v -19.629 h -5 V 391.3 h -51" />
  <path
     id="polyline9"
     style="vector-effect:non-scaling-stroke;fill:none;stroke:#000000;stroke-width:0.264583;stroke-dasharray:none;-inkscape-stroke:hairline"
     d="m 612.375,332.414 h 5 v 19.429 h -5 v -19.429 m 0,-19.828 v -19.429 h 5 v 19.429 h -5 m -56.2,19.828 v -19.828 h 5.2 v -19.429 h -5.2 v -19.828 h 5.2 V 253.7 h 17.133 v 5.2 h 16.734 v -5.2 h 17.133 v 19.629 h 5 V 253.7 h 17.133 v 5.2 h 16.734 v -5.2 h 17.133 v 19.629 h 5.2 v 19.828 h -5.2 v 19.429 h 5.2 v 19.828 h -5.2 v 19.429 h 5.2 v 19.828 h -5.2 V 391.3 h -51 v -19.629 h -5 V 391.3 h -51 v -19.629 h -5.2 v -19.828 h 5.2 v -19.429 h -5.2" />
  <path
     id="polyline6-3"
     style="vector-effect:non-scaling-stroke;fill:none;stroke:#000000;stroke-width:0.264583;stroke-dasharray:none;-inkscape-stroke:hairline"
     d="m 494.975,450.186 h 5 v -19.429 h -5 v 19.429 m 0,19.828 v 19.429 h 5 v -19.429 h -5 m -51,-78.714 v 19.629 h -5.2 v 19.828 h 5.2 v 19.429 h -5.2 v 19.828 h 5.2 v 19.429 h -5.2 v 19.828 h 5.2 V 528.9 h 17.133 v -5.2 h 16.734 v 5.2 h 17.133 v -19.629 h 5 V 528.9 h 17.133 v -5.2 h 16.734 v 5.2 h 17.133 v -19.629 h 5.2 v -19.828 h -5.2 v -19.429 h 5.2 v -19.828 h -5.2 v -19.429 h 5.2 v -19.828 h -5.2 V 391.3 h -51 v 19.629 h -5 V 391.3 h -51" />
  <path
     id="polyline9-9"
     style="vector-effect:non-scaling-stroke;fill:none;stroke:#000000;stroke-width:0.264583;stroke-dasharray:none;-inkscape-stroke:hairline"
     d="m 612.375,450.186 h 5 v -19.429 h -5 v 19.429 m 0,19.828 v 19.429 h 5 v -19.429 h -5 m -56.2,-19.828 v 19.828 h 5.2 v 19.429 h -5.2 v 19.828 h 5.2 V 528.9 h 17.133 v -5.2 h 16.734 v 5.2 h 17.133 v -19.629 h 5 V 528.9 h 17.133 v -5.2 h 16.734 v 5.2 h 17.133 v -19.629 h 5.2 v -19.828 h -5.2 v -19.429 h 5.2 v -19.828 h -5.2 v -19.429 h 5.2 v -19.828 h -5.2 V 391.3 h -51 v 19.629 h -5 V 391.3 h -51 v 19.629 h -5.2 v 19.828 h 5.2 v 19.429 h -5.2" />
  <path
     id="polyline11"
     style="vector-effect:non-scaling-stroke;fill:none;stroke:#000000;stroke-width:0.264583;stroke-dasharray:none;-inkscape-stroke:hairline"
     d="m 729.575,489.643 v 19.428 h -5 v -19.428 h 5 m 0.2,-98.343 v 19.829 h -5.2 v 19.428 h 5.2 v 19.829 h -5.2 v 19.428 h 5.2 v 18.62 l 14.123,-14.123 4.927,2.041 v 17.627 h -5.2 v 17.261 h 5.2 v 17.66 h -75.25 v -19.829 h 5.2 v -19.428 h -5.2 v -19.829 h 5.2 v -19.428 h -5.2 v -19.829 h 5.2 v -19.428 h -5.2 V 391.3 h 18.867 v 5.2 h 18.466 v -5.2 h 18.867" />
  <polyline
     z="0"
     points="768.167,473.935 768.167,479.135 785.1,479.135 785.1,492.602 790.1,492.602 790.1,479.135 807.033,479.135 807.033,473.935 824.167,473.935 824.167,479.135 841.1,479.135 841.1,492.602 846.3,492.602 846.3,511.468 841.1,511.468 841.1,524.935 824.167,524.935 824.167,530.135 807.033,530.135 807.033,524.935 790.1,524.935 790.1,511.468 785.1,511.468 785.1,524.935 768.167,524.935 768.167,530.135 751.033,530.135 751.033,524.935 734.1,524.935 734.1,511.468 728.9,511.468 728.9,492.602 734.1,492.602 734.1,479.135 751.033,479.135 751.033,473.935 768.167,473.935"
     fill="none"
     stroke="#000000"
     stroke-width="0.1mm"
     id="polyline12"
     style="vector-effect:non-scaling-stroke;stroke-width:0.264583;stroke-dasharray:none;-inkscape-stroke:hairline"
     transform="rotate(90,637.035,437.035)" />
  <polyline
     z="0"
     points="728.9,473.935 728.9,492.802 723.7,492.802 723.7,511.268 728.9,511.268 728.9,530.135 709.071,530.135 709.071,524.935 689.643,524.935 689.643,530.135 669.814,530.135 669.814,524.935 650.386,524.935 650.386,530.135 630.557,530.135 630.557,524.935 611.129,524.935 611.129,530.135 591.3,530.135 591.3,473.935 611.129,473.935 611.129,479.135 630.557,479.135 630.557,473.935 650.386,473.935 650.386,479.135 669.814,479.135 669.814,473.935 689.643,473.935 689.643,479.135 709.071,479.135 709.071,473.935 728.9,473.935"
     fill="none"
     stroke="#000000"
     stroke-width="0.1mm"
     id="polyline13"
     style="vector-effect:non-scaling-stroke;stroke-width:0.264583;stroke-dasharray:none;-inkscape-stroke:hairline"
     transform="rotate(90,836.38,498.78)" />
  <polyline
     z="0"
     points="458.9,582.715 458.9,565.255 453.7,565.255 453.7,547.595 458.9,547.595 458.9,530.135 565.9,530.135 565.9,547.595 571.1,547.595 571.1,565.255 565.9,565.255 565.9,582.715 458.9,582.715"
     fill="none"
     stroke="#000000"
     stroke-width="0.1mm"
     id="polyline1-0"
     style="vector-effect:non-scaling-stroke;stroke-width:0.264583;stroke-dasharray:none;-inkscape-stroke:hairline"
     transform="matrix(0,1,1,0,-38.78,75.2)" />
  <path
     id="polyline3-8"
     style="vector-effect:non-scaling-stroke;fill:none;stroke:#000000;stroke-width:0.264583;stroke-dasharray:none;-inkscape-stroke:hairline"
     d="m 754.025,411.129 h -5 v 19.428 h 5 V 411.129 M 805.02499,391.3 H 729.775 v 17.66 h 5.2 v 17.261 h -5.2 v 17.627 l 4.927,2.041 14.123,-14.123 v 18.62 h 5.2 v 19.428 h -5.2 v 19.829 h 5.2 v 19.428 h -5.2 V 528.9 h 18.867 v -5.2 h 18.466 v 5.2 h 18.86699 v -19.829 h -5.2 v -19.428 h 5.2 v -19.829 h -5.2 v -19.428 h 5.2 v -19.829 h -5.2 v -19.428 h 5.2 V 391.3" />
  <path
     id="polyline11-8"
     style="vector-effect:non-scaling-stroke;fill:none;stroke:#000000;stroke-width:0.264583;stroke-dasharray:none;-inkscape-stroke:hairline"
     d="m 749.025,352.043 v 19.428 h 5 v -19.428 h -5 m -0.2,-98.343 v 19.829 h 5.2 v 19.428 h -5.2 v 19.829 h 5.2 v 19.428 h -5.2 v 18.62 l -14.123,-14.123 -4.927,2.041 v 17.627 h 5.2 v 17.261 h -5.2 v 17.66 h 75.25 v -19.829 h -5.2 v -19.428 h 5.2 v -19.829 h -5.2 v -19.428 h 5.2 v -19.829 h -5.2 v -19.428 h 5.2 V 253.7 h -18.867 v 5.2 h -18.466 v -5.2 h -18.867" />
  <polyline
     z="0"
     points="768.167,473.935 768.167,479.135 785.1,479.135 785.1,492.602 790.1,492.602 790.1,479.135 807.033,479.135 807.033,473.935 824.167,473.935 824.167,479.135 841.1,479.135 841.1,492.602 846.3,492.602 846.3,511.468 841.1,511.468 841.1,524.935 824.167,524.935 824.167,530.135 807.033,530.135 807.033,524.935 790.1,524.935 790.1,511.468 785.1,511.468 785.1,524.935 768.167,524.935 768.167,530.135 751.033,530.135 751.033,524.935 734.1,524.935 734.1,511.468 728.9,511.468 728.9,492.602 734.1,492.602 734.1,479.135 751.033,479.135 751.033,473.935 768.167,473.935"
     fill="none"
     stroke="#000000"
     stroke-width="0.1mm"
     id="polyline12-5"
     style="vector-effect:non-scaling-stroke;stroke-width:0.264583;stroke-dasharray:none;-inkscape-stroke:hairline"
     transform="matrix(0,1,1,0,126.20001,-200)" />
  <polyline
     z="0"
     points="728.9,473.935 728.9,492.802 723.7,492.802 723.7,511.268 728.9,511.268 728.9,530.135 709.071,530.135 709.071,524.935 689.643,524.935 689.643,530.135 669.814,530.135 669.814,524.935 650.386,524.935 650.386,530.135 630.557,530.135 630.557,524.935 611.129,524.935 611.129,530.135 591.3,530.135 591.3,473.935 611.129,473.935 611.129,479.135 630.557,479.135 630.557,473.935 650.386,473.935 650.386,479.135 669.814,479.135 669.814,473.935 689.643,473.935 689.643,479.135 709.071,479.135 709.071,473.935 728.9,473.935"
     fill="none"
     stroke="#000000"
     stroke-width="0.1mm"
     id="polyline13-0"
     style="vector-effect:non-scaling-stroke;stroke-width:0.264583;stroke-dasharray:none;-inkscape-stroke:hairline"
     transform="matrix(0,1,1,0,331.09,-200)" />
</svg>
