Cleat Wall Organization Equipment
Copyright (C) 2025  Corporate Hacks

This program is free software: you can redistribute it and/or modify
it under the terms of the GNU General Public License as published by
the Free Software Foundation, either version 3 of the License, or
(at your option) any later version.

This program is distributed in the hope that it will be useful,
but WITHOUT ANY WARRANTY; without even the implied warranty of
MERCHANTABILITY or FITNESS FOR A PARTICULAR PURPOSE.  See the
GNU General Public License for more details.

You should have received a copy of the GNU General Public License
along with this program.  If not, see <http://www.gnu.org/licenses/>.


<svg xmlns="http://www.w3.org/2000/svg" width="1300mm" height="900mm" viewBox="0 0 1300 900">
    <path fill="none" stroke="#000" stroke-width=".1mm" d="M730.833 551.464h17.134v5.2H764.9v13.467h5v-13.467h16.933v-5.2h17.134v5.2H820.9v13.467h5.2v18.866h-5.2v13.467h-16.933v5.2h-17.134v-5.2H769.9v-13.467h-5v13.467h-16.933v5.2h-17.134v-5.2H713.9v-13.467h-5.2v-18.866h5.2v-13.467h16.933v-5.2" style="vector-effect:non-scaling-stroke;stroke-width:.264583;stroke-dasharray:none;-inkscape-stroke:hairline" transform="rotate(90 603.12 499.52)"/>
    <path fill="none" stroke="#000" stroke-width=".1mm" d="M607.1 607.664v18.645h5.2v18.846h-5.2V663.8h-107v-18.645h-5.2v-18.846h5.2v-18.645h107" style="vector-effect:non-scaling-stroke;stroke-width:.264583;stroke-dasharray:none;-inkscape-stroke:hairline" transform="rotate(90 580.455 690.655)"/>
    <path fill="none" stroke="#000" stroke-width=".1mm" d="M730.833 551.464h17.134v5.2H764.9v13.467h5v-13.467h16.933v-5.2h17.134v5.2H820.9v13.467h5.2v18.866h-5.2v13.467h-16.933v5.2h-17.134v-5.2H769.9v-13.467h-5v13.467h-16.933v5.2h-17.134v-5.2H713.9v-13.467h-5.2v-18.866h5.2v-13.467h16.933v-5.2" style="vector-effect:non-scaling-stroke;stroke-width:.264583;stroke-dasharray:none;-inkscape-stroke:hairline" transform="matrix(0 1 1 0 -112.689 -103.6)"/>
    <path fill="none" stroke="#000" stroke-width=".1mm" d="M607.1 607.664v18.645h5.2v18.846h-5.2V663.8h-107v-18.645h-5.2v-18.846h5.2v-18.645h107" style="vector-effect:non-scaling-stroke;stroke-width:.264583;stroke-dasharray:none;-inkscape-stroke:hairline" transform="matrix(0 1 1 0 -56.489 110.2)"/>
    <path d="M612.375 449.555h5v-19.219h-5v19.219m0 38.836h5v-19.218h-5v19.218m0 38.836h5v-19.218h-5v19.218m0 19.618v19.219h5v-19.219h-5m-51-155.545v19.418h-5.2v19.618h5.2v19.219h-5.2v19.618h5.2v19.218h-5.2v19.618h5.2v19.218h-5.2v19.618h5.2v19.219h-5.2v19.618h5.2V605.1h17.133v-5.2h16.734v5.2h17.133v-19.418h5V605.1h17.133v-5.2h16.734v5.2h17.133v-19.418h5.2v-19.618h-5.2v-19.219h5.2v-19.618h-5.2v-19.218h5.2v-19.618h-5.2v-19.218h5.2v-19.618h-5.2v-19.219h5.2v-19.618h-5.2V391.3h-51v19.418h-5V391.3h-51M780.775 449.755h5v19.218h-5v-19.218m-51-58.455h56.2v19.618h-5.2v19.218h5v-17.761h5.721l13.529 13.529v18.787h-5.2v18.445h5.2v18.812l-4.927 2.041-14.123-14.123v18.725h-5.2v19.218h5.2v19.618h-5.2v19.218h5.2v19.619h-5.2v19.218h5.2V605.1h-18.867v-5.2h-18.466v5.2h-18.867v-19.618h5.2v-19.218h-5.2v-19.619h5.2v-19.218h-5.2v-19.618h5.2v-19.218h-5.2v-19.618h5.2v-19.218h-5.2v-19.619h5.2v-19.218h-5.2V391.3M780.775 313.627h5v19.218h-5v-19.218m-51-77.672v-19.619h5.2v-19.218h-5.2V177.5h18.867v5.2h18.466v-5.2h18.867v19.618h-5.2v19.218h5.2v19.619h-5.2v19.218h5.2v19.618h-5.2v19.218h5.2v18.725l14.123-14.123 4.927 2.041v18.812h-5.2v18.445h5.2v18.787l-13.529 13.529h-5.721v-17.761h-5v19.218h5.2V391.3h-56.2v-19.618h5.2v-19.218h-5.2v-19.619h5.2v-19.218h-5.2v-19.618h5.2v-19.218h-5.2v-19.618h5.2v-19.218h-5.2" style="vector-effect:non-scaling-stroke;fill:none;stroke:#000;stroke-width:.264583;stroke-dasharray:none;-inkscape-stroke:hairline"/>
    <path fill="none" stroke="#000" stroke-width=".1mm" d="M708.7 476.214h19.618v5.2h19.218v-5.2h19.619v5.2h19.218v-5.2h19.618v5.2h19.218v-5.2h19.618v5.2h19.218v-5.2h19.619v5.2h19.218v-5.2H922.5v56.2h-19.618v-5.2h-19.218v5.2h-19.619v-5.2h-19.218v5.2h-19.618v-5.2h-19.218v5.2h-19.618v-5.2h-19.218v5.2h-19.619v-5.2h-19.218v5.2H708.7v-18.867h5.2v-18.466h-5.2v-18.867" style="vector-effect:non-scaling-stroke;stroke-width:.264583;stroke-dasharray:none;-inkscape-stroke:hairline" transform="rotate(90 761.694 444.294)"/>
    <path d="M617.375 333.045v19.219h-5v-19.219h5m0-38.836v19.218h-5v-19.218h5m0-38.836v19.218h-5v-19.218h5m0-19.618h-5v-19.219h5v19.219m51 155.545h-51v-19.418h-5V391.3h-51v-19.418h-5.2v-19.618h5.2v-19.219h-5.2v-19.618h5.2v-19.218h-5.2v-19.618h5.2v-19.218h-5.2v-19.618h5.2v-19.219h-5.2v-19.618h5.2V177.5h17.133v5.2h16.734v-5.2h17.133v19.418h5V177.5h17.133v5.2h16.734v-5.2h17.133v19.418h5.2v19.618h-5.2v19.219h5.2v19.618h-5.2v19.218h5.2v19.618h-5.2v19.218h5.2v19.618h-5.2v19.219h5.2v19.618h-5.2V391.3M499.975 449.555h-5v-19.219h5v19.219m0 38.836h-5v-19.218h5v19.218m0 38.836h-5v-19.218h5v19.218m0 19.618v19.219h-5v-19.219h5m51-155.545v19.418h5.2v19.618h-5.2v19.219h5.2v19.618h-5.2v19.218h5.2v19.618h-5.2v19.218h5.2v19.618h-5.2v19.219h5.2v19.618h-5.2V605.1h-17.133v-5.2h-16.734v5.2h-17.133v-19.418h-5V605.1h-17.133v-5.2h-16.734v5.2h-17.133v-19.418h-5.2v-19.618h5.2v-19.219h-5.2v-19.618h5.2v-19.218h-5.2v-19.618h5.2v-19.218h-5.2v-19.618h5.2v-19.219h-5.2v-19.618h5.2V391.3h51v19.418h5V391.3h51M810.225 235.955h-5v19.218h5v-19.218m51-58.455h-56.2v19.618h5.2v19.218h-5v-17.761h-5.721l-13.529 13.529v18.787h5.2v18.445h-5.2v18.812l4.927 2.041 14.123-14.123v18.725h5.2v19.218h-5.2v19.618h5.2v19.218h-5.2v19.619h5.2v19.218h-5.2V391.3h18.867v-5.2h18.466v5.2h18.867v-19.618h-5.2v-19.218h5.2v-19.619h-5.2v-19.218h5.2v-19.618h-5.2v-19.218h5.2v-19.618h-5.2v-19.218h5.2v-19.619h-5.2v-19.218h5.2V177.5M810.225 527.427h-5v19.218h5v-19.218m51-77.672v-19.619h-5.2v-19.218h5.2V391.3h-18.867v5.2h-18.466v-5.2h-18.867v19.618h5.2v19.218h-5.2v19.619h5.2v19.218h-5.2v19.618h5.2v19.218h-5.2v18.725l-14.123-14.123-4.927 2.041v18.812h5.2v18.445h-5.2v18.787l13.529 13.529h5.721v-17.761h5v19.218h-5.2V605.1h56.2v-19.618h-5.2v-19.218h5.2v-19.619h-5.2v-19.218h5.2v-19.618h-5.2v-19.218h5.2v-19.618h-5.2v-19.218h5.2" style="vector-effect:non-scaling-stroke;fill:none;stroke:#000;stroke-width:.264583;stroke-dasharray:none;-inkscape-stroke:hairline"/>
    <path fill="none" stroke="#000" stroke-width=".1mm" d="M708.7 476.214h19.618v5.2h19.218v-5.2h19.619v5.2h19.218v-5.2h19.618v5.2h19.218v-5.2h19.618v5.2h19.218v-5.2h19.619v5.2h19.218v-5.2H922.5v56.2h-19.618v-5.2h-19.218v5.2h-19.619v-5.2h-19.218v5.2h-19.618v-5.2h-19.218v5.2h-19.618v-5.2h-19.218v5.2h-19.619v-5.2h-19.218v5.2H708.7v-18.867h5.2v-18.466h-5.2v-18.867" style="vector-effect:non-scaling-stroke;stroke-width:.264583;stroke-dasharray:none;-inkscape-stroke:hairline" transform="matrix(0 1 1 0 197.361 -531.2)"/>
    <path d="M494.975 333.045v19.219h5v-19.219h-5m0-38.836v19.218h5v-19.218h-5m0-38.836v19.218h5v-19.218h-5m0-19.618h5v-19.219h-5v19.219m-51 155.545h51v-19.418h5V391.3h51v-19.418h5.2v-19.618h-5.2v-19.219h5.2v-19.618h-5.2v-19.218h5.2v-19.618h-5.2v-19.218h5.2v-19.618h-5.2v-19.219h5.2v-19.618h-5.2V177.5h-17.133v5.2h-16.734v-5.2h-17.133v19.418h-5V177.5h-17.133v5.2h-16.734v-5.2h-17.133v19.418h-5.2v19.618h5.2v19.219h-5.2v19.618h5.2v19.218h-5.2v19.618h5.2v19.218h-5.2v19.618h5.2v19.219h-5.2v19.618h5.2V391.3" style="vector-effect:non-scaling-stroke;fill:none;stroke:#000;stroke-width:.264583;stroke-dasharray:none;-inkscape-stroke:hairline"/>
</svg>
