<!--
Cleat Wall Organization Equipment
Copyright (C) 2025  Corporate Hacks

This program is free software: you can redistribute it and/or modify
it under the terms of the GNU General Public License as published by
the Free Software Foundation, either version 3 of the License, or
(at your option) any later version.

This program is distributed in the hope that it will be useful,
but WITHOUT ANY WARRANTY; without even the implied warranty of
MERCHANTABILITY or FITNESS FOR A PARTICULAR PURPOSE.  See the
GNU General Public License for more details.

You should have received a copy of the GNU General Public License
along with this program.  If not, see <http://www.gnu.org/licenses/>.
-->

<svg xmlns="http://www.w3.org/2000/svg" width="1300mm" height="900mm" viewBox="0 0 1300 900">
    <path fill="none" stroke="#000" stroke-width=".1mm" d="M1062.453 345.53h2.6v-26.01h-2.6v-26.41h2.6V266.9h7.774v5.2h27.7v14.05h-27.7v112h-7.773v-26.21h-2.601v-26.41"/>
    <path fill="none" stroke="#000" stroke-width=".1mm" d="M1057.899 412.2v14.05h27.7v5.2h7.774v-26.21h2.6v-26.41h-2.6v-26.01h2.6v-26.41h-2.6V300.2h-7.774v112h-27.7"/>
    <path d="M475.028 410.064h5v26.01h-5v-26.01m0-52.42h5v26.01h-5v-26.01m-35.473-7.16v-14.05h27.7v-5.2h20.546v5.2h27.7v14.05h-27.7v112h-20.546v-112h-27.7" style="fill:none;stroke:#000;stroke-width:.1mm" transform="translate(633.271 -50.284)"/>
    <path fill="none" stroke="#000" stroke-width=".1mm" d="M1179.693 366.87h-2.601v26.01h2.6v26.41h-2.6v26.21h-7.773v-5.2h-27.7v-14.05h27.7v-112h7.773v26.21h2.6v26.41"/>
    <path fill="none" stroke="#000" stroke-width=".1mm" d="M1184.247 300.2v-14.05h-27.7v-5.2h-7.774v26.21h-2.6v26.41h2.6v26.01h-2.6v26.41h2.6v26.21h7.774v-112h27.7"/>
    <path d="M475.028 410.064h5v26.01h-5v-26.01m0-52.42h5v26.01h-5v-26.01m-35.473-7.16v-14.05h27.7v-5.2h20.546v5.2h27.7v14.05h-27.7v112h-20.546v-112h-27.7" style="fill:none;stroke:#000;stroke-width:.1mm" transform="rotate(180 804.437 381.342)"/>
    <path fill="none" stroke="#000" stroke-width=".1mm" d="M1062.453 504.88h2.6v-26.01h-2.6v-26.41h2.6v-26.21h7.774v5.2h27.7v14.05h-27.7v112h-7.773v-26.21h-2.601v-26.41"/>
    <path fill="none" stroke="#000" stroke-width=".1mm" d="M1057.899 571.55v14.05h27.7v5.2h7.774v-26.21h2.6v-26.41h-2.6v-26.01h2.6v-26.41h-2.6v-26.21h-7.774v112h-27.7"/>
    <path d="M475.028 410.064h5v26.01h-5v-26.01m0-52.42h5v26.01h-5v-26.01m-35.473-7.16v-14.05h27.7v-5.2h20.546v5.2h27.7v14.05h-27.7v112h-20.546v-112h-27.7" style="fill:none;stroke:#000;stroke-width:.1mm" transform="translate(633.271 109.066)"/>
    <path fill="none" stroke="#000" stroke-width=".1mm" d="M1179.693 526.22h-2.601v26.01h2.6v26.41h-2.6v26.21h-7.773v-5.2h-27.7V585.6h27.7v-112h7.773v26.21h2.6v26.41"/>
    <path fill="none" stroke="#000" stroke-width=".1mm" d="M1184.247 459.55V445.5h-27.7v-5.2h-7.774v26.21h-2.6v26.41h2.6v26.01h-2.6v26.41h2.6v26.21h7.774v-112h27.7"/>
    <path d="M475.028 410.064h5v26.01h-5v-26.01m0-52.42h5v26.01h-5v-26.01m-35.473-7.16v-14.05h27.7v-5.2h20.546v5.2h27.7v14.05h-27.7v112h-20.546v-112h-27.7" style="fill:none;stroke:#000;stroke-width:.1mm" transform="rotate(180 804.437 461.017)"/>
    <path d="m457.072 448.649 5.355 5.355 5.355-5.355 3.536 3.536-5.355 5.355 5.355 5.355-3.536 3.536-5.355-5.355-5.355 5.355-3.536-3.536 5.355-5.355-5.355-5.355 3.536-3.536m0-236.218-3.536-3.536 5.355-5.355-5.355-5.355 3.536-3.536 5.355 5.355 5.355-5.355 3.536 3.536-5.355 5.355 5.355 5.355-3.536 3.536-5.355-5.355-5.355 5.355m5.355 276.709-3.098-.152-3.067-.455-3.008-.753-2.92-1.045-2.803-1.326-2.66-1.595-2.491-1.847-2.298-2.082-2.082-2.298-1.847-2.491-1.595-2.66-1.325-2.803-1.046-2.92-.753-3.008-.455-3.067-.152-3.096V203.538l.152-3.096.455-3.067.753-3.008 1.046-2.92 1.325-2.803 1.595-2.66 1.847-2.491 2.082-2.298 2.298-2.082 2.49-1.847 2.66-1.595 2.804-1.325 2.92-1.046 3.008-.753 3.067-.455 3.098-.152 3.098.152 3.067.455 3.008.753 2.92 1.046 2.803 1.325 2.66 1.595 2.49 1.847 2.299 2.082 2.082 2.298 1.847 2.49 1.595 2.66 1.326 2.804 1.045 2.92.753 3.008.455 3.067.152 3.096v254.004l-.152 3.096-.455 3.067-.753 3.008-1.045 2.92-1.326 2.803-1.595 2.66-1.847 2.49-2.082 2.299-2.298 2.082-2.491 1.847-2.66 1.595-2.803 1.326-2.92 1.045-3.008.753-3.067.455-3.098.152" style="fill:none;stroke:#000;stroke-width:.1mm" transform="translate(-81.745 94.96)"/>
    <path fill="none" stroke="#000" stroke-width=".1mm" d="M412.66 552.502V298.498l.152-3.096.455-3.067.753-3.008 1.046-2.92 1.325-2.803 1.595-2.66 1.847-2.49 2.082-2.299 2.298-2.082 2.491-1.847 2.66-1.595 2.803-1.325 2.92-1.046 3.008-.753 3.067-.455 3.098-.152 3.098.152 3.067.455 3.008.753 2.92 1.046 2.803 1.325 2.66 1.595 2.491 1.847 2.298 2.082 2.082 2.298 1.847 2.491 1.595 2.66 1.326 2.803 1.045 2.92.753 3.008.455 3.067.152 3.096v254.004l-.152 3.096-.455 3.067-.753 3.008-1.045 2.92-1.326 2.803-1.595 2.66-1.847 2.491-2.082 2.298-2.298 2.082-2.49 1.847-2.66 1.595-2.804 1.326-2.92 1.045-3.008.753-3.067.455-3.098.152-3.098-.152-3.067-.455-3.008-.753-2.92-1.045-2.803-1.326-2.66-1.595-2.49-1.847-2.299-2.082-2.082-2.298-1.847-2.49-1.595-2.66-1.325-2.804-1.046-2.92-.753-3.008-.455-3.067-.152-3.096M115.753 384.3v101.8h18.645v5.2h18.846v-5.2h18.645V384.3h-18.645v-5.2h-18.846v5.2h-18.645M172.268 491.3h8.283v-5.2h7.884v5.2h8.283v-14.636h-5.2v-9.037h5.2v-9.436h-5.2v-9.036h5.2v-9.437h-5.2v-9.036h5.2v-9.437h-5.2v-9.036h5.2v-9.436h-5.2v-9.037h5.2V379.1h-8.283v5.2h-7.884v-5.2h-8.283v14.636h5.2v9.037h-5.2v9.436h5.2v9.036h-5.2v9.437h5.2v9.036h-5.2v9.437h5.2v9.036h-5.2v9.436h5.2v9.037h-5.2V491.3M197.096 491.3h8.283v-5.2h7.884v5.2h8.283v-14.636h-5.2v-9.037h5.2v-9.436h-5.2v-9.036h5.2v-9.437h-5.2v-9.036h5.2v-9.437h-5.2v-9.036h5.2v-9.436h-5.2v-9.037h5.2V379.1h-8.283v5.2h-7.884v-5.2h-8.283v14.636h5.2v9.037h-5.2v9.436h5.2v9.036h-5.2v9.437h5.2v9.036h-5.2v9.437h5.2v9.036h-5.2v9.436h5.2v9.037h-5.2V491.3"/>
    <path d="m721.307 473.15 5.355 5.354 5.355-5.355 3.536 3.535-5.355 5.355 5.355 5.355-3.536 3.536-5.355-5.355-5.355 5.355-3.536-3.536 5.355-5.355-5.355-5.355 3.536-3.535m0-236.219-3.536-3.536 5.355-5.355-5.355-5.355 3.536-3.535 5.355 5.355 5.355-5.355 3.536 3.535-5.355 5.355 5.355 5.355-3.536 3.536-5.355-5.355-5.355 5.355m-50.745 267.936v-33.472h5.2v-33.073h-5.2v-33.473h5.2v-33.073h-5.2v-33.472h5.2V305.23h-5.2v-33.473h5.2v-33.073h-5.2v-33.472h5.2V177.14h9.236v-5.2h9.437v5.2h9.036v-5.2h9.436v5.2h9.037v-5.2h9.436v5.2h9.037v-5.2h9.436v5.2h9.036v-5.2h9.437v5.2h9.236v28.073h5.2v33.472h-5.2v33.073h5.2v33.473h-5.2v33.073h5.2v33.472h-5.2v33.073h5.2v33.473h-5.2v33.073h5.2v33.472h-5.2v28.073h-9.236v5.2h-9.437v-5.2h-9.036v5.2h-9.436v-5.2h-9.037v5.2h-9.436v-5.2h-9.037v5.2h-9.436v-5.2h-9.036v5.2h-9.437v-5.2h-9.236v-28.073h-5.2M619.439 473.148l3.536 3.536-5.355 5.355 5.355 5.355-3.536 3.535-5.355-5.355-5.355 5.355-3.536-3.535 5.355-5.355-5.355-5.355 3.536-3.536 5.355 5.355 5.355-5.355m0-236.219-5.355-5.355-5.355 5.355-3.536-3.535 5.355-5.355-5.355-5.355 3.536-3.536 5.355 5.355 5.355-5.355 3.536 3.536-5.355 5.355 5.355 5.355-3.536 3.535m-.637 301.21h-9.436v-5.2h-9.037v5.2h-9.436v-5.2h-9.036v5.2h-9.437v-5.2h-9.236v-28.073h-5.2v-33.472h5.2v-33.073h-5.2v-33.473h5.2v-33.073h-5.2v-33.472h5.2V305.23h-5.2v-33.473h5.2v-33.073h-5.2v-33.472h5.2V177.14h9.236v-5.2h9.437v5.2h9.036v-5.2h9.436v5.2h9.037v-5.2h9.436v5.2h9.037v-5.2h9.436v5.2h9.036v-5.2h9.437v5.2h9.236v28.073h5.2v33.472h-5.2v33.073h5.2v33.473h-5.2v33.073h5.2v33.472h-5.2v33.073h5.2v33.473h-5.2v33.073h5.2v33.472h-5.2v28.073h-9.236v5.2h-9.437v-5.2h-9.036v5.2h-9.436v-5.2h-9.037v5.2M404.203 212.43l-5.355-5.355-5.355 5.355-3.536-3.536 5.355-5.355-5.355-5.355 3.536-3.536 5.355 5.355 5.355-5.355 3.536 3.536-5.355 5.355 5.355 5.355-3.536 3.536m0 236.218 3.536 3.536-5.355 5.355 5.355 5.355-3.536 3.536-5.355-5.355-5.355 5.355-3.536-3.536 5.355-5.355-5.355-5.355 3.536-3.536 5.355 5.355 5.355-5.355m-5.355-276.709 3.098.152 3.067.455 3.008.753 2.92 1.045 2.803 1.326 2.66 1.595 2.491 1.847 2.298 2.082 2.082 2.298 1.847 2.491 1.595 2.66 1.325 2.803 1.046 2.92.753 3.008.455 3.067.152 3.096v254.004l-.152 3.096-.455 3.067-.753 3.008-1.046 2.92-1.325 2.803-1.595 2.66-1.847 2.491-2.082 2.298-2.298 2.082-2.49 1.847-2.66 1.595-2.804 1.325-2.92 1.046-3.008.753-3.067.455-3.098.152-3.098-.152-3.067-.455-3.008-.753-2.92-1.046-2.803-1.325-2.66-1.595-2.49-1.847-2.299-2.082-2.082-2.298-1.847-2.49-1.595-2.66-1.326-2.804-1.045-2.92-.753-3.008-.455-3.067-.152-3.096V203.537l.152-3.096.455-3.067.753-3.008 1.045-2.92 1.326-2.803 1.595-2.66 1.847-2.49 2.082-2.299 2.298-2.082 2.491-1.847 2.66-1.595 2.803-1.326 2.92-1.045 3.008-.753 3.067-.455 3.098-.152" style="fill:none;stroke:#000;stroke-width:.1mm" transform="translate(-81.745 94.96)"/>
    <path fill="none" stroke="#000" stroke-width=".1mm" d="M285.125 298.498v254.004l-.152 3.096-.455 3.067-.753 3.008-1.046 2.92-1.325 2.803-1.595 2.66-1.847 2.491-2.082 2.298-2.298 2.082-2.491 1.847-2.66 1.595-2.803 1.325-2.92 1.046-3.008.753-3.067.455-3.098.152-3.098-.152-3.067-.455-3.008-.753-2.92-1.046-2.803-1.325-2.66-1.595-2.491-1.847-2.298-2.082-2.082-2.298-1.847-2.49-1.595-2.66-1.326-2.804-1.045-2.92-.753-3.008-.455-3.067-.152-3.096V298.498l.152-3.096.455-3.067.753-3.008 1.045-2.92 1.326-2.803 1.595-2.66 1.847-2.49 2.082-2.299 2.298-2.082 2.49-1.847 2.66-1.595 2.804-1.326 2.92-1.045 3.008-.753 3.067-.455 3.098-.152 3.098.152 3.067.455 3.008.753 2.92 1.045 2.803 1.326 2.66 1.595 2.49 1.847 2.299 2.082 2.082 2.298 1.847 2.491 1.595 2.66 1.325 2.803 1.046 2.92.753 3.008.455 3.067.152 3.096M221.546 379.1h-8.283v-5.2h-7.884v5.2h-8.283v-14.636h5.2v-9.037h-5.2v-9.436h5.2v-9.036h-5.2v-9.437h5.2v-9.036h-5.2v-9.437h5.2v-9.036h-5.2v-9.436h5.2v-9.037h-5.2V266.9h8.283v5.2h7.884v-5.2h8.283v14.636h-5.2v9.037h5.2v9.436h-5.2v9.036h5.2v9.437h-5.2v9.036h5.2v9.437h-5.2v9.036h5.2v9.436h-5.2v9.037h5.2V379.1M196.718 379.1h-8.283v-5.2h-7.884v5.2h-8.283v-14.636h5.2v-9.037h-5.2v-9.436h5.2v-9.036h-5.2v-9.437h5.2v-9.036h-5.2v-9.437h5.2v-9.036h-5.2v-9.436h5.2v-9.037h-5.2V266.9h8.283v5.2h7.884v-5.2h8.283v14.636h-5.2v9.037h5.2v9.436h-5.2v9.036h5.2v9.437h-5.2v9.036h5.2v9.437h-5.2v9.036h5.2v9.436h-5.2v9.037h5.2V379.1M171.89 272.1v101.8h-18.646v5.2h-18.846v-5.2h-18.645V272.1h18.645v-5.2h18.846v5.2h18.645"/>
    <path d="m1082.743 473.15 5.355 5.354 5.355-5.355 3.536 3.535-5.355 5.355 5.355 5.355-3.536 3.536-5.355-5.355-5.355 5.355-3.536-3.536 5.355-5.355-5.355-5.355 3.536-3.535m0-236.219-3.536-3.536 5.355-5.355-5.355-5.355 3.536-3.535 5.355 5.355 5.355-5.355 3.536 3.535-5.355 5.355 5.355 5.355-3.536 3.536-5.355-5.355-5.355 5.355m-50.745 267.936v-33.472h5.2v-33.073h-5.2v-33.473h5.2v-33.073h-5.2v-33.472h5.2V305.23h-5.2v-33.473h5.2v-33.073h-5.2v-33.472h5.2V177.14h9.236v-5.2h9.437v5.2h9.036v-5.2h9.436v5.2h9.037v-5.2h9.436v5.2h9.037v-5.2h9.436v5.2h9.036v-5.2h9.437v5.2h9.236v28.073h5.2v33.472h-5.2v33.073h5.2v33.473h-5.2v33.073h5.2v33.472h-5.2v33.073h5.2v33.473h-5.2v33.073h5.2v33.472h-5.2v28.073h-9.236v5.2h-9.437v-5.2h-9.036v5.2h-9.436v-5.2h-9.037v5.2h-9.436v-5.2h-9.037v5.2h-9.436v-5.2h-9.036v5.2h-9.437v-5.2h-9.236v-28.073h-5.2M980.874 473.148l3.536 3.536-5.355 5.355 5.355 5.355-3.536 3.535-5.355-5.355-5.355 5.355-3.536-3.535 5.355-5.355-5.355-5.355 3.536-3.536 5.355 5.355 5.355-5.355m0-236.219-5.355-5.355-5.355 5.355-3.536-3.535 5.355-5.355-5.355-5.355 3.536-3.536 5.355 5.355 5.355-5.355 3.536 3.536-5.355 5.355 5.355 5.355-3.536 3.535m-.637 301.21h-9.436v-5.2h-9.037v5.2h-9.436v-5.2h-9.036v5.2h-9.437v-5.2h-9.236v-28.073h-5.2v-33.472h5.2v-33.073h-5.2v-33.473h5.2v-33.073h-5.2v-33.472h5.2V305.23h-5.2v-33.473h5.2v-33.073h-5.2v-33.472h5.2V177.14h9.236v-5.2h9.437v5.2h9.036v-5.2h9.436v5.2h9.037v-5.2h9.436v5.2h9.037v-5.2h9.436v5.2h9.036v-5.2h9.437v5.2h9.236v28.073h5.2v33.472h-5.2v33.073h5.2v33.473h-5.2v33.073h5.2v33.472h-5.2v33.073h5.2v33.473h-5.2v33.073h5.2v33.472h-5.2v28.073h-9.236v5.2h-9.437v-5.2h-9.036v5.2h-9.436v-5.2h-9.037v5.2" style="fill:none;stroke:#000;stroke-width:.1mm" transform="translate(-81.745 94.96)"/>
    <path d="M792.736 405.048v33.073h-5v-33.073h5m19.25-14.945h-5.2v18.445h5.2v18.787l-13.529 13.53h-5.52v30.73h-5.2v33.071h5.2v28.273h-8.084v5.2h-8.284v-5.2h-8.083v-28.273h5.2v-33.072h-5.2v-33.473h5.2v-33.073h-5.2v-33.473h5.2v-33.072h-5.2V305.03h5.2v-33.073h-5.2v-33.473h5.2v-33.072h-5.2V177.14h8.083v-5.2h8.284v5.2h8.083v28.273h-5.2v33.072h5.2v33.473h-5.2v33.073h5.2v33.473h-5.2v33.072h5.2v11.798l14.122-14.123 4.928 2.041v18.812M860.686 271.957v33.073h-5v-33.073h5m.2-94.818v28.273h-5.2v33.072h5.2v30.73h5.521l13.53 13.53v18.786h-5.2v18.445h5.2v18.812l-4.929 2.041-14.122-14.123v11.798h-5.2v33.072h5.2v33.473h-5.2v33.073h5.2v33.473h-5.2v33.072h5.2v28.273h-8.083v5.2h-8.284v-5.2h-8.083v-28.273h5.2v-33.072h-5.2v-33.473h5.2v-33.073h-5.2v-33.473h5.2v-33.072h-5.2V305.03h5.2v-33.073h-5.2v-33.473h5.2v-33.072h-5.2V177.14h8.083v-5.2h8.284v5.2h8.083" style="fill:none;stroke:#000;stroke-width:.1mm" transform="translate(-67.09 94.96)"/>
    <path d="M812.186 305.03v-33.073h5v33.073h-5m-19.25 14.945h5.2V301.53h-5.2v-18.787l13.53-13.529h5.52v-30.73h5.2v-33.072h-5.2V177.14h8.083v-5.2h8.284v5.2h8.083v28.273h-5.2v33.072h5.2v33.473h-5.2v33.073h5.2v33.473h-5.2v33.072h5.2v33.473h-5.2v33.073h5.2v33.473h-5.2v33.072h5.2v28.273h-8.083v5.2h-8.284v-5.2h-8.083v-28.273h5.2v-33.072h-5.2v-33.473h5.2v-33.073h-5.2v-33.473h5.2v-33.072h-5.2v-11.798l-14.122 14.123-4.928-2.04v-18.813M880.136 438.121v-33.073h5v33.073h-5m-.2 94.818v-28.273h5.2v-33.072h-5.2v-30.73h-5.52l-13.53-13.529v-18.787h5.2v-18.445h-5.2v-18.812l4.928-2.04 14.122 14.122v-11.798h5.2v-33.072h-5.2V305.03h5.2v-33.073h-5.2v-33.473h5.2v-33.072h-5.2V177.14h8.083v-5.2h8.284v5.2h8.083v28.273h-5.2v33.072h5.2v33.473h-5.2v33.073h5.2v33.473h-5.2v33.072h5.2v33.473h-5.2v33.073h5.2v33.473h-5.2v33.072h5.2v28.273h-8.083v5.2h-8.284v-5.2h-8.083" style="fill:none;stroke:#000;stroke-width:.1mm" transform="translate(-67.09 94.96)"/>
</svg>
