<!--
Cleat Wall Organization Equipment
Copyright (C) 2025  Corporate Hacks

This program is free software: you can redistribute it and/or modify
it under the terms of the GNU General Public License as published by
the Free Software Foundation, either version 3 of the License, or
(at your option) any later version.

This program is distributed in the hope that it will be useful,
but WITHOUT ANY WARRANTY; without even the implied warranty of
MERCHANTABILITY or FITNESS FOR A PARTICULAR PURPOSE.  See the
GNU General Public License for more details.

You should have received a copy of the GNU General Public License
along with this program.  If not, see <http://www.gnu.org/licenses/>.
-->

<svg xmlns="http://www.w3.org/2000/svg" width="1300mm" height="900mm" viewBox="0 0 1300 900">
    <path fill="none" stroke="#000" stroke-width=".1mm" d="M334.5 557.575v-12.7h-5.2v-12.9h5.2v-12.5h-5.2v-12.9h5.2v-12.7h101.459l-14.123-14.123 2.041-4.927H461.7v11.793h5.2v11.993h-5.2v11.593h5.2v11.992h-5.2v11.593h5.2v11.993h-5.2v11.793h-10.067v5.2h-15.466v-5.2H421.1v5.2h-15.467v-5.2h-15.066v5.2H375.1v-5.2h-15.067v5.2h-15.466v-5.2H334.5" style="vector-effect:non-scaling-stroke;stroke-width:.264583;stroke-dasharray:none;-inkscape-stroke:hairline" transform="rotate(90 428.35 411.55)"/>
    <path d="m488.93 377.917.994-.738 1.061-.637 1.118-.531 1.166-.417 1.202-.301 1.224-.182 1.239-.061h11.682l1.239.061 1.224.182 1.202.301 1.166.417 1.118.531 1.061.637.994.738.917.833.831.918.736.995.635 1.063 2.764 5.921 2.954 8.435 1.803 6.848.452 2.355.272 2.383.091 2.397v56.77l-.091 2.397-.272 2.383-.451 2.354-2.931 10.393-2.906 7.387-1.685 3.424-.635 1.064-.736.995-.831.918-.917.833-.994.738-1.061.637-1.118.531-1.166.417-1.202.301-1.224.182-1.24.061h-11.681l-1.24-.061-1.223-.182-1.202-.301-1.166-.417-1.118-.531-1.061-.637-.994-.738-.917-.833-.831-.918-.736-.995-.635-1.063-2.764-5.921-2.954-8.435-1.803-6.848-.452-2.355-.272-2.383-.091-2.397v-56.77l.091-2.397.272-2.383.451-2.354 2.931-10.393 2.906-7.387 1.685-3.424.635-1.064.736-.995.831-.918.917-.833M433.975 312.5h15.467v5.2h15.066v-5.2h15.467v5.2h15.067v-5.2h15.466v5.2h15.067v-5.2h15.467v5.2h15.066v-5.2h15.467v28.167h-5.2v27.766h5.2V396.6h-5.2v27.767h5.2v28.166h-5.2V480.3h5.2v28.167h-5.2v27.766h5.2V564.4h-15.467v-5.2h-15.066v5.2h-15.467v-5.2h-15.067v5.2h-15.466v-5.2h-15.067v5.2h-15.467v-5.2h-15.066v5.2h-15.467v-28.167h5.2v-27.766h-5.2V480.3h5.2v-27.767h-5.2v-28.166h5.2V396.6h-5.2v-28.167h5.2v-27.766h-5.2V312.5" style="vector-effect:non-scaling-stroke;fill:none;stroke:#000;stroke-width:.264583;-inkscape-stroke:hairline"/>
    <path fill="none" stroke="#000" stroke-width=".1mm" d="M466.9 493.875h251.9v12.9h-5.2v12.5h5.2v12.9h-5.2v12.5h5.2v12.9h-27.967v5.2h-28.166v-5.2H634.9v5.2h-28.167v-5.2h-27.766v5.2H550.8v-5.2h-27.767v5.2h-28.166v-5.2H466.9v-12.9h5.2v-12.5h-5.2v-12.9h5.2v-12.5h-5.2v-12.9" style="vector-effect:non-scaling-stroke;stroke-width:.264583;stroke-dasharray:none;-inkscape-stroke:hairline" transform="matrix(0 1 1 0 165.65 -154.6)"/>
    <path fill="none" stroke="#000" stroke-width=".1mm" d="M581.2 469.625v-11.993h5.2v-11.593h-5.2v-11.993h5.2v-11.592h-5.2v-11.993h5.2v-11.593h-5.2v-11.993h251.9v11.993h-5.2v11.593h5.2v11.993h-5.2v11.592h5.2v11.993h-5.2v11.593h5.2v11.993h-27.967v5.2h-28.166v-5.2H749.2v5.2h-28.167v-5.2h-27.766v5.2H665.1v-5.2h-27.767v5.2h-28.166v-5.2H581.2" style="vector-effect:non-scaling-stroke;stroke-width:.264583;stroke-dasharray:none;-inkscape-stroke:hairline" transform="rotate(90 657.65 388.75)"/>
    <path d="m967.92 377.917-.994-.738-1.061-.637-1.118-.531-1.166-.417-1.202-.301-1.224-.182-1.24-.061h-11.681l-1.24.061-1.223.182-1.202.301-1.166.417-1.118.531-1.061.637-.994.738-.917.833-.831.918-.736.995-.635 1.063-2.764 5.921-2.954 8.435-1.803 6.848-.452 2.355-.272 2.383-.091 2.397v56.77l.09 2.397.273 2.383.45 2.354 2.932 10.393 2.906 7.387 1.685 3.424.635 1.064.736.995.83.918.918.833.994.738 1.06.637 1.119.531 1.166.417 1.202.301 1.224.182 1.239.061h11.682l1.239-.061 1.224-.182 1.202-.301 1.166-.417 1.118-.531 1.06-.637.995-.738.917-.833.831-.918.736-.995.635-1.063 2.764-5.921 2.954-8.435 1.803-6.848.452-2.355.272-2.383.09-2.397v-56.77l-.09-2.397-.272-2.383-.451-2.354-2.931-10.393-2.906-7.387-1.685-3.424-.635-1.064-.736-.995-.831-.918-.917-.833m54.955-65.417h-15.467v5.2h-15.066v-5.2h-15.467v5.2h-15.067v-5.2h-15.466v5.2h-15.067v-5.2h-15.467v5.2h-15.066v-5.2h-15.467v28.167h5.2v27.766h-5.2V396.6h5.2v27.767h-5.2v28.166h5.2V480.3h-5.2v28.167h5.2v27.766h-5.2V564.4h15.467v-5.2h15.066v5.2h15.467v-5.2h15.067v5.2h15.466v-5.2h15.067v5.2h15.467v-5.2h15.066v5.2h15.467v-28.167h-5.2v-27.766h5.2V480.3h-5.2v-27.767h5.2v-28.166h-5.2V396.6h5.2v-28.167h-5.2v-27.766h5.2V312.5" style="vector-effect:non-scaling-stroke;fill:none;stroke:#000;stroke-width:.264583;-inkscape-stroke:hairline"/>
    <path fill="none" stroke="#000" stroke-width=".1mm" d="M466.9 493.875h251.9v12.9h-5.2v12.5h5.2v12.9h-5.2v12.5h5.2v12.9h-27.967v5.2h-28.166v-5.2H634.9v5.2h-28.167v-5.2h-27.766v5.2H550.8v-5.2h-27.767v5.2h-28.166v-5.2H466.9v-12.9h5.2v-12.5h-5.2v-12.9h5.2v-12.5h-5.2v-12.9" style="vector-effect:non-scaling-stroke;stroke-width:.264583;stroke-dasharray:none;-inkscape-stroke:hairline" transform="rotate(90 722.9 568.3)"/>
    <path fill="none" stroke="#000" stroke-width=".1mm" d="M581.2 469.625v-11.993h5.2v-11.593h-5.2v-11.993h5.2v-11.592h-5.2v-11.993h5.2v-11.593h-5.2v-11.993h251.9v11.993h-5.2v11.593h5.2v11.993h-5.2v11.592h5.2v11.993h-5.2v11.593h5.2v11.993h-27.967v5.2h-28.166v-5.2H749.2v5.2h-28.167v-5.2h-27.766v5.2H665.1v-5.2h-27.767v5.2h-28.166v-5.2H581.2" style="vector-effect:non-scaling-stroke;stroke-width:.264583;stroke-dasharray:none;-inkscape-stroke:hairline" transform="matrix(0 1 1 0 410.45 -268.9)"/>
    <path fill="none" stroke="#000" stroke-width=".1mm" d="M833.1 457.832v-11.993h5.2v-11.593h-5.2v-11.992h5.2v-11.593h-5.2v-11.993h5.2v-11.793h37.823l2.041 4.927-14.123 14.123H965.5v12.7h5.2v12.9h-5.2v12.5h5.2v12.9h-5.2v12.7h-10.067v5.2h-15.466v-5.2H924.9v5.2h-15.467v-5.2h-15.066v5.2H878.9v-5.2h-15.067v5.2h-15.466v-5.2H838.3v-11.793h-5.2" style="vector-effect:non-scaling-stroke;stroke-width:.264583;stroke-dasharray:none;-inkscape-stroke:hairline" transform="rotate(90 567.475 184.475)"/>
    <path fill="none" stroke="#000" stroke-width=".1mm" d="M334.5 557.575v-12.7h-5.2v-12.9h5.2v-12.5h-5.2v-12.9h5.2v-12.7h101.459l-14.123-14.123 2.041-4.927H461.7v11.793h5.2v11.993h-5.2v11.593h5.2v11.992h-5.2v11.593h5.2v11.993h-5.2v11.793h-10.067v5.2h-15.466v-5.2H421.1v5.2h-15.467v-5.2h-15.066v5.2H375.1v-5.2h-15.067v5.2h-15.466v-5.2H334.5" style="vector-effect:non-scaling-stroke;stroke-width:.264583;stroke-dasharray:none;-inkscape-stroke:hairline" transform="matrix(0 1 1 0 -128.8 120.8)"/>
    <path fill="none" stroke="#000" stroke-width=".1mm" d="M833.1 457.832v-11.993h5.2v-11.593h-5.2v-11.992h5.2v-11.593h-5.2v-11.993h5.2v-11.793h37.823l2.041 4.927-14.123 14.123H965.5v12.7h5.2v12.9h-5.2v12.5h5.2v12.9h-5.2v12.7h-10.067v5.2h-15.466v-5.2H924.9v5.2h-15.467v-5.2h-15.066v5.2H878.9v-5.2h-15.067v5.2h-15.466v-5.2H838.3v-11.793h-5.2" style="vector-effect:non-scaling-stroke;stroke-width:.264583;stroke-dasharray:none;-inkscape-stroke:hairline" transform="matrix(0 1 1 0 -40.85 -520.6)"/>
</svg>
