<!--
Cleat Wall Organization Equipment
Copyright (C) 2025  Corporate Hacks

This program is free software: you can redistribute it and/or modify
it under the terms of the GNU General Public License as published by
the Free Software Foundation, either version 3 of the License, or
(at your option) any later version.

This program is distributed in the hope that it will be useful,
but WITHOUT ANY WARRANTY; without even the implied warranty of
MERCHANTABILITY or FITNESS FOR A PARTICULAR PURPOSE.  See the
GNU General Public License for more details.

You should have received a copy of the GNU General Public License
along with this program.  If not, see <http://www.gnu.org/licenses/>.
-->

<svg xmlns="http://www.w3.org/2000/svg" width="1300mm" height="900mm" viewBox="0 0 1300 900">
    <path fill="none" stroke="#000" stroke-width=".1mm" d="M448.8 614.25v-10.583h-5.2v-10.784h5.2V582.5h-5.2v-10.783h5.2v-10.384h-5.2V550.55h5.2v-10.383h-5.2v-10.784h5.2V518.8h37.823l2.041 4.927-14.123 14.123H581.2v11.086H576v10.685h5.2v11.086H576v10.686h5.2v11.086H576v10.685h5.2v11.086h-15.267v5.2h-15.466v-5.2H535.4v5.2h-15.467v-5.2h-15.066v5.2H489.4v-5.2h-15.067v5.2h-15.466v-5.2H448.8" style="vector-effect:non-scaling-stroke;fill:none;stroke:#000;stroke-width:.264583;stroke-dasharray:none;stroke-opacity:1;-inkscape-stroke:hairline" transform="rotate(-90 427.725 465.975)"/>
    <path fill="none" stroke="#000" stroke-width=".1mm" d="M458.867 518.8v-5.2H443.6v-11.086h5.2v-10.685h-5.2v-11.086h5.2v-10.686h-5.2v-11.086h5.2v-10.685h-5.2V437.2h106.659l-14.123-14.123 2.041-4.927H576v10.583h5.2v10.784H576V449.9h5.2v10.783H576v10.384h5.2v10.783H576v10.383h5.2v10.784H576V513.6h-10.067v5.2h-15.466v-5.2H535.4v5.2h-15.467v-5.2h-15.066v5.2H489.4v-5.2h-15.067v5.2h-15.466" style="vector-effect:non-scaling-stroke;fill:none;stroke:#000;stroke-width:.264583;stroke-dasharray:none;stroke-opacity:1;-inkscape-stroke:hairline" transform="rotate(-90 546.85 484.45)"/>
    <path d="M581.2 312.5v15.467h5.2v15.066h-5.2V358.5h5.2v15.067h-5.2v15.466h5.2V404.1h-5.2v15.467h5.2v15.066h-5.2V450.1h15.467v-5.2h15.066v5.2H627.2v-5.2h15.067v5.2h15.466v-5.2H672.8v5.2h15.467v-5.2h15.066v5.2H718.8v-15.467h-5.2v-15.066h5.2V404.1h-5.2v-15.067h5.2v-15.466h-5.2V358.5h5.2v-15.467h-5.2v-15.066h5.2V312.5h-15.467v5.2h-15.066v-5.2H672.8v5.2h-15.067v-5.2h-15.466v5.2H627.2v-5.2h-15.467v5.2h-15.066v-5.2zm62.14 18.1h13.32l1.255.063 1.238.185 1.214.309 1.177.426 1.129.542 1.07.652 1 .754.919.849.832.938.734 1.014 2.44 4.219 2.515 5.558 2.04 5.89.596 2.396.36 2.442.121 2.468v43.99l-.12 2.468-.361 2.442-.596 2.395-2.45 6.904-2.51 5.318-2.035 3.446-.734 1.014-.832.938-.919.85-1 .753-1.07.652-1.13.542-1.176.426-1.214.309-1.238.185-1.254.063h-13.322l-1.254-.063-1.238-.185-1.214-.309-1.177-.426-1.129-.542-1.07-.652-1-.754-.919-.849-.832-.938-.734-1.014-2.44-4.22-2.515-5.557-2.04-5.89-.596-2.396-.36-2.442-.121-2.468v-43.99l.12-2.468.361-2.442.596-2.395 2.451-6.904 2.509-5.318 2.035-3.446.734-1.014.832-.938.919-.85 1-.753 1.07-.652 1.129-.542 1.177-.426 1.214-.31 1.238-.184z" style="vector-effect:non-scaling-stroke;fill:none;stroke:#000;stroke-width:.264583;stroke-dasharray:none;stroke-opacity:1;-inkscape-stroke:hairline"/>
    <path fill="none" stroke="#000" stroke-width=".1mm" d="M581.2 518.8h137.6v10.783h-5.2v10.384h5.2v10.783h-5.2v10.383h5.2v10.784h-5.2V582.3h5.2v10.783h-5.2v10.384h5.2v10.783h-15.267v5.2h-15.466v-5.2H673v5.2h-15.467v-5.2h-15.066v5.2H627v-5.2h-15.067v5.2h-15.466v-5.2H581.2v-10.783h5.2v-10.384h-5.2V582.3h5.2v-10.383h-5.2v-10.784h5.2V550.75h-5.2v-10.783h5.2v-10.384h-5.2V518.8" style="vector-effect:non-scaling-stroke;fill:none;stroke:#000;stroke-width:.264583;stroke-dasharray:none;stroke-opacity:1;-inkscape-stroke:hairline" transform="rotate(90 803.575 534.675)"/>
    <path fill="none" stroke="#000" stroke-width=".1mm" d="M718.8 548.736h5.2V537.85h127.2v10.886h5.2v11.085h-5.2v10.686h5.2v11.086h-5.2v10.686h5.2v11.085h-5.2v10.886h-10.067v5.2h-15.466v-5.2H810.6v5.2h-15.467v-5.2h-15.066v5.2H764.6v-5.2h-15.067v5.2h-15.466v-5.2H724v-10.886h-5.2v-11.085h5.2v-10.686h-5.2v-11.086h5.2v-10.686h-5.2v-11.085" style="vector-effect:non-scaling-stroke;fill:none;stroke:#000;stroke-width:.264583;stroke-dasharray:none;stroke-opacity:1;-inkscape-stroke:hairline" transform="rotate(-90 725.15 443.55)"/>
    <path fill="none" stroke="#000" stroke-width=".1mm" d="M448.8 614.25v-10.583h-5.2v-10.784h5.2V582.5h-5.2v-10.783h5.2v-10.384h-5.2V550.55h5.2v-10.383h-5.2v-10.784h5.2V518.8h37.823l2.041 4.927-14.123 14.123H581.2v11.086H576v10.685h5.2v11.086H576v10.686h5.2v11.086H576v10.685h5.2v11.086h-15.267v5.2h-15.466v-5.2H535.4v5.2h-15.467v-5.2h-15.066v5.2H489.4v-5.2h-15.067v5.2h-15.466v-5.2H448.8" style="vector-effect:non-scaling-stroke;fill:none;stroke:#000;stroke-width:.264583;stroke-dasharray:none;stroke-opacity:1;-inkscape-stroke:hairline" transform="rotate(90 574.75 443.65)"/>
    <path fill="none" stroke="#000" stroke-width=".1mm" d="M458.867 518.8v-5.2H443.6v-11.086h5.2v-10.685h-5.2v-11.086h5.2v-10.686h-5.2v-11.086h5.2v-10.685h-5.2V437.2h106.659l-14.123-14.123 2.041-4.927H576v10.583h5.2v10.784H576V449.9h5.2v10.783H576v10.384h5.2v10.783H576v10.383h5.2v10.784H576V513.6h-10.067v5.2h-15.466v-5.2H535.4v5.2h-15.467v-5.2h-15.066v5.2H489.4v-5.2h-15.067v5.2h-15.466" style="vector-effect:non-scaling-stroke;fill:none;stroke:#000;stroke-width:.264583;stroke-dasharray:none;stroke-opacity:1;-inkscape-stroke:hairline" transform="rotate(90 455.625 462.125)"/>
    <path d="M581.2 450.1v15.467h5.2v15.066h-5.2V496.1h5.2v15.067h-5.2v15.466h5.2V541.7h-5.2v15.467h5.2v15.066h-5.2V587.7h15.467v-5.2h15.066v5.2H627.2v-5.2h15.067v5.2h15.466v-5.2H672.8v5.2h15.467v-5.2h15.066v5.2H718.8v-15.467h-5.2v-15.066h5.2V541.7h-5.2v-15.067h5.2v-15.466h-5.2V496.1h5.2v-15.467h-5.2v-15.066h5.2V450.1h-15.467v5.2h-15.066v-5.2H672.8v5.2h-15.067v-5.2h-15.466v5.2H627.2v-5.2h-15.467v5.2h-15.066v-5.2Zm62.14 18.1h13.32l1.255.063 1.238.185 1.214.309 1.177.426 1.129.542 1.07.652 1 .754.919.849.832.938.734 1.014 2.44 4.219 2.515 5.558 2.04 5.89.596 2.396.36 2.442.121 2.468v43.99l-.12 2.468-.361 2.442-.596 2.395-2.45 6.904-2.51 5.318-2.035 3.446-.734 1.014-.832.938-.919.85-1 .753-1.07.652-1.13.542-1.176.426-1.214.309-1.238.185-1.254.063h-13.322l-1.254-.063-1.238-.185-1.214-.309-1.177-.426-1.129-.542-1.07-.652-1-.754-.919-.849-.832-.938-.734-1.014-2.44-4.22-2.515-5.557-2.04-5.89-.596-2.396-.36-2.442-.121-2.468v-43.99l.12-2.468.361-2.442.596-2.395 2.451-6.904 2.509-5.318 2.035-3.446.734-1.014.832-.938.919-.85 1-.753 1.07-.652 1.129-.542 1.177-.426 1.214-.31 1.238-.184z" style="vector-effect:non-scaling-stroke;fill:none;stroke:#000;stroke-width:.264583;stroke-dasharray:none;stroke-opacity:1;-inkscape-stroke:hairline"/>
    <path fill="none" stroke="#000" stroke-width=".1mm" d="M581.2 518.8h137.6v10.783h-5.2v10.384h5.2v10.783h-5.2v10.383h5.2v10.784h-5.2V582.3h5.2v10.783h-5.2v10.384h5.2v10.783h-15.267v5.2h-15.466v-5.2H673v5.2h-15.467v-5.2h-15.066v5.2H627v-5.2h-15.067v5.2h-15.466v-5.2H581.2v-10.783h5.2v-10.384h-5.2V582.3h5.2v-10.383h-5.2v-10.784h5.2V550.75h-5.2v-10.783h5.2v-10.384h-5.2V518.8" style="vector-effect:non-scaling-stroke;fill:none;stroke:#000;stroke-width:.264583;stroke-dasharray:none;stroke-opacity:1;-inkscape-stroke:hairline" transform="rotate(90 734.775 603.475)"/>
    <path fill="none" stroke="#000" stroke-width=".1mm" d="M718.8 548.736h5.2V537.85h127.2v10.886h5.2v11.085h-5.2v10.686h5.2v11.086h-5.2v10.686h5.2v11.085h-5.2v10.886h-10.067v5.2h-15.466v-5.2H810.6v5.2h-15.467v-5.2h-15.066v5.2H764.6v-5.2h-15.067v5.2h-15.466v-5.2H724v-10.886h-5.2v-11.085h5.2v-10.686h-5.2v-11.086h5.2v-10.686h-5.2v-11.085" style="vector-effect:non-scaling-stroke;fill:none;stroke:#000;stroke-width:.264583;stroke-dasharray:none;stroke-opacity:1;-inkscape-stroke:hairline" transform="rotate(-90 793.95 512.35)"/>
</svg>
