<?xml version="1.0" encoding="UTF-8" standalone="no"?>
<svg
   width="1300mm"
   height="900mm"
   viewBox="0 0 1300 900"
   version="1.1"
   id="svg6"
   sodipodi:docname="Gloves.svg"
   inkscape:version="1.3.2 (091e20ef0f, 2023-11-25)"
   xmlns:inkscape="http://www.inkscape.org/namespaces/inkscape"
   xmlns:sodipodi="http://sodipodi.sourceforge.net/DTD/sodipodi-0.dtd"
   xmlns="http://www.w3.org/2000/svg"
   xmlns:svg="http://www.w3.org/2000/svg">
  <defs
     id="defs6" />
  <sodipodi:namedview
     id="namedview6"
     pagecolor="#505050"
     bordercolor="#eeeeee"
     borderopacity="1"
     inkscape:showpageshadow="0"
     inkscape:pageopacity="0"
     inkscape:pagecheckerboard="0"
     inkscape:deskcolor="#505050"
     inkscape:document-units="mm"
     inkscape:zoom="0.21932549"
     inkscape:cx="2441.5767"
     inkscape:cy="1096.5438"
     inkscape:window-width="1920"
     inkscape:window-height="1011"
     inkscape:window-x="0"
     inkscape:window-y="32"
     inkscape:window-maximized="1"
     inkscape:current-layer="svg6" />
  <polyline
     z="0"
     points="334.5,557.575 334.5,544.875 329.3,544.875 329.3,531.975 334.5,531.975 334.5,519.475 329.3,519.475 329.3,506.575 334.5,506.575 334.5,493.875 435.959,493.875 421.836,479.752 423.877,474.825 461.7,474.825 461.7,486.618 466.9,486.618 466.9,498.611 461.7,498.611 461.7,510.204 466.9,510.204 466.9,522.196 461.7,522.196 461.7,533.789 466.9,533.789 466.9,545.782 461.7,545.782 461.7,557.575 451.633,557.575 451.633,562.775 436.167,562.775 436.167,557.575 421.1,557.575 421.1,562.775 405.633,562.775 405.633,557.575 390.567,557.575 390.567,562.775 375.1,562.775 375.1,557.575 360.033,557.575 360.033,562.775 344.567,562.775 344.567,557.575 334.5,557.575"
     fill="none"
     stroke="#000000"
     stroke-width="0.1mm"
     id="polyline1"
     style="vector-effect:non-scaling-stroke;stroke-width:0.264583;stroke-dasharray:none;-inkscape-stroke:hairline"
     transform="rotate(90,428.34997,411.54997)" />
  <path
     id="polyline3"
     style="vector-effect:non-scaling-stroke;fill:none;stroke:#000000;stroke-width:0.264583;-inkscape-stroke:hairline"
     d="m 488.92995,377.917 0.994,-0.738 1.061,-0.637 1.118,-0.531 1.166,-0.417 1.202,-0.301 1.224,-0.182 1.239,-0.061 h 11.682 l 1.239,0.061 1.224,0.182 1.202,0.301 1.166,0.417 1.118,0.531 1.061,0.637 0.994,0.738 0.917,0.833 0.831,0.918 0.736,0.995 0.635,1.063 2.764,5.921 2.954,8.435 1.803,6.848 0.452,2.355 0.272,2.383 0.091,2.397 v 56.77 l -0.091,2.397 -0.272,2.383 -0.451,2.354 -2.931,10.393 -2.906,7.387 -1.685,3.424 -0.635,1.064 -0.736,0.995 -0.831,0.918 -0.917,0.833 -0.994,0.738 -1.061,0.637 -1.118,0.531 -1.166,0.417 -1.202,0.301 -1.224,0.182 -1.239,0.061 h -11.682 l -1.239,-0.061 -1.224,-0.182 -1.202,-0.301 -1.166,-0.417 -1.118,-0.531 -1.061,-0.637 -0.994,-0.738 -0.917,-0.833 -0.831,-0.918 -0.736,-0.995 -0.635,-1.063 -2.764,-5.921 -2.954,-8.435 -1.803,-6.848 -0.452,-2.355 -0.272,-2.383 -0.091,-2.397 v -56.77 l 0.091,-2.397 0.272,-2.383 0.451,-2.354 2.931,-10.393 2.906,-7.387 1.685,-3.424 0.635,-1.064 0.736,-0.995 0.831,-0.918 0.917,-0.833 m -54.955,-65.417 h 15.467 v 5.2 h 15.066 v -5.2 h 15.467 v 5.2 h 15.067 v -5.2 h 15.466 v 5.2 h 15.067 v -5.2 h 15.467 v 5.2 h 15.066 v -5.2 h 15.467 v 28.167 h -5.2 v 27.766 h 5.2 V 396.6 h -5.2 v 27.767 h 5.2 v 28.166 h -5.2 V 480.3 h 5.2 v 28.167 h -5.2 v 27.766 h 5.2 V 564.4 h -15.467 v -5.2 h -15.066 v 5.2 h -15.467 v -5.2 h -15.067 v 5.2 h -15.466 v -5.2 h -15.067 v 5.2 h -15.467 v -5.2 h -15.066 v 5.2 h -15.467 v -28.167 h 5.2 v -27.766 h -5.2 V 480.3 h 5.2 v -27.767 h -5.2 v -28.166 h 5.2 V 396.6 h -5.2 v -28.167 h 5.2 v -27.766 h -5.2 V 312.5" />
  <polyline
     z="0"
     points="466.9,493.875 718.8,493.875 718.8,506.775 713.6,506.775 713.6,519.275 718.8,519.275 718.8,532.175 713.6,532.175 713.6,544.675 718.8,544.675 718.8,557.575 690.833,557.575 690.833,562.775 662.667,562.775 662.667,557.575 634.9,557.575 634.9,562.775 606.733,562.775 606.733,557.575 578.967,557.575 578.967,562.775 550.8,562.775 550.8,557.575 523.033,557.575 523.033,562.775 494.867,562.775 494.867,557.575 466.9,557.575 466.9,544.675 472.1,544.675 472.1,532.175 466.9,532.175 466.9,519.275 472.1,519.275 472.1,506.775 466.9,506.775 466.9,493.875"
     fill="none"
     stroke="#000000"
     stroke-width="0.1mm"
     id="polyline4"
     style="vector-effect:non-scaling-stroke;stroke-width:0.264583;stroke-dasharray:none;-inkscape-stroke:hairline"
     transform="matrix(0,1,1,0,165.64995,-154.6)" />
  <polyline
     z="0"
     points="581.2,469.625 581.2,457.632 586.4,457.632 586.4,446.039 581.2,446.039 581.2,434.046 586.4,434.046 586.4,422.454 581.2,422.454 581.2,410.461 586.4,410.461 586.4,398.868 581.2,398.868 581.2,386.875 833.1,386.875 833.1,398.868 827.9,398.868 827.9,410.461 833.1,410.461 833.1,422.454 827.9,422.454 827.9,434.046 833.1,434.046 833.1,446.039 827.9,446.039 827.9,457.632 833.1,457.632 833.1,469.625 805.133,469.625 805.133,474.825 776.967,474.825 776.967,469.625 749.2,469.625 749.2,474.825 721.033,474.825 721.033,469.625 693.267,469.625 693.267,474.825 665.1,474.825 665.1,469.625 637.333,469.625 637.333,474.825 609.167,474.825 609.167,469.625 581.2,469.625"
     fill="none"
     stroke="#000000"
     stroke-width="0.1mm"
     id="polyline5"
     style="vector-effect:non-scaling-stroke;stroke-width:0.264583;stroke-dasharray:none;-inkscape-stroke:hairline"
     transform="rotate(90,657.64998,388.74997)" />
  <path
     id="polyline3-3"
     style="vector-effect:non-scaling-stroke;fill:none;stroke:#000000;stroke-width:0.264583;-inkscape-stroke:hairline"
     d="m 967.91995,377.917 -0.994,-0.738 -1.061,-0.637 -1.118,-0.531 -1.166,-0.417 -1.202,-0.301 -1.224,-0.182 -1.239,-0.061 h -11.682 l -1.239,0.061 -1.224,0.182 -1.202,0.301 -1.166,0.417 -1.118,0.531 -1.061,0.637 -0.994,0.738 -0.917,0.833 -0.831,0.918 -0.736,0.995 -0.635,1.063 -2.764,5.921 -2.954,8.435 -1.803,6.848 -0.452,2.355 -0.272,2.383 -0.091,2.397 v 56.77 l 0.091,2.397 0.272,2.383 0.451,2.354 2.931,10.393 2.906,7.387 1.685,3.424 0.635,1.064 0.736,0.995 0.831,0.918 0.917,0.833 0.994,0.738 1.061,0.637 1.118,0.531 1.166,0.417 1.202,0.301 1.224,0.182 1.239,0.061 h 11.682 l 1.239,-0.061 1.224,-0.182 1.202,-0.301 1.166,-0.417 1.118,-0.531 1.061,-0.637 0.994,-0.738 0.917,-0.833 0.831,-0.918 0.736,-0.995 0.635,-1.063 2.764,-5.921 2.954,-8.435 1.8031,-6.848 0.452,-2.355 0.2719,-2.383 0.091,-2.397 v -56.77 l -0.091,-2.397 -0.2719,-2.383 -0.451,-2.354 -2.9311,-10.393 -2.906,-7.387 -1.685,-3.424 -0.635,-1.064 -0.736,-0.995 -0.831,-0.918 -0.917,-0.833 M 1022.8749,312.5 h -15.467 v 5.2 h -15.06595 v -5.2 h -15.467 v 5.2 h -15.067 v -5.2 h -15.466 v 5.2 h -15.067 v -5.2 h -15.467 v 5.2 h -15.066 v -5.2 h -15.467 v 28.167 h 5.2 v 27.766 h -5.2 V 396.6 h 5.2 v 27.767 h -5.2 v 28.166 h 5.2 V 480.3 h -5.2 v 28.167 h 5.2 v 27.766 h -5.2 V 564.4 h 15.467 v -5.2 h 15.066 v 5.2 h 15.467 v -5.2 h 15.067 v 5.2 h 15.466 v -5.2 h 15.0671 v 5.2 h 15.4669 v -5.2 h 15.06605 v 5.2 h 15.467 v -28.167 h -5.2 v -27.766 h 5.2 V 480.3 h -5.2 v -27.767 h 5.2 v -28.166 h -5.2 V 396.6 h 5.2 v -28.167 h -5.2 v -27.766 h 5.2 V 312.5" />
  <polyline
     z="0"
     points="466.9,493.875 718.8,493.875 718.8,506.775 713.6,506.775 713.6,519.275 718.8,519.275 718.8,532.175 713.6,532.175 713.6,544.675 718.8,544.675 718.8,557.575 690.833,557.575 690.833,562.775 662.667,562.775 662.667,557.575 634.9,557.575 634.9,562.775 606.733,562.775 606.733,557.575 578.967,557.575 578.967,562.775 550.8,562.775 550.8,557.575 523.033,557.575 523.033,562.775 494.867,562.775 494.867,557.575 466.9,557.575 466.9,544.675 472.1,544.675 472.1,532.175 466.9,532.175 466.9,519.275 472.1,519.275 472.1,506.775 466.9,506.775 466.9,493.875"
     fill="none"
     stroke="#000000"
     stroke-width="0.1mm"
     id="polyline4-8"
     style="vector-effect:non-scaling-stroke;stroke-width:0.264583;stroke-dasharray:none;-inkscape-stroke:hairline"
     transform="rotate(90,722.89998,568.29998)" />
  <polyline
     z="0"
     points="581.2,469.625 581.2,457.632 586.4,457.632 586.4,446.039 581.2,446.039 581.2,434.046 586.4,434.046 586.4,422.454 581.2,422.454 581.2,410.461 586.4,410.461 586.4,398.868 581.2,398.868 581.2,386.875 833.1,386.875 833.1,398.868 827.9,398.868 827.9,410.461 833.1,410.461 833.1,422.454 827.9,422.454 827.9,434.046 833.1,434.046 833.1,446.039 827.9,446.039 827.9,457.632 833.1,457.632 833.1,469.625 805.133,469.625 805.133,474.825 776.967,474.825 776.967,469.625 749.2,469.625 749.2,474.825 721.033,474.825 721.033,469.625 693.267,469.625 693.267,474.825 665.1,474.825 665.1,469.625 637.333,469.625 637.333,474.825 609.167,474.825 609.167,469.625 581.2,469.625"
     fill="none"
     stroke="#000000"
     stroke-width="0.1mm"
     id="polyline5-8"
     style="vector-effect:non-scaling-stroke;stroke-width:0.264583;stroke-dasharray:none;-inkscape-stroke:hairline"
     transform="matrix(0,1,1,0,410.44999,-268.89998)" />
  <polyline
     z="0"
     points="833.1,457.832 833.1,445.839 838.3,445.839 838.3,434.246 833.1,434.246 833.1,422.254 838.3,422.254 838.3,410.661 833.1,410.661 833.1,398.668 838.3,398.668 838.3,386.875 876.123,386.875 878.164,391.802 864.041,405.925 965.5,405.925 965.5,418.625 970.7,418.625 970.7,431.525 965.5,431.525 965.5,444.025 970.7,444.025 970.7,456.925 965.5,456.925 965.5,469.625 955.433,469.625 955.433,474.825 939.967,474.825 939.967,469.625 924.9,469.625 924.9,474.825 909.433,474.825 909.433,469.625 894.367,469.625 894.367,474.825 878.9,474.825 878.9,469.625 863.833,469.625 863.833,474.825 848.367,474.825 848.367,469.625 838.3,469.625 838.3,457.832 833.1,457.832"
     fill="none"
     stroke="#000000"
     stroke-width="0.1mm"
     id="polyline6"
     style="vector-effect:non-scaling-stroke;stroke-width:0.264583;stroke-dasharray:none;-inkscape-stroke:hairline"
     transform="rotate(90,567.47497,184.47498)" />
  <polyline
     z="0"
     points="334.5,557.575 334.5,544.875 329.3,544.875 329.3,531.975 334.5,531.975 334.5,519.475 329.3,519.475 329.3,506.575 334.5,506.575 334.5,493.875 435.959,493.875 421.836,479.752 423.877,474.825 461.7,474.825 461.7,486.618 466.9,486.618 466.9,498.611 461.7,498.611 461.7,510.204 466.9,510.204 466.9,522.196 461.7,522.196 461.7,533.789 466.9,533.789 466.9,545.782 461.7,545.782 461.7,557.575 451.633,557.575 451.633,562.775 436.167,562.775 436.167,557.575 421.1,557.575 421.1,562.775 405.633,562.775 405.633,557.575 390.567,557.575 390.567,562.775 375.1,562.775 375.1,557.575 360.033,557.575 360.033,562.775 344.567,562.775 344.567,557.575 334.5,557.575"
     fill="none"
     stroke="#000000"
     stroke-width="0.1mm"
     id="polyline1-7"
     style="vector-effect:non-scaling-stroke;stroke-width:0.264583;stroke-dasharray:none;-inkscape-stroke:hairline"
     transform="matrix(0,1,1,0,-128.80005,120.8)" />
  <polyline
     z="0"
     points="833.1,457.832 833.1,445.839 838.3,445.839 838.3,434.246 833.1,434.246 833.1,422.254 838.3,422.254 838.3,410.661 833.1,410.661 833.1,398.668 838.3,398.668 838.3,386.875 876.123,386.875 878.164,391.802 864.041,405.925 965.5,405.925 965.5,418.625 970.7,418.625 970.7,431.525 965.5,431.525 965.5,444.025 970.7,444.025 970.7,456.925 965.5,456.925 965.5,469.625 955.433,469.625 955.433,474.825 939.967,474.825 939.967,469.625 924.9,469.625 924.9,474.825 909.433,474.825 909.433,469.625 894.367,469.625 894.367,474.825 878.9,474.825 878.9,469.625 863.833,469.625 863.833,474.825 848.367,474.825 848.367,469.625 838.3,469.625 838.3,457.832 833.1,457.832"
     fill="none"
     stroke="#000000"
     stroke-width="0.1mm"
     id="polyline6-5"
     style="vector-effect:non-scaling-stroke;stroke-width:0.264583;stroke-dasharray:none;-inkscape-stroke:hairline"
     transform="matrix(0,1,1,0,-40.85005,-520.6)" />
</svg>
