Cleat Wall Organization Equipment
Copyright (C) 2025  Corporate Hacks

This program is free software: you can redistribute it and/or modify
it under the terms of the GNU General Public License as published by
the Free Software Foundation, either version 3 of the License, or
(at your option) any later version.

This program is distributed in the hope that it will be useful,
but WITHOUT ANY WARRANTY; without even the implied warranty of
MERCHANTABILITY or FITNESS FOR A PARTICULAR PURPOSE.  See the
GNU General Public License for more details.

You should have received a copy of the GNU General Public License
along with this program.  If not, see <http://www.gnu.org/licenses/>.


<svg xmlns="http://www.w3.org/2000/svg" width="1300mm" height="900mm" viewBox="0 0 1300 900">
    <path d="M638.428 16.8h5V8.6h-5v8.2m0 8.6v8.2h5v-8.2h-5M630.655 0v5.2h-.468l.47 37H651.2l.47-37h-.47V0h-20.545" style="fill:none;stroke:#000;stroke-width:.1mm"/>
    <path d="M664.44 30.6v8.2h-5v-8.2h5m0-8.6h-5v-8.2h5V22m7.774 25.4h-20.546v-5.2h-.468l.47-37h20.543l.47 37h-.47v5.2M640.763 227.8h5v-8.2h-5v8.2m0 8.6v8.2h5v-8.2h-5M632.99 211v5.2h-.468l.47 37h20.543l.47-37h-.47V211H632.99" style="fill:none;stroke:#000;stroke-width:.1mm"/>
    <path d="M666.776 241.6v8.2h-5v-8.2h5m0-8.6h-5v-8.2h5v8.2m7.773 25.4h-20.546v-5.2h-.468l.47-37h20.543l.47 37h-.47v5.2M639.362 101.2h5V93h-5v8.2m0 8.6v8.2h5v-8.2h-5m-7.773-25.4v5.2h-.468l.47 37h20.543l.47-37h-.47v-5.2H631.59" style="fill:none;stroke:#000;stroke-width:.1mm"/>
    <path d="M665.375 115v8.2h-5V115h5m0-8.6h-5v-8.2h5v8.2m7.773 25.4h-20.546v-5.2h-.468l.47-37h20.543l.47 37h-.47v5.2M638.895 59h5v-8.2h-5V59m0 8.6v8.2h5v-8.2h-5m-7.773-25.4v5.2h-.468l.47 37h20.543l.47-37h-.47v-5.2h-20.545" style="fill:none;stroke:#000;stroke-width:.1mm"/>
    <path d="M664.908 72.8V81h-5v-8.2h5m0-8.6h-5V56h5v8.2m7.773 25.4h-20.546v-5.2h-.468l.47-37h20.543l.47 37h-.47v5.2M640.296 185.6h5v-8.2h-5v8.2m0 8.6v8.2h5v-8.2h-5m-7.773-25.4v5.2h-.468l.47 37h20.543l.47-37h-.47v-5.2h-20.545" style="fill:none;stroke:#000;stroke-width:.1mm"/>
    <path d="M666.309 199.4v8.2h-5v-8.2h5m0-8.6h-5v-8.2h5v8.2m7.773 25.4h-20.546V211h-.468l.47-37h20.543l.47 37h-.47v5.2M639.829 143.4h5v-8.2h-5v8.2m0 8.6v8.2h5V152h-5m-7.773-25.4v5.2h-.468l.47 37H652.6l.47-37h-.47v-5.2h-20.545" style="fill:none;stroke:#000;stroke-width:.1mm"/>
    <path d="M665.842 157.2v8.2h-5v-8.2h5m0-8.6h-5v-8.2h5v8.2m7.773 25.4h-20.546v-5.2h-.468l.47-37h20.543l.47 37h-.47v5.2M1246.428 438.228l-.863.8-.937.71-1.004.614-1.06.511-1.105.401-1.14.291-1.163.175-1.175.059-1.175-.059-1.163-.175-1.141-.291-1.104-.401-1.06-.511-1.005-.614-.937-.71-.863-.8-.778-.881-.686-.956-.588-1.019-.484-1.072-.375-1.115-.262-1.147-.146-1.167-.03-1.177.088-1.173.204-1.158.32-1.132.429-1.095.537-1.047.638-.989.734-.919.82-.842.902-.756.972-.663 1.033-.563 1.084-.456 1.124-.347 1.153-.233 1.172-.117.587-.015.587.015 1.172.117 1.152.233 1.125.347 1.083.456 1.034.563.97.663.903.756.82.842.735.919.638.989.537 1.047.429 1.095.319 1.132.204 1.158.088 1.173-.03 1.177-.146 1.167-.262 1.147-.374 1.115-.484 1.072-.588 1.019-.686.956-.78.881m20.518 17.861v-5h11.345v5h-11.345m-23.091 0v-5h11.345v5h-11.345m-23.091 0v-5h11.345v5h-11.345m-11.746 0h-11.345v-5h11.345v5m32.442 104.675-1.14.291-1.163.175-1.175.059-1.175-.059-1.163-.175-1.141-.291-1.104-.401-1.06-.511-1.005-.614-.937-.71-.863-.8-.778-.881-.686-.956-.588-1.019-.484-1.072-.375-1.115-.262-1.147-.146-1.167-.03-1.177.088-1.173.204-1.158.32-1.132.429-1.095.537-1.047.638-.989.734-.919.82-.842.902-.756.972-.663 1.033-.563 1.084-.456 1.124-.347 1.153-.233 1.172-.117.587-.015.587.015 1.172.117 1.152.233 1.125.347 1.083.456 1.034.563.97.663.903.756.82.842.735.919.638.989.537 1.047.429 1.095.319 1.132.204 1.158.088 1.173-.03 1.177-.146 1.167-.262 1.147-.374 1.115-.484 1.072-.588 1.019-.686.956-.78.881-.862.8-.937.71-1.004.614-1.06.511-1.105.401m25.486 87.125v-5h11.345v5h-11.345m-23.091 0v-5h11.345v5h-11.345m-23.091 0v-5h11.345v5h-11.345m-11.746 0h-11.345v-5h11.345v5m26.052 9.665 1.153-.233 1.172-.117.587-.015.587.015 1.172.117 1.152.233 1.125.347 1.083.456 1.034.563.97.663.903.756.82.842.735.919.638.989.537 1.047.429 1.095.319 1.132.204 1.158.088 1.173-.03 1.177-.146 1.167-.262 1.147-.374 1.115-.484 1.072-.588 1.019-.686.956-.78.881-.862.8-.937.71-1.004.614-1.06.511-1.105.401-1.14.291-1.163.175-1.175.059-1.175-.059-1.163-.175-1.141-.291-1.104-.401-1.06-.511-1.005-.614-.937-.71-.863-.8-.778-.881-.686-.956-.588-1.019-.484-1.072-.375-1.115-.262-1.147-.146-1.167-.03-1.177.088-1.173.204-1.158.32-1.132.429-1.095.537-1.047.638-.989.734-.919.82-.842.902-.756.972-.663 1.033-.563 1.084-.456 1.124-.347m-60.688-291.165h63.602l6.232.306 6.173.916 6.055 1.516 5.876 2.104 5.643 2.668 5.353 3.209 5.013 3.718 4.625 4.191 4.19 4.624 3.719 5.013 3.209 5.354 2.668 5.643 2.104 5.876 1.516 6.054.915 6.174.307 6.232v21.102h-11.545v5h11.545v186.8h-11.545v5h11.545v21.102l-.307 6.232-.915 6.174-1.516 6.054-2.104 5.876-2.668 5.643-3.21 5.354-3.717 5.013-4.191 4.624-4.625 4.191-5.013 3.718-5.353 3.209-5.643 2.669-5.876 2.103-6.055 1.516-6.173.916-6.232.306h-63.602v-33.273h-5.2v-33.472h5.2v-17.955h11.545v-5h-11.545v-10.118h-5.2v-33.473h5.2v-33.073h-5.2v-33.472h5.2V499.68h-5.2v-33.473h5.2v-10.118h11.545v-5h-11.545v-17.955h-5.2v-33.472h5.2v-33.273M867.534 660.75l.863-.8.937-.71 1.004-.614 1.06-.511 1.105-.401 1.14-.291 1.163-.175 1.175-.059 1.175.059 1.163.175 1.14.291 1.105.401 1.06.511 1.005.614.937.71.863.8.778.881.686.956.588 1.019.484 1.072.375 1.115.262 1.147.146 1.167.029 1.177-.087 1.173-.204 1.158-.32 1.132-.43 1.095-.536 1.047-.638.989-.734.919-.821.842-.901.756-.972.663-1.033.563-1.084.456-1.124.347-1.153.233-1.172.117-.587.015-.587-.015-1.172-.117-1.152-.233-1.125-.347-1.083-.456-1.034-.563-.971-.663-.902-.756-.821-.842-.734-.919-.638-.989-.537-1.047-.43-1.095-.318-1.132-.204-1.158-.088-1.173.029-1.177.147-1.167.262-1.147.374-1.115.484-1.072.588-1.019.686-.956.779-.881m-20.517-17.861v5h-11.345v-5h11.345m23.09 0v5h-11.344v-5h11.345m23.09 0v5h-11.344v-5h11.345m11.746 0h11.345v5h-11.345v-5m-32.442-104.675 1.14-.291 1.163-.175 1.175-.059 1.175.059 1.163.175 1.14.291 1.105.401 1.06.511 1.005.614.937.71.863.8.778.881.686.956.588 1.019.484 1.072.375 1.115.262 1.147.146 1.167.029 1.177-.087 1.173-.204 1.158-.32 1.132-.43 1.095-.536 1.047-.638.989-.734.919-.821.842-.901.756-.972.663-1.033.563-1.084.456-1.124.347-1.153.233-1.172.117-.587.015-.587-.015-1.172-.117-1.152-.233-1.125-.347-1.083-.456-1.034-.563-.971-.663-.902-.756-.821-.842-.734-.919-.638-.989-.537-1.047-.43-1.095-.318-1.132-.204-1.158-.088-1.173.029-1.177.147-1.167.262-1.147.374-1.115.484-1.072.588-1.019.686-.956.779-.881.863-.8.937-.71 1.004-.614 1.06-.511 1.105-.401m-25.486-87.125v5h-11.345v-5h11.345m23.09 0v5h-11.344v-5h11.345m23.09 0v5h-11.344v-5h11.345m11.746 0h11.345v5h-11.345v-5m-20.938-12.45-.901.756-.972.663-1.033.563-1.084.456-1.124.347-1.153.233-1.172.117-.587.015-.587-.015-1.172-.117-1.152-.233-1.125-.347-1.083-.456-1.034-.563-.971-.663-.902-.756-.821-.842-.734-.919-.638-.989-.537-1.047-.43-1.095-.318-1.132-.204-1.158-.088-1.173.029-1.177.147-1.167.262-1.147.374-1.115.484-1.072.588-1.019.686-.956.779-.881.863-.8.937-.71 1.004-.614 1.06-.511 1.105-.401 1.14-.291 1.163-.175 1.175-.059 1.175.059 1.163.175 1.14.291 1.105.401 1.06.511 1.005.614.937.71.863.8.778.881.686.956.588 1.019.484 1.072.375 1.115.262 1.147.146 1.167.029 1.177-.087 1.173-.204 1.158-.32 1.132-.43 1.095-.536 1.047-.638.989-.734.919-.821.842m60.774 61.041h-5.2v33.073h5.2v33.472h-5.2v33.073h5.2v33.473h-5.2v10.118h-11.545v5h11.545v17.955h5.2v33.472h-5.2v33.273h-63.602l-6.232-.306-6.173-.916-6.055-1.516-5.876-2.104-5.643-2.668-5.353-3.209-5.013-3.718-4.625-4.191-4.191-4.624-3.718-5.013-3.21-5.354-2.667-5.643-2.104-5.876-1.516-6.054-.915-6.174-.307-6.232v-21.102h11.545v-5H812.38v-186.8h11.545v-5H812.38v-21.102l.307-6.232.915-6.174 1.516-6.054 2.104-5.876 2.668-5.643 3.209-5.354 3.718-5.013 4.19-4.624 4.626-4.191 5.013-3.718 5.353-3.209 5.643-2.669 5.876-2.103 6.055-1.516 6.173-.916 6.232-.306h63.602v33.273h5.2v33.472h-5.2v17.955h-11.545v5h11.545v10.118h5.2v33.473" style="fill:none;stroke:#000;stroke-width:.1mm"/>
    <path fill="none" stroke="#000" stroke-width=".1mm" d="M1056.98 665.844v33.472h-5.2v28.073h-9.235v5.2h-9.437v-5.2h-9.036v5.2h-9.436v-5.2h-9.037v5.2h-9.436v-5.2h-9.037v5.2h-9.436v-5.2h-9.036v5.2h-9.437v-5.2h-9.236v-28.073h-5.2v-33.472h5.2v-33.073h-5.2v-33.473h5.2v-33.073h-5.2v-33.472h5.2V499.68h-5.2v-33.473h5.2v-33.073h-5.2v-33.472h5.2v-28.073h9.236v-5.2h9.437v5.2h9.036v-5.2h9.436v5.2h9.037v-5.2h9.436v5.2h9.037v-5.2h9.436v5.2h9.036v-5.2h9.437v5.2h9.236v28.073h5.2v33.472h-5.2v33.073h5.2v33.473h-5.2v33.073h5.2v33.472h-5.2v33.073h5.2v33.473h-5.2v33.073h5.2"/>
    <path d="M1097.18 666.044v33.072h-5v-33.072h5m31.8 0h5v33.072h-5v-33.072m-31.8-66.546v33.073h-5v-33.073h5m31.8 0h5v33.073h-5v-33.073m-31.8-66.545v33.072h-5v-33.072h5m31.8 0h5v33.072h-5v-33.072m-31.8-66.546v33.073h-5v-33.073h5m31.8 0h5v33.073h-5v-33.073m-31.8-66.545v33.072h-5v-33.072h5m36.8 0v33.072h-5v-33.072h5m30-28.273v28.073h5.2v33.472h-5.2v33.073h5.2v33.473h-5.2v33.073h5.2v33.472h-5.2v33.073h5.2v33.473h-5.2v33.073h5.2v33.472h-5.2v28.073h-9.235v5.2h-9.437v-5.2h-9.036v5.2h-9.436v-5.2h-9.037v5.2h-9.436v-5.2h-9.037v5.2h-9.436v-5.2h-9.036v5.2h-9.437v-5.2h-9.236v-28.073h-5.2v-33.472h5.2v-33.073h-5.2v-33.473h5.2v-33.073h-5.2v-33.472h5.2V499.68h-5.2v-33.473h5.2v-33.073h-5.2v-33.472h5.2v-28.073h9.236v-5.2h9.437v5.2h9.036v-5.2h9.436v5.2h9.037v-5.2h9.436v5.2h9.037v-5.2h9.436v5.2h9.036v-5.2h9.437v5.2h9.236M1246.428 72.028l-.863.8-.937.71-1.004.614-1.06.511-1.105.401-1.14.291-1.163.175-1.175.059-1.175-.059-1.163-.175-1.141-.291-1.104-.401-1.06-.511-1.005-.614-.937-.71-.863-.8-.778-.881-.686-.956-.588-1.019-.484-1.072-.375-1.115-.262-1.147-.146-1.167-.03-1.177.088-1.173.204-1.158.32-1.132.429-1.095.537-1.047.638-.989.734-.919.82-.842.902-.756.972-.663 1.033-.563 1.084-.456 1.124-.347 1.153-.233 1.172-.117.587-.015.587.015 1.172.117 1.152.233 1.125.347 1.083.456 1.034.563.97.663.903.756.82.842.735.919.638.989.537 1.047.429 1.095.319 1.132.204 1.158.088 1.173-.03 1.177-.146 1.167-.262 1.147-.374 1.115-.484 1.072-.588 1.019-.686.956-.78.881m20.518 17.861v-5h11.345v5h-11.345m-23.091 0v-5h11.345v5h-11.345m-23.091 0v-5h11.345v5h-11.345m-11.746 0h-11.345v-5h11.345v5m32.442 104.675-1.14.291-1.163.175-1.175.059-1.175-.059-1.163-.175-1.141-.291-1.104-.401-1.06-.511-1.005-.614-.937-.71-.863-.8-.778-.881-.686-.956-.588-1.019-.484-1.072-.375-1.115-.262-1.147-.146-1.167-.03-1.177.088-1.173.204-1.158.32-1.132.429-1.095.537-1.047.638-.989.734-.919.82-.842.902-.756.972-.663 1.033-.563 1.084-.456 1.124-.347 1.153-.233 1.172-.117.587-.015.587.015 1.172.117 1.152.233 1.125.347 1.083.456 1.034.563.97.663.903.756.82.842.735.919.638.989.537 1.047.429 1.095.319 1.132.204 1.158.088 1.173-.03 1.177-.146 1.167-.262 1.147-.374 1.115-.484 1.072-.588 1.019-.686.956-.78.881-.862.8-.937.71-1.004.614-1.06.511-1.105.401m25.486 87.125v-5h11.345v5h-11.345m-23.091 0v-5h11.345v5h-11.345m-23.091 0v-5h11.345v5h-11.345m-11.746 0h-11.345v-5h11.345v5m26.052 9.665 1.153-.233 1.172-.117.587-.015.587.015 1.172.117 1.152.233 1.125.347 1.083.456 1.034.563.97.663.903.756.82.842.735.919.638.989.537 1.047.429 1.095.319 1.132.204 1.158.088 1.173-.03 1.177-.146 1.167-.262 1.147-.374 1.115-.484 1.072-.588 1.019-.686.956-.78.881-.862.8-.937.71-1.004.614-1.06.511-1.105.401-1.14.291-1.163.175-1.175.059-1.175-.059-1.163-.175-1.141-.291-1.104-.401-1.06-.511-1.005-.614-.937-.71-.863-.8-.778-.881-.686-.956-.588-1.019-.484-1.072-.375-1.115-.262-1.147-.146-1.167-.03-1.177.088-1.173.204-1.158.32-1.132.429-1.095.537-1.047.638-.989.734-.919.82-.842.902-.756.972-.663 1.033-.563 1.084-.456 1.124-.347M1174.38.189h63.602l6.232.306 6.173.916 6.055 1.516 5.876 2.104 5.643 2.668 5.353 3.209 5.013 3.718 4.625 4.191 4.19 4.624 3.719 5.013 3.209 5.354 2.668 5.643 2.104 5.876 1.516 6.054.915 6.174.307 6.232v21.102h-11.545v5h11.545v186.8h-11.545v5h11.545v21.102l-.307 6.232-.915 6.174-1.516 6.054-2.104 5.876-2.668 5.643-3.21 5.354-3.717 5.013-4.191 4.624-4.625 4.191-5.013 3.718-5.353 3.209-5.643 2.669-5.876 2.103-6.055 1.516-6.173.916-6.232.306h-63.602v-33.273h-5.2v-33.472h5.2v-17.955h11.545v-5h-11.545v-10.118h-5.2v-33.473h5.2v-33.073h-5.2v-33.472h5.2V133.48h-5.2v-33.473h5.2V89.889h11.545v-5h-11.545V66.934h-5.2V33.462h5.2V.189M867.534 294.55l.863-.8.937-.71 1.004-.614 1.06-.511 1.105-.401 1.14-.291 1.163-.175 1.175-.059 1.175.059 1.163.175 1.14.291 1.105.401 1.06.511 1.005.614.937.71.863.8.778.881.686.956.588 1.019.484 1.072.375 1.115.262 1.147.146 1.167.029 1.177-.087 1.173-.204 1.158-.32 1.132-.43 1.095-.536 1.047-.638.989-.734.919-.821.842-.901.756-.972.663-1.033.563-1.084.456-1.124.347-1.153.233-1.172.117-.587.015-.587-.015-1.172-.117-1.152-.233-1.125-.347-1.083-.456-1.034-.563-.971-.663-.902-.756-.821-.842-.734-.919-.638-.989-.537-1.047-.43-1.095-.318-1.132-.204-1.158-.088-1.173.029-1.177.147-1.167.262-1.147.374-1.115.484-1.072.588-1.019.686-.956.779-.881m-20.517-17.861v5h-11.345v-5h11.345m23.09 0v5h-11.344v-5h11.345m23.09 0v5h-11.344v-5h11.345m11.746 0h11.345v5h-11.345v-5m-32.442-104.675 1.14-.291 1.163-.175 1.175-.059 1.175.059 1.163.175 1.14.291 1.105.401 1.06.511 1.005.614.937.71.863.8.778.881.686.956.588 1.019.484 1.072.375 1.115.262 1.147.146 1.167.029 1.177-.087 1.173-.204 1.158-.32 1.132-.43 1.095-.536 1.047-.638.989-.734.919-.821.842-.901.756-.972.663-1.033.563-1.084.456-1.124.347-1.153.233-1.172.117-.587.015-.587-.015-1.172-.117-1.152-.233-1.125-.347-1.083-.456-1.034-.563-.971-.663-.902-.756-.821-.842-.734-.919-.638-.989-.537-1.047-.43-1.095-.318-1.132-.204-1.158-.088-1.173.029-1.177.147-1.167.262-1.147.374-1.115.484-1.072.588-1.019.686-.956.779-.881.863-.8.937-.71 1.004-.614 1.06-.511 1.105-.401m-25.486-87.125v5h-11.345v-5h11.345m23.09 0v5h-11.344v-5h11.345m23.09 0v5h-11.344v-5h11.345m11.746 0h11.345v5h-11.345v-5m-20.938-12.45-.901.756-.972.663-1.033.563-1.084.456-1.124.347-1.153.233-1.172.117-.587.015-.587-.015-1.172-.117-1.152-.233-1.125-.347-1.083-.456-1.034-.563-.971-.663-.902-.756-.821-.842-.734-.919-.638-.989-.537-1.047-.43-1.095-.318-1.132-.204-1.158-.088-1.173.029-1.177.147-1.167.262-1.147.374-1.115.484-1.072.588-1.019.686-.956.779-.881.863-.8.937-.71 1.004-.614 1.06-.511 1.105-.401 1.14-.291 1.163-.175 1.175-.059 1.175.059 1.163.175 1.14.291 1.105.401 1.06.511 1.005.614.937.71.863.8.778.881.686.956.588 1.019.484 1.072.375 1.115.262 1.147.146 1.167.029 1.177-.087 1.173-.204 1.158-.32 1.132-.43 1.095-.536 1.047-.638.989-.734.919-.821.842m60.774 61.041h-5.2v33.073h5.2v33.472h-5.2v33.073h5.2v33.473h-5.2v10.118h-11.545v5h11.545v17.955h5.2v33.472h-5.2v33.273h-63.602l-6.232-.306-6.173-.916-6.055-1.516-5.876-2.104-5.643-2.668-5.353-3.209-5.013-3.718-4.625-4.191-4.191-4.624-3.718-5.013-3.21-5.354-2.667-5.643-2.104-5.876-1.516-6.054-.915-6.174-.307-6.232v-21.102h11.545v-5H812.38v-186.8h11.545v-5H812.38V63.787l.307-6.232.915-6.174 1.516-6.054 2.104-5.876 2.668-5.643 3.209-5.354 3.718-5.013 4.19-4.624 4.626-4.191 5.013-3.718L846 7.699l5.643-2.669 5.876-2.103 6.055-1.516 6.173-.916 6.232-.306h63.602v33.273h5.2v33.472h-5.2v17.955h-11.545v5h11.545v10.118h5.2v33.473" style="fill:none;stroke:#000;stroke-width:.1mm"/>
    <path fill="none" stroke="#000" stroke-width=".1mm" d="M1056.98 299.644v33.472h-5.2v28.073h-9.235v5.2h-9.437v-5.2h-9.036v5.2h-9.436v-5.2h-9.037v5.2h-9.436v-5.2h-9.037v5.2h-9.436v-5.2h-9.036v5.2h-9.437v-5.2h-9.236v-28.073h-5.2v-33.472h5.2v-33.073h-5.2v-33.473h5.2v-33.073h-5.2v-33.472h5.2V133.48h-5.2v-33.473h5.2V66.934h-5.2V33.462h5.2V5.389h9.236v-5.2h9.437v5.2h9.036v-5.2h9.436v5.2h9.037v-5.2h9.436v5.2h9.037v-5.2h9.436v5.2h9.036v-5.2h9.437v5.2h9.236v28.073h5.2v33.472h-5.2v33.073h5.2v33.473h-5.2v33.073h5.2v33.472h-5.2v33.073h5.2v33.473h-5.2v33.073h5.2"/>
    <path d="M1097.18 299.844v33.072h-5v-33.072h5m31.8 0h5v33.072h-5v-33.072m-31.8-66.546v33.073h-5v-33.073h5m31.8 0h5v33.073h-5v-33.073m-31.8-66.545v33.072h-5v-33.072h5m31.8 0h5v33.072h-5v-33.072m-31.8-66.546v33.073h-5v-33.073h5m31.8 0h5v33.073h-5v-33.073m-31.8-66.545v33.072h-5V33.662h5m36.8 0v33.072h-5V33.662h5m30-28.273v28.073h5.2v33.472h-5.2v33.073h5.2v33.473h-5.2v33.073h5.2v33.472h-5.2v33.073h5.2v33.473h-5.2v33.073h5.2v33.472h-5.2v28.073h-9.235v5.2h-9.437v-5.2h-9.036v5.2h-9.436v-5.2h-9.037v5.2h-9.436v-5.2h-9.037v5.2h-9.436v-5.2h-9.036v5.2h-9.437v-5.2h-9.236v-28.073h-5.2v-33.472h5.2v-33.073h-5.2v-33.473h5.2v-33.073h-5.2v-33.472h5.2V133.48h-5.2v-33.473h5.2V66.934h-5.2V33.462h5.2V5.389h9.236v-5.2h9.437v5.2h9.036v-5.2h9.436v5.2h9.037v-5.2h9.436v5.2h9.037v-5.2h9.436v5.2h9.036v-5.2h9.437v5.2h9.236" style="fill:none;stroke:#000;stroke-width:.1mm"/>
    <path fill="none" stroke="#000" stroke-width=".1mm" d="M1082.3 774.734h5.2v-9.036h-5.2v-9.436h5.2v-9.037h-5.2v-14.636h8.283v5.2h7.884v-5.2h8.283v14.636h-5.2v9.037h5.2v9.436h-5.2v9.036h5.2v9.437h-5.2v9.036h5.2v9.437h-5.2v9.036h5.2v9.436h-5.2v9.037h5.2v14.636h-8.283v-5.2h-7.884v5.2h-8.283v-14.636h5.2v-9.037h-5.2v-9.436h5.2v-9.036h-5.2v-9.437h5.2v-9.036h-5.2v-9.437M1106.75 774.734h5.2v-9.036h-5.2v-9.436h5.2v-9.037h-5.2v-14.636h8.283v5.2h7.884v-5.2h8.283v14.636h-5.2v9.037h5.2v9.436h-5.2v9.036h5.2v9.437h-5.2v9.036h5.2v9.437h-5.2v9.036h5.2v9.436h-5.2v9.037h5.2v14.636h-8.283v-5.2h-7.884v5.2h-8.283v-14.636h5.2v-9.037h-5.2v-9.436h5.2v-9.036h-5.2v-9.437h5.2v-9.036h-5.2v-9.437M1033.4 774.734h5.2v-9.036h-5.2v-9.436h5.2v-9.037h-5.2v-14.636h8.283v5.2h7.884v-5.2h8.283v14.636h-5.2v9.037h5.2v9.436h-5.2v9.036h5.2v9.437h-5.2v9.036h5.2v9.437h-5.2v9.036h5.2v9.436h-5.2v9.037h5.2v14.636h-8.283v-5.2h-7.884v5.2h-8.283v-14.636h5.2v-9.037h-5.2v-9.436h5.2v-9.036h-5.2v-9.437h5.2v-9.036h-5.2v-9.437M1057.85 774.734h5.2v-9.036h-5.2v-9.436h5.2v-9.037h-5.2v-14.636h8.283v5.2h7.884v-5.2h8.283v14.636h-5.2v9.037h5.2v9.436h-5.2v9.036h5.2v9.437h-5.2v9.036h5.2v9.437h-5.2v9.036h5.2v9.436h-5.2v9.037h5.2v14.636h-8.283v-5.2h-7.884v5.2h-8.283v-14.636h5.2v-9.037h-5.2v-9.436h5.2v-9.036h-5.2v-9.437h5.2v-9.036h-5.2v-9.437M921.128 737.789h18.645v-5.2h18.846v5.2h18.645v101.8h-18.645v5.2h-18.846v-5.2h-18.645v-101.8M977.264 737.789h18.645v-5.2h18.846v5.2h18.645v101.8h-18.645v5.2h-18.846v-5.2h-18.645v-101.8M1257.8 859.765V848.02h5.2v-11.346h-5.2V824.93h5.2v-11.346h-5.2v-11.745h5.2v-11.346h-5.2v-11.745h5.2v-11.346h-5.2v-11.745h5.2V744.31h-5.2v-11.745h42.2v11.745h-5.2v11.346h5.2v11.745h-5.2v11.346h5.2v11.745h-5.2v11.346h5.2v11.745h-5.2v11.346h5.2v11.745h-5.2v11.346h5.2v11.745h-42.2M1257.8 859.765h-42.2V848.02h5.2v-11.346h-5.2V824.93h5.2v-11.346h-5.2v-11.745h5.2v-11.346h-5.2v-11.745h5.2v-11.346h-5.2v-11.745h5.2V744.31h-5.2v-11.745h42.2v11.745h-5.2v11.346h5.2v11.745h-5.2v11.346h5.2v11.745h-5.2v11.346h5.2v11.745h-5.2v11.346h5.2v11.745h-5.2v11.346h5.2v11.745"/>
    <path fill="none" stroke="#000" stroke-width=".1mm" d="M1173.4 859.765V848.02h5.2v-11.346h-5.2V824.93h5.2v-11.346h-5.2v-11.745h5.2v-11.346h-5.2v-11.745h5.2v-11.346h-5.2v-11.745h5.2V744.31h-5.2v-11.745h42.2v11.745h-5.2v11.346h5.2v11.745h-5.2v11.346h5.2v11.745h-5.2v11.346h5.2v11.745h-5.2v11.346h5.2v11.745h-5.2v11.346h5.2v11.745h-42.2M1173.4 859.765h-42.2V848.02h5.2v-11.346h-5.2V824.93h5.2v-11.346h-5.2v-11.745h5.2v-11.346h-5.2v-11.745h5.2v-11.346h-5.2v-11.745h5.2V744.31h-5.2v-11.745h42.2v11.745h-5.2v11.346h5.2v11.745h-5.2v11.346h5.2v11.745h-5.2v11.346h5.2v11.745h-5.2v11.346h5.2v11.745h-5.2v11.346h5.2v11.745"/>
    <path d="M719.802 233.109h5v33.073h-5v-33.073m-.2-166.564h5.2V33.473h-5.2V5.2h8.083V0h8.284v5.2h8.083v28.273h-5.2v33.072h5.2v33.473h-5.2v33.073h5.2v33.473h-5.2v33.072h5.2v33.473h-5.2v33.073h5.2v33.473h-5.2v33.072h5.2V361h-8.083v5.2h-8.284V361h-8.083v-28.273h5.2v-33.072h-5.2v-30.73h-5.522l-13.528-13.529v-18.787h5.2v-18.445h-5.2v-18.812l4.927-2.041 14.123 14.123v-11.798h5.2v-33.072h-5.2v-33.473h5.2v-33.073h-5.2V66.545M763.302 266.182v-33.073h5v33.073h-5M760.42 366.2h-8.284V361h-8.083v-28.273h5.2v-33.072h-5.2v-33.473h5.2v-33.073h-5.2v-33.473h5.2v-33.072h-5.2v-33.473h5.2v-33.073h-5.2V66.545h5.2V33.473h-5.2V5.2h8.083V0h8.284v5.2h8.083v28.273h-5.2v33.072h5.2v33.473h-5.2v33.073h5.2v33.473h-5.2v33.072h5.2v11.798l14.123-14.123 4.927 2.041v18.812h-5.2v18.445h5.2v18.787l-13.528 13.529h-5.522v30.73h-5.2v33.072h5.2V361h-8.083v5.2" style="fill:none;stroke:#000;stroke-width:.1mm"/>
    <path d="M700.352 133.091h-5v-33.073h5v33.073m.2 166.564h-5.2v33.072h5.2V361h-8.083v5.2h-8.284V361h-8.083v-28.273h5.2v-33.072h-5.2v-33.473h5.2v-33.073h-5.2v-33.473h5.2v-33.072h-5.2v-33.473h5.2v-33.073h-5.2V66.545h5.2V33.473h-5.2V5.2h8.083V0h8.284v5.2h8.083v28.273h-5.2v33.072h5.2v30.73h5.522l13.528 13.529v18.787h-5.2v18.445h5.2v18.812l-4.927 2.041-14.123-14.123v11.798h-5.2v33.072h5.2v33.473h-5.2v33.073h5.2v33.473M792.752 100.018v33.073h-5v-33.073h5M795.635 0h8.284v5.2h8.083v28.273h-5.2v33.072h5.2v33.473h-5.2v33.073h5.2v33.473h-5.2v33.072h5.2v33.473h-5.2v33.073h5.2v33.473h-5.2v33.072h5.2V361h-8.083v5.2h-8.284V361h-8.083v-28.273h5.2v-33.072h-5.2v-33.473h5.2v-33.073h-5.2v-33.473h5.2v-33.072h-5.2v-11.798l-14.123 14.123-4.927-2.041v-18.812h5.2v-18.445h-5.2v-18.787l13.528-13.529h5.522v-30.73h5.2V33.473h-5.2V5.2h8.083V0" style="fill:none;stroke:#000;stroke-width:.1mm"/>
    <path fill="none" stroke="#000" stroke-width=".1mm" d="M868.351 732.603h7.773v8.4h2.6v8.6h-2.6v8.2h2.6v8.6h-2.6v8.4h-7.77l-.47-37h.467v-5.2M878.724 791.803h-2.6v8.2h2.6v8.6h-2.6v8.4h-7.77l-.47-37h.467v-5.2h7.773v8.4h2.6v8.6M878.724 834.003h-2.6v8.2h2.6v8.6h-2.6v8.4h-7.77l-.47-37h.467v-5.2h7.773v8.4h2.6v8.6M921.128 791.803h-2.6v8.2h2.6v8.6h-2.6v8.4h-7.77l-.47-37h.467v-5.2h7.773v8.4h2.6v8.6M918.528 774.803h-7.77l-.47-37h.467v-5.2h7.773v8.4h2.6v8.6h-2.6v8.2h2.6v8.6h-2.6v8.4M918.528 817.003v8.4h2.6v8.6h-2.6v8.2h2.6v8.6h-2.6v8.4h-7.77l-.47-37h.467v-5.2h7.773M899.924 810.403h-2.6v-8.2h2.6v-8.6h-2.6v-8.4h-7.77l-.47 37h.467v5.2h7.773v-8.4h2.6v-8.6M897.324 827.403h-7.77l-.47 37h.467v5.2h7.773v-8.4h2.6v-8.6h-2.6v-8.2h2.6v-8.6h-2.6v-8.4M897.324 785.203v-8.4h2.6v-8.6h-2.6v-8.2h2.6v-8.6h-2.6v-8.4h-7.77l-.47 37h.467v5.2h7.773M854.92 869.603v-8.4h2.6v-8.6h-2.6v-8.2h2.6v-8.6h-2.6v-8.4h-7.77l-.47 37h.467v5.2h7.773"/>
    <path fill="none" stroke="#000" stroke-width=".1mm" d="M854.92 827.403v-8.4h2.6v-8.6h-2.6v-8.2h2.6v-8.6h-2.6v-8.4h-7.77l-.47 37h.467v5.2h7.773M854.92 785.203v-8.4h2.6v-8.6h-2.6v-8.2h2.6v-8.6h-2.6v-8.4h-7.77l-.47 37h.467v5.2h7.773M846.701 732.603h-7.773v8.4h-2.6v8.6h2.6v8.2h-2.6v8.6h2.6v8.4h7.771l.47-37h-.468v-5.2"/>
    <path fill="none" stroke="#000" stroke-width=".1mm" d="M836.326 791.803h2.6v8.2h-2.6v8.6h2.6v8.4h7.771l.47-37h-.468v-5.2h-7.773v8.4h-2.6v8.6M836.324 834.003h2.6v8.2h-2.6v8.6h2.6v8.4h7.771l.47-37h-.468v-5.2h-7.773v8.4h-2.6v8.6M878.724 791.803h2.6v8.2h-2.6v8.6h2.6v8.4h7.771l.47-37h-.468v-5.2h-7.773v8.4h-2.6v8.6M881.326 774.803h7.771l.47-37h-.468v-5.2h-7.773v8.4h-2.6v8.6h2.6v8.2h-2.6v8.6h2.6v8.4M881.322 817.003v8.4h-2.6v8.6h2.6v8.2h-2.6v8.6h2.6v8.4h7.771l.47-37h-.468v-5.2h-7.773M899.922 810.403h2.6v-8.2h-2.6v-8.6h2.6v-8.4h7.771l.47 37h-.468v5.2h-7.773v-8.4h-2.6v-8.6M902.524 827.403h7.771l.47 37h-.468v5.2h-7.773v-8.4h-2.6v-8.6h2.6v-8.2h-2.6v-8.6h2.6v-8.4M902.52 785.203v-8.4h-2.6v-8.6h2.6v-8.2h-2.6v-8.6h2.6v-8.4h7.771l.47 37h-.468v5.2h-7.773M860.114 869.603v-8.4h-2.6v-8.6h2.6v-8.2h-2.6v-8.6h2.6v-8.4h7.771l.47 37h-.468v5.2h-7.773"/>
    <path fill="none" stroke="#000" stroke-width=".1mm" d="M860.112 827.403v-8.4h-2.6v-8.6h2.6v-8.2h-2.6v-8.6h2.6v-8.4h7.771l.47 37h-.468v5.2h-7.773M860.11 785.203v-8.4h-2.6v-8.6h2.6v-8.2h-2.6v-8.6h2.6v-8.4h7.771l.47 37h-.468v5.2h-7.773"/>
    <path d="M758.778 400.678h-7.573v7.573h-5v-7.573h-7.573v-5h7.573v-7.573h5v7.573h7.573v5m20.346 6.058-1.003 2.986-1.296 2.872-1.575 2.728-1.839 2.558-2.084 2.362-2.31 2.142-2.51 1.903-2.689 1.643-2.838 1.367-2.96 1.077-3.053.777-3.116.469-3.146.158-3.146-.158-3.116-.469-3.052-.777-2.96-1.077-2.839-1.367-2.688-1.643-2.51-1.903-2.31-2.142-2.085-2.362-1.839-2.558-1.575-2.728-1.296-2.872-1.003-2.986-.7-3.071-.393-3.126-.078-3.149.235-3.142.547-3.102.853-3.032 1.152-2.933 1.436-2.803 1.71-2.647 1.964-2.463 2.2-2.255 2.413-2.025 2.603-1.775 2.767-1.507 2.902-1.222 3.01-.929 3.088-.624 3.134-.314 1.576-.039 1.576.039 3.134.314 3.088.624 3.01.929 2.903 1.222 2.766 1.507 2.604 1.775 2.412 2.025 2.2 2.255 1.964 2.463 1.71 2.647 1.436 2.803 1.152 2.933.853 3.032.547 3.102.235 3.142-.078 3.149-.392 3.126-.7 3.071M632.418 400.678h-7.573v7.573h-5v-7.573h-7.573v-5h7.573v-7.573h5v7.573h7.573v5m20.346 6.058-1.003 2.986-1.296 2.872-1.575 2.728-1.839 2.558-2.084 2.362-2.31 2.142-2.51 1.903-2.689 1.643-2.838 1.367-2.96 1.077-3.053.777-3.116.469-3.146.158-3.146-.158-3.116-.469-3.052-.777-2.96-1.077-2.839-1.367-2.688-1.643-2.51-1.903-2.31-2.142-2.085-2.362-1.839-2.558-1.575-2.728-1.296-2.872-1.003-2.986-.7-3.071-.393-3.126-.078-3.149.235-3.142.547-3.102.853-3.032 1.152-2.933 1.436-2.803 1.71-2.647 1.964-2.463 2.2-2.255 2.413-2.025 2.603-1.775 2.767-1.507 2.902-1.222 3.01-.929 3.088-.624 3.134-.314 1.576-.039 1.576.039 3.134.314 3.088.624 3.01.929 2.903 1.222 2.766 1.507 2.604 1.775 2.412 2.025 2.2 2.255 1.964 2.463 1.71 2.647 1.436 2.803 1.152 2.933.853 3.032.547 3.102.235 3.142-.078 3.149-.392 3.126-.7 3.071" style="fill:none;stroke:#000;stroke-width:.1mm"/>
    <path d="M695.598 400.678h-7.573v7.573h-5v-7.573h-7.573v-5h7.573v-7.573h5v7.573h7.573v5m21.047 2.987-.7 3.071-1.004 2.986-1.296 2.872-1.575 2.728-1.839 2.558-2.084 2.362-2.31 2.142-2.51 1.903-2.689 1.643-2.838 1.367-2.96 1.077-3.053.777-3.116.469-3.146.158-3.146-.158-3.116-.469-3.052-.777-2.96-1.077-2.839-1.367-2.688-1.643-2.51-1.903-2.31-2.142-2.085-2.362-1.839-2.558-1.575-2.728-1.296-2.872-1.003-2.986-.7-3.071-.393-3.126-.078-3.149.235-3.142.547-3.102.853-3.032 1.152-2.933 1.436-2.803 1.71-2.647 1.964-2.463 2.2-2.255 2.413-2.025 2.603-1.775 2.767-1.506 2.902-1.223 3.01-.929 3.088-.624 3.134-.314 1.576-.039 1.576.039 3.134.314 3.088.624 3.01.929 2.903 1.223 2.766 1.506 2.604 1.775 2.412 2.025 2.2 2.255 1.964 2.463 1.71 2.647 1.436 2.803 1.152 2.933.853 3.032.547 3.102.235 3.142-.078 3.149-.392 3.126M790.407 455.515h-7.573v7.573h-5v-7.573h-7.573v-5h7.573v-7.573h5v7.573h7.573v5m20.346 6.058-1.003 2.986-1.296 2.872-1.575 2.728-1.839 2.558-2.084 2.362-2.31 2.142-2.51 1.903-2.689 1.643-2.838 1.367-2.96 1.077-3.053.777-3.116.469-3.146.158-3.146-.158-3.116-.47-3.052-.776-2.96-1.077-2.839-1.367-2.688-1.643-2.51-1.903-2.31-2.142-2.085-2.362-1.839-2.558-1.575-2.728-1.296-2.872-1.003-2.986-.7-3.071-.393-3.126-.078-3.15.235-3.141.547-3.102.853-3.032 1.152-2.933 1.436-2.803 1.71-2.647 1.964-2.463 2.2-2.255 2.413-2.025 2.603-1.775 2.767-1.507 2.902-1.222 3.01-.93 3.088-.623 3.134-.314 1.576-.04 1.576.04 3.134.314 3.088.624 3.01.929 2.903 1.222 2.766 1.507 2.604 1.775 2.412 2.025 2.2 2.255 1.964 2.463 1.71 2.647 1.436 2.803 1.152 2.933.853 3.032.547 3.102.235 3.142-.078 3.149-.392 3.126-.7 3.07M664.047 455.515h-7.573v7.573h-5v-7.573h-7.573v-5h7.573v-7.573h5v7.573h7.573v5m20.346 6.058-1.003 2.986-1.296 2.872-1.575 2.728-1.839 2.558-2.084 2.362-2.31 2.142-2.51 1.903-2.689 1.643-2.838 1.367-2.96 1.077-3.053.777-3.116.469-3.146.158-3.146-.158-3.116-.47-3.052-.776-2.96-1.077-2.839-1.367-2.688-1.643-2.51-1.903-2.31-2.142-2.085-2.362-1.839-2.558-1.575-2.728-1.296-2.872-1.003-2.986-.7-3.071-.393-3.126-.078-3.15.235-3.141.547-3.102.853-3.032 1.152-2.933 1.436-2.803 1.71-2.647 1.964-2.463 2.2-2.255 2.413-2.025 2.603-1.775 2.767-1.507 2.902-1.222 3.01-.93 3.088-.623 3.134-.314 1.576-.04 1.576.04 3.134.314 3.088.624 3.01.929 2.903 1.222 2.766 1.507 2.604 1.775 2.412 2.025 2.2 2.255 1.964 2.463 1.71 2.647 1.436 2.803 1.152 2.933.853 3.032.547 3.102.235 3.142-.078 3.149-.392 3.126-.7 3.07M727.227 455.515h-7.573v7.573h-5v-7.573h-7.573v-5h7.573v-7.573h5v7.573h7.573v5m21.047 2.987-.7 3.07-1.004 2.987-1.296 2.872-1.575 2.728-1.839 2.558-2.084 2.362-2.31 2.142-2.51 1.903-2.689 1.643-2.838 1.367-2.96 1.077-3.053.777-3.116.469-3.146.158-3.146-.158-3.116-.47-3.052-.776-2.96-1.077-2.839-1.367-2.688-1.643-2.51-1.903-2.31-2.142-2.085-2.362-1.839-2.558-1.575-2.728-1.296-2.872-1.003-2.986-.7-3.071-.393-3.126-.078-3.15.235-3.141.547-3.102.853-3.032 1.152-2.933 1.436-2.803 1.71-2.647 1.964-2.463 2.2-2.255 2.413-2.025 2.603-1.775 2.767-1.506 2.902-1.223 3.01-.93 3.088-.623 3.134-.314 1.576-.04 1.576.04 3.134.314 3.088.624 3.01.929 2.903 1.223 2.766 1.506 2.604 1.775 2.412 2.025 2.2 2.255 1.964 2.463 1.71 2.647 1.436 2.803 1.152 2.933.853 3.032.547 3.102.235 3.142-.078 3.149-.392 3.126" style="fill:none;stroke:#000;stroke-width:.1mm"/>
    <path d="M695.598 505.228v5h-7.573v7.573h-5v-7.573h-7.573v-5h7.573v-7.573h5v7.573h7.573m21.282-1.429.235 3.142-.078 3.15-.392 3.125-.7 3.07-1.004 2.987-1.296 2.872-1.575 2.728-1.839 2.558-2.084 2.361-2.31 2.143-2.51 1.903-2.689 1.642-2.838 1.368-2.96 1.077-3.053.776-3.116.47-3.146.157-3.146-.157-3.116-.47-3.052-.776-2.96-1.077-2.839-1.368-2.688-1.642-2.51-1.903-2.31-2.143-2.085-2.36-1.839-2.559-1.575-2.728-1.296-2.872-1.003-2.987-.7-3.07-.393-3.126-.078-3.149.235-3.142.547-3.102.853-3.033 1.152-2.933 1.436-2.803 1.71-2.646 1.964-2.463 2.2-2.255 2.413-2.026 2.603-1.774 2.767-1.507 2.902-1.223 3.01-.929 3.088-.624 3.134-.314 1.576-.039 1.576.04 3.134.313 3.088.624 3.01.93 2.903 1.222 2.766 1.507 2.604 1.774 2.412 2.026 2.2 2.255 1.964 2.463 1.71 2.646 1.436 2.803 1.152 2.933.853 3.033.547 3.102" style="fill:none;stroke:#000;stroke-width:.1mm"/>
    <path d="M758.778 510.23h-7.573v7.572h-5v-7.573h-7.573v-5h7.573v-7.573h5v7.573h7.573v5m21.047 2.987-.7 3.071-1.004 2.986-1.296 2.872-1.575 2.728-1.839 2.558-2.084 2.362-2.31 2.142-2.51 1.903-2.689 1.643-2.838 1.367-2.96 1.077-3.053.777-3.116.47-3.146.157-3.146-.158-3.116-.469-3.052-.777-2.96-1.077-2.839-1.367-2.688-1.643-2.51-1.903-2.31-2.142-2.085-2.362-1.839-2.558-1.575-2.728-1.296-2.872-1.003-2.986-.7-3.07-.393-3.127-.078-3.149.235-3.142.547-3.102.853-3.032 1.152-2.933 1.436-2.803 1.71-2.647 1.964-2.463 2.2-2.255 2.413-2.025 2.603-1.775 2.767-1.506 2.902-1.223 3.01-.929 3.088-.624 3.134-.314 1.576-.039 1.576.04 3.134.313 3.088.624 3.01.93 2.903 1.222 2.766 1.506 2.604 1.775 2.412 2.025 2.2 2.255 1.964 2.463 1.71 2.647 1.436 2.803 1.152 2.933.853 3.032.547 3.102.235 3.142-.078 3.15-.392 3.125M632.418 505.228v5h-7.573v7.573h-5v-7.573h-7.573v-5h7.573v-7.573h5v7.573h7.573M653.7 503.8l.235 3.142-.078 3.15-.392 3.125-.7 3.07-1.004 2.987-1.296 2.872-1.575 2.728-1.839 2.558-2.084 2.361-2.31 2.143-2.51 1.903-2.689 1.642-2.838 1.368-2.96 1.077-3.053.776-3.116.47-3.146.157-3.146-.157-3.116-.47-3.052-.776-2.96-1.077-2.839-1.368-2.688-1.642-2.51-1.903-2.31-2.143-2.085-2.36-1.839-2.559-1.575-2.728-1.296-2.872-1.003-2.987-.7-3.07-.393-3.126-.078-3.149.235-3.142.547-3.102.853-3.033 1.152-2.933 1.436-2.803 1.71-2.646 1.964-2.463 2.2-2.255 2.413-2.026 2.603-1.774 2.767-1.507 2.902-1.223 3.01-.929 3.088-.624 3.134-.314 1.576-.039 1.576.04 3.134.313 3.088.624 3.01.93 2.903 1.222 2.766 1.507 2.604 1.774 2.412 2.026 2.2 2.255 1.964 2.463 1.71 2.646 1.436 2.803 1.152 2.933.853 3.033.547 3.102M727.227 560.065v5h-7.573v7.573h-5v-7.573h-7.573v-5h7.573v-7.573h5v7.573h7.573m21.282-1.43.235 3.143-.078 3.149-.392 3.126-.7 3.07-1.004 2.987-1.296 2.872-1.575 2.728-1.839 2.558-2.084 2.36-2.31 2.144-2.51 1.903-2.689 1.642-2.838 1.368-2.96 1.077-3.053.776-3.116.47-3.146.157-3.146-.157-3.116-.47-3.052-.776-2.96-1.077-2.839-1.368-2.688-1.642-2.51-1.903-2.31-2.143-2.085-2.361-1.839-2.558-1.575-2.728-1.296-2.872-1.003-2.987-.7-3.07-.393-3.126-.078-3.15.235-3.141.547-3.102.853-3.033 1.152-2.933 1.436-2.803 1.71-2.646 1.964-2.463 2.2-2.255 2.413-2.026 2.603-1.774 2.767-1.507 2.902-1.223 3.01-.93 3.088-.623 3.134-.314 1.576-.04 1.576.04 3.134.314 3.088.624 3.01.929 2.903 1.223 2.766 1.507 2.604 1.774 2.412 2.026 2.2 2.255 1.964 2.463 1.71 2.646 1.436 2.803 1.152 2.933.853 3.033.547 3.102M790.407 565.066h-7.573v7.573h-5v-7.573h-7.573v-5h7.573v-7.573h5v7.573h7.573v5m21.047 2.987-.7 3.07-1.004 2.987-1.296 2.872-1.575 2.728-1.839 2.558-2.084 2.362-2.31 2.142-2.51 1.903-2.689 1.643-2.838 1.367-2.96 1.077-3.053.777-3.116.469-3.146.158-3.146-.158-3.116-.47-3.052-.776-2.96-1.077-2.839-1.367-2.688-1.643-2.51-1.903-2.31-2.142-2.085-2.362-1.839-2.558-1.575-2.728-1.296-2.872-1.003-2.986-.7-3.071-.393-3.126-.078-3.15.235-3.141.547-3.102.853-3.032 1.152-2.933 1.436-2.803 1.71-2.647 1.964-2.463 2.2-2.255 2.413-2.025 2.603-1.775 2.767-1.506 2.902-1.223 3.01-.93 3.088-.623 3.134-.314 1.576-.04 1.576.04 3.134.314 3.088.624 3.01.929 2.903 1.223 2.766 1.506 2.604 1.775 2.412 2.025 2.2 2.255 1.964 2.463 1.71 2.647 1.436 2.803 1.152 2.933.853 3.032.547 3.102.235 3.142-.078 3.149-.392 3.126M664.047 560.065v5h-7.573v7.573h-5v-7.573h-7.573v-5h7.573v-7.573h5v7.573h7.573m21.282-1.43.235 3.143-.078 3.149-.392 3.126-.7 3.07-1.004 2.987-1.296 2.872-1.575 2.728-1.839 2.558-2.084 2.36-2.31 2.144-2.51 1.903-2.689 1.642-2.838 1.368-2.96 1.077-3.053.776-3.116.47-3.146.157-3.146-.157-3.116-.47-3.052-.776-2.96-1.077-2.839-1.368-2.688-1.642-2.51-1.903-2.31-2.143-2.085-2.361-1.839-2.558-1.575-2.728-1.296-2.872-1.003-2.987-.7-3.07-.393-3.126-.078-3.15.235-3.141.547-3.102.853-3.033 1.152-2.933 1.436-2.803 1.71-2.646 1.964-2.463 2.2-2.255 2.413-2.026 2.603-1.774 2.767-1.507 2.902-1.223 3.01-.93 3.088-.623 3.134-.314 1.576-.04 1.576.04 3.134.314 3.088.624 3.01.929 2.903 1.223 2.766 1.507 2.604 1.774 2.412 2.026 2.2 2.255 1.964 2.463 1.71 2.646 1.436 2.803 1.152 2.933.853 3.033.547 3.102M779.202 735.44l-1.003 2.987-1.296 2.872-1.575 2.728-1.839 2.558-2.084 2.362-2.31 2.142-2.51 1.903-2.689 1.643-2.838 1.367-2.96 1.077-3.053.777-3.116.469-3.146.158-3.146-.158-3.116-.47-3.052-.776-2.96-1.077-2.839-1.367-2.688-1.643-2.51-1.903-2.31-2.142-2.085-2.362-1.839-2.558-1.575-2.728-1.296-2.872-1.003-2.986-.7-3.071-.393-3.126-.078-3.15.235-3.141.547-3.102.853-3.032 1.152-2.933 1.436-2.803 1.71-2.647 1.964-2.463 2.2-2.255 2.413-2.025 2.603-1.775 2.767-1.507 2.902-1.222 3.01-.93 3.088-.623 3.134-.314 1.576-.04 1.576.04 3.134.314 3.088.624 3.01.929 2.903 1.222 2.766 1.507 2.604 1.775 2.412 2.025 2.2 2.255 1.964 2.463 1.71 2.647 1.436 2.803 1.152 2.933.853 3.032.547 3.102.235 3.142-.078 3.149-.392 3.126-.7 3.07M716.92 613.4l.234 3.141-.078 3.15-.392 3.125-.7 3.07-1.004 2.987-1.296 2.872-1.575 2.728-1.839 2.558-2.084 2.361-2.31 2.143-2.51 1.903-2.689 1.642-2.838 1.368-2.96 1.077-3.053.776-3.116.47-3.146.157-3.146-.157-3.116-.47-3.052-.776-2.96-1.077-2.839-1.368-2.688-1.642-2.51-1.903-2.31-2.143-2.085-2.36-1.839-2.559-1.575-2.728-1.296-2.872-1.003-2.987-.7-3.07-.393-3.126-.078-3.149.235-3.142.547-3.102.853-3.033 1.152-2.933 1.436-2.803 1.71-2.646 1.964-2.463 2.2-2.255 2.413-2.026 2.603-1.774 2.767-1.507 2.902-1.223 3.01-.929 3.088-.624 3.134-.314 1.576-.039 1.576.04 3.134.313 3.088.624 3.01.93 2.903 1.222 2.766 1.507 2.604 1.774 2.412 2.026 2.2 2.255 1.964 2.463 1.71 2.646 1.436 2.803 1.152 2.933.853 3.033.547 3.102" style="fill:none;stroke:#000;stroke-width:.1mm"/>
    <path d="m779.864 622.816-.7 3.071-1.004 2.986-1.296 2.872-1.575 2.728-1.839 2.558-2.084 2.362-2.31 2.142-2.51 1.903-2.689 1.643-2.838 1.367-2.96 1.077-3.053.777-3.116.47-3.146.157-3.146-.158-3.116-.469-3.052-.777-2.96-1.077-2.839-1.367-2.688-1.643-2.51-1.903-2.31-2.142-2.085-2.362-1.839-2.558-1.575-2.728-1.296-2.872-1.003-2.986-.7-3.07-.393-3.127-.078-3.149.235-3.142.547-3.102.853-3.032 1.152-2.933 1.436-2.803 1.71-2.647 1.964-2.463 2.2-2.255 2.413-2.025 2.603-1.775 2.767-1.506 2.902-1.223 3.01-.929 3.088-.624 3.134-.314 1.576-.039 1.576.04 3.134.313 3.088.624 3.01.93 2.903 1.222 2.766 1.506 2.604 1.775 2.412 2.025 2.2 2.255 1.964 2.463 1.71 2.647 1.436 2.803 1.152 2.933.853 3.032.547 3.102.235 3.142-.078 3.15-.392 3.125M652.842 735.44l-1.003 2.987-1.296 2.872-1.575 2.728-1.839 2.558-2.084 2.362-2.31 2.142-2.51 1.903-2.689 1.643-2.838 1.367-2.96 1.077-3.053.777-3.116.469-3.146.158-3.146-.158-3.116-.47-3.052-.776-2.96-1.077-2.839-1.367-2.688-1.643-2.51-1.903-2.31-2.142-2.085-2.362-1.839-2.558-1.575-2.728-1.296-2.872-1.003-2.986-.7-3.071-.393-3.126-.078-3.15.235-3.141.547-3.102.853-3.032 1.152-2.933 1.436-2.803 1.71-2.647 1.964-2.463 2.2-2.255 2.413-2.025 2.603-1.775 2.767-1.507 2.902-1.222 3.01-.93 3.088-.623 3.134-.314 1.576-.04 1.576.04 3.134.314 3.088.624 3.01.929 2.903 1.222 2.766 1.507 2.604 1.775 2.412 2.025 2.2 2.255 1.964 2.463 1.71 2.647 1.436 2.803 1.152 2.933.853 3.032.547 3.102.235 3.142-.078 3.149-.392 3.126-.7 3.07M653.74 613.4l.234 3.141-.078 3.15-.392 3.125-.7 3.07-1.004 2.987-1.296 2.872-1.575 2.728-1.839 2.558-2.084 2.361-2.31 2.143-2.51 1.903-2.689 1.642-2.838 1.368-2.96 1.077-3.053.776-3.116.47-3.146.157-3.146-.157-3.116-.47-3.052-.776-2.96-1.077-2.839-1.368-2.688-1.642-2.51-1.903-2.31-2.143-2.085-2.36-1.839-2.559-1.575-2.728-1.296-2.872-1.003-2.987-.7-3.07-.393-3.126-.078-3.149.235-3.142.547-3.102.853-3.033 1.152-2.933 1.436-2.803 1.71-2.646 1.964-2.463 2.2-2.255 2.413-2.026 2.603-1.774 2.767-1.507 2.902-1.223 3.01-.929 3.088-.624 3.134-.314 1.576-.039 1.576.04 3.134.313 3.088.624 3.01.93 2.903 1.222 2.766 1.507 2.604 1.774 2.412 2.026 2.2 2.255 1.964 2.463 1.71 2.646 1.436 2.803 1.152 2.933.853 3.033.547 3.102M716.723 732.37l-.7 3.07-1.004 2.987-1.296 2.872-1.575 2.728-1.839 2.558-2.084 2.362-2.31 2.142-2.51 1.903-2.689 1.643-2.838 1.367-2.96 1.077-3.053.777-3.116.469-3.146.158-3.146-.158-3.116-.47-3.052-.776-2.96-1.077-2.839-1.367-2.688-1.643-2.51-1.903-2.31-2.142-2.085-2.362-1.839-2.558-1.575-2.728-1.296-2.872-1.003-2.986-.7-3.071-.393-3.126-.078-3.15.235-3.141.547-3.102.853-3.032 1.152-2.933 1.436-2.803 1.71-2.647 1.964-2.463 2.2-2.255 2.413-2.025 2.603-1.775 2.767-1.506 2.902-1.223 3.01-.93 3.088-.623 3.134-.314 1.576-.04 1.576.04 3.134.314 3.088.624 3.01.929 2.903 1.223 2.766 1.506 2.604 1.775 2.412 2.025 2.2 2.255 1.964 2.463 1.71 2.647 1.436 2.803 1.152 2.933.853 3.032.547 3.102.235 3.142-.078 3.149-.392 3.126M810.831 790.277l-1.003 2.986-1.296 2.872-1.575 2.728-1.839 2.558-2.084 2.362-2.31 2.142-2.51 1.903-2.689 1.643-2.838 1.367-2.96 1.077-3.053.777-3.116.47-3.146.157-3.146-.158-3.116-.469-3.052-.777-2.96-1.077-2.839-1.367-2.688-1.643-2.51-1.903-2.31-2.142-2.085-2.362-1.839-2.558-1.575-2.728-1.296-2.872-1.003-2.986-.7-3.07-.393-3.127-.078-3.149.235-3.142.547-3.102.853-3.032 1.152-2.933 1.436-2.803 1.71-2.647 1.964-2.463 2.2-2.255 2.413-2.025 2.603-1.775 2.767-1.507 2.902-1.222 3.01-.929 3.088-.624 3.134-.314 1.576-.039 1.576.04 3.134.313 3.088.624 3.01.93 2.903 1.221 2.766 1.507 2.604 1.775 2.412 2.025 2.2 2.255 1.964 2.463 1.71 2.647 1.436 2.803 1.152 2.933.853 3.032.547 3.102.235 3.142-.078 3.15-.392 3.125-.7 3.071M748.548 668.236l.235 3.142-.078 3.149-.392 3.126-.7 3.07-1.004 2.987-1.296 2.872-1.575 2.728-1.839 2.558-2.084 2.36-2.31 2.144-2.51 1.903-2.689 1.642-2.838 1.368-2.96 1.077-3.053.776-3.116.47-3.146.157-3.146-.157-3.116-.47-3.052-.776-2.96-1.077-2.839-1.368-2.688-1.642-2.51-1.903-2.31-2.143-2.085-2.361-1.839-2.558-1.575-2.728-1.296-2.872-1.003-2.987-.7-3.07-.393-3.126-.078-3.15.235-3.141.547-3.102.853-3.033 1.152-2.933 1.436-2.803 1.71-2.646 1.964-2.463 2.2-2.255 2.413-2.026 2.603-1.774 2.767-1.507 2.902-1.223 3.01-.93 3.088-.623 3.134-.314 1.576-.04 1.576.04 3.134.314 3.088.624 3.01.929 2.903 1.223 2.766 1.507 2.604 1.774 2.412 2.026 2.2 2.255 1.964 2.463 1.71 2.646 1.436 2.803 1.152 2.933.853 3.033.547 3.102M811.493 677.653l-.7 3.07-1.004 2.987-1.296 2.872-1.575 2.728-1.839 2.558-2.084 2.362-2.31 2.142-2.51 1.903-2.689 1.643-2.838 1.367-2.96 1.077-3.053.777-3.116.469-3.146.158-3.146-.158-3.116-.47-3.052-.776-2.96-1.077-2.839-1.367-2.688-1.643-2.51-1.903-2.31-2.142-2.085-2.362-1.839-2.558-1.575-2.728-1.296-2.872-1.003-2.986-.7-3.071-.393-3.126-.078-3.15.235-3.141.547-3.102.853-3.032 1.152-2.933 1.436-2.803 1.71-2.647 1.964-2.463 2.2-2.255 2.413-2.025 2.603-1.775 2.767-1.506 2.902-1.223 3.01-.93 3.088-.623 3.134-.314 1.576-.04 1.576.04 3.134.314 3.088.624 3.01.929 2.903 1.223 2.766 1.506 2.604 1.775 2.412 2.025 2.2 2.255 1.964 2.463 1.71 2.647 1.436 2.803 1.152 2.933.853 3.032.547 3.102.235 3.142-.078 3.149-.392 3.126M684.471 790.277l-1.003 2.986-1.296 2.872-1.575 2.728-1.839 2.558-2.084 2.362-2.31 2.142-2.51 1.903-2.689 1.643-2.838 1.367-2.96 1.077-3.053.777-3.116.47-3.146.157-3.146-.158-3.116-.469-3.052-.777-2.96-1.077-2.839-1.367-2.688-1.643-2.51-1.903-2.31-2.142-2.085-2.362-1.839-2.558-1.575-2.728-1.296-2.872-1.003-2.986-.7-3.07-.393-3.127-.078-3.149.235-3.142.547-3.102.853-3.032 1.152-2.933 1.436-2.803 1.71-2.647 1.964-2.463 2.2-2.255 2.413-2.025 2.603-1.775 2.767-1.507 2.902-1.222 3.01-.929 3.088-.624 3.134-.314 1.576-.039 1.576.04 3.134.313 3.088.624 3.01.93 2.903 1.221 2.766 1.507 2.604 1.775 2.412 2.025 2.2 2.255 1.964 2.463 1.71 2.647 1.436 2.803 1.152 2.933.853 3.032.547 3.102.235 3.142-.078 3.15-.392 3.125-.7 3.071M685.368 668.236l.235 3.142-.078 3.149-.392 3.126-.7 3.07-1.004 2.987-1.296 2.872-1.575 2.728-1.839 2.558-2.084 2.36-2.31 2.144-2.51 1.903-2.689 1.642-2.838 1.368-2.96 1.077-3.053.776-3.116.47-3.146.157-3.146-.157-3.116-.47-3.052-.776-2.96-1.077-2.839-1.368-2.688-1.642-2.51-1.903-2.31-2.143-2.085-2.361-1.839-2.558-1.575-2.728-1.296-2.872-1.003-2.987-.7-3.07-.393-3.126-.078-3.15.235-3.141.547-3.102.853-3.033 1.152-2.933 1.436-2.803 1.71-2.646 1.964-2.463 2.2-2.255 2.413-2.026 2.603-1.774 2.767-1.507 2.902-1.223 3.01-.93 3.088-.623 3.134-.314 1.576-.04 1.576.04 3.134.314 3.088.624 3.01.929 2.903 1.223 2.766 1.507 2.604 1.774 2.412 2.026 2.2 2.255 1.964 2.463 1.71 2.646 1.436 2.803 1.152 2.933.853 3.033.547 3.102" style="fill:none;stroke:#000;stroke-width:.1mm"/>
    <path d="m748.352 787.206-.7 3.071-1.004 2.986-1.296 2.872-1.575 2.728-1.839 2.558-2.084 2.362-2.31 2.142-2.51 1.903-2.689 1.643-2.838 1.367-2.96 1.077-3.053.777-3.116.47-3.146.157-3.146-.158-3.116-.469-3.052-.777-2.96-1.077-2.839-1.367-2.688-1.643-2.51-1.903-2.31-2.142-2.085-2.362-1.839-2.558-1.575-2.728-1.296-2.872-1.003-2.986-.7-3.07-.393-3.127-.078-3.149.235-3.142.547-3.102.853-3.032 1.152-2.933 1.436-2.803 1.71-2.647 1.964-2.463 2.2-2.255 2.413-2.025 2.603-1.775 2.767-1.506 2.902-1.223 3.01-.929 3.088-.624 3.134-.314 1.576-.039 1.576.04 3.134.313 3.088.624 3.01.93 2.903 1.222 2.766 1.506 2.604 1.775 2.412 2.025 2.2 2.255 1.964 2.463 1.71 2.647 1.436 2.803 1.152 2.933.853 3.032.547 3.102.235 3.142-.078 3.15-.392 3.125" style="fill:none;stroke:#000;stroke-width:.1mm"/>
</svg>
