<?xml version="1.0" encoding="UTF-8" standalone="no"?>
<svg
   width="1300mm"
   height="900mm"
   viewBox="0 0 1300 900"
   version="1.1"
   id="svg93"
   sodipodi:docname="ConduitRack.svg"
   inkscape:version="1.3.2 (091e20ef0f, 2023-11-25)"
   xmlns:inkscape="http://www.inkscape.org/namespaces/inkscape"
   xmlns:sodipodi="http://sodipodi.sourceforge.net/DTD/sodipodi-0.dtd"
   xmlns="http://www.w3.org/2000/svg"
   xmlns:svg="http://www.w3.org/2000/svg">
  <defs
     id="defs93" />
  <sodipodi:namedview
     id="namedview93"
     pagecolor="#505050"
     bordercolor="#eeeeee"
     borderopacity="1"
     inkscape:showpageshadow="0"
     inkscape:pageopacity="0"
     inkscape:pagecheckerboard="0"
     inkscape:deskcolor="#505050"
     inkscape:document-units="mm"
     inkscape:zoom="0.13412818"
     inkscape:cx="1013.9554"
     inkscape:cy="816.38323"
     inkscape:window-width="1920"
     inkscape:window-height="1011"
     inkscape:window-x="0"
     inkscape:window-y="32"
     inkscape:window-maximized="1"
     inkscape:current-layer="svg93" />
  <path
     id="polyline22"
     style="fill:none;stroke:#000000;stroke-width:0.1mm"
     d="m 638.4277,16.8 h 5 V 8.6 h -5 v 8.2 m 0,8.6 v 8.2 h 5 v -8.2 h -5 M 630.6547,0 v 5.2 h -0.468 l 0.47,37 h 20.543 l 0.47,-37 h -0.469 V 0 h -20.546" />
  <path
     id="polyline28"
     style="fill:none;stroke:#000000;stroke-width:0.1mm"
     d="m 664.4407,30.6 v 8.2 h -5 v -8.2 h 5 m 0,-8.6 h -5 v -8.2 h 5 V 22 m 7.773,25.4 h -20.546 v -5.2 h -0.468 l 0.47,-37 h 20.543 l 0.47,37 h -0.469 v 5.2" />
  <path
     id="polyline22-9"
     style="fill:none;stroke:#000000;stroke-width:0.1mm"
     d="m 640.7627,227.8 h 5 v -8.2 h -5 v 8.2 m 0,8.6 v 8.2 h 5 v -8.2 h -5 m -7.773,-25.4 v 5.2 h -0.468 l 0.47,37 h 20.543 l 0.47,-37 h -0.469 V 211 h -20.546" />
  <path
     id="polyline28-2"
     style="fill:none;stroke:#000000;stroke-width:0.1mm"
     d="m 666.7757,241.6 v 8.2 h -5 v -8.2 h 5 m 0,-8.6 h -5 v -8.2 h 5 v 8.2 m 7.773,25.4 h -20.546 v -5.2 h -0.468 l 0.47,-37 h 20.543 l 0.47,37 h -0.469 v 5.2" />
  <path
     id="polyline22-6"
     style="fill:none;stroke:#000000;stroke-width:0.1mm"
     d="m 639.3617,101.2 h 5 V 93 h -5 v 8.2 m 0,8.6 v 8.2 h 5 v -8.2 h -5 m -7.773,-25.4 v 5.2 h -0.468 l 0.47,37 h 20.543 l 0.47,-37 h -0.469 v -5.2 h -20.546" />
  <path
     id="polyline28-6"
     style="fill:none;stroke:#000000;stroke-width:0.1mm"
     d="m 665.3747,115 v 8.2 h -5 V 115 h 5 m 0,-8.6 h -5 v -8.2 h 5 v 8.2 m 7.773,25.4 h -20.546 v -5.2 h -0.468 l 0.47,-37 h 20.543 l 0.47,37 h -0.469 v 5.2" />
  <path
     id="polyline22-9-4"
     style="fill:none;stroke:#000000;stroke-width:0.1mm"
     d="m 638.8947,59 h 5 v -8.2 h -5 V 59 m 0,8.6 v 8.2 h 5 v -8.2 h -5 m -7.773,-25.4 v 5.2 h -0.468 l 0.47,37 h 20.543 l 0.47,-37 h -0.469 v -5.2 h -20.546" />
  <path
     id="polyline28-2-9"
     style="fill:none;stroke:#000000;stroke-width:0.1mm"
     d="M 664.9077,72.8 V 81 h -5 v -8.2 h 5 m 0,-8.6 h -5 V 56 h 5 v 8.2 m 7.773,25.4 h -20.546 v -5.2 h -0.468 l 0.47,-37 h 20.543 l 0.47,37 h -0.469 v 5.2" />
  <path
     id="polyline22-5"
     style="fill:none;stroke:#000000;stroke-width:0.1mm"
     d="m 640.2957,185.6 h 5 v -8.2 h -5 v 8.2 m 0,8.6 v 8.2 h 5 v -8.2 h -5 m -7.773,-25.4 v 5.2 h -0.468 l 0.47,37 h 20.543 l 0.47,-37 h -0.469 v -5.2 h -20.546" />
  <path
     id="polyline28-0"
     style="fill:none;stroke:#000000;stroke-width:0.1mm"
     d="m 666.3087,199.4 v 8.2 h -5 v -8.2 h 5 m 0,-8.6 h -5 v -8.2 h 5 v 8.2 m 7.773,25.4 h -20.546 V 211 h -0.468 l 0.47,-37 h 20.543 l 0.47,37 h -0.469 v 5.2" />
  <path
     id="polyline22-9-48"
     style="fill:none;stroke:#000000;stroke-width:0.1mm"
     d="m 639.8287,143.4 h 5 v -8.2 h -5 v 8.2 m 0,8.6 v 8.2 h 5 V 152 h -5 m -7.773,-25.4 v 5.2 h -0.468 l 0.47,37 h 20.543 l 0.47,-37 h -0.469 v -5.2 h -20.546" />
  <path
     id="polyline28-2-7"
     style="fill:none;stroke:#000000;stroke-width:0.1mm"
     d="m 665.8417,157.2 v 8.2 h -5 v -8.2 h 5 m 0,-8.6 h -5 v -8.2 h 5 v 8.2 m 7.773,25.4 h -20.546 v -5.2 h -0.468 l 0.47,-37 h 20.543 l 0.47,37 h -0.469 v 5.2" />
  <path
     id="polyline60"
     style="fill:none;stroke:#000000;stroke-width:0.1mm"
     d="m 1246.4276,438.22796 -0.863,0.8 -0.937,0.71 -1.004,0.614 -1.06,0.511 -1.105,0.401 -1.14,0.291 -1.163,0.175 -1.175,0.059 -1.175,-0.059 -1.163,-0.175 -1.141,-0.291 -1.104,-0.401 -1.06,-0.511 -1.005,-0.614 -0.937,-0.71 -0.863,-0.8 -0.778,-0.881 -0.686,-0.956 -0.588,-1.019 -0.484,-1.072 -0.375,-1.115 -0.262,-1.147 -0.146,-1.167 -0.029,-1.177 0.087,-1.173 0.204,-1.158 0.32,-1.132 0.429,-1.09499 0.537,-1.047 0.638,-0.989 0.734,-0.919 0.821,-0.842 0.901,-0.75599 0.972,-0.663 1.033,-0.563 1.084,-0.456 1.124,-0.347 1.153,-0.233 1.172,-0.117 0.587,-0.015 0.587,0.015 1.172,0.117 1.152,0.233 1.125,0.347 1.083,0.456 1.034,0.563 0.971,0.663 0.902,0.75599 0.821,0.842 0.734,0.919 0.638,0.989 0.537,1.047 0.429,1.09499 0.319,1.132 0.204,1.158 0.088,1.173 -0.029,1.177 -0.147,1.167 -0.262,1.147 -0.374,1.115 -0.484,1.072 -0.588,1.019 -0.686,0.956 -0.779,0.881 m 20.517,17.861 v -5 h 11.345 v 5 h -11.345 m -23.091,0 v -5 h 11.345 v 5 h -11.345 m -23.091,0 v -5 h 11.345 v 5 h -11.345 m -11.746,0 h -11.345 v -5 h 11.345 v 5 m 32.442,104.675 -1.14,0.29101 -1.163,0.17499 -1.175,0.059 -1.175,-0.059 -1.163,-0.17499 -1.141,-0.29101 -1.104,-0.40099 -1.06,-0.511 -1.005,-0.614 -0.937,-0.71001 -0.863,-0.79999 -0.778,-0.881 -0.686,-0.956 -0.588,-1.019 -0.484,-1.072 -0.375,-1.115 -0.262,-1.14701 -0.146,-1.167 -0.029,-1.177 0.087,-1.173 0.204,-1.158 0.32,-1.132 0.429,-1.095 0.537,-1.047 0.638,-0.989 0.734,-0.919 0.821,-0.842 0.901,-0.756 0.972,-0.663 1.033,-0.563 1.084,-0.456 1.124,-0.347 1.153,-0.233 1.172,-0.11699 0.587,-0.015 0.587,0.015 1.172,0.11699 1.152,0.233 1.125,0.347 1.083,0.456 1.034,0.563 0.971,0.663 0.902,0.756 0.821,0.842 0.734,0.919 0.638,0.989 0.537,1.047 0.429,1.095 0.319,1.132 0.204,1.158 0.088,1.173 -0.029,1.177 -0.147,1.167 -0.262,1.14701 -0.374,1.115 -0.484,1.072 -0.588,1.019 -0.686,0.956 -0.779,0.881 -0.863,0.79999 -0.937,0.71001 -1.004,0.614 -1.06,0.511 -1.105,0.40099 m 25.486,87.125 v -5 h 11.345 v 5 h -11.345 m -23.091,0 v -5 h 11.345 v 5 h -11.345 m -23.091,0 v -5 h 11.345 v 5 h -11.345 m -11.746,0 h -11.345 v -5 h 11.345 v 5 m 26.052,9.665 1.153,-0.233 1.172,-0.11699 0.587,-0.015 0.587,0.015 1.172,0.11699 1.152,0.233 1.125,0.347 1.083,0.456 1.034,0.563 0.971,0.663 0.902,0.756 0.821,0.842 0.734,0.919 0.638,0.989 0.537,1.047 0.429,1.095 0.319,1.132 0.204,1.158 0.088,1.173 -0.029,1.177 -0.147,1.167 -0.262,1.14701 -0.374,1.115 -0.484,1.072 -0.588,1.019 -0.686,0.956 -0.779,0.881 -0.863,0.79999 -0.937,0.71001 -1.004,0.614 -1.06,0.511 -1.105,0.40099 -1.14,0.29101 -1.163,0.17499 -1.175,0.059 -1.175,-0.059 -1.163,-0.17499 -1.141,-0.29101 -1.104,-0.40099 -1.06,-0.511 -1.005,-0.614 -0.937,-0.71001 -0.863,-0.79999 -0.778,-0.881 -0.686,-0.956 -0.588,-1.019 -0.484,-1.072 -0.375,-1.115 -0.262,-1.14701 -0.146,-1.167 -0.029,-1.177 0.087,-1.173 0.204,-1.158 0.32,-1.132 0.429,-1.095 0.537,-1.047 0.638,-0.989 0.734,-0.919 0.821,-0.842 0.901,-0.756 0.972,-0.663 1.033,-0.563 1.084,-0.456 1.124,-0.347 m -60.688,-291.16499 h 63.602 l 6.232,0.306 6.173,0.916 6.055,1.516 5.876,2.104 5.643,2.668 5.353,3.209 5.013,3.718 4.625,4.191 4.191,4.624 3.718,5.013 3.209,5.354 2.668,5.643 2.104,5.876 1.516,6.054 0.915,6.174 0.307,6.23199 v 21.102 h -11.545 v 5 h 11.545 v 186.8 h -11.545 v 5 h 11.545 v 21.102 l -0.307,6.232 -0.915,6.174 -1.516,6.054 -2.104,5.876 -2.668,5.643 -3.209,5.354 -3.718,5.013 -4.191,4.624 -4.625,4.191 -5.013,3.718 -5.353,3.209 -5.643,2.669 -5.876,2.103 -6.055,1.516 -6.173,0.916 -6.232,0.306 h -63.602 v -33.273 h -5.2 v -33.472 h 5.2 v -17.955 h 11.545 v -5 h -11.545 v -10.118 h -5.2 v -33.473 h 5.2 v -33.073 h -5.2 v -33.472 h 5.2 v -33.073 h -5.2 v -33.473 h 5.2 v -10.118 h 11.545 v -5 h -11.545 v -17.955 h -5.2 v -33.47199 h 5.2 v -33.273" />
  <path
     id="polyline74"
     style="fill:none;stroke:#000000;stroke-width:0.1mm"
     d="m 867.53359,660.74998 0.863,-0.8 0.937,-0.71 1.004,-0.614 1.06,-0.511 1.105,-0.401 1.14,-0.291 1.163,-0.175 1.175,-0.059 1.175,0.059 1.163,0.175 1.141,0.291 1.104,0.401 1.06,0.511 1.005,0.614 0.937,0.71 0.863,0.8 0.778,0.881 0.686,0.956 0.588,1.019 0.484,1.072 0.375,1.115 0.262,1.147 0.146,1.167 0.029,1.177 -0.087,1.173 -0.204,1.158 -0.32,1.132 -0.429,1.095 -0.537,1.047 -0.638,0.989 -0.734,0.919 -0.821,0.842 -0.901,0.756 -0.972,0.663 -1.033,0.563 -1.084,0.456 -1.124,0.347 -1.153,0.233 -1.172,0.117 -0.587,0.015 -0.587,-0.015 -1.172,-0.117 -1.152,-0.233 -1.125,-0.347 -1.083,-0.456 -1.034,-0.563 -0.971,-0.663 -0.902,-0.756 -0.821,-0.842 -0.734,-0.919 -0.638,-0.989 -0.537,-1.047 -0.429,-1.095 -0.319,-1.132 -0.204,-1.158 -0.088,-1.173 0.029,-1.177 0.147,-1.167 0.262,-1.147 0.374,-1.115 0.484,-1.072 0.588,-1.019 0.686,-0.956 0.779,-0.881 m -20.517,-17.861 v 5 h -11.345 v -5 h 11.345 m 23.091,0 v 5 h -11.345 v -5 h 11.345 m 23.091,0 v 5 h -11.345 v -5 h 11.345 m 11.746,0 h 11.345 v 5 h -11.345 v -5 m -32.442,-104.675 1.14,-0.291 1.163,-0.175 1.175,-0.059 1.175,0.059 1.163,0.175 1.141,0.291 1.104,0.401 1.06,0.511 1.005,0.614 0.937,0.71 0.863,0.8 0.778,0.881 0.686,0.956 0.588,1.019 0.484,1.072 0.375,1.115 0.262,1.147 0.146,1.167 0.029,1.177 -0.087,1.173 -0.204,1.158 -0.32,1.132 -0.429,1.095 -0.537,1.047 -0.638,0.989 -0.734,0.919 -0.821,0.842 -0.901,0.756 -0.972,0.663 -1.033,0.563 -1.084,0.456 -1.124,0.347 -1.153,0.233 -1.172,0.117 -0.587,0.015 -0.587,-0.015 -1.172,-0.117 -1.152,-0.233 -1.125,-0.347 -1.083,-0.456 -1.034,-0.563 -0.971,-0.663 -0.902,-0.756 -0.821,-0.842 -0.734,-0.919 -0.638,-0.989 -0.537,-1.047 -0.429,-1.095 -0.319,-1.132 -0.204,-1.158 -0.088,-1.173 0.029,-1.177 0.147,-1.167 0.262,-1.147 0.374,-1.115 0.484,-1.072 0.588,-1.019 0.686,-0.956 0.779,-0.881 0.863,-0.8 0.937,-0.71 1.004,-0.614 1.06,-0.511 1.105,-0.401 m -25.486,-87.125 v 5 h -11.345 v -5 h 11.345 m 23.091,0 v 5 h -11.345 v -5 h 11.345 m 23.091,0 v 5 h -11.345 v -5 h 11.345 m 11.746,0 h 11.345 v 5 h -11.345 v -5 m -20.938,-12.45 -0.901,0.756 -0.972,0.663 -1.033,0.563 -1.084,0.456 -1.124,0.347 -1.153,0.233 -1.172,0.117 -0.587,0.015 -0.587,-0.015 -1.172,-0.117 -1.152,-0.233 -1.125,-0.347 -1.083,-0.456 -1.034,-0.563 -0.971,-0.663 -0.902,-0.756 -0.821,-0.842 -0.734,-0.919 -0.638,-0.989 -0.537,-1.047 -0.429,-1.095 -0.319,-1.132 -0.204,-1.158 -0.088,-1.173 0.029,-1.177 0.147,-1.167 0.262,-1.147 0.374,-1.115 0.484,-1.072 0.588,-1.019 0.686,-0.956 0.779,-0.881 0.863,-0.8 0.937,-0.71 1.004,-0.614 1.06,-0.511 1.105,-0.401 1.14,-0.291 1.163,-0.175 1.175,-0.059 1.175,0.059 1.163,0.175 1.141,0.291 1.104,0.401 1.06,0.511 1.005,0.614 0.937,0.71 0.863,0.8 0.778,0.881 0.686,0.956 0.588,1.019 0.484,1.072 0.375,1.115 0.262,1.147 0.146,1.167 0.029,1.177 -0.087,1.173 -0.204,1.158 -0.32,1.132 -0.429,1.095 -0.537,1.047 -0.638,0.989 -0.734,0.919 -0.821,0.842 m 60.774,61.041 h -5.2 v 33.073 h 5.2 v 33.472 h -5.2 v 33.073 h 5.2 v 33.473 h -5.2 v 10.118 h -11.545 v 5 h 11.545 v 17.955 h 5.2 v 33.472 h -5.2 v 33.273 h -63.602 l -6.232,-0.306 -6.173,-0.916 -6.055,-1.516 -5.876,-2.104 -5.643,-2.668 -5.353,-3.209 -5.013,-3.718 -4.625,-4.191 -4.191,-4.624 -3.718,-5.013 -3.209,-5.35401 -2.668,-5.643 -2.104,-5.876 -1.516,-6.054 -0.915,-6.17399 -0.307,-6.232 v -21.102 h 11.545 v -5 h -11.545 v -186.8 h 11.545 v -5 h -11.545 v -21.102 l 0.307,-6.232 0.915,-6.174 1.516,-6.054 2.104,-5.876 2.668,-5.643 3.209,-5.354 3.718,-5.013 4.191,-4.624 4.625,-4.191 5.013,-3.718 5.353,-3.209 5.643,-2.669 5.876,-2.103 6.055,-1.516 6.173,-0.916 6.232,-0.306 h 63.602 v 33.273 h 5.2 v 33.472 h -5.2 v 17.955 h -11.545 v 5 h 11.545 v 10.118 h 5.2 v 33.473" />
  <polyline
     z="0"
     points="426.619,335.503 426.619,368.975 421.419,368.975 421.419,397.048 412.183,397.048 412.183,402.248 402.746,402.248 402.746,397.048 393.71,397.048 393.71,402.248 384.274,402.248 384.274,397.048 375.237,397.048 375.237,402.248 365.801,402.248 365.801,397.048 356.764,397.048 356.764,402.248 347.328,402.248 347.328,397.048 338.292,397.048 338.292,402.248 328.855,402.248 328.855,397.048 319.619,397.048 319.619,368.975 314.419,368.975 314.419,335.503 319.619,335.503 319.619,302.43 314.419,302.43 314.419,268.957 319.619,268.957 319.619,235.884 314.419,235.884 314.419,202.412 319.619,202.412 319.619,169.339 314.419,169.339 314.419,135.866 319.619,135.866 319.619,102.793 314.419,102.793 314.419,69.321 319.619,69.321 319.619,41.248 328.855,41.248 328.855,36.048 338.292,36.048 338.292,41.248 347.328,41.248 347.328,36.048 356.764,36.048 356.764,41.248 365.801,41.248 365.801,36.048 375.237,36.048 375.237,41.248 384.274,41.248 384.274,36.048 393.71,36.048 393.71,41.248 402.746,41.248 402.746,36.048 412.183,36.048 412.183,41.248 421.419,41.248 421.419,69.321 426.619,69.321 426.619,102.793 421.419,102.793 421.419,135.866 426.619,135.866 426.619,169.339 421.419,169.339 421.419,202.412 426.619,202.412 426.619,235.884 421.419,235.884 421.419,268.957 426.619,268.957 426.619,302.43 421.419,302.43 421.419,335.503 426.619,335.503"
     fill="none"
     stroke="#000000"
     stroke-width="0.1mm"
     id="polyline75"
     transform="translate(630.36159,330.34098)" />
  <path
     id="polyline86"
     style="fill:none;stroke:#000000;stroke-width:0.1mm"
     d="m 1097.1806,666.04398 v 33.072 h -5 v -33.072 h 5 m 31.8,0 h 5 v 33.072 h -5 v -33.072 m -31.8,-66.54601 v 33.073 h -5 v -33.073 h 5 m 31.8,0 h 5 v 33.073 h -5 v -33.073 m -31.8,-66.54499 v 33.072 h -5 v -33.072 h 5 m 31.8,0 h 5 v 33.072 h -5 v -33.072 m -31.8,-66.546 v 33.073 h -5 v -33.073 h 5 m 31.8,0 h 5 v 33.073 h -5 v -33.073 m -31.8,-66.545 v 33.072 h -5 v -33.072 h 5 m 36.8,0 v 33.072 h -5 v -33.072 h 5 m 30,-28.27301 v 28.073 h 5.2 v 33.472 h -5.2 v 33.073 h 5.2 v 33.473 h -5.2 v 33.073 h 5.2 v 33.472 h -5.2 v 33.073 h 5.2 v 33.473 h -5.2 v 33.073 h 5.2 v 33.472 h -5.2 v 28.073 h -9.236 v 5.2 h -9.437 v -5.2 h -9.036 v 5.2 h -9.436 v -5.2 h -9.037 v 5.2 h -9.436 v -5.2 h -9.037 v 5.2 h -9.436 v -5.2 h -9.036 v 5.2 h -9.437 v -5.2 h -9.236 v -28.073 h -5.2 v -33.472 h 5.2 v -33.073 h -5.2 v -33.473 h 5.2 v -33.073 h -5.2 v -33.472 h 5.2 v -33.07299 h -5.2 v -33.47301 h 5.2 v -33.07299 h -5.2 v -33.472 h 5.2 v -28.073 h 9.236 v -5.2 h 9.437 v 5.2 h 9.036 v -5.2 h 9.436 v 5.2 h 9.037 v -5.2 h 9.436 v 5.2 h 9.037 v -5.2 h 9.436 v 5.2 h 9.036 v -5.2 h 9.437 v 5.2 h 9.236" />
  <path
     id="polyline60-7"
     style="fill:none;stroke:#000000;stroke-width:0.1mm"
     d="m 1246.4276,72.027966 -0.863,0.8 -0.937,0.71 -1.004,0.614 -1.06,0.511 -1.105,0.401 -1.14,0.291 -1.163,0.175 -1.175,0.059 -1.175,-0.059 -1.163,-0.175 -1.141,-0.291 -1.104,-0.401 -1.06,-0.511 -1.005,-0.614 -0.937,-0.71 -0.863,-0.8 -0.778,-0.881 -0.686,-0.956 -0.588,-1.019 -0.484,-1.072 -0.375,-1.115 -0.262,-1.147 -0.146,-1.167 -0.029,-1.177 0.087,-1.173 0.204,-1.158 0.32,-1.132 0.429,-1.09499 0.537,-1.047 0.638,-0.989 0.734,-0.919 0.821,-0.842 0.901,-0.756 0.972,-0.663 1.033,-0.563 1.084,-0.456 1.124,-0.347 1.153,-0.233 1.172,-0.117 0.587,-0.015 0.587,0.015 1.172,0.117 1.152,0.233 1.125,0.347 1.083,0.456 1.034,0.563 0.971,0.663 0.902,0.756 0.821,0.842 0.734,0.919 0.638,0.989 0.537,1.047 0.429,1.09499 0.319,1.132 0.204,1.158 0.088,1.173 -0.029,1.177 -0.147,1.167 -0.262,1.147 -0.374,1.115 -0.484,1.072 -0.588,1.019 -0.686,0.956 -0.779,0.881 m 20.517,17.860999 v -4.999999 h 11.345 v 4.999999 h -11.345 m -23.091,0 v -4.999999 h 11.345 v 4.999999 h -11.345 m -23.091,0 v -4.999999 h 11.345 v 4.999999 h -11.345 m -11.746,0 h -11.345 v -4.999999 h 11.345 v 4.999999 m 32.442,104.674995 -1.14,0.291 -1.163,0.175 -1.175,0.059 -1.175,-0.059 -1.163,-0.175 -1.141,-0.291 -1.104,-0.401 -1.06,-0.511 -1.005,-0.614 -0.937,-0.71 -0.863,-0.8 -0.778,-0.881 -0.686,-0.956 -0.588,-1.019 -0.484,-1.072 -0.375,-1.115 -0.262,-1.147 -0.146,-1.167 -0.029,-1.177 0.087,-1.173 0.204,-1.158 0.32,-1.132 0.429,-1.095 0.537,-1.047 0.638,-0.989 0.734,-0.919 0.821,-0.842 0.901,-0.756 0.972,-0.663 1.033,-0.563 1.084,-0.456 1.124,-0.347 1.153,-0.233 1.172,-0.117 0.587,-0.015 0.587,0.015 1.172,0.117 1.152,0.233 1.125,0.347 1.083,0.456 1.034,0.563 0.971,0.663 0.902,0.756 0.821,0.842 0.734,0.919 0.638,0.989 0.537,1.047 0.429,1.095 0.319,1.132 0.204,1.158 0.088,1.173 -0.029,1.177 -0.147,1.167 -0.262,1.147 -0.374,1.115 -0.484,1.072 -0.588,1.019 -0.686,0.956 -0.779,0.881 -0.863,0.8 -0.937,0.71 -1.004,0.614 -1.06,0.511 -1.105,0.401 m 25.486,87.125 v -5 h 11.345 v 5 h -11.345 m -23.091,0 v -5 h 11.345 v 5 h -11.345 m -23.091,0 v -5 h 11.345 v 5 h -11.345 m -11.746,0 h -11.345 v -5 h 11.345 v 5 m 26.052,9.66501 1.153,-0.23301 1.172,-0.117 0.587,-0.015 0.587,0.015 1.172,0.117 1.152,0.23301 1.125,0.34699 1.083,0.45601 1.034,0.56299 0.971,0.66301 0.902,0.75599 0.821,0.842 0.734,0.919 0.638,0.989 0.537,1.047 0.429,1.095 0.319,1.132 0.204,1.158 0.088,1.173 -0.029,1.17701 -0.147,1.16699 -0.262,1.147 -0.374,1.115 -0.484,1.072 -0.588,1.019 -0.686,0.95601 -0.779,0.88099 -0.863,0.8 -0.937,0.71 -1.004,0.614 -1.06,0.511 -1.105,0.401 -1.14,0.291 -1.163,0.175 -1.175,0.059 -1.175,-0.059 -1.163,-0.175 -1.141,-0.291 -1.104,-0.401 -1.06,-0.511 -1.005,-0.614 -0.937,-0.71 -0.863,-0.8 -0.778,-0.88099 -0.686,-0.95601 -0.588,-1.019 -0.484,-1.072 -0.375,-1.115 -0.262,-1.147 -0.146,-1.16699 -0.029,-1.17701 0.087,-1.173 0.204,-1.158 0.32,-1.132 0.429,-1.095 0.537,-1.047 0.638,-0.989 0.734,-0.919 0.821,-0.842 0.901,-0.75599 0.972,-0.66301 1.033,-0.56299 1.084,-0.45601 1.124,-0.34699 M 1174.3806,0.188976 h 63.602 l 6.232,0.306 6.173,0.916 6.055,1.516 5.876,2.104 5.643,2.668 5.353,3.209 5.013,3.718 4.625,4.191 4.191,4.624 3.718,5.013 3.209,5.354 2.668,5.643 2.104,5.876 1.516,6.054 0.915,6.174 0.307,6.23199 v 21.102 h -11.545 v 4.999999 h 11.545 V 276.68897 h -11.545 v 5 h 11.545 v 21.102 l -0.307,6.232 -0.915,6.174 -1.516,6.05399 -2.104,5.876 -2.668,5.643 -3.209,5.354 -3.718,5.013 -4.191,4.624 -4.625,4.191 -5.013,3.718 -5.353,3.209 -5.643,2.669 -5.876,2.103 -6.055,1.516 -6.173,0.916 -6.232,0.306 h -63.602 v -33.273 h -5.2 v -33.472 h 5.2 v -17.955 h 11.545 v -5 h -11.545 v -10.118 h -5.2 v -33.473 h 5.2 v -33.073 h -5.2 v -33.472 h 5.2 v -33.073 h -5.2 v -33.473 h 5.2 V 89.888965 h 11.545 v -4.999999 h -11.545 v -17.955 h -5.2 v -33.47199 h 5.2 v -33.273" />
  <path
     id="polyline74-5"
     style="fill:none;stroke:#000000;stroke-width:0.1mm"
     d="m 867.53358,294.54998 0.863,-0.80001 0.937,-0.70999 1.004,-0.614 1.06,-0.511 1.105,-0.401 1.14,-0.291 1.163,-0.17501 1.175,-0.059 1.175,0.059 1.163,0.17501 1.141,0.291 1.104,0.401 1.06,0.511 1.005,0.614 0.937,0.70999 0.863,0.80001 0.778,0.88099 0.686,0.956 0.588,1.019 0.484,1.07201 0.375,1.115 0.262,1.147 0.146,1.16699 0.029,1.177 -0.087,1.173 -0.204,1.15801 -0.32,1.132 -0.429,1.095 -0.537,1.047 -0.638,0.989 -0.734,0.919 -0.821,0.842 -0.901,0.75599 -0.972,0.663 -1.033,0.563 -1.084,0.45601 -1.124,0.34699 -1.153,0.233 -1.172,0.11701 -0.587,0.015 -0.587,-0.015 -1.172,-0.11701 -1.152,-0.233 -1.125,-0.34699 -1.083,-0.45601 -1.034,-0.563 -0.971,-0.663 -0.902,-0.75599 -0.821,-0.842 -0.734,-0.919 -0.638,-0.989 -0.537,-1.047 -0.429,-1.095 -0.319,-1.132 -0.204,-1.15801 -0.088,-1.173 0.029,-1.177 0.147,-1.16699 0.262,-1.147 0.374,-1.115 0.484,-1.07201 0.588,-1.019 0.686,-0.956 0.779,-0.88099 m -20.517,-17.861 v 5 h -11.345 v -5 h 11.345 m 23.091,0 v 5 h -11.345 v -5 h 11.345 m 23.091,0 v 5 h -11.345 v -5 h 11.345 m 11.746,0 h 11.345 v 5 h -11.345 v -5 m -32.442,-104.675 1.14,-0.291 1.163,-0.17501 1.175,-0.059 1.175,0.059 1.163,0.17501 1.141,0.291 1.104,0.401 1.06,0.511 1.005,0.614 0.937,0.71 0.863,0.8 0.778,0.881 0.686,0.956 0.588,1.019 0.484,1.072 0.375,1.115 0.262,1.147 0.146,1.167 0.029,1.177 -0.087,1.173 -0.204,1.158 -0.32,1.132 -0.429,1.095 -0.537,1.047 -0.638,0.989 -0.734,0.919 -0.821,0.842 -0.901,0.756 -0.972,0.663 -1.033,0.563 -1.084,0.456 -1.124,0.347 -1.153,0.233 -1.172,0.117 -0.587,0.015 -0.587,-0.015 -1.172,-0.117 -1.152,-0.233 -1.125,-0.347 -1.083,-0.456 -1.034,-0.563 -0.971,-0.663 -0.902,-0.756 -0.821,-0.842 -0.734,-0.919 -0.638,-0.989 -0.537,-1.047 -0.429,-1.095 -0.319,-1.132 -0.204,-1.158 -0.088,-1.173 0.029,-1.177 0.147,-1.167 0.262,-1.147 0.374,-1.115 0.484,-1.072 0.588,-1.019 0.686,-0.956 0.779,-0.881 0.863,-0.8 0.937,-0.71 1.004,-0.614 1.06,-0.511 1.105,-0.401 m -25.486,-87.125004 v 4.999999 h -11.345 v -4.999999 h 11.345 m 23.091,0 v 4.999999 h -11.345 v -4.999999 h 11.345 m 23.091,0 v 4.999999 h -11.345 v -4.999999 h 11.345 m 11.746,0 h 11.345 v 4.999999 h -11.345 v -4.999999 m -20.938,-12.45 -0.901,0.756 -0.972,0.663 -1.033,0.563 -1.084,0.456 -1.124,0.347 -1.153,0.233 -1.172,0.117 -0.587,0.015 -0.587,-0.015 -1.172,-0.117 -1.152,-0.233 -1.125,-0.347 -1.083,-0.456 -1.034,-0.563 -0.971,-0.663 -0.902,-0.756 -0.821,-0.842 -0.734,-0.919 -0.638,-0.989 -0.537,-1.047 -0.429,-1.095 -0.319,-1.132 -0.204,-1.158 -0.088,-1.173 0.029,-1.177 0.147,-1.167 0.262,-1.147 0.374,-1.115 0.484,-1.072 0.588,-1.019 0.686,-0.956 0.779,-0.881 0.863,-0.8 0.937,-0.71 1.004,-0.614 1.06,-0.511 1.105,-0.401 1.14,-0.291 1.163,-0.175 1.175,-0.059 1.175,0.059 1.163,0.175 1.141,0.291 1.104,0.401 1.06,0.511 1.005,0.614 0.937,0.71 0.863,0.8 0.778,0.881 0.686,0.956 0.588,1.019 0.484,1.072 0.375,1.115 0.262,1.147 0.146,1.167 0.029,1.177 -0.087,1.173 -0.204,1.158 -0.32,1.132 -0.429,1.095 -0.537,1.047 -0.638,0.989 -0.734,0.919 -0.821,0.842 m 60.774,61.041004 h -5.2 v 33.073 h 5.2 v 33.472 h -5.2 v 33.073 h 5.2 v 33.473 h -5.2 v 10.118 h -11.545 v 5 h 11.545 v 17.95499 h 5.2 v 33.472 h -5.2 v 33.27301 h -63.602 l -6.232,-0.306 -6.173,-0.916 -6.055,-1.516 -5.876,-2.104 -5.643,-2.668 -5.353,-3.209 -5.013,-3.71801 -4.625,-4.19099 -4.191,-4.62401 -3.718,-5.01299 -3.209,-5.354 -2.668,-5.643 -2.104,-5.876 -1.516,-6.054 -0.915,-6.174 -0.307,-6.232 v -21.102 h 11.545 v -5 h -11.545 V 89.888975 h 11.545 v -4.999999 h -11.545 v -21.102 l 0.307,-6.232 0.915,-6.174 1.516,-6.054 2.104,-5.876 2.668,-5.643 3.209,-5.354 3.718,-5.013 4.191,-4.624 4.625,-4.191 5.013,-3.718 5.353,-3.209 5.643,-2.669 5.876,-2.103 6.055,-1.516 6.173,-0.916 6.232,-0.306 h 63.602 v 33.273 h 5.2 v 33.472 h -5.2 v 17.955 h -11.545 v 4.999999 h 11.545 v 10.118005 h 5.2 v 33.473" />
  <polyline
     z="0"
     points="426.619,335.503 426.619,368.975 421.419,368.975 421.419,397.048 412.183,397.048 412.183,402.248 402.746,402.248 402.746,397.048 393.71,397.048 393.71,402.248 384.274,402.248 384.274,397.048 375.237,397.048 375.237,402.248 365.801,402.248 365.801,397.048 356.764,397.048 356.764,402.248 347.328,402.248 347.328,397.048 338.292,397.048 338.292,402.248 328.855,402.248 328.855,397.048 319.619,397.048 319.619,368.975 314.419,368.975 314.419,335.503 319.619,335.503 319.619,302.43 314.419,302.43 314.419,268.957 319.619,268.957 319.619,235.884 314.419,235.884 314.419,202.412 319.619,202.412 319.619,169.339 314.419,169.339 314.419,135.866 319.619,135.866 319.619,102.793 314.419,102.793 314.419,69.321 319.619,69.321 319.619,41.248 328.855,41.248 328.855,36.048 338.292,36.048 338.292,41.248 347.328,41.248 347.328,36.048 356.764,36.048 356.764,41.248 365.801,41.248 365.801,36.048 375.237,36.048 375.237,41.248 384.274,41.248 384.274,36.048 393.71,36.048 393.71,41.248 402.746,41.248 402.746,36.048 412.183,36.048 412.183,41.248 421.419,41.248 421.419,69.321 426.619,69.321 426.619,102.793 421.419,102.793 421.419,135.866 426.619,135.866 426.619,169.339 421.419,169.339 421.419,202.412 426.619,202.412 426.619,235.884 421.419,235.884 421.419,268.957 426.619,268.957 426.619,302.43 421.419,302.43 421.419,335.503 426.619,335.503"
     fill="none"
     stroke="#000000"
     stroke-width="0.1mm"
     id="polyline75-3"
     transform="translate(630.36158,-35.859024)" />
  <path
     id="polyline86-5"
     style="fill:none;stroke:#000000;stroke-width:0.1mm"
     d="m 1097.1806,299.84397 v 33.072 h -5 v -33.072 h 5 m 31.8,0 h 5 v 33.072 h -5 v -33.072 m -31.8,-66.546 v 33.073 h -5 v -33.073 h 5 m 31.8,0 h 5 v 33.073 h -5 v -33.073 m -31.8,-66.545 v 33.072 h -5 v -33.072 h 5 m 31.8,0 h 5 v 33.072 h -5 v -33.072 m -31.8,-66.546 v 33.073 h -5 v -33.073 h 5 m 31.8,0 h 5 v 33.073 h -5 v -33.073 m -31.8,-66.544994 v 33.072 h -5 v -33.072 h 5 m 36.8,0 v 33.072 h -5 v -33.072 h 5 m 30,-28.273 v 28.073 h 5.2 v 33.472 h -5.2 v 33.072994 h 5.2 v 33.473 h -5.2 v 33.073 h 5.2 v 33.472 h -5.2 v 33.073 h 5.2 v 33.473 h -5.2 v 33.073 h 5.2 v 33.472 h -5.2 v 28.073 h -9.236 v 5.2 h -9.437 v -5.2 h -9.036 v 5.2 h -9.436 v -5.2 h -9.037 v 5.2 h -9.436 v -5.2 h -9.037 v 5.2 h -9.436 v -5.2 h -9.036 v 5.2 h -9.437 v -5.2 h -9.236 v -28.073 h -5.2 v -33.472 h 5.2 v -33.073 h -5.2 v -33.473 h 5.2 v -33.073 h -5.2 v -33.472 h 5.2 v -33.073 h -5.2 v -33.473 h 5.2 V 66.933976 h -5.2 v -33.472 h 5.2 v -28.073 h 9.236 v -5.2 h 9.437 v 5.2 h 9.036 v -5.2 h 9.436 v 5.2 h 9.037 v -5.2 h 9.436 v 5.2 h 9.037 v -5.2 h 9.436 v 5.2 h 9.036 v -5.2 h 9.437 v 5.2 h 9.236" />
  <polyline
     z="0"
     points="383.119,698.393 388.319,698.393 388.319,689.357 383.119,689.357 383.119,679.921 388.319,679.921 388.319,670.884 383.119,670.884 383.119,656.248 391.402,656.248 391.402,661.448 399.286,661.448 399.286,656.248 407.569,656.248 407.569,670.884 402.369,670.884 402.369,679.921 407.569,679.921 407.569,689.357 402.369,689.357 402.369,698.393 407.569,698.393 407.569,707.83 402.369,707.83 402.369,716.866 407.569,716.866 407.569,726.303 402.369,726.303 402.369,735.339 407.569,735.339 407.569,744.775 402.369,744.775 402.369,753.812 407.569,753.812 407.569,768.448 399.286,768.448 399.286,763.248 391.402,763.248 391.402,768.448 383.119,768.448 383.119,753.812 388.319,753.812 388.319,744.775 383.119,744.775 383.119,735.339 388.319,735.339 388.319,726.303 383.119,726.303 383.119,716.866 388.319,716.866 388.319,707.83 383.119,707.83 383.119,698.393"
     fill="none"
     stroke="#000000"
     stroke-width="0.1mm"
     id="polyline87"
     transform="translate(699.181,76.34097)" />
  <polyline
     z="0"
     points="407.569,698.393 412.769,698.393 412.769,689.357 407.569,689.357 407.569,679.921 412.769,679.921 412.769,670.884 407.569,670.884 407.569,656.248 415.852,656.248 415.852,661.448 423.736,661.448 423.736,656.248 432.019,656.248 432.019,670.884 426.819,670.884 426.819,679.921 432.019,679.921 432.019,689.357 426.819,689.357 426.819,698.393 432.019,698.393 432.019,707.83 426.819,707.83 426.819,716.866 432.019,716.866 432.019,726.303 426.819,726.303 426.819,735.339 432.019,735.339 432.019,744.775 426.819,744.775 426.819,753.812 432.019,753.812 432.019,768.448 423.736,768.448 423.736,763.248 415.852,763.248 415.852,768.448 407.569,768.448 407.569,753.812 412.769,753.812 412.769,744.775 407.569,744.775 407.569,735.339 412.769,735.339 412.769,726.303 407.569,726.303 407.569,716.866 412.769,716.866 412.769,707.83 407.569,707.83 407.569,698.393"
     fill="none"
     stroke="#000000"
     stroke-width="0.1mm"
     id="polyline88"
     transform="translate(699.181,76.34097)" />
  <polyline
     z="0"
     points="383.119,698.393 388.319,698.393 388.319,689.357 383.119,689.357 383.119,679.921 388.319,679.921 388.319,670.884 383.119,670.884 383.119,656.248 391.402,656.248 391.402,661.448 399.286,661.448 399.286,656.248 407.569,656.248 407.569,670.884 402.369,670.884 402.369,679.921 407.569,679.921 407.569,689.357 402.369,689.357 402.369,698.393 407.569,698.393 407.569,707.83 402.369,707.83 402.369,716.866 407.569,716.866 407.569,726.303 402.369,726.303 402.369,735.339 407.569,735.339 407.569,744.775 402.369,744.775 402.369,753.812 407.569,753.812 407.569,768.448 399.286,768.448 399.286,763.248 391.402,763.248 391.402,768.448 383.119,768.448 383.119,753.812 388.319,753.812 388.319,744.775 383.119,744.775 383.119,735.339 388.319,735.339 388.319,726.303 383.119,726.303 383.119,716.866 388.319,716.866 388.319,707.83 383.119,707.83 383.119,698.393"
     fill="none"
     stroke="#000000"
     stroke-width="0.1mm"
     id="polyline87-6"
     transform="translate(650.281,76.34097)" />
  <polyline
     z="0"
     points="407.569,698.393 412.769,698.393 412.769,689.357 407.569,689.357 407.569,679.921 412.769,679.921 412.769,670.884 407.569,670.884 407.569,656.248 415.852,656.248 415.852,661.448 423.736,661.448 423.736,656.248 432.019,656.248 432.019,670.884 426.819,670.884 426.819,679.921 432.019,679.921 432.019,689.357 426.819,689.357 426.819,698.393 432.019,698.393 432.019,707.83 426.819,707.83 426.819,716.866 432.019,716.866 432.019,726.303 426.819,726.303 426.819,735.339 432.019,735.339 432.019,744.775 426.819,744.775 426.819,753.812 432.019,753.812 432.019,768.448 423.736,768.448 423.736,763.248 415.852,763.248 415.852,768.448 407.569,768.448 407.569,753.812 412.769,753.812 412.769,744.775 407.569,744.775 407.569,735.339 412.769,735.339 412.769,726.303 407.569,726.303 407.569,716.866 412.769,716.866 412.769,707.83 407.569,707.83 407.569,698.393"
     fill="none"
     stroke="#000000"
     stroke-width="0.1mm"
     id="polyline88-9"
     transform="translate(650.281,76.34097)" />
  <polyline
     z="0"
     points="432.019,661.448 450.664,661.448 450.664,656.248 469.51,656.248 469.51,661.448 488.155,661.448 488.155,763.248 469.51,763.248 469.51,768.448 450.664,768.448 450.664,763.248 432.019,763.248 432.019,661.448"
     fill="none"
     stroke="#000000"
     stroke-width="0.1mm"
     id="polyline89"
     transform="translate(489.109,76.340972)" />
  <polyline
     z="0"
     points="432.019,661.448 450.664,661.448 450.664,656.248 469.51,656.248 469.51,661.448 488.155,661.448 488.155,763.248 469.51,763.248 469.51,768.448 450.664,768.448 450.664,763.248 432.019,763.248 432.019,661.448"
     fill="none"
     stroke="#000000"
     stroke-width="0.1mm"
     id="polyline89-3"
     transform="translate(545.245,76.340972)" />
  <polyline
     z="0"
     points="425.319,656.248 425.319,644.503 430.519,644.503 430.519,633.157 425.319,633.157 425.319,621.412 430.519,621.412 430.519,610.066 425.319,610.066 425.319,598.321 430.519,598.321 430.519,586.975 425.319,586.975 425.319,575.23 430.519,575.23 430.519,563.884 425.319,563.884 425.319,552.139 430.519,552.139 430.519,540.793 425.319,540.793 425.319,529.048 467.519,529.048 467.519,540.793 462.319,540.793 462.319,552.139 467.519,552.139 467.519,563.884 462.319,563.884 462.319,575.23 467.519,575.23 467.519,586.975 462.319,586.975 462.319,598.321 467.519,598.321 467.519,610.066 462.319,610.066 462.319,621.412 467.519,621.412 467.519,633.157 462.319,633.157 462.319,644.503 467.519,644.503 467.519,656.248 425.319,656.248"
     fill="none"
     stroke="#000000"
     stroke-width="0.1mm"
     id="polyline90"
     transform="translate(832.481,203.51705)" />
  <polyline
     z="0"
     points="425.319,656.248 383.119,656.248 383.119,644.503 388.319,644.503 388.319,633.157 383.119,633.157 383.119,621.412 388.319,621.412 388.319,610.066 383.119,610.066 383.119,598.321 388.319,598.321 388.319,586.975 383.119,586.975 383.119,575.23 388.319,575.23 388.319,563.884 383.119,563.884 383.119,552.139 388.319,552.139 388.319,540.793 383.119,540.793 383.119,529.048 425.319,529.048 425.319,540.793 420.119,540.793 420.119,552.139 425.319,552.139 425.319,563.884 420.119,563.884 420.119,575.23 425.319,575.23 425.319,586.975 420.119,586.975 420.119,598.321 425.319,598.321 425.319,610.066 420.119,610.066 420.119,621.412 425.319,621.412 425.319,633.157 420.119,633.157 420.119,644.503 425.319,644.503 425.319,656.248"
     fill="none"
     stroke="#000000"
     stroke-width="0.1mm"
     id="polyline91"
     transform="translate(832.481,203.51705)" />
  <polyline
     z="0"
     points="425.319,656.248 425.319,644.503 430.519,644.503 430.519,633.157 425.319,633.157 425.319,621.412 430.519,621.412 430.519,610.066 425.319,610.066 425.319,598.321 430.519,598.321 430.519,586.975 425.319,586.975 425.319,575.23 430.519,575.23 430.519,563.884 425.319,563.884 425.319,552.139 430.519,552.139 430.519,540.793 425.319,540.793 425.319,529.048 467.519,529.048 467.519,540.793 462.319,540.793 462.319,552.139 467.519,552.139 467.519,563.884 462.319,563.884 462.319,575.23 467.519,575.23 467.519,586.975 462.319,586.975 462.319,598.321 467.519,598.321 467.519,610.066 462.319,610.066 462.319,621.412 467.519,621.412 467.519,633.157 462.319,633.157 462.319,644.503 467.519,644.503 467.519,656.248 425.319,656.248"
     fill="none"
     stroke="#000000"
     stroke-width="0.1mm"
     id="polyline90-7"
     transform="translate(748.081,203.51705)" />
  <polyline
     z="0"
     points="425.319,656.248 383.119,656.248 383.119,644.503 388.319,644.503 388.319,633.157 383.119,633.157 383.119,621.412 388.319,621.412 388.319,610.066 383.119,610.066 383.119,598.321 388.319,598.321 388.319,586.975 383.119,586.975 383.119,575.23 388.319,575.23 388.319,563.884 383.119,563.884 383.119,552.139 388.319,552.139 388.319,540.793 383.119,540.793 383.119,529.048 425.319,529.048 425.319,540.793 420.119,540.793 420.119,552.139 425.319,552.139 425.319,563.884 420.119,563.884 420.119,575.23 425.319,575.23 425.319,586.975 420.119,586.975 420.119,598.321 425.319,598.321 425.319,610.066 420.119,610.066 420.119,621.412 425.319,621.412 425.319,633.157 420.119,633.157 420.119,644.503 425.319,644.503 425.319,656.248"
     fill="none"
     stroke="#000000"
     stroke-width="0.1mm"
     id="polyline91-4"
     transform="translate(748.081,203.51705)" />
  <path
     id="polyline62"
     style="fill:none;stroke:#000000;stroke-width:0.1mm"
     d="m 719.8021,233.109 h 5 v 33.073 h -5 v -33.073 m -0.2,-166.564 h 5.2 V 33.473 h -5.2 V 5.2 h 8.083 V 0 h 8.284 v 5.2 h 8.083 v 28.273 h -5.2 v 33.072 h 5.2 v 33.473 h -5.2 v 33.073 h 5.2 v 33.473 h -5.2 v 33.072 h 5.2 v 33.473 h -5.2 v 33.073 h 5.2 v 33.473 h -5.2 v 33.072 h 5.2 V 361 h -8.083 v 5.2 h -8.284 V 361 h -8.083 v -28.273 h 5.2 v -33.072 h -5.2 v -30.73 h -5.522 l -13.528,-13.529 v -18.787 h 5.2 v -18.445 h -5.2 v -18.812 l 4.927,-2.041 14.123,14.123 v -11.798 h 5.2 v -33.072 h -5.2 v -33.473 h 5.2 v -33.073 h -5.2 V 66.545" />
  <path
     id="polyline93"
     style="fill:none;stroke:#000000;stroke-width:0.1mm"
     d="m 763.3021,266.182 v -33.073 h 5 v 33.073 h -5 m -2.883,100.018 h -8.284 V 361 h -8.083 v -28.273 h 5.2 v -33.072 h -5.2 v -33.473 h 5.2 v -33.073 h -5.2 v -33.473 h 5.2 v -33.072 h -5.2 v -33.473 h 5.2 v -33.073 h -5.2 V 66.545 h 5.2 V 33.473 h -5.2 V 5.2 h 8.083 V 0 h 8.284 v 5.2 h 8.083 v 28.273 h -5.2 v 33.072 h 5.2 v 33.473 h -5.2 v 33.073 h 5.2 v 33.473 h -5.2 v 33.072 h 5.2 v 11.798 l 14.123,-14.123 4.927,2.041 v 18.812 h -5.2 v 18.445 h 5.2 v 18.787 l -13.528,13.529 h -5.522 v 30.73 h -5.2 v 33.072 h 5.2 V 361 h -8.083 v 5.2" />
  <path
     id="polyline62-3"
     style="fill:none;stroke:#000000;stroke-width:0.1mm"
     d="m 700.3521,133.091 h -5 v -33.073 h 5 v 33.073 m 0.2,166.564 h -5.2 v 33.072 h 5.2 V 361 h -8.083 v 5.2 h -8.284 V 361 h -8.083 v -28.273 h 5.2 v -33.072 h -5.2 v -33.473 h 5.2 v -33.073 h -5.2 v -33.473 h 5.2 v -33.072 h -5.2 v -33.473 h 5.2 v -33.073 h -5.2 V 66.545 h 5.2 V 33.473 h -5.2 V 5.2 h 8.083 V 0 h 8.284 v 5.2 h 8.083 v 28.273 h -5.2 v 33.072 h 5.2 v 30.730003 h 5.522 l 13.528,13.528997 v 18.787 h -5.2 v 18.445 h 5.2 v 18.812 l -4.927,2.041 -14.123,-14.123 v 11.798 h -5.2 v 33.072 h 5.2 v 33.473 h -5.2 v 33.073 h 5.2 v 33.473" />
  <path
     id="polyline93-6"
     style="fill:none;stroke:#000000;stroke-width:0.1mm"
     d="m 792.7521,100.018 v 33.073 h -5 v -33.073 h 5 M 795.6351,0 h 8.284 v 5.2 h 8.083 v 28.273 h -5.2 v 33.072 h 5.2 v 33.473 h -5.2 v 33.073 h 5.2 v 33.473 h -5.2 v 33.072 h 5.2 v 33.473 h -5.2 v 33.073 h 5.2 v 33.473 h -5.2 v 33.072 h 5.2 V 361 h -8.083 v 5.2 h -8.284 V 361 h -8.083 v -28.273 h 5.2 v -33.072 h -5.2 v -33.473 h 5.2 v -33.073 h -5.2 v -33.473 h 5.2 v -33.072 h -5.2 v -11.798 l -14.123,14.123 -4.927,-2.041 v -18.812 h 5.2 v -18.445 h -5.2 v -18.787 l 13.528,-13.528997 h 5.522 V 66.545 h 5.2 V 33.473 h -5.2 V 5.2 h 8.083 V 0" />
  <polyline
     z="0"
     points="270.919,863.484 270.919,855.711 279.319,855.711 279.319,853.111 287.919,853.111 287.919,855.711 296.119,855.711 296.119,853.111 304.719,853.111 304.719,855.711 313.119,855.711 313.119,863.482 276.119,863.952 276.119,863.484 270.919,863.484"
     fill="none"
     stroke="#000000"
     stroke-width="0.1mm"
     id="polyline1"
     transform="rotate(90,635.07561,1096.7595)" />
  <polyline
     z="0"
     points="330.119,853.111 330.119,855.711 338.319,855.711 338.319,853.111 346.919,853.111 346.919,855.711 355.319,855.711 355.319,863.482 318.319,863.952 318.319,863.484 313.119,863.484 313.119,855.711 321.519,855.711 321.519,853.111 330.119,853.111"
     fill="none"
     stroke="#000000"
     stroke-width="0.1mm"
     id="polyline10"
     transform="rotate(90,635.07561,1096.7595)" />
  <polyline
     z="0"
     points="372.319,853.111 372.319,855.711 380.519,855.711 380.519,853.111 389.119,853.111 389.119,855.711 397.519,855.711 397.519,863.482 360.519,863.952 360.519,863.484 355.319,863.484 355.319,855.711 363.719,855.711 363.719,853.111 372.319,853.111"
     fill="none"
     stroke="#000000"
     stroke-width="0.1mm"
     id="polyline14"
     transform="rotate(90,635.07561,1096.7595)" />
  <polyline
     z="0"
     points="456.719,853.111 456.719,855.711 464.919,855.711 464.919,853.111 473.519,853.111 473.519,855.711 481.919,855.711 481.919,863.482 444.919,863.952 444.919,863.484 439.719,863.484 439.719,855.711 448.119,855.711 448.119,853.111 456.719,853.111"
     fill="none"
     stroke="#000000"
     stroke-width="0.1mm"
     id="polyline23"
     transform="rotate(90,719.5776,1054.6615)" />
  <polyline
     z="0"
     points="439.719,855.711 439.719,863.482 402.719,863.952 402.719,863.484 397.519,863.484 397.519,855.711 405.919,855.711 405.919,853.111 414.519,853.111 414.519,855.711 422.719,855.711 422.719,853.111 431.319,853.111 431.319,855.711 439.719,855.711"
     fill="none"
     stroke="#000000"
     stroke-width="0.1mm"
     id="polyline24"
     transform="rotate(90,719.5776,1054.6615)" />
  <polyline
     z="0"
     points="481.919,855.711 490.319,855.711 490.319,853.111 498.919,853.111 498.919,855.711 507.119,855.711 507.119,853.111 515.719,853.111 515.719,855.711 524.119,855.711 524.119,863.482 487.119,863.952 487.119,863.484 481.919,863.484 481.919,855.711"
     fill="none"
     stroke="#000000"
     stroke-width="0.1mm"
     id="polyline25"
     transform="rotate(90,719.5776,1054.6615)" />
  <polyline
     z="0"
     points="583.319,853.111 583.319,855.711 591.519,855.711 591.519,853.111 600.119,853.111 600.119,855.711 608.519,855.711 608.519,863.482 571.519,863.952 571.519,863.484 566.319,863.484 566.319,855.711 574.719,855.711 574.719,853.111 583.319,853.111"
     fill="none"
     stroke="#000000"
     stroke-width="0.1mm"
     id="polyline34"
     transform="matrix(0,-1,-1,0,1753.0351,1393.7219)" />
  <polyline
     z="0"
     points="566.319,855.711 566.319,863.482 529.319,863.952 529.319,863.484 524.119,863.484 524.119,855.711 532.519,855.711 532.519,853.111 541.119,853.111 541.119,855.711 549.319,855.711 549.319,853.111 557.919,853.111 557.919,855.711 566.319,855.711"
     fill="none"
     stroke="#000000"
     stroke-width="0.1mm"
     id="polyline35"
     transform="matrix(0,-1,-1,0,1753.0351,1393.7219)" />
  <polyline
     z="0"
     points="608.519,855.711 616.919,855.711 616.919,853.111 625.519,853.111 625.519,855.711 633.719,855.711 633.719,853.111 642.319,853.111 642.319,855.711 650.719,855.711 650.719,863.482 613.719,863.952 613.719,863.484 608.519,863.484 608.519,855.711"
     fill="none"
     stroke="#000000"
     stroke-width="0.1mm"
     id="polyline36"
     transform="matrix(0,-1,-1,0,1753.0351,1393.7219)" />
  <polyline
     z="0"
     points="650.719,855.711 659.119,855.711 659.119,853.111 667.719,853.111 667.719,855.711 675.919,855.711 675.919,853.111 684.519,853.111 684.519,855.711 692.919,855.711 692.919,863.482 655.919,863.952 655.919,863.484 650.719,863.484 650.719,855.711"
     fill="none"
     stroke="#000000"
     stroke-width="0.1mm"
     id="polyline37"
     transform="matrix(0,-1,-1,0,1710.6311,1520.3219)" />
  <polyline
     z="0"
     points="692.919,855.711 701.319,855.711 701.319,853.111 709.919,853.111 709.919,855.711 718.119,855.711 718.119,853.111 726.719,853.111 726.719,855.711 735.119,855.711 735.119,863.482 698.119,863.952 698.119,863.484 692.919,863.484 692.919,855.711"
     fill="none"
     stroke="#000000"
     stroke-width="0.1mm"
     id="polyline39"
     transform="matrix(0,-1,-1,0,1710.6311,1520.3219)" />
  <polyline
     z="0"
     points="735.119,855.711 743.519,855.711 743.519,853.111 752.119,853.111 752.119,855.711 760.319,855.711 760.319,853.111 768.919,853.111 768.919,855.711 777.319,855.711 777.319,863.482 740.319,863.952 740.319,863.484 735.119,863.484 735.119,855.711"
     fill="none"
     stroke="#000000"
     stroke-width="0.1mm"
     id="polyline40"
     transform="matrix(0,-1,-1,0,1710.6311,1520.3219)" />
  <polyline
     z="0"
     points="270.919,863.484 270.919,855.711 279.319,855.711 279.319,853.111 287.919,853.111 287.919,855.711 296.119,855.711 296.119,853.111 304.719,853.111 304.719,855.711 313.119,855.711 313.119,863.482 276.119,863.952 276.119,863.484 270.919,863.484"
     fill="none"
     stroke="#000000"
     stroke-width="0.1mm"
     id="polyline1-3"
     transform="matrix(0,1,1,0,-16.78287,461.68389)" />
  <polyline
     z="0"
     points="330.119,853.111 330.119,855.711 338.319,855.711 338.319,853.111 346.919,853.111 346.919,855.711 355.319,855.711 355.319,863.482 318.319,863.952 318.319,863.484 313.119,863.484 313.119,855.711 321.519,855.711 321.519,853.111 330.119,853.111"
     fill="none"
     stroke="#000000"
     stroke-width="0.1mm"
     id="polyline10-9"
     transform="matrix(0,1,1,0,-16.78487,461.68389)" />
  <polyline
     z="0"
     points="372.319,853.111 372.319,855.711 380.519,855.711 380.519,853.111 389.119,853.111 389.119,855.711 397.519,855.711 397.519,863.482 360.519,863.952 360.519,863.484 355.319,863.484 355.319,855.711 363.719,855.711 363.719,853.111 372.319,853.111"
     fill="none"
     stroke="#000000"
     stroke-width="0.1mm"
     id="polyline14-1"
     transform="matrix(0,1,1,0,-16.78687,461.68389)" />
  <polyline
     z="0"
     points="456.719,853.111 456.719,855.711 464.919,855.711 464.919,853.111 473.519,853.111 473.519,855.711 481.919,855.711 481.919,863.482 444.919,863.952 444.919,863.484 439.719,863.484 439.719,855.711 448.119,855.711 448.119,853.111 456.719,853.111"
     fill="none"
     stroke="#000000"
     stroke-width="0.1mm"
     id="polyline23-4"
     transform="matrix(0,1,1,0,25.61313,335.08391)" />
  <polyline
     z="0"
     points="439.719,855.711 439.719,863.482 402.719,863.952 402.719,863.484 397.519,863.484 397.519,855.711 405.919,855.711 405.919,853.111 414.519,853.111 414.519,855.711 422.719,855.711 422.719,853.111 431.319,853.111 431.319,855.711 439.719,855.711"
     fill="none"
     stroke="#000000"
     stroke-width="0.1mm"
     id="polyline24-5"
     transform="matrix(0,1,1,0,25.61513,335.08391)" />
  <polyline
     z="0"
     points="481.919,855.711 490.319,855.711 490.319,853.111 498.919,853.111 498.919,855.711 507.119,855.711 507.119,853.111 515.719,853.111 515.719,855.711 524.119,855.711 524.119,863.482 487.119,863.952 487.119,863.484 481.919,863.484 481.919,855.711"
     fill="none"
     stroke="#000000"
     stroke-width="0.1mm"
     id="polyline25-0"
     transform="matrix(0,1,1,0,25.61113,335.08391)" />
  <polyline
     z="0"
     points="583.319,853.111 583.319,855.711 591.519,855.711 591.519,853.111 600.119,853.111 600.119,855.711 608.519,855.711 608.519,863.482 571.519,863.952 571.519,863.484 566.319,863.484 566.319,855.711 574.719,855.711 574.719,853.111 583.319,853.111"
     fill="none"
     stroke="#000000"
     stroke-width="0.1mm"
     id="polyline34-6"
     transform="rotate(-90,720.26653,673.4554)" />
  <polyline
     z="0"
     points="566.319,855.711 566.319,863.482 529.319,863.952 529.319,863.484 524.119,863.484 524.119,855.711 532.519,855.711 532.519,853.111 541.119,853.111 541.119,855.711 549.319,855.711 549.319,853.111 557.919,853.111 557.919,855.711 566.319,855.711"
     fill="none"
     stroke="#000000"
     stroke-width="0.1mm"
     id="polyline35-3"
     transform="rotate(-90,720.26753,673.4544)" />
  <polyline
     z="0"
     points="608.519,855.711 616.919,855.711 616.919,853.111 625.519,853.111 625.519,855.711 633.719,855.711 633.719,853.111 642.319,853.111 642.319,855.711 650.719,855.711 650.719,863.482 613.719,863.952 613.719,863.484 608.519,863.484 608.519,855.711"
     fill="none"
     stroke="#000000"
     stroke-width="0.1mm"
     id="polyline36-2"
     transform="rotate(-90,720.26553,673.4564)" />
  <polyline
     z="0"
     points="650.719,855.711 659.119,855.711 659.119,853.111 667.719,853.111 667.719,855.711 675.919,855.711 675.919,853.111 684.519,853.111 684.519,855.711 692.919,855.711 692.919,863.482 655.919,863.952 655.919,863.484 650.719,863.484 650.719,855.711"
     fill="none"
     stroke="#000000"
     stroke-width="0.1mm"
     id="polyline37-0"
     transform="rotate(-90,762.36252,757.95939)" />
  <polyline
     z="0"
     points="692.919,855.711 701.319,855.711 701.319,853.111 709.919,853.111 709.919,855.711 718.119,855.711 718.119,853.111 726.719,853.111 726.719,855.711 735.119,855.711 735.119,863.482 698.119,863.952 698.119,863.484 692.919,863.484 692.919,855.711"
     fill="none"
     stroke="#000000"
     stroke-width="0.1mm"
     id="polyline39-1"
     transform="rotate(-90,762.36152,757.96039)" />
  <polyline
     z="0"
     points="735.119,855.711 743.519,855.711 743.519,853.111 752.119,853.111 752.119,855.711 760.319,855.711 760.319,853.111 768.919,853.111 768.919,855.711 777.319,855.711 777.319,863.482 740.319,863.952 740.319,863.484 735.119,863.484 735.119,855.711"
     fill="none"
     stroke="#000000"
     stroke-width="0.1mm"
     id="polyline40-5"
     transform="rotate(-90,762.36052,757.96139)" />
  <path
     id="polyline6"
     style="fill:none;stroke:#000000;stroke-width:0.1mm"
     d="m 758.77846,400.67801 h -7.573 v 7.573 h -5 v -7.573 h -7.573 v -5 h 7.573 v -7.573 h 5 v 7.573 h 7.573 v 5 m 20.346,6.058 -1.003,2.986 -1.296,2.872 -1.575,2.728 -1.839,2.558 -2.084,2.362 -2.31,2.142 -2.511,1.903 -2.688,1.643 -2.838,1.367 -2.96,1.077 -3.053,0.777 -3.116,0.469 -3.146,0.158 -3.146,-0.158 -3.116,-0.469 -3.052,-0.777 -2.961,-1.077 -2.838,-1.367 -2.688,-1.643 -2.511,-1.903 -2.31,-2.142 -2.084,-2.362 -1.839,-2.558 -1.575,-2.728 -1.296,-2.872 -1.003,-2.986 -0.701,-3.071 -0.392,-3.126 -0.078,-3.149 0.235,-3.142 0.547,-3.102 0.853,-3.032 1.152,-2.933 1.436,-2.803 1.71,-2.647 1.964,-2.463 2.2,-2.255 2.413,-2.025 2.603,-1.775 2.767,-1.507 2.902,-1.222 3.01,-0.929 3.088,-0.624 3.134,-0.314 1.576,-0.039 1.576,0.039 3.134,0.314 3.088,0.624 3.01,0.929 2.903,1.222 2.766,1.507 2.604,1.775 2.412,2.025 2.2,2.255 1.964,2.463 1.71,2.647 1.436,2.803 1.152,2.933 0.853,3.032 0.547,3.102 0.235,3.142 -0.078,3.149 -0.392,3.126 -0.701,3.071" />
  <path
     id="polyline6-1"
     style="fill:none;stroke:#000000;stroke-width:0.1mm"
     d="m 632.41846,400.67801 h -7.573 v 7.573 h -5 v -7.573 h -7.573 v -5 h 7.573 v -7.573 h 5 v 7.573 h 7.573 v 5 m 20.346,6.058 -1.003,2.986 -1.296,2.872 -1.575,2.728 -1.839,2.558 -2.084,2.362 -2.31,2.142 -2.511,1.903 -2.688,1.643 -2.838,1.367 -2.96,1.077 -3.053,0.777 -3.116,0.469 -3.146,0.158 -3.146,-0.158 -3.116,-0.469 -3.052,-0.777 -2.961,-1.077 -2.838,-1.367 -2.688,-1.643 -2.511,-1.903 -2.31,-2.142 -2.084,-2.362 -1.839,-2.558 -1.575,-2.728 -1.296,-2.872 -1.003,-2.986 -0.701,-3.071 -0.392,-3.126 -0.078,-3.149 0.235,-3.142 0.547,-3.102 0.853,-3.032 1.152,-2.933 1.436,-2.803 1.71,-2.647 1.964,-2.463 2.2,-2.255 2.413,-2.025 2.603,-1.775 2.767,-1.507 2.902,-1.222 3.01,-0.929 3.088,-0.624 3.134,-0.314 1.576,-0.039 1.576,0.039 3.134,0.314 3.088,0.624 3.01,0.929 2.903,1.222 2.766,1.507 2.604,1.775 2.412,2.025 2.2,2.255 1.964,2.463 1.71,2.647 1.436,2.803 1.152,2.933 0.853,3.032 0.547,3.102 0.235,3.142 -0.078,3.149 -0.392,3.126 -0.701,3.071" />
  <path
     id="polyline42-5"
     style="fill:none;stroke:#000000;stroke-width:0.1mm"
     d="m 695.59846,400.67801 h -7.573 v 7.573 h -5 v -7.573 h -7.573 v -5 h 7.573 v -7.573 h 5 v 7.573 h 7.573 v 5 m 21.047,2.987 -0.701,3.071 -1.003,2.986 -1.296,2.872 -1.575,2.728 -1.839,2.558 -2.084,2.362 -2.31,2.142 -2.511,1.903 -2.688,1.643 -2.838,1.367 -2.96,1.077 -3.053,0.777 -3.116,0.469 -3.146,0.158 -3.146,-0.158 -3.116,-0.469 -3.052,-0.777 -2.961,-1.077 -2.838,-1.367 -2.688,-1.643 -2.511,-1.903 -2.31,-2.142 -2.084,-2.362 -1.839,-2.558 -1.575,-2.728 -1.296,-2.872 -1.003,-2.986 -0.701,-3.071 -0.392,-3.126 -0.078,-3.149 0.235,-3.142 0.547,-3.102 0.853,-3.032 1.152,-2.933 1.436,-2.803 1.71,-2.647 1.964,-2.463 2.2,-2.255 2.413,-2.025 2.603,-1.775 2.767,-1.506 2.902,-1.223 3.01,-0.929 3.088,-0.624 3.134,-0.314 1.576,-0.039 1.576,0.039 3.134,0.314 3.088,0.624 3.01,0.929 2.903,1.223 2.766,1.506 2.604,1.775 2.412,2.025 2.2,2.255 1.964,2.463 1.71,2.647 1.436,2.803 1.152,2.933 0.853,3.032 0.547,3.102 0.235,3.142 -0.078,3.149 -0.392,3.126" />
  <path
     id="polyline6-5"
     style="fill:none;stroke:#000000;stroke-width:0.1mm"
     d="m 790.40746,455.51461 h -7.573 v 7.573 h -5 v -7.573 h -7.573 v -5 h 7.573 v -7.573 h 5 v 7.573 h 7.573 v 5 m 20.346,6.058 -1.003,2.986 -1.296,2.872 -1.575,2.728 -1.839,2.558 -2.084,2.362 -2.31,2.142 -2.511,1.903 -2.688,1.643 -2.838,1.367 -2.96,1.077 -3.053,0.777 -3.116,0.469 -3.146,0.158 -3.146,-0.158 -3.116,-0.469 -3.052,-0.777 -2.961,-1.077 -2.838,-1.367 -2.688,-1.643 -2.511,-1.903 -2.31,-2.142 -2.084,-2.362 -1.839,-2.558 -1.575,-2.728 -1.296,-2.872 -1.003,-2.986 -0.701,-3.071 -0.392,-3.126 -0.078,-3.149 0.235,-3.142 0.547,-3.102 0.853,-3.032 1.152,-2.933 1.436,-2.803 1.71,-2.647 1.964,-2.463 2.2,-2.255 2.413,-2.025 2.603,-1.775 2.767,-1.507 2.902,-1.222 3.01,-0.929 3.088,-0.624 3.134,-0.314 1.576,-0.039 1.576,0.039 3.134,0.314 3.088,0.624 3.01,0.929 2.903,1.222 2.766,1.507 2.604,1.775 2.412,2.025 2.2,2.255 1.964,2.463 1.71,2.647 1.436,2.803 1.152,2.933 0.853,3.032 0.547,3.102 0.235,3.142 -0.078,3.149 -0.392,3.126 -0.701,3.071" />
  <path
     id="polyline6-1-7"
     style="fill:none;stroke:#000000;stroke-width:0.1mm"
     d="m 664.04746,455.51461 h -7.573 v 7.573 h -5 v -7.573 h -7.573 v -5 h 7.573 v -7.573 h 5 v 7.573 h 7.573 v 5 m 20.346,6.058 -1.003,2.986 -1.296,2.872 -1.575,2.728 -1.839,2.558 -2.084,2.362 -2.31,2.142 -2.511,1.903 -2.688,1.643 -2.838,1.367 -2.96,1.077 -3.053,0.777 -3.116,0.469 -3.146,0.158 -3.146,-0.158 -3.116,-0.469 -3.052,-0.777 -2.961,-1.077 -2.838,-1.367 -2.688,-1.643 -2.511,-1.903 -2.31,-2.142 -2.084,-2.362 -1.839,-2.558 -1.575,-2.728 -1.296,-2.872 -1.003,-2.986 -0.701,-3.071 -0.392,-3.126 -0.078,-3.149 0.235,-3.142 0.547,-3.102 0.853,-3.032 1.152,-2.933 1.436,-2.803 1.71,-2.647 1.964,-2.463 2.2,-2.255 2.413,-2.025 2.603,-1.775 2.767,-1.507 2.902,-1.222 3.01,-0.929 3.088,-0.624 3.134,-0.314 1.576,-0.039 1.576,0.039 3.134,0.314 3.088,0.624 3.01,0.929 2.903,1.222 2.766,1.507 2.604,1.775 2.412,2.025 2.2,2.255 1.964,2.463 1.71,2.647 1.436,2.803 1.152,2.933 0.853,3.032 0.547,3.102 0.235,3.142 -0.078,3.149 -0.392,3.126 -0.701,3.071" />
  <path
     id="polyline42-5-4"
     style="fill:none;stroke:#000000;stroke-width:0.1mm"
     d="m 727.22746,455.51461 h -7.573 v 7.573 h -5 v -7.573 h -7.573 v -5 h 7.573 v -7.573 h 5 v 7.573 h 7.573 v 5 m 21.047,2.987 -0.701,3.071 -1.003,2.986 -1.296,2.872 -1.575,2.728 -1.839,2.558 -2.084,2.362 -2.31,2.142 -2.511,1.903 -2.688,1.643 -2.838,1.367 -2.96,1.077 -3.053,0.777 -3.116,0.469 -3.146,0.158 -3.146,-0.158 -3.116,-0.469 -3.052,-0.777 -2.961,-1.077 -2.838,-1.367 -2.688,-1.643 -2.511,-1.903 -2.31,-2.142 -2.084,-2.362 -1.839,-2.558 -1.575,-2.728 -1.296,-2.872 -1.003,-2.986 -0.701,-3.071 -0.392,-3.126 -0.078,-3.149 0.235,-3.142 0.547,-3.102 0.853,-3.032 1.152,-2.933 1.436,-2.803 1.71,-2.647 1.964,-2.463 2.2,-2.255 2.413,-2.025 2.603,-1.775 2.767,-1.506 2.902,-1.223 3.01,-0.929 3.088,-0.624 3.134,-0.314 1.576,-0.039 1.576,0.039 3.134,0.314 3.088,0.624 3.01,0.929 2.903,1.223 2.766,1.506 2.604,1.775 2.412,2.025 2.2,2.255 1.964,2.463 1.71,2.647 1.436,2.803 1.152,2.933 0.853,3.032 0.547,3.102 0.235,3.142 -0.078,3.149 -0.392,3.126" />
  <path
     id="polyline30"
     style="fill:none;stroke:#000000;stroke-width:0.1mm"
     d="m 695.59845,505.22813 v 5 h -7.57299 v 7.573 h -5 v -7.573 h -7.573 v -5 h 7.573 v -7.573 h 5 v 7.573 h 7.57299 m 21.282,-1.429 0.235,3.142 -0.078,3.149 -0.392,3.126 -0.701,3.07 -1.003,2.987 -1.296,2.872 -1.575,2.728 -1.839,2.558 -2.084,2.361 -2.31,2.143 -2.511,1.903 -2.688,1.642 -2.838,1.368 -2.96,1.077 -3.05299,0.776 -3.116,0.47 -3.146,0.157 -3.146,-0.157 -3.116,-0.47 -3.052,-0.776 -2.961,-1.077 -2.838,-1.368 -2.688,-1.642 -2.511,-1.903 -2.31,-2.143 -2.084,-2.361 -1.839,-2.558 -1.575,-2.728 -1.296,-2.872 -1.003,-2.987 -0.701,-3.07 -0.392,-3.126 -0.078,-3.149 0.235,-3.142 0.547,-3.102 0.853,-3.033 1.152,-2.933 1.436,-2.803 1.71,-2.646 1.964,-2.463 2.2,-2.255 2.413,-2.026 2.603,-1.774 2.767,-1.507 2.902,-1.223 3.01,-0.929 3.088,-0.624 3.134,-0.314 1.576,-0.039 1.576,0.039 3.134,0.314 3.08799,0.624 3.01,0.929 2.903,1.223 2.766,1.507 2.604,1.774 2.412,2.026 2.2,2.255 1.964,2.463 1.71,2.646 1.436,2.803 1.152,2.933 0.853,3.033 0.547,3.102" />
  <path
     id="polyline42"
     style="fill:none;stroke:#000000;stroke-width:0.1mm"
     d="m 758.77845,510.22913 h -7.573 v 7.573 h -5 v -7.573 h -7.573 v -5 h 7.573 v -7.573 h 5 v 7.573 h 7.573 v 5 m 21.047,2.987 -0.701,3.071 -1.003,2.986 -1.296,2.872 -1.575,2.728 -1.839,2.558 -2.084,2.362 -2.31,2.142 -2.511,1.903 -2.688,1.643 -2.838,1.367 -2.96,1.077 -3.053,0.777 -3.116,0.469 -3.146,0.158 -3.146,-0.158 -3.116,-0.469 -3.052,-0.777 -2.961,-1.077 -2.838,-1.367 -2.688,-1.643 -2.511,-1.903 -2.31,-2.142 -2.084,-2.362 -1.839,-2.558 -1.575,-2.728 -1.296,-2.872 -1.003,-2.986 -0.701,-3.071 -0.392,-3.126 -0.078,-3.149 0.235,-3.142 0.547,-3.102 0.853,-3.032 1.152,-2.933 1.436,-2.803 1.71,-2.647 1.964,-2.463 2.2,-2.255 2.413,-2.025 2.603,-1.775 2.767,-1.506 2.902,-1.223 3.01,-0.929 3.088,-0.624 3.134,-0.314 1.576,-0.039 1.576,0.039 3.134,0.314 3.088,0.624 3.01,0.929 2.903,1.223 2.766,1.506 2.604,1.775 2.412,2.025 2.2,2.255 1.964,2.463 1.71,2.647 1.436,2.803 1.152,2.933 0.853,3.032 0.547,3.102 0.235,3.142 -0.078,3.149 -0.392,3.126" />
  <path
     id="polyline30-6"
     style="fill:none;stroke:#000000;stroke-width:0.1mm"
     d="m 632.41846,505.22813 v 5 h -7.573 v 7.573 h -5 v -7.573 h -7.573 v -5 h 7.573 v -7.573 h 5 v 7.573 h 7.573 m 21.282,-1.429 0.235,3.142 -0.078,3.149 -0.392,3.126 -0.701,3.07 -1.003,2.987 -1.296,2.872 -1.575,2.728 -1.839,2.558 -2.084,2.361 -2.31,2.143 -2.511,1.903 -2.688,1.642 -2.838,1.368 -2.96,1.077 -3.053,0.776 -3.116,0.47 -3.146,0.157 -3.146,-0.157 -3.116,-0.47 -3.052,-0.776 -2.961,-1.077 -2.838,-1.368 -2.688,-1.642 -2.511,-1.903 -2.31,-2.143 -2.084,-2.361 -1.839,-2.558 -1.575,-2.728 -1.296,-2.872 -1.003,-2.987 -0.701,-3.07 -0.392,-3.126 -0.078,-3.149 0.235,-3.142 0.547,-3.102 0.853,-3.033 1.152,-2.933 1.436,-2.803 1.71,-2.646 1.964,-2.463 2.2,-2.255 2.413,-2.026 2.603,-1.774 2.767,-1.507 2.902,-1.223 3.01,-0.929 3.088,-0.624 3.134,-0.314 1.576,-0.039 1.576,0.039 3.134,0.314 3.088,0.624 3.01,0.929 2.903,1.223 2.766,1.507 2.604,1.774 2.412,2.026 2.2,2.255 1.964,2.463 1.71,2.646 1.436,2.803 1.152,2.933 0.853,3.033 0.547,3.102" />
  <path
     id="polyline30-2"
     style="fill:none;stroke:#000000;stroke-width:0.1mm"
     d="m 727.22745,560.06473 v 5 h -7.57299 v 7.573 h -5 v -7.573 h -7.573 v -5 h 7.573 v -7.573 h 5 v 7.573 h 7.57299 m 21.282,-1.429 0.235,3.142 -0.078,3.149 -0.392,3.126 -0.701,3.07 -1.003,2.987 -1.296,2.872 -1.575,2.728 -1.839,2.558 -2.084,2.361 -2.31,2.143 -2.511,1.903 -2.688,1.642 -2.838,1.368 -2.96,1.077 -3.05299,0.776 -3.116,0.47 -3.146,0.157 -3.146,-0.157 -3.116,-0.47 -3.052,-0.776 -2.961,-1.077 -2.838,-1.368 -2.688,-1.642 -2.511,-1.903 -2.31,-2.143 -2.084,-2.361 -1.839,-2.558 -1.575,-2.728 -1.296,-2.872 -1.003,-2.987 -0.701,-3.07 -0.392,-3.126 -0.078,-3.149 0.235,-3.142 0.547,-3.102 0.853,-3.033 1.152,-2.933 1.436,-2.803 1.71,-2.646 1.964,-2.463 2.2,-2.255 2.413,-2.026 2.603,-1.774 2.767,-1.507 2.902,-1.223 3.01,-0.929 3.088,-0.624 3.134,-0.314 1.576,-0.039 1.576,0.039 3.134,0.314 3.08799,0.624 3.01,0.929 2.903,1.223 2.766,1.507 2.604,1.774 2.412,2.026 2.2,2.255 1.964,2.463 1.71,2.646 1.436,2.803 1.152,2.933 0.853,3.033 0.547,3.102" />
  <path
     id="polyline42-54"
     style="fill:none;stroke:#000000;stroke-width:0.1mm"
     d="m 790.40745,565.06573 h -7.573 v 7.573 h -5 v -7.573 h -7.573 v -5 h 7.573 v -7.573 h 5 v 7.573 h 7.573 v 5 m 21.047,2.987 -0.701,3.071 -1.003,2.986 -1.296,2.872 -1.575,2.728 -1.839,2.558 -2.084,2.362 -2.31,2.142 -2.511,1.903 -2.688,1.643 -2.838,1.367 -2.96,1.077 -3.053,0.777 -3.116,0.469 -3.146,0.158 -3.146,-0.158 -3.116,-0.469 -3.052,-0.777 -2.961,-1.077 -2.838,-1.367 -2.688,-1.643 -2.511,-1.903 -2.31,-2.142 -2.084,-2.362 -1.839,-2.558 -1.575,-2.728 -1.296,-2.872 -1.003,-2.986 -0.701,-3.071 -0.392,-3.126 -0.078,-3.149 0.235,-3.142 0.547,-3.102 0.853,-3.032 1.152,-2.933 1.436,-2.803 1.71,-2.647 1.964,-2.463 2.2,-2.255 2.413,-2.025 2.603,-1.775 2.767,-1.506 2.902,-1.223 3.01,-0.929 3.088,-0.624 3.134,-0.314 1.576,-0.039 1.576,0.039 3.134,0.314 3.088,0.624 3.01,0.929 2.903,1.223 2.766,1.506 2.604,1.775 2.412,2.025 2.2,2.255 1.964,2.463 1.71,2.647 1.436,2.803 1.152,2.933 0.853,3.032 0.547,3.102 0.235,3.142 -0.078,3.149 -0.392,3.126" />
  <path
     id="polyline30-6-4"
     style="fill:none;stroke:#000000;stroke-width:0.1mm"
     d="m 664.04746,560.06473 v 5 h -7.573 v 7.573 h -5 v -7.573 h -7.573 v -5 h 7.573 v -7.573 h 5 v 7.573 h 7.573 m 21.282,-1.429 0.235,3.142 -0.078,3.149 -0.392,3.126 -0.701,3.07 -1.003,2.987 -1.296,2.872 -1.575,2.728 -1.839,2.558 -2.084,2.361 -2.31,2.143 -2.511,1.903 -2.688,1.642 -2.838,1.368 -2.96,1.077 -3.053,0.776 -3.116,0.47 -3.146,0.157 -3.146,-0.157 -3.116,-0.47 -3.052,-0.776 -2.961,-1.077 -2.838,-1.368 -2.688,-1.642 -2.511,-1.903 -2.31,-2.143 -2.084,-2.361 -1.839,-2.558 -1.575,-2.728 -1.296,-2.872 -1.003,-2.987 -0.701,-3.07 -0.392,-3.126 -0.078,-3.149 0.235,-3.142 0.547,-3.102 0.853,-3.033 1.152,-2.933 1.436,-2.803 1.71,-2.646 1.964,-2.463 2.2,-2.255 2.413,-2.026 2.603,-1.774 2.767,-1.507 2.902,-1.223 3.01,-0.929 3.088,-0.624 3.134,-0.314 1.576,-0.039 1.576,0.039 3.134,0.314 3.088,0.624 3.01,0.929 2.903,1.223 2.766,1.507 2.604,1.774 2.412,2.026 2.2,2.255 1.964,2.463 1.71,2.646 1.436,2.803 1.152,2.933 0.853,3.033 0.547,3.102" />
  <path
     style="fill:none;stroke:#000000;stroke-width:0.1mm"
     d="m 779.20246,735.44076 -1.003,2.986 -1.296,2.872 -1.575,2.728 -1.839,2.558 -2.084,2.362 -2.31,2.142 -2.511,1.903 -2.688,1.643 -2.838,1.367 -2.96,1.077 -3.053,0.777 -3.116,0.469 -3.146,0.158 -3.146,-0.158 -3.116,-0.469 -3.052,-0.777 -2.961,-1.077 -2.838,-1.367 -2.688,-1.643 -2.511,-1.903 -2.31,-2.142 -2.084,-2.362 -1.839,-2.558 -1.575,-2.728 -1.296,-2.872 -1.003,-2.986 -0.701,-3.071 -0.392,-3.126 -0.078,-3.149 0.235,-3.142 0.547,-3.102 0.853,-3.032 1.152,-2.933 1.436,-2.803 1.71,-2.647 1.964,-2.463 2.2,-2.255 2.413,-2.025 2.603,-1.775 2.767,-1.507 2.902,-1.222 3.01,-0.929 3.088,-0.624 3.134,-0.314 1.576,-0.039 1.576,0.039 3.134,0.314 3.088,0.624 3.01,0.929 2.903,1.222 2.766,1.507 2.604,1.775 2.412,2.025 2.2,2.255 1.964,2.463 1.71,2.647 1.436,2.803 1.152,2.933 0.853,3.032 0.547,3.102 0.235,3.142 -0.078,3.149 -0.392,3.126 -0.701,3.071"
     id="path104" />
  <path
     style="fill:none;stroke:#000000;stroke-width:0.1mm"
     d="m 716.91946,613.39916 0.235,3.142 -0.078,3.149 -0.392,3.126 -0.701,3.07 -1.003,2.987 -1.296,2.872 -1.575,2.728 -1.839,2.558 -2.084,2.361 -2.31,2.143 -2.511,1.903 -2.688,1.642 -2.838,1.368 -2.96,1.077 -3.05299,0.776 -3.116,0.47 -3.146,0.157 -3.146,-0.157 -3.116,-0.47 -3.052,-0.776 -2.961,-1.077 -2.838,-1.368 -2.688,-1.642 -2.511,-1.903 -2.31,-2.143 -2.084,-2.361 -1.839,-2.558 -1.575,-2.728 -1.296,-2.872 -1.003,-2.987 -0.701,-3.07 -0.392,-3.126 -0.078,-3.149 0.235,-3.142 0.547,-3.102 0.853,-3.033 1.152,-2.933 1.436,-2.803 1.71,-2.646 1.964,-2.463 2.2,-2.255 2.413,-2.026 2.603,-1.774 2.767,-1.507 2.902,-1.223 3.01,-0.929 3.088,-0.624 3.134,-0.314 1.576,-0.039 1.576,0.039 3.134,0.314 3.08799,0.624 3.01,0.929 2.903,1.223 2.766,1.507 2.604,1.774 2.412,2.026 2.2,2.255 1.964,2.463 1.71,2.646 1.436,2.803 1.152,2.933 0.853,3.033 0.547,3.102"
     id="path103" />
  <path
     style="fill:none;stroke:#000000;stroke-width:0.1mm"
     d="m 779.86446,622.81616 -0.701,3.071 -1.003,2.986 -1.296,2.872 -1.575,2.728 -1.839,2.558 -2.084,2.362 -2.31,2.142 -2.511,1.903 -2.688,1.643 -2.838,1.367 -2.96,1.077 -3.053,0.777 -3.116,0.469 -3.146,0.158 -3.146,-0.158 -3.116,-0.469 -3.052,-0.777 -2.961,-1.077 -2.838,-1.367 -2.688,-1.643 -2.511,-1.903 -2.31,-2.142 -2.084,-2.362 -1.839,-2.558 -1.575,-2.728 -1.296,-2.872 -1.003,-2.986 -0.701,-3.071 -0.392,-3.126 -0.078,-3.149 0.235,-3.142 0.547,-3.102 0.853,-3.032 1.152,-2.933 1.436,-2.803 1.71,-2.647 1.964,-2.463 2.2,-2.255 2.413,-2.025 2.603,-1.775 2.767,-1.506 2.902,-1.223 3.01,-0.929 3.088,-0.624 3.134,-0.314 1.576,-0.039 1.576,0.039 3.134,0.314 3.088,0.624 3.01,0.929 2.903,1.223 2.766,1.506 2.604,1.775 2.412,2.025 2.2,2.255 1.964,2.463 1.71,2.647 1.436,2.803 1.152,2.933 0.853,3.032 0.547,3.102 0.235,3.142 -0.078,3.149 -0.392,3.126"
     id="path102" />
  <path
     style="fill:none;stroke:#000000;stroke-width:0.1mm"
     d="m 652.84246,735.44076 -1.003,2.986 -1.296,2.872 -1.575,2.728 -1.839,2.558 -2.084,2.362 -2.31,2.142 -2.511,1.903 -2.688,1.643 -2.838,1.367 -2.96,1.077 -3.053,0.777 -3.116,0.469 -3.146,0.158 -3.146,-0.158 -3.116,-0.469 -3.052,-0.777 -2.961,-1.077 -2.838,-1.367 -2.688,-1.643 -2.511,-1.903 -2.31,-2.142 -2.084,-2.362 -1.839,-2.558 -1.575,-2.728 -1.296,-2.872 -1.003,-2.986 -0.701,-3.071 -0.392,-3.126 -0.078,-3.149 0.235,-3.142 0.547,-3.102 0.853,-3.032 1.152,-2.933 1.436,-2.803 1.71,-2.647 1.964,-2.463 2.2,-2.255 2.413,-2.025 2.603,-1.775 2.767,-1.507 2.902,-1.222 3.01,-0.929 3.088,-0.624 3.134,-0.314 1.576,-0.039 1.576,0.039 3.134,0.314 3.088,0.624 3.01,0.929 2.903,1.222 2.766,1.507 2.604,1.775 2.412,2.025 2.2,2.255 1.964,2.463 1.71,2.647 1.436,2.803 1.152,2.933 0.853,3.032 0.547,3.102 0.235,3.142 -0.078,3.149 -0.392,3.126 -0.701,3.071"
     id="path101" />
  <path
     style="fill:none;stroke:#000000;stroke-width:0.1mm"
     d="m 653.73947,613.39916 0.235,3.142 -0.078,3.149 -0.392,3.126 -0.701,3.07 -1.003,2.987 -1.296,2.872 -1.575,2.728 -1.839,2.558 -2.084,2.361 -2.31,2.143 -2.511,1.903 -2.688,1.642 -2.838,1.368 -2.96,1.077 -3.053,0.776 -3.116,0.47 -3.146,0.157 -3.146,-0.157 -3.116,-0.47 -3.052,-0.776 -2.961,-1.077 -2.838,-1.368 -2.688,-1.642 -2.511,-1.903 -2.31,-2.143 -2.084,-2.361 -1.839,-2.558 -1.575,-2.728 -1.296,-2.872 -1.003,-2.987 -0.701,-3.07 -0.392,-3.126 -0.078,-3.149 0.235,-3.142 0.547,-3.102 0.853,-3.033 1.152,-2.933 1.436,-2.803 1.71,-2.646 1.964,-2.463 2.2,-2.255 2.413,-2.026 2.603,-1.774 2.767,-1.507 2.902,-1.223 3.01,-0.929 3.088,-0.624 3.134,-0.314 1.576,-0.039 1.576,0.039 3.134,0.314 3.088,0.624 3.01,0.929 2.903,1.223 2.766,1.507 2.604,1.774 2.412,2.026 2.2,2.255 1.964,2.463 1.71,2.646 1.436,2.803 1.152,2.933 0.853,3.033 0.547,3.102"
     id="path100" />
  <path
     style="fill:none;stroke:#000000;stroke-width:0.1mm"
     d="m 716.72346,732.36976 -0.701,3.071 -1.003,2.986 -1.296,2.872 -1.575,2.728 -1.839,2.558 -2.084,2.362 -2.31,2.142 -2.511,1.903 -2.688,1.643 -2.838,1.367 -2.96,1.077 -3.053,0.777 -3.116,0.469 -3.146,0.158 -3.146,-0.158 -3.116,-0.469 -3.052,-0.777 -2.961,-1.077 -2.838,-1.367 -2.688,-1.643 -2.511,-1.903 -2.31,-2.142 -2.084,-2.362 -1.839,-2.558 -1.575,-2.728 -1.296,-2.872 -1.003,-2.986 -0.701,-3.071 -0.392,-3.126 -0.078,-3.149 0.235,-3.142 0.547,-3.102 0.853,-3.032 1.152,-2.933 1.436,-2.803 1.71,-2.647 1.964,-2.463 2.2,-2.255 2.413,-2.025 2.603,-1.775 2.767,-1.506 2.902,-1.223 3.01,-0.929 3.088,-0.624 3.134,-0.314 1.576,-0.039 1.576,0.039 3.134,0.314 3.088,0.624 3.01,0.929 2.903,1.223 2.766,1.506 2.604,1.775 2.412,2.025 2.2,2.255 1.964,2.463 1.71,2.647 1.436,2.803 1.152,2.933 0.853,3.032 0.547,3.102 0.235,3.142 -0.078,3.149 -0.392,3.126"
     id="path99" />
  <path
     style="fill:none;stroke:#000000;stroke-width:0.1mm"
     d="m 810.83146,790.27736 -1.003,2.986 -1.296,2.872 -1.575,2.728 -1.839,2.558 -2.084,2.362 -2.31,2.142 -2.511,1.903 -2.688,1.643 -2.838,1.367 -2.96,1.077 -3.053,0.777 -3.116,0.469 -3.146,0.158 -3.146,-0.158 -3.116,-0.469 -3.052,-0.777 -2.961,-1.077 -2.838,-1.367 -2.688,-1.643 -2.511,-1.903 -2.31,-2.142 -2.084,-2.362 -1.839,-2.558 -1.575,-2.728 -1.296,-2.872 -1.003,-2.986 -0.701,-3.071 -0.392,-3.126 -0.078,-3.149 0.235,-3.142 0.547,-3.102 0.853,-3.032 1.152,-2.933 1.436,-2.803 1.71,-2.647 1.964,-2.463 2.2,-2.255 2.413,-2.025 2.603,-1.775 2.767,-1.507 2.902,-1.222 3.01,-0.929 3.088,-0.624 3.134,-0.314 1.576,-0.039 1.576,0.039 3.134,0.314 3.088,0.624 3.01,0.929 2.903,1.222 2.766,1.507 2.604,1.775 2.412,2.025 2.2,2.255 1.964,2.463 1.71,2.647 1.436,2.803 1.152,2.933 0.853,3.032 0.547,3.102 0.235,3.142 -0.078,3.149 -0.392,3.126 -0.701,3.071"
     id="path98" />
  <path
     style="fill:none;stroke:#000000;stroke-width:0.1mm"
     d="m 748.54846,668.23576 0.235,3.142 -0.078,3.149 -0.392,3.126 -0.701,3.07 -1.003,2.987 -1.296,2.872 -1.575,2.728 -1.839,2.558 -2.084,2.361 -2.31,2.143 -2.511,1.903 -2.688,1.642 -2.838,1.368 -2.96,1.077 -3.05299,0.776 -3.116,0.47 -3.146,0.157 -3.146,-0.157 -3.116,-0.47 -3.052,-0.776 -2.961,-1.077 -2.838,-1.368 -2.688,-1.642 -2.511,-1.903 -2.31,-2.143 -2.084,-2.361 -1.839,-2.558 -1.575,-2.728 -1.296,-2.872 -1.003,-2.987 -0.701,-3.07 -0.392,-3.126 -0.078,-3.149 0.235,-3.142 0.547,-3.102 0.853,-3.033 1.152,-2.933 1.436,-2.803 1.71,-2.646 1.964,-2.463 2.2,-2.255 2.413,-2.026 2.603,-1.774 2.767,-1.507 2.902,-1.223 3.01,-0.929 3.088,-0.624 3.134,-0.314 1.576,-0.039 1.576,0.039 3.134,0.314 3.08799,0.624 3.01,0.929 2.903,1.223 2.766,1.507 2.604,1.774 2.412,2.026 2.2,2.255 1.964,2.463 1.71,2.646 1.436,2.803 1.152,2.933 0.853,3.033 0.547,3.102"
     id="path97" />
  <path
     style="fill:none;stroke:#000000;stroke-width:0.1mm"
     d="m 811.49346,677.65276 -0.701,3.071 -1.003,2.986 -1.296,2.872 -1.575,2.728 -1.839,2.558 -2.084,2.362 -2.31,2.142 -2.511,1.903 -2.688,1.643 -2.838,1.367 -2.96,1.077 -3.053,0.777 -3.116,0.469 -3.146,0.158 -3.146,-0.158 -3.116,-0.469 -3.052,-0.777 -2.961,-1.077 -2.838,-1.367 -2.688,-1.643 -2.511,-1.903 -2.31,-2.142 -2.084,-2.362 -1.839,-2.558 -1.575,-2.728 -1.296,-2.872 -1.003,-2.986 -0.701,-3.071 -0.392,-3.126 -0.078,-3.149 0.235,-3.142 0.547,-3.102 0.853,-3.032 1.152,-2.933 1.436,-2.803 1.71,-2.647 1.964,-2.463 2.2,-2.255 2.413,-2.025 2.603,-1.775 2.767,-1.506 2.902,-1.223 3.01,-0.929 3.088,-0.624 3.134,-0.314 1.576,-0.039 1.576,0.039 3.134,0.314 3.088,0.624 3.01,0.929 2.903,1.223 2.766,1.506 2.604,1.775 2.412,2.025 2.2,2.255 1.964,2.463 1.71,2.647 1.436,2.803 1.152,2.933 0.853,3.032 0.547,3.102 0.235,3.142 -0.078,3.149 -0.392,3.126"
     id="path96" />
  <path
     style="fill:none;stroke:#000000;stroke-width:0.1mm"
     d="m 684.47146,790.27736 -1.003,2.986 -1.296,2.872 -1.575,2.728 -1.839,2.558 -2.084,2.362 -2.31,2.142 -2.511,1.903 -2.688,1.643 -2.838,1.367 -2.96,1.077 -3.053,0.777 -3.116,0.469 -3.146,0.158 -3.146,-0.158 -3.116,-0.469 -3.052,-0.777 -2.961,-1.077 -2.838,-1.367 -2.688,-1.643 -2.511,-1.903 -2.31,-2.142 -2.084,-2.362 -1.839,-2.558 -1.575,-2.728 -1.296,-2.872 -1.003,-2.986 -0.701,-3.071 -0.392,-3.126 -0.078,-3.149 0.235,-3.142 0.547,-3.102 0.853,-3.032 1.152,-2.933 1.436,-2.803 1.71,-2.647 1.964,-2.463 2.2,-2.255 2.413,-2.025 2.603,-1.775 2.767,-1.507 2.902,-1.222 3.01,-0.929 3.088,-0.624 3.134,-0.314 1.576,-0.039 1.576,0.039 3.134,0.314 3.088,0.624 3.01,0.929 2.903,1.222 2.766,1.507 2.604,1.775 2.412,2.025 2.2,2.255 1.964,2.463 1.71,2.647 1.436,2.803 1.152,2.933 0.853,3.032 0.547,3.102 0.235,3.142 -0.078,3.149 -0.392,3.126 -0.701,3.071"
     id="path95" />
  <path
     style="fill:none;stroke:#000000;stroke-width:0.1mm"
     d="m 685.36847,668.23576 0.235,3.142 -0.078,3.149 -0.392,3.126 -0.701,3.07 -1.003,2.987 -1.296,2.872 -1.575,2.728 -1.839,2.558 -2.084,2.361 -2.31,2.143 -2.511,1.903 -2.688,1.642 -2.838,1.368 -2.96,1.077 -3.053,0.776 -3.116,0.47 -3.146,0.157 -3.146,-0.157 -3.116,-0.47 -3.052,-0.776 -2.961,-1.077 -2.838,-1.368 -2.688,-1.642 -2.511,-1.903 -2.31,-2.143 -2.084,-2.361 -1.839,-2.558 -1.575,-2.728 -1.296,-2.872 -1.003,-2.987 -0.701,-3.07 -0.392,-3.126 -0.078,-3.149 0.235,-3.142 0.547,-3.102 0.853,-3.033 1.152,-2.933 1.436,-2.803 1.71,-2.646 1.964,-2.463 2.2,-2.255 2.413,-2.026 2.603,-1.774 2.767,-1.507 2.902,-1.223 3.01,-0.929 3.088,-0.624 3.134,-0.314 1.576,-0.039 1.576,0.039 3.134,0.314 3.088,0.624 3.01,0.929 2.903,1.223 2.766,1.507 2.604,1.774 2.412,2.026 2.2,2.255 1.964,2.463 1.71,2.646 1.436,2.803 1.152,2.933 0.853,3.033 0.547,3.102"
     id="path94" />
  <path
     style="fill:none;stroke:#000000;stroke-width:0.1mm"
     d="m 748.35246,787.20636 -0.701,3.071 -1.003,2.986 -1.296,2.872 -1.575,2.728 -1.839,2.558 -2.084,2.362 -2.31,2.142 -2.511,1.903 -2.688,1.643 -2.838,1.367 -2.96,1.077 -3.053,0.777 -3.116,0.469 -3.146,0.158 -3.146,-0.158 -3.116,-0.469 -3.052,-0.777 -2.961,-1.077 -2.838,-1.367 -2.688,-1.643 -2.511,-1.903 -2.31,-2.142 -2.084,-2.362 -1.839,-2.558 -1.575,-2.728 -1.296,-2.872 -1.003,-2.986 -0.701,-3.071 -0.392,-3.126 -0.078,-3.149 0.235,-3.142 0.547,-3.102 0.853,-3.032 1.152,-2.933 1.436,-2.803 1.71,-2.647 1.964,-2.463 2.2,-2.255 2.413,-2.025 2.603,-1.775 2.767,-1.506 2.902,-1.223 3.01,-0.929 3.088,-0.624 3.134,-0.314 1.576,-0.039 1.576,0.039 3.134,0.314 3.088,0.624 3.01,0.929 2.903,1.223 2.766,1.506 2.604,1.775 2.412,2.025 2.2,2.255 1.964,2.463 1.71,2.647 1.436,2.803 1.152,2.933 0.853,3.032 0.547,3.102 0.235,3.142 -0.078,3.149 -0.392,3.126"
     id="path93" />
</svg>
