<?xml version="1.0" encoding="UTF-8" standalone="no"?>
<svg
   width="1300mm"
   height="900mm"
   viewBox="0 0 1300 900"
   version="1.1"
   id="svg8"
   sodipodi:docname="SandpaperDiscs.svg"
   inkscape:version="1.3.2 (091e20ef0f, 2023-11-25)"
   xmlns:inkscape="http://www.inkscape.org/namespaces/inkscape"
   xmlns:sodipodi="http://sodipodi.sourceforge.net/DTD/sodipodi-0.dtd"
   xmlns="http://www.w3.org/2000/svg"
   xmlns:svg="http://www.w3.org/2000/svg">
  <defs
     id="defs8" />
  <sodipodi:namedview
     id="namedview8"
     pagecolor="#505050"
     bordercolor="#eeeeee"
     borderopacity="1"
     inkscape:showpageshadow="0"
     inkscape:pageopacity="0"
     inkscape:pagecheckerboard="0"
     inkscape:deskcolor="#505050"
     inkscape:document-units="mm"
     inkscape:zoom="0.21932549"
     inkscape:cx="2633.0729"
     inkscape:cy="1146.6976"
     inkscape:window-width="1920"
     inkscape:window-height="1011"
     inkscape:window-x="0"
     inkscape:window-y="32"
     inkscape:window-maximized="1"
     inkscape:current-layer="svg8" />
  <polyline
     z="0"
     points="471.76,599.849 471.76,592.298 476.96,592.298 476.96,585.147 471.76,585.147 471.76,577.596 476.96,577.596 476.96,570.445 471.76,570.445 471.76,562.893 476.96,562.893 476.96,555.742 471.76,555.742 471.76,548.191 476.96,548.191 476.96,541.04 471.76,541.04 471.76,533.489 492.4,533.489 492.4,538.689 507.44,538.689 507.44,533.489 522.88,533.489 522.88,538.689 537.92,538.689 537.92,533.489 553.36,533.489 553.36,538.689 568.4,538.689 568.4,533.489 583.84,533.489 583.84,538.689 598.88,538.689 598.88,533.489 614.32,533.489 614.32,538.689 629.36,538.689 629.36,533.489 650,533.489 650,541.04 644.8,541.04 644.8,548.191 650,548.191 650,555.742 644.8,555.742 644.8,562.893 650,562.893 650,570.445 644.8,570.445 644.8,577.596 650,577.596 650,585.147 644.8,585.147 644.8,592.298 650,592.298 650,599.849 634.261,599.849 626.686,592.983 618.51,586.919 609.779,581.686 600.577,577.333 590.992,573.904 581.117,571.431 571.047,569.936 560.88,569.437 550.713,569.936 540.643,571.431 530.768,573.904 521.183,577.333 511.981,581.686 503.25,586.919 495.074,592.983 487.499,599.849 471.76,599.849"
     fill="none"
     stroke="#000000"
     stroke-width="0.1mm"
     id="polyline1"
     style="vector-effect:non-scaling-stroke;stroke-width:0.264583;stroke-dasharray:none;-inkscape-stroke:hairline"
     transform="rotate(-90,712.66908,497.25808)" />
  <path
     id="polyline3"
     style="vector-effect:non-scaling-stroke;fill:none;stroke:#000000;stroke-width:0.264583;-inkscape-stroke:hairline"
     d="m 508.99001,271.23983 v 11.357 h -5 v -11.357 h 5 m 76.56799,-43.247 -76.43099,66.36 h -24.387 v -2.096 h 5.2 v -7.791 h -5.2 v -8.191 h 5.2 v -7.791 h -5.2 v -8.19 h 5.2 v -7.791 h -5.2 v -8.158 l 4.928,-2.041 14.322,14.323 v 2.857 h 5 v -11.356 h -5.2 v -11.757 h 5.2 v -11.356 h -5.2 v -11.757 h 5.2 v -11.356 h -5.2 v -11.756 h 5.2 v -11.357 h -5.2 v -16.956 h 7.6 v 5.2 h 7.2 v -5.2 h 7.6 v 5.2 h 7.2 v -5.2 h 7.6 v 5.2 h 7.2 v -5.2 h 7.6 v 5.2 H 562.99 v -5.2 h 7.6 v 5.2 h 7.2 v -5.2 h 2.4 v 7.351 h 5.2 v 7.551 h -5.2 v 7.151 h 5.2 v 7.551 h -5.2 v 7.152 h 5.2 v 7.551 h -5.2 v 7.151 h 5.2 v 7.551 h -5.2 v 7.151 h 5.368" />
  <polyline
     z="0"
     points="476.96,432.671 476.96,421.115 471.76,421.115 471.76,409.358 476.96,409.358 476.96,398.002 471.76,398.002 471.76,386.246 476.96,386.246 476.96,374.889 471.76,374.889 471.76,363.133 476.96,363.133 476.96,351.776 471.76,351.776 471.76,340.02 476.96,340.02 476.96,328.664 471.76,328.664 471.76,316.907 476.96,316.907 476.96,305.351 487.945,305.351 487.945,300.151 504.331,300.151 504.331,305.351 520.316,305.351 520.316,300.151 536.702,300.151 536.702,305.351 552.687,305.351 552.687,300.151 569.073,300.151 569.073,305.351 585.058,305.351 585.058,300.151 601.444,300.151 601.444,305.351 617.429,305.351 617.429,300.151 633.815,300.151 633.815,305.351 644.8,305.351 644.8,316.907 650,316.907 650,328.664 644.8,328.664 644.8,340.02 650,340.02 650,351.776 644.8,351.776 644.8,363.133 650,363.133 650,374.889 644.8,374.889 644.8,386.246 650,386.246 650,398.002 644.8,398.002 644.8,409.358 650,409.358 650,421.115 644.8,421.115 644.8,432.671 476.96,432.671"
     fill="none"
     stroke="#000000"
     stroke-width="0.1mm"
     id="polyline4"
     style="vector-effect:non-scaling-stroke;stroke-width:0.264583;stroke-dasharray:none;-inkscape-stroke:hairline"
     transform="rotate(90,439.64192,527.80909)" />
  <polyline
     z="0"
     points="604.28,459.289 609.48,459.289 609.48,451.889 620.665,451.889 620.665,457.089 636.651,457.089 636.651,451.889 653.036,451.889 653.036,457.089 669.022,457.089 669.022,451.889 685.407,451.889 685.407,457.089 701.393,457.089 701.393,451.889 717.778,451.889 717.778,457.089 733.764,457.089 733.764,451.889 750.149,451.889 750.149,457.089 766.135,457.089 766.135,451.889 777.32,451.889 777.32,459.289 782.52,459.289 782.52,466.889 777.32,466.889 777.32,474.089 782.52,474.089 782.52,481.689 777.32,481.689 777.32,488.889 782.52,488.889 782.52,496.489 777.32,496.489 777.32,503.689 782.52,503.689 782.52,511.289 777.32,511.289 777.32,518.489 782.52,518.489 782.52,526.089 777.32,526.089 777.32,528.289 762.08,528.289 762.08,533.489 746.64,533.489 746.64,528.289 731.6,528.289 731.6,533.489 716.16,533.489 716.16,528.289 701.12,528.289 701.12,533.489 685.68,533.489 685.68,528.289 670.64,528.289 670.64,533.489 655.2,533.489 655.2,528.289 640.16,528.289 640.16,533.489 624.72,533.489 624.72,528.289 609.48,528.289 609.48,526.089 604.28,526.089 604.28,518.489 609.48,518.489 609.48,511.289 604.28,511.289 604.28,503.689 609.48,503.689 609.48,496.489 604.28,496.489 604.28,488.889 609.48,488.889 609.48,481.689 604.28,481.689 604.28,474.089 609.48,474.089 609.48,466.889 604.28,466.889 604.28,459.289"
     fill="none"
     stroke="#000000"
     stroke-width="0.1mm"
     id="polyline5"
     style="vector-effect:non-scaling-stroke;stroke-width:0.264583;stroke-dasharray:none;-inkscape-stroke:hairline"
     transform="matrix(0,1,1,0,215.411,-44.35283)" />
  <path
     id="polyline7"
     style="vector-effect:non-scaling-stroke;fill:none;stroke:#000000;stroke-width:0.264583;-inkscape-stroke:hairline"
     d="m 609.808,272.28017 h -5 v -11.357 h 5 v 11.357 m 71.2,109.407 h -2.4 v -5.2 h -7.2 v 5.2 h -7.6 v -5.2 h -7.2 v 5.2 h -7.6 v -5.2 h -7.2 v 5.2 h -7.6 v -5.2 h -7.2 v 5.2 h -7.6 v -5.2 h -7.2 v 5.2 h -7.6 v -16.956 h 5.2 v -11.357 h -5.2 v -11.756 h 5.2 v -11.356 h -5.2 v -11.757 h 5.2 v -11.356 h -5.2 v -11.757 h 5.2 v -11.356 h -5 v 2.857 l -14.322,14.323 -4.928,-2.041 v -8.158 h 5.2 v -7.791 h -5.2 v -8.19 h 5.2 v -7.791 h -5.2 v -8.191 h 5.2 v -7.791 h -5.2 v -2.096 h 24.388 l 76.43,66.36 h -5.368 v 7.151 h 5.2 v 7.551 h -5.2 v 7.151 h 5.2 v 7.551 h -5.2 v 7.152 h 5.2 v 7.551 h -5.2 v 7.151 h 5.2 v 7.551 h -5.2 v 7.351" />
  <path
     id="polyline3-4"
     style="vector-effect:non-scaling-stroke;fill:none;stroke:#000000;stroke-width:0.264583;-inkscape-stroke:hairline"
     d="m 662.126,271.23984 v 11.357 h 5 v -11.357 h -5 m -76.568,-43.247 76.431,66.36 h 24.387 v -2.096 h -5.2 v -7.791 h 5.2 v -8.191 h -5.2 v -7.791 h 5.2 v -8.19 h -5.2 v -7.791 h 5.2 v -8.158 l -4.928,-2.041 -14.322,14.323 v 2.857 h -5 v -11.356 h 5.2 v -11.757 h -5.2 v -11.356 h 5.2 v -11.757 h -5.2 v -11.356 h 5.2 v -11.756 h -5.2 v -11.357 h 5.2 v -16.956 h -7.6 v 5.2 h -7.2 v -5.2 h -7.6 v 5.2 h -7.2 v -5.2 h -7.6 v 5.2 h -7.2 v -5.2 h -7.6 v 5.2 h -7.2 v -5.2 h -7.6 v 5.2 h -7.2 v -5.2 h -2.4 v 7.351 h -5.2 v 7.551 h 5.2 v 7.151 h -5.2 v 7.551 h 5.2 v 7.152 h -5.2 v 7.551 h 5.2 v 7.151 h -5.2 v 7.551 h 5.2 v 7.151 h -5.368" />
  <path
     id="polyline7-4"
     style="vector-effect:non-scaling-stroke;fill:none;stroke:#000000;stroke-width:0.264583;-inkscape-stroke:hairline"
     d="m 561.308,272.28017 h 5 v -11.357 h -5 v 11.357 m -71.19999,109.407 h 2.4 v -5.2 h 7.2 v 5.2 h 7.6 v -5.2 h 7.2 v 5.2 h 7.6 v -5.2 h 7.2 v 5.2 h 7.6 v -5.2 h 7.2 v 5.2 h 7.59999 v -5.2 h 7.20001 v 5.2 h 7.59999 v -16.956 h -5.2 v -11.357 h 5.2 v -11.756 h -5.2 v -11.356 h 5.2 v -11.757 h -5.2 v -11.356 h 5.2 v -11.757 h -5.2 v -11.356 h 5 v 2.857 l 14.322,14.323 4.928,-2.041 v -8.158 h -5.2 v -7.791 h 5.2 v -8.19 h -5.2 v -7.791 h 5.2 v -8.191 h -5.2 v -7.791 h 5.2 v -2.096 H 561.17 l -76.43,66.36 h 5.368 v 7.151 h -5.2 v 7.551 h 5.2 v 7.151 h -5.2 v 7.551 h 5.2 v 7.152 h -5.2 v 7.551 h 5.2 v 7.151 h -5.2 v 7.551 h 5.2 v 7.351" />
  <polyline
     z="0"
     points="823.04,549.809 823.04,557.799 828.24,557.799 828.24,565.99 823.04,565.99 823.04,573.781 828.24,573.781 828.24,581.972 823.04,581.972 823.04,589.762 828.24,589.762 828.24,597.953 823.04,597.953 823.04,599.849 655.2,599.849 655.2,597.953 650,597.953 650,589.762 655.2,589.762 655.2,581.972 650,581.972 650,573.781 655.2,573.781 655.2,565.99 650,565.99 650,557.799 655.2,557.799 655.2,549.809 823.04,549.809"
     fill="none"
     stroke="#000000"
     stroke-width="0.1mm"
     id="polyline8"
     style="vector-effect:non-scaling-stroke;stroke-width:0.264583;stroke-dasharray:none;-inkscape-stroke:hairline"
     transform="rotate(90,587.33092,497.25809)" />
  <polyline
     z="0"
     points="471.76,599.849 471.76,592.298 476.96,592.298 476.96,585.147 471.76,585.147 471.76,577.596 476.96,577.596 476.96,570.445 471.76,570.445 471.76,562.893 476.96,562.893 476.96,555.742 471.76,555.742 471.76,548.191 476.96,548.191 476.96,541.04 471.76,541.04 471.76,533.489 492.4,533.489 492.4,538.689 507.44,538.689 507.44,533.489 522.88,533.489 522.88,538.689 537.92,538.689 537.92,533.489 553.36,533.489 553.36,538.689 568.4,538.689 568.4,533.489 583.84,533.489 583.84,538.689 598.88,538.689 598.88,533.489 614.32,533.489 614.32,538.689 629.36,538.689 629.36,533.489 650,533.489 650,541.04 644.8,541.04 644.8,548.191 650,548.191 650,555.742 644.8,555.742 644.8,562.893 650,562.893 650,570.445 644.8,570.445 644.8,577.596 650,577.596 650,585.147 644.8,585.147 644.8,592.298 650,592.298 650,599.849 634.261,599.849 626.686,592.983 618.51,586.919 609.779,581.686 600.577,577.333 590.992,573.904 581.117,571.431 571.047,569.936 560.88,569.437 550.713,569.936 540.643,571.431 530.768,573.904 521.183,577.333 511.981,581.686 503.25,586.919 495.074,592.983 487.499,599.849 471.76,599.849"
     fill="none"
     stroke="#000000"
     stroke-width="0.1mm"
     id="polyline1-4"
     style="vector-effect:non-scaling-stroke;stroke-width:0.264583;stroke-dasharray:none;-inkscape-stroke:hairline"
     transform="rotate(-90,623.54908,408.13808)" />
  <polyline
     z="0"
     points="476.96,432.671 476.96,421.115 471.76,421.115 471.76,409.358 476.96,409.358 476.96,398.002 471.76,398.002 471.76,386.246 476.96,386.246 476.96,374.889 471.76,374.889 471.76,363.133 476.96,363.133 476.96,351.776 471.76,351.776 471.76,340.02 476.96,340.02 476.96,328.664 471.76,328.664 471.76,316.907 476.96,316.907 476.96,305.351 487.945,305.351 487.945,300.151 504.331,300.151 504.331,305.351 520.316,305.351 520.316,300.151 536.702,300.151 536.702,305.351 552.687,305.351 552.687,300.151 569.073,300.151 569.073,305.351 585.058,305.351 585.058,300.151 601.444,300.151 601.444,305.351 617.429,305.351 617.429,300.151 633.815,300.151 633.815,305.351 644.8,305.351 644.8,316.907 650,316.907 650,328.664 644.8,328.664 644.8,340.02 650,340.02 650,351.776 644.8,351.776 644.8,363.133 650,363.133 650,374.889 644.8,374.889 644.8,386.246 650,386.246 650,398.002 644.8,398.002 644.8,409.358 650,409.358 650,421.115 644.8,421.115 644.8,432.671 476.96,432.671"
     fill="none"
     stroke="#000000"
     stroke-width="0.1mm"
     id="polyline4-4"
     style="vector-effect:non-scaling-stroke;stroke-width:0.264583;stroke-dasharray:none;-inkscape-stroke:hairline"
     transform="rotate(90,528.76191,438.68908)" />
  <polyline
     z="0"
     points="604.28,459.289 609.48,459.289 609.48,451.889 620.665,451.889 620.665,457.089 636.651,457.089 636.651,451.889 653.036,451.889 653.036,457.089 669.022,457.089 669.022,451.889 685.407,451.889 685.407,457.089 701.393,457.089 701.393,451.889 717.778,451.889 717.778,457.089 733.764,457.089 733.764,451.889 750.149,451.889 750.149,457.089 766.135,457.089 766.135,451.889 777.32,451.889 777.32,459.289 782.52,459.289 782.52,466.889 777.32,466.889 777.32,474.089 782.52,474.089 782.52,481.689 777.32,481.689 777.32,488.889 782.52,488.889 782.52,496.489 777.32,496.489 777.32,503.689 782.52,503.689 782.52,511.289 777.32,511.289 777.32,518.489 782.52,518.489 782.52,526.089 777.32,526.089 777.32,528.289 762.08,528.289 762.08,533.489 746.64,533.489 746.64,528.289 731.6,528.289 731.6,533.489 716.16,533.489 716.16,528.289 701.12,528.289 701.12,533.489 685.68,533.489 685.68,528.289 670.64,528.289 670.64,533.489 655.2,533.489 655.2,528.289 640.16,528.289 640.16,533.489 624.72,533.489 624.72,528.289 609.48,528.289 609.48,526.089 604.28,526.089 604.28,518.489 609.48,518.489 609.48,511.289 604.28,511.289 604.28,503.689 609.48,503.689 609.48,496.489 604.28,496.489 604.28,488.889 609.48,488.889 609.48,481.689 604.28,481.689 604.28,474.089 609.48,474.089 609.48,466.889 604.28,466.889 604.28,459.289"
     fill="none"
     stroke="#000000"
     stroke-width="0.1mm"
     id="polyline5-7"
     style="vector-effect:non-scaling-stroke;stroke-width:0.264583;stroke-dasharray:none;-inkscape-stroke:hairline"
     transform="matrix(0,1,1,0,215.41099,-222.59283)" />
  <polyline
     z="0"
     points="823.04,549.809 823.04,557.799 828.24,557.799 828.24,565.99 823.04,565.99 823.04,573.781 828.24,573.781 828.24,581.972 823.04,581.972 823.04,589.762 828.24,589.762 828.24,597.953 823.04,597.953 823.04,599.849 655.2,599.849 655.2,597.953 650,597.953 650,589.762 655.2,589.762 655.2,581.972 650,581.972 650,573.781 655.2,573.781 655.2,565.99 650,565.99 650,557.799 655.2,557.799 655.2,549.809 823.04,549.809"
     fill="none"
     stroke="#000000"
     stroke-width="0.1mm"
     id="polyline8-6"
     style="vector-effect:non-scaling-stroke;stroke-width:0.264583;stroke-dasharray:none;-inkscape-stroke:hairline"
     transform="rotate(90,676.45092,408.13809)" />
</svg>
