<!--
Cleat Wall Organization Equipment
Copyright (C) 2025  Corporate Hacks

This program is free software: you can redistribute it and/or modify
it under the terms of the GNU General Public License as published by
the Free Software Foundation, either version 3 of the License, or
(at your option) any later version.

This program is distributed in the hope that it will be useful,
but WITHOUT ANY WARRANTY; without even the implied warranty of
MERCHANTABILITY or FITNESS FOR A PARTICULAR PURPOSE.  See the
GNU General Public License for more details.

You should have received a copy of the GNU General Public License
along with this program.  If not, see <http://www.gnu.org/licenses/>.
-->

<svg xmlns="http://www.w3.org/2000/svg" width="1300mm" height="900mm" viewBox="0 0 1300 900">
    <path fill="none" stroke="#000" stroke-width=".1mm" d="M471.76 599.849v-7.551h5.2v-7.151h-5.2v-7.551h5.2v-7.151h-5.2v-7.552h5.2v-7.151h-5.2v-7.551h5.2v-7.151h-5.2v-7.551h20.64v5.2h15.04v-5.2h15.44v5.2h15.04v-5.2h15.44v5.2h15.04v-5.2h15.44v5.2h15.04v-5.2h15.44v5.2h15.04v-5.2H650v7.551h-5.2v7.151h5.2v7.551h-5.2v7.151h5.2v7.552h-5.2v7.151h5.2v7.551h-5.2v7.151h5.2v7.551h-15.739l-7.575-6.866-8.176-6.064-8.731-5.233-9.202-4.353-9.585-3.429-9.875-2.473-10.07-1.495-10.167-.499-10.167.499-10.07 1.495-9.875 2.473-9.585 3.429-9.202 4.353-8.731 5.233-8.176 6.064-7.575 6.866H471.76" style="vector-effect:non-scaling-stroke;stroke-width:.264583;stroke-dasharray:none;-inkscape-stroke:hairline" transform="rotate(-90 712.67 497.258)"/>
    <path d="M508.99 271.24v11.357h-5V271.24h5m76.568-43.247-76.431 66.36H484.74v-2.096h5.2v-7.791h-5.2v-8.191h5.2v-7.791h-5.2v-8.19h5.2v-7.791h-5.2v-8.158l4.928-2.041 14.322 14.323v2.857h5v-11.356h-5.2V236.37h5.2v-11.356h-5.2v-11.757h5.2v-11.356h-5.2v-11.756h5.2v-11.357h-5.2v-16.956h7.6v5.2h7.2v-5.2h7.6v5.2h7.2v-5.2h7.6v5.2h7.2v-5.2h7.6v5.2h7.2v-5.2h7.6v5.2h7.2v-5.2h2.4v7.35h5.2v7.552h-5.2v7.15h5.2v7.552h-5.2v7.152h5.2v7.55h-5.2v7.152h5.2v7.55h-5.2v7.152h5.368" style="vector-effect:non-scaling-stroke;fill:none;stroke:#000;stroke-width:.264583;-inkscape-stroke:hairline"/>
    <path fill="none" stroke="#000" stroke-width=".1mm" d="M476.96 432.671v-11.556h-5.2v-11.757h5.2v-11.356h-5.2v-11.756h5.2v-11.357h-5.2v-11.756h5.2v-11.357h-5.2V340.02h5.2v-11.356h-5.2v-11.757h5.2v-11.556h10.985v-5.2h16.386v5.2h15.985v-5.2h16.386v5.2h15.985v-5.2h16.386v5.2h15.985v-5.2h16.386v5.2h15.985v-5.2h16.386v5.2H644.8v11.556h5.2v11.757h-5.2v11.356h5.2v11.756h-5.2v11.357h5.2v11.756h-5.2v11.357h5.2v11.756h-5.2v11.356h5.2v11.757h-5.2v11.556H476.96" style="vector-effect:non-scaling-stroke;stroke-width:.264583;stroke-dasharray:none;-inkscape-stroke:hairline" transform="rotate(90 439.642 527.81)"/>
    <path fill="none" stroke="#000" stroke-width=".1mm" d="M604.28 459.289h5.2v-7.4h11.185v5.2h15.986v-5.2h16.385v5.2h15.986v-5.2h16.385v5.2h15.986v-5.2h16.385v5.2h15.986v-5.2h16.385v5.2h15.986v-5.2h11.185v7.4h5.2v7.6h-5.2v7.2h5.2v7.6h-5.2v7.2h5.2v7.6h-5.2v7.2h5.2v7.6h-5.2v7.2h5.2v7.6h-5.2v2.2h-15.24v5.2h-15.44v-5.2H731.6v5.2h-15.44v-5.2h-15.04v5.2h-15.44v-5.2h-15.04v5.2H655.2v-5.2h-15.04v5.2h-15.44v-5.2h-15.24v-2.2h-5.2v-7.6h5.2v-7.2h-5.2v-7.6h5.2v-7.2h-5.2v-7.6h5.2v-7.2h-5.2v-7.6h5.2v-7.2h-5.2v-7.6" style="vector-effect:non-scaling-stroke;stroke-width:.264583;stroke-dasharray:none;-inkscape-stroke:hairline" transform="matrix(0 1 1 0 215.411 -44.353)"/>
    <path d="M609.808 272.28h-5v-11.357h5v11.357m71.2 109.407h-2.4v-5.2h-7.2v5.2h-7.6v-5.2h-7.2v5.2h-7.6v-5.2h-7.2v5.2h-7.6v-5.2h-7.2v5.2h-7.6v-5.2h-7.2v5.2h-7.6v-16.956h5.2v-11.357h-5.2v-11.756h5.2v-11.356h-5.2v-11.757h5.2V307.15h-5.2v-11.757h5.2v-11.356h-5v2.857l-14.322 14.323-4.928-2.04v-8.159h5.2v-7.79h-5.2v-8.19h5.2v-7.792h-5.2v-8.19h5.2v-7.792h-5.2v-2.096h24.388l76.43 66.36h-5.368v7.151h5.2v7.551h-5.2v7.151h5.2v7.551h-5.2v7.152h5.2v7.551h-5.2v7.151h5.2v7.551h-5.2v7.351M662.126 271.24v11.357h5V271.24h-5m-76.568-43.247 76.431 66.36h24.387v-2.096h-5.2v-7.791h5.2v-8.191h-5.2v-7.791h5.2v-8.19h-5.2v-7.791h5.2v-8.158l-4.928-2.041-14.322 14.323v2.857h-5v-11.356h5.2V236.37h-5.2v-11.356h5.2v-11.757h-5.2v-11.356h5.2v-11.756h-5.2v-11.357h5.2v-16.956h-7.6v5.2h-7.2v-5.2h-7.6v5.2h-7.2v-5.2h-7.6v5.2h-7.2v-5.2h-7.6v5.2h-7.2v-5.2h-7.6v5.2h-7.2v-5.2h-2.4v7.35h-5.2v7.552h5.2v7.15h-5.2v7.552h5.2v7.152h-5.2v7.55h5.2v7.152h-5.2v7.55h5.2v7.152h-5.368" style="vector-effect:non-scaling-stroke;fill:none;stroke:#000;stroke-width:.264583;-inkscape-stroke:hairline"/>
    <path d="M561.308 272.28h5v-11.357h-5v11.357m-71.2 109.407h2.4v-5.2h7.2v5.2h7.6v-5.2h7.2v5.2h7.6v-5.2h7.2v5.2h7.6v-5.2h7.2v5.2h7.6v-5.2h7.2v5.2h7.6v-16.956h-5.2v-11.357h5.2v-11.756h-5.2v-11.356h5.2v-11.757h-5.2V307.15h5.2v-11.757h-5.2v-11.356h5v2.857l14.322 14.323 4.928-2.04v-8.159h-5.2v-7.79h5.2v-8.19h-5.2v-7.792h5.2v-8.19h-5.2v-7.792h5.2v-2.096H561.17l-76.43 66.36h5.368v7.151h-5.2v7.551h5.2v7.151h-5.2v7.551h5.2v7.152h-5.2v7.551h5.2v7.151h-5.2v7.551h5.2v7.351" style="vector-effect:non-scaling-stroke;fill:none;stroke:#000;stroke-width:.264583;-inkscape-stroke:hairline"/>
    <path fill="none" stroke="#000" stroke-width=".1mm" d="M823.04 549.809v7.99h5.2v8.191h-5.2v7.791h5.2v8.191h-5.2v7.79h5.2v8.191h-5.2v1.896H655.2v-1.896H650v-8.191h5.2v-7.79H650v-8.191h5.2v-7.791H650v-8.191h5.2v-7.99h167.84" style="vector-effect:non-scaling-stroke;stroke-width:.264583;stroke-dasharray:none;-inkscape-stroke:hairline" transform="rotate(90 587.33 497.258)"/>
    <path fill="none" stroke="#000" stroke-width=".1mm" d="M471.76 599.849v-7.551h5.2v-7.151h-5.2v-7.551h5.2v-7.151h-5.2v-7.552h5.2v-7.151h-5.2v-7.551h5.2v-7.151h-5.2v-7.551h20.64v5.2h15.04v-5.2h15.44v5.2h15.04v-5.2h15.44v5.2h15.04v-5.2h15.44v5.2h15.04v-5.2h15.44v5.2h15.04v-5.2H650v7.551h-5.2v7.151h5.2v7.551h-5.2v7.151h5.2v7.552h-5.2v7.151h5.2v7.551h-5.2v7.151h5.2v7.551h-15.739l-7.575-6.866-8.176-6.064-8.731-5.233-9.202-4.353-9.585-3.429-9.875-2.473-10.07-1.495-10.167-.499-10.167.499-10.07 1.495-9.875 2.473-9.585 3.429-9.202 4.353-8.731 5.233-8.176 6.064-7.575 6.866H471.76" style="vector-effect:non-scaling-stroke;stroke-width:.264583;stroke-dasharray:none;-inkscape-stroke:hairline" transform="rotate(-90 623.55 408.138)"/>
    <path fill="none" stroke="#000" stroke-width=".1mm" d="M476.96 432.671v-11.556h-5.2v-11.757h5.2v-11.356h-5.2v-11.756h5.2v-11.357h-5.2v-11.756h5.2v-11.357h-5.2V340.02h5.2v-11.356h-5.2v-11.757h5.2v-11.556h10.985v-5.2h16.386v5.2h15.985v-5.2h16.386v5.2h15.985v-5.2h16.386v5.2h15.985v-5.2h16.386v5.2h15.985v-5.2h16.386v5.2H644.8v11.556h5.2v11.757h-5.2v11.356h5.2v11.756h-5.2v11.357h5.2v11.756h-5.2v11.357h5.2v11.756h-5.2v11.356h5.2v11.757h-5.2v11.556H476.96" style="vector-effect:non-scaling-stroke;stroke-width:.264583;stroke-dasharray:none;-inkscape-stroke:hairline" transform="rotate(90 528.762 438.69)"/>
    <path fill="none" stroke="#000" stroke-width=".1mm" d="M604.28 459.289h5.2v-7.4h11.185v5.2h15.986v-5.2h16.385v5.2h15.986v-5.2h16.385v5.2h15.986v-5.2h16.385v5.2h15.986v-5.2h16.385v5.2h15.986v-5.2h11.185v7.4h5.2v7.6h-5.2v7.2h5.2v7.6h-5.2v7.2h5.2v7.6h-5.2v7.2h5.2v7.6h-5.2v7.2h5.2v7.6h-5.2v2.2h-15.24v5.2h-15.44v-5.2H731.6v5.2h-15.44v-5.2h-15.04v5.2h-15.44v-5.2h-15.04v5.2H655.2v-5.2h-15.04v5.2h-15.44v-5.2h-15.24v-2.2h-5.2v-7.6h5.2v-7.2h-5.2v-7.6h5.2v-7.2h-5.2v-7.6h5.2v-7.2h-5.2v-7.6h5.2v-7.2h-5.2v-7.6" style="vector-effect:non-scaling-stroke;stroke-width:.264583;stroke-dasharray:none;-inkscape-stroke:hairline" transform="matrix(0 1 1 0 215.411 -222.593)"/>
    <path fill="none" stroke="#000" stroke-width=".1mm" d="M823.04 549.809v7.99h5.2v8.191h-5.2v7.791h5.2v8.191h-5.2v7.79h5.2v8.191h-5.2v1.896H655.2v-1.896H650v-8.191h5.2v-7.79H650v-8.191h5.2v-7.791H650v-8.191h5.2v-7.99h167.84" style="vector-effect:non-scaling-stroke;stroke-width:.264583;stroke-dasharray:none;-inkscape-stroke:hairline" transform="rotate(90 676.45 408.138)"/>
</svg>
