Cleat Wall Organization Equipment
Copyright (C) 2025  Corporate Hacks

This program is free software: you can redistribute it and/or modify
it under the terms of the GNU General Public License as published by
the Free Software Foundation, either version 3 of the License, or
(at your option) any later version.

This program is distributed in the hope that it will be useful,
but WITHOUT ANY WARRANTY; without even the implied warranty of
MERCHANTABILITY or FITNESS FOR A PARTICULAR PURPOSE.  See the
GNU General Public License for more details.

You should have received a copy of the GNU General Public License
along with this program.  If not, see <http://www.gnu.org/licenses/>.


<svg xmlns="http://www.w3.org/2000/svg" width="1300mm" height="900mm" viewBox="0 0 1300 900">
    <path d="M520.049 313.672h5v16.448h-5v-16.448m-.147-16.847h5.346v5.835h5.522l13.67 13.67h-5.342v7.79h5.2v8.192h-5.2v7.79h5.2v8.192h-5.2v7.79h5.2v8.19h-5.2v7.792h5.603l-5.33 2.208-14.323-14.323v-12.984h-5v16.447h5.2v16.847h-5.2v16.448h5.2v16.847h-5.2v16.447h5.2v16.847h-5.2v16.448h5.2v11.647h-6.927v5.2h-7.128v-5.2h-6.727v5.2h-7.127v-5.2h-6.727v5.2h-7.128v-5.2h-6.727v5.2h-7.127v-5.2h-6.727v5.2h-7.128v-5.2h-6.926v-3.124h-5.2v-8.523h5.2v-8.124h-5.2v-8.524h5.2v-8.123h-5.2v-8.524h5.2v-8.123h-5.2v-8.524h5.2v-8.124h-5.2v-8.523h5.2v-8.124h-5.313l76.366-91.76" style="vector-effect:non-scaling-stroke;fill:none;stroke:#000;stroke-width:.264583;stroke-dasharray:none;-inkscape-stroke:hairline"/>
    <path fill="none" stroke="#000" stroke-width=".1mm" d="M512.899 587.54H497.16v-8.524h5.2v-8.123h-5.2v-8.524h5.2v-8.124h-5.2v-8.523h5.2v-8.124h-5.2v-8.523h5.2v-8.124h-5.2v-8.524h5.2v-8.123h-5.2v-3.324h11.105v-5.2h11.306v5.2h10.905v-5.2h11.306v5.2h10.905v-5.2h11.306v5.2h10.905v-5.2h11.306v5.2h10.905v-5.2h11.306v5.2h11.105v3.324h-5.2v8.123h5.2v8.524h-5.2v8.124h5.2v8.523h-5.2v8.124h5.2v8.523h-5.2v8.124h5.2v8.524h-5.2v8.123h5.2v8.524h-15.739l-4.702-4.262-5.062-3.754-5.405-3.24-5.696-2.693-5.934-2.124-6.113-1.532-6.235-.924-6.294-.309-6.294.309-6.235.924-6.113 1.532-5.934 2.124-5.696 2.693-5.405 3.24-5.062 3.754-4.702 4.262" style="vector-effect:non-scaling-stroke;stroke-width:.264583;stroke-dasharray:none;-inkscape-stroke:hairline" transform="matrix(0 1 1 0 268.925 -17.015)"/>
    <path d="M620.989 325.16h5v16.448h-5V325.16m-76.4-133.178v-8.523h5.2v-3.124h6.927v-5.2h7.128v5.2h6.727v-5.2h7.127v5.2h6.727v-5.2h7.128v5.2h6.727v-5.2h7.127v5.2h6.727v-5.2h7.128v5.2h6.927v11.647h-5.2v16.448h5.2v16.847h-5.2v16.447h5.2v16.847h-5.2v16.448h5.2v16.847h-5.2v16.447h5V295.33l14.323-14.323 5.33 2.208h-5.603v7.791h5.2v8.191h-5.2v7.79h5.2v8.191h-5.2v7.791h5.2v8.191h-5.2v7.791h5.342l-13.67 13.67h-5.522v5.835h-5.347l-76.366-91.76h5.313v-8.124h-5.2v-8.523h5.2v-8.124h-5.2V233.4h5.2v-8.123h-5.2v-8.524h5.2v-8.123h-5.2v-8.524h5.2v-8.124h-5.2" style="vector-effect:non-scaling-stroke;fill:none;stroke:#000;stroke-width:.264583;stroke-dasharray:none;-inkscape-stroke:hairline"/>
    <path fill="none" stroke="#000" stroke-width=".1mm" d="M614.32 394.614H502.36v-16.647h-5.2v-16.848h5.2v-16.447h-5.2v-16.847h5.2v-16.447h-5.2V294.53h5.2v-16.447h-5.2v-16.847h5.2v-16.447h-5.2v-16.848h5.2v-11.447h10.16v-5.2h10.36v5.2h9.96v-5.2h10.36v5.2h9.96v-5.2h10.36v5.2h9.96v-5.2h10.36v5.2h9.96v-5.2h10.36v5.2h10.16v11.447h5.2v16.848h-5.2v16.447h5.2v16.847h-5.2v16.447h5.2v16.848h-5.2v16.447h5.2v16.847h-5.2v16.447h5.2v16.848h-5.2v16.647" style="vector-effect:non-scaling-stroke;stroke-width:.264583;stroke-dasharray:none;-inkscape-stroke:hairline" transform="rotate(90 455.707 438.692)"/>
    <path fill="none" stroke="#000" stroke-width=".1mm" d="M619.52 505.94h15.56v5.2h9.96v-5.2h10.36v5.2h9.96v-5.2h10.36v5.2h9.96v-5.2h10.36v5.2H706v-5.2h10.36v5.2h9.96v-5.2h15.56v7.127h-5.2v6.728h5.2v7.127h-5.2v6.727h5.2v7.127h-5.2v6.728h5.2v7.127h-5.2v6.727h5.2v7.127h-5.2v6.728h5.2v12.327h-11.305v-5.2h-10.906v5.2h-11.305v-5.2h-10.906v5.2h-11.305v-5.2h-10.906v5.2h-11.305v-5.2h-10.906v5.2h-11.305v-5.2h-10.906v5.2H619.52v-12.327h5.2v-6.728h-5.2v-7.127h5.2v-6.727h-5.2v-7.127h5.2v-6.728h-5.2v-7.127h5.2v-6.727h-5.2v-7.127h5.2v-6.728h-5.2v-7.127" style="vector-effect:non-scaling-stroke;stroke-width:.264583;stroke-dasharray:none;-inkscape-stroke:hairline" transform="matrix(0 1 1 0 177.165 -139.375)"/>
    <path fill="none" stroke="#000" stroke-width=".1mm" d="M680.48 632.57h122.36v8.191h-5.2v7.791h5.2v8.191h-5.2v7.79h5.2v8.191h-5.2v7.791h5.2v8.191H680.48v-8.191h5.2v-7.791h-5.2v-8.191h5.2v-7.79h-5.2v-8.191h5.2v-7.791h-5.2v-8.191" style="vector-effect:non-scaling-stroke;stroke-width:.264583;stroke-dasharray:none;-inkscape-stroke:hairline" transform="rotate(90 605.165 527.19)"/>
    <path d="M468.189 341.938h-5V325.49h5v16.448m.146 16.847h-5.347v-5.835h-5.522l-13.67-13.67h5.342v-7.79h-5.2v-8.192h5.2v-7.79h-5.2v-8.192h5.2v-7.79h-5.2v-8.19h5.2v-7.792h-5.603l5.33-2.208 14.323 14.323v12.984h5v-16.447h-5.2V275.35h5.2v-16.448h-5.2v-16.847h5.2v-16.447h-5.2V208.76h5.2v-16.448h-5.2v-11.647h6.927v-5.2h7.128v5.2h6.727v-5.2h7.127v5.2h6.727v-5.2h7.128v5.2h6.727v-5.2h7.127v5.2h6.727v-5.2h7.128v5.2h6.927v3.124h5.2v8.523h-5.2v8.124h5.2v8.524h-5.2v8.123h5.2v8.524h-5.2v8.123h5.2v8.524h-5.2v8.124h5.2v8.523h-5.2v8.124h5.313l-76.366 91.76" style="vector-effect:non-scaling-stroke;fill:none;stroke:#000;stroke-width:.264583;stroke-dasharray:none;-inkscape-stroke:hairline"/>
    <path fill="none" stroke="#000" stroke-width=".1mm" d="M512.899 587.54H497.16v-8.524h5.2v-8.123h-5.2v-8.524h5.2v-8.124h-5.2v-8.523h5.2v-8.124h-5.2v-8.523h5.2v-8.124h-5.2v-8.524h5.2v-8.123h-5.2v-3.324h11.105v-5.2h11.306v5.2h10.905v-5.2h11.306v5.2h10.905v-5.2h11.306v5.2h10.905v-5.2h11.306v5.2h10.905v-5.2h11.306v5.2h11.105v3.324h-5.2v8.123h5.2v8.524h-5.2v8.124h5.2v8.523h-5.2v8.124h5.2v8.523h-5.2v8.124h5.2v8.524h-5.2v8.123h5.2v8.524h-15.739l-4.702-4.262-5.062-3.754-5.405-3.24-5.696-2.693-5.934-2.124-6.113-1.532-6.235-.924-6.294-.309-6.294.309-6.235.924-6.113 1.532-5.934 2.124-5.696 2.693-5.405 3.24-5.062 3.754-4.702 4.262" style="vector-effect:non-scaling-stroke;stroke-width:.264583;stroke-dasharray:none;-inkscape-stroke:hairline" transform="rotate(-90 745.475 476.55)"/>
    <path d="M569.129 329.79h-5v-16.448h5v16.448m76.4 133.178v8.523h-5.2v3.124h-6.927v5.2h-7.129v-5.2h-6.727v5.2h-7.127v-5.2h-6.727v5.2h-7.128v-5.2h-6.727v5.2h-7.127v-5.2h-6.727v5.2h-7.127v-5.2h-6.927v-11.647h5.2V446.52h-5.2v-16.847h5.2v-16.447h-5.2v-16.847h5.2V379.93h-5.2v-16.847h5.2v-16.447h-5v12.984l-14.323 14.323-5.33-2.208h5.603v-7.791h-5.2v-8.191h5.2v-7.79h-5.2v-8.191h5.2v-7.791h-5.2v-8.191h5.2V316h-5.342l13.67-13.67h5.521v-5.835h5.347l76.366 91.76h-5.313v8.124h5.2v8.523h-5.2v8.124h5.2v8.524h-5.2v8.123h5.2v8.524h-5.2v8.123h5.2v8.524h-5.2v8.124h5.2" style="vector-effect:non-scaling-stroke;fill:none;stroke:#000;stroke-width:.264583;stroke-dasharray:none;-inkscape-stroke:hairline"/>
    <path fill="none" stroke="#000" stroke-width=".1mm" d="M614.32 394.614H502.36v-16.647h-5.2v-16.848h5.2v-16.447h-5.2v-16.847h5.2v-16.447h-5.2V294.53h5.2v-16.447h-5.2v-16.847h5.2v-16.447h-5.2v-16.848h5.2v-11.447h10.16v-5.2h10.36v5.2h9.96v-5.2h10.36v5.2h9.96v-5.2h10.36v5.2h9.96v-5.2h10.36v5.2h9.96v-5.2h10.36v5.2h10.16v11.447h5.2v16.848h-5.2v16.447h5.2v16.847h-5.2v16.447h5.2v16.848h-5.2v16.447h5.2v16.847h-5.2v16.447h5.2v16.848h-5.2v16.647" style="vector-effect:non-scaling-stroke;stroke-width:.264583;stroke-dasharray:none;-inkscape-stroke:hairline" transform="matrix(0 -1 -1 0 894.399 1222.025)"/>
    <path fill="none" stroke="#000" stroke-width=".1mm" d="M619.52 505.94h15.56v5.2h9.96v-5.2h10.36v5.2h9.96v-5.2h10.36v5.2h9.96v-5.2h10.36v5.2H706v-5.2h10.36v5.2h9.96v-5.2h15.56v7.127h-5.2v6.728h5.2v7.127h-5.2v6.727h5.2v7.127h-5.2v6.728h5.2v7.127h-5.2v6.727h5.2v7.127h-5.2v6.728h5.2v12.327h-11.305v-5.2h-10.906v5.2h-11.305v-5.2h-10.906v5.2h-11.305v-5.2h-10.906v5.2h-11.305v-5.2h-10.906v5.2h-11.305v-5.2h-10.906v5.2H619.52v-12.327h5.2v-6.728h-5.2v-7.127h5.2v-6.727h-5.2v-7.127h5.2v-6.728h-5.2v-7.127h5.2v-6.727h-5.2v-7.127h5.2v-6.728h-5.2v-7.127" style="vector-effect:non-scaling-stroke;stroke-width:.264583;stroke-dasharray:none;-inkscape-stroke:hairline" transform="matrix(0 -1 -1 0 1270.645 1344.385)"/>
    <path fill="none" stroke="#000" stroke-width=".1mm" d="M680.48 632.57h122.36v8.191h-5.2v7.791h5.2v8.191h-5.2v7.79h5.2v8.191h-5.2v7.791h5.2v8.191H680.48v-8.191h5.2v-7.791h-5.2v-8.191h5.2v-7.79h-5.2v-8.191h5.2v-7.791h-5.2v-8.191" style="vector-effect:non-scaling-stroke;stroke-width:.264583;stroke-dasharray:none;-inkscape-stroke:hairline" transform="rotate(-90 547.032 735.953)"/>
</svg>
