<!--
Cleat Wall Organization Equipment
Copyright (C) 2025  Corporate Hacks

This program is free software: you can redistribute it and/or modify
it under the terms of the GNU General Public License as published by
the Free Software Foundation, either version 3 of the License, or
(at your option) any later version.

This program is distributed in the hope that it will be useful,
but WITHOUT ANY WARRANTY; without even the implied warranty of
MERCHANTABILITY or FITNESS FOR A PARTICULAR PURPOSE.  See the
GNU General Public License for more details.

You should have received a copy of the GNU General Public License
along with this program.  If not, see <http://www.gnu.org/licenses/>.
-->

<svg xmlns="http://www.w3.org/2000/svg" width="1300mm" height="900mm" viewBox="0 0 1300 900">
    <path fill="none" stroke="#000" stroke-width=".1mm" d="M290.05 676.166v-10.16h-5.2v-10.36h5.2v-9.96h-5.2v-10.36h5.2v-9.96h-5.2v-10.36h5.2v-9.96h-5.2v-10.36h5.2v-9.96h-5.2v-10.36h5.2v-10.16h17.335v-5.2h22.736v5.2h22.335v-5.2h22.736v5.2h22.335v-5.2h22.736v5.2h22.335v-5.2h22.736v5.2h22.335v-5.2h22.736v5.2h17.335v10.16h5.2v10.36h-5.2v9.96h5.2v10.36h-5.2v9.96h5.2v10.36h-5.2v9.96h5.2v10.36h-5.2v9.96h5.2v10.36h-5.2v10.16h-10.539l-11.166-10.12-12.07-8.951-12.888-7.726-13.584-6.425-14.149-5.062-14.576-3.651-14.865-2.205-15.008-.738-15.008.738-14.865 2.205-14.576 3.651-14.149 5.062-13.584 6.425-12.888 7.726-12.07 8.951-11.166 10.12H290.05" style="vector-effect:non-scaling-stroke;stroke-width:.264583;stroke-dasharray:none;-inkscape-stroke:hairline" transform="rotate(-90 430.521 304.329)"/>
    <path d="M910.257 461.03v-20.593h-5v20.593h5m76.4 33.859-76.245-117.03h-5.355v20.993h5.2v20.592h-5v-10.35h-5.72l-13.67 13.67h5.34v7.79h-5.2v8.192h5.2v7.79h-5.2v8.192h5.2v7.79h-5.2v8.19h5.2v7.792h-5.602l5.33 2.208 14.122-14.123v15.438h5.2v20.592h-5.2v20.993h5.2V544.2h-5.2v20.993h5.2v20.592h-5.2v26.193h7.6v-5.2h7.2v5.2h7.6v-5.2h7.2v5.2h7.6v-5.2h7.2v5.2h7.6v-5.2h7.2v5.2h7.6v-5.2h7.2v5.2h7.6v-15.56h-5.2v-9.96h5.2v-10.36h-5.2v-9.96h5.2v-10.36h-5.2v-9.96h5.2v-10.36h-5.2v-9.96h5.2v-10.36h-5.2v-9.96h5.2v-10.29" style="vector-effect:non-scaling-stroke;fill:none;stroke:#000;stroke-width:.264583;-inkscape-stroke:hairline"/>
    <path fill="none" stroke="#000" stroke-width=".1mm" d="M290.05 457.954v-20.793h-5.2v-20.992h5.2v-20.593h-5.2v-20.993h5.2V353.99h-5.2v-20.992h5.2v-20.593h-5.2v-20.993h5.2v-20.593h-5.2v-20.992h5.2v-20.793h17.335v-5.2h22.736v5.2h22.335v-5.2h22.736v5.2h22.335v-5.2h22.736v5.2h22.335v-5.2h22.736v5.2h22.335v-5.2h22.736v5.2h17.335v20.793h5.2v20.992h-5.2v20.593h5.2v20.993h-5.2v20.593h5.2v20.992h-5.2v20.593h5.2v20.993h-5.2v20.593h5.2v20.992h-5.2v20.793H290.05" style="vector-effect:non-scaling-stroke;stroke-width:.264583;stroke-dasharray:none;-inkscape-stroke:hairline" transform="matrix(0 -1 -1 0 909.033 734.85)"/>
    <path fill="none" stroke="#000" stroke-width=".1mm" d="M518.97 484.806h5.2v-7.4h17.535v5.2h22.336v-5.2h22.735v5.2h22.336v-5.2h22.735v5.2h22.336v-5.2h22.735v5.2h22.336v-5.2h22.735v5.2h22.336v-5.2h17.535v7.4h5.2v7.6h-5.2v7.2h5.2v7.6h-5.2v7.2h5.2v7.6h-5.2v7.2h5.2v7.6h-5.2v7.2h5.2v7.6h-5.2v7.4h-17.535v-5.2h-22.336v5.2h-22.735v-5.2h-22.336v5.2h-22.735v-5.2h-22.336v5.2h-22.735v-5.2h-22.336v5.2h-22.735v-5.2h-22.336v5.2H524.17v-7.4h-5.2v-7.6h5.2v-7.2h-5.2v-7.6h5.2v-7.2h-5.2v-7.6h5.2v-7.2h-5.2v-7.6h5.2v-7.2h-5.2v-7.6" style="vector-effect:non-scaling-stroke;stroke-width:.264583;stroke-dasharray:none;-inkscape-stroke:hairline" transform="matrix(0 -1 -1 0 872.349 968.97)"/>
    <path d="M804.205 373.641v20.593h5v-20.593h-5m-.2-150.949v26.193h5.2v20.592h-5.2v20.993h5.2v20.593h-5.2v20.993h5.2v20.592h-5.2v15.438l-14.122-14.123-5.33 2.208h5.602v7.791h-5.2v8.191h5.2v7.79h-5.2v8.191h5.2v7.791h-5.2v8.191h5.2v7.791h-5.34l13.67 13.67h5.72v-10.35h5v20.592h-5.2v20.993h5.355l76.245-117.03v-10.29h-5.2v-9.96h5.2v-10.36h-5.2v-9.96h5.2v-10.36h-5.2v-9.96h5.2v-10.36h-5.2v-9.96h5.2v-10.36h-5.2v-9.96h5.2v-15.56h-7.6v5.2h-7.2v-5.2h-7.6v5.2h-7.2v-5.2h-7.6v5.2h-7.2v-5.2h-7.6v5.2h-7.2v-5.2h-7.6v5.2h-7.2v-5.2h-7.6" style="vector-effect:non-scaling-stroke;fill:none;stroke:#000;stroke-width:.264583;-inkscape-stroke:hairline"/>
    <path d="M962.005 373.641v20.593h5v-20.593h-5m-76.4-33.859 76.245 117.03h5.355V435.82h-5.2v-20.592h5v10.35h5.721l13.67-13.67h-5.34v-7.79h5.2v-8.192h-5.2v-7.79h5.2v-8.192h-5.2v-7.79h5.2v-8.19h-5.2v-7.792h5.601l-5.33-2.208-14.122 14.123v-15.438h-5.2v-20.592h5.2v-20.993h-5.2V290.47h5.2v-20.993h-5.2v-20.592h5.2v-26.193h-7.6v5.2h-7.2v-5.2h-7.6v5.2h-7.2v-5.2h-7.6v5.2h-7.2v-5.2h-7.6v5.2h-7.2v-5.2h-7.6v5.2h-7.2v-5.2h-7.6v15.56h5.2v9.96h-5.2v10.36h5.2v9.96h-5.2v10.36h5.2v9.96h-5.2v10.36h5.2v9.96h-5.2v10.36h5.2v9.96h-5.2v10.29M865.953 461.03v-20.593h-5v20.593h5m.2 150.949v-26.193h-5.2v-20.592h5.2V544.2h-5.2v-20.593h5.2v-20.993h-5.2v-20.592h5.2v-15.438l14.122 14.123 5.33-2.208h-5.602v-7.791h5.2v-8.191h-5.2v-7.79h5.2v-8.191h-5.2v-7.791h5.2v-8.191h-5.2v-7.791h5.341l-13.67-13.67h-5.72v10.35h-5v-20.592h5.2v-20.993h-5.356l-76.245 117.03v10.29h5.2v9.96h-5.2v10.36h5.2v9.96h-5.2v10.36h5.2v9.96h-5.2v10.36h5.2v9.96h-5.2v10.36h5.2v9.96h-5.2v15.56h7.6v-5.2h7.2v5.2h7.6v-5.2h7.2v5.2h7.6v-5.2h7.2v5.2h7.6v-5.2h7.2v5.2h7.6v-5.2h7.2v5.2h7.6" style="vector-effect:non-scaling-stroke;fill:none;stroke:#000;stroke-width:.264583;-inkscape-stroke:hairline"/>
    <path fill="none" stroke="#000" stroke-width=".1mm" d="M767.06 620.03h248.09v8.191h-5.2v7.791h5.2v8.191h-5.2v7.79h5.2v8.191h-5.2v7.791h5.2v8.191H767.06v-8.191h5.2v-7.791h-5.2v-8.191h5.2v-7.79h-5.2v-8.191h5.2v-7.791h-5.2v-8.191" style="vector-effect:non-scaling-stroke;stroke-width:.264583;stroke-dasharray:none;-inkscape-stroke:hairline" transform="matrix(0 -1 -1 0 1071.109 1217.06)"/>
    <path fill="none" stroke="#000" stroke-width=".1mm" d="M290.05 676.166v-10.16h-5.2v-10.36h5.2v-9.96h-5.2v-10.36h5.2v-9.96h-5.2v-10.36h5.2v-9.96h-5.2v-10.36h5.2v-9.96h-5.2v-10.36h5.2v-10.16h17.335v-5.2h22.736v5.2h22.335v-5.2h22.736v5.2h22.335v-5.2h22.736v5.2h22.335v-5.2h22.736v5.2h22.335v-5.2h22.736v5.2h17.335v10.16h5.2v10.36h-5.2v9.96h5.2v10.36h-5.2v9.96h5.2v10.36h-5.2v9.96h5.2v10.36h-5.2v9.96h5.2v10.36h-5.2v10.16h-10.539l-11.166-10.12-12.07-8.951-12.888-7.726-13.584-6.425-14.149-5.062-14.576-3.651-14.865-2.205-15.008-.738-15.008.738-14.865 2.205-14.576 3.651-14.149 5.062-13.584 6.425-12.888 7.726-12.07 8.951-11.166 10.12H290.05" style="vector-effect:non-scaling-stroke;stroke-width:.264583;stroke-dasharray:none;-inkscape-stroke:hairline" transform="rotate(-90 554.566 428.374)"/>
    <path fill="none" stroke="#000" stroke-width=".1mm" d="M290.05 457.954v-20.793h-5.2v-20.992h5.2v-20.593h-5.2v-20.993h5.2V353.99h-5.2v-20.992h5.2v-20.593h-5.2v-20.993h5.2v-20.593h-5.2v-20.992h5.2v-20.793h17.335v-5.2h22.736v5.2h22.335v-5.2h22.736v5.2h22.335v-5.2h22.736v5.2h22.335v-5.2h22.736v5.2h22.335v-5.2h22.736v5.2h17.335v20.793h5.2v20.992h-5.2v20.593h5.2v20.993h-5.2v20.593h5.2v20.992h-5.2v20.593h5.2v20.993h-5.2v20.593h5.2v20.992h-5.2v20.793H290.05" style="vector-effect:non-scaling-stroke;stroke-width:.264583;stroke-dasharray:none;-inkscape-stroke:hairline" transform="matrix(0 -1 -1 0 909.033 982.94)"/>
    <path fill="none" stroke="#000" stroke-width=".1mm" d="M518.97 484.806h5.2v-7.4h17.535v5.2h22.336v-5.2h22.735v5.2h22.336v-5.2h22.735v5.2h22.336v-5.2h22.735v5.2h22.336v-5.2h22.735v5.2h22.336v-5.2h17.535v7.4h5.2v7.6h-5.2v7.2h5.2v7.6h-5.2v7.2h5.2v7.6h-5.2v7.2h5.2v7.6h-5.2v7.2h5.2v7.6h-5.2v7.4h-17.535v-5.2h-22.336v5.2h-22.735v-5.2h-22.336v5.2h-22.735v-5.2h-22.336v5.2h-22.735v-5.2h-22.336v5.2h-22.735v-5.2h-22.336v5.2H524.17v-7.4h-5.2v-7.6h5.2v-7.2h-5.2v-7.6h5.2v-7.2h-5.2v-7.6h5.2v-7.2h-5.2v-7.6h5.2v-7.2h-5.2v-7.6" style="vector-effect:non-scaling-stroke;stroke-width:.264583;stroke-dasharray:none;-inkscape-stroke:hairline" transform="matrix(0 -1 -1 0 872.349 1217.06)"/>
    <path fill="none" stroke="#000" stroke-width=".1mm" d="M767.06 620.03h248.09v8.191h-5.2v7.791h5.2v8.191h-5.2v7.79h5.2v8.191h-5.2v7.791h5.2v8.191H767.06v-8.191h5.2v-7.791h-5.2v-8.191h5.2v-7.79h-5.2v-8.191h5.2v-7.791h-5.2v-8.191" style="vector-effect:non-scaling-stroke;stroke-width:.264583;stroke-dasharray:none;-inkscape-stroke:hairline" transform="matrix(0 -1 -1 0 1071.109 1465.15)"/>
</svg>
