<!--
Cleat Wall Organization Equipment
Copyright (C) 2025  Corporate Hacks

This program is free software: you can redistribute it and/or modify
it under the terms of the GNU General Public License as published by
the Free Software Foundation, either version 3 of the License, or
(at your option) any later version.

This program is distributed in the hope that it will be useful,
but WITHOUT ANY WARRANTY; without even the implied warranty of
MERCHANTABILITY or FITNESS FOR A PARTICULAR PURPOSE.  See the
GNU General Public License for more details.

You should have received a copy of the GNU General Public License
along with this program.  If not, see <http://www.gnu.org/licenses/>.
-->

<svg xmlns="http://www.w3.org/2000/svg" width="1300mm" height="900mm" viewBox="0 0 1300 900">
    <path fill="none" stroke="#000" stroke-width=".1mm" d="M314.4 705.65v-15.009h-5.2v-15.209h5.2v-14.809h-5.2v-15.209h5.2v-14.809h-5.2v-15.21h5.2v-14.809h-5.2v-15.209h5.2v-14.809h-5.2v-15.209h5.2V540.35h25.764v-5.2h31.163v5.2h30.764v-5.2h31.164v5.2h30.763v-5.2h31.164v5.2h30.763v-5.2h31.164v5.2h30.764v-5.2h31.163v5.2H644.8v15.009h5.2v15.209h-5.2v14.809h5.2v15.209h-5.2v14.809h5.2v15.21h-5.2v14.809h5.2v15.209h-5.2v14.809h5.2v15.209h-5.2v15.009h-10.539l-15.933-14.441-17.237-12.784-18.406-11.033-19.4-9.175-20.206-7.229-20.816-5.215-21.229-3.148-21.434-1.054-21.434 1.054-21.229 3.148-20.816 5.215-20.206 7.229-19.4 9.175-18.406 11.033-17.237 12.784-15.933 14.441H314.4" style="vector-effect:non-scaling-stroke;stroke-width:.264583;stroke-dasharray:none;-inkscape-stroke:hairline" transform="matrix(0 1 1 0 199.53 -200)"/>
    <path fill="none" stroke="#000" stroke-width=".1mm" d="M314.4 535.15v-30.491h-5.2v-30.691h5.2v-30.291h-5.2v-30.691h5.2v-30.291h-5.2v-30.69h5.2v-30.291h-5.2v-30.691h5.2v-30.291h-5.2v-30.691h5.2V199.55h25.764v-5.2h31.163v5.2h30.764v-5.2h31.164v5.2h30.763v-5.2h31.164v5.2h30.763v-5.2h31.164v5.2h30.764v-5.2h31.163v5.2H644.8v30.491h5.2v30.691h-5.2v30.291h5.2v30.691h-5.2v30.291h5.2v30.69h-5.2v30.291h5.2v30.691h-5.2v30.291h5.2v30.691h-5.2v30.491H314.4" style="vector-effect:non-scaling-stroke;stroke-width:.264583;stroke-dasharray:none;-inkscape-stroke:hairline" transform="rotate(90 564.515 364.515)"/>
    <path fill="none" stroke="#000" stroke-width=".1mm" d="M650 527.76v-7.59h5.2v-7.19H650v-7.59h5.2V498h25.964v5.2h30.763V498h31.164v5.2h30.764V498h31.163v5.2h30.764V498h31.163v5.2h30.764V498h31.164v5.2h30.763V498H985.6v7.39h5.2v7.59h-5.2v7.19h5.2v7.59h-5.2v7.39h-25.964v-5.2h-30.763v5.2h-31.164v-5.2h-30.764v5.2h-31.163v-5.2h-30.764v5.2h-31.163v-5.2h-30.764v5.2h-31.164v-5.2h-30.763v5.2H655.2v-7.39H650" style="vector-effect:non-scaling-stroke;stroke-width:.264583;stroke-dasharray:none;-inkscape-stroke:hairline" transform="rotate(90 688.272 147.472)"/>
    <path d="M980.156 358.327v-30.291h-5v30.291h5m.2 91.673v-30.691h-5.2v-30.291h5.2v-23.593h5.521l13.53-13.529v-8.132h-5.2v-7.791h5.2v-8.191h-5.2v-7.791h5.2v-8.19h-5.2v-7.791h5.2v-8.158l-4.928-2.041-14.123 14.123v-10.589h-5.2v-30.29h5.2v-30.691h-5.2v-30.291h5.2v-30.691h-5.2v-30.291h5.2V109.2h-7.59v5.2h-7.19v-5.2h-7.59v5.2h-7.19v-5.2h-7.59v20.409h5.2v14.809h-5.2v15.209h5.2v14.809h-5.2v15.209h5.2v14.81h-5.2v15.209h5.2v14.809h-5.2v15.209h5.2v14.809h-5.2v15.118L974.973 450h5.383M923.956 532.626v-30.29h-5v30.29h5m.2 121.963h-5.2V624.3h5.2v-30.692h-5.2v-30.29h5.2v-10.589l14.123 14.123 4.927-2.04v-8.159h-5.2v-7.79h5.2v-8.19h-5.2v-7.792h5.2v-8.19h-5.2v-7.792h5.2v-8.132l-13.529-13.529h-5.52v-23.593h-5.2v-30.29h5.2v-30.692h-5.384l-31.767 170.391v15.118h5.2v14.81h-5.2v15.208h5.2V641h-5.2v15.208h5.2v14.81h-5.2v15.21h5.2v14.808h-5.2v15.21h5.2v14.808h-5.2v20.41h7.59v-5.2h7.19v5.2h7.59v-5.2h7.19v5.2h7.59V715.57h-5.2v-30.29h5.2v-30.692" style="vector-effect:non-scaling-stroke;fill:none;stroke:#000;stroke-width:.264583;-inkscape-stroke:hairline"/>
    <path d="M962.456 502.335v30.291h5v-30.29h-5m-.2-91.674v30.691h5.2v30.291h-5.2v23.593h-5.52l-13.53 13.53v8.131h5.2v7.791h-5.2v8.191h5.2v7.791h-5.2v8.19h5.2v7.791h-5.2v8.158l4.927 2.041 14.123-14.123v10.59h5.2v30.29h-5.2v30.69h5.2v30.291h-5.2v30.691h5.2v30.291h-5.2v35.891h7.59v-5.2h7.19v5.2h7.59v-5.2h7.19v5.2h7.59v-20.409h-5.2v-14.809h5.2v-15.209h-5.2v-14.809h5.2v-15.209h-5.2v-14.81h5.2v-15.209h-5.2V626.19h5.2V610.98h-5.2v-14.809h5.2v-15.118l-31.767-170.39h-5.383M906.256 328.036v30.291h5v-30.291h-5m-.2-121.963h5.2v30.291h-5.2v30.691h5.2v30.29h-5.2v10.589l-14.123-14.123-4.927 2.041v8.158h5.2v7.791h-5.2v8.19h5.2v7.791h-5.2v8.191h5.2v7.791h-5.2v8.132l13.53 13.529h5.52v23.593h5.2v30.291h-5.2V450h5.383l31.767-170.391v-15.118h-5.2v-14.809h5.2v-15.209h-5.2v-14.809h5.2v-15.209h-5.2v-14.81h5.2v-15.209h-5.2v-14.809h5.2v-15.209h-5.2v-14.809h5.2V109.2h-7.59v5.2h-7.19v-5.2h-7.59v5.2h-7.19v-5.2h-7.59v35.891h5.2v30.291h-5.2v30.691" style="vector-effect:non-scaling-stroke;fill:none;stroke:#000;stroke-width:.264583;-inkscape-stroke:hairline"/>
    <path fill="none" stroke="#000" stroke-width=".1mm" d="M985.6 649.514v7.991h5.2v8.191h-5.2v7.791h5.2v8.19h-5.2v7.791h5.2v8.191h-5.2v7.991H655.2v-7.991H650v-8.191h5.2v-7.791H650v-8.19h5.2v-7.791H650v-8.191h5.2v-7.991h330.4" style="vector-effect:non-scaling-stroke;stroke-width:.264583;stroke-dasharray:none;-inkscape-stroke:hairline" transform="rotate(90 792.097 251.297)"/>
    <path fill="none" stroke="#000" stroke-width=".1mm" d="M314.4 705.65v-15.009h-5.2v-15.209h5.2v-14.809h-5.2v-15.209h5.2v-14.809h-5.2v-15.21h5.2v-14.809h-5.2v-15.209h5.2v-14.809h-5.2v-15.209h5.2V540.35h25.764v-5.2h31.163v5.2h30.764v-5.2h31.164v5.2h30.763v-5.2h31.164v5.2h30.763v-5.2h31.164v5.2h30.764v-5.2h31.163v5.2H644.8v15.009h5.2v15.209h-5.2v14.809h5.2v15.209h-5.2v14.809h5.2v15.21h-5.2v14.809h5.2v15.209h-5.2v14.809h5.2v15.209h-5.2v15.009h-10.539l-15.933-14.441-17.237-12.784-18.406-11.033-19.4-9.175-20.206-7.229-20.816-5.215-21.229-3.148-21.434-1.054-21.434 1.054-21.229 3.148-20.816 5.215-20.206 7.229-19.4 9.175-18.406 11.033-17.237 12.784-15.933 14.441H314.4" style="vector-effect:non-scaling-stroke;stroke-width:.264583;stroke-dasharray:none;-inkscape-stroke:hairline" transform="rotate(-90 649.765 450.235)"/>
    <path fill="none" stroke="#000" stroke-width=".1mm" d="M314.4 535.15v-30.491h-5.2v-30.691h5.2v-30.291h-5.2v-30.691h5.2v-30.291h-5.2v-30.69h5.2v-30.291h-5.2v-30.691h5.2v-30.291h-5.2v-30.691h5.2V199.55h25.764v-5.2h31.163v5.2h30.764v-5.2h31.164v5.2h30.763v-5.2h31.164v5.2h30.763v-5.2h31.164v5.2h30.764v-5.2h31.163v5.2H644.8v30.491h5.2v30.691h-5.2v30.291h5.2v30.691h-5.2v30.291h5.2v30.69h-5.2v30.291h5.2v30.691h-5.2v30.291h5.2v30.691h-5.2v30.491H314.4" style="vector-effect:non-scaling-stroke;stroke-width:.264583;stroke-dasharray:none;-inkscape-stroke:hairline" transform="rotate(90 394.115 534.915)"/>
    <path fill="none" stroke="#000" stroke-width=".1mm" d="M650 527.76v-7.59h5.2v-7.19H650v-7.59h5.2V498h25.964v5.2h30.763V498h31.164v5.2h30.764V498h31.163v5.2h30.764V498h31.163v5.2h30.764V498h31.164v5.2h30.763V498H985.6v7.39h5.2v7.59h-5.2v7.19h5.2v7.59h-5.2v7.39h-25.964v-5.2h-30.763v5.2h-31.164v-5.2h-30.764v5.2h-31.163v-5.2h-30.764v5.2h-31.163v-5.2h-30.764v5.2h-31.164v-5.2h-30.763v5.2H655.2v-7.39H650" style="vector-effect:non-scaling-stroke;stroke-width:.264583;stroke-dasharray:none;-inkscape-stroke:hairline" transform="rotate(90 517.872 317.872)"/>
    <path fill="none" stroke="#000" stroke-width=".1mm" d="M985.6 649.514v7.991h5.2v8.191h-5.2v7.791h5.2v8.19h-5.2v7.791h5.2v8.191h-5.2v7.991H655.2v-7.991H650v-8.191h5.2v-7.791H650v-8.19h5.2v-7.791H650v-8.191h5.2v-7.991h330.4" style="vector-effect:non-scaling-stroke;stroke-width:.264583;stroke-dasharray:none;-inkscape-stroke:hairline" transform="rotate(90 621.697 421.697)"/>
</svg>
