Cleat Wall Organization Equipment
Copyright (C) 2025  Corporate Hacks

This program is free software: you can redistribute it and/or modify
it under the terms of the GNU General Public License as published by
the Free Software Foundation, either version 3 of the License, or
(at your option) any later version.

This program is distributed in the hope that it will be useful,
but WITHOUT ANY WARRANTY; without even the implied warranty of
MERCHANTABILITY or FITNESS FOR A PARTICULAR PURPOSE.  See the
GNU General Public License for more details.

You should have received a copy of the GNU General Public License
along with this program.  If not, see <http://www.gnu.org/licenses/>.


<svg xmlns="http://www.w3.org/2000/svg" width="1300mm" height="900mm" viewBox="0 0 1300 900">
    <path d="m882.08 416.502-31.77 144.99v12.81h5.2v12.5h-5.2v12.9h5.2v12.5h-5.2v12.9h5.2v12.5h-5.2v12.9h5.2v12.5h-5.2v12.9h5.2v12.5h-5.2v18.1h7.59v-5.2h7.19v5.2h7.59v-5.2h7.19v5.2h7.59v-31.273h-5.2v-25.672h5.2v-26.073h-5.2v-25.673h5.2v-26.073h-5.2v-25.672h5.2v-12.898l14.123 14.123 4.927-2.041v-8.158h-5.2v-7.791h5.2v-8.19h-5.2v-7.791h5.2v-8.19h-5.2v-7.792h5.2v-8.132l-13.529-13.529h-5.52v-7.43h-5.2v-25.672h5.2v-26.073Zm.18 77.818h5v25.673h-5z" style="vector-effect:non-scaling-stroke;fill:none;stroke:#000;stroke-width:.264583;stroke-dasharray:none;stroke-opacity:1;-inkscape-stroke:hairline"/>
    <path fill="none" stroke="#000" stroke-width=".1mm" d="m403.466 616.692-14.406 10.684-13.321 12.074H365.2v-12.7H360v-12.9h5.2v-12.5H360v-12.9h5.2v-12.5H360v-12.9h5.2v-12.5H360v-12.9h5.2v-12.5H360v-12.9h5.2v-12.7h21.145v-5.2h26.546v5.2h26.145v-5.2h26.546v5.2h26.145v-5.2h26.546v5.2h26.145v-5.2h26.546v5.2h26.145v-5.2h26.546v5.2H644.8v12.7h5.2v12.9h-5.2v12.5h5.2v12.9h-5.2v12.5h5.2v12.9h-5.2v12.5h5.2v12.9h-5.2v12.5h5.2v12.9h-5.2v12.7h-10.539l-13.321-12.074-14.406-10.684-15.382-9.22-16.213-7.668-16.887-6.042-17.397-4.358-17.742-2.631-17.913-.881-17.913.881-17.742 2.631-17.397 4.358-16.887 6.042-16.213 7.668-15.382 9.22" style="vector-effect:non-scaling-stroke;fill:none;stroke:#000;stroke-width:.264583;stroke-dasharray:none;stroke-opacity:1;-inkscape-stroke:hairline" transform="matrix(0 1 1 0 226.226 -200)"/>
    <path fill="none" stroke="#000" stroke-width=".1mm" d="M365.2 494.35v-25.873H360v-26.072h5.2v-25.673H360v-26.073h5.2v-25.673H360v-26.072h5.2v-25.673H360v-26.073h5.2v-25.673H360v-26.072h5.2V209.55h21.145v-5.2h26.546v5.2h26.145v-5.2h26.546v5.2h26.145v-5.2h26.546v5.2h26.145v-5.2h26.546v5.2h26.145v-5.2h26.546v5.2H644.8v25.873h5.2v26.072h-5.2v25.673h5.2v26.073h-5.2v25.673h5.2v26.072h-5.2v25.673h5.2v26.073h-5.2v25.673h5.2v26.072h-5.2v25.873H365.2" style="vector-effect:non-scaling-stroke;fill:none;stroke:#000;stroke-width:.264583;stroke-dasharray:none;stroke-opacity:1;-inkscape-stroke:hairline" transform="rotate(90 562.463 362.463)"/>
    <path fill="none" stroke="#000" stroke-width=".1mm" d="M650 553.49h5.2v-7.39h21.345v5.2h26.146v-5.2h26.545v5.2h26.146v-5.2h26.545v5.2h26.146v-5.2h26.545v5.2h26.146v-5.2h26.545v5.2h26.146v-5.2H934.8v7.39h5.2v7.59h-5.2v7.19h5.2v7.59h-5.2v7.39h-21.345v-5.2h-26.146v5.2h-26.545v-5.2h-26.146v5.2h-26.545v-5.2h-26.146v5.2h-26.545v-5.2h-26.146v5.2h-26.545v-5.2h-26.146v5.2H655.2v-7.39H650v-7.59h5.2v-7.19H650v-7.59" style="vector-effect:non-scaling-stroke;fill:none;stroke:#000;stroke-width:.264583;stroke-dasharray:none;stroke-opacity:1;-inkscape-stroke:hairline" transform="rotate(90 705.27 215.27)"/>
    <path d="M906.51 160v18.1h5.2v12.5h-5.2v12.9h5.2V216h-5.2v12.9h5.2v12.5h-5.2v12.9h5.2v12.5h-5.2v12.9h5.2v12.5h-5.2v12.811L938.28 450h5.38v-26.073h-5.2v-25.672h5.2v-7.43h5.521l13.53-13.529v-8.132h-5.2v-7.791h5.2v-8.191h-5.2v-7.791h5.2v-8.19h-5.2v-7.79h5.2v-8.16l-4.928-2.04-14.123 14.123v-12.898h-5.2v-25.672h5.2V268.69h-5.2v-25.673h5.2v-26.073h-5.2v-25.672h5.2V160h-7.59v5.2h-7.19V160h-7.59v5.2h-7.19V160zm31.95 186.509h5v25.673h-5zM874.74 450l31.77-144.989V292.2h-5.2v-12.5h5.2v-12.9h-5.2v-12.5h5.2v-12.9h-5.2v-12.5h5.2V216h-5.2v-12.5h5.2v-12.9h-5.2v-12.5h5.2V160h-7.59v5.2h-7.19V160h-7.59v5.2h-7.19V160h-7.59v31.273h5.2v25.672h-5.2v26.073h5.2v25.673h-5.2v26.073h5.2v25.672h-5.2v12.898l-14.122-14.123-4.928 2.041v8.158h5.2v7.791h-5.2v8.19h5.2v7.791h-5.2v8.191h5.2v7.791h-5.2v8.132l13.53 13.529h5.52v7.43h5.2v25.672h-5.2V450zm-.18-77.818h-5V346.51h5zM962.71 706.503v-18.1h-5.2v-12.5h5.2v-12.9h-5.2v-12.5h5.2v-12.9h-5.2v-12.5h5.2v-12.9h-5.2v-12.5h5.2v-12.9h-5.2v-12.5h5.2v-12.811l-31.77-144.989h-5.38v26.073h5.2v25.672h-5.2v7.43h-5.52l-13.53 13.53v8.131h5.2v7.791h-5.2v8.191h5.2v7.791h-5.2v8.19h5.2v7.791h-5.2v8.158l4.927 2.041 14.123-14.123v12.898h5.2v25.672h-5.2v26.073h5.2v25.673h-5.2v26.074h5.2v25.671h-5.2v31.273h7.59v-5.2h7.19v5.2h7.59v-5.2h7.19v5.2zm-31.95-186.509h-5v-25.673h5z" style="vector-effect:non-scaling-stroke;fill:none;stroke:#000;stroke-width:.264583;stroke-dasharray:none;stroke-opacity:1;-inkscape-stroke:hairline"/>
    <path fill="none" stroke="#000" stroke-width=".1mm" d="M934.8 639.514v7.991h5.2v8.191h-5.2v7.791h5.2v8.19h-5.2v7.791h5.2v8.191h-5.2v7.991H655.2v-7.991H650v-8.191h5.2v-7.791H650v-8.19h5.2v-7.791H650v-8.191h5.2v-7.991h279.6" style="vector-effect:non-scaling-stroke;fill:none;stroke:#000;stroke-width:.264583;stroke-dasharray:none;stroke-opacity:1;-inkscape-stroke:hairline" transform="rotate(90 780.045 290.045)"/>
    <path fill="none" stroke="#000" stroke-width=".1mm" d="m403.466 616.692-14.406 10.684-13.321 12.074H365.2v-12.7H360v-12.9h5.2v-12.5H360v-12.9h5.2v-12.5H360v-12.9h5.2v-12.5H360v-12.9h5.2v-12.5H360v-12.9h5.2v-12.7h21.145v-5.2h26.546v5.2h26.145v-5.2h26.546v5.2h26.145v-5.2h26.546v5.2h26.145v-5.2h26.546v5.2h26.145v-5.2h26.546v5.2H644.8v12.7h5.2v12.9h-5.2v12.5h5.2v12.9h-5.2v12.5h5.2v12.9h-5.2v12.5h5.2v12.9h-5.2v12.5h5.2v12.9h-5.2v12.7h-10.539l-13.321-12.074-14.406-10.684-15.382-9.22-16.213-7.668-16.887-6.042-17.397-4.358-17.742-2.631-17.913-.881-17.913.881-17.742 2.631-17.397 4.358-16.887 6.042-16.213 7.668-15.382 9.22" style="vector-effect:non-scaling-stroke;fill:none;stroke:#000;stroke-width:.264583;stroke-dasharray:none;stroke-opacity:1;-inkscape-stroke:hairline" transform="matrix(0 1 1 0 226.226 90)"/>
    <path fill="none" stroke="#000" stroke-width=".1mm" d="M365.2 494.35v-25.873H360v-26.072h5.2v-25.673H360v-26.073h5.2v-25.673H360v-26.072h5.2v-25.673H360v-26.073h5.2v-25.673H360v-26.072h5.2V209.55h21.145v-5.2h26.546v5.2h26.145v-5.2h26.546v5.2h26.145v-5.2h26.546v5.2h26.145v-5.2h26.546v5.2h26.145v-5.2h26.546v5.2H644.8v25.873h5.2v26.072h-5.2v25.673h5.2v26.073h-5.2v25.673h5.2v26.072h-5.2v25.673h5.2v26.073h-5.2v25.673h5.2v26.072h-5.2v25.873H365.2" style="vector-effect:non-scaling-stroke;fill:none;stroke:#000;stroke-width:.264583;stroke-dasharray:none;stroke-opacity:1;-inkscape-stroke:hairline" transform="rotate(90 417.463 507.463)"/>
    <path fill="none" stroke="#000" stroke-width=".1mm" d="M650 553.49h5.2v-7.39h21.345v5.2h26.146v-5.2h26.545v5.2h26.146v-5.2h26.545v5.2h26.146v-5.2h26.545v5.2h26.146v-5.2h26.545v5.2h26.146v-5.2H934.8v7.39h5.2v7.59h-5.2v7.19h5.2v7.59h-5.2v7.39h-21.345v-5.2h-26.146v5.2h-26.545v-5.2h-26.146v5.2h-26.545v-5.2h-26.146v5.2h-26.545v-5.2h-26.146v5.2h-26.545v-5.2h-26.146v5.2H655.2v-7.39H650v-7.59h5.2v-7.19H650v-7.59" style="vector-effect:non-scaling-stroke;fill:none;stroke:#000;stroke-width:.264583;stroke-dasharray:none;stroke-opacity:1;-inkscape-stroke:hairline" transform="rotate(90 560.27 360.27)"/>
    <path fill="none" stroke="#000" stroke-width=".1mm" d="M934.8 639.514v7.991h5.2v8.191h-5.2v7.791h5.2v8.19h-5.2v7.791h5.2v8.191h-5.2v7.991H655.2v-7.991H650v-8.191h5.2v-7.791H650v-8.19h5.2v-7.791H650v-8.191h5.2v-7.991h279.6" style="vector-effect:non-scaling-stroke;fill:none;stroke:#000;stroke-width:.264583;stroke-dasharray:none;stroke-opacity:1;-inkscape-stroke:hairline" transform="rotate(90 635.045 435.045)"/>
</svg>
