<?xml version="1.0" encoding="UTF-8" standalone="no"?>
<svg
   width="1300mm"
   height="900mm"
   viewBox="0 0 1300 900"
   version="1.1"
   id="svg8"
   sodipodi:docname="TableBlades.svg"
   inkscape:version="1.3.2 (091e20ef0f, 2023-11-25)"
   xmlns:inkscape="http://www.inkscape.org/namespaces/inkscape"
   xmlns:sodipodi="http://sodipodi.sourceforge.net/DTD/sodipodi-0.dtd"
   xmlns="http://www.w3.org/2000/svg"
   xmlns:svg="http://www.w3.org/2000/svg">
  <defs
     id="defs8" />
  <sodipodi:namedview
     id="namedview8"
     pagecolor="#505050"
     bordercolor="#eeeeee"
     borderopacity="1"
     inkscape:showpageshadow="0"
     inkscape:pageopacity="0"
     inkscape:pagecheckerboard="0"
     inkscape:deskcolor="#505050"
     inkscape:document-units="mm"
     inkscape:zoom="0.11556323"
     inkscape:cx="1873.4332"
     inkscape:cy="1319.6239"
     inkscape:window-width="1920"
     inkscape:window-height="1011"
     inkscape:window-x="0"
     inkscape:window-y="32"
     inkscape:window-maximized="1"
     inkscape:current-layer="svg8" />
  <path
     id="polyline1"
     d="m 882.0805,416.5021 -31.7702,144.98909 v 12.8111 h 5.2002 v 12.50001 h -5.2002 v 12.89999 h 5.2002 v 12.50001 h -5.2002 v 12.89999 h 5.2002 v 12.50001 h -5.2002 v 12.89999 h 5.2002 v 12.50001 h -5.2002 v 12.89999 h 5.2002 v 12.50001 h -5.2002 v 18.09967 h 7.5902 v -5.19968 h 7.1898 v 5.19968 h 7.5902 v -5.19968 h 7.1897 v 5.19968 h 7.5903 v -31.27302 h -5.2002 v -25.67182 h 5.2002 V 623.4843 h -5.2002 v -25.67337 h 5.2002 v -26.07282 h -5.2002 v -25.67182 h 5.2002 v -12.89844 l 14.1226,14.12317 4.9274,-2.04122 v -8.15764 h -5.2002 v -7.79126 h 5.2002 v -8.18968 h -5.2002 v -7.79125 h 5.2002 v -8.19072 h -5.2002 V 497.338 h 5.2002 v -8.13181 L 892.9811,475.6773 h -5.5206 v -7.43004 h -5.2002 v -25.67233 h 5.2002 V 416.5021 Z m 0.1798,77.81799 h 5.0002 v 25.67285 h -5.0002 z"
     style="vector-effect:non-scaling-stroke;fill:none;stroke:#000000;stroke-width:0.264583;stroke-dasharray:none;stroke-opacity:1;-inkscape-stroke:hairline" />
  <polyline
     z="0"
     points="403.466,616.692 389.06,627.376 375.739,639.45 365.2,639.45 365.2,626.75 360,626.75 360,613.85 365.2,613.85 365.2,601.35 360,601.35 360,588.45 365.2,588.45 365.2,575.95 360,575.95 360,563.05 365.2,563.05 365.2,550.55 360,550.55 360,537.65 365.2,537.65 365.2,525.15 360,525.15 360,512.25 365.2,512.25 365.2,499.55 386.345,499.55 386.345,494.35 412.891,494.35 412.891,499.55 439.036,499.55 439.036,494.35 465.582,494.35 465.582,499.55 491.727,499.55 491.727,494.35 518.273,494.35 518.273,499.55 544.418,499.55 544.418,494.35 570.964,494.35 570.964,499.55 597.109,499.55 597.109,494.35 623.655,494.35 623.655,499.55 644.8,499.55 644.8,512.25 650,512.25 650,525.15 644.8,525.15 644.8,537.65 650,537.65 650,550.55 644.8,550.55 644.8,563.05 650,563.05 650,575.95 644.8,575.95 644.8,588.45 650,588.45 650,601.35 644.8,601.35 644.8,613.85 650,613.85 650,626.75 644.8,626.75 644.8,639.45 634.261,639.45 620.94,627.376 606.534,616.692 591.152,607.472 574.939,599.804 558.052,593.762 540.655,589.404 522.913,586.773 505,585.892 487.087,586.773 469.345,589.404 451.948,593.762 435.061,599.804 418.848,607.472 403.466,616.692"
     fill="none"
     stroke="#000000"
     stroke-width="0.1mm"
     id="polyline3"
     transform="matrix(0,1,1,0,226.2259,-199.99974)"
     style="vector-effect:non-scaling-stroke;fill:none;stroke:#000000;stroke-width:0.264583;stroke-dasharray:none;stroke-opacity:1;-inkscape-stroke:hairline" />
  <polyline
     z="0"
     points="365.2,494.35 365.2,468.477 360,468.477 360,442.405 365.2,442.405 365.2,416.732 360,416.732 360,390.659 365.2,390.659 365.2,364.986 360,364.986 360,338.914 365.2,338.914 365.2,313.241 360,313.241 360,287.168 365.2,287.168 365.2,261.495 360,261.495 360,235.423 365.2,235.423 365.2,209.55 386.345,209.55 386.345,204.35 412.891,204.35 412.891,209.55 439.036,209.55 439.036,204.35 465.582,204.35 465.582,209.55 491.727,209.55 491.727,204.35 518.273,204.35 518.273,209.55 544.418,209.55 544.418,204.35 570.964,204.35 570.964,209.55 597.109,209.55 597.109,204.35 623.655,204.35 623.655,209.55 644.8,209.55 644.8,235.423 650,235.423 650,261.495 644.8,261.495 644.8,287.168 650,287.168 650,313.241 644.8,313.241 644.8,338.914 650,338.914 650,364.986 644.8,364.986 644.8,390.659 650,390.659 650,416.732 644.8,416.732 644.8,442.405 650,442.405 650,468.477 644.8,468.477 644.8,494.35 365.2,494.35"
     fill="none"
     stroke="#000000"
     stroke-width="0.1mm"
     id="polyline4"
     transform="rotate(90,562.46282,362.46308)"
     style="vector-effect:non-scaling-stroke;fill:none;stroke:#000000;stroke-width:0.264583;stroke-dasharray:none;stroke-opacity:1;-inkscape-stroke:hairline" />
  <polyline
     z="0"
     points="650,553.49 655.2,553.49 655.2,546.1 676.545,546.1 676.545,551.3 702.691,551.3 702.691,546.1 729.236,546.1 729.236,551.3 755.382,551.3 755.382,546.1 781.927,546.1 781.927,551.3 808.073,551.3 808.073,546.1 834.618,546.1 834.618,551.3 860.764,551.3 860.764,546.1 887.309,546.1 887.309,551.3 913.455,551.3 913.455,546.1 934.8,546.1 934.8,553.49 940,553.49 940,561.08 934.8,561.08 934.8,568.27 940,568.27 940,575.86 934.8,575.86 934.8,583.25 913.455,583.25 913.455,578.05 887.309,578.05 887.309,583.25 860.764,583.25 860.764,578.05 834.618,578.05 834.618,583.25 808.073,583.25 808.073,578.05 781.927,578.05 781.927,583.25 755.382,583.25 755.382,578.05 729.236,578.05 729.236,583.25 702.691,583.25 702.691,578.05 676.545,578.05 676.545,583.25 655.2,583.25 655.2,575.86 650,575.86 650,568.27 655.2,568.27 655.2,561.08 650,561.08 650,553.49"
     fill="none"
     stroke="#000000"
     stroke-width="0.1mm"
     id="polyline5"
     transform="rotate(90,705.26982,215.27008)"
     style="vector-effect:non-scaling-stroke;fill:none;stroke:#000000;stroke-width:0.264583;stroke-dasharray:none;stroke-opacity:1;-inkscape-stroke:hairline" />
  <path
     id="polyline6"
     d="m 906.5105,159.99974 v 18.10019 h 5.1997 v 12.50001 h -5.1997 v 12.89999 h 5.1997 v 12.50001 h -5.1997 v 12.89999 h 5.1997 v 12.50001 h -5.1997 v 12.89999 h 5.1997 v 12.50001 h -5.1997 v 12.89999 h 5.1997 v 12.50001 h -5.1997 v 12.81111 l 31.7696,144.98856 h 5.3801 v -26.07282 h -5.1997 v -25.67182 h 5.1997 v -7.43004 h 5.5211 l 13.5288,-13.52889 v -8.13233 h -5.1996 v -7.79074 h 5.1996 v -8.19123 h -5.1996 V 345.391 h 5.1996 v -8.1902 h -5.1996 v -7.79074 h 5.1996 v -8.15815 l -4.9268,-2.04122 -14.1231,14.12317 v -12.89793 h -5.1997 V 294.7636 h 5.1997 v -26.07282 h -5.1997 v -25.67285 h 5.1997 v -26.07334 h -5.1997 v -25.67183 h 5.1997 v -31.27302 h -7.5898 v 5.2002 h -7.1902 v -5.2002 h -7.5897 v 5.2002 h -7.1903 v -5.2002 z m 31.95,186.50903 h 4.9997 v 25.67285 h -4.9997 z"
     style="vector-effect:non-scaling-stroke;fill:none;stroke:#000000;stroke-width:0.264583;stroke-dasharray:none;stroke-opacity:1;-inkscape-stroke:hairline" />
  <path
     id="polyline1-9"
     d="m 874.7403,450.00013 31.7702,-144.98909 v -12.8111 h -5.2002 v -12.50001 h 5.2002 v -12.89999 h -5.2002 v -12.50001 h 5.2002 v -12.89999 h -5.2002 v -12.50001 h 5.2002 v -12.89999 h -5.2002 v -12.50001 h 5.2002 v -12.89999 h -5.2002 v -12.50001 h 5.2002 v -18.09967 h -7.5902 v 5.19968 h -7.1898 v -5.19968 h -7.5902 v 5.19968 h -7.1898 v -5.19968 h -7.5902 v 31.27302 h 5.2002 v 25.67182 h -5.2002 v 26.07283 h 5.2002 v 25.67337 h -5.2002 v 26.07282 h 5.2002 v 25.67182 h -5.2002 v 12.89844 l -14.1227,-14.12317 -4.9273,2.04122 v 8.15764 h 5.2002 v 7.79126 h -5.2002 v 8.18968 h 5.2002 v 7.79125 h -5.2002 v 8.19072 h 5.2002 v 7.79125 h -5.2002 v 8.13181 l 13.5294,13.52889 h 5.5206 v 7.43004 h 5.2002 v 25.67233 h -5.2002 v 26.07283 z m -0.1798,-77.81799 h -5.0002 v -25.67285 h 5.0002 z"
     style="vector-effect:non-scaling-stroke;fill:none;stroke:#000000;stroke-width:0.264583;stroke-dasharray:none;stroke-opacity:1;-inkscape-stroke:hairline" />
  <path
     id="polyline6-0"
     d="m 962.7101,706.50338 v -18.1002 h -5.1996 v -12.5 h 5.1996 v -12.90001 h -5.1996 v -12.50001 h 5.1996 v -12.89999 h -5.1996 v -12.50001 h 5.1996 v -12.89999 h -5.1996 v -12.50001 h 5.1996 v -12.89999 h -5.1996 v -12.50001 h 5.1996 V 561.49205 L 930.9405,416.50349 h -5.38 v 26.07282 h 5.1997 v 25.67182 h -5.1997 v 7.43004 h -5.5211 l -13.5289,13.52889 v 8.13232 h 5.1997 v 7.79074 h -5.1997 v 8.19123 h 5.1997 v 7.79074 h -5.1997 v 8.1902 h 5.1997 v 7.79074 h -5.1997 v 8.15815 l 4.9268,2.04122 14.1232,-14.12317 v 12.89793 h 5.1997 v 25.67233 h -5.1997 v 26.07283 h 5.1997 v 25.67285 h -5.1997 v 26.07334 h 5.1997 v 25.67177 h -5.1997 v 31.2731 h 7.5897 v -5.2002 h 7.1903 v 5.2002 h 7.5897 v -5.2002 h 7.1902 v 5.2002 z M 930.7602,519.99433 h -4.9997 v -25.67285 h 4.9997 z"
     style="vector-effect:non-scaling-stroke;fill:none;stroke:#000000;stroke-width:0.264583;stroke-dasharray:none;stroke-opacity:1;-inkscape-stroke:hairline" />
  <polyline
     z="0"
     points="934.8,639.514 934.8,647.505 940,647.505 940,655.696 934.8,655.696 934.8,663.487 940,663.487 940,671.677 934.8,671.677 934.8,679.468 940,679.468 940,687.659 934.8,687.659 934.8,695.65 655.2,695.65 655.2,687.659 650,687.659 650,679.468 655.2,679.468 655.2,671.677 650,671.677 650,663.487 655.2,663.487 655.2,655.696 650,655.696 650,647.505 655.2,647.505 655.2,639.514 934.8,639.514"
     fill="none"
     stroke="#000000"
     stroke-width="0.1mm"
     id="polyline8"
     transform="rotate(90,780.04482,290.04508)"
     style="vector-effect:non-scaling-stroke;fill:none;stroke:#000000;stroke-width:0.264583;stroke-dasharray:none;stroke-opacity:1;-inkscape-stroke:hairline" />
  <polyline
     z="0"
     points="403.466,616.692 389.06,627.376 375.739,639.45 365.2,639.45 365.2,626.75 360,626.75 360,613.85 365.2,613.85 365.2,601.35 360,601.35 360,588.45 365.2,588.45 365.2,575.95 360,575.95 360,563.05 365.2,563.05 365.2,550.55 360,550.55 360,537.65 365.2,537.65 365.2,525.15 360,525.15 360,512.25 365.2,512.25 365.2,499.55 386.345,499.55 386.345,494.35 412.891,494.35 412.891,499.55 439.036,499.55 439.036,494.35 465.582,494.35 465.582,499.55 491.727,499.55 491.727,494.35 518.273,494.35 518.273,499.55 544.418,499.55 544.418,494.35 570.964,494.35 570.964,499.55 597.109,499.55 597.109,494.35 623.655,494.35 623.655,499.55 644.8,499.55 644.8,512.25 650,512.25 650,525.15 644.8,525.15 644.8,537.65 650,537.65 650,550.55 644.8,550.55 644.8,563.05 650,563.05 650,575.95 644.8,575.95 644.8,588.45 650,588.45 650,601.35 644.8,601.35 644.8,613.85 650,613.85 650,626.75 644.8,626.75 644.8,639.45 634.261,639.45 620.94,627.376 606.534,616.692 591.152,607.472 574.939,599.804 558.052,593.762 540.655,589.404 522.913,586.773 505,585.892 487.087,586.773 469.345,589.404 451.948,593.762 435.061,599.804 418.848,607.472 403.466,616.692"
     fill="none"
     stroke="#000000"
     stroke-width="0.1mm"
     id="polyline3-9"
     transform="matrix(0,1,1,0,226.2259,90.00026)"
     style="vector-effect:non-scaling-stroke;fill:none;stroke:#000000;stroke-width:0.264583;stroke-dasharray:none;stroke-opacity:1;-inkscape-stroke:hairline" />
  <polyline
     z="0"
     points="365.2,494.35 365.2,468.477 360,468.477 360,442.405 365.2,442.405 365.2,416.732 360,416.732 360,390.659 365.2,390.659 365.2,364.986 360,364.986 360,338.914 365.2,338.914 365.2,313.241 360,313.241 360,287.168 365.2,287.168 365.2,261.495 360,261.495 360,235.423 365.2,235.423 365.2,209.55 386.345,209.55 386.345,204.35 412.891,204.35 412.891,209.55 439.036,209.55 439.036,204.35 465.582,204.35 465.582,209.55 491.727,209.55 491.727,204.35 518.273,204.35 518.273,209.55 544.418,209.55 544.418,204.35 570.964,204.35 570.964,209.55 597.109,209.55 597.109,204.35 623.655,204.35 623.655,209.55 644.8,209.55 644.8,235.423 650,235.423 650,261.495 644.8,261.495 644.8,287.168 650,287.168 650,313.241 644.8,313.241 644.8,338.914 650,338.914 650,364.986 644.8,364.986 644.8,390.659 650,390.659 650,416.732 644.8,416.732 644.8,442.405 650,442.405 650,468.477 644.8,468.477 644.8,494.35 365.2,494.35"
     fill="none"
     stroke="#000000"
     stroke-width="0.1mm"
     id="polyline4-1"
     transform="rotate(90,417.46282,507.46308)"
     style="vector-effect:non-scaling-stroke;fill:none;stroke:#000000;stroke-width:0.264583;stroke-dasharray:none;stroke-opacity:1;-inkscape-stroke:hairline" />
  <polyline
     z="0"
     points="650,553.49 655.2,553.49 655.2,546.1 676.545,546.1 676.545,551.3 702.691,551.3 702.691,546.1 729.236,546.1 729.236,551.3 755.382,551.3 755.382,546.1 781.927,546.1 781.927,551.3 808.073,551.3 808.073,546.1 834.618,546.1 834.618,551.3 860.764,551.3 860.764,546.1 887.309,546.1 887.309,551.3 913.455,551.3 913.455,546.1 934.8,546.1 934.8,553.49 940,553.49 940,561.08 934.8,561.08 934.8,568.27 940,568.27 940,575.86 934.8,575.86 934.8,583.25 913.455,583.25 913.455,578.05 887.309,578.05 887.309,583.25 860.764,583.25 860.764,578.05 834.618,578.05 834.618,583.25 808.073,583.25 808.073,578.05 781.927,578.05 781.927,583.25 755.382,583.25 755.382,578.05 729.236,578.05 729.236,583.25 702.691,583.25 702.691,578.05 676.545,578.05 676.545,583.25 655.2,583.25 655.2,575.86 650,575.86 650,568.27 655.2,568.27 655.2,561.08 650,561.08 650,553.49"
     fill="none"
     stroke="#000000"
     stroke-width="0.1mm"
     id="polyline5-7"
     transform="rotate(90,560.26982,360.27008)"
     style="vector-effect:non-scaling-stroke;fill:none;stroke:#000000;stroke-width:0.264583;stroke-dasharray:none;stroke-opacity:1;-inkscape-stroke:hairline" />
  <polyline
     z="0"
     points="934.8,639.514 934.8,647.505 940,647.505 940,655.696 934.8,655.696 934.8,663.487 940,663.487 940,671.677 934.8,671.677 934.8,679.468 940,679.468 940,687.659 934.8,687.659 934.8,695.65 655.2,695.65 655.2,687.659 650,687.659 650,679.468 655.2,679.468 655.2,671.677 650,671.677 650,663.487 655.2,663.487 655.2,655.696 650,655.696 650,647.505 655.2,647.505 655.2,639.514 934.8,639.514"
     fill="none"
     stroke="#000000"
     stroke-width="0.1mm"
     id="polyline8-7"
     transform="rotate(90,635.04482,435.04508)"
     style="vector-effect:non-scaling-stroke;fill:none;stroke:#000000;stroke-width:0.264583;stroke-dasharray:none;stroke-opacity:1;-inkscape-stroke:hairline" />
</svg>
