<?xml version="1.0" encoding="UTF-8" standalone="no"?>
<svg
   width="1300mm"
   height="900mm"
   viewBox="0 0 1300 900"
   version="1.1"
   id="svg8"
   sodipodi:docname="MiterBlade.svg"
   inkscape:version="1.3.2 (091e20ef0f, 2023-11-25)"
   xmlns:inkscape="http://www.inkscape.org/namespaces/inkscape"
   xmlns:sodipodi="http://sodipodi.sourceforge.net/DTD/sodipodi-0.dtd"
   xmlns="http://www.w3.org/2000/svg"
   xmlns:svg="http://www.w3.org/2000/svg">
  <defs
     id="defs8" />
  <sodipodi:namedview
     id="namedview8"
     pagecolor="#505050"
     bordercolor="#eeeeee"
     borderopacity="1"
     inkscape:showpageshadow="0"
     inkscape:pageopacity="0"
     inkscape:pagecheckerboard="0"
     inkscape:deskcolor="#505050"
     inkscape:document-units="mm"
     inkscape:zoom="0.15508654"
     inkscape:cx="1131.6263"
     inkscape:cy="1112.2822"
     inkscape:window-width="1920"
     inkscape:window-height="1011"
     inkscape:window-x="0"
     inkscape:window-y="32"
     inkscape:window-maximized="1"
     inkscape:current-layer="svg8" />
  <polyline
     z="0"
     points="314.4,705.65 314.4,690.641 309.2,690.641 309.2,675.432 314.4,675.432 314.4,660.623 309.2,660.623 309.2,645.414 314.4,645.414 314.4,630.605 309.2,630.605 309.2,615.395 314.4,615.395 314.4,600.586 309.2,600.586 309.2,585.377 314.4,585.377 314.4,570.568 309.2,570.568 309.2,555.359 314.4,555.359 314.4,540.35 340.164,540.35 340.164,535.15 371.327,535.15 371.327,540.35 402.091,540.35 402.091,535.15 433.255,535.15 433.255,540.35 464.018,540.35 464.018,535.15 495.182,535.15 495.182,540.35 525.945,540.35 525.945,535.15 557.109,535.15 557.109,540.35 587.873,540.35 587.873,535.15 619.036,535.15 619.036,540.35 644.8,540.35 644.8,555.359 650,555.359 650,570.568 644.8,570.568 644.8,585.377 650,585.377 650,600.586 644.8,600.586 644.8,615.395 650,615.395 650,630.605 644.8,630.605 644.8,645.414 650,645.414 650,660.623 644.8,660.623 644.8,675.432 650,675.432 650,690.641 644.8,690.641 644.8,705.65 634.261,705.65 618.328,691.209 601.091,678.425 582.685,667.392 563.285,658.217 543.079,650.988 522.263,645.773 501.034,642.625 479.6,641.571 458.166,642.625 436.937,645.773 416.121,650.988 395.915,658.217 376.515,667.392 358.109,678.425 340.872,691.209 324.939,705.65 314.4,705.65"
     fill="none"
     stroke="#000000"
     stroke-width="0.1mm"
     id="polyline1"
     style="vector-effect:non-scaling-stroke;stroke-width:0.264583;stroke-dasharray:none;-inkscape-stroke:hairline"
     transform="matrix(0,1,1,0,199.52961,-199.99997)" />
  <polyline
     z="0"
     points="314.4,535.15 314.4,504.659 309.2,504.659 309.2,473.968 314.4,473.968 314.4,443.677 309.2,443.677 309.2,412.986 314.4,412.986 314.4,382.695 309.2,382.695 309.2,352.005 314.4,352.005 314.4,321.714 309.2,321.714 309.2,291.023 314.4,291.023 314.4,260.732 309.2,260.732 309.2,230.041 314.4,230.041 314.4,199.55 340.164,199.55 340.164,194.35 371.327,194.35 371.327,199.55 402.091,199.55 402.091,194.35 433.255,194.35 433.255,199.55 464.018,199.55 464.018,194.35 495.182,194.35 495.182,199.55 525.945,199.55 525.945,194.35 557.109,194.35 557.109,199.55 587.873,199.55 587.873,194.35 619.036,194.35 619.036,199.55 644.8,199.55 644.8,230.041 650,230.041 650,260.732 644.8,260.732 644.8,291.023 650,291.023 650,321.714 644.8,321.714 644.8,352.005 650,352.005 650,382.695 644.8,382.695 644.8,412.986 650,412.986 650,443.677 644.8,443.677 644.8,473.968 650,473.968 650,504.659 644.8,504.659 644.8,535.15 314.4,535.15"
     fill="none"
     stroke="#000000"
     stroke-width="0.1mm"
     id="polyline2"
     style="vector-effect:non-scaling-stroke;stroke-width:0.264583;stroke-dasharray:none;-inkscape-stroke:hairline"
     transform="rotate(90,564.5148,364.51483)" />
  <polyline
     z="0"
     points="650,527.76 650,520.17 655.2,520.17 655.2,512.98 650,512.98 650,505.39 655.2,505.39 655.2,498 681.164,498 681.164,503.2 711.927,503.2 711.927,498 743.091,498 743.091,503.2 773.855,503.2 773.855,498 805.018,498 805.018,503.2 835.782,503.2 835.782,498 866.945,498 866.945,503.2 897.709,503.2 897.709,498 928.873,498 928.873,503.2 959.636,503.2 959.636,498 985.6,498 985.6,505.39 990.8,505.39 990.8,512.98 985.6,512.98 985.6,520.17 990.8,520.17 990.8,527.76 985.6,527.76 985.6,535.15 959.636,535.15 959.636,529.95 928.873,529.95 928.873,535.15 897.709,535.15 897.709,529.95 866.945,529.95 866.945,535.15 835.782,535.15 835.782,529.95 805.018,529.95 805.018,535.15 773.855,535.15 773.855,529.95 743.091,529.95 743.091,535.15 711.927,535.15 711.927,529.95 681.164,529.95 681.164,535.15 655.2,535.15 655.2,527.76 650,527.76"
     fill="none"
     stroke="#000000"
     stroke-width="0.1mm"
     id="polyline3"
     style="vector-effect:non-scaling-stroke;stroke-width:0.264583;stroke-dasharray:none;-inkscape-stroke:hairline"
     transform="rotate(90,688.2718,147.47183)" />
  <path
     id="polyline5"
     style="vector-effect:non-scaling-stroke;fill:none;stroke:#000000;stroke-width:0.264583;-inkscape-stroke:hairline"
     d="m 980.15637,358.32698 v -30.29101 h -5 v 30.29101 h 5 m 0.2,91.673 v -30.69101 h -5.2 v -30.291 h 5.2 v -23.593 h 5.521 l 13.529,-13.529 v -8.13199 h -5.2 v -7.79101 h 5.2 v -8.191 h -5.2 v -7.791 h 5.2 v -8.19 h -5.2 v -7.791 h 5.2 v -8.158 l -4.927,-2.041 -14.123,14.123 v -10.589 h -5.2 v -30.29 h 5.2 v -30.691 h -5.2 v -30.291 h 5.2 v -30.691 h -5.2 v -30.29101 h 5.2 v -35.89099 h -7.59 v 5.2 h -7.19 v -5.2 h -7.59 v 5.2 h -7.19 v -5.2 h -7.59 v 20.409 h 5.2 v 14.809 h -5.2 v 15.20899 h 5.2 v 14.80901 h -5.2 v 15.209 h 5.2 v 14.81 h -5.2 v 15.209 h 5.2 v 14.809 h -5.2 v 15.209 h 5.2 v 14.809 h -5.2 v 15.11801 l 31.767,170.391 h 5.383" />
  <path
     id="polyline7"
     style="vector-effect:non-scaling-stroke;fill:none;stroke:#000000;stroke-width:0.264583;-inkscape-stroke:hairline"
     d="m 923.95637,532.62607 v -30.291 h -5 v 30.291 h 5 m 0.2,121.963 h -5.2 v -30.291 h 5.2 v -30.691 h -5.2 v -30.29 h 5.2 v -10.589 l 14.123,14.123 4.927,-2.041 v -8.158 h -5.2 v -7.791 h 5.2 v -8.19 h -5.2 v -7.791 h 5.2 v -8.191 h -5.2 v -7.791 h 5.2 v -8.132 l -13.529,-13.529 h -5.521 v -23.593 h -5.2 v -30.291 h 5.2 v -30.69099 h -5.383 l -31.767,170.39099 v 15.118 h 5.2 v 14.809 h -5.2 v 15.209 h 5.2 v 14.809 h -5.2 v 15.209 h 5.2 v 14.81 h -5.2 v 15.209 h 5.2 v 14.809 h -5.2 v 15.209 h 5.2 v 14.809 h -5.2 v 20.409 h 7.59 v -5.2 h 7.19 v 5.2 h 7.59 v -5.2 h 7.19 v 5.2 h 7.59 v -35.891 h -5.2 v -30.291 h 5.2 v -30.691" />
  <path
     id="polyline5-0"
     style="vector-effect:non-scaling-stroke;fill:none;stroke:#000000;stroke-width:0.264583;-inkscape-stroke:hairline"
     d="m 962.45637,502.33507 v 30.291 h 5 v -30.291 h -5 m -0.2,-91.67301 v 30.691 h 5.2 v 30.29101 h -5.2 v 23.593 h -5.521 l -13.529,13.529 v 8.132 h 5.2 v 7.791 h -5.2 v 8.191 h 5.2 v 7.791 h -5.2 v 8.19 h 5.2 v 7.791 h -5.2 v 8.158 l 4.927,2.041 14.123,-14.123 v 10.589 h 5.2 v 30.29 h -5.2 v 30.691 h 5.2 v 30.291 h -5.2 v 30.691 h 5.2 v 30.291 h -5.2 v 35.8909 h 7.59 v -5.2 h 7.19 v 5.2 h 7.59 v -5.2 h 7.19 v 5.2 h 7.59 v -20.4089 h -5.2 v -14.809 h 5.2 v -15.209 h -5.2 v -14.809 h 5.2 v -15.209 h -5.2 v -14.81 h 5.2 v -15.209 h -5.2 v -14.809 h 5.2 v -15.209 h -5.2 v -14.809 h 5.2 v -15.118 l -31.767,-170.39101 h -5.383" />
  <path
     id="polyline7-6"
     style="vector-effect:non-scaling-stroke;fill:none;stroke:#000000;stroke-width:0.264583;-inkscape-stroke:hairline"
     d="m 906.25637,328.03604 v 30.291 h 5 v -30.291 h -5 m -0.2,-121.963 h 5.2 v 30.291 h -5.2 v 30.691 h 5.2 v 30.29 h -5.2 v 10.589 l -14.123,-14.123 -4.927,2.041 v 8.158 h 5.2 v 7.791 h -5.2 v 8.19 h 5.2 v 7.791 h -5.2 v 8.191 h 5.2 v 7.791 h -5.2 v 8.132 l 13.529,13.529 h 5.521 v 23.593 h 5.2 v 30.29105 h -5.2 v 30.6909 h 5.383 l 31.767,-170.39096 v -15.118 h -5.2 v -14.809 h 5.2 v -15.20899 h -5.2 v -14.809 h 5.2 v -15.209 h -5.2 v -14.81 h 5.2 v -15.209 h -5.2 v -14.809 h 5.2 v -15.209 h -5.2 v -14.80901 h 5.2 v -20.409 h -7.59 v 5.2 h -7.19 v -5.2 h -7.59 v 5.2 h -7.19 v -5.2 h -7.59 v 35.891 h 5.2 v 30.29101 h -5.2 v 30.691" />
  <polyline
     z="0"
     points="985.6,649.514 985.6,657.505 990.8,657.505 990.8,665.696 985.6,665.696 985.6,673.487 990.8,673.487 990.8,681.677 985.6,681.677 985.6,689.468 990.8,689.468 990.8,697.659 985.6,697.659 985.6,705.65 655.2,705.65 655.2,697.659 650,697.659 650,689.468 655.2,689.468 655.2,681.677 650,681.677 650,673.487 655.2,673.487 655.2,665.696 650,665.696 650,657.505 655.2,657.505 655.2,649.514 985.6,649.514"
     fill="none"
     stroke="#000000"
     stroke-width="0.1mm"
     id="polyline8"
     style="vector-effect:non-scaling-stroke;stroke-width:0.264583;stroke-dasharray:none;-inkscape-stroke:hairline"
     transform="rotate(90,792.0968,251.29683)" />
  <polyline
     z="0"
     points="314.4,705.65 314.4,690.641 309.2,690.641 309.2,675.432 314.4,675.432 314.4,660.623 309.2,660.623 309.2,645.414 314.4,645.414 314.4,630.605 309.2,630.605 309.2,615.395 314.4,615.395 314.4,600.586 309.2,600.586 309.2,585.377 314.4,585.377 314.4,570.568 309.2,570.568 309.2,555.359 314.4,555.359 314.4,540.35 340.164,540.35 340.164,535.15 371.327,535.15 371.327,540.35 402.091,540.35 402.091,535.15 433.255,535.15 433.255,540.35 464.018,540.35 464.018,535.15 495.182,535.15 495.182,540.35 525.945,540.35 525.945,535.15 557.109,535.15 557.109,540.35 587.873,540.35 587.873,535.15 619.036,535.15 619.036,540.35 644.8,540.35 644.8,555.359 650,555.359 650,570.568 644.8,570.568 644.8,585.377 650,585.377 650,600.586 644.8,600.586 644.8,615.395 650,615.395 650,630.605 644.8,630.605 644.8,645.414 650,645.414 650,660.623 644.8,660.623 644.8,675.432 650,675.432 650,690.641 644.8,690.641 644.8,705.65 634.261,705.65 618.328,691.209 601.091,678.425 582.685,667.392 563.285,658.217 543.079,650.988 522.263,645.773 501.034,642.625 479.6,641.571 458.166,642.625 436.937,645.773 416.121,650.988 395.915,658.217 376.515,667.392 358.109,678.425 340.872,691.209 324.939,705.65 314.4,705.65"
     fill="none"
     stroke="#000000"
     stroke-width="0.1mm"
     id="polyline1-1"
     style="vector-effect:non-scaling-stroke;stroke-width:0.264583;stroke-dasharray:none;-inkscape-stroke:hairline"
     transform="rotate(-90,649.76483,450.2352)" />
  <polyline
     z="0"
     points="314.4,535.15 314.4,504.659 309.2,504.659 309.2,473.968 314.4,473.968 314.4,443.677 309.2,443.677 309.2,412.986 314.4,412.986 314.4,382.695 309.2,382.695 309.2,352.005 314.4,352.005 314.4,321.714 309.2,321.714 309.2,291.023 314.4,291.023 314.4,260.732 309.2,260.732 309.2,230.041 314.4,230.041 314.4,199.55 340.164,199.55 340.164,194.35 371.327,194.35 371.327,199.55 402.091,199.55 402.091,194.35 433.255,194.35 433.255,199.55 464.018,199.55 464.018,194.35 495.182,194.35 495.182,199.55 525.945,199.55 525.945,194.35 557.109,194.35 557.109,199.55 587.873,199.55 587.873,194.35 619.036,194.35 619.036,199.55 644.8,199.55 644.8,230.041 650,230.041 650,260.732 644.8,260.732 644.8,291.023 650,291.023 650,321.714 644.8,321.714 644.8,352.005 650,352.005 650,382.695 644.8,382.695 644.8,412.986 650,412.986 650,443.677 644.8,443.677 644.8,473.968 650,473.968 650,504.659 644.8,504.659 644.8,535.15 314.4,535.15"
     fill="none"
     stroke="#000000"
     stroke-width="0.1mm"
     id="polyline2-5"
     style="vector-effect:non-scaling-stroke;stroke-width:0.264583;stroke-dasharray:none;-inkscape-stroke:hairline"
     transform="rotate(90,394.1148,534.91483)" />
  <polyline
     z="0"
     points="650,527.76 650,520.17 655.2,520.17 655.2,512.98 650,512.98 650,505.39 655.2,505.39 655.2,498 681.164,498 681.164,503.2 711.927,503.2 711.927,498 743.091,498 743.091,503.2 773.855,503.2 773.855,498 805.018,498 805.018,503.2 835.782,503.2 835.782,498 866.945,498 866.945,503.2 897.709,503.2 897.709,498 928.873,498 928.873,503.2 959.636,503.2 959.636,498 985.6,498 985.6,505.39 990.8,505.39 990.8,512.98 985.6,512.98 985.6,520.17 990.8,520.17 990.8,527.76 985.6,527.76 985.6,535.15 959.636,535.15 959.636,529.95 928.873,529.95 928.873,535.15 897.709,535.15 897.709,529.95 866.945,529.95 866.945,535.15 835.782,535.15 835.782,529.95 805.018,529.95 805.018,535.15 773.855,535.15 773.855,529.95 743.091,529.95 743.091,535.15 711.927,535.15 711.927,529.95 681.164,529.95 681.164,535.15 655.2,535.15 655.2,527.76 650,527.76"
     fill="none"
     stroke="#000000"
     stroke-width="0.1mm"
     id="polyline3-9"
     style="vector-effect:non-scaling-stroke;stroke-width:0.264583;stroke-dasharray:none;-inkscape-stroke:hairline"
     transform="rotate(90,517.8718,317.87183)" />
  <polyline
     z="0"
     points="985.6,649.514 985.6,657.505 990.8,657.505 990.8,665.696 985.6,665.696 985.6,673.487 990.8,673.487 990.8,681.677 985.6,681.677 985.6,689.468 990.8,689.468 990.8,697.659 985.6,697.659 985.6,705.65 655.2,705.65 655.2,697.659 650,697.659 650,689.468 655.2,689.468 655.2,681.677 650,681.677 650,673.487 655.2,673.487 655.2,665.696 650,665.696 650,657.505 655.2,657.505 655.2,649.514 985.6,649.514"
     fill="none"
     stroke="#000000"
     stroke-width="0.1mm"
     id="polyline8-4"
     style="vector-effect:non-scaling-stroke;stroke-width:0.264583;stroke-dasharray:none;-inkscape-stroke:hairline"
     transform="rotate(90,621.6968,421.69683)" />
</svg>
