Cleat Wall Organization Equipment
Copyright (C) 2025  Corporate Hacks

This program is free software: you can redistribute it and/or modify
it under the terms of the GNU General Public License as published by
the Free Software Foundation, either version 3 of the License, or
(at your option) any later version.

This program is distributed in the hope that it will be useful,
but WITHOUT ANY WARRANTY; without even the implied warranty of
MERCHANTABILITY or FITNESS FOR A PARTICULAR PURPOSE.  See the
GNU General Public License for more details.

You should have received a copy of the GNU General Public License
along with this program.  If not, see <http://www.gnu.org/licenses/>.


<svg xmlns="http://www.w3.org/2000/svg" width="1300mm" height="900mm" viewBox="0 0 1300 900">
    <path fill="none" stroke="#000" stroke-width=".1mm" d="M334.5 638.5v-9.236h-5.2v-9.437h5.2v-9.036h-5.2v-9.436h5.2v-9.037h-5.2v-9.436h5.2v-9.037h-5.2v-9.436h5.2v-9.036h-5.2v-9.437h5.2V536.7h14.218v-5.2h19.618v5.2h19.219v-5.2h19.618v5.2h19.218v-5.2h19.618v5.2h19.218v-5.2h19.618v5.2h19.219v-5.2h19.618v5.2H537.9v9.236h5.2v9.437h-5.2v9.036h5.2v9.436h-5.2v9.037h5.2v9.436h-5.2v9.037h5.2v9.436h-5.2v9.036h5.2v9.437h-5.2v9.236h-10.539l-9.403-8.523-10.159-7.534-10.847-6.502-11.433-5.408-11.908-4.26-12.268-3.073-12.511-1.855-12.632-.621-12.632.621-12.511 1.855-12.268 3.073-11.908 4.26-11.433 5.408-10.847 6.502-10.159 7.534-9.403 8.523H334.5" style="vector-effect:non-scaling-stroke;fill:none;fill-opacity:1;stroke:#000;stroke-width:.264583;stroke-dasharray:none;stroke-opacity:1;-inkscape-stroke:hairline" transform="rotate(-90 472.647 306.653)"/>
    <path d="M816.241 450v-19.145h5.2V412.11h-5v16.816h-5.72l-13.53-13.529v-8.132h5.2v-7.79h-5.2v-8.192h5.2v-7.79h-5.2v-8.19h5.2v-7.792h-5.2v-8.158l4.928-2.04 14.122 14.122v-16.36h5.2v-18.747h-5.2v-19.145h5.2v-18.746h-5.2v-19.145h5.2v-18.746h-5.2V236.2h7.59v5.2h7.19v-5.2h7.59v5.2h7.19v-5.2h7.59v14.636h-5.2v9.037h5.2v9.436h-5.2v9.036h5.2v9.437h-5.2v9.036h5.2v9.437h-5.2v9.036h5.2v9.436h-5.2v9.037h5.2v9.351L821.618 450zm.2-57.036h5v-18.746h-5z" style="vector-effect:non-scaling-stroke;fill:none;fill-opacity:1;stroke:#000;stroke-width:.264583;stroke-dasharray:none;stroke-opacity:1;-inkscape-stroke:hairline"/>
    <path fill="none" stroke="#000" stroke-width=".1mm" d="M537.9 475.3H334.5v-18.945h-5.2v-19.146h5.2v-18.745h-5.2v-19.146h5.2v-18.745h-5.2v-19.146h5.2v-18.745h-5.2v-19.146h5.2v-18.745h-5.2v-19.146h5.2V266.7h14.218v-5.2h19.618v5.2h19.219v-5.2h19.618v5.2h19.218v-5.2h19.618v5.2h19.218v-5.2h19.618v5.2h19.219v-5.2h19.618v5.2H537.9v18.945h5.2v19.146h-5.2v18.745h5.2v19.146h-5.2v18.745h5.2v19.146h-5.2v18.745h5.2v19.146h-5.2v18.745h5.2v19.146h-5.2V475.3" style="vector-effect:non-scaling-stroke;fill:none;fill-opacity:1;stroke:#000;stroke-width:.264583;stroke-dasharray:none;stroke-opacity:1;-inkscape-stroke:hairline" transform="rotate(90 526.047 432.947)"/>
    <path d="M872.442 639.078v-24.345h5.2v-18.746h-5.2v-19.145h5.2v-18.747h-5.2V538.95h5.2v-18.745h-5.2v-16.362l-14.123 14.124-4.927-2.042v-8.157h5.2v-7.792h-5.2v-8.19h5.2v-7.79h-5.2v-8.192h5.2v-7.79h-5.2v-8.132l13.528-13.53h5.722v16.816h5v-18.745h-5.2v-19.145h5.375l31.775 106.885v9.35h-5.2v9.038h5.2v9.436h-5.2v9.035h5.2v9.438h-5.2v9.036h5.2v9.436h-5.2v9.036h5.2v9.437h-5.2v9.037h5.2v14.636h-7.59v-5.2h-7.19v5.2h-7.59v-5.2h-7.19v5.2zm.2-138.018h5v-18.747h-5zM834.342 425.278v19.145h-5.2v18.746h5v-16.816h5.72l13.53 13.53v8.131h-5.2v7.791h5.2v8.192h-5.2v7.79h5.2v8.19h-5.2v7.791h5.2v8.158l-4.928 2.041-14.122-14.123v16.361h-5.2v18.746h5.2v19.145h-5.2v18.747h5.2v19.144h-5.2v18.746h5.2v24.346h-7.59v-5.2h-7.19v5.2h-7.59v-5.2h-7.19v5.2h-7.59v-14.637h5.2v-9.037h-5.2v-9.436h5.2v-9.036h-5.2v-9.437h5.2v-9.035h-5.2v-9.438h5.2v-9.036h-5.2v-9.436h5.2v-9.036h-5.2v-9.352l31.774-106.885Zm-.2 57.037h-5v18.745h5z" style="vector-effect:non-scaling-stroke;fill:none;fill-opacity:1;stroke:#000;stroke-width:.264583;stroke-dasharray:none;stroke-opacity:1;-inkscape-stroke:hairline"/>
    <path d="M890.542 236.2v24.345h-5.2v18.746h5.2v19.145h-5.2v18.746h5.2v19.145h-5.2v18.746h5.2v16.361l14.122-14.123 4.928 2.041v8.158h-5.2v7.791h5.2v8.19h-5.2v7.791h5.2v8.191h-5.2v7.791h5.2v8.132l-13.53 13.53h-5.72v-16.817h-5v18.746h5.2V450h-5.376l-31.774-106.885v-9.35h5.2v-9.038h-5.2v-9.436h5.2v-9.036h-5.2v-9.437h5.2v-9.036h-5.2v-9.437h5.2v-9.036h-5.2v-9.436h5.2v-9.037h-5.2V236.2h7.59v5.2h7.19v-5.2h7.59v5.2h7.19v-5.2zm-.2 138.018h-5v18.746h5z" style="vector-effect:non-scaling-stroke;fill:none;fill-opacity:1;stroke:#000;stroke-width:.264583;stroke-dasharray:none;stroke-opacity:1;-inkscape-stroke:hairline"/>
    <path fill="none" stroke="#000" stroke-width=".1mm" d="M548.3 582.364h203.4v7.991h5.2v8.191h-5.2v7.791h5.2v8.19h-5.2v7.791h5.2v8.191h-5.2v7.991H548.3v-7.991h-5.2v-8.191h5.2v-7.791h-5.2v-8.19h5.2v-7.791h-5.2v-8.191h5.2v-7.991" style="vector-effect:non-scaling-stroke;fill:none;fill-opacity:1;stroke:#000;stroke-width:.264583;stroke-dasharray:none;stroke-opacity:1;-inkscape-stroke:hairline" transform="rotate(90 686.48 379.58)"/>
    <path fill="none" stroke="#000" stroke-width=".1mm" d="M756.9 608.74h5.2v-7.39h14.418v5.2h19.218v-5.2h19.619v5.2h19.218v-5.2h19.618v5.2h19.218v-5.2h19.618v5.2h19.218v-5.2h19.619v5.2h19.218v-5.2H965.5v7.39h5.2v7.59h-5.2v7.19h5.2v7.59h-5.2v7.39h-14.418v-5.2h-19.218v5.2h-19.619v-5.2h-19.218v5.2h-19.618v-5.2h-19.218v5.2h-19.618v-5.2h-19.218v5.2h-19.619v-5.2h-19.218v5.2H762.1v-7.39h-5.2v-7.59h5.2v-7.19h-5.2v-7.59" style="vector-effect:non-scaling-stroke;fill:none;fill-opacity:1;stroke:#000;stroke-width:.264583;stroke-dasharray:none;stroke-opacity:1;-inkscape-stroke:hairline" transform="rotate(-90 497.98 708.92)"/>
    <path fill="none" stroke="#000" stroke-width=".1mm" d="M334.5 638.5v-9.236h-5.2v-9.437h5.2v-9.036h-5.2v-9.436h5.2v-9.037h-5.2v-9.436h5.2v-9.037h-5.2v-9.436h5.2v-9.036h-5.2v-9.437h5.2V536.7h14.218v-5.2h19.618v5.2h19.219v-5.2h19.618v5.2h19.218v-5.2h19.618v5.2h19.218v-5.2h19.618v5.2h19.219v-5.2h19.618v5.2H537.9v9.236h5.2v9.437h-5.2v9.036h5.2v9.436h-5.2v9.037h5.2v9.436h-5.2v9.037h5.2v9.436h-5.2v9.036h5.2v9.437h-5.2v9.236h-10.539l-9.403-8.523-10.159-7.534-10.847-6.502-11.433-5.408-11.908-4.26-12.268-3.073-12.511-1.855-12.632-.621-12.632.621-12.511 1.855-12.268 3.073-11.908 4.26-11.433 5.408-10.847 6.502-10.159 7.534-9.403 8.523H334.5" style="vector-effect:non-scaling-stroke;fill:none;fill-opacity:1;stroke:#000;stroke-width:.264583;stroke-dasharray:none;stroke-opacity:1;-inkscape-stroke:hairline" transform="rotate(-90 579.547 413.553)"/>
    <path fill="none" stroke="#000" stroke-width=".1mm" d="M537.9 475.3H334.5v-18.945h-5.2v-19.146h5.2v-18.745h-5.2v-19.146h5.2v-18.745h-5.2v-19.146h5.2v-18.745h-5.2v-19.146h5.2v-18.745h-5.2v-19.146h5.2V266.7h14.218v-5.2h19.618v5.2h19.219v-5.2h19.618v5.2h19.218v-5.2h19.618v5.2h19.218v-5.2h19.618v5.2h19.219v-5.2h19.618v5.2H537.9v18.945h5.2v19.146h-5.2v18.745h5.2v19.146h-5.2v18.745h5.2v19.146h-5.2v18.745h5.2v19.146h-5.2v18.745h5.2v19.146h-5.2V475.3" style="vector-effect:non-scaling-stroke;fill:none;fill-opacity:1;stroke:#000;stroke-width:.264583;stroke-dasharray:none;stroke-opacity:1;-inkscape-stroke:hairline" transform="rotate(90 419.147 539.847)"/>
    <path fill="none" stroke="#000" stroke-width=".1mm" d="M548.3 582.364h203.4v7.991h5.2v8.191h-5.2v7.791h5.2v8.19h-5.2v7.791h5.2v8.191h-5.2v7.991H548.3v-7.991h-5.2v-8.191h5.2v-7.791h-5.2v-8.19h5.2v-7.791h-5.2v-8.191h5.2v-7.991" style="vector-effect:non-scaling-stroke;fill:none;fill-opacity:1;stroke:#000;stroke-width:.264583;stroke-dasharray:none;stroke-opacity:1;-inkscape-stroke:hairline" transform="rotate(90 579.58 486.48)"/>
    <path fill="none" stroke="#000" stroke-width=".1mm" d="M756.9 608.74h5.2v-7.39h14.418v5.2h19.218v-5.2h19.619v5.2h19.218v-5.2h19.618v5.2h19.218v-5.2h19.618v5.2h19.218v-5.2h19.619v5.2h19.218v-5.2H965.5v7.39h5.2v7.59h-5.2v7.19h5.2v7.59h-5.2v7.39h-14.418v-5.2h-19.218v5.2h-19.619v-5.2h-19.218v5.2h-19.618v-5.2h-19.218v5.2h-19.618v-5.2h-19.218v5.2h-19.619v-5.2h-19.218v5.2H762.1v-7.39h-5.2v-7.59h5.2v-7.19h-5.2v-7.59" style="vector-effect:non-scaling-stroke;fill:none;fill-opacity:1;stroke:#000;stroke-width:.264583;stroke-dasharray:none;stroke-opacity:1;-inkscape-stroke:hairline" transform="rotate(-90 604.88 815.82)"/>
</svg>
