<?xml version="1.0" encoding="UTF-8" standalone="no"?>
<svg
   width="1300mm"
   height="900mm"
   viewBox="0 0 1300 900"
   version="1.1"
   id="svg8"
   sodipodi:docname="CoatHanger.svg"
   inkscape:version="1.3.2 (091e20ef0f, 2023-11-25)"
   xmlns:inkscape="http://www.inkscape.org/namespaces/inkscape"
   xmlns:sodipodi="http://sodipodi.sourceforge.net/DTD/sodipodi-0.dtd"
   xmlns="http://www.w3.org/2000/svg"
   xmlns:svg="http://www.w3.org/2000/svg">
  <defs
     id="defs8" />
  <sodipodi:namedview
     id="namedview8"
     pagecolor="#505050"
     bordercolor="#eeeeee"
     borderopacity="1"
     inkscape:showpageshadow="0"
     inkscape:pageopacity="0"
     inkscape:pagecheckerboard="0"
     inkscape:deskcolor="#505050"
     inkscape:document-units="mm"
     inkscape:zoom="0.43865098"
     inkscape:cx="3176.7854"
     inkscape:cy="1729.1652"
     inkscape:window-width="1920"
     inkscape:window-height="1011"
     inkscape:window-x="0"
     inkscape:window-y="32"
     inkscape:window-maximized="1"
     inkscape:current-layer="svg8" />
  <polyline
     z="0"
     points="658.033,441.03 651.551,434.548 651.203,434.165 650.893,433.747 650.626,433.3 650.404,432.83 650.228,432.341 650.102,431.837 650.025,431.322 650,430.804 650,428.531 674.94,428.531 674.94,423.531 650,423.531 650,416.981 655.2,416.981 655.2,410.831 650,410.831 650,409.481 656.077,409.481 656.077,404.281 664.268,404.281 664.268,409.481 672.059,409.481 672.059,404.281 680.249,404.281 680.249,409.481 688.04,409.481 688.04,404.281 696.198,404.281 698.239,409.208 684.116,423.331 700.08,423.331 700.08,428.531 724.82,428.531 724.82,423.331 749.96,423.331 749.96,428.531 774.9,428.531 774.9,435.831 769.7,435.831 769.7,442.731 774.9,442.731 774.9,450.031 769.7,450.031 769.7,456.931 774.9,456.931 774.9,464.185 763.172,471.841 760.329,467.486 748.897,474.949 751.74,479.303 739.974,486.984 737.131,482.629 725.699,490.092 728.542,494.446 713.798,504.07 713.359,504.328 712.897,504.542 712.415,504.711 711.918,504.833 711.413,504.907 710.905,504.931 702.112,504.931 701.599,504.906 701.089,504.831 700.587,504.707 700.101,504.534 699.634,504.314 699.19,504.052 698.766,503.741 698.458,503.321 698.198,502.884 697.98,502.423 697.807,501.944 697.682,501.45 697.603,500.948 697.575,500.439 697.595,499.929 697.664,499.425 697.78,498.932 699.847,491.728 699.997,491.283 700.186,490.851 700.414,490.437 700.677,490.045 700.974,489.678 701.303,489.339 701.66,489.03 702.043,488.756 712.62,481.851 711.267,486.565 716.073,487.944 720.553,472.337 715.555,470.902 720.145,454.908 725.143,456.343 729.623,440.735 724.818,439.356 721.331,451.504 713.904,444.076 713.531,443.738 713.129,443.44 712.7,443.183 712.248,442.97 711.777,442.801 711.292,442.679 710.796,442.606 710.294,442.581 661.777,442.581 661.259,442.556 660.744,442.479 660.24,442.353 659.751,442.177 659.281,441.955 658.834,441.688 658.416,441.378 658.033,441.03"
     fill="none"
     stroke="#000000"
     stroke-width="0.1mm"
     id="polyline5"
     style="vector-effect:non-scaling-stroke;stroke-width:0.264583;stroke-dasharray:none;-inkscape-stroke:hairline"
     transform="rotate(-90,601.14287,486.29913)" />
  <polyline
     z="0"
     points="589.095,504.931 588.587,504.907 588.082,504.833 587.585,504.711 587.103,504.542 586.641,504.328 586.202,504.07 571.458,494.446 574.301,490.092 562.869,482.629 560.026,486.984 548.26,479.303 551.103,474.949 539.671,467.486 536.828,471.841 525.1,464.185 525.1,456.931 530.3,456.931 530.3,450.031 525.1,450.031 525.1,442.731 530.3,442.731 530.3,435.831 525.1,435.831 525.1,428.531 550.04,428.531 550.04,423.331 575.18,423.331 575.18,428.531 599.92,428.531 599.92,423.331 615.884,423.331 601.761,409.208 603.802,404.281 611.96,404.281 611.96,409.481 619.751,409.481 619.751,404.281 627.941,404.281 627.941,409.481 635.732,409.481 635.732,404.281 643.923,404.281 643.923,409.481 650,409.481 650,410.831 644.8,410.831 644.8,416.981 650,416.981 650,423.531 625.06,423.531 625.06,428.531 650,428.531 650,430.804 649.975,431.322 649.898,431.837 649.772,432.341 649.596,432.83 649.374,433.3 649.107,433.747 648.797,434.165 648.449,434.548 641.967,441.03 641.584,441.378 641.166,441.688 640.719,441.955 640.249,442.177 639.76,442.353 639.256,442.479 638.741,442.556 638.223,442.581 589.706,442.581 589.204,442.606 588.708,442.679 588.223,442.801 587.752,442.97 587.3,443.183 586.871,443.44 586.469,443.738 586.096,444.076 578.669,451.504 575.182,439.356 570.377,440.735 574.857,456.343 579.855,454.908 584.445,470.902 579.447,472.337 583.927,487.944 588.733,486.565 587.38,481.851 597.957,488.756 598.34,489.03 598.697,489.339 599.026,489.678 599.323,490.045 599.586,490.437 599.814,490.851 600.003,491.283 600.153,491.728 602.22,498.932 602.336,499.425 602.405,499.929 602.425,500.439 602.397,500.948 602.318,501.45 602.193,501.944 602.02,502.423 601.802,502.884 601.542,503.321 601.235,503.741 600.81,504.052 600.366,504.314 599.899,504.534 599.413,504.707 598.911,504.831 598.401,504.906 597.888,504.931 589.095,504.931"
     fill="none"
     stroke="#000000"
     stroke-width="0.1mm"
     id="polyline4-0"
     style="vector-effect:non-scaling-stroke;stroke-width:0.264583;stroke-dasharray:none;-inkscape-stroke:hairline"
     transform="matrix(0,-1,-1,0,1062.3557,975.10001)" />
  <polyline
     z="0"
     points="658.033,441.03 651.551,434.548 651.203,434.165 650.893,433.747 650.626,433.3 650.404,432.83 650.228,432.341 650.102,431.837 650.025,431.322 650,430.804 650,428.531 674.94,428.531 674.94,423.531 650,423.531 650,416.981 655.2,416.981 655.2,410.831 650,410.831 650,409.481 656.077,409.481 656.077,404.281 664.268,404.281 664.268,409.481 672.059,409.481 672.059,404.281 680.249,404.281 680.249,409.481 688.04,409.481 688.04,404.281 696.198,404.281 698.239,409.208 684.116,423.331 700.08,423.331 700.08,428.531 724.82,428.531 724.82,423.331 749.96,423.331 749.96,428.531 774.9,428.531 774.9,435.831 769.7,435.831 769.7,442.731 774.9,442.731 774.9,450.031 769.7,450.031 769.7,456.931 774.9,456.931 774.9,464.185 763.172,471.841 760.329,467.486 748.897,474.949 751.74,479.303 739.974,486.984 737.131,482.629 725.699,490.092 728.542,494.446 713.798,504.07 713.359,504.328 712.897,504.542 712.415,504.711 711.918,504.833 711.413,504.907 710.905,504.931 702.112,504.931 701.599,504.906 701.089,504.831 700.587,504.707 700.101,504.534 699.634,504.314 699.19,504.052 698.766,503.741 698.458,503.321 698.198,502.884 697.98,502.423 697.807,501.944 697.682,501.45 697.603,500.948 697.575,500.439 697.595,499.929 697.664,499.425 697.78,498.932 699.847,491.728 699.997,491.283 700.186,490.851 700.414,490.437 700.677,490.045 700.974,489.678 701.303,489.339 701.66,489.03 702.043,488.756 712.62,481.851 711.267,486.565 716.073,487.944 720.553,472.337 715.555,470.902 720.145,454.908 725.143,456.343 729.623,440.735 724.818,439.356 721.331,451.504 713.904,444.076 713.531,443.738 713.129,443.44 712.7,443.183 712.248,442.97 711.777,442.801 711.292,442.679 710.796,442.606 710.294,442.581 661.777,442.581 661.259,442.556 660.744,442.479 660.24,442.353 659.751,442.177 659.281,441.955 658.834,441.688 658.416,441.378 658.033,441.03"
     fill="none"
     stroke="#000000"
     stroke-width="0.1mm"
     id="polyline5-1"
     style="vector-effect:non-scaling-stroke;stroke-width:0.264583;stroke-dasharray:none;-inkscape-stroke:hairline"
     transform="matrix(0,1,1,0,114.84372,-187.44201)" />
  <polyline
     z="0"
     points="589.095,504.931 588.587,504.907 588.082,504.833 587.585,504.711 587.103,504.542 586.641,504.328 586.202,504.07 571.458,494.446 574.301,490.092 562.869,482.629 560.026,486.984 548.26,479.303 551.103,474.949 539.671,467.486 536.828,471.841 525.1,464.185 525.1,456.931 530.3,456.931 530.3,450.031 525.1,450.031 525.1,442.731 530.3,442.731 530.3,435.831 525.1,435.831 525.1,428.531 550.04,428.531 550.04,423.331 575.18,423.331 575.18,428.531 599.92,428.531 599.92,423.331 615.884,423.331 601.761,409.208 603.802,404.281 611.96,404.281 611.96,409.481 619.751,409.481 619.751,404.281 627.941,404.281 627.941,409.481 635.732,409.481 635.732,404.281 643.923,404.281 643.923,409.481 650,409.481 650,410.831 644.8,410.831 644.8,416.981 650,416.981 650,423.531 625.06,423.531 625.06,428.531 650,428.531 650,430.804 649.975,431.322 649.898,431.837 649.772,432.341 649.596,432.83 649.374,433.3 649.107,433.747 648.797,434.165 648.449,434.548 641.967,441.03 641.584,441.378 641.166,441.688 640.719,441.955 640.249,442.177 639.76,442.353 639.256,442.479 638.741,442.556 638.223,442.581 589.706,442.581 589.204,442.606 588.708,442.679 588.223,442.801 587.752,442.97 587.3,443.183 586.871,443.44 586.469,443.738 586.096,444.076 578.669,451.504 575.182,439.356 570.377,440.735 574.857,456.343 579.855,454.908 584.445,470.902 579.447,472.337 583.927,487.944 588.733,486.565 587.38,481.851 597.957,488.756 598.34,489.03 598.697,489.339 599.026,489.678 599.323,490.045 599.586,490.437 599.814,490.851 600.003,491.283 600.153,491.728 602.22,498.932 602.336,499.425 602.405,499.929 602.425,500.439 602.397,500.948 602.318,501.45 602.193,501.944 602.02,502.423 601.802,502.884 601.542,503.321 601.235,503.741 600.81,504.052 600.366,504.314 599.899,504.534 599.413,504.707 598.911,504.831 598.401,504.906 597.888,504.931 589.095,504.931"
     fill="none"
     stroke="#000000"
     stroke-width="0.1mm"
     id="polyline4-0-9"
     style="vector-effect:non-scaling-stroke;stroke-width:0.264583;stroke-dasharray:none;-inkscape-stroke:hairline"
     transform="rotate(90,568.72786,493.62788)" />
  <polyline
     z="0"
     points="525.1,620.619 525.1,614.342 530.3,614.342 530.3,606.552 525.1,606.552 525.1,598.361 530.3,598.361 530.3,590.57 525.1,590.57 525.1,582.379 530.3,582.379 530.3,574.389 581.3,574.389 581.3,582.379 586.5,582.379 586.5,590.57 581.3,590.57 581.3,598.361 586.5,598.361 586.5,606.552 581.3,606.552 581.3,614.342 586.5,614.342 586.5,620.619 573.843,620.619 573.843,615.419 566.786,615.419 566.786,620.619 559.329,620.619 559.329,615.419 552.271,615.419 552.271,620.619 544.814,620.619 544.814,615.419 537.757,615.419 537.757,620.619 525.1,620.619"
     fill="none"
     stroke="#000000"
     stroke-width="0.1mm"
     id="polyline1"
     style="vector-effect:non-scaling-stroke;stroke-width:0.264583;stroke-dasharray:none;-inkscape-stroke:hairline"
     transform="translate(194.37527,-29.875)" />
  <polyline
     z="0"
     points="530.3,574.389 530.3,560.537 525.1,560.537 525.1,546.486 530.3,546.486 530.3,532.834 525.1,532.834 525.1,518.783 530.3,518.783 530.3,504.931 540.66,504.931 540.66,509.285 550.62,509.285 550.62,504.931 560.98,504.931 560.98,509.285 570.94,509.285 570.94,504.931 581.3,504.931 581.3,518.783 586.5,518.783 586.5,532.834 581.3,532.834 581.3,546.486 586.5,546.486 586.5,560.537 581.3,560.537 581.3,574.389 530.3,574.389"
     fill="none"
     stroke="#000000"
     stroke-width="0.1mm"
     id="polyline2"
     style="vector-effect:non-scaling-stroke;stroke-width:0.264583;stroke-dasharray:none;-inkscape-stroke:hairline"
     transform="translate(194.37527,-29.875)" />
  <polyline
     z="0"
     points="586.5,592.019 591.7,592.019 591.7,584.919 598.74,584.919 598.74,579.719 611.18,579.719 611.18,584.919 623.22,584.919 623.22,579.719 635.66,579.719 635.66,584.919 642.7,584.919 642.7,592.019 647.9,592.019 647.9,599.319 642.7,599.319 642.7,606.219 647.9,606.219 647.9,613.519 642.7,613.519 642.7,616.265 632.54,616.265 632.54,620.619 622.18,620.619 622.18,616.265 612.22,616.265 612.22,620.619 601.86,620.619 601.86,616.265 591.7,616.265 591.7,613.519 586.5,613.519 586.5,606.219 591.7,606.219 591.7,599.319 586.5,599.319 586.5,592.019"
     fill="none"
     stroke="#000000"
     stroke-width="0.1mm"
     id="polyline3"
     style="vector-effect:non-scaling-stroke;stroke-width:0.264583;stroke-dasharray:none;-inkscape-stroke:hairline"
     transform="translate(132.97527,-145.563)" />
  <path
     id="polyline8"
     style="vector-effect:non-scaling-stroke;fill:none;stroke:#000000;stroke-width:0.264583;-inkscape-stroke:hairline"
     d="m 744.99527,356.264 h -9.96 v -6.291 h 9.96 v 6.291 m 20.32,0 h -9.96 v -6.291 h 9.96 v 6.291 m 15.56,77.892 h -12.44 v -5.2 h -12.04 v 5.2 h -12.44 v -5.2 h -12.04 v 5.2 h -12.44 v -25.14 h 5.2 v -24.74 h -5.2 v -25.14 h 5.2 v -24.74 h -5.2 v -25.14 h 12.44 v 5.2 h 12.04 v -5.2 h 12.44 v 5.2 h 12.04 v -5.2 h 12.44 v 25.14 h -5.2 v 24.74 h 5.2 v 25.14 h -5.2 v 24.74 h 5.2 v 25.14" />
  <polyline
     z="0"
     points="525.1,620.619 525.1,614.342 530.3,614.342 530.3,606.552 525.1,606.552 525.1,598.361 530.3,598.361 530.3,590.57 525.1,590.57 525.1,582.379 530.3,582.379 530.3,574.389 581.3,574.389 581.3,582.379 586.5,582.379 586.5,590.57 581.3,590.57 581.3,598.361 586.5,598.361 586.5,606.552 581.3,606.552 581.3,614.342 586.5,614.342 586.5,620.619 573.843,620.619 573.843,615.419 566.786,615.419 566.786,620.619 559.329,620.619 559.329,615.419 552.271,615.419 552.271,620.619 544.814,620.619 544.814,615.419 537.757,615.419 537.757,620.619 525.1,620.619"
     fill="none"
     stroke="#000000"
     stroke-width="0.1mm"
     id="polyline1-0"
     style="vector-effect:non-scaling-stroke;stroke-width:0.264583;stroke-dasharray:none;-inkscape-stroke:hairline"
     transform="matrix(-1,0,0,1,1244.5752,-29.875)" />
  <polyline
     z="0"
     points="530.3,574.389 530.3,560.537 525.1,560.537 525.1,546.486 530.3,546.486 530.3,532.834 525.1,532.834 525.1,518.783 530.3,518.783 530.3,504.931 540.66,504.931 540.66,509.285 550.62,509.285 550.62,504.931 560.98,504.931 560.98,509.285 570.94,509.285 570.94,504.931 581.3,504.931 581.3,518.783 586.5,518.783 586.5,532.834 581.3,532.834 581.3,546.486 586.5,546.486 586.5,560.537 581.3,560.537 581.3,574.389 530.3,574.389"
     fill="none"
     stroke="#000000"
     stroke-width="0.1mm"
     id="polyline2-3"
     style="vector-effect:non-scaling-stroke;stroke-width:0.264583;stroke-dasharray:none;-inkscape-stroke:hairline"
     transform="matrix(-1,0,0,1,1244.5752,-29.875)" />
  <polyline
     z="0"
     points="586.5,592.019 591.7,592.019 591.7,584.919 598.74,584.919 598.74,579.719 611.18,579.719 611.18,584.919 623.22,584.919 623.22,579.719 635.66,579.719 635.66,584.919 642.7,584.919 642.7,592.019 647.9,592.019 647.9,599.319 642.7,599.319 642.7,606.219 647.9,606.219 647.9,613.519 642.7,613.519 642.7,616.265 632.54,616.265 632.54,620.619 622.18,620.619 622.18,616.265 612.22,616.265 612.22,620.619 601.86,620.619 601.86,616.265 591.7,616.265 591.7,613.519 586.5,613.519 586.5,606.219 591.7,606.219 591.7,599.319 586.5,599.319 586.5,592.019"
     fill="none"
     stroke="#000000"
     stroke-width="0.1mm"
     id="polyline3-4"
     style="vector-effect:non-scaling-stroke;stroke-width:0.264583;stroke-dasharray:none;-inkscape-stroke:hairline"
     transform="matrix(-1,0,0,1,1305.9752,-145.563)" />
  <path
     id="polyline8-9"
     style="vector-effect:non-scaling-stroke;fill:none;stroke:#000000;stroke-width:0.264583;-inkscape-stroke:hairline"
     d="m 693.95527,356.264 h 9.96 v -6.291 h -9.96 v 6.291 m -20.32,0 h 9.96 v -6.291 h -9.96 v 6.291 m -15.56,77.892 h 12.44 v -5.2 h 12.04 v 5.2 h 12.44 v -5.2 h 12.04 v 5.2 h 12.44 v -25.14 h -5.2 v -24.74 h 5.2 v -25.14 h -5.2 v -24.74 h 5.2 v -25.14 h -12.44 v 5.2 h -12.04 v -5.2 h -12.44 v 5.2 h -12.04 v -5.2 h -12.44 v 25.14 h 5.2 v 24.74 h -5.2 v 25.14 h 5.2 v 24.74 h -5.2 v 25.14" />
  <polyline
     z="0"
     points="593.8,485.787 593.8,474.758 588.6,474.758 588.6,458.119 593.8,458.119 593.8,441.881 588.6,441.881 588.6,425.242 593.8,425.242 593.8,408.803 644.8,408.803 644.8,425.242 650,425.242 650,441.881 644.8,441.881 644.8,458.119 650,458.119 650,474.758 644.8,474.758 644.8,485.787 634.64,485.787 634.64,491.197 624.28,491.197 624.28,485.787 614.32,485.787 614.32,491.197 603.96,491.197 603.96,485.787 593.8,485.787"
     fill="none"
     stroke="#000000"
     stroke-width="0.1mm"
     id="polyline1-04"
     style="vector-effect:non-scaling-stroke;stroke-width:0.264583;stroke-dasharray:none;-inkscape-stroke:hairline"
     transform="translate(192.27526,-17.152991)" />
  <polyline
     z="0"
     points="650,479.647 650,473.097 655.2,473.097 655.2,471.947 662.457,471.947 662.457,466.747 669.914,466.747 669.914,471.947 676.971,471.947 676.971,466.747 684.429,466.747 684.429,471.947 691.486,471.947 691.486,466.747 698.943,466.747 698.943,471.947 706.2,471.947 706.2,473.097 711.4,473.097 711.4,479.647 706.2,479.647 706.2,485.997 699.16,485.997 699.16,491.197 686.72,491.197 686.72,485.997 674.68,485.997 674.68,491.197 662.24,491.197 662.24,485.997 655.2,485.997 655.2,479.647 650,479.647"
     fill="none"
     stroke="#000000"
     stroke-width="0.1mm"
     id="polyline2-6"
     style="vector-effect:non-scaling-stroke;stroke-width:0.264583;stroke-dasharray:none;-inkscape-stroke:hairline"
     transform="translate(130.87526,31.746999)" />
  <polyline
     z="0"
     points="593.8,485.787 593.8,474.758 588.6,474.758 588.6,458.119 593.8,458.119 593.8,441.881 588.6,441.881 588.6,425.242 593.8,425.242 593.8,408.803 644.8,408.803 644.8,425.242 650,425.242 650,441.881 644.8,441.881 644.8,458.119 650,458.119 650,474.758 644.8,474.758 644.8,485.787 634.64,485.787 634.64,491.197 624.28,491.197 624.28,485.787 614.32,485.787 614.32,491.197 603.96,491.197 603.96,485.787 593.8,485.787"
     fill="none"
     stroke="#000000"
     stroke-width="0.1mm"
     id="polyline1-2"
     style="vector-effect:non-scaling-stroke;stroke-width:0.264583;stroke-dasharray:none;-inkscape-stroke:hairline"
     transform="rotate(180,715.43763,400.2265)" />
  <polyline
     z="0"
     points="650,479.647 650,473.097 655.2,473.097 655.2,471.947 662.457,471.947 662.457,466.747 669.914,466.747 669.914,471.947 676.971,471.947 676.971,466.747 684.429,466.747 684.429,471.947 691.486,471.947 691.486,466.747 698.943,466.747 698.943,471.947 706.2,471.947 706.2,473.097 711.4,473.097 711.4,479.647 706.2,479.647 706.2,485.997 699.16,485.997 699.16,491.197 686.72,491.197 686.72,485.997 674.68,485.997 674.68,491.197 662.24,491.197 662.24,485.997 655.2,485.997 655.2,479.647 650,479.647"
     fill="none"
     stroke="#000000"
     stroke-width="0.1mm"
     id="polyline2-67"
     style="vector-effect:non-scaling-stroke;stroke-width:0.264583;stroke-dasharray:none;-inkscape-stroke:hairline"
     transform="rotate(180,746.13763,482.62051)" />
</svg>
