<!--
Cleat Wall Organization Equipment
Copyright (C) 2025  Corporate Hacks

This program is free software: you can redistribute it and/or modify
it under the terms of the GNU General Public License as published by
the Free Software Foundation, either version 3 of the License, or
(at your option) any later version.

This program is distributed in the hope that it will be useful,
but WITHOUT ANY WARRANTY; without even the implied warranty of
MERCHANTABILITY or FITNESS FOR A PARTICULAR PURPOSE.  See the
GNU General Public License for more details.

You should have received a copy of the GNU General Public License
along with this program.  If not, see <http://www.gnu.org/licenses/>.
-->

<svg xmlns="http://www.w3.org/2000/svg" width="1300mm" height="900mm" viewBox="0 0 1300 900">
    <path fill="none" stroke="#000" stroke-width=".1mm" d="m658.033 441.03-6.482-6.482-.348-.383-.31-.418-.267-.447-.222-.47-.176-.489-.126-.504-.077-.515-.025-.518v-2.273h24.94v-5H650v-6.55h5.2v-6.15H650v-1.35h6.077v-5.2h8.191v5.2h7.791v-5.2h8.19v5.2h7.791v-5.2h8.158l2.041 4.927-14.123 14.123h15.964v5.2h24.74v-5.2h25.14v5.2h24.94v7.3h-5.2v6.9h5.2v7.3h-5.2v6.9h5.2v7.254l-11.728 7.656-2.843-4.355-11.432 7.463 2.843 4.354-11.766 7.681-2.843-4.355-11.432 7.463 2.843 4.354-14.744 9.624-.439.258-.462.214-.482.169-.497.122-.505.074-.508.024h-8.793l-.513-.025-.51-.075-.502-.124-.486-.173-.467-.22-.444-.262-.424-.311-.308-.42-.26-.437-.218-.461-.173-.479-.125-.494-.079-.502-.028-.509.02-.51.069-.504.116-.493 2.067-7.204.15-.445.189-.432.228-.414.263-.392.297-.367.329-.339.357-.309.383-.274 10.577-6.905-1.353 4.714 4.806 1.379 4.48-15.607-4.998-1.435 4.59-15.994 4.998 1.435 4.48-15.608-4.805-1.379-3.487 12.148-7.427-7.428-.373-.338-.402-.298-.429-.257-.452-.213-.471-.169-.485-.122-.496-.073-.502-.025h-48.517l-.518-.025-.515-.077-.504-.126-.489-.176-.47-.222-.447-.267-.418-.31-.383-.348" style="vector-effect:non-scaling-stroke;stroke-width:.264583;stroke-dasharray:none;-inkscape-stroke:hairline" transform="rotate(-90 601.143 486.3)"/>
    <path fill="none" stroke="#000" stroke-width=".1mm" d="m589.095 504.931-.508-.024-.505-.074-.497-.122-.482-.169-.462-.214-.439-.258-14.744-9.624 2.843-4.354-11.432-7.463-2.843 4.355-11.766-7.681 2.843-4.354-11.432-7.463-2.843 4.355-11.728-7.656v-7.254h5.2v-6.9h-5.2v-7.3h5.2v-6.9h-5.2v-7.3h24.94v-5.2h25.14v5.2h24.74v-5.2h15.964l-14.123-14.123 2.041-4.927h8.158v5.2h7.791v-5.2h8.19v5.2h7.791v-5.2h8.191v5.2H650v1.35h-5.2v6.15h5.2v6.55h-24.94v5H650v2.273l-.025.518-.077.515-.126.504-.176.489-.222.47-.267.447-.31.418-.348.383-6.482 6.482-.383.348-.418.31-.447.267-.47.222-.489.176-.504.126-.515.077-.518.025h-48.517l-.502.025-.496.073-.485.122-.471.169-.452.213-.429.257-.402.298-.373.338-7.427 7.428-3.487-12.148-4.805 1.379 4.48 15.608 4.998-1.435 4.59 15.994-4.998 1.435 4.48 15.607 4.806-1.379-1.353-4.714 10.577 6.905.383.274.357.309.329.339.297.367.263.392.228.414.189.432.15.445 2.067 7.204.116.493.069.504.02.51-.028.509-.079.502-.125.494-.173.479-.218.461-.26.437-.307.42-.425.311-.444.262-.467.22-.486.173-.502.124-.51.075-.513.025h-8.793" style="vector-effect:non-scaling-stroke;stroke-width:.264583;stroke-dasharray:none;-inkscape-stroke:hairline" transform="matrix(0 -1 -1 0 1062.356 975.1)"/>
    <path fill="none" stroke="#000" stroke-width=".1mm" d="m658.033 441.03-6.482-6.482-.348-.383-.31-.418-.267-.447-.222-.47-.176-.489-.126-.504-.077-.515-.025-.518v-2.273h24.94v-5H650v-6.55h5.2v-6.15H650v-1.35h6.077v-5.2h8.191v5.2h7.791v-5.2h8.19v5.2h7.791v-5.2h8.158l2.041 4.927-14.123 14.123h15.964v5.2h24.74v-5.2h25.14v5.2h24.94v7.3h-5.2v6.9h5.2v7.3h-5.2v6.9h5.2v7.254l-11.728 7.656-2.843-4.355-11.432 7.463 2.843 4.354-11.766 7.681-2.843-4.355-11.432 7.463 2.843 4.354-14.744 9.624-.439.258-.462.214-.482.169-.497.122-.505.074-.508.024h-8.793l-.513-.025-.51-.075-.502-.124-.486-.173-.467-.22-.444-.262-.424-.311-.308-.42-.26-.437-.218-.461-.173-.479-.125-.494-.079-.502-.028-.509.02-.51.069-.504.116-.493 2.067-7.204.15-.445.189-.432.228-.414.263-.392.297-.367.329-.339.357-.309.383-.274 10.577-6.905-1.353 4.714 4.806 1.379 4.48-15.607-4.998-1.435 4.59-15.994 4.998 1.435 4.48-15.608-4.805-1.379-3.487 12.148-7.427-7.428-.373-.338-.402-.298-.429-.257-.452-.213-.471-.169-.485-.122-.496-.073-.502-.025h-48.517l-.518-.025-.515-.077-.504-.126-.489-.176-.47-.222-.447-.267-.418-.31-.383-.348" style="vector-effect:non-scaling-stroke;stroke-width:.264583;stroke-dasharray:none;-inkscape-stroke:hairline" transform="matrix(0 1 1 0 114.844 -187.442)"/>
    <path fill="none" stroke="#000" stroke-width=".1mm" d="m589.095 504.931-.508-.024-.505-.074-.497-.122-.482-.169-.462-.214-.439-.258-14.744-9.624 2.843-4.354-11.432-7.463-2.843 4.355-11.766-7.681 2.843-4.354-11.432-7.463-2.843 4.355-11.728-7.656v-7.254h5.2v-6.9h-5.2v-7.3h5.2v-6.9h-5.2v-7.3h24.94v-5.2h25.14v5.2h24.74v-5.2h15.964l-14.123-14.123 2.041-4.927h8.158v5.2h7.791v-5.2h8.19v5.2h7.791v-5.2h8.191v5.2H650v1.35h-5.2v6.15h5.2v6.55h-24.94v5H650v2.273l-.025.518-.077.515-.126.504-.176.489-.222.47-.267.447-.31.418-.348.383-6.482 6.482-.383.348-.418.31-.447.267-.47.222-.489.176-.504.126-.515.077-.518.025h-48.517l-.502.025-.496.073-.485.122-.471.169-.452.213-.429.257-.402.298-.373.338-7.427 7.428-3.487-12.148-4.805 1.379 4.48 15.608 4.998-1.435 4.59 15.994-4.998 1.435 4.48 15.607 4.806-1.379-1.353-4.714 10.577 6.905.383.274.357.309.329.339.297.367.263.392.228.414.189.432.15.445 2.067 7.204.116.493.069.504.02.51-.028.509-.079.502-.125.494-.173.479-.218.461-.26.437-.307.42-.425.311-.444.262-.467.22-.486.173-.502.124-.51.075-.513.025h-8.793" style="vector-effect:non-scaling-stroke;stroke-width:.264583;stroke-dasharray:none;-inkscape-stroke:hairline" transform="rotate(90 568.728 493.628)"/>
    <path fill="none" stroke="#000" stroke-width=".1mm" d="M525.1 620.619v-6.277h5.2v-7.79h-5.2v-8.191h5.2v-7.791h-5.2v-8.191h5.2v-7.99h51v7.99h5.2v8.191h-5.2v7.791h5.2v8.191h-5.2v7.79h5.2v6.277h-12.657v-5.2h-7.057v5.2h-7.457v-5.2h-7.058v5.2h-7.457v-5.2h-7.057v5.2H525.1" style="vector-effect:non-scaling-stroke;stroke-width:.264583;stroke-dasharray:none;-inkscape-stroke:hairline" transform="translate(194.375 -29.875)"/>
    <path fill="none" stroke="#000" stroke-width=".1mm" d="M530.3 574.389v-13.852h-5.2v-14.051h5.2v-13.652h-5.2v-14.051h5.2v-13.852h10.36v4.354h9.96v-4.354h10.36v4.354h9.96v-4.354h10.36v13.852h5.2v14.051h-5.2v13.652h5.2v14.051h-5.2v13.852h-51" style="vector-effect:non-scaling-stroke;stroke-width:.264583;stroke-dasharray:none;-inkscape-stroke:hairline" transform="translate(194.375 -29.875)"/>
    <path fill="none" stroke="#000" stroke-width=".1mm" d="M586.5 592.019h5.2v-7.1h7.04v-5.2h12.44v5.2h12.04v-5.2h12.44v5.2h7.04v7.1h5.2v7.3h-5.2v6.9h5.2v7.3h-5.2v2.746h-10.16v4.354h-10.36v-4.354h-9.96v4.354h-10.36v-4.354H591.7v-2.746h-5.2v-7.3h5.2v-6.9h-5.2v-7.3" style="vector-effect:non-scaling-stroke;stroke-width:.264583;stroke-dasharray:none;-inkscape-stroke:hairline" transform="translate(132.975 -145.563)"/>
    <path d="M744.995 356.264h-9.96v-6.291h9.96v6.291m20.32 0h-9.96v-6.291h9.96v6.291m15.56 77.892h-12.44v-5.2h-12.04v5.2h-12.44v-5.2h-12.04v5.2h-12.44v-25.14h5.2v-24.74h-5.2v-25.14h5.2v-24.74h-5.2v-25.14h12.44v5.2h12.04v-5.2h12.44v5.2h12.04v-5.2h12.44v25.14h-5.2v24.74h5.2v25.14h-5.2v24.74h5.2v25.14" style="vector-effect:non-scaling-stroke;fill:none;stroke:#000;stroke-width:.264583;-inkscape-stroke:hairline"/>
    <path fill="none" stroke="#000" stroke-width=".1mm" d="M525.1 620.619v-6.277h5.2v-7.79h-5.2v-8.191h5.2v-7.791h-5.2v-8.191h5.2v-7.99h51v7.99h5.2v8.191h-5.2v7.791h5.2v8.191h-5.2v7.79h5.2v6.277h-12.657v-5.2h-7.057v5.2h-7.457v-5.2h-7.058v5.2h-7.457v-5.2h-7.057v5.2H525.1" style="vector-effect:non-scaling-stroke;stroke-width:.264583;stroke-dasharray:none;-inkscape-stroke:hairline" transform="matrix(-1 0 0 1 1244.575 -29.875)"/>
    <path fill="none" stroke="#000" stroke-width=".1mm" d="M530.3 574.389v-13.852h-5.2v-14.051h5.2v-13.652h-5.2v-14.051h5.2v-13.852h10.36v4.354h9.96v-4.354h10.36v4.354h9.96v-4.354h10.36v13.852h5.2v14.051h-5.2v13.652h5.2v14.051h-5.2v13.852h-51" style="vector-effect:non-scaling-stroke;stroke-width:.264583;stroke-dasharray:none;-inkscape-stroke:hairline" transform="matrix(-1 0 0 1 1244.575 -29.875)"/>
    <path fill="none" stroke="#000" stroke-width=".1mm" d="M586.5 592.019h5.2v-7.1h7.04v-5.2h12.44v5.2h12.04v-5.2h12.44v5.2h7.04v7.1h5.2v7.3h-5.2v6.9h5.2v7.3h-5.2v2.746h-10.16v4.354h-10.36v-4.354h-9.96v4.354h-10.36v-4.354H591.7v-2.746h-5.2v-7.3h5.2v-6.9h-5.2v-7.3" style="vector-effect:non-scaling-stroke;stroke-width:.264583;stroke-dasharray:none;-inkscape-stroke:hairline" transform="matrix(-1 0 0 1 1305.975 -145.563)"/>
    <path d="M693.955 356.264h9.96v-6.291h-9.96v6.291m-20.32 0h9.96v-6.291h-9.96v6.291m-15.56 77.892h12.44v-5.2h12.04v5.2h12.44v-5.2h12.04v5.2h12.44v-25.14h-5.2v-24.74h5.2v-25.14h-5.2v-24.74h5.2v-25.14h-12.44v5.2h-12.04v-5.2h-12.44v5.2h-12.04v-5.2h-12.44v25.14h5.2v24.74h-5.2v25.14h5.2v24.74h-5.2v25.14" style="vector-effect:non-scaling-stroke;fill:none;stroke:#000;stroke-width:.264583;-inkscape-stroke:hairline"/>
    <path fill="none" stroke="#000" stroke-width=".1mm" d="M593.8 485.787v-11.029h-5.2v-16.639h5.2v-16.238h-5.2v-16.639h5.2v-16.439h51v16.439h5.2v16.639h-5.2v16.238h5.2v16.639h-5.2v11.029h-10.16v5.41h-10.36v-5.41h-9.96v5.41h-10.36v-5.41H593.8" style="vector-effect:non-scaling-stroke;stroke-width:.264583;stroke-dasharray:none;-inkscape-stroke:hairline" transform="translate(192.275 -17.153)"/>
    <path fill="none" stroke="#000" stroke-width=".1mm" d="M650 479.647v-6.55h5.2v-1.15h7.257v-5.2h7.457v5.2h7.057v-5.2h7.458v5.2h7.057v-5.2h7.457v5.2h7.257v1.15h5.2v6.55h-5.2v6.35h-7.04v5.2h-12.44v-5.2h-12.04v5.2h-12.44v-5.2h-7.04v-6.35H650" style="vector-effect:non-scaling-stroke;stroke-width:.264583;stroke-dasharray:none;-inkscape-stroke:hairline" transform="translate(130.875 31.747)"/>
    <path fill="none" stroke="#000" stroke-width=".1mm" d="M593.8 485.787v-11.029h-5.2v-16.639h5.2v-16.238h-5.2v-16.639h5.2v-16.439h51v16.439h5.2v16.639h-5.2v16.238h5.2v16.639h-5.2v11.029h-10.16v5.41h-10.36v-5.41h-9.96v5.41h-10.36v-5.41H593.8" style="vector-effect:non-scaling-stroke;stroke-width:.264583;stroke-dasharray:none;-inkscape-stroke:hairline" transform="rotate(180 715.438 400.226)"/>
    <path fill="none" stroke="#000" stroke-width=".1mm" d="M650 479.647v-6.55h5.2v-1.15h7.257v-5.2h7.457v5.2h7.057v-5.2h7.458v5.2h7.057v-5.2h7.457v5.2h7.257v1.15h5.2v6.55h-5.2v6.35h-7.04v5.2h-12.44v-5.2h-12.04v5.2h-12.44v-5.2h-7.04v-6.35H650" style="vector-effect:non-scaling-stroke;stroke-width:.264583;stroke-dasharray:none;-inkscape-stroke:hairline" transform="rotate(180 746.138 482.62)"/>
</svg>
