<?xml version="1.0" encoding="UTF-8" standalone="no"?>
<svg
   width="1300mm"
   height="900mm"
   viewBox="0 0 1300 900"
   version="1.1"
   id="svg12"
   sodipodi:docname="EssentialsFrame.svg"
   inkscape:version="1.3.2 (091e20ef0f, 2023-11-25)"
   xmlns:inkscape="http://www.inkscape.org/namespaces/inkscape"
   xmlns:sodipodi="http://sodipodi.sourceforge.net/DTD/sodipodi-0.dtd"
   xmlns="http://www.w3.org/2000/svg"
   xmlns:svg="http://www.w3.org/2000/svg">
  <defs
     id="defs12" />
  <sodipodi:namedview
     id="namedview12"
     pagecolor="#505050"
     bordercolor="#eeeeee"
     borderopacity="1"
     inkscape:showpageshadow="0"
     inkscape:pageopacity="0"
     inkscape:pagecheckerboard="0"
     inkscape:deskcolor="#505050"
     inkscape:document-units="mm"
     inkscape:zoom="0.16343109"
     inkscape:cx="2404.6832"
     inkscape:cy="1520.5185"
     inkscape:window-width="1920"
     inkscape:window-height="1011"
     inkscape:window-x="0"
     inkscape:window-y="32"
     inkscape:window-maximized="1"
     inkscape:current-layer="svg12" />
  <path
     id="polyline1"
     d="M 304.50079 455.20012 L 304.50079 681.77492 L 526.31309 681.77492 L 526.31309 455.20012 L 304.50079 455.20012 z M 343.67876 491.29921 L 487.13512 491.29921 L 487.43898 491.31523 L 487.73922 491.36019 L 488.03119 491.43202 L 488.3149 491.53382 L 488.58775 491.66301 L 488.84613 491.81908 L 489.08901 491.99788 L 489.31225 492.19993 L 489.51586 492.42421 L 489.69517 492.66709 L 489.8502 492.92598 L 489.97991 493.1978 L 490.0812 493.48202 L 490.15406 493.77503 L 490.19799 494.0732 L 490.21297 494.37706 L 490.21297 642.59695 L 490.19799 642.90184 L 490.15406 643.20002 L 490.0812 643.49302 L 489.97991 643.77724 L 489.8502 644.04906 L 489.69517 644.30796 L 489.51586 644.55084 L 489.31225 644.77511 L 489.08901 644.97717 L 488.84613 645.15597 L 488.58775 645.31203 L 488.3149 645.44122 L 488.03119 645.54303 L 487.73922 645.61486 L 487.43898 645.65981 L 487.13512 645.67583 L 343.67876 645.67583 L 343.37491 645.65981 L 343.07518 645.61486 L 342.78321 645.54303 L 342.49899 645.44122 L 342.22614 645.31203 L 341.96776 645.15597 L 341.72488 644.97717 L 341.50215 644.77511 L 341.29803 644.55084 L 341.11923 644.30796 L 340.9642 644.04906 L 340.83398 643.77724 L 340.73321 643.49302 L 340.65983 643.20002 L 340.6159 642.90184 L 340.60092 642.59695 L 340.60092 494.37706 L 340.6159 494.0732 L 340.65983 493.77503 L 340.73321 493.48202 L 340.83398 493.1978 L 340.9642 492.92598 L 341.11923 492.66709 L 341.29803 492.42421 L 341.50215 492.19993 L 341.72488 491.99788 L 341.96776 491.81908 L 342.22614 491.66301 L 342.49899 491.53382 L 342.78321 491.43202 L 343.07518 491.36019 L 343.37491 491.31523 L 343.67876 491.29921 z "
     style="fill:none;stroke:#ff0000;stroke-opacity:1;vector-effect:non-scaling-stroke;-inkscape-stroke:hairline;stroke-width:0.26458333;stroke-dasharray:none" />
  <polyline
     z="0"
     points="526.313,644.483 526.313,625.639 758.525,625.639 758.525,644.483 753.325,644.483 753.325,662.93 758.525,662.93 758.525,681.775 526.313,681.775 526.313,662.93 531.513,662.93 531.513,644.483 526.313,644.483"
     fill="none"
     stroke="black"
     stroke-width="0.1mm"
     id="polyline3"
     style="vector-effect:non-scaling-stroke;fill:none;stroke:#000000;stroke-width:0.264583;stroke-dasharray:none;stroke-opacity:1;-inkscape-stroke:hairline"
     transform="rotate(90,879.50298,571.19718)" />
  <polyline
     z="0"
     points="526.313,625.639 526.313,618.159 531.513,618.159 531.513,611.079 526.313,611.079 526.313,603.599 531.513,603.599 531.513,596.519 526.313,596.519 526.313,589.039 551.859,589.039 551.859,594.238 571.806,594.238 571.806,589.039 592.153,589.039 592.153,594.238 612.099,594.238 612.099,589.039 632.446,589.039 632.446,594.238 652.392,594.238 652.392,589.039 672.739,589.039 672.739,594.238 692.685,594.238 692.685,589.039 713.032,589.039 713.032,594.238 732.979,594.238 732.979,589.039 758.525,589.039 758.525,596.519 753.325,596.519 753.325,603.599 758.525,603.599 758.525,611.079 753.325,611.079 753.325,618.159 758.525,618.159 758.525,625.639 732.979,625.639 732.979,620.439 713.032,620.439 713.032,625.639 692.685,625.639 692.685,620.439 672.739,620.439 672.739,625.639 652.392,625.639 652.392,620.439 632.446,620.439 632.446,625.639 612.099,625.639 612.099,620.439 592.153,620.439 592.153,625.639 571.806,625.639 571.806,620.439 551.859,620.439 551.859,625.639 526.313,625.639"
     fill="none"
     stroke="black"
     stroke-width="0.1mm"
     id="polyline4"
     style="vector-effect:non-scaling-stroke;fill:none;stroke:#000000;stroke-width:0.264583;stroke-dasharray:none;stroke-opacity:1;-inkscape-stroke:hairline"
     transform="rotate(90,879.50298,571.19718)" />
  <path
     id="polyline5"
     d="m 917.71409,352.91327 -5.32991,-2.20812 -14.12317,14.12317 v -20.50831 h -5.19968 v -20.85196 h 5.19968 v -21.25193 h -5.19968 v -20.85299 h 5.19968 v -21.25194 h -5.19968 v -20.85195 h 5.19968 v -16.05226 h -7.27966 v -5.19968 h -7.48016 v 5.19968 H 876.421 v -5.19968 h -7.47965 v 5.19968 h -7.28017 v 16.05226 h 5.2002 v 20.85194 h -5.2002 v 21.25194 h 5.2002 v 20.85299 h -5.2002 v 21.25193 h 5.2002 v 20.85197 h -5.2002 v 21.25244 h 5.2002 v 20.85299 h -5.2002 v 21.25193 h 5.2002 v 20.85196 h -5.2002 v 26.45161 h 7.48016 v -5.19865 h 7.08071 v 5.19865 h 7.48016 v -5.19865 h 7.07916 v 5.19865 h 7.47964 v -26.4516 h -5.19968 v -20.85196 h 4.99969 v 14.642 h 5.72214 l 13.66996,-13.66997 h -5.34179 v -18.44642 h 5.19968 v -18.84484 h -5.19968 v -18.44487 z m -19.65307,12.65919 v 20.85299 h -4.99969 v -20.85299 z"
     style="vector-effect:non-scaling-stroke;fill:none;stroke:#000000;stroke-width:0.264583;stroke-dasharray:none;stroke-opacity:1;-inkscape-stroke:hairline" />
  <polyline
     z="0"
     points="758.525,596.319 763.725,596.319 763.725,589.039 779.817,589.039 779.817,594.238 800.709,594.238 800.709,589.039 822.001,589.039 822.001,594.238 842.893,594.238 842.893,589.039 864.185,589.039 864.185,594.238 885.077,594.238 885.077,589.039 906.369,589.039 906.369,594.238 927.261,594.238 927.261,589.039 948.553,589.039 948.553,594.238 969.445,594.238 969.445,589.039 985.537,589.039 985.537,596.319 990.737,596.319 990.737,603.799 985.537,603.799 985.537,610.879 990.737,610.879 990.737,618.359 985.537,618.359 985.537,625.639 969.445,625.639 969.445,620.439 948.553,620.439 948.553,625.639 927.261,625.639 927.261,620.439 906.369,620.439 906.369,625.639 885.077,625.639 885.077,620.439 864.185,620.439 864.185,625.639 842.893,625.639 842.893,620.439 822.001,620.439 822.001,625.639 800.709,625.639 800.709,620.439 779.817,620.439 779.817,625.639 763.725,625.639 763.725,618.359 758.525,618.359 758.525,610.879 763.725,610.879 763.725,603.799 758.525,603.799 758.525,596.319"
     fill="none"
     stroke="black"
     stroke-width="0.1mm"
     id="polyline7"
     style="vector-effect:non-scaling-stroke;fill:none;stroke:#000000;stroke-width:0.264583;stroke-dasharray:none;stroke-opacity:1;-inkscape-stroke:hairline"
     transform="rotate(90,879.50298,571.19718)" />
  <path
     id="polyline8"
     d="m 824.97815,552.28715 h -5.60276 v -18.44487 h 5.19968 v -18.84485 h -5.19968 v -18.44641 h 5.34179 l -13.66997,-13.66997 h -5.72213 v 14.642 h -4.99969 V 476.6711 h 5.19968 v -26.45213 h -7.48016 v 5.2002 h -7.07967 v -5.2002 h -7.48017 v 5.2002 h -7.07967 v -5.2002 h -7.48016 v 26.45213 h 5.19968 v 20.85195 h -5.19968 v 21.25194 h 5.19968 v 20.85298 h -5.19968 v 21.25245 h 5.19968 v 20.85196 h -5.19968 v 21.25193 h 5.19968 v 20.85299 h -5.19968 v 21.25194 h 5.19968 v 20.85195 h -5.19968 v 16.05277 h 7.28017 v 5.19917 h 7.47965 v -5.19917 h 7.08019 v 5.19917 h 7.48016 v -5.19917 h 7.27966 v -16.05277 h -5.19968 v -20.85195 h 5.19968 V 623.8373 h -5.19968 v -20.85299 h 5.19968 v -21.25193 h -5.19968 v -20.85196 h 5.19968 v -20.50831 l 14.12317,14.12317 z m -19.65307,-33.51216 v 20.85298 h -4.99969 v -20.85298 z"
     style="vector-effect:non-scaling-stroke;fill:none;stroke:#000000;stroke-width:0.264583;stroke-dasharray:none;stroke-opacity:1;-inkscape-stroke:hairline" />
  <path
     id="polyline10"
     d="M 562.05923 218.22596 L 562.05923 223.42512 L 541.91318 223.42512 L 541.91318 239.2779 L 536.71298 239.2779 L 536.71298 260.5288 L 541.91318 260.5288 L 541.91318 281.38076 L 536.71298 281.38076 L 536.71298 302.63476 L 541.91318 302.63476 L 541.91318 323.48723 L 536.71298 323.48723 L 536.71298 344.73916 L 541.91318 344.73916 L 541.91318 365.59112 L 536.71298 365.59112 L 536.71298 386.84305 L 541.91318 386.84305 L 541.91318 407.69604 L 536.71298 407.69604 L 536.71298 428.94798 L 541.91318 428.94798 L 541.91318 449.99992 L 557.80523 449.99992 L 557.80523 455.20012 L 579.09695 455.20012 L 579.09695 449.99992 L 599.98922 449.99992 L 599.98922 455.20012 L 621.28094 455.20012 L 621.28094 449.99992 L 642.17321 449.99992 L 642.17321 455.20012 L 663.46493 455.20012 L 663.46493 449.99992 L 684.35719 449.99992 L 684.35719 455.20012 L 705.64892 455.20012 L 705.64892 449.99992 L 726.54118 449.99992 L 726.54118 455.20012 L 747.83291 455.20012 L 747.83291 449.99992 L 763.72496 449.99992 L 763.72496 428.94798 L 768.92516 428.94798 L 768.92516 407.69604 L 763.72496 407.69604 L 763.72496 386.84305 L 768.92516 386.84305 L 768.92516 365.59112 L 763.72496 365.59112 L 763.72496 344.73916 L 768.92516 344.73916 L 768.92516 323.48723 L 763.72496 323.48723 L 763.72496 302.63476 L 768.92516 302.63476 L 768.92516 281.38076 L 763.72496 281.38076 L 763.72496 260.5288 L 768.92516 260.5288 L 768.92516 239.2779 L 763.72496 239.2779 L 763.72496 223.42512 L 743.5789 223.42512 L 743.5789 218.22596 L 723.23182 218.22596 L 723.23182 223.42512 L 703.28524 223.42512 L 703.28524 218.22596 L 682.93919 218.22596 L 682.93919 223.42512 L 662.99209 223.42512 L 662.99209 218.22596 L 642.64604 218.22596 L 642.64604 223.42512 L 622.69894 223.42512 L 622.69894 218.22596 L 602.3529 218.22596 L 602.3529 223.42512 L 582.40579 223.42512 L 582.40579 218.22596 L 562.05923 218.22596 z M 557.61609 234.02499 L 748.02204 234.02499 L 748.52485 234.0498 L 749.02095 234.12318 L 749.50619 234.2441 L 749.97696 234.41308 L 750.43016 234.62702 L 750.85804 234.88489 L 751.26009 235.18306 L 751.63112 235.51896 L 751.96805 235.88999 L 752.26623 236.29204 L 752.52306 236.72095 L 752.737 237.17415 L 752.90495 237.64493 L 753.0269 238.13017 L 753.09977 238.62523 L 753.12509 239.12701 L 753.12509 434.29701 L 753.09977 434.79982 L 753.0269 435.29488 L 752.90495 435.78012 L 752.737 436.25089 L 752.52306 436.70409 L 752.26623 437.13301 L 751.96805 437.53505 L 751.63112 437.90609 L 751.26009 438.24198 L 750.85804 438.54016 L 750.43016 438.79699 L 749.97696 439.01196 L 749.50619 439.18094 L 749.02095 439.30187 L 748.52485 439.37525 L 748.02308 439.40005 L 557.61506 439.40005 L 557.11276 439.37525 L 556.61719 439.30187 L 556.13195 439.18094 L 555.66117 439.01196 L 555.20797 438.79699 L 554.78009 438.54016 L 554.37805 438.24198 L 554.00701 437.90609 L 553.67008 437.53505 L 553.37191 437.13301 L 553.11508 436.70409 L 552.90217 436.25089 L 552.73319 435.78012 L 552.61123 435.29488 L 552.53785 434.79982 L 552.51305 434.29701 L 552.51305 239.12701 L 552.53785 238.62523 L 552.61123 238.13017 L 552.73319 237.64493 L 552.90217 237.17415 L 553.11508 236.72095 L 553.37191 236.29204 L 553.67008 235.88999 L 554.00701 235.51896 L 554.37805 235.18306 L 554.78009 234.88489 L 555.20797 234.62702 L 555.66117 234.41308 L 556.13195 234.2441 L 556.61719 234.12318 L 557.11276 234.0498 L 557.61609 234.02499 z "
     style="fill:none;stroke:#000000;stroke-opacity:1;vector-effect:non-scaling-stroke;-inkscape-stroke:hairline;stroke-width:0.26458333;stroke-dasharray:none" />
  <polyline
     z="0"
     points="536.713,428.948 531.513,428.948 531.513,450 515.621,450 515.621,455.2 494.329,455.2 494.329,450 473.437,450 473.437,455.2 452.145,455.2 452.145,450 431.253,450 431.253,455.2 409.961,455.2 409.961,450 389.069,450 389.069,455.2 367.777,455.2 367.777,450 346.885,450 346.885,455.2 325.593,455.2 325.593,450 309.701,450 309.701,428.948 304.501,428.948 304.501,407.696 309.701,407.696 309.701,386.843 304.501,386.843 304.501,365.591 309.701,365.591 309.701,344.739 304.501,344.739 304.501,323.487 309.701,323.487 309.701,302.635 304.501,302.635 304.501,281.381 309.701,281.381 309.701,260.529 304.501,260.529 304.501,239.278 309.701,239.278 309.701,223.425 329.847,223.425 329.847,218.226 350.194,218.226 350.194,223.425 370.141,223.425 370.141,218.226 390.487,218.226 390.487,223.425 410.434,223.425 410.434,218.226 430.78,218.226 430.78,223.425 450.727,223.425 450.727,218.226 471.073,218.226 471.073,223.425 491.02,223.425 491.02,218.226 511.367,218.226 511.367,223.425 531.513,223.425 531.513,239.278 536.713,239.278 536.713,260.529 531.513,260.529 531.513,281.381 536.713,281.381 536.713,302.635 531.513,302.635 531.513,323.487 536.713,323.487 536.713,344.739 531.513,344.739 531.513,365.591 536.713,365.591 536.713,386.843 531.513,386.843 531.513,407.696 536.713,407.696 536.713,428.948"
     fill="none"
     stroke="black"
     stroke-width="0.1mm"
     id="polyline12"
     style="fill:none;stroke:#000000;stroke-opacity:1;vector-effect:non-scaling-stroke;-inkscape-stroke:hairline;stroke-width:0.26458333;stroke-dasharray:none" />
</svg>
