<?xml version="1.0" standalone="no"?>
<!DOCTYPE svg PUBLIC "-//W3C//DTD SVG 1.1//EN" "http://www.w3.org/Graphics/SVG/1.1/DTD/svg11.dtd">
<svg width="1300mm" height="900mm" viewBox="0 0 1300 900" xmlns="http://www.w3.org/2000/svg" version="1.1">
<polyline z="0" points="428.24,548.525 335.45,375.85 335.45,370.525 346.536,370.525 346.536,375.725 357.221,375.725 357.221,370.525 368.307,370.525 368.307,375.725 378.993,375.725 378.993,370.525 390.079,370.525 390.079,375.725 400.764,375.725 400.764,370.525 411.509,370.525 397.386,356.402 399.427,351.475 412.529,351.475 412.529,356.675 425.265,356.675 425.265,351.475 438.4,351.475 438.4,369.37 443.6,369.37 443.6,387.466 438.4,387.466 438.4,405.161 443.6,405.161 443.6,423.257 438.4,423.257 438.4,440.952 443.6,440.952 443.6,459.048 438.4,459.048 438.4,476.743 443.6,476.743 443.6,494.839 438.4,494.839 438.4,512.534 443.6,512.534 443.6,530.63 438.4,530.63 438.4,548.525 428.24,548.525" fill="none" stroke="black" stroke-width="0.1mm" />
<polyline z="0" points="448.8,548.525 448.8,530.63 443.6,530.63 443.6,512.534 448.8,512.534 448.8,494.839 443.6,494.839 443.6,476.743 448.8,476.743 448.8,459.048 443.6,459.048 443.6,440.952 448.8,440.952 448.8,423.257 443.6,423.257 443.6,405.161 448.8,405.161 448.8,387.466 443.6,387.466 443.6,369.37 448.8,369.37 448.8,351.475 461.935,351.475 461.935,356.675 474.671,356.675 474.671,351.475 487.773,351.475 489.814,356.402 475.691,370.525 486.436,370.525 486.436,375.725 497.121,375.725 497.121,370.525 508.207,370.525 508.207,375.725 518.893,375.725 518.893,370.525 529.979,370.525 529.979,375.725 540.664,375.725 540.664,370.525 551.75,370.525 551.75,375.85 458.96,548.525 448.8,548.525" fill="none" stroke="black" stroke-width="0.1mm" />
<polyline z="0" points="551.75,548.525 551.75,530.43 556.95,530.43 556.95,512.734 551.75,512.734 551.75,494.639 556.95,494.639 556.95,476.943 551.75,476.943 551.75,458.848 556.95,458.848 556.95,441.152 551.75,441.152 551.75,423.057 556.95,423.057 556.95,405.361 551.75,405.361 551.75,387.266 556.95,387.266 556.95,369.57 551.75,369.57 551.75,351.475 567.217,351.475 567.217,356.675 582.283,356.675 582.283,351.475 597.75,351.475 597.75,356.675 612.817,356.675 612.817,351.475 628.283,351.475 628.283,356.675 643.35,356.675 643.35,351.475 658.817,351.475 658.817,356.675 673.883,356.675 673.883,351.475 689.35,351.475 689.35,369.57 684.15,369.57 684.15,387.266 689.35,387.266 689.35,405.361 684.15,405.361 684.15,423.057 689.35,423.057 689.35,441.152 684.15,441.152 684.15,458.848 689.35,458.848 689.35,476.943 684.15,476.943 684.15,494.639 689.35,494.639 689.35,512.734 684.15,512.734 684.15,530.43 689.35,530.43 689.35,548.525 673.883,548.525 673.883,543.325 658.817,543.325 658.817,548.525 643.35,548.525 643.35,543.325 628.283,543.325 628.283,548.525 612.817,548.525 612.817,543.325 597.75,543.325 597.75,548.525 582.283,548.525 582.283,543.325 567.217,543.325 567.217,548.525 551.75,548.525" fill="none" stroke="black" stroke-width="0.1mm" />
<polyline z="0" points="581.136,535.367 581.061,535.156 581.006,534.938 580.974,534.717 580.963,534.492 580.963,532.908 580.974,532.683 581.006,532.462 581.061,532.244 581.136,532.033 581.232,531.831 581.347,531.639 581.48,531.459 581.631,531.293 581.797,531.143 581.977,531.009 582.168,530.894 582.37,530.799 582.582,530.724 582.799,530.669 583.02,530.636 583.246,530.625 638.804,530.625 639.03,530.636 639.251,530.669 639.468,530.724 639.68,530.799 639.882,530.894 640.073,531.009 640.253,531.143 640.419,531.293 640.57,531.459 640.703,531.639 640.818,531.831 640.914,532.033 640.989,532.244 641.044,532.462 641.076,532.683 641.088,532.909 641.088,534.491 641.076,534.717 641.044,534.938 640.989,535.156 640.914,535.367 640.818,535.569 640.703,535.761 640.57,535.941 640.419,536.107 640.253,536.257 640.073,536.391 639.882,536.506 639.68,536.601 639.468,536.676 639.251,536.731 639.03,536.764 638.804,536.775 583.246,536.775 583.02,536.764 582.799,536.731 582.582,536.676 582.37,536.601 582.168,536.506 581.977,536.391 581.797,536.257 581.631,536.107 581.48,535.941 581.347,535.761 581.232,535.569 581.136,535.367" fill="none" stroke="black" stroke-width="0.1mm" />
<polyline z="0" points="689.35,533.125 816.55,533.125 816.55,543.325 806.483,543.325 806.483,548.525 791.017,548.525 791.017,543.325 775.95,543.325 775.95,548.525 760.483,548.525 760.483,543.325 745.417,543.325 745.417,548.525 729.95,548.525 729.95,543.325 714.883,543.325 714.883,548.525 699.417,548.525 699.417,543.325 689.35,543.325 689.35,533.125" fill="none" stroke="black" stroke-width="0.1mm" />
<polyline z="0" points="694.55,533.125 694.55,522.239 689.35,522.239 689.35,511.154 694.55,511.154 694.55,500.468 689.35,500.468 689.35,489.382 694.55,489.382 694.55,478.696 689.35,478.696 689.35,467.611 694.55,467.611 694.55,456.725 821.75,456.725 821.75,467.611 826.95,467.611 826.95,478.696 821.75,478.696 821.75,489.382 826.95,489.382 826.95,500.468 821.75,500.468 821.75,511.154 826.95,511.154 826.95,522.239 821.75,522.239 821.75,533.125 694.55,533.125" fill="none" stroke="black" stroke-width="0.1mm" />
<polyline z="0" points="826.95,514.99 826.95,501.854 832.15,501.854 832.15,488.919 959.35,488.919 959.35,501.854 964.55,501.854 964.55,514.99 959.35,514.99 959.35,527.925 949.283,527.925 949.283,533.125 933.817,533.125 933.817,527.925 918.75,527.925 918.75,533.125 903.283,533.125 903.283,527.925 888.217,527.925 888.217,533.125 872.75,533.125 872.75,527.925 857.683,527.925 857.683,533.125 842.217,533.125 842.217,527.925 832.15,527.925 832.15,514.99 826.95,514.99" fill="none" stroke="black" stroke-width="0.1mm" />
</svg>