<?xml version="1.0" encoding="UTF-8" standalone="no"?>
<svg
   width="1300mm"
   height="900mm"
   viewBox="0 0 1300 900"
   version="1.1"
   id="svg7"
   sodipodi:docname="FixHub.svg"
   inkscape:version="1.4 (e7c3feb100, 2024-10-09)"
   xmlns:inkscape="http://www.inkscape.org/namespaces/inkscape"
   xmlns:sodipodi="http://sodipodi.sourceforge.net/DTD/sodipodi-0.dtd"
   xmlns="http://www.w3.org/2000/svg"
   xmlns:svg="http://www.w3.org/2000/svg">
  <defs
     id="defs7" />
  <sodipodi:namedview
     id="namedview7"
     pagecolor="#505050"
     bordercolor="#eeeeee"
     borderopacity="1"
     inkscape:showpageshadow="0"
     inkscape:pageopacity="0"
     inkscape:pagecheckerboard="0"
     inkscape:deskcolor="#505050"
     inkscape:document-units="mm"
     inkscape:zoom="0.23649679"
     inkscape:cx="541.23355"
     inkscape:cy="1033.8406"
     inkscape:window-width="1920"
     inkscape:window-height="1011"
     inkscape:window-x="0"
     inkscape:window-y="32"
     inkscape:window-maximized="1"
     inkscape:current-layer="svg7" />
  <polyline
     z="0"
     points="428.24,548.525 335.45,375.85 335.45,370.525 346.536,370.525 346.536,375.725 357.221,375.725 357.221,370.525 368.307,370.525 368.307,375.725 378.993,375.725 378.993,370.525 390.079,370.525 390.079,375.725 400.764,375.725 400.764,370.525 411.509,370.525 397.386,356.402 399.427,351.475 412.529,351.475 412.529,356.675 425.265,356.675 425.265,351.475 438.4,351.475 438.4,369.37 443.6,369.37 443.6,387.466 438.4,387.466 438.4,405.161 443.6,405.161 443.6,423.257 438.4,423.257 438.4,440.952 443.6,440.952 443.6,459.048 438.4,459.048 438.4,476.743 443.6,476.743 443.6,494.839 438.4,494.839 438.4,512.534 443.6,512.534 443.6,530.63 438.4,530.63 438.4,548.525 428.24,548.525"
     fill="none"
     stroke="#000000"
     stroke-width="0.1mm"
     id="polyline1"
     style="vector-effect:non-scaling-stroke;stroke-width:0.264583;stroke-dasharray:none;-inkscape-stroke:hairline"
     transform="translate(274.20833,-98.52502)" />
  <polyline
     z="0"
     points="448.8,548.525 448.8,530.63 443.6,530.63 443.6,512.534 448.8,512.534 448.8,494.839 443.6,494.839 443.6,476.743 448.8,476.743 448.8,459.048 443.6,459.048 443.6,440.952 448.8,440.952 448.8,423.257 443.6,423.257 443.6,405.161 448.8,405.161 448.8,387.466 443.6,387.466 443.6,369.37 448.8,369.37 448.8,351.475 461.935,351.475 461.935,356.675 474.671,356.675 474.671,351.475 487.773,351.475 489.814,356.402 475.691,370.525 486.436,370.525 486.436,375.725 497.121,375.725 497.121,370.525 508.207,370.525 508.207,375.725 518.893,375.725 518.893,370.525 529.979,370.525 529.979,375.725 540.664,375.725 540.664,370.525 551.75,370.525 551.75,375.85 458.96,548.525 448.8,548.525"
     fill="none"
     stroke="#000000"
     stroke-width="0.1mm"
     id="polyline2"
     style="vector-effect:non-scaling-stroke;stroke-width:0.264583;stroke-dasharray:none;-inkscape-stroke:hairline"
     transform="translate(274.20833,-98.52502)" />
  <polyline
     z="0"
     points="428.24,548.525 335.45,375.85 335.45,370.525 346.536,370.525 346.536,375.725 357.221,375.725 357.221,370.525 368.307,370.525 368.307,375.725 378.993,375.725 378.993,370.525 390.079,370.525 390.079,375.725 400.764,375.725 400.764,370.525 411.509,370.525 397.386,356.402 399.427,351.475 412.529,351.475 412.529,356.675 425.265,356.675 425.265,351.475 438.4,351.475 438.4,369.37 443.6,369.37 443.6,387.466 438.4,387.466 438.4,405.161 443.6,405.161 443.6,423.257 438.4,423.257 438.4,440.952 443.6,440.952 443.6,459.048 438.4,459.048 438.4,476.743 443.6,476.743 443.6,494.839 438.4,494.839 438.4,512.534 443.6,512.534 443.6,530.63 438.4,530.63 438.4,548.525 428.24,548.525"
     fill="none"
     stroke="#000000"
     stroke-width="0.1mm"
     id="polyline1-0"
     style="vector-effect:non-scaling-stroke;stroke-width:0.264583;stroke-dasharray:none;-inkscape-stroke:hairline"
     transform="rotate(180,512.39999,400.73749)" />
  <polyline
     z="0"
     points="448.8,548.525 448.8,530.63 443.6,530.63 443.6,512.534 448.8,512.534 448.8,494.839 443.6,494.839 443.6,476.743 448.8,476.743 448.8,459.048 443.6,459.048 443.6,440.952 448.8,440.952 448.8,423.257 443.6,423.257 443.6,405.161 448.8,405.161 448.8,387.466 443.6,387.466 443.6,369.37 448.8,369.37 448.8,351.475 461.935,351.475 461.935,356.675 474.671,356.675 474.671,351.475 487.773,351.475 489.814,356.402 475.691,370.525 486.436,370.525 486.436,375.725 497.121,375.725 497.121,370.525 508.207,370.525 508.207,375.725 518.893,375.725 518.893,370.525 529.979,370.525 529.979,375.725 540.664,375.725 540.664,370.525 551.75,370.525 551.75,375.85 458.96,548.525 448.8,548.525"
     fill="none"
     stroke="#000000"
     stroke-width="0.1mm"
     id="polyline2-4"
     style="vector-effect:non-scaling-stroke;stroke-width:0.264583;stroke-dasharray:none;-inkscape-stroke:hairline"
     transform="rotate(180,649.00833,400.73749)" />
  <path
     id="polyline4"
     style="vector-effect:non-scaling-stroke;fill:none;stroke:#000000;stroke-width:0.264583;-inkscape-stroke:hairline"
     d="m 610.58599,633.89198 -0.075,-0.211 -0.055,-0.218 -0.032,-0.221 -0.011,-0.225 v -1.584 l 0.011,-0.225 0.032,-0.221 0.055,-0.218 0.075,-0.211 0.096,-0.202 0.115,-0.192 0.133,-0.18 0.151,-0.166 0.166,-0.15 0.18,-0.134 0.191,-0.115 0.202,-0.095 0.212,-0.075 0.217,-0.055 0.221,-0.033 0.226,-0.011 h 55.558 l 0.226,0.011 0.221,0.033 0.217,0.055 0.212,0.075 0.202,0.095 0.191,0.115 0.18,0.134 0.166,0.15 0.151,0.166 0.133,0.18 0.115,0.192 0.096,0.202 0.075,0.211 0.055,0.218 0.032,0.221 0.012,0.226 v 1.582 l -0.012,0.226 -0.032,0.221 -0.055,0.218 -0.075,0.211 -0.096,0.202 -0.115,0.192 -0.133,0.18 -0.151,0.166 -0.166,0.15 -0.18,0.134 -0.191,0.115 -0.202,0.095 -0.212,0.075 -0.217,0.055 -0.221,0.033 -0.226,0.011 h -55.558 l -0.226,-0.011 -0.221,-0.033 -0.217,-0.055 -0.212,-0.075 -0.202,-0.095 -0.191,-0.115 -0.18,-0.134 -0.166,-0.15 -0.151,-0.166 -0.133,-0.18 -0.115,-0.192 -0.096,-0.202 m -29.386,13.158 v -18.095 h 5.2 v -17.696 h -5.2 v -18.095 h 5.2 v -17.696 h -5.2 v -18.095 h 5.2 v -17.696 h -5.2 v -18.095 h 5.2 v -17.696 h -5.2 v -18.095 h 5.2 v -17.696 h -5.2 v -18.095 h 15.467 v 5.2 h 15.066 v -5.2 h 15.467 v 5.2 h 15.067 v -5.2 h 15.466 v 5.2 h 15.067 v -5.2 h 15.467 v 5.2 h 15.066 v -5.2 h 15.467 v 18.095 h -5.2 v 17.696 h 5.2 v 18.095 h -5.2 v 17.696 h 5.2 v 18.095 h -5.2 v 17.696 h 5.2 v 18.095 h -5.2 v 17.696 h 5.2 v 18.095 h -5.2 v 17.696 h 5.2 v 18.095 h -15.467 v -5.2 h -15.066 v 5.2 h -15.467 v -5.2 h -15.067 v 5.2 h -15.466 v -5.2 h -15.067 v 5.2 h -15.467 v -5.2 h -15.066 v 5.2 h -15.467" />
  <path
     id="polyline4-8"
     style="vector-effect:non-scaling-stroke;fill:none;stroke:#000000;stroke-width:0.264583;-inkscape-stroke:hairline"
     d="m 748.18599,633.89201 -0.075,-0.211 -0.055,-0.218 -0.032,-0.221 -0.011,-0.225 v -1.584 l 0.011,-0.225 0.032,-0.221 0.055,-0.218 0.075,-0.211 0.096,-0.202 0.115,-0.192 0.133,-0.18 0.151,-0.166 0.166,-0.15 0.18,-0.134 0.191,-0.115 0.202,-0.095 0.212,-0.075 0.21701,-0.055 0.221,-0.033 0.226,-0.011 h 55.55802 l 0.226,0.011 0.221,0.033 0.217,0.055 0.212,0.075 0.202,0.095 0.191,0.115 0.18,0.134 0.166,0.15 0.151,0.166 0.133,0.18 0.115,0.192 0.096,0.202 0.075,0.211 0.055,0.218 0.032,0.221 0.012,0.226 v 1.582 l -0.012,0.226 -0.032,0.221 -0.055,0.21801 -0.075,0.211 -0.096,0.202 -0.115,0.192 -0.133,0.18 -0.151,0.166 -0.166,0.15 -0.18,0.134 -0.191,0.115 -0.202,0.095 -0.212,0.075 -0.217,0.055 -0.221,0.033 -0.226,0.011 H 750.296 l -0.226,-0.011 -0.221,-0.033 -0.21701,-0.055 -0.212,-0.075 -0.202,-0.095 -0.191,-0.115 -0.18,-0.134 -0.166,-0.15 -0.151,-0.166 -0.133,-0.18 -0.115,-0.192 -0.096,-0.202 m -29.386,13.15799 v -18.095 h 5.2 v -17.69599 h -5.2 v -18.09501 h 5.2 v -17.69599 h -5.2 v -18.095 h 5.2 v -17.696 h -5.2 v -18.09503 h 5.2 v -17.696 h -5.2 v -18.09501 h 5.2 v -17.696 h -5.2 v -18.095 h 15.467 v 5.20001 h 15.066 v -5.20001 H 764.8 v 5.20001 h 15.06702 v -5.20001 h 15.466 v 5.20001 h 15.067 v -5.20001 h 15.467 v 5.20001 h 15.066 v -5.20001 h 15.467 v 18.095 h -5.2 v 17.696 h 5.2 v 18.09501 h -5.2 v 17.696 h 5.2 v 18.09503 h -5.2 v 17.696 h 5.2 v 18.095 h -5.2 v 17.69599 h 5.2 v 18.09501 h -5.2 v 17.69599 h 5.2 v 18.095 h -15.467 v -5.2 h -15.066 v 5.2 h -15.467 v -5.2 h -15.067 v 5.2 h -15.466 v -5.2 H 764.8 v 5.2 h -15.46701 v -5.2 h -15.066 v 5.2 h -15.467" />
  <polyline
     z="0"
     points="689.35,533.125 816.55,533.125 816.55,543.325 806.483,543.325 806.483,548.525 791.017,548.525 791.017,543.325 775.95,543.325 775.95,548.525 760.483,548.525 760.483,543.325 745.417,543.325 745.417,548.525 729.95,548.525 729.95,543.325 714.883,543.325 714.883,548.525 699.417,548.525 699.417,543.325 689.35,543.325 689.35,533.125"
     fill="none"
     stroke="#000000"
     stroke-width="0.1mm"
     id="polyline5"
     style="vector-effect:non-scaling-stroke;stroke-width:0.264583;stroke-dasharray:none;-inkscape-stroke:hairline"
     transform="translate(-240.55,-158.08699)" />
  <polyline
     z="0"
     points="694.55,533.125 694.55,522.239 689.35,522.239 689.35,511.154 694.55,511.154 694.55,500.468 689.35,500.468 689.35,489.382 694.55,489.382 694.55,478.696 689.35,478.696 689.35,467.611 694.55,467.611 694.55,456.725 821.75,456.725 821.75,467.611 826.95,467.611 826.95,478.696 821.75,478.696 821.75,489.382 826.95,489.382 826.95,500.468 821.75,500.468 821.75,511.154 826.95,511.154 826.95,522.239 821.75,522.239 821.75,533.125 694.55,533.125"
     fill="none"
     stroke="#000000"
     stroke-width="0.1mm"
     id="polyline6"
     style="vector-effect:non-scaling-stroke;stroke-width:0.264583;stroke-dasharray:none;-inkscape-stroke:hairline"
     transform="translate(-245.75001,113.92501)" />
  <polyline
     z="0"
     points="826.95,514.99 826.95,501.854 832.15,501.854 832.15,488.919 959.35,488.919 959.35,501.854 964.55,501.854 964.55,514.99 959.35,514.99 959.35,527.925 949.283,527.925 949.283,533.125 933.817,533.125 933.817,527.925 918.75,527.925 918.75,533.125 903.283,533.125 903.283,527.925 888.217,527.925 888.217,533.125 872.75,533.125 872.75,527.925 857.683,527.925 857.683,533.125 842.217,533.125 842.217,527.925 832.15,527.925 832.15,514.99 826.95,514.99"
     fill="none"
     stroke="#000000"
     stroke-width="0.1mm"
     id="polyline7"
     style="vector-effect:non-scaling-stroke;stroke-width:0.264583;stroke-dasharray:none;-inkscape-stroke:hairline"
     transform="translate(-383.35,-54.27499)" />
  <polyline
     z="0"
     points="689.35,533.125 816.55,533.125 816.55,543.325 806.483,543.325 806.483,548.525 791.017,548.525 791.017,543.325 775.95,543.325 775.95,548.525 760.483,548.525 760.483,543.325 745.417,543.325 745.417,548.525 729.95,548.525 729.95,543.325 714.883,543.325 714.883,548.525 699.417,548.525 699.417,543.325 689.35,543.325 689.35,533.125"
     fill="none"
     stroke="#000000"
     stroke-width="0.1mm"
     id="polyline5-7"
     style="vector-effect:non-scaling-stroke;stroke-width:0.264583;stroke-dasharray:none;-inkscape-stroke:hairline"
     transform="rotate(180,632.67499,513.6875)" />
  <polyline
     z="0"
     points="694.55,533.125 694.55,522.239 689.35,522.239 689.35,511.154 694.55,511.154 694.55,500.468 689.35,500.468 689.35,489.382 694.55,489.382 694.55,478.696 689.35,478.696 689.35,467.611 694.55,467.611 694.55,456.725 821.75,456.725 821.75,467.611 826.95,467.611 826.95,478.696 821.75,478.696 821.75,489.382 826.95,489.382 826.95,500.468 821.75,500.468 821.75,511.154 826.95,511.154 826.95,522.239 821.75,522.239 821.75,533.125 694.55,533.125"
     fill="none"
     stroke="#000000"
     stroke-width="0.1mm"
     id="polyline6-1"
     style="vector-effect:non-scaling-stroke;stroke-width:0.264583;stroke-dasharray:none;-inkscape-stroke:hairline"
     transform="rotate(180,635.27499,513.6875)" />
  <polyline
     z="0"
     points="826.95,514.99 826.95,501.854 832.15,501.854 832.15,488.919 959.35,488.919 959.35,501.854 964.55,501.854 964.55,514.99 959.35,514.99 959.35,527.925 949.283,527.925 949.283,533.125 933.817,533.125 933.817,527.925 918.75,527.925 918.75,533.125 903.283,533.125 903.283,527.925 888.217,527.925 888.217,533.125 872.75,533.125 872.75,527.925 857.683,527.925 857.683,533.125 842.217,533.125 842.217,527.925 832.15,527.925 832.15,514.99 826.95,514.99"
     fill="none"
     stroke="#000000"
     stroke-width="0.1mm"
     id="polyline7-7"
     style="vector-effect:non-scaling-stroke;stroke-width:0.264583;stroke-dasharray:none;-inkscape-stroke:hairline"
     transform="rotate(180,704.075,461.7815)" />
</svg>
