<?xml version="1.0" encoding="UTF-8" standalone="no"?>
<svg
   width="1300mm"
   height="900mm"
   viewBox="0 0 1300 900"
   version="1.1"
   id="svg10"
   sodipodi:docname="FrameManta.svg"
   inkscape:version="1.4 (e7c3feb100, 2024-10-09)"
   xmlns:inkscape="http://www.inkscape.org/namespaces/inkscape"
   xmlns:sodipodi="http://sodipodi.sourceforge.net/DTD/sodipodi-0.dtd"
   xmlns="http://www.w3.org/2000/svg"
   xmlns:svg="http://www.w3.org/2000/svg">
  <defs
     id="defs10" />
  <sodipodi:namedview
     id="namedview10"
     pagecolor="#505050"
     bordercolor="#eeeeee"
     borderopacity="1"
     inkscape:showpageshadow="0"
     inkscape:pageopacity="0"
     inkscape:pagecheckerboard="0"
     inkscape:deskcolor="#505050"
     inkscape:document-units="mm"
     inkscape:zoom="0.083614244"
     inkscape:cx="2726.8081"
     inkscape:cy="2290.2796"
     inkscape:window-width="1920"
     inkscape:window-height="1011"
     inkscape:window-x="0"
     inkscape:window-y="32"
     inkscape:window-maximized="1"
     inkscape:current-layer="svg10" />
  <polyline
     z="0"
     points="229.887,724.326 229.887,717.046 224.687,717.046 224.687,709.566 229.887,709.566 229.887,702.486 224.687,702.486 224.687,695.006 229.887,695.006 229.887,687.726 251.896,687.726 251.896,692.926 278.705,692.926 278.705,687.726 305.914,687.726 305.914,692.926 332.723,692.926 332.723,687.726 359.932,687.726 359.932,692.926 386.742,692.926 386.742,687.726 413.951,687.726 413.951,692.926 440.76,692.926 440.76,687.726 467.969,687.726 467.969,692.926 494.778,692.926 494.778,687.726 516.787,687.726 516.787,695.006 521.987,695.006 521.987,702.486 516.787,702.486 516.787,709.566 521.987,709.566 521.987,717.046 516.787,717.046 516.787,724.326 494.778,724.326 494.778,719.126 467.969,719.126 467.969,724.326 440.76,724.326 440.76,719.126 413.951,719.126 413.951,724.326 386.742,724.326 386.742,719.126 359.932,719.126 359.932,724.326 332.723,724.326 332.723,719.126 305.914,719.126 305.914,724.326 278.705,724.326 278.705,719.126 251.896,719.126 251.896,724.326 229.887,724.326"
     fill="none"
     stroke="#000000"
     stroke-width="0.1mm"
     id="polyline1"
     transform="rotate(90,733.475,938.15101)"
     style="vector-effect:non-scaling-stroke;stroke-width:0.264583;stroke-dasharray:none;-inkscape-stroke:hairline" />
  <path
     id="polyline3"
     style="vector-effect:non-scaling-stroke;fill:none;stroke:#000000;stroke-width:0.264583;stroke-dasharray:none;-inkscape-stroke:hairline"
     d="m 537.958,668.09396 -0.337,-0.371 -0.298,-0.402 -0.257,-0.428 -0.213,-0.453 -0.169,-0.471 -0.122,-0.485 -0.073,-0.496 -0.025,-0.502 v -214.221 l 0.025,-0.501 0.073,-0.496 0.122,-0.485 0.169,-0.471 0.213,-0.453 0.257,-0.428 0.298,-0.402 0.337,-0.371 0.371,-0.337 0.402,-0.298 0.429,-0.258 0.452,-0.213 0.472,-0.169 0.485,-0.122 0.495,-0.072 0.503,-0.026 h 255.494 l 0.503,0.026 0.495,0.072 0.485,0.122 0.472,0.169 0.452,0.213 0.429,0.258 0.402,0.298 0.371,0.337 0.337,0.371 0.298,0.402 0.257,0.428 0.214,0.453 0.168,0.471 0.122,0.485 0.073,0.496 0.025,0.501 v 214.221 l -0.025,0.502 -0.073,0.496 -0.122,0.485 -0.168,0.471 -0.214,0.453 -0.257,0.428 -0.298,0.402 -0.337,0.371 -0.371,0.337 -0.402,0.298 -0.429,0.257 -0.452,0.215 -0.472,0.168 -0.485,0.122 -0.495,0.072 -0.502,0.025 H 541.566 l -0.502,-0.025 -0.495,-0.072 -0.485,-0.122 -0.472,-0.168 -0.452,-0.215 -0.429,-0.257 -0.402,-0.298 -0.371,-0.337 m -12.094,12.094 v -22.311 h -5.2 v -22.511 h 5.2 v -22.112 h -5.2 v -22.511 h 5.2 v -22.111 h -5.2 v -22.512 h 5.2 v -22.111 h -5.2 v -22.511 h 5.2 v -22.112 h -5.2 v -22.511 h 5.2 v -22.312 h 21.809 v -5.2 h 27.209 v 5.2 h 26.809 v -5.2 H 628.9 v 5.2 h 26.809 v -5.2 h 27.21 v 5.2 h 26.809 v -5.2 h 27.209 v 5.2 h 26.809 v -5.2 h 27.209 v 5.2 h 21.809 v 22.312 h 5.2 v 22.511 h -5.2 v 22.112 h 5.2 v 22.511 h -5.2 v 22.111 h 5.2 v 22.512 h -5.2 v 22.111 h 5.2 v 22.511 h -5.2 v 22.112 h 5.2 v 22.511 h -5.2 v 22.311 h -21.809 v 5.201 h -27.209 v -5.201 h -26.809 v 5.201 h -27.209 v -5.201 h -26.809 v 5.201 h -27.21 v -5.201 H 628.9 v 5.201 h -27.209 v -5.201 h -26.809 v 5.201 h -27.209 v -5.201 h -21.809" />
  <polyline
     z="0"
     points="251.696,431.7 251.696,426.499 229.887,426.499 229.887,404.188 224.687,404.188 224.687,381.677 229.887,381.677 229.887,359.565 224.687,359.565 224.687,337.054 229.887,337.054 229.887,314.943 224.687,314.943 224.687,292.431 229.887,292.431 229.887,270.32 224.687,270.32 224.687,247.809 229.887,247.809 229.887,225.697 224.687,225.697 224.687,203.186 229.887,203.186 229.887,180.874 251.696,180.874 251.696,175.674 278.905,175.674 278.905,180.874 305.714,180.874 305.714,175.674 332.923,175.674 332.923,180.874 359.732,180.874 359.732,175.674 386.942,175.674 386.942,180.874 413.751,180.874 413.751,175.674 440.96,175.674 440.96,180.874 467.769,180.874 467.769,175.674 494.978,175.674 494.978,180.874 516.787,180.874 516.787,203.186 521.987,203.186 521.987,225.697 516.787,225.697 516.787,247.809 521.987,247.809 521.987,270.32 516.787,270.32 516.787,292.431 521.987,292.431 521.987,314.943 516.787,314.943 516.787,337.054 521.987,337.054 521.987,359.565 516.787,359.565 516.787,381.677 521.987,381.677 521.987,404.188 516.787,404.188 516.787,426.499 494.978,426.499 494.978,431.7 467.769,431.7 467.769,426.499 440.96,426.499 440.96,431.7 413.751,431.7 413.751,426.499 386.942,426.499 386.942,431.7 359.732,431.7 359.732,426.499 332.923,426.499 332.923,431.7 305.714,431.7 305.714,426.499 278.905,426.499 278.905,431.7 251.696,431.7"
     fill="none"
     stroke="#000000"
     stroke-width="0.1mm"
     id="polyline4"
     style="vector-effect:non-scaling-stroke;stroke-width:0.264583;stroke-dasharray:none;-inkscape-stroke:hairline"
     transform="translate(295.977,-2.33704)" />
  <path
     id="polyline3-2"
     style="vector-effect:non-scaling-stroke;fill:none;stroke:#000000;stroke-width:0.264583;stroke-dasharray:none;-inkscape-stroke:hairline"
     d="m 240.658,668.09396 -0.337,-0.371 -0.298,-0.402 -0.257,-0.428 -0.213,-0.453 -0.169,-0.471 -0.122,-0.485 -0.073,-0.496 -0.025,-0.502 v -214.221 l 0.025,-0.501 0.073,-0.496 0.122,-0.485 0.169,-0.471 0.213,-0.453 0.257,-0.428 0.298,-0.402 0.337,-0.371 0.371,-0.337 0.402,-0.298 0.429,-0.258 0.452,-0.213 0.472,-0.169 0.485,-0.122 0.495,-0.072 0.503,-0.026 h 255.494 l 0.503,0.026 0.495,0.072 0.485,0.122 0.472,0.169 0.452,0.213 0.429,0.258 0.402,0.298 0.371,0.337 0.337,0.371 0.298,0.402 0.257,0.428 0.214,0.453 0.168,0.471 0.122,0.485 0.073,0.496 0.025,0.501 v 214.221 l -0.025,0.502 -0.073,0.496 -0.122,0.485 -0.168,0.471 -0.214,0.453 -0.257,0.428 -0.298,0.402 -0.337,0.371 -0.371,0.337 -0.402,0.298 -0.429,0.257 -0.452,0.215 -0.472,0.168 -0.485,0.122 -0.495,0.072 -0.502,0.025 H 244.266 l -0.502,-0.025 -0.495,-0.072 -0.485,-0.122 -0.472,-0.168 -0.452,-0.215 -0.429,-0.257 -0.402,-0.298 -0.371,-0.337 m -12.094,12.094 v -22.311 h -5.2 v -22.511 h 5.2 v -22.112 h -5.2 v -22.511 h 5.2 v -22.111 h -5.2 v -22.512 h 5.2 v -22.111 h -5.2 v -22.511 h 5.2 v -22.112 h -5.2 v -22.511 h 5.2 v -22.312 h 21.809 v -5.2 h 27.209 v 5.2 h 26.809 v -5.2 H 331.6 v 5.2 h 26.809 v -5.2 h 27.21 v 5.2 h 26.809 v -5.2 h 27.209 v 5.2 h 26.809 v -5.2 h 27.209 v 5.2 h 21.809 v 22.312 h 5.2 v 22.511 h -5.2 v 22.112 h 5.2 v 22.511 h -5.2 v 22.111 h 5.2 v 22.512 h -5.2 v 22.111 h 5.2 v 22.511 h -5.2 v 22.112 h 5.2 v 22.511 h -5.2 v 22.311 h -21.809 v 5.201 h -27.209 v -5.201 h -26.809 v 5.201 h -27.209 v -5.201 h -26.809 v 5.201 h -27.21 v -5.201 H 331.6 v 5.201 h -27.209 v -5.201 h -26.809 v 5.201 h -27.209 v -5.201 h -21.809" />
  <polyline
     z="0"
     points="251.696,431.7 251.696,426.499 229.887,426.499 229.887,404.188 224.687,404.188 224.687,381.677 229.887,381.677 229.887,359.565 224.687,359.565 224.687,337.054 229.887,337.054 229.887,314.943 224.687,314.943 224.687,292.431 229.887,292.431 229.887,270.32 224.687,270.32 224.687,247.809 229.887,247.809 229.887,225.697 224.687,225.697 224.687,203.186 229.887,203.186 229.887,180.874 251.696,180.874 251.696,175.674 278.905,175.674 278.905,180.874 305.714,180.874 305.714,175.674 332.923,175.674 332.923,180.874 359.732,180.874 359.732,175.674 386.942,175.674 386.942,180.874 413.751,180.874 413.751,175.674 440.96,175.674 440.96,180.874 467.769,180.874 467.769,175.674 494.978,175.674 494.978,180.874 516.787,180.874 516.787,203.186 521.987,203.186 521.987,225.697 516.787,225.697 516.787,247.809 521.987,247.809 521.987,270.32 516.787,270.32 516.787,292.431 521.987,292.431 521.987,314.943 516.787,314.943 516.787,337.054 521.987,337.054 521.987,359.565 516.787,359.565 516.787,381.677 521.987,381.677 521.987,404.188 516.787,404.188 516.787,426.499 494.978,426.499 494.978,431.7 467.769,431.7 467.769,426.499 440.96,426.499 440.96,431.7 413.751,431.7 413.751,426.499 386.942,426.499 386.942,431.7 359.732,431.7 359.732,426.499 332.923,426.499 332.923,431.7 305.714,431.7 305.714,426.499 278.905,426.499 278.905,431.7 251.696,431.7"
     fill="none"
     stroke="#000000"
     stroke-width="0.1mm"
     id="polyline4-6"
     style="vector-effect:non-scaling-stroke;stroke-width:0.264583;stroke-dasharray:none;-inkscape-stroke:hairline"
     transform="translate(-1.323,-2.33704)" />
  <path
     id="polyline6"
     style="vector-effect:non-scaling-stroke;fill:none;stroke:#000000;stroke-width:0.264583;stroke-dasharray:none;-inkscape-stroke:hairline"
     d="m 947.01705,245.67197 v 22.111 h -5 v -22.111 h 5 m 0.2,-72.335 v 27.712 h -5.2 v 22.111 h 5 v -7.635 h 5.721 l 13.67,13.67 h -5.341 v 18.446 h 5.2 v 18.845 h -5.2 v 18.445 h 5.603 l -5.33,2.208 -14.123,-14.123 v 17.278 h -5.2 v 22.112 h 5.2 v 22.511 h -5.2 v 22.111 h 5.2 v 22.512 h -5.2 v 22.111 h 5.2 v 27.712 h -7.48 v -5.2 h -7.08 v 5.2 h -7.48 v -5.2 h -7.08 v 5.2 h -7.48 v -27.712 h 5.2 v -22.111 h -5.2 v -22.512 h 5.2 v -22.111 h -5.2 v -22.511 h 5.2 v -22.112 h -5.2 v -22.511 h 5.2 v -22.111 h -5.2 v -22.512 h 5.2 v -22.111 h -5.2 v -27.712 h 7.48 v 5.201 h 7.08 v -5.201 h 7.48 v 5.201 h 7.08 v -5.201 h 7.48" />
  <polyline
     z="0"
     points="521.987,631.59 819.287,631.59 819.287,650.435 814.087,650.435 814.087,668.881 819.287,668.881 819.287,687.726 521.987,687.726 521.987,668.881 527.187,668.881 527.187,650.435 521.987,650.435 521.987,631.59"
     fill="none"
     stroke="#000000"
     stroke-width="0.1mm"
     id="polyline7"
     transform="rotate(90,900.42498,807.80102)"
     style="vector-effect:non-scaling-stroke;stroke-width:0.264583;stroke-dasharray:none;-inkscape-stroke:hairline" />
  <polyline
     z="0"
     points="527.187,687.726 549.196,687.726 549.196,692.926 576.005,692.926 576.005,687.726 603.214,687.726 603.214,692.926 630.023,692.926 630.023,687.726 657.232,687.726 657.232,692.926 684.042,692.926 684.042,687.726 711.251,687.726 711.251,692.926 738.06,692.926 738.06,687.726 765.269,687.726 765.269,692.926 792.078,692.926 792.078,687.726 814.087,687.726 814.087,695.006 819.287,695.006 819.287,702.486 814.087,702.486 814.087,709.566 819.287,709.566 819.287,717.046 814.087,717.046 814.087,724.326 792.078,724.326 792.078,719.126 765.269,719.126 765.269,724.326 738.06,724.326 738.06,719.126 711.251,719.126 711.251,724.326 684.042,724.326 684.042,719.126 657.232,719.126 657.232,724.326 630.023,724.326 630.023,719.126 603.214,719.126 603.214,724.326 576.005,724.326 576.005,719.126 549.196,719.126 549.196,724.326 527.187,724.326 527.187,717.046 521.987,717.046 521.987,709.566 527.187,709.566 527.187,702.486 521.987,702.486 521.987,695.006 527.187,695.006 527.187,687.726"
     fill="none"
     stroke="#000000"
     stroke-width="0.1mm"
     id="polyline8"
     transform="rotate(90,900.42498,807.80102)"
     style="vector-effect:non-scaling-stroke;stroke-width:0.264583;stroke-dasharray:none;-inkscape-stroke:hairline" />
  <path
     id="polyline10"
     style="vector-effect:non-scaling-stroke;fill:none;stroke:#000000;stroke-width:0.264583;stroke-dasharray:none;-inkscape-stroke:hairline"
     d="m 849.364,334.91696 h 5 v 22.111 h -5 v -22.111 m -31.4,-161.58 h 7.48 v 5.2 h 7.08 v -5.2 h 7.48 v 5.2 h 7.08 v -5.2 h 7.48 v 27.712 h -5.2 v 22.111 h 5.2 v 22.512 h -5.2 v 22.111 h 5.2 v 22.511 h -5.2 v 22.112 h 5.2 v 17.278 l 14.123,-14.123 5.33,2.208 h -5.603 v 18.445 h 5.2 v 18.845 h -5.2 v 18.446 h 5.341 l -13.67,13.67 h -5.721 v -7.635 h -5 v 22.111 h 5.2 v 27.712 h -7.48 v -5.201 h -7.08 v 5.201 h -7.48 v -5.201 h -7.08 v 5.201 h -7.48 v -27.712 h 5.2 v -22.111 h -5.2 v -22.512 h 5.2 v -22.111 h -5.2 v -22.51099 h 5.2 v -22.112 h -5.2 v -22.511 h 5.2 v -22.111 h -5.2 v -22.512 h 5.2 v -22.111 h -5.2 v -27.712" />
  <polyline
     z="0"
     points="229.887,724.326 229.887,717.046 224.687,717.046 224.687,709.566 229.887,709.566 229.887,702.486 224.687,702.486 224.687,695.006 229.887,695.006 229.887,687.726 251.896,687.726 251.896,692.926 278.705,692.926 278.705,687.726 305.914,687.726 305.914,692.926 332.723,692.926 332.723,687.726 359.932,687.726 359.932,692.926 386.742,692.926 386.742,687.726 413.951,687.726 413.951,692.926 440.76,692.926 440.76,687.726 467.969,687.726 467.969,692.926 494.778,692.926 494.778,687.726 516.787,687.726 516.787,695.006 521.987,695.006 521.987,702.486 516.787,702.486 516.787,709.566 521.987,709.566 521.987,717.046 516.787,717.046 516.787,724.326 494.778,724.326 494.778,719.126 467.969,719.126 467.969,724.326 440.76,724.326 440.76,719.126 413.951,719.126 413.951,724.326 386.742,724.326 386.742,719.126 359.932,719.126 359.932,724.326 332.723,724.326 332.723,719.126 305.914,719.126 305.914,724.326 278.705,724.326 278.705,719.126 251.896,719.126 251.896,724.326 229.887,724.326"
     fill="none"
     stroke="#000000"
     stroke-width="0.1mm"
     id="polyline1-2"
     transform="rotate(-90,587.16201,364.18799)"
     style="vector-effect:non-scaling-stroke;stroke-width:0.264583;stroke-dasharray:none;-inkscape-stroke:hairline" />
  <path
     id="polyline6-0"
     style="vector-effect:non-scaling-stroke;fill:none;stroke:#000000;stroke-width:0.264583;stroke-dasharray:none;-inkscape-stroke:hairline"
     d="m 966.87004,357.02796 v -22.111 h 5 v 22.111 h -5 m -0.2,72.33502 v -27.71199 h 5.2 v -22.111 h -5 v 7.635 h -5.721 l -13.67,-13.67 h 5.341 v -18.44603 h -5.2 v -18.845 h 5.2 v -18.445 h -5.60299 l 5.33,-2.208 14.123,14.123 v -17.278 h 5.2 v -22.112 h -5.2 v -22.511 h 5.2 v -22.111 h -5.2 v -22.512 h 5.2 v -22.111 h -5.2 v -27.712 h 7.48 v 5.2 h 7.08 v -5.2 h 7.48 v 5.2 h 7.08004 v -5.2 h 7.48001 v 27.712 h -5.20001 v 22.111 h 5.20001 v 22.512 h -5.20001 v 22.111 h 5.20001 v 22.511 h -5.20001 v 22.112 h 5.20001 v 22.511 h -5.20001 v 22.111 h 5.20001 v 22.51203 h -5.20001 v 22.111 h 5.20001 v 27.712 h -7.48001 v -5.201 h -7.08004 v 5.201 h -7.48 v -5.201 h -7.08 v 5.201 h -7.48" />
  <polyline
     z="0"
     points="521.987,631.59 819.287,631.59 819.287,650.435 814.087,650.435 814.087,668.881 819.287,668.881 819.287,687.726 521.987,687.726 521.987,668.881 527.187,668.881 527.187,650.435 521.987,650.435 521.987,631.59"
     fill="none"
     stroke="#000000"
     stroke-width="0.1mm"
     id="polyline7-6"
     transform="rotate(-90,717.51199,531.13798)"
     style="vector-effect:non-scaling-stroke;stroke-width:0.264583;stroke-dasharray:none;-inkscape-stroke:hairline" />
  <polyline
     z="0"
     points="527.187,687.726 549.196,687.726 549.196,692.926 576.005,692.926 576.005,687.726 603.214,687.726 603.214,692.926 630.023,692.926 630.023,687.726 657.232,687.726 657.232,692.926 684.042,692.926 684.042,687.726 711.251,687.726 711.251,692.926 738.06,692.926 738.06,687.726 765.269,687.726 765.269,692.926 792.078,692.926 792.078,687.726 814.087,687.726 814.087,695.006 819.287,695.006 819.287,702.486 814.087,702.486 814.087,709.566 819.287,709.566 819.287,717.046 814.087,717.046 814.087,724.326 792.078,724.326 792.078,719.126 765.269,719.126 765.269,724.326 738.06,724.326 738.06,719.126 711.251,719.126 711.251,724.326 684.042,724.326 684.042,719.126 657.232,719.126 657.232,724.326 630.023,724.326 630.023,719.126 603.214,719.126 603.214,724.326 576.005,724.326 576.005,719.126 549.196,719.126 549.196,724.326 527.187,724.326 527.187,717.046 521.987,717.046 521.987,709.566 527.187,709.566 527.187,702.486 521.987,702.486 521.987,695.006 527.187,695.006 527.187,687.726"
     fill="none"
     stroke="#000000"
     stroke-width="0.1mm"
     id="polyline8-8"
     transform="rotate(-90,717.512,531.13799)"
     style="vector-effect:non-scaling-stroke;stroke-width:0.264583;stroke-dasharray:none;-inkscape-stroke:hairline" />
  <path
     id="polyline10-9"
     style="vector-effect:non-scaling-stroke;fill:none;stroke:#000000;stroke-width:0.264583;stroke-dasharray:none;-inkscape-stroke:hairline"
     d="m 879.217,267.78297 h -5 v -22.111 h 5 v 22.111 m 31.40005,161.58 h -7.48 v -5.2 H 896.057 v 5.2 h -7.48 v -5.2 h -7.08 v 5.2 h -7.48 v -27.712 h 5.2 v -22.11101 h -5.2 v -22.51199 h 5.2 v -22.11101 h -5.2 v -22.511 h 5.2 v -22.112 h -5.2 v -17.278 l -14.123,14.123 -5.33,-2.208 h 5.603 v -18.445 h -5.2 v -18.845 h 5.2 v -18.446 h -5.341 l 13.67,-13.67 h 5.721 v 7.635 h 5 v -22.111 h -5.2 v -27.712 h 7.48 v 5.201 h 7.08 v -5.201 h 7.48 v 5.201 h 7.08005 v -5.201 h 7.48 v 27.712 h -5.2 v 22.111 h 5.2 v 22.512 h -5.2 v 22.111 h 5.2 v 22.511 h -5.2 v 22.112 h 5.2 v 22.511 h -5.2 v 22.11101 h 5.2 v 22.51199 h -5.2 v 22.11101 h 5.2 v 27.712" />
  <path
     id="polyline2"
     style="vector-effect:non-scaling-stroke;fill:none;stroke:#ff0000;stroke-width:0.264583;-inkscape-stroke:hairline"
     d="m 1338.001,657.625 -0.203,-0.223 -0.18,-0.244 -0.155,-0.258 -0.129,-0.272 -0.101,-0.285 -0.074,-0.293 -0.044,-0.298 -0.015,-0.303 V 490.178 l 0.015,-0.304 0.044,-0.298 0.074,-0.293 0.101,-0.285 0.129,-0.272 0.155,-0.258 0.18,-0.244 0.203,-0.223 0.223,-0.203 0.243,-0.179 0.258,-0.156 0.273,-0.128 0.284,-0.102 0.293,-0.073 0.299,-0.044 0.303,-0.015 h 206.546 l 0.303,0.015 0.299,0.044 0.293,0.073 0.284,0.102 0.273,0.128 0.258,0.156 0.243,0.179 0.223,0.203 0.203,0.223 0.18,0.244 0.155,0.258 0.129,0.272 0.101,0.285 0.074,0.293 0.044,0.298 0.015,0.304 v 165.271 l -0.015,0.303 -0.044,0.298 -0.074,0.293 -0.101,0.285 -0.129,0.272 -0.155,0.258 -0.18,0.244 -0.203,0.223 -0.223,0.203 -0.243,0.179 -0.258,0.156 -0.273,0.128 -0.284,0.102 -0.293,0.074 -0.299,0.043 -0.304,0.016 h -206.544 l -0.304,-0.016 -0.299,-0.043 -0.293,-0.074 -0.284,-0.102 -0.273,-0.128 -0.258,-0.156 -0.243,-0.179 -0.223,-0.203 M 1300,695.626 V 450 h 286.9 V 695.626 H 1300" />
  <path
     id="polyline2-4"
     style="vector-effect:non-scaling-stroke;fill:none;stroke:#ff0000;stroke-width:0.264583;-inkscape-stroke:hairline"
     d="m 1338.001,411.999 -0.203,-0.223 -0.18,-0.244 -0.155,-0.258 -0.129,-0.272 -0.101,-0.285 -0.074,-0.293 -0.044,-0.298 -0.015,-0.303 V 244.552 l 0.015,-0.304 0.044,-0.298 0.074,-0.293 0.101,-0.285 0.129,-0.272 0.155,-0.258 0.18,-0.244 0.203,-0.223 0.223,-0.203 0.243,-0.179 0.258,-0.156 0.273,-0.128 0.284,-0.102 0.293,-0.073 0.299,-0.044 0.303,-0.015 h 206.546 l 0.303,0.015 0.299,0.044 0.293,0.073 0.284,0.102 0.273,0.128 0.258,0.156 0.243,0.179 0.223,0.203 0.203,0.223 0.18,0.244 0.155,0.258 0.129,0.272 0.101,0.285 0.074,0.293 0.044,0.298 0.015,0.304 v 165.271 l -0.015,0.303 -0.044,0.298 -0.074,0.293 -0.101,0.285 -0.129,0.272 -0.155,0.258 -0.18,0.244 -0.203,0.223 -0.223,0.203 -0.243,0.179 -0.258,0.156 -0.273,0.128 -0.284,0.102 -0.293,0.074 -0.299,0.043 -0.304,0.016 h -206.544 l -0.304,-0.016 -0.299,-0.043 -0.293,-0.074 -0.284,-0.102 -0.273,-0.128 -0.258,-0.156 -0.243,-0.179 -0.223,-0.203 M 1300,450 V 204.374 h 286.9 V 450 H 1300" />
  <path
     style="vector-effect:non-scaling-stroke;fill:none;stroke:#ff0000;stroke-width:0.264583;-inkscape-stroke:hairline"
     d="M 1586.9,695.626 V 450 h 286.9 v 245.626 h -286.9"
     id="path10" />
  <path
     style="vector-effect:non-scaling-stroke;fill:none;stroke:#ff0000;stroke-width:0.264583;-inkscape-stroke:hairline"
     d="M 1586.9,450 V 204.374 h 286.9 V 450 h -286.9"
     id="path10-5" />
</svg>
