<?xml version="1.0" encoding="UTF-8" standalone="no"?>
<svg
   width="1300mm"
   height="900mm"
   viewBox="0 0 1300 900"
   version="1.1"
   id="svg12"
   sodipodi:docname="FrameEssentials.svg"
   inkscape:version="1.4 (e7c3feb100, 2024-10-09)"
   xmlns:inkscape="http://www.inkscape.org/namespaces/inkscape"
   xmlns:sodipodi="http://sodipodi.sourceforge.net/DTD/sodipodi-0.dtd"
   xmlns="http://www.w3.org/2000/svg"
   xmlns:svg="http://www.w3.org/2000/svg">
  <defs
     id="defs12" />
  <sodipodi:namedview
     id="namedview12"
     pagecolor="#505050"
     bordercolor="#eeeeee"
     borderopacity="1"
     inkscape:showpageshadow="0"
     inkscape:pageopacity="0"
     inkscape:pagecheckerboard="0"
     inkscape:deskcolor="#505050"
     inkscape:document-units="mm"
     inkscape:zoom="0.11556323"
     inkscape:cx="3608.4142"
     inkscape:cy="1709.0211"
     inkscape:window-width="1920"
     inkscape:window-height="1011"
     inkscape:window-x="0"
     inkscape:window-y="32"
     inkscape:window-maximized="1"
     inkscape:current-layer="svg12" />
  <path
     id="polyline1"
     d="m 1300,450.00002 v 226.5748 h 221.8123 v -226.5748 z m 39.178,36.09908 h 143.4563 l 0.3039,0.016 0.3002,0.045 0.292,0.0718 0.2837,0.1018 0.2729,0.12919 0.2583,0.15607 0.2429,0.1788 0.2233,0.20205 0.2036,0.22428 0.1793,0.24288 0.155,0.25889 0.1297,0.27182 0.1013,0.28422 0.073,0.29301 0.044,0.29817 0.015,0.30386 v 148.21989 l -0.015,0.30489 -0.044,0.29818 -0.073,0.293 -0.1013,0.28422 -0.1297,0.27182 -0.155,0.2589 -0.1793,0.24288 -0.2036,0.22427 -0.2233,0.20206 -0.2429,0.1788 -0.2583,0.15606 -0.2729,0.12919 -0.2837,0.10181 -0.292,0.0718 -0.3002,0.0449 -0.3039,0.016 H 1339.178 l -0.3039,-0.016 -0.2997,-0.0449 -0.292,-0.0718 -0.2842,-0.10181 -0.2729,-0.12919 -0.2583,-0.15606 -0.2429,-0.1788 -0.2227,-0.20206 -0.2042,-0.22427 -0.1788,-0.24288 -0.155,-0.2589 -0.1302,-0.27182 -0.1008,-0.28422 -0.073,-0.293 -0.044,-0.29818 -0.015,-0.30489 V 489.17696 l 0.015,-0.30386 0.044,-0.29818 0.073,-0.293 0.1008,-0.28422 0.1302,-0.27182 0.155,-0.25889 0.1788,-0.24289 0.2042,-0.22428 0.2227,-0.20205 0.2429,-0.1788 0.2583,-0.15607 0.2729,-0.12919 0.2842,-0.1018 0.292,-0.0718 0.2997,-0.045 z"
     style="vector-effect:non-scaling-stroke;fill:none;stroke:#ff0000;stroke-width:0.264583;stroke-dasharray:none;stroke-opacity:1;-inkscape-stroke:hairline" />
  <path
     id="polyline1-4"
     d="M 1521.8123,450.00002 V 223.42518 H 1300 v 226.57483 z m -39.178,-36.09911 H 1339.178 l -0.3039,-0.016 -0.3002,-0.045 -0.292,-0.072 -0.2837,-0.1018 -0.2729,-0.1292 -0.2583,-0.1561 -0.2429,-0.1788 -0.2232,-0.202 -0.2037,-0.2243 -0.1793,-0.2429 -0.155,-0.2589 -0.1297,-0.2718 -0.1013,-0.2842 -0.073,-0.293 -0.044,-0.2982 -0.015,-0.3039 V 262.60316 l 0.015,-0.30489 0.044,-0.29818 0.073,-0.293 0.1013,-0.28422 0.1297,-0.27182 0.155,-0.2589 0.1793,-0.24288 0.2037,-0.22427 0.2232,-0.20206 0.2429,-0.17879 0.2583,-0.15607 0.2729,-0.12919 0.2837,-0.10181 0.292,-0.0718 0.3002,-0.0449 0.3039,-0.016 h 143.4563 l 0.3039,0.016 0.2997,0.0449 0.292,0.0718 0.2842,0.10181 0.2728,0.12919 0.2584,0.15607 0.2429,0.17879 0.2227,0.20206 0.2042,0.22427 0.1788,0.24288 0.155,0.2589 0.1302,0.27182 0.1008,0.28422 0.073,0.293 0.044,0.29818 0.015,0.30489 v 148.21985 l -0.015,0.3039 -0.044,0.2982 -0.073,0.293 -0.1008,0.2842 -0.1302,0.2718 -0.155,0.2589 -0.1788,0.2429 -0.2042,0.22431 -0.2227,0.202 -0.2429,0.1788 -0.2584,0.1561 -0.2728,0.1292 -0.2842,0.1018 -0.292,0.072 -0.2997,0.045 z"
     style="vector-effect:non-scaling-stroke;fill:none;stroke:#ff0000;stroke-width:0.264583;stroke-dasharray:none;stroke-opacity:1;-inkscape-stroke:hairline" />
  <path
     style="vector-effect:non-scaling-stroke;fill:none;stroke:#ff0000;stroke-width:0.264583;stroke-dasharray:none;stroke-opacity:1;-inkscape-stroke:hairline"
     d="M 1743.6246,450.00002 V 223.42518 h -221.8123 v 226.57483 z"
     id="polyline1-4-4" />
  <path
     style="vector-effect:non-scaling-stroke;fill:none;stroke:#ff0000;stroke-width:0.264583;stroke-dasharray:none;stroke-opacity:1;-inkscape-stroke:hairline"
     d="M 1743.6246,676.57485 V 450.00002 h -221.8123 v 226.57482 z"
     id="polyline1-4-4-9" />
  <path
     id="polyline10"
     d="m 554.62539,450.09899 v 5.19916 h -20.14605 v 15.85278 h -5.2002 v 21.2509 h 5.2002 v 20.85196 h -5.2002 v 21.254 h 5.2002 v 20.85247 h -5.2002 v 21.25193 h 5.2002 v 20.85196 h -5.2002 v 21.25193 h 5.2002 v 20.85299 h -5.2002 v 21.25194 h 5.2002 v 21.05194 h 15.89205 v 5.2002 h 21.29172 v -5.2002 h 20.89227 v 5.2002 h 21.29172 v -5.2002 h 20.89227 v 5.2002 h 21.29172 v -5.2002 h 20.89226 v 5.2002 h 21.29173 v -5.2002 h 20.89226 v 5.2002 h 21.29173 v -5.2002 h 15.89205 v -21.05194 h 5.2002 v -21.25194 h -5.2002 v -20.85299 h 5.2002 v -21.25193 h -5.2002 v -20.85196 h 5.2002 v -21.25193 h -5.2002 v -20.85247 h 5.2002 v -21.254 h -5.2002 v -20.85196 h 5.2002 v -21.2509 h -5.2002 v -15.85278 h -20.14606 v -5.19916 h -20.34708 v 5.19916 H 695.8514 v -5.19916 h -20.34605 v 5.19916 h -19.9471 v -5.19916 H 635.2122 v 5.19916 h -19.9471 v -5.19916 h -20.34604 v 5.19916 h -19.94711 v -5.19916 z m -4.44314,15.79903 H 740.5882 l 0.50281,0.0248 0.4961,0.0734 0.48524,0.12092 0.47077,0.16898 0.4532,0.21394 0.42788,0.25787 0.40205,0.29817 0.37103,0.3359 0.33693,0.37103 0.29818,0.40205 0.25683,0.42891 0.21394,0.4532 0.16795,0.47078 0.12195,0.48524 0.0729,0.49506 0.0253,0.50178 v 195.17 l -0.0253,0.50281 -0.0729,0.49506 -0.12195,0.48524 -0.16795,0.47077 -0.21394,0.4532 -0.25683,0.42892 -0.29818,0.40204 -0.33693,0.37104 -0.37103,0.33589 -0.40205,0.29818 -0.42788,0.25683 -0.4532,0.21497 -0.47077,0.16898 -0.48524,0.12093 -0.4961,0.0734 -0.50177,0.0248 H 550.18122 l -0.5023,-0.0248 -0.49557,-0.0734 -0.48524,-0.12093 -0.47078,-0.16898 -0.4532,-0.21497 -0.42788,-0.25683 -0.40204,-0.29818 -0.37104,-0.33589 -0.33693,-0.37104 -0.29817,-0.40204 -0.25683,-0.42892 -0.21291,-0.4532 -0.16898,-0.47077 -0.12196,-0.48524 -0.0734,-0.49506 -0.0248,-0.50281 v -195.17 l 0.0248,-0.50178 0.0734,-0.49506 0.12196,-0.48524 0.16898,-0.47078 0.21291,-0.4532 0.25683,-0.42891 0.29817,-0.40205 0.33693,-0.37103 0.37104,-0.3359 0.40204,-0.29817 0.42788,-0.25787 0.4532,-0.21394 0.47078,-0.16898 0.48524,-0.12092 0.49557,-0.0734 z"
     style="vector-effect:non-scaling-stroke;fill:none;stroke:#000000;stroke-width:0.264583;stroke-dasharray:none;stroke-opacity:1;-inkscape-stroke:hairline" />
  <polyline
     z="0"
     points="536.713,428.948 531.513,428.948 531.513,450 515.621,450 515.621,455.2 494.329,455.2 494.329,450 473.437,450 473.437,455.2 452.145,455.2 452.145,450 431.253,450 431.253,455.2 409.961,455.2 409.961,450 389.069,450 389.069,455.2 367.777,455.2 367.777,450 346.885,450 346.885,455.2 325.593,455.2 325.593,450 309.701,450 309.701,428.948 304.501,428.948 304.501,407.696 309.701,407.696 309.701,386.843 304.501,386.843 304.501,365.591 309.701,365.591 309.701,344.739 304.501,344.739 304.501,323.487 309.701,323.487 309.701,302.635 304.501,302.635 304.501,281.381 309.701,281.381 309.701,260.529 304.501,260.529 304.501,239.278 309.701,239.278 309.701,223.425 329.847,223.425 329.847,218.226 350.194,218.226 350.194,223.425 370.141,223.425 370.141,218.226 390.487,218.226 390.487,223.425 410.434,223.425 410.434,218.226 430.78,218.226 430.78,223.425 450.727,223.425 450.727,218.226 471.073,218.226 471.073,223.425 491.02,223.425 491.02,218.226 511.367,218.226 511.367,223.425 531.513,223.425 531.513,239.278 536.713,239.278 536.713,260.529 531.513,260.529 531.513,281.381 536.713,281.381 536.713,302.635 531.513,302.635 531.513,323.487 536.713,323.487 536.713,344.739 531.513,344.739 531.513,365.591 536.713,365.591 536.713,386.843 531.513,386.843 531.513,407.696 536.713,407.696 536.713,428.948"
     fill="none"
     stroke="black"
     stroke-width="0.1mm"
     id="polyline12"
     style="vector-effect:non-scaling-stroke;fill:none;stroke:#000000;stroke-width:0.264583;stroke-dasharray:none;stroke-opacity:1;-inkscape-stroke:hairline"
     transform="translate(-7.43386,231.87288)" />
  <polyline
     z="0"
     points="526.313,625.639 526.313,618.159 531.513,618.159 531.513,611.079 526.313,611.079 526.313,603.599 531.513,603.599 531.513,596.519 526.313,596.519 526.313,589.039 551.859,589.039 551.859,594.238 571.806,594.238 571.806,589.039 592.153,589.039 592.153,594.238 612.099,594.238 612.099,589.039 632.446,589.039 632.446,594.238 652.392,594.238 652.392,589.039 672.739,589.039 672.739,594.238 692.685,594.238 692.685,589.039 713.032,589.039 713.032,594.238 732.979,594.238 732.979,589.039 758.525,589.039 758.525,596.519 753.325,596.519 753.325,603.599 758.525,603.599 758.525,611.079 753.325,611.079 753.325,618.159 758.525,618.159 758.525,625.639 732.979,625.639 732.979,620.439 713.032,620.439 713.032,625.639 692.685,625.639 692.685,620.439 672.739,620.439 672.739,625.639 652.392,625.639 652.392,620.439 632.446,620.439 632.446,625.639 612.099,625.639 612.099,620.439 592.153,620.439 592.153,625.639 571.806,625.639 571.806,620.439 551.859,620.439 551.859,625.639 526.313,625.639"
     fill="none"
     stroke="black"
     stroke-width="0.1mm"
     id="polyline4"
     style="vector-effect:non-scaling-stroke;fill:none;stroke:#000000;stroke-width:0.264583;stroke-dasharray:none;stroke-opacity:1;-inkscape-stroke:hairline"
     transform="rotate(90,768.37116,691.95917)" />
  <polyline
     z="0"
     points="758.525,596.319 763.725,596.319 763.725,589.039 779.817,589.039 779.817,594.238 800.709,594.238 800.709,589.039 822.001,589.039 822.001,594.238 842.893,594.238 842.893,589.039 864.185,589.039 864.185,594.238 885.077,594.238 885.077,589.039 906.369,589.039 906.369,594.238 927.261,594.238 927.261,589.039 948.553,589.039 948.553,594.238 969.445,594.238 969.445,589.039 985.537,589.039 985.537,596.319 990.737,596.319 990.737,603.799 985.537,603.799 985.537,610.879 990.737,610.879 990.737,618.359 985.537,618.359 985.537,625.639 969.445,625.639 969.445,620.439 948.553,620.439 948.553,625.639 927.261,625.639 927.261,620.439 906.369,620.439 906.369,625.639 885.077,625.639 885.077,620.439 864.185,620.439 864.185,625.639 842.893,625.639 842.893,620.439 822.001,620.439 822.001,625.639 800.709,625.639 800.709,620.439 779.817,620.439 779.817,625.639 763.725,625.639 763.725,618.359 758.525,618.359 758.525,610.879 763.725,610.879 763.725,603.799 758.525,603.799 758.525,596.319"
     fill="none"
     stroke="black"
     stroke-width="0.1mm"
     id="polyline7"
     style="vector-effect:non-scaling-stroke;fill:none;stroke:#000000;stroke-width:0.264583;stroke-dasharray:none;stroke-opacity:1;-inkscape-stroke:hairline"
     transform="rotate(90,866.17713,557.55316)" />
  <polyline
     z="0"
     points="526.313,644.483 526.313,625.639 758.525,625.639 758.525,644.483 753.325,644.483 753.325,662.93 758.525,662.93 758.525,681.775 526.313,681.775 526.313,662.93 531.513,662.93 531.513,644.483 526.313,644.483"
     fill="none"
     stroke="black"
     stroke-width="0.1mm"
     id="polyline3-5"
     style="vector-effect:non-scaling-stroke;fill:none;stroke:#000000;stroke-width:0.264583;stroke-dasharray:none;stroke-opacity:1;-inkscape-stroke:hairline"
     transform="rotate(-90,745.33916,463.08685)" />
  <polyline
     z="0"
     points="526.313,625.639 526.313,618.159 531.513,618.159 531.513,611.079 526.313,611.079 526.313,603.599 531.513,603.599 531.513,596.519 526.313,596.519 526.313,589.039 551.859,589.039 551.859,594.238 571.806,594.238 571.806,589.039 592.153,589.039 592.153,594.238 612.099,594.238 612.099,589.039 632.446,589.039 632.446,594.238 652.392,594.238 652.392,589.039 672.739,589.039 672.739,594.238 692.685,594.238 692.685,589.039 713.032,589.039 713.032,594.238 732.979,594.238 732.979,589.039 758.525,589.039 758.525,596.519 753.325,596.519 753.325,603.599 758.525,603.599 758.525,611.079 753.325,611.079 753.325,618.159 758.525,618.159 758.525,625.639 732.979,625.639 732.979,620.439 713.032,620.439 713.032,625.639 692.685,625.639 692.685,620.439 672.739,620.439 672.739,625.639 652.392,625.639 652.392,620.439 632.446,620.439 632.446,625.639 612.099,625.639 612.099,620.439 592.153,620.439 592.153,625.639 571.806,625.639 571.806,620.439 551.859,620.439 551.859,625.639 526.313,625.639"
     fill="none"
     stroke="black"
     stroke-width="0.1mm"
     id="polyline4-2"
     style="vector-effect:non-scaling-stroke;fill:none;stroke:#000000;stroke-width:0.264583;stroke-dasharray:none;stroke-opacity:1;-inkscape-stroke:hairline"
     transform="rotate(-90,745.33916,463.08685)" />
  <polyline
     z="0"
     points="758.525,596.319 763.725,596.319 763.725,589.039 779.817,589.039 779.817,594.238 800.709,594.238 800.709,589.039 822.001,589.039 822.001,594.238 842.893,594.238 842.893,589.039 864.185,589.039 864.185,594.238 885.077,594.238 885.077,589.039 906.369,589.039 906.369,594.238 927.261,594.238 927.261,589.039 948.553,589.039 948.553,594.238 969.445,594.238 969.445,589.039 985.537,589.039 985.537,596.319 990.737,596.319 990.737,603.799 985.537,603.799 985.537,610.879 990.737,610.879 990.737,618.359 985.537,618.359 985.537,625.639 969.445,625.639 969.445,620.439 948.553,620.439 948.553,625.639 927.261,625.639 927.261,620.439 906.369,620.439 906.369,625.639 885.077,625.639 885.077,620.439 864.185,620.439 864.185,625.639 842.893,625.639 842.893,620.439 822.001,620.439 822.001,625.639 800.709,625.639 800.709,620.439 779.817,620.439 779.817,625.639 763.725,625.639 763.725,618.359 758.525,618.359 758.525,610.879 763.725,610.879 763.725,603.799 758.525,603.799 758.525,596.319"
     fill="none"
     stroke="black"
     stroke-width="0.1mm"
     id="polyline7-4"
     style="vector-effect:non-scaling-stroke;fill:none;stroke:#000000;stroke-width:0.264583;stroke-dasharray:none;stroke-opacity:1;-inkscape-stroke:hairline"
     transform="rotate(-90,806.54516,634.09284)" />
  <polyline
     z="0"
     points="526.313,644.483 526.313,625.639 758.525,625.639 758.525,644.483 753.325,644.483 753.325,662.93 758.525,662.93 758.525,681.775 526.313,681.775 526.313,662.93 531.513,662.93 531.513,644.483 526.313,644.483"
     fill="none"
     stroke="black"
     stroke-width="0.1mm"
     id="polyline3"
     style="vector-effect:non-scaling-stroke;fill:none;stroke:#000000;stroke-width:0.264583;stroke-dasharray:none;stroke-opacity:1;-inkscape-stroke:hairline"
     transform="rotate(90,968.59792,659.97395)" />
  <path
     id="polyline5"
     d="m 910.19709,347.83282 -5.32991,-2.20812 -14.12317,14.12317 v -20.50831 h -5.19968 V 318.3876 h 5.19968 v -21.25193 h -5.19968 v -20.85299 h 5.19968 v -21.25194 h -5.19968 v -20.85195 h 5.19968 v -16.05226 h -7.27966 v -5.19968 h -7.48016 v 5.19968 H 868.904 v -5.19968 h -7.47965 v 5.19968 h -7.28017 v 16.05226 h 5.2002 v 20.85194 h -5.2002 v 21.25194 h 5.2002 v 20.85299 h -5.2002 v 21.25193 h 5.2002 v 20.85197 h -5.2002 V 360.492 h 5.2002 v 20.85299 h -5.2002 v 21.25193 h 5.2002 v 20.85196 h -5.2002 v 26.45161 h 7.48016 v -5.19865 h 7.08071 v 5.19865 h 7.48016 v -5.19865 h 7.07916 v 5.19865 h 7.47964 v -26.4516 h -5.19968 v -20.85196 h 4.99969 v 14.642 h 5.72214 l 13.66996,-13.66997 h -5.34179 v -18.44642 h 5.19968 V 366.2777 h -5.19968 v -18.44487 z m -19.65307,12.65919 V 381.345 h -4.99969 v -20.85299 z"
     style="vector-effect:non-scaling-stroke;fill:none;stroke:#000000;stroke-width:0.264583;stroke-dasharray:none;stroke-opacity:1;-inkscape-stroke:hairline" />
  <path
     id="polyline8"
     d="m 817.54423,314.99503 h -5.60276 v -18.44487 h 5.19968 v -18.84485 h -5.19968 V 259.2589 h 5.34179 l -13.66997,-13.66997 h -5.72213 v 14.642 h -4.99969 v -20.85195 h 5.19968 v -26.45213 h -7.48016 v 5.2002 h -7.07967 v -5.2002 h -7.48017 v 5.2002 h -7.07967 v -5.2002 h -7.48016 v 26.45213 h 5.19968 v 20.85195 h -5.19968 v 21.25194 h 5.19968 v 20.85298 h -5.19968 v 21.25245 h 5.19968 v 20.85196 h -5.19968 v 21.25193 h 5.19968 v 20.85299 h -5.19968 v 21.25194 h 5.19968 v 20.85195 h -5.19968 v 16.05277 h 7.28017 v 5.19917 h 7.47965 v -5.19917 h 7.08019 v 5.19917 h 7.48016 v -5.19917 h 7.27966 v -16.05277 h -5.19968 v -20.85195 h 5.19968 v -21.25194 h -5.19968 v -20.85299 h 5.19968 v -21.25193 h -5.19968 V 323.5883 h 5.19968 v -20.50831 l 14.12317,14.12317 z m -19.65307,-33.51216 v 20.85298 h -4.99969 v -20.85298 z"
     style="vector-effect:non-scaling-stroke;fill:none;stroke:#000000;stroke-width:0.264583;stroke-dasharray:none;stroke-opacity:1;-inkscape-stroke:hairline" />
  <path
     id="polyline5-5"
     d="m 890.74399,314.99447 5.3299,2.2081 14.1232,-14.1231 v 20.5083 h 5.1997 v 20.8519 h -5.1997 v 21.252 h 5.1997 v 20.853 h -5.1997 v 21.2519 h 5.1997 v 20.852 h -5.1997 v 16.0522 h 7.2796 v 5.1997 h 7.4802 v -5.1997 h 7.08021 v 5.1997 h 7.47959 v -5.1997 h 7.2802 v -16.0522 h -5.2002 v -20.852 h 5.2002 v -21.2519 h -5.2002 v -20.853 h 5.2002 v -21.2519 h -5.2002 v -20.852 h 5.2002 v -21.2525 h -5.2002 v -20.8529 h 5.2002 v -21.252 h -5.2002 v -20.8519 h 5.2002 v -26.4516 h -7.4801 v 5.1986 h -7.0808 v -5.1986 h -7.4801 v 5.1986 h -7.07919 v -5.1986 h -7.4796 v 26.4516 h 5.1997 v 20.8519 h -4.99971 v -14.642 h -5.72219 l -13.66991,13.67 h 5.3418 v 18.4464 h -5.1997 v 18.8448 h 5.1997 v 18.4449 z m 19.6531,-12.6592 v -20.853 h 4.99971 v 20.853 z"
     style="vector-effect:non-scaling-stroke;fill:none;stroke:#000000;stroke-width:0.264583;stroke-dasharray:none;stroke-opacity:1;-inkscape-stroke:hairline" />
  <path
     id="polyline8-7"
     d="m 798.09115,347.8328 h 5.60283 v 18.4449 h -5.19973 v 18.8449 h 5.19973 v 18.4464 h -5.34183 l 13.67003,13.6699 h 5.7221 v -14.642 h 4.9997 v 20.852 h -5.1997 v 26.4521 h 7.4802 v -5.2002 h 7.0797 v 5.2002 h 7.4801 v -5.2002 h 7.0797 v 5.2002 h 7.4802 v -26.4521 h -5.1997 v -20.852 h 5.1997 V 381.345 h -5.1997 v -20.853 h 5.1997 v -21.2524 h -5.1997 v -20.85199 h 5.1997 v -21.25193 h -5.1997 v -20.85299 h 5.1997 v -21.25194 h -5.1997 V 234.1788 h 5.1997 v -16.05276 h -7.2802 v -5.19917 h -7.4797 v 5.19917 h -7.0802 v -5.19917 h -7.4801 v 5.19917 h -7.2797 v 16.05276 h 5.1997 v 20.85195 h -5.1997 v 21.25194 h 5.1997 v 20.85299 h -5.1997 v 21.25193 h 5.1997 v 20.85199 h -5.1997 v 20.5083 l -14.1231,-14.1232 z m 19.65313,33.5122 v -20.853 h 4.9997 v 20.853 z"
     style="vector-effect:non-scaling-stroke;fill:none;stroke:#000000;stroke-width:0.264583;stroke-dasharray:none;stroke-opacity:1;-inkscape-stroke:hairline" />
  <path
     id="polyline10-4"
     d="m 554.62536,450.09899 v -5.1991 h -20.146 v -15.8528 h -5.2002 v -21.2509 h 5.2002 v -20.852 h -5.2002 v -21.254 h 5.2002 v -20.8524 h -5.2002 v -21.252 h 5.2002 v -20.8519 h -5.2002 v -21.252 h 5.2002 v -20.8529 h -5.2002 v -21.252 h 5.2002 v -21.0519 h 15.892 v -5.2002 h 21.2918 v 5.2002 h 20.8922 v -5.2002 h 21.2917 v 5.2002 h 20.8923 v -5.2002 h 21.2917 v 5.2002 h 20.8923 v -5.2002 h 21.2917 v 5.2002 h 20.8923 v -5.2002 h 21.2917 v 5.2002 h 15.8921 v 21.0519 h 5.2002 v 21.252 h -5.2002 v 20.8529 h 5.2002 v 21.252 h -5.2002 v 20.8519 h 5.2002 v 21.252 h -5.2002 v 20.8524 h 5.2002 v 21.254 h -5.2002 v 20.852 h 5.2002 v 21.2509 h -5.2002 v 15.8528 h -20.1461 v 5.1991 h -20.3471 v -5.1991 h -19.9466 v 5.1991 h -20.346 v -5.1991 h -19.9471 v 5.1991 h -20.3461 v -5.1991 h -19.9471 v 5.1991 h -20.346 v -5.1991 h -19.9471 v 5.1991 z m -4.4431,-15.799 h 190.4059 l 0.5029,-0.025 0.4961,-0.073 0.4852,-0.1209 0.4708,-0.169 0.4532,-0.2139 0.4278,-0.2579 0.4021,-0.2982 0.371,-0.3359 0.3369,-0.371 0.2982,-0.4021 0.2569,-0.4289 0.2139,-0.4532 0.168,-0.4707 0.1219,-0.4853 0.073,-0.495 0.025,-0.5018 v -195.17 l -0.025,-0.5028 -0.073,-0.4951 -0.1219,-0.4852 -0.168,-0.4708 -0.2139,-0.4532 -0.2569,-0.4289 -0.2982,-0.4021 -0.3369,-0.371 -0.371,-0.3359 -0.4021,-0.2982 -0.4278,-0.2568 -0.4532,-0.215 -0.4708,-0.169 -0.4852,-0.1209 -0.4961,-0.073 -0.5018,-0.025 h -190.408 l -0.5023,0.025 -0.4956,0.073 -0.4853,0.1209 -0.4707,0.169 -0.4532,0.215 -0.4279,0.2568 -0.402,0.2982 -0.3711,0.3359 -0.3369,0.371 -0.2982,0.4021 -0.2568,0.4289 -0.2129,0.4532 -0.169,0.4708 -0.122,0.4852 -0.073,0.4951 -0.025,0.5028 v 195.17 l 0.025,0.5018 0.073,0.495 0.122,0.4853 0.169,0.4707 0.2129,0.4532 0.2568,0.4289 0.2982,0.4021 0.3369,0.371 0.3711,0.3359 0.402,0.2982 0.4279,0.2579 0.4532,0.2139 0.4707,0.169 0.4853,0.1209 0.4956,0.073 z"
     style="vector-effect:non-scaling-stroke;fill:none;stroke:#000000;stroke-width:0.264583;stroke-dasharray:none;stroke-opacity:1;-inkscape-stroke:hairline" />
  <polyline
     z="0"
     points="536.713,428.948 531.513,428.948 531.513,450 515.621,450 515.621,455.2 494.329,455.2 494.329,450 473.437,450 473.437,455.2 452.145,455.2 452.145,450 431.253,450 431.253,455.2 409.961,455.2 409.961,450 389.069,450 389.069,455.2 367.777,455.2 367.777,450 346.885,450 346.885,455.2 325.593,455.2 325.593,450 309.701,450 309.701,428.948 304.501,428.948 304.501,407.696 309.701,407.696 309.701,386.843 304.501,386.843 304.501,365.591 309.701,365.591 309.701,344.739 304.501,344.739 304.501,323.487 309.701,323.487 309.701,302.635 304.501,302.635 304.501,281.381 309.701,281.381 309.701,260.529 304.501,260.529 304.501,239.278 309.701,239.278 309.701,223.425 329.847,223.425 329.847,218.226 350.194,218.226 350.194,223.425 370.141,223.425 370.141,218.226 390.487,218.226 390.487,223.425 410.434,223.425 410.434,218.226 430.78,218.226 430.78,223.425 450.727,223.425 450.727,218.226 471.073,218.226 471.073,223.425 491.02,223.425 491.02,218.226 511.367,218.226 511.367,223.425 531.513,223.425 531.513,239.278 536.713,239.278 536.713,260.529 531.513,260.529 531.513,281.381 536.713,281.381 536.713,302.635 531.513,302.635 531.513,323.487 536.713,323.487 536.713,344.739 531.513,344.739 531.513,365.591 536.713,365.591 536.713,386.843 531.513,386.843 531.513,407.696 536.713,407.696 536.713,428.948"
     fill="none"
     stroke="black"
     stroke-width="0.1mm"
     id="polyline12-4"
     style="vector-effect:non-scaling-stroke;fill:none;stroke:#000000;stroke-width:0.264583;stroke-dasharray:none;stroke-opacity:1;-inkscape-stroke:hairline"
     transform="matrix(1,0,0,-1,-7.43384,668.32514)" />
</svg>
