<?xml version="1.0" encoding="UTF-8" standalone="no"?>
<svg
   width="1300mm"
   height="900mm"
   viewBox="0 0 1300 900"
   version="1.1"
   id="svg12"
   sodipodi:docname="FrameMako.svg"
   inkscape:version="1.4 (e7c3feb100, 2024-10-09)"
   xmlns:inkscape="http://www.inkscape.org/namespaces/inkscape"
   xmlns:sodipodi="http://sodipodi.sourceforge.net/DTD/sodipodi-0.dtd"
   xmlns="http://www.w3.org/2000/svg"
   xmlns:svg="http://www.w3.org/2000/svg">
  <defs
     id="defs12" />
  <sodipodi:namedview
     id="namedview12"
     pagecolor="#505050"
     bordercolor="#eeeeee"
     borderopacity="1"
     inkscape:showpageshadow="0"
     inkscape:pageopacity="0"
     inkscape:pagecheckerboard="0"
     inkscape:deskcolor="#505050"
     inkscape:document-units="mm"
     inkscape:zoom="0.11556323"
     inkscape:cx="2621.9412"
     inkscape:cy="2115.7248"
     inkscape:window-width="1920"
     inkscape:window-height="1011"
     inkscape:window-x="0"
     inkscape:window-y="32"
     inkscape:window-maximized="1"
     inkscape:current-layer="svg12" />
  <polyline
     z="0"
     points="237.962,728.894 237.962,710.049 243.162,710.049 243.162,691.603 237.962,691.603 237.962,672.758 427.312,672.758 427.312,691.603 422.112,691.603 422.112,710.049 427.312,710.049 427.312,728.894 237.962,728.894"
     fill="none"
     stroke="#000000"
     stroke-width="0.1mm"
     id="polyline1"
     transform="rotate(90,776.64272,765.99196)"
     style="vector-effect:non-scaling-stroke;fill:none;stroke:#000000;stroke-width:0.264583;stroke-dasharray:none;stroke-opacity:1;-inkscape-stroke:hairline" />
  <polyline
     z="0"
     points="255.157,672.758 255.157,667.557 243.162,667.557 243.162,644.773 237.962,644.773 237.962,621.789 243.162,621.789 243.162,599.205 237.962,599.205 237.962,576.221 243.162,576.221 243.162,553.637 237.962,553.637 237.962,530.653 243.162,530.653 243.162,508.069 237.962,508.069 237.962,485.085 243.162,485.085 243.162,462.501 237.962,462.501 237.962,439.517 243.162,439.517 243.162,421.932 259.412,421.932 259.412,416.732 275.862,416.732 275.862,421.932 291.912,421.932 291.912,416.732 308.362,416.732 308.362,421.932 324.412,421.932 324.412,416.732 340.862,416.732 340.862,421.932 356.912,421.932 356.912,416.732 373.362,416.732 373.362,421.932 389.412,421.932 389.412,416.732 405.862,416.732 405.862,421.932 422.112,421.932 422.112,439.517 427.312,439.517 427.312,462.501 422.112,462.501 422.112,485.085 427.312,485.085 427.312,508.069 422.112,508.069 422.112,530.653 427.312,530.653 427.312,553.637 422.112,553.637 422.112,576.221 427.312,576.221 427.312,599.205 422.112,599.205 422.112,621.789 427.312,621.789 427.312,644.773 422.112,644.773 422.112,667.557 410.117,667.557 410.117,672.758 392.721,672.758 392.721,667.557 375.726,667.557 375.726,672.758 358.33,672.758 358.33,667.557 341.335,667.557 341.335,672.758 323.939,672.758 323.939,667.557 306.944,667.557 306.944,672.758 289.548,672.758 289.548,667.557 272.553,667.557 272.553,672.758 255.157,672.758"
     fill="none"
     stroke="black"
     stroke-width="0.1mm"
     id="polyline2"
     style="vector-effect:non-scaling-stroke;fill:none;stroke:#000000;stroke-width:0.264583;stroke-dasharray:none;stroke-opacity:1;-inkscape-stroke:hairline"
     transform="translate(269.01465,-222.75877)" />
  <path
     id="polyline3"
     d="m 421.60348,193.97337 v 5.2002 h -7.28018 v 17.78496 h 5.2002 v 22.58364 h -5.2002 v 22.98412 h 5.2002 v 22.58415 h -5.2002 v 22.98413 h 5.2002 v 22.58363 h -5.2002 v 22.98413 h 5.2002 v 22.58415 h -5.2002 v 22.98361 h 5.2002 v 22.58416 h -5.2002 v 28.18484 h 7.48017 v -5.20071 h 7.08018 v 5.20071 h 7.47965 v -5.20071 h 7.08019 v 5.20071 h 7.48016 v -28.18484 h -5.2002 v -22.58416 h 5.00021 v 8.58139 h 5.72059 l 13.66996,-13.66996 h -5.34076 V 375.6951 h 5.2002 v -18.84484 h -5.2002 v -18.44487 h 5.60276 l -5.32991,-2.20813 -14.12265,14.12317 v -19.64222 h -5.2002 v -22.58363 h 5.2002 v -22.98413 h -5.2002 V 262.5263 h 5.2002 v -22.98412 h -5.2002 v -22.58364 h 5.2002 v -17.78496 h -7.28017 v -5.2002 h -7.48017 v 5.2002 h -7.07967 v -5.2002 z m 24.11997,159.68896 h 5.00021 v 22.58415 h -5.00021 z"
     style="vector-effect:non-scaling-stroke;fill:none;stroke:#000000;stroke-width:0.264583;stroke-dasharray:none;stroke-opacity:1;-inkscape-stroke:hairline" />
  <path
     id="polyline5"
     d="m 717.77641,193.97338 v 5.19968 h -16.2497 v 17.58497 h -5.2002 v 22.98413 h 5.2002 v 22.58415 h -5.2002 v 22.98413 h 5.2002 v 22.58363 h -5.2002 v 22.98413 h 5.2002 v 22.58415 h -5.2002 v 22.98361 h 5.2002 v 22.58416 h -5.2002 v 22.98413 h 5.2002 v 22.78413 h 11.9952 v 5.20071 h 17.3958 v -5.20071 h 16.9948 v 5.20071 h 17.3964 v -5.20071 h 16.9948 v 5.20071 h 17.3959 v -5.20071 h 16.9948 v 5.20071 h 17.3963 v -5.20071 h 16.9949 v 5.20071 h 17.3958 v -5.20071 h 11.9951 v -22.78413 h 5.2002 v -22.98413 h -5.2002 v -22.58416 h 5.2002 v -22.98361 h -5.2002 V 330.8782 h 5.2002 v -22.98413 h -5.2002 v -22.58362 h 5.2002 v -22.98413 h -5.2002 v -22.58416 h 5.2002 v -22.98413 h -5.2002 v -17.58497 h -16.2496 v -5.19968 h -16.4502 v 5.19968 h -16.0501 v -5.19968 h -16.4502 v 5.19968 h -16.0497 v -5.19968 h -16.4501 v 5.19968 h -16.0497 v -5.19968 h -16.4502 v 5.19968 h -16.0501 v -5.19968 z m -0.5467,15.80008 h 147.5439 l 0.5028,0.0258 0.4951,0.0718 0.4852,0.12197 0.4718,0.16897 0.4522,0.21291 0.4289,0.25838 0.4021,0.29766 0.371,0.33744 0.3369,0.37052 0.2982,0.40205 0.2568,0.42839 0.214,0.45269 0.1679,0.47129 0.122,0.48472 0.073,0.4961 0.025,0.50074 v 214.22105 l -0.025,0.50229 -0.073,0.49609 -0.122,0.48473 -0.1679,0.47129 -0.214,0.45268 -0.2568,0.42788 -0.2982,0.40205 -0.3369,0.37103 -0.371,0.33693 -0.4021,0.29818 -0.4289,0.25683 -0.4522,0.21496 -0.4718,0.16848 -0.4852,0.12195 -0.4951,0.0718 -0.5017,0.0248 h -147.5461 l -0.5017,-0.0248 -0.4951,-0.0718 -0.4852,-0.12195 -0.4719,-0.16848 -0.4521,-0.21496 -0.4289,-0.25683 -0.4021,-0.29818 -0.371,-0.33693 -0.3369,-0.37103 -0.2982,-0.40205 -0.2569,-0.42788 -0.2129,-0.45268 -0.1689,-0.47129 -0.122,-0.48473 -0.073,-0.49609 -0.025,-0.50229 V 214.87495 l 0.025,-0.50074 0.073,-0.49611 0.122,-0.48472 0.1689,-0.47129 0.2129,-0.45269 0.2569,-0.42839 0.2982,-0.40205 0.3369,-0.37052 0.371,-0.33744 0.4021,-0.29766 0.4289,-0.25838 0.4521,-0.21291 0.4719,-0.16898 0.4852,-0.12196 0.4951,-0.0718 z"
     style="vector-effect:non-scaling-stroke;fill:none;stroke:#000000;stroke-width:0.264583;stroke-dasharray:none;stroke-opacity:1;-inkscape-stroke:hairline" />
  <path
     id="polyline7"
     d="m 414.32382,450.00091 v 28.18484 h 5.2002 v 22.58415 h -5.2002 v 22.98361 h 5.2002 v 22.58416 h -5.2002 v 22.98413 h 5.2002 v 22.58363 h -5.2002 v 22.98412 h 5.2002 v 22.58415 h -5.2002 v 22.98414 h 5.2002 v 22.58363 h -5.2002 v 17.78496 h 7.28018 v 5.2002 h 7.47964 v -5.2002 h 7.08019 v 5.2002 h 7.48016 v -5.2002 h 7.27966 v -17.78496 h -5.19968 v -22.58363 h 5.19968 V 637.4737 h -5.19968 v -22.58415 h 5.19968 v -22.98412 h -5.19968 V 569.3218 h 5.19968 v -19.64221 l 14.12317,14.12317 5.32991,-2.20814 h -5.60276 v -18.44486 h 5.19968 v -18.84485 h -5.19968 v -18.44642 h 5.34076 l -13.66997,-13.66996 h -5.72109 v 8.58138 h -4.9997 v -22.58415 h 5.19968 v -28.18484 h -7.47964 v 5.20071 h -7.08019 v -5.20071 h -7.48016 v 5.20071 h -7.07968 v -5.20071 z m 31.40015,73.7526 h 4.9997 v 22.58416 h -4.9997 z"
     style="vector-effect:non-scaling-stroke;fill:none;stroke:#000000;stroke-width:0.264583;stroke-dasharray:none;stroke-opacity:1;-inkscape-stroke:hairline" />
  <polyline
     z="0"
     points="683.338,692.294 704.988,692.294 704.988,697.494 721.038,697.494 721.038,692.294 737.488,692.294 737.488,697.494 753.538,697.494 753.538,692.294 769.988,692.294 769.988,697.494 786.038,697.494 786.038,692.294 802.488,692.294 802.488,697.494 818.538,697.494 818.538,692.294 834.988,692.294 834.988,697.494 851.038,697.494 851.038,692.294 872.688,692.294 872.688,699.774 867.488,699.774 867.488,706.854 872.688,706.854 872.688,714.334 867.488,714.334 867.488,721.414 872.688,721.414 872.688,728.894 851.038,728.894 851.038,723.694 834.988,723.694 834.988,728.894 818.538,728.894 818.538,723.694 802.488,723.694 802.488,728.894 786.038,728.894 786.038,723.694 769.988,723.694 769.988,728.894 753.538,728.894 753.538,723.694 737.488,723.694 737.488,728.894 721.038,728.894 721.038,723.694 704.988,723.694 704.988,728.894 683.338,728.894 683.338,721.414 688.538,721.414 688.538,714.334 683.338,714.334 683.338,706.854 688.538,706.854 688.538,699.774 683.338,699.774 683.338,692.294"
     fill="none"
     stroke="#000000"
     stroke-width="0.1mm"
     id="polyline9"
     transform="rotate(90,981.03072,525.00396)"
     style="vector-effect:non-scaling-stroke;fill:none;stroke:#000000;stroke-width:0.264583;stroke-dasharray:none;stroke-opacity:1;-inkscape-stroke:hairline" />
  <polyline
     z="0"
     points="872.688,699.574 877.888,699.574 877.888,692.294 890.083,692.294 890.083,697.494 907.079,697.494 907.079,692.294 924.474,692.294 924.474,697.494 941.47,697.494 941.47,692.294 958.865,692.294 958.865,697.494 975.861,697.494 975.861,692.294 993.256,692.294 993.256,697.494 1010.252,697.494 1010.252,692.294 1027.647,692.294 1027.647,697.494 1044.643,697.494 1044.643,692.294 1056.838,692.294 1056.838,699.574 1062.038,699.574 1062.038,707.054 1056.838,707.054 1056.838,714.134 1062.038,714.134 1062.038,721.614 1056.838,721.614 1056.838,728.894 1044.643,728.894 1044.643,723.694 1027.647,723.694 1027.647,728.894 1010.252,728.894 1010.252,723.694 993.256,723.694 993.256,728.894 975.861,728.894 975.861,723.694 958.865,723.694 958.865,728.894 941.47,728.894 941.47,723.694 924.474,723.694 924.474,728.894 907.079,728.894 907.079,723.694 890.083,723.694 890.083,728.894 877.888,728.894 877.888,721.614 872.688,721.614 872.688,714.134 877.888,714.134 877.888,707.054 872.688,707.054 872.688,699.574"
     fill="none"
     stroke="#000000"
     stroke-width="0.1mm"
     id="polyline10"
     transform="rotate(90,929.39192,540.04268)"
     style="vector-effect:non-scaling-stroke;fill:none;stroke:#000000;stroke-width:0.264583;stroke-dasharray:none;stroke-opacity:1;-inkscape-stroke:hairline" />
  <polyline
     z="0"
     points="237.962,728.894 237.962,710.049 243.162,710.049 243.162,691.603 237.962,691.603 237.962,672.758 427.312,672.758 427.312,691.603 422.112,691.603 422.112,710.049 427.312,710.049 427.312,728.894 237.962,728.894"
     fill="none"
     stroke="#000000"
     stroke-width="0.1mm"
     id="polyline1-3"
     transform="rotate(-90,525.81666,384.83412)"
     style="vector-effect:non-scaling-stroke;fill:none;stroke:#000000;stroke-width:0.264583;stroke-dasharray:none;stroke-opacity:1;-inkscape-stroke:hairline" />
  <polyline
     z="0"
     points="255.157,672.758 255.157,667.557 243.162,667.557 243.162,644.773 237.962,644.773 237.962,621.789 243.162,621.789 243.162,599.205 237.962,599.205 237.962,576.221 243.162,576.221 243.162,553.637 237.962,553.637 237.962,530.653 243.162,530.653 243.162,508.069 237.962,508.069 237.962,485.085 243.162,485.085 243.162,462.501 237.962,462.501 237.962,439.517 243.162,439.517 243.162,421.932 259.412,421.932 259.412,416.732 275.862,416.732 275.862,421.932 291.912,421.932 291.912,416.732 308.362,416.732 308.362,421.932 324.412,421.932 324.412,416.732 340.862,416.732 340.862,421.932 356.912,421.932 356.912,416.732 373.362,416.732 373.362,421.932 389.412,421.932 389.412,416.732 405.862,416.732 405.862,421.932 422.112,421.932 422.112,439.517 427.312,439.517 427.312,462.501 422.112,462.501 422.112,485.085 427.312,485.085 427.312,508.069 422.112,508.069 422.112,530.653 427.312,530.653 427.312,553.637 422.112,553.637 422.112,576.221 427.312,576.221 427.312,599.205 422.112,599.205 422.112,621.789 427.312,621.789 427.312,644.773 422.112,644.773 422.112,667.557 410.117,667.557 410.117,672.758 392.721,672.758 392.721,667.557 375.726,667.557 375.726,672.758 358.33,672.758 358.33,667.557 341.335,667.557 341.335,672.758 323.939,672.758 323.939,667.557 306.944,667.557 306.944,672.758 289.548,672.758 289.548,667.557 272.553,667.557 272.553,672.758 255.157,672.758"
     fill="none"
     stroke="black"
     stroke-width="0.1mm"
     id="polyline2-0"
     style="vector-effect:non-scaling-stroke;fill:none;stroke:#000000;stroke-width:0.264583;stroke-dasharray:none;stroke-opacity:1;-inkscape-stroke:hairline"
     transform="matrix(1,0,0,-1,269.01465,1122.7588)" />
  <path
     id="polyline3-7"
     d="m 499.69645,449.99907 v -5.2002 h 7.2802 v -17.78489 h -5.2002 v -22.58369 h 5.2002 v -22.9841 h -5.2002 v -22.5841 h 5.2002 v -22.9842 h -5.2002 v -22.5836 h 5.2002 v -22.98413 h -5.2002 v -22.58415 h 5.2002 V 244.7424 h -5.2002 v -22.58415 h 5.2002 V 193.9734 h -7.4802 v 5.20072 h -7.0802 v -5.20072 h -7.4796 v 5.20072 h -7.0802 v -5.20072 h -7.4802 v 28.18485 h 5.2002 v 22.58415 h -5.0002 v -8.58139 h -5.7206 l -13.67,13.66997 h 5.3408 v 18.44642 h -5.2002 v 18.84484 h 5.2002 v 18.44487 h -5.6028 l 5.33,2.20813 14.1226,-14.12317 v 19.64222 h 5.2002 v 22.5836 h -5.2002 v 22.9842 h 5.2002 v 22.5841 h -5.2002 v 22.9841 h 5.2002 v 22.58369 h -5.2002 v 17.78489 h 7.2802 v 5.2002 h 7.4801 v -5.2002 h 7.0797 v 5.2002 z m -24.12,-159.68892 h -5.0002 v -22.58414 h 5.0002 z"
     style="vector-effect:non-scaling-stroke;fill:none;stroke:#000000;stroke-width:0.264583;stroke-dasharray:none;stroke-opacity:1;-inkscape-stroke:hairline" />
  <path
     id="polyline5-8"
     d="m 717.77641,706.02663 v -5.19968 h -16.2497 v -17.58497 h -5.2002 v -22.98413 h 5.2002 V 637.6737 h -5.2002 v -22.98413 h 5.2002 v -22.58363 h -5.2002 V 569.1218 h 5.2002 v -22.58415 h -5.2002 v -22.98361 h 5.2002 v -22.58415 h -5.2002 v -22.98413 h 5.2002 v -22.78414 h 11.9951 v -5.20071 h 17.3959 v 5.20071 h 16.9948 v -5.20071 h 17.3963 v 5.20071 h 16.9949 v -5.20071 h 17.3958 v 5.20071 h 16.9948 v -5.20071 h 17.3964 v 5.20071 h 16.9948 v -5.20071 h 17.3959 v 5.20071 h 11.9951 v 22.78414 h 5.2002 v 22.98413 h -5.2002 v 22.58415 h 5.2002 v 22.98361 h -5.2002 v 22.58415 h 5.2002 v 22.98414 h -5.2002 v 22.58363 h 5.2002 v 22.98413 h -5.2002 v 22.58416 h 5.2002 v 22.98413 h -5.2002 v 17.58497 h -16.2496 v 5.19968 h -16.4502 v -5.19968 h -16.0502 v 5.19968 h -16.4502 v -5.19968 h -16.0496 v 5.19968 h -16.4502 v -5.19968 h -16.0496 v 5.19968 h -16.4502 v -5.19968 h -16.0502 v 5.19968 z m -0.5468,-15.80007 h 147.544 l 0.5028,-0.0258 0.4951,-0.0718 0.4852,-0.12196 0.4718,-0.16898 0.4522,-0.21291 0.4289,-0.25838 0.4021,-0.29766 0.371,-0.33744 0.3369,-0.37052 0.2982,-0.40205 0.2568,-0.4284 0.214,-0.45268 0.1679,-0.47129 0.122,-0.48472 0.073,-0.4961 0.025,-0.50074 V 470.90408 l -0.025,-0.50229 -0.073,-0.49609 -0.122,-0.48473 -0.1679,-0.47129 -0.214,-0.45268 -0.2568,-0.42788 -0.2982,-0.40205 -0.3369,-0.37103 -0.371,-0.33693 -0.4021,-0.29818 -0.4289,-0.25682 -0.4522,-0.21497 -0.4718,-0.16848 -0.4852,-0.12195 -0.4951,-0.0718 -0.5018,-0.0248 h -147.546 l -0.5018,0.0248 -0.4951,0.0718 -0.4852,0.12195 -0.4718,0.16848 -0.4522,0.21497 -0.4289,0.25682 -0.402,0.29818 -0.3711,0.33693 -0.3369,0.37103 -0.2982,0.40205 -0.2568,0.42788 -0.2129,0.45268 -0.169,0.47129 -0.1219,0.48473 -0.073,0.49609 -0.025,0.50229 v 214.22099 l 0.025,0.50074 0.073,0.49609 0.1219,0.48472 0.169,0.47129 0.2129,0.45269 0.2568,0.42839 0.2982,0.40205 0.3369,0.37053 0.3711,0.33744 0.402,0.29765 0.4289,0.25838 0.4522,0.21291 0.4718,0.16898 0.4852,0.12196 0.4951,0.0718 z"
     style="vector-effect:non-scaling-stroke;fill:none;stroke:#000000;stroke-width:0.264583;stroke-dasharray:none;stroke-opacity:1;-inkscape-stroke:hairline" />
  <path
     id="polyline7-6"
     d="M 506.97665,706.02664 V 677.8418 h -5.2002 v -22.58415 h 5.2002 v -22.98361 h -5.2002 v -22.58416 h 5.2002 v -22.98413 h -5.2002 v -22.58364 h 5.2002 v -22.98412 h -5.2002 v -22.58415 h 5.2002 v -22.98413 h -5.2002 v -22.58364 h 5.2002 v -17.78496 h -7.2802 v -5.2002 h -7.4797 v 5.2002 h -7.0802 v -5.2002 h -7.4801 v 5.2002 h -7.2797 v 17.78496 h 5.1997 v 22.58364 h -5.1997 v 22.98413 h 5.1997 v 22.58415 h -5.1997 v 22.98412 h 5.1997 v 22.58364 h -5.1997 v 19.64221 l -14.1231,-14.12317 -5.33,2.20814 h 5.6028 v 18.44486 h -5.1997 v 18.84485 h 5.1997 v 18.44643 h -5.3408 l 13.67,13.66995 h 5.7211 v -8.58137 h 4.9997 v 22.58415 h -5.1997 v 28.18484 h 7.4797 v -5.20073 h 7.0802 v 5.20073 h 7.4801 v -5.20073 h 7.0797 v 5.20073 z m -31.4002,-73.7526 h -4.9997 v -22.58416 h 4.9997 z"
     style="vector-effect:non-scaling-stroke;fill:none;stroke:#000000;stroke-width:0.264583;stroke-dasharray:none;stroke-opacity:1;-inkscape-stroke:hairline" />
  <polyline
     z="0"
     points="683.338,692.294 704.988,692.294 704.988,697.494 721.038,697.494 721.038,692.294 737.488,692.294 737.488,697.494 753.538,697.494 753.538,692.294 769.988,692.294 769.988,697.494 786.038,697.494 786.038,692.294 802.488,692.294 802.488,697.494 818.538,697.494 818.538,692.294 834.988,692.294 834.988,697.494 851.038,697.494 851.038,692.294 872.688,692.294 872.688,699.774 867.488,699.774 867.488,706.854 872.688,706.854 872.688,714.334 867.488,714.334 867.488,721.414 872.688,721.414 872.688,728.894 851.038,728.894 851.038,723.694 834.988,723.694 834.988,728.894 818.538,728.894 818.538,723.694 802.488,723.694 802.488,728.894 786.038,728.894 786.038,723.694 769.988,723.694 769.988,728.894 753.538,728.894 753.538,723.694 737.488,723.694 737.488,728.894 721.038,728.894 721.038,723.694 704.988,723.694 704.988,728.894 683.338,728.894 683.338,721.414 688.538,721.414 688.538,714.334 683.338,714.334 683.338,706.854 688.538,706.854 688.538,699.774 683.338,699.774 683.338,692.294"
     fill="none"
     stroke="#000000"
     stroke-width="0.1mm"
     id="polyline9-8"
     transform="rotate(-90,574.12296,525.87628)"
     style="vector-effect:non-scaling-stroke;fill:none;stroke:#000000;stroke-width:0.264583;stroke-dasharray:none;stroke-opacity:1;-inkscape-stroke:hairline" />
  <polyline
     z="0"
     points="872.688,699.574 877.888,699.574 877.888,692.294 890.083,692.294 890.083,697.494 907.079,697.494 907.079,692.294 924.474,692.294 924.474,697.494 941.47,697.494 941.47,692.294 958.865,692.294 958.865,697.494 975.861,697.494 975.861,692.294 993.256,692.294 993.256,697.494 1010.252,697.494 1010.252,692.294 1027.647,692.294 1027.647,697.494 1044.643,697.494 1044.643,692.294 1056.838,692.294 1056.838,699.574 1062.038,699.574 1062.038,707.054 1056.838,707.054 1056.838,714.134 1062.038,714.134 1062.038,721.614 1056.838,721.614 1056.838,728.894 1044.643,728.894 1044.643,723.694 1027.647,723.694 1027.647,728.894 1010.252,728.894 1010.252,723.694 993.256,723.694 993.256,728.894 975.861,728.894 975.861,723.694 958.865,723.694 958.865,728.894 941.47,728.894 941.47,723.694 924.474,723.694 924.474,728.894 907.079,728.894 907.079,723.694 890.083,723.694 890.083,728.894 877.888,728.894 877.888,721.614 872.688,721.614 872.688,714.134 877.888,714.134 877.888,707.054 872.688,707.054 872.688,699.574"
     fill="none"
     stroke="#000000"
     stroke-width="0.1mm"
     id="polyline10-8"
     transform="rotate(-90,815.11166,730.26512)"
     style="vector-effect:non-scaling-stroke;fill:none;stroke:#000000;stroke-width:0.264583;stroke-dasharray:none;stroke-opacity:1;-inkscape-stroke:hairline" />
  <path
     id="polyline11"
     d="m 1300,449.99999 v 245.62639 h 178.9498 V 449.99999 Z m 39.1769,36.10119 h 100.596 l 0.3028,0.015 0.2992,0.044 0.293,0.073 0.2837,0.1013 0.2734,0.1292 0.2578,0.1556 0.2429,0.1793 0.2233,0.2031 0.2025,0.2227 0.1804,0.2439 0.155,0.2584 0.1287,0.2718 0.1013,0.2848 0.074,0.293 0.044,0.2981 0.015,0.3039 v 167.2714 l -0.015,0.3028 -0.044,0.2982 -0.074,0.293 -0.1013,0.2848 -0.1287,0.2718 -0.155,0.2584 -0.1804,0.2439 -0.2025,0.2227 -0.2233,0.2031 -0.2429,0.1793 -0.2578,0.1556 -0.2734,0.1292 -0.2837,0.1012 -0.293,0.073 -0.2992,0.044 -0.3039,0.016 H 1339.178 l -0.3044,-0.016 -0.2987,-0.044 -0.293,-0.073 -0.2842,-0.1012 -0.2729,-0.1292 -0.2578,-0.1556 -0.2434,-0.1793 -0.2228,-0.2031 -0.203,-0.2227 -0.1799,-0.2439 -0.155,-0.2584 -0.1292,-0.2718 -0.1008,-0.2848 -0.074,-0.293 -0.044,-0.2982 -0.015,-0.3028 v -167.2714 l 0.015,-0.3039 0.044,-0.2981 0.074,-0.293 0.1008,-0.2848 0.1292,-0.2718 0.155,-0.2584 0.1799,-0.2439 0.203,-0.2227 0.2228,-0.2031 0.2434,-0.1793 0.2578,-0.1556 0.2729,-0.1292 0.2842,-0.1013 0.293,-0.073 0.2987,-0.044 z"
     style="vector-effect:non-scaling-stroke;fill:none;stroke:#ff0000;stroke-width:0.264583;stroke-dasharray:none;stroke-opacity:1;-inkscape-stroke:hairline" />
  <path
     style="vector-effect:non-scaling-stroke;fill:none;stroke:#ff0000;stroke-width:0.264583;stroke-dasharray:none;stroke-opacity:1;-inkscape-stroke:hairline"
     d="M 1478.9498,204.37361 V 450 h 178.9498 V 204.37361 Z"
     id="polyline11-3" />
  <path
     style="vector-effect:non-scaling-stroke;fill:none;stroke:#ff0000;stroke-width:0.264583;stroke-dasharray:none;stroke-opacity:1;-inkscape-stroke:hairline"
     d="m 1478.9498,449.99999 v 245.62639 h 178.9498 V 449.99999 Z"
     id="polyline11-3-1" />
  <path
     id="polyline11-4"
     d="M 1478.9498,449.99999 V 204.37361 H 1300 v 245.62638 z m -39.177,-36.1012 h -100.5959 l -0.3028,-0.015 -0.2992,-0.044 -0.293,-0.073 -0.2837,-0.1013 -0.2734,-0.1291 -0.2579,-0.1556 -0.2428,-0.1793 -0.2233,-0.2031 -0.2025,-0.2227 -0.1804,-0.2439 -0.155,-0.2584 -0.1287,-0.2718 -0.1013,-0.2848 -0.074,-0.293 -0.044,-0.2982 -0.015,-0.3038 V 243.55053 l 0.015,-0.30282 0.044,-0.29818 0.074,-0.293 0.1013,-0.28474 0.1287,-0.27182 0.155,-0.25838 0.1804,-0.24391 0.2025,-0.22273 0.2233,-0.20309 0.2428,-0.17931 0.2579,-0.15555 0.2734,-0.12919 0.2837,-0.10129 0.293,-0.0729 0.2992,-0.0439 0.3039,-0.016 h 100.5938 l 0.3044,0.016 0.2987,0.0439 0.293,0.0729 0.2842,0.10129 0.2728,0.12919 0.2579,0.15555 0.2434,0.17931 0.2227,0.20309 0.2031,0.22273 0.1798,0.24391 0.1551,0.25838 0.1292,0.27182 0.1007,0.28474 0.074,0.293 0.044,0.29818 0.015,0.30282 v 167.27146 l -0.015,0.3039 -0.044,0.2981 -0.074,0.293 -0.1007,0.2848 -0.1292,0.2718 -0.1551,0.2584 -0.1798,0.2439 -0.2031,0.2227 -0.2227,0.2031 -0.2434,0.1793 -0.2579,0.1556 -0.2728,0.1292 -0.2842,0.1012 -0.293,0.073 -0.2987,0.044 z"
     style="vector-effect:non-scaling-stroke;fill:none;stroke:#ff0000;stroke-width:0.264583;stroke-dasharray:none;stroke-opacity:1;-inkscape-stroke:hairline" />
</svg>
