<?xml version="1.0" encoding="UTF-8" standalone="no"?>
<svg
   width="1300mm"
   height="900mm"
   viewBox="0 0 1300 900"
   version="1.1"
   id="svg12"
   sodipodi:docname="LightPowerBrick.svg"
   inkscape:version="1.3.2 (091e20ef0f, 2023-11-25)"
   xmlns:inkscape="http://www.inkscape.org/namespaces/inkscape"
   xmlns:sodipodi="http://sodipodi.sourceforge.net/DTD/sodipodi-0.dtd"
   xmlns="http://www.w3.org/2000/svg"
   xmlns:svg="http://www.w3.org/2000/svg">
  <defs
     id="defs12" />
  <sodipodi:namedview
     id="namedview12"
     pagecolor="#505050"
     bordercolor="#eeeeee"
     borderopacity="1"
     inkscape:showpageshadow="0"
     inkscape:pageopacity="0"
     inkscape:pagecheckerboard="0"
     inkscape:deskcolor="#505050"
     inkscape:document-units="mm"
     inkscape:zoom="0.16343109"
     inkscape:cx="2453.6335"
     inkscape:cy="1697.9633"
     inkscape:window-width="1920"
     inkscape:window-height="1011"
     inkscape:window-x="0"
     inkscape:window-y="32"
     inkscape:window-maximized="1"
     inkscape:current-layer="svg12" />
  <path
     id="polyline1"
     d="M 411.21501 557.26775 L 476.20278 557.26775 L 476.70507 557.29204 L 477.1991 557.36594 L 477.68486 557.48789 L 478.15718 557.65584 L 478.60883 557.86978 L 479.03775 558.12713 L 479.43979 558.42479 L 479.81083 558.76224 L 480.14776 559.13224 L 480.44593 559.53376 L 480.70276 559.96423 L 480.91722 560.41588 L 481.08517 560.8882 L 481.20712 561.37293 L 481.27999 561.86799 L 481.30479 562.36977 L 481.30479 591.55817 L 489.97196 591.55817 L 489.97196 586.35797 L 498.23813 586.35797 L 498.23813 591.55817 L 506.90478 591.55817 L 506.90478 578.25975 L 501.7051 578.25975 L 501.7051 570.56203 L 506.90478 570.56203 L 506.90478 562.46382 L 501.7051 562.46382 L 501.7051 554.7661 L 506.90478 554.7661 L 506.90478 546.66788 L 493.29683 546.66788 L 493.29683 551.86808 L 485.28905 551.86808 L 485.28905 546.66788 L 476.88026 546.66788 L 476.88026 551.86808 L 468.87196 551.86808 L 468.87196 546.66788 L 468.82597 546.66788 L 482.94914 532.54523 L 480.741 527.21481 L 480.741 532.81808 L 472.94975 532.81808 L 472.94975 527.61788 L 464.75903 527.61788 L 464.75903 532.81808 L 456.96881 532.81808 L 456.96881 527.61788 L 448.7781 527.61788 L 448.7781 532.81808 L 440.98684 532.81808 L 440.98684 527.61788 L 432.79613 527.61788 L 432.79613 532.81808 L 425.00487 532.81808 L 425.00487 527.47577 L 411.3349 541.14626 L 411.3349 546.66788 L 411.21501 546.66788 L 411.21501 557.26775 z M 419.62277 551.86808 L 419.62277 546.86787 L 427.63107 546.86787 L 427.63107 551.86808 L 419.62277 551.86808 z M 436.03986 551.86808 L 436.03986 546.86787 L 444.04815 546.86787 L 444.04815 551.86808 L 436.03986 551.86808 z M 452.45591 551.86808 L 452.45591 546.86787 L 460.4642 546.86787 L 460.4642 551.86808 L 452.45591 551.86808 z "
     transform="rotate(90,650,450)"
     style="fill:none;stroke:#000000;stroke-opacity:1;vector-effect:non-scaling-stroke;-inkscape-stroke:hairline;stroke-width:0.26458333;stroke-dasharray:none" />
  <polyline
     z="0"
     points="416.415,494.075 416.415,485.608 411.215,485.608 411.215,476.942 416.415,476.942 416.415,468.475 428.755,468.475 428.755,473.675 445.895,473.675 445.895,468.475 463.435,468.475 463.435,473.675 480.575,473.675 480.575,468.475 498.115,468.475 498.115,473.675 515.255,473.675 515.255,468.475 532.795,468.475 532.795,473.675 549.935,473.675 549.935,468.475 567.475,468.475 567.475,473.675 584.615,473.675 584.615,468.475 596.955,468.475 596.955,474.979 602.155,474.979 602.155,481.684 596.955,481.684 596.955,487.988 602.155,487.988 602.155,494.693 596.955,494.693 596.955,500.997 602.155,500.997 602.155,507.702 596.955,507.702 596.955,514.006 602.155,514.006 602.155,520.711 596.955,520.711 596.955,527.215 551.611,527.215 546.972,527 542.37,526.355 537.847,525.286 533.443,523.804 529.197,521.92 484.087,499.351 479.855,497.472 475.468,495.996 470.963,494.931 466.38,494.29 461.755,494.075 416.415,494.075"
     fill="none"
     stroke="#000000"
     stroke-width="0.1mm"
     id="polyline5"
     transform="rotate(90,650,450)"
     style="fill:none;stroke:#000000;stroke-opacity:1;vector-effect:non-scaling-stroke;-inkscape-stroke:hairline;stroke-width:0.26458333;stroke-dasharray:none" />
  <path
     id="polyline6"
     d="M 411.21501 468.47524 L 417.919 468.47524 L 417.919 463.27504 L 424.22404 463.27504 L 424.22404 468.47524 L 430.92802 468.47524 L 430.92802 463.27504 L 437.23306 463.27504 L 437.23306 468.47524 L 443.93705 468.47524 L 443.93705 463.27504 L 450.24209 463.27504 L 450.24209 468.47524 L 456.94607 468.47524 L 456.94607 463.27504 L 463.25111 463.27504 L 463.25111 468.47524 L 469.9551 468.47524 L 469.9551 439.28684 L 469.9799 438.78506 L 470.05277 438.29104 L 470.17524 437.80476 L 470.34422 437.33295 L 470.55713 436.88079 L 470.81396 436.45187 L 471.11213 436.04983 L 471.44906 435.67879 L 471.8201 435.34186 L 472.22214 435.04421 L 472.65106 434.78686 L 473.10323 434.57292 L 473.57503 434.40497 L 474.06079 434.28301 L 474.55482 434.21015 L 475.05711 434.18483 L 506.90478 434.18483 L 506.90478 423.58496 L 506.78489 423.58496 L 506.78489 418.06385 L 493.11493 404.39388 L 493.11493 409.73516 L 485.32419 409.73516 L 485.32419 404.53496 L 477.13295 404.53496 L 477.13295 409.73516 L 469.34222 409.73516 L 469.34222 404.53496 L 461.15098 404.53496 L 461.15098 409.73516 L 453.36076 409.73516 L 453.36076 404.53496 L 445.17005 404.53496 L 445.17005 409.73516 L 437.37879 409.73516 L 437.37879 404.13188 L 435.17118 409.46179 L 449.29383 423.58496 L 449.24784 423.58496 L 449.24784 428.78516 L 441.24006 428.78516 L 441.24006 423.58496 L 432.83075 423.58496 L 432.83075 428.78516 L 424.82297 428.78516 L 424.82297 423.58496 L 411.21501 423.58496 L 411.21501 431.68317 L 416.41521 431.68317 L 416.41521 439.38089 L 411.21501 439.38089 L 411.21501 447.47911 L 416.41521 447.47911 L 416.41521 455.17683 L 411.21501 455.17683 L 411.21501 468.47524 z M 457.65611 428.78516 L 457.65611 423.78494 L 465.66389 423.78494 L 465.66389 428.78516 L 457.65611 428.78516 z M 474.07216 428.78516 L 474.07216 423.78494 L 482.07994 423.78494 L 482.07994 428.78516 L 474.07216 428.78516 z M 490.48925 428.78516 L 490.48925 423.78494 L 498.49703 423.78494 L 498.49703 428.78516 L 490.48925 428.78516 z "
     transform="rotate(90,650,450)"
     style="fill:none;stroke:#000000;stroke-opacity:1;vector-effect:non-scaling-stroke;-inkscape-stroke:hairline;stroke-width:0.26458333;stroke-dasharray:none" />
  <polyline
     z="0"
     points="416.415,404.132 416.415,395.924 411.215,395.924 411.215,387.516 416.415,387.516 416.415,379.507 411.215,379.507 411.215,371.099 416.415,371.099 416.415,363.091 411.215,363.091 411.215,354.683 416.415,354.683 416.415,346.675 411.215,346.675 411.215,338.267 416.415,338.267 416.415,330.258 411.215,330.258 411.215,321.85 416.415,321.85 416.415,313.642 428.555,313.642 428.555,308.442 446.095,308.442 446.095,313.642 463.235,313.642 463.235,308.442 480.775,308.442 480.775,313.642 497.915,313.642 497.915,308.442 515.455,308.442 515.455,313.642 532.595,313.642 532.595,308.442 550.135,308.442 550.135,313.642 567.275,313.642 567.275,308.442 584.815,308.442 584.815,313.642 596.955,313.642 596.955,321.85 602.155,321.85 602.155,330.258 596.955,330.258 596.955,338.267 602.155,338.267 602.155,346.675 596.955,346.675 596.955,354.683 602.155,354.683 602.155,363.091 596.955,363.091 596.955,371.099 602.155,371.099 602.155,379.507 596.955,379.507 596.955,387.516 602.155,387.516 602.155,395.924 596.955,395.924 596.955,404.132 416.415,404.132"
     fill="none"
     stroke="#000000"
     stroke-width="0.1mm"
     id="polyline10"
     transform="rotate(90,650,450)"
     style="fill:none;stroke:#000000;stroke-opacity:1;vector-effect:non-scaling-stroke;-inkscape-stroke:hairline;stroke-width:0.26458333;stroke-dasharray:none" />
  <polyline
     z="0"
     points="506.905,535.422 697.845,535.422 697.845,543.613 692.645,543.613 692.645,551.404 697.845,551.404 697.845,559.595 692.645,559.595 692.645,567.385 697.845,567.385 697.845,575.576 692.645,575.576 692.645,583.367 697.845,583.367 697.845,591.558 506.905,591.558 506.905,583.367 512.105,583.367 512.105,575.576 506.905,575.576 506.905,567.385 512.105,567.385 512.105,559.595 506.905,559.595 506.905,551.404 512.105,551.404 512.105,543.613 506.905,543.613 506.905,535.422"
     fill="none"
     stroke="#000000"
     stroke-width="0.1mm"
     id="polyline11"
     transform="rotate(90,650,450)"
     style="fill:none;stroke:#000000;stroke-opacity:1;vector-effect:non-scaling-stroke;-inkscape-stroke:hairline;stroke-width:0.26458333;stroke-dasharray:none" />
  <polyline
     z="0"
     points="697.845,554.566 703.045,554.566 703.045,546.668 715.385,546.668 715.385,551.868 732.525,551.868 732.525,546.668 750.065,546.668 750.065,551.868 767.205,551.868 767.205,546.668 784.745,546.668 784.745,551.868 801.885,551.868 801.885,546.668 819.425,546.668 819.425,551.868 836.565,551.868 836.565,546.668 854.105,546.668 854.105,551.868 871.245,551.868 871.245,546.668 883.585,546.668 883.585,554.566 888.785,554.566 888.785,562.664 883.585,562.664 883.585,570.362 888.785,570.362 888.785,578.46 883.585,578.46 883.585,586.358 871.445,586.358 871.445,591.558 853.905,591.558 853.905,586.358 836.765,586.358 836.765,591.558 819.225,591.558 819.225,586.358 802.085,586.358 802.085,591.558 784.545,591.558 784.545,586.358 767.405,586.358 767.405,591.558 749.865,591.558 749.865,586.358 732.725,586.358 732.725,591.558 715.185,591.558 715.185,586.358 703.045,586.358 703.045,578.46 697.845,578.46 697.845,570.362 703.045,570.362 703.045,562.664 697.845,562.664 697.845,554.566"
     fill="none"
     stroke="#000000"
     stroke-width="0.1mm"
     id="polyline12"
     transform="rotate(90,650,450)"
     style="fill:none;stroke:#000000;stroke-opacity:1;vector-effect:non-scaling-stroke;-inkscape-stroke:hairline;stroke-width:0.26458333;stroke-dasharray:none" />
</svg>
