<?xml version="1.0" encoding="UTF-8" standalone="no"?>
<svg
   width="1300mm"
   height="900mm"
   viewBox="0 0 1300 900"
   version="1.1"
   id="svg12"
   sodipodi:docname="MakoFrame.svg"
   inkscape:version="1.3.2 (091e20ef0f, 2023-11-25)"
   xmlns:inkscape="http://www.inkscape.org/namespaces/inkscape"
   xmlns:sodipodi="http://sodipodi.sourceforge.net/DTD/sodipodi-0.dtd"
   xmlns="http://www.w3.org/2000/svg"
   xmlns:svg="http://www.w3.org/2000/svg">
  <defs
     id="defs12" />
  <sodipodi:namedview
     id="namedview12"
     pagecolor="#505050"
     bordercolor="#eeeeee"
     borderopacity="1"
     inkscape:showpageshadow="0"
     inkscape:pageopacity="0"
     inkscape:pagecheckerboard="0"
     inkscape:deskcolor="#505050"
     inkscape:document-units="mm"
     inkscape:zoom="0.16343109"
     inkscape:cx="2453.6335"
     inkscape:cy="1697.9633"
     inkscape:window-width="1920"
     inkscape:window-height="1011"
     inkscape:window-x="0"
     inkscape:window-y="32"
     inkscape:window-maximized="1"
     inkscape:current-layer="svg12" />
  <polyline
     z="0"
     points="237.962,728.894 237.962,710.049 243.162,710.049 243.162,691.603 237.962,691.603 237.962,672.758 427.312,672.758 427.312,691.603 422.112,691.603 422.112,710.049 427.312,710.049 427.312,728.894 237.962,728.894"
     fill="none"
     stroke="#000000"
     stroke-width="0.1mm"
     id="polyline1"
     transform="rotate(90,791.8301,599.13422)"
     style="fill:none;stroke:#000000;stroke-opacity:1;vector-effect:non-scaling-stroke;-inkscape-stroke:hairline;stroke-width:0.26458333;stroke-dasharray:none" />
  <polyline
     z="0"
     points="255.157,672.758 255.157,667.557 243.162,667.557 243.162,644.773 237.962,644.773 237.962,621.789 243.162,621.789 243.162,599.205 237.962,599.205 237.962,576.221 243.162,576.221 243.162,553.637 237.962,553.637 237.962,530.653 243.162,530.653 243.162,508.069 237.962,508.069 237.962,485.085 243.162,485.085 243.162,462.501 237.962,462.501 237.962,439.517 243.162,439.517 243.162,421.932 259.412,421.932 259.412,416.732 275.862,416.732 275.862,421.932 291.912,421.932 291.912,416.732 308.362,416.732 308.362,421.932 324.412,421.932 324.412,416.732 340.862,416.732 340.862,421.932 356.912,421.932 356.912,416.732 373.362,416.732 373.362,421.932 389.412,421.932 389.412,416.732 405.862,416.732 405.862,421.932 422.112,421.932 422.112,439.517 427.312,439.517 427.312,462.501 422.112,462.501 422.112,485.085 427.312,485.085 427.312,508.069 422.112,508.069 422.112,530.653 427.312,530.653 427.312,553.637 422.112,553.637 422.112,576.221 427.312,576.221 427.312,599.205 422.112,599.205 422.112,621.789 427.312,621.789 427.312,644.773 422.112,644.773 422.112,667.557 410.117,667.557 410.117,672.758 392.721,672.758 392.721,667.557 375.726,667.557 375.726,672.758 358.33,672.758 358.33,667.557 341.335,667.557 341.335,672.758 323.939,672.758 323.939,667.557 306.944,667.557 306.944,672.758 289.548,672.758 289.548,667.557 272.553,667.557 272.553,672.758 255.157,672.758"
     fill="none"
     stroke="black"
     stroke-width="0.1mm"
     id="polyline2"
     style="fill:none;stroke:#000000;stroke-opacity:1;vector-effect:non-scaling-stroke;-inkscape-stroke:hairline;stroke-width:0.26458333;stroke-dasharray:none" />
  <path
     id="polyline3"
     d="M 427.31205 721.61396 L 432.51225 721.61396 L 432.51225 728.89414 L 450.29721 728.89414 L 450.29721 723.69394 L 472.88085 723.69394 L 472.88085 728.89414 L 495.86497 728.89414 L 495.86497 723.69394 L 518.44912 723.69394 L 518.44912 728.89414 L 541.43325 728.89414 L 541.43325 723.69394 L 564.01688 723.69394 L 564.01688 728.89414 L 587.00101 728.89414 L 587.00101 723.69394 L 609.58516 723.69394 L 609.58516 728.89414 L 632.56877 728.89414 L 632.56877 723.69394 L 655.15292 723.69394 L 655.15292 728.89414 L 683.33777 728.89414 L 683.33777 721.41397 L 678.13705 721.41397 L 678.13705 714.33379 L 683.33777 714.33379 L 683.33777 706.85414 L 678.13705 706.85414 L 678.13705 699.77395 L 683.33777 699.77395 L 683.33777 692.29379 L 655.15292 692.29379 L 655.15292 697.49399 L 632.56877 697.49399 L 632.56877 692.49378 L 641.15016 692.49378 L 641.15016 686.77319 L 627.48019 673.10323 L 627.48019 678.44399 L 609.03377 678.44399 L 609.03377 673.24379 L 590.18893 673.24379 L 590.18893 678.44399 L 571.74406 678.44399 L 571.74406 672.84123 L 569.53593 678.17114 L 583.6591 692.29379 L 564.01688 692.29379 L 564.01688 697.49399 L 541.43325 697.49399 L 541.43325 692.29379 L 518.44912 692.29379 L 518.44912 697.49399 L 495.86497 697.49399 L 495.86497 692.29379 L 472.88085 692.29379 L 472.88085 697.49399 L 450.29721 697.49399 L 450.29721 692.29379 L 432.51225 692.29379 L 432.51225 699.57396 L 427.31205 699.57396 L 427.31205 707.05413 L 432.51225 707.05413 L 432.51225 714.1338 L 427.31205 714.1338 L 427.31205 721.61396 z M 587.00101 697.49399 L 587.00101 692.49378 L 609.58516 692.49378 L 609.58516 697.49399 L 587.00101 697.49399 z "
     transform="rotate(90,791.8301,599.13422)"
     style="fill:none;stroke:#000000;stroke-opacity:1;vector-effect:non-scaling-stroke;-inkscape-stroke:hairline;stroke-width:0.26458333;stroke-dasharray:none" />
  <path
     id="polyline5"
     d="M 448.76176 416.73219 L 448.76176 421.93187 L 432.5121 421.93187 L 432.5121 439.51684 L 427.3119 439.51684 L 427.3119 462.50097 L 432.5121 462.50097 L 432.5121 485.08512 L 427.3119 485.08512 L 427.3119 508.06925 L 432.5121 508.06925 L 432.5121 530.65288 L 427.3119 530.65288 L 427.3119 553.63701 L 432.5121 553.63701 L 432.5121 576.22116 L 427.3119 576.22116 L 427.3119 599.20477 L 432.5121 599.20477 L 432.5121 621.78892 L 427.3119 621.78892 L 427.3119 644.77305 L 432.5121 644.77305 L 432.5121 667.55719 L 444.50723 667.55719 L 444.50723 672.7579 L 461.90307 672.7579 L 461.90307 667.55719 L 478.8979 667.55719 L 478.8979 672.7579 L 496.29425 672.7579 L 496.29425 667.55719 L 513.28908 667.55719 L 513.28908 672.7579 L 530.68492 672.7579 L 530.68492 667.55719 L 547.67975 667.55719 L 547.67975 672.7579 L 565.0761 672.7579 L 565.0761 667.55719 L 582.07093 667.55719 L 582.07093 672.7579 L 599.46677 672.7579 L 599.46677 667.55719 L 611.4619 667.55719 L 611.4619 644.77305 L 616.6621 644.77305 L 616.6621 621.78892 L 611.4619 621.78892 L 611.4619 599.20477 L 616.6621 599.20477 L 616.6621 576.22116 L 611.4619 576.22116 L 611.4619 553.63701 L 616.6621 553.63701 L 616.6621 530.65288 L 611.4619 530.65288 L 611.4619 508.06925 L 616.6621 508.06925 L 616.6621 485.08512 L 611.4619 485.08512 L 611.4619 462.50097 L 616.6621 462.50097 L 616.6621 439.51684 L 611.4619 439.51684 L 611.4619 421.93187 L 595.21225 421.93187 L 595.21225 416.73219 L 578.76209 416.73219 L 578.76209 421.93187 L 562.71191 421.93187 L 562.71191 416.73219 L 546.26175 416.73219 L 546.26175 421.93187 L 530.21208 421.93187 L 530.21208 416.73219 L 513.76192 416.73219 L 513.76192 421.93187 L 497.71226 421.93187 L 497.71226 416.73219 L 481.2621 416.73219 L 481.2621 421.93187 L 465.21191 421.93187 L 465.21191 416.73219 L 448.76176 416.73219 z M 448.21502 432.53226 L 595.75898 432.53226 L 596.2618 432.55809 L 596.75686 432.62992 L 597.2421 432.75188 L 597.7139 432.92086 L 598.16607 433.13377 L 598.59499 433.39215 L 598.99703 433.68981 L 599.36807 434.02725 L 599.705 434.39777 L 600.00317 434.79982 L 600.26 435.22821 L 600.47394 435.6809 L 600.64189 436.15219 L 600.76385 436.63691 L 600.83723 437.13301 L 600.86203 437.63375 L 600.86203 651.85479 L 600.83723 652.35708 L 600.76385 652.85317 L 600.64189 653.3379 L 600.47394 653.80919 L 600.26 654.26187 L 600.00317 654.68975 L 599.705 655.0918 L 599.36807 655.46283 L 598.99703 655.79976 L 598.59499 656.09794 L 598.16607 656.35477 L 597.7139 656.56974 L 597.2421 656.73821 L 596.75686 656.86016 L 596.2618 656.93199 L 595.76002 656.9568 L 448.21399 656.9568 L 447.71221 656.93199 L 447.21715 656.86016 L 446.73191 656.73821 L 446.2601 656.56974 L 445.80793 656.35477 L 445.37902 656.09794 L 444.97697 655.79976 L 444.60594 655.46283 L 444.26901 655.0918 L 443.97083 654.68975 L 443.714 654.26187 L 443.50109 653.80919 L 443.33211 653.3379 L 443.21016 652.85317 L 443.13678 652.35708 L 443.11197 651.85479 L 443.11197 437.63375 L 443.13678 437.13301 L 443.21016 436.63691 L 443.33211 436.15219 L 443.50109 435.6809 L 443.714 435.22821 L 443.97083 434.79982 L 444.26901 434.39777 L 444.60594 434.02725 L 444.97697 433.68981 L 445.37902 433.39215 L 445.80793 433.13377 L 446.2601 432.92086 L 446.73191 432.75188 L 447.21715 432.62992 L 447.71221 432.55809 L 448.21502 432.53226 z "
     style="fill:none;stroke:#000000;stroke-opacity:1;vector-effect:non-scaling-stroke;-inkscape-stroke:hairline;stroke-width:0.26458333;stroke-dasharray:none" />
  <path
     id="polyline7"
     d="M 616.66225 672.75803 L 644.84709 672.75803 L 644.84709 667.55783 L 667.43124 667.55783 L 667.43124 672.75803 L 690.41485 672.75803 L 690.41485 667.55783 L 712.999 667.55783 L 712.999 672.75803 L 735.98313 672.75803 L 735.98313 667.55783 L 758.56677 667.55783 L 758.56677 672.75803 L 781.55089 672.75803 L 781.55089 667.55783 L 804.13504 667.55783 L 804.13504 672.75803 L 827.11917 672.75803 L 827.11917 667.55783 L 849.70281 667.55783 L 849.70281 672.75803 L 867.48777 672.75803 L 867.48777 665.47785 L 872.68797 665.47785 L 872.68797 657.99821 L 867.48777 657.99821 L 867.48777 650.91802 L 872.68797 650.91802 L 872.68797 643.43786 L 867.48777 643.43786 L 867.48777 636.1582 L 849.70281 636.1582 L 849.70281 641.35788 L 827.11917 641.35788 L 827.11917 636.1582 L 804.13504 636.1582 L 804.13504 641.35788 L 781.55089 641.35788 L 781.55089 636.1582 L 758.56677 636.1582 L 758.56677 641.35788 L 735.98313 641.35788 L 735.98313 636.1582 L 716.34092 636.1582 L 730.46409 622.03503 L 728.25595 616.70512 L 728.25595 622.30788 L 709.81109 622.30788 L 709.81109 617.1082 L 690.96624 617.1082 L 690.96624 622.30788 L 672.51982 622.30788 L 672.51982 616.96712 L 658.84986 630.63709 L 658.84986 636.35818 L 667.43124 636.35818 L 667.43124 641.35788 L 644.84709 641.35788 L 644.84709 636.1582 L 616.66225 636.1582 L 616.66225 643.63784 L 621.86297 643.63784 L 621.86297 650.71803 L 616.66225 650.71803 L 616.66225 658.19819 L 621.86297 658.19819 L 621.86297 665.27787 L 616.66225 665.27787 L 616.66225 672.75803 z M 690.41485 641.35788 L 690.41485 636.35818 L 712.999 636.35818 L 712.999 641.35788 L 690.41485 641.35788 z "
     transform="rotate(90,791.8301,599.13422)"
     style="fill:none;stroke:#000000;stroke-opacity:1;vector-effect:non-scaling-stroke;-inkscape-stroke:hairline;stroke-width:0.26458333;stroke-dasharray:none" />
  <polyline
     z="0"
     points="683.338,692.294 704.988,692.294 704.988,697.494 721.038,697.494 721.038,692.294 737.488,692.294 737.488,697.494 753.538,697.494 753.538,692.294 769.988,692.294 769.988,697.494 786.038,697.494 786.038,692.294 802.488,692.294 802.488,697.494 818.538,697.494 818.538,692.294 834.988,692.294 834.988,697.494 851.038,697.494 851.038,692.294 872.688,692.294 872.688,699.774 867.488,699.774 867.488,706.854 872.688,706.854 872.688,714.334 867.488,714.334 867.488,721.414 872.688,721.414 872.688,728.894 851.038,728.894 851.038,723.694 834.988,723.694 834.988,728.894 818.538,728.894 818.538,723.694 802.488,723.694 802.488,728.894 786.038,728.894 786.038,723.694 769.988,723.694 769.988,728.894 753.538,728.894 753.538,723.694 737.488,723.694 737.488,728.894 721.038,728.894 721.038,723.694 704.988,723.694 704.988,728.894 683.338,728.894 683.338,721.414 688.538,721.414 688.538,714.334 683.338,714.334 683.338,706.854 688.538,706.854 688.538,699.774 683.338,699.774 683.338,692.294"
     fill="none"
     stroke="#000000"
     stroke-width="0.1mm"
     id="polyline9"
     transform="rotate(90,791.8301,599.13422)"
     style="fill:none;stroke:#000000;stroke-opacity:1;vector-effect:non-scaling-stroke;-inkscape-stroke:hairline;stroke-width:0.26458333;stroke-dasharray:none" />
  <polyline
     z="0"
     points="872.688,699.574 877.888,699.574 877.888,692.294 890.083,692.294 890.083,697.494 907.079,697.494 907.079,692.294 924.474,692.294 924.474,697.494 941.47,697.494 941.47,692.294 958.865,692.294 958.865,697.494 975.861,697.494 975.861,692.294 993.256,692.294 993.256,697.494 1010.252,697.494 1010.252,692.294 1027.647,692.294 1027.647,697.494 1044.643,697.494 1044.643,692.294 1056.838,692.294 1056.838,699.574 1062.038,699.574 1062.038,707.054 1056.838,707.054 1056.838,714.134 1062.038,714.134 1062.038,721.614 1056.838,721.614 1056.838,728.894 1044.643,728.894 1044.643,723.694 1027.647,723.694 1027.647,728.894 1010.252,728.894 1010.252,723.694 993.256,723.694 993.256,728.894 975.861,728.894 975.861,723.694 958.865,723.694 958.865,728.894 941.47,728.894 941.47,723.694 924.474,723.694 924.474,728.894 907.079,728.894 907.079,723.694 890.083,723.694 890.083,728.894 877.888,728.894 877.888,721.614 872.688,721.614 872.688,714.134 877.888,714.134 877.888,707.054 872.688,707.054 872.688,699.574"
     fill="none"
     stroke="#000000"
     stroke-width="0.1mm"
     id="polyline10"
     transform="rotate(90,791.8301,599.13422)"
     style="fill:none;stroke:#000000;stroke-opacity:1;vector-effect:non-scaling-stroke;-inkscape-stroke:hairline;stroke-width:0.26458333;stroke-dasharray:none" />
  <path
     id="polyline11"
     d="M 237.96222 171.10583 L 237.96222 416.73219 L 416.91202 416.73219 L 416.91202 171.10583 L 237.96222 171.10583 z M 277.13916 207.20699 L 377.73508 207.20699 L 378.03791 207.22198 L 378.33711 207.2659 L 378.63012 207.33877 L 378.91382 207.44005 L 379.18719 207.56924 L 379.44506 207.72479 L 379.68794 207.90411 L 379.91118 208.10719 L 380.11375 208.32992 L 380.2941 208.57383 L 380.44913 208.83221 L 380.5778 209.10403 L 380.67909 209.38877 L 380.75299 209.68177 L 380.79691 209.97995 L 380.8119 210.28381 L 380.8119 377.55525 L 380.79691 377.85807 L 380.75299 378.15625 L 380.67909 378.44925 L 380.5778 378.73399 L 380.44913 379.00581 L 380.2941 379.26419 L 380.11375 379.5081 L 379.91118 379.73083 L 379.68794 379.93392 L 379.44506 380.11323 L 379.18719 380.26878 L 378.91382 380.39797 L 378.63012 380.49926 L 378.33711 380.57212 L 378.03791 380.61604 L 377.73405 380.63206 L 277.14019 380.63206 L 276.83582 380.61604 L 276.53713 380.57212 L 276.24412 380.49926 L 275.9599 380.39797 L 275.68705 380.26878 L 275.42918 380.11323 L 275.18579 379.93392 L 274.96306 379.73083 L 274.75997 379.5081 L 274.58014 379.26419 L 274.42511 379.00581 L 274.29592 378.73399 L 274.19515 378.44925 L 274.12125 378.15625 L 274.07681 377.85807 L 274.06182 377.55525 L 274.06182 210.28381 L 274.07681 209.97995 L 274.12125 209.68177 L 274.19515 209.38877 L 274.29592 209.10403 L 274.42511 208.83221 L 274.58014 208.57383 L 274.75997 208.32992 L 274.96306 208.10719 L 275.18579 207.90411 L 275.42918 207.72479 L 275.68705 207.56924 L 275.9599 207.44005 L 276.24412 207.33877 L 276.53713 207.2659 L 276.83582 207.22198 L 277.13916 207.20699 z "
     style="fill:none;stroke:#ff0000;stroke-opacity:1;vector-effect:non-scaling-stroke;-inkscape-stroke:hairline;stroke-width:0.26458333;stroke-dasharray:none" />
</svg>
