<?xml version="1.0" encoding="UTF-8" standalone="no"?>
<!-- Created with Inkscape (http://www.inkscape.org/) -->

<svg
   width="47in"
   height="31in"
   viewBox="0 0 1199.9995 791.489"
   version="1.1"
   id="svg1"
   inkscape:version="1.3.2 (091e20ef0f, 2023-11-25)"
   xml:space="preserve"
   sodipodi:docname="2footkit.svg"
   xmlns:inkscape="http://www.inkscape.org/namespaces/inkscape"
   xmlns:sodipodi="http://sodipodi.sourceforge.net/DTD/sodipodi-0.dtd"
   xmlns="http://www.w3.org/2000/svg"
   xmlns:svg="http://www.w3.org/2000/svg"><sodipodi:namedview
     id="namedview1"
     pagecolor="#505050"
     bordercolor="#eeeeee"
     borderopacity="1"
     inkscape:showpageshadow="0"
     inkscape:pageopacity="0"
     inkscape:pagecheckerboard="0"
     inkscape:deskcolor="#505050"
     inkscape:document-units="in"
     labelstyle="default"
     inkscape:zoom="0.16888298"
     inkscape:cx="2489.8898"
     inkscape:cy="1921.4488"
     inkscape:window-width="1920"
     inkscape:window-height="1011"
     inkscape:window-x="0"
     inkscape:window-y="32"
     inkscape:window-maximized="1"
     inkscape:current-layer="g25"><inkscape:page
       x="0"
       y="0"
       width="1199.9995"
       height="791.48901"
       id="page1"
       margin="0"
       bleed="0" /></sodipodi:namedview><defs
     id="defs1" /><g
     inkscape:label="Layer 1"
     inkscape:groupmode="layer"
     id="layer1" /><g
     id="g25"><g
       id="g5"
       transform="translate(-1694.4735,-127.98406)"><polyline
         z="0"
         points="334.5,607.217 334.5,594.087 339.7,594.087 339.7,581.357 334.5,581.357 334.5,568.227 339.7,568.227 339.7,555.497 334.5,555.497 334.5,542.367 350.931,542.367 350.931,537.167 367.562,537.167 367.562,542.367 383.792,542.367 383.792,537.167 400.423,537.167 400.423,542.367 416.654,542.367 416.654,537.167 433.285,537.167 433.285,542.367 449.515,542.367 449.515,537.167 466.146,537.167 466.146,542.367 482.377,542.367 482.377,537.167 499.008,537.167 499.008,542.367 515.238,542.367 515.238,537.167 531.869,537.167 531.869,542.367 548.3,542.367 548.3,555.497 543.1,555.497 543.1,568.227 548.3,568.227 548.3,581.357 543.1,581.357 543.1,594.087 548.3,594.087 548.3,607.217 531.669,607.217 531.669,602.017 515.438,602.017 515.438,607.217 498.808,607.217 498.808,602.017 482.577,602.017 482.577,607.217 465.946,607.217 465.946,602.017 449.715,602.017 449.715,607.217 433.085,607.217 433.085,602.017 416.854,602.017 416.854,607.217 400.223,607.217 400.223,602.017 383.992,602.017 383.992,607.217 367.362,607.217 367.362,602.017 351.131,602.017 351.131,607.217 334.5,607.217"
         fill="none"
         stroke="#000000"
         stroke-width="0.1mm"
         id="polyline1"
         transform="matrix(0,1.005193,1.0051931,0,1305.3909,10.538645)"
         style="vector-effect:non-scaling-stroke;fill:none;stroke:#000000;stroke-width:0.264583;stroke-dasharray:none;stroke-opacity:1;-inkscape-stroke:hairline" /><path
         id="polyline2"
         style="vector-effect:non-scaling-stroke;fill:none;stroke:#000000;stroke-width:0.265957;stroke-dasharray:none;stroke-opacity:1;-inkscape-stroke:hairline"
         d="m 1915.7611,346.77557 v 16.71739 h 5.2272 v 16.31534 h -5.2272 v 16.71635 h 5.2272 V 412.84 h -5.2272 v 16.71738 h 5.2272 v 16.31534 h -5.2272 v 16.71635 h 5.2272 v 16.31535 h -5.2272 v 16.71738 h 5.2272 v 16.31534 h -5.2272 v 16.71635 h 5.2272 v 16.31535 h -5.2272 v 16.71738 h 12.7099 v -5.2272 h 12.3083 v 5.2272 h 12.7098 v -5.2272 h 12.3089 v 5.2272 h 12.7093 v -5.2272 h 12.3089 v 5.2272 h 12.7093 v -5.2272 h 12.3088 v 5.2272 h 12.7094 v -16.71738 h -5.2267 v -16.31535 h 5.2267 v -16.71635 h -5.2267 V 495.6218 h 5.2267 v -16.71738 h -5.2267 v -16.31535 h 5.2267 v -16.71635 h -5.2267 v -16.31534 h 5.2267 V 412.84 h -5.2267 v -16.31535 h 5.2267 V 379.8083 h -5.2267 v -16.31534 h 5.2267 v -16.71739 h -12.7094 v 5.2272 h -12.3088 v -5.2272 h -12.7093 v 5.2272 h -12.3089 v -5.2272 h -12.7093 v 5.2272 h -12.3089 v -5.2272 h -12.7098 v 5.2272 h -12.3083 v -5.2272 z m 21.5784,70.02885 h 15.9486 v 5.02617 h -15.9486 z m 53.6777,0 h 15.9481 v 5.02617 h -15.9481 z m -53.6777,69.82678 h 15.9486 v 5.02618 h -15.9486 z m 53.6777,0 h 15.9481 v 5.02618 h -15.9481 z" /><path
         id="polyline7"
         style="vector-effect:non-scaling-stroke;fill:none;stroke:#000000;stroke-width:0.265957;stroke-dasharray:none;stroke-opacity:1;-inkscape-stroke:hairline"
         d="m 1938.3595,605.10833 -108.0908,35.06793 h 5.7622 v 9.85081 h -5.2272 v 10.25338 h 5.2272 v 10.05185 h 7.2816 v 5.22667 h 12.7104 v -5.22667 h 12.3078 v 5.22667 h 12.7104 v -5.22667 h 3.6408 v -14.11497 h 5.0262 v 14.11497 h 3.6408 v 5.22667 h 12.7103 v -5.22667 h 12.3078 v 5.22667 h 12.7109 v -5.22667 h 7.2816 v -12.99712 h 5.2267 v -13.19813 h -5.2267 v -12.79608 h 5.0257 v 5.86197 l 14.3965,14.3965 5.3576,-2.2196 h -5.6308 v -14.54402 h 5.2267 v -14.94504 h -5.2267 v -14.74557 h -14.1233 v 12.99711 h -5.0257 z m -53.6776,22.88012 h 5.0262 v 13.91394 h -5.0262 z" /><path
         id="polyline9"
         style="vector-effect:non-scaling-stroke;fill:none;stroke:#000000;stroke-width:0.265957;stroke-dasharray:none;stroke-opacity:1;-inkscape-stroke:hairline"
         d="m 1711.2502,561.68597 v 5.22721 h -7.2817 v 10.05184 h -5.2272 v 10.25286 h 5.2272 v 9.85081 h -5.7622 l 108.0909,35.06948 v -13.03554 h 5.0256 v 12.9971 h 14.1233 v -14.74504 h 5.2267 v -14.94504 h -5.2267 v -14.54454 h 5.6308 l -5.3576,-2.21907 -14.3965,14.39701 v 5.86144 h -5.0256 v -12.79607 h 5.2267 v -13.19814 h -5.2267 v -12.9971 h -7.2816 v -5.22721 h -12.7109 v 5.22721 h -12.3078 v -5.22721 h -12.7104 v 5.22721 h -3.6408 v 14.11496 h -5.0262 v -14.11496 h -3.6408 v -5.22721 h -12.7104 v 5.22721 h -12.3078 v -5.22721 z m 41.3693,33.65711 h 5.0262 v 13.91393 h -5.0262 z" /><polyline
         z="0"
         points="553.5,435.367 613.188,435.367 597.485,483.767 574.763,483.767 574.763,488.767 595.863,488.767 580.16,537.167 553.5,537.167 553.5,521.1 548.3,521.1 548.3,504.834 553.5,504.834 553.5,467.7 548.3,467.7 548.3,451.434 553.5,451.434 553.5,435.367"
         fill="none"
         stroke="#000000"
         stroke-width="0.1mm"
         id="polyline11"
         transform="matrix(0,1.005193,-1.0051931,0,2340.4915,124.41207)"
         style="vector-effect:non-scaling-stroke;fill:none;stroke:#000000;stroke-width:0.264583;stroke-dasharray:none;stroke-opacity:1;-inkscape-stroke:hairline" /><polyline
         z="0"
         points="613.188,435.367 672.875,435.367 672.875,451.434 678.075,451.434 678.075,467.7 672.875,467.7 672.875,504.834 678.075,504.834 678.075,521.1 672.875,521.1 672.875,537.167 646.215,537.167 630.513,488.767 651.612,488.767 651.612,483.767 628.89,483.767 613.188,435.367"
         fill="none"
         stroke="#000000"
         stroke-width="0.1mm"
         id="polyline12"
         transform="matrix(0,1.005193,-1.0051931,0,2238.1629,91.212551)"
         style="vector-effect:non-scaling-stroke;fill:none;stroke:#000000;stroke-width:0.264583;stroke-dasharray:none;stroke-opacity:1;-inkscape-stroke:hairline" /><path
         id="polyline7-3"
         style="vector-effect:non-scaling-stroke;fill:none;stroke:#000000;stroke-width:0.265957;stroke-dasharray:none;stroke-opacity:1;-inkscape-stroke:hairline"
         d="m 1722.986,605.10875 108.0909,35.06793 h -5.7622 v 9.85081 h 5.2272 v 10.25338 h -5.2272 v 10.05184 h -7.2816 v 5.22668 h -12.7104 v -5.22668 h -12.3078 v 5.22668 h -12.7104 v -5.22668 h -3.6408 v -14.11496 h -5.0262 v 14.11496 h -3.6408 v 5.22668 h -12.7104 v -5.22668 h -12.3077 v 5.22668 h -12.7109 v -5.22668 h -7.2817 v -12.9971 h -5.2266 v -13.19814 h 5.2266 V 631.3414 h -5.0256 v 5.86196 l -14.3965,14.3965 -5.3576,-2.2196 h 5.6308 v -14.54402 h -5.2267 V 619.8912 h 5.2267 v -14.74557 h 14.1233 v 12.99711 h 5.0256 z m 53.6777,22.88013 h -5.0262 v 13.91393 h 5.0262 z" /><path
         id="polyline9-1"
         style="vector-effect:non-scaling-stroke;fill:none;stroke:#000000;stroke-width:0.265957;stroke-dasharray:none;stroke-opacity:1;-inkscape-stroke:hairline"
         d="m 1950.0954,561.68597 v 5.22721 h 7.2816 v 10.05184 h 5.2273 v 10.25286 h -5.2273 v 9.85081 h 5.7623 l -108.0909,35.06948 v -13.03554 h -5.0257 v 12.9971 h -14.1232 v -14.74504 h -5.2267 v -14.94504 h 5.2267 v -14.54454 h -5.6308 l 5.3575,-2.21907 14.3965,14.39701 v 5.86144 h 5.0257 v -12.79607 h -5.2267 v -13.19814 h 5.2267 v -12.9971 h 7.2816 v -5.22721 h 12.7109 v 5.22721 h 12.3078 v -5.22721 h 12.7104 v 5.22721 h 3.6408 v 14.11496 h 5.0262 v -14.11496 h 3.6408 v -5.22721 h 12.7104 v 5.22721 h 12.3078 v -5.22721 z m -41.3693,33.65711 h -5.0262 v 13.91393 h 5.0262 z" /><polyline
         z="0"
         points="553.5,435.367 613.188,435.367 597.485,483.767 574.763,483.767 574.763,488.767 595.863,488.767 580.16,537.167 553.5,537.167 553.5,521.1 548.3,521.1 548.3,504.834 553.5,504.834 553.5,467.7 548.3,467.7 548.3,451.434 553.5,451.434 553.5,435.367"
         fill="none"
         stroke="#000000"
         stroke-width="0.1mm"
         id="polyline11-8"
         transform="matrix(0,1.005193,1.0051931,0,1260.5784,124.41207)"
         style="vector-effect:non-scaling-stroke;fill:none;stroke:#000000;stroke-width:0.264583;stroke-dasharray:none;stroke-opacity:1;-inkscape-stroke:hairline" /><polyline
         z="0"
         points="613.188,435.367 672.875,435.367 672.875,451.434 678.075,451.434 678.075,467.7 672.875,467.7 672.875,504.834 678.075,504.834 678.075,521.1 672.875,521.1 672.875,537.167 646.215,537.167 630.513,488.767 651.612,488.767 651.612,483.767 628.89,483.767 613.188,435.367"
         fill="none"
         stroke="#000000"
         stroke-width="0.1mm"
         id="polyline12-9"
         transform="matrix(0,1.005193,1.0051931,0,1362.9071,91.212551)"
         style="vector-effect:non-scaling-stroke;fill:none;stroke:#000000;stroke-width:0.264583;stroke-dasharray:none;stroke-opacity:1;-inkscape-stroke:hairline" /><polyline
         z="0"
         points="678.075,462.761 694.506,462.761 694.506,457.561 711.137,457.561 711.137,462.761 727.367,462.761 727.367,457.561 743.998,457.561 743.998,462.761 760.229,462.761 760.229,457.561 776.86,457.561 776.86,462.761 793.09,462.761 793.09,457.561 809.721,457.561 809.721,462.761 825.952,462.761 825.952,457.561 842.583,457.561 842.583,462.761 858.813,462.761 858.813,457.561 875.444,457.561 875.444,462.761 891.875,462.761 891.875,472.961 886.675,472.961 886.675,482.761 891.875,482.761 891.875,492.961 678.075,492.961 678.075,482.761 683.275,482.761 683.275,472.961 678.075,472.961 678.075,462.761"
         fill="none"
         stroke="#000000"
         stroke-width="0.1mm"
         id="polyline13"
         transform="matrix(0,1.005193,-1.0051931,0,2280.7076,-334.82054)"
         style="vector-effect:non-scaling-stroke;fill:none;stroke:#000000;stroke-width:0.264583;stroke-dasharray:none;stroke-opacity:1;-inkscape-stroke:hairline" /><polyline
         z="0"
         points="678.075,492.961 891.875,492.961 891.875,507.83 886.675,507.83 886.675,522.298 891.875,522.298 891.875,537.167 875.244,537.167 875.244,531.967 859.013,531.967 859.013,537.167 842.383,537.167 842.383,531.967 826.152,531.967 826.152,537.167 809.521,537.167 809.521,531.967 793.29,531.967 793.29,537.167 776.66,537.167 776.66,531.967 760.429,531.967 760.429,537.167 743.798,537.167 743.798,531.967 727.567,531.967 727.567,537.167 710.937,537.167 710.937,531.967 694.706,531.967 694.706,537.167 678.075,537.167 678.075,522.298 683.275,522.298 683.275,507.83 678.075,507.83 678.075,492.961"
         fill="none"
         stroke="#000000"
         stroke-width="0.1mm"
         id="polyline14"
         transform="matrix(0,1.005193,-1.0051931,0,2238.1628,-334.82054)"
         style="vector-effect:non-scaling-stroke;fill:none;stroke:#000000;stroke-width:0.264583;stroke-dasharray:none;stroke-opacity:1;-inkscape-stroke:hairline" /><polyline
         z="0"
         points="687.433,564.892 687.433,585.955 692.433,585.955 692.433,564.892 762.1,564.892 762.1,579.134 756.9,579.134 756.9,592.976 762.1,592.976 762.1,607.217 548.3,607.217 548.3,592.976 553.5,592.976 553.5,579.134 548.3,579.134 548.3,564.892 617.967,564.892 617.967,585.955 622.967,585.955 622.967,564.892 687.433,564.892"
         fill="none"
         stroke="#000000"
         stroke-width="0.1mm"
         id="polyline15"
         transform="matrix(0,1.005193,-1.0051931,0,2353.0122,-204.37162)"
         style="vector-effect:non-scaling-stroke;fill:none;stroke:#000000;stroke-width:0.264583;stroke-dasharray:none;stroke-opacity:1;-inkscape-stroke:hairline" /><polyline
         z="0"
         points="762.1,587.967 773.331,587.967 773.331,582.767 789.962,582.767 789.962,587.967 806.192,587.967 806.192,582.767 822.823,582.767 822.823,587.967 839.054,587.967 839.054,582.767 855.685,582.767 855.685,587.967 871.915,587.967 871.915,582.767 888.546,582.767 888.546,587.967 904.777,587.967 904.777,582.767 921.408,582.767 921.408,587.967 937.638,587.967 937.638,582.767 954.269,582.767 954.269,587.967 965.5,587.967 965.5,602.017 954.269,602.017 954.269,607.217 937.638,607.217 937.638,602.017 921.408,602.017 921.408,607.217 904.777,607.217 904.777,602.017 888.546,602.017 888.546,607.217 871.915,607.217 871.915,602.017 855.685,602.017 855.685,607.217 839.054,607.217 839.054,602.017 822.823,602.017 822.823,607.217 806.192,607.217 806.192,602.017 789.962,602.017 789.962,607.217 773.331,607.217 773.331,602.017 762.1,602.017 762.1,587.967"
         fill="none"
         stroke="#000000"
         stroke-width="0.1mm"
         id="polyline16"
         transform="matrix(0,1.005193,-1.0051931,0,2431.1408,-414.05488)"
         style="vector-effect:non-scaling-stroke;fill:none;stroke:#000000;stroke-width:0.264583;stroke-dasharray:none;stroke-opacity:1;-inkscape-stroke:hairline" /><polyline
         z="0"
         points="334.5,607.217 334.5,594.087 339.7,594.087 339.7,581.357 334.5,581.357 334.5,568.227 339.7,568.227 339.7,555.497 334.5,555.497 334.5,542.367 350.931,542.367 350.931,537.167 367.562,537.167 367.562,542.367 383.792,542.367 383.792,537.167 400.423,537.167 400.423,542.367 416.654,542.367 416.654,537.167 433.285,537.167 433.285,542.367 449.515,542.367 449.515,537.167 466.146,537.167 466.146,542.367 482.377,542.367 482.377,537.167 499.008,537.167 499.008,542.367 515.238,542.367 515.238,537.167 531.869,537.167 531.869,542.367 548.3,542.367 548.3,555.497 543.1,555.497 543.1,568.227 548.3,568.227 548.3,581.357 543.1,581.357 543.1,594.087 548.3,594.087 548.3,607.217 531.669,607.217 531.669,602.017 515.438,602.017 515.438,607.217 498.808,607.217 498.808,602.017 482.577,602.017 482.577,607.217 465.946,607.217 465.946,602.017 449.715,602.017 449.715,607.217 433.085,607.217 433.085,602.017 416.854,602.017 416.854,607.217 400.223,607.217 400.223,602.017 383.992,602.017 383.992,607.217 367.362,607.217 367.362,602.017 351.131,602.017 351.131,607.217 334.5,607.217"
         fill="none"
         stroke="#000000"
         stroke-width="0.1mm"
         id="polyline1-6"
         transform="matrix(0,1.005193,1.0051931,0,1305.3909,-204.37201)"
         style="vector-effect:non-scaling-stroke;fill:none;stroke:#000000;stroke-width:0.264583;stroke-dasharray:none;stroke-opacity:1;-inkscape-stroke:hairline" /><path
         id="polyline2-4"
         style="vector-effect:non-scaling-stroke;fill:none;stroke:#000000;stroke-width:0.265957;stroke-dasharray:none;stroke-opacity:1;-inkscape-stroke:hairline"
         d="m 1915.7611,131.86491 v 16.71739 h 5.2272 v 16.31534 h -5.2272 v 16.71635 h 5.2272 v 16.31535 h -5.2272 v 16.71738 h 5.2272 v 16.31534 h -5.2272 v 16.71635 h 5.2272 v 16.31535 h -5.2272 v 16.71739 h 5.2272 v 16.31533 h -5.2272 v 16.71635 h 5.2272 v 16.31535 h -5.2272 v 16.71739 h 12.7099 v -5.22721 h 12.3083 v 5.22721 h 12.7098 v -5.22721 h 12.3089 v 5.22721 h 12.7093 v -5.22721 h 12.3089 v 5.22721 h 12.7093 v -5.22721 h 12.3088 v 5.22721 h 12.7094 v -16.71739 h -5.2267 v -16.31535 h 5.2267 v -16.71635 h -5.2267 v -16.31533 h 5.2267 v -16.71739 h -5.2267 v -16.31535 h 5.2267 v -16.71635 h -5.2267 v -16.31534 h 5.2267 v -16.71738 h -5.2267 v -16.31535 h 5.2267 v -16.71635 h -5.2267 V 148.5823 h 5.2267 v -16.71739 h -12.7094 v 5.2272 h -12.3088 v -5.2272 h -12.7093 v 5.2272 h -12.3089 v -5.2272 h -12.7093 v 5.2272 h -12.3089 v -5.2272 h -12.7098 v 5.2272 h -12.3083 v -5.2272 z m 21.5784,70.02885 h 15.9486 v 5.02618 h -15.9486 z m 53.6777,0 h 15.9481 v 5.02618 h -15.9481 z m -53.6777,69.82678 h 15.9486 v 5.02618 h -15.9486 z m 53.6777,0 h 15.9481 v 5.02618 h -15.9481 z" /><polyline
         z="0"
         points="678.075,462.761 694.506,462.761 694.506,457.561 711.137,457.561 711.137,462.761 727.367,462.761 727.367,457.561 743.998,457.561 743.998,462.761 760.229,462.761 760.229,457.561 776.86,457.561 776.86,462.761 793.09,462.761 793.09,457.561 809.721,457.561 809.721,462.761 825.952,462.761 825.952,457.561 842.583,457.561 842.583,462.761 858.813,462.761 858.813,457.561 875.444,457.561 875.444,462.761 891.875,462.761 891.875,472.961 886.675,472.961 886.675,482.761 891.875,482.761 891.875,492.961 678.075,492.961 678.075,482.761 683.275,482.761 683.275,472.961 678.075,472.961 678.075,462.761"
         fill="none"
         stroke="#000000"
         stroke-width="0.1mm"
         id="polyline13-3"
         transform="matrix(0,1.005193,-1.0051931,0,2280.7076,-549.7312)"
         style="vector-effect:non-scaling-stroke;fill:none;stroke:#000000;stroke-width:0.264583;stroke-dasharray:none;stroke-opacity:1;-inkscape-stroke:hairline" /><polyline
         z="0"
         points="678.075,492.961 891.875,492.961 891.875,507.83 886.675,507.83 886.675,522.298 891.875,522.298 891.875,537.167 875.244,537.167 875.244,531.967 859.013,531.967 859.013,537.167 842.383,537.167 842.383,531.967 826.152,531.967 826.152,537.167 809.521,537.167 809.521,531.967 793.29,531.967 793.29,537.167 776.66,537.167 776.66,531.967 760.429,531.967 760.429,537.167 743.798,537.167 743.798,531.967 727.567,531.967 727.567,537.167 710.937,537.167 710.937,531.967 694.706,531.967 694.706,537.167 678.075,537.167 678.075,522.298 683.275,522.298 683.275,507.83 678.075,507.83 678.075,492.961"
         fill="none"
         stroke="#000000"
         stroke-width="0.1mm"
         id="polyline14-3"
         transform="matrix(0,1.005193,-1.0051931,0,2238.1628,-549.73121)"
         style="vector-effect:non-scaling-stroke;fill:none;stroke:#000000;stroke-width:0.264583;stroke-dasharray:none;stroke-opacity:1;-inkscape-stroke:hairline" /><polyline
         z="0"
         points="687.433,564.892 687.433,585.955 692.433,585.955 692.433,564.892 762.1,564.892 762.1,579.134 756.9,579.134 756.9,592.976 762.1,592.976 762.1,607.217 548.3,607.217 548.3,592.976 553.5,592.976 553.5,579.134 548.3,579.134 548.3,564.892 617.967,564.892 617.967,585.955 622.967,585.955 622.967,564.892 687.433,564.892"
         fill="none"
         stroke="#000000"
         stroke-width="0.1mm"
         id="polyline15-3"
         transform="matrix(0,1.005193,-1.0051931,0,2353.0122,-419.28228)"
         style="vector-effect:non-scaling-stroke;fill:none;stroke:#000000;stroke-width:0.264583;stroke-dasharray:none;stroke-opacity:1;-inkscape-stroke:hairline" /><polyline
         z="0"
         points="762.1,587.967 773.331,587.967 773.331,582.767 789.962,582.767 789.962,587.967 806.192,587.967 806.192,582.767 822.823,582.767 822.823,587.967 839.054,587.967 839.054,582.767 855.685,582.767 855.685,587.967 871.915,587.967 871.915,582.767 888.546,582.767 888.546,587.967 904.777,587.967 904.777,582.767 921.408,582.767 921.408,587.967 937.638,587.967 937.638,582.767 954.269,582.767 954.269,587.967 965.5,587.967 965.5,602.017 954.269,602.017 954.269,607.217 937.638,607.217 937.638,602.017 921.408,602.017 921.408,607.217 904.777,607.217 904.777,602.017 888.546,602.017 888.546,607.217 871.915,607.217 871.915,602.017 855.685,602.017 855.685,607.217 839.054,607.217 839.054,602.017 822.823,602.017 822.823,607.217 806.192,607.217 806.192,602.017 789.962,602.017 789.962,607.217 773.331,607.217 773.331,602.017 762.1,602.017 762.1,587.967"
         fill="none"
         stroke="#000000"
         stroke-width="0.1mm"
         id="polyline16-8"
         transform="matrix(0,1.005193,-1.0051931,0,2431.1408,-628.96554)"
         style="vector-effect:non-scaling-stroke;fill:none;stroke:#000000;stroke-width:0.264583;stroke-dasharray:none;stroke-opacity:1;-inkscape-stroke:hairline" /></g><g
       id="g15"
       transform="translate(3.7327307,3.8808494)"><polyline
         z="0"
         points="473.9,575 473.9,499.75 485.21,499.75 485.21,504.95 496.121,504.95 496.121,499.75 507.398,499.75 509.439,504.677 495.116,519 493.96,519 493.96,524 513.62,524 513.62,518.8 533.68,518.8 533.68,524 553.34,524 553.34,518.8 568.2,518.8 568.2,537.467 573.4,537.467 573.4,556.333 568.2,556.333 568.2,575 553.34,575 553.34,569.8 533.68,569.8 533.68,575 513.62,575 513.62,569.8 493.96,569.8 493.96,575 473.9,575"
         fill="none"
         stroke="#000000"
         stroke-width="0.1mm"
         id="polyline1-3"
         style="vector-effect:non-scaling-stroke;stroke-width:0.264583;stroke-dasharray:none;-inkscape-stroke:hairline"
         transform="matrix(0,-1.005193,1.0051931,0,509.8259,797.11805)" /><path
         id="polyline3"
         style="vector-effect:non-scaling-stroke;fill:none;stroke:#000000;stroke-width:0.265957;-inkscape-stroke:hairline"
         d="m 1031.3201,460.90109 v 19.7621 h -5.026 v -19.7621 h 5.026 m 51.2648,-40.1273 v 19.96313 h 5.227 v 20.16417 h -5.227 v 19.7621 h 5.227 v 20.16417 h -5.227 v 19.96313 h -17.2219 v -5.227 h -16.8209 v 5.227 h -17.222 v -19.96313 h -5.026 v 19.96313 h -17.222 v -5.227 h -16.8209 v 5.227 h -17.2219 v -19.96313 h -5.227 v -20.16417 h 5.227 v -19.7621 h -5.227 v -20.16417 h 5.227 v -19.96313 h 51.2648 v 19.96313 h 5.026 v -19.96313 h 51.2648" /><polyline
         z="0"
         points="533.68,400.25 513.62,400.25 513.62,395.05 493.96,395.05 493.96,400.25 479.1,400.25 479.1,381.583 473.9,381.583 473.9,362.717 479.1,362.717 479.1,344.05 493.96,344.05 493.96,349.25 513.62,349.25 513.62,344.05 533.68,344.05 533.68,349.25 553.34,349.25 553.34,344.25 552.184,344.25 537.861,329.927 539.902,325 551.179,325 551.179,330.2 562.09,330.2 562.09,325 573.4,325 573.4,400.25 553.34,400.25 553.34,395.05 533.68,395.05 533.68,400.25"
         fill="none"
         stroke="#000000"
         stroke-width="0.1mm"
         id="polyline4"
         style="vector-effect:non-scaling-stroke;stroke-width:0.264583;stroke-dasharray:none;-inkscape-stroke:hairline"
         transform="matrix(0,-1.005193,1.0051931,0,685.4834,697.10135)" /><polyline
         z="0"
         points="473.9,575 473.9,499.75 485.21,499.75 485.21,504.95 496.121,504.95 496.121,499.75 507.398,499.75 509.439,504.677 495.116,519 493.96,519 493.96,524 513.62,524 513.62,518.8 533.68,518.8 533.68,524 553.34,524 553.34,518.8 568.2,518.8 568.2,537.467 573.4,537.467 573.4,556.333 568.2,556.333 568.2,575 553.34,575 553.34,569.8 533.68,569.8 533.68,575 513.62,575 513.62,569.8 493.96,569.8 493.96,575 473.9,575"
         fill="none"
         stroke="#000000"
         stroke-width="0.1mm"
         id="polyline1-4"
         style="vector-effect:non-scaling-stroke;stroke-width:0.264583;stroke-dasharray:none;-inkscape-stroke:hairline"
         transform="matrix(0,1.005193,-1.0051931,0,1533.6653,-255.62059)" /><polyline
         z="0"
         points="533.68,400.25 513.62,400.25 513.62,395.05 493.96,395.05 493.96,400.25 479.1,400.25 479.1,381.583 473.9,381.583 473.9,362.717 479.1,362.717 479.1,344.05 493.96,344.05 493.96,349.25 513.62,349.25 513.62,344.05 533.68,344.05 533.68,349.25 553.34,349.25 553.34,344.25 552.184,344.25 537.861,329.927 539.902,325 551.179,325 551.179,330.2 562.09,330.2 562.09,325 573.4,325 573.4,400.25 553.34,400.25 553.34,395.05 533.68,395.05 533.68,400.25"
         fill="none"
         stroke="#000000"
         stroke-width="0.1mm"
         id="polyline4-8"
         style="vector-effect:non-scaling-stroke;stroke-width:0.264583;stroke-dasharray:none;-inkscape-stroke:hairline"
         transform="matrix(0,1.005193,-1.0051931,0,1358.0078,-355.6373)" /><path
         id="polyline6"
         style="vector-effect:non-scaling-stroke;fill:none;stroke:#000000;stroke-width:0.265957;-inkscape-stroke:hairline"
         d="m 913.3104,480.66319 h -5.0259 v -19.7621 h 5.0259 v 19.7621 m 56.4919,20.16417 h -5.227 v 19.96313 h -17.222 v -5.227 h -16.8209 v 5.227 h -17.222 v -19.96313 h -5.0259 v 19.96313 h -17.222 v -5.227 h -16.8209 v 5.227 h -17.222 v -19.96313 h -5.227 v -20.16417 h 5.227 v -19.7621 h -5.227 v -20.16417 h 5.227 v -19.96313 h 51.2649 v 19.96313 h 5.0259 v -19.96313 h 51.2649 v 19.96313 h 5.227 v 20.16417 h -5.227 v 19.7621 h 5.227 v 20.16417" /><path
         id="polyline3-3"
         style="vector-effect:non-scaling-stroke;fill:none;stroke:#000000;stroke-width:0.265957;-inkscape-stroke:hairline"
         d="m 1031.3201,380.64648 v -19.76209 h -5.026 v 19.76209 h 5.026 m 51.2648,40.12731 v -19.96313 h 5.227 v -20.16418 h -5.227 v -19.76209 h 5.227 v -20.16417 h -5.227 v -19.96314 h -17.2219 v 5.22701 h -16.8209 v -5.22701 h -17.222 v 19.96314 h -5.026 v -19.96314 h -17.222 v 5.22701 h -16.8209 v -5.22701 h -17.2219 v 19.96314 h -5.227 v 20.16417 h 5.227 v 19.76209 h -5.227 v 20.16418 h 5.227 v 19.96313 h 51.2648 v -19.96313 h 5.026 v 19.96313 h 51.2648" /><path
         id="polyline6-9"
         style="vector-effect:non-scaling-stroke;fill:none;stroke:#000000;stroke-width:0.265957;-inkscape-stroke:hairline"
         d="m 913.3104,360.88439 h -5.0259 v 19.76209 h 5.0259 v -19.76209 m 56.4919,-20.16417 h -5.227 v -19.96314 h -17.222 v 5.22701 h -16.8209 v -5.22701 h -17.222 v 19.96314 h -5.0259 v -19.96314 h -17.222 v 5.22701 h -16.8209 v -5.22701 h -17.222 v 19.96314 h -5.227 v 20.16417 h 5.227 v 19.76209 h -5.227 v 20.16418 h 5.227 v 19.96313 h 51.2649 v -19.96313 h 5.0259 v 19.96313 h 51.2649 v -19.96313 h 5.227 v -20.16418 h -5.227 v -19.76209 h 5.227 v -20.16417" /><path
         id="polyline8"
         style="vector-effect:non-scaling-stroke;fill:none;stroke:#000000;stroke-width:0.265957;-inkscape-stroke:hairline"
         d="m 1068.847,64.23183 v -5.02597 h -18.5619 v 5.02597 h 18.5619 m 18.9649,56.49185 v -5.42805 h -5.227 V 98.47574 h 5.227 V 81.25276 h -5.227 V 64.43287 h 5.227 v -5.42805 h -5.227 V 42.18493 h 5.227 V 24.96195 h -5.227 V 8.14206 h 5.227 V 2.71402 h -18.9649 v 5.227 h -18.5619 v -5.227 h -18.965 v 5.42804 h 5.227 v 16.81989 h -5.227 v 17.22298 h 5.227 v 16.81989 h -5.227 v 5.42805 h 5.227 v 16.81989 h -5.227 v 17.22298 h 5.227 v 16.81989 h -5.227 v 5.42805 h 18.965 v -5.22701 h 18.5619 v 5.22701 h 18.9649" /><polyline
         z="0"
         points="785.1,541.47 785.1,552.58 790.3,552.58 790.3,563.89 785.1,563.89 785.1,575 678.1,575 678.1,563.89 672.9,563.89 672.9,552.58 678.1,552.58 678.1,541.47 785.1,541.47"
         fill="none"
         stroke="#000000"
         stroke-width="0.1mm"
         id="polyline9-0"
         style="vector-effect:non-scaling-stroke;stroke-width:0.264583;stroke-dasharray:none;-inkscape-stroke:hairline"
         transform="matrix(0,-1.005193,-1.0051931,0,1485.406,794.40403)" /><polyline
         z="0"
         points="672.9,537.467 672.9,556.333 667.7,556.333 667.7,575 652.84,575 652.84,569.8 633.18,569.8 633.18,575 613.12,575 613.12,569.8 593.46,569.8 593.46,575 573.4,575 573.4,518.8 593.46,518.8 593.46,524 613.12,524 613.12,518.8 633.18,518.8 633.18,524 652.84,524 652.84,518.8 667.7,518.8 667.7,537.467 672.9,537.467"
         fill="none"
         stroke="#000000"
         stroke-width="0.1mm"
         id="polyline10"
         style="vector-effect:non-scaling-stroke;stroke-width:0.264583;stroke-dasharray:none;-inkscape-stroke:hairline"
         transform="matrix(0,-1.005193,1.0051931,0,377.6933,797.11805)" /><path
         id="polyline8-1"
         style="vector-effect:non-scaling-stroke;fill:none;stroke:#000000;stroke-width:0.265957;-inkscape-stroke:hairline"
         d="m 1012.3551,64.23183 v -5.02597 h -18.5619 v 5.02597 h 18.5619 m 18.965,56.49185 v -5.42805 h -5.227 V 98.47574 h 5.227 V 81.25276 h -5.227 V 64.43287 h 5.227 v -5.42805 h -5.227 V 42.18493 h 5.227 V 24.96195 h -5.227 V 8.14206 h 5.227 V 2.71402 h -18.965 v 5.227 h -18.5619 v -5.227 h -18.965 v 5.42804 h 5.227 v 16.81989 h -5.227 v 17.22298 h 5.227 v 16.81989 h -5.227 v 5.42805 h 5.227 v 16.81989 h -5.227 v 17.22298 h 5.227 v 16.81989 h -5.227 v 5.42805 h 18.965 v -5.22701 h 18.5619 v 5.22701 h 18.965" /><polyline
         z="0"
         points="785.1,541.47 785.1,552.58 790.3,552.58 790.3,563.89 785.1,563.89 785.1,575 678.1,575 678.1,563.89 672.9,563.89 672.9,552.58 678.1,552.58 678.1,541.47 785.1,541.47"
         fill="none"
         stroke="#000000"
         stroke-width="0.1mm"
         id="polyline9-2"
         style="vector-effect:non-scaling-stroke;stroke-width:0.264583;stroke-dasharray:none;-inkscape-stroke:hairline"
         transform="matrix(0,-1.005193,-1.0051931,0,1519.1101,794.40403)" /><polyline
         z="0"
         points="672.9,537.467 672.9,556.333 667.7,556.333 667.7,575 652.84,575 652.84,569.8 633.18,569.8 633.18,575 613.12,575 613.12,569.8 593.46,569.8 593.46,575 573.4,575 573.4,518.8 593.46,518.8 593.46,524 613.12,524 613.12,518.8 633.18,518.8 633.18,524 652.84,524 652.84,518.8 667.7,518.8 667.7,537.467 672.9,537.467"
         fill="none"
         stroke="#000000"
         stroke-width="0.1mm"
         id="polyline10-9"
         style="vector-effect:non-scaling-stroke;stroke-width:0.264583;stroke-dasharray:none;-inkscape-stroke:hairline"
         transform="matrix(0,1.005193,-1.0051931,0,1477.1735,-355.6373)" /><polyline
         z="0"
         points="473.9,575 473.9,499.75 485.21,499.75 485.21,504.95 496.121,504.95 496.121,499.75 507.398,499.75 509.439,504.677 495.116,519 493.96,519 493.96,524 513.62,524 513.62,518.8 533.68,518.8 533.68,524 553.34,524 553.34,518.8 568.2,518.8 568.2,537.467 573.4,537.467 573.4,556.333 568.2,556.333 568.2,575 553.34,575 553.34,569.8 533.68,569.8 533.68,575 513.62,575 513.62,569.8 493.96,569.8 493.96,575 473.9,575"
         fill="none"
         stroke="#000000"
         stroke-width="0.1mm"
         id="polyline1-3-4"
         style="vector-effect:non-scaling-stroke;stroke-width:0.264583;stroke-dasharray:none;-inkscape-stroke:hairline"
         transform="matrix(0,1.005193,-1.0051931,0,1240.5725,-276.32756)" /><path
         id="polyline3-7"
         style="vector-effect:non-scaling-stroke;fill:none;stroke:#000000;stroke-width:0.265957;-inkscape-stroke:hairline"
         d="M 719.0783,59.8894 V 40.1273 h 5.026 v 19.7621 h -5.026 m -51.2648,40.1273 V 80.05357 h -5.227 V 59.8894 h 5.227 V 40.1273 h -5.227 V 19.96313 h 5.227 V 0 h 17.2219 v 5.227 h 16.8209 V 0 h 17.222 v 19.96313 h 5.026 V 0 h 17.222 v 5.227 h 16.8209 V 0 h 17.2219 v 19.96313 h 5.227 V 40.1273 h -5.227 v 19.7621 h 5.227 v 20.16417 h -5.227 V 100.0167 H 724.1043 V 80.05357 h -5.026 v 19.96313 h -51.2648" /><polyline
         z="0"
         points="533.68,400.25 513.62,400.25 513.62,395.05 493.96,395.05 493.96,400.25 479.1,400.25 479.1,381.583 473.9,381.583 473.9,362.717 479.1,362.717 479.1,344.05 493.96,344.05 493.96,349.25 513.62,349.25 513.62,344.05 533.68,344.05 533.68,349.25 553.34,349.25 553.34,344.25 552.184,344.25 537.861,329.927 539.902,325 551.179,325 551.179,330.2 562.09,330.2 562.09,325 573.4,325 573.4,400.25 553.34,400.25 553.34,395.05 533.68,395.05 533.68,400.25"
         fill="none"
         stroke="#000000"
         stroke-width="0.1mm"
         id="polyline4-2"
         style="vector-effect:non-scaling-stroke;stroke-width:0.264583;stroke-dasharray:none;-inkscape-stroke:hairline"
         transform="matrix(0,1.005193,-1.0051931,0,1064.915,-176.31086)" /><polyline
         z="0"
         points="473.9,575 473.9,499.75 485.21,499.75 485.21,504.95 496.121,504.95 496.121,499.75 507.398,499.75 509.439,504.677 495.116,519 493.96,519 493.96,524 513.62,524 513.62,518.8 533.68,518.8 533.68,524 553.34,524 553.34,518.8 568.2,518.8 568.2,537.467 573.4,537.467 573.4,556.333 568.2,556.333 568.2,575 553.34,575 553.34,569.8 533.68,569.8 533.68,575 513.62,575 513.62,569.8 493.96,569.8 493.96,575 473.9,575"
         fill="none"
         stroke="#000000"
         stroke-width="0.1mm"
         id="polyline1-4-4"
         style="vector-effect:non-scaling-stroke;stroke-width:0.264583;stroke-dasharray:none;-inkscape-stroke:hairline"
         transform="matrix(0,-1.005193,1.0051931,0,216.7331,776.41108)" /><polyline
         z="0"
         points="533.68,400.25 513.62,400.25 513.62,395.05 493.96,395.05 493.96,400.25 479.1,400.25 479.1,381.583 473.9,381.583 473.9,362.717 479.1,362.717 479.1,344.05 493.96,344.05 493.96,349.25 513.62,349.25 513.62,344.05 533.68,344.05 533.68,349.25 553.34,349.25 553.34,344.25 552.184,344.25 537.861,329.927 539.902,325 551.179,325 551.179,330.2 562.09,330.2 562.09,325 573.4,325 573.4,400.25 553.34,400.25 553.34,395.05 533.68,395.05 533.68,400.25"
         fill="none"
         stroke="#000000"
         stroke-width="0.1mm"
         id="polyline4-8-0"
         style="vector-effect:non-scaling-stroke;stroke-width:0.264583;stroke-dasharray:none;-inkscape-stroke:hairline"
         transform="matrix(0,-1.005193,1.0051931,0,392.3906,876.42779)" /><path
         id="polyline6-62"
         style="vector-effect:non-scaling-stroke;fill:none;stroke:#000000;stroke-width:0.265957;-inkscape-stroke:hairline"
         d="m 837.088,40.1273 h 5.0259 V 59.8894 H 837.088 V 40.1273 M 780.5961,19.96313 h 5.227 V 0 h 17.222 V 5.227 H 819.866 V 0 h 17.222 v 19.96313 h 5.0259 V 0 h 17.222 v 5.227 h 16.8209 V 0 h 17.222 v 19.96313 h 5.227 V 40.1273 h -5.227 v 19.7621 h 5.227 v 20.16417 h -5.227 V 100.0167 H 842.1139 V 80.05357 H 837.088 V 100.0167 H 785.8231 V 80.05357 h -5.227 V 59.8894 h 5.227 V 40.1273 h -5.227 V 19.96313" /><path
         id="polyline3-3-9"
         style="vector-effect:non-scaling-stroke;fill:none;stroke:#000000;stroke-width:0.265957;-inkscape-stroke:hairline"
         d="m 719.0783,140.14401 v 19.76209 h 5.026 v -19.76209 h -5.026 M 667.8135,100.0167 v 19.96313 h -5.227 v 20.16418 h 5.227 v 19.76209 h -5.227 v 20.16417 h 5.227 v 19.96314 h 17.2219 v -5.22701 h 16.8209 v 5.22701 h 17.222 v -19.96314 h 5.026 v 19.96314 h 17.222 v -5.22701 h 16.8209 v 5.22701 h 17.2219 v -19.96314 h 5.227 V 159.9061 h -5.227 v -19.76209 h 5.227 v -20.16418 h -5.227 V 100.0167 h -51.2648 v 19.96313 h -5.026 V 100.0167 h -51.2648" /><path
         id="polyline6-9-9"
         style="vector-effect:non-scaling-stroke;fill:none;stroke:#000000;stroke-width:0.265957;-inkscape-stroke:hairline"
         d="m 837.088,159.9061 h 5.0259 v -19.76209 h -5.0259 v 19.76209 m -56.4919,20.16417 h 5.227 v 19.96314 h 17.222 v -5.22701 h 16.8209 v 5.22701 h 17.222 v -19.96314 h 5.0259 v 19.96314 h 17.222 v -5.22701 h 16.8209 v 5.22701 h 17.222 v -19.96314 h 5.227 V 159.9061 h -5.227 v -19.76209 h 5.227 v -20.16418 h -5.227 V 100.0167 h -51.2649 v 19.96313 H 837.088 V 100.0167 h -51.2649 v 19.96313 h -5.227 v 20.16418 h 5.227 v 19.76209 h -5.227 v 20.16417" /><path
         id="polyline8-0"
         style="vector-effect:non-scaling-stroke;fill:none;stroke:#000000;stroke-width:0.265957;-inkscape-stroke:hairline"
         d="m 681.5514,456.55866 v 5.02597 h 18.5619 v -5.02597 h -18.5619 m -18.9649,-56.49185 v 5.42805 h 5.227 v 16.81989 h -5.227 v 17.22298 h 5.227 v 16.81989 h -5.227 v 5.42805 h 5.227 v 16.81989 h -5.227 v 17.22298 h 5.227 v 16.81989 h -5.227 v 5.42804 h 18.9649 v -5.227 h 18.5619 v 5.227 h 18.965 v -5.42804 h -5.227 v -16.81989 h 5.227 v -17.22298 h -5.227 v -16.81989 h 5.227 v -5.42805 h -5.227 v -16.81989 h 5.227 v -17.22298 h -5.227 v -16.81989 h 5.227 v -5.42805 h -18.965 v 5.22701 h -18.5619 v -5.22701 h -18.9649" /><polyline
         z="0"
         points="785.1,541.47 785.1,552.58 790.3,552.58 790.3,563.89 785.1,563.89 785.1,575 678.1,575 678.1,563.89 672.9,563.89 672.9,552.58 678.1,552.58 678.1,541.47 785.1,541.47"
         fill="none"
         stroke="#000000"
         stroke-width="0.1mm"
         id="polyline9-0-8"
         style="vector-effect:non-scaling-stroke;stroke-width:0.264583;stroke-dasharray:none;-inkscape-stroke:hairline"
         transform="matrix(0,1.005193,1.0051931,0,264.9924,-273.61354)" /><polyline
         z="0"
         points="672.9,537.467 672.9,556.333 667.7,556.333 667.7,575 652.84,575 652.84,569.8 633.18,569.8 633.18,575 613.12,575 613.12,569.8 593.46,569.8 593.46,575 573.4,575 573.4,518.8 593.46,518.8 593.46,524 613.12,524 613.12,518.8 633.18,518.8 633.18,524 652.84,524 652.84,518.8 667.7,518.8 667.7,537.467 672.9,537.467"
         fill="none"
         stroke="#000000"
         stroke-width="0.1mm"
         id="polyline10-1"
         style="vector-effect:non-scaling-stroke;stroke-width:0.264583;stroke-dasharray:none;-inkscape-stroke:hairline"
         transform="matrix(0,1.005193,-1.0051931,0,1372.7051,-276.32756)" /><path
         id="polyline8-1-3"
         style="vector-effect:non-scaling-stroke;fill:none;stroke:#000000;stroke-width:0.265957;-inkscape-stroke:hairline"
         d="m 738.0433,456.55866 v 5.02597 h 18.5619 v -5.02597 h -18.5619 m -18.965,-56.49185 v 5.42805 h 5.227 v 16.81989 h -5.227 v 17.22298 h 5.227 v 16.81989 h -5.227 v 5.42805 h 5.227 v 16.81989 h -5.227 v 17.22298 h 5.227 v 16.81989 h -5.227 v 5.42804 h 18.965 v -5.227 h 18.5619 v 5.227 h 18.965 v -5.42804 h -5.227 v -16.81989 h 5.227 v -17.22298 h -5.227 v -16.81989 h 5.227 v -5.42805 h -5.227 v -16.81989 h 5.227 v -17.22298 h -5.227 v -16.81989 h 5.227 v -5.42805 h -18.965 v 5.22701 h -18.5619 v -5.22701 h -18.965" /><polyline
         z="0"
         points="785.1,541.47 785.1,552.58 790.3,552.58 790.3,563.89 785.1,563.89 785.1,575 678.1,575 678.1,563.89 672.9,563.89 672.9,552.58 678.1,552.58 678.1,541.47 785.1,541.47"
         fill="none"
         stroke="#000000"
         stroke-width="0.1mm"
         id="polyline9-2-1"
         style="vector-effect:non-scaling-stroke;stroke-width:0.264583;stroke-dasharray:none;-inkscape-stroke:hairline"
         transform="matrix(0,1.005193,1.0051931,0,231.2883,-273.61354)" /><polyline
         z="0"
         points="672.9,537.467 672.9,556.333 667.7,556.333 667.7,575 652.84,575 652.84,569.8 633.18,569.8 633.18,575 613.12,575 613.12,569.8 593.46,569.8 593.46,575 573.4,575 573.4,518.8 593.46,518.8 593.46,524 613.12,524 613.12,518.8 633.18,518.8 633.18,524 652.84,524 652.84,518.8 667.7,518.8 667.7,537.467 672.9,537.467"
         fill="none"
         stroke="#000000"
         stroke-width="0.1mm"
         id="polyline10-9-1"
         style="vector-effect:non-scaling-stroke;stroke-width:0.264583;stroke-dasharray:none;-inkscape-stroke:hairline"
         transform="matrix(0,-1.005193,1.0051931,0,273.2249,876.42779)" /></g><g
       id="g16"
       transform="translate(-796.29701,584.46158)"><polyline
         z="0"
         points="404.055,474.451 415.136,474.451 415.136,469.251 426.221,469.251 426.221,474.451 436.907,474.451 436.907,469.251 447.993,469.251 447.993,474.451 458.679,474.451 458.679,469.251 469.764,469.251 469.764,474.451 480.45,474.451 480.45,469.393 466.186,455.129 468.394,449.799 468.394,455.401 481.129,455.401 481.129,450.201 494.265,450.201 494.265,455.401 507.2,455.401 507.2,460.784 512.4,460.784 512.4,471.568 507.2,471.568 507.2,481.951 512.4,481.951 512.4,492.734 507.2,492.734 507.2,503.118 512.4,503.118 512.4,513.901 507.2,513.901 507.2,524.284 512.4,524.284 512.4,535.068 507.2,535.068 507.2,545.651 497.066,545.651 404.055,474.451"
         fill="none"
         stroke="#000000"
         stroke-width="0.1mm"
         id="polyline1-0"
         transform="matrix(0,1.005193,-1.0051931,0,1896.8373,-336.82669)"
         style="vector-effect:non-scaling-stroke;stroke-width:0.264583;stroke-dasharray:none;-inkscape-stroke:hairline" /><polyline
         z="0"
         points="512.4,460.784 517.6,460.784 517.6,455.401 530.535,455.401 530.535,450.201 543.671,450.201 543.671,455.401 556.406,455.401 556.406,449.799 558.614,455.129 544.35,469.393 544.35,474.451 555.036,474.451 555.036,469.251 566.121,469.251 566.121,474.451 576.807,474.451 576.807,469.251 587.893,469.251 587.893,474.451 598.579,474.451 598.579,469.251 609.664,469.251 609.664,474.451 620.745,474.451 527.734,545.651 517.6,545.651 517.6,535.068 512.4,535.068 512.4,524.284 517.6,524.284 517.6,513.901 512.4,513.901 512.4,503.118 517.6,503.118 517.6,492.734 512.4,492.734 512.4,481.951 517.6,481.951 517.6,471.568 512.4,471.568 512.4,460.784"
         fill="none"
         stroke="#000000"
         stroke-width="0.1mm"
         id="polyline3-92"
         transform="matrix(0,1.005193,-1.0051931,0,1800.4875,-493.51895)"
         style="vector-effect:non-scaling-stroke;stroke-width:0.264583;stroke-dasharray:none;-inkscape-stroke:hairline" /><polyline
         z="0"
         points="404.055,474.451 415.136,474.451 415.136,469.251 426.221,469.251 426.221,474.451 436.907,474.451 436.907,469.251 447.993,469.251 447.993,474.451 458.679,474.451 458.679,469.251 469.764,469.251 469.764,474.451 480.45,474.451 480.45,469.393 466.186,455.129 468.394,449.799 468.394,455.401 481.129,455.401 481.129,450.201 494.265,450.201 494.265,455.401 507.2,455.401 507.2,460.784 512.4,460.784 512.4,471.568 507.2,471.568 507.2,481.951 512.4,481.951 512.4,492.734 507.2,492.734 507.2,503.118 512.4,503.118 512.4,513.901 507.2,513.901 507.2,524.284 512.4,524.284 512.4,535.068 507.2,535.068 507.2,545.651 497.066,545.651 404.055,474.451"
         fill="none"
         stroke="#000000"
         stroke-width="0.1mm"
         id="polyline1-2"
         transform="matrix(0,-1.005193,1.0051931,0,896.2179,536.60282)"
         style="vector-effect:non-scaling-stroke;stroke-width:0.264583;stroke-dasharray:none;-inkscape-stroke:hairline" /><polyline
         z="0"
         points="512.4,460.784 517.6,460.784 517.6,455.401 530.535,455.401 530.535,450.201 543.671,450.201 543.671,455.401 556.406,455.401 556.406,449.799 558.614,455.129 544.35,469.393 544.35,474.451 555.036,474.451 555.036,469.251 566.121,469.251 566.121,474.451 576.807,474.451 576.807,469.251 587.893,469.251 587.893,474.451 598.579,474.451 598.579,469.251 609.664,469.251 609.664,474.451 620.745,474.451 527.734,545.651 517.6,545.651 517.6,535.068 512.4,535.068 512.4,524.284 517.6,524.284 517.6,513.901 512.4,513.901 512.4,503.118 517.6,503.118 517.6,492.734 512.4,492.734 512.4,481.951 517.6,481.951 517.6,471.568 512.4,471.568 512.4,460.784"
         fill="none"
         stroke="#000000"
         stroke-width="0.1mm"
         id="polyline3-9"
         transform="matrix(0,-1.005193,1.0051931,0,799.8681,693.29512)"
         style="vector-effect:non-scaling-stroke;stroke-width:0.264583;stroke-dasharray:none;-inkscape-stroke:hairline" /><polyline
         z="0"
         points="404.055,449.799 404.055,439.016 409.255,439.016 409.255,428.632 404.055,428.632 404.055,417.849 409.255,417.849 409.255,407.466 404.055,407.466 404.055,396.682 409.255,396.682 409.255,386.299 404.055,386.299 404.055,375.516 409.255,375.516 409.255,365.132 404.055,365.132 404.055,354.349 419.522,354.349 419.522,359.549 434.588,359.549 434.588,354.349 450.055,354.349 450.055,359.549 465.122,359.549 465.122,354.349 480.588,354.349 480.588,359.549 495.655,359.549 495.655,354.349 511.122,354.349 511.122,359.549 526.188,359.549 526.188,354.349 541.655,354.349 541.655,365.132 536.455,365.132 536.455,375.516 541.655,375.516 541.655,386.299 536.455,386.299 536.455,396.682 541.655,396.682 541.655,407.466 536.455,407.466 536.455,417.849 541.655,417.849 541.655,428.632 536.455,428.632 536.455,439.016 541.655,439.016 541.655,449.799 526.188,449.799 526.188,444.599 511.122,444.599 511.122,449.799 495.655,449.799 495.655,444.599 480.588,444.599 480.588,449.799 465.122,449.799 465.122,444.599 450.055,444.599 450.055,449.799 434.588,449.799 434.588,444.599 419.522,444.599 419.522,449.799 404.055,449.799"
         fill="none"
         stroke="#000000"
         stroke-width="0.1mm"
         id="polyline2-5"
         transform="matrix(0,1.005193,1.0051931,0,1321.1713,-366.23359)"
         style="vector-effect:non-scaling-stroke;stroke-width:0.264583;stroke-dasharray:none;-inkscape-stroke:hairline" /><polyline
         z="0"
         points="620.745,464.937 620.745,453.851 758.345,453.851 758.345,464.937 753.145,464.937 753.145,475.622 758.345,475.622 758.345,486.708 753.145,486.708 753.145,497.394 758.345,497.394 758.345,508.48 753.145,508.48 753.145,519.165 758.345,519.165 758.345,530.251 620.745,530.251 620.745,519.165 625.945,519.165 625.945,508.48 620.745,508.48 620.745,497.394 625.945,497.394 625.945,486.708 620.745,486.708 620.745,475.622 625.945,475.622 625.945,464.937 620.745,464.937"
         fill="none"
         stroke="#000000"
         stroke-width="0.1mm"
         id="polyline4-4"
         transform="matrix(0,1.005193,1.0051931,0,1361.5338,-584.04887)"
         style="vector-effect:non-scaling-stroke;stroke-width:0.264583;stroke-dasharray:none;-inkscape-stroke:hairline" /><polyline
         z="0"
         points="620.745,530.251 747.945,530.251 747.945,540.451 737.878,540.451 737.878,545.651 722.412,545.651 722.412,540.451 707.345,540.451 707.345,545.651 691.878,545.651 691.878,540.451 676.812,540.451 676.812,545.651 661.345,545.651 661.345,540.451 646.278,540.451 646.278,545.651 630.812,545.651 630.812,540.451 620.745,540.451 620.745,530.251"
         fill="none"
         stroke="#000000"
         stroke-width="0.1mm"
         id="polyline5"
         transform="matrix(0,1.005193,1.0051931,0,1361.5338,-578.82187)"
         style="vector-effect:non-scaling-stroke;stroke-width:0.264583;stroke-dasharray:none;-inkscape-stroke:hairline" /><polyline
         z="0"
         points="758.345,525.051 758.345,511.916 763.545,511.916 763.545,499.18 758.345,499.18 758.345,486.045 895.945,486.045 895.945,499.18 890.745,499.18 890.745,511.916 895.945,511.916 895.945,525.051 880.678,525.051 880.678,530.251 865.212,530.251 865.212,525.051 850.145,525.051 850.145,530.251 834.678,530.251 834.678,525.051 819.612,525.051 819.612,530.251 804.145,530.251 804.145,525.051 789.078,525.051 789.078,530.251 773.612,530.251 773.612,525.051 758.345,525.051"
         fill="none"
         stroke="#000000"
         stroke-width="0.1mm"
         id="polyline6-0"
         transform="matrix(0,-1.005193,-1.0051931,0,2306.3107,940.51737)"
         style="vector-effect:non-scaling-stroke;stroke-width:0.264583;stroke-dasharray:none;-inkscape-stroke:hairline" /><polyline
         z="0"
         points="404.055,449.799 404.055,439.016 409.255,439.016 409.255,428.632 404.055,428.632 404.055,417.849 409.255,417.849 409.255,407.466 404.055,407.466 404.055,396.682 409.255,396.682 409.255,386.299 404.055,386.299 404.055,375.516 409.255,375.516 409.255,365.132 404.055,365.132 404.055,354.349 419.522,354.349 419.522,359.549 434.588,359.549 434.588,354.349 450.055,354.349 450.055,359.549 465.122,359.549 465.122,354.349 480.588,354.349 480.588,359.549 495.655,359.549 495.655,354.349 511.122,354.349 511.122,359.549 526.188,359.549 526.188,354.349 541.655,354.349 541.655,365.132 536.455,365.132 536.455,375.516 541.655,375.516 541.655,386.299 536.455,386.299 536.455,396.682 541.655,396.682 541.655,407.466 536.455,407.466 536.455,417.849 541.655,417.849 541.655,428.632 536.455,428.632 536.455,439.016 541.655,439.016 541.655,449.799 526.188,449.799 526.188,444.599 511.122,444.599 511.122,449.799 495.655,449.799 495.655,444.599 480.588,444.599 480.588,449.799 465.122,449.799 465.122,444.599 450.055,444.599 450.055,449.799 434.588,449.799 434.588,444.599 419.522,444.599 419.522,449.799 404.055,449.799"
         fill="none"
         stroke="#000000"
         stroke-width="0.1mm"
         id="polyline2-8"
         transform="matrix(0,1.005193,-1.0051931,0,2033.5496,-366.23359)"
         style="vector-effect:non-scaling-stroke;stroke-width:0.264583;stroke-dasharray:none;-inkscape-stroke:hairline" /><polyline
         z="0"
         points="620.745,464.937 620.745,453.851 758.345,453.851 758.345,464.937 753.145,464.937 753.145,475.622 758.345,475.622 758.345,486.708 753.145,486.708 753.145,497.394 758.345,497.394 758.345,508.48 753.145,508.48 753.145,519.165 758.345,519.165 758.345,530.251 620.745,530.251 620.745,519.165 625.945,519.165 625.945,508.48 620.745,508.48 620.745,497.394 625.945,497.394 625.945,486.708 620.745,486.708 620.745,475.622 625.945,475.622 625.945,464.937 620.745,464.937"
         fill="none"
         stroke="#000000"
         stroke-width="0.1mm"
         id="polyline4-7"
         transform="matrix(0,1.005193,-1.0051931,0,1993.1871,-584.04886)"
         style="vector-effect:non-scaling-stroke;stroke-width:0.264583;stroke-dasharray:none;-inkscape-stroke:hairline" /><polyline
         z="0"
         points="620.745,530.251 747.945,530.251 747.945,540.451 737.878,540.451 737.878,545.651 722.412,545.651 722.412,540.451 707.345,540.451 707.345,545.651 691.878,545.651 691.878,540.451 676.812,540.451 676.812,545.651 661.345,545.651 661.345,540.451 646.278,540.451 646.278,545.651 630.812,545.651 630.812,540.451 620.745,540.451 620.745,530.251"
         fill="none"
         stroke="#000000"
         stroke-width="0.1mm"
         id="polyline5-3"
         transform="matrix(0,1.005193,-1.0051931,0,1993.1871,-578.82186)"
         style="vector-effect:non-scaling-stroke;stroke-width:0.264583;stroke-dasharray:none;-inkscape-stroke:hairline" /><polyline
         z="0"
         points="758.345,525.051 758.345,511.916 763.545,511.916 763.545,499.18 758.345,499.18 758.345,486.045 895.945,486.045 895.945,499.18 890.745,499.18 890.745,511.916 895.945,511.916 895.945,525.051 880.678,525.051 880.678,530.251 865.212,530.251 865.212,525.051 850.145,525.051 850.145,530.251 834.678,530.251 834.678,525.051 819.612,525.051 819.612,530.251 804.145,530.251 804.145,525.051 789.078,525.051 789.078,530.251 773.612,530.251 773.612,525.051 758.345,525.051"
         fill="none"
         stroke="#000000"
         stroke-width="0.1mm"
         id="polyline6-6"
         transform="matrix(0,-1.005193,1.0051931,0,1048.4102,940.51732)"
         style="vector-effect:non-scaling-stroke;stroke-width:0.264583;stroke-dasharray:none;-inkscape-stroke:hairline" /></g><g
       id="g17"
       transform="translate(3.7327307,3.8808494)"><polyline
         z="0"
         points="345.958,617.396 345.958,610.967 340.758,610.967 340.758,599.139 345.958,599.139 345.958,587.71 340.758,587.71 340.758,575.882 345.958,575.882 345.958,564.453 340.758,564.453 340.758,552.625 345.958,552.625 345.958,540.996 352.752,540.996 352.752,535.796 364.947,535.796 364.947,540.996 376.741,540.996 376.741,535.796 388.936,535.796 388.936,540.996 400.73,540.996 400.73,535.796 412.925,535.796 412.925,540.996 424.719,540.996 424.719,535.996 417.016,535.996 402.694,521.674 404.902,516.343 404.902,521.946 419.371,521.946 419.371,516.746 434.239,516.746 434.239,521.946 443.708,521.946 443.708,535.996 436.914,535.996 436.914,540.996 449,540.996 391.558,622.813 391.558,617.396 376.558,617.396 376.558,622.596 361.158,622.596 361.158,617.396 345.958,617.396"
         fill="none"
         stroke="#000000"
         stroke-width="0.1mm"
         id="polyline1-5"
         style="vector-effect:non-scaling-stroke;fill:none;stroke:#000000;stroke-width:0.264583;stroke-dasharray:none;stroke-opacity:1;-inkscape-stroke:hairline"
         transform="matrix(0,-1.0051931,-1.0051931,0,964.28032,1101.3426)" /><polyline
         z="0"
         points="758.45,415.477 767.919,415.477 767.919,410.277 782.787,410.277 782.787,415.477 797.256,415.477 797.256,409.874 799.464,415.204 785.141,429.527 777.439,429.527 777.439,434.527 789.233,434.527 789.233,429.327 801.428,429.327 801.428,434.527 813.222,434.527 813.222,429.327 825.417,429.327 825.417,434.527 837.211,434.527 837.211,429.327 849.406,429.327 849.406,434.527 856.2,434.527 856.2,446.156 861.4,446.156 861.4,457.984 856.2,457.984 856.2,469.413 861.4,469.413 861.4,481.241 856.2,481.241 856.2,492.67 861.4,492.67 861.4,504.498 856.2,504.498 856.2,510.927 841,510.927 841,516.127 825.6,516.127 825.6,510.927 810.6,510.927 810.6,516.343 753.158,434.527 765.244,434.527 765.244,429.527 758.45,429.527 758.45,415.477"
         fill="none"
         stroke="#000000"
         stroke-width="0.1mm"
         id="polyline23"
         style="vector-effect:non-scaling-stroke;fill:none;stroke:#000000;stroke-width:0.264583;stroke-dasharray:none;stroke-opacity:1;-inkscape-stroke:hairline"
         transform="matrix(0,-1.0051931,-1.0051931,0,750.23598,1447.422)" /><path
         id="polyline2-0"
         style="vector-effect:non-scaling-stroke;fill:none;stroke:#000000;stroke-width:0.265957;stroke-dasharray:none;stroke-opacity:1;-inkscape-stroke:hairline"
         d="m 340.37188,24.224268 v 18.21651 h 5.2272 v 17.81292 h -5.2272 v 18.21599 h 5.2272 v 17.81395 h -5.2272 v 18.216002 h 5.2272 v 17.81342 h -5.2272 v 18.21601 h 5.2272 v 17.81394 h -5.2272 v 18.216 h 5.2272 v 17.81291 h -5.2272 v 18.21652 h 5.2272 v 17.81396 h -5.2272 v 18.216 h 5.2272 v 17.81291 h -5.2272 v 18.216 h 5.2272 v 17.81447 h -5.2272 v 18.216 h 5.2272 v 17.81291 h -5.2272 v 18.216 h 5.2272 v 17.81395 h -5.2272 v 18.21651 h 5.2272 v 17.81291 h -5.2272 v 18.216 h 12.25741 v -5.2272 h 11.8564 v 5.2272 h 12.25741 v -5.2272 h 11.85588 v 5.2272 h 12.25742 v -5.2272 h 11.85639 v 5.2272 h 12.25742 v -5.2272 h 11.85588 v 5.2272 h 12.25741 v -18.216 h -5.22668 v -17.8129 h 5.22668 v -18.21651 h -5.22668 v -17.81396 h 5.22668 v -18.216 h -5.22668 v -17.81291 h 5.22668 v -18.216 h -5.22668 v -17.81447 h 5.22668 V 276.4313 h -5.22668 v -17.81291 h 5.22668 v -18.216 h -5.22668 v -17.81395 h 5.22668 v -18.21652 h -5.22668 v -17.81291 h 5.22668 v -18.216 h -5.22668 v -17.81394 h 5.22668 v -18.216 h -5.22668 v -17.81342 h 5.22668 V 96.283648 h -5.22668 v -17.81396 h 5.22668 v -18.21599 h -5.22668 v -17.81292 h 5.22668 v -18.21651 h -12.25741 v 5.2272 h -11.85588 v -5.2272 h -12.25742 v 5.2272 H 400.8564 v -5.2272 h -12.25742 v 5.2272 H 376.7431 v -5.2272 h -12.25741 v 5.2272 h -11.8564 v -5.2272 z m 27.33024,82.023942 h 20.14419 v 5.02618 h -20.14419 z m 40.69147,0 h 20.14367 v 5.02618 h -20.14367 z m -41.7366,81.82291 h 19.09853 v 5.02567 h -19.09853 z m 38.60017,0 h 19.09854 v 5.02567 h -19.09854 z m -38.60017,81.82241 h 19.09853 v 5.02618 h -19.09853 z m 38.60017,0 h 19.09854 v 5.02618 h -19.09854 z m -37.55504,81.82293 h 20.14419 v 5.02565 h -20.14419 z m 40.69147,0 h 20.14367 v 5.02565 h -20.14367 z" /><polyline
         z="0"
         points="536.442,402.993 536.442,388.943 554.364,388.943 554.364,383.743 572.485,383.743 572.485,388.943 590.207,388.943 590.207,383.743 608.329,383.743 608.329,388.943 626.051,388.943 626.051,383.743 644.172,383.743 644.172,388.943 661.894,388.943 661.894,383.743 680.016,383.743 680.016,388.943 697.738,388.943 697.738,383.743 715.859,383.743 715.859,388.943 733.581,388.943 733.581,383.743 751.703,383.743 751.703,388.943 769.425,388.943 769.425,383.743 787.546,383.743 787.546,388.943 805.268,388.943 805.268,383.743 823.39,383.743 823.39,388.943 841.112,388.943 841.112,383.743 859.233,383.743 859.233,388.943 876.955,388.943 876.955,383.743 895.077,383.743 895.077,388.943 912.799,388.943 912.799,383.743 930.92,383.743 930.92,388.943 948.842,388.943 948.842,402.993 930.92,402.993 930.92,408.193 912.799,408.193 912.799,402.993 895.077,402.993 895.077,408.193 876.955,408.193 876.955,402.993 859.233,402.993 859.233,408.193 841.112,408.193 841.112,402.993 823.39,402.993 823.39,408.193 805.268,408.193 805.268,402.993 787.546,402.993 787.546,408.193 769.425,408.193 769.425,402.993 751.703,402.993 751.703,408.193 733.581,408.193 733.581,402.993 715.859,402.993 715.859,408.193 697.738,408.193 697.738,402.993 680.016,402.993 680.016,408.193 661.894,408.193 661.894,402.993 644.172,402.993 644.172,408.193 626.051,408.193 626.051,402.993 608.329,402.993 608.329,408.193 590.207,408.193 590.207,402.993 572.485,402.993 572.485,408.193 554.364,408.193 554.364,402.993 536.442,402.993"
         fill="none"
         stroke="#000000"
         stroke-width="0.1mm"
         id="polyline12-6"
         style="vector-effect:non-scaling-stroke;fill:none;stroke:#000000;stroke-width:0.264583;stroke-dasharray:none;stroke-opacity:1;-inkscape-stroke:hairline"
         transform="matrix(0,1.0051931,-1.0051931,0,946.64692,-515.00344)" /><path
         id="polyline13-4"
         style="vector-effect:non-scaling-stroke;fill:none;stroke:#000000;stroke-width:0.265957;stroke-dasharray:none;stroke-opacity:1;-inkscape-stroke:hairline"
         d="M 612.17591,24.224268 V 438.76606 h -15.48004 v -5.2272 h -15.0775 v 5.2272 h -15.48006 v -18.01499 h -5.2272 v -18.21546 h 5.2272 v -17.81396 h -5.2272 v -18.21598 h 5.2272 v -17.81395 h -5.2272 v -18.21549 h 5.2272 V 312.6623 h -5.2272 v -18.21601 h 5.2272 v -17.81394 h -5.2272 v -18.21497 h 5.2272 v -17.81446 h -5.2272 v -18.21601 h 5.2272 v -17.81395 h -5.2272 v -18.21497 h 5.2272 v -17.81393 h -5.2272 v -18.21652 h 5.2272 v -17.81396 h -5.2272 v -18.21495 h 5.2272 V 96.484668 h -5.2272 v -18.21599 h 5.2272 v -17.81447 h -5.2272 v -18.21496 h 5.2272 v -18.01497 h 15.48006 v 5.2272 h 15.0775 v -5.2272 z m -14.7954,82.023942 h -7.6094 v 5.02566 h 7.6094 z m -15.62188,0 h -7.60888 v 5.02566 h 7.60888 z m 14.57675,81.8224 h -8.65505 v 5.02618 h 8.65505 z m -17.71266,0 h -8.65505 v 5.02618 h 8.65505 z m 17.71266,81.82292 h -8.65505 v 5.02566 h 8.65505 z m -17.71266,0 h -8.65505 v 5.02566 h 8.65505 z m 18.75779,81.8224 h -7.6094 v 5.02618 h 7.6094 z m -15.62188,0 h -7.60888 v 5.02618 h 7.60888 z" /><polyline
         z="0"
         points="627.506,321.393 627.506,316.193 609.784,316.193 609.784,321.393 591.662,321.393 591.662,316.193 573.941,316.193 573.941,321.393 555.819,321.393 555.819,316.193 538.097,316.193 538.097,321.393 519.975,321.393 519.975,316.193 502.254,316.193 502.254,321.393 484.132,321.393 484.132,316.193 466.41,316.193 466.41,321.393 448.288,321.393 448.288,316.193 430.567,316.193 430.567,321.393 412.445,321.393 412.445,316.193 394.723,316.193 394.723,321.393 376.601,321.393 376.601,316.193 358.88,316.193 358.88,321.393 340.758,321.393 340.758,306.524 345.958,306.524 345.958,292.056 340.758,292.056 340.758,277.187 753.158,277.187 753.158,292.056 747.958,292.056 747.958,306.524 753.158,306.524 753.158,321.393 735.036,321.393 735.036,316.193 717.315,316.193 717.315,321.393 699.193,321.393 699.193,316.193 681.471,316.193 681.471,321.393 663.349,321.393 663.349,316.193 645.628,316.193 645.628,321.393 627.506,321.393"
         fill="none"
         stroke="#000000"
         stroke-width="0.1mm"
         id="polyline22"
         style="vector-effect:non-scaling-stroke;fill:none;stroke:#000000;stroke-width:0.264583;stroke-dasharray:none;stroke-opacity:1;-inkscape-stroke:hairline"
         transform="matrix(0,1.0051931,1.0051931,0,333.54945,-318.30324)" /><path
         id="polyline25"
         style="vector-effect:non-scaling-stroke;fill:none;stroke:#000000;stroke-width:0.265957;stroke-dasharray:none;stroke-opacity:1;-inkscape-stroke:hairline"
         d="m 449.0835,24.224268 v 18.21652 h 5.22721 v 17.81291 h -5.22721 v 18.21599 h 5.22721 v 17.81397 h -5.22721 v 18.215992 h 5.22721 v 17.81343 h -5.22721 v 18.216 h 5.22721 v 17.81394 h -5.22721 v 18.21599 h 5.22721 v 17.81292 h -5.22721 v 18.21651 h 5.22721 v 17.81396 h -5.22721 v 18.216 h 5.22721 v 17.8129 h -5.22721 v 18.216 h 5.22721 v 17.81447 h -5.22721 v 18.216 h 5.22721 v 17.81293 h -5.22721 v 18.21599 h 5.22721 v 17.81395 h -5.22721 v 18.21651 h 5.22721 v 17.8129 h -5.22721 v 18.216 h 11.89069 v -5.22667 h 11.48707 v 5.22667 h 11.89068 v -5.22667 h 11.48707 v 5.22667 h 11.89069 v -5.22667 h 11.48707 v 5.22667 h 11.89068 v -18.01497 h 5.22668 v -18.21496 h -5.22668 v -17.81447 h 5.22668 v -18.21599 h -5.22668 v -17.81395 h 5.22668 v -18.21496 h -5.22668 v -17.81396 h 5.22668 V 294.4463 h -5.22668 v -17.81396 h 5.22668 v -18.21497 h -5.22668 v -17.81394 h 5.22668 v -18.216 h -5.22668 v -17.81447 h 5.22668 V 186.358 h -5.22668 v -17.81396 h 5.22668 v -18.216 h -5.22668 V 132.5141 h 5.22668 v -18.21547 h -5.22668 V 96.484658 h 5.22668 v -18.21599 h -5.22668 v -17.81394 h 5.22668 v -18.21496 h -5.22668 v -18.01549 h -11.89068 v 5.2272 H 507.7297 v -5.2272 h -11.89069 v 5.2272 h -11.48707 v -5.2272 h -11.89068 v 5.2272 h -11.48707 v -5.2272 z m 16.56572,82.023952 h 16.16366 v 5.02617 h -16.16366 z m 32.72885,0 h 16.16367 v 5.02617 h -16.16367 z m -27.50165,81.8229 h 16.16314 v 5.02567 h -16.16314 z m 32.72886,0 h 16.16366 v 5.02567 h -16.16366 z m -32.72886,81.82241 h 16.16314 v 5.02618 h -16.16314 z m 32.72886,0 h 16.16366 v 5.02618 h -16.16366 z m -37.95606,81.82293 h 16.16366 v 5.02565 h -16.16366 z m 32.72885,0 h 16.16367 v 5.02565 h -16.16367 z" /><polyline
         z="0"
         points="345.958,617.396 345.958,610.967 340.758,610.967 340.758,599.139 345.958,599.139 345.958,587.71 340.758,587.71 340.758,575.882 345.958,575.882 345.958,564.453 340.758,564.453 340.758,552.625 345.958,552.625 345.958,540.996 352.752,540.996 352.752,535.796 364.947,535.796 364.947,540.996 376.741,540.996 376.741,535.796 388.936,535.796 388.936,540.996 400.73,540.996 400.73,535.796 412.925,535.796 412.925,540.996 424.719,540.996 424.719,535.996 417.016,535.996 402.694,521.674 404.902,516.343 404.902,521.946 419.371,521.946 419.371,516.746 434.239,516.746 434.239,521.946 443.708,521.946 443.708,535.996 436.914,535.996 436.914,540.996 449,540.996 391.558,622.813 391.558,617.396 376.558,617.396 376.558,622.596 361.158,622.596 361.158,617.396 345.958,617.396"
         fill="none"
         stroke="#000000"
         stroke-width="0.1mm"
         id="polyline1-0-6"
         style="vector-effect:non-scaling-stroke;fill:none;stroke:#000000;stroke-width:0.264583;stroke-dasharray:none;stroke-opacity:1;-inkscape-stroke:hairline"
         transform="matrix(0,-1.0051931,1.0051931,0,-287.81336,1101.3426)" /><polyline
         z="0"
         points="758.45,415.477 767.919,415.477 767.919,410.277 782.787,410.277 782.787,415.477 797.256,415.477 797.256,409.874 799.464,415.204 785.141,429.527 777.439,429.527 777.439,434.527 789.233,434.527 789.233,429.327 801.428,429.327 801.428,434.527 813.222,434.527 813.222,429.327 825.417,429.327 825.417,434.527 837.211,434.527 837.211,429.327 849.406,429.327 849.406,434.527 856.2,434.527 856.2,446.156 861.4,446.156 861.4,457.984 856.2,457.984 856.2,469.413 861.4,469.413 861.4,481.241 856.2,481.241 856.2,492.67 861.4,492.67 861.4,504.498 856.2,504.498 856.2,510.927 841,510.927 841,516.127 825.6,516.127 825.6,510.927 810.6,510.927 810.6,516.343 753.158,434.527 765.244,434.527 765.244,429.527 758.45,429.527 758.45,415.477"
         fill="none"
         stroke="#000000"
         stroke-width="0.1mm"
         id="polyline23-1"
         style="vector-effect:non-scaling-stroke;fill:none;stroke:#000000;stroke-width:0.264583;stroke-dasharray:none;stroke-opacity:1;-inkscape-stroke:hairline"
         transform="matrix(0,-1.0051931,1.0051931,0,-73.769046,1447.422)" /><polyline
         z="0"
         points="507.931,408.193 499.961,408.193 499.961,402.993 492.239,402.993 438.6,326.593 455.281,326.593 455.281,321.393 475.721,321.393 475.721,326.593 495.762,326.593 495.762,321.393 516.202,321.393 516.202,326.593 531.242,326.593 531.242,342.873 536.442,342.873 536.442,359.353 531.242,359.353 531.242,375.433 536.442,375.433 536.442,391.913 531.242,391.913 531.242,402.993 523.472,402.993 523.472,408.193 515.502,408.193 515.502,402.993 507.931,402.993 507.931,408.193"
         fill="none"
         stroke="#000000"
         stroke-width="0.1mm"
         id="polyline11-25"
         style="vector-effect:non-scaling-stroke;fill:none;stroke:#000000;stroke-width:0.264583;stroke-dasharray:none;stroke-opacity:1;-inkscape-stroke:hairline"
         transform="matrix(0,1.0051931,-1.0051931,0,979.6734,42.320846)" /><polyline
         z="0"
         points="861.4,445.823 866.6,445.823 866.6,434.743 885.8,434.743 885.8,429.543 905.2,429.543 905.2,434.743 924.201,434.743 924.201,429.543 943.601,429.543 943.601,434.743 959.242,434.743 905.603,511.143 896.841,511.143 896.841,516.343 887.831,516.343 887.831,511.143 879.22,511.143 879.22,516.343 870.21,516.343 870.21,511.143 866.6,511.143 866.6,494.863 861.4,494.863 861.4,478.383 866.6,478.383 866.6,462.303 861.4,462.303 861.4,445.823"
         fill="none"
         stroke="#000000"
         stroke-width="0.1mm"
         id="polyline24"
         style="vector-effect:non-scaling-stroke;fill:none;stroke:#000000;stroke-width:0.264583;stroke-dasharray:none;stroke-opacity:1;-inkscape-stroke:hairline"
         transform="matrix(0,1.0051931,-1.0051931,0,1001.1343,-427.10734)" /><polyline
         z="0"
         points="507.931,408.193 499.961,408.193 499.961,402.993 492.239,402.993 438.6,326.593 455.281,326.593 455.281,321.393 475.721,321.393 475.721,326.593 495.762,326.593 495.762,321.393 516.202,321.393 516.202,326.593 531.242,326.593 531.242,342.873 536.442,342.873 536.442,359.353 531.242,359.353 531.242,375.433 536.442,375.433 536.442,391.913 531.242,391.913 531.242,402.993 523.472,402.993 523.472,408.193 515.502,408.193 515.502,402.993 507.931,402.993 507.931,408.193"
         fill="none"
         stroke="#000000"
         stroke-width="0.1mm"
         id="polyline11-2"
         style="vector-effect:non-scaling-stroke;fill:none;stroke:#000000;stroke-width:0.264583;stroke-dasharray:none;stroke-opacity:1;-inkscape-stroke:hairline"
         transform="matrix(0,1.0051931,1.0051931,0,159.04786,42.320826)" /><polyline
         z="0"
         points="861.4,445.823 866.6,445.823 866.6,434.743 885.8,434.743 885.8,429.543 905.2,429.543 905.2,434.743 924.201,434.743 924.201,429.543 943.601,429.543 943.601,434.743 959.242,434.743 905.603,511.143 896.841,511.143 896.841,516.343 887.831,516.343 887.831,511.143 879.22,511.143 879.22,516.343 870.21,516.343 870.21,511.143 866.6,511.143 866.6,494.863 861.4,494.863 861.4,478.383 866.6,478.383 866.6,462.303 861.4,462.303 861.4,445.823"
         fill="none"
         stroke="#000000"
         stroke-width="0.1mm"
         id="polyline24-0"
         style="vector-effect:non-scaling-stroke;fill:none;stroke:#000000;stroke-width:0.264583;stroke-dasharray:none;stroke-opacity:1;-inkscape-stroke:hairline"
         transform="matrix(0,1.0051931,1.0051931,0,137.58706,-427.10735)" /><polyline
         z="0"
         points="425.63,408.193 417.66,408.193 417.66,402.993 410.089,402.993 410.089,408.193 402.119,408.193 402.119,402.993 394.397,402.993 340.758,326.593 357.439,326.593 357.439,321.393 377.879,321.393 377.879,326.593 397.92,326.593 397.92,321.393 418.36,321.393 418.36,326.593 433.4,326.593 433.4,342.873 438.6,342.873 438.6,359.353 433.4,359.353 433.4,375.433 438.6,375.433 438.6,391.913 433.4,391.913 433.4,402.993 425.63,402.993 425.63,408.193"
         fill="none"
         stroke="#000000"
         stroke-width="0.1mm"
         id="polyline34"
         style="vector-effect:non-scaling-stroke;fill:none;stroke:#000000;stroke-width:0.264583;stroke-dasharray:none;stroke-opacity:1;-inkscape-stroke:hairline"
         transform="matrix(0,1.0051931,-1.0051931,0,717.92111,140.671)" /><polyline
         z="0"
         points="861.4,552.293 866.6,552.293 866.6,541.213 885.8,541.213 885.8,536.013 905.2,536.013 905.2,541.213 924.201,541.213 924.201,536.013 943.601,536.013 943.601,541.213 959.242,541.213 905.603,617.613 896.841,617.613 896.841,622.813 887.831,622.813 887.831,617.613 879.22,617.613 879.22,622.813 870.21,622.813 870.21,617.613 866.6,617.613 866.6,601.333 861.4,601.333 861.4,584.853 866.6,584.853 866.6,568.773 861.4,568.773 861.4,552.293"
         fill="none"
         stroke="#000000"
         stroke-width="0.1mm"
         id="polyline35"
         style="vector-effect:non-scaling-stroke;fill:none;stroke:#000000;stroke-width:0.264583;stroke-dasharray:none;stroke-opacity:1;-inkscape-stroke:hairline"
         transform="matrix(0,1.0051931,-1.0051931,0,1020.9064,-427.1074)" /><polyline
         z="0"
         points="425.63,408.193 417.66,408.193 417.66,402.993 410.089,402.993 410.089,408.193 402.119,408.193 402.119,402.993 394.397,402.993 340.758,326.593 357.439,326.593 357.439,321.393 377.879,321.393 377.879,326.593 397.92,326.593 397.92,321.393 418.36,321.393 418.36,326.593 433.4,326.593 433.4,342.873 438.6,342.873 438.6,359.353 433.4,359.353 433.4,375.433 438.6,375.433 438.6,391.913 433.4,391.913 433.4,402.993 425.63,402.993 425.63,408.193"
         fill="none"
         stroke="#000000"
         stroke-width="0.1mm"
         id="polyline34-5"
         style="vector-effect:non-scaling-stroke;fill:none;stroke:#000000;stroke-width:0.264583;stroke-dasharray:none;stroke-opacity:1;-inkscape-stroke:hairline"
         transform="matrix(0,1.0051931,1.0051931,0,71.797051,140.67098)" /><polyline
         z="0"
         points="861.4,552.293 866.6,552.293 866.6,541.213 885.8,541.213 885.8,536.013 905.2,536.013 905.2,541.213 924.201,541.213 924.201,536.013 943.601,536.013 943.601,541.213 959.242,541.213 905.603,617.613 896.841,617.613 896.841,622.813 887.831,622.813 887.831,617.613 879.22,617.613 879.22,622.813 870.21,622.813 870.21,617.613 866.6,617.613 866.6,601.333 861.4,601.333 861.4,584.853 866.6,584.853 866.6,568.773 861.4,568.773 861.4,552.293"
         fill="none"
         stroke="#000000"
         stroke-width="0.1mm"
         id="polyline35-1"
         style="vector-effect:non-scaling-stroke;fill:none;stroke:#000000;stroke-width:0.264583;stroke-dasharray:none;stroke-opacity:1;-inkscape-stroke:hairline"
         transform="matrix(0,1.0051931,1.0051931,0,-231.1882,-427.1073)" /></g><path
       style="vector-effect:non-scaling-stroke;fill:none;stroke:#ff0000;stroke-width:0.265957;-inkscape-stroke:hairline"
       d="m 0,0.0082185 0.00507,646.4340515 213.57438,-0.003 7.7e-4,-94.82226 57.77793,-4.3e-4 -4.1e-4,-114.53569 65.33655,0.008 0.003,-437.0806915 z"
       id="path17"
       sodipodi:nodetypes="ccccccccc" /><path
       style="vector-effect:non-scaling-stroke;fill:none;stroke:#ff0000;stroke-width:0.265957;-inkscape-stroke:hairline"
       d="m 213.57945,646.43927 v 122.65544 l 236.9616,0.003 V 589.94447 l 211.60841,-0.004 L 662.13796,3e-4 336.69726,0.0085"
       id="path18"
       sodipodi:nodetypes="ccccccc" /><path
       style="vector-effect:non-scaling-stroke;fill:none;stroke:#ff0000;stroke-width:0.265957;-inkscape-stroke:hairline"
       d="M 662.13796,3e-4 1095.8555,0 V 527.28488 H 662.14824"
       id="path19"
       sodipodi:nodetypes="cccc" /><path
       style="vector-effect:non-scaling-stroke;fill:none;stroke:#ff0000;stroke-width:0.265957;-inkscape-stroke:hairline"
       d="m 450.54105,769.09771 668.16985,-1.7e-4 -0.01,-148.11058 -456.55324,0.0104 V 589.9405"
       id="path20"
       sodipodi:nodetypes="ccccc" /><path
       style="vector-effect:non-scaling-stroke;fill:none;stroke:#ff0000;stroke-width:0.265957;-inkscape-stroke:hairline"
       d="m 809.59819,527.28488 -0.01,93.70714"
       id="path23"
       sodipodi:nodetypes="cc" /><g
       id="g2"><polyline
         z="0"
         points="525.1,620.619 525.1,614.342 530.3,614.342 530.3,606.552 525.1,606.552 525.1,598.361 530.3,598.361 530.3,590.57 525.1,590.57 525.1,582.379 530.3,582.379 530.3,574.389 581.3,574.389 581.3,582.379 586.5,582.379 586.5,590.57 581.3,590.57 581.3,598.361 586.5,598.361 586.5,606.552 581.3,606.552 581.3,614.342 586.5,614.342 586.5,620.619 573.843,620.619 573.843,615.419 566.786,615.419 566.786,620.619 559.329,620.619 559.329,615.419 552.271,615.419 552.271,620.619 544.814,620.619 544.814,615.419 537.757,615.419 537.757,620.619 525.1,620.619"
         fill="none"
         stroke="#000000"
         stroke-width="0.1mm"
         id="polyline1-05"
         style="vector-effect:non-scaling-stroke;stroke-width:0.264583;stroke-dasharray:none;-inkscape-stroke:hairline"
         transform="matrix(-1.0051931,0,0,-1.0051931,1709.9597,1285.5189)" /><polyline
         z="0"
         points="530.3,574.389 530.3,560.537 525.1,560.537 525.1,546.486 530.3,546.486 530.3,532.834 525.1,532.834 525.1,518.783 530.3,518.783 530.3,504.931 540.66,504.931 540.66,509.285 550.62,509.285 550.62,504.931 560.98,504.931 560.98,509.285 570.94,509.285 570.94,504.931 581.3,504.931 581.3,518.783 586.5,518.783 586.5,532.834 581.3,532.834 581.3,546.486 586.5,546.486 586.5,560.537 581.3,560.537 581.3,574.389 530.3,574.389"
         fill="none"
         stroke="#000000"
         stroke-width="0.1mm"
         id="polyline2-6"
         style="vector-effect:non-scaling-stroke;stroke-width:0.264583;stroke-dasharray:none;-inkscape-stroke:hairline"
         transform="matrix(-1.0051931,0,0,-1.0051931,1709.9597,1285.5189)" /><path
         id="polyline8-4"
         style="vector-effect:non-scaling-stroke;fill:none;stroke:#000000;stroke-width:0.265957;-inkscape-stroke:hairline"
         d="m 1146.0665,583.38048 h -10.0118 v -6.32367 h 10.0118 v 6.32367 m 20.4255,0 h -10.0117 v -6.32367 h 10.0117 v 6.32367 m 15.6408,78.2965 h -12.5046 v -5.227 h -12.1025 v 5.227 h -12.5046 v -5.227 h -12.1026 v 5.227 h -12.5046 v -25.27055 h 5.227 v -24.86848 h -5.227 V 586.2674 h 5.227 v -24.86848 h -5.227 v -25.27055 h 12.5046 v 5.227 h 12.1026 v -5.227 h 12.5046 v 5.227 h 12.1025 v -5.227 h 12.5046 v 25.27055 h -5.227 v 24.86848 h 5.227 v 25.27055 h -5.227 v 24.86848 h 5.227 v 25.27055" /><polyline
         z="0"
         points="525.1,620.619 525.1,614.342 530.3,614.342 530.3,606.552 525.1,606.552 525.1,598.361 530.3,598.361 530.3,590.57 525.1,590.57 525.1,582.379 530.3,582.379 530.3,574.389 581.3,574.389 581.3,582.379 586.5,582.379 586.5,590.57 581.3,590.57 581.3,598.361 586.5,598.361 586.5,606.552 581.3,606.552 581.3,614.342 586.5,614.342 586.5,620.619 573.843,620.619 573.843,615.419 566.786,615.419 566.786,620.619 559.329,620.619 559.329,615.419 552.271,615.419 552.271,620.619 544.814,620.619 544.814,615.419 537.757,615.419 537.757,620.619 525.1,620.619"
         fill="none"
         stroke="#000000"
         stroke-width="0.1mm"
         id="polyline1-0-0"
         style="vector-effect:non-scaling-stroke;stroke-width:0.264583;stroke-dasharray:none;-inkscape-stroke:hairline"
         transform="matrix(1.0051931,0,0,1.0051931,407.43038,-46.017658)" /><polyline
         z="0"
         points="530.3,574.389 530.3,560.537 525.1,560.537 525.1,546.486 530.3,546.486 530.3,532.834 525.1,532.834 525.1,518.783 530.3,518.783 530.3,504.931 540.66,504.931 540.66,509.285 550.62,509.285 550.62,504.931 560.98,504.931 560.98,509.285 570.94,509.285 570.94,504.931 581.3,504.931 581.3,518.783 586.5,518.783 586.5,532.834 581.3,532.834 581.3,546.486 586.5,546.486 586.5,560.537 581.3,560.537 581.3,574.389 530.3,574.389"
         fill="none"
         stroke="#000000"
         stroke-width="0.1mm"
         id="polyline2-3"
         style="vector-effect:non-scaling-stroke;stroke-width:0.264583;stroke-dasharray:none;-inkscape-stroke:hairline"
         transform="matrix(1.0051931,0,0,-1.0051931,530.86811,1113.5002)" /><polyline
         z="0"
         points="658.033,441.03 651.551,434.548 651.203,434.165 650.893,433.747 650.626,433.3 650.404,432.83 650.228,432.341 650.102,431.837 650.025,431.322 650,430.804 650,428.531 674.94,428.531 674.94,423.531 650,423.531 650,416.981 655.2,416.981 655.2,410.831 650,410.831 650,409.481 656.077,409.481 656.077,404.281 664.268,404.281 664.268,409.481 672.059,409.481 672.059,404.281 680.249,404.281 680.249,409.481 688.04,409.481 688.04,404.281 696.198,404.281 698.239,409.208 684.116,423.331 700.08,423.331 700.08,428.531 724.82,428.531 724.82,423.331 749.96,423.331 749.96,428.531 774.9,428.531 774.9,435.831 769.7,435.831 769.7,442.731 774.9,442.731 774.9,450.031 769.7,450.031 769.7,456.931 774.9,456.931 774.9,464.185 763.172,471.841 760.329,467.486 748.897,474.949 751.74,479.303 739.974,486.984 737.131,482.629 725.699,490.092 728.542,494.446 713.798,504.07 713.359,504.328 712.897,504.542 712.415,504.711 711.918,504.833 711.413,504.907 710.905,504.931 702.112,504.931 701.599,504.906 701.089,504.831 700.587,504.707 700.101,504.534 699.634,504.314 699.19,504.052 698.766,503.741 698.458,503.321 698.198,502.884 697.98,502.423 697.807,501.944 697.682,501.45 697.603,500.948 697.575,500.439 697.595,499.929 697.664,499.425 697.78,498.932 699.847,491.728 699.997,491.283 700.186,490.851 700.414,490.437 700.677,490.045 700.974,489.678 701.303,489.339 701.66,489.03 702.043,488.756 712.62,481.851 711.267,486.565 716.073,487.944 720.553,472.337 715.555,470.902 720.145,454.908 725.143,456.343 729.623,440.735 724.818,439.356 721.331,451.504 713.904,444.076 713.531,443.738 713.129,443.44 712.7,443.183 712.248,442.97 711.777,442.801 711.292,442.679 710.796,442.606 710.294,442.581 661.777,442.581 661.259,442.556 660.744,442.479 660.24,442.353 659.751,442.177 659.281,441.955 658.834,441.688 658.416,441.378 658.033,441.03"
         fill="none"
         stroke="#000000"
         stroke-width="0.1mm"
         id="polyline5-38"
         style="vector-effect:non-scaling-stroke;stroke-width:0.264583;stroke-dasharray:none;-inkscape-stroke:hairline"
         transform="matrix(0,-1.0051931,1.0051931,0,691.18699,782.80498)" /><polyline
         z="0"
         points="589.095,504.931 588.587,504.907 588.082,504.833 587.585,504.711 587.103,504.542 586.641,504.328 586.202,504.07 571.458,494.446 574.301,490.092 562.869,482.629 560.026,486.984 548.26,479.303 551.103,474.949 539.671,467.486 536.828,471.841 525.1,464.185 525.1,456.931 530.3,456.931 530.3,450.031 525.1,450.031 525.1,442.731 530.3,442.731 530.3,435.831 525.1,435.831 525.1,428.531 550.04,428.531 550.04,423.331 575.18,423.331 575.18,428.531 599.92,428.531 599.92,423.331 615.884,423.331 601.761,409.208 603.802,404.281 611.96,404.281 611.96,409.481 619.751,409.481 619.751,404.281 627.941,404.281 627.941,409.481 635.732,409.481 635.732,404.281 643.923,404.281 643.923,409.481 650,409.481 650,410.831 644.8,410.831 644.8,416.981 650,416.981 650,423.531 625.06,423.531 625.06,428.531 650,428.531 650,430.804 649.975,431.322 649.898,431.837 649.772,432.341 649.596,432.83 649.374,433.3 649.107,433.747 648.797,434.165 648.449,434.548 641.967,441.03 641.584,441.378 641.166,441.688 640.719,441.955 640.249,442.177 639.76,442.353 639.256,442.479 638.741,442.556 638.223,442.581 589.706,442.581 589.204,442.606 588.708,442.679 588.223,442.801 587.752,442.97 587.3,443.183 586.871,443.44 586.469,443.738 586.096,444.076 578.669,451.504 575.182,439.356 570.377,440.735 574.857,456.343 579.855,454.908 584.445,470.902 579.447,472.337 583.927,487.944 588.733,486.565 587.38,481.851 597.957,488.756 598.34,489.03 598.697,489.339 599.026,489.678 599.323,490.045 599.586,490.437 599.814,490.851 600.003,491.283 600.153,491.728 602.22,498.932 602.336,499.425 602.405,499.929 602.425,500.439 602.397,500.948 602.318,501.45 602.193,501.944 602.02,502.423 601.802,502.884 601.542,503.321 601.235,503.741 600.81,504.052 600.366,504.314 599.899,504.534 599.413,504.707 598.911,504.831 598.401,504.906 597.888,504.931 589.095,504.931"
         fill="none"
         stroke="#000000"
         stroke-width="0.1mm"
         id="polyline4-0"
         style="vector-effect:non-scaling-stroke;stroke-width:0.264583;stroke-dasharray:none;-inkscape-stroke:hairline"
         transform="matrix(0,-1.0051931,-1.0051931,0,1605.1208,735.03081)" /><polyline
         z="0"
         points="658.033,441.03 651.551,434.548 651.203,434.165 650.893,433.747 650.626,433.3 650.404,432.83 650.228,432.341 650.102,431.837 650.025,431.322 650,430.804 650,428.531 674.94,428.531 674.94,423.531 650,423.531 650,416.981 655.2,416.981 655.2,410.831 650,410.831 650,409.481 656.077,409.481 656.077,404.281 664.268,404.281 664.268,409.481 672.059,409.481 672.059,404.281 680.249,404.281 680.249,409.481 688.04,409.481 688.04,404.281 696.198,404.281 698.239,409.208 684.116,423.331 700.08,423.331 700.08,428.531 724.82,428.531 724.82,423.331 749.96,423.331 749.96,428.531 774.9,428.531 774.9,435.831 769.7,435.831 769.7,442.731 774.9,442.731 774.9,450.031 769.7,450.031 769.7,456.931 774.9,456.931 774.9,464.185 763.172,471.841 760.329,467.486 748.897,474.949 751.74,479.303 739.974,486.984 737.131,482.629 725.699,490.092 728.542,494.446 713.798,504.07 713.359,504.328 712.897,504.542 712.415,504.711 711.918,504.833 711.413,504.907 710.905,504.931 702.112,504.931 701.599,504.906 701.089,504.831 700.587,504.707 700.101,504.534 699.634,504.314 699.19,504.052 698.766,503.741 698.458,503.321 698.198,502.884 697.98,502.423 697.807,501.944 697.682,501.45 697.603,500.948 697.575,500.439 697.595,499.929 697.664,499.425 697.78,498.932 699.847,491.728 699.997,491.283 700.186,490.851 700.414,490.437 700.677,490.045 700.974,489.678 701.303,489.339 701.66,489.03 702.043,488.756 712.62,481.851 711.267,486.565 716.073,487.944 720.553,472.337 715.555,470.902 720.145,454.908 725.143,456.343 729.623,440.735 724.818,439.356 721.331,451.504 713.904,444.076 713.531,443.738 713.129,443.44 712.7,443.183 712.248,442.97 711.777,442.801 711.292,442.679 710.796,442.606 710.294,442.581 661.777,442.581 661.259,442.556 660.744,442.479 660.24,442.353 659.751,442.177 659.281,441.955 658.834,441.688 658.416,441.378 658.033,441.03"
         fill="none"
         stroke="#000000"
         stroke-width="0.1mm"
         id="polyline5-1"
         style="vector-effect:non-scaling-stroke;stroke-width:0.264583;stroke-dasharray:none;-inkscape-stroke:hairline"
         transform="matrix(0,1.0051931,1.0051931,0,691.18699,-368.34491)" /><polyline
         z="0"
         points="589.095,504.931 588.587,504.907 588.082,504.833 587.585,504.711 587.103,504.542 586.641,504.328 586.202,504.07 571.458,494.446 574.301,490.092 562.869,482.629 560.026,486.984 548.26,479.303 551.103,474.949 539.671,467.486 536.828,471.841 525.1,464.185 525.1,456.931 530.3,456.931 530.3,450.031 525.1,450.031 525.1,442.731 530.3,442.731 530.3,435.831 525.1,435.831 525.1,428.531 550.04,428.531 550.04,423.331 575.18,423.331 575.18,428.531 599.92,428.531 599.92,423.331 615.884,423.331 601.761,409.208 603.802,404.281 611.96,404.281 611.96,409.481 619.751,409.481 619.751,404.281 627.941,404.281 627.941,409.481 635.732,409.481 635.732,404.281 643.923,404.281 643.923,409.481 650,409.481 650,410.831 644.8,410.831 644.8,416.981 650,416.981 650,423.531 625.06,423.531 625.06,428.531 650,428.531 650,430.804 649.975,431.322 649.898,431.837 649.772,432.341 649.596,432.83 649.374,433.3 649.107,433.747 648.797,434.165 648.449,434.548 641.967,441.03 641.584,441.378 641.166,441.688 640.719,441.955 640.249,442.177 639.76,442.353 639.256,442.479 638.741,442.556 638.223,442.581 589.706,442.581 589.204,442.606 588.708,442.679 588.223,442.801 587.752,442.97 587.3,443.183 586.871,443.44 586.469,443.738 586.096,444.076 578.669,451.504 575.182,439.356 570.377,440.735 574.857,456.343 579.855,454.908 584.445,470.902 579.447,472.337 583.927,487.944 588.733,486.565 587.38,481.851 597.957,488.756 598.34,489.03 598.697,489.339 599.026,489.678 599.323,490.045 599.586,490.437 599.814,490.851 600.003,491.283 600.153,491.728 602.22,498.932 602.336,499.425 602.405,499.929 602.425,500.439 602.397,500.948 602.318,501.45 602.193,501.944 602.02,502.423 601.802,502.884 601.542,503.321 601.235,503.741 600.81,504.052 600.366,504.314 599.899,504.534 599.413,504.707 598.911,504.831 598.401,504.906 597.888,504.931 589.095,504.931"
         fill="none"
         stroke="#000000"
         stroke-width="0.1mm"
         id="polyline4-0-9"
         style="vector-effect:non-scaling-stroke;stroke-width:0.264583;stroke-dasharray:none;-inkscape-stroke:hairline"
         transform="matrix(0,1.0051931,-1.0051931,0,1605.1208,-320.62245)" /><polyline
         z="0"
         points="586.5,592.019 591.7,592.019 591.7,584.919 598.74,584.919 598.74,579.719 611.18,579.719 611.18,584.919 623.22,584.919 623.22,579.719 635.66,579.719 635.66,584.919 642.7,584.919 642.7,592.019 647.9,592.019 647.9,599.319 642.7,599.319 642.7,606.219 647.9,606.219 647.9,613.519 642.7,613.519 642.7,616.265 632.54,616.265 632.54,620.619 622.18,620.619 622.18,616.265 612.22,616.265 612.22,620.619 601.86,620.619 601.86,616.265 591.7,616.265 591.7,613.519 586.5,613.519 586.5,606.219 591.7,606.219 591.7,599.319 586.5,599.319 586.5,592.019"
         fill="none"
         stroke="#000000"
         stroke-width="0.1mm"
         id="polyline3-6"
         style="vector-effect:non-scaling-stroke;stroke-width:0.264583;stroke-dasharray:none;-inkscape-stroke:hairline"
         transform="matrix(-1.0051931,0,0,1.0051931,1648.2407,-53.782801)" /><polyline
         z="0"
         points="586.5,592.019 591.7,592.019 591.7,584.919 598.74,584.919 598.74,579.719 611.18,579.719 611.18,584.919 623.22,584.919 623.22,579.719 635.66,579.719 635.66,584.919 642.7,584.919 642.7,592.019 647.9,592.019 647.9,599.319 642.7,599.319 642.7,606.219 647.9,606.219 647.9,613.519 642.7,613.519 642.7,616.265 632.54,616.265 632.54,620.619 622.18,620.619 622.18,616.265 612.22,616.265 612.22,620.619 601.86,620.619 601.86,616.265 591.7,616.265 591.7,613.519 586.5,613.519 586.5,606.219 591.7,606.219 591.7,599.319 586.5,599.319 586.5,592.019"
         fill="none"
         stroke="#000000"
         stroke-width="0.1mm"
         id="polyline3-4"
         style="vector-effect:non-scaling-stroke;stroke-width:0.264583;stroke-dasharray:none;-inkscape-stroke:hairline"
         transform="matrix(1.0051931,0,0,-1.0051931,345.71152,1201.6662)" /><path
         id="polyline8-9"
         style="vector-effect:non-scaling-stroke;fill:none;stroke:#000000;stroke-width:0.265957;-inkscape-stroke:hairline"
         d="m 1133.6338,457.83187 h 10.0117 v -6.32367 h -10.0117 v 6.32367 m -20.4255,0 h 10.0117 v -6.32367 h -10.0117 v 6.32367 m -15.6408,78.2965 h 12.5046 v -5.227 h 12.1025 v 5.227 h 12.5046 v -5.227 h 12.1025 v 5.227 h 12.5046 v -25.27055 h -5.227 v -24.86848 h 5.227 v -25.27055 h -5.227 v -24.86848 h 5.227 v -25.27055 h -12.5046 v 5.227 h -12.1025 v -5.227 h -12.5046 v 5.227 h -12.1025 v -5.227 h -12.5046 v 25.27055 h 5.227 v 24.86848 h -5.227 v 25.27055 h 5.227 v 24.86848 h -5.227 v 25.27055" /><polyline
         z="0"
         points="593.8,485.787 593.8,474.758 588.6,474.758 588.6,458.119 593.8,458.119 593.8,441.881 588.6,441.881 588.6,425.242 593.8,425.242 593.8,408.803 644.8,408.803 644.8,425.242 650,425.242 650,441.881 644.8,441.881 644.8,458.119 650,458.119 650,474.758 644.8,474.758 644.8,485.787 634.64,485.787 634.64,491.197 624.28,491.197 624.28,485.787 614.32,485.787 614.32,491.197 603.96,491.197 603.96,485.787 593.8,485.787"
         fill="none"
         stroke="#000000"
         stroke-width="0.1mm"
         id="polyline1-04"
         style="vector-effect:non-scaling-stroke;stroke-width:0.264583;stroke-dasharray:none;-inkscape-stroke:hairline"
         transform="matrix(1.0051931,0,0,1.0051931,220.1629,123.75443)" /><polyline
         z="0"
         points="650,479.647 650,473.097 655.2,473.097 655.2,471.947 662.457,471.947 662.457,466.747 669.914,466.747 669.914,471.947 676.971,471.947 676.971,466.747 684.429,466.747 684.429,471.947 691.486,471.947 691.486,466.747 698.943,466.747 698.943,471.947 706.2,471.947 706.2,473.097 711.4,473.097 711.4,479.647 706.2,479.647 706.2,485.997 699.16,485.997 699.16,491.197 686.72,491.197 686.72,485.997 674.68,485.997 674.68,491.197 662.24,491.197 662.24,485.997 655.2,485.997 655.2,479.647 650,479.647"
         fill="none"
         stroke="#000000"
         stroke-width="0.1mm"
         id="polyline2-6-8"
         style="vector-effect:non-scaling-stroke;stroke-width:0.264583;stroke-dasharray:none;-inkscape-stroke:hairline"
         transform="matrix(1.0051931,0,0,1.0051931,343.60059,125.46512)" /><polyline
         z="0"
         points="593.8,485.787 593.8,474.758 588.6,474.758 588.6,458.119 593.8,458.119 593.8,441.881 588.6,441.881 588.6,425.242 593.8,425.242 593.8,408.803 644.8,408.803 644.8,425.242 650,425.242 650,441.881 644.8,441.881 644.8,458.119 650,458.119 650,474.758 644.8,474.758 644.8,485.787 634.64,485.787 634.64,491.197 624.28,491.197 624.28,485.787 614.32,485.787 614.32,491.197 603.96,491.197 603.96,485.787 593.8,485.787"
         fill="none"
         stroke="#000000"
         stroke-width="0.1mm"
         id="polyline1-2-7"
         style="vector-effect:non-scaling-stroke;stroke-width:0.264583;stroke-dasharray:none;-inkscape-stroke:hairline"
         transform="matrix(1.0051931,0,0,1.0051931,281.88176,123.75443)" /><polyline
         z="0"
         points="650,479.647 650,473.097 655.2,473.097 655.2,471.947 662.457,471.947 662.457,466.747 669.914,466.747 669.914,471.947 676.971,471.947 676.971,466.747 684.429,466.747 684.429,471.947 691.486,471.947 691.486,466.747 698.943,466.747 698.943,471.947 706.2,471.947 706.2,473.097 711.4,473.097 711.4,479.647 706.2,479.647 706.2,485.997 699.16,485.997 699.16,491.197 686.72,491.197 686.72,485.997 674.68,485.997 674.68,491.197 662.24,491.197 662.24,485.997 655.2,485.997 655.2,479.647 650,479.647"
         fill="none"
         stroke="#000000"
         stroke-width="0.1mm"
         id="polyline2-67"
         style="vector-effect:non-scaling-stroke;stroke-width:0.264583;stroke-dasharray:none;-inkscape-stroke:hairline"
         transform="matrix(-1.0051931,0,0,-1.0051931,1712.0705,1063.807)" /><path
         style="vector-effect:non-scaling-stroke;fill:none;stroke:#ff0000;stroke-width:0.265957;-inkscape-stroke:hairline"
         d="m 1118.7109,769.09753 -0.01,22.3915 81.2936,-10e-6 V 0 h -104.144"
         id="path24"
         sodipodi:nodetypes="ccccc" /></g></g></svg>
