Cleat Wall Organization Equipment
Copyright (C) 2025  Corporate Hacks

This program is free software: you can redistribute it and/or modify
it under the terms of the GNU General Public License as published by
the Free Software Foundation, either version 3 of the License, or
(at your option) any later version.

This program is distributed in the hope that it will be useful,
but WITHOUT ANY WARRANTY; without even the implied warranty of
MERCHANTABILITY or FITNESS FOR A PARTICULAR PURPOSE.  See the
GNU General Public License for more details.

You should have received a copy of the GNU General Public License
along with this program.  If not, see <http://www.gnu.org/licenses/>.


<svg xmlns="http://www.w3.org/2000/svg" xml:space="preserve" width="47in" height="31in" viewBox="0 0 1199.999 791.489">
    <path fill="none" stroke="#000" stroke-width=".1mm" d="M334.5 607.217v-13.13h5.2v-12.73h-5.2v-13.13h5.2v-12.73h-5.2v-13.13h16.431v-5.2h16.631v5.2h16.23v-5.2h16.631v5.2h16.231v-5.2h16.631v5.2h16.23v-5.2h16.631v5.2h16.231v-5.2h16.631v5.2h16.23v-5.2h16.631v5.2H548.3v13.13h-5.2v12.73h5.2v13.13h-5.2v12.73h5.2v13.13h-16.631v-5.2h-16.231v5.2h-16.63v-5.2h-16.231v5.2h-16.631v-5.2h-16.231v5.2h-16.63v-5.2h-16.231v5.2h-16.631v-5.2h-16.231v5.2h-16.63v-5.2h-16.231v5.2H334.5" style="vector-effect:non-scaling-stroke;fill:none;stroke:#000;stroke-width:.264583;stroke-dasharray:none;stroke-opacity:1;-inkscape-stroke:hairline" transform="matrix(0 1.0052 1.0052 0 -389.083 -117.445)"/>
    <path d="M1915.761 346.776v16.717h5.227v16.315h-5.227v16.717h5.227v16.315h-5.227v16.717h5.227v16.316h-5.227v16.716h5.227v16.315h-5.227v16.718h5.227v16.315h-5.227v16.716h5.227v16.316h-5.227v16.717h12.71v-5.227h12.308v5.227h12.71v-5.227h12.309v5.227h12.71v-5.227h12.308v5.227h12.71v-5.227h12.308v5.227h12.71V544.97h-5.227v-16.316h5.227v-16.716h-5.227v-16.315h5.227v-16.718h-5.227V462.59h5.227v-16.716h-5.227v-16.316h5.227V412.84h-5.227v-16.315h5.227v-16.717h-5.227v-16.315h5.227v-16.717h-12.71v5.227h-12.309v-5.227h-12.709v5.227h-12.309v-5.227h-12.709v5.227h-12.309v-5.227h-12.71v5.227h-12.308v-5.227zm21.578 70.028h15.95v5.027h-15.95zm53.678 0h15.948v5.027h-15.948zm-53.678 69.827h15.95v5.026h-15.95zm53.678 0h15.948v5.026h-15.948zM1938.36 605.108l-108.091 35.068h5.762v9.851h-5.227v10.253h5.227v10.052h7.282v5.227h12.71v-5.227h12.308v5.227h12.71v-5.227h3.64v-14.115h5.027v14.115h3.64v5.227h12.711v-5.227h12.308v5.227h12.71v-5.227h7.282v-12.997h5.227v-13.198h-5.227v-12.796h5.026v5.862l14.397 14.396 5.357-2.22h-5.63v-14.543h5.226V619.89h-5.227v-14.746h-14.123v12.997h-5.026zm-53.678 22.88h5.026v13.914h-5.026zM1711.25 561.686v5.227h-7.282v10.052h-5.227v10.253h5.227v9.85h-5.762l108.091 35.07v-13.035h5.026V632.1h14.123v-14.745h5.227V602.41h-5.227v-14.545h5.63l-5.357-2.219-14.396 14.397v5.861h-5.026v-12.796h5.227V579.91h-5.227v-12.997h-7.281v-5.227h-12.711v5.227h-12.308v-5.227h-12.71v5.227h-3.641v14.115h-5.027v-14.115h-3.64v-5.227h-12.71v5.227h-12.309v-5.227zm41.37 33.657h5.026v13.914h-5.026z" style="vector-effect:non-scaling-stroke;fill:none;stroke:#000;stroke-width:.265957;stroke-dasharray:none;stroke-opacity:1;-inkscape-stroke:hairline" transform="translate(-1694.474 -127.984)"/>
    <path fill="none" stroke="#000" stroke-width=".1mm" d="M553.5 435.367h59.688l-15.703 48.4h-22.722v5h21.1l-15.703 48.4H553.5V521.1h-5.2v-16.266h5.2V467.7h-5.2v-16.266h5.2v-16.067" style="vector-effect:non-scaling-stroke;fill:none;stroke:#000;stroke-width:.264583;stroke-dasharray:none;stroke-opacity:1;-inkscape-stroke:hairline" transform="matrix(0 1.0052 -1.0052 0 646.018 -3.572)"/>
    <path fill="none" stroke="#000" stroke-width=".1mm" d="M613.188 435.367h59.687v16.067h5.2V467.7h-5.2v37.134h5.2V521.1h-5.2v16.067h-26.66l-15.702-48.4h21.099v-5H628.89l-15.702-48.4" style="vector-effect:non-scaling-stroke;fill:none;stroke:#000;stroke-width:.264583;stroke-dasharray:none;stroke-opacity:1;-inkscape-stroke:hairline" transform="matrix(0 1.0052 -1.0052 0 543.69 -36.772)"/>
    <path d="m1722.986 605.109 108.09 35.068h-5.761v9.85h5.227v10.254h-5.227v10.052h-7.282v5.226h-12.71v-5.226h-12.308v5.226h-12.71v-5.226h-3.641v-14.115h-5.026v14.115h-3.641v5.226h-12.71v-5.226h-12.308v5.226h-12.711v-5.226h-7.282v-12.997h-5.227v-13.199h5.227v-12.796h-5.026v5.862l-14.396 14.397-5.358-2.22h5.631v-14.544h-5.227v-14.945h5.227v-14.745h14.123v12.997h5.026zm53.678 22.88h-5.026v13.914h5.026zM1950.095 561.686v5.227h7.282v10.052h5.227v10.253h-5.227v9.85h5.762l-108.09 35.07v-13.035h-5.026V632.1H1835.9v-14.745h-5.227V602.41h5.227v-14.545h-5.631l5.357-2.219 14.397 14.397v5.861h5.025v-12.796h-5.226V579.91h5.226v-12.997h7.282v-5.227h12.71v5.227h12.309v-5.227h12.71v5.227h3.64v14.115h5.027v-14.115h3.64v-5.227h12.711v5.227h12.308v-5.227zm-41.369 33.657h-5.026v13.914h5.026z" style="vector-effect:non-scaling-stroke;fill:none;stroke:#000;stroke-width:.265957;stroke-dasharray:none;stroke-opacity:1;-inkscape-stroke:hairline" transform="translate(-1694.474 -127.984)"/>
    <path fill="none" stroke="#000" stroke-width=".1mm" d="M553.5 435.367h59.688l-15.703 48.4h-22.722v5h21.1l-15.703 48.4H553.5V521.1h-5.2v-16.266h5.2V467.7h-5.2v-16.266h5.2v-16.067" style="vector-effect:non-scaling-stroke;fill:none;stroke:#000;stroke-width:.264583;stroke-dasharray:none;stroke-opacity:1;-inkscape-stroke:hairline" transform="matrix(0 1.0052 1.0052 0 -433.895 -3.572)"/>
    <path fill="none" stroke="#000" stroke-width=".1mm" d="M613.188 435.367h59.687v16.067h5.2V467.7h-5.2v37.134h5.2V521.1h-5.2v16.067h-26.66l-15.702-48.4h21.099v-5H628.89l-15.702-48.4" style="vector-effect:non-scaling-stroke;fill:none;stroke:#000;stroke-width:.264583;stroke-dasharray:none;stroke-opacity:1;-inkscape-stroke:hairline" transform="matrix(0 1.0052 1.0052 0 -331.566 -36.772)"/>
    <path fill="none" stroke="#000" stroke-width=".1mm" d="M678.075 462.761h16.431v-5.2h16.631v5.2h16.23v-5.2h16.631v5.2h16.231v-5.2h16.631v5.2h16.23v-5.2h16.631v5.2h16.231v-5.2h16.631v5.2h16.23v-5.2h16.631v5.2h16.431v10.2h-5.2v9.8h5.2v10.2h-213.8v-10.2h5.2v-9.8h-5.2v-10.2" style="vector-effect:non-scaling-stroke;fill:none;stroke:#000;stroke-width:.264583;stroke-dasharray:none;stroke-opacity:1;-inkscape-stroke:hairline" transform="matrix(0 1.0052 -1.0052 0 586.234 -462.805)"/>
    <path fill="none" stroke="#000" stroke-width=".1mm" d="M678.075 492.961h213.8v14.869h-5.2v14.468h5.2v14.869h-16.631v-5.2h-16.231v5.2h-16.63v-5.2h-16.231v5.2h-16.631v-5.2H793.29v5.2h-16.63v-5.2h-16.231v5.2h-16.631v-5.2h-16.231v5.2h-16.63v-5.2h-16.231v5.2h-16.631v-14.869h5.2V507.83h-5.2v-14.869" style="vector-effect:non-scaling-stroke;fill:none;stroke:#000;stroke-width:.264583;stroke-dasharray:none;stroke-opacity:1;-inkscape-stroke:hairline" transform="matrix(0 1.0052 -1.0052 0 543.69 -462.805)"/>
    <path fill="none" stroke="#000" stroke-width=".1mm" d="M687.433 564.892v21.063h5v-21.063H762.1v14.242h-5.2v13.842h5.2v14.241H548.3v-14.241h5.2v-13.842h-5.2v-14.242h69.667v21.063h5v-21.063h64.466" style="vector-effect:non-scaling-stroke;fill:none;stroke:#000;stroke-width:.264583;stroke-dasharray:none;stroke-opacity:1;-inkscape-stroke:hairline" transform="matrix(0 1.0052 -1.0052 0 658.539 -332.356)"/>
    <path fill="none" stroke="#000" stroke-width=".1mm" d="M762.1 587.967h11.231v-5.2h16.631v5.2h16.23v-5.2h16.631v5.2h16.231v-5.2h16.631v5.2h16.23v-5.2h16.631v5.2h16.231v-5.2h16.631v5.2h16.23v-5.2h16.631v5.2H965.5v14.05h-11.231v5.2h-16.631v-5.2h-16.23v5.2h-16.631v-5.2h-16.231v5.2h-16.631v-5.2h-16.23v5.2h-16.631v-5.2h-16.231v5.2h-16.631v-5.2h-16.23v5.2h-16.631v-5.2H762.1v-14.05" style="vector-effect:non-scaling-stroke;fill:none;stroke:#000;stroke-width:.264583;stroke-dasharray:none;stroke-opacity:1;-inkscape-stroke:hairline" transform="matrix(0 1.0052 -1.0052 0 736.667 -542.039)"/>
    <path fill="none" stroke="#000" stroke-width=".1mm" d="M334.5 607.217v-13.13h5.2v-12.73h-5.2v-13.13h5.2v-12.73h-5.2v-13.13h16.431v-5.2h16.631v5.2h16.23v-5.2h16.631v5.2h16.231v-5.2h16.631v5.2h16.23v-5.2h16.631v5.2h16.231v-5.2h16.631v5.2h16.23v-5.2h16.631v5.2H548.3v13.13h-5.2v12.73h5.2v13.13h-5.2v12.73h5.2v13.13h-16.631v-5.2h-16.231v5.2h-16.63v-5.2h-16.231v5.2h-16.631v-5.2h-16.231v5.2h-16.63v-5.2h-16.231v5.2h-16.631v-5.2h-16.231v5.2h-16.63v-5.2h-16.231v5.2H334.5" style="vector-effect:non-scaling-stroke;fill:none;stroke:#000;stroke-width:.264583;stroke-dasharray:none;stroke-opacity:1;-inkscape-stroke:hairline" transform="matrix(0 1.0052 1.0052 0 -389.083 -332.356)"/>
    <path d="M1915.761 131.865v16.717h5.227v16.316h-5.227v16.716h5.227v16.315h-5.227v16.718h5.227v16.315h-5.227v16.716h5.227v16.316h-5.227v16.717h5.227v16.315h-5.227v16.717h5.227v16.315h-5.227v16.718h12.71v-5.228h12.308v5.228h12.71v-5.228h12.309v5.228h12.71v-5.228h12.308v5.228h12.71v-5.228h12.308v5.228h12.71v-16.718h-5.227v-16.315h5.227v-16.717h-5.227v-16.315h5.227v-16.717h-5.227v-16.316h5.227v-16.716h-5.227v-16.315h5.227v-16.718h-5.227v-16.315h5.227v-16.716h-5.227v-16.316h5.227v-16.717h-12.71v5.227h-12.309v-5.227h-12.709v5.227h-12.309v-5.227h-12.709v5.227h-12.309v-5.227h-12.71v5.227h-12.308v-5.227zm21.578 70.029h15.95v5.026h-15.95zm53.678 0h15.948v5.026h-15.948zm-53.678 69.827h15.95v5.026h-15.95zm53.678 0h15.948v5.026h-15.948z" style="vector-effect:non-scaling-stroke;fill:none;stroke:#000;stroke-width:.265957;stroke-dasharray:none;stroke-opacity:1;-inkscape-stroke:hairline" transform="translate(-1694.474 -127.984)"/>
    <path fill="none" stroke="#000" stroke-width=".1mm" d="M678.075 462.761h16.431v-5.2h16.631v5.2h16.23v-5.2h16.631v5.2h16.231v-5.2h16.631v5.2h16.23v-5.2h16.631v5.2h16.231v-5.2h16.631v5.2h16.23v-5.2h16.631v5.2h16.431v10.2h-5.2v9.8h5.2v10.2h-213.8v-10.2h5.2v-9.8h-5.2v-10.2" style="vector-effect:non-scaling-stroke;fill:none;stroke:#000;stroke-width:.264583;stroke-dasharray:none;stroke-opacity:1;-inkscape-stroke:hairline" transform="matrix(0 1.0052 -1.0052 0 586.234 -677.715)"/>
    <path fill="none" stroke="#000" stroke-width=".1mm" d="M678.075 492.961h213.8v14.869h-5.2v14.468h5.2v14.869h-16.631v-5.2h-16.231v5.2h-16.63v-5.2h-16.231v5.2h-16.631v-5.2H793.29v5.2h-16.63v-5.2h-16.231v5.2h-16.631v-5.2h-16.231v5.2h-16.63v-5.2h-16.231v5.2h-16.631v-14.869h5.2V507.83h-5.2v-14.869" style="vector-effect:non-scaling-stroke;fill:none;stroke:#000;stroke-width:.264583;stroke-dasharray:none;stroke-opacity:1;-inkscape-stroke:hairline" transform="matrix(0 1.0052 -1.0052 0 543.69 -677.715)"/>
    <path fill="none" stroke="#000" stroke-width=".1mm" d="M687.433 564.892v21.063h5v-21.063H762.1v14.242h-5.2v13.842h5.2v14.241H548.3v-14.241h5.2v-13.842h-5.2v-14.242h69.667v21.063h5v-21.063h64.466" style="vector-effect:non-scaling-stroke;fill:none;stroke:#000;stroke-width:.264583;stroke-dasharray:none;stroke-opacity:1;-inkscape-stroke:hairline" transform="matrix(0 1.0052 -1.0052 0 658.539 -547.266)"/>
    <path fill="none" stroke="#000" stroke-width=".1mm" d="M762.1 587.967h11.231v-5.2h16.631v5.2h16.23v-5.2h16.631v5.2h16.231v-5.2h16.631v5.2h16.23v-5.2h16.631v5.2h16.231v-5.2h16.631v5.2h16.23v-5.2h16.631v5.2H965.5v14.05h-11.231v5.2h-16.631v-5.2h-16.23v5.2h-16.631v-5.2h-16.231v5.2h-16.631v-5.2h-16.23v5.2h-16.631v-5.2h-16.231v5.2h-16.631v-5.2h-16.23v5.2h-16.631v-5.2H762.1v-14.05" style="vector-effect:non-scaling-stroke;fill:none;stroke:#000;stroke-width:.264583;stroke-dasharray:none;stroke-opacity:1;-inkscape-stroke:hairline" transform="matrix(0 1.0052 -1.0052 0 736.667 -756.95)"/>
    <path fill="none" stroke="#000" stroke-width=".1mm" d="M473.9 575v-75.25h11.31v5.2h10.911v-5.2h11.277l2.041 4.927L495.116 519h-1.156v5h19.66v-5.2h20.06v5.2h19.66v-5.2h14.86v18.667h5.2v18.866h-5.2V575h-14.86v-5.2h-19.66v5.2h-20.06v-5.2h-19.66v5.2H473.9" style="vector-effect:non-scaling-stroke;stroke-width:.264583;stroke-dasharray:none;-inkscape-stroke:hairline" transform="matrix(0 -1.0052 1.0052 0 513.559 800.999)"/>
    <path d="M1031.32 460.901v19.762h-5.026v-19.762h5.026m51.265-40.127v19.963h5.227V460.9h-5.227v19.762h5.227v20.164h-5.227v19.963h-17.222v-5.227h-16.82v5.227h-17.223v-19.963h-5.026v19.963h-17.222v-5.227h-16.82v5.227h-17.223v-19.963h-5.227v-20.164h5.227v-19.762h-5.227v-20.164h5.227v-19.963h51.265v19.963h5.026v-19.963h51.265" style="vector-effect:non-scaling-stroke;fill:none;stroke:#000;stroke-width:.265957;-inkscape-stroke:hairline" transform="translate(3.733 3.88)"/>
    <path fill="none" stroke="#000" stroke-width=".1mm" d="M533.68 400.25h-20.06v-5.2h-19.66v5.2H479.1v-18.667h-5.2v-18.866h5.2V344.05h14.86v5.2h19.66v-5.2h20.06v5.2h19.66v-5h-1.156l-14.323-14.323 2.041-4.927h11.277v5.2h10.911V325h11.31v75.25h-20.06v-5.2h-19.66v5.2" style="vector-effect:non-scaling-stroke;stroke-width:.264583;stroke-dasharray:none;-inkscape-stroke:hairline" transform="matrix(0 -1.0052 1.0052 0 689.216 700.982)"/>
    <path fill="none" stroke="#000" stroke-width=".1mm" d="M473.9 575v-75.25h11.31v5.2h10.911v-5.2h11.277l2.041 4.927L495.116 519h-1.156v5h19.66v-5.2h20.06v5.2h19.66v-5.2h14.86v18.667h5.2v18.866h-5.2V575h-14.86v-5.2h-19.66v5.2h-20.06v-5.2h-19.66v5.2H473.9" style="vector-effect:non-scaling-stroke;stroke-width:.264583;stroke-dasharray:none;-inkscape-stroke:hairline" transform="matrix(0 1.0052 -1.0052 0 1537.398 -251.74)"/>
    <path fill="none" stroke="#000" stroke-width=".1mm" d="M533.68 400.25h-20.06v-5.2h-19.66v5.2H479.1v-18.667h-5.2v-18.866h5.2V344.05h14.86v5.2h19.66v-5.2h20.06v5.2h19.66v-5h-1.156l-14.323-14.323 2.041-4.927h11.277v5.2h10.911V325h11.31v75.25h-20.06v-5.2h-19.66v5.2" style="vector-effect:non-scaling-stroke;stroke-width:.264583;stroke-dasharray:none;-inkscape-stroke:hairline" transform="matrix(0 1.0052 -1.0052 0 1361.74 -351.756)"/>
    <path d="M913.31 480.663h-5.025v-19.762h5.025v19.762m56.492 20.164h-5.227v19.963h-17.222v-5.227h-16.82v5.227H913.31v-19.963h-5.025v19.963h-17.222v-5.227h-16.821v5.227H857.02v-19.963h-5.227v-20.164h5.227v-19.762h-5.227v-20.164h5.227v-19.963h51.264v19.963h5.026v-19.963h51.265v19.963h5.227V460.9h-5.227v19.762h5.227v20.164M1031.32 380.646v-19.762h-5.026v19.762h5.026m51.265 40.128V400.81h5.227v-20.165h-5.227v-19.762h5.227V340.72h-5.227v-19.963h-17.222v5.227h-16.82v-5.227h-17.223v19.963h-5.026v-19.963h-17.222v5.227h-16.82v-5.227h-17.223v19.963h-5.227v20.164h5.227v19.762h-5.227v20.165h5.227v19.963h51.265V400.81h5.026v19.963h51.265" style="vector-effect:non-scaling-stroke;fill:none;stroke:#000;stroke-width:.265957;-inkscape-stroke:hairline" transform="translate(3.733 3.88)"/>
    <path d="M913.31 360.884h-5.025v19.762h5.025v-19.762m56.492-20.164h-5.227v-19.963h-17.222v5.227h-16.82v-5.227H913.31v19.963h-5.025v-19.963h-17.222v5.227h-16.821v-5.227H857.02v19.963h-5.227v20.164h5.227v19.762h-5.227v20.165h5.227v19.963h51.264V400.81h5.026v19.963h51.265V400.81h5.227v-20.165h-5.227v-19.762h5.227V340.72M1068.847 64.232v-5.026h-18.562v5.026h18.562m18.965 56.492v-5.428h-5.227v-16.82h5.227V81.253h-5.227v-16.82h5.227v-5.428h-5.227v-16.82h5.227V24.962h-5.227V8.142h5.227V2.714h-18.965v5.227h-18.562V2.714h-18.965v5.428h5.227v16.82h-5.227v17.223h5.227v16.82h-5.227v5.428h5.227v16.82h-5.227v17.223h5.227v16.82h-5.227v5.428h18.965v-5.227h18.562v5.227h18.965" style="vector-effect:non-scaling-stroke;fill:none;stroke:#000;stroke-width:.265957;-inkscape-stroke:hairline" transform="translate(3.733 3.88)"/>
    <path fill="none" stroke="#000" stroke-width=".1mm" d="M785.1 541.47v11.11h5.2v11.31h-5.2V575h-107v-11.11h-5.2v-11.31h5.2v-11.11h107" style="vector-effect:non-scaling-stroke;stroke-width:.264583;stroke-dasharray:none;-inkscape-stroke:hairline" transform="matrix(0 -1.0052 -1.0052 0 1489.139 798.285)"/>
    <path fill="none" stroke="#000" stroke-width=".1mm" d="M672.9 537.467v18.866h-5.2V575h-14.86v-5.2h-19.66v5.2h-20.06v-5.2h-19.66v5.2H573.4v-56.2h20.06v5.2h19.66v-5.2h20.06v5.2h19.66v-5.2h14.86v18.667h5.2" style="vector-effect:non-scaling-stroke;stroke-width:.264583;stroke-dasharray:none;-inkscape-stroke:hairline" transform="matrix(0 -1.0052 1.0052 0 381.426 800.999)"/>
    <path d="M1012.355 64.232v-5.026h-18.562v5.026h18.562m18.965 56.492v-5.428h-5.227v-16.82h5.227V81.253h-5.227v-16.82h5.227v-5.428h-5.227v-16.82h5.227V24.962h-5.227V8.142h5.227V2.714h-18.965v5.227h-18.562V2.714h-18.965v5.428h5.227v16.82h-5.227v17.223h5.227v16.82h-5.227v5.428h5.227v16.82h-5.227v17.223h5.227v16.82h-5.227v5.428h18.965v-5.227h18.562v5.227h18.965" style="vector-effect:non-scaling-stroke;fill:none;stroke:#000;stroke-width:.265957;-inkscape-stroke:hairline" transform="translate(3.733 3.88)"/>
    <path fill="none" stroke="#000" stroke-width=".1mm" d="M785.1 541.47v11.11h5.2v11.31h-5.2V575h-107v-11.11h-5.2v-11.31h5.2v-11.11h107" style="vector-effect:non-scaling-stroke;stroke-width:.264583;stroke-dasharray:none;-inkscape-stroke:hairline" transform="matrix(0 -1.0052 -1.0052 0 1522.843 798.285)"/>
    <path fill="none" stroke="#000" stroke-width=".1mm" d="M672.9 537.467v18.866h-5.2V575h-14.86v-5.2h-19.66v5.2h-20.06v-5.2h-19.66v5.2H573.4v-56.2h20.06v5.2h19.66v-5.2h20.06v5.2h19.66v-5.2h14.86v18.667h5.2" style="vector-effect:non-scaling-stroke;stroke-width:.264583;stroke-dasharray:none;-inkscape-stroke:hairline" transform="matrix(0 1.0052 -1.0052 0 1480.906 -351.756)"/>
    <path fill="none" stroke="#000" stroke-width=".1mm" d="M473.9 575v-75.25h11.31v5.2h10.911v-5.2h11.277l2.041 4.927L495.116 519h-1.156v5h19.66v-5.2h20.06v5.2h19.66v-5.2h14.86v18.667h5.2v18.866h-5.2V575h-14.86v-5.2h-19.66v5.2h-20.06v-5.2h-19.66v5.2H473.9" style="vector-effect:non-scaling-stroke;stroke-width:.264583;stroke-dasharray:none;-inkscape-stroke:hairline" transform="matrix(0 1.0052 -1.0052 0 1244.305 -272.447)"/>
    <path d="M719.078 59.89V40.126h5.026V59.89h-5.026m-51.264 40.128V80.054h-5.227V59.889h5.227V40.127h-5.227V19.963h5.227V0h17.221v5.227h16.821V0h17.222v19.963h5.026V0h17.222v5.227h16.821V0h17.222v19.963h5.227v20.164h-5.227V59.89h5.227v20.165h-5.227v19.963h-51.265V80.054h-5.026v19.963h-51.264" style="vector-effect:non-scaling-stroke;fill:none;stroke:#000;stroke-width:.265957;-inkscape-stroke:hairline" transform="translate(3.733 3.88)"/>
    <path fill="none" stroke="#000" stroke-width=".1mm" d="M533.68 400.25h-20.06v-5.2h-19.66v5.2H479.1v-18.667h-5.2v-18.866h5.2V344.05h14.86v5.2h19.66v-5.2h20.06v5.2h19.66v-5h-1.156l-14.323-14.323 2.041-4.927h11.277v5.2h10.911V325h11.31v75.25h-20.06v-5.2h-19.66v5.2" style="vector-effect:non-scaling-stroke;stroke-width:.264583;stroke-dasharray:none;-inkscape-stroke:hairline" transform="matrix(0 1.0052 -1.0052 0 1068.648 -172.43)"/>
    <path fill="none" stroke="#000" stroke-width=".1mm" d="M473.9 575v-75.25h11.31v5.2h10.911v-5.2h11.277l2.041 4.927L495.116 519h-1.156v5h19.66v-5.2h20.06v5.2h19.66v-5.2h14.86v18.667h5.2v18.866h-5.2V575h-14.86v-5.2h-19.66v5.2h-20.06v-5.2h-19.66v5.2H473.9" style="vector-effect:non-scaling-stroke;stroke-width:.264583;stroke-dasharray:none;-inkscape-stroke:hairline" transform="matrix(0 -1.0052 1.0052 0 220.466 780.292)"/>
    <path fill="none" stroke="#000" stroke-width=".1mm" d="M533.68 400.25h-20.06v-5.2h-19.66v5.2H479.1v-18.667h-5.2v-18.866h5.2V344.05h14.86v5.2h19.66v-5.2h20.06v5.2h19.66v-5h-1.156l-14.323-14.323 2.041-4.927h11.277v5.2h10.911V325h11.31v75.25h-20.06v-5.2h-19.66v5.2" style="vector-effect:non-scaling-stroke;stroke-width:.264583;stroke-dasharray:none;-inkscape-stroke:hairline" transform="matrix(0 -1.0052 1.0052 0 396.123 880.309)"/>
    <path d="M837.088 40.127h5.026V59.89h-5.026V40.127m-56.492-20.164h5.227V0h17.222v5.227h16.821V0h17.222v19.963h5.026V0h17.222v5.227h16.82V0h17.223v19.963h5.227v20.164h-5.227V59.89h5.227v20.165h-5.227v19.963h-51.265V80.054h-5.026v19.963h-51.265V80.054h-5.227V59.889h5.227V40.127h-5.227V19.963M719.078 140.144v19.762h5.026v-19.762h-5.026m-51.264-40.127v19.963h-5.227v20.164h5.227v19.762h-5.227v20.164h5.227v19.963h17.221v-5.227h16.821v5.227h17.222V180.07h5.026v19.963h17.222v-5.227h16.821v5.227h17.222V180.07h5.227v-20.164h-5.227v-19.762h5.227V119.98h-5.227v-19.963h-51.265v19.963h-5.026v-19.963h-51.264" style="vector-effect:non-scaling-stroke;fill:none;stroke:#000;stroke-width:.265957;-inkscape-stroke:hairline" transform="translate(3.733 3.88)"/>
    <path d="M837.088 159.906h5.026v-19.762h-5.026v19.762m-56.492 20.164h5.227v19.963h17.222v-5.227h16.821v5.227h17.222V180.07h5.026v19.963h17.222v-5.227h16.82v5.227h17.223V180.07h5.227v-20.164h-5.227v-19.762h5.227V119.98h-5.227v-19.963h-51.265v19.963h-5.026v-19.963h-51.265v19.963h-5.227v20.164h5.227v19.762h-5.227v20.164M681.551 456.559v5.026h18.562v-5.026h-18.562m-18.965-56.492v5.428h5.227v16.82h-5.227v17.223h5.227v16.82h-5.227v5.428h5.227v16.82h-5.227v17.223h5.227v16.82h-5.227v5.427h18.965v-5.227h18.562v5.227h18.965v-5.428h-5.227v-16.82h5.227v-17.222h-5.227v-16.82h5.227v-5.428h-5.227v-16.82h5.227v-17.223h-5.227v-16.82h5.227v-5.428h-18.965v5.227h-18.562v-5.227h-18.965" style="vector-effect:non-scaling-stroke;fill:none;stroke:#000;stroke-width:.265957;-inkscape-stroke:hairline" transform="translate(3.733 3.88)"/>
    <path fill="none" stroke="#000" stroke-width=".1mm" d="M785.1 541.47v11.11h5.2v11.31h-5.2V575h-107v-11.11h-5.2v-11.31h5.2v-11.11h107" style="vector-effect:non-scaling-stroke;stroke-width:.264583;stroke-dasharray:none;-inkscape-stroke:hairline" transform="matrix(0 1.0052 1.0052 0 268.725 -269.733)"/>
    <path fill="none" stroke="#000" stroke-width=".1mm" d="M672.9 537.467v18.866h-5.2V575h-14.86v-5.2h-19.66v5.2h-20.06v-5.2h-19.66v5.2H573.4v-56.2h20.06v5.2h19.66v-5.2h20.06v5.2h19.66v-5.2h14.86v18.667h5.2" style="vector-effect:non-scaling-stroke;stroke-width:.264583;stroke-dasharray:none;-inkscape-stroke:hairline" transform="matrix(0 1.0052 -1.0052 0 1376.438 -272.447)"/>
    <path d="M738.043 456.559v5.026h18.562v-5.026h-18.562m-18.965-56.492v5.428h5.227v16.82h-5.227v17.223h5.227v16.82h-5.227v5.428h5.227v16.82h-5.227v17.223h5.227v16.82h-5.227v5.427h18.965v-5.227h18.562v5.227h18.965v-5.428h-5.227v-16.82h5.227v-17.222h-5.227v-16.82h5.227v-5.428h-5.227v-16.82h5.227v-17.223h-5.227v-16.82h5.227v-5.428h-18.965v5.227h-18.562v-5.227h-18.965" style="vector-effect:non-scaling-stroke;fill:none;stroke:#000;stroke-width:.265957;-inkscape-stroke:hairline" transform="translate(3.733 3.88)"/>
    <path fill="none" stroke="#000" stroke-width=".1mm" d="M785.1 541.47v11.11h5.2v11.31h-5.2V575h-107v-11.11h-5.2v-11.31h5.2v-11.11h107" style="vector-effect:non-scaling-stroke;stroke-width:.264583;stroke-dasharray:none;-inkscape-stroke:hairline" transform="matrix(0 1.0052 1.0052 0 235.021 -269.733)"/>
    <path fill="none" stroke="#000" stroke-width=".1mm" d="M672.9 537.467v18.866h-5.2V575h-14.86v-5.2h-19.66v5.2h-20.06v-5.2h-19.66v5.2H573.4v-56.2h20.06v5.2h19.66v-5.2h20.06v5.2h19.66v-5.2h14.86v18.667h5.2" style="vector-effect:non-scaling-stroke;stroke-width:.264583;stroke-dasharray:none;-inkscape-stroke:hairline" transform="matrix(0 -1.0052 1.0052 0 276.958 880.309)"/>
    <g fill="none" stroke="#000" stroke-width=".1mm">
        <path d="M404.055 474.451h11.081v-5.2h11.085v5.2h10.686v-5.2h11.086v5.2h10.686v-5.2h11.085v5.2h10.686v-5.058l-14.264-14.264 2.208-5.33v5.602h12.735v-5.2h13.136v5.2H507.2v5.383h5.2v10.784h-5.2v10.383h5.2v10.783h-5.2v10.384h5.2v10.783h-5.2v10.383h5.2v10.784h-5.2v10.583h-10.134l-93.011-71.2" style="vector-effect:non-scaling-stroke;stroke-width:.264583;stroke-dasharray:none;-inkscape-stroke:hairline" transform="matrix(0 1.0052 -1.0052 0 1100.54 247.635)"/>
        <path d="M512.4 460.784h5.2v-5.383h12.935v-5.2h13.136v5.2h12.735v-5.602l2.208 5.33-14.264 14.264v5.058h10.686v-5.2h11.085v5.2h10.686v-5.2h11.086v5.2h10.686v-5.2h11.085v5.2h11.081l-93.011 71.2H517.6v-10.583h-5.2v-10.784h5.2v-10.383h-5.2v-10.783h5.2v-10.384h-5.2v-10.783h5.2v-10.383h-5.2v-10.784" style="vector-effect:non-scaling-stroke;stroke-width:.264583;stroke-dasharray:none;-inkscape-stroke:hairline" transform="matrix(0 1.0052 -1.0052 0 1004.19 90.943)"/>
        <path d="M404.055 474.451h11.081v-5.2h11.085v5.2h10.686v-5.2h11.086v5.2h10.686v-5.2h11.085v5.2h10.686v-5.058l-14.264-14.264 2.208-5.33v5.602h12.735v-5.2h13.136v5.2H507.2v5.383h5.2v10.784h-5.2v10.383h5.2v10.783h-5.2v10.384h5.2v10.783h-5.2v10.383h5.2v10.784h-5.2v10.583h-10.134l-93.011-71.2" style="vector-effect:non-scaling-stroke;stroke-width:.264583;stroke-dasharray:none;-inkscape-stroke:hairline" transform="matrix(0 -1.0052 1.0052 0 99.92 1121.064)"/>
        <path d="M512.4 460.784h5.2v-5.383h12.935v-5.2h13.136v5.2h12.735v-5.602l2.208 5.33-14.264 14.264v5.058h10.686v-5.2h11.085v5.2h10.686v-5.2h11.086v5.2h10.686v-5.2h11.085v5.2h11.081l-93.011 71.2H517.6v-10.583h-5.2v-10.784h5.2v-10.383h-5.2v-10.783h5.2v-10.384h-5.2v-10.783h5.2v-10.383h-5.2v-10.784" style="vector-effect:non-scaling-stroke;stroke-width:.264583;stroke-dasharray:none;-inkscape-stroke:hairline" transform="matrix(0 -1.0052 1.0052 0 3.571 1277.757)"/>
        <path d="M404.055 449.799v-10.783h5.2v-10.384h-5.2v-10.783h5.2v-10.383h-5.2v-10.784h5.2v-10.383h-5.2v-10.783h5.2v-10.384h-5.2v-10.783h15.467v5.2h15.066v-5.2h15.467v5.2h15.067v-5.2h15.466v5.2h15.067v-5.2h15.467v5.2h15.066v-5.2h15.467v10.783h-5.2v10.384h5.2v10.783h-5.2v10.383h5.2v10.784h-5.2v10.383h5.2v10.783h-5.2v10.384h5.2v10.783h-15.467v-5.2h-15.066v5.2h-15.467v-5.2h-15.067v5.2h-15.466v-5.2h-15.067v5.2h-15.467v-5.2h-15.066v5.2h-15.467" style="vector-effect:non-scaling-stroke;stroke-width:.264583;stroke-dasharray:none;-inkscape-stroke:hairline" transform="matrix(0 1.0052 1.0052 0 524.874 218.228)"/>
        <path d="M620.745 464.937v-11.086h137.6v11.086h-5.2v10.685h5.2v11.086h-5.2v10.686h5.2v11.086h-5.2v10.685h5.2v11.086h-137.6v-11.086h5.2V508.48h-5.2v-11.086h5.2v-10.686h-5.2v-11.086h5.2v-10.685h-5.2" style="vector-effect:non-scaling-stroke;stroke-width:.264583;stroke-dasharray:none;-inkscape-stroke:hairline" transform="matrix(0 1.0052 1.0052 0 565.237 .413)"/>
        <path d="M620.745 530.251h127.2v10.2h-10.067v5.2h-15.466v-5.2h-15.067v5.2h-15.467v-5.2h-15.066v5.2h-15.467v-5.2h-15.067v5.2h-15.466v-5.2h-10.067v-10.2" style="vector-effect:non-scaling-stroke;stroke-width:.264583;stroke-dasharray:none;-inkscape-stroke:hairline" transform="matrix(0 1.0052 1.0052 0 565.237 5.64)"/>
        <path d="M758.345 525.051v-13.135h5.2V499.18h-5.2v-13.135h137.6v13.135h-5.2v12.736h5.2v13.135h-15.267v5.2h-15.466v-5.2h-15.067v5.2h-15.467v-5.2h-15.066v5.2h-15.467v-5.2h-15.067v5.2h-15.466v-5.2h-15.267" style="vector-effect:non-scaling-stroke;stroke-width:.264583;stroke-dasharray:none;-inkscape-stroke:hairline" transform="matrix(0 -1.0052 -1.0052 0 1510.014 1524.979)"/>
        <path d="M404.055 449.799v-10.783h5.2v-10.384h-5.2v-10.783h5.2v-10.383h-5.2v-10.784h5.2v-10.383h-5.2v-10.783h5.2v-10.384h-5.2v-10.783h15.467v5.2h15.066v-5.2h15.467v5.2h15.067v-5.2h15.466v5.2h15.067v-5.2h15.467v5.2h15.066v-5.2h15.467v10.783h-5.2v10.384h5.2v10.783h-5.2v10.383h5.2v10.784h-5.2v10.383h5.2v10.783h-5.2v10.384h5.2v10.783h-15.467v-5.2h-15.066v5.2h-15.467v-5.2h-15.067v5.2h-15.466v-5.2h-15.067v5.2h-15.467v-5.2h-15.066v5.2h-15.467" style="vector-effect:non-scaling-stroke;stroke-width:.264583;stroke-dasharray:none;-inkscape-stroke:hairline" transform="matrix(0 1.0052 -1.0052 0 1237.253 218.228)"/>
        <path d="M620.745 464.937v-11.086h137.6v11.086h-5.2v10.685h5.2v11.086h-5.2v10.686h5.2v11.086h-5.2v10.685h5.2v11.086h-137.6v-11.086h5.2V508.48h-5.2v-11.086h5.2v-10.686h-5.2v-11.086h5.2v-10.685h-5.2" style="vector-effect:non-scaling-stroke;stroke-width:.264583;stroke-dasharray:none;-inkscape-stroke:hairline" transform="matrix(0 1.0052 -1.0052 0 1196.89 .413)"/>
        <path d="M620.745 530.251h127.2v10.2h-10.067v5.2h-15.466v-5.2h-15.067v5.2h-15.467v-5.2h-15.066v5.2h-15.467v-5.2h-15.067v5.2h-15.466v-5.2h-10.067v-10.2" style="vector-effect:non-scaling-stroke;stroke-width:.264583;stroke-dasharray:none;-inkscape-stroke:hairline" transform="matrix(0 1.0052 -1.0052 0 1196.89 5.64)"/>
        <path d="M758.345 525.051v-13.135h5.2V499.18h-5.2v-13.135h137.6v13.135h-5.2v12.736h5.2v13.135h-15.267v5.2h-15.466v-5.2h-15.067v5.2h-15.467v-5.2h-15.066v5.2h-15.467v-5.2h-15.067v5.2h-15.466v-5.2h-15.267" style="vector-effect:non-scaling-stroke;stroke-width:.264583;stroke-dasharray:none;-inkscape-stroke:hairline" transform="matrix(0 -1.0052 1.0052 0 252.113 1524.979)"/>
    </g>
    <path fill="none" stroke="#000" stroke-width=".1mm" d="M345.958 617.396v-6.429h-5.2v-11.828h5.2V587.71h-5.2v-11.828h5.2v-11.429h-5.2v-11.828h5.2v-11.629h6.794v-5.2h12.195v5.2h11.794v-5.2h12.195v5.2h11.794v-5.2h12.195v5.2h11.794v-5h-7.703l-14.322-14.322 2.208-5.331v5.603h14.469v-5.2h14.868v5.2h9.469v14.05h-6.794v5H449l-57.442 81.817v-5.417h-15v5.2h-15.4v-5.2h-15.2" style="vector-effect:non-scaling-stroke;fill:none;stroke:#000;stroke-width:.264583;stroke-dasharray:none;stroke-opacity:1;-inkscape-stroke:hairline" transform="matrix(0 -1.0052 -1.0052 0 968.013 1105.223)"/>
    <path fill="none" stroke="#000" stroke-width=".1mm" d="M758.45 415.477h9.469v-5.2h14.868v5.2h14.469v-5.603l2.208 5.33-14.323 14.323h-7.702v5h11.794v-5.2h12.195v5.2h11.794v-5.2h12.195v5.2h11.794v-5.2h12.195v5.2h6.794v11.629h5.2v11.828h-5.2v11.429h5.2v11.828h-5.2v11.429h5.2v11.828h-5.2v6.429H841v5.2h-15.4v-5.2h-15v5.416l-57.442-81.816h12.086v-5h-6.794v-14.05" style="vector-effect:non-scaling-stroke;fill:none;stroke:#000;stroke-width:.264583;stroke-dasharray:none;stroke-opacity:1;-inkscape-stroke:hairline" transform="matrix(0 -1.0052 -1.0052 0 753.969 1451.303)"/>
    <path d="M340.372 24.224v18.217h5.227v17.813h-5.227V78.47h5.227v17.814h-5.227V114.5h5.227v17.813h-5.227v18.216h5.227v17.814h-5.227v18.216h5.227v17.813h-5.227v18.216h5.227v17.814h-5.227v18.216h5.227v17.813h-5.227v18.216h5.227v17.815h-5.227v18.216h5.227v17.813h-5.227v18.216h5.227v17.814h-5.227v18.216h5.227v17.813h-5.227v18.216h12.257v-5.227h11.857v5.227h12.257v-5.227H388.6v5.227h12.257v-5.227h11.857v5.227h12.257v-5.227h11.856v5.227h12.258V420.55h-5.227v-17.813h5.227v-18.216h-5.227v-17.814h5.227V348.49h-5.227v-17.813h5.227v-18.216h-5.227v-17.815h5.227v-18.216h-5.227v-17.813h5.227v-18.216h-5.227v-17.814h5.227v-18.216h-5.227v-17.813h5.227v-18.216h-5.227v-17.814h5.227v-18.216h-5.227V114.5h5.227V96.284h-5.227V78.47h5.227V60.254h-5.227V42.44h5.227V24.224h-12.258v5.227H424.97v-5.227h-12.257v5.227h-11.857v-5.227H388.6v5.227h-11.856v-5.227h-12.257v5.227h-11.857v-5.227zm27.33 82.024h20.144v5.026h-20.144zm40.692 0h20.143v5.026h-20.143zm-41.737 81.823h19.099v5.026h-19.099zm38.6 0h19.099v5.026h-19.099zm-38.6 81.823h19.099v5.026h-19.099zm38.6 0h19.099v5.026h-19.099zm-37.555 81.822h20.144v5.026h-20.144zm40.692 0h20.143v5.026h-20.143z" style="vector-effect:non-scaling-stroke;fill:none;stroke:#000;stroke-width:.265957;stroke-dasharray:none;stroke-opacity:1;-inkscape-stroke:hairline" transform="translate(3.733 3.88)"/>
    <path fill="none" stroke="#000" stroke-width=".1mm" d="M536.442 402.993v-14.05h17.922v-5.2h18.121v5.2h17.722v-5.2h18.122v5.2h17.722v-5.2h18.121v5.2h17.722v-5.2h18.122v5.2h17.722v-5.2h18.121v5.2h17.722v-5.2h18.122v5.2h17.722v-5.2h18.121v5.2h17.722v-5.2h18.122v5.2h17.722v-5.2h18.121v5.2h17.722v-5.2h18.122v5.2h17.722v-5.2h18.121v5.2h17.922v14.05H930.92v5.2h-18.121v-5.2h-17.722v5.2h-18.122v-5.2h-17.722v5.2h-18.121v-5.2H823.39v5.2h-18.122v-5.2h-17.722v5.2h-18.121v-5.2h-17.722v5.2h-18.122v-5.2h-17.722v5.2h-18.121v-5.2h-17.722v5.2h-18.122v-5.2h-17.722v5.2h-18.121v-5.2h-17.722v5.2h-18.122v-5.2h-17.722v5.2h-18.121v-5.2h-17.922" style="vector-effect:non-scaling-stroke;fill:none;stroke:#000;stroke-width:.264583;stroke-dasharray:none;stroke-opacity:1;-inkscape-stroke:hairline" transform="matrix(0 1.0052 -1.0052 0 950.38 -511.123)"/>
    <path d="M612.176 24.224v414.542h-15.48v-5.227h-15.078v5.227h-15.48v-18.015h-5.227v-18.215h5.227v-17.814h-5.227v-18.216h5.227v-17.814h-5.227v-18.216h5.227v-17.814h-5.227v-18.216h5.227v-17.814h-5.227v-18.215h5.227v-17.814h-5.227v-18.216h5.227v-17.814h-5.227v-18.215h5.227v-17.814h-5.227v-18.216h5.227v-17.814h-5.227v-18.215h5.227V96.485h-5.227V78.269h5.227V60.454h-5.227V42.24h5.227V24.224h15.48v5.227h15.078v-5.227zm-14.795 82.024h-7.61v5.026h7.61zm-15.622 0h-7.61v5.026h7.61zm14.576 81.823h-8.655v5.026h8.655zm-17.712 0h-8.655v5.026h8.655zm17.712 81.823h-8.655v5.025h8.655zm-17.712 0h-8.655v5.025h8.655zm18.758 81.822h-7.61v5.026h7.61zm-15.622 0h-7.61v5.026h7.61z" style="vector-effect:non-scaling-stroke;fill:none;stroke:#000;stroke-width:.265957;stroke-dasharray:none;stroke-opacity:1;-inkscape-stroke:hairline" transform="translate(3.733 3.88)"/>
    <path fill="none" stroke="#000" stroke-width=".1mm" d="M627.506 321.393v-5.2h-17.722v5.2h-18.122v-5.2h-17.721v5.2h-18.122v-5.2h-17.722v5.2h-18.122v-5.2h-17.721v5.2h-18.122v-5.2H466.41v5.2h-18.122v-5.2h-17.721v5.2h-18.122v-5.2h-17.722v5.2h-18.122v-5.2H358.88v5.2h-18.122v-14.869h5.2v-14.468h-5.2v-14.869h412.4v14.869h-5.2v14.468h5.2v14.869h-18.122v-5.2h-17.721v5.2h-18.122v-5.2h-17.722v5.2h-18.122v-5.2h-17.721v5.2h-18.122" style="vector-effect:non-scaling-stroke;fill:none;stroke:#000;stroke-width:.264583;stroke-dasharray:none;stroke-opacity:1;-inkscape-stroke:hairline" transform="matrix(0 1.0052 1.0052 0 337.282 -314.422)"/>
    <path d="M449.084 24.224v18.217h5.227v17.813h-5.227V78.47h5.227v17.814h-5.227V114.5h5.227v17.813h-5.227v18.216h5.227v17.814h-5.227v18.216h5.227v17.813h-5.227v18.216h5.227v17.814h-5.227v18.216h5.227v17.813h-5.227v18.216h5.227v17.815h-5.227v18.216h5.227v17.813h-5.227v18.216h5.227v17.814h-5.227v18.216h5.227v17.813h-5.227v18.216h11.89v-5.227h11.487v5.227h11.89v-5.227h11.488v5.227h11.89v-5.227h11.488v5.227h11.89v-18.015h5.227v-18.215h-5.227v-17.814h5.227v-18.216h-5.227v-17.814h5.227v-18.215h-5.227v-17.814h5.227v-18.217h-5.227v-17.814h5.227v-18.215h-5.227v-17.814h5.227v-18.216h-5.227v-17.814h5.227v-18.215h-5.227v-17.814h5.227v-18.216h-5.227v-17.814h5.227V114.3h-5.227V96.485h5.227V78.269h-5.227V60.455h5.227V42.24h-5.227V24.224h-11.89v5.227H507.73v-5.227h-11.891v5.227h-11.487v-5.227h-11.89v5.227h-11.488v-5.227zm16.565 82.024h16.164v5.026h-16.164zm32.73 0h16.163v5.026h-16.164zm-27.503 81.823h16.164v5.026h-16.164zm32.73 0h16.163v5.026h-16.164zm-32.73 81.823h16.164v5.026h-16.164zm32.73 0h16.163v5.026h-16.164zm-37.957 81.822h16.164v5.026h-16.164zm32.73 0h16.163v5.026h-16.164z" style="vector-effect:non-scaling-stroke;fill:none;stroke:#000;stroke-width:.265957;stroke-dasharray:none;stroke-opacity:1;-inkscape-stroke:hairline" transform="translate(3.733 3.88)"/>
    <path fill="none" stroke="#000" stroke-width=".1mm" d="M345.958 617.396v-6.429h-5.2v-11.828h5.2V587.71h-5.2v-11.828h5.2v-11.429h-5.2v-11.828h5.2v-11.629h6.794v-5.2h12.195v5.2h11.794v-5.2h12.195v5.2h11.794v-5.2h12.195v5.2h11.794v-5h-7.703l-14.322-14.322 2.208-5.331v5.603h14.469v-5.2h14.868v5.2h9.469v14.05h-6.794v5H449l-57.442 81.817v-5.417h-15v5.2h-15.4v-5.2h-15.2" style="vector-effect:non-scaling-stroke;fill:none;stroke:#000;stroke-width:.264583;stroke-dasharray:none;stroke-opacity:1;-inkscape-stroke:hairline" transform="matrix(0 -1.0052 1.0052 0 -284.08 1105.223)"/>
    <path fill="none" stroke="#000" stroke-width=".1mm" d="M758.45 415.477h9.469v-5.2h14.868v5.2h14.469v-5.603l2.208 5.33-14.323 14.323h-7.702v5h11.794v-5.2h12.195v5.2h11.794v-5.2h12.195v5.2h11.794v-5.2h12.195v5.2h6.794v11.629h5.2v11.828h-5.2v11.429h5.2v11.828h-5.2v11.429h5.2v11.828h-5.2v6.429H841v5.2h-15.4v-5.2h-15v5.416l-57.442-81.816h12.086v-5h-6.794v-14.05" style="vector-effect:non-scaling-stroke;fill:none;stroke:#000;stroke-width:.264583;stroke-dasharray:none;stroke-opacity:1;-inkscape-stroke:hairline" transform="matrix(0 -1.0052 1.0052 0 -70.036 1451.303)"/>
    <path fill="none" stroke="#000" stroke-width=".1mm" d="M507.931 408.193h-7.97v-5.2h-7.722l-53.639-76.4h16.681v-5.2h20.44v5.2h20.041v-5.2h20.44v5.2h15.04v16.28h5.2v16.48h-5.2v16.08h5.2v16.48h-5.2v11.08h-7.77v5.2h-7.97v-5.2h-7.571v5.2" style="vector-effect:non-scaling-stroke;fill:none;stroke:#000;stroke-width:.264583;stroke-dasharray:none;stroke-opacity:1;-inkscape-stroke:hairline" transform="matrix(0 1.0052 -1.0052 0 983.406 46.202)"/>
    <path fill="none" stroke="#000" stroke-width=".1mm" d="M861.4 445.823h5.2v-11.08h19.2v-5.2h19.4v5.2h19.001v-5.2h19.4v5.2h15.641l-53.639 76.4h-8.762v5.2h-9.01v-5.2h-8.611v5.2h-9.01v-5.2h-3.61v-16.28h-5.2v-16.48h5.2v-16.08h-5.2v-16.48" style="vector-effect:non-scaling-stroke;fill:none;stroke:#000;stroke-width:.264583;stroke-dasharray:none;stroke-opacity:1;-inkscape-stroke:hairline" transform="matrix(0 1.0052 -1.0052 0 1004.867 -423.226)"/>
    <path fill="none" stroke="#000" stroke-width=".1mm" d="M507.931 408.193h-7.97v-5.2h-7.722l-53.639-76.4h16.681v-5.2h20.44v5.2h20.041v-5.2h20.44v5.2h15.04v16.28h5.2v16.48h-5.2v16.08h5.2v16.48h-5.2v11.08h-7.77v5.2h-7.97v-5.2h-7.571v5.2" style="vector-effect:non-scaling-stroke;fill:none;stroke:#000;stroke-width:.264583;stroke-dasharray:none;stroke-opacity:1;-inkscape-stroke:hairline" transform="matrix(0 1.0052 1.0052 0 162.78 46.202)"/>
    <path fill="none" stroke="#000" stroke-width=".1mm" d="M861.4 445.823h5.2v-11.08h19.2v-5.2h19.4v5.2h19.001v-5.2h19.4v5.2h15.641l-53.639 76.4h-8.762v5.2h-9.01v-5.2h-8.611v5.2h-9.01v-5.2h-3.61v-16.28h-5.2v-16.48h5.2v-16.08h-5.2v-16.48" style="vector-effect:non-scaling-stroke;fill:none;stroke:#000;stroke-width:.264583;stroke-dasharray:none;stroke-opacity:1;-inkscape-stroke:hairline" transform="matrix(0 1.0052 1.0052 0 141.32 -423.227)"/>
    <path fill="none" stroke="#000" stroke-width=".1mm" d="M425.63 408.193h-7.97v-5.2h-7.571v5.2h-7.97v-5.2h-7.722l-53.639-76.4h16.681v-5.2h20.44v5.2h20.041v-5.2h20.44v5.2h15.04v16.28h5.2v16.48h-5.2v16.08h5.2v16.48h-5.2v11.08h-7.77v5.2" style="vector-effect:non-scaling-stroke;fill:none;stroke:#000;stroke-width:.264583;stroke-dasharray:none;stroke-opacity:1;-inkscape-stroke:hairline" transform="matrix(0 1.0052 -1.0052 0 721.654 144.552)"/>
    <path fill="none" stroke="#000" stroke-width=".1mm" d="M861.4 552.293h5.2v-11.08h19.2v-5.2h19.4v5.2h19.001v-5.2h19.4v5.2h15.641l-53.639 76.4h-8.762v5.2h-9.01v-5.2h-8.611v5.2h-9.01v-5.2h-3.61v-16.28h-5.2v-16.48h5.2v-16.08h-5.2v-16.48" style="vector-effect:non-scaling-stroke;fill:none;stroke:#000;stroke-width:.264583;stroke-dasharray:none;stroke-opacity:1;-inkscape-stroke:hairline" transform="matrix(0 1.0052 -1.0052 0 1024.64 -423.227)"/>
    <path fill="none" stroke="#000" stroke-width=".1mm" d="M425.63 408.193h-7.97v-5.2h-7.571v5.2h-7.97v-5.2h-7.722l-53.639-76.4h16.681v-5.2h20.44v5.2h20.041v-5.2h20.44v5.2h15.04v16.28h5.2v16.48h-5.2v16.08h5.2v16.48h-5.2v11.08h-7.77v5.2" style="vector-effect:non-scaling-stroke;fill:none;stroke:#000;stroke-width:.264583;stroke-dasharray:none;stroke-opacity:1;-inkscape-stroke:hairline" transform="matrix(0 1.0052 1.0052 0 75.53 144.552)"/>
    <path fill="none" stroke="#000" stroke-width=".1mm" d="M861.4 552.293h5.2v-11.08h19.2v-5.2h19.4v5.2h19.001v-5.2h19.4v5.2h15.641l-53.639 76.4h-8.762v5.2h-9.01v-5.2h-8.611v5.2h-9.01v-5.2h-3.61v-16.28h-5.2v-16.48h5.2v-16.08h-5.2v-16.48" style="vector-effect:non-scaling-stroke;fill:none;stroke:#000;stroke-width:.264583;stroke-dasharray:none;stroke-opacity:1;-inkscape-stroke:hairline" transform="matrix(0 1.0052 1.0052 0 -227.455 -423.226)"/>
    <path d="m0 .008.005 646.434 213.574-.003.001-94.822h57.778V437.08l65.336.008.003-437.08z" style="vector-effect:non-scaling-stroke;fill:none;stroke:red;stroke-width:.265957;-inkscape-stroke:hairline"/>
    <path d="M213.58 646.44v122.655l236.961.003V589.944l211.608-.004L662.138 0 336.698.01M662.138 0h433.717v527.285H662.148" style="vector-effect:non-scaling-stroke;fill:none;stroke:red;stroke-width:.265957;-inkscape-stroke:hairline"/>
    <path d="M450.541 769.098h668.17l-.01-148.111-456.553.01v-31.056M809.598 527.285l-.01 93.707" style="vector-effect:non-scaling-stroke;fill:none;stroke:red;stroke-width:.265957;-inkscape-stroke:hairline"/>
    <path fill="none" stroke="#000" stroke-width=".1mm" d="M525.1 620.619v-6.277h5.2v-7.79h-5.2v-8.191h5.2v-7.791h-5.2v-8.191h5.2v-7.99h51v7.99h5.2v8.191h-5.2v7.791h5.2v8.191h-5.2v7.79h5.2v6.277h-12.657v-5.2h-7.057v5.2h-7.457v-5.2h-7.058v5.2h-7.457v-5.2h-7.057v5.2H525.1" style="vector-effect:non-scaling-stroke;stroke-width:.264583;stroke-dasharray:none;-inkscape-stroke:hairline" transform="matrix(-1.0052 0 0 -1.0052 1709.96 1285.519)"/>
    <path fill="none" stroke="#000" stroke-width=".1mm" d="M530.3 574.389v-13.852h-5.2v-14.051h5.2v-13.652h-5.2v-14.051h5.2v-13.852h10.36v4.354h9.96v-4.354h10.36v4.354h9.96v-4.354h10.36v13.852h5.2v14.051h-5.2v13.652h5.2v14.051h-5.2v13.852h-51" style="vector-effect:non-scaling-stroke;stroke-width:.264583;stroke-dasharray:none;-inkscape-stroke:hairline" transform="matrix(-1.0052 0 0 -1.0052 1709.96 1285.519)"/>
    <path d="M1146.067 583.38h-10.012v-6.323h10.011v6.323m20.426 0h-10.012v-6.323h10.012v6.323m15.64 78.297h-12.504v-5.227h-12.102v5.227h-12.505v-5.227h-12.103v5.227h-12.504v-25.27h5.227v-24.869h-5.227v-25.27h5.227v-24.87h-5.227v-25.27h12.505v5.227h12.102v-5.227h12.505v5.227h12.102v-5.227h12.505v25.27h-5.227v24.87h5.227v25.27h-5.227v24.868h5.227v25.271" style="vector-effect:non-scaling-stroke;fill:none;stroke:#000;stroke-width:.265957;-inkscape-stroke:hairline"/>
    <path fill="none" stroke="#000" stroke-width=".1mm" d="M525.1 620.619v-6.277h5.2v-7.79h-5.2v-8.191h5.2v-7.791h-5.2v-8.191h5.2v-7.99h51v7.99h5.2v8.191h-5.2v7.791h5.2v8.191h-5.2v7.79h5.2v6.277h-12.657v-5.2h-7.057v5.2h-7.457v-5.2h-7.058v5.2h-7.457v-5.2h-7.057v5.2H525.1" style="vector-effect:non-scaling-stroke;stroke-width:.264583;stroke-dasharray:none;-inkscape-stroke:hairline" transform="matrix(1.0052 0 0 1.0052 407.43 -46.018)"/>
    <path fill="none" stroke="#000" stroke-width=".1mm" d="M530.3 574.389v-13.852h-5.2v-14.051h5.2v-13.652h-5.2v-14.051h5.2v-13.852h10.36v4.354h9.96v-4.354h10.36v4.354h9.96v-4.354h10.36v13.852h5.2v14.051h-5.2v13.652h5.2v14.051h-5.2v13.852h-51" style="vector-effect:non-scaling-stroke;stroke-width:.264583;stroke-dasharray:none;-inkscape-stroke:hairline" transform="matrix(1.0052 0 0 -1.0052 530.868 1113.5)"/>
    <path fill="none" stroke="#000" stroke-width=".1mm" d="m658.033 441.03-6.482-6.482-.348-.383-.31-.418-.267-.447-.222-.47-.176-.489-.126-.504-.077-.515-.025-.518v-2.273h24.94v-5H650v-6.55h5.2v-6.15H650v-1.35h6.077v-5.2h8.191v5.2h7.791v-5.2h8.19v5.2h7.791v-5.2h8.158l2.041 4.927-14.123 14.123h15.964v5.2h24.74v-5.2h25.14v5.2h24.94v7.3h-5.2v6.9h5.2v7.3h-5.2v6.9h5.2v7.254l-11.728 7.656-2.843-4.355-11.432 7.463 2.843 4.354-11.766 7.681-2.843-4.355-11.432 7.463 2.843 4.354-14.744 9.624-.439.258-.462.214-.482.169-.497.122-.505.074-.508.024h-8.793l-.513-.025-.51-.075-.502-.124-.486-.173-.467-.22-.444-.262-.424-.311-.308-.42-.26-.437-.218-.461-.173-.479-.125-.494-.079-.502-.028-.509.02-.51.069-.504.116-.493 2.067-7.204.15-.445.189-.432.228-.414.263-.392.297-.367.329-.339.357-.309.383-.274 10.577-6.905-1.353 4.714 4.806 1.379 4.48-15.607-4.998-1.435 4.59-15.994 4.998 1.435 4.48-15.608-4.805-1.379-3.487 12.148-7.427-7.428-.373-.338-.402-.298-.429-.257-.452-.213-.471-.169-.485-.122-.496-.073-.502-.025h-48.517l-.518-.025-.515-.077-.504-.126-.489-.176-.47-.222-.447-.267-.418-.31-.383-.348" style="vector-effect:non-scaling-stroke;stroke-width:.264583;stroke-dasharray:none;-inkscape-stroke:hairline" transform="matrix(0 -1.0052 1.0052 0 691.187 782.805)"/>
    <path fill="none" stroke="#000" stroke-width=".1mm" d="m589.095 504.931-.508-.024-.505-.074-.497-.122-.482-.169-.462-.214-.439-.258-14.744-9.624 2.843-4.354-11.432-7.463-2.843 4.355-11.766-7.681 2.843-4.354-11.432-7.463-2.843 4.355-11.728-7.656v-7.254h5.2v-6.9h-5.2v-7.3h5.2v-6.9h-5.2v-7.3h24.94v-5.2h25.14v5.2h24.74v-5.2h15.964l-14.123-14.123 2.041-4.927h8.158v5.2h7.791v-5.2h8.19v5.2h7.791v-5.2h8.191v5.2H650v1.35h-5.2v6.15h5.2v6.55h-24.94v5H650v2.273l-.025.518-.077.515-.126.504-.176.489-.222.47-.267.447-.31.418-.348.383-6.482 6.482-.383.348-.418.31-.447.267-.47.222-.489.176-.504.126-.515.077-.518.025h-48.517l-.502.025-.496.073-.485.122-.471.169-.452.213-.429.257-.402.298-.373.338-7.427 7.428-3.487-12.148-4.805 1.379 4.48 15.608 4.998-1.435 4.59 15.994-4.998 1.435 4.48 15.607 4.806-1.379-1.353-4.714 10.577 6.905.383.274.357.309.329.339.297.367.263.392.228.414.189.432.15.445 2.067 7.204.116.493.069.504.02.51-.028.509-.079.502-.125.494-.173.479-.218.461-.26.437-.307.42-.425.311-.444.262-.467.22-.486.173-.502.124-.51.075-.513.025h-8.793" style="vector-effect:non-scaling-stroke;stroke-width:.264583;stroke-dasharray:none;-inkscape-stroke:hairline" transform="matrix(0 -1.0052 -1.0052 0 1605.12 735.03)"/>
    <path fill="none" stroke="#000" stroke-width=".1mm" d="m658.033 441.03-6.482-6.482-.348-.383-.31-.418-.267-.447-.222-.47-.176-.489-.126-.504-.077-.515-.025-.518v-2.273h24.94v-5H650v-6.55h5.2v-6.15H650v-1.35h6.077v-5.2h8.191v5.2h7.791v-5.2h8.19v5.2h7.791v-5.2h8.158l2.041 4.927-14.123 14.123h15.964v5.2h24.74v-5.2h25.14v5.2h24.94v7.3h-5.2v6.9h5.2v7.3h-5.2v6.9h5.2v7.254l-11.728 7.656-2.843-4.355-11.432 7.463 2.843 4.354-11.766 7.681-2.843-4.355-11.432 7.463 2.843 4.354-14.744 9.624-.439.258-.462.214-.482.169-.497.122-.505.074-.508.024h-8.793l-.513-.025-.51-.075-.502-.124-.486-.173-.467-.22-.444-.262-.424-.311-.308-.42-.26-.437-.218-.461-.173-.479-.125-.494-.079-.502-.028-.509.02-.51.069-.504.116-.493 2.067-7.204.15-.445.189-.432.228-.414.263-.392.297-.367.329-.339.357-.309.383-.274 10.577-6.905-1.353 4.714 4.806 1.379 4.48-15.607-4.998-1.435 4.59-15.994 4.998 1.435 4.48-15.608-4.805-1.379-3.487 12.148-7.427-7.428-.373-.338-.402-.298-.429-.257-.452-.213-.471-.169-.485-.122-.496-.073-.502-.025h-48.517l-.518-.025-.515-.077-.504-.126-.489-.176-.47-.222-.447-.267-.418-.31-.383-.348" style="vector-effect:non-scaling-stroke;stroke-width:.264583;stroke-dasharray:none;-inkscape-stroke:hairline" transform="matrix(0 1.0052 1.0052 0 691.187 -368.345)"/>
    <path fill="none" stroke="#000" stroke-width=".1mm" d="m589.095 504.931-.508-.024-.505-.074-.497-.122-.482-.169-.462-.214-.439-.258-14.744-9.624 2.843-4.354-11.432-7.463-2.843 4.355-11.766-7.681 2.843-4.354-11.432-7.463-2.843 4.355-11.728-7.656v-7.254h5.2v-6.9h-5.2v-7.3h5.2v-6.9h-5.2v-7.3h24.94v-5.2h25.14v5.2h24.74v-5.2h15.964l-14.123-14.123 2.041-4.927h8.158v5.2h7.791v-5.2h8.19v5.2h7.791v-5.2h8.191v5.2H650v1.35h-5.2v6.15h5.2v6.55h-24.94v5H650v2.273l-.025.518-.077.515-.126.504-.176.489-.222.47-.267.447-.31.418-.348.383-6.482 6.482-.383.348-.418.31-.447.267-.47.222-.489.176-.504.126-.515.077-.518.025h-48.517l-.502.025-.496.073-.485.122-.471.169-.452.213-.429.257-.402.298-.373.338-7.427 7.428-3.487-12.148-4.805 1.379 4.48 15.608 4.998-1.435 4.59 15.994-4.998 1.435 4.48 15.607 4.806-1.379-1.353-4.714 10.577 6.905.383.274.357.309.329.339.297.367.263.392.228.414.189.432.15.445 2.067 7.204.116.493.069.504.02.51-.028.509-.079.502-.125.494-.173.479-.218.461-.26.437-.307.42-.425.311-.444.262-.467.22-.486.173-.502.124-.51.075-.513.025h-8.793" style="vector-effect:non-scaling-stroke;stroke-width:.264583;stroke-dasharray:none;-inkscape-stroke:hairline" transform="matrix(0 1.0052 -1.0052 0 1605.12 -320.622)"/>
    <path fill="none" stroke="#000" stroke-width=".1mm" d="M586.5 592.019h5.2v-7.1h7.04v-5.2h12.44v5.2h12.04v-5.2h12.44v5.2h7.04v7.1h5.2v7.3h-5.2v6.9h5.2v7.3h-5.2v2.746h-10.16v4.354h-10.36v-4.354h-9.96v4.354h-10.36v-4.354H591.7v-2.746h-5.2v-7.3h5.2v-6.9h-5.2v-7.3" style="vector-effect:non-scaling-stroke;stroke-width:.264583;stroke-dasharray:none;-inkscape-stroke:hairline" transform="matrix(-1.0052 0 0 1.0052 1648.24 -53.783)"/>
    <path fill="none" stroke="#000" stroke-width=".1mm" d="M586.5 592.019h5.2v-7.1h7.04v-5.2h12.44v5.2h12.04v-5.2h12.44v5.2h7.04v7.1h5.2v7.3h-5.2v6.9h5.2v7.3h-5.2v2.746h-10.16v4.354h-10.36v-4.354h-9.96v4.354h-10.36v-4.354H591.7v-2.746h-5.2v-7.3h5.2v-6.9h-5.2v-7.3" style="vector-effect:non-scaling-stroke;stroke-width:.264583;stroke-dasharray:none;-inkscape-stroke:hairline" transform="matrix(1.0052 0 0 -1.0052 345.712 1201.666)"/>
    <path d="M1133.634 457.832h10.012v-6.324h-10.012v6.324m-20.426 0h10.012v-6.324h-10.012v6.324m-15.64 78.296h12.504v-5.227h12.103v5.227h12.504v-5.227h12.103v5.227h12.504v-25.27h-5.227v-24.869h5.227v-25.27h-5.227V435.85h5.227v-25.27h-12.504v5.227h-12.103v-5.227h-12.504v5.227h-12.103v-5.227h-12.504v25.27h5.227v24.869h-5.227v25.27h5.227v24.869h-5.227v25.27" style="vector-effect:non-scaling-stroke;fill:none;stroke:#000;stroke-width:.265957;-inkscape-stroke:hairline"/>
    <path fill="none" stroke="#000" stroke-width=".1mm" d="M593.8 485.787v-11.029h-5.2v-16.639h5.2v-16.238h-5.2v-16.639h5.2v-16.439h51v16.439h5.2v16.639h-5.2v16.238h5.2v16.639h-5.2v11.029h-10.16v5.41h-10.36v-5.41h-9.96v5.41h-10.36v-5.41H593.8" style="vector-effect:non-scaling-stroke;stroke-width:.264583;stroke-dasharray:none;-inkscape-stroke:hairline" transform="matrix(1.0052 0 0 1.0052 220.163 123.754)"/>
    <path fill="none" stroke="#000" stroke-width=".1mm" d="M650 479.647v-6.55h5.2v-1.15h7.257v-5.2h7.457v5.2h7.057v-5.2h7.458v5.2h7.057v-5.2h7.457v5.2h7.257v1.15h5.2v6.55h-5.2v6.35h-7.04v5.2h-12.44v-5.2h-12.04v5.2h-12.44v-5.2h-7.04v-6.35H650" style="vector-effect:non-scaling-stroke;stroke-width:.264583;stroke-dasharray:none;-inkscape-stroke:hairline" transform="matrix(1.0052 0 0 1.0052 343.6 125.465)"/>
    <path fill="none" stroke="#000" stroke-width=".1mm" d="M593.8 485.787v-11.029h-5.2v-16.639h5.2v-16.238h-5.2v-16.639h5.2v-16.439h51v16.439h5.2v16.639h-5.2v16.238h5.2v16.639h-5.2v11.029h-10.16v5.41h-10.36v-5.41h-9.96v5.41h-10.36v-5.41H593.8" style="vector-effect:non-scaling-stroke;stroke-width:.264583;stroke-dasharray:none;-inkscape-stroke:hairline" transform="matrix(1.0052 0 0 1.0052 281.882 123.754)"/>
    <path fill="none" stroke="#000" stroke-width=".1mm" d="M650 479.647v-6.55h5.2v-1.15h7.257v-5.2h7.457v5.2h7.057v-5.2h7.458v5.2h7.057v-5.2h7.457v5.2h7.257v1.15h5.2v6.55h-5.2v6.35h-7.04v5.2h-12.44v-5.2h-12.04v5.2h-12.44v-5.2h-7.04v-6.35H650" style="vector-effect:non-scaling-stroke;stroke-width:.264583;stroke-dasharray:none;-inkscape-stroke:hairline" transform="matrix(-1.0052 0 0 -1.0052 1712.07 1063.807)"/>
    <path d="m1118.71 769.098-.01 22.391h81.295V0H1095.85" style="vector-effect:non-scaling-stroke;fill:none;stroke:red;stroke-width:.265957;-inkscape-stroke:hairline"/>
</svg>
