Cleat Wall Organization Equipment
Copyright (C) 2025  Corporate Hacks

This program is free software: you can redistribute it and/or modify
it under the terms of the GNU General Public License as published by
the Free Software Foundation, either version 3 of the License, or
(at your option) any later version.

This program is distributed in the hope that it will be useful,
but WITHOUT ANY WARRANTY; without even the implied warranty of
MERCHANTABILITY or FITNESS FOR A PARTICULAR PURPOSE.  See the
GNU General Public License for more details.

You should have received a copy of the GNU General Public License
along with this program.  If not, see <http://www.gnu.org/licenses/>.


<svg xmlns="http://www.w3.org/2000/svg" width="1300mm" height="900mm" viewBox="0 0 1300 900">
    <path fill="none" stroke="#000" stroke-width=".1mm" d="M777.975 711.526h24.693v5.2h24.293v-5.2h24.693v5.2h24.292v-5.2h24.693v5.2h24.293v-5.2h24.693v30.8h-24.693v-5.2h-24.293v5.2h-24.693v-5.2h-24.292v5.2h-24.693v-5.2h-24.293v5.2h-24.693v-30.8" style="vector-effect:non-scaling-stroke;fill:none;stroke:#000;stroke-width:.264583;stroke-dasharray:none;stroke-opacity:1;-inkscape-stroke:hairline" transform="rotate(-90 569.297 476.58)"/>
    <path fill="none" stroke="#000" stroke-width=".1mm" d="M777.975 711.526h24.693v5.2h24.293v-5.2h24.693v5.2h24.292v-5.2h24.693v5.2h24.293v-5.2h24.693v30.8h-24.693v-5.2h-24.293v5.2h-24.693v-5.2h-24.292v5.2h-24.693v-5.2h-24.293v5.2h-24.693v-30.8" style="vector-effect:non-scaling-stroke;fill:none;stroke:#000;stroke-width:.264583;stroke-dasharray:none;stroke-opacity:1;-inkscape-stroke:hairline" transform="rotate(90 1129.546 447.823)"/>
    <path d="m253.087 251.994.026.518.077.514.126.504.174.49.224.47.266.447.31.418.35.385.385.35.418.31.447.266.47.222.49.176.504.126.513.077 1.02.05.494.073.486.122.473.17.451.212.43.257.402.298.37.337.338.371.297.402.258.43.213.451.169.472.122.486.072.495.026.501v5.29h5.2v13.653h-5.2v19.255h10.4v-5.2h10v5.2h10.4v-19.255h-5.2v-13.654h5.2v-14.055h-5.2v-13.654h5.2V225.92h-5.2v-13.654h5.2V198.21h-5.2v-13.654h5.2v-14.055h-5.2v-13.654h5.2v-19.255h-10.4v5.2h-10v-5.2h-10.4v19.255h5.2v13.654h-5.2v5.29l-.026.502-.072.494-.122.485-.17.472-.212.452-.258.43-.297.401-.337.371-.371.337-.402.298-.43.257-.451.213-.473.17-.485.121-.495.074-1.02.05-.513.076-.505.126-.49.175-.47.223-.446.267-.418.31-.385.35-.35.384-.31.418-.266.447-.224.47-.174.49-.126.504-.077.514-.026.518zm10.6 1.634v-13.654h5v13.654zm0-27.708v-13.654h5v13.654zm0-27.71v-13.654h5v13.654z" style="vector-effect:non-scaling-stroke;fill:none;stroke:#000;stroke-width:.264583;stroke-dasharray:none;stroke-opacity:1;-inkscape-stroke:hairline" transform="translate(410.256 -41.34)"/>
    <path d="m253.087 186.19-.025-.518-.077-.514-.127-.504-.174-.49-.223-.47-.267-.447-.31-.418-.35-.385-.385-.349-.418-.31-.447-.267-.47-.222-.49-.176-.504-.126-.513-.077-1.02-.05-.494-.073-.486-.122-.472-.169-.452-.213-.43-.257-.402-.298-.37-.337-.338-.37-.297-.403-.258-.429-.212-.452-.17-.472-.121-.486-.073-.494-.026-.502v-5.289h-5.2v-13.654h5.2v-19.255h-10.4v5.2h-10v-5.2h-10.4v19.255h5.2v13.654h-5.2v14.055h5.2v13.654h-5.2v14.055h5.2v13.654h-5.2v14.055h5.2v13.654h-5.2v14.055h5.2v13.654h-5.2v19.255h10.4v-5.2h10v5.2h10.4v-19.255h-5.2v-13.654h5.2v-5.289l.026-.502.073-.494.122-.486.169-.472.212-.452.258-.429.297-.402.337-.37.371-.338.402-.298.43-.257.452-.213.472-.169.486-.122.494-.073 1.02-.05.513-.077.505-.126.49-.175.47-.223.446-.267.418-.31.385-.349.35-.385.31-.418.267-.447.223-.47.174-.49.127-.504.077-.514.025-.518zm-10.6-1.634v13.654h-5v-13.654zm0 27.71v13.653h-5v-13.654zm0 27.708v13.654h-5v-13.654zM344.138 268.032h5.2v32.56h2.093v-5.2h6.892v5.2h7.293v-5.2h6.892v5.2h7.294v-5.2h6.893v5.2h7.292v-19.255h-5.2v-13.654h5.2v-14.055h-5.2v-13.654h5.2V225.92h-5.2v-13.654h5.2V198.21h-5.2v-13.654h5.2v-14.055h-5.2v-13.654h5.2v-19.255h-7.292v5.2h-6.893v-5.2h-7.294v5.2h-6.892v-5.2h-7.293v5.2h-6.892v-5.2h-2.094v32.56h-5.2v32.76h5.2v32.36h-5.2zm19.25 13.305v-13.654h5v13.654zm0-27.709v-13.654h5v13.654zm0-27.708v-13.654h5v13.654zm0-27.71v-13.654h5v13.654zm0-27.709v-13.654h5v13.654z" style="vector-effect:non-scaling-stroke;fill:none;stroke:#000;stroke-width:.264583;stroke-dasharray:none;stroke-opacity:1;-inkscape-stroke:hairline" transform="translate(410.256 -41.34)"/>
    <path d="M344.138 170.152h-5.2v-32.56h-2.093v5.2h-6.893v-5.2h-7.293v5.2h-6.892v-5.2h-7.293v5.2h-6.894v-5.2h-7.292v19.255h5.2v13.654h-5.2v14.055h5.2v13.654h-5.2v14.055h5.2v13.654h-5.2v14.055h5.2v13.654h-5.2v14.055h5.2v13.654h-5.2v19.255h7.292v-5.2h6.894v5.2h7.293v-5.2h6.892v5.2h7.293v-5.2h6.892v5.2h2.094v-32.56h5.2v-32.76h-5.2v-32.36h5.2zm-19.25-13.305v13.654h-5v-13.654zm0 27.71v13.653h-5v-13.654zm0 27.708v13.654h-5v-13.654zm0 27.71v13.653h-5v-13.654zm0 27.708v13.654h-5v-13.654z" style="vector-effect:non-scaling-stroke;fill:none;stroke:#000;stroke-width:.264583;stroke-dasharray:none;stroke-opacity:1;-inkscape-stroke:hairline" transform="translate(410.256 -41.34)"/>
    <path fill="none" stroke="#000" stroke-width=".1mm" d="M671.175 590.221h-152.6v-18.645h-5.2V552.73h5.2v-18.645h33.396l.495.023.493.071.484.115.471.161.453.204.433.245.408.286.379.322.347.356.313.387.274.416.69 1.285.536.799.611.743.681.679.745.609.8.534.85.452.889.369.92.278.944.187.957.094h.962l.957-.094.944-.187.92-.278.889-.369.85-.452.8-.534.745-.609.681-.679.611-.743.536-.799.69-1.285.274-.416.313-.387.347-.356.379-.322.408-.286.433-.245.453-.204.471-.161.484-.115.493-.071.495-.023h31.192l.495.023.493.071.484.115.471.161.453.204.433.245.408.286.379.322.347.356.313.387.274.416.69 1.285.536.799.611.743.681.679.745.609.8.534.85.452.889.369.92.278.944.187.957.094h.962l.957-.094.944-.187.92-.278.889-.369.85-.452.8-.534.745-.609.681-.679.611-.743.536-.799.69-1.285.274-.416.313-.387.347-.356.379-.322.408-.286.433-.245.453-.204.471-.161.484-.115.493-.071.495-.023h33.396v18.645h5.2v18.846h-5.2v18.645" style="vector-effect:non-scaling-stroke;fill:none;stroke:#000;stroke-width:.264583;stroke-dasharray:none;stroke-opacity:1;-inkscape-stroke:hairline" transform="rotate(-90 364.418 408.21)"/>
    <path fill="none" stroke="#000" stroke-width=".1mm" d="M671.175 590.221h-152.6v-18.645h-5.2V552.73h5.2v-18.645h33.396l.495.023.493.071.484.115.471.161.453.204.433.245.408.286.379.322.347.356.313.387.274.416.69 1.285.536.799.611.743.681.679.745.609.8.534.85.452.889.369.92.278.944.187.957.094h.962l.957-.094.944-.187.92-.278.889-.369.85-.452.8-.534.745-.609.681-.679.611-.743.536-.799.69-1.285.274-.416.313-.387.347-.356.379-.322.408-.286.433-.245.453-.204.471-.161.484-.115.493-.071.495-.023h31.192l.495.023.493.071.484.115.471.161.453.204.433.245.408.286.379.322.347.356.313.387.274.416.69 1.285.536.799.611.743.681.679.745.609.8.534.85.452.889.369.92.278.944.187.957.094h.962l.957-.094.944-.187.92-.278.889-.369.85-.452.8-.534.745-.609.681-.679.611-.743.536-.799.69-1.285.274-.416.313-.387.347-.356.379-.322.408-.286.433-.245.453-.204.471-.161.484-.115.493-.071.495-.023h33.396v18.645h5.2v18.846h-5.2v18.645" style="vector-effect:non-scaling-stroke;fill:none;stroke:#000;stroke-width:.264583;stroke-dasharray:none;stroke-opacity:1;-inkscape-stroke:hairline" transform="rotate(90 720.75 303.628)"/>
    <path fill="none" stroke="#000" stroke-width=".1mm" d="M777.975 649.018h163v11.019h-5.2v10.618h5.2v16.219h-32.76v-5.2h-32.36v5.2h-32.76v-5.2h-32.36v5.2h-32.76v-16.219h5.2v-10.618h-5.2v-11.019" style="vector-effect:non-scaling-stroke;fill:none;stroke:#000;stroke-width:.264583;stroke-dasharray:none;stroke-opacity:1;-inkscape-stroke:hairline" transform="rotate(-90 467.32 569.908)"/>
    <path fill="none" stroke="#000" stroke-width=".1mm" d="M777.975 649.018h163v11.019h-5.2v10.618h5.2v16.219h-32.76v-5.2h-32.36v5.2h-32.76v-5.2h-32.36v5.2h-32.76v-16.219h5.2v-10.618h-5.2v-11.019" style="vector-effect:non-scaling-stroke;fill:none;stroke:#000;stroke-width:.264583;stroke-dasharray:none;stroke-opacity:1;-inkscape-stroke:hairline" transform="rotate(90 976.441 294.719)"/>
    <path d="m385.499 618.143 5.33 2.208 14.323-14.323v-1.305h5v23.837h-5.2v24.236h5.2v23.836h-5.2v24.237h5.2v23.836h-5v-23.568h-5.722l-13.528 13.529v18.787h5.2v18.445h-5.2v18.812l4.927 2.04 14.323-14.322v-9.486h5v23.836h-5.2v24.236h5.2v23.837h-5.2v19.036h10.2v5.2h10.4v-5.2h10.2V820.85h-5.2v-23.837h5v14.535l5.4-8.287v-193.65l-5.2-7.98v-15.945h-7.093v-5.2h-7.293v5.2h-6.893v-5.2h-7.292v5.2h-6.893v-5.2h-7.293v5.2h-1.893v10.819h-5.2v11.018h5.2v10.619zm45.053 154.635v-23.836h5v23.836zm0-48.073v-23.836h5v23.836zm0-48.073v-23.836h5v23.836zm0-48.072v-23.837h5v23.837z" style="vector-effect:non-scaling-stroke;fill:none;stroke:#000;stroke-width:.264583;stroke-dasharray:none;stroke-opacity:1;-inkscape-stroke:hairline" transform="translate(410.256 -41.34)"/>
    <path d="m405.355 792.137-5.33-2.208-14.323 14.323v1.305h-5V781.72h5.2v-24.236h-5.2v-23.836h5.2v-24.237h-5.2v-23.836h5v23.568h5.722l13.528-13.53v-18.786h-5.2v-18.445h5.2V639.57l-4.927-2.041-14.323 14.323v9.486h-5v-23.836h5.2v-24.236h-5.2v-23.837h5.2v-19.036h-10.2v-5.2h-10.4v5.2h-10.2v19.036h5.2v23.837h-5V598.73l-5.4 8.287v193.65l5.2 7.98v15.945h7.093v5.2h7.293v-5.2h6.893v5.2h7.292v-5.2h6.893v5.2h7.293v-5.2h1.893v-10.819h5.2v-11.018h-5.2v-10.619zm-45.053-154.635v23.836h-5v-23.836zm0 48.073v23.836h-5v-23.836zm0 48.073v23.836h-5v-23.836zm0 48.072v23.837h-5V781.72zM385.499 353.542l5.33 2.208 14.323-14.323v-1.305h5v23.837h-5.2v24.237h5.2v23.835h-5.2v24.238h5.2v23.835h-5v-23.568h-5.722l-13.528 13.53v18.787h5.2v18.444h-5.2v18.812l4.927 2.041 14.323-14.323v-9.485h5v23.835h-5.2v24.237h5.2v23.836h-5.2v19.036h10.2v5.2h10.4v-5.2h10.2V556.25h-5.2v-23.836h5v14.535l5.4-8.288v-193.65l-5.2-7.98v-15.945h-7.093v-5.2h-7.293v5.2h-6.893v-5.2h-7.292v5.2h-6.893v-5.2h-7.293v5.2h-1.893v10.82h-5.2v11.017h5.2v10.62zm45.053 154.635v-23.835h5v23.835zm0-48.073V436.27h5v23.835zm0-48.073v-23.835h5v23.835zm0-48.072v-23.837h5v23.837z" style="vector-effect:non-scaling-stroke;fill:none;stroke:#000;stroke-width:.264583;stroke-dasharray:none;stroke-opacity:1;-inkscape-stroke:hairline" transform="translate(410.256 -41.34)"/>
    <path d="m405.355 527.537-5.33-2.208-14.323 14.323v1.305h-5V517.12h5.2v-24.236h-5.2v-23.836h5.2V444.81h-5.2v-23.836h5v23.568h5.722l13.528-13.53v-18.786h-5.2v-18.445h5.2V374.97l-4.927-2.041-14.323 14.323v9.486h-5v-23.836h5.2v-24.236h-5.2v-23.837h5.2v-19.036h-10.2v-5.2h-10.4v5.2h-10.2v19.036h5.2v23.837h-5V334.13l-5.4 8.288v193.65l5.2 7.98v15.945h7.093v5.2h7.293v-5.2h6.893v5.2h7.292v-5.2h6.893v5.2h7.293v-5.2h1.893v-10.82h5.2v-11.017h-5.2v-10.62zm-45.053-154.635v23.836h-5v-23.836zm0 48.073v23.836h-5v-23.836Zm0 48.073v23.836h-5v-23.836zm0 48.072v23.837h-5V517.12zM42.957 565.192v5.2H29.102v18.837h-5.2v24.236h5.2v23.836h-5.2v24.236h5.2v23.837h-5.2v24.236h5.2v23.837h-5.2v24.236h5.2v23.836h-5.2v24.237h5.2v18.837h13.855v5.2H57.01v-5.2h13.655v5.2H84.72v-5.2h13.655v5.2h14.054v-5.2h13.655v5.2h14.053v-5.2h13.655v5.2h14.055v-5.2h13.855v-18.837h5.2V781.52h-5.2v-23.836h5.2v-24.236h-5.2V709.61h5.2v-24.236h-5.2v-23.837h5.2v-24.236h-5.2v-23.836h5.2V589.23h-5.2v-18.836h-13.855v-5.2h-14.055v5.2h-13.655v-5.2h-14.053v5.2h-13.655v-5.2H98.375v5.2H84.72v-5.2H70.666v5.2H57.01v-5.2zm59.944 53.026h5v24.293h-5zm-26.912 16.85h.325l.326.033.32.064.313.098.302.126.287.155.269.185.25.21.228.235.205.254.177.275.149.291.118.305.09.313.057.322.023.326-.008.326-.04.325-.073.318-.103.31-.135.298-.164.284-.19.264-.217.246-.24.222-.26.197-.279.171-.295.141-.306.113-.317.08-.323.048-.326.017-.327-.017-.323-.048-.317-.08-.306-.113-.295-.14-.28-.172-.26-.197-.239-.222-.217-.246-.19-.264-.164-.284-.134-.298-.104-.31-.073-.318-.04-.325-.009-.326.024-.326.057-.322.09-.313.118-.305.15-.29.176-.276.204-.254.228-.235.251-.21.27-.185.286-.155.302-.126.312-.098.321-.064zm58.5 0h.326l.325.033.32.064.313.098.302.126.286.155.27.185.25.21.229.235.204.254.177.275.148.291.12.305.089.313.056.322.025.326-.008.326-.041.325-.072.318-.104.31-.135.298-.163.284-.191.264-.217.246-.239.222-.26.197-.279.171-.295.141-.306.113-.318.08-.323.048-.326.017-.326-.017-.323-.048-.318-.08-.306-.113-.295-.14-.28-.172-.26-.197-.238-.222-.217-.246-.191-.264-.163-.284-.135-.298-.104-.31-.072-.318-.041-.325-.008-.326.024-.326.057-.322.089-.313.119-.305.15-.29.176-.276.204-.254.228-.235.251-.21.269-.185.287-.155.302-.126.312-.098.32-.064zM102.9 667.203h5v24.293h-5zm0 48.985h5v24.293h-5zm0 48.986h5v24.294h-5zm-26.912.894h.325l.326.034.32.064.313.096.302.126.287.156.269.184.25.211.228.234.205.256.177.275.149.29.118.304.09.315.057.321.023.327-.008.326-.04.325-.073.317-.103.31-.135.298-.164.283-.19.266-.217.245-.24.223-.26.197-.279.17-.295.141-.306.112-.317.081-.323.048-.326.018-.327-.018-.323-.048-.317-.08-.306-.113-.295-.14-.28-.171-.26-.197-.239-.223-.217-.245-.19-.266-.164-.283-.134-.297-.104-.31-.073-.318-.04-.325-.009-.326.024-.327.057-.321.09-.315.118-.304.15-.29.176-.275.204-.256.228-.234.251-.21.27-.185.286-.156.302-.126.312-.096.321-.064zm58.5 0h.326l.325.034.32.064.313.096.302.126.286.156.27.184.25.211.229.234.204.256.177.275.148.29.12.304.089.315.056.321.025.327-.008.326-.041.325-.072.317-.104.31-.135.298-.163.283-.191.266-.217.245-.239.223-.26.197-.279.17-.295.141-.306.112-.318.081-.323.048-.326.018-.326-.018-.323-.048-.318-.08-.306-.113-.295-.14-.28-.171-.26-.197-.238-.223-.217-.245-.191-.266-.163-.283-.135-.297-.104-.31-.072-.318-.041-.325-.008-.326.024-.327.057-.321.089-.315.119-.304.15-.29.176-.275.204-.256.228-.234.251-.21.269-.185.287-.156.302-.126.312-.096.32-.064zM42.957 300.593v5.2H29.102v18.835h-5.2v24.238h5.2V372.7h-5.2v24.237h5.2v23.836h-5.2v24.237h5.2v23.836h-5.2v24.237h5.2v23.835h-5.2v24.238h5.2v18.835h13.855v5.2H57.01v-5.2h13.655v5.2H84.72v-5.2h13.655v5.2h14.054v-5.2h13.655v5.2h14.053v-5.2h13.655v5.2h14.055v-5.2h13.855v-18.835h5.2v-24.238h-5.2v-23.835h5.2v-24.237h-5.2v-23.836h5.2v-24.237h-5.2v-23.836h5.2V372.7h-5.2v-23.835h5.2v-24.238h-5.2v-18.836h-13.855v-5.2h-14.055v5.2h-13.655v-5.2h-14.053v5.2h-13.655v-5.2H98.375v5.2H84.72v-5.2H70.666v5.2H57.01v-5.2zm1.847 15.8h121.195l.503.023.494.074.486.121.472.17.452.214.428.256.402.299.372.336.336.37.299.403.256.43.215.451.168.473.122.484.073.494.024.504v27.695l-.024.502-.073.494-.122.487-.168.47-.215.453-.256.43-.299.402-.337.37-.37.337-.403.297-.428.258-.452.213-.472.17-.486.12-.494.074-.503.026h-58.097v23.617h-5v-23.617H44.803l-.503-.026-.494-.074-.485-.12-.472-.17-.452-.213-.43-.258-.401-.297-.371-.336-.337-.371-.298-.402-.257-.43-.213-.453-.17-.47-.121-.487-.073-.494-.025-.502v-27.695l.025-.504.073-.494.122-.484.169-.473.213-.451.257-.43.298-.402.337-.371.37-.336.403-.299.429-.256.452-.214.472-.17.485-.12.494-.075zm30.858 47.54h.98l.974.099.959.193.936.288.902.38.86.468.808.552.75.63.685.7.61.767.53.821.448.873.358.91.264.943.17.963.074.978-.025.977-.121.972-.218.954-.312.93-.402.891-.49.848-.571.795-.65.735-.716.666-.78.59-.836.511-.882.425-.921.335-.948.242-.969.146-.977.048-.978-.048-.968-.146-.948-.243-.922-.334-.881-.425-.836-.51-.78-.591-.717-.666-.65-.735-.57-.795-.49-.848-.402-.892-.312-.929-.219-.954-.121-.972-.024-.977.073-.978.17-.963.265-.942.358-.911.447-.873.53-.821.61-.767.685-.7.75-.63.809-.552.858-.467.904-.38.936-.289.959-.193zm58.5 0h.98l.973.099.96.193.935.288.904.38.859.468.808.552.75.63.685.7.61.767.53.821.448.873.358.91.264.943.17.963.074.978-.024.977-.122.972-.218.954-.312.93-.402.891-.49.848-.571.795-.65.735-.716.666-.78.59-.836.511-.882.425-.921.335-.948.242-.968.146-.978.048-.978-.048-.968-.146-.948-.243-.921-.334-.882-.425-.836-.51-.78-.591-.718-.666-.648-.735-.571-.795-.49-.848-.403-.892-.311-.929-.218-.954-.121-.972-.025-.977.073-.978.171-.963.264-.942.358-.911.447-.873.53-.821.61-.767.685-.7.75-.63.809-.552.859-.467.903-.38.936-.289.959-.193zm-31.26 38.67h5v24.293h-5zm0 48.985h5v24.294h-5zm-27.24 43.346h.98l.974.097.959.195.936.287.902.38.86.468.808.551.75.63.685.701.61.766.53.822.448.872.358.911.264.942.17.964.074.977-.025.979-.121.972-.218.954-.312.928-.402.893-.49.847-.571.795-.65.734-.716.666-.78.591-.836.512-.882.423-.921.335-.948.244-.969.144-.977.05-.978-.05-.968-.144-.948-.244-.922-.335-.881-.423-.836-.512-.78-.59-.717-.667-.65-.734-.57-.795-.49-.847-.402-.893-.312-.928-.219-.954-.121-.972-.024-.979.073-.977.17-.964.265-.942.358-.91.447-.873.53-.822.61-.766.685-.7.75-.63.809-.552.858-.468.904-.38.936-.287.959-.195zm58.5 0h.98l.973.097.96.195.935.287.904.38.859.468.808.551.75.63.685.701.61.766.53.822.448.872.358.911.264.942.17.964.074.977-.024.979-.122.972-.218.954-.312.928-.402.893-.49.847-.571.795-.65.734-.716.666-.78.591-.836.512-.882.423-.921.335-.948.244-.968.144-.978.05-.978-.05-.968-.144-.948-.244-.921-.335-.882-.423-.836-.512-.78-.59-.718-.667-.648-.734-.571-.795-.49-.847-.403-.893-.311-.928-.218-.954-.121-.972-.025-.979.073-.977.171-.964.264-.942.358-.91.447-.873.53-.822.61-.766.685-.7.75-.63.809-.552.859-.468.903-.38.936-.287.959-.195zm-31.26 5.64h5v24.293h-5z" style="vector-effect:non-scaling-stroke;fill:none;stroke:#000;stroke-width:.264583;stroke-dasharray:none;stroke-opacity:1;-inkscape-stroke:hairline" transform="translate(410.256 -41.34)"/>
    <path d="M330.846 565.192v-5.2h13.855v-18.836h5.2V516.92h-5.2v-23.835h5.2v-24.237h-5.2v-23.836h5.2v-24.237h-5.2v-23.836h5.2V372.7h-5.2v-23.835h5.2v-24.238h-5.2v-18.836h-13.855v-5.2h-14.054v5.2h-13.655v-5.2h-14.054v5.2h-13.655v-5.2h-14.053v5.2H247.72v-5.2h-14.054v5.2H220.01v-5.2h-14.055v5.2h-13.855v18.836h-5.2v24.238h5.2V372.7h-5.2v24.237h5.2v23.836h-5.2v24.237h5.2v23.836h-5.2v24.237h5.2v23.835h-5.2v24.237h5.2v18.836h13.855v5.2h14.055v-5.2h13.655v5.2h14.054v-5.2h13.655v5.2h14.053v-5.2h13.655v5.2h14.054v-5.2h13.655v5.2zm-59.944-53.025h-5v-24.293h5zm26.912-16.85h-.325l-.325-.034-.321-.064-.312-.097-.303-.126-.287-.155-.269-.185-.25-.21-.228-.235-.204-.255-.178-.275-.149-.29-.118-.305-.09-.314-.057-.321-.023-.327.008-.326.04-.325.073-.317.104-.31.134-.299.164-.283.19-.264.217-.246.24-.223.26-.197.279-.17.295-.142.306-.112.318-.08.322-.048.327-.017.326.017.323.048.317.08.306.112.295.141.28.171.26.197.239.223.217.246.19.264.164.283.135.298.103.31.073.318.04.325.009.326-.024.327-.057.321-.09.314-.118.305-.149.29-.177.275-.204.255-.228.234-.25.211-.27.185-.287.155-.302.126-.312.097-.321.064zm-58.5 0h-.326l-.325-.034-.32-.064-.313-.097-.302-.126-.286-.155-.27-.185-.25-.21-.229-.235-.204-.255-.177-.275-.148-.29-.12-.305-.089-.314-.056-.321-.025-.327.008-.326.041-.325.072-.317.104-.31.135-.299.163-.283.191-.264.217-.246.239-.223.26-.197.279-.17.295-.142.306-.112.318-.08.323-.048.326-.017.326.017.323.048.318.08.306.112.295.141.28.171.26.197.238.223.217.246.191.264.163.283.135.298.104.31.072.318.041.325.008.326-.024.327-.057.321-.089.314-.119.305-.149.29-.177.275-.204.255-.228.234-.25.211-.27.185-.287.155-.302.126-.312.097-.32.064zm31.588-32.135h-5v-24.294h5zm0-48.986h-5v-24.293h5zm0-48.986h-5v-24.293h5zm26.912-.894h-.325l-.325-.033-.321-.064-.312-.097-.303-.126-.287-.156-.269-.184-.25-.21-.228-.235-.204-.255-.178-.275-.149-.29-.118-.305-.09-.314-.057-.322-.023-.326.008-.326.04-.325.073-.318.104-.31.134-.297.164-.284.19-.265.217-.246.24-.222.26-.197.279-.17.295-.141.306-.113.318-.08.322-.049.327-.017.326.017.323.048.317.081.306.113.295.14.28.171.26.197.239.222.217.246.19.265.164.284.135.297.103.31.073.318.04.325.009.326-.024.326-.057.322-.09.314-.118.304-.149.291-.177.275-.204.255-.228.234-.25.211-.27.184-.287.156-.302.126-.312.097-.321.064zm-58.5 0h-.326l-.325-.033-.32-.064-.313-.097-.302-.126-.286-.156-.27-.184-.25-.21-.229-.235-.204-.255-.177-.275-.148-.29-.12-.305-.089-.314-.056-.322-.025-.326.008-.326.041-.325.072-.318.104-.31.135-.297.163-.284.191-.265.217-.246.239-.222.26-.197.279-.17.295-.141.306-.113.318-.08.323-.049.326-.017.326.017.323.048.318.081.306.113.295.14.28.171.26.197.238.222.217.246.191.265.163.284.135.297.104.31.072.318.041.325.008.326-.024.326-.057.322-.089.314-.119.304-.149.291-.177.275-.204.255-.228.234-.25.211-.27.184-.287.156-.302.126-.312.097-.32.064zM330.846 829.792v-5.2h13.855v-18.836h5.2V781.52h-5.2v-23.836h5.2v-24.236h-5.2V709.61h5.2v-24.236h-5.2v-23.837h5.2v-24.236h-5.2v-23.836h5.2v-24.237h-5.2v-18.835h-13.855v-5.2h-14.054v5.2h-13.655v-5.2h-14.054v5.2h-13.655v-5.2h-14.053v5.2H247.72v-5.2h-14.054v5.2H220.01v-5.2h-14.055v5.2h-13.855v18.835h-5.2v24.237h5.2v23.836h-5.2v24.236h5.2v23.837h-5.2v24.236h5.2v23.837h-5.2v24.236h5.2v23.836h-5.2v24.237h5.2v18.837h13.855v5.2h14.055v-5.2h13.655v5.2h14.054v-5.2h13.655v5.2h14.053v-5.2h13.655v5.2h14.054v-5.2h13.655v5.2zm-1.847-15.8H207.804l-.503-.024-.494-.074-.485-.12-.473-.17-.451-.214-.43-.257-.401-.298-.371-.336-.337-.37-.299-.403-.256-.43-.215-.451-.168-.473-.122-.485-.073-.494-.024-.503v-27.695l.024-.503.073-.494.122-.486.168-.47.215-.453.256-.43.299-.402.337-.37.37-.337.403-.297.429-.258.451-.214.473-.169.485-.12.494-.075.503-.025H265.9v-23.618h5v23.618H329l.503.025.494.074.485.121.472.17.452.213.43.258.401.297.371.336.337.371.298.402.257.43.213.452.17.471.121.486.074.494.024.503v27.695l-.024.503-.074.494-.122.485-.169.473-.213.451-.257.43-.298.402-.337.371-.37.336-.403.298-.429.257-.452.214-.472.17-.485.12-.494.074zm-30.858-47.54h-.98l-.974-.099-.959-.194-.936-.287-.902-.38-.86-.468-.807-.552-.752-.63-.684-.7-.61-.767-.53-.822-.448-.872-.358-.91-.264-.943-.17-.964-.074-.977.025-.978.122-.972.217-.954.312-.929.402-.892.49-.848.571-.794.65-.735.717-.666.78-.59.835-.512.883-.424.92-.335.948-.243.969-.145.977-.048.979.048.967.145.948.243.922.335.881.424.836.511.78.591.717.666.65.735.57.794.49.848.402.892.313.93.218.953.122.972.023.978-.073.977-.17.964-.265.942-.358.911-.447.872-.53.822-.61.766-.684.701-.752.63-.808.552-.858.467-.904.38-.936.288-.959.194zm-58.5 0h-.98l-.973-.099-.96-.194-.935-.287-.904-.38-.859-.468-.808-.552-.75-.63-.685-.7-.61-.767-.53-.822-.448-.872-.357-.91-.265-.943-.17-.964-.073-.977.023-.978.122-.972.218-.954.313-.929.402-.892.49-.848.57-.794.65-.735.716-.666.78-.59.836-.512.882-.424.921-.335.948-.243.968-.145.979-.048.977.048.968.145.948.243.921.335.882.424.837.511.78.591.717.666.648.735.571.794.49.848.403.892.311.93.218.953.121.972.026.978-.074.977-.17.964-.264.942-.359.911-.447.872-.53.822-.61.766-.685.701-.75.63-.809.552-.859.467-.902.38-.937.288-.958.194zm31.26-38.67h-5v-24.294h5zm0-48.986h-5v-24.293h5zm27.24-43.345h-.98l-.974-.097-.959-.195-.936-.288-.902-.38-.86-.468-.807-.55-.752-.63-.684-.702-.61-.766-.53-.822-.448-.872-.358-.91-.264-.943-.17-.963-.074-.978.025-.978.122-.972.217-.954.312-.928.402-.893.49-.847.571-.796.65-.733.717-.667.78-.59.835-.512.883-.424.92-.334.948-.244.969-.145.977-.049.979.05.967.144.948.244.922.334.881.424.836.511.78.591.717.667.65.733.57.796.49.847.402.893.313.928.218.954.122.972.023.978-.073.978-.17.963-.265.942-.358.911-.447.872-.53.822-.61.766-.684.702-.752.63-.808.55-.858.469-.904.38-.936.287-.959.195zm-58.5 0h-.98l-.973-.097-.96-.195-.935-.288-.904-.38-.859-.468-.808-.55-.75-.63-.685-.702-.61-.766-.53-.822-.448-.872-.357-.91-.265-.943-.17-.963-.073-.978.023-.978.122-.972.218-.954.313-.928.402-.893.49-.847.57-.796.65-.733.716-.667.78-.59.836-.512.882-.424.921-.334.948-.244.968-.145.979-.049.977.05.968.144.948.244.921.334.882.424.837.511.78.591.717.667.648.733.571.796.49.847.403.893.311.928.218.954.121.972.026.978-.074.978-.17.963-.264.942-.359.911-.447.872-.53.822-.61.766-.685.702-.75.63-.809.55-.859.469-.902.38-.937.287-.958.195zm31.26-5.64h-5v-24.293h5z" style="vector-effect:non-scaling-stroke;fill:none;stroke:#000;stroke-width:.264583;stroke-dasharray:none;stroke-opacity:1;-inkscape-stroke:hairline" transform="translate(410.256 -41.34)"/>
</svg>
