<?xml version="1.0" encoding="UTF-8" standalone="no"?>
<svg
   width="1300mm"
   height="900mm"
   viewBox="0 0 1300 900"
   version="1.1"
   id="svg41"
   sodipodi:docname="LightStand.svg"
   inkscape:version="1.3.2 (091e20ef0f, 2023-11-25)"
   xmlns:inkscape="http://www.inkscape.org/namespaces/inkscape"
   xmlns:sodipodi="http://sodipodi.sourceforge.net/DTD/sodipodi-0.dtd"
   xmlns="http://www.w3.org/2000/svg"
   xmlns:svg="http://www.w3.org/2000/svg">
  <defs
     id="defs41" />
  <sodipodi:namedview
     id="namedview41"
     pagecolor="#505050"
     bordercolor="#eeeeee"
     borderopacity="1"
     inkscape:showpageshadow="0"
     inkscape:pageopacity="0"
     inkscape:pagecheckerboard="0"
     inkscape:deskcolor="#505050"
     inkscape:document-units="mm"
     inkscape:zoom="0.06095593"
     inkscape:cx="-1230.3971"
     inkscape:cy="1681.5427"
     inkscape:window-width="1920"
     inkscape:window-height="1011"
     inkscape:window-x="0"
     inkscape:window-y="32"
     inkscape:window-maximized="1"
     inkscape:current-layer="svg41" />
  <g
     id="g49"
     transform="translate(410.25553,-41.33956)">
    <polyline
       z="0"
       points="777.975,711.526 802.668,711.526 802.668,716.726 826.961,716.726 826.961,711.526 851.654,711.526 851.654,716.726 875.946,716.726 875.946,711.526 900.639,711.526 900.639,716.726 924.932,716.726 924.932,711.526 949.625,711.526 949.625,742.326 924.932,742.326 924.932,737.126 900.639,737.126 900.639,742.326 875.946,742.326 875.946,737.126 851.654,737.126 851.654,742.326 826.961,742.326 826.961,737.126 802.668,737.126 802.668,742.326 777.975,742.326 777.975,711.526"
       fill="none"
       stroke="black"
       stroke-width="0.1mm"
       id="polyline32"
       style="vector-effect:non-scaling-stroke;fill:none;stroke:#000000;stroke-width:0.264583;stroke-dasharray:none;stroke-opacity:1;-inkscape-stroke:hairline"
       transform="rotate(-90,384.83918,702.37792)" />
    <polyline
       z="0"
       points="777.975,711.526 802.668,711.526 802.668,716.726 826.961,716.726 826.961,711.526 851.654,711.526 851.654,716.726 875.946,716.726 875.946,711.526 900.639,711.526 900.639,716.726 924.932,716.726 924.932,711.526 949.625,711.526 949.625,742.326 924.932,742.326 924.932,737.126 900.639,737.126 900.639,742.326 875.946,742.326 875.946,737.126 851.654,737.126 851.654,742.326 826.961,742.326 826.961,737.126 802.668,737.126 802.668,742.326 777.975,742.326 777.975,711.526"
       fill="none"
       stroke="black"
       stroke-width="0.1mm"
       id="polyline32-2"
       style="vector-effect:non-scaling-stroke;fill:none;stroke:#000000;stroke-width:0.264583;stroke-dasharray:none;stroke-opacity:1;-inkscape-stroke:hairline"
       transform="rotate(90,903.74808,263.36518)" />
    <path
       id="polyline15"
       d="m 253.08733,251.99442 0.0253,0.51779 0.077,0.51419 0.12609,0.50384 0.17467,0.48988 0.22324,0.47027 0.26665,0.447 0.31006,0.41806 0.34933,0.38499 0.38499,0.34882 0.41806,0.31006 0.447,0.26716 0.46974,0.2217 0.4899,0.17621 0.50436,0.12609 0.51366,0.077 1.02009,0.0501 0.49403,0.0729 0.48576,0.12196 0.47232,0.16898 0.45165,0.21291 0.42943,0.25683 0.40205,0.29817 0.37103,0.33693 0.33693,0.37104 0.29766,0.40204 0.25735,0.42891 0.21291,0.45217 0.16898,0.47181 0.12195,0.48627 0.0729,0.49403 0.0253,0.50178 v 5.28908 h 5.19968 v 13.65395 h -5.19968 v 19.25515 h 10.39988 v -5.2002 h 9.99991 v 5.2002 h 10.39988 v -19.25515 h -5.19968 v -13.65395 h 5.19968 v -14.05495 h -5.19968 v -13.65395 h 5.19968 v -14.05496 h -5.19968 v -13.65394 h 5.19968 v -14.05548 h -5.19968 v -13.65394 h 5.19968 v -14.05496 h -5.19968 v -13.65395 h 5.19968 V 137.5921 h -10.39987 v 5.2002 h -9.99991 v -5.2002 h -10.39988 v 19.25515 h 5.19968 v 13.65395 h -5.19968 v 5.28908 l -0.0253,0.5023 -0.0729,0.49402 -0.12195,0.48576 -0.16898,0.47181 -0.21291,0.45217 -0.25735,0.42891 -0.29766,0.40204 -0.33693,0.37104 -0.37103,0.33693 -0.40205,0.29817 -0.42943,0.25684 -0.45165,0.2129 -0.47232,0.16899 -0.48576,0.12195 -0.49403,0.0734 -1.02009,0.0496 -0.51366,0.077 -0.50436,0.12609 -0.4899,0.17518 -0.46974,0.22273 -0.447,0.26717 -0.41806,0.31005 -0.38499,0.34882 -0.34933,0.38499 -0.31006,0.41806 -0.26665,0.447 -0.22324,0.47026 -0.17467,0.48989 -0.12609,0.50385 -0.077,0.51418 -0.0253,0.51779 z m 10.60039,1.63401 v -13.65395 h 4.99969 v 13.65395 z m 0,-27.70891 v -13.65394 h 4.99969 v 13.65394 z m 0,-27.70942 v -13.65394 h 4.99969 v 13.65394 z"
       style="vector-effect:non-scaling-stroke;fill:none;stroke:#000000;stroke-width:0.264583;stroke-dasharray:none;stroke-opacity:1;-inkscape-stroke:hairline" />
    <path
       id="polyline15-7"
       d="m 253.08681,186.19017 -0.0253,-0.51779 -0.077,-0.51419 -0.12609,-0.50384 -0.17467,-0.48989 -0.22324,-0.47026 -0.26665,-0.447 -0.31006,-0.41806 -0.34933,-0.38499 -0.38499,-0.34882 -0.41806,-0.31006 -0.447,-0.26716 -0.46974,-0.2217 -0.4899,-0.17621 -0.50436,-0.12609 -0.51366,-0.077 -1.02009,-0.0501 -0.49403,-0.0729 -0.48576,-0.12196 -0.47232,-0.16898 -0.45165,-0.21291 -0.42943,-0.25683 -0.40205,-0.29817 -0.37103,-0.33693 -0.33693,-0.37104 -0.29766,-0.40204 -0.25735,-0.42891 -0.21291,-0.45217 -0.16898,-0.47181 -0.12195,-0.48627 -0.0729,-0.49403 -0.0253,-0.50178 v -5.28908 h -5.19968 v -13.65395 h 5.19968 V 137.5921 h -10.39988 v 5.2002 h -9.99992 v -5.2002 h -10.39988 v 19.25515 h 5.19968 v 13.65395 h -5.19968 v 14.05495 h 5.19968 v 13.65395 h -5.19968 v 14.05496 h 5.19968 V 225.919 h -5.19968 v 14.05548 h 5.19968 v 13.65394 h -5.19968 v 14.05496 h 5.19968 v 13.65395 h -5.19968 v 19.25516 h 10.39987 v -5.2002 h 9.99992 v 5.2002 h 10.39988 v -19.25515 h -5.19968 v -13.65395 h 5.19968 v -5.28908 l 0.0253,-0.5023 0.0729,-0.49402 0.12195,-0.48576 0.16898,-0.47181 0.21291,-0.45217 0.25735,-0.42891 0.29766,-0.40204 0.33693,-0.37104 0.37103,-0.33693 0.40205,-0.29817 0.42943,-0.25684 0.45165,-0.2129 0.47232,-0.16899 0.48576,-0.12195 0.49403,-0.0734 1.02009,-0.0496 0.51366,-0.077 0.50436,-0.12609 0.4899,-0.17518 0.46974,-0.22273 0.447,-0.26717 0.41806,-0.31005 0.38499,-0.34882 0.34933,-0.38499 0.31006,-0.41806 0.26665,-0.447 0.22324,-0.47026 0.17467,-0.48989 0.12609,-0.50385 0.077,-0.51418 0.0253,-0.51779 z m -10.60039,-1.63401 v 13.65395 h -4.99969 v -13.65395 z m 0,27.70891 v 13.65394 h -4.99969 v -13.65394 z m 0,27.70942 v 13.65394 h -4.99969 v -13.65394 z"
       style="vector-effect:non-scaling-stroke;fill:none;stroke:#000000;stroke-width:0.264583;stroke-dasharray:none;stroke-opacity:1;-inkscape-stroke:hairline" />
    <path
       id="polyline24"
       d="m 344.13759,268.0322 h 5.19968 v 32.56028 h 2.09341 v -5.2002 h 6.89261 v 5.2002 h 7.29309 v -5.2002 h 6.89209 v 5.2002 h 7.29309 v -5.2002 h 6.89312 v 5.2002 h 7.29258 v -19.25515 h -5.19968 v -13.65395 h 5.19968 v -14.05495 h -5.19968 v -13.65395 h 5.19968 v -14.05496 h -5.19968 v -13.65394 h 5.19968 V 198.2101 h -5.19968 v -13.65394 h 5.19968 V 170.5012 h -5.19968 v -13.65395 h 5.19968 V 137.5921 h -7.29258 v 5.2002 h -6.89312 v -5.2002 h -7.29309 v 5.2002 h -6.89209 v -5.2002 h -7.29309 v 5.2002 h -6.89261 v -5.2002 h -2.09341 v 32.56028 h -5.19968 v 32.75976 h 5.19968 v 32.3603 h -5.19968 z m 19.24999,13.30513 v -13.65395 h 4.99969 v 13.65395 z m 0,-27.7089 v -13.65395 h 4.99969 v 13.65395 z m 0,-27.70891 v -13.65394 h 4.99969 v 13.65394 z m 0,-27.70942 v -13.65394 h 4.99969 v 13.65394 z m 0,-27.7089 v -13.65395 h 4.99969 v 13.65395 z"
       style="vector-effect:non-scaling-stroke;fill:none;stroke:#000000;stroke-width:0.264583;stroke-dasharray:none;stroke-opacity:1;-inkscape-stroke:hairline" />
    <path
       id="polyline24-3"
       d="m 344.13759,170.15238 h -5.19968 V 137.5921 h -2.09341 v 5.2002 h -6.89261 v -5.2002 h -7.29309 v 5.2002 h -6.89209 v -5.2002 h -7.29309 v 5.2002 h -6.89312 v -5.2002 h -7.29258 v 19.25515 h 5.19968 v 13.65395 h -5.19968 v 14.05495 h 5.19968 v 13.65395 h -5.19968 v 14.05496 h 5.19968 V 225.919 h -5.19968 v 14.05548 h 5.19968 v 13.65394 h -5.19968 v 14.05496 h 5.19968 v 13.65395 h -5.19968 v 19.25515 h 7.29258 v -5.2002 h 6.89312 v 5.2002 h 7.29309 v -5.2002 h 6.89209 v 5.2002 h 7.29309 v -5.2002 h 6.89261 v 5.2002 h 2.09341 V 268.0322 h 5.19968 v -32.75976 h -5.19968 v -32.3603 h 5.19968 z M 324.8876,156.84725 v 13.65395 h -4.99969 v -13.65395 z m 0,27.7089 v 13.65395 h -4.99969 v -13.65395 z m 0,27.70891 V 225.919 h -4.99969 v -13.65394 z m 0,27.70942 v 13.65394 h -4.99969 v -13.65394 z m 0,27.7089 v 13.65395 h -4.99969 v -13.65395 z"
       style="vector-effect:non-scaling-stroke;fill:none;stroke:#000000;stroke-width:0.264583;stroke-dasharray:none;stroke-opacity:1;-inkscape-stroke:hairline" />
    <polyline
       z="0"
       points="671.175,590.221 518.575,590.221 518.575,571.576 513.375,571.576 513.375,552.73 518.575,552.73 518.575,534.085 551.971,534.085 552.466,534.108 552.959,534.179 553.443,534.294 553.914,534.455 554.367,534.659 554.8,534.904 555.208,535.19 555.587,535.512 555.934,535.868 556.247,536.255 556.521,536.671 557.211,537.956 557.747,538.755 558.358,539.498 559.039,540.177 559.784,540.786 560.584,541.32 561.434,541.772 562.323,542.141 563.243,542.419 564.187,542.606 565.144,542.7 566.106,542.7 567.063,542.606 568.007,542.419 568.927,542.141 569.816,541.772 570.666,541.32 571.466,540.786 572.211,540.177 572.892,539.498 573.503,538.755 574.039,537.956 574.729,536.671 575.003,536.255 575.316,535.868 575.663,535.512 576.042,535.19 576.45,534.904 576.883,534.659 577.336,534.455 577.807,534.294 578.291,534.179 578.784,534.108 579.279,534.085 610.471,534.085 610.966,534.108 611.459,534.179 611.943,534.294 612.414,534.455 612.867,534.659 613.3,534.904 613.708,535.19 614.087,535.512 614.434,535.868 614.747,536.255 615.021,536.671 615.711,537.956 616.247,538.755 616.858,539.498 617.539,540.177 618.284,540.786 619.084,541.32 619.934,541.772 620.823,542.141 621.743,542.419 622.687,542.606 623.644,542.7 624.606,542.7 625.563,542.606 626.507,542.419 627.427,542.141 628.316,541.772 629.166,541.32 629.966,540.786 630.711,540.177 631.392,539.498 632.003,538.755 632.539,537.956 633.229,536.671 633.503,536.255 633.816,535.868 634.163,535.512 634.542,535.19 634.95,534.904 635.383,534.659 635.836,534.455 636.307,534.294 636.791,534.179 637.284,534.108 637.779,534.085 671.175,534.085 671.175,552.73 676.375,552.73 676.375,571.576 671.175,571.576 671.175,590.221"
       fill="none"
       stroke="black"
       stroke-width="0.1mm"
       id="polyline30"
       style="vector-effect:non-scaling-stroke;fill:none;stroke:#000000;stroke-width:0.264583;stroke-dasharray:none;stroke-opacity:1;-inkscape-stroke:hairline"
       transform="rotate(-90,179.95999,634.0073)" />
    <polyline
       z="0"
       points="671.175,590.221 518.575,590.221 518.575,571.576 513.375,571.576 513.375,552.73 518.575,552.73 518.575,534.085 551.971,534.085 552.466,534.108 552.959,534.179 553.443,534.294 553.914,534.455 554.367,534.659 554.8,534.904 555.208,535.19 555.587,535.512 555.934,535.868 556.247,536.255 556.521,536.671 557.211,537.956 557.747,538.755 558.358,539.498 559.039,540.177 559.784,540.786 560.584,541.32 561.434,541.772 562.323,542.141 563.243,542.419 564.187,542.606 565.144,542.7 566.106,542.7 567.063,542.606 568.007,542.419 568.927,542.141 569.816,541.772 570.666,541.32 571.466,540.786 572.211,540.177 572.892,539.498 573.503,538.755 574.039,537.956 574.729,536.671 575.003,536.255 575.316,535.868 575.663,535.512 576.042,535.19 576.45,534.904 576.883,534.659 577.336,534.455 577.807,534.294 578.291,534.179 578.784,534.108 579.279,534.085 610.471,534.085 610.966,534.108 611.459,534.179 611.943,534.294 612.414,534.455 612.867,534.659 613.3,534.904 613.708,535.19 614.087,535.512 614.434,535.868 614.747,536.255 615.021,536.671 615.711,537.956 616.247,538.755 616.858,539.498 617.539,540.177 618.284,540.786 619.084,541.32 619.934,541.772 620.823,542.141 621.743,542.419 622.687,542.606 623.644,542.7 624.606,542.7 625.563,542.606 626.507,542.419 627.427,542.141 628.316,541.772 629.166,541.32 629.966,540.786 630.711,540.177 631.392,539.498 632.003,538.755 632.539,537.956 633.229,536.671 633.503,536.255 633.816,535.868 634.163,535.512 634.542,535.19 634.95,534.904 635.383,534.659 635.836,534.455 636.307,534.294 636.791,534.179 637.284,534.108 637.779,534.085 671.175,534.085 671.175,552.73 676.375,552.73 676.375,571.576 671.175,571.576 671.175,590.221"
       fill="none"
       stroke="black"
       stroke-width="0.1mm"
       id="polyline30-5"
       style="vector-effect:non-scaling-stroke;fill:none;stroke:#000000;stroke-width:0.264583;stroke-dasharray:none;stroke-opacity:1;-inkscape-stroke:hairline"
       transform="rotate(90,494.95269,119.16998)" />
    <polyline
       z="0"
       points="777.975,649.018 940.975,649.018 940.975,660.037 935.775,660.037 935.775,670.655 940.975,670.655 940.975,686.874 908.215,686.874 908.215,681.674 875.855,681.674 875.855,686.874 843.095,686.874 843.095,681.674 810.735,681.674 810.735,686.874 777.975,686.874 777.975,670.655 783.175,670.655 783.175,660.037 777.975,660.037 777.975,649.018"
       fill="none"
       stroke="black"
       stroke-width="0.1mm"
       id="polyline31"
       style="vector-effect:non-scaling-stroke;fill:none;stroke:#000000;stroke-width:0.264583;stroke-dasharray:none;stroke-opacity:1;-inkscape-stroke:hairline"
       transform="rotate(-90,282.86175,795.70554)" />
    <polyline
       z="0"
       points="777.975,649.018 940.975,649.018 940.975,660.037 935.775,660.037 935.775,670.655 940.975,670.655 940.975,686.874 908.215,686.874 908.215,681.674 875.855,681.674 875.855,686.874 843.095,686.874 843.095,681.674 810.735,681.674 810.735,686.874 777.975,686.874 777.975,670.655 783.175,670.655 783.175,660.037 777.975,660.037 777.975,649.018"
       fill="none"
       stroke="black"
       stroke-width="0.1mm"
       id="polyline31-6"
       style="vector-effect:non-scaling-stroke;fill:none;stroke:#000000;stroke-width:0.264583;stroke-dasharray:none;stroke-opacity:1;-inkscape-stroke:hairline"
       transform="rotate(90,750.64346,110.26075)" />
    <path
       id="polyline19"
       d="m 385.49873,618.14273 5.32991,2.20813 14.32315,-14.32316 v -1.30482 h 5.00022 v 23.83679 h -5.2002 v 24.23624 h 5.2002 v 23.83576 h -5.2002 v 24.23728 h 5.2002 v 23.83576 h -5.00022 v -23.56807 h -5.72213 l -13.52785,13.5294 v 18.78697 h 5.2002 v 18.44487 h -5.2002 v 18.81177 l 4.92683,2.04122 14.32315,-14.32316 v -9.48572 h 5.00022 v 23.83575 h -5.2002 v 24.23625 h 5.2002 v 23.83679 h -5.2002 v 19.03604 h 10.19989 v 5.2002 h 10.39988 v -5.2002 h 10.20041 v -19.03604 h -5.2002 v -23.83679 h 5.00022 v 14.53503 l 5.39967,-8.28735 V 609.61198 l -5.19969,-7.97987 v -15.94528 h -7.0931 v -5.2002 h -7.2931 v 5.2002 h -6.89312 v -5.2002 h -7.29206 v 5.2002 h -6.8926 v -5.2002 h -7.2931 v 5.2002 h -1.8929 v 10.81897 h -5.2002 v 11.01794 h 5.2002 v 10.61899 z m 45.05306,154.635 v -23.83575 h 5.00022 v 23.83575 z m 0,-48.07303 v -23.83576 h 5.00022 v 23.83576 z m 0,-48.07304 v -23.83575 h 5.00022 v 23.83575 z m 0,-48.072 v -23.83678 h 5.00022 v 23.83679 z"
       style="vector-effect:non-scaling-stroke;fill:none;stroke:#000000;stroke-width:0.264583;stroke-dasharray:none;stroke-opacity:1;-inkscape-stroke:hairline" />
    <path
       id="polyline19-5"
       d="m 405.35489,792.13716 -5.32991,-2.20813 -14.32315,14.32316 v 1.30483 h -5.00022 v -23.83679 h 5.2002 v -24.23625 h -5.2002 v -23.83575 h 5.2002 v -24.23728 h -5.2002 v -23.83576 h 5.00022 v 23.56807 h 5.72213 l 13.52785,-13.5294 v -18.78697 h -5.2002 v -18.44487 h 5.2002 v -18.81177 l -4.92683,-2.04122 -14.32315,14.32316 v 9.48572 h -5.00022 v -23.83575 h 5.2002 v -24.23625 h -5.2002 v -23.83679 h 5.2002 v -19.03604 h -10.19989 v -5.2002 h -10.39988 v 5.2002 h -10.20041 v 19.03604 h 5.2002 v 23.83679 h -5.00022 v -14.53503 l -5.39967,8.28735 v 193.64968 l 5.19969,7.97987 v 15.94528 h 7.0931 v 5.2002 h 7.2931 v -5.2002 h 6.89312 v 5.2002 h 7.29206 v -5.2002 h 6.8926 v 5.2002 h 7.2931 v -5.2002 h 1.8929 v -10.81897 h 5.2002 v -11.01794 h -5.2002 v -10.61899 z m -45.05306,-154.635 v 23.83575 h -5.00022 v -23.83575 z m 0,48.07303 v 23.83576 h -5.00022 v -23.83576 z m 0,48.07304 v 23.83575 h -5.00022 v -23.83575 z m 0,48.072 v 23.83679 h -5.00022 v -23.83679 z"
       style="vector-effect:non-scaling-stroke;fill:none;stroke:#000000;stroke-width:0.264583;stroke-dasharray:none;stroke-opacity:1;-inkscape-stroke:hairline" />
    <path
       id="polyline19-1"
       d="m 385.49873,353.54234 5.32991,2.20813 14.32315,-14.32316 v -1.30482 h 5.00022 v 23.83679 h -5.2002 v 24.23624 h 5.2002 v 23.83576 h -5.2002 v 24.23728 h 5.2002 v 23.83576 h -5.00022 v -23.56807 h -5.72213 l -13.52785,13.5294 v 18.78697 h 5.2002 v 18.44487 h -5.2002 v 18.81177 l 4.92683,2.04122 14.32315,-14.32316 v -9.48572 h 5.00022 v 23.83575 h -5.2002 v 24.23625 h 5.2002 v 23.83679 h -5.2002 v 19.03604 h 10.19989 v 5.2002 h 10.39988 v -5.2002 h 10.20041 v -19.03604 h -5.2002 V 532.4136 h 5.00022 v 14.53503 l 5.39967,-8.28735 V 345.01159 l -5.19969,-7.97987 v -15.94528 h -7.0931 v -5.2002 h -7.2931 v 5.2002 h -6.89312 v -5.2002 h -7.29206 v 5.2002 h -6.8926 v -5.2002 h -7.2931 v 5.2002 h -1.8929 v 10.81897 h -5.2002 v 11.01794 h 5.2002 v 10.61899 z m 45.05306,154.635 v -23.83575 h 5.00022 v 23.83575 z m 0,-48.07303 v -23.83576 h 5.00022 v 23.83576 z m 0,-48.07304 v -23.83575 h 5.00022 v 23.83575 z m 0,-48.072 v -23.83678 h 5.00022 v 23.83679 z"
       style="vector-effect:non-scaling-stroke;fill:none;stroke:#000000;stroke-width:0.264583;stroke-dasharray:none;stroke-opacity:1;-inkscape-stroke:hairline" />
    <path
       id="polyline19-5-2"
       d="m 405.35489,527.53677 -5.32991,-2.20813 -14.32315,14.32316 v 1.30483 h -5.00022 v -23.83679 h 5.2002 v -24.23625 h -5.2002 v -23.83575 h 5.2002 v -24.23728 h -5.2002 V 420.9748 h 5.00022 v 23.56807 h 5.72213 l 13.52785,-13.5294 V 412.2265 h -5.2002 v -18.44487 h 5.2002 v -18.81177 l -4.92683,-2.04122 -14.32315,14.32316 v 9.48572 h -5.00022 v -23.83575 h 5.2002 v -24.23625 h -5.2002 v -23.83679 h 5.2002 v -19.03604 h -10.19989 v -5.2002 h -10.39988 v 5.2002 h -10.20041 v 19.03604 h 5.2002 v 23.83679 h -5.00022 v -14.53503 l -5.39967,8.28735 v 193.64968 l 5.19969,7.97987 v 15.94528 h 7.0931 v 5.2002 h 7.2931 v -5.2002 h 6.89312 v 5.2002 h 7.29206 v -5.2002 h 6.8926 v 5.2002 h 7.2931 v -5.2002 h 1.8929 V 549.1737 h 5.2002 v -11.01794 h -5.2002 v -10.61899 z m -45.05306,-154.635 v 23.83575 h -5.00022 v -23.83575 z m 0,48.07303 v 23.83576 h -5.00022 V 420.9748 Z m 0,48.07304 v 23.83575 h -5.00022 v -23.83575 z m 0,48.072 v 23.83679 h -5.00022 v -23.83679 z"
       style="vector-effect:non-scaling-stroke;fill:none;stroke:#000000;stroke-width:0.264583;stroke-dasharray:none;stroke-opacity:1;-inkscape-stroke:hairline" />
    <path
       id="polyline6"
       d="m 42.95683,565.19238 v 5.2002 H 29.10187 v 18.83605 h -5.2002 v 24.23676 h 5.2002 v 23.83576 h -5.2002 v 24.23625 h 5.2002 v 23.83679 h -5.2002 v 24.23623 h 5.2002 v 23.8368 h -5.2002 v 24.23624 h 5.2002 v 23.83576 h -5.2002 v 24.23727 h 5.2002 v 18.83607 h 13.85496 v 5.19968 h 14.05392 v -5.19968 h 13.65499 v 5.19968 h 14.05392 v -5.19968 h 13.65497 v 5.19968 h 14.05392 v -5.19968 h 13.65499 v 5.19968 h 14.05392 v -5.19968 h 13.65499 v 5.19968 h 14.05442 v -5.19968 h 13.85498 v -18.83607 h 5.19969 v -24.23727 h -5.19969 v -23.83576 h 5.19969 v -24.23624 h -5.19969 v -23.8368 h 5.19969 v -24.23623 h -5.19969 V 661.5374 h 5.19969 v -24.23625 h -5.19969 v -23.83576 h 5.19969 v -24.23676 h -5.19969 v -18.83605 h -13.85498 v -5.2002 h -14.05442 v 5.2002 h -13.65499 v -5.2002 h -14.05392 v 5.2002 h -13.65499 v -5.2002 H 98.37463 v 5.2002 H 84.71966 v -5.2002 H 70.66574 v 5.2002 H 57.01075 v -5.2002 z m 59.94466,53.02517 h 5.00022 v 24.2931 h -5.00022 z m -26.91256,16.85066 h 0.32556 l 0.32504,0.0331 0.3209,0.0641 0.31214,0.0971 0.3023,0.12609 0.28681,0.15555 0.26923,0.18448 0.25063,0.21085 0.22789,0.23408 0.20413,0.25477 0.17724,0.27493 0.14884,0.29093 0.11885,0.30437 0.0894,0.31369 0.0568,0.32194 0.0238,0.32607 -0.008,0.32608 -0.0413,0.32504 -0.0718,0.31781 -0.10386,0.31007 -0.13488,0.29816 -0.1633,0.28319 -0.19068,0.26459 -0.21704,0.24597 -0.23927,0.22221 -0.25993,0.19689 -0.27905,0.17105 -0.29507,0.14107 -0.30593,0.11214 -0.31781,0.0806 -0.32298,0.0481 -0.32607,0.017 -0.32608,-0.017 -0.32298,-0.0481 -0.31782,-0.0806 -0.30591,-0.11214 -0.29509,-0.14107 -0.27904,-0.17105 -0.25993,-0.19689 -0.23926,-0.22221 -0.21704,-0.24597 -0.19069,-0.26459 -0.1633,-0.28319 -0.13487,-0.29816 -0.10387,-0.31007 -0.0724,-0.31781 -0.0408,-0.32504 -0.008,-0.32608 0.0238,-0.32607 0.0568,-0.32194 0.0894,-0.31369 0.11886,-0.30437 0.14882,-0.29093 0.17725,-0.27493 0.20361,-0.25477 0.22841,-0.23408 0.25063,-0.21085 0.26922,-0.18448 0.28681,-0.15555 0.30231,-0.12609 0.31161,-0.0971 0.32142,-0.0641 z m 58.49978,0 h 0.32608 l 0.32505,0.0331 0.32091,0.0641 0.31212,0.0971 0.30179,0.12609 0.2868,0.15555 0.26924,0.18448 0.25115,0.21085 0.22789,0.23408 0.20412,0.25477 0.17674,0.27493 0.14882,0.29093 0.11937,0.30437 0.0889,0.31369 0.0568,0.32194 0.0243,0.32607 -0.008,0.32608 -0.0408,0.32504 -0.0718,0.31781 -0.10438,0.31007 -0.13488,0.29816 -0.16278,0.28319 -0.19121,0.26459 -0.21704,0.24597 -0.23874,0.22221 -0.25993,0.19689 -0.27906,0.17105 -0.29508,0.14107 -0.30591,0.11214 -0.31833,0.0806 -0.32298,0.0481 -0.32608,0.017 -0.32608,-0.017 -0.32297,-0.0481 -0.31781,-0.0806 -0.30593,-0.11214 -0.29507,-0.14107 -0.27905,-0.17105 -0.25993,-0.19689 -0.23876,-0.22221 -0.21703,-0.24597 -0.1912,-0.26459 -0.16278,-0.28319 -0.1354,-0.29816 -0.10386,-0.31007 -0.0718,-0.31781 -0.0413,-0.32504 -0.008,-0.32608 0.0238,-0.32607 0.0574,-0.32194 0.0889,-0.31369 0.11886,-0.30437 0.14935,-0.29093 0.17672,-0.27493 0.20412,-0.25477 0.22791,-0.23408 0.25114,-0.21085 0.26872,-0.18448 0.28732,-0.15555 0.30179,-0.12609 0.31212,-0.0971 0.32092,-0.0641 z m -31.58722,32.13499 h 5.00022 v 24.29309 h -5.00022 z m 0,48.98512 h 5.00022 v 24.29309 h -5.00022 z m 0,48.98616 h 5.00022 v 24.2931 h -5.00022 z m -26.91256,0.89401 h 0.32556 l 0.32504,0.0331 0.3209,0.0641 0.31214,0.0966 0.3023,0.1261 0.28681,0.15607 0.26923,0.18396 0.25063,0.21085 0.22789,0.23408 0.20413,0.25529 0.17724,0.27492 0.14884,0.29093 0.11885,0.30386 0.0894,0.3142 0.0568,0.32193 0.0238,0.32608 -0.008,0.32609 -0.0413,0.32503 -0.0718,0.31781 -0.10386,0.31007 -0.13488,0.29765 -0.1633,0.28319 -0.19068,0.26511 -0.21704,0.24597 -0.23927,0.2222 -0.25993,0.1969 -0.27905,0.17104 -0.29507,0.14057 -0.30593,0.11213 -0.31781,0.0811 -0.32298,0.048 -0.32607,0.0171 -0.32608,-0.0171 -0.32298,-0.048 -0.31782,-0.0811 -0.30591,-0.11213 -0.29509,-0.14057 -0.27904,-0.17104 -0.25993,-0.1969 -0.23926,-0.2222 -0.21704,-0.24597 -0.19069,-0.26511 -0.1633,-0.28319 -0.13487,-0.29765 -0.10387,-0.31007 -0.0724,-0.31781 -0.0408,-0.32503 -0.008,-0.32609 0.0238,-0.32608 0.0568,-0.32193 0.0894,-0.3142 0.11886,-0.30386 0.14882,-0.29093 0.17725,-0.27492 0.20361,-0.25529 0.22841,-0.23408 0.25063,-0.21085 0.26922,-0.18396 0.28681,-0.15607 0.30231,-0.1261 0.31161,-0.0966 0.32142,-0.0641 z m 58.49978,0 h 0.32608 l 0.32505,0.0331 0.32091,0.0641 0.31212,0.0966 0.30179,0.1261 0.2868,0.15607 0.26924,0.18396 0.25115,0.21085 0.22789,0.23408 0.20412,0.25529 0.17674,0.27492 0.14882,0.29093 0.11937,0.30386 0.0889,0.3142 0.0568,0.32193 0.0243,0.32608 -0.008,0.32609 -0.0408,0.32503 -0.0718,0.31781 -0.10438,0.31007 -0.13488,0.29765 -0.16278,0.28319 -0.19121,0.26511 -0.21704,0.24597 -0.23874,0.2222 -0.25993,0.1969 -0.27906,0.17104 -0.29508,0.14057 -0.30591,0.11213 -0.31833,0.0811 -0.32298,0.048 -0.32608,0.0171 -0.32608,-0.0171 -0.32297,-0.048 -0.31781,-0.0811 -0.30593,-0.11213 -0.29507,-0.14057 -0.27905,-0.17104 -0.25993,-0.1969 -0.23876,-0.2222 -0.21703,-0.24597 -0.1912,-0.26511 -0.16278,-0.28319 -0.1354,-0.29765 -0.10386,-0.31007 -0.0718,-0.31781 -0.0413,-0.32503 -0.008,-0.32609 0.0238,-0.32608 0.0574,-0.32193 0.0889,-0.3142 0.11886,-0.30386 0.14935,-0.29093 0.17672,-0.27492 0.20412,-0.25529 0.22791,-0.23408 0.25114,-0.21085 0.26872,-0.18396 0.28732,-0.15607 0.30179,-0.1261 0.31212,-0.0966 0.32092,-0.0641 z"
       style="vector-effect:non-scaling-stroke;fill:none;stroke:#000000;stroke-width:0.264583;stroke-dasharray:none;stroke-opacity:1;-inkscape-stroke:hairline" />
    <path
       id="polyline33"
       d="m 42.95683,300.5925 v 5.19969 H 29.10187 v 18.83605 h -5.2002 v 24.23729 h 5.2002 v 23.83575 h -5.2002 v 24.23624 h 5.2002 v 23.83679 h -5.2002 v 24.23624 h 5.2002 v 23.8368 h -5.2002 v 24.23624 h 5.2002 v 23.83576 h -5.2002 v 24.23728 h 5.2002 v 18.83555 h 13.85496 v 5.2002 h 14.05392 v -5.2002 h 13.65499 v 5.2002 h 14.05392 v -5.2002 h 13.65497 v 5.2002 h 14.05392 v -5.2002 h 13.65499 v 5.2002 h 14.05392 v -5.2002 h 13.65499 v 5.2002 h 14.05442 v -5.2002 h 13.85498 v -18.83555 h 5.19969 v -24.23728 h -5.19969 v -23.83576 h 5.19969 v -24.23624 h -5.19969 v -23.8368 h 5.19969 v -24.23624 h -5.19969 v -23.83679 h 5.19969 v -24.23624 h -5.19969 v -23.83575 h 5.19969 v -24.23729 h -5.19969 v -18.83605 h -13.85498 v -5.19969 h -14.05442 v 5.19969 h -13.65499 v -5.19969 h -14.05392 v 5.19969 H 112.42855 V 300.5925 H 98.37463 v 5.19969 H 84.71966 V 300.5925 H 70.66574 v 5.19969 H 57.01075 v -5.19969 z m 1.84692,15.80007 h 121.1957 l 0.5023,0.0238 0.49402,0.0739 0.48576,0.12094 0.47233,0.16949 0.45165,0.21394 0.42891,0.25684 0.40204,0.29817 0.37104,0.33589 0.33693,0.37103 0.29817,0.40206 0.25684,0.42994 0.21445,0.45165 0.16795,0.47233 0.12196,0.48471 0.0729,0.49404 0.0248,0.50333 v 27.69494 l -0.0248,0.50282 -0.0729,0.49402 -0.12196,0.48627 -0.16795,0.47078 -0.21445,0.45217 -0.25684,0.42994 -0.29817,0.40206 -0.33693,0.37103 -0.37104,0.33589 -0.40204,0.29767 -0.42891,0.25734 -0.45165,0.21394 -0.47233,0.16899 -0.48576,0.12091 -0.49402,0.0739 -0.5023,0.0253 h -58.09774 v 23.61767 h -5.00022 V 354.2926 H 44.80375 l -0.5023,-0.0253 -0.49402,-0.0739 -0.48576,-0.12091 -0.47181,-0.16899 -0.45217,-0.21394 -0.42891,-0.25734 -0.40204,-0.29767 -0.37104,-0.33589 -0.33693,-0.37103 -0.29817,-0.40206 -0.25683,-0.42994 -0.21291,-0.45217 -0.16898,-0.47078 -0.12196,-0.48627 -0.0734,-0.49402 -0.0248,-0.50282 v -27.69494 l 0.0248,-0.50333 0.0734,-0.49404 0.12196,-0.48471 0.16898,-0.47233 0.21291,-0.45165 0.25683,-0.42994 0.29817,-0.40206 0.33693,-0.37103 0.37104,-0.33589 0.40204,-0.29817 0.42891,-0.25684 0.45217,-0.21394 0.47181,-0.16949 0.48576,-0.12094 0.49402,-0.0739 z m 30.85805,47.54077 h 0.9798 l 0.97409,0.0982 0.95912,0.1938 0.93585,0.28783 0.9028,0.38033 0.85938,0.46767 0.8077,0.5514 0.75138,0.62994 0.68367,0.70073 0.6103,0.76636 0.53071,0.82165 0.447,0.8723 0.35813,0.91106 0.26407,0.94205 0.17105,0.96378 0.0729,0.97719 -0.0248,0.97772 -0.12144,0.97203 -0.21756,0.95395 -0.31213,0.92915 -0.40204,0.89193 -0.48989,0.84801 -0.57103,0.79478 -0.64905,0.73433 -0.71727,0.66611 -0.7798,0.59065 -0.83612,0.51108 -0.88212,0.42426 -0.92088,0.33487 -0.94774,0.24289 -0.96842,0.14521 -0.97771,0.0486 -0.97825,-0.0486 -0.96789,-0.14521 -0.94774,-0.24289 -0.92139,-0.33487 -0.8816,-0.42426 -0.83613,-0.51108 -0.77981,-0.59065 -0.71726,-0.66611 -0.64905,-0.73433 -0.57103,-0.79478 -0.48989,-0.84801 -0.40204,-0.89193 -0.31213,-0.92915 -0.21807,-0.95395 -0.12196,-0.97203 -0.0238,-0.97772 0.0729,-0.97719 0.17104,-0.96378 0.26406,-0.94205 0.35813,-0.91106 0.447,-0.8723 0.53072,-0.82165 0.6103,-0.76636 0.68367,-0.70073 0.75137,-0.62994 0.80771,-0.5514 0.85885,-0.46767 0.90332,-0.38033 0.93586,-0.28783 0.95911,-0.1938 z m 58.4998,0 h 0.9803 l 0.97359,0.0982 0.95911,0.1938 0.93586,0.28783 0.9033,0.38033 0.85887,0.46767 0.80821,0.5514 0.75087,0.62994 0.68419,0.70073 0.60979,0.76636 0.53123,0.82165 0.447,0.8723 0.35759,0.91106 0.26408,0.94205 0.17105,0.96378 0.0729,0.97719 -0.0238,0.97772 -0.12196,0.97203 -0.21807,0.95395 -0.31213,0.92915 -0.40204,0.89193 -0.48989,0.84801 -0.57103,0.79478 -0.64905,0.73433 -0.71676,0.66611 -0.78031,0.59065 -0.83562,0.51108 -0.88211,0.42426 -0.92087,0.33487 -0.94826,0.24289 -0.9679,0.14521 -0.97824,0.0486 -0.97771,-0.0486 -0.9679,-0.14521 -0.94828,-0.24289 -0.92086,-0.33487 -0.88212,-0.42426 -0.83612,-0.51108 -0.7798,-0.59065 -0.71727,-0.66611 -0.64855,-0.73433 -0.57101,-0.79478 -0.49041,-0.84801 -0.40204,-0.89193 -0.31162,-0.92915 -0.21807,-0.95395 -0.12093,-0.97203 -0.0253,-0.97772 0.0734,-0.97719 0.17104,-0.96378 0.26356,-0.94205 0.35811,-0.91106 0.447,-0.8723 0.53123,-0.82165 0.60978,-0.76636 0.68421,-0.70073 0.75086,-0.62994 0.80822,-0.5514 0.85886,-0.46767 0.90278,-0.38033 0.93637,-0.28783 0.9586,-0.1938 z m -31.26011,38.66998 h 5.00022 v 24.29311 h -5.00022 z m 0,48.98513 h 5.00022 v 24.2931 h -5.00022 z M 75.6618,494.93362 h 0.9798 l 0.97409,0.0976 0.95912,0.19432 0.93585,0.28783 0.9028,0.37982 0.85938,0.4682 0.8077,0.55086 0.75138,0.62993 0.68367,0.70126 0.6103,0.76585 0.53071,0.82216 0.447,0.87178 0.35813,0.91107 0.26407,0.94205 0.17105,0.96377 0.0729,0.97719 -0.0248,0.97825 -0.12144,0.97202 -0.21756,0.95396 -0.31213,0.92862 -0.40204,0.89245 -0.48989,0.84749 -0.57103,0.7953 -0.64905,0.73381 -0.71727,0.66611 -0.7798,0.59117 -0.83612,0.51109 -0.88212,0.42375 -0.92088,0.33486 -0.94774,0.2434 -0.96842,0.14468 -0.97771,0.0491 -0.97825,-0.0491 -0.96789,-0.14468 -0.94774,-0.2434 -0.92139,-0.33486 -0.8816,-0.42375 -0.83613,-0.51109 -0.77981,-0.59117 -0.71726,-0.66611 -0.64905,-0.73381 -0.57103,-0.7953 -0.48989,-0.84749 -0.40204,-0.89245 -0.31213,-0.92862 -0.21807,-0.95396 -0.12196,-0.97202 -0.0238,-0.97825 0.0729,-0.97719 0.17104,-0.96377 0.26406,-0.94205 0.35813,-0.91107 0.447,-0.87178 0.53072,-0.82216 0.6103,-0.76585 0.68367,-0.70126 0.75137,-0.62993 0.80771,-0.55086 0.85885,-0.4682 0.90332,-0.37982 0.93586,-0.28783 0.95911,-0.19432 z m 58.4998,0 h 0.9803 l 0.97359,0.0976 0.95911,0.19432 0.93586,0.28783 0.9033,0.37982 0.85887,0.4682 0.80821,0.55086 0.75087,0.62993 0.68419,0.70126 0.60979,0.76585 0.53123,0.82216 0.447,0.87178 0.35759,0.91107 0.26408,0.94205 0.17105,0.96377 0.0729,0.97719 -0.0238,0.97825 -0.12196,0.97202 -0.21807,0.95396 -0.31213,0.92862 -0.40204,0.89245 -0.48989,0.84749 -0.57103,0.7953 -0.64905,0.73381 -0.71676,0.66611 -0.78031,0.59117 -0.83562,0.51109 -0.88211,0.42375 -0.92087,0.33486 -0.94826,0.2434 -0.9679,0.14468 -0.97824,0.0491 -0.97771,-0.0491 -0.9679,-0.14468 -0.94828,-0.2434 -0.92086,-0.33486 -0.88212,-0.42375 -0.83612,-0.51109 -0.7798,-0.59117 -0.71727,-0.66611 -0.64855,-0.73381 -0.57101,-0.7953 -0.49041,-0.84749 -0.40204,-0.89245 -0.31162,-0.92862 -0.21807,-0.95396 -0.12093,-0.97202 -0.0253,-0.97825 0.0734,-0.97719 0.17104,-0.96377 0.26356,-0.94205 0.35811,-0.91107 0.447,-0.87178 0.53123,-0.82216 0.60978,-0.76585 0.68421,-0.70126 0.75086,-0.62993 0.80822,-0.55086 0.85886,-0.4682 0.90278,-0.37982 0.93637,-0.28783 0.9586,-0.19432 z m -31.26011,5.64099 h 5.00022 v 24.29257 h -5.00022 z"
       style="vector-effect:non-scaling-stroke;fill:none;stroke:#000000;stroke-width:0.264583;stroke-dasharray:none;stroke-opacity:1;-inkscape-stroke:hairline" />
    <path
       id="polyline6-6"
       d="m 330.84625,565.19235 v -5.2002 h 13.85496 V 541.1561 h 5.2002 v -24.23676 h -5.2002 v -23.83576 h 5.2002 v -24.23625 h -5.2002 v -23.83679 h 5.2002 v -24.23623 h -5.2002 v -23.8368 h 5.2002 v -24.23624 h -5.2002 v -23.83576 h 5.2002 v -24.23727 h -5.2002 v -18.83607 h -13.85496 v -5.19968 h -14.05392 v 5.19968 h -13.65499 v -5.19968 h -14.05392 v 5.19968 h -13.65497 v -5.19968 h -14.05392 v 5.19968 h -13.65499 v -5.19968 h -14.05392 v 5.19968 h -13.65499 v -5.19968 h -14.05442 v 5.19968 h -13.85498 v 18.83607 h -5.19969 v 24.23727 h 5.19969 v 23.83576 h -5.19969 v 24.23624 h 5.19969 v 23.8368 h -5.19969 v 24.23623 h 5.19969 v 23.83679 h -5.19969 v 24.23625 h 5.19969 v 23.83576 h -5.19969 v 24.23676 h 5.19969 v 18.83605 h 13.85498 v 5.2002 h 14.05442 v -5.2002 h 13.65499 v 5.2002 h 14.05392 v -5.2002 h 13.65499 v 5.2002 h 14.05392 v -5.2002 h 13.65497 v 5.2002 h 14.05392 v -5.2002 h 13.65499 v 5.2002 z m -59.94466,-53.02517 h -5.00022 v -24.2931 h 5.00022 z m 26.91256,-16.85066 h -0.32556 l -0.32504,-0.0331 -0.3209,-0.0641 -0.31214,-0.0971 -0.3023,-0.12609 -0.28681,-0.15555 -0.26923,-0.18448 -0.25063,-0.21085 -0.22789,-0.23408 -0.20413,-0.25477 -0.17724,-0.27493 -0.14884,-0.29093 -0.11885,-0.30437 -0.0894,-0.31369 -0.0568,-0.32194 -0.0238,-0.32607 0.008,-0.32608 0.0413,-0.32504 0.0718,-0.31781 0.10386,-0.31007 0.13488,-0.29816 0.1633,-0.28319 0.19068,-0.26459 0.21704,-0.24597 0.23927,-0.22221 0.25993,-0.19689 0.27905,-0.17105 0.29507,-0.14107 0.30593,-0.11214 0.31781,-0.0806 0.32298,-0.0481 0.32607,-0.017 0.32608,0.017 0.32298,0.0481 0.31782,0.0806 0.30591,0.11214 0.29509,0.14107 0.27904,0.17105 0.25993,0.19689 0.23926,0.22221 0.21704,0.24597 0.19069,0.26459 0.1633,0.28319 0.13487,0.29816 0.10387,0.31007 0.0724,0.31781 0.0408,0.32504 0.008,0.32608 -0.0238,0.32607 -0.0568,0.32194 -0.0894,0.31369 -0.11886,0.30437 -0.14882,0.29093 -0.17725,0.27493 -0.20361,0.25477 -0.22841,0.23408 -0.25063,0.21085 -0.26922,0.18448 -0.28681,0.15555 -0.30231,0.12609 -0.31161,0.0971 -0.32142,0.0641 z m -58.49978,0 h -0.32608 l -0.32505,-0.0331 -0.32091,-0.0641 -0.31212,-0.0971 -0.30179,-0.12609 -0.2868,-0.15555 -0.26924,-0.18448 -0.25115,-0.21085 -0.22789,-0.23408 -0.20412,-0.25477 -0.17674,-0.27493 -0.14882,-0.29093 -0.11937,-0.30437 -0.0889,-0.31369 -0.0568,-0.32194 -0.0243,-0.32607 0.008,-0.32608 0.0408,-0.32504 0.0718,-0.31781 0.10438,-0.31007 0.13488,-0.29816 0.16278,-0.28319 0.19121,-0.26459 0.21704,-0.24597 0.23874,-0.22221 0.25993,-0.19689 0.27906,-0.17105 0.29508,-0.14107 0.30591,-0.11214 0.31833,-0.0806 0.32298,-0.0481 0.32608,-0.017 0.32608,0.017 0.32297,0.0481 0.31781,0.0806 0.30593,0.11214 0.29507,0.14107 0.27905,0.17105 0.25993,0.19689 0.23876,0.22221 0.21703,0.24597 0.1912,0.26459 0.16278,0.28319 0.1354,0.29816 0.10386,0.31007 0.0718,0.31781 0.0413,0.32504 0.008,0.32608 -0.0238,0.32607 -0.0574,0.32194 -0.0889,0.31369 -0.11886,0.30437 -0.14935,0.29093 -0.17672,0.27493 -0.20412,0.25477 -0.22791,0.23408 -0.25114,0.21085 -0.26872,0.18448 -0.28732,0.15555 -0.30179,0.12609 -0.31212,0.0971 -0.32092,0.0641 z m 31.58722,-32.13499 h -5.00022 v -24.29309 h 5.00022 z m 0,-48.98512 h -5.00022 v -24.29309 h 5.00022 z m 0,-48.98616 h -5.00022 v -24.2931 h 5.00022 z m 26.91256,-0.89401 h -0.32556 l -0.32504,-0.0331 -0.3209,-0.0641 -0.31214,-0.0966 -0.3023,-0.1261 -0.28681,-0.15607 -0.26923,-0.18396 -0.25063,-0.21085 -0.22789,-0.23408 -0.20413,-0.25529 -0.17724,-0.27492 -0.14884,-0.29093 -0.11885,-0.30386 -0.0894,-0.3142 -0.0568,-0.32193 -0.0238,-0.32608 0.008,-0.32609 0.0413,-0.32503 0.0718,-0.31781 0.10386,-0.31007 0.13488,-0.29765 0.1633,-0.28319 0.19068,-0.26511 0.21704,-0.24597 0.23927,-0.2222 0.25993,-0.1969 0.27905,-0.17104 0.29507,-0.14057 0.30593,-0.11213 0.31781,-0.0811 0.32298,-0.048 0.32607,-0.0171 0.32608,0.0171 0.32298,0.048 0.31782,0.0811 0.30591,0.11213 0.29509,0.14057 0.27904,0.17104 0.25993,0.1969 0.23926,0.2222 0.21704,0.24597 0.19069,0.26511 0.1633,0.28319 0.13487,0.29765 0.10387,0.31007 0.0724,0.31781 0.0408,0.32503 0.008,0.32609 -0.0238,0.32608 -0.0568,0.32193 -0.0894,0.3142 -0.11886,0.30386 -0.14882,0.29093 -0.17725,0.27492 -0.20361,0.25529 -0.22841,0.23408 -0.25063,0.21085 -0.26922,0.18396 -0.28681,0.15607 -0.30231,0.1261 -0.31161,0.0966 -0.32142,0.0641 z m -58.49978,0 h -0.32608 l -0.32505,-0.0331 -0.32091,-0.0641 -0.31212,-0.0966 -0.30179,-0.1261 -0.2868,-0.15607 -0.26924,-0.18396 -0.25115,-0.21085 -0.22789,-0.23408 -0.20412,-0.25529 -0.17674,-0.27492 -0.14882,-0.29093 -0.11937,-0.30386 -0.0889,-0.3142 -0.0568,-0.32193 -0.0243,-0.32608 0.008,-0.32609 0.0408,-0.32503 0.0718,-0.31781 0.10438,-0.31007 0.13488,-0.29765 0.16278,-0.28319 0.19121,-0.26511 0.21704,-0.24597 0.23874,-0.2222 0.25993,-0.1969 0.27906,-0.17104 0.29508,-0.14057 0.30591,-0.11213 0.31833,-0.0811 0.32298,-0.048 0.32608,-0.0171 0.32608,0.0171 0.32297,0.048 0.31781,0.0811 0.30593,0.11213 0.29507,0.14057 0.27905,0.17104 0.25993,0.1969 0.23876,0.2222 0.21703,0.24597 0.1912,0.26511 0.16278,0.28319 0.1354,0.29765 0.10386,0.31007 0.0718,0.31781 0.0413,0.32503 0.008,0.32609 -0.0238,0.32608 -0.0574,0.32193 -0.0889,0.3142 -0.11886,0.30386 -0.14935,0.29093 -0.17672,0.27492 -0.20412,0.25529 -0.22791,0.23408 -0.25114,0.21085 -0.26872,0.18396 -0.28732,0.15607 -0.30179,0.1261 -0.31212,0.0966 -0.32092,0.0641 z"
       style="vector-effect:non-scaling-stroke;fill:none;stroke:#000000;stroke-width:0.264583;stroke-dasharray:none;stroke-opacity:1;-inkscape-stroke:hairline" />
    <path
       id="polyline33-9"
       d="m 330.84625,829.79221 v -5.1997 h 13.85496 v -18.83602 h 5.2002 V 781.5192 h -5.2002 v -23.83575 h 5.2002 v -24.23624 h -5.2002 v -23.83679 h 5.2002 v -24.23624 h -5.2002 v -23.8368 h 5.2002 v -24.23624 h -5.2002 v -23.83576 h 5.2002 V 589.2281 h -5.2002 v -18.83555 h -13.85496 v -5.2002 h -14.05392 v 5.2002 h -13.65499 v -5.2002 h -14.05392 v 5.2002 h -13.65497 v -5.2002 h -14.05392 v 5.2002 h -13.65499 v -5.2002 h -14.05392 v 5.2002 h -13.65499 v -5.2002 h -14.05442 v 5.2002 h -13.85498 v 18.83555 h -5.19969 v 24.23728 h 5.19969 v 23.83576 h -5.19969 v 24.23624 h 5.19969 v 23.8368 h -5.19969 v 24.23624 h 5.19969 v 23.83679 h -5.19969 v 24.23624 h 5.19969 v 23.83575 h -5.19969 v 24.23729 h 5.19969 v 18.83602 h 13.85498 v 5.1997 h 14.05442 v -5.1997 h 13.65499 v 5.1997 h 14.05392 v -5.1997 h 13.65499 v 5.1997 h 14.05392 v -5.1997 h 13.65497 v 5.1997 h 14.05392 v -5.1997 h 13.65499 v 5.1997 z m -1.84692,-15.80005 h -121.1957 l -0.5023,-0.0238 -0.49402,-0.0739 -0.48576,-0.12094 -0.47233,-0.16949 -0.45165,-0.21394 -0.42891,-0.25684 -0.40204,-0.29817 -0.37104,-0.33589 -0.33693,-0.37103 -0.29817,-0.40206 -0.25684,-0.42994 -0.21445,-0.45165 -0.16795,-0.47233 -0.12196,-0.48471 -0.0729,-0.49404 -0.0248,-0.50333 v -27.69494 l 0.0248,-0.50282 0.0729,-0.49402 0.12196,-0.48627 0.16795,-0.47078 0.21445,-0.45217 0.25684,-0.42994 0.29817,-0.40206 0.33693,-0.37103 0.37104,-0.33589 0.40204,-0.29767 0.42891,-0.25734 0.45165,-0.21394 0.47233,-0.16899 0.48576,-0.12091 0.49402,-0.0739 0.5023,-0.0253 h 58.09774 v -23.61767 h 5.00022 v 23.61767 h 58.09774 l 0.5023,0.0253 0.49402,0.0739 0.48576,0.12091 0.47181,0.16899 0.45217,0.21394 0.42891,0.25734 0.40204,0.29767 0.37104,0.33589 0.33693,0.37103 0.29817,0.40206 0.25683,0.42994 0.21291,0.45217 0.16898,0.47078 0.12196,0.48627 0.0734,0.49402 0.0248,0.50282 v 27.69494 l -0.0248,0.50333 -0.0734,0.49404 -0.12196,0.48471 -0.16898,0.47233 -0.21291,0.45165 -0.25683,0.42994 -0.29817,0.40206 -0.33693,0.37103 -0.37104,0.33589 -0.40204,0.29817 -0.42891,0.25684 -0.45217,0.21394 -0.47181,0.16949 -0.48576,0.12094 -0.49402,0.0739 z m -30.85805,-47.54077 h -0.9798 l -0.97409,-0.0982 -0.95912,-0.1938 -0.93585,-0.28783 -0.9028,-0.38033 -0.85938,-0.46767 -0.8077,-0.5514 -0.75138,-0.62994 -0.68367,-0.70073 -0.6103,-0.76636 -0.53071,-0.82165 -0.447,-0.8723 -0.35813,-0.91106 -0.26407,-0.94205 -0.17105,-0.96378 -0.0729,-0.97719 0.0248,-0.97772 0.12144,-0.97203 0.21756,-0.95395 0.31213,-0.92915 0.40204,-0.89193 0.48989,-0.84801 0.57103,-0.79478 0.64905,-0.73433 0.71727,-0.66611 0.7798,-0.59065 0.83612,-0.51108 0.88212,-0.42426 0.92088,-0.33487 0.94774,-0.24289 0.96842,-0.14521 0.97771,-0.0486 0.97825,0.0486 0.96789,0.14521 0.94774,0.24289 0.92139,0.33487 0.8816,0.42426 0.83613,0.51108 0.77981,0.59065 0.71726,0.66611 0.64905,0.73433 0.57103,0.79478 0.48989,0.84801 0.40204,0.89193 0.31213,0.92915 0.21807,0.95395 0.12196,0.97203 0.0238,0.97772 -0.0729,0.97719 -0.17104,0.96378 -0.26406,0.94205 -0.35813,0.91106 -0.447,0.8723 -0.53072,0.82165 -0.6103,0.76636 -0.68367,0.70073 -0.75137,0.62994 -0.80771,0.5514 -0.85885,0.46767 -0.90332,0.38033 -0.93586,0.28783 -0.95911,0.1938 z m -58.4998,0 h -0.9803 l -0.97359,-0.0982 -0.95911,-0.1938 -0.93586,-0.28783 -0.9033,-0.38033 -0.85887,-0.46767 -0.80821,-0.5514 -0.75087,-0.62994 -0.68419,-0.70073 -0.60979,-0.76636 -0.53123,-0.82165 -0.447,-0.8723 -0.35759,-0.91106 -0.26408,-0.94205 -0.17105,-0.96378 -0.0729,-0.97719 0.0238,-0.97772 0.12196,-0.97203 0.21807,-0.95395 0.31213,-0.92915 0.40204,-0.89193 0.48989,-0.84801 0.57103,-0.79478 0.64905,-0.73433 0.71676,-0.66611 0.78031,-0.59065 0.83562,-0.51108 0.88211,-0.42426 0.92087,-0.33487 0.94826,-0.24289 0.9679,-0.14521 0.97824,-0.0486 0.97771,0.0486 0.9679,0.14521 0.94828,0.24289 0.92086,0.33487 0.88212,0.42426 0.83612,0.51108 0.7798,0.59065 0.71727,0.66611 0.64855,0.73433 0.57101,0.79478 0.49041,0.84801 0.40204,0.89193 0.31162,0.92915 0.21807,0.95395 0.12093,0.97203 0.0253,0.97772 -0.0734,0.97719 -0.17104,0.96378 -0.26356,0.94205 -0.35811,0.91106 -0.447,0.8723 -0.53123,0.82165 -0.60978,0.76636 -0.68421,0.70073 -0.75086,0.62994 -0.80822,0.5514 -0.85886,0.46767 -0.90278,0.38033 -0.93637,0.28783 -0.9586,0.1938 z m 31.26011,-38.66998 h -5.00022 V 703.4883 h 5.00022 z m 0,-48.98513 h -5.00022 v -24.2931 h 5.00022 z m 27.23969,-43.34517 h -0.9798 l -0.97409,-0.0976 -0.95912,-0.19432 -0.93585,-0.28783 -0.9028,-0.37982 -0.85938,-0.4682 -0.8077,-0.55086 -0.75138,-0.62993 -0.68367,-0.70126 -0.6103,-0.76585 -0.53071,-0.82216 -0.447,-0.87178 -0.35813,-0.91107 -0.26407,-0.94205 -0.17105,-0.96377 -0.0729,-0.97719 0.0248,-0.97825 0.12144,-0.97202 0.21756,-0.95396 0.31213,-0.92862 0.40204,-0.89245 0.48989,-0.84749 0.57103,-0.7953 0.64905,-0.73381 0.71727,-0.66611 0.7798,-0.59117 0.83612,-0.51109 0.88212,-0.42375 0.92088,-0.33486 0.94774,-0.2434 0.96842,-0.14468 0.97771,-0.0491 0.97825,0.0491 0.96789,0.14468 0.94774,0.2434 0.92139,0.33486 0.8816,0.42375 0.83613,0.51109 0.77981,0.59117 0.71726,0.66611 0.64905,0.73381 0.57103,0.7953 0.48989,0.84749 0.40204,0.89245 0.31213,0.92862 0.21807,0.95396 0.12196,0.97202 0.0238,0.97825 -0.0729,0.97719 -0.17104,0.96377 -0.26406,0.94205 -0.35813,0.91107 -0.447,0.87178 -0.53072,0.82216 -0.6103,0.76585 -0.68367,0.70126 -0.75137,0.62993 -0.80771,0.55086 -0.85885,0.4682 -0.90332,0.37982 -0.93586,0.28783 -0.95911,0.19432 z m -58.4998,0 h -0.9803 l -0.97359,-0.0976 -0.95911,-0.19432 -0.93586,-0.28783 -0.9033,-0.37982 -0.85887,-0.4682 -0.80821,-0.55086 -0.75087,-0.62993 -0.68419,-0.70126 -0.60979,-0.76585 -0.53123,-0.82216 -0.447,-0.87178 -0.35759,-0.91107 -0.26408,-0.94205 -0.17105,-0.96377 -0.0729,-0.97719 0.0238,-0.97825 0.12196,-0.97202 0.21807,-0.95396 0.31213,-0.92862 0.40204,-0.89245 0.48989,-0.84749 0.57103,-0.7953 0.64905,-0.73381 0.71676,-0.66611 0.78031,-0.59117 0.83562,-0.51109 0.88211,-0.42375 0.92087,-0.33486 0.94826,-0.2434 0.9679,-0.14468 0.97824,-0.0491 0.97771,0.0491 0.9679,0.14468 0.94828,0.2434 0.92086,0.33486 0.88212,0.42375 0.83612,0.51109 0.7798,0.59117 0.71727,0.66611 0.64855,0.73381 0.57101,0.7953 0.49041,0.84749 0.40204,0.89245 0.31162,0.92862 0.21807,0.95396 0.12093,0.97202 0.0253,0.97825 -0.0734,0.97719 -0.17104,0.96377 -0.26356,0.94205 -0.35811,0.91107 -0.447,0.87178 -0.53123,0.82216 -0.60978,0.76585 -0.68421,0.70126 -0.75086,0.62993 -0.80822,0.55086 -0.85886,0.4682 -0.90278,0.37982 -0.93637,0.28783 -0.9586,0.19432 z m 31.26011,-5.64099 h -5.00022 v -24.29257 h 5.00022 z"
       style="vector-effect:non-scaling-stroke;fill:none;stroke:#000000;stroke-width:0.264583;stroke-dasharray:none;stroke-opacity:1;-inkscape-stroke:hairline" />
  </g>
</svg>
