Cleat Wall Organization Equipment
Copyright (C) 2025  Corporate Hacks

This program is free software: you can redistribute it and/or modify
it under the terms of the GNU General Public License as published by
the Free Software Foundation, either version 3 of the License, or
(at your option) any later version.

This program is distributed in the hope that it will be useful,
but WITHOUT ANY WARRANTY; without even the implied warranty of
MERCHANTABILITY or FITNESS FOR A PARTICULAR PURPOSE.  See the
GNU General Public License for more details.

You should have received a copy of the GNU General Public License
along with this program.  If not, see <http://www.gnu.org/licenses/>.


<svg xmlns="http://www.w3.org/2000/svg" width="1300mm" height="900mm" viewBox="0 0 1300 900">
    <path d="M411.215 557.268h64.988l.502.024.494.074.486.122.472.168.452.214.429.257.402.298.37.337.338.37.298.402.257.43.214.452.168.472.122.485.073.495.025.502v29.188h8.667v-5.2h8.266v5.2h8.667V578.26h-5.2v-7.698h5.2v-8.098h-5.2v-7.698h5.2v-8.098h-13.608v5.2h-8.008v-5.2h-8.409v5.2h-8.008v-5.2h-.046l14.123-14.123-2.208-5.33v5.603h-7.791v-5.2h-8.191v5.2h-7.79v-5.2h-8.19v5.2h-7.792v-5.2h-8.19v5.2h-7.792v-5.342l-13.67 13.67v5.522h-.12zm8.408-5.4v-5h8.008v5zm16.417 0v-5h8.008v5zm16.416 0v-5h8.008v5z" style="fill:none;stroke:#000;stroke-opacity:1;vector-effect:non-scaling-stroke;-inkscape-stroke:hairline;stroke-width:.26458333;stroke-dasharray:none" transform="rotate(90 650 450)"/>
    <path fill="none" stroke="#000" stroke-width=".1mm" d="M416.415 494.075v-8.467h-5.2v-8.666h5.2v-8.467h12.34v5.2h17.14v-5.2h17.54v5.2h17.14v-5.2h17.54v5.2h17.14v-5.2h17.54v5.2h17.14v-5.2h17.54v5.2h17.14v-5.2h12.34v6.504h5.2v6.705h-5.2v6.304h5.2v6.705h-5.2v6.304h5.2v6.705h-5.2v6.304h5.2v6.705h-5.2v6.504h-45.344l-4.639-.215-4.602-.645-4.523-1.069-4.404-1.482-4.246-1.884-45.11-22.569-4.232-1.879-4.387-1.476-4.505-1.065-4.583-.641-4.625-.215h-45.34" style="fill:none;stroke:#000;stroke-opacity:1;vector-effect:non-scaling-stroke;-inkscape-stroke:hairline;stroke-width:.26458333;stroke-dasharray:none" transform="rotate(90 650 450)"/>
    <path d="M411.215 468.475h6.704v-5.2h6.305v5.2h6.704v-5.2h6.305v5.2h6.704v-5.2h6.305v5.2h6.704v-5.2h6.305v5.2h6.704v-29.188l.025-.502.073-.494.122-.486.17-.472.212-.452.257-.43.298-.401.337-.371.371-.337.402-.298.43-.257.451-.214.472-.168.486-.122.494-.073.502-.025h31.848v-10.6h-.12v-5.521l-13.67-13.67v5.341h-7.79v-5.2h-8.192v5.2h-7.79v-5.2h-8.192v5.2h-7.79v-5.2h-8.19v5.2h-7.792v-5.603l-2.208 5.33 14.123 14.123h-.046v5.2h-8.008v-5.2h-8.41v5.2h-8.007v-5.2h-13.608v8.098h5.2v7.698h-5.2v8.098h5.2v7.698h-5.2zm46.441-39.69v-5h8.008v5zm16.416 0v-5h8.008v5zm16.417 0v-5h8.008v5z" style="fill:none;stroke:#000;stroke-opacity:1;vector-effect:non-scaling-stroke;-inkscape-stroke:hairline;stroke-width:.26458333;stroke-dasharray:none" transform="rotate(90 650 450)"/>
    <path fill="none" stroke="#000" stroke-width=".1mm" d="M416.415 404.132v-8.208h-5.2v-8.408h5.2v-8.009h-5.2v-8.408h5.2v-8.008h-5.2v-8.408h5.2v-8.008h-5.2v-8.408h5.2v-8.009h-5.2v-8.408h5.2v-8.208h12.14v-5.2h17.54v5.2h17.14v-5.2h17.54v5.2h17.14v-5.2h17.54v5.2h17.14v-5.2h17.54v5.2h17.14v-5.2h17.54v5.2h12.14v8.208h5.2v8.408h-5.2v8.009h5.2v8.408h-5.2v8.008h5.2v8.408h-5.2v8.008h5.2v8.408h-5.2v8.009h5.2v8.408h-5.2v8.208h-180.54M506.905 535.422h190.94v8.191h-5.2v7.791h5.2v8.191h-5.2v7.79h5.2v8.191h-5.2v7.791h5.2v8.191h-190.94v-8.191h5.2v-7.791h-5.2v-8.191h5.2v-7.79h-5.2v-8.191h5.2v-7.791h-5.2v-8.191M697.845 554.566h5.2v-7.898h12.34v5.2h17.14v-5.2h17.54v5.2h17.14v-5.2h17.54v5.2h17.14v-5.2h17.54v5.2h17.14v-5.2h17.54v5.2h17.14v-5.2h12.34v7.898h5.2v8.098h-5.2v7.698h5.2v8.098h-5.2v7.898h-12.14v5.2h-17.54v-5.2h-17.14v5.2h-17.54v-5.2h-17.14v5.2h-17.54v-5.2h-17.14v5.2h-17.54v-5.2h-17.14v5.2h-17.54v-5.2h-12.14v-7.898h-5.2v-8.098h5.2v-7.698h-5.2v-8.098" style="fill:none;stroke:#000;stroke-opacity:1;vector-effect:non-scaling-stroke;-inkscape-stroke:hairline;stroke-width:.26458333;stroke-dasharray:none" transform="rotate(90 650 450)"/>
</svg>
