Cleat Wall Organization Equipment
Copyright (C) 2025  Corporate Hacks

This program is free software: you can redistribute it and/or modify
it under the terms of the GNU General Public License as published by
the Free Software Foundation, either version 3 of the License, or
(at your option) any later version.

This program is distributed in the hope that it will be useful,
but WITHOUT ANY WARRANTY; without even the implied warranty of
MERCHANTABILITY or FITNESS FOR A PARTICULAR PURPOSE.  See the
GNU General Public License for more details.

You should have received a copy of the GNU General Public License
along with this program.  If not, see <http://www.gnu.org/licenses/>.


<svg xmlns="http://www.w3.org/2000/svg" width="1300mm" height="900mm" viewBox="0 0 1300 900">
    <g stroke-width=".1mm" style="fill:none;stroke:#000;stroke-opacity:1;vector-effect:non-scaling-stroke;-inkscape-stroke:hairline;stroke-width:.26458333;stroke-dasharray:none">
        <path d="M650 467.539h18.541v-5.2h18.741v5.2h18.342v-5.2h18.741v5.2h18.341v-5.2h18.741v5.2h18.341v-5.2h18.741v5.2h18.342v-5.2h18.741v5.2h18.341v-5.2h18.741v5.2h18.341v-5.2h18.741v5.2h18.342v-5.2h18.741v5.2H965.4v13.13h-5.2v12.73h5.2v13.13h-5.2v12.73h5.2v13.13h-18.741v-5.2h-18.341v5.2h-18.742v-5.2h-18.341v5.2h-18.741v-5.2h-18.341v5.2h-18.741v-5.2h-18.341v5.2h-18.742v-5.2h-18.341v5.2h-18.741v-5.2h-18.341v5.2h-18.741v-5.2h-18.341v5.2h-18.742v-5.2h-18.341v5.2H650v-13.13h5.2v-12.73H650v-13.13h5.2v-12.73H650v-13.13" style="vector-effect:non-scaling-stroke;stroke-width:.26458333;stroke-dasharray:none;-inkscape-stroke:hairline;fill:none;stroke:#000;stroke-opacity:1" transform="rotate(-90 866.404 605.64)"/>
        <path d="M668.541 587.545h18.741v5.2h18.342v-5.2h18.741v5.2h18.341v-5.2h18.741v5.2h18.341v-5.2h18.741v5.2h18.342v-5.2h18.741v5.2h18.341v-5.2h18.741v5.2h18.341v-5.2h18.741v5.2h18.342v-5.2h18.741v5.2H965.4v14.05h-18.541v5.2h-18.741v-5.2h-18.342v5.2h-18.741v-5.2h-18.341v5.2h-18.741v-5.2h-18.341v5.2h-18.741v-5.2h-18.342v5.2h-18.741v-5.2h-18.341v5.2h-18.741v-5.2h-18.341v5.2h-18.741v-5.2h-18.342v5.2h-18.741v-5.2H650v-14.05h18.541v-5.2" style="vector-effect:non-scaling-stroke;stroke-width:.26458333;stroke-dasharray:none;-inkscape-stroke:hairline;fill:none;stroke:#000;stroke-opacity:1" transform="rotate(-90 791.576 680.468)"/>
        <path d="M334.6 611.995v-10.2h5.2v-9.8h-5.2v-10.2h18.541v-5.2h18.741v5.2h18.342v-5.2h18.741v5.2h18.341v-5.2h18.741v5.2h18.341v-5.2h18.741v5.2h18.342v-5.2h18.741v5.2h18.341v-5.2h18.741v5.2h18.341v-5.2h18.741v5.2h18.342v-5.2h18.741v5.2H650v10.2h-5.2v9.8h5.2v10.2H334.6" style="vector-effect:non-scaling-stroke;stroke-width:.26458333;stroke-dasharray:none;-inkscape-stroke:hairline;fill:none;stroke:#000;stroke-opacity:1" transform="rotate(90 551.602 723.646)"/>
        <path d="M334.6 576.595v-14.869h5.2v-14.468h-5.2v-14.869H650v14.869h-5.2v14.468h5.2v14.869h-18.741v-5.2h-18.341v5.2h-18.742v-5.2h-18.341v5.2h-18.741v-5.2h-18.341v5.2h-18.741v-5.2h-18.341v5.2h-18.742v-5.2h-18.341v5.2h-18.741v-5.2h-18.341v5.2h-18.741v-5.2h-18.341v5.2h-18.742v-5.2h-18.341v5.2H334.6" style="vector-effect:non-scaling-stroke;stroke-width:.26458333;stroke-dasharray:none;-inkscape-stroke:hairline;fill:none;stroke:#000;stroke-opacity:1" transform="rotate(90 511.8 683.843)"/>
        <path d="M334.6 532.389v-12.644h5.2V507.5h-5.2v-12.644h5.2v-12.245h-5.2v-12.644h5.2v-12.245h-5.2v-12.644h5.2v-12.245h-5.2v-12.644h18.741v5.2h18.341v-5.2h18.742v5.2h18.341v-5.2h18.741v5.2h18.341v-5.2h18.741v5.2h18.341v-5.2h18.742v5.2h18.341v-5.2h18.741v5.2h18.341v-5.2h18.741v5.2h18.341v-5.2h18.742v5.2h18.341v-5.2H650v12.644h-5.2v12.245h5.2v12.644h-5.2v12.245h5.2v12.644h-5.2v12.245h5.2V507.5h-5.2v12.245h5.2v12.644h-18.741v-5.2h-18.341v5.2h-18.742v-5.2h-18.341v5.2h-18.741v-5.2h-18.341v5.2h-18.741v-5.2h-18.341v5.2h-18.742v-5.2h-18.341v5.2h-18.741v-5.2h-18.341v5.2h-18.741v-5.2h-18.341v5.2h-18.742v-5.2h-18.341v5.2H334.6" style="vector-effect:non-scaling-stroke;stroke-width:.26458333;stroke-dasharray:none;-inkscape-stroke:hairline;fill:none;stroke:#000;stroke-opacity:1" transform="rotate(90 433.596 605.64)"/>
        <path d="M349.8 419.657v-5.2h-10v-7.244h-5.2v-12.645h5.2v-12.244h-5.2v-12.645h5.2v-12.244h-5.2V344.79h5.2v-12.244h-5.2v-12.645h5.2v-7.244h12.93v-5.2h13.13v5.2h12.73v-5h-5.831l-14.323-14.322 2.208-5.33v5.602h14.469v-5.2h14.868v5.2h9.469v14.05h-7.73v5h12.968L369.8 420.189v-5.732H360v5.2h-10.2" style="vector-effect:non-scaling-stroke;stroke-width:.26458333;stroke-dasharray:none;-inkscape-stroke:hairline;fill:none;stroke:#000;stroke-opacity:1" transform="rotate(90 597.525 340.882)"/>
        <path d="m439.575 420.189-34.887-107.532h12.967v-5h-7.73v-14.05h9.469v-5.2h14.868v5.2h14.469v-5.602l2.208 5.33-14.322 14.322h-5.832v5h12.73v-5.2h13.13v5.2h12.93v7.244h5.2v12.645h-5.2v12.244h5.2v12.645h-5.2v12.244h5.2v12.645h-5.2v12.244h5.2v12.645h-5.2v7.244h-10v5.2h-10.2v-5.2h-9.8v5.732" style="vector-effect:non-scaling-stroke;stroke-width:.26458333;stroke-dasharray:none;-inkscape-stroke:hairline;fill:none;stroke:#000;stroke-opacity:1" transform="rotate(90 676.66 393.127)"/>
        <path d="M349.8 419.657v-5.2h-10v-7.244h-5.2v-12.645h5.2v-12.244h-5.2v-12.645h5.2v-12.244h-5.2V344.79h5.2v-12.244h-5.2v-12.645h5.2v-7.244h12.93v-5.2h13.13v5.2h12.73v-5h-5.831l-14.323-14.322 2.208-5.33v5.602h14.469v-5.2h14.868v5.2h9.469v14.05h-7.73v5h12.968L369.8 420.189v-5.732H360v5.2h-10.2" style="vector-effect:non-scaling-stroke;stroke-width:.26458333;stroke-dasharray:none;-inkscape-stroke:hairline;fill:none;stroke:#000;stroke-opacity:1" transform="rotate(-90 378.028 147.815)"/>
        <path d="m439.575 420.189-34.887-107.532h12.967v-5h-7.73v-14.05h9.469v-5.2h14.868v5.2h14.469v-5.602l2.208 5.33-14.322 14.322h-5.832v5h12.73v-5.2h13.13v5.2h12.93v7.244h5.2v12.645h-5.2v12.244h5.2v12.645h-5.2v12.244h5.2v12.645h-5.2v12.244h5.2v12.645h-5.2v7.244h-10v5.2h-10.2v-5.2h-9.8v5.732" style="vector-effect:non-scaling-stroke;stroke-width:.26458333;stroke-dasharray:none;-inkscape-stroke:hairline;fill:none;stroke:#000;stroke-opacity:1" transform="rotate(-90 457.162 95.57)"/>
        <path d="M334.6 611.995v-10.2h5.2v-9.8h-5.2v-10.2h18.541v-5.2h18.741v5.2h18.342v-5.2h18.741v5.2h18.341v-5.2h18.741v5.2h18.341v-5.2h18.741v5.2h18.342v-5.2h18.741v5.2h18.341v-5.2h18.741v5.2h18.341v-5.2h18.741v5.2h18.342v-5.2h18.741v5.2H650v10.2h-5.2v9.8h5.2v10.2H334.6" style="vector-effect:non-scaling-stroke;stroke-width:.26458333;stroke-dasharray:none;-inkscape-stroke:hairline;fill:none;stroke:#000;stroke-opacity:1" transform="rotate(90 709.302 565.946)"/>
        <path d="M334.6 576.595v-14.869h5.2v-14.468h-5.2v-14.869H650v14.869h-5.2v14.468h5.2v14.869h-18.741v-5.2h-18.341v5.2h-18.742v-5.2h-18.341v5.2h-18.741v-5.2h-18.341v5.2h-18.741v-5.2h-18.341v5.2h-18.742v-5.2h-18.341v5.2h-18.741v-5.2h-18.341v5.2h-18.741v-5.2h-18.341v5.2h-18.742v-5.2h-18.341v5.2H334.6" style="vector-effect:non-scaling-stroke;stroke-width:.26458333;stroke-dasharray:none;-inkscape-stroke:hairline;fill:none;stroke:#000;stroke-opacity:1" transform="rotate(90 669.5 526.143)"/>
        <path d="M334.6 532.389v-12.644h5.2V507.5h-5.2v-12.644h5.2v-12.245h-5.2v-12.644h5.2v-12.245h-5.2v-12.644h5.2v-12.245h-5.2v-12.644h18.741v5.2h18.341v-5.2h18.742v5.2h18.341v-5.2h18.741v5.2h18.341v-5.2h18.741v5.2h18.341v-5.2h18.742v5.2h18.341v-5.2h18.741v5.2h18.341v-5.2h18.741v5.2h18.341v-5.2h18.742v5.2h18.341v-5.2H650v12.644h-5.2v12.245h5.2v12.644h-5.2v12.245h5.2v12.644h-5.2v12.245h5.2V507.5h-5.2v12.245h5.2v12.644h-18.741v-5.2h-18.341v5.2h-18.742v-5.2h-18.341v5.2h-18.741v-5.2h-18.341v5.2h-18.741v-5.2h-18.341v5.2h-18.742v-5.2h-18.341v5.2h-18.741v-5.2h-18.341v5.2h-18.741v-5.2h-18.341v5.2h-18.742v-5.2h-18.341v5.2H334.6" style="vector-effect:non-scaling-stroke;stroke-width:.26458333;stroke-dasharray:none;-inkscape-stroke:hairline;fill:none;stroke:#000;stroke-opacity:1" transform="rotate(90 591.296 447.94)"/>
        <path d="M650 467.539h18.541v-5.2h18.741v5.2h18.342v-5.2h18.741v5.2h18.341v-5.2h18.741v5.2h18.341v-5.2h18.741v5.2h18.342v-5.2h18.741v5.2h18.341v-5.2h18.741v5.2h18.341v-5.2h18.741v5.2h18.342v-5.2h18.741v5.2H965.4v13.13h-5.2v12.73h5.2v13.13h-5.2v12.73h5.2v13.13h-18.741v-5.2h-18.341v5.2h-18.742v-5.2h-18.341v5.2h-18.741v-5.2h-18.341v5.2h-18.741v-5.2h-18.341v5.2h-18.742v-5.2h-18.341v5.2h-18.741v-5.2h-18.341v5.2h-18.741v-5.2h-18.341v5.2h-18.742v-5.2h-18.341v5.2H650v-13.13h5.2v-12.73H650v-13.13h5.2v-12.73H650v-13.13" style="vector-effect:non-scaling-stroke;stroke-width:.26458333;stroke-dasharray:none;-inkscape-stroke:hairline;fill:none;stroke:#000;stroke-opacity:1" transform="rotate(-90 708.704 447.94)"/>
        <path d="M668.541 587.545h18.741v5.2h18.342v-5.2h18.741v5.2h18.341v-5.2h18.741v5.2h18.341v-5.2h18.741v5.2h18.342v-5.2h18.741v5.2h18.341v-5.2h18.741v5.2h18.341v-5.2h18.741v5.2h18.342v-5.2h18.741v5.2H965.4v14.05h-18.541v5.2h-18.741v-5.2h-18.342v5.2h-18.741v-5.2h-18.341v5.2h-18.741v-5.2h-18.341v5.2h-18.741v-5.2h-18.342v5.2h-18.741v-5.2h-18.341v5.2h-18.741v-5.2h-18.341v5.2h-18.741v-5.2h-18.342v5.2h-18.741v-5.2H650v-14.05h18.541v-5.2" style="vector-effect:non-scaling-stroke;stroke-width:.26458333;stroke-dasharray:none;-inkscape-stroke:hairline;fill:none;stroke:#000;stroke-opacity:1" transform="rotate(-90 633.876 522.768)"/>
    </g>
</svg>
