<!--
Cleat Wall Organization Equipment
Copyright (C) 2025  Corporate Hacks

This program is free software: you can redistribute it and/or modify
it under the terms of the GNU General Public License as published by
the Free Software Foundation, either version 3 of the License, or
(at your option) any later version.

This program is distributed in the hope that it will be useful,
but WITHOUT ANY WARRANTY; without even the implied warranty of
MERCHANTABILITY or FITNESS FOR A PARTICULAR PURPOSE.  See the
GNU General Public License for more details.

You should have received a copy of the GNU General Public License
along with this program.  If not, see <http://www.gnu.org/licenses/>.
-->

<svg xmlns="http://www.w3.org/2000/svg" width="1300mm" height="900mm" viewBox="0 0 1300 900">
    <path fill="none" stroke="#000" stroke-width=".1mm" d="M452.826 610.501v-18.089h-5.2v-18.289h5.2v-17.889h-5.2v-18.289h5.2v-17.888h-5.2v-18.289h5.2v-17.889h-5.2V465.59h5.2v-12.889h12.93v-5.2h13.13v5.2h12.73v-5h-5.832l-14.322-14.322 2.208-5.33v5.602h14.469v-5.2h14.868v5.2h14.669v14.05h-12.93v5H517.7l-34.694 157.8h-10.18v-5.2h-9.8v5.2h-10.2" style="vector-effect:non-scaling-stroke;stroke-width:.264583;stroke-dasharray:none;-inkscape-stroke:hairline" transform="rotate(-90 485.104 600.259)"/>
    <path fill="none" stroke="#000" stroke-width=".1mm" d="m552.394 610.501-34.694-157.8h12.954v-5h-12.93v-14.05h14.669v-5.2h14.868v5.2h14.469v-5.602l2.208 5.33-14.322 14.322h-5.832v5h12.73v-5.2h13.13v5.2h12.93v12.889h5.2v18.289h-5.2v17.889h5.2v18.289h-5.2v17.888h5.2v18.289h-5.2v17.889h5.2v18.289h-5.2v18.089h-10.2v-5.2h-9.8v5.2h-10.18" style="vector-effect:non-scaling-stroke;stroke-width:.264583;stroke-dasharray:none;-inkscape-stroke:hairline" transform="rotate(-90 590.967 523.67)"/>
    <path fill="none" stroke="#000" stroke-width=".1mm" d="M452.826 610.501v-18.089h-5.2v-18.289h5.2v-17.889h-5.2v-18.289h5.2v-17.888h-5.2v-18.289h5.2v-17.889h-5.2V465.59h5.2v-12.889h12.93v-5.2h13.13v5.2h12.73v-5h-5.832l-14.322-14.322 2.208-5.33v5.602h14.469v-5.2h14.868v5.2h14.669v14.05h-12.93v5H517.7l-34.694 157.8h-10.18v-5.2h-9.8v5.2h-10.2" style="vector-effect:non-scaling-stroke;stroke-width:.264583;stroke-dasharray:none;-inkscape-stroke:hairline" transform="rotate(90 422.079 501.316)"/>
    <path fill="none" stroke="#000" stroke-width=".1mm" d="m552.394 610.501-34.694-157.8h12.954v-5h-12.93v-14.05h14.669v-5.2h14.868v5.2h14.469v-5.602l2.208 5.33-14.322 14.322h-5.832v5h12.73v-5.2h13.13v5.2h12.93v12.889h5.2v18.289h-5.2v17.889h5.2v18.289h-5.2v17.888h5.2v18.289h-5.2v17.889h5.2v18.289h-5.2v18.089h-10.2v-5.2h-9.8v5.2h-10.18" style="vector-effect:non-scaling-stroke;stroke-width:.264583;stroke-dasharray:none;-inkscape-stroke:hairline" transform="rotate(90 527.942 577.905)"/>
    <path fill="none" stroke="#000" stroke-width=".1mm" d="M447.626 629.751v-14.05h12.427v-5.2h17.826v5.2h17.427v-5.2h17.827v5.2h17.426v-5.2h17.827v5.2h17.427v-5.2h17.826v5.2h17.427v-5.2h17.827v5.2h17.426v-5.2h17.827v5.2h17.427v-5.2h17.826v5.2h12.427v14.05h-12.427v5.2h-17.826v-5.2h-17.427v5.2h-17.827v-5.2h-17.426v5.2h-17.827v-5.2h-17.427v5.2h-17.826v-5.2h-17.427v5.2h-17.827v-5.2h-17.426v5.2h-17.827v-5.2h-17.427v5.2h-17.826v-5.2h-12.427" style="vector-effect:non-scaling-stroke;stroke-width:.264583;stroke-dasharray:none;-inkscape-stroke:hairline" transform="rotate(90 564.004 383.841)"/>
    <path fill="none" stroke="#000" stroke-width=".1mm" d="M587.774 610.501v-13.13h5.2v-12.73h-5.2v-13.13h5.2v-12.73h-5.2v-13.13h17.627v-5.2h17.826v5.2h17.427v-5.2h17.827v5.2h17.426v-5.2h17.827v5.2h17.427v-5.2h17.826v5.2h17.427v-5.2h17.827v5.2h17.426v-5.2h17.827v5.2h17.427v-5.2h17.826v5.2h17.627v13.13h-5.2v12.73h5.2v13.13h-5.2v12.73h5.2v13.13h-17.827v-5.2h-17.426v5.2h-17.827v-5.2h-17.427v5.2h-17.826v-5.2h-17.427v5.2h-17.827v-5.2h-17.426v5.2h-17.827v-5.2h-17.427v5.2h-17.826v-5.2h-17.427v5.2h-17.827v-5.2h-17.426v5.2h-17.827" style="vector-effect:non-scaling-stroke;stroke-width:.264583;stroke-dasharray:none;-inkscape-stroke:hairline" transform="rotate(90 891.134 565.623)"/>
    <path fill="none" stroke="#000" stroke-width=".1mm" d="M587.774 540.451v-14.869h5.2v-14.468h-5.2v-14.869h264.6v14.869h-5.2v14.468h5.2v14.869h-17.827v-5.2h-17.426v5.2h-17.827v-5.2h-17.427v5.2h-17.826v-5.2h-17.427v5.2h-17.827v-5.2h-17.426v5.2h-17.827v-5.2h-17.427v5.2h-17.826v-5.2h-17.427v5.2h-17.827v-5.2h-17.426v5.2h-17.827" style="vector-effect:non-scaling-stroke;stroke-width:.264583;stroke-dasharray:none;-inkscape-stroke:hairline" transform="rotate(-90 547.221 567.416)"/>
    <path fill="none" stroke="#000" stroke-width=".1mm" d="M592.974 496.245v-10h-5.2v-10.2h5.2v-10h12.427v-5.2h17.826v5.2h17.427v-5.2h17.827v5.2h17.426v-5.2h17.827v5.2h17.427v-5.2h17.826v5.2h17.427v-5.2h17.827v5.2h17.426v-5.2h17.827v5.2h17.427v-5.2h17.826v5.2h12.427v10h5.2v10.2h-5.2v10h-254.2" style="vector-effect:non-scaling-stroke;stroke-width:.264583;stroke-dasharray:none;-inkscape-stroke:hairline" transform="rotate(-90 785.049 329.588)"/>
    <path fill="none" stroke="#000" stroke-width=".1mm" d="M588.639 428.049v-5.2h-17.426v5.2h-17.827v-5.2h-17.427v5.2h-17.826v-5.2h-17.427v5.2h-17.827v-5.2h-17.426v5.2h-17.827V409.76h5.2v-17.889h-5.2v-18.289h5.2v-17.889h-5.2v-18.288h5.2v-17.889h-5.2v-18.289h5.2v-17.889h-5.2v-18.289h17.827v5.2h17.426v-5.2h17.827v5.2h17.427v-5.2h17.826v5.2h17.427v-5.2h17.827v5.2h17.426v-5.2h17.827v5.2h17.427v-5.2h17.826v5.2h17.427v-5.2h17.827v5.2h17.426v-5.2h17.827v18.289h-5.2v17.889h5.2v18.289h-5.2v17.889h5.2v18.288h-5.2v17.889h5.2v18.289h-5.2v17.889h5.2v18.289h-17.827v-5.2h-17.426v5.2h-17.827v-5.2h-17.427v5.2h-17.826v-5.2h-17.427v5.2h-17.827" style="vector-effect:non-scaling-stroke;stroke-width:.264583;stroke-dasharray:none;-inkscape-stroke:hairline" transform="rotate(90 648.334 462.971)"/>
    <path fill="none" stroke="#000" stroke-width=".1mm" d="M447.626 629.751v-14.05h12.427v-5.2h17.826v5.2h17.427v-5.2h17.827v5.2h17.426v-5.2h17.827v5.2h17.427v-5.2h17.826v5.2h17.427v-5.2h17.827v5.2h17.426v-5.2h17.827v5.2h17.427v-5.2h17.826v5.2h12.427v14.05h-12.427v5.2h-17.826v-5.2h-17.427v5.2h-17.827v-5.2h-17.426v5.2h-17.827v-5.2h-17.427v5.2h-17.826v-5.2h-17.427v5.2h-17.827v-5.2h-17.426v5.2h-17.827v-5.2h-17.427v5.2h-17.826v-5.2h-12.427" style="vector-effect:non-scaling-stroke;stroke-width:.264583;stroke-dasharray:none;-inkscape-stroke:hairline" transform="rotate(90 576.229 396.066)"/>
    <path fill="none" stroke="#000" stroke-width=".1mm" d="M587.774 610.501v-13.13h5.2v-12.73h-5.2v-13.13h5.2v-12.73h-5.2v-13.13h17.627v-5.2h17.826v5.2h17.427v-5.2h17.827v5.2h17.426v-5.2h17.827v5.2h17.427v-5.2h17.826v5.2h17.427v-5.2h17.827v5.2h17.426v-5.2h17.827v5.2h17.427v-5.2h17.826v5.2h17.627v13.13h-5.2v12.73h5.2v13.13h-5.2v12.73h5.2v13.13h-17.827v-5.2h-17.426v5.2h-17.827v-5.2h-17.427v5.2h-17.826v-5.2h-17.427v5.2h-17.827v-5.2h-17.426v5.2h-17.827v-5.2h-17.427v5.2h-17.826v-5.2h-17.427v5.2h-17.827v-5.2h-17.426v5.2h-17.827" style="vector-effect:non-scaling-stroke;stroke-width:.264583;stroke-dasharray:none;-inkscape-stroke:hairline" transform="rotate(-90 467.99 646.647)"/>
    <path fill="none" stroke="#000" stroke-width=".1mm" d="M587.774 540.451v-14.869h5.2v-14.468h-5.2v-14.869h264.6v14.869h-5.2v14.468h5.2v14.869h-17.827v-5.2h-17.426v5.2h-17.827v-5.2h-17.427v5.2h-17.826v-5.2h-17.427v5.2h-17.827v-5.2h-17.426v5.2h-17.827v-5.2h-17.427v5.2h-17.826v-5.2h-17.427v5.2h-17.827v-5.2h-17.426v5.2h-17.827" style="vector-effect:non-scaling-stroke;stroke-width:.264583;stroke-dasharray:none;-inkscape-stroke:hairline" transform="rotate(90 648.903 323.392)"/>
    <path fill="none" stroke="#000" stroke-width=".1mm" d="M592.974 496.245v-10h-5.2v-10.2h5.2v-10h12.427v-5.2h17.826v5.2h17.427v-5.2h17.827v5.2h17.426v-5.2h17.827v5.2h17.427v-5.2h17.826v5.2h17.427v-5.2h17.827v5.2h17.426v-5.2h17.827v5.2h17.427v-5.2h17.826v5.2h12.427v10h5.2v10.2h-5.2v10h-254.2" style="vector-effect:non-scaling-stroke;stroke-width:.264583;stroke-dasharray:none;-inkscape-stroke:hairline" transform="rotate(90 886.731 561.22)"/>
    <path fill="none" stroke="#000" stroke-width=".1mm" d="M588.639 428.049v-5.2h-17.426v5.2h-17.827v-5.2h-17.427v5.2h-17.826v-5.2h-17.427v5.2h-17.827v-5.2h-17.426v5.2h-17.827V409.76h5.2v-17.889h-5.2v-18.289h5.2v-17.889h-5.2v-18.288h5.2v-17.889h-5.2v-18.289h5.2v-17.889h-5.2v-18.289h17.827v5.2h17.426v-5.2h17.827v5.2h17.427v-5.2h17.826v5.2h17.427v-5.2h17.827v5.2h17.426v-5.2h17.827v5.2h17.427v-5.2h17.826v5.2h17.427v-5.2h17.827v5.2h17.426v-5.2h17.827v18.289h-5.2v17.889h5.2v18.289h-5.2v17.889h5.2v18.288h-5.2v17.889h5.2v18.289h-5.2v17.889h5.2v18.289h-17.827v-5.2h-17.426v5.2h-17.827v-5.2h-17.427v5.2h-17.826v-5.2h-17.427v5.2h-17.827" style="vector-effect:non-scaling-stroke;stroke-width:.264583;stroke-dasharray:none;-inkscape-stroke:hairline" transform="rotate(90 566.834 381.471)"/>
</svg>
