Cleat Wall Organization Equipment
Copyright (C) 2025  Corporate Hacks

This program is free software: you can redistribute it and/or modify
it under the terms of the GNU General Public License as published by
the Free Software Foundation, either version 3 of the License, or
(at your option) any later version.

This program is distributed in the hope that it will be useful,
but WITHOUT ANY WARRANTY; without even the implied warranty of
MERCHANTABILITY or FITNESS FOR A PARTICULAR PURPOSE.  See the
GNU General Public License for more details.

You should have received a copy of the GNU General Public License
along with this program.  If not, see <http://www.gnu.org/licenses/>.


<svg xmlns="http://www.w3.org/2000/svg" width="1300mm" height="900mm" viewBox="0 0 1300 900">
    <path fill="none" stroke="#000" stroke-width=".1mm" d="M616.251 629.478v-14.05h10.067v-5.2h15.466v5.2h15.067v-5.2h15.467v5.2h15.066v-5.2h15.467v5.2h15.067v-5.2h15.466v5.2h10.067v14.05h-10.067v5.2h-15.466v-5.2h-15.067v5.2h-15.467v-5.2h-15.066v5.2h-15.467v-5.2h-15.067v5.2h-15.466v-5.2h-10.067" style="vector-effect:non-scaling-stroke;stroke-width:.264583;stroke-dasharray:none;-inkscape-stroke:hairline" transform="rotate(90 668.027 380.195)"/>
    <path fill="none" stroke="#000" stroke-width=".1mm" d="M621.451 610.228v-10h-5.2v-10.2h5.2v-10h10.067v-5.2h15.466v5.2h15.067v-5.2h15.467v5.2h15.066v-5.2h15.467v5.2h15.067v-5.2h15.466v5.2h10.067v10h5.2v10.2h-5.2v10h-127.2" style="vector-effect:non-scaling-stroke;stroke-width:.264583;stroke-dasharray:none;-inkscape-stroke:hairline" transform="rotate(90 889.383 596.35)"/>
    <path fill="none" stroke="#000" stroke-width=".1mm" d="M616.251 574.828v-14.869h5.2v-14.468h-5.2v-14.869h137.6v14.869h-5.2v14.468h5.2v14.869h-15.467v-5.2h-15.066v5.2h-15.467v-5.2h-15.067v5.2h-15.466v-5.2h-15.067v5.2h-15.467v-5.2h-15.066v5.2h-15.467" style="vector-effect:non-scaling-stroke;stroke-width:.264583;stroke-dasharray:none;-inkscape-stroke:hairline" transform="rotate(90 731.352 438.32)"/>
    <path fill="none" stroke="#000" stroke-width=".1mm" d="M622.682 528.425h-15.466v-5.2h-15.067v5.2h-15.467v-5.2h-15.066v5.2h-15.467v-13.13h5.2v-12.73h-5.2v-13.13h5.2v-12.73h-5.2v-13.13h15.267v-5.2h15.466v5.2h15.067v-5.2h15.467v5.2h15.066v-5.2h15.467v5.2h15.067v-5.2h15.466v5.2h15.267v13.13h-5.2v12.73h5.2v13.13h-5.2v12.73h5.2v13.13h-15.467v-5.2h-15.066v5.2h-15.467v-5.2h-15.067v5.2" style="vector-effect:non-scaling-stroke;stroke-width:.264583;stroke-dasharray:none;-inkscape-stroke:hairline" transform="rotate(90 760.706 537.775)"/>
    <path fill="none" stroke="#000" stroke-width=".1mm" d="M622.682 458.375h-15.466v-5.2h-15.067v5.2h-15.467v-5.2h-15.066v5.2h-15.467v-9.822h5.2v-9.422h-5.2v-9.823h5.2v-9.422h-5.2v-9.822h5.2v-9.422h-5.2v-9.823h5.2v-9.422h-5.2v-9.822h15.467v5.2h15.066v-5.2h15.467v5.2h15.067v-5.2h15.466v5.2h15.067v-5.2h15.467v5.2h15.066v-5.2h15.467v9.822h-5.2v9.422h5.2v9.823h-5.2v9.422h5.2v9.822h-5.2v9.422h5.2v9.823h-5.2v9.422h5.2v9.822h-15.467v-5.2h-15.066v5.2h-15.467v-5.2h-15.067v5.2" style="vector-effect:non-scaling-stroke;stroke-width:.264583;stroke-dasharray:none;-inkscape-stroke:hairline" transform="rotate(90 682.28 459.35)"/>
    <path fill="none" stroke="#000" stroke-width=".1mm" d="M616.251 629.478v-14.05h10.067v-5.2h15.466v5.2h15.067v-5.2h15.467v5.2h15.066v-5.2h15.467v5.2h15.067v-5.2h15.466v5.2h10.067v14.05h-10.067v5.2h-15.466v-5.2h-15.067v5.2h-15.467v-5.2h-15.066v5.2h-15.467v-5.2h-15.067v5.2h-15.466v-5.2h-10.067" style="vector-effect:non-scaling-stroke;stroke-width:.264583;stroke-dasharray:none;-inkscape-stroke:hairline" transform="rotate(-90 425.368 646.502)"/>
    <path fill="none" stroke="#000" stroke-width=".1mm" d="M621.451 610.228v-10h-5.2v-10.2h5.2v-10h10.067v-5.2h15.466v5.2h15.067v-5.2h15.467v5.2h15.066v-5.2h15.467v5.2h15.067v-5.2h15.466v5.2h10.067v10h5.2v10.2h-5.2v10h-127.2" style="vector-effect:non-scaling-stroke;stroke-width:.264583;stroke-dasharray:none;-inkscape-stroke:hairline" transform="rotate(-90 671.174 405.896)"/>
    <path fill="none" stroke="#000" stroke-width=".1mm" d="M616.251 574.828v-14.869h5.2v-14.468h-5.2v-14.869h137.6v14.869h-5.2v14.468h5.2v14.869h-15.467v-5.2h-15.066v5.2h-15.467v-5.2h-15.067v5.2h-15.466v-5.2h-15.067v5.2h-15.467v-5.2h-15.066v5.2h-15.467" style="vector-effect:non-scaling-stroke;stroke-width:.264583;stroke-dasharray:none;-inkscape-stroke:hairline" transform="rotate(-90 592.749 484.32)"/>
    <path fill="none" stroke="#000" stroke-width=".1mm" d="M622.682 528.425h-15.466v-5.2h-15.067v5.2h-15.467v-5.2h-15.066v5.2h-15.467v-13.13h5.2v-12.73h-5.2v-13.13h5.2v-12.73h-5.2v-13.13h15.267v-5.2h15.466v5.2h15.067v-5.2h15.467v5.2h15.066v-5.2h15.467v5.2h15.067v-5.2h15.466v5.2h15.267v13.13h-5.2v12.73h5.2v13.13h-5.2v12.73h5.2v13.13h-15.467v-5.2h-15.066v5.2h-15.467v-5.2h-15.067v5.2" style="vector-effect:non-scaling-stroke;stroke-width:.264583;stroke-dasharray:none;-inkscape-stroke:hairline" transform="rotate(-90 493.293 513.674)"/>
    <path fill="none" stroke="#000" stroke-width=".1mm" d="M622.682 458.375h-15.466v-5.2h-15.067v5.2h-15.467v-5.2h-15.066v5.2h-15.467v-9.822h5.2v-9.422h-5.2v-9.823h5.2v-9.422h-5.2v-9.822h5.2v-9.422h-5.2v-9.823h5.2v-9.422h-5.2v-9.822h15.467v5.2h15.066v-5.2h15.467v5.2h15.067v-5.2h15.466v5.2h15.067v-5.2h15.467v5.2h15.066v-5.2h15.467v9.822h-5.2v9.422h5.2v9.823h-5.2v9.422h5.2v9.822h-5.2v9.422h5.2v9.823h-5.2v9.422h5.2v9.822h-15.467v-5.2h-15.066v5.2h-15.467v-5.2h-15.067v5.2" style="vector-effect:non-scaling-stroke;stroke-width:.264583;stroke-dasharray:none;-inkscape-stroke:hairline" transform="rotate(-90 571.718 435.25)"/>
    <path fill="none" stroke="#000" stroke-width=".1mm" d="m580.885 634.678-34.736-81.6h12.982v-5h-12.93v-14.05h14.669v-5.2h14.868v5.2h14.469v-5.603l2.208 5.33-14.323 14.323h-5.831v5h12.73v-5.2h13.13v5.2h12.93v4.422h5.2v9.822h-5.2v9.423h5.2v9.822h-5.2v9.422h5.2v9.822h-5.2v9.423h5.2v9.822h-5.2v9.622h-10.2v-5.2h-9.8v5.2h-10.166" style="vector-effect:non-scaling-stroke;stroke-width:.264583;stroke-dasharray:none;-inkscape-stroke:hairline" transform="rotate(90 584.747 545.278)"/>
    <path fill="none" stroke="#000" stroke-width=".1mm" d="M581.515 371.575h-10.166v-5.2h-9.8v5.2h-10.2v-9.622h-5.2v-9.822h5.2v-9.423h-5.2v-9.822h5.2v-9.422h-5.2v-9.822h5.2v-9.423h-5.2v-9.822h5.2v-4.422h12.93v-5.2h13.13v5.2h12.73v-5h-5.831l-14.323-14.323 2.208-5.33v5.603h14.469v-5.2h14.868v5.2h14.669v14.05h-12.93v5h12.982l-34.736 81.6" style="vector-effect:non-scaling-stroke;stroke-width:.264583;stroke-dasharray:none;-inkscape-stroke:hairline" transform="rotate(90 423 337.67)"/>
    <path fill="none" stroke="#000" stroke-width=".1mm" d="m580.885 634.678-34.736-81.6h12.982v-5h-12.93v-14.05h14.669v-5.2h14.868v5.2h14.469v-5.603l2.208 5.33-14.323 14.323h-5.831v5h12.73v-5.2h13.13v5.2h12.93v4.422h5.2v9.822h-5.2v9.423h5.2v9.822h-5.2v9.422h5.2v9.822h-5.2v9.423h5.2v9.822h-5.2v9.622h-10.2v-5.2h-9.8v5.2h-10.166" style="vector-effect:non-scaling-stroke;stroke-width:.264583;stroke-dasharray:none;-inkscape-stroke:hairline" transform="rotate(-90 521.996 555.074)"/>
    <path fill="none" stroke="#000" stroke-width=".1mm" d="M581.515 371.575h-10.166v-5.2h-9.8v5.2h-10.2v-9.622h-5.2v-9.822h5.2v-9.423h-5.2v-9.822h5.2v-9.422h-5.2v-9.822h5.2v-9.423h-5.2v-9.822h5.2v-4.422h12.93v-5.2h13.13v5.2h12.73v-5h-5.831l-14.323-14.323 2.208-5.33v5.603h14.469v-5.2h14.868v5.2h14.669v14.05h-12.93v5h12.982l-34.736 81.6" style="vector-effect:non-scaling-stroke;stroke-width:.264583;stroke-dasharray:none;-inkscape-stroke:hairline" transform="rotate(-90 623.351 499.58)"/>
</svg>
