<?xml version="1.0" encoding="UTF-8" standalone="no"?>
<svg
   width="1300mm"
   height="900mm"
   viewBox="0 0 1300 900"
   version="1.1"
   id="svg7"
   sodipodi:docname="Tray5x3.svg"
   inkscape:version="1.3.2 (091e20ef0f, 2023-11-25)"
   xmlns:inkscape="http://www.inkscape.org/namespaces/inkscape"
   xmlns:sodipodi="http://sodipodi.sourceforge.net/DTD/sodipodi-0.dtd"
   xmlns="http://www.w3.org/2000/svg"
   xmlns:svg="http://www.w3.org/2000/svg">
  <defs
     id="defs7" />
  <sodipodi:namedview
     id="namedview7"
     pagecolor="#505050"
     bordercolor="#eeeeee"
     borderopacity="1"
     inkscape:showpageshadow="0"
     inkscape:pageopacity="0"
     inkscape:pagecheckerboard="0"
     inkscape:deskcolor="#505050"
     inkscape:document-units="mm"
     inkscape:zoom="0.32686218"
     inkscape:cx="1506.7513"
     inkscape:cy="2054.3827"
     inkscape:window-width="1920"
     inkscape:window-height="1011"
     inkscape:window-x="0"
     inkscape:window-y="32"
     inkscape:window-maximized="1"
     inkscape:current-layer="svg7" />
  <polyline
     z="0"
     points="616.251,629.478 616.251,615.428 626.318,615.428 626.318,610.228 641.784,610.228 641.784,615.428 656.851,615.428 656.851,610.228 672.318,610.228 672.318,615.428 687.384,615.428 687.384,610.228 702.851,610.228 702.851,615.428 717.918,615.428 717.918,610.228 733.384,610.228 733.384,615.428 743.451,615.428 743.451,629.478 733.384,629.478 733.384,634.678 717.918,634.678 717.918,629.478 702.851,629.478 702.851,634.678 687.384,634.678 687.384,629.478 672.318,629.478 672.318,634.678 656.851,634.678 656.851,629.478 641.784,629.478 641.784,634.678 626.318,634.678 626.318,629.478 616.251,629.478"
     fill="none"
     stroke="#000000"
     stroke-width="0.1mm"
     id="polyline2"
     transform="rotate(90,668.02711,380.19489)"
     style="vector-effect:non-scaling-stroke;stroke-width:0.264583;stroke-dasharray:none;-inkscape-stroke:hairline" />
  <polyline
     z="0"
     points="621.451,610.228 621.451,600.228 616.251,600.228 616.251,590.028 621.451,590.028 621.451,580.028 631.518,580.028 631.518,574.828 646.984,574.828 646.984,580.028 662.051,580.028 662.051,574.828 677.518,574.828 677.518,580.028 692.584,580.028 692.584,574.828 708.051,574.828 708.051,580.028 723.118,580.028 723.118,574.828 738.584,574.828 738.584,580.028 748.651,580.028 748.651,590.028 753.851,590.028 753.851,600.228 748.651,600.228 748.651,610.228 621.451,610.228"
     fill="none"
     stroke="#000000"
     stroke-width="0.1mm"
     id="polyline3"
     transform="rotate(90,889.38311,596.35089)"
     style="vector-effect:non-scaling-stroke;stroke-width:0.264583;stroke-dasharray:none;-inkscape-stroke:hairline" />
  <polyline
     z="0"
     points="616.251,574.828 616.251,559.959 621.451,559.959 621.451,545.491 616.251,545.491 616.251,530.622 753.851,530.622 753.851,545.491 748.651,545.491 748.651,559.959 753.851,559.959 753.851,574.828 738.384,574.828 738.384,569.628 723.318,569.628 723.318,574.828 707.851,574.828 707.851,569.628 692.784,569.628 692.784,574.828 677.318,574.828 677.318,569.628 662.251,569.628 662.251,574.828 646.784,574.828 646.784,569.628 631.718,569.628 631.718,574.828 616.251,574.828"
     fill="none"
     stroke="#000000"
     stroke-width="0.1mm"
     id="polyline4"
     transform="rotate(90,731.35211,438.31989)"
     style="vector-effect:non-scaling-stroke;stroke-width:0.264583;stroke-dasharray:none;-inkscape-stroke:hairline" />
  <polyline
     z="0"
     points="622.682,528.425 607.216,528.425 607.216,523.225 592.149,523.225 592.149,528.425 576.682,528.425 576.682,523.225 561.616,523.225 561.616,528.425 546.149,528.425 546.149,515.295 551.349,515.295 551.349,502.565 546.149,502.565 546.149,489.435 551.349,489.435 551.349,476.705 546.149,476.705 546.149,463.575 561.416,463.575 561.416,458.375 576.882,458.375 576.882,463.575 591.949,463.575 591.949,458.375 607.416,458.375 607.416,463.575 622.482,463.575 622.482,458.375 637.949,458.375 637.949,463.575 653.016,463.575 653.016,458.375 668.482,458.375 668.482,463.575 683.749,463.575 683.749,476.705 678.549,476.705 678.549,489.435 683.749,489.435 683.749,502.565 678.549,502.565 678.549,515.295 683.749,515.295 683.749,528.425 668.282,528.425 668.282,523.225 653.216,523.225 653.216,528.425 637.749,528.425 637.749,523.225 622.682,523.225 622.682,528.425"
     fill="none"
     stroke="#000000"
     stroke-width="0.1mm"
     id="polyline5"
     transform="rotate(90,760.70561,537.77539)"
     style="vector-effect:non-scaling-stroke;stroke-width:0.264583;stroke-dasharray:none;-inkscape-stroke:hairline" />
  <polyline
     z="0"
     points="622.682,458.375 607.216,458.375 607.216,453.175 592.149,453.175 592.149,458.375 576.682,458.375 576.682,453.175 561.616,453.175 561.616,458.375 546.149,458.375 546.149,448.553 551.349,448.553 551.349,439.131 546.149,439.131 546.149,429.308 551.349,429.308 551.349,419.886 546.149,419.886 546.149,410.064 551.349,410.064 551.349,400.642 546.149,400.642 546.149,390.819 551.349,390.819 551.349,381.397 546.149,381.397 546.149,371.575 561.616,371.575 561.616,376.775 576.682,376.775 576.682,371.575 592.149,371.575 592.149,376.775 607.216,376.775 607.216,371.575 622.682,371.575 622.682,376.775 637.749,376.775 637.749,371.575 653.216,371.575 653.216,376.775 668.282,376.775 668.282,371.575 683.749,371.575 683.749,381.397 678.549,381.397 678.549,390.819 683.749,390.819 683.749,400.642 678.549,400.642 678.549,410.064 683.749,410.064 683.749,419.886 678.549,419.886 678.549,429.308 683.749,429.308 683.749,439.131 678.549,439.131 678.549,448.553 683.749,448.553 683.749,458.375 668.282,458.375 668.282,453.175 653.216,453.175 653.216,458.375 637.749,458.375 637.749,453.175 622.682,453.175 622.682,458.375"
     fill="none"
     stroke="#000000"
     stroke-width="0.1mm"
     id="polyline6"
     transform="rotate(90,682.28061,459.35039)"
     style="vector-effect:non-scaling-stroke;stroke-width:0.264583;stroke-dasharray:none;-inkscape-stroke:hairline" />
  <polyline
     z="0"
     points="616.251,629.478 616.251,615.428 626.318,615.428 626.318,610.228 641.784,610.228 641.784,615.428 656.851,615.428 656.851,610.228 672.318,610.228 672.318,615.428 687.384,615.428 687.384,610.228 702.851,610.228 702.851,615.428 717.918,615.428 717.918,610.228 733.384,610.228 733.384,615.428 743.451,615.428 743.451,629.478 733.384,629.478 733.384,634.678 717.918,634.678 717.918,629.478 702.851,629.478 702.851,634.678 687.384,634.678 687.384,629.478 672.318,629.478 672.318,634.678 656.851,634.678 656.851,629.478 641.784,629.478 641.784,634.678 626.318,634.678 626.318,629.478 616.251,629.478"
     fill="none"
     stroke="#000000"
     stroke-width="0.1mm"
     id="polyline2-9"
     transform="rotate(-90,425.36789,646.50189)"
     style="vector-effect:non-scaling-stroke;stroke-width:0.264583;stroke-dasharray:none;-inkscape-stroke:hairline" />
  <polyline
     z="0"
     points="621.451,610.228 621.451,600.228 616.251,600.228 616.251,590.028 621.451,590.028 621.451,580.028 631.518,580.028 631.518,574.828 646.984,574.828 646.984,580.028 662.051,580.028 662.051,574.828 677.518,574.828 677.518,580.028 692.584,580.028 692.584,574.828 708.051,574.828 708.051,580.028 723.118,580.028 723.118,574.828 738.584,574.828 738.584,580.028 748.651,580.028 748.651,590.028 753.851,590.028 753.851,600.228 748.651,600.228 748.651,610.228 621.451,610.228"
     fill="none"
     stroke="#000000"
     stroke-width="0.1mm"
     id="polyline3-1"
     transform="rotate(-90,671.17389,405.89589)"
     style="vector-effect:non-scaling-stroke;stroke-width:0.264583;stroke-dasharray:none;-inkscape-stroke:hairline" />
  <polyline
     z="0"
     points="616.251,574.828 616.251,559.959 621.451,559.959 621.451,545.491 616.251,545.491 616.251,530.622 753.851,530.622 753.851,545.491 748.651,545.491 748.651,559.959 753.851,559.959 753.851,574.828 738.384,574.828 738.384,569.628 723.318,569.628 723.318,574.828 707.851,574.828 707.851,569.628 692.784,569.628 692.784,574.828 677.318,574.828 677.318,569.628 662.251,569.628 662.251,574.828 646.784,574.828 646.784,569.628 631.718,569.628 631.718,574.828 616.251,574.828"
     fill="none"
     stroke="#000000"
     stroke-width="0.1mm"
     id="polyline4-2"
     transform="rotate(-90,592.74889,484.32089)"
     style="vector-effect:non-scaling-stroke;stroke-width:0.264583;stroke-dasharray:none;-inkscape-stroke:hairline" />
  <polyline
     z="0"
     points="622.682,528.425 607.216,528.425 607.216,523.225 592.149,523.225 592.149,528.425 576.682,528.425 576.682,523.225 561.616,523.225 561.616,528.425 546.149,528.425 546.149,515.295 551.349,515.295 551.349,502.565 546.149,502.565 546.149,489.435 551.349,489.435 551.349,476.705 546.149,476.705 546.149,463.575 561.416,463.575 561.416,458.375 576.882,458.375 576.882,463.575 591.949,463.575 591.949,458.375 607.416,458.375 607.416,463.575 622.482,463.575 622.482,458.375 637.949,458.375 637.949,463.575 653.016,463.575 653.016,458.375 668.482,458.375 668.482,463.575 683.749,463.575 683.749,476.705 678.549,476.705 678.549,489.435 683.749,489.435 683.749,502.565 678.549,502.565 678.549,515.295 683.749,515.295 683.749,528.425 668.282,528.425 668.282,523.225 653.216,523.225 653.216,528.425 637.749,528.425 637.749,523.225 622.682,523.225 622.682,528.425"
     fill="none"
     stroke="#000000"
     stroke-width="0.1mm"
     id="polyline5-7"
     transform="rotate(-90,493.29339,513.67439)"
     style="vector-effect:non-scaling-stroke;stroke-width:0.264583;stroke-dasharray:none;-inkscape-stroke:hairline" />
  <polyline
     z="0"
     points="622.682,458.375 607.216,458.375 607.216,453.175 592.149,453.175 592.149,458.375 576.682,458.375 576.682,453.175 561.616,453.175 561.616,458.375 546.149,458.375 546.149,448.553 551.349,448.553 551.349,439.131 546.149,439.131 546.149,429.308 551.349,429.308 551.349,419.886 546.149,419.886 546.149,410.064 551.349,410.064 551.349,400.642 546.149,400.642 546.149,390.819 551.349,390.819 551.349,381.397 546.149,381.397 546.149,371.575 561.616,371.575 561.616,376.775 576.682,376.775 576.682,371.575 592.149,371.575 592.149,376.775 607.216,376.775 607.216,371.575 622.682,371.575 622.682,376.775 637.749,376.775 637.749,371.575 653.216,371.575 653.216,376.775 668.282,376.775 668.282,371.575 683.749,371.575 683.749,381.397 678.549,381.397 678.549,390.819 683.749,390.819 683.749,400.642 678.549,400.642 678.549,410.064 683.749,410.064 683.749,419.886 678.549,419.886 678.549,429.308 683.749,429.308 683.749,439.131 678.549,439.131 678.549,448.553 683.749,448.553 683.749,458.375 668.282,458.375 668.282,453.175 653.216,453.175 653.216,458.375 637.749,458.375 637.749,453.175 622.682,453.175 622.682,458.375"
     fill="none"
     stroke="#000000"
     stroke-width="0.1mm"
     id="polyline6-0"
     transform="rotate(-90,571.71839,435.24939)"
     style="vector-effect:non-scaling-stroke;stroke-width:0.264583;stroke-dasharray:none;-inkscape-stroke:hairline" />
  <polyline
     z="0"
     points="580.885,634.678 546.149,553.078 559.131,553.078 559.131,548.078 546.201,548.078 546.201,534.028 560.87,534.028 560.87,528.828 575.738,528.828 575.738,534.028 590.207,534.028 590.207,528.425 592.415,533.755 578.092,548.078 572.261,548.078 572.261,553.078 584.991,553.078 584.991,547.878 598.121,547.878 598.121,553.078 611.051,553.078 611.051,557.5 616.251,557.5 616.251,567.322 611.051,567.322 611.051,576.745 616.251,576.745 616.251,586.567 611.051,586.567 611.051,595.989 616.251,595.989 616.251,605.811 611.051,605.811 611.051,615.234 616.251,615.234 616.251,625.056 611.051,625.056 611.051,634.678 600.851,634.678 600.851,629.478 591.051,629.478 591.051,634.678 580.885,634.678"
     fill="none"
     stroke="#000000"
     stroke-width="0.1mm"
     id="polyline1"
     transform="rotate(90,584.74739,545.27762)"
     style="vector-effect:non-scaling-stroke;stroke-width:0.264583;stroke-dasharray:none;-inkscape-stroke:hairline" />
  <polyline
     z="0"
     points="581.515,371.575 571.349,371.575 571.349,366.375 561.549,366.375 561.549,371.575 551.349,371.575 551.349,361.953 546.149,361.953 546.149,352.131 551.349,352.131 551.349,342.708 546.149,342.708 546.149,332.886 551.349,332.886 551.349,323.464 546.149,323.464 546.149,313.642 551.349,313.642 551.349,304.219 546.149,304.219 546.149,294.397 551.349,294.397 551.349,289.975 564.279,289.975 564.279,284.775 577.409,284.775 577.409,289.975 590.139,289.975 590.139,284.975 584.308,284.975 569.985,270.652 572.193,265.322 572.193,270.925 586.662,270.925 586.662,265.725 601.53,265.725 601.53,270.925 616.199,270.925 616.199,284.975 603.269,284.975 603.269,289.975 616.251,289.975 581.515,371.575"
     fill="none"
     stroke="#000000"
     stroke-width="0.1mm"
     id="polyline7"
     transform="rotate(90,422.99961,337.66939)"
     style="vector-effect:non-scaling-stroke;stroke-width:0.264583;stroke-dasharray:none;-inkscape-stroke:hairline" />
  <polyline
     z="0"
     points="580.885,634.678 546.149,553.078 559.131,553.078 559.131,548.078 546.201,548.078 546.201,534.028 560.87,534.028 560.87,528.828 575.738,528.828 575.738,534.028 590.207,534.028 590.207,528.425 592.415,533.755 578.092,548.078 572.261,548.078 572.261,553.078 584.991,553.078 584.991,547.878 598.121,547.878 598.121,553.078 611.051,553.078 611.051,557.5 616.251,557.5 616.251,567.322 611.051,567.322 611.051,576.745 616.251,576.745 616.251,586.567 611.051,586.567 611.051,595.989 616.251,595.989 616.251,605.811 611.051,605.811 611.051,615.234 616.251,615.234 616.251,625.056 611.051,625.056 611.051,634.678 600.851,634.678 600.851,629.478 591.051,629.478 591.051,634.678 580.885,634.678"
     fill="none"
     stroke="#000000"
     stroke-width="0.1mm"
     id="polyline1-2"
     transform="rotate(-90,521.9959,555.07389)"
     style="vector-effect:non-scaling-stroke;stroke-width:0.264583;stroke-dasharray:none;-inkscape-stroke:hairline" />
  <polyline
     z="0"
     points="581.515,371.575 571.349,371.575 571.349,366.375 561.549,366.375 561.549,371.575 551.349,371.575 551.349,361.953 546.149,361.953 546.149,352.131 551.349,352.131 551.349,342.708 546.149,342.708 546.149,332.886 551.349,332.886 551.349,323.464 546.149,323.464 546.149,313.642 551.349,313.642 551.349,304.219 546.149,304.219 546.149,294.397 551.349,294.397 551.349,289.975 564.279,289.975 564.279,284.775 577.409,284.775 577.409,289.975 590.139,289.975 590.139,284.975 584.308,284.975 569.985,270.652 572.193,265.322 572.193,270.925 586.662,270.925 586.662,265.725 601.53,265.725 601.53,270.925 616.199,270.925 616.199,284.975 603.269,284.975 603.269,289.975 616.251,289.975 581.515,371.575"
     fill="none"
     stroke="#000000"
     stroke-width="0.1mm"
     id="polyline7-9"
     transform="rotate(-90,623.35112,499.57911)"
     style="vector-effect:non-scaling-stroke;stroke-width:0.264583;stroke-dasharray:none;-inkscape-stroke:hairline" />
</svg>
