<!--
Cleat Wall Organization Equipment
Copyright (C) 2025  Corporate Hacks

This program is free software: you can redistribute it and/or modify
it under the terms of the GNU General Public License as published by
the Free Software Foundation, either version 3 of the License, or
(at your option) any later version.

This program is distributed in the hope that it will be useful,
but WITHOUT ANY WARRANTY; without even the implied warranty of
MERCHANTABILITY or FITNESS FOR A PARTICULAR PURPOSE.  See the
GNU General Public License for more details.

You should have received a copy of the GNU General Public License
along with this program.  If not, see <http://www.gnu.org/licenses/>.
-->

<svg xmlns="http://www.w3.org/2000/svg" width="1300mm" height="900mm" viewBox="0 0 1300 900">
    <path fill="none" stroke="#000" stroke-width=".1mm" d="M603.544 667.578v-14.05h12.889v-5.2h18.289v5.2h17.889v-5.2H670.9v5.2h17.888v-5.2h18.289v5.2h17.889v-5.2h18.289v5.2h12.889v14.05h-12.889v5.2h-18.289v-5.2h-17.889v5.2h-18.289v-5.2H670.9v5.2h-18.289v-5.2h-17.889v5.2h-18.289v-5.2h-12.889" style="vector-effect:non-scaling-stroke;stroke-width:.264583;stroke-dasharray:none;-inkscape-stroke:hairline" transform="rotate(90 888.062 601.322)"/>
    <path fill="none" stroke="#000" stroke-width=".1mm" d="M608.744 648.328v-10h-5.2v-10.2h5.2v-10h12.889v-5.2h18.289v5.2h17.889v-5.2H676.1v5.2h17.888v-5.2h18.289v5.2h17.889v-5.2h18.289v5.2h12.889v10h5.2v10.2h-5.2v10h-152.6" style="vector-effect:non-scaling-stroke;stroke-width:.264583;stroke-dasharray:none;-inkscape-stroke:hairline" transform="rotate(90 920.587 628.647)"/>
    <path fill="none" stroke="#000" stroke-width=".1mm" d="M603.544 612.928v-14.869h5.2v-14.468h-5.2v-14.869h163v14.869h-5.2v14.468h5.2v14.869h-18.289v-5.2h-17.889v5.2h-18.289v-5.2h-17.889v5.2H675.9v-5.2h-17.889v5.2h-18.289v-5.2h-17.889v5.2h-18.289" style="vector-effect:non-scaling-stroke;stroke-width:.264583;stroke-dasharray:none;-inkscape-stroke:hairline" transform="rotate(90 725.406 433.466)"/>
    <path fill="none" stroke="#000" stroke-width=".1mm" d="M605.812 541.125v-5.2h-17.889v5.2h-18.289v-5.2h-17.889v5.2h-18.289v-13.13h5.2v-12.73h-5.2v-13.13h5.2v-12.73h-5.2v-13.13h18.089v-5.2h18.289v5.2h17.889v-5.2h18.289v5.2H623.9v-5.2h18.289v5.2h17.889v-5.2h18.289v5.2h18.089v13.13h-5.2v12.73h5.2v13.13h-5.2v12.73h5.2v13.13h-18.289v-5.2h-17.889v5.2h-18.289v-5.2H624.1v5.2h-18.288" style="vector-effect:non-scaling-stroke;stroke-width:.264583;stroke-dasharray:none;-inkscape-stroke:hairline" transform="rotate(90 754.767 532.914)"/>
    <path fill="none" stroke="#000" stroke-width=".1mm" d="M605.812 471.075v-5.2h-17.889v5.2h-18.289v-5.2h-17.889v5.2h-18.289v-12.644h5.2v-12.245h-5.2v-12.644h5.2v-12.245h-5.2v-12.644h5.2v-12.245h-5.2v-12.644h5.2v-12.245h-5.2v-12.644h18.289v5.2h17.889v-5.2h18.289v5.2h17.889v-5.2H624.1v5.2h17.889v-5.2h18.289v5.2h17.889v-5.2h18.289v12.644h-5.2v12.245h5.2v12.644h-5.2v12.245h5.2v12.644h-5.2v12.245h5.2v12.644h-5.2v12.245h5.2v12.644h-18.289v-5.2h-17.889v5.2h-18.289v-5.2H624.1v5.2h-18.288" style="vector-effect:non-scaling-stroke;stroke-width:.264583;stroke-dasharray:none;-inkscape-stroke:hairline" transform="rotate(90 663.642 441.79)"/>
    <path fill="none" stroke="#000" stroke-width=".1mm" d="M603.544 667.578v-14.05h12.889v-5.2h18.289v5.2h17.889v-5.2H670.9v5.2h17.888v-5.2h18.289v5.2h17.889v-5.2h18.289v5.2h12.889v14.05h-12.889v5.2h-18.289v-5.2h-17.889v5.2h-18.289v-5.2H670.9v5.2h-18.289v-5.2h-17.889v5.2h-18.289v-5.2h-12.889" style="vector-effect:non-scaling-stroke;stroke-width:.264583;stroke-dasharray:none;-inkscape-stroke:hairline" transform="rotate(-90 632.838 440.11)"/>
    <path fill="none" stroke="#000" stroke-width=".1mm" d="M608.744 648.328v-10h-5.2v-10.2h5.2v-10h12.889v-5.2h18.289v5.2h17.889v-5.2H676.1v5.2h17.888v-5.2h18.289v5.2h17.889v-5.2h18.289v5.2h12.889v10h5.2v10.2h-5.2v10h-152.6" style="vector-effect:non-scaling-stroke;stroke-width:.264583;stroke-dasharray:none;-inkscape-stroke:hairline" transform="rotate(-90 665.363 412.785)"/>
    <path fill="none" stroke="#000" stroke-width=".1mm" d="M603.544 612.928v-14.869h5.2v-14.468h-5.2v-14.869h163v14.869h-5.2v14.468h5.2v14.869h-18.289v-5.2h-17.889v5.2h-18.289v-5.2h-17.889v5.2H675.9v-5.2h-17.889v5.2h-18.289v-5.2h-17.889v5.2h-18.289" style="vector-effect:non-scaling-stroke;stroke-width:.264583;stroke-dasharray:none;-inkscape-stroke:hairline" transform="rotate(-90 549.788 528.36)"/>
    <path fill="none" stroke="#000" stroke-width=".1mm" d="M605.812 541.125v-5.2h-17.889v5.2h-18.289v-5.2h-17.889v5.2h-18.289v-13.13h5.2v-12.73h-5.2v-13.13h5.2v-12.73h-5.2v-13.13h18.089v-5.2h18.289v5.2h17.889v-5.2h18.289v5.2H623.9v-5.2h18.289v5.2h17.889v-5.2h18.289v5.2h18.089v13.13h-5.2v12.73h5.2v13.13h-5.2v12.73h5.2v13.13h-18.289v-5.2h-17.889v5.2h-18.289v-5.2H624.1v5.2h-18.288" style="vector-effect:non-scaling-stroke;stroke-width:.264583;stroke-dasharray:none;-inkscape-stroke:hairline" transform="rotate(-90 450.34 557.72)"/>
    <path fill="none" stroke="#000" stroke-width=".1mm" d="M605.812 471.075v-5.2h-17.889v5.2h-18.289v-5.2h-17.889v5.2h-18.289v-12.644h5.2v-12.245h-5.2v-12.644h5.2v-12.245h-5.2v-12.644h5.2v-12.245h-5.2v-12.644h5.2v-12.245h-5.2v-12.644h18.289v5.2h17.889v-5.2h18.289v5.2h17.889v-5.2H624.1v5.2h17.889v-5.2h18.289v5.2h17.889v-5.2h18.289v12.644h-5.2v12.245h5.2v12.644h-5.2v12.245h5.2v12.644h-5.2v12.245h5.2v12.644h-5.2v12.245h5.2v12.644h-18.289v-5.2h-17.889v5.2h-18.289v-5.2H624.1v5.2h-18.288" style="vector-effect:non-scaling-stroke;stroke-width:.264583;stroke-dasharray:none;-inkscape-stroke:hairline" transform="rotate(-90 541.464 466.595)"/>
    <path fill="none" stroke="#000" stroke-width=".1mm" d="m568.171 672.778-34.715-107h12.968v-5h-12.93v-14.05h14.669v-5.2h14.868v5.2H577.5v-5.603l2.208 5.33-14.323 14.323h-5.831v5h12.73v-5.2h13.13v5.2h12.93v7.244h5.2v12.645h-5.2v12.244h5.2v12.645h-5.2V622.8h5.2v12.645h-5.2v12.244h5.2v12.645h-5.2v12.444h-10.2v-5.2h-9.8v5.2h-10.173" style="vector-effect:non-scaling-stroke;stroke-width:.264583;stroke-dasharray:none;-inkscape-stroke:hairline" transform="rotate(90 591.803 576.322)"/>
    <path fill="none" stroke="#000" stroke-width=".1mm" d="M568.829 358.875h-10.173v-5.2h-9.8v5.2h-10.2v-12.444h-5.2v-12.645h5.2v-12.244h-5.2v-12.645h5.2v-12.244h-5.2v-12.645h5.2v-12.244h-5.2v-12.645h5.2v-7.244h12.93v-5.2h13.13v5.2h12.73v-5h-5.831l-14.323-14.323 2.208-5.33v5.603h14.469v-5.2h14.868v5.2h14.669v14.05h-12.93v5h12.968l-34.715 107" style="vector-effect:non-scaling-stroke;stroke-width:.264583;stroke-dasharray:none;-inkscape-stroke:hairline" transform="rotate(90 390.71 331.858)"/>
    <path fill="none" stroke="#000" stroke-width=".1mm" d="m568.171 672.778-34.715-107h12.968v-5h-12.93v-14.05h14.669v-5.2h14.868v5.2H577.5v-5.603l2.208 5.33-14.323 14.323h-5.831v5h12.73v-5.2h13.13v5.2h12.93v7.244h5.2v12.645h-5.2v12.244h5.2v12.645h-5.2V622.8h5.2v12.645h-5.2v12.244h5.2v12.645h-5.2v12.444h-10.2v-5.2h-9.8v5.2h-10.173" style="vector-effect:non-scaling-stroke;stroke-width:.264583;stroke-dasharray:none;-inkscape-stroke:hairline" transform="rotate(-90 516.185 561.963)"/>
    <path fill="none" stroke="#000" stroke-width=".1mm" d="M568.829 358.875h-10.173v-5.2h-9.8v5.2h-10.2v-12.444h-5.2v-12.645h5.2v-12.244h-5.2v-12.645h5.2v-12.244h-5.2v-12.645h5.2v-12.244h-5.2v-12.645h5.2v-7.244h12.93v-5.2h13.13v5.2h12.73v-5h-5.831l-14.323-14.323 2.208-5.33v5.603h14.469v-5.2h14.868v5.2h14.669v14.05h-12.93v5h12.968l-34.715 107" style="vector-effect:non-scaling-stroke;stroke-width:.264583;stroke-dasharray:none;-inkscape-stroke:hairline" transform="rotate(-90 628.995 492.523)"/>
</svg>
