Cleat Wall Organization Equipment
Copyright (C) 2025  Corporate Hacks

This program is free software: you can redistribute it and/or modify
it under the terms of the GNU General Public License as published by
the Free Software Foundation, either version 3 of the License, or
(at your option) any later version.

This program is distributed in the hope that it will be useful,
but WITHOUT ANY WARRANTY; without even the implied warranty of
MERCHANTABILITY or FITNESS FOR A PARTICULAR PURPOSE.  See the
GNU General Public License for more details.

You should have received a copy of the GNU General Public License
along with this program.  If not, see <http://www.gnu.org/licenses/>.


<svg xmlns="http://www.w3.org/2000/svg" width="1300mm" height="900mm" viewBox="0 0 1300 900">
    <path fill="none" stroke="#000" stroke-width=".1mm" d="M345.958 617.396v-6.429h-5.2v-11.828h5.2V587.71h-5.2v-11.828h5.2v-11.429h-5.2v-11.828h5.2v-11.629h6.794v-5.2h12.195v5.2h11.794v-5.2h12.195v5.2h11.794v-5.2h12.195v5.2h11.794v-5h-7.703l-14.322-14.322 2.208-5.331v5.603h14.469v-5.2h14.868v5.2h9.469v14.05h-6.794v5H449l-57.442 81.817v-5.417h-15v5.2h-15.4v-5.2h-15.2" style="vector-effect:non-scaling-stroke;fill:none;stroke:#000;stroke-width:.264583;stroke-dasharray:none;stroke-opacity:1;-inkscape-stroke:hairline" transform="matrix(0 -1 -1 0 1516.807 760.908)"/>
    <path fill="none" stroke="#000" stroke-width=".1mm" d="M758.45 415.477h9.469v-5.2h14.868v5.2h14.469v-5.603l2.208 5.33-14.323 14.323h-7.702v5h11.794v-5.2h12.195v5.2h11.794v-5.2h12.195v5.2h11.794v-5.2h12.195v5.2h6.794v11.629h5.2v11.828h-5.2v11.429h5.2v11.828h-5.2v11.429h5.2v11.828h-5.2v6.429H841v5.2h-15.4v-5.2h-15v5.416l-57.442-81.816h12.086v-5h-6.794v-14.05" style="vector-effect:non-scaling-stroke;fill:none;stroke:#000;stroke-width:.264583;stroke-dasharray:none;stroke-opacity:1;-inkscape-stroke:hairline" transform="matrix(0 -1 -1 0 1303.869 1105.2)"/>
    <path d="M299.536 243.8v18.122h5.2v17.721h-5.2v18.122h5.2v17.722h-5.2v18.122h5.2v17.721h-5.2v18.122h5.2v17.722h-5.2v18.122h5.2v17.72h-5.2v18.123h5.2v17.722h-5.2v18.122h5.2v17.721h-5.2v18.122h5.2v17.722h-5.2v18.122h5.2v17.721h-5.2v18.122h5.2v17.722h-5.2v18.122h5.2v17.721h-5.2V656.2h12.194V651h11.795v5.2h12.194V651h11.795v5.2h12.194V651h11.795v5.2h12.194V651h11.795v5.2h12.194v-18.122h-5.2v-17.72h5.2v-18.123h-5.2v-17.722h5.2v-18.122h-5.2v-17.72h5.2v-18.123h-5.2v-17.722h5.2v-18.122h-5.2v-17.72h5.2V458.86h-5.2V441.14h5.2v-18.122h-5.2v-17.721h5.2v-18.122h-5.2v-17.722h5.2V351.33h-5.2V333.61h5.2v-18.122h-5.2v-17.722h5.2v-18.122h-5.2v-17.72h5.2V243.8h-12.194v5.2h-11.795v-5.2h-12.194v5.2h-11.795v-5.2h-12.194v5.2h-11.795v-5.2h-12.194v5.2H311.73v-5.2zm27.189 81.6h20.04v5h-20.04zm40.481 0h20.04v5h-20.04zm-41.52 81.4h18.999v5h-19zm38.4 0h19v5h-19zm-38.4 81.4h18.999v5h-19zm38.4 0h19v5h-19zm-37.361 81.4h20.04v5h-20.04zm40.481 0h20.04v5h-20.04z" style="vector-effect:non-scaling-stroke;fill:none;stroke:#000;stroke-width:.264583;stroke-dasharray:none;stroke-opacity:1;-inkscape-stroke:hairline"/>
    <path fill="none" stroke="#000" stroke-width=".1mm" d="M536.442 402.993v-14.05h17.922v-5.2h18.121v5.2h17.722v-5.2h18.122v5.2h17.722v-5.2h18.121v5.2h17.722v-5.2h18.122v5.2h17.722v-5.2h18.121v5.2h17.722v-5.2h18.122v5.2h17.722v-5.2h18.121v5.2h17.722v-5.2h18.122v5.2h17.722v-5.2h18.121v5.2h17.722v-5.2h18.122v5.2h17.722v-5.2h18.121v5.2h17.922v14.05H930.92v5.2h-18.121v-5.2h-17.722v5.2h-18.122v-5.2h-17.722v5.2h-18.121v-5.2H823.39v5.2h-18.122v-5.2h-17.722v5.2h-18.121v-5.2h-17.722v5.2h-18.122v-5.2h-17.722v5.2h-18.121v-5.2h-17.722v5.2h-18.122v-5.2h-17.722v5.2h-18.121v-5.2h-17.722v5.2h-18.122v-5.2h-17.722v5.2h-18.121v-5.2h-17.922" style="vector-effect:non-scaling-stroke;fill:none;stroke:#000;stroke-width:.264583;stroke-dasharray:none;stroke-opacity:1;-inkscape-stroke:hairline" transform="rotate(90 597.66 305.018)"/>
    <path d="M569.936 243.8v412.4h-15.4V651h-15v5.2h-15.4v-17.922h-5.2v-18.121h5.2v-17.722h-5.2v-18.122h5.2v-17.722h-5.2V548.47h5.2v-17.722h-5.2v-18.122h5.2v-17.722h-5.2v-18.12h5.2V459.06h-5.2v-18.122h5.2v-17.722h-5.2v-18.121h5.2v-17.722h-5.2v-18.122h5.2V351.53h-5.2v-18.121h5.2v-17.722h-5.2v-18.122h5.2v-17.722h-5.2v-18.121h5.2V243.8h15.4v5.2h15v-5.2zm-14.72 81.6h-7.57v5h7.57zm-15.54 0h-7.57v5h7.57zm14.501 81.4h-8.61v5h8.61zm-17.621 0h-8.61v5h8.61zm17.621 81.4h-8.61v5h8.61zm-17.621 0h-8.61v5h8.61zm18.66 81.4h-7.57v5h7.57zm-15.54 0h-7.57v5h7.57z" style="vector-effect:non-scaling-stroke;fill:none;stroke:#000;stroke-width:.264583;stroke-dasharray:none;stroke-opacity:1;-inkscape-stroke:hairline"/>
    <path fill="none" stroke="#000" stroke-width=".1mm" d="M627.506 321.393v-5.2h-17.722v5.2h-18.122v-5.2h-17.721v5.2h-18.122v-5.2h-17.722v5.2h-18.122v-5.2h-17.721v5.2h-18.122v-5.2H466.41v5.2h-18.122v-5.2h-17.721v5.2h-18.122v-5.2h-17.722v5.2h-18.122v-5.2H358.88v5.2h-18.122v-14.869h5.2v-14.468h-5.2v-14.869h412.4v14.869h-5.2v14.468h5.2v14.869h-18.122v-5.2h-17.721v5.2h-18.122v-5.2h-17.722v5.2h-18.122v-5.2h-17.721v5.2h-18.122" style="vector-effect:non-scaling-stroke;fill:none;stroke:#000;stroke-width:.264583;stroke-dasharray:none;stroke-opacity:1;-inkscape-stroke:hairline" transform="matrix(0 1 1 0 292.749 -96.958)"/>
    <path d="M407.686 243.8v18.122h5.2v17.721h-5.2v18.122h5.2v17.722h-5.2v18.122h5.2v17.721h-5.2v18.122h5.2v17.722h-5.2v18.122h5.2v17.72h-5.2v18.123h5.2v17.722h-5.2v18.122h5.2v17.721h-5.2v18.122h5.2v17.722h-5.2v18.122h5.2v17.721h-5.2v18.122h5.2v17.722h-5.2v18.122h5.2v17.721h-5.2V656.2h11.83V651h11.427v5.2h11.83V651H454.2v5.2h11.829V651h11.428v5.2h11.829v-17.922h5.2v-18.12h-5.2v-17.723h5.2v-18.122h-5.2v-17.722h5.2v-18.12h-5.2v-17.723h5.2v-18.122h-5.2v-17.722h5.2v-18.12h-5.2V459.06h5.2V440.94h-5.2v-17.722h5.2v-18.12h-5.2v-17.723h5.2v-18.122h-5.2V351.53h5.2V333.41h-5.2v-17.722h5.2v-18.122h-5.2v-17.722h5.2v-18.12h-5.2V243.8h-11.83v5.2H466.03v-5.2H454.2v5.2h-11.427v-5.2h-11.83v5.2h-11.427v-5.2zm16.48 81.6h16.08v5h-16.08zm32.56 0h16.08v5h-16.08zm-27.36 81.4h16.08v5h-16.08zm32.56 0h16.08v5h-16.08zm-32.56 81.4h16.08v5h-16.08zm32.56 0h16.08v5h-16.08zm-37.76 81.4h16.08v5h-16.08zm32.56 0h16.08v5h-16.08z" style="vector-effect:non-scaling-stroke;fill:none;stroke:#000;stroke-width:.264583;stroke-dasharray:none;stroke-opacity:1;-inkscape-stroke:hairline"/>
    <path fill="none" stroke="#000" stroke-width=".1mm" d="M345.958 617.396v-6.429h-5.2v-11.828h5.2V587.71h-5.2v-11.828h5.2v-11.429h-5.2v-11.828h5.2v-11.629h6.794v-5.2h12.195v5.2h11.794v-5.2h12.195v5.2h11.794v-5.2h12.195v5.2h11.794v-5h-7.703l-14.322-14.322 2.208-5.331v5.603h14.469v-5.2h14.868v5.2h9.469v14.05h-6.794v5H449l-57.442 81.817v-5.417h-15v5.2h-15.4v-5.2h-15.2" style="vector-effect:non-scaling-stroke;fill:none;stroke:#000;stroke-width:.264583;stroke-dasharray:none;stroke-opacity:1;-inkscape-stroke:hairline" transform="rotate(-90 516.045 244.863)"/>
    <path fill="none" stroke="#000" stroke-width=".1mm" d="M758.45 415.477h9.469v-5.2h14.868v5.2h14.469v-5.603l2.208 5.33-14.323 14.323h-7.702v5h11.794v-5.2h12.195v5.2h11.794v-5.2h12.195v5.2h11.794v-5.2h12.195v5.2h6.794v11.629h5.2v11.828h-5.2v11.429h5.2v11.828h-5.2v11.429h5.2v11.828h-5.2v6.429H841v5.2h-15.4v-5.2h-15v5.416l-57.442-81.816h12.086v-5h-6.794v-14.05" style="vector-effect:non-scaling-stroke;fill:none;stroke:#000;stroke-width:.264583;stroke-dasharray:none;stroke-opacity:1;-inkscape-stroke:hairline" transform="rotate(-90 794.66 310.54)"/>
    <path fill="none" stroke="#000" stroke-width=".1mm" d="M507.931 408.193h-7.97v-5.2h-7.722l-53.639-76.4h16.681v-5.2h20.44v5.2h20.041v-5.2h20.44v5.2h15.04v16.28h5.2v16.48h-5.2v16.08h5.2v16.48h-5.2v11.08h-7.77v5.2h-7.97v-5.2h-7.571v5.2" style="vector-effect:non-scaling-stroke;fill:none;stroke:#000;stroke-width:.264583;stroke-dasharray:none;stroke-opacity:1;-inkscape-stroke:hairline" transform="rotate(90 558.843 550.291)"/>
    <path fill="none" stroke="#000" stroke-width=".1mm" d="M861.4 445.823h5.2v-11.08h19.2v-5.2h19.4v5.2h19.001v-5.2h19.4v5.2h15.641l-53.639 76.4h-8.762v5.2h-9.01v-5.2h-8.611v5.2h-9.01v-5.2h-3.61v-16.28h-5.2v-16.48h5.2v-16.08h-5.2v-16.48" style="vector-effect:non-scaling-stroke;fill:none;stroke:#000;stroke-width:.264583;stroke-dasharray:none;stroke-opacity:1;-inkscape-stroke:hairline" transform="rotate(90 803.02 327.465)"/>
    <path fill="none" stroke="#000" stroke-width=".1mm" d="M507.931 408.193h-7.97v-5.2h-7.722l-53.639-76.4h16.681v-5.2h20.44v5.2h20.041v-5.2h20.44v5.2h15.04v16.28h5.2v16.48h-5.2v16.08h5.2v16.48h-5.2v11.08h-7.77v5.2h-7.97v-5.2h-7.571v5.2" style="vector-effect:non-scaling-stroke;fill:none;stroke:#000;stroke-width:.264583;stroke-dasharray:none;stroke-opacity:1;-inkscape-stroke:hairline" transform="matrix(0 1 1 0 292.749 -8.552)"/>
    <path fill="none" stroke="#000" stroke-width=".1mm" d="M861.4 445.823h5.2v-11.08h19.2v-5.2h19.4v5.2h19.001v-5.2h19.4v5.2h15.641l-53.639 76.4h-8.762v5.2h-9.01v-5.2h-8.611v5.2h-9.01v-5.2h-3.61v-16.28h-5.2v-16.48h5.2v-16.08h-5.2v-16.48" style="vector-effect:non-scaling-stroke;fill:none;stroke:#000;stroke-width:.264583;stroke-dasharray:none;stroke-opacity:1;-inkscape-stroke:hairline" transform="matrix(0 1 1 0 271.399 -475.555)"/>
    <path fill="none" stroke="#000" stroke-width=".1mm" d="M425.63 408.193h-7.97v-5.2h-7.571v5.2h-7.97v-5.2h-7.722l-53.639-76.4h16.681v-5.2h20.44v5.2h20.041v-5.2h20.44v5.2h15.04v16.28h5.2v16.48h-5.2v16.08h5.2v16.48h-5.2v11.08h-7.77v5.2" style="vector-effect:non-scaling-stroke;fill:none;stroke:#000;stroke-width:.264583;stroke-dasharray:none;stroke-opacity:1;-inkscape-stroke:hairline" transform="rotate(90 537.545 484.79)"/>
    <path fill="none" stroke="#000" stroke-width=".1mm" d="M861.4 552.293h5.2v-11.08h19.2v-5.2h19.4v5.2h19.001v-5.2h19.4v5.2h15.641l-53.639 76.4h-8.762v5.2h-9.01v-5.2h-8.611v5.2h-9.01v-5.2h-3.61v-16.28h-5.2v-16.48h5.2v-16.08h-5.2v-16.48" style="vector-effect:non-scaling-stroke;fill:none;stroke:#000;stroke-width:.264583;stroke-dasharray:none;stroke-opacity:1;-inkscape-stroke:hairline" transform="rotate(90 970.677 353.077)"/>
    <path fill="none" stroke="#000" stroke-width=".1mm" d="M425.63 408.193h-7.97v-5.2h-7.571v5.2h-7.97v-5.2h-7.722l-53.639-76.4h16.681v-5.2h20.44v5.2h20.041v-5.2h20.44v5.2h15.04v16.28h5.2v16.48h-5.2v16.08h5.2v16.48h-5.2v11.08h-7.77v5.2" style="vector-effect:non-scaling-stroke;fill:none;stroke:#000;stroke-width:.264583;stroke-dasharray:none;stroke-opacity:1;-inkscape-stroke:hairline" transform="matrix(0 1 1 0 379.549 -52.755)"/>
    <path fill="none" stroke="#000" stroke-width=".1mm" d="M861.4 552.293h5.2v-11.08h19.2v-5.2h19.4v5.2h19.001v-5.2h19.4v5.2h15.641l-53.639 76.4h-8.762v5.2h-9.01v-5.2h-8.611v5.2h-9.01v-5.2h-3.61v-16.28h-5.2v-16.48h5.2v-16.08h-5.2v-16.48" style="vector-effect:non-scaling-stroke;fill:none;stroke:#000;stroke-width:.264583;stroke-dasharray:none;stroke-opacity:1;-inkscape-stroke:hairline" transform="matrix(0 1 1 0 78.129 -617.6)"/>
</svg>
