<?xml version="1.0" encoding="UTF-8" standalone="no"?>
<svg
   width="1300mm"
   height="900mm"
   viewBox="0 0 1300 900"
   version="1.1"
   id="svg35"
   sodipodi:docname="5CompCaulk.svg"
   inkscape:version="1.4 (e7c3feb100, 2024-10-09)"
   xmlns:inkscape="http://www.inkscape.org/namespaces/inkscape"
   xmlns:sodipodi="http://sodipodi.sourceforge.net/DTD/sodipodi-0.dtd"
   xmlns="http://www.w3.org/2000/svg"
   xmlns:svg="http://www.w3.org/2000/svg">
  <defs
     id="defs35" />
  <sodipodi:namedview
     id="namedview35"
     pagecolor="#505050"
     bordercolor="#eeeeee"
     borderopacity="1"
     inkscape:showpageshadow="0"
     inkscape:pageopacity="0"
     inkscape:pagecheckerboard="0"
     inkscape:deskcolor="#505050"
     inkscape:document-units="mm"
     inkscape:zoom="0.089958335"
     inkscape:cx="289.02269"
     inkscape:cy="1695.2292"
     inkscape:window-width="1920"
     inkscape:window-height="1011"
     inkscape:window-x="0"
     inkscape:window-y="32"
     inkscape:window-maximized="1"
     inkscape:current-layer="svg35" />
  <path
     id="polyline1"
     style="vector-effect:non-scaling-stroke;fill:none;stroke:#000000;stroke-width:0.264583;stroke-dasharray:none;stroke-opacity:1;-inkscape-stroke:hairline"
     d="m 546.85069,132.84965 v 18.84433 h 5.19968 v 18.44384 h -5.19968 v 18.84381 h 5.19968 v 18.44435 h -5.19968 v 18.84484 h 5.19968 v 18.44384 h -5.19968 v 18.84433 h 5.19968 v 18.44383 h -5.19968 v 18.84381 h 5.19968 v 18.44436 h -5.19968 v 18.84382 h 5.19968 v 18.44383 h -5.19968 V 375.424 h 5.19968 v 18.44384 h -5.19968 v 18.84381 h 5.19968 V 431.156 h -5.19968 v 18.84381 h 16.42794 v -5.19968 h 16.02797 v 5.19968 h 16.4269 v -5.19968 h 16.02797 v 5.19968 h 16.42792 v -5.19968 h 16.02848 v 5.19968 h 16.42691 v -5.19968 h 16.02796 v 5.19968 h 16.42794 V 431.156 h -5.2002 v -18.44435 h 5.2002 v -18.84381 h -5.2002 V 375.424 h 5.2002 v -18.84536 h -5.2002 v -18.44383 h 5.2002 v -18.84382 h -5.2002 v -18.44436 h 5.2002 v -18.84381 h -5.2002 v -18.44383 h 5.2002 v -18.84433 h -5.2002 v -18.44384 h 5.2002 v -18.84484 h -5.2002 v -18.44435 h 5.2002 v -18.84381 h -5.2002 v -18.44384 h 5.2002 v -18.84433 h -16.42794 v 5.2002 h -16.02796 v -5.2002 h -16.42691 v 5.2002 h -16.02848 v -5.2002 h -16.42793 v 5.2002 h -16.02797 v -5.2002 h -16.4269 v 5.2002 h -16.02796 v -5.2002 z m 32.5298,62.55019 h 26.93015 v 5.00021 h -26.93015 z m 54.26026,0 h 26.92962 v 5.00021 h -26.92962 z m -53.72024,62.3502 h 28.09493 v 4.99969 h -28.09493 z m 56.59034,0 h 28.09492 v 4.99969 h -28.09492 z m -56.59034,62.34968 h 28.09493 v 5.00021 h -28.09493 z m 56.59034,0 h 28.09492 v 5.00021 h -28.09492 z m -57.13036,62.3502 h 26.93015 v 5.00021 h -26.93015 z m 54.26026,0 h 26.92962 v 5.00021 h -26.92962 z" />
  <polyline
     z="0"
     points="402.426,383.637 383.582,383.637 383.582,378.437 365.138,378.437 365.138,383.637 346.294,383.637 346.294,378.437 332.85,378.437 332.85,364.387 346.294,364.387 346.294,359.187 365.138,359.187 365.138,364.387 383.582,364.387 383.582,359.187 402.426,359.187 402.426,364.387 420.871,364.387 420.871,359.187 439.715,359.187 439.715,364.387 458.159,364.387 458.159,359.187 477.003,359.187 477.003,364.387 495.447,364.387 495.447,359.187 514.291,359.187 514.291,364.387 532.735,364.387 532.735,359.187 551.579,359.187 551.579,364.387 570.024,364.387 570.024,359.187 588.868,359.187 588.868,364.387 607.312,364.387 607.312,359.187 626.156,359.187 626.156,364.387 639.6,364.387 639.6,378.437 626.156,378.437 626.156,383.637 607.312,383.637 607.312,378.437 588.868,378.437 588.868,383.637 570.024,383.637 570.024,378.437 551.579,378.437 551.579,383.637 532.735,383.637 532.735,378.437 514.291,378.437 514.291,383.637 495.447,383.637 495.447,378.437 477.003,378.437 477.003,383.637 458.159,383.637 458.159,378.437 439.715,378.437 439.715,383.637 420.871,383.637 420.871,378.437 402.426,378.437 402.426,383.637"
     fill="none"
     stroke="#000000"
     stroke-width="0.1mm"
     id="polyline11"
     style="vector-effect:non-scaling-stroke;fill:none;stroke:#000000;stroke-width:0.264583;stroke-dasharray:none;stroke-opacity:1;-inkscape-stroke:hairline"
     transform="rotate(90,490.11599,295.31572)" />
  <path
     id="polyline12"
     style="vector-effect:non-scaling-stroke;fill:none;stroke:#000000;stroke-width:0.264583;stroke-dasharray:none;stroke-opacity:1;-inkscape-stroke:hairline"
     d="M 470.45071,132.84965 V 449.9998 h 11.08562 v -5.19968 h 10.68514 v 5.19968 h 11.08614 v -5.19968 h 10.68617 v 5.19968 h 11.08563 v -5.19968 h 10.68513 v 5.19968 h 11.08615 v -18.84381 h -5.2002 v -18.44435 h 5.2002 v -18.84381 h -5.2002 v -18.44384 h 5.2002 v -18.84536 h -5.2002 V 338.1348 h 5.2002 v -18.84381 h -5.2002 v -18.44436 h 5.2002 v -18.84381 h -5.2002 v -18.44383 h 5.2002 v -18.84433 h -5.2002 v -18.44384 h 5.2002 v -18.84484 h -5.2002 v -18.44435 h 5.2002 v -18.84381 h -5.2002 v -18.44384 h 5.2002 v -18.84433 h -11.08615 v 5.2002 h -10.68513 v -5.2002 h -11.08563 v 5.2002 h -10.68617 v -5.2002 h -11.08614 v 5.2002 h -10.68514 v -5.2002 z m 18.05988,62.55019 h 13.08498 v 5.00021 h -13.08499 z m 26.56994,0 h 13.08499 v 5.00021 h -13.08499 z m -25.53022,62.3502 h 14.12523 v 4.99969 h -14.12523 z m 28.65045,0 h 14.12472 v 4.99969 h -14.12472 z m -28.65045,62.34968 h 14.12523 v 5.00021 h -14.12523 z m 28.65045,0 h 14.12472 v 5.00021 h -14.12472 z m -29.69018,62.3502 h 13.08499 v 5.00021 h -13.08499 z m 26.56995,0 h 13.08499 v 5.00021 h -13.08499 z" />
  <polyline
     z="0"
     points="650,359.187 650,344.318 655.2,344.318 655.2,329.85 650,329.85 650,314.981 967.15,314.981 967.15,329.85 961.95,329.85 961.95,344.318 967.15,344.318 967.15,359.187 948.306,359.187 948.306,353.987 929.862,353.987 929.862,359.187 911.018,359.187 911.018,353.987 892.574,353.987 892.574,359.187 873.729,359.187 873.729,353.987 855.285,353.987 855.285,359.187 836.441,359.187 836.441,353.987 817.997,353.987 817.997,359.187 799.153,359.187 799.153,353.987 780.709,353.987 780.709,359.187 761.865,359.187 761.865,353.987 743.421,353.987 743.421,359.187 724.576,359.187 724.576,353.987 706.132,353.987 706.132,359.187 687.288,359.187 687.288,353.987 668.844,353.987 668.844,359.187 650,359.187"
     fill="none"
     stroke="#000000"
     stroke-width="0.1mm"
     id="polyline23"
     style="vector-effect:non-scaling-stroke;fill:none;stroke:#000000;stroke-width:0.264583;stroke-dasharray:none;stroke-opacity:1;-inkscape-stroke:hairline"
     transform="rotate(90,651.29098,134.14072)" />
  <polyline
     z="0"
     points="625.674,408.413 647.767,408.413 647.767,403.213 675.097,403.213 675.097,408.413 702.027,408.413 702.027,403.213 729.357,403.213 729.357,408.413 756.487,408.413 756.487,416.723 761.687,416.723 761.687,430.433 756.487,430.433 756.487,443.743 761.687,443.743 761.687,457.453 756.487,457.453 756.487,465.763 743.202,465.763 743.202,470.963 729.717,470.963 729.717,465.763 716.632,465.763 716.632,470.963 703.147,470.963 703.147,465.763 689.923,465.763 625.674,408.413"
     fill="none"
     stroke="#000000"
     stroke-width="0.1mm"
     id="polyline22"
     style="vector-effect:non-scaling-stroke;fill:none;stroke:#000000;stroke-width:0.264583;stroke-dasharray:none;stroke-opacity:1;-inkscape-stroke:hairline"
     transform="rotate(90,680.92515,686.38851)" />
  <polyline
     z="0"
     points="763.92,481.713 763.92,486.913 786.012,486.913 721.763,544.263 708.54,544.263 708.54,549.463 695.055,549.463 695.055,544.263 681.97,544.263 681.97,549.463 668.485,549.463 668.485,544.263 655.2,544.263 655.2,535.953 650,535.953 650,522.243 655.2,522.243 655.2,508.933 650,508.933 650,495.223 655.2,495.223 655.2,486.913 682.33,486.913 682.33,481.713 709.66,481.713 709.66,486.913 736.59,486.913 736.59,481.713 763.92,481.713"
     fill="none"
     stroke="#000000"
     stroke-width="0.1mm"
     id="polyline25"
     style="vector-effect:non-scaling-stroke;fill:none;stroke:#000000;stroke-width:0.264583;stroke-dasharray:none;stroke-opacity:1;-inkscape-stroke:hairline"
     transform="rotate(90,734.34466,643.71902)" />
  <polyline
     z="0"
     points="625.674,408.413 647.767,408.413 647.767,403.213 675.097,403.213 675.097,408.413 702.027,408.413 702.027,403.213 729.357,403.213 729.357,408.413 756.487,408.413 756.487,416.723 761.687,416.723 761.687,430.433 756.487,430.433 756.487,443.743 761.687,443.743 761.687,457.453 756.487,457.453 756.487,465.763 743.202,465.763 743.202,470.963 729.717,470.963 729.717,465.763 716.632,465.763 716.632,470.963 703.147,470.963 703.147,465.763 689.923,465.763 625.674,408.413"
     fill="none"
     stroke="#000000"
     stroke-width="0.1mm"
     id="polyline22-4"
     style="vector-effect:non-scaling-stroke;fill:none;stroke:#000000;stroke-width:0.264583;stroke-dasharray:none;stroke-opacity:1;-inkscape-stroke:hairline"
     transform="matrix(0,1,1,0,425.38768,5.463345)" />
  <polyline
     z="0"
     points="763.92,481.713 763.92,486.913 786.012,486.913 721.763,544.263 708.54,544.263 708.54,549.463 695.055,549.463 695.055,544.263 681.97,544.263 681.97,549.463 668.485,549.463 668.485,544.263 655.2,544.263 655.2,535.953 650,535.953 650,522.243 655.2,522.243 655.2,508.933 650,508.933 650,495.223 655.2,495.223 655.2,486.913 682.33,486.913 682.33,481.713 709.66,481.713 709.66,486.913 736.59,486.913 736.59,481.713 763.92,481.713"
     fill="none"
     stroke="#000000"
     stroke-width="0.1mm"
     id="polyline25-7"
     style="vector-effect:non-scaling-stroke;fill:none;stroke:#000000;stroke-width:0.264583;stroke-dasharray:none;stroke-opacity:1;-inkscape-stroke:hairline"
     transform="matrix(0,1,1,0,414.63768,-90.625655)" />
  <polyline
     z="0"
     points="761.687,408.413 784.319,408.413 784.319,403.213 812.814,403.213 812.814,408.413 840.909,408.413 840.909,403.213 869.404,403.213 869.404,408.413 892.499,408.413 892.499,419.843 897.699,419.843 897.699,431.473 892.499,431.473 892.499,442.703 897.699,442.703 897.699,454.333 892.499,454.333 892.499,465.763 883.374,465.763 883.374,470.963 868.849,470.963 868.849,465.763 854.724,465.763 854.724,470.963 840.199,470.963 840.199,465.763 825.936,465.763 761.687,408.413"
     fill="none"
     stroke="#000000"
     stroke-width="0.1mm"
     id="polyline24"
     style="vector-effect:non-scaling-stroke;fill:none;stroke:#000000;stroke-width:0.264583;stroke-dasharray:none;stroke-opacity:1;-inkscape-stroke:hairline"
     transform="rotate(90,681.18142,550.63228)" />
  <polyline
     z="0"
     points="786.012,498.343 791.212,498.343 791.212,486.913 814.307,486.913 814.307,481.713 842.802,481.713 842.802,486.913 870.897,486.913 870.897,481.713 899.392,481.713 899.392,486.913 922.024,486.913 857.775,544.263 843.512,544.263 843.512,549.463 828.987,549.463 828.987,544.263 814.862,544.263 814.862,549.463 800.337,549.463 800.337,544.263 791.212,544.263 791.212,532.833 786.012,532.833 786.012,521.203 791.212,521.203 791.212,509.973 786.012,509.973 786.012,498.343"
     fill="none"
     stroke="#000000"
     stroke-width="0.1mm"
     id="polyline26"
     style="vector-effect:non-scaling-stroke;fill:none;stroke:#000000;stroke-width:0.264583;stroke-dasharray:none;stroke-opacity:1;-inkscape-stroke:hairline"
     transform="rotate(90,734.60042,507.96326)" />
  <polyline
     z="0"
     points="761.687,408.413 784.319,408.413 784.319,403.213 812.814,403.213 812.814,408.413 840.909,408.413 840.909,403.213 869.404,403.213 869.404,408.413 892.499,408.413 892.499,419.843 897.699,419.843 897.699,431.473 892.499,431.473 892.499,442.703 897.699,442.703 897.699,454.333 892.499,454.333 892.499,465.763 883.374,465.763 883.374,470.963 868.849,470.963 868.849,465.763 854.724,465.763 854.724,470.963 840.199,470.963 840.199,465.763 825.936,465.763 761.687,408.413"
     fill="none"
     stroke="#000000"
     stroke-width="0.1mm"
     id="polyline24-7"
     style="vector-effect:non-scaling-stroke;fill:none;stroke:#000000;stroke-width:0.264583;stroke-dasharray:none;stroke-opacity:1;-inkscape-stroke:hairline"
     transform="matrix(0,1,1,0,289.88768,-130.54916)" />
  <polyline
     z="0"
     points="786.012,498.343 791.212,498.343 791.212,486.913 814.307,486.913 814.307,481.713 842.802,481.713 842.802,486.913 870.897,486.913 870.897,481.713 899.392,481.713 899.392,486.913 922.024,486.913 857.775,544.263 843.512,544.263 843.512,549.463 828.987,549.463 828.987,544.263 814.862,544.263 814.862,549.463 800.337,549.463 800.337,544.263 791.212,544.263 791.212,532.833 786.012,532.833 786.012,521.203 791.212,521.203 791.212,509.973 786.012,509.973 786.012,498.343"
     fill="none"
     stroke="#000000"
     stroke-width="0.1mm"
     id="polyline26-5"
     style="vector-effect:non-scaling-stroke;fill:none;stroke:#000000;stroke-width:0.264583;stroke-dasharray:none;stroke-opacity:1;-inkscape-stroke:hairline"
     transform="matrix(0,1,1,0,279.13768,-226.63715)" />
  <path
     id="polyline27"
     style="vector-effect:non-scaling-stroke;fill:none;stroke:#000000;stroke-width:0.264583;stroke-dasharray:none;stroke-opacity:1;-inkscape-stroke:hairline"
     d="m 339.24451,132.84965 v 18.64383 h -5.19968 v 18.84433 h 5.19968 v 18.44383 h -5.19968 v 18.84434 h 5.19968 v 18.44487 h -5.19968 v 18.84381 h 5.19968 v 18.44382 h -5.19968 v 18.84434 h 5.19968 v 18.44384 h -5.19968 v 18.84432 h 5.19968 v 18.44384 h -5.19968 v 18.84381 h 5.19968 v 18.44487 h -5.19968 v 18.84433 h 5.19968 v 18.44383 h -5.19968 v 18.84433 h 5.19968 v 18.64382 h 11.6303 v -5.20019 h 11.2298 v 5.20019 h 11.6303 v -5.20019 h 11.22981 v 5.20019 h 11.6303 v -18.64382 h 5.19968 v -18.84433 h -5.19968 v -18.44383 h 5.19968 V 375.2235 h -5.19968 v -18.44487 h 5.19968 v -18.84381 h -5.19968 v -18.44384 h 5.19968 v -18.84432 h -5.19968 v -18.44384 h 5.19968 v -18.84434 h -5.19968 v -18.44382 h 5.19968 v -18.84381 h -5.19968 v -18.44487 h 5.19968 v -18.84434 h -5.19968 v -18.44383 h 5.19968 v -18.84433 h -5.19968 v -18.64384 h -11.6303 v 5.2002 h -11.22981 v -5.2002 h -11.6303 v 5.2002 h -11.2298 v -5.2002 z m 8.51008,62.55019 h 13.31029 v 4.99969 h -13.31029 z m 27.02006,0 h 13.31029 v 4.99969 h -13.31029 z m -23.89984,62.34968 h 11.22981 v 5.00021 h -11.22981 z m 22.8601,0 h 11.22981 v 5.00021 h -11.22981 z m -22.8601,62.3502 h 11.22981 v 5.0002 h -11.22981 z m 22.8601,0 h 11.22981 v 5.0002 h -11.22981 z m -25.98032,62.35019 h 13.31029 v 4.99971 h -13.31029 z m 27.02006,0 h 13.31029 v 4.99971 h -13.31029 z" />
  <path
     id="polyline1-4"
     style="vector-effect:non-scaling-stroke;fill:none;stroke:#000000;stroke-width:0.264583;stroke-dasharray:none;stroke-opacity:1;-inkscape-stroke:hairline"
     d="m 546.85069,449.99966 v 18.84433 h 5.19968 v 18.44384 h -5.19968 v 18.84381 h 5.19968 v 18.44435 h -5.19968 v 18.84484 h 5.19968 v 18.44384 h -5.19968 V 580.709 h 5.19968 v 18.44383 h -5.19968 v 18.84381 h 5.19968 V 636.441 h -5.19968 v 18.84381 h 5.19968 v 18.44383 h -5.19968 V 692.574 h 5.19968 v 18.44385 h -5.19968 v 18.8438 h 5.19968 v 18.4444 h -5.19968 v 18.8438 h 16.42794 v -5.1997 h 16.02797 v 5.1997 h 16.4269 v -5.1997 h 16.02797 v 5.1997 h 16.42792 v -5.1997 h 16.02848 v 5.1997 h 16.42691 v -5.1997 h 16.02796 v 5.1997 h 16.42794 v -18.8438 h -5.2002 v -18.4444 h 5.2002 v -18.8438 h -5.2002 V 692.574 h 5.2002 v -18.84536 h -5.2002 v -18.44383 h 5.2002 V 636.441 h -5.2002 v -18.44436 h 5.2002 v -18.84381 h -5.2002 V 580.709 h 5.2002 v -18.84433 h -5.2002 v -18.44384 h 5.2002 v -18.84484 h -5.2002 v -18.44435 h 5.2002 v -18.84381 h -5.2002 v -18.44384 h 5.2002 v -18.84433 h -16.42794 v 5.2002 h -16.02796 v -5.2002 h -16.42691 v 5.2002 h -16.02848 v -5.2002 h -16.42793 v 5.2002 h -16.02797 v -5.2002 h -16.4269 v 5.2002 h -16.02796 v -5.2002 z m 32.5298,62.55019 h 26.93015 v 5.00021 h -26.93015 z m 54.26026,0 h 26.92962 v 5.00021 h -26.92962 z m -53.72024,62.3502 h 28.09493 v 4.99969 h -28.09493 z m 56.59034,0 h 28.09492 v 4.99969 h -28.09492 z m -56.59034,62.34968 h 28.09493 v 5.00021 h -28.09493 z m 56.59034,0 h 28.09492 v 5.00021 h -28.09492 z m -57.13036,62.3502 h 26.93015 v 5.00021 h -26.93015 z m 54.26026,0 h 26.92962 v 5.00021 h -26.92962 z" />
  <polyline
     z="0"
     points="402.426,383.637 383.582,383.637 383.582,378.437 365.138,378.437 365.138,383.637 346.294,383.637 346.294,378.437 332.85,378.437 332.85,364.387 346.294,364.387 346.294,359.187 365.138,359.187 365.138,364.387 383.582,364.387 383.582,359.187 402.426,359.187 402.426,364.387 420.871,364.387 420.871,359.187 439.715,359.187 439.715,364.387 458.159,364.387 458.159,359.187 477.003,359.187 477.003,364.387 495.447,364.387 495.447,359.187 514.291,359.187 514.291,364.387 532.735,364.387 532.735,359.187 551.579,359.187 551.579,364.387 570.024,364.387 570.024,359.187 588.868,359.187 588.868,364.387 607.312,364.387 607.312,359.187 626.156,359.187 626.156,364.387 639.6,364.387 639.6,378.437 626.156,378.437 626.156,383.637 607.312,383.637 607.312,378.437 588.868,378.437 588.868,383.637 570.024,383.637 570.024,378.437 551.579,378.437 551.579,383.637 532.735,383.637 532.735,378.437 514.291,378.437 514.291,383.637 495.447,383.637 495.447,378.437 477.003,378.437 477.003,383.637 458.159,383.637 458.159,378.437 439.715,378.437 439.715,383.637 420.871,383.637 420.871,378.437 402.426,378.437 402.426,383.637"
     fill="none"
     stroke="#000000"
     stroke-width="0.1mm"
     id="polyline11-1"
     style="vector-effect:non-scaling-stroke;fill:none;stroke:#000000;stroke-width:0.264583;stroke-dasharray:none;stroke-opacity:1;-inkscape-stroke:hairline"
     transform="rotate(90,331.54098,453.89072)" />
  <path
     id="polyline12-2"
     style="vector-effect:non-scaling-stroke;fill:none;stroke:#000000;stroke-width:0.264583;stroke-dasharray:none;stroke-opacity:1;-inkscape-stroke:hairline"
     d="m 470.45071,449.99966 v 317.15019 h 11.08562 v -5.1997 h 10.68514 v 5.1997 h 11.08614 v -5.1997 h 10.68617 v 5.1997 h 11.08563 v -5.1997 h 10.68513 v 5.1997 h 11.08615 v -18.8438 h -5.2002 v -18.4444 h 5.2002 v -18.8438 h -5.2002 V 692.574 h 5.2002 v -18.84536 h -5.2002 v -18.44383 h 5.2002 V 636.441 h -5.2002 v -18.44436 h 5.2002 v -18.84381 h -5.2002 V 580.709 h 5.2002 v -18.84433 h -5.2002 v -18.44384 h 5.2002 v -18.84484 h -5.2002 v -18.44435 h 5.2002 v -18.84381 h -5.2002 v -18.44384 h 5.2002 v -18.84433 h -11.08615 v 5.2002 h -10.68513 v -5.2002 h -11.08563 v 5.2002 h -10.68617 v -5.2002 h -11.08614 v 5.2002 h -10.68514 v -5.2002 z m 18.05988,62.55019 h 13.08498 v 5.00021 h -13.08499 z m 26.56994,0 h 13.08499 v 5.00021 h -13.08499 z m -25.53022,62.3502 h 14.12523 v 4.99969 h -14.12523 z m 28.65045,0 h 14.12472 v 4.99969 h -14.12472 z m -28.65045,62.34968 h 14.12523 v 5.00021 h -14.12523 z m 28.65045,0 h 14.12472 v 5.00021 h -14.12472 z m -29.69018,62.3502 h 13.08499 v 5.00021 h -13.08499 z m 26.56995,0 h 13.08499 v 5.00021 h -13.08499 z" />
  <polyline
     z="0"
     points="479.424,389.24 494.093,389.24 494.093,384.04 508.961,384.04 508.961,389.24 523.43,389.24 523.43,383.637 525.638,388.967 511.516,403.09 512.08,403.09 512.08,408.29 528.107,408.29 528.107,403.09 544.535,403.09 544.535,408.29 560.563,408.29 560.563,403.09 576.991,403.09 576.991,408.29 593.018,408.29 593.018,403.09 609.446,403.09 609.446,408.29 620.474,408.29 620.474,419.72 625.674,419.72 625.674,431.35 620.474,431.35 620.474,442.58 625.674,442.58 625.674,454.21 620.474,454.21 620.474,465.64 614.788,465.64 614.788,470.84 603.703,470.84 603.703,465.64 593.017,465.64 593.017,470.84 581.931,470.84 581.931,465.64 571.245,465.64 571.245,470.84 560.16,470.84 560.16,465.64 549.474,465.64 549.474,470.963 479.262,408.29 495.652,408.29 495.652,403.29 479.424,403.29 479.424,389.24"
     fill="none"
     stroke="#000000"
     stroke-width="0.1mm"
     id="polyline21"
     style="vector-effect:non-scaling-stroke;fill:none;stroke:#000000;stroke-width:0.264583;stroke-dasharray:none;stroke-opacity:1;-inkscape-stroke:hairline"
     transform="rotate(-90,717.85565,271.92266)" />
  <polyline
     z="0"
     points="398.364,470.84 387.279,470.84 387.279,465.64 376.593,465.64 376.593,470.84 365.507,470.84 365.507,465.64 354.821,465.64 354.821,470.84 343.736,470.84 343.736,465.64 338.05,465.64 338.05,454.21 332.85,454.21 332.85,442.58 338.05,442.58 338.05,431.35 332.85,431.35 332.85,419.72 338.05,419.72 338.05,408.29 349.078,408.29 349.078,403.09 365.506,403.09 365.506,408.29 381.533,408.29 381.533,403.09 397.961,403.09 397.961,408.29 413.989,408.29 413.989,403.09 430.417,403.09 430.417,408.29 446.444,408.29 446.444,403.09 447.009,403.09 432.886,388.967 435.094,383.637 435.094,389.24 449.563,389.24 449.563,384.04 464.431,384.04 464.431,389.24 479.1,389.24 479.1,403.29 462.872,403.29 462.872,408.29 479.262,408.29 409.05,470.963 409.05,465.64 398.364,465.64 398.364,470.84"
     fill="none"
     stroke="#000000"
     stroke-width="0.1mm"
     id="polyline10-8"
     style="vector-effect:non-scaling-stroke;fill:none;stroke:#000000;stroke-width:0.264583;stroke-dasharray:none;stroke-opacity:1;-inkscape-stroke:hairline"
     transform="matrix(0,-1,-1,0,1349.5922,892.22433)" />
  <polyline
     z="0"
     points="479.424,389.24 494.093,389.24 494.093,384.04 508.961,384.04 508.961,389.24 523.43,389.24 523.43,383.637 525.638,388.967 511.516,403.09 512.08,403.09 512.08,408.29 528.107,408.29 528.107,403.09 544.535,403.09 544.535,408.29 560.563,408.29 560.563,403.09 576.991,403.09 576.991,408.29 593.018,408.29 593.018,403.09 609.446,403.09 609.446,408.29 620.474,408.29 620.474,419.72 625.674,419.72 625.674,431.35 620.474,431.35 620.474,442.58 625.674,442.58 625.674,454.21 620.474,454.21 620.474,465.64 614.788,465.64 614.788,470.84 603.703,470.84 603.703,465.64 593.017,465.64 593.017,470.84 581.931,470.84 581.931,465.64 571.245,465.64 571.245,470.84 560.16,470.84 560.16,465.64 549.474,465.64 549.474,470.963 479.262,408.29 495.652,408.29 495.652,403.29 479.424,403.29 479.424,389.24"
     fill="none"
     stroke="#000000"
     stroke-width="0.1mm"
     id="polyline21-6"
     style="vector-effect:non-scaling-stroke;fill:none;stroke:#000000;stroke-width:0.264583;stroke-dasharray:none;stroke-opacity:1;-inkscape-stroke:hairline"
     transform="matrix(0,1,1,0,309.54786,-66.299665)" />
  <polyline
     z="0"
     points="398.364,470.84 387.279,470.84 387.279,465.64 376.593,465.64 376.593,470.84 365.507,470.84 365.507,465.64 354.821,465.64 354.821,470.84 343.736,470.84 343.736,465.64 338.05,465.64 338.05,454.21 332.85,454.21 332.85,442.58 338.05,442.58 338.05,431.35 332.85,431.35 332.85,419.72 338.05,419.72 338.05,408.29 349.078,408.29 349.078,403.09 365.506,403.09 365.506,408.29 381.533,408.29 381.533,403.09 397.961,403.09 397.961,408.29 413.989,408.29 413.989,403.09 430.417,403.09 430.417,408.29 446.444,408.29 446.444,403.09 447.009,403.09 432.886,388.967 435.094,383.637 435.094,389.24 449.563,389.24 449.563,384.04 464.431,384.04 464.431,389.24 479.1,389.24 479.1,403.29 462.872,403.29 462.872,408.29 479.262,408.29 409.05,470.963 409.05,465.64 398.364,465.64 398.364,470.84"
     fill="none"
     stroke="#000000"
     stroke-width="0.1mm"
     id="polyline10-8-8"
     style="vector-effect:non-scaling-stroke;fill:none;stroke:#000000;stroke-width:0.264583;stroke-dasharray:none;stroke-opacity:1;-inkscape-stroke:hairline"
     transform="rotate(90,590.97634,622.23065)" />
  <polyline
     z="0"
     points="650,359.187 650,344.318 655.2,344.318 655.2,329.85 650,329.85 650,314.981 967.15,314.981 967.15,329.85 961.95,329.85 961.95,344.318 967.15,344.318 967.15,359.187 948.306,359.187 948.306,353.987 929.862,353.987 929.862,359.187 911.018,359.187 911.018,353.987 892.574,353.987 892.574,359.187 873.729,359.187 873.729,353.987 855.285,353.987 855.285,359.187 836.441,359.187 836.441,353.987 817.997,353.987 817.997,359.187 799.153,359.187 799.153,353.987 780.709,353.987 780.709,359.187 761.865,359.187 761.865,353.987 743.421,353.987 743.421,359.187 724.576,359.187 724.576,353.987 706.132,353.987 706.132,359.187 687.288,359.187 687.288,353.987 668.844,353.987 668.844,359.187 650,359.187"
     fill="none"
     stroke="#000000"
     stroke-width="0.1mm"
     id="polyline23-9"
     style="vector-effect:non-scaling-stroke;fill:none;stroke:#000000;stroke-width:0.264583;stroke-dasharray:none;stroke-opacity:1;-inkscape-stroke:hairline"
     transform="rotate(90,492.71598,292.71572)" />
  <path
     id="polyline27-3"
     style="vector-effect:non-scaling-stroke;fill:none;stroke:#000000;stroke-width:0.264583;stroke-dasharray:none;stroke-opacity:1;-inkscape-stroke:hairline"
     d="m 339.24451,449.99966 v 18.64382 h -5.19968 v 18.84433 h 5.19968 v 18.44383 h -5.19968 v 18.84435 h 5.19968 v 18.44487 h -5.19968 v 18.84381 h 5.19968 v 18.44382 h -5.19968 v 18.84434 h 5.19968 v 18.44384 h -5.19968 v 18.84432 h 5.19968 v 18.44384 h -5.19968 v 18.84381 h 5.19968 v 18.44487 h -5.19968 v 18.84434 h 5.19968 v 18.4438 h -5.19968 v 18.8444 h 5.19968 v 18.6438 h 11.6303 v -5.2002 h 11.2298 v 5.2002 h 11.6303 v -5.2002 h 11.22981 v 5.2002 h 11.6303 v -18.6438 h 5.19968 v -18.8444 h -5.19968 v -18.4438 h 5.19968 v -18.84434 h -5.19968 v -18.44487 h 5.19968 v -18.84381 h -5.19968 v -18.44384 h 5.19968 v -18.84432 h -5.19968 v -18.44384 h 5.19968 v -18.84434 h -5.19968 v -18.44382 h 5.19968 v -18.84381 h -5.19968 v -18.44488 h 5.19968 v -18.84434 h -5.19968 v -18.44383 h 5.19968 v -18.84434 h -5.19968 v -18.64383 h -11.6303 v 5.2002 h -11.22981 v -5.2002 h -11.6303 v 5.2002 h -11.2298 v -5.2002 z m 8.51008,62.55019 h 13.31029 v 4.99969 h -13.31029 z m 27.02006,0 h 13.31029 v 4.99969 h -13.31029 z m -23.89984,62.34968 h 11.22981 v 5.00021 h -11.22981 z m 22.8601,0 h 11.22981 v 5.00021 h -11.22981 z m -22.8601,62.3502 h 11.22981 v 5.0002 h -11.22981 z m 22.8601,0 h 11.22981 v 5.0002 h -11.22981 z m -25.98032,62.35019 h 13.31029 v 4.99971 h -13.31029 z m 27.02006,0 h 13.31029 v 4.99971 h -13.31029 z" />
</svg>
