Cleat Wall Organization Equipment
Copyright (C) 2025  Corporate Hacks

This program is free software: you can redistribute it and/or modify
it under the terms of the GNU General Public License as published by
the Free Software Foundation, either version 3 of the License, or
(at your option) any later version.

This program is distributed in the hope that it will be useful,
but WITHOUT ANY WARRANTY; without even the implied warranty of
MERCHANTABILITY or FITNESS FOR A PARTICULAR PURPOSE.  See the
GNU General Public License for more details.

You should have received a copy of the GNU General Public License
along with this program.  If not, see <http://www.gnu.org/licenses/>.


<svg xmlns="http://www.w3.org/2000/svg" width="1300mm" height="900mm" viewBox="0 0 1300 900">
    <path d="M546.85 132.85v18.844h5.2v18.444h-5.2v18.844h5.2v18.444h-5.2v18.845h5.2v18.444h-5.2v18.844h5.2v18.444h-5.2v18.844h5.2v18.444h-5.2v18.844h5.2v18.444h-5.2v18.845h5.2v18.444h-5.2v18.844h5.2v18.444h-5.2V450h16.429v-5.2h16.028v5.2h16.426v-5.2h16.028v5.2h16.428v-5.2h16.029v5.2h16.427v-5.2h16.028v5.2H693.1v-18.844h-5.2v-18.444h5.2v-18.844h-5.2v-18.444h5.2v-18.845h-5.2v-18.444h5.2V319.29h-5.2v-18.444h5.2v-18.844h-5.2v-18.444h5.2v-18.844h-5.2V226.27h5.2v-18.845h-5.2v-18.444h5.2v-18.844h-5.2v-18.444h5.2V132.85h-16.428v5.2h-16.028v-5.2h-16.427v5.2h-16.029v-5.2h-16.428v5.2h-16.028v-5.2h-16.426v5.2h-16.028v-5.2zm32.53 62.55h26.93v5h-26.93zm54.26 0h26.93v5h-26.93zm-53.72 62.35h28.095v5h-28.094zm56.59 0h28.096v5H636.51zm-56.59 62.35h28.095v5h-28.094zm56.59 0h28.096v5H636.51zm-57.13 62.35h26.93v5h-26.93zm54.26 0h26.93v5h-26.93z" style="vector-effect:non-scaling-stroke;fill:none;stroke:#000;stroke-width:.264583;stroke-dasharray:none;stroke-opacity:1;-inkscape-stroke:hairline"/>
    <path fill="none" stroke="#000" stroke-width=".1mm" d="M402.426 383.637h-18.844v-5.2h-18.444v5.2h-18.844v-5.2H332.85v-14.05h13.444v-5.2h18.844v5.2h18.444v-5.2h18.844v5.2h18.445v-5.2h18.844v5.2h18.444v-5.2h18.844v5.2h18.444v-5.2h18.844v5.2h18.444v-5.2h18.844v5.2h18.445v-5.2h18.844v5.2h18.444v-5.2h18.844v5.2H639.6v14.05h-13.444v5.2h-18.844v-5.2h-18.444v5.2h-18.844v-5.2h-18.445v5.2h-18.844v-5.2h-18.444v5.2h-18.844v-5.2h-18.444v5.2h-18.844v-5.2h-18.444v5.2h-18.844v-5.2h-18.445v5.2" style="vector-effect:non-scaling-stroke;fill:none;stroke:#000;stroke-width:.264583;stroke-dasharray:none;stroke-opacity:1;-inkscape-stroke:hairline" transform="rotate(90 490.116 295.316)"/>
    <path d="M470.45 132.85V450h11.086v-5.2h10.685v5.2h11.087v-5.2h10.686v5.2h11.085v-5.2h10.686v5.2h11.086v-18.844h-5.2v-18.444h5.2v-18.844h-5.2v-18.444h5.2v-18.845h-5.2v-18.444h5.2V319.29h-5.2v-18.444h5.2v-18.844h-5.2v-18.444h5.2v-18.844h-5.2V226.27h5.2v-18.845h-5.2v-18.444h5.2v-18.844h-5.2v-18.444h5.2V132.85h-11.086v5.2h-10.686v-5.2h-11.085v5.2h-10.686v-5.2H492.22v5.2h-10.685v-5.2zm18.06 62.55h13.086v5H488.51zm26.57 0h13.086v5H515.08zm-25.53 62.35h14.126v5H489.55zm28.65 0h14.125v5h-14.124zm-28.65 62.35h14.126v5H489.55zm28.65 0h14.125v5h-14.124zm-29.69 62.35h13.086v5H488.51zm26.57 0h13.086v5H515.08z" style="vector-effect:non-scaling-stroke;fill:none;stroke:#000;stroke-width:.264583;stroke-dasharray:none;stroke-opacity:1;-inkscape-stroke:hairline"/>
    <path fill="none" stroke="#000" stroke-width=".1mm" d="M650 359.187v-14.869h5.2V329.85H650v-14.869h317.15v14.869h-5.2v14.468h5.2v14.869h-18.844v-5.2h-18.444v5.2h-18.844v-5.2h-18.444v5.2h-18.845v-5.2h-18.444v5.2h-18.844v-5.2h-18.444v5.2h-18.844v-5.2h-18.444v5.2h-18.844v-5.2h-18.444v5.2h-18.845v-5.2h-18.444v5.2h-18.844v-5.2h-18.444v5.2H650" style="vector-effect:non-scaling-stroke;fill:none;stroke:#000;stroke-width:.264583;stroke-dasharray:none;stroke-opacity:1;-inkscape-stroke:hairline" transform="rotate(90 651.291 134.14)"/>
    <path fill="none" stroke="#000" stroke-width=".1mm" d="M625.674 408.413h22.093v-5.2h27.33v5.2h26.93v-5.2h27.33v5.2h27.13v8.31h5.2v13.71h-5.2v13.31h5.2v13.71h-5.2v8.31h-13.285v5.2h-13.485v-5.2h-13.085v5.2h-13.485v-5.2h-13.224l-64.249-57.35" style="vector-effect:non-scaling-stroke;fill:none;stroke:#000;stroke-width:.264583;stroke-dasharray:none;stroke-opacity:1;-inkscape-stroke:hairline" transform="rotate(90 680.925 686.389)"/>
    <path fill="none" stroke="#000" stroke-width=".1mm" d="M763.92 481.713v5.2h22.092l-64.249 57.35H708.54v5.2h-13.485v-5.2H681.97v5.2h-13.485v-5.2H655.2v-8.31H650v-13.71h5.2v-13.31H650v-13.71h5.2v-8.31h27.13v-5.2h27.33v5.2h26.93v-5.2h27.33" style="vector-effect:non-scaling-stroke;fill:none;stroke:#000;stroke-width:.264583;stroke-dasharray:none;stroke-opacity:1;-inkscape-stroke:hairline" transform="rotate(90 734.345 643.719)"/>
    <path fill="none" stroke="#000" stroke-width=".1mm" d="M625.674 408.413h22.093v-5.2h27.33v5.2h26.93v-5.2h27.33v5.2h27.13v8.31h5.2v13.71h-5.2v13.31h5.2v13.71h-5.2v8.31h-13.285v5.2h-13.485v-5.2h-13.085v5.2h-13.485v-5.2h-13.224l-64.249-57.35" style="vector-effect:non-scaling-stroke;fill:none;stroke:#000;stroke-width:.264583;stroke-dasharray:none;stroke-opacity:1;-inkscape-stroke:hairline" transform="matrix(0 1 1 0 425.388 5.463)"/>
    <path fill="none" stroke="#000" stroke-width=".1mm" d="M763.92 481.713v5.2h22.092l-64.249 57.35H708.54v5.2h-13.485v-5.2H681.97v5.2h-13.485v-5.2H655.2v-8.31H650v-13.71h5.2v-13.31H650v-13.71h5.2v-8.31h27.13v-5.2h27.33v5.2h26.93v-5.2h27.33" style="vector-effect:non-scaling-stroke;fill:none;stroke:#000;stroke-width:.264583;stroke-dasharray:none;stroke-opacity:1;-inkscape-stroke:hairline" transform="matrix(0 1 1 0 414.638 -90.626)"/>
    <path fill="none" stroke="#000" stroke-width=".1mm" d="M761.687 408.413h22.632v-5.2h28.495v5.2h28.095v-5.2h28.495v5.2h23.095v11.43h5.2v11.63h-5.2v11.23h5.2v11.63h-5.2v11.43h-9.125v5.2h-14.525v-5.2h-14.125v5.2h-14.525v-5.2h-14.263l-64.249-57.35" style="vector-effect:non-scaling-stroke;fill:none;stroke:#000;stroke-width:.264583;stroke-dasharray:none;stroke-opacity:1;-inkscape-stroke:hairline" transform="rotate(90 681.181 550.632)"/>
    <path fill="none" stroke="#000" stroke-width=".1mm" d="M786.012 498.343h5.2v-11.43h23.095v-5.2h28.495v5.2h28.095v-5.2h28.495v5.2h22.632l-64.249 57.35h-14.263v5.2h-14.525v-5.2h-14.125v5.2h-14.525v-5.2h-9.125v-11.43h-5.2v-11.63h5.2v-11.23h-5.2v-11.63" style="vector-effect:non-scaling-stroke;fill:none;stroke:#000;stroke-width:.264583;stroke-dasharray:none;stroke-opacity:1;-inkscape-stroke:hairline" transform="rotate(90 734.6 507.963)"/>
    <path fill="none" stroke="#000" stroke-width=".1mm" d="M761.687 408.413h22.632v-5.2h28.495v5.2h28.095v-5.2h28.495v5.2h23.095v11.43h5.2v11.63h-5.2v11.23h5.2v11.63h-5.2v11.43h-9.125v5.2h-14.525v-5.2h-14.125v5.2h-14.525v-5.2h-14.263l-64.249-57.35" style="vector-effect:non-scaling-stroke;fill:none;stroke:#000;stroke-width:.264583;stroke-dasharray:none;stroke-opacity:1;-inkscape-stroke:hairline" transform="matrix(0 1 1 0 289.888 -130.55)"/>
    <path fill="none" stroke="#000" stroke-width=".1mm" d="M786.012 498.343h5.2v-11.43h23.095v-5.2h28.495v5.2h28.095v-5.2h28.495v5.2h22.632l-64.249 57.35h-14.263v5.2h-14.525v-5.2h-14.125v5.2h-14.525v-5.2h-9.125v-11.43h-5.2v-11.63h5.2v-11.23h-5.2v-11.63" style="vector-effect:non-scaling-stroke;fill:none;stroke:#000;stroke-width:.264583;stroke-dasharray:none;stroke-opacity:1;-inkscape-stroke:hairline" transform="matrix(0 1 1 0 279.138 -226.637)"/>
    <path d="M339.245 132.85v18.643h-5.2v18.845h5.2v18.444h-5.2v18.844h5.2v18.445h-5.2v18.844h5.2v18.443h-5.2v18.845h5.2v18.444h-5.2v18.844h5.2v18.444h-5.2v18.844h5.2v18.445h-5.2v18.844h5.2v18.444h-5.2v18.844h5.2V450h11.63v-5.2h11.23v5.2h11.63v-5.2h11.23v5.2h11.63v-18.644h5.2v-18.844h-5.2v-18.444h5.2v-18.844h-5.2v-18.445h5.2v-18.844h-5.2V319.49h5.2v-18.844h-5.2v-18.444h5.2v-18.845h-5.2v-18.443h5.2V226.07h-5.2v-18.445h5.2v-18.844h-5.2v-18.444h5.2v-18.845h-5.2V132.85h-11.63v5.2h-11.23v-5.2h-11.63v5.2h-11.23v-5.2zm8.51 62.55h13.31v5h-13.31zm27.02 0h13.31v5h-13.31zm-23.9 62.35h11.23v5h-11.23zm22.86 0h11.23v5h-11.23zm-22.86 62.35h11.23v5h-11.23zm22.86 0h11.23v5h-11.23zm-25.98 62.35h13.31v5h-13.31zm27.02 0h13.31v5h-13.31zM546.85 450v18.844h5.2v18.444h-5.2v18.844h5.2v18.444h-5.2v18.845h5.2v18.444h-5.2v18.844h5.2v18.444h-5.2v18.844h5.2v18.444h-5.2v18.844h5.2v18.444h-5.2v18.845h5.2v18.444h-5.2v18.844h5.2v18.444h-5.2v18.844h16.429v-5.2h16.028v5.2h16.426v-5.2h16.028v5.2h16.428v-5.2h16.029v5.2h16.427v-5.2h16.028v5.2H693.1v-18.844h-5.2v-18.444h5.2v-18.844h-5.2v-18.444h5.2v-18.845h-5.2v-18.444h5.2V636.44h-5.2v-18.444h5.2v-18.844h-5.2v-18.444h5.2v-18.844h-5.2V543.42h5.2v-18.845h-5.2v-18.444h5.2v-18.844h-5.2v-18.444h5.2V450h-16.428v5.2h-16.028V450h-16.427v5.2h-16.029V450h-16.428v5.2h-16.028V450h-16.426v5.2h-16.028V450zm32.53 62.55h26.93v5h-26.93zm54.26 0h26.93v5h-26.93zm-53.72 62.35h28.095v5h-28.094zm56.59 0h28.096v5H636.51zm-56.59 62.35h28.095v5h-28.094zm56.59 0h28.096v5H636.51zm-57.13 62.35h26.93v5h-26.93zm54.26 0h26.93v5h-26.93z" style="vector-effect:non-scaling-stroke;fill:none;stroke:#000;stroke-width:.264583;stroke-dasharray:none;stroke-opacity:1;-inkscape-stroke:hairline"/>
    <path fill="none" stroke="#000" stroke-width=".1mm" d="M402.426 383.637h-18.844v-5.2h-18.444v5.2h-18.844v-5.2H332.85v-14.05h13.444v-5.2h18.844v5.2h18.444v-5.2h18.844v5.2h18.445v-5.2h18.844v5.2h18.444v-5.2h18.844v5.2h18.444v-5.2h18.844v5.2h18.444v-5.2h18.844v5.2h18.445v-5.2h18.844v5.2h18.444v-5.2h18.844v5.2H639.6v14.05h-13.444v5.2h-18.844v-5.2h-18.444v5.2h-18.844v-5.2h-18.445v5.2h-18.844v-5.2h-18.444v5.2h-18.844v-5.2h-18.444v5.2h-18.844v-5.2h-18.444v5.2h-18.844v-5.2h-18.445v5.2" style="vector-effect:non-scaling-stroke;fill:none;stroke:#000;stroke-width:.264583;stroke-dasharray:none;stroke-opacity:1;-inkscape-stroke:hairline" transform="rotate(90 331.541 453.89)"/>
    <path d="M470.45 450v317.15h11.086v-5.2h10.685v5.2h11.087v-5.2h10.686v5.2h11.085v-5.2h10.686v5.2h11.086v-18.844h-5.2v-18.444h5.2v-18.844h-5.2v-18.444h5.2v-18.845h-5.2v-18.444h5.2V636.44h-5.2v-18.444h5.2v-18.844h-5.2v-18.444h5.2v-18.844h-5.2V543.42h5.2v-18.845h-5.2v-18.444h5.2v-18.844h-5.2v-18.444h5.2V450h-11.086v5.2h-10.686V450h-11.085v5.2h-10.686V450H492.22v5.2h-10.685V450zm18.06 62.55h13.086v5H488.51zm26.57 0h13.086v5H515.08zm-25.53 62.35h14.126v5H489.55zm28.65 0h14.125v5h-14.124zm-28.65 62.35h14.126v5H489.55zm28.65 0h14.125v5h-14.124zm-29.69 62.35h13.086v5H488.51zm26.57 0h13.086v5H515.08z" style="vector-effect:non-scaling-stroke;fill:none;stroke:#000;stroke-width:.264583;stroke-dasharray:none;stroke-opacity:1;-inkscape-stroke:hairline"/>
    <path fill="none" stroke="#000" stroke-width=".1mm" d="M479.424 389.24h14.669v-5.2h14.868v5.2h14.469v-5.603l2.208 5.33-14.122 14.123h.564v5.2h16.027v-5.2h16.428v5.2h16.028v-5.2h16.428v5.2h16.027v-5.2h16.428v5.2h11.028v11.43h5.2v11.63h-5.2v11.23h5.2v11.63h-5.2v11.43h-5.686v5.2h-11.085v-5.2h-10.686v5.2h-11.086v-5.2h-10.686v5.2H560.16v-5.2h-10.686v5.323l-70.212-62.673h16.39v-5h-16.228v-14.05" style="vector-effect:non-scaling-stroke;fill:none;stroke:#000;stroke-width:.264583;stroke-dasharray:none;stroke-opacity:1;-inkscape-stroke:hairline" transform="rotate(-90 717.856 271.923)"/>
    <path fill="none" stroke="#000" stroke-width=".1mm" d="M398.364 470.84h-11.085v-5.2h-10.686v5.2h-11.086v-5.2h-10.686v5.2h-11.085v-5.2h-5.686v-11.43h-5.2v-11.63h5.2v-11.23h-5.2v-11.63h5.2v-11.43h11.028v-5.2h16.428v5.2h16.027v-5.2h16.428v5.2h16.028v-5.2h16.428v5.2h16.027v-5.2h.565l-14.123-14.123 2.208-5.33v5.603h14.469v-5.2h14.868v5.2H479.1v14.05h-16.228v5h16.39l-70.212 62.673v-5.323h-10.686v5.2" style="vector-effect:non-scaling-stroke;fill:none;stroke:#000;stroke-width:.264583;stroke-dasharray:none;stroke-opacity:1;-inkscape-stroke:hairline" transform="matrix(0 -1 -1 0 1349.592 892.224)"/>
    <path fill="none" stroke="#000" stroke-width=".1mm" d="M479.424 389.24h14.669v-5.2h14.868v5.2h14.469v-5.603l2.208 5.33-14.122 14.123h.564v5.2h16.027v-5.2h16.428v5.2h16.028v-5.2h16.428v5.2h16.027v-5.2h16.428v5.2h11.028v11.43h5.2v11.63h-5.2v11.23h5.2v11.63h-5.2v11.43h-5.686v5.2h-11.085v-5.2h-10.686v5.2h-11.086v-5.2h-10.686v5.2H560.16v-5.2h-10.686v5.323l-70.212-62.673h16.39v-5h-16.228v-14.05" style="vector-effect:non-scaling-stroke;fill:none;stroke:#000;stroke-width:.264583;stroke-dasharray:none;stroke-opacity:1;-inkscape-stroke:hairline" transform="matrix(0 1 1 0 309.548 -66.3)"/>
    <path fill="none" stroke="#000" stroke-width=".1mm" d="M398.364 470.84h-11.085v-5.2h-10.686v5.2h-11.086v-5.2h-10.686v5.2h-11.085v-5.2h-5.686v-11.43h-5.2v-11.63h5.2v-11.23h-5.2v-11.63h5.2v-11.43h11.028v-5.2h16.428v5.2h16.027v-5.2h16.428v5.2h16.028v-5.2h16.428v5.2h16.027v-5.2h.565l-14.123-14.123 2.208-5.33v5.603h14.469v-5.2h14.868v5.2H479.1v14.05h-16.228v5h16.39l-70.212 62.673v-5.323h-10.686v5.2" style="vector-effect:non-scaling-stroke;fill:none;stroke:#000;stroke-width:.264583;stroke-dasharray:none;stroke-opacity:1;-inkscape-stroke:hairline" transform="rotate(90 590.976 622.23)"/>
    <path fill="none" stroke="#000" stroke-width=".1mm" d="M650 359.187v-14.869h5.2V329.85H650v-14.869h317.15v14.869h-5.2v14.468h5.2v14.869h-18.844v-5.2h-18.444v5.2h-18.844v-5.2h-18.444v5.2h-18.845v-5.2h-18.444v5.2h-18.844v-5.2h-18.444v5.2h-18.844v-5.2h-18.444v5.2h-18.844v-5.2h-18.444v5.2h-18.845v-5.2h-18.444v5.2h-18.844v-5.2h-18.444v5.2H650" style="vector-effect:non-scaling-stroke;fill:none;stroke:#000;stroke-width:.264583;stroke-dasharray:none;stroke-opacity:1;-inkscape-stroke:hairline" transform="rotate(90 492.716 292.716)"/>
    <path d="M339.245 450v18.643h-5.2v18.845h5.2v18.444h-5.2v18.844h5.2v18.445h-5.2v18.844h5.2v18.443h-5.2v18.845h5.2v18.444h-5.2v18.844h5.2v18.444h-5.2v18.844h5.2v18.445h-5.2v18.844h5.2v18.444h-5.2v18.844h5.2v18.644h11.63v-5.2h11.23v5.2h11.63v-5.2h11.23v5.2h11.63v-18.644h5.2v-18.844h-5.2v-18.444h5.2v-18.844h-5.2v-18.445h5.2v-18.844h-5.2V636.64h5.2v-18.844h-5.2v-18.444h5.2v-18.845h-5.2v-18.443h5.2V543.22h-5.2v-18.445h5.2v-18.844h-5.2v-18.444h5.2v-18.845h-5.2V450h-11.63v5.2h-11.23V450h-11.63v5.2h-11.23V450zm8.51 62.55h13.31v5h-13.31zm27.02 0h13.31v5h-13.31zm-23.9 62.35h11.23v5h-11.23zm22.86 0h11.23v5h-11.23zm-22.86 62.35h11.23v5h-11.23zm22.86 0h11.23v5h-11.23zm-25.98 62.35h13.31v5h-13.31zm27.02 0h13.31v5h-13.31z" style="vector-effect:non-scaling-stroke;fill:none;stroke:#000;stroke-width:.264583;stroke-dasharray:none;stroke-opacity:1;-inkscape-stroke:hairline"/>
</svg>
