Cleat Wall Organization Equipment
Copyright (C) 2025  Corporate Hacks

This program is free software: you can redistribute it and/or modify
it under the terms of the GNU General Public License as published by
the Free Software Foundation, either version 3 of the License, or
(at your option) any later version.

This program is distributed in the hope that it will be useful,
but WITHOUT ANY WARRANTY; without even the implied warranty of
MERCHANTABILITY or FITNESS FOR A PARTICULAR PURPOSE.  See the
GNU General Public License for more details.

You should have received a copy of the GNU General Public License
along with this program.  If not, see <http://www.gnu.org/licenses/>.


<svg xmlns="http://www.w3.org/2000/svg" width="1300mm" height="900mm" viewBox="0 0 1300 900">
    <path d="M488.59 661.32v5.2h-10.068v10h-5.2v10.2h5.2v9.8h-5.876l133.077 34.88v-12.96h5v12.93h14.05V716.7h5.2v-14.868h-5.2v-14.469h5.602l-5.33-2.208-14.322 14.323v5.831h-5v-12.73h5.2v-13.13h-5.2v-12.93h-10.068v-5.2H580.19v5.2h-15.068v-5.2h-15.466v5.2h-5.034v14.042h-5V666.52h-5.033v-5.2h-15.466v5.2h-15.068v-5.2zm51.033 33.483h5v13.842h-5z" style="vector-effect:non-scaling-stroke;fill:none;stroke:#000;stroke-width:.264583;stroke-dasharray:none;stroke-opacity:1;-inkscape-stroke:hairline"/>
    <path fill="none" stroke="#000" stroke-width=".1mm" d="M369.64 611.679h18.541v-5.2h18.741v5.2h18.342v-5.2h18.741v5.2h18.341v-5.2h18.741v5.2h18.341v-5.2h18.741v5.2h18.342v-5.2h18.741v5.2h18.341v-5.2h18.741v5.2h18.341v-5.2h18.741v5.2h18.342v-5.2h18.741v5.2h18.541v13.13h-5.2v12.73h5.2v13.13h-5.2v12.73h5.2v13.13h-18.741v-5.2h-18.341v5.2h-18.742v-5.2h-18.341v5.2h-18.741v-5.2h-18.341v5.2h-18.741v-5.2h-18.341v5.2h-18.742v-5.2h-18.341v5.2h-18.741v-5.2h-18.341v5.2h-18.741v-5.2h-18.341v5.2h-18.742v-5.2h-18.341v5.2H369.64v-13.13h5.2v-12.73h-5.2v-13.13h5.2v-12.73h-5.2v-13.13" style="vector-effect:non-scaling-stroke;fill:none;stroke:#000;stroke-width:.264583;stroke-dasharray:none;stroke-opacity:1;-inkscape-stroke:hairline" transform="matrix(0 1 1 0 -108.707 -339.12)"/>
    <path fill="none" stroke="#000" stroke-width=".1mm" d="M369.64 606.479v-10.2h5.2v-9.8h-5.2v-10.2h18.541v-5.2h18.741v5.2h18.342v-5.2h18.741v5.2h18.341v-5.2h18.741v5.2h18.341v-5.2h18.741v5.2h18.342v-5.2h18.741v5.2h18.341v-5.2h18.741v5.2h18.341v-5.2h18.741v5.2h18.342v-5.2h18.741v5.2h18.541v10.2h-5.2v9.8h5.2v10.2h-315.4" style="vector-effect:non-scaling-stroke;fill:none;stroke:#000;stroke-width:.264583;stroke-dasharray:none;stroke-opacity:1;-inkscape-stroke:hairline" transform="rotate(90 868.777 529.656)"/>
    <path fill="none" stroke="#000" stroke-width=".1mm" d="M369.64 571.079V556.21h5.2v-14.468h-5.2v-14.869h315.4v14.869h-5.2v14.468h5.2v14.869h-18.741v-5.2h-18.341v5.2h-18.742v-5.2h-18.341v5.2h-18.741v-5.2h-18.341v5.2h-18.741v-5.2h-18.341v5.2h-18.742v-5.2h-18.341v5.2h-18.741v-5.2h-18.341v5.2h-18.741v-5.2h-18.341v5.2h-18.742v-5.2h-18.341v5.2H369.64" style="vector-effect:non-scaling-stroke;fill:none;stroke:#000;stroke-width:.264583;stroke-dasharray:none;stroke-opacity:1;-inkscape-stroke:hairline" transform="rotate(90 807.811 468.69)"/>
    <path d="M567.822 30.52v18.74h5.2v18.341h-5.2v18.743h5.2v18.34h-5.2v18.741h5.2v18.341h-5.2v18.741h5.2v18.341h-5.2v18.742h5.2v18.341h-5.2v18.742h5.2v18.341h-5.2v18.74h5.2v18.342h-5.2v18.742h5.2v18.34h-5.2v18.742h15.468v-5.2h15.065v5.2h15.468v-5.2h15.066v5.2h15.467v-5.2h15.066v5.2h15.468v-5.2h15.065v5.2h15.468v-18.741h-5.2v-18.341h5.2v-18.742h-5.2v-18.341h5.2v-18.741h-5.2v-18.341h5.2V215.93h-5.2v-18.34h5.2v-18.743h-5.2v-18.34h5.2v-18.742h-5.2v-18.34h5.2v-18.741h-5.2V86.344h5.2V67.6h-5.2v-18.34h5.2V30.52h-15.468v5.2H674.89v-5.2h-15.468v5.2h-15.066v-5.2h-15.467v5.2h-15.066v-5.2h-15.468v5.2H583.29v-5.2zm25.7 103.533h20.1v5h-20.1zm66.1 0h20.1v5h-20.1zm-66.1 103.333h20.1v5h-20.1zm66.1 0h20.1v5h-20.1zM763.45 702.982l-133.075 34.88h5.876v9.8h-5.2v10.2h5.2v10h10.067v5.2h15.466v-5.2h15.067v5.2h15.467v-5.2h5.033V753.82h5v14.042h5.033v5.2h15.467v-5.2h15.067v5.2h15.466v-5.2h10.067v-12.93h5.2v-13.13h-5.2v-12.73h5v5.83l14.322 14.324 5.331-2.208h-5.603v-14.47h5.2v-14.867h-5.2v-14.67h-14.05v12.93h-5zm-66.099 22.755h5v13.842h-5z" style="vector-effect:non-scaling-stroke;fill:none;stroke:#000;stroke-width:.264583;stroke-dasharray:none;stroke-opacity:1;-inkscape-stroke:hairline"/>
    <path fill="none" stroke="#000" stroke-width=".1mm" d="M620.16 391.6h59.68l-16.015 61.1h-22.402v5h21.092L646.5 518.8h-26.34v-20.3h-5.2V478h5.2v-45.6h-5.2v-20.5h5.2v-20.3" style="vector-effect:non-scaling-stroke;fill:none;stroke:#000;stroke-width:.264583;stroke-dasharray:none;stroke-opacity:1;-inkscape-stroke:hairline" transform="rotate(90 416.672 574.774)"/>
    <path fill="none" stroke="#000" stroke-width=".1mm" d="M679.84 391.6h59.679v20.3h5.2v20.5h-5.2V478h5.2v20.5h-5.2v20.3h-26.34l-16.014-61.1h21.091v-5h-22.402l-16.014-61.1" style="vector-effect:non-scaling-stroke;fill:none;stroke:#000;stroke-width:.264583;stroke-dasharray:none;stroke-opacity:1;-inkscape-stroke:hairline" transform="rotate(90 496.942 621.704)"/>
    <path d="M772.161 661.32v5.2h10.067v10h5.2v10.2h-5.2v9.8h5.876L655.028 731.4v-12.96h-5v12.93h-14.05V716.7h-5.2v-14.868h5.2v-14.469h-5.603l5.33-2.208 14.323 14.323v5.831h5v-12.73h-5.2v-13.13h5.2v-12.93h10.067v-5.2h15.466v5.2h15.067v-5.2h15.467v5.2h5.033v14.042h5V666.52h5.033v-5.2h15.467v5.2h15.067v-5.2zm-51.033 33.483h-5v13.842h5zM497.3 702.982l133.075 34.88H624.5v9.8h5.2v10.2h-5.2v10h-10.067v5.2h-15.467v-5.2H583.9v5.2h-15.468v-5.2H563.4V753.82h-5v14.042h-5.033v5.2H537.9v-5.2h-15.067v5.2h-15.466v-5.2H497.3v-12.93h-5.2v-13.13h5.2v-12.73h-5v5.83l-14.323 14.324-5.33-2.208h5.603v-14.47h-5.2v-14.867h5.2v-14.67h14.05v12.93h5zm66.1 22.755h-5v13.842h5z" style="vector-effect:non-scaling-stroke;fill:none;stroke:#000;stroke-width:.264583;stroke-dasharray:none;stroke-opacity:1;-inkscape-stroke:hairline"/>
    <path fill="none" stroke="#000" stroke-width=".1mm" d="M620.16 391.6h59.68l-16.015 61.1h-22.402v5h21.092L646.5 518.8h-26.34v-20.3h-5.2V478h5.2v-45.6h-5.2v-20.5h5.2v-20.3" style="vector-effect:non-scaling-stroke;fill:none;stroke:#000;stroke-width:.264583;stroke-dasharray:none;stroke-opacity:1;-inkscape-stroke:hairline" transform="matrix(0 1 1 0 208.246 158.101)"/>
    <path fill="none" stroke="#000" stroke-width=".1mm" d="M679.84 391.6h59.679v20.3h5.2v20.5h-5.2V478h5.2v20.5h-5.2v20.3h-26.34l-16.014-61.1h21.091v-5h-22.402l-16.014-61.1" style="vector-effect:non-scaling-stroke;fill:none;stroke:#000;stroke-width:.264583;stroke-dasharray:none;stroke-opacity:1;-inkscape-stroke:hairline" transform="matrix(0 1 1 0 81.046 124.762)"/>
    <path fill="none" stroke="#000" stroke-width=".1mm" d="M685.04 609.754h103.533v21.063h5v-21.063h98.334v21.063h5v-21.063h103.533v14.242h-5.2v13.842h5.2v14.241h-315.4v-14.241h5.2v-13.842h-5.2v-14.242" style="vector-effect:non-scaling-stroke;fill:none;stroke:#000;stroke-width:.264583;stroke-dasharray:none;stroke-opacity:1;-inkscape-stroke:hairline" transform="rotate(90 1028.114 373.594)"/>
    <path fill="none" stroke="#000" stroke-width=".1mm" d="M698.381 652.079h18.741v5.2h18.342v-5.2h18.741v5.2h18.341v-5.2h18.741v5.2h18.341v-5.2h18.741v5.2h18.342v-5.2h18.741v5.2h18.341v-5.2h18.741v5.2h18.341v-5.2h18.741v5.2h18.342v-5.2h18.741v5.2h13.341v14.05h-13.341v5.2h-18.741v-5.2h-18.342v5.2h-18.741v-5.2h-18.341v5.2h-18.741v-5.2h-18.341v5.2h-18.741v-5.2h-18.342v5.2h-18.741v-5.2h-18.341v5.2h-18.741v-5.2h-18.341v5.2h-18.741v-5.2h-18.342v5.2h-18.741v-5.2H685.04v-14.05h13.341v-5.2" style="vector-effect:non-scaling-stroke;fill:none;stroke:#000;stroke-width:.264583;stroke-dasharray:none;stroke-opacity:1;-inkscape-stroke:hairline" transform="rotate(90 899.586 250.265)"/>
    <path fill="none" stroke="#000" stroke-width=".1mm" d="M369.64 611.679h18.541v-5.2h18.741v5.2h18.342v-5.2h18.741v5.2h18.341v-5.2h18.741v5.2h18.341v-5.2h18.741v5.2h18.342v-5.2h18.741v5.2h18.341v-5.2h18.741v5.2h18.341v-5.2h18.741v5.2h18.342v-5.2h18.741v5.2h18.541v13.13h-5.2v12.73h5.2v13.13h-5.2v12.73h5.2v13.13h-18.741v-5.2h-18.341v5.2h-18.742v-5.2h-18.341v5.2h-18.741v-5.2h-18.341v5.2h-18.741v-5.2h-18.341v5.2h-18.742v-5.2h-18.341v5.2h-18.741v-5.2h-18.341v5.2h-18.741v-5.2h-18.341v5.2h-18.742v-5.2h-18.341v5.2H369.64v-13.13h5.2v-12.73h-5.2v-13.13h5.2v-12.73h-5.2v-13.13" style="vector-effect:non-scaling-stroke;fill:none;stroke:#000;stroke-width:.264583;stroke-dasharray:none;stroke-opacity:1;-inkscape-stroke:hairline" transform="matrix(0 1 1 0 -108.707 -23.72)"/>
    <path fill="none" stroke="#000" stroke-width=".1mm" d="M369.64 606.479v-10.2h5.2v-9.8h-5.2v-10.2h18.541v-5.2h18.741v5.2h18.342v-5.2h18.741v5.2h18.341v-5.2h18.741v5.2h18.341v-5.2h18.741v5.2h18.342v-5.2h18.741v5.2h18.341v-5.2h18.741v5.2h18.341v-5.2h18.741v5.2h18.342v-5.2h18.741v5.2h18.541v10.2h-5.2v9.8h5.2v10.2h-315.4" style="vector-effect:non-scaling-stroke;fill:none;stroke:#000;stroke-width:.264583;stroke-dasharray:none;stroke-opacity:1;-inkscape-stroke:hairline" transform="rotate(90 711.076 687.356)"/>
    <path fill="none" stroke="#000" stroke-width=".1mm" d="M369.64 571.079V556.21h5.2v-14.468h-5.2v-14.869h315.4v14.869h-5.2v14.468h5.2v14.869h-18.741v-5.2h-18.341v5.2h-18.742v-5.2h-18.341v5.2h-18.741v-5.2h-18.341v5.2h-18.741v-5.2h-18.341v5.2h-18.742v-5.2h-18.341v5.2h-18.741v-5.2h-18.341v5.2h-18.741v-5.2h-18.341v5.2h-18.742v-5.2h-18.341v5.2H369.64" style="vector-effect:non-scaling-stroke;fill:none;stroke:#000;stroke-width:.264583;stroke-dasharray:none;stroke-opacity:1;-inkscape-stroke:hairline" transform="rotate(90 650.11 626.39)"/>
    <path d="M567.822 345.92v18.74h5.2v18.342h-5.2v18.742h5.2v18.34h-5.2v18.742h5.2v18.34h-5.2v18.742h5.2v18.34h-5.2v18.743h5.2v18.34h-5.2v18.742h5.2v18.341h-5.2v18.741h5.2v18.341h-5.2v18.742h5.2v18.341h-5.2v18.741h15.468v-5.2h15.065v5.2h15.468v-5.2h15.066v5.2h15.467v-5.2h15.066v5.2h15.468v-5.2h15.065v5.2h15.468v-18.74h-5.2v-18.342h5.2v-18.742h-5.2v-18.34h5.2v-18.742h-5.2v-18.34h5.2v-18.742h-5.2V512.99h5.2v-18.742h-5.2v-18.341h5.2v-18.741h-5.2v-18.341h5.2v-18.741h-5.2v-18.341h5.2v-18.742h-5.2V364.66h5.2V345.92h-15.468v5.2H674.89v-5.2h-15.468v5.2h-15.066v-5.2h-15.467v5.2h-15.066v-5.2h-15.468v5.2H583.29v-5.2zm25.7 103.533h20.1v5h-20.1zm66.1 0h20.1v5h-20.1zm-66.1 103.334h20.1v5h-20.1zm66.1 0h20.1v5h-20.1z" style="vector-effect:non-scaling-stroke;fill:none;stroke:#000;stroke-width:.264583;stroke-dasharray:none;stroke-opacity:1;-inkscape-stroke:hairline"/>
    <path fill="none" stroke="#000" stroke-width=".1mm" d="M685.04 609.754h103.533v21.063h5v-21.063h98.334v21.063h5v-21.063h103.533v14.242h-5.2v13.842h5.2v14.241h-315.4v-14.241h5.2v-13.842h-5.2v-14.242" style="vector-effect:non-scaling-stroke;fill:none;stroke:#000;stroke-width:.264583;stroke-dasharray:none;stroke-opacity:1;-inkscape-stroke:hairline" transform="rotate(90 870.414 531.294)"/>
    <path fill="none" stroke="#000" stroke-width=".1mm" d="M698.381 652.079h18.741v5.2h18.342v-5.2h18.741v5.2h18.341v-5.2h18.741v5.2h18.341v-5.2h18.741v5.2h18.342v-5.2h18.741v5.2h18.341v-5.2h18.741v5.2h18.341v-5.2h18.741v5.2h18.342v-5.2h18.741v5.2h13.341v14.05h-13.341v5.2h-18.741v-5.2h-18.342v5.2h-18.741v-5.2h-18.341v5.2h-18.741v-5.2h-18.341v5.2h-18.741v-5.2h-18.342v5.2h-18.741v-5.2h-18.341v5.2h-18.741v-5.2h-18.341v5.2h-18.741v-5.2h-18.342v5.2h-18.741v-5.2H685.04v-14.05h13.341v-5.2" style="vector-effect:non-scaling-stroke;fill:none;stroke:#000;stroke-width:.264583;stroke-dasharray:none;stroke-opacity:1;-inkscape-stroke:hairline" transform="rotate(90 741.886 407.966)"/>
</svg>
