<?xml version="1.0" encoding="UTF-8" standalone="no"?>
<svg
   width="1300mm"
   height="900mm"
   viewBox="0 0 1300 900"
   version="1.1"
   id="svg16"
   sodipodi:docname="6comp8x4.svg"
   inkscape:version="1.3.2 (091e20ef0f, 2023-11-25)"
   xmlns:inkscape="http://www.inkscape.org/namespaces/inkscape"
   xmlns:sodipodi="http://sodipodi.sourceforge.net/DTD/sodipodi-0.dtd"
   xmlns="http://www.w3.org/2000/svg"
   xmlns:svg="http://www.w3.org/2000/svg">
  <defs
     id="defs16" />
  <sodipodi:namedview
     id="namedview16"
     pagecolor="#505050"
     bordercolor="#eeeeee"
     borderopacity="1"
     inkscape:showpageshadow="0"
     inkscape:pageopacity="0"
     inkscape:pagecheckerboard="0"
     inkscape:deskcolor="#505050"
     inkscape:document-units="mm"
     inkscape:zoom="0.17991667"
     inkscape:cx="997.68412"
     inkscape:cy="1597.962"
     inkscape:window-width="1920"
     inkscape:window-height="1011"
     inkscape:window-x="0"
     inkscape:window-y="32"
     inkscape:window-maximized="1"
     inkscape:current-layer="svg16" />
  <polyline
     z="0"
     points="334.5,607.217 334.5,594.087 339.7,594.087 339.7,581.357 334.5,581.357 334.5,568.227 339.7,568.227 339.7,555.497 334.5,555.497 334.5,542.367 350.931,542.367 350.931,537.167 367.562,537.167 367.562,542.367 383.792,542.367 383.792,537.167 400.423,537.167 400.423,542.367 416.654,542.367 416.654,537.167 433.285,537.167 433.285,542.367 449.515,542.367 449.515,537.167 466.146,537.167 466.146,542.367 482.377,542.367 482.377,537.167 499.008,537.167 499.008,542.367 515.238,542.367 515.238,537.167 531.869,537.167 531.869,542.367 548.3,542.367 548.3,555.497 543.1,555.497 543.1,568.227 548.3,568.227 548.3,581.357 543.1,581.357 543.1,594.087 548.3,594.087 548.3,607.217 531.669,607.217 531.669,602.017 515.438,602.017 515.438,607.217 498.808,607.217 498.808,602.017 482.577,602.017 482.577,607.217 465.946,607.217 465.946,602.017 449.715,602.017 449.715,607.217 433.085,607.217 433.085,602.017 416.854,602.017 416.854,607.217 400.223,607.217 400.223,602.017 383.992,602.017 383.992,607.217 367.362,607.217 367.362,602.017 351.131,602.017 351.131,607.217 334.5,607.217"
     fill="none"
     stroke="#000000"
     stroke-width="0.1mm"
     id="polyline1"
     transform="matrix(0,1,1,0,94.89862,10.4842)"
     style="vector-effect:non-scaling-stroke;fill:none;stroke:#000000;stroke-width:0.264583;stroke-dasharray:none;stroke-opacity:1;-inkscape-stroke:hairline" />
  <path
     id="polyline2"
     style="vector-effect:non-scaling-stroke;fill:none;stroke:#000000;stroke-width:0.264583;stroke-dasharray:none;stroke-opacity:1;-inkscape-stroke:hairline"
     d="m 702.11551,344.98406 v 16.63103 h 5.2002 v 16.23105 h -5.2002 v 16.62999 h 5.2002 v 16.23106 h -5.2002 v 16.63102 h 5.2002 v 16.23105 h -5.2002 v 16.62999 h 5.2002 v 16.23106 h -5.2002 v 16.63102 h 5.2002 v 16.23105 h -5.2002 v 16.62999 h 5.2002 v 16.23106 h -5.2002 v 16.63102 h 12.64419 v -5.2002 h 12.24473 v 5.2002 h 12.64419 v -5.2002 h 12.24525 v 5.2002 h 12.64367 v -5.2002 h 12.24525 v 5.2002 h 12.64367 v -5.2002 h 12.24525 v 5.2002 h 12.64367 v -16.63102 h -5.19968 v -16.23106 h 5.19968 v -16.62999 h -5.19968 v -16.23105 h 5.19968 v -16.63102 h -5.19968 v -16.23106 h 5.19968 v -16.62999 h -5.19968 v -16.23105 h 5.19968 v -16.63102 h -5.19968 v -16.23106 h 5.19968 v -16.62999 h -5.19968 v -16.23105 h 5.19968 v -16.63103 h -12.64367 v 5.2002 h -12.24525 v -5.2002 h -12.64367 v 5.2002 h -12.24525 v -5.2002 h -12.64367 v 5.2002 h -12.24525 v -5.2002 h -12.64419 v 5.2002 H 714.7597 v -5.2002 z m 21.46691,69.66707 h 15.86621 v 5.00021 h -15.86621 z m 53.40036,0 h 15.8657 v 5.00021 h -15.8657 z m -53.40036,69.46604 h 15.86621 v 5.00022 h -15.86621 z m 53.40036,0 h 15.8657 v 5.00022 h -15.8657 z" />
  <path
     id="polyline7"
     style="vector-effect:non-scaling-stroke;fill:none;stroke:#000000;stroke-width:0.264583;stroke-dasharray:none;stroke-opacity:1;-inkscape-stroke:hairline"
     d="m 724.59718,601.98223 -107.53246,34.88676 h 5.73247 v 9.79992 h -5.2002 v 10.20041 h 5.2002 v 9.99992 h 7.244 v 5.19967 h 12.64471 v -5.19967 h 12.24421 v 5.19967 h 12.64471 v -5.19967 h 3.622 v -14.04205 h 5.00021 v 14.04205 h 3.622 v 5.19967 h 12.64471 v -5.19967 h 12.24421 v 5.19967 h 12.64523 v -5.19967 h 7.244 v -12.92997 h 5.19968 v -13.12995 h -5.19968 v -12.72997 h 4.99969 v 5.83168 l 14.32213,14.32213 5.3299,-2.20814 h -5.60172 v -14.46888 h 5.19968 v -14.86783 h -5.19968 v -14.66939 h -14.05031 v 12.92996 h -4.99969 z m -53.40036,22.76192 h 5.00021 v 13.84205 h -5.00021 z" />
  <path
     id="polyline9"
     style="vector-effect:non-scaling-stroke;fill:none;stroke:#000000;stroke-width:0.264583;stroke-dasharray:none;stroke-opacity:1;-inkscape-stroke:hairline"
     d="m 498.66109,558.7842 v 5.2002 h -7.244 v 9.99991 h -5.2002 v 10.19989 h 5.2002 v 9.79992 h -5.73247 l 107.53246,34.88831 v -12.9682 h 4.99969 v 12.92996 h 14.05031 v -14.66887 h 5.19968 v -14.86783 h -5.19968 v -14.4694 h 5.60172 l -5.3299,-2.20761 -14.32213,14.32264 v 5.83116 h -4.99969 v -12.72997 h 5.19968 v -13.12995 h -5.19968 V 563.9844 h -7.244 v -5.2002 h -12.64523 v 5.2002 h -12.24421 v -5.2002 h -12.64471 v 5.2002 h -3.622 v 14.04204 h -5.00021 V 563.9844 h -3.622 v -5.2002 h -12.64471 v 5.2002 H 511.3058 v -5.2002 z m 41.15563,33.48323 h 5.00021 v 13.84205 h -5.00021 z" />
  <polyline
     z="0"
     points="553.5,435.367 613.188,435.367 597.485,483.767 574.763,483.767 574.763,488.767 595.863,488.767 580.16,537.167 553.5,537.167 553.5,521.1 548.3,521.1 548.3,504.834 553.5,504.834 553.5,467.7 548.3,467.7 548.3,451.434 553.5,451.434 553.5,435.367"
     fill="none"
     stroke="#000000"
     stroke-width="0.1mm"
     id="polyline11"
     transform="rotate(90,500.73316,623.91846)"
     style="vector-effect:non-scaling-stroke;fill:none;stroke:#000000;stroke-width:0.264583;stroke-dasharray:none;stroke-opacity:1;-inkscape-stroke:hairline" />
  <polyline
     z="0"
     points="613.188,435.367 672.875,435.367 672.875,451.434 678.075,451.434 678.075,467.7 672.875,467.7 672.875,504.834 678.075,504.834 678.075,521.1 672.875,521.1 672.875,537.167 646.215,537.167 630.513,488.767 651.612,488.767 651.612,483.767 628.89,483.767 613.188,435.367"
     fill="none"
     stroke="#000000"
     stroke-width="0.1mm"
     id="polyline12"
     transform="rotate(90,466.05515,556.79648)"
     style="vector-effect:non-scaling-stroke;fill:none;stroke:#000000;stroke-width:0.264583;stroke-dasharray:none;stroke-opacity:1;-inkscape-stroke:hairline" />
  <path
     id="polyline7-3"
     style="vector-effect:non-scaling-stroke;fill:none;stroke:#000000;stroke-width:0.264583;stroke-dasharray:none;stroke-opacity:1;-inkscape-stroke:hairline"
     d="m 510.33634,601.98265 107.53246,34.88676 h -5.73247 v 9.79992 h 5.2002 v 10.20041 h -5.2002 v 9.99991 h -7.244 v 5.19968 h -12.64471 v -5.19968 h -12.24421 v 5.19968 H 567.3587 v -5.19968 h -3.622 v -14.04204 h -5.00021 v 14.04204 h -3.622 v 5.19968 h -12.64471 v -5.19968 h -12.24421 v 5.19968 h -12.64523 v -5.19968 h -7.244 v -12.92996 h -5.19968 v -13.12995 h 5.19968 v -12.72997 h -4.99969 v 5.83168 l -14.32213,14.32213 -5.3299,-2.20814 h 5.60172 v -14.46888 h -5.19968 v -14.86783 h 5.19968 v -14.66939 h 14.05031 v 12.92996 h 4.99969 z m 53.40036,22.76192 h -5.00021 v 13.84205 h 5.00021 z" />
  <path
     id="polyline9-1"
     style="vector-effect:non-scaling-stroke;fill:none;stroke:#000000;stroke-width:0.264583;stroke-dasharray:none;stroke-opacity:1;-inkscape-stroke:hairline"
     d="m 736.27243,558.7842 v 5.2002 h 7.244 v 9.99991 h 5.2002 v 10.19989 h -5.2002 v 9.79992 h 5.73247 l -107.53246,34.88831 v -12.9682 h -4.99969 v 12.92996 h -14.05031 v -14.66887 h -5.19968 v -14.86783 h 5.19968 v -14.4694 h -5.60172 l 5.3299,-2.20761 14.32213,14.32264 v 5.83116 h 4.99969 v -12.72997 h -5.19968 v -13.12995 h 5.19968 V 563.9844 h 7.244 v -5.2002 h 12.64523 v 5.2002 h 12.24421 v -5.2002 h 12.64471 v 5.2002 h 3.622 v 14.04204 h 5.00021 V 563.9844 h 3.622 v -5.2002 h 12.64471 v 5.2002 h 12.24421 v -5.2002 z m -41.15563,33.48323 h -5.00021 v 13.84205 h 5.00021 z" />
  <polyline
     z="0"
     points="553.5,435.367 613.188,435.367 597.485,483.767 574.763,483.767 574.763,488.767 595.863,488.767 580.16,537.167 553.5,537.167 553.5,521.1 548.3,521.1 548.3,504.834 553.5,504.834 553.5,467.7 548.3,467.7 548.3,451.434 553.5,451.434 553.5,435.367"
     fill="none"
     stroke="#000000"
     stroke-width="0.1mm"
     id="polyline11-8"
     transform="matrix(0,1,1,0,50.31762,123.76933)"
     style="vector-effect:non-scaling-stroke;fill:none;stroke:#000000;stroke-width:0.264583;stroke-dasharray:none;stroke-opacity:1;-inkscape-stroke:hairline" />
  <polyline
     z="0"
     points="613.188,435.367 672.875,435.367 672.875,451.434 678.075,451.434 678.075,467.7 672.875,467.7 672.875,504.834 678.075,504.834 678.075,521.1 672.875,521.1 672.875,537.167 646.215,537.167 630.513,488.767 651.612,488.767 651.612,483.767 628.89,483.767 613.188,435.367"
     fill="none"
     stroke="#000000"
     stroke-width="0.1mm"
     id="polyline12-9"
     transform="matrix(0,1,1,0,152.11762,90.74133)"
     style="vector-effect:non-scaling-stroke;fill:none;stroke:#000000;stroke-width:0.264583;stroke-dasharray:none;stroke-opacity:1;-inkscape-stroke:hairline" />
  <polyline
     z="0"
     points="678.075,462.761 694.506,462.761 694.506,457.561 711.137,457.561 711.137,462.761 727.367,462.761 727.367,457.561 743.998,457.561 743.998,462.761 760.229,462.761 760.229,457.561 776.86,457.561 776.86,462.761 793.09,462.761 793.09,457.561 809.721,457.561 809.721,462.761 825.952,462.761 825.952,457.561 842.583,457.561 842.583,462.761 858.813,462.761 858.813,457.561 875.444,457.561 875.444,462.761 891.875,462.761 891.875,472.961 886.675,472.961 886.675,482.761 891.875,482.761 891.875,492.961 678.075,492.961 678.075,482.761 683.275,482.761 683.275,472.961 678.075,472.961 678.075,462.761"
     fill="none"
     stroke="#000000"
     stroke-width="0.1mm"
     id="polyline13"
     transform="rotate(90,699.13371,366.04291)"
     style="vector-effect:non-scaling-stroke;fill:none;stroke:#000000;stroke-width:0.264583;stroke-dasharray:none;stroke-opacity:1;-inkscape-stroke:hairline" />
  <polyline
     z="0"
     points="678.075,492.961 891.875,492.961 891.875,507.83 886.675,507.83 886.675,522.298 891.875,522.298 891.875,537.167 875.244,537.167 875.244,531.967 859.013,531.967 859.013,537.167 842.383,537.167 842.383,531.967 826.152,531.967 826.152,537.167 809.521,537.167 809.521,531.967 793.29,531.967 793.29,537.167 776.66,537.167 776.66,531.967 760.429,531.967 760.429,537.167 743.798,537.167 743.798,531.967 727.567,531.967 727.567,537.167 710.937,537.167 710.937,531.967 694.706,531.967 694.706,537.167 678.075,537.167 678.075,522.298 683.275,522.298 683.275,507.83 678.075,507.83 678.075,492.961"
     fill="none"
     stroke="#000000"
     stroke-width="0.1mm"
     id="polyline14"
     transform="rotate(90,677.97121,344.88041)"
     style="vector-effect:non-scaling-stroke;fill:none;stroke:#000000;stroke-width:0.264583;stroke-dasharray:none;stroke-opacity:1;-inkscape-stroke:hairline" />
  <polyline
     z="0"
     points="687.433,564.892 687.433,585.955 692.433,585.955 692.433,564.892 762.1,564.892 762.1,579.134 756.9,579.134 756.9,592.976 762.1,592.976 762.1,607.217 548.3,607.217 548.3,592.976 553.5,592.976 553.5,579.134 548.3,579.134 548.3,564.892 617.967,564.892 617.967,585.955 622.967,585.955 622.967,564.892 687.433,564.892"
     fill="none"
     stroke="#000000"
     stroke-width="0.1mm"
     id="polyline15"
     transform="rotate(90,670.21171,466.89591)"
     style="vector-effect:non-scaling-stroke;fill:none;stroke:#000000;stroke-width:0.264583;stroke-dasharray:none;stroke-opacity:1;-inkscape-stroke:hairline" />
  <polyline
     z="0"
     points="762.1,587.967 773.331,587.967 773.331,582.767 789.962,582.767 789.962,587.967 806.192,587.967 806.192,582.767 822.823,582.767 822.823,587.967 839.054,587.967 839.054,582.767 855.685,582.767 855.685,587.967 871.915,587.967 871.915,582.767 888.546,582.767 888.546,587.967 904.777,587.967 904.777,582.767 921.408,582.767 921.408,587.967 937.638,587.967 937.638,582.767 954.269,582.767 954.269,587.967 965.5,587.967 965.5,602.017 954.269,602.017 954.269,607.217 937.638,607.217 937.638,602.017 921.408,602.017 921.408,607.217 904.777,607.217 904.777,602.017 888.546,602.017 888.546,607.217 871.915,607.217 871.915,602.017 855.685,602.017 855.685,607.217 839.054,607.217 839.054,602.017 822.823,602.017 822.823,607.217 806.192,607.217 806.192,602.017 789.962,602.017 789.962,607.217 773.331,607.217 773.331,602.017 762.1,602.017 762.1,587.967"
     fill="none"
     stroke="#000000"
     stroke-width="0.1mm"
     id="polyline16"
     transform="rotate(90,813.37421,401.45841)"
     style="vector-effect:non-scaling-stroke;fill:none;stroke:#000000;stroke-width:0.264583;stroke-dasharray:none;stroke-opacity:1;-inkscape-stroke:hairline" />
  <polyline
     z="0"
     points="334.5,607.217 334.5,594.087 339.7,594.087 339.7,581.357 334.5,581.357 334.5,568.227 339.7,568.227 339.7,555.497 334.5,555.497 334.5,542.367 350.931,542.367 350.931,537.167 367.562,537.167 367.562,542.367 383.792,542.367 383.792,537.167 400.423,537.167 400.423,542.367 416.654,542.367 416.654,537.167 433.285,537.167 433.285,542.367 449.515,542.367 449.515,537.167 466.146,537.167 466.146,542.367 482.377,542.367 482.377,537.167 499.008,537.167 499.008,542.367 515.238,542.367 515.238,537.167 531.869,537.167 531.869,542.367 548.3,542.367 548.3,555.497 543.1,555.497 543.1,568.227 548.3,568.227 548.3,581.357 543.1,581.357 543.1,594.087 548.3,594.087 548.3,607.217 531.669,607.217 531.669,602.017 515.438,602.017 515.438,607.217 498.808,607.217 498.808,602.017 482.577,602.017 482.577,607.217 465.946,607.217 465.946,602.017 449.715,602.017 449.715,607.217 433.085,607.217 433.085,602.017 416.854,602.017 416.854,607.217 400.223,607.217 400.223,602.017 383.992,602.017 383.992,607.217 367.362,607.217 367.362,602.017 351.131,602.017 351.131,607.217 334.5,607.217"
     fill="none"
     stroke="#000000"
     stroke-width="0.1mm"
     id="polyline1-6"
     transform="matrix(0,1,1,0,94.89862,-203.31619)"
     style="vector-effect:non-scaling-stroke;fill:none;stroke:#000000;stroke-width:0.264583;stroke-dasharray:none;stroke-opacity:1;-inkscape-stroke:hairline" />
  <path
     id="polyline2-4"
     style="vector-effect:non-scaling-stroke;fill:none;stroke:#000000;stroke-width:0.264583;stroke-dasharray:none;stroke-opacity:1;-inkscape-stroke:hairline"
     d="m 702.11551,131.18367 v 16.63103 h 5.2002 v 16.23105 h -5.2002 v 16.62999 h 5.2002 v 16.23106 h -5.2002 v 16.63102 h 5.2002 v 16.23105 h -5.2002 v 16.62999 h 5.2002 v 16.23106 h -5.2002 v 16.63102 h 5.2002 v 16.23105 h -5.2002 v 16.62999 h 5.2002 v 16.23106 h -5.2002 v 16.63102 h 12.64419 v -5.2002 h 12.24473 v 5.2002 h 12.64419 v -5.2002 h 12.24525 v 5.2002 h 12.64367 v -5.2002 h 12.24525 v 5.2002 h 12.64367 v -5.2002 h 12.24525 v 5.2002 h 12.64367 v -16.63102 h -5.19968 v -16.23106 h 5.19968 v -16.62999 h -5.19968 v -16.23105 h 5.19968 v -16.63102 h -5.19968 v -16.23106 h 5.19968 v -16.62999 h -5.19968 v -16.23105 h 5.19968 V 196.9068 h -5.19968 v -16.23106 h 5.19968 V 164.04575 H 809.1157 V 147.8147 h 5.19968 v -16.63103 h -12.64367 v 5.2002 h -12.24525 v -5.2002 h -12.64367 v 5.2002 h -12.24525 v -5.2002 h -12.64367 v 5.2002 h -12.24525 v -5.2002 h -12.64419 v 5.2002 H 714.7597 v -5.2002 z m 21.46691,69.66707 h 15.86621 v 5.00021 h -15.86621 z m 53.40036,0 h 15.8657 v 5.00021 h -15.8657 z m -53.40036,69.46604 h 15.86621 v 5.00022 h -15.86621 z m 53.40036,0 h 15.8657 v 5.00022 h -15.8657 z" />
  <polyline
     z="0"
     points="678.075,462.761 694.506,462.761 694.506,457.561 711.137,457.561 711.137,462.761 727.367,462.761 727.367,457.561 743.998,457.561 743.998,462.761 760.229,462.761 760.229,457.561 776.86,457.561 776.86,462.761 793.09,462.761 793.09,457.561 809.721,457.561 809.721,462.761 825.952,462.761 825.952,457.561 842.583,457.561 842.583,462.761 858.813,462.761 858.813,457.561 875.444,457.561 875.444,462.761 891.875,462.761 891.875,472.961 886.675,472.961 886.675,482.761 891.875,482.761 891.875,492.961 678.075,492.961 678.075,482.761 683.275,482.761 683.275,472.961 678.075,472.961 678.075,462.761"
     fill="none"
     stroke="#000000"
     stroke-width="0.1mm"
     id="polyline13-3"
     transform="rotate(90,806.03391,259.14272)"
     style="vector-effect:non-scaling-stroke;fill:none;stroke:#000000;stroke-width:0.264583;stroke-dasharray:none;stroke-opacity:1;-inkscape-stroke:hairline" />
  <polyline
     z="0"
     points="678.075,492.961 891.875,492.961 891.875,507.83 886.675,507.83 886.675,522.298 891.875,522.298 891.875,537.167 875.244,537.167 875.244,531.967 859.013,531.967 859.013,537.167 842.383,537.167 842.383,531.967 826.152,531.967 826.152,537.167 809.521,537.167 809.521,531.967 793.29,531.967 793.29,537.167 776.66,537.167 776.66,531.967 760.429,531.967 760.429,537.167 743.798,537.167 743.798,531.967 727.567,531.967 727.567,537.167 710.937,537.167 710.937,531.967 694.706,531.967 694.706,537.167 678.075,537.167 678.075,522.298 683.275,522.298 683.275,507.83 678.075,507.83 678.075,492.961"
     fill="none"
     stroke="#000000"
     stroke-width="0.1mm"
     id="polyline14-3"
     transform="rotate(90,784.87141,237.98021)"
     style="vector-effect:non-scaling-stroke;fill:none;stroke:#000000;stroke-width:0.264583;stroke-dasharray:none;stroke-opacity:1;-inkscape-stroke:hairline" />
  <polyline
     z="0"
     points="687.433,564.892 687.433,585.955 692.433,585.955 692.433,564.892 762.1,564.892 762.1,579.134 756.9,579.134 756.9,592.976 762.1,592.976 762.1,607.217 548.3,607.217 548.3,592.976 553.5,592.976 553.5,579.134 548.3,579.134 548.3,564.892 617.967,564.892 617.967,585.955 622.967,585.955 622.967,564.892 687.433,564.892"
     fill="none"
     stroke="#000000"
     stroke-width="0.1mm"
     id="polyline15-3"
     transform="rotate(90,777.11191,359.99572)"
     style="vector-effect:non-scaling-stroke;fill:none;stroke:#000000;stroke-width:0.264583;stroke-dasharray:none;stroke-opacity:1;-inkscape-stroke:hairline" />
  <polyline
     z="0"
     points="762.1,587.967 773.331,587.967 773.331,582.767 789.962,582.767 789.962,587.967 806.192,587.967 806.192,582.767 822.823,582.767 822.823,587.967 839.054,587.967 839.054,582.767 855.685,582.767 855.685,587.967 871.915,587.967 871.915,582.767 888.546,582.767 888.546,587.967 904.777,587.967 904.777,582.767 921.408,582.767 921.408,587.967 937.638,587.967 937.638,582.767 954.269,582.767 954.269,587.967 965.5,587.967 965.5,602.017 954.269,602.017 954.269,607.217 937.638,607.217 937.638,602.017 921.408,602.017 921.408,607.217 904.777,607.217 904.777,602.017 888.546,602.017 888.546,607.217 871.915,607.217 871.915,602.017 855.685,602.017 855.685,607.217 839.054,607.217 839.054,602.017 822.823,602.017 822.823,607.217 806.192,607.217 806.192,602.017 789.962,602.017 789.962,607.217 773.331,607.217 773.331,602.017 762.1,602.017 762.1,587.967"
     fill="none"
     stroke="#000000"
     stroke-width="0.1mm"
     id="polyline16-8"
     transform="rotate(90,920.27441,294.55822)"
     style="vector-effect:non-scaling-stroke;fill:none;stroke:#000000;stroke-width:0.264583;stroke-dasharray:none;stroke-opacity:1;-inkscape-stroke:hairline" />
</svg>
