<!--
Cleat Wall Organization Equipment
Copyright (C) 2025  Corporate Hacks

This program is free software: you can redistribute it and/or modify
it under the terms of the GNU General Public License as published by
the Free Software Foundation, either version 3 of the License, or
(at your option) any later version.

This program is distributed in the hope that it will be useful,
but WITHOUT ANY WARRANTY; without even the implied warranty of
MERCHANTABILITY or FITNESS FOR A PARTICULAR PURPOSE.  See the
GNU General Public License for more details.

You should have received a copy of the GNU General Public License
along with this program.  If not, see <http://www.gnu.org/licenses/>.
-->

<svg xmlns="http://www.w3.org/2000/svg" width="1300mm" height="900mm" viewBox="0 0 1300 900">
    <path fill="none" stroke="#000" stroke-width=".1mm" d="M334.5 607.217v-13.13h5.2v-12.73h-5.2v-13.13h5.2v-12.73h-5.2v-13.13h16.431v-5.2h16.631v5.2h16.23v-5.2h16.631v5.2h16.231v-5.2h16.631v5.2h16.23v-5.2h16.631v5.2h16.231v-5.2h16.631v5.2h16.23v-5.2h16.631v5.2H548.3v13.13h-5.2v12.73h5.2v13.13h-5.2v12.73h5.2v13.13h-16.631v-5.2h-16.231v5.2h-16.63v-5.2h-16.231v5.2h-16.631v-5.2h-16.231v5.2h-16.63v-5.2h-16.231v5.2h-16.631v-5.2h-16.231v5.2h-16.63v-5.2h-16.231v5.2H334.5" style="vector-effect:non-scaling-stroke;fill:none;stroke:#000;stroke-width:.264583;stroke-dasharray:none;stroke-opacity:1;-inkscape-stroke:hairline" transform="matrix(0 1 1 0 94.899 10.484)"/>
    <path d="M702.116 344.984v16.631h5.2v16.231h-5.2v16.63h5.2v16.231h-5.2v16.631h5.2v16.231h-5.2v16.63h5.2v16.231h-5.2v16.631h5.2v16.231h-5.2v16.63h5.2v16.231h-5.2v16.631h12.644v-5.2h12.244v5.2h12.645v-5.2h12.245v5.2h12.644v-5.2h12.245v5.2h12.643v-5.2h12.246v5.2h12.643v-16.63h-5.2v-16.232h5.2v-16.63h-5.2v-16.23h5.2V476.43h-5.2V460.2h5.2v-16.63h-5.2v-16.232h5.2v-16.63h-5.2v-16.232h5.2v-16.63h-5.2v-16.23h5.2v-16.632h-12.643v5.2h-12.246v-5.2h-12.643v5.2h-12.245v-5.2h-12.644v5.2h-12.245v-5.2h-12.645v5.2H714.76v-5.2zm21.466 69.667h15.867v5h-15.867zm53.4 0h15.866v5h-15.865zm-53.4 69.466h15.867v5h-15.867zm53.4 0h15.866v5h-15.865zM724.597 601.982 617.065 636.87h5.732v9.8h-5.2v10.2h5.2v10h7.244v5.2h12.645v-5.2h12.244v5.2h12.645v-5.2h3.622v-14.042h5v14.042h3.622v5.2h12.645v-5.2h12.244v5.2h12.645v-5.2h7.244v-12.93h5.2v-13.13h-5.2v-12.73h5v5.832l14.322 14.322 5.33-2.208h-5.602v-14.469h5.2v-14.868h-5.2v-14.67h-14.05v12.93h-5zm-53.4 22.762h5v13.842h-5zM498.661 558.784v5.2h-7.244v10h-5.2v10.2h5.2v9.8h-5.732l107.532 34.888v-12.968h5v12.93h14.05v-14.669h5.2v-14.868h-5.2v-14.469h5.602l-5.33-2.208-14.322 14.323v5.831h-5v-12.73h5.2v-13.13h-5.2v-12.93h-7.244v-5.2h-12.645v5.2h-12.244v-5.2h-12.645v5.2h-3.622v14.042h-5v-14.042h-3.622v-5.2H523.55v5.2h-12.244v-5.2zm41.156 33.483h5v13.842h-5z" style="vector-effect:non-scaling-stroke;fill:none;stroke:#000;stroke-width:.264583;stroke-dasharray:none;stroke-opacity:1;-inkscape-stroke:hairline"/>
    <path fill="none" stroke="#000" stroke-width=".1mm" d="M553.5 435.367h59.688l-15.703 48.4h-22.722v5h21.1l-15.703 48.4H553.5V521.1h-5.2v-16.266h5.2V467.7h-5.2v-16.266h5.2v-16.067" style="vector-effect:non-scaling-stroke;fill:none;stroke:#000;stroke-width:.264583;stroke-dasharray:none;stroke-opacity:1;-inkscape-stroke:hairline" transform="rotate(90 500.733 623.918)"/>
    <path fill="none" stroke="#000" stroke-width=".1mm" d="M613.188 435.367h59.687v16.067h5.2V467.7h-5.2v37.134h5.2V521.1h-5.2v16.067h-26.66l-15.702-48.4h21.099v-5H628.89l-15.702-48.4" style="vector-effect:non-scaling-stroke;fill:none;stroke:#000;stroke-width:.264583;stroke-dasharray:none;stroke-opacity:1;-inkscape-stroke:hairline" transform="rotate(90 466.055 556.796)"/>
    <path d="m510.336 601.983 107.533 34.886h-5.733v9.8h5.2v10.2h-5.2v10h-7.244v5.2h-12.644v-5.2h-12.245v5.2H567.36v-5.2h-3.622v-14.041h-5v14.042h-3.623v5.2H542.47v-5.2h-12.244v5.2H517.58v-5.2h-7.244v-12.93h-5.2v-13.13h5.2v-12.73h-5v5.831l-14.321 14.323-5.33-2.209h5.601v-14.468h-5.2v-14.868h5.2v-14.67h14.05v12.93h5zm53.4 22.762h-5v13.842h5zM736.272 558.784v5.2h7.244v10h5.2v10.2h-5.2v9.8h5.733l-107.533 34.888v-12.968h-5v12.93h-14.05v-14.669h-5.2v-14.868h5.2v-14.469h-5.601l5.33-2.208 14.322 14.323v5.831h5v-12.73h-5.2v-13.13h5.2v-12.93h7.243v-5.2h12.646v5.2h12.244v-5.2h12.645v5.2h3.622v14.042h5v-14.042h3.622v-5.2h12.645v5.2h12.244v-5.2zm-41.155 33.483h-5v13.842h5z" style="vector-effect:non-scaling-stroke;fill:none;stroke:#000;stroke-width:.264583;stroke-dasharray:none;stroke-opacity:1;-inkscape-stroke:hairline"/>
    <path fill="none" stroke="#000" stroke-width=".1mm" d="M553.5 435.367h59.688l-15.703 48.4h-22.722v5h21.1l-15.703 48.4H553.5V521.1h-5.2v-16.266h5.2V467.7h-5.2v-16.266h5.2v-16.067" style="vector-effect:non-scaling-stroke;fill:none;stroke:#000;stroke-width:.264583;stroke-dasharray:none;stroke-opacity:1;-inkscape-stroke:hairline" transform="matrix(0 1 1 0 50.318 123.77)"/>
    <path fill="none" stroke="#000" stroke-width=".1mm" d="M613.188 435.367h59.687v16.067h5.2V467.7h-5.2v37.134h5.2V521.1h-5.2v16.067h-26.66l-15.702-48.4h21.099v-5H628.89l-15.702-48.4" style="vector-effect:non-scaling-stroke;fill:none;stroke:#000;stroke-width:.264583;stroke-dasharray:none;stroke-opacity:1;-inkscape-stroke:hairline" transform="matrix(0 1 1 0 152.118 90.741)"/>
    <path fill="none" stroke="#000" stroke-width=".1mm" d="M678.075 462.761h16.431v-5.2h16.631v5.2h16.23v-5.2h16.631v5.2h16.231v-5.2h16.631v5.2h16.23v-5.2h16.631v5.2h16.231v-5.2h16.631v5.2h16.23v-5.2h16.631v5.2h16.431v10.2h-5.2v9.8h5.2v10.2h-213.8v-10.2h5.2v-9.8h-5.2v-10.2" style="vector-effect:non-scaling-stroke;fill:none;stroke:#000;stroke-width:.264583;stroke-dasharray:none;stroke-opacity:1;-inkscape-stroke:hairline" transform="rotate(90 699.134 366.043)"/>
    <path fill="none" stroke="#000" stroke-width=".1mm" d="M678.075 492.961h213.8v14.869h-5.2v14.468h5.2v14.869h-16.631v-5.2h-16.231v5.2h-16.63v-5.2h-16.231v5.2h-16.631v-5.2H793.29v5.2h-16.63v-5.2h-16.231v5.2h-16.631v-5.2h-16.231v5.2h-16.63v-5.2h-16.231v5.2h-16.631v-14.869h5.2V507.83h-5.2v-14.869" style="vector-effect:non-scaling-stroke;fill:none;stroke:#000;stroke-width:.264583;stroke-dasharray:none;stroke-opacity:1;-inkscape-stroke:hairline" transform="rotate(90 677.971 344.88)"/>
    <path fill="none" stroke="#000" stroke-width=".1mm" d="M687.433 564.892v21.063h5v-21.063H762.1v14.242h-5.2v13.842h5.2v14.241H548.3v-14.241h5.2v-13.842h-5.2v-14.242h69.667v21.063h5v-21.063h64.466" style="vector-effect:non-scaling-stroke;fill:none;stroke:#000;stroke-width:.264583;stroke-dasharray:none;stroke-opacity:1;-inkscape-stroke:hairline" transform="rotate(90 670.212 466.896)"/>
    <path fill="none" stroke="#000" stroke-width=".1mm" d="M762.1 587.967h11.231v-5.2h16.631v5.2h16.23v-5.2h16.631v5.2h16.231v-5.2h16.631v5.2h16.23v-5.2h16.631v5.2h16.231v-5.2h16.631v5.2h16.23v-5.2h16.631v5.2H965.5v14.05h-11.231v5.2h-16.631v-5.2h-16.23v5.2h-16.631v-5.2h-16.231v5.2h-16.631v-5.2h-16.23v5.2h-16.631v-5.2h-16.231v5.2h-16.631v-5.2h-16.23v5.2h-16.631v-5.2H762.1v-14.05" style="vector-effect:non-scaling-stroke;fill:none;stroke:#000;stroke-width:.264583;stroke-dasharray:none;stroke-opacity:1;-inkscape-stroke:hairline" transform="rotate(90 813.374 401.458)"/>
    <path fill="none" stroke="#000" stroke-width=".1mm" d="M334.5 607.217v-13.13h5.2v-12.73h-5.2v-13.13h5.2v-12.73h-5.2v-13.13h16.431v-5.2h16.631v5.2h16.23v-5.2h16.631v5.2h16.231v-5.2h16.631v5.2h16.23v-5.2h16.631v5.2h16.231v-5.2h16.631v5.2h16.23v-5.2h16.631v5.2H548.3v13.13h-5.2v12.73h5.2v13.13h-5.2v12.73h5.2v13.13h-16.631v-5.2h-16.231v5.2h-16.63v-5.2h-16.231v5.2h-16.631v-5.2h-16.231v5.2h-16.63v-5.2h-16.231v5.2h-16.631v-5.2h-16.231v5.2h-16.63v-5.2h-16.231v5.2H334.5" style="vector-effect:non-scaling-stroke;fill:none;stroke:#000;stroke-width:.264583;stroke-dasharray:none;stroke-opacity:1;-inkscape-stroke:hairline" transform="matrix(0 1 1 0 94.899 -203.316)"/>
    <path d="M702.116 131.184v16.63h5.2v16.232h-5.2v16.63h5.2v16.23h-5.2v16.632h5.2v16.23h-5.2v16.63h5.2v16.232h-5.2v16.63h5.2v16.232h-5.2v16.63h5.2v16.231h-5.2v16.631h12.644v-5.2h12.244v5.2h12.645v-5.2h12.245v5.2h12.644v-5.2h12.245v5.2h12.643v-5.2h12.246v5.2h12.643v-16.631h-5.2v-16.231h5.2v-16.63h-5.2v-16.231h5.2V262.63h-5.2v-16.231h5.2v-16.63h-5.2v-16.231h5.2v-16.631h-5.2v-16.231h5.2v-16.63h-5.2v-16.231h5.2v-16.631h-12.643v5.2h-12.246v-5.2h-12.643v5.2h-12.245v-5.2h-12.644v5.2h-12.245v-5.2h-12.645v5.2H714.76v-5.2zm21.466 69.667h15.867v5h-15.867zm53.4 0h15.866v5h-15.865zm-53.4 69.466h15.867v5h-15.867zm53.4 0h15.866v5h-15.865z" style="vector-effect:non-scaling-stroke;fill:none;stroke:#000;stroke-width:.264583;stroke-dasharray:none;stroke-opacity:1;-inkscape-stroke:hairline"/>
    <path fill="none" stroke="#000" stroke-width=".1mm" d="M678.075 462.761h16.431v-5.2h16.631v5.2h16.23v-5.2h16.631v5.2h16.231v-5.2h16.631v5.2h16.23v-5.2h16.631v5.2h16.231v-5.2h16.631v5.2h16.23v-5.2h16.631v5.2h16.431v10.2h-5.2v9.8h5.2v10.2h-213.8v-10.2h5.2v-9.8h-5.2v-10.2" style="vector-effect:non-scaling-stroke;fill:none;stroke:#000;stroke-width:.264583;stroke-dasharray:none;stroke-opacity:1;-inkscape-stroke:hairline" transform="rotate(90 806.034 259.143)"/>
    <path fill="none" stroke="#000" stroke-width=".1mm" d="M678.075 492.961h213.8v14.869h-5.2v14.468h5.2v14.869h-16.631v-5.2h-16.231v5.2h-16.63v-5.2h-16.231v5.2h-16.631v-5.2H793.29v5.2h-16.63v-5.2h-16.231v5.2h-16.631v-5.2h-16.231v5.2h-16.63v-5.2h-16.231v5.2h-16.631v-14.869h5.2V507.83h-5.2v-14.869" style="vector-effect:non-scaling-stroke;fill:none;stroke:#000;stroke-width:.264583;stroke-dasharray:none;stroke-opacity:1;-inkscape-stroke:hairline" transform="rotate(90 784.871 237.98)"/>
    <path fill="none" stroke="#000" stroke-width=".1mm" d="M687.433 564.892v21.063h5v-21.063H762.1v14.242h-5.2v13.842h5.2v14.241H548.3v-14.241h5.2v-13.842h-5.2v-14.242h69.667v21.063h5v-21.063h64.466" style="vector-effect:non-scaling-stroke;fill:none;stroke:#000;stroke-width:.264583;stroke-dasharray:none;stroke-opacity:1;-inkscape-stroke:hairline" transform="rotate(90 777.112 359.996)"/>
    <path fill="none" stroke="#000" stroke-width=".1mm" d="M762.1 587.967h11.231v-5.2h16.631v5.2h16.23v-5.2h16.631v5.2h16.231v-5.2h16.631v5.2h16.23v-5.2h16.631v5.2h16.231v-5.2h16.631v5.2h16.23v-5.2h16.631v5.2H965.5v14.05h-11.231v5.2h-16.631v-5.2h-16.23v5.2h-16.631v-5.2h-16.231v5.2h-16.631v-5.2h-16.23v5.2h-16.631v-5.2h-16.231v5.2h-16.631v-5.2h-16.23v5.2h-16.631v-5.2H762.1v-14.05" style="vector-effect:non-scaling-stroke;fill:none;stroke:#000;stroke-width:.264583;stroke-dasharray:none;stroke-opacity:1;-inkscape-stroke:hairline" transform="rotate(90 920.274 294.558)"/>
</svg>
