Cleat Wall Organization Equipment
Copyright (C) 2025  Corporate Hacks

This program is free software: you can redistribute it and/or modify
it under the terms of the GNU General Public License as published by
the Free Software Foundation, either version 3 of the License, or
(at your option) any later version.

This program is distributed in the hope that it will be useful,
but WITHOUT ANY WARRANTY; without even the implied warranty of
MERCHANTABILITY or FITNESS FOR A PARTICULAR PURPOSE.  See the
GNU General Public License for more details.

You should have received a copy of the GNU General Public License
along with this program.  If not, see <http://www.gnu.org/licenses/>.


<svg xmlns="http://www.w3.org/2000/svg" width="1300mm" height="900mm" viewBox="0 0 1300 900">
    <path fill="none" stroke="#000" stroke-width=".1mm" d="M377 485.001h8.792v-5.2h8.666v5.2h8.267v-5.2h8.667v5.2h8.266v-5.2h8.667v5.2h8.267v-5.2h8.666v5.2h8.267v-5.058l-14.264-14.264 2.208-5.33v5.602h7.561v-5.2h7.961v5.2h7.562v-5.2h7.961v5.2h7.761v2.633h5.2v8.034h-5.2v7.633h5.2v8.033h-5.2v7.634h5.2v8.033h-5.2v7.633h5.2v8.034h-5.2v7.833h-10.124L377 485.001" style="vector-effect:non-scaling-stroke;stroke-width:.264583;stroke-dasharray:none;-inkscape-stroke:hairline" transform="matrix(0 1 1 0 257.453 137.76)"/>
    <path fill="none" stroke="#000" stroke-width=".1mm" d="M485.475 468.584h5.2v-2.633h7.761v-5.2h7.961v5.2h7.562v-5.2h7.961v5.2h7.561v-5.602l2.208 5.33-14.264 14.264v5.058h8.267v-5.2h8.666v5.2h8.267v-5.2h8.667v5.2h8.266v-5.2h8.667v5.2h8.267v-5.2h8.666v5.2h8.791l-93.151 46.45h-10.123v-7.833h-5.2v-8.034h5.2v-7.633h-5.2v-8.033h5.2v-7.634h-5.2v-8.033h5.2v-7.633h-5.2v-8.034" style="vector-effect:non-scaling-stroke;stroke-width:.264583;stroke-dasharray:none;-inkscape-stroke:hairline" transform="matrix(0 1 1 0 257.453 -208.71)"/>
    <path fill="none" stroke="#000" stroke-width=".1mm" d="M377 485.001h8.792v-5.2h8.666v5.2h8.267v-5.2h8.667v5.2h8.266v-5.2h8.667v5.2h8.267v-5.2h8.666v5.2h8.267v-5.058l-14.264-14.264 2.208-5.33v5.602h7.561v-5.2h7.961v5.2h7.562v-5.2h7.961v5.2h7.761v2.633h5.2v8.034h-5.2v7.633h5.2v8.033h-5.2v7.634h5.2v8.033h-5.2v7.633h5.2v8.034h-5.2v7.833h-10.124L377 485.001M485.475 468.584h5.2v-2.633h7.761v-5.2h7.961v5.2h7.562v-5.2h7.961v5.2h7.561v-5.602l2.208 5.33-14.264 14.264v5.058h8.267v-5.2h8.666v5.2h8.267v-5.2h8.667v5.2h8.266v-5.2h8.667v5.2h8.267v-5.2h8.666v5.2h8.791l-93.151 46.45h-10.123v-7.833h-5.2v-8.034h5.2v-7.633h-5.2v-8.033h5.2v-7.634h-5.2v-8.033h5.2v-7.633h-5.2v-8.034" style="vector-effect:non-scaling-stroke;stroke-width:.264583;stroke-dasharray:none;-inkscape-stroke:hairline" transform="rotate(90 642.364 606.889)"/>
    <path fill="none" stroke="#000" stroke-width=".1mm" d="M389.987 460.349v-5.2H377v-10.2h262.6v10.2h-12.987v5.2h-18.386v-5.2H590.24v5.2h-18.387v-5.2h-17.986v5.2H535.48v-5.2h-17.987v5.2h-18.386v-5.2H481.12v5.2h-18.387v-5.2h-17.986v5.2H426.36v-5.2h-17.987v5.2h-18.386" style="vector-effect:non-scaling-stroke;stroke-width:.264583;stroke-dasharray:none;-inkscape-stroke:hairline" transform="matrix(0 1 1 0 257.453 -194.8)"/>
    <path fill="none" stroke="#000" stroke-width=".1mm" d="M377 444.949v-8.667h5.2v-8.266H377v-8.667h5.2v-8.267H377v-8.666h5.2v-8.267H377v-8.667h5.2v-8.266H377v-8.667h273v8.667h-5.2v8.266h5.2v8.667h-5.2v8.267h5.2v8.666h-5.2v8.267h5.2v8.667h-5.2v8.266h5.2v8.667H377" style="vector-effect:non-scaling-stroke;stroke-width:.264583;stroke-dasharray:none;-inkscape-stroke:hairline" transform="rotate(90 635.475 435.475)"/>
    <path d="m551.037 407.2 6.293 10.9-6.293 10.9H538.45l-6.292-10.9 6.292-10.9h12.587m0-42 6.293 10.9-6.293 10.9H538.45l-6.292-10.9 6.292-10.9h12.587m0-42 6.293 10.9-6.293 10.9H538.45l-6.292-10.9 6.292-10.9h12.587m0-42 6.293 10.9-6.293 10.9H538.45l-6.292-10.9 6.292-10.9h12.587m0-42 6.293 10.9-6.293 10.9H538.45l-6.292-10.9 6.292-10.9h12.587m0-42 6.293 10.9-6.293 10.9H538.45l-6.292-10.9 6.292-10.9h12.587m22.726-20.2h8.033v18.387h-5.2v17.986h5.2v18.387h-5.2v17.987h5.2v18.386h-5.2v17.987h5.2v18.387h-5.2v17.986h5.2v18.387h-5.2v17.987h5.2v18.386h-5.2v17.987h5.2v18.387h-5.2v17.986h5.2V450h-8.033v-5.2h-7.634v5.2h-8.033v-5.2h-7.633v5.2h-8.034v-5.2h-7.633v5.2h-8.033v-5.2h-7.634v5.2h-8.033v-18.387h5.2v-17.986h-5.2V395.24h5.2v-17.987h-5.2v-18.386h5.2V340.88h-5.2v-18.387h5.2v-17.986h-5.2V286.12h5.2v-17.987h-5.2v-18.386h5.2V231.76h-5.2v-18.387h5.2v-17.986h-5.2V177h8.033v5.2h7.634V177h8.033v5.2h7.633V177h8.034v5.2h7.633V177h8.033v5.2h7.634V177" style="vector-effect:non-scaling-stroke;fill:none;stroke:#000;stroke-width:.264583;-inkscape-stroke:hairline"/>
    <path fill="none" stroke="#000" stroke-width=".1mm" d="M832.067 444.949H813.68v-5.2h-17.987v5.2h-18.386v-5.2H759.32v5.2h-18.387v-5.2h-17.986v5.2H704.56v-5.2h-17.987v5.2h-18.386v-5.2H650v-7.961h5.2v-7.561H650v-7.962h5.2v-7.561H650v-7.961h273v7.961h-5.2v7.561h5.2v7.962h-5.2v7.561h5.2v7.961h-18.187v5.2h-18.386v-5.2H868.44v5.2h-18.387v-5.2h-17.986v5.2" style="vector-effect:non-scaling-stroke;stroke-width:.264583;stroke-dasharray:none;-inkscape-stroke:hairline" transform="rotate(90 749.872 276.872)"/>
    <path fill="none" stroke="#000" stroke-width=".1mm" d="M389.987 460.349v-5.2H377v-10.2h262.6v10.2h-12.987v5.2h-18.386v-5.2H590.24v5.2h-18.387v-5.2h-17.986v5.2H535.48v-5.2h-17.987v5.2h-18.386v-5.2H481.12v5.2h-18.387v-5.2h-17.986v5.2H426.36v-5.2h-17.987v5.2h-18.386" style="vector-effect:non-scaling-stroke;stroke-width:.264583;stroke-dasharray:none;-inkscape-stroke:hairline" transform="matrix(0 1 1 0 257.453 78.2)"/>
    <path fill="none" stroke="#000" stroke-width=".1mm" d="M377 444.949v-8.667h5.2v-8.266H377v-8.667h5.2v-8.267H377v-8.666h5.2v-8.267H377v-8.667h5.2v-8.266H377v-8.667h273v8.667h-5.2v8.266h5.2v8.667h-5.2v8.267h5.2v8.666h-5.2v8.267h5.2v8.667h-5.2v8.266h5.2v8.667H377" style="vector-effect:non-scaling-stroke;stroke-width:.264583;stroke-dasharray:none;-inkscape-stroke:hairline" transform="rotate(90 498.975 571.975)"/>
    <path d="m551.037 680.2 6.293 10.9-6.293 10.9H538.45l-6.292-10.9 6.292-10.9h12.587m0-42 6.293 10.9-6.293 10.9H538.45l-6.292-10.9 6.292-10.9h12.587m0-42 6.293 10.9-6.293 10.9H538.45l-6.292-10.9 6.292-10.9h12.587m0-42 6.293 10.9-6.293 10.9H538.45l-6.292-10.9 6.292-10.9h12.587m0-42 6.293 10.9-6.293 10.9H538.45l-6.292-10.9 6.292-10.9h12.587m0-42 6.293 10.9-6.293 10.9H538.45l-6.292-10.9 6.292-10.9h12.587m22.726-20.2h8.033v18.387h-5.2v17.986h5.2v18.387h-5.2v17.987h5.2v18.386h-5.2v17.987h5.2v18.387h-5.2v17.986h5.2v18.387h-5.2v17.987h5.2v18.386h-5.2v17.987h5.2v18.387h-5.2v17.986h5.2V723h-8.033v-5.2h-7.634v5.2h-8.033v-5.2h-7.633v5.2h-8.034v-5.2h-7.633v5.2h-8.033v-5.2h-7.634v5.2h-8.033v-18.387h5.2v-17.986h-5.2V668.24h5.2v-17.987h-5.2v-18.386h5.2V613.88h-5.2v-18.387h5.2v-17.986h-5.2V559.12h5.2v-17.987h-5.2v-18.386h5.2V504.76h-5.2v-18.387h5.2v-17.986h-5.2V450h8.033v5.2h7.634V450h8.033v5.2h7.633V450h8.034v5.2h7.633V450h8.033v5.2h7.634V450" style="vector-effect:non-scaling-stroke;fill:none;stroke:#000;stroke-width:.264583;-inkscape-stroke:hairline"/>
    <path fill="none" stroke="#000" stroke-width=".1mm" d="M832.067 444.949H813.68v-5.2h-17.987v5.2h-18.386v-5.2H759.32v5.2h-18.387v-5.2h-17.986v5.2H704.56v-5.2h-17.987v5.2h-18.386v-5.2H650v-7.961h5.2v-7.561H650v-7.962h5.2v-7.561H650v-7.961h273v7.961h-5.2v7.561h5.2v7.962h-5.2v7.561h5.2v7.961h-18.187v5.2h-18.386v-5.2H868.44v5.2h-18.387v-5.2h-17.986v5.2" style="vector-effect:non-scaling-stroke;stroke-width:.264583;stroke-dasharray:none;-inkscape-stroke:hairline" transform="rotate(90 613.372 413.372)"/>
</svg>
