<!--
Cleat Wall Organization Equipment
Copyright (C) 2025  Corporate Hacks

This program is free software: you can redistribute it and/or modify
it under the terms of the GNU General Public License as published by
the Free Software Foundation, either version 3 of the License, or
(at your option) any later version.

This program is distributed in the hope that it will be useful,
but WITHOUT ANY WARRANTY; without even the implied warranty of
MERCHANTABILITY or FITNESS FOR A PARTICULAR PURPOSE.  See the
GNU General Public License for more details.

You should have received a copy of the GNU General Public License
along with this program.  If not, see <http://www.gnu.org/licenses/>.
-->

<svg xmlns="http://www.w3.org/2000/svg" width="1300mm" height="900mm" viewBox="0 0 1300 900">
    <path fill="none" stroke="#000" stroke-width=".1mm" d="M461.5 551.166v-8.083h-5.2v-8.284h5.2v-8.083h12.814v5.2h17.615v-5.2h18.014v5.2h17.614v-5.2h18.014v5.2h17.615v-5h-15.902l-14.323-14.322 2.208-5.33v5.602h18.445v-5.2h18.845v5.2h8.741v44.553l-.031.629-.093.627-.153.613-.214.597-.271.572-.325.543-.377.508-.425.469-.469.426-.508.377-.544.325-.572.271-.596.213-.614.154-.626.092-.63.031h-21.943l-6.504-.277-6.458-.832-6.361-1.378-29.518-7.73-6.349-1.376-6.442-.83-6.49-.277H461.5" style="vector-effect:non-scaling-stroke;stroke-width:.264583;stroke-dasharray:none;-inkscape-stroke:hairline" transform="rotate(90 722.821 591.614)"/>
    <path fill="none" stroke="#000" stroke-width=".1mm" d="M581.2 512.866h8.741v-5.2h18.845v5.2h18.445v-5.602l2.208 5.33-14.323 14.322h-15.902v5h17.615v-5.2h18.014v5.2h17.614v-5.2h18.014v5.2h17.615v-5.2H700.9v8.083h5.2v8.284h-5.2v8.083h-23.187l-6.49.277-6.442.83-6.349 1.376-29.518 7.73-6.361 1.378-6.458.832-6.504.277h-21.943l-.63-.031-.626-.092-.614-.154-.596-.213-.572-.271-.544-.325-.508-.377-.469-.426-.425-.469-.377-.508-.325-.543-.271-.572-.214-.597-.153-.613-.093-.627-.031-.629v-44.553" style="vector-effect:non-scaling-stroke;stroke-width:.264583;stroke-dasharray:none;-inkscape-stroke:hairline" transform="rotate(90 722.821 591.614)"/>
    <path fill="none" stroke="#000" stroke-width=".1mm" d="M461.5 551.166v-8.083h-5.2v-8.284h5.2v-8.083h12.814v5.2h17.615v-5.2h18.014v5.2h17.614v-5.2h18.014v5.2h17.615v-5h-15.902l-14.323-14.322 2.208-5.33v5.602h18.445v-5.2h18.845v5.2h8.741v44.553l-.031.629-.093.627-.153.613-.214.597-.271.572-.325.543-.377.508-.425.469-.469.426-.508.377-.544.325-.572.271-.596.213-.614.154-.626.092-.63.031h-21.943l-6.504-.277-6.458-.832-6.361-1.378-29.518-7.73-6.349-1.376-6.442-.83-6.49-.277H461.5" style="vector-effect:non-scaling-stroke;stroke-width:.264583;stroke-dasharray:none;-inkscape-stroke:hairline" transform="rotate(-90 552.846 353.443)"/>
    <path fill="none" stroke="#000" stroke-width=".1mm" d="M581.2 512.866h8.741v-5.2h18.845v5.2h18.445v-5.602l2.208 5.33-14.323 14.322h-15.902v5h17.615v-5.2h18.014v5.2h17.614v-5.2h18.014v5.2h17.615v-5.2H700.9v8.083h5.2v8.284h-5.2v8.083h-23.187l-6.49.277-6.442.83-6.349 1.376-29.518 7.73-6.361 1.378-6.458.832-6.504.277h-21.943l-.63-.031-.626-.092-.614-.154-.596-.213-.572-.271-.544-.325-.508-.377-.469-.426-.425-.469-.377-.508-.325-.543-.271-.572-.214-.597-.153-.613-.093-.627-.031-.629v-44.553" style="vector-effect:non-scaling-stroke;stroke-width:.264583;stroke-dasharray:none;-inkscape-stroke:hairline" transform="rotate(-90 677.757 478.354)"/>
    <path fill="none" stroke="#000" stroke-width=".1mm" d="M456.3 507.264v-8.94h5.2v-18.445h-5.2v-18.845h137.6v18.845h-5.2v18.445h5.2v8.94H456.3" style="vector-effect:non-scaling-stroke;stroke-width:.264583;stroke-dasharray:none;-inkscape-stroke:hairline" transform="rotate(90 593.55 449.647)"/>
    <path d="m612.895 331.65-.125-.004-.124-.016-.122-.027-.118-.04-.114-.05-.108-.064-.101-.073-.094-.083-.085-.092-.076-.099-.065-.106-.053-.113-.043-.117-.032-.12-.018-.124-.007-.125.007-.125.018-.123.032-.12.043-.118.053-.113.065-.106.076-.099.085-.092.094-.083.1-.073.109-.063.114-.05.118-.04.122-.028.124-.016.125-.003.124.01.123.021.12.034.116.045.11.058.107.067.097.078.089.087.08.095.07.104.06.11.049.114.037.12.024.122.013.125v.124l-.013.125-.024.122-.037.12-.048.114-.06.11-.07.104-.081.095-.09.087-.096.078-.106.067-.111.058-.116.045-.12.034-.123.022-.124.01m-.371 99.141.122-.027.124-.016.125-.003.124.01.123.021.12.034.116.045.11.058.107.067.097.078.089.087.08.095.07.104.06.11.049.114.037.12.024.122.013.125v.124l-.013.125-.024.122-.037.12-.048.114-.06.11-.07.104-.081.095-.09.087-.096.078-.106.067-.111.058-.116.045-.12.034-.123.022-.124.01-.125-.004-.124-.016-.122-.027-.118-.04-.114-.05-.108-.064-.101-.073-.094-.083-.085-.092-.076-.099-.065-.106-.053-.113-.043-.117-.032-.12-.018-.124-.007-.125.007-.125.018-.123.032-.12.043-.118.053-.113.065-.106.076-.099.085-.092.094-.083.1-.073.109-.063.114-.05.118-.04m-30.361-113.195h17.814v-5.2h18.015v5.2h17.614v-5.2h18.014v5.2h17.614v-5.2h18.015v5.2h12.614v18.143h5.2v18.343h-5.2v17.943h5.2v18.342h-5.2v17.943h5.2v18.343h-5.2v18.143h-12.614v5.2h-18.015v-5.2H653.62v5.2h-18.014v-5.2h-17.614v5.2h-18.015v-5.2h-17.814v-127.2M511.683 527.774v-17.942h5v17.942h-5m-.2 59.829V564.06h5.2v-17.943h-5v10.886H497.73l-.517-.025-.514-.077-.505-.126-.49-.176-.47-.222-.446-.267-.418-.31-.385-.35-.35-.384-.31-.418-.267-.447-.222-.47-.175-.49-.127-.504-.076-.514-.026-.518V485.9l.026-.518.076-.514.127-.504.175-.49.222-.47.267-.447.31-.418.35-.385.385-.349.418-.31.446-.267.47-.223.49-.175.505-.126.514-.077.517-.025h13.952v10.886h5v-10.206h3.273l.149-.01.144-.02.14-.037.139-.049.13-.062.127-.075.117-.087.109-.099.097-.108.087-.117.075-.125.063-.132.049-.137.035-.142.022-.145.006-.147v-4.759l-.006-.147-.022-.144-.035-.142-.05-.138-.062-.132-.075-.125-.087-.117-.097-.108-.11-.099-.116-.087-.126-.075-.131-.062-.138-.049-.141-.036-.144-.02-.15-.01h-8.472v-23.543h8.283v5.2h7.884v-5.2h8.283v137.606h-8.283v-5.2h-7.884v5.2h-8.283" style="vector-effect:non-scaling-stroke;fill:none;stroke:#000;stroke-width:.264583;stroke-dasharray:none;-inkscape-stroke:hairline"/>
    <path fill="none" stroke="#000" stroke-width=".1mm" d="M456.3 507.264v-8.94h5.2v-18.445h-5.2v-18.845h137.6v18.845h-5.2v18.445h5.2v8.94H456.3" style="vector-effect:non-scaling-stroke;stroke-width:.264583;stroke-dasharray:none;-inkscape-stroke:hairline" transform="rotate(90 524.747 518.45)"/>
    <path d="m612.895 469.255-.125-.003-.124-.016-.122-.027-.118-.04-.114-.051-.108-.063-.101-.073-.094-.083-.085-.092-.076-.1-.065-.105-.053-.113-.043-.117-.032-.121-.018-.123-.007-.125.007-.125.018-.123.032-.121.043-.117.053-.113.065-.106.076-.1.085-.091.094-.083.1-.073.109-.063.114-.051.118-.04.122-.027.124-.016.125-.003.124.009.123.022.12.034.116.045.11.058.107.067.097.078.089.087.08.095.07.104.06.11.049.114.037.12.024.122.013.125v.124l-.013.125-.024.122-.037.12-.048.114-.06.11-.07.104-.081.095-.09.087-.096.078-.106.067-.111.058-.116.045-.12.034-.123.022-.124.009m-.371 99.142.122-.027.124-.016.125-.003.124.009.123.022.12.034.116.045.11.058.107.067.097.078.089.087.08.095.07.104.06.11.049.114.037.12.024.122.013.125v.124l-.013.125-.024.122-.037.12-.048.114-.06.11-.07.104-.081.095-.09.087-.096.078-.106.067-.111.058-.116.045-.12.034-.123.022-.124.009-.125-.003-.124-.016-.122-.027-.118-.04-.114-.051-.108-.063-.101-.073-.094-.083-.085-.092-.076-.1-.065-.105-.053-.113-.043-.117-.032-.121-.018-.123-.007-.125.007-.125.018-.123.032-.121.043-.117.053-.113.065-.106.076-.1.085-.091.094-.083.1-.073.109-.063.114-.051.118-.04m-30.361-113.194h17.814v-5.2h18.015v5.2h17.614v-5.2h18.014v5.2h17.614v-5.2h18.015v5.2h12.614v18.143h5.2v18.343h-5.2v17.943h5.2v18.342h-5.2v17.943h5.2v18.343h-5.2v18.143h-12.614v5.2h-18.015v-5.2H653.62v5.2h-18.014v-5.2h-17.614v5.2h-18.015v-5.2h-17.814v-127.2M511.683 390.168v-17.942h5v17.942h-5m-.2 59.83v-23.544h5.2v-17.943h-5v10.886H497.73l-.517-.025-.514-.077-.505-.126-.49-.176-.47-.222-.446-.267-.418-.31-.385-.349-.35-.385-.31-.418-.267-.447-.222-.47-.175-.49-.127-.504-.076-.514-.026-.518v-65.804l.026-.518.076-.514.127-.504.175-.49.222-.47.267-.447.31-.418.35-.385.385-.349.418-.31.446-.267.47-.223.49-.175.505-.126.514-.077.517-.025h13.952v10.886h5v-10.206h3.273l.149-.007.144-.02.14-.037.139-.049.13-.062.127-.075.117-.087.109-.099.097-.108.087-.117.075-.125.063-.132.049-.137.035-.142.022-.145.006-.147v-4.759l-.006-.147-.022-.144-.035-.142-.05-.138-.062-.132-.075-.125-.087-.117-.097-.108-.11-.099-.116-.087-.126-.075-.131-.062-.138-.049-.141-.036-.144-.02-.15-.008h-8.472v-23.543h8.283v5.2h7.884v-5.2h8.283v137.6h-8.283v-5.2h-7.884v5.2h-8.283" style="vector-effect:non-scaling-stroke;fill:none;stroke:#000;stroke-width:.264583;stroke-dasharray:none;-inkscape-stroke:hairline"/>
</svg>
