<?xml version="1.0" encoding="UTF-8" standalone="no"?>
<svg
   width="1300mm"
   height="900mm"
   viewBox="0 0 1300 900"
   version="1.1"
   id="svg8"
   sodipodi:docname="DeWaltChargerNarrow.svg"
   inkscape:version="1.4 (e7c3feb100, 2024-10-09)"
   xmlns:inkscape="http://www.inkscape.org/namespaces/inkscape"
   xmlns:sodipodi="http://sodipodi.sourceforge.net/DTD/sodipodi-0.dtd"
   xmlns="http://www.w3.org/2000/svg"
   xmlns:svg="http://www.w3.org/2000/svg">
  <defs
     id="defs8" />
  <sodipodi:namedview
     id="namedview8"
     pagecolor="#505050"
     bordercolor="#eeeeee"
     borderopacity="1"
     inkscape:showpageshadow="0"
     inkscape:pageopacity="0"
     inkscape:pagecheckerboard="0"
     inkscape:deskcolor="#505050"
     inkscape:document-units="mm"
     inkscape:zoom="0.47299359"
     inkscape:cx="2359.44"
     inkscape:cy="1652.2423"
     inkscape:window-width="1920"
     inkscape:window-height="1011"
     inkscape:window-x="0"
     inkscape:window-y="32"
     inkscape:window-maximized="1"
     inkscape:current-layer="svg8" />
  <polyline
     z="0"
     points="461.5,551.166 461.5,543.083 456.3,543.083 456.3,534.799 461.5,534.799 461.5,526.716 474.314,526.716 474.314,531.916 491.929,531.916 491.929,526.716 509.943,526.716 509.943,531.916 527.557,531.916 527.557,526.716 545.571,526.716 545.571,531.916 563.186,531.916 563.186,526.916 547.284,526.916 532.961,512.594 535.169,507.264 535.169,512.866 553.614,512.866 553.614,507.666 572.459,507.666 572.459,512.866 581.2,512.866 581.2,557.419 581.169,558.048 581.076,558.675 580.923,559.288 580.709,559.885 580.438,560.457 580.113,561 579.736,561.508 579.311,561.977 578.842,562.403 578.334,562.78 577.79,563.105 577.218,563.376 576.622,563.589 576.008,563.743 575.382,563.835 574.752,563.866 552.809,563.866 546.305,563.589 539.847,562.757 533.486,561.379 503.968,553.649 497.619,552.273 491.177,551.443 484.687,551.166 461.5,551.166"
     fill="none"
     stroke="#000000"
     stroke-width="0.1mm"
     id="polyline1"
     style="vector-effect:non-scaling-stroke;stroke-width:0.264583;stroke-dasharray:none;-inkscape-stroke:hairline"
     transform="rotate(90,722.82136,591.61436)" />
  <polyline
     z="0"
     points="581.2,512.866 589.941,512.866 589.941,507.666 608.786,507.666 608.786,512.866 627.231,512.866 627.231,507.264 629.439,512.594 615.116,526.916 599.214,526.916 599.214,531.916 616.829,531.916 616.829,526.716 634.843,526.716 634.843,531.916 652.457,531.916 652.457,526.716 670.471,526.716 670.471,531.916 688.086,531.916 688.086,526.716 700.9,526.716 700.9,534.799 706.1,534.799 706.1,543.083 700.9,543.083 700.9,551.166 677.713,551.166 671.223,551.443 664.781,552.273 658.432,553.649 628.914,561.379 622.553,562.757 616.095,563.589 609.591,563.866 587.648,563.866 587.018,563.835 586.392,563.743 585.778,563.589 585.182,563.376 584.61,563.105 584.066,562.78 583.558,562.403 583.089,561.977 582.664,561.508 582.287,561 581.962,560.457 581.691,559.885 581.477,559.288 581.324,558.675 581.231,558.048 581.2,557.419 581.2,512.866"
     fill="none"
     stroke="#000000"
     stroke-width="0.1mm"
     id="polyline6"
     style="vector-effect:non-scaling-stroke;stroke-width:0.264583;stroke-dasharray:none;-inkscape-stroke:hairline"
     transform="rotate(90,722.82136,591.61436)" />
  <polyline
     z="0"
     points="461.5,551.166 461.5,543.083 456.3,543.083 456.3,534.799 461.5,534.799 461.5,526.716 474.314,526.716 474.314,531.916 491.929,531.916 491.929,526.716 509.943,526.716 509.943,531.916 527.557,531.916 527.557,526.716 545.571,526.716 545.571,531.916 563.186,531.916 563.186,526.916 547.284,526.916 532.961,512.594 535.169,507.264 535.169,512.866 553.614,512.866 553.614,507.666 572.459,507.666 572.459,512.866 581.2,512.866 581.2,557.419 581.169,558.048 581.076,558.675 580.923,559.288 580.709,559.885 580.438,560.457 580.113,561 579.736,561.508 579.311,561.977 578.842,562.403 578.334,562.78 577.79,563.105 577.218,563.376 576.622,563.589 576.008,563.743 575.382,563.835 574.752,563.866 552.809,563.866 546.305,563.589 539.847,562.757 533.486,561.379 503.968,553.649 497.619,552.273 491.177,551.443 484.687,551.166 461.5,551.166"
     fill="none"
     stroke="#000000"
     stroke-width="0.1mm"
     id="polyline1-3"
     transform="rotate(-90,552.84636,353.44264)"
     style="vector-effect:non-scaling-stroke;stroke-width:0.264583;stroke-dasharray:none;-inkscape-stroke:hairline" />
  <polyline
     z="0"
     points="581.2,512.866 589.941,512.866 589.941,507.666 608.786,507.666 608.786,512.866 627.231,512.866 627.231,507.264 629.439,512.594 615.116,526.916 599.214,526.916 599.214,531.916 616.829,531.916 616.829,526.716 634.843,526.716 634.843,531.916 652.457,531.916 652.457,526.716 670.471,526.716 670.471,531.916 688.086,531.916 688.086,526.716 700.9,526.716 700.9,534.799 706.1,534.799 706.1,543.083 700.9,543.083 700.9,551.166 677.713,551.166 671.223,551.443 664.781,552.273 658.432,553.649 628.914,561.379 622.553,562.757 616.095,563.589 609.591,563.866 587.648,563.866 587.018,563.835 586.392,563.743 585.778,563.589 585.182,563.376 584.61,563.105 584.066,562.78 583.558,562.403 583.089,561.977 582.664,561.508 582.287,561 581.962,560.457 581.691,559.885 581.477,559.288 581.324,558.675 581.231,558.048 581.2,557.419 581.2,512.866"
     fill="none"
     stroke="#000000"
     stroke-width="0.1mm"
     id="polyline6-5"
     transform="rotate(-90,677.75736,478.35364)"
     style="vector-effect:non-scaling-stroke;stroke-width:0.264583;stroke-dasharray:none;-inkscape-stroke:hairline" />
  <polyline
     z="0"
     points="456.3,507.264 456.3,498.324 461.5,498.324 461.5,479.879 456.3,479.879 456.3,461.034 593.9,461.034 593.9,479.879 588.7,479.879 588.7,498.324 593.9,498.324 593.9,507.264 456.3,507.264"
     fill="none"
     stroke="#000000"
     stroke-width="0.1mm"
     id="polyline2"
     style="vector-effect:non-scaling-stroke;stroke-width:0.264583;stroke-dasharray:none;-inkscape-stroke:hairline"
     transform="rotate(90,593.54962,449.6471)" />
  <path
     id="polyline5"
     style="vector-effect:non-scaling-stroke;fill:none;stroke:#000000;stroke-width:0.264583;stroke-dasharray:none;-inkscape-stroke:hairline"
     d="m 612.89474,331.64948 -0.125,-0.003 -0.124,-0.016 -0.122,-0.027 -0.118,-0.04 -0.114,-0.051 -0.108,-0.063 -0.101,-0.073 -0.094,-0.083 -0.085,-0.092 -0.076,-0.099 -0.065,-0.106 -0.053,-0.113 -0.043,-0.117 -0.032,-0.121 -0.018,-0.123 -0.007,-0.125 0.007,-0.125 0.018,-0.123 0.032,-0.121 0.043,-0.117 0.053,-0.113 0.065,-0.106 0.076,-0.099 0.085,-0.092 0.094,-0.083 0.101,-0.073 0.108,-0.063 0.114,-0.051 0.118,-0.04 0.122,-0.027 0.124,-0.016 0.125,-0.003 0.124,0.009 0.123,0.022 0.12,0.034 0.116,0.045 0.111,0.058 0.106,0.067 0.097,0.078 0.089,0.087 0.081,0.095 0.07,0.104 0.06,0.11 0.048,0.114 0.037,0.12 0.024,0.122 0.013,0.125 v 0.124 l -0.013,0.125 -0.024,0.122 -0.037,0.12 -0.048,0.114 -0.06,0.11 -0.07,0.104 -0.081,0.095 -0.089,0.087 -0.097,0.078 -0.106,0.067 -0.111,0.058 -0.116,0.045 -0.12,0.034 -0.123,0.022 -0.124,0.009 m -0.371,99.142 0.122,-0.027 0.124,-0.016 0.125,-0.003 0.124,0.009 0.123,0.022 0.12,0.034 0.116,0.045 0.111,0.058 0.106,0.067 0.097,0.078 0.089,0.087 0.081,0.095 0.07,0.104 0.06,0.11 0.048,0.114 0.037,0.12 0.024,0.122 0.013,0.125 v 0.124 l -0.013,0.125 -0.024,0.122 -0.037,0.12 -0.048,0.114 -0.06,0.11 -0.07,0.104 -0.081,0.095 -0.089,0.087 -0.097,0.078 -0.106,0.067 -0.111,0.058 -0.116,0.045 -0.12,0.034 -0.123,0.022 -0.124,0.009 -0.125,-0.003 -0.124,-0.016 -0.122,-0.027 -0.118,-0.04 -0.114,-0.051 -0.108,-0.063 -0.101,-0.073 -0.094,-0.083 -0.085,-0.092 -0.076,-0.099 -0.065,-0.106 -0.053,-0.113 -0.043,-0.117 -0.032,-0.121 -0.018,-0.123 -0.007,-0.125 0.007,-0.125 0.018,-0.123 0.032,-0.121 0.043,-0.117 0.053,-0.113 0.065,-0.106 0.076,-0.099 0.085,-0.092 0.094,-0.083 0.101,-0.073 0.108,-0.063 0.114,-0.051 0.118,-0.04 m -30.361,-113.194 h 17.814 v -5.2 h 18.015 v 5.2 h 17.614 v -5.2 h 18.014 v 5.2 h 17.614 v -5.2 h 18.015 v 5.2 h 12.614 v 18.143 h 5.2 v 18.343 h -5.2 v 17.943 h 5.2 v 18.342 h -5.2 v 17.943 h 5.2 v 18.343 h -5.2 v 18.143 h -12.614 v 5.2 h -18.015 v -5.2 h -17.614 v 5.2 h -18.014 v -5.2 h -17.614 v 5.2 h -18.015 v -5.2 h -17.814 v -127.2" />
  <path
     id="polyline8"
     style="vector-effect:non-scaling-stroke;fill:none;stroke:#000000;stroke-width:0.264583;stroke-dasharray:none;-inkscape-stroke:hairline"
     d="m 511.68274,527.77352 v -17.942 h 5 v 17.942 h -5 m -0.2,59.829 v -23.543 h 5.2 v -17.943 h -5 v 10.886 h -13.952 l -0.517,-0.025 -0.514,-0.077 -0.505,-0.126 -0.49,-0.176 -0.47,-0.222 -0.446,-0.267 -0.418,-0.31 -0.385,-0.349 -0.35,-0.385 -0.31,-0.418 -0.267,-0.447 -0.222,-0.47 -0.175,-0.49 -0.127,-0.504 -0.076,-0.514 -0.026,-0.518 v -65.80404 l 0.026,-0.518 0.076,-0.514 0.127,-0.504 0.175,-0.49 0.222,-0.47 0.267,-0.447 0.31,-0.418 0.35,-0.385 0.385,-0.349 0.418,-0.31 0.446,-0.267 0.47,-0.223 0.49,-0.175 0.505,-0.126 0.514,-0.077 0.517,-0.025 h 13.952 v 10.886 h 5 v -10.206 h 3.273 l 0.149,-0.01 0.144,-0.021 0.141,-0.036 0.138,-0.049 0.131,-0.062 0.126,-0.075 0.117,-0.087 0.109,-0.099 0.097,-0.108 0.087,-0.117 0.075,-0.125 0.063,-0.132 0.049,-0.137 0.035,-0.142 0.022,-0.145 0.006,-0.147 v -4.759 l -0.006,-0.147 -0.022,-0.144 -0.035,-0.142 -0.049,-0.138 -0.063,-0.132 -0.075,-0.125 -0.087,-0.117 -0.097,-0.108 -0.109,-0.099 -0.117,-0.087 -0.126,-0.075 -0.131,-0.062 -0.138,-0.049 -0.141,-0.036 -0.144,-0.02 -0.149,-0.01 h -8.473 v -23.543 h 8.283 v 5.2 h 7.884 v -5.2 h 8.283 v 137.60504 h -8.283 v -5.2 h -7.884 v 5.2 h -8.283" />
  <polyline
     z="0"
     points="456.3,507.264 456.3,498.324 461.5,498.324 461.5,479.879 456.3,479.879 456.3,461.034 593.9,461.034 593.9,479.879 588.7,479.879 588.7,498.324 593.9,498.324 593.9,507.264 456.3,507.264"
     fill="none"
     stroke="#000000"
     stroke-width="0.1mm"
     id="polyline2-6"
     transform="rotate(90,524.7471,518.44962)"
     style="vector-effect:non-scaling-stroke;stroke-width:0.264583;stroke-dasharray:none;-inkscape-stroke:hairline" />
  <path
     id="polyline5-3"
     style="vector-effect:non-scaling-stroke;fill:none;stroke:#000000;stroke-width:0.264583;stroke-dasharray:none;-inkscape-stroke:hairline"
     d="m 612.89474,469.25452 -0.125,-0.003 -0.124,-0.016 -0.122,-0.027 -0.118,-0.04 -0.114,-0.051 -0.108,-0.063 -0.101,-0.073 -0.094,-0.083 -0.085,-0.092 -0.076,-0.099 -0.065,-0.106 -0.053,-0.113 -0.043,-0.117 -0.032,-0.121 -0.018,-0.123 -0.007,-0.125 0.007,-0.125 0.018,-0.123 0.032,-0.121 0.043,-0.117 0.053,-0.113 0.065,-0.106 0.076,-0.099 0.085,-0.092 0.094,-0.083 0.101,-0.073 0.108,-0.063 0.114,-0.051 0.118,-0.04 0.122,-0.027 0.124,-0.016 0.125,-0.003 0.124,0.009 0.123,0.022 0.12,0.034 0.116,0.045 0.111,0.058 0.106,0.067 0.097,0.078 0.089,0.087 0.081,0.095 0.07,0.104 0.06,0.11 0.048,0.114 0.037,0.12 0.024,0.122 0.013,0.125 v 0.124 l -0.013,0.125 -0.024,0.122 -0.037,0.12 -0.048,0.114 -0.06,0.11 -0.07,0.104 -0.081,0.095 -0.089,0.087 -0.097,0.078 -0.106,0.067 -0.111,0.058 -0.116,0.045 -0.12,0.034 -0.123,0.022 -0.124,0.009 m -0.371,99.142 0.122,-0.027 0.124,-0.016 0.125,-0.003 0.124,0.009 0.123,0.022 0.12,0.034 0.116,0.045 0.111,0.058 0.106,0.067 0.097,0.078 0.089,0.087 0.081,0.095 0.07,0.104 0.06,0.11 0.048,0.114 0.037,0.12 0.024,0.122 0.013,0.125 v 0.124 l -0.013,0.125 -0.024,0.122 -0.037,0.12 -0.048,0.114 -0.06,0.11 -0.07,0.104 -0.081,0.095 -0.089,0.087 -0.097,0.078 -0.106,0.067 -0.111,0.058 -0.116,0.045 -0.12,0.034 -0.123,0.022 -0.124,0.009 -0.125,-0.003 -0.124,-0.016 -0.122,-0.027 -0.118,-0.04 -0.114,-0.051 -0.108,-0.063 -0.101,-0.073 -0.094,-0.083 -0.085,-0.092 -0.076,-0.099 -0.065,-0.106 -0.053,-0.113 -0.043,-0.117 -0.032,-0.121 -0.018,-0.123 -0.007,-0.125 0.007,-0.125 0.018,-0.123 0.032,-0.121 0.043,-0.117 0.053,-0.113 0.065,-0.106 0.076,-0.099 0.085,-0.092 0.094,-0.083 0.101,-0.073 0.108,-0.063 0.114,-0.051 0.118,-0.04 m -30.361,-113.194 h 17.814 v -5.2 h 18.015 v 5.2 h 17.614 v -5.2 h 18.014 v 5.2 h 17.614 v -5.2 h 18.015 v 5.2 h 12.614 v 18.143 h 5.2 v 18.343 h -5.2 v 17.943 h 5.2 v 18.342 h -5.2 v 17.943 h 5.2 v 18.343 h -5.2 v 18.143 h -12.614 v 5.2 h -18.015 v -5.2 h -17.614 v 5.2 h -18.014 v -5.2 h -17.614 v 5.2 h -18.015 v -5.2 h -17.814 v -127.2" />
  <path
     id="polyline8-2"
     style="vector-effect:non-scaling-stroke;fill:none;stroke:#000000;stroke-width:0.264583;stroke-dasharray:none;-inkscape-stroke:hairline"
     d="m 511.68274,390.16848 v -17.942 h 5 v 17.942 h -5 m -0.2,59.829 v -23.543 h 5.2 v -17.943 h -5 v 10.886 h -13.952 l -0.517,-0.025 -0.514,-0.077 -0.505,-0.126 -0.49,-0.176 -0.47,-0.222 -0.446,-0.267 -0.418,-0.31 -0.385,-0.349 -0.35,-0.385 -0.31,-0.418 -0.267,-0.447 -0.222,-0.47 -0.175,-0.49 -0.127,-0.504 -0.076,-0.514 -0.026,-0.518 v -65.804 l 0.026,-0.518 0.076,-0.514 0.127,-0.504 0.175,-0.49 0.222,-0.47 0.267,-0.447 0.31,-0.418 0.35,-0.385 0.385,-0.349 0.418,-0.31 0.446,-0.267 0.47,-0.223 0.49,-0.175 0.505,-0.126 0.514,-0.077 0.517,-0.025 h 13.952 v 10.886 h 5 v -10.206 h 3.273 l 0.149,-0.007 0.144,-0.021 0.141,-0.036 0.138,-0.049 0.131,-0.062 0.126,-0.075 0.117,-0.087 0.109,-0.099 0.097,-0.108 0.087,-0.117 0.075,-0.125 0.063,-0.132 0.049,-0.137 0.035,-0.142 0.022,-0.145 0.006,-0.147 v -4.759 l -0.006,-0.147 -0.022,-0.144 -0.035,-0.142 -0.049,-0.138 -0.063,-0.132 -0.075,-0.125 -0.087,-0.117 -0.097,-0.108 -0.109,-0.099 -0.117,-0.087 -0.126,-0.075 -0.131,-0.062 -0.138,-0.049 -0.141,-0.036 -0.144,-0.02 -0.149,-0.008 h -8.473 v -23.543 h 8.283 v 5.2 h 7.884 v -5.2 h 8.283 v 137.6 h -8.283 v -5.2 h -7.884 v 5.2 h -8.283" />
</svg>
