Cleat Wall Organization Equipment
Copyright (C) 2025  Corporate Hacks

This program is free software: you can redistribute it and/or modify
it under the terms of the GNU General Public License as published by
the Free Software Foundation, either version 3 of the License, or
(at your option) any later version.

This program is distributed in the hope that it will be useful,
but WITHOUT ANY WARRANTY; without even the implied warranty of
MERCHANTABILITY or FITNESS FOR A PARTICULAR PURPOSE.  See the
GNU General Public License for more details.

You should have received a copy of the GNU General Public License
along with this program.  If not, see <http://www.gnu.org/licenses/>.


<svg xmlns="http://www.w3.org/2000/svg" width="1300mm" height="900mm" viewBox="0 0 1300 900">
    <path fill="none" stroke="#000" stroke-width=".1mm" d="M448.8 551.166v-8.083h-5.2v-8.284h5.2v-8.083h12.814v5.2h17.615v-5.2h18.014v5.2h17.614v-5.2h18.014v5.2h17.615v-5h-15.902l-14.323-14.322 2.208-5.33v5.602h18.445v-5.2h18.845v5.2h8.741v44.553l-.031.629-.093.627-.153.613-.214.597-.271.572-.325.543-.377.508-.425.469-.469.426-.508.377-.544.325-.572.271-.596.213-.614.154-.626.092-.63.031h-21.943l-6.504-.277-6.458-.832-6.361-1.378-29.518-7.73-6.349-1.376-6.442-.83-6.49-.277H448.8" style="vector-effect:non-scaling-stroke;stroke-width:.26458333;stroke-dasharray:none;-inkscape-stroke:hairline" transform="rotate(90 716.503 598.312)"/>
    <path fill="none" stroke="#000" stroke-width=".1mm" d="M568.5 512.866h8.741v-5.2h18.845v5.2h18.445v-5.602l2.208 5.33-14.323 14.322h-15.902v5h17.615v-5.2h18.014v5.2h17.614v-5.2h18.014v5.2h17.615v-5.2H688.2v8.083h5.2v8.284h-5.2v8.083h-23.187l-6.49.277-6.442.83-6.349 1.376-29.518 7.73-6.361 1.378-6.458.832-6.504.277h-21.943l-.63-.031-.626-.092-.614-.154-.596-.213-.572-.271-.544-.325-.508-.377-.469-.426-.425-.469-.377-.508-.325-.543-.271-.572-.214-.597-.153-.613-.093-.627-.031-.629v-44.553" style="vector-effect:non-scaling-stroke;stroke-width:.26458333;stroke-dasharray:none;-inkscape-stroke:hairline" transform="rotate(90 716.503 598.312)"/>
    <path fill="none" stroke="#000" stroke-width=".1mm" d="M448.8 551.166v-8.083h-5.2v-8.284h5.2v-8.083h12.814v5.2h17.615v-5.2h18.014v5.2h17.614v-5.2h18.014v5.2h17.615v-5h-15.902l-14.323-14.322 2.208-5.33v5.602h18.445v-5.2h18.845v5.2h8.741v44.553l-.031.629-.093.627-.153.613-.214.597-.271.572-.325.543-.377.508-.425.469-.469.426-.508.377-.544.325-.572.271-.596.213-.614.154-.626.092-.63.031h-21.943l-6.504-.277-6.458-.832-6.361-1.378-29.518-7.73-6.349-1.376-6.442-.83-6.49-.277H448.8" style="vector-effect:non-scaling-stroke;stroke-width:.26458333;stroke-dasharray:none;-inkscape-stroke:hairline" transform="matrix(0 1 1 0 199.815 6.091)"/>
    <path fill="none" stroke="#000" stroke-width=".1mm" d="M568.5 512.866h8.741v-5.2h18.845v5.2h18.445v-5.602l2.208 5.33-14.323 14.322h-15.902v5h17.615v-5.2h18.014v5.2h17.614v-5.2h18.014v5.2h17.615v-5.2H688.2v8.083h5.2v8.284h-5.2v8.083h-23.187l-6.49.277-6.442.83-6.349 1.376-29.518 7.73-6.361 1.378-6.458.832-6.504.277h-21.943l-.63-.031-.626-.092-.614-.154-.596-.213-.572-.271-.544-.325-.508-.377-.469-.426-.425-.469-.377-.508-.325-.543-.271-.572-.214-.597-.153-.613-.093-.627-.031-.629v-44.553" style="vector-effect:non-scaling-stroke;stroke-width:.26458333;stroke-dasharray:none;-inkscape-stroke:hairline" transform="matrix(0 1 1 0 199.815 -243.709)"/>
    <path fill="none" stroke="#000" stroke-width=".1mm" d="M443.6 507.264v-8.94h5.2v-18.445h-5.2v-18.845h163v18.845h-5.2v18.445h5.2v8.94h-163" style="vector-effect:non-scaling-stroke;stroke-width:.26458333;stroke-dasharray:none;-inkscape-stroke:hairline" transform="rotate(90 599.906 443.306)"/>
    <g fill="none" stroke="#000" stroke-width=".1mm" style="vector-effect:non-scaling-stroke;-inkscape-stroke:hairline;stroke-width:.26458333;stroke-dasharray:none">
        <path d="M448.8 461.034V443.22h-5.2v-18.015h5.2v-17.614h-5.2v-18.014h5.2v-17.614h-5.2v-18.015h5.2v-12.614h21.771v-5.2h21.972v5.2h21.571v-5.2h21.972v5.2h21.571v-5.2h21.972v5.2H601.4v12.614h5.2v18.015h-5.2v17.614h5.2v18.014h-5.2v17.614h5.2v18.015h-5.2v17.814H448.8" style="vector-effect:non-scaling-stroke;stroke-width:.26458333;stroke-dasharray:none;-inkscape-stroke:hairline" transform="rotate(90 599.906 443.306)"/>
        <path d="m581.044 430.673-.027-.122-.016-.124-.003-.125.009-.124.022-.123.034-.12.045-.116.058-.111.067-.106.078-.097.087-.089.095-.081.104-.07.11-.06.114-.048.12-.037.122-.024.125-.013h.124l.125.013.122.024.12.037.114.048.11.06.104.07.095.081.087.089.078.097.067.106.058.111.045.116.034.12.022.123.009.124-.003.125-.016.124-.027.122-.04.118-.051.114-.063.108-.073.101-.083.094-.092.085-.099.076-.106.065-.113.053-.117.043-.121.032-.123.018-.125.007-.125-.007-.123-.018-.121-.032-.117-.043-.113-.053-.106-.065-.099-.076-.092-.085-.083-.094-.073-.101-.063-.108-.051-.114-.04-.118M469.202 430.302l-.003.125-.016.124-.027.122-.04.118-.051.114-.063.108-.073.101-.083.094-.092.085-.099.076-.106.065-.113.053-.117.043-.121.032-.123.018-.125.007-.125-.007-.123-.018-.121-.032-.117-.043-.113-.053-.106-.065-.099-.076-.092-.085-.083-.094-.073-.101-.063-.108-.051-.114-.04-.118-.027-.122-.016-.124-.003-.125.009-.124.022-.123.034-.12.045-.116.058-.111.067-.106.078-.097.087-.089.095-.081.104-.07.11-.06.114-.048.12-.037.122-.024.125-.013h.124l.125.013.122.024.12.037.114.048.11.06.104.07.095.081.087.089.078.097.067.106.058.111.045.116.034.12.022.123.009.124" style="vector-effect:non-scaling-stroke;stroke-width:.26458333;stroke-dasharray:none;-inkscape-stroke:hairline" transform="rotate(90 599.906 443.306)"/>
    </g>
    <g fill="none" stroke="#000" stroke-width=".1mm" style="vector-effect:non-scaling-stroke;-inkscape-stroke:hairline;stroke-width:.26458333;stroke-dasharray:none">
        <path d="M693.4 539.416h27.171v5.2h21.572v-5H736.7v-13.952l.025-.517.077-.514.126-.505.175-.49.223-.47.267-.446.31-.418.349-.385.385-.35.418-.31.447-.267.47-.222.49-.175.504-.127.514-.076.518-.026h65.804l.518.026.514.076.504.127.49.175.47.222.447.267.418.31.385.35.349.385.31.418.267.446.223.47.175.49.126.505.077.514.025.517v13.952h-5.443v5h13.834v3.273l.008.148.021.145.035.141.049.138.063.131.075.126.087.117.098.109.107.097.119.087.124.075.132.063.138.049.142.035.144.022.148.006h4.758l.148-.006.144-.022.142-.035.138-.049.131-.063.125-.075.118-.087.108-.097.098-.109.087-.117.075-.126.062-.131.049-.138.036-.141.021-.145.008-.148v-8.473H856.4v8.283h-5.2v7.884h5.2v8.283h-163v-8.283h5.2v-7.884h-5.2v-8.283" style="vector-effect:non-scaling-stroke;stroke-width:.26458333;stroke-dasharray:none;-inkscape-stroke:hairline" transform="matrix(0 1 1 0 -27.918 -406.4)"/>
        <path d="M764.114 539.616h21.572v5h-21.572v-5" style="vector-effect:non-scaling-stroke;stroke-width:.26458333;stroke-dasharray:none;-inkscape-stroke:hairline" transform="matrix(0 1 1 0 -27.918 -406.4)"/>
    </g>
    <path fill="none" stroke="#000" stroke-width=".1mm" d="M443.6 507.264v-8.94h5.2v-18.445h-5.2v-18.845h163v18.845h-5.2v18.445h5.2v8.94h-163" style="vector-effect:non-scaling-stroke;stroke-width:.26458333;stroke-dasharray:none;-inkscape-stroke:hairline" transform="rotate(90 518.406 524.806)"/>
    <g fill="none" stroke="#000" stroke-width=".1mm" style="vector-effect:non-scaling-stroke;-inkscape-stroke:hairline;stroke-width:.26458333;stroke-dasharray:none">
        <path d="M448.8 461.034V443.22h-5.2v-18.015h5.2v-17.614h-5.2v-18.014h5.2v-17.614h-5.2v-18.015h5.2v-12.614h21.771v-5.2h21.972v5.2h21.571v-5.2h21.972v5.2h21.571v-5.2h21.972v5.2H601.4v12.614h5.2v18.015h-5.2v17.614h5.2v18.014h-5.2v17.614h5.2v18.015h-5.2v17.814H448.8" style="vector-effect:non-scaling-stroke;stroke-width:.26458333;stroke-dasharray:none;-inkscape-stroke:hairline" transform="rotate(90 518.406 524.806)"/>
        <path d="m581.044 430.673-.027-.122-.016-.124-.003-.125.009-.124.022-.123.034-.12.045-.116.058-.111.067-.106.078-.097.087-.089.095-.081.104-.07.11-.06.114-.048.12-.037.122-.024.125-.013h.124l.125.013.122.024.12.037.114.048.11.06.104.07.095.081.087.089.078.097.067.106.058.111.045.116.034.12.022.123.009.124-.003.125-.016.124-.027.122-.04.118-.051.114-.063.108-.073.101-.083.094-.092.085-.099.076-.106.065-.113.053-.117.043-.121.032-.123.018-.125.007-.125-.007-.123-.018-.121-.032-.117-.043-.113-.053-.106-.065-.099-.076-.092-.085-.083-.094-.073-.101-.063-.108-.051-.114-.04-.118M469.202 430.302l-.003.125-.016.124-.027.122-.04.118-.051.114-.063.108-.073.101-.083.094-.092.085-.099.076-.106.065-.113.053-.117.043-.121.032-.123.018-.125.007-.125-.007-.123-.018-.121-.032-.117-.043-.113-.053-.106-.065-.099-.076-.092-.085-.083-.094-.073-.101-.063-.108-.051-.114-.04-.118-.027-.122-.016-.124-.003-.125.009-.124.022-.123.034-.12.045-.116.058-.111.067-.106.078-.097.087-.089.095-.081.104-.07.11-.06.114-.048.12-.037.122-.024.125-.013h.124l.125.013.122.024.12.037.114.048.11.06.104.07.095.081.087.089.078.097.067.106.058.111.045.116.034.12.022.123.009.124" style="vector-effect:non-scaling-stroke;stroke-width:.26458333;stroke-dasharray:none;-inkscape-stroke:hairline" transform="rotate(90 518.406 524.806)"/>
    </g>
    <g fill="none" stroke="#000" stroke-width=".1mm" style="vector-effect:non-scaling-stroke;-inkscape-stroke:hairline;stroke-width:.26458333;stroke-dasharray:none">
        <path d="M693.4 539.416h27.171v5.2h21.572v-5H736.7v-13.952l.025-.517.077-.514.126-.505.175-.49.223-.47.267-.446.31-.418.349-.385.385-.35.418-.31.447-.267.47-.222.49-.175.504-.127.514-.076.518-.026h65.804l.518.026.514.076.504.127.49.175.47.222.447.267.418.31.385.35.349.385.31.418.267.446.223.47.175.49.126.505.077.514.025.517v13.952h-5.443v5h13.834v3.273l.008.148.021.145.035.141.049.138.063.131.075.126.087.117.098.109.107.097.119.087.124.075.132.063.138.049.142.035.144.022.148.006h4.758l.148-.006.144-.022.142-.035.138-.049.131-.063.125-.075.118-.087.108-.097.098-.109.087-.117.075-.126.062-.131.049-.138.036-.141.021-.145.008-.148v-8.473H856.4v8.283h-5.2v7.884h5.2v8.283h-163v-8.283h5.2v-7.884h-5.2v-8.283" style="vector-effect:non-scaling-stroke;stroke-width:.26458333;stroke-dasharray:none;-inkscape-stroke:hairline" transform="matrix(0 1 1 0 -27.918 -243.4)"/>
        <path d="M764.114 539.616h21.572v5h-21.572v-5" style="vector-effect:non-scaling-stroke;stroke-width:.26458333;stroke-dasharray:none;-inkscape-stroke:hairline" transform="matrix(0 1 1 0 -27.918 -243.4)"/>
    </g>
</svg>
