Cleat Wall Organization Equipment
Copyright (C) 2025  Corporate Hacks

This program is free software: you can redistribute it and/or modify
it under the terms of the GNU General Public License as published by
the Free Software Foundation, either version 3 of the License, or
(at your option) any later version.

This program is distributed in the hope that it will be useful,
but WITHOUT ANY WARRANTY; without even the implied warranty of
MERCHANTABILITY or FITNESS FOR A PARTICULAR PURPOSE.  See the
GNU General Public License for more details.

You should have received a copy of the GNU General Public License
along with this program.  If not, see <http://www.gnu.org/licenses/>.


<svg xmlns="http://www.w3.org/2000/svg" width="1300mm" height="900mm" viewBox="0 0 1300 900">
    <path d="M749.488 505.2h6.175v5h-6.175v-5m-12.38-55.2h7.144v5.2h6.744V450h7.145v5.2h6.744V450h7.145v5.2h6.744V450h7.145v5.2h1.744v7.761h5.2v7.961h-5.2v7.562h5.2v7.961h-5.2v7.561h5.603l-5.33 2.208-14.264-14.264h-5.059v8.267h5.2v8.666h-5.2v6.317h-6.375v5h6.175v-3.05h5.4v8.667h-5.2v8.266h5.2v8.667h-5.2v8.267h5.2v8.666h-5.2v8.871L730.114 465.2h5.25v-10h1.743V450M755.663 389.8v5h-6.175v-5h6.175m12.95-48.354v8.871h5.2v8.666h-5.2v8.267h5.2v8.667h-5.2v8.266h5.2v8.667h-5.4v-3.05h-6.175v5h6.375v6.317h5.2v8.666h-5.2v8.267h5.06l14.263-14.264 5.33 2.208h-5.603v7.561h5.2v7.961h-5.2v7.562h5.2v7.961h-5.2v7.761h-1.744v5.2h-7.145v-5.2h-6.744v5.2h-7.145v-5.2h-6.744v5.2h-7.145v-5.2h-6.744v5.2h-7.145v-5.2h-1.744v-10h-5.249l38.5-93.354" style="fill:none;stroke:#000;stroke-width:.26458333;vector-effect:non-scaling-stroke;-inkscape-stroke:hairline;stroke-dasharray:none"/>
    <path d="M773.682 322.176h-6.175v5h6.175v-5m12.381-55.2h-7.145v5.2h-6.744v-5.2h-7.145v5.2h-6.744v-5.2h-7.145v5.2h-6.744v-5.2h-7.145v5.2h-1.744v7.76h-5.2v7.962h5.2v7.562h-5.2v7.96h5.2v7.562h-5.603l5.33 2.208 14.264-14.264h5.06v8.267h-5.2v8.666h5.2v6.317h6.374v5h-6.175v-3.05h-5.4v8.667h5.2v8.266h-5.2v8.667h5.2v8.267h-5.2v8.666h5.2v8.87l38.5-93.353h-5.25v-10h-1.744v-5.2M767.507 572.824v5h6.175v-5h-6.175m-12.95-48.354v8.871h-5.2v8.666h5.2v8.267h-5.2v8.667h5.2v8.266h-5.2v8.667h5.4v-3.05h6.175v5h-6.375v6.317h-5.2v8.666h5.2v8.267h-5.059l-14.264-14.264-5.33 2.208h5.603v7.561h-5.2v7.961h5.2v7.562h-5.2v7.961h5.2v7.761h1.744v5.2h7.145v-5.2h6.744v5.2h7.145v-5.2h6.744v5.2h7.145v-5.2h6.744v5.2h7.145v-5.2h1.744v-10h5.25l-38.5-93.354" style="fill:none;stroke:#000;stroke-width:.26458333;vector-effect:non-scaling-stroke;-inkscape-stroke:hairline;stroke-dasharray:none"/>
    <path fill="none" stroke="#000" stroke-width=".1mm" d="M438.277 499.054v-7.962h5.2v-7.561h-5.2v-7.961h266v7.961h-5.2v7.561h5.2v7.962h-5.2v7.561h5.2v7.961h-17.72v5.2h-17.92v-5.2h-17.52v5.2h-17.92v-5.2h-17.52v5.2h-17.92v-5.2h-17.52v5.2h-17.92v-5.2h-17.52v5.2h-17.92v-5.2h-17.52v5.2h-17.92v-5.2h-17.52v5.2h-17.92v-5.2h-17.72v-7.961h5.2v-7.561h-5.2" style="vector-effect:non-scaling-stroke;-inkscape-stroke:hairline;stroke-width:.26458333;stroke-dasharray:none" transform="rotate(90 640.452 386.175)"/>
    <path d="M574.506 219.44v-17.52h5v17.52h-5m0 35.44v-17.52h5v17.52h-5m0 35.44V272.8h5v17.52h-5m0 35.44v-17.52h5v17.52h-5m0 35.44v-17.52h5v17.52h-5m0 35.44v-17.52h5v17.52h-5m0 17.92h5v17.52h-5v-17.52M559.723 189.2h8.266V184h8.667v5.2h8.267V184h8.666v5.2h8.267V184h8.667v5.2h8.266V184h8.667v266h-8.667v-5.2h-8.266v5.2h-8.667v-5.2h-8.267v5.2h-8.666v-5.2h-8.267v5.2h-8.667v-5.2h-8.266v5.2h-8.667V184h8.667v5.2M696.224 425.8h5.08l2.541 4.4-2.54 4.4h-5.08l-2.54-4.4 2.54-4.4m0-19h5.08l2.54 4.4-2.54 4.4h-5.08l-2.54-4.4 2.54-4.4m0-19h5.08l2.54 4.4-2.54 4.4h-5.08l-2.54-4.4 2.54-4.4m0-19h5.08l2.54 4.4-2.54 4.4h-5.08l-2.54-4.4 2.54-4.4m0-19h5.08l2.54 4.4-2.54 4.4h-5.08l-2.54-4.4 2.54-4.4m-.578-21.4h6.234l3.12 5.4-3.12 5.4h-6.234l-3.118-5.4 3.118-5.4m0-21h6.234l3.12 5.4-3.12 5.4h-6.234l-3.118-5.4 3.118-5.4m0-21h6.234l3.12 5.4-3.12 5.4h-6.234l-3.118-5.4 3.118-5.4m0-21h6.234l3.12 5.4-3.12 5.4h-6.234l-3.118-5.4 3.118-5.4m0-21h6.234l3.12 5.4-3.12 5.4h-6.234l-3.118-5.4 3.118-5.4m0-21h6.234l3.12 5.4-3.12 5.4h-6.234l-3.118-5.4 3.118-5.4m-.866-24h7.966l3.985 6.9-3.985 6.9h-7.966l-3.984-6.9 3.984-6.9m.411-15.4h7.144v5.2h6.745V184h7.144v5.2h6.745V184h7.144v17.92h-5.2v17.52h5.2v17.92h-5.2v17.52h5.2v17.92h-5.2v17.52h5.2v17.92h-5.2v17.52h5.2v17.92h-5.2v17.52h5.2v17.92h-5.2v17.52h5.2v17.92h-5.2v17.52h5.2V450h-7.144v-5.2h-6.745v5.2h-7.144v-5.2h-6.745v5.2h-7.144v-5.2h-6.745v5.2h-7.144v-5.2h-6.745v5.2h-7.144v-17.92h5.2v-17.52h-5.2v-17.92h5.2v-17.52h-5.2V361.2h5.2v-17.52h-5.2v-17.92h5.2v-17.52h-5.2v-17.92h5.2V272.8h-5.2v-17.92h5.2v-17.52h-5.2v-17.92h5.2v-17.52h-5.2V184h7.144v5.2h6.745V184h7.144v5.2h6.745V184" style="fill:none;stroke:#000;stroke-width:.26458333;vector-effect:non-scaling-stroke;-inkscape-stroke:hairline;stroke-dasharray:none"/>
    <path fill="none" stroke="#000" stroke-width=".1mm" d="M970.277 479.85v10.2h-17.72v5.2h-17.92v-5.2h-17.52v5.2h-17.92v-5.2h-17.52v5.2h-17.92v-5.2h-17.52v5.2h-17.92v-5.2h-17.52v5.2h-17.92v-5.2h-17.52v5.2h-17.92v-5.2h-17.52v5.2h-17.92v-5.2h-17.72v-10.2h266M970.277 500.45v6.575h-5.2v6.176h5.2v6.575h-266v-6.575h5.2v-6.176h-5.2v-6.575h17.72v-5.2h17.92v5.2h17.52v-5.2h17.92v5.2h17.52v-5.2h17.92v5.2h17.52v-5.2h17.92v5.2h17.52v-5.2h17.92v5.2h17.52v-5.2h17.92v5.2h17.52v-5.2h17.92v5.2h17.72" style="vector-effect:non-scaling-stroke;-inkscape-stroke:hairline;stroke-width:.26458333;stroke-dasharray:none" transform="rotate(90 833.755 313.478)"/>
    <path fill="none" stroke="#000" stroke-width=".1mm" d="M438.277 499.054v-7.962h5.2v-7.561h-5.2v-7.961h266v7.961h-5.2v7.561h5.2v7.962h-5.2v7.561h5.2v7.961h-17.72v5.2h-17.92v-5.2h-17.52v5.2h-17.92v-5.2h-17.52v5.2h-17.92v-5.2h-17.52v5.2h-17.92v-5.2h-17.52v5.2h-17.92v-5.2h-17.52v5.2h-17.92v-5.2h-17.52v5.2h-17.92v-5.2h-17.72v-7.961h5.2v-7.561h-5.2" style="vector-effect:non-scaling-stroke;-inkscape-stroke:hairline;stroke-width:.26458333;stroke-dasharray:none" transform="rotate(90 507.452 519.175)"/>
    <path d="M574.506 485.44v-17.52h5v17.52h-5m0 35.44v-17.52h5v17.52h-5m0 35.44V538.8h5v17.52h-5m0 35.44v-17.52h5v17.52h-5m0 35.44v-17.52h5v17.52h-5m0 35.44v-17.52h5v17.52h-5m0 17.92h5v17.52h-5v-17.52M559.723 455.2h8.266V450h8.667v5.2h8.267V450h8.666v5.2h8.267V450h8.667v5.2h8.266V450h8.667v266h-8.667v-5.2h-8.266v5.2h-8.667v-5.2h-8.267v5.2h-8.666v-5.2h-8.267v5.2h-8.667v-5.2h-8.266v5.2h-8.667V450h8.667v5.2M696.224 691.8h5.08l2.541 4.4-2.54 4.4h-5.08l-2.54-4.4 2.54-4.4m0-19h5.08l2.54 4.4-2.54 4.4h-5.08l-2.54-4.4 2.54-4.4m0-19h5.08l2.54 4.4-2.54 4.4h-5.08l-2.54-4.4 2.54-4.4m0-19h5.08l2.54 4.4-2.54 4.4h-5.08l-2.54-4.4 2.54-4.4m0-19h5.08l2.54 4.4-2.54 4.4h-5.08l-2.54-4.4 2.54-4.4m-.578-21.4h6.234l3.12 5.4-3.12 5.4h-6.234l-3.118-5.4 3.118-5.4m0-21h6.234l3.12 5.4-3.12 5.4h-6.234l-3.118-5.4 3.118-5.4m0-21h6.234l3.12 5.4-3.12 5.4h-6.234l-3.118-5.4 3.118-5.4m0-21h6.234l3.12 5.4-3.12 5.4h-6.234l-3.118-5.4 3.118-5.4m0-21h6.234l3.12 5.4-3.12 5.4h-6.234l-3.118-5.4 3.118-5.4m0-21h6.234l3.12 5.4-3.12 5.4h-6.234l-3.118-5.4 3.118-5.4m-.866-24h7.966l3.985 6.9-3.985 6.9h-7.966l-3.984-6.9 3.984-6.9m.411-15.4h7.144v5.2h6.745V450h7.144v5.2h6.745V450h7.144v17.92h-5.2v17.52h5.2v17.92h-5.2v17.52h5.2v17.92h-5.2v17.52h5.2v17.92h-5.2v17.52h5.2v17.92h-5.2v17.52h5.2v17.92h-5.2v17.52h5.2v17.92h-5.2v17.52h5.2V716h-7.144v-5.2h-6.745v5.2h-7.144v-5.2h-6.745v5.2h-7.144v-5.2h-6.745v5.2h-7.144v-5.2h-6.745v5.2h-7.144v-17.92h5.2v-17.52h-5.2v-17.92h5.2v-17.52h-5.2V627.2h5.2v-17.52h-5.2v-17.92h5.2v-17.52h-5.2v-17.92h5.2V538.8h-5.2v-17.92h5.2v-17.52h-5.2v-17.92h5.2v-17.52h-5.2V450h7.144v5.2h6.745V450h7.144v5.2h6.745V450" style="fill:none;stroke:#000;stroke-width:.26458333;vector-effect:non-scaling-stroke;-inkscape-stroke:hairline;stroke-dasharray:none"/>
    <path fill="none" stroke="#000" stroke-width=".1mm" d="M970.277 479.85v10.2h-17.72v5.2h-17.92v-5.2h-17.52v5.2h-17.92v-5.2h-17.52v5.2h-17.92v-5.2h-17.52v5.2h-17.92v-5.2h-17.52v5.2h-17.92v-5.2h-17.52v5.2h-17.92v-5.2h-17.52v5.2h-17.92v-5.2h-17.72v-10.2h266M970.277 500.45v6.575h-5.2v6.176h5.2v6.575h-266v-6.575h5.2v-6.176h-5.2v-6.575h17.72v-5.2h17.92v5.2h17.52v-5.2h17.92v5.2h17.52v-5.2h17.92v5.2h17.52v-5.2h17.92v5.2h17.52v-5.2h17.92v5.2h17.52v-5.2h17.92v5.2h17.52v-5.2h17.92v5.2h17.72" style="vector-effect:non-scaling-stroke;-inkscape-stroke:hairline;stroke-width:.26458333;stroke-dasharray:none" transform="rotate(90 700.755 446.478)"/>
</svg>
