<?xml version="1.0" encoding="UTF-8" standalone="no"?>
<svg
   width="1300mm"
   height="900mm"
   viewBox="0 0 1300 900"
   version="1.1"
   id="svg28"
   sodipodi:docname="Punches.svg"
   inkscape:version="1.4 (e7c3feb100, 2024-10-09)"
   xmlns:inkscape="http://www.inkscape.org/namespaces/inkscape"
   xmlns:sodipodi="http://sodipodi.sourceforge.net/DTD/sodipodi-0.dtd"
   xmlns="http://www.w3.org/2000/svg"
   xmlns:svg="http://www.w3.org/2000/svg">
  <defs
     id="defs28" />
  <sodipodi:namedview
     id="namedview28"
     pagecolor="#505050"
     bordercolor="#eeeeee"
     borderopacity="1"
     inkscape:showpageshadow="0"
     inkscape:pageopacity="0"
     inkscape:pagecheckerboard="0"
     inkscape:deskcolor="#505050"
     inkscape:document-units="mm"
     inkscape:zoom="0.23649679"
     inkscape:cx="3420.7652"
     inkscape:cy="1900.66"
     inkscape:window-width="1920"
     inkscape:window-height="1011"
     inkscape:window-x="0"
     inkscape:window-y="32"
     inkscape:window-maximized="1"
     inkscape:current-layer="svg28" />
  <path
     id="polyline2"
     style="fill:none;stroke:#000000;stroke-width:0.26458333;vector-effect:non-scaling-stroke;-inkscape-stroke:hairline;stroke-dasharray:none"
     d="m 749.48818,505.2 h 6.175 v 5 h -6.175 v -5 m -12.381,-55.2 h 7.145 v 5.2 h 6.744 V 450 h 7.145 v 5.2 h 6.744 V 450 h 7.145 v 5.2 h 6.744 V 450 h 7.145 v 5.2 h 1.744 v 7.761 h 5.2 v 7.961 h -5.2 v 7.562 h 5.2 v 7.961 h -5.2 v 7.561 h 5.603 l -5.33,2.208 -14.264,-14.264 h -5.059 v 8.267 h 5.2 v 8.666 h -5.2 v 6.317 h -6.375 v 5 h 6.175 v -3.05 h 5.4 v 8.667 h -5.2 v 8.266 h 5.2 v 8.667 h -5.2 v 8.267 h 5.2 v 8.666 h -5.2 v 8.871 l -38.499,-93.354 h 5.249 v -10 h 1.744 V 450" />
  <path
     id="polyline13"
     style="fill:none;stroke:#000000;stroke-width:0.26458333;vector-effect:non-scaling-stroke;-inkscape-stroke:hairline;stroke-dasharray:none"
     d="m 755.66318,389.8 v 5 h -6.175 v -5 h 6.175 m 12.95,-48.354 v 8.871 h 5.2 v 8.666 h -5.2 v 8.267 h 5.2 v 8.667 h -5.2 v 8.266 h 5.2 v 8.667 h -5.4 v -3.05 h -6.175 v 5 h 6.375 v 6.317 h 5.2 v 8.666 h -5.2 v 8.267 h 5.059 l 14.264,-14.264 5.33,2.208 h -5.603 v 7.561 h 5.2 v 7.961 h -5.2 v 7.562 h 5.2 v 7.961 h -5.2 v 7.761 h -1.744 v 5.2 h -7.145 v -5.2 h -6.744 v 5.2 h -7.145 v -5.2 h -6.744 v 5.2 h -7.145 v -5.2 h -6.744 v 5.2 h -7.145 v -5.2 h -1.744 v -10 h -5.249 l 38.499,-93.354" />
  <path
     id="polyline2-3"
     style="fill:none;stroke:#000000;stroke-width:0.26458333;vector-effect:non-scaling-stroke;-inkscape-stroke:hairline;stroke-dasharray:none"
     d="m 773.68218,322.17563 h -6.175 v 5 h 6.175 v -5 m 12.381,-55.2 h -7.145 v 5.2 h -6.744 v -5.2 h -7.145 v 5.2 h -6.744 v -5.2 h -7.145 v 5.2 h -6.744 v -5.2 h -7.145 v 5.2 h -1.744 v 7.761 h -5.2 v 7.961 h 5.2 v 7.562 h -5.2 v 7.961 h 5.2 v 7.561 h -5.603 l 5.33,2.208 14.264,-14.264 h 5.059 v 8.267 h -5.2 v 8.666 h 5.2 v 6.317 h 6.375 v 5 h -6.175 v -3.05 h -5.4 v 8.667 h 5.2 v 8.266 h -5.2 v 8.667 h 5.2 v 8.267 h -5.2 v 8.666 h 5.2 v 8.871 l 38.499,-93.354 h -5.249 v -10 h -1.744 v -5.2" />
  <path
     id="polyline13-1"
     style="fill:none;stroke:#000000;stroke-width:0.26458333;vector-effect:non-scaling-stroke;-inkscape-stroke:hairline;stroke-dasharray:none"
     d="m 767.50718,572.82437 v 5 h 6.175 v -5 h -6.175 m -12.95,-48.354 v 8.871 h -5.2 v 8.666 h 5.2 v 8.267 h -5.2 v 8.667 h 5.2 v 8.266 h -5.2 v 8.667 h 5.4 v -3.05 h 6.175 v 5 h -6.375 v 6.317 h -5.2 v 8.666 h 5.2 v 8.267 h -5.059 l -14.264,-14.264 -5.33,2.208 h 5.603 v 7.561 h -5.2 v 7.961 h 5.2 v 7.562 h -5.2 v 7.961 h 5.2 v 7.761 h 1.744 v 5.2 h 7.145 v -5.2 h 6.744 v 5.2 h 7.145 v -5.2 h 6.744 v 5.2 h 7.145 v -5.2 h 6.744 v 5.2 h 7.145 v -5.2 h 1.744 v -10 h 5.249 l -38.499,-93.354" />
  <polyline
     z="0"
     points="438.277,499.054 438.277,491.092 443.477,491.092 443.477,483.531 438.277,483.531 438.277,475.57 704.277,475.57 704.277,483.531 699.077,483.531 699.077,491.092 704.277,491.092 704.277,499.054 699.077,499.054 699.077,506.615 704.277,506.615 704.277,514.576 686.557,514.576 686.557,519.776 668.637,519.776 668.637,514.576 651.117,514.576 651.117,519.776 633.197,519.776 633.197,514.576 615.677,514.576 615.677,519.776 597.757,519.776 597.757,514.576 580.237,514.576 580.237,519.776 562.317,519.776 562.317,514.576 544.797,514.576 544.797,519.776 526.877,519.776 526.877,514.576 509.357,514.576 509.357,519.776 491.437,519.776 491.437,514.576 473.917,514.576 473.917,519.776 455.997,519.776 455.997,514.576 438.277,514.576 438.277,506.615 443.477,506.615 443.477,499.054 438.277,499.054"
     fill="none"
     stroke="#000000"
     stroke-width="0.1mm"
     id="polyline3"
     transform="rotate(90,640.45174,386.1747)"
     style="vector-effect:non-scaling-stroke;-inkscape-stroke:hairline;stroke-width:0.26458333;stroke-dasharray:none" />
  <path
     id="polyline11"
     style="fill:none;stroke:#000000;stroke-width:0.26458333;vector-effect:non-scaling-stroke;-inkscape-stroke:hairline;stroke-dasharray:none"
     d="m 574.50644,219.43997 v -17.52 h 5 v 17.52 h -5 m 0,35.44 v -17.52 h 5 v 17.52 h -5 m 0,35.44 v -17.52 h 5 v 17.52 h -5 m 0,35.44 v -17.52 h 5 v 17.52 h -5 m 0,35.44 v -17.52 h 5 v 17.52 h -5 m 0,35.44 v -17.52 h 5 v 17.52 h -5 m 0,17.92 h 5 v 17.52 h -5 v -17.52 m -14.783,-225.36 h 8.266 v -5.2 h 8.667 v 5.2 h 8.267 v -5.2 h 8.666 v 5.2 h 8.267 v -5.2 h 8.667 v 5.2 h 8.266 v -5.2 h 8.667 v 266 h -8.667 v -5.2 h -8.266 v 5.2 h -8.667 v -5.2 h -8.267 v 5.2 h -8.666 v -5.2 h -8.267 v 5.2 h -8.667 v -5.2 h -8.266 v 5.2 h -8.667 v -266 h 8.667 v 5.2" />
  <path
     id="polyline26"
     style="fill:none;stroke:#000000;stroke-width:0.26458333;vector-effect:non-scaling-stroke;-inkscape-stroke:hairline;stroke-dasharray:none"
     d="m 696.22421,425.80004 h 5.08 l 2.541,4.4 -2.541,4.4 h -5.08 l -2.53999,-4.4 2.53999,-4.4 m 0,-19 h 5.08 l 2.541,4.4 -2.541,4.4 h -5.08 l -2.53999,-4.4 2.53999,-4.4 m 0,-19 h 5.08 l 2.541,4.4 -2.541,4.4 h -5.08 l -2.53999,-4.4 2.53999,-4.4 m 0,-19 h 5.08 l 2.541,4.4 -2.541,4.4 h -5.08 l -2.53999,-4.4 2.53999,-4.4 m 0,-19 h 5.08 l 2.541,4.4 -2.541,4.4 h -5.08 l -2.53999,-4.4 2.53999,-4.4 m -0.577,-21.4 h 6.234 l 3.119,5.4 -3.119,5.4 h -6.234 l -3.11799,-5.4 3.11799,-5.4 m 0,-21 h 6.234 l 3.119,5.4 -3.119,5.4 h -6.234 l -3.11799,-5.4 3.11799,-5.4 m 0,-21 h 6.234 l 3.119,5.4 -3.119,5.4 h -6.234 l -3.11799,-5.4 3.11799,-5.4 m 0,-21 h 6.234 l 3.119,5.4 -3.119,5.4 h -6.234 l -3.11799,-5.4 3.11799,-5.4 m 0,-21 h 6.234 l 3.119,5.4 -3.119,5.4 h -6.234 l -3.11799,-5.4 3.11799,-5.4 m 0,-21 h 6.234 l 3.119,5.4 -3.119,5.4 h -6.234 l -3.11799,-5.4 3.11799,-5.4 m -0.866,-24 h 7.966 l 3.98498,6.9 -3.98498,6.9 h -7.966 l -3.98399,-6.9 3.98399,-6.9 m 0.411,-15.4 h 7.144 v 5.2 h 6.74497 v -5.2 h 7.144 v 5.2 h 6.745 v -5.2 h 7.144 v 17.92 h -5.2 v 17.52 h 5.2 v 17.92 h -5.2 v 17.52 h 5.2 v 17.92 h -5.2 v 17.52 h 5.2 v 17.92 h -5.2 v 17.52 h 5.2 v 17.92 h -5.2 v 17.52 h 5.2 v 17.92 h -5.2 v 17.52 h 5.2 v 17.92 h -5.2 v 17.52 h 5.2 v 17.92 h -7.144 v -5.2 h -6.745 v 5.2 h -7.144 v -5.2 h -6.74497 v 5.2 h -7.144 v -5.2 h -6.74499 v 5.2 h -7.144 v -5.2 h -6.745 v 5.2 h -7.144 v -17.92 h 5.2 v -17.52 h -5.2 v -17.92 h 5.2 v -17.52 h -5.2 v -17.92 h 5.2 v -17.52 h -5.2 v -17.92 h 5.2 v -17.52 h -5.2 v -17.92 h 5.2 v -17.52 h -5.2 v -17.92 h 5.2 v -17.52 h -5.2 v -17.92 h 5.2 v -17.52 h -5.2 v -17.92 h 7.144 v 5.2 h 6.745 v -5.2 h 7.144 v 5.2 h 6.74499 v -5.2" />
  <polyline
     z="0"
     points="970.277,479.85 970.277,490.05 952.557,490.05 952.557,495.25 934.637,495.25 934.637,490.05 917.117,490.05 917.117,495.25 899.197,495.25 899.197,490.05 881.677,490.05 881.677,495.25 863.757,495.25 863.757,490.05 846.237,490.05 846.237,495.25 828.317,495.25 828.317,490.05 810.797,490.05 810.797,495.25 792.877,495.25 792.877,490.05 775.357,490.05 775.357,495.25 757.437,495.25 757.437,490.05 739.917,490.05 739.917,495.25 721.997,495.25 721.997,490.05 704.277,490.05 704.277,479.85 970.277,479.85"
     fill="none"
     stroke="#000000"
     stroke-width="0.1mm"
     id="polyline27"
     transform="rotate(90,833.75471,313.47771)"
     style="vector-effect:non-scaling-stroke;-inkscape-stroke:hairline;stroke-width:0.26458333;stroke-dasharray:none" />
  <polyline
     z="0"
     points="970.277,500.45 970.277,507.025 965.077,507.025 965.077,513.201 970.277,513.201 970.277,519.776 704.277,519.776 704.277,513.201 709.477,513.201 709.477,507.025 704.277,507.025 704.277,500.45 721.997,500.45 721.997,495.25 739.917,495.25 739.917,500.45 757.437,500.45 757.437,495.25 775.357,495.25 775.357,500.45 792.877,500.45 792.877,495.25 810.797,495.25 810.797,500.45 828.317,500.45 828.317,495.25 846.237,495.25 846.237,500.45 863.757,500.45 863.757,495.25 881.677,495.25 881.677,500.45 899.197,500.45 899.197,495.25 917.117,495.25 917.117,500.45 934.637,500.45 934.637,495.25 952.557,495.25 952.557,500.45 970.277,500.45"
     fill="none"
     stroke="#000000"
     stroke-width="0.1mm"
     id="polyline28"
     transform="rotate(90,833.75471,313.47771)"
     style="vector-effect:non-scaling-stroke;-inkscape-stroke:hairline;stroke-width:0.26458333;stroke-dasharray:none" />
  <polyline
     z="0"
     points="438.277,499.054 438.277,491.092 443.477,491.092 443.477,483.531 438.277,483.531 438.277,475.57 704.277,475.57 704.277,483.531 699.077,483.531 699.077,491.092 704.277,491.092 704.277,499.054 699.077,499.054 699.077,506.615 704.277,506.615 704.277,514.576 686.557,514.576 686.557,519.776 668.637,519.776 668.637,514.576 651.117,514.576 651.117,519.776 633.197,519.776 633.197,514.576 615.677,514.576 615.677,519.776 597.757,519.776 597.757,514.576 580.237,514.576 580.237,519.776 562.317,519.776 562.317,514.576 544.797,514.576 544.797,519.776 526.877,519.776 526.877,514.576 509.357,514.576 509.357,519.776 491.437,519.776 491.437,514.576 473.917,514.576 473.917,519.776 455.997,519.776 455.997,514.576 438.277,514.576 438.277,506.615 443.477,506.615 443.477,499.054 438.277,499.054"
     fill="none"
     stroke="#000000"
     stroke-width="0.1mm"
     id="polyline3-4"
     transform="rotate(90,507.45174,519.1747)"
     style="vector-effect:non-scaling-stroke;-inkscape-stroke:hairline;stroke-width:0.26458333;stroke-dasharray:none" />
  <path
     id="polyline11-7"
     style="fill:none;stroke:#000000;stroke-width:0.26458333;vector-effect:non-scaling-stroke;-inkscape-stroke:hairline;stroke-dasharray:none"
     d="m 574.50644,485.43997 v -17.52 h 5 v 17.52 h -5 m 0,35.44 v -17.52 h 5 v 17.52 h -5 m 0,35.44 v -17.52 h 5 v 17.52 h -5 m 0,35.44 v -17.52 h 5 v 17.52 h -5 m 0,35.44 v -17.52 h 5 v 17.52 h -5 m 0,35.44 v -17.52 h 5 v 17.52 h -5 m 0,17.92 h 5 v 17.52 h -5 v -17.52 m -14.783,-225.36 h 8.266 v -5.2 h 8.667 v 5.2 h 8.267 v -5.2 h 8.666 v 5.2 h 8.267 v -5.2 h 8.667 v 5.2 h 8.266 v -5.2 h 8.667 v 266 h -8.667 v -5.2 h -8.266 v 5.2 h -8.667 v -5.2 h -8.267 v 5.2 h -8.666 v -5.2 h -8.267 v 5.2 h -8.667 v -5.2 h -8.266 v 5.2 h -8.667 v -266 h 8.667 v 5.2" />
  <path
     id="polyline26-8"
     style="fill:none;stroke:#000000;stroke-width:0.26458333;vector-effect:non-scaling-stroke;-inkscape-stroke:hairline;stroke-dasharray:none"
     d="m 696.22421,691.80004 h 5.08 l 2.541,4.4 -2.541,4.4 h -5.08 l -2.53999,-4.4 2.53999,-4.4 m 0,-19 h 5.08 l 2.541,4.4 -2.541,4.4 h -5.08 l -2.53999,-4.4 2.53999,-4.4 m 0,-19 h 5.08 l 2.541,4.4 -2.541,4.4 h -5.08 l -2.53999,-4.4 2.53999,-4.4 m 0,-19 h 5.08 l 2.541,4.4 -2.541,4.4 h -5.08 l -2.53999,-4.4 2.53999,-4.4 m 0,-19 h 5.08 l 2.541,4.4 -2.541,4.4 h -5.08 l -2.53999,-4.4 2.53999,-4.4 m -0.577,-21.4 h 6.234 l 3.119,5.4 -3.119,5.4 h -6.234 l -3.11799,-5.4 3.11799,-5.4 m 0,-21 h 6.234 l 3.119,5.4 -3.119,5.4 h -6.234 l -3.11799,-5.4 3.11799,-5.4 m 0,-21 h 6.234 l 3.119,5.4 -3.119,5.4 h -6.234 l -3.11799,-5.4 3.11799,-5.4 m 0,-21 h 6.234 l 3.119,5.4 -3.119,5.4 h -6.234 l -3.11799,-5.4 3.11799,-5.4 m 0,-21 h 6.234 l 3.119,5.4 -3.119,5.4 h -6.234 l -3.11799,-5.4 3.11799,-5.4 m 0,-21 h 6.234 l 3.119,5.4 -3.119,5.4 h -6.234 l -3.11799,-5.4 3.11799,-5.4 m -0.866,-24 h 7.966 l 3.98498,6.9 -3.98498,6.9 h -7.966 l -3.98399,-6.9 3.98399,-6.9 m 0.411,-15.4 h 7.144 v 5.2 h 6.74497 v -5.2 h 7.144 v 5.2 h 6.745 v -5.2 h 7.144 v 17.92 h -5.2 v 17.52 h 5.2 v 17.92 h -5.2 v 17.52 h 5.2 v 17.92 h -5.2 v 17.52 h 5.2 v 17.92 h -5.2 v 17.52 h 5.2 v 17.92 h -5.2 v 17.52 h 5.2 v 17.92 h -5.2 v 17.52 h 5.2 v 17.92 h -5.2 v 17.52 h 5.2 v 17.92 h -7.144 v -5.2 h -6.745 v 5.2 h -7.144 v -5.2 h -6.74497 v 5.2 h -7.144 v -5.2 h -6.74499 v 5.2 h -7.144 v -5.2 h -6.745 v 5.2 h -7.144 v -17.92 h 5.2 v -17.52 h -5.2 v -17.92 h 5.2 v -17.52 h -5.2 v -17.92 h 5.2 v -17.52 h -5.2 v -17.92 h 5.2 v -17.52 h -5.2 v -17.92 h 5.2 v -17.52 h -5.2 v -17.92 h 5.2 v -17.52 h -5.2 v -17.92 h 5.2 v -17.52 h -5.2 v -17.92 h 7.144 v 5.2 h 6.745 v -5.2 h 7.144 v 5.2 h 6.74499 v -5.2" />
  <polyline
     z="0"
     points="970.277,479.85 970.277,490.05 952.557,490.05 952.557,495.25 934.637,495.25 934.637,490.05 917.117,490.05 917.117,495.25 899.197,495.25 899.197,490.05 881.677,490.05 881.677,495.25 863.757,495.25 863.757,490.05 846.237,490.05 846.237,495.25 828.317,495.25 828.317,490.05 810.797,490.05 810.797,495.25 792.877,495.25 792.877,490.05 775.357,490.05 775.357,495.25 757.437,495.25 757.437,490.05 739.917,490.05 739.917,495.25 721.997,495.25 721.997,490.05 704.277,490.05 704.277,479.85 970.277,479.85"
     fill="none"
     stroke="#000000"
     stroke-width="0.1mm"
     id="polyline27-4"
     transform="rotate(90,700.75467,446.47771)"
     style="vector-effect:non-scaling-stroke;-inkscape-stroke:hairline;stroke-width:0.26458333;stroke-dasharray:none" />
  <polyline
     z="0"
     points="970.277,500.45 970.277,507.025 965.077,507.025 965.077,513.201 970.277,513.201 970.277,519.776 704.277,519.776 704.277,513.201 709.477,513.201 709.477,507.025 704.277,507.025 704.277,500.45 721.997,500.45 721.997,495.25 739.917,495.25 739.917,500.45 757.437,500.45 757.437,495.25 775.357,495.25 775.357,500.45 792.877,500.45 792.877,495.25 810.797,495.25 810.797,500.45 828.317,500.45 828.317,495.25 846.237,495.25 846.237,500.45 863.757,500.45 863.757,495.25 881.677,495.25 881.677,500.45 899.197,500.45 899.197,495.25 917.117,495.25 917.117,500.45 934.637,500.45 934.637,495.25 952.557,495.25 952.557,500.45 970.277,500.45"
     fill="none"
     stroke="#000000"
     stroke-width="0.1mm"
     id="polyline28-5"
     transform="rotate(90,700.75467,446.47771)"
     style="vector-effect:non-scaling-stroke;-inkscape-stroke:hairline;stroke-width:0.26458333;stroke-dasharray:none" />
</svg>
