Cleat Wall Organization Equipment
Copyright (C) 2025  Corporate Hacks

This program is free software: you can redistribute it and/or modify
it under the terms of the GNU General Public License as published by
the Free Software Foundation, either version 3 of the License, or
(at your option) any later version.

This program is distributed in the hope that it will be useful,
but WITHOUT ANY WARRANTY; without even the implied warranty of
MERCHANTABILITY or FITNESS FOR A PARTICULAR PURPOSE.  See the
GNU General Public License for more details.

You should have received a copy of the GNU General Public License
along with this program.  If not, see <http://www.gnu.org/licenses/>.


<svg xmlns="http://www.w3.org/2000/svg" width="1300mm" height="900mm" viewBox="0 0 1300 900">
    <path fill="none" stroke="#000" stroke-width=".1mm" d="M523.701 499.75h10.309v-5.2h10.36v5.2h9.96v-5.2h10.36v5.2h9.96v-5.059l-14.264-14.264 2.041-4.927h13.102v5.2h12.736v-5.2H601.4v9.878h5.2v10.078h-5.2v9.677h5.2v10.078h-5.2v9.678h5.2v10.078h-5.2v9.677h5.2v10.078h-5.2v9.878h-10.14l-67.559-64.85" style="vector-effect:non-scaling-stroke;stroke-width:.264583;stroke-dasharray:none;-inkscape-stroke:hairline" transform="rotate(90 626.992 470.392)"/>
    <path fill="none" stroke="#000" stroke-width=".1mm" d="M611.8 475.5h13.135v5.2h12.736v-5.2h13.102l2.041 4.927-14.264 14.264v5.059h9.96v-5.2h10.36v5.2h9.96v-5.2h10.36v5.2h10.309L621.94 564.6H611.8v-9.878h-5.2v-10.078h5.2v-9.677h-5.2v-10.078h5.2v-9.678h-5.2v-10.078h5.2v-9.677h-5.2v-10.078h5.2V475.5" style="vector-effect:non-scaling-stroke;stroke-width:.264583;stroke-dasharray:none;-inkscape-stroke:hairline" transform="rotate(90 626.992 470.392)"/>
    <path fill="none" stroke="#000" stroke-width=".1mm" d="M523.701 499.75h10.309v-5.2h10.36v5.2h9.96v-5.2h10.36v5.2h9.96v-5.059l-14.264-14.264 2.041-4.927h13.102v5.2h12.736v-5.2H601.4v9.878h5.2v10.078h-5.2v9.677h5.2v10.078h-5.2v9.678h5.2v10.078h-5.2v9.677h5.2v10.078h-5.2v9.878h-10.14l-67.559-64.85" style="vector-effect:non-scaling-stroke;stroke-width:.264583;stroke-dasharray:none;-inkscape-stroke:hairline" transform="rotate(-90 496.005 477.696)"/>
    <path fill="none" stroke="#000" stroke-width=".1mm" d="M611.8 475.5h13.135v5.2h12.736v-5.2h13.102l2.041 4.927-14.264 14.264v5.059h9.96v-5.2h10.36v5.2h9.96v-5.2h10.36v5.2h10.309L621.94 564.6H611.8v-9.878h-5.2v-10.078h5.2v-9.677h-5.2v-10.078h5.2v-9.678h-5.2v-10.078h5.2v-9.677h-5.2v-10.078h5.2V475.5" style="vector-effect:non-scaling-stroke;stroke-width:.264583;stroke-dasharray:none;-inkscape-stroke:hairline" transform="rotate(-90 578.904 560.595)"/>
    <path fill="none" stroke="#000" stroke-width=".1mm" d="M523.701 475.5v-10.36h5.2v-9.96h-5.2v-10.36h5.2v-9.96h-5.2V424.5h86.8v10.36h-5.2v9.96h5.2v10.36h-5.2v9.96h5.2v10.36h-86.8M523.701 424.5v-10.078h5.2v-9.678h-5.2v-10.077h5.2v-9.678h-5.2v-10.078h5.2v-9.678h-5.2v-10.077h5.2v-9.678h-5.2V335.4h9.822v5.2h9.422v-5.2h9.823v5.2h9.422v-5.2h9.822v5.2h9.422v-5.2h9.823v5.2h9.422v-5.2h9.822v10.078h-5.2v9.678h5.2v10.077h-5.2v9.678h5.2v10.078h-5.2v9.678h5.2v10.077h-5.2v9.678h5.2V424.5h-5.302l-1.563-.076-1.551-.231-1.521-.381-1.476-.527-1.417-.671-1.345-.806-1.259-.934-1.161-1.053-1.054-1.161-.934-1.259-.805-1.346-.671-1.417-.527-1.476-.382-1.52-.23-1.551-.077-1.564v-17.025l-.06-1.237-.182-1.223-.3-1.2-.417-1.164-.529-1.118-.635-1.06-.737-.993-.83-.916-.916-.831-.993-.737-1.061-.635-1.118-.528-1.164-.417-1.199-.301-1.223-.181-1.238-.061h-19.045l-1.238.061-1.223.181-1.199.301-1.164.417-1.118.528-1.061.635-.993.737-.916.831-.83.916-.737.993-.635 1.06-.529 1.118-.417 1.164-.3 1.2-.182 1.223-.061 1.237v17.025l-.076 1.564-.23 1.551-.382 1.52-.527 1.476-.67 1.417-.806 1.346-.934 1.259-1.054 1.161-1.161 1.053-1.259.934-1.345.806-1.417.671-1.477.527-1.52.381-1.551.231-1.563.076h-5.303" style="vector-effect:non-scaling-stroke;stroke-width:.264583;stroke-dasharray:none;-inkscape-stroke:hairline" transform="rotate(-90 630.093 343.608)"/>
    <path fill="none" stroke="#000" stroke-width=".1mm" d="M694.699 520.394h76.4v12.935h5.2v13.136h-5.2V559.4h-4.422v5.2h-9.822v-5.2h-9.423v5.2h-9.822v-5.2h-9.422v5.2h-9.822v-5.2h-9.423v5.2h-9.822v-5.2h-4.422v-12.935h-5.2v-13.136h5.2v-12.935" style="vector-effect:non-scaling-stroke;stroke-width:.264583;stroke-dasharray:none;-inkscape-stroke:hairline" transform="rotate(-90 690.545 448.954)"/>
    <path fill="none" stroke="#000" stroke-width=".1mm" d="M523.701 475.5v-10.36h5.2v-9.96h-5.2v-10.36h5.2v-9.96h-5.2V424.5h86.8v10.36h-5.2v9.96h5.2v10.36h-5.2v9.96h5.2v10.36h-86.8M523.701 424.5v-10.078h5.2v-9.678h-5.2v-10.077h5.2v-9.678h-5.2v-10.078h5.2v-9.678h-5.2v-10.077h5.2v-9.678h-5.2V335.4h9.822v5.2h9.422v-5.2h9.823v5.2h9.422v-5.2h9.822v5.2h9.422v-5.2h9.823v5.2h9.422v-5.2h9.822v10.078h-5.2v9.678h5.2v10.077h-5.2v9.678h5.2v10.078h-5.2v9.678h5.2v10.077h-5.2v9.678h5.2V424.5h-5.302l-1.563-.076-1.551-.231-1.521-.381-1.476-.527-1.417-.671-1.345-.806-1.259-.934-1.161-1.053-1.054-1.161-.934-1.259-.805-1.346-.671-1.417-.527-1.476-.382-1.52-.23-1.551-.077-1.564v-17.025l-.06-1.237-.182-1.223-.3-1.2-.417-1.164-.529-1.118-.635-1.06-.737-.993-.83-.916-.916-.831-.993-.737-1.061-.635-1.118-.528-1.164-.417-1.199-.301-1.223-.181-1.238-.061h-19.045l-1.238.061-1.223.181-1.199.301-1.164.417-1.118.528-1.061.635-.993.737-.916.831-.83.916-.737.993-.635 1.06-.529 1.118-.417 1.164-.3 1.2-.182 1.223-.061 1.237v17.025l-.076 1.564-.23 1.551-.382 1.52-.527 1.476-.67 1.417-.806 1.346-.934 1.259-1.054 1.161-1.161 1.053-1.259.934-1.345.806-1.417.671-1.477.527-1.52.381-1.551.231-1.563.076h-5.303" style="vector-effect:non-scaling-stroke;stroke-width:.264583;stroke-dasharray:none;-inkscape-stroke:hairline" transform="rotate(-90 673.493 387.008)"/>
    <path fill="none" stroke="#000" stroke-width=".1mm" d="M694.699 520.394h76.4v12.935h5.2v13.136h-5.2V559.4h-4.422v5.2h-9.822v-5.2h-9.423v5.2h-9.822v-5.2h-9.422v5.2h-9.822v-5.2h-9.423v5.2h-9.822v-5.2h-4.422v-12.935h-5.2v-13.136h5.2v-12.935" style="vector-effect:non-scaling-stroke;stroke-width:.264583;stroke-dasharray:none;-inkscape-stroke:hairline" transform="rotate(-90 733.945 492.354)"/>
</svg>
