Cleat Wall Organization Equipment
Copyright (C) 2025  Corporate Hacks

This program is free software: you can redistribute it and/or modify
it under the terms of the GNU General Public License as published by
the Free Software Foundation, either version 3 of the License, or
(at your option) any later version.

This program is distributed in the hope that it will be useful,
but WITHOUT ANY WARRANTY; without even the implied warranty of
MERCHANTABILITY or FITNESS FOR A PARTICULAR PURPOSE.  See the
GNU General Public License for more details.

You should have received a copy of the GNU General Public License
along with this program.  If not, see <http://www.gnu.org/licenses/>.


<svg xmlns="http://www.w3.org/2000/svg" width="1300mm" height="900mm" viewBox="0 0 1300 900">
    <path fill="none" stroke="#000" stroke-width=".1mm" d="M598.024 347.995h35.031l9.201 5.113-4.233 7.618-4.546-2.526-.2.36-4.545-2.526-4.24 7.629 4.37 2.429.401-.722 4.72 2.623-4.233 7.618-4.545-2.526-.601 1.082-4.546-2.526-4.239 7.629 4.37 2.429.802-1.444 4.72 2.623-4.233 7.618-4.545-2.526-1.003 1.804-4.545-2.526-4.24 7.629 4.371 2.429 1.203-2.166 4.72 2.623-4.213 7.582h-15.202v-57.35" style="vector-effect:non-scaling-stroke;stroke-width:.264583;stroke-dasharray:none;-inkscape-stroke:hairline" transform="rotate(90 647.378 292.343)"/>
    <path fill="none" stroke="#000" stroke-width=".1mm" d="m657.744 571.039 9.201-5.113h35.031v57.35h-15.202l-4.213-7.582 4.72-2.623 1.203 2.166 4.371-2.429-4.24-7.629-4.545 2.525-1.003-1.804-4.545 2.527-4.233-7.618 4.72-2.623.802 1.444 4.37-2.429-4.239-7.63-4.546 2.527-.601-1.082-4.545 2.526-4.233-7.618 4.72-2.623.401.722 4.37-2.429-4.24-7.629-4.545 2.526-.2-.361-4.546 2.526-4.233-7.617" style="vector-effect:non-scaling-stroke;stroke-width:.264583;stroke-dasharray:none;-inkscape-stroke:hairline" transform="rotate(90 741.296 326.54)"/>
    <path fill="none" stroke="#000" stroke-width=".1mm" d="M598.024 347.995h35.031l9.201 5.113-4.233 7.618-4.546-2.526-.2.36-4.545-2.526-4.24 7.629 4.37 2.429.401-.722 4.72 2.623-4.233 7.618-4.545-2.526-.601 1.082-4.546-2.526-4.239 7.629 4.37 2.429.802-1.444 4.72 2.623-4.233 7.618-4.545-2.526-1.003 1.804-4.545-2.526-4.24 7.629 4.371 2.429 1.203-2.166 4.72 2.623-4.213 7.582h-15.202v-57.35" style="vector-effect:non-scaling-stroke;stroke-width:.264583;stroke-dasharray:none;-inkscape-stroke:hairline" transform="rotate(-90 519.58 365.665)"/>
    <path fill="none" stroke="#000" stroke-width=".1mm" d="m657.744 571.039 9.201-5.113h35.031v57.35h-15.202l-4.213-7.582 4.72-2.623 1.203 2.166 4.371-2.429-4.24-7.629-4.545 2.525-1.003-1.804-4.545 2.527-4.233-7.618 4.72-2.623.802 1.444 4.37-2.429-4.239-7.63-4.546 2.527-.601-1.082-4.545 2.526-4.233-7.618 4.72-2.623.401.722 4.37-2.429-4.24-7.629-4.545 2.526-.2-.361-4.546 2.526-4.233-7.617" style="vector-effect:non-scaling-stroke;stroke-width:.264583;stroke-dasharray:none;-inkscape-stroke:hairline" transform="rotate(-90 395.567 549.398)"/>
    <path d="m824.721 626.151-7.99 4.44-2.429-4.37 7.99-4.44 2.43 4.37m16.327-9.074-7.989 4.44-2.429-4.37 7.99-4.44 2.428 4.37m16.33-9.074-7.99 4.44-2.43-4.371 7.99-4.44 2.43 4.371m5.873 8.894v-9.779h5v9.779h-5m-62.836 4.914 62.836-34.92v10.049h5v-9.979h14.05v14.669h5.2v14.868h-5.2v14.469h5.603l-5.33 2.208-14.123-14.123v8.023h-5.2v9.779h5.2v10.178h-5.2v4.779h-12.47v5.2h-12.67v-5.2h-12.27v5.2h-12.67v-5.2h-7.27v-10h-5.2v-10.2h5.2v-9.8h-5.486M737.804 568.85l-2.429 4.37-7.99-4.44 2.43-4.37 7.99 4.44m16.327 9.075-2.429 4.37-7.989-4.44 2.43-4.37 7.988 4.44m16.33 9.074-2.43 4.37-7.99-4.44 2.43-4.37 7.99 4.44m5.873-8.894h5v9.779h-5v-9.78m-62.55-24.913h5.2v-10h7.27v-5.2h12.67v5.2h12.27v-5.2h12.67v5.2h12.47v4.779h5.2v10.178h-5.2v9.779h5.2v8.023l14.122-14.123 5.331 2.208h-5.603v14.469h5.2v14.868h-5.2v14.669h-14.05v-9.98h-5v10.05L713.5 573.19h5.486v-9.8h-5.2v-10.2" style="vector-effect:non-scaling-stroke;fill:none;stroke:#000;stroke-width:.264583;-inkscape-stroke:hairline"/>
    <path d="m863.6 568.85 7.99-4.44 2.43 4.37-7.99 4.44-2.43-4.37m-16.328 9.075 7.99-4.44 2.428 4.37-7.989 4.44-2.429-4.37m-16.329 9.074 7.99-4.44 2.43 4.37-7.99 4.44-2.43-4.37m-5.874-8.894v9.779h-5v-9.78h5m62.836-4.913-62.836 34.92v-10.05h-5v9.98h-14.05v-14.67h-5.2v-14.867h5.2v-14.47h-5.603l5.33-2.207 14.123 14.123v-8.023h5.2v-9.78h-5.2V547.97h5.2v-4.78h12.47v-5.2h12.67v5.2h12.27v-5.2h12.67v5.2h7.27v10h5.2v10.2h-5.2v9.8h5.486M776.683 626.151l2.43-4.37 7.99 4.44-2.43 4.37-7.99-4.44m-16.328-9.074 2.43-4.37 7.988 4.44-2.429 4.37-7.989-4.44m-16.329-9.074 2.43-4.371 7.99 4.44-2.43 4.371-7.99-4.44m-5.874 8.894h-5v-9.779h5v9.779m62.55 24.914h-5.2v10h-7.27v5.2h-12.67v-5.2h-12.27v5.2h-12.67v-5.2h-12.47v-4.779h-5.2v-10.178h5.2v-9.779h-5.2v-8.023l-14.122 14.123-5.33-2.208h5.602v-14.469h-5.2V601.63h5.2v-14.669h14.05v9.979h5v-10.049l62.836 34.92h-5.486v9.8h5.2v10.2" style="vector-effect:non-scaling-stroke;fill:none;stroke:#000;stroke-width:.264583;-inkscape-stroke:hairline"/>
    <path fill="none" stroke="#000" stroke-width=".1mm" d="M415.974 642.526v-14.05h11.332v-5.2h16.732v5.2h16.331v-5.2h16.732v5.2h16.332v-5.2h16.732v5.2h16.332v-5.2h16.732v5.2h16.331v-5.2h16.732v5.2h11.332v14.05h-11.332v5.2H559.56v-5.2h-16.331v5.2h-16.732v-5.2h-16.332v5.2h-16.732v-5.2h-16.332v5.2h-16.732v-5.2h-16.331v5.2h-16.732v-5.2h-11.332" style="vector-effect:non-scaling-stroke;stroke-width:.264583;stroke-dasharray:none;-inkscape-stroke:hairline" transform="rotate(-90 331.832 543.013)"/>
    <path fill="none" stroke="#000" stroke-width=".1mm" d="M415.974 642.526v-14.05h11.332v-5.2h16.732v5.2h16.331v-5.2h16.732v5.2h16.332v-5.2h16.732v5.2h16.332v-5.2h16.732v5.2h16.331v-5.2h16.732v5.2h11.332v14.05h-11.332v5.2H559.56v-5.2h-16.331v5.2h-16.732v-5.2h-16.332v5.2h-16.732v-5.2h-16.332v5.2h-16.732v-5.2h-16.331v5.2h-16.732v-5.2h-11.332" style="vector-effect:non-scaling-stroke;stroke-width:.264583;stroke-dasharray:none;-inkscape-stroke:hairline" transform="rotate(90 508.462 551.359)"/>
    <path fill="none" stroke="#000" stroke-width=".1mm" d="M486.094 596.494v-9.128h5.2v-8.727h-5.2v-9.128h5.2v-8.927h161.25v8.927h5.2v9.128h-5.2v8.727h5.2v9.128h-5.2v8.727h5.2v9.128h-5.2v8.927h-161.25v-8.927h-5.2v-9.128h5.2v-8.727h-5.2" style="vector-effect:non-scaling-stroke;stroke-width:.264583;stroke-dasharray:none;-inkscape-stroke:hairline" transform="rotate(180 685.765 549.287)"/>
    <path d="m858.951 420.49 1.168-2.022h2.334l1.168 2.022-1.168 2.022h-2.334l-1.168-2.022m-24.67 0 1.168-2.022h2.334l1.168 2.022-1.168 2.022h-2.334l-1.168-2.022m-24.67 0 1.167-2.022h2.334l1.168 2.022-1.168 2.022h-2.334l-1.168-2.022m-24.67 0 1.168-2.022h2.334l1.168 2.022-1.168 2.022h-2.334l-1.168-2.022m-24.67 0 1.167-2.022h2.334l1.168 2.022-1.168 2.022h-2.334l-1.168-2.022m-20 0-1.168 2.022h-2.334l-1.168-2.022 1.168-2.022h2.334l1.168 2.022m131.018 7.122 1.168-2.022h2.334l1.168 2.022-1.168 2.022h-2.334l-1.168-2.022m-24.67 0 1.167-2.022h2.334l1.168 2.022-1.168 2.022h-2.334l-1.168-2.022m-24.67 0 1.168-2.022h2.334l1.168 2.022-1.168 2.022h-2.334l-1.168-2.022m-24.67 0 1.167-2.022h2.334l1.168 2.022-1.168 2.022h-2.334l-1.168-2.022m-24.67 0 1.167-2.022h2.334l1.168 2.022-1.168 2.022h-2.334l-1.168-2.022m-24.67 0 1.168-2.022h2.334l1.168 2.022-1.168 2.022h-2.334l-1.168-2.022m-20 0-1.169 2.022h-2.334l-1.168-2.022 1.168-2.022h2.334l1.168 2.022m131.018 7.122 1.168-2.022h2.334l1.168 2.022-1.168 2.021h-2.334l-1.168-2.021m-24.67 0 1.168-2.022h2.334l1.168 2.022-1.168 2.021h-2.334l-1.168-2.021m-24.67 0 1.167-2.022h2.334l1.168 2.022-1.168 2.021h-2.334l-1.168-2.021m-24.67 0 1.168-2.022h2.334l1.168 2.022-1.168 2.021h-2.334l-1.168-2.021m-24.67 0 1.167-2.022h2.334l1.168 2.022-1.168 2.021h-2.334l-1.168-2.021m-20 0-1.168 2.021h-2.334l-1.168-2.021 1.168-2.022h2.334l1.168 2.022m131.018 7.121 1.168-2.021h2.334l1.168 2.021-1.168 2.022h-2.334l-1.168-2.022m-24.67 0 1.167-2.021h2.334l1.168 2.021-1.168 2.022h-2.334l-1.168-2.022m-24.67 0 1.168-2.021h2.334l1.168 2.021-1.168 2.022h-2.334l-1.168-2.022m-24.67 0 1.167-2.021h2.334l1.168 2.021-1.168 2.022h-2.334l-1.168-2.022m-24.67 0 1.167-2.021h2.334l1.168 2.021-1.168 2.022h-2.334l-1.168-2.022m-24.67 0 1.168-2.021h2.334l1.168 2.021-1.168 2.022h-2.334l-1.168-2.022m-20 0-1.169 2.022h-2.334l-1.168-2.022 1.168-2.021h2.334l1.168 2.021m131.018 7.122 1.168-2.022h2.334l1.168 2.022-1.168 2.022h-2.334l-1.168-2.022m-24.67 0 1.168-2.022h2.334l1.168 2.022-1.168 2.022h-2.334l-1.168-2.022m-24.67 0 1.167-2.022h2.334l1.168 2.022-1.168 2.022h-2.334l-1.168-2.022m-24.67 0 1.168-2.022h2.334l1.168 2.022-1.168 2.022h-2.334l-1.168-2.022m-24.67 0 1.167-2.022h2.334l1.168 2.022-1.168 2.022h-2.334l-1.168-2.022m-20 0-1.168 2.022h-2.334l-1.168-2.022 1.168-2.022h2.334l1.168 2.022m131.018 7.122 1.168-2.022h2.334l1.168 2.022-1.168 2.022h-2.334l-1.168-2.022m-24.67 0 1.167-2.022h2.334l1.168 2.022-1.168 2.022h-2.334l-1.168-2.022m-24.67 0 1.168-2.022h2.334l1.168 2.022-1.168 2.022h-2.334l-1.168-2.022m-24.67 0 1.167-2.022h2.334l1.168 2.022-1.168 2.022h-2.334l-1.168-2.022m-24.67 0 1.167-2.022h2.334l1.168 2.022-1.168 2.022h-2.334l-1.168-2.022m-24.67 0 1.168-2.022h2.334l1.168 2.022-1.168 2.022h-2.334l-1.168-2.022m-20 0-1.169 2.022h-2.334l-1.168-2.022 1.168-2.022h2.334l1.168 2.022m131.018 7.122 1.168-2.022h2.334l1.168 2.022-1.168 2.021h-2.334l-1.168-2.021m-24.67 0 1.168-2.022h2.334l1.168 2.022-1.168 2.021h-2.334l-1.168-2.021m-24.67 0 1.167-2.022h2.334l1.168 2.022-1.168 2.021h-2.334l-1.168-2.021m-24.67 0 1.168-2.022h2.334l1.168 2.022-1.168 2.021h-2.334l-1.168-2.021m-24.67 0 1.167-2.022h2.334l1.168 2.022-1.168 2.021h-2.334l-1.168-2.021m-21.168-2.022 1.168 2.022-1.168 2.021h-2.334l-1.168-2.021 1.168-2.022h2.334m83.285-48.593-.44.762 1.168 2.022h2.334l1.167-2.022-.44-.762h20.882l-.44.762 1.167 2.022h2.334l1.168-2.022-.44-.762h20.881l-.44.762 1.168 2.022h2.334l1.167-2.022-.44-.762h9.92v3.09h-5.2v8.314h5.2v8.715h-5.2v8.315h5.2v8.714h-5.2v8.315h5.2v8.715h-5.2v8.514h-161.25v-8.514h-5.2v-8.715h5.2v-8.315h-5.2v-8.714h5.2v-8.315h-5.2v-8.715h5.2v-8.314h-5.2v-3.09h9.918l-.44.762 1.167 2.022h2.334l1.168-2.022-.44-.762h20.881l-.44.762 1.168 2.022h2.334l1.167-2.022-.44-.762h20.882l-.44.762 1.167 2.022h2.334l1.168-2.022-.44-.762h20.881l-.44.762 1.168 2.022h2.334l1.168-2.022-.44-.762h20.881" style="vector-effect:non-scaling-stroke;fill:none;stroke:#000;stroke-width:.264583;-inkscape-stroke:hairline"/>
    <path fill="none" stroke="#000" stroke-width=".1mm" d="M486.094 596.494v-9.128h5.2v-8.727h-5.2v-9.128h5.2v-8.927h161.25v8.927h5.2v9.128h-5.2v8.727h5.2v9.128h-5.2v8.727h5.2v9.128h-5.2v8.927h-161.25v-8.927h-5.2v-9.128h5.2v-8.727h-5.2" style="vector-effect:non-scaling-stroke;stroke-width:.264583;stroke-dasharray:none;-inkscape-stroke:hairline" transform="translate(227.691 -273.363)"/>
    <path d="m740.27 404.722-1.169 2.022h-2.334l-1.168-2.023 1.168-2.022h2.334l1.168 2.022m24.67 0-1.168 2.022h-2.334l-1.168-2.022 1.168-2.022h2.334l1.168 2.022m24.671 0-1.168 2.022h-2.334l-1.168-2.022 1.168-2.022h2.334l1.168 2.022m24.67 0-1.168 2.022h-2.334l-1.168-2.022 1.168-2.022h2.334l1.168 2.022m24.671 0-1.168 2.022h-2.334l-1.168-2.022 1.168-2.022h2.334l1.168 2.022m20 0 1.168-2.022h2.334l1.168 2.022-1.168 2.022h-2.334l-1.168-2.022M727.933 397.6l-1.168 2.022h-2.334l-1.168-2.022 1.168-2.022h2.334l1.168 2.022m24.671 0-1.168 2.022h-2.334l-1.168-2.022 1.168-2.022h2.334l1.168 2.022m24.67 0-1.168 2.022h-2.334l-1.168-2.022 1.168-2.022h2.334l1.168 2.022m24.671 0-1.168 2.022h-2.334l-1.168-2.022 1.168-2.022h2.334l1.168 2.022m24.671 0-1.168 2.022h-2.334l-1.168-2.022 1.168-2.022h2.334l1.168 2.022m24.67 0-1.168 2.022h-2.334l-1.168-2.022 1.168-2.022h2.334l1.168 2.022m20.001 0 1.168-2.022h2.334l1.168 2.022-1.168 2.022h-2.334l-1.168-2.022m-131.018-7.122-1.168 2.022h-2.334l-1.168-2.022 1.168-2.02h2.334l1.168 2.02m24.67 0-1.168 2.022h-2.334l-1.168-2.022 1.168-2.02h2.334l1.168 2.02m24.671 0-1.168 2.022h-2.334l-1.168-2.022 1.168-2.02h2.334l1.168 2.02m24.67 0-1.168 2.022h-2.334l-1.168-2.022 1.168-2.02h2.334l1.168 2.02m24.671 0-1.168 2.022h-2.334l-1.168-2.022 1.168-2.02h2.334l1.168 2.02m20 0 1.168-2.02h2.334l1.168 2.02-1.168 2.022h-2.334l-1.168-2.022m-131.018-7.12-1.168 2.02h-2.334l-1.168-2.02 1.168-2.023h2.334l1.168 2.022m24.671 0-1.168 2.021h-2.334l-1.168-2.02 1.168-2.023h2.334l1.168 2.022m24.67 0-1.168 2.021h-2.334l-1.168-2.02 1.168-2.023h2.334l1.168 2.022m24.671 0-1.168 2.021h-2.334l-1.168-2.02 1.168-2.023h2.334l1.168 2.022m24.671 0-1.168 2.021h-2.334l-1.168-2.02 1.168-2.023h2.334l1.168 2.022m24.67 0-1.168 2.021h-2.334l-1.168-2.02 1.168-2.023h2.334l1.168 2.022m20.001 0 1.168-2.022h2.334l1.168 2.022-1.168 2.021h-2.334l-1.168-2.02m-131.018-7.123-1.168 2.022h-2.334l-1.168-2.022 1.168-2.022h2.334l1.168 2.022m24.67 0-1.168 2.022h-2.334l-1.168-2.022 1.168-2.022h2.334l1.168 2.022m24.671 0-1.168 2.022h-2.334l-1.168-2.022 1.168-2.022h2.334l1.168 2.022m24.67 0-1.168 2.022h-2.334l-1.168-2.022 1.168-2.022h2.334l1.168 2.022m24.671 0-1.168 2.022h-2.334l-1.168-2.022 1.168-2.022h2.334l1.168 2.022m20 0 1.168-2.022h2.334l1.168 2.022-1.168 2.022h-2.334l-1.168-2.022m-131.018-7.122-1.168 2.022h-2.334l-1.168-2.022 1.168-2.022h2.334l1.168 2.022m24.671 0-1.168 2.022h-2.334l-1.168-2.022 1.168-2.022h2.334l1.168 2.022m24.67 0-1.168 2.022h-2.334l-1.168-2.022 1.168-2.022h2.334l1.168 2.022m24.671 0-1.168 2.022h-2.334l-1.168-2.022 1.168-2.022h2.334l1.168 2.022m24.671 0-1.168 2.022h-2.334l-1.168-2.022 1.168-2.022h2.334l1.168 2.022m24.67 0-1.168 2.022h-2.334l-1.168-2.022 1.168-2.022h2.334l1.168 2.022m20.001 0 1.168-2.022h2.334l1.168 2.022-1.168 2.022h-2.334l-1.168-2.022M740.27 361.99l-1.168 2.022h-2.334l-1.168-2.022 1.168-2.02h2.334l1.168 2.02m24.67 0-1.168 2.022h-2.334l-1.168-2.022 1.168-2.02h2.334l1.168 2.02m24.671 0-1.168 2.022h-2.334l-1.168-2.022 1.168-2.02h2.334l1.168 2.02m24.67 0-1.168 2.022h-2.334l-1.168-2.022 1.168-2.02h2.334l1.168 2.02m24.671 0-1.168 2.022h-2.334l-1.168-2.022 1.168-2.02h2.334l1.168 2.02m21.168 2.022-1.168-2.022 1.168-2.02h2.334l1.168 2.02-1.168 2.022h-2.334m-83.285 48.593.44-.762-1.168-2.022h-2.334l-1.167 2.022.44.762h-20.882l.441-.762-1.168-2.022h-2.334l-1.168 2.022.44.762h-20.88l.44-.762-1.169-2.022h-2.334l-1.167 2.022.44.762h-9.919v-3.09h5.2v-8.314h-5.2v-8.715h5.2v-8.315h-5.2v-8.714h5.2v-8.315h-5.2v-8.715h5.2v-8.514h161.25v8.514h5.2v8.715h-5.2v8.315h5.2v8.714h-5.2v8.315h5.2v8.715h-5.2v8.314h5.2v3.09h-9.919l.441-.762-1.168-2.022h-2.334l-1.168 2.022.44.762h-20.88l.44-.762-1.169-2.022h-2.334l-1.167 2.022.44.762h-20.882l.441-.762-1.168-2.022h-2.334l-1.168 2.022.44.762h-20.88l.44-.762-1.169-2.022h-2.334l-1.168 2.022.44.762h-20.88" style="vector-effect:non-scaling-stroke;fill:none;stroke:#000;stroke-width:.264583;-inkscape-stroke:hairline"/>
    <path fill="none" stroke="#000" stroke-width=".1mm" d="M482.101 535.787v-5.2h-16.332v5.2h-16.731v-5.2h-16.332v5.2h-16.732v-12.67h5.2v-12.27h-5.2v-12.67h5.2v-12.27h-5.2v-12.67h16.532v-5.2h16.732v5.2h16.331v-5.2h16.732v5.2h16.332v-5.2h16.732v5.2h16.332v-5.2h16.732v5.2h16.331v-5.2h16.732v5.2h16.532v12.67h-5.2v12.27h5.2v12.67h-5.2v12.27h5.2v12.67h-16.732v-5.2H564.96v5.2h-16.731v-5.2h-16.332v5.2h-16.732v-5.2h-16.332v5.2h-16.732" style="vector-effect:non-scaling-stroke;stroke-width:.264583;stroke-dasharray:none;-inkscape-stroke:hairline" transform="rotate(-90 459.668 425.577)"/>
    <path d="m443.087 306.569-2.022-1.168v-2.334l2.022-1.168 2.022 1.168v2.334l-2.022 1.168m0 24.671-2.022-1.168v-2.334l2.022-1.168 2.022 1.168v2.334l-2.022 1.168m0 24.67-2.022-1.168v-2.334l2.022-1.168 2.022 1.168v2.334l-2.022 1.168m0 24.671-2.022-1.168v-2.334l2.022-1.168 2.022 1.168v2.334l-2.022 1.168m0 24.671-2.022-1.168v-2.334l2.022-1.168 2.022 1.168v2.334l-2.022 1.168m0 24.67-2.022-1.168v-2.334l2.022-1.168 2.022 1.168v2.334l-2.022 1.168m0 20.001 2.022 1.168v2.334l-2.022 1.168-2.022-1.168v-2.334l2.022-1.168m7.122-131.018-2.022-1.168v-2.334l2.022-1.168 2.022 1.168v2.334l-2.022 1.168m0 24.67-2.022-1.168v-2.334l2.022-1.168 2.022 1.168v2.334l-2.022 1.168m0 24.671-2.022-1.168v-2.334l2.022-1.168 2.022 1.168v2.334l-2.022 1.168m0 24.67-2.022-1.168v-2.334l2.022-1.168 2.022 1.168v2.334l-2.022 1.168m0 24.671-2.022-1.168v-2.334l2.022-1.168 2.022 1.168v2.334l-2.022 1.168m0 20 2.022 1.168v2.334l-2.022 1.168-2.022-1.168v-2.334l2.022-1.168m7.122-131.018-2.022-1.168v-2.334l2.022-1.168 2.02 1.168v2.334l-2.02 1.168m0 24.671-2.022-1.168v-2.334l2.022-1.168 2.02 1.168v2.334l-2.02 1.168m0 24.67-2.022-1.168v-2.334l2.022-1.168 2.02 1.168v2.334l-2.02 1.168m0 24.671-2.022-1.168v-2.334l2.022-1.168 2.02 1.168v2.334l-2.02 1.168m0 24.671-2.022-1.168v-2.334l2.022-1.168 2.02 1.168v2.334l-2.02 1.168m0 24.67-2.022-1.168v-2.334l2.022-1.168 2.02 1.168v2.334l-2.02 1.168m0 20.001 2.02 1.168v2.334l-2.02 1.168-2.022-1.168v-2.334l2.022-1.168m7.12-131.018-2.02-1.168v-2.334l2.02-1.168 2.023 1.168v2.334l-2.022 1.168m0 24.67-2.021-1.168v-2.334l2.02-1.168 2.023 1.168v2.334l-2.022 1.168m0 24.671-2.021-1.168v-2.334l2.02-1.168 2.023 1.168v2.334l-2.022 1.168m0 24.67-2.021-1.168v-2.334l2.02-1.168 2.023 1.168v2.334l-2.022 1.168m0 24.671-2.021-1.168v-2.334l2.02-1.168 2.023 1.168v2.334l-2.022 1.168m0 20 2.022 1.168v2.334l-2.022 1.168-2.021-1.168v-2.334l2.02-1.168m7.123-131.018-2.022-1.168v-2.334l2.022-1.168 2.022 1.168v2.334l-2.022 1.168m0 24.671-2.022-1.168v-2.334l2.022-1.168 2.022 1.168v2.334l-2.022 1.168m0 24.67-2.022-1.168v-2.334l2.022-1.168 2.022 1.168v2.334l-2.022 1.168m0 24.671-2.022-1.168v-2.334l2.022-1.168 2.022 1.168v2.334l-2.022 1.168m0 24.671-2.022-1.168v-2.334l2.022-1.168 2.022 1.168v2.334l-2.022 1.168m0 24.67-2.022-1.168v-2.334l2.022-1.168 2.022 1.168v2.334l-2.022 1.168m0 20.001 2.022 1.168v2.334l-2.022 1.168-2.022-1.168v-2.334l2.022-1.168m7.122-131.018-2.022-1.168v-2.334l2.022-1.168 2.022 1.168v2.334l-2.022 1.168m0 24.67-2.022-1.168v-2.334l2.022-1.168 2.022 1.168v2.334l-2.022 1.168m0 24.671-2.022-1.168v-2.334l2.022-1.168 2.022 1.168v2.334l-2.022 1.168m0 24.67-2.022-1.168v-2.334l2.022-1.168 2.022 1.168v2.334l-2.022 1.168m0 24.671-2.022-1.168v-2.334l2.022-1.168 2.022 1.168v2.334l-2.022 1.168m0 20 2.022 1.168v2.334l-2.022 1.168-2.022-1.168v-2.334l2.022-1.168m7.122-131.018-2.022-1.168v-2.334l2.022-1.168 2.02 1.168v2.334l-2.02 1.168m0 24.671-2.022-1.168v-2.334l2.022-1.168 2.02 1.168v2.334l-2.02 1.168m0 24.67-2.022-1.168v-2.334l2.022-1.168 2.02 1.168v2.334l-2.02 1.168m0 24.671-2.022-1.168v-2.334l2.022-1.168 2.02 1.168v2.334l-2.02 1.168m0 24.671-2.022-1.168v-2.334l2.022-1.168 2.02 1.168v2.334l-2.02 1.168m0 24.67-2.022-1.168v-2.334l2.022-1.168 2.02 1.168v2.334l-2.02 1.168m0 20.001 2.02 1.168v2.334l-2.02 1.168-2.022-1.168v-2.334l2.022-1.168m7.12-131.018-2.02-1.168v-2.334l2.02-1.168 2.023 1.168v2.334l-2.022 1.168m0 24.67-2.021-1.168v-2.334l2.02-1.168 2.023 1.168v2.334l-2.022 1.168m0 24.671-2.021-1.168v-2.334l2.02-1.168 2.023 1.168v2.334l-2.022 1.168m0 24.67-2.021-1.168v-2.334l2.02-1.168 2.023 1.168v2.334l-2.022 1.168m0 24.671-2.021-1.168v-2.334l2.02-1.168 2.023 1.168v2.334l-2.022 1.168m0 20 2.022 1.168v2.334l-2.022 1.168-2.021-1.168v-2.334l2.02-1.168m-56.393-145.166h9.34v-5.2h9.54v5.2h9.14v-5.2h9.54v5.2h9.14v-5.2h9.542v5.2h9.34v171.65h-9.34v5.2h-9.541v-5.2h-9.14v5.2h-9.54v-5.2h-9.14v5.2h-9.541v-5.2h-9.34v-171.65" style="vector-effect:non-scaling-stroke;fill:none;stroke:#000;stroke-width:.264583;-inkscape-stroke:hairline"/>
    <path fill="none" stroke="#000" stroke-width=".1mm" d="M604.356 415.835v5.2h16.332v-5.2h16.731v5.2h16.332v-5.2h16.732v5.2h16.332v-5.2h16.732v5.2h16.332v-5.2h16.731v5.2h16.332v-5.2h16.732v10.178h-5.2v9.779h5.2v10.178h-5.2v9.779h5.2v10.178h-5.2v2.11h-171.65v-2.11h-5.2v-10.178h5.2v-9.779h-5.2v-10.178h5.2v-9.779h-5.2v-10.178h16.732" style="vector-effect:non-scaling-stroke;stroke-width:.264583;stroke-dasharray:none;-inkscape-stroke:hairline" transform="rotate(90 675.208 374.805)"/>
    <path fill="none" stroke="#000" stroke-width=".1mm" d="M598.024 491.581h182.05v14.869h-5.2v14.468h5.2v14.869h-16.732v-5.2H747.01v5.2h-16.731v-5.2h-16.332v5.2h-16.732v-5.2h-16.332v5.2h-16.732v-5.2h-16.332v5.2h-16.731v-5.2h-16.332v5.2h-16.732v-14.869h5.2V506.45h-5.2v-14.869" style="vector-effect:non-scaling-stroke;stroke-width:.264583;stroke-dasharray:none;-inkscape-stroke:hairline" transform="rotate(90 740.384 429.581)"/>
    <path fill="none" stroke="#000" stroke-width=".1mm" d="M701.976 593.076h16.532v-5.2h16.732v5.2h16.331v-5.2h16.732v5.2h16.332v-5.2h16.732v5.2h16.332v-5.2h16.732v5.2h16.331v-5.2h16.732v5.2h16.532v10.2h-5.2v9.8h5.2v10.2h-182.05v-10.2h5.2v-9.8h-5.2v-10.2" style="vector-effect:non-scaling-stroke;stroke-width:.264583;stroke-dasharray:none;-inkscape-stroke:hairline" transform="rotate(90 858.208 443.453)"/>
    <path fill="none" stroke="#000" stroke-width=".1mm" d="M703.547 642.526v5.2h-16.732v-5.2h-16.332v5.2h-16.732v-5.2h-16.332v5.2h-16.731v-5.2h-16.332v5.2h-16.732v-10.179h5.2v-1.919h171.65v1.919h5.2v10.179h-16.732v-5.2H736.61v5.2h-16.731v-5.2h-16.332" style="vector-effect:non-scaling-stroke;stroke-width:.264583;stroke-dasharray:none;-inkscape-stroke:hairline" transform="rotate(90 759.003 458.6)"/>
    <path fill="none" stroke="#000" stroke-width=".1mm" d="M482.101 535.787v-5.2h-16.332v5.2h-16.731v-5.2h-16.332v5.2h-16.732v-12.67h5.2v-12.27h-5.2v-12.67h5.2v-12.27h-5.2v-12.67h16.532v-5.2h16.732v5.2h16.331v-5.2h16.732v5.2h16.332v-5.2h16.732v5.2h16.332v-5.2h16.732v5.2h16.331v-5.2h16.732v5.2h16.532v12.67h-5.2v12.27h5.2v12.67h-5.2v12.27h5.2v12.67h-16.732v-5.2H564.96v5.2h-16.731v-5.2h-16.332v5.2h-16.732v-5.2h-16.332v5.2h-16.732" style="vector-effect:non-scaling-stroke;stroke-width:.264583;stroke-dasharray:none;-inkscape-stroke:hairline" transform="rotate(-90 550.693 516.602)"/>
    <path d="m443.087 488.619-2.022-1.168v-2.334l2.022-1.168 2.022 1.168v2.334l-2.022 1.168m0 24.67-2.022-1.167v-2.334l2.022-1.168 2.022 1.168v2.334l-2.022 1.168m0 24.67-2.022-1.168v-2.334l2.022-1.168 2.022 1.168v2.334l-2.022 1.168m0 24.67-2.022-1.167v-2.334l2.022-1.168 2.022 1.168v2.334l-2.022 1.168m0 24.671-2.022-1.168V583.8l2.022-1.168 2.022 1.168v2.334l-2.022 1.168m0 24.67-2.022-1.168v-2.334l2.022-1.168 2.022 1.168v2.334l-2.022 1.168m0 20 2.022 1.169v2.334l-2.022 1.168-2.022-1.168v-2.334l2.022-1.168m7.122-131.018-2.022-1.168v-2.334l2.022-1.168 2.022 1.168v2.334l-2.022 1.168m0 24.67-2.022-1.168v-2.334l2.022-1.168 2.022 1.168v2.334l-2.022 1.168m0 24.671-2.022-1.168v-2.334l2.022-1.168 2.022 1.168v2.334l-2.022 1.168m0 24.67-2.022-1.168v-2.334l2.022-1.168 2.022 1.168v2.334l-2.022 1.168m0 24.67-2.022-1.167v-2.334l2.022-1.168 2.022 1.168v2.334l-2.022 1.168m0 20 2.022 1.168v2.334l-2.022 1.168-2.022-1.168v-2.334l2.022-1.168m7.122-131.018-2.022-1.168v-2.334l2.022-1.168 2.02 1.168v2.334l-2.02 1.168m0 24.671-2.022-1.168v-2.334l2.022-1.168 2.02 1.168v2.334l-2.02 1.168m0 24.67-2.022-1.168v-2.334l2.022-1.168 2.02 1.168v2.334l-2.02 1.168m0 24.671-2.022-1.168v-2.334l2.022-1.168 2.02 1.168v2.334l-2.02 1.168m0 24.671-2.022-1.168V583.8l2.022-1.168 2.02 1.168v2.334l-2.02 1.168m0 24.67-2.022-1.168v-2.334l2.022-1.168 2.02 1.168v2.334l-2.02 1.168m0 20 2.02 1.169v2.334l-2.02 1.168-2.022-1.168v-2.334l2.022-1.168m7.12-131.018-2.02-1.168v-2.334l2.02-1.168 2.023 1.168v2.334l-2.022 1.168m0 24.67-2.021-1.168v-2.334l2.02-1.168 2.023 1.168v2.334l-2.022 1.168m0 24.671-2.021-1.168v-2.334l2.02-1.168 2.023 1.168v2.334l-2.022 1.168m0 24.67-2.021-1.168v-2.334l2.02-1.168 2.023 1.168v2.334l-2.022 1.168m0 24.67-2.021-1.167v-2.334l2.02-1.168 2.023 1.168v2.334l-2.022 1.168m0 20 2.022 1.168v2.334l-2.022 1.168-2.021-1.168v-2.334l2.02-1.168m7.123-131.018-2.022-1.168v-2.334l2.022-1.168 2.022 1.168v2.334l-2.022 1.168m0 24.671-2.022-1.168v-2.334l2.022-1.168 2.022 1.168v2.334l-2.022 1.168m0 24.67-2.022-1.168v-2.334l2.022-1.168 2.022 1.168v2.334l-2.022 1.168m0 24.671-2.022-1.168v-2.334l2.022-1.168 2.022 1.168v2.334l-2.022 1.168m0 24.671-2.022-1.168V583.8l2.022-1.168 2.022 1.168v2.334l-2.022 1.168m0 24.67-2.022-1.168v-2.334l2.022-1.168 2.022 1.168v2.334l-2.022 1.168m0 20 2.022 1.169v2.334l-2.022 1.168-2.022-1.168v-2.334l2.022-1.168m7.122-131.018-2.022-1.168v-2.334l2.022-1.168 2.022 1.168v2.334l-2.022 1.168m0 24.67-2.022-1.168v-2.334l2.022-1.168 2.022 1.168v2.334l-2.022 1.168m0 24.671-2.022-1.168v-2.334l2.022-1.168 2.022 1.168v2.334l-2.022 1.168m0 24.67-2.022-1.168v-2.334l2.022-1.168 2.022 1.168v2.334l-2.022 1.168m0 24.67-2.022-1.167v-2.334l2.022-1.168 2.022 1.168v2.334l-2.022 1.168m0 20 2.022 1.168v2.334l-2.022 1.168-2.022-1.168v-2.334l2.022-1.168m7.122-131.018-2.022-1.168v-2.334l2.022-1.168 2.02 1.168v2.334l-2.02 1.168m0 24.671-2.022-1.168v-2.334l2.022-1.168 2.02 1.168v2.334l-2.02 1.168m0 24.67-2.022-1.168v-2.334l2.022-1.168 2.02 1.168v2.334l-2.02 1.168m0 24.671-2.022-1.168v-2.334l2.022-1.168 2.02 1.168v2.334l-2.02 1.168m0 24.671-2.022-1.168V583.8l2.022-1.168 2.02 1.168v2.334l-2.02 1.168m0 24.67-2.022-1.168v-2.334l2.022-1.168 2.02 1.168v2.334l-2.02 1.168m0 20 2.02 1.169v2.334l-2.02 1.168-2.022-1.168v-2.334l2.022-1.168m7.12-131.018-2.02-1.168v-2.334l2.02-1.168 2.023 1.168v2.334l-2.022 1.168m0 24.67-2.021-1.168v-2.334l2.02-1.168 2.023 1.168v2.334l-2.022 1.168m0 24.671-2.021-1.168v-2.334l2.02-1.168 2.023 1.168v2.334l-2.022 1.168m0 24.67-2.021-1.168v-2.334l2.02-1.168 2.023 1.168v2.334l-2.022 1.168m0 24.67-2.021-1.167v-2.334l2.02-1.168 2.023 1.168v2.334l-2.022 1.168m0 20 2.022 1.168v2.334l-2.022 1.168-2.021-1.168v-2.334l2.02-1.168M436.546 474.47h9.34v-5.2h9.54v5.2h9.14v-5.2h9.54v5.2h9.14v-5.2h9.542v5.2h9.34v171.65h-9.34v5.2h-9.541v-5.2h-9.14v5.2h-9.54v-5.2h-9.14v5.2h-9.541v-5.2h-9.34v-171.65" style="vector-effect:non-scaling-stroke;fill:none;stroke:#000;stroke-width:.264583;-inkscape-stroke:hairline"/>
    <path fill="none" stroke="#000" stroke-width=".1mm" d="M604.356 415.835v5.2h16.332v-5.2h16.731v5.2h16.332v-5.2h16.732v5.2h16.332v-5.2h16.732v5.2h16.332v-5.2h16.731v5.2h16.332v-5.2h16.732v10.178h-5.2v9.779h5.2v10.178h-5.2v9.779h5.2v10.178h-5.2v2.11h-171.65v-2.11h-5.2v-10.178h5.2v-9.779h-5.2v-10.178h5.2v-9.779h-5.2v-10.178h16.732" style="vector-effect:non-scaling-stroke;stroke-width:.264583;stroke-dasharray:none;-inkscape-stroke:hairline" transform="rotate(90 584.183 465.83)"/>
    <path fill="none" stroke="#000" stroke-width=".1mm" d="M598.024 491.581h182.05v14.869h-5.2v14.468h5.2v14.869h-16.732v-5.2H747.01v5.2h-16.731v-5.2h-16.332v5.2h-16.732v-5.2h-16.332v5.2h-16.732v-5.2h-16.332v5.2h-16.731v-5.2h-16.332v5.2h-16.732v-14.869h5.2V506.45h-5.2v-14.869" style="vector-effect:non-scaling-stroke;stroke-width:.264583;stroke-dasharray:none;-inkscape-stroke:hairline" transform="rotate(90 649.36 520.606)"/>
    <path fill="none" stroke="#000" stroke-width=".1mm" d="M701.976 593.076h16.532v-5.2h16.732v5.2h16.331v-5.2h16.732v5.2h16.332v-5.2h16.732v5.2h16.332v-5.2h16.732v5.2h16.331v-5.2h16.732v5.2h16.532v10.2h-5.2v9.8h5.2v10.2h-182.05v-10.2h5.2v-9.8h-5.2v-10.2" style="vector-effect:non-scaling-stroke;stroke-width:.264583;stroke-dasharray:none;-inkscape-stroke:hairline" transform="rotate(90 767.183 534.478)"/>
    <path fill="none" stroke="#000" stroke-width=".1mm" d="M703.547 642.526v5.2h-16.732v-5.2h-16.332v5.2h-16.732v-5.2h-16.332v5.2h-16.731v-5.2h-16.332v5.2h-16.732v-10.179h5.2v-1.919h171.65v1.919h5.2v10.179h-16.732v-5.2H736.61v5.2h-16.731v-5.2h-16.332" style="vector-effect:non-scaling-stroke;stroke-width:.264583;stroke-dasharray:none;-inkscape-stroke:hairline" transform="rotate(90 667.978 549.625)"/>
</svg>
