<!--
Cleat Wall Organization Equipment
Copyright (C) 2025  Corporate Hacks

This program is free software: you can redistribute it and/or modify
it under the terms of the GNU General Public License as published by
the Free Software Foundation, either version 3 of the License, or
(at your option) any later version.

This program is distributed in the hope that it will be useful,
but WITHOUT ANY WARRANTY; without even the implied warranty of
MERCHANTABILITY or FITNESS FOR A PARTICULAR PURPOSE.  See the
GNU General Public License for more details.

You should have received a copy of the GNU General Public License
along with this program.  If not, see <http://www.gnu.org/licenses/>.
-->

<svg xmlns="http://www.w3.org/2000/svg" width="1300mm" height="900mm" viewBox="0 0 1300 900">
    <path fill="none" stroke="#000" stroke-width=".1mm" d="m562.002 366.693 9.68-4.12h36.513v76.4H592.77l-4.451-10.457 4.968-2.115.743 1.745 4.601-1.957-4.432-10.411-4.785 2.036-.619-1.454-4.783 2.036-4.465-10.487 4.968-2.116.496 1.164 4.6-1.958-4.431-10.411-4.784 2.037-.372-.873-4.785 2.037-4.465-10.488 4.969-2.116.248.582 4.6-1.957-4.432-10.411-4.783 2.036-.124-.291-4.785 2.037-4.465-10.488" style="vector-effect:non-scaling-stroke;stroke-width:.264583;stroke-dasharray:none;-inkscape-stroke:hairline" transform="rotate(-90 413.572 402.023)"/>
    <path fill="none" stroke="#000" stroke-width=".1mm" d="m691.805 531.902 9.679-4.121h36.514v76.4h-15.425l-4.451-10.456 4.968-2.115.743 1.745 4.601-1.957-4.432-10.411-4.785 2.036-.619-1.454-4.784 2.036-4.464-10.487 4.968-2.116.496 1.164 4.6-1.958-4.432-10.411-4.784 2.037-.372-.873-4.785 2.037-4.464-10.488 4.969-2.116.248.582 4.6-1.957-4.432-10.411-4.784 2.036-.124-.291-4.785 2.037-4.464-10.488" style="vector-effect:non-scaling-stroke;stroke-width:.264583;stroke-dasharray:none;-inkscape-stroke:hairline" transform="rotate(90 751.532 267.127)"/>
    <path fill="none" stroke="#000" stroke-width=".1mm" d="m562.002 366.693 9.68-4.12h36.513v76.4H592.77l-4.451-10.457 4.968-2.115.743 1.745 4.601-1.957-4.432-10.411-4.785 2.036-.619-1.454-4.783 2.036-4.465-10.487 4.968-2.116.496 1.164 4.6-1.958-4.431-10.411-4.784 2.037-.372-.873-4.785 2.037-4.465-10.488 4.969-2.116.248.582 4.6-1.957-4.432-10.411-4.783 2.036-.124-.291-4.785 2.037-4.465-10.488" style="vector-effect:non-scaling-stroke;stroke-width:.264583;stroke-dasharray:none;-inkscape-stroke:hairline" transform="matrix(0 1 1 0 128.305 -354.603)"/>
    <path fill="none" stroke="#000" stroke-width=".1mm" d="m691.805 531.902 9.679-4.121h36.514v76.4h-15.425l-4.451-10.456 4.968-2.115.743 1.745 4.601-1.957-4.432-10.411-4.785 2.036-.619-1.454-4.784 2.036-4.464-10.487 4.968-2.116.496 1.164 4.6-1.958-4.432-10.411-4.784 2.037-.372-.873-4.785 2.037-4.464-10.488 4.969-2.116.248.582 4.6-1.957-4.432-10.411-4.784 2.036-.124-.291-4.785 2.037-4.464-10.488" style="vector-effect:non-scaling-stroke;stroke-width:.264583;stroke-dasharray:none;-inkscape-stroke:hairline" transform="matrix(0 -1 -1 0 1135.415 945.397)"/>
    <path fill="none" stroke="#000" stroke-width=".1mm" d="M516.267 604.181v5.2h16.23v-5.2h16.631v5.2h16.231v-5.2h16.631v5.2h16.23v-5.2h16.631v5.2h16.231v-5.2h16.631v5.2h16.23v-5.2h16.631v5.2h11.231v14.05h-11.231v5.2h-16.631v-5.2h-16.23v5.2h-16.631v-5.2h-16.231v5.2H598.22v-5.2h-16.23v5.2h-16.631v-5.2h-16.231v5.2h-16.631v-5.2h-16.23v5.2h-16.631v-5.2h-11.231v-14.05h11.231v-5.2h16.631" style="vector-effect:non-scaling-stroke;stroke-width:.264583;stroke-dasharray:none;-inkscape-stroke:hairline" transform="rotate(-90 357.67 587.728)"/>
    <path fill="none" stroke="#000" stroke-width=".1mm" d="M516.267 604.181v5.2h16.23v-5.2h16.631v5.2h16.231v-5.2h16.631v5.2h16.23v-5.2h16.631v5.2h16.231v-5.2h16.631v5.2h16.23v-5.2h16.631v5.2h11.231v14.05h-11.231v5.2h-16.631v-5.2h-16.23v5.2h-16.631v-5.2h-16.231v5.2H598.22v-5.2h-16.23v5.2h-16.631v-5.2h-16.231v5.2h-16.631v-5.2h-16.23v5.2h-16.631v-5.2h-11.231v-14.05h11.231v-5.2h16.631" style="vector-effect:non-scaling-stroke;stroke-width:.264583;stroke-dasharray:none;-inkscape-stroke:hairline" transform="rotate(90 517.083 485.67)"/>
    <path d="m741.961 607.552-1.959 4.6-10.701-4.555 1.958-4.6 10.702 4.555m21.772 9.268-1.959 4.6-10.702-4.555 1.959-4.601 10.702 4.556m11.069 4.712 10.702 4.556-1.959 4.6-10.701-4.556 1.958-4.6m-52.196-44.726h9.822v5.2h9.423v-5.2h9.822v5.2h9.422v-5.2h9.822v5.2h9.423v-5.2h9.822v5.2h4.422v12.93h5.2v13.13h-5.2v12.73h5v-5.831l14.322-14.323 5.33 2.208h-5.602v14.469h5.2v14.868h-5.2v14.669h-14.05v-11.303h-5v11.354l-81.99-34.901h5.59v-9.8h-5.2v-10.2h5.2v-10h4.422v-5.2M846.644 657.254l1.959 4.6-10.702 4.555-1.958-4.6 10.701-4.555m21.772-9.268 1.959 4.6-10.702 4.556-1.959-4.6 10.702-4.556m21.771-9.267 1.959 4.6-10.702 4.555-1.958-4.6 10.701-4.555m11.039-16.22v11.355h5V622.55h14.05v14.669h5.2v14.868h-5.2v14.469h5.602l-5.33 2.208-14.322-14.323v-5.831h-5v12.73h5.2v13.13h-5.2v12.93h-4.422v5.2h-9.822v-5.2h-9.423v5.2h-9.822v-5.2h-9.422v5.2h-9.822v-5.2h-9.423v5.2h-9.822v-5.2h-4.422v-10h-5.2v-10.2h5.2v-9.8h-5.59l81.99-34.902" style="vector-effect:non-scaling-stroke;fill:none;stroke:#000;stroke-width:.264583;-inkscape-stroke:hairline"/>
    <path d="m789.869 661.855 1.959-4.601 10.701 4.556-1.958 4.6-10.702-4.555m-21.772-9.268 1.959-4.601 10.702 4.556-1.959 4.6-10.702-4.555m-11.069-4.712-10.702-4.556 1.959-4.6 10.701 4.556-1.958 4.6m52.196 44.726h-9.822v-5.2h-9.423v5.2h-9.822v-5.2h-9.422v5.2h-9.822v-5.2h-9.423v5.2h-9.822v-5.2h-4.422v-12.93h-5.2v-13.13h5.2v-12.73h-5v5.83l-14.322 14.324-5.33-2.208h5.602v-14.47h-5.2V637.22h5.2v-14.67h14.05v11.304h5V622.5l81.99 34.9h-5.59v9.8h5.2v10.2h-5.2v10h-4.422v5.2M898.47 612.152l-1.959-4.601 10.702-4.554 1.958 4.599-10.701 4.556m-21.772 9.268-1.959-4.601 10.702-4.555 1.959 4.6-10.702 4.556m-21.771 9.267-1.959-4.6 10.702-4.555 1.958 4.599-10.701 4.556m-11.039 16.22v-11.355h-5v11.303h-14.05v-14.67h-5.2v-14.867h5.2v-14.47h-5.602l5.33-2.207 14.322 14.323v5.83h5v-12.73h-5.2v-13.13h5.2v-12.93h4.422v-5.2h9.822v5.2h9.423v-5.2h9.822v5.2h9.422v-5.2h9.822v5.2h9.423v-5.2h9.822v5.2h4.422v10h5.2v10.2h-5.2v9.8h5.59l-81.99 34.903M896.373 422.392l1.817-3.148h3.635l1.817 3.148-1.817 3.148h-3.635l-1.817-3.148m-28.571 0 1.817-3.148h3.635l1.817 3.148-1.817 3.148h-3.635l-1.817-3.148m-28.57 0 1.817-3.148h3.635l1.817 3.148-1.817 3.148h-3.635l-1.817-3.148m-28.571 0 1.817-3.148h3.635l1.817 3.148-1.817 3.148h-3.635l-1.817-3.148m-28.571 0 1.817-3.148h3.635l1.817 3.148-1.817 3.148h-3.635l-1.817-3.148m-28.57 0 1.817-3.148h3.635l1.817 3.148-1.817 3.148h-3.635l-1.817-3.148m-21.302 0-1.817 3.148h-3.635l-1.817-3.148 1.817-3.148h3.635l1.817 3.148m149.869 8.248 1.817-3.148h3.635l1.817 3.148-1.817 3.147h-3.635l-1.817-3.147m-28.57 0 1.817-3.148h3.635l1.817 3.148-1.817 3.147h-3.635l-1.817-3.147m-28.571 0 1.817-3.148h3.635l1.817 3.148-1.817 3.147h-3.635l-1.817-3.147m-28.57 0 1.817-3.148h3.635l1.817 3.148-1.817 3.147h-3.635l-1.817-3.147m-28.571 0 1.817-3.148h3.635l1.817 3.148-1.817 3.147h-3.635l-1.817-3.147m-21.301 0-1.817 3.147h-3.635l-1.817-3.147 1.817-3.148h3.635l1.817 3.148m149.869 8.247 1.817-3.147h3.635l1.817 3.147-1.817 3.148h-3.635l-1.817-3.148m-28.571 0 1.817-3.147h3.635l1.817 3.147-1.817 3.148h-3.635l-1.817-3.148m-28.57 0 1.817-3.147h3.635l1.817 3.147-1.817 3.148h-3.635l-1.817-3.148m-28.571 0 1.817-3.147h3.635l1.817 3.147-1.817 3.148h-3.635l-1.817-3.148m-28.571 0 1.817-3.147h3.635l1.817 3.147-1.817 3.148h-3.635l-1.817-3.148m-28.57 0 1.817-3.147h3.635l1.817 3.147-1.817 3.148h-3.635l-1.817-3.148m-21.302 0-1.817 3.148h-3.635l-1.817-3.148 1.817-3.147h3.635l1.817 3.147m149.869 8.248 1.817-3.148h3.635l1.817 3.148-1.817 3.147h-3.635l-1.817-3.147m-28.57 0 1.817-3.148h3.635l1.817 3.148-1.817 3.147h-3.635l-1.817-3.147m-28.571 0 1.817-3.148h3.635l1.817 3.148-1.817 3.147h-3.635l-1.817-3.147m-28.57 0 1.817-3.148h3.635l1.817 3.148-1.817 3.147h-3.635l-1.817-3.147m-28.571 0 1.817-3.148h3.635l1.817 3.148-1.817 3.147h-3.635l-1.817-3.147m-21.301 0-1.817 3.147h-3.635l-1.817-3.147 1.817-3.148h3.635l1.817 3.148m149.869 8.247 1.817-3.147h3.635l1.817 3.147-1.817 3.148h-3.635l-1.817-3.148m-28.571 0 1.817-3.147h3.635l1.817 3.147-1.817 3.148h-3.635l-1.817-3.148m-28.57 0 1.817-3.147h3.635l1.817 3.147-1.817 3.148h-3.635l-1.817-3.148m-28.571 0 1.817-3.147h3.635l1.817 3.147-1.817 3.148h-3.635l-1.817-3.148m-28.571 0 1.817-3.147h3.635l1.817 3.147-1.817 3.148h-3.635l-1.817-3.148m-28.57 0 1.817-3.147h3.635l1.817 3.147-1.817 3.148h-3.635l-1.817-3.148m-21.302 0-1.817 3.148h-3.635l-1.817-3.148 1.817-3.147h3.635l1.817 3.147m149.869 8.248 1.817-3.148h3.635l1.817 3.148-1.817 3.148h-3.635l-1.817-3.148m-28.57 0 1.817-3.148h3.635l1.817 3.148-1.817 3.148h-3.635l-1.817-3.148m-28.571 0 1.817-3.148h3.635l1.817 3.148-1.817 3.148h-3.635l-1.817-3.148m-28.57 0 1.817-3.148h3.635l1.817 3.148-1.817 3.148h-3.635l-1.817-3.148m-28.571 0 1.817-3.148h3.635l1.817 3.148-1.817 3.148h-3.635l-1.817-3.148m-21.301 0-1.817 3.148h-3.635l-1.817-3.148 1.817-3.148h3.635l1.817 3.148m149.869 8.248 1.817-3.148h3.635l1.817 3.148-1.817 3.147h-3.635l-1.817-3.147m-28.571 0 1.817-3.148h3.635l1.817 3.148-1.817 3.147h-3.635l-1.817-3.147m-28.57 0 1.817-3.148h3.635l1.817 3.148-1.817 3.147h-3.635l-1.817-3.147m-28.571 0 1.817-3.148h3.635l1.817 3.148-1.817 3.147h-3.635l-1.817-3.147m-28.571 0 1.817-3.148h3.635l1.817 3.148-1.817 3.147h-3.635l-1.817-3.147m-28.57 0 1.817-3.148h3.635l1.817 3.148-1.817 3.147h-3.635l-1.817-3.147m-21.302 0-1.817 3.147h-3.635l-1.817-3.147 1.817-3.148h3.635l1.817 3.148m149.869 8.247 1.817-3.147h3.635l1.817 3.147-1.817 3.148h-3.635l-1.817-3.148m-28.57 0 1.817-3.147h3.635l1.817 3.147-1.817 3.148h-3.635l-1.817-3.148m-28.571 0 1.817-3.147h3.635l1.817 3.147-1.817 3.148h-3.635l-1.817-3.148m-28.57 0 1.817-3.147h3.635l1.817 3.147-1.817 3.148h-3.635l-1.817-3.148m-28.571 0 1.817-3.147h3.635l1.817 3.147-1.817 3.148h-3.635l-1.817-3.148m-21.301 0-1.817 3.148h-3.635l-1.817-3.148 1.817-3.147h3.635l1.817 3.147m169.49-62.513h-5.2v11h5.2v11.397h-5.2v11h5.2v11.397h-5.2v10.998h5.2v11.4h-5.2V496h-193v-11.198h-5.2v-11.399h5.2v-10.998h-5.2v-11.398h5.2V440.01h-5.2v-11.398h5.2v-10.999h-5.2V415.2h203.4v2.413" style="vector-effect:non-scaling-stroke;fill:none;stroke:#000;stroke-width:.264583;-inkscape-stroke:hairline"/>
    <path fill="none" stroke="#000" stroke-width=".1mm" d="M353.402 352.173v-11.515h-5.2v-11.715h5.2v-11.315h-5.2v-11.714h5.2v-11.315h-5.2v-11.715h5.2V271.37l193-.001v11.515h5.2v11.715h-5.2v11.315h5.2v11.714h-5.2v11.315h5.2v11.715h-5.2v11.514l-193 .001" style="vector-effect:non-scaling-stroke;stroke-width:.264583;stroke-dasharray:none;-inkscape-stroke:hairline" transform="rotate(180 632.098 424.087)"/>
    <path d="m732.217 408.006-1.817 3.148h-3.635l-1.817-3.148 1.817-3.148h3.635l1.817 3.148m28.57 0-1.816 3.148h-3.635l-1.817-3.148 1.817-3.148h3.635l1.817 3.148m28.57 0-1.817 3.148h-3.635l-1.817-3.148 1.817-3.148h3.635l1.817 3.148m28.57 0-1.816 3.148h-3.635l-1.817-3.148 1.817-3.148h3.635l1.817 3.148m28.57 0-1.816 3.148h-3.635l-1.817-3.148 1.817-3.148h3.635l1.817 3.148m28.57 0-1.817 3.148h-3.635l-1.817-3.148 1.817-3.148h3.635l1.817 3.148m21.302 0 1.817-3.148h3.635l1.817 3.148-1.817 3.148h-3.635l-1.817-3.148m-149.87-8.248-1.816 3.148h-3.635l-1.817-3.148 1.817-3.147h3.635l1.817 3.147m28.57 0-1.817 3.148h-3.635l-1.817-3.148 1.817-3.147h3.635l1.817 3.147m28.57 0-1.816 3.148h-3.635l-1.817-3.148 1.817-3.147h3.635l1.817 3.147m28.57 0-1.817 3.148h-3.635l-1.817-3.148 1.817-3.147h3.635l1.817 3.147m28.57 0-1.816 3.148h-3.635l-1.817-3.148 1.817-3.147h3.635l1.817 3.147m21.3 0 1.818-3.147h3.635l1.817 3.147-1.817 3.148h-3.635l-1.817-3.148m-149.87-8.247-1.816 3.147h-3.635l-1.817-3.147 1.817-3.148h3.635l1.817 3.148m28.57 0-1.816 3.147h-3.635l-1.817-3.147 1.817-3.148h3.635l1.817 3.148m28.57 0-1.817 3.147h-3.635l-1.817-3.147 1.817-3.148h3.635l1.817 3.148m28.57 0-1.816 3.147h-3.635l-1.817-3.147 1.817-3.148h3.635l1.817 3.148m28.57 0-1.816 3.147h-3.635l-1.817-3.147 1.817-3.148h3.635l1.817 3.148m28.57 0-1.817 3.147h-3.635l-1.817-3.147 1.817-3.148h3.635l1.817 3.148m21.302 0 1.817-3.148h3.635l1.817 3.148-1.817 3.147h-3.635l-1.817-3.147m-149.87-8.248-1.816 3.148h-3.635l-1.817-3.148 1.817-3.147h3.635l1.817 3.147m28.57 0-1.817 3.148h-3.635l-1.817-3.148 1.817-3.147h3.635l1.817 3.147m28.57 0-1.816 3.148h-3.635l-1.817-3.148 1.817-3.147h3.635l1.817 3.147m28.57 0-1.817 3.148h-3.635l-1.817-3.148 1.817-3.147h3.635l1.817 3.147m28.57 0-1.816 3.148h-3.635l-1.817-3.148 1.817-3.147h3.635l1.817 3.147m21.3 0 1.818-3.147h3.635l1.817 3.147-1.817 3.148h-3.635l-1.817-3.148m-149.87-8.247-1.816 3.147h-3.635l-1.817-3.147 1.817-3.148h3.635l1.817 3.148m28.57 0-1.816 3.147h-3.635l-1.817-3.147 1.817-3.148h3.635l1.817 3.148m28.57 0-1.817 3.147h-3.635l-1.817-3.147 1.817-3.148h3.635l1.817 3.148m28.57 0-1.816 3.147h-3.635l-1.817-3.147 1.817-3.148h3.635l1.817 3.148m28.57 0-1.816 3.147h-3.635l-1.817-3.147 1.817-3.148h3.635l1.817 3.148m28.57 0-1.817 3.147h-3.635l-1.817-3.147 1.817-3.148h3.635l1.817 3.148m21.302 0 1.817-3.148h3.635l1.817 3.148-1.817 3.147h-3.635l-1.817-3.147m-149.87-8.248-1.816 3.148h-3.635l-1.817-3.148 1.817-3.148h3.635l1.817 3.148m28.57 0-1.817 3.148h-3.635l-1.817-3.148 1.817-3.148h3.635l1.817 3.148m28.57 0-1.816 3.148h-3.635l-1.817-3.148 1.817-3.148h3.635l1.817 3.148m28.57 0-1.817 3.148h-3.635l-1.817-3.148 1.817-3.148h3.635l1.817 3.148m28.57 0-1.816 3.148h-3.635l-1.817-3.148 1.817-3.148h3.635l1.817 3.148m21.3 0 1.818-3.148h3.635l1.817 3.148-1.817 3.148h-3.635l-1.817-3.148m-149.87-8.248-1.816 3.148h-3.635l-1.817-3.148 1.817-3.147h3.635l1.817 3.147m28.57 0-1.816 3.148h-3.635l-1.817-3.148 1.817-3.147h3.635l1.817 3.147m28.57 0-1.817 3.148h-3.635l-1.817-3.148 1.817-3.147h3.635l1.817 3.147m28.57 0-1.816 3.148h-3.635l-1.817-3.148 1.817-3.147h3.635l1.817 3.147m28.57 0-1.816 3.148h-3.635l-1.817-3.148 1.817-3.147h3.635l1.817 3.147m28.57 0-1.817 3.148h-3.635l-1.817-3.148 1.817-3.147h3.635l1.817 3.147m21.302 0 1.817-3.147h3.635l1.817 3.147-1.817 3.148h-3.635l-1.817-3.148m-149.87-8.247-1.816 3.147h-3.635l-1.817-3.147 1.817-3.148h3.635l1.817 3.148m28.57 0-1.817 3.147h-3.635l-1.817-3.147 1.817-3.148h3.635l1.817 3.148m28.57 0-1.816 3.147h-3.635l-1.817-3.147 1.817-3.148h3.635l1.817 3.148m28.57 0-1.817 3.147h-3.635l-1.817-3.147 1.817-3.148h3.635l1.817 3.148m28.57 0-1.816 3.147h-3.635l-1.817-3.147 1.817-3.148h3.635l1.817 3.148m21.3 0 1.818-3.148h3.635l1.817 3.148-1.817 3.147h-3.635l-1.817-3.147m-169.491 62.513h5.2v-11h-5.2V390.39h5.2v-11h-5.2v-11.397h5.2v-10.998h-5.2v-11.4h5.2v-11.197h193v11.198h5.2v11.399h-5.2v10.998h5.2v11.398h-5.2v10.999h5.2v11.398h-5.2v10.999h5.2v2.413h-203.4v-2.413" style="vector-effect:non-scaling-stroke;fill:none;stroke:#000;stroke-width:.264583;-inkscape-stroke:hairline"/>
    <path fill="none" stroke="#000" stroke-width=".1mm" d="M353.402 352.173v-11.515h-5.2v-11.715h5.2v-11.315h-5.2v-11.714h5.2v-11.315h-5.2v-11.715h5.2V271.37l193-.001v11.515h5.2v11.715h-5.2v11.315h5.2v11.714h-5.2v11.315h5.2v11.715h-5.2v11.514l-193 .001" style="vector-effect:non-scaling-stroke;stroke-width:.264583;stroke-dasharray:none;-inkscape-stroke:hairline" transform="translate(364.393 -17.777)"/>
    <path d="m454.398 278.415-3.147-1.818v-3.634l3.147-1.817 3.148 1.817v3.634l-3.148 1.818m0 28.571-3.147-1.818v-3.634l3.147-1.817 3.148 1.817v3.634l-3.148 1.818m0 28.57-3.147-1.818v-3.634l3.147-1.817 3.148 1.817v3.634l-3.148 1.818m0 28.571-3.147-1.818v-3.634l3.147-1.817 3.148 1.817v3.634l-3.148 1.818m0 28.571-3.147-1.818v-3.634l3.147-1.817 3.148 1.817v3.634l-3.148 1.818m0 28.57-3.147-1.818v-3.634l3.147-1.817 3.148 1.817v3.634l-3.148 1.818m0 21.302 3.148 1.817v3.634l-3.148 1.818-3.147-1.818v-3.634l3.147-1.817m8.248-149.869-3.148-1.818v-3.634l3.148-1.817 3.148 1.817v3.634l-3.148 1.818m0 28.57-3.148-1.818v-3.634l3.148-1.817 3.148 1.817v3.634l-3.148 1.818m0 28.571-3.148-1.818v-3.634l3.148-1.817 3.148 1.817v3.634l-3.148 1.818m0 28.57-3.148-1.818v-3.634l3.148-1.817 3.148 1.817v3.634l-3.148 1.818m0 28.571-3.148-1.818v-3.634l3.148-1.817 3.148 1.817v3.634l-3.148 1.818m0 21.301 3.148 1.817v3.634l-3.148 1.818-3.148-1.818v-3.634l3.148-1.817m8.248-149.869-3.148-1.818v-3.634l3.148-1.817 3.147 1.817v3.634l-3.147 1.818m0 28.571-3.148-1.818v-3.634l3.148-1.817 3.147 1.817v3.634l-3.147 1.818m0 28.57-3.148-1.818v-3.634l3.148-1.817 3.147 1.817v3.634l-3.147 1.818m0 28.571-3.148-1.818v-3.634l3.148-1.817 3.147 1.817v3.634l-3.147 1.818m0 28.571-3.148-1.818v-3.634l3.148-1.817 3.147 1.817v3.634l-3.147 1.818m0 28.57-3.148-1.818v-3.634l3.148-1.817 3.147 1.817v3.634l-3.147 1.818m0 21.302 3.147 1.817v3.634l-3.147 1.818-3.148-1.818v-3.634l3.148-1.817m8.247-149.869-3.147-1.818v-3.634l3.147-1.817 3.148 1.817v3.634l-3.148 1.818m0 28.57-3.147-1.818v-3.634l3.147-1.817 3.148 1.817v3.634l-3.148 1.818m0 28.571-3.147-1.818v-3.634l3.147-1.817 3.148 1.817v3.634l-3.148 1.818m0 28.57-3.147-1.818v-3.634l3.147-1.817 3.148 1.817v3.634l-3.148 1.818m0 28.571-3.147-1.818v-3.634l3.147-1.817 3.148 1.817v3.634l-3.148 1.818m0 21.301 3.148 1.817v3.634l-3.148 1.818-3.147-1.818v-3.634l3.147-1.817m8.248-149.869-3.148-1.818v-3.634l3.148-1.817 3.147 1.817v3.634l-3.147 1.818m0 28.571-3.148-1.818v-3.634l3.148-1.817 3.147 1.817v3.634l-3.147 1.818m0 28.57-3.148-1.818v-3.634l3.148-1.817 3.147 1.817v3.634l-3.147 1.818m0 28.571-3.148-1.818v-3.634l3.148-1.817 3.147 1.817v3.634l-3.147 1.818m0 28.571-3.148-1.818v-3.634l3.148-1.817 3.147 1.817v3.634l-3.147 1.818m0 28.57-3.148-1.818v-3.634l3.148-1.817 3.147 1.817v3.634l-3.147 1.818m0 21.302 3.147 1.817v3.634l-3.147 1.818-3.148-1.818v-3.634l3.148-1.817m8.247-149.869-3.147-1.818v-3.634l3.147-1.817 3.148 1.817v3.634l-3.148 1.818m0 28.57-3.147-1.818v-3.634l3.147-1.817 3.148 1.817v3.634l-3.148 1.818m0 28.571-3.147-1.818v-3.634l3.147-1.817 3.148 1.817v3.634l-3.148 1.818m0 28.57-3.147-1.818v-3.634l3.147-1.817 3.148 1.817v3.634l-3.148 1.818m0 28.571-3.147-1.818v-3.634l3.147-1.817 3.148 1.817v3.634l-3.148 1.818m0 21.301 3.148 1.817v3.634l-3.148 1.818-3.147-1.818v-3.634l3.147-1.817m8.248-149.869-3.148-1.818v-3.634l3.148-1.817 3.148 1.817v3.634l-3.148 1.818m0 28.571-3.148-1.818v-3.634l3.148-1.817 3.148 1.817v3.634l-3.148 1.818m0 28.57-3.148-1.818v-3.634l3.148-1.817 3.148 1.817v3.634l-3.148 1.818m0 28.571-3.148-1.818v-3.634l3.148-1.817 3.148 1.817v3.634l-3.148 1.818m0 28.571-3.148-1.818v-3.634l3.148-1.817 3.148 1.817v3.634l-3.148 1.818m0 28.57-3.148-1.818v-3.634l3.148-1.817 3.148 1.817v3.634l-3.148 1.818m0 21.302 3.148 1.817v3.634l-3.148 1.818-3.148-1.818v-3.634l3.148-1.817m8.248-149.869-3.148-1.818v-3.634l3.148-1.817 3.147 1.817v3.634l-3.147 1.818m0 28.57-3.148-1.818v-3.634l3.148-1.817 3.147 1.817v3.634l-3.147 1.818m0 28.571-3.148-1.818v-3.634l3.148-1.817 3.147 1.817v3.634l-3.147 1.818m0 28.57-3.148-1.818v-3.634l3.148-1.817 3.147 1.817v3.634l-3.147 1.818m0 28.571-3.148-1.818v-3.634l3.148-1.817 3.147 1.817v3.634l-3.147 1.818m-3.148 26.752v-3.634l3.148-1.817 3.147 1.817v3.634l-3.147 1.818-3.148-1.818m-66.206 28.457v-203.4h11.831v-5.2h12.031v5.2h11.631v-5.2h12.03v5.2h11.631v-5.2h12.031v5.2h11.831v203.4h-11.831v5.2h-12.031v-5.2h-11.631v5.2h-12.03v-5.2H466.64v5.2h-12.031v-5.2h-11.831" style="vector-effect:non-scaling-stroke;fill:none;stroke:#000;stroke-width:.264583;-inkscape-stroke:hairline"/>
    <path fill="none" stroke="#000" stroke-width=".1mm" d="M381.064 438.973v-5.2h-16.231v5.2h-16.631v-9.822h5.2v-9.422h-5.2v-9.823h5.2v-9.422h-5.2v-9.822h5.2v-9.422h-5.2v-9.823h5.2v-9.422h-5.2v-9.822h16.631v5.2h16.231v-5.2h16.63v5.2h16.231v-5.2h16.631v5.2h16.231v-5.2h16.63v5.2h16.231v-5.2h16.631v5.2h16.231v-5.2h16.63v5.2h16.231v-5.2h16.631v9.822h-5.2v9.422h5.2v9.823h-5.2v9.422h5.2v9.822h-5.2v9.422h5.2v9.823h-5.2v9.422h5.2v9.822h-16.631v-5.2H529.14v5.2h-16.63v-5.2h-16.231v5.2h-16.631v-5.2h-16.231v5.2h-16.63v-5.2h-16.231v5.2h-16.631v-5.2h-16.231v5.2h-16.63" style="vector-effect:non-scaling-stroke;stroke-width:.264583;stroke-dasharray:none;-inkscape-stroke:hairline" transform="rotate(90 579.688 485.079)"/>
    <path fill="none" stroke="#000" stroke-width=".1mm" d="M608.195 391.077h16.431v-5.2h16.631v5.2h16.23v-5.2h16.631v5.2h16.231v-5.2h16.631v5.2h16.23v-5.2h16.631v5.2h16.231v-5.2h16.631v5.2h16.23v-5.2h16.631v5.2h16.431v13.13h-5.2v12.73h5.2v13.13h-5.2v8.906h-203.4v-8.906h-5.2v-13.13h5.2v-12.73h-5.2v-13.13" style="vector-effect:non-scaling-stroke;stroke-width:.264583;stroke-dasharray:none;-inkscape-stroke:hairline" transform="rotate(-90 625.452 450.135)"/>
    <path fill="none" stroke="#000" stroke-width=".1mm" d="M611.294 486.589h16.631v5.2h16.231v-5.2h16.631v5.2h16.23v-5.2h16.631v5.2h16.231v-5.2h16.631v5.2h16.23v-5.2h16.631v5.2h16.431v10.2h-5.2v9.8h5.2v10.2h-213.8v-10.2h5.2v-9.8h-5.2v-10.2h16.431v-5.2h16.631v5.2h16.23v-5.2" style="vector-effect:non-scaling-stroke;stroke-width:.264583;stroke-dasharray:none;-inkscape-stroke:hairline" transform="rotate(90 678.096 369.687)"/>
    <path fill="none" stroke="#000" stroke-width=".1mm" d="M737.998 559.975h213.8v14.869h-5.2v14.468h5.2v14.869h-16.631v-5.2h-16.231v5.2h-16.63v-5.2h-16.231v5.2h-16.631v-5.2h-16.231v5.2h-16.63v-5.2h-16.231v5.2h-16.631v-5.2H787.49v5.2h-16.63v-5.2h-16.231v5.2h-16.631v-14.869h5.2v-14.468h-5.2v-14.869" style="vector-effect:non-scaling-stroke;stroke-width:.264583;stroke-dasharray:none;-inkscape-stroke:hairline" transform="rotate(90 743.58 259.174)"/>
    <path fill="none" stroke="#000" stroke-width=".1mm" d="M741.297 623.431v5.2h-16.63v-5.2h-16.231v5.2h-16.631v-11.504h213.8v11.504h-16.631v-5.2h-16.231v5.2h-16.63v-5.2h-16.231v5.2h-16.631v-5.2H807.02v5.2h-16.63v-5.2h-16.231v5.2h-16.631v-5.2h-16.231" style="vector-effect:non-scaling-stroke;stroke-width:.264583;stroke-dasharray:none;-inkscape-stroke:hairline" transform="rotate(-90 578.18 581.017)"/>
    <path d="m454.398 492.216-3.147-1.818v-3.634l3.147-1.817 3.148 1.817v3.634l-3.148 1.818m0 28.571-3.147-1.818v-3.634l3.147-1.817 3.148 1.817v3.634l-3.148 1.818m0 28.57-3.147-1.818v-3.634l3.147-1.817 3.148 1.817v3.634l-3.148 1.818m0 28.571-3.147-1.818v-3.634l3.147-1.817 3.148 1.817v3.634l-3.148 1.818m0 28.571-3.147-1.818v-3.634l3.147-1.817 3.148 1.817v3.634l-3.148 1.818m0 28.57-3.147-1.818v-3.634l3.147-1.817 3.148 1.817v3.634l-3.148 1.818m0 21.302 3.148 1.817v3.634l-3.148 1.818-3.147-1.818v-3.634l3.147-1.817m8.248-149.869-3.148-1.818v-3.634l3.148-1.817 3.148 1.817v3.634l-3.148 1.818m0 28.57-3.148-1.818v-3.634l3.148-1.817 3.148 1.817v3.634l-3.148 1.818m0 28.571-3.148-1.818v-3.634l3.148-1.817 3.148 1.817v3.634l-3.148 1.818m0 28.57-3.148-1.818v-3.634l3.148-1.817 3.148 1.817v3.634l-3.148 1.818m0 28.571-3.148-1.818v-3.634l3.148-1.817 3.148 1.817v3.634l-3.148 1.818m0 21.301 3.148 1.817v3.634l-3.148 1.818-3.148-1.818v-3.634l3.148-1.817m8.248-149.869-3.148-1.818v-3.634l3.148-1.817 3.147 1.817v3.634l-3.147 1.818m0 28.571-3.148-1.818v-3.634l3.148-1.817 3.147 1.817v3.634l-3.147 1.818m0 28.57-3.148-1.818v-3.634l3.148-1.817 3.147 1.817v3.634l-3.147 1.818m0 28.571-3.148-1.818v-3.634l3.148-1.817 3.147 1.817v3.634l-3.147 1.818m0 28.571-3.148-1.818v-3.634l3.148-1.817 3.147 1.817v3.634l-3.147 1.818m0 28.57-3.148-1.818v-3.634l3.148-1.817 3.147 1.817v3.634l-3.147 1.818m0 21.302 3.147 1.817v3.634l-3.147 1.818-3.148-1.818v-3.634l3.148-1.817m8.247-149.869-3.147-1.818v-3.634l3.147-1.817 3.148 1.817v3.634l-3.148 1.818m0 28.57-3.147-1.818v-3.634l3.147-1.817 3.148 1.817v3.634l-3.148 1.818m0 28.571-3.147-1.818v-3.634l3.147-1.817 3.148 1.817v3.634l-3.148 1.818m0 28.57-3.147-1.818v-3.634l3.147-1.817 3.148 1.817v3.634l-3.148 1.818m0 28.571-3.147-1.818v-3.634l3.147-1.817 3.148 1.817v3.634l-3.148 1.818m0 21.301 3.148 1.817v3.634l-3.148 1.818-3.147-1.818v-3.634l3.147-1.817m8.248-149.869-3.148-1.818v-3.634l3.148-1.817 3.147 1.817v3.634l-3.147 1.818m0 28.571-3.148-1.818v-3.634l3.148-1.817 3.147 1.817v3.634l-3.147 1.818m0 28.57-3.148-1.818v-3.634l3.148-1.817 3.147 1.817v3.634l-3.147 1.818m0 28.571-3.148-1.818v-3.634l3.148-1.817 3.147 1.817v3.634l-3.147 1.818m0 28.571-3.148-1.818v-3.634l3.148-1.817 3.147 1.817v3.634l-3.147 1.818m0 28.57-3.148-1.818v-3.634l3.148-1.817 3.147 1.817v3.634l-3.147 1.818m0 21.302 3.147 1.817v3.634l-3.147 1.818-3.148-1.818v-3.634l3.148-1.817m8.247-149.869-3.147-1.818v-3.634l3.147-1.817 3.148 1.817v3.634l-3.148 1.818m0 28.57-3.147-1.818v-3.634l3.147-1.817 3.148 1.817v3.634l-3.148 1.818m0 28.571-3.147-1.818v-3.634l3.147-1.817 3.148 1.817v3.634l-3.148 1.818m0 28.57-3.147-1.818v-3.634l3.147-1.817 3.148 1.817v3.634l-3.148 1.818m0 28.571-3.147-1.818v-3.634l3.147-1.817 3.148 1.817v3.634l-3.148 1.818m0 21.301 3.148 1.817v3.634l-3.148 1.818-3.147-1.818v-3.634l3.147-1.817m8.248-149.869-3.148-1.818v-3.634l3.148-1.817 3.148 1.817v3.634l-3.148 1.818m0 28.571-3.148-1.818v-3.634l3.148-1.817 3.148 1.817v3.634l-3.148 1.818m0 28.57-3.148-1.818v-3.634l3.148-1.817 3.148 1.817v3.634l-3.148 1.818m0 28.571-3.148-1.818v-3.634l3.148-1.817 3.148 1.817v3.634l-3.148 1.818m0 28.571-3.148-1.818v-3.634l3.148-1.817 3.148 1.817v3.634l-3.148 1.818m0 28.57-3.148-1.818v-3.634l3.148-1.817 3.148 1.817v3.634l-3.148 1.818m0 21.302 3.148 1.817v3.634l-3.148 1.818-3.148-1.818v-3.634l3.148-1.817m8.248-149.869-3.148-1.818v-3.634l3.148-1.817 3.147 1.817v3.634l-3.147 1.818m0 28.57-3.148-1.818v-3.634l3.148-1.817 3.147 1.817v3.634l-3.147 1.818m0 28.571-3.148-1.818v-3.634l3.148-1.817 3.147 1.817v3.634l-3.147 1.818m0 28.57-3.148-1.818v-3.634l3.148-1.817 3.147 1.817v3.634l-3.147 1.818m0 28.571-3.148-1.818v-3.634l3.148-1.817 3.147 1.817v3.634l-3.147 1.818m-3.148 26.752v-3.634l3.148-1.817 3.147 1.817v3.634l-3.147 1.818-3.148-1.818m-66.206 28.457v-203.4h11.831v-5.2h12.031v5.2h11.631v-5.2h12.03v5.2h11.631v-5.2h12.031v5.2h11.831v203.4h-11.831v5.2h-12.031v-5.2h-11.631v5.2h-12.03v-5.2H466.64v5.2h-12.031v-5.2h-11.831" style="vector-effect:non-scaling-stroke;fill:none;stroke:#000;stroke-width:.264583;-inkscape-stroke:hairline"/>
    <path fill="none" stroke="#000" stroke-width=".1mm" d="M381.064 438.973v-5.2h-16.231v5.2h-16.631v-9.822h5.2v-9.422h-5.2v-9.823h5.2v-9.422h-5.2v-9.822h5.2v-9.422h-5.2v-9.823h5.2v-9.422h-5.2v-9.822h16.631v5.2h16.231v-5.2h16.63v5.2h16.231v-5.2h16.631v5.2h16.231v-5.2h16.63v5.2h16.231v-5.2h16.631v5.2h16.231v-5.2h16.63v5.2h16.231v-5.2h16.631v9.822h-5.2v9.422h5.2v9.823h-5.2v9.422h5.2v9.822h-5.2v9.422h5.2v9.823h-5.2v9.422h5.2v9.822h-16.631v-5.2H529.14v5.2h-16.63v-5.2h-16.231v5.2h-16.631v-5.2h-16.231v5.2h-16.63v-5.2h-16.231v5.2h-16.631v-5.2h-16.231v5.2h-16.63" style="vector-effect:non-scaling-stroke;stroke-width:.264583;stroke-dasharray:none;-inkscape-stroke:hairline" transform="rotate(90 472.788 591.979)"/>
    <path fill="none" stroke="#000" stroke-width=".1mm" d="M608.195 391.077h16.431v-5.2h16.631v5.2h16.23v-5.2h16.631v5.2h16.231v-5.2h16.631v5.2h16.23v-5.2h16.631v5.2h16.231v-5.2h16.631v5.2h16.23v-5.2h16.631v5.2h16.431v13.13h-5.2v12.73h5.2v13.13h-5.2v8.906h-203.4v-8.906h-5.2v-13.13h5.2v-12.73h-5.2v-13.13" style="vector-effect:non-scaling-stroke;stroke-width:.264583;stroke-dasharray:none;-inkscape-stroke:hairline" transform="rotate(-90 732.352 557.035)"/>
    <path fill="none" stroke="#000" stroke-width=".1mm" d="M611.294 486.589h16.631v5.2h16.231v-5.2h16.631v5.2h16.23v-5.2h16.631v5.2h16.231v-5.2h16.631v5.2h16.23v-5.2h16.631v5.2h16.431v10.2h-5.2v9.8h5.2v10.2h-213.8v-10.2h5.2v-9.8h-5.2v-10.2h16.431v-5.2h16.631v5.2h16.23v-5.2" style="vector-effect:non-scaling-stroke;stroke-width:.264583;stroke-dasharray:none;-inkscape-stroke:hairline" transform="rotate(90 571.196 476.587)"/>
    <path fill="none" stroke="#000" stroke-width=".1mm" d="M737.998 559.975h213.8v14.869h-5.2v14.468h5.2v14.869h-16.631v-5.2h-16.231v5.2h-16.63v-5.2h-16.231v5.2h-16.631v-5.2h-16.231v5.2h-16.63v-5.2h-16.231v5.2h-16.631v-5.2H787.49v5.2h-16.63v-5.2h-16.231v5.2h-16.631v-14.869h5.2v-14.468h-5.2v-14.869" style="vector-effect:non-scaling-stroke;stroke-width:.264583;stroke-dasharray:none;-inkscape-stroke:hairline" transform="rotate(90 636.679 366.074)"/>
    <path fill="none" stroke="#000" stroke-width=".1mm" d="M741.297 623.431v5.2h-16.63v-5.2h-16.231v5.2h-16.631v-11.504h213.8v11.504h-16.631v-5.2h-16.231v5.2h-16.63v-5.2h-16.231v5.2h-16.631v-5.2H807.02v5.2h-16.63v-5.2h-16.231v5.2h-16.631v-5.2h-16.231" style="vector-effect:non-scaling-stroke;stroke-width:.264583;stroke-dasharray:none;-inkscape-stroke:hairline" transform="rotate(-90 685.08 687.917)"/>
</svg>
