<?xml version="1.0" encoding="UTF-8" standalone="no"?>
<svg
   width="1300mm"
   height="900mm"
   viewBox="0 0 1300 900"
   version="1.1"
   id="svg133"
   sodipodi:docname="Driver4x60.svg"
   inkscape:version="1.3.2 (091e20ef0f, 2023-11-25)"
   xmlns:inkscape="http://www.inkscape.org/namespaces/inkscape"
   xmlns:sodipodi="http://sodipodi.sourceforge.net/DTD/sodipodi-0.dtd"
   xmlns="http://www.w3.org/2000/svg"
   xmlns:svg="http://www.w3.org/2000/svg">
  <defs
     id="defs133" />
  <sodipodi:namedview
     id="namedview133"
     pagecolor="#505050"
     bordercolor="#eeeeee"
     borderopacity="1"
     inkscape:showpageshadow="0"
     inkscape:pageopacity="0"
     inkscape:pagecheckerboard="0"
     inkscape:deskcolor="#505050"
     inkscape:document-units="mm"
     inkscape:zoom="0.10966274"
     inkscape:cx="779.66315"
     inkscape:cy="1636.8367"
     inkscape:window-width="1920"
     inkscape:window-height="1011"
     inkscape:window-x="0"
     inkscape:window-y="32"
     inkscape:window-maximized="1"
     inkscape:current-layer="svg133" />
  <polyline
     z="0"
     points="552.564,401.54 561.765,396.427 596.796,396.427 596.796,453.777 581.594,453.777 577.381,446.195 582.101,443.572 583.304,445.738 587.675,443.309 583.435,435.68 578.89,438.206 577.887,436.402 573.342,438.928 569.109,431.31 573.829,428.687 574.631,430.131 579.001,427.702 574.762,420.073 570.216,422.599 569.615,421.517 565.07,424.043 560.837,416.425 565.557,413.802 565.958,414.524 570.328,412.095 566.088,404.466 561.543,406.992 561.343,406.632 556.797,409.158 552.564,401.54"
     fill="none"
     stroke="#000000"
     stroke-width="0.1mm"
     id="polyline68"
     transform="rotate(90,541.935,610.98603)"
     style="vector-effect:non-scaling-stroke;fill:none;stroke:#000000;stroke-width:0.264583;stroke-dasharray:none;stroke-opacity:1;-inkscape-stroke:hairline" />
  <polyline
     z="0"
     points="692.804,519.315 727.835,519.315 737.036,524.428 732.803,532.046 728.257,529.52 728.057,529.88 723.512,527.354 719.272,534.983 723.642,537.412 724.043,536.69 728.763,539.313 724.53,546.931 719.985,544.405 719.384,545.487 714.838,542.961 710.599,550.59 714.969,553.019 715.771,551.575 720.491,554.198 716.258,561.816 711.713,559.29 710.71,561.094 706.165,558.568 701.925,566.197 706.296,568.626 707.499,566.46 712.219,569.083 708.006,576.665 692.804,576.665 692.804,519.315"
     fill="none"
     stroke="#000000"
     stroke-width="0.1mm"
     id="polyline131"
     transform="rotate(90,711.19504,621.96399)"
     style="vector-effect:non-scaling-stroke;fill:none;stroke:#000000;stroke-width:0.264583;stroke-dasharray:none;stroke-opacity:1;-inkscape-stroke:hairline" />
  <path
     id="polyline5"
     style="vector-effect:non-scaling-stroke;fill:none;stroke:#000000;stroke-width:0.264583;stroke-dasharray:none;stroke-opacity:1;-inkscape-stroke:hairline"
     d="m 812.13387,515.77801 -2.429,4.37 -7.99,-4.44 2.428,-4.37 7.991,4.44 m 16.328,9.074 -2.429,4.37 -7.989,-4.44 2.428,-4.37 7.99,4.44 m 16.329,9.07401 -2.429,4.37099 -7.99,-4.44 2.428,-4.37099 7.991,4.44 m 5.874,-8.89401 h 5 v 9.779 h -5 v -9.779 m -57.35,-34.91399 h 7.27 v -5.2 h 12.67 v 5.2 h 12.27 v -5.2 h 12.67 v 5.2 h 12.47 v 4.779 h 5.2 v 10.178 h -5.2 v 9.77899 h 5.2 v 8.02301 l 14.122,-14.12301 5.33,2.20801 h -5.602 v 14.46899 h 5.2 v 14.868 h -5.2 v 9.469 h -14.05 v -4.779 h -5 V 555.038 l -62.836,-34.92 h 5.486 v -9.8 h -5.2 v -10.2 h 5.2 v -10" />
  <path
     id="polyline10"
     style="vector-effect:non-scaling-stroke;fill:none;stroke:#000000;stroke-width:0.264583;stroke-dasharray:none;stroke-opacity:1;-inkscape-stroke:hairline"
     d="m 723.98911,572.71294 -7.991,4.44 -2.428,-4.37 7.99,-4.44 2.429,4.37 m 16.328,-9.074 -7.99,4.44 -2.428,-4.37001 7.989,-4.43999 2.429,4.37 m 16.329,-9.07401 -7.991,4.44 -2.428,-4.37099 7.99,-4.44 2.429,4.37099 m 5.874,-0.88499 h 5 v 9.77899 h -5 v -9.77899 m 0,-20.227 v 10.049 h 5 v -4.779 h 14.05 v 9.469 h 5.2 v 14.86799 h -5.2 v 14.469 h 5.602 l -5.33,2.20801 -14.122,-14.123 v 8.023 h -5.2 v 9.779 h 5.2 v 10.178 h -5.2 v 4.779 h -12.47 v 5.2 h -12.67 v -5.2 h -12.27 v 5.2 h -12.67 v -5.2 h -7.27 v -10 h -5.2 v -10.2 h 5.2 v -9.8 h -5.486 l 62.836,-34.92" />
  <path
     id="polyline5-3"
     style="vector-effect:non-scaling-stroke;fill:none;stroke:#000000;stroke-width:0.264583;stroke-dasharray:none;stroke-opacity:1;-inkscape-stroke:hairline"
     d="m 850.35511,572.71294 2.429,-4.37 7.99,4.44 -2.428,4.37 -7.991,-4.44 m -16.328,-9.074 2.429,-4.37 7.989,4.43999 -2.428,4.37001 -7.99,-4.44 m -16.329,-9.07401 2.429,-4.37099 7.99,4.44 -2.428,4.37099 -7.991,-4.44 m -5.874,8.894 h -5 v -9.77899 h 5 v 9.77899 m 57.35,34.914 h -7.27 v 5.2 h -12.67 v -5.2 h -12.27 v 5.2 h -12.67 v -5.2 h -12.47 v -4.779 h -5.2 v -10.178 h 5.2 v -9.779 h -5.2 v -8.023 l -14.122,14.123 -5.33,-2.208 h 5.602 v -14.469 h -5.2 v -14.868 h 5.2 v -9.469 h 14.05 v 4.779 h 5 v -10.049 l 62.836,34.92 h -5.486 v 9.8 h 5.2 v 10.2 h -5.2 v 10" />
  <path
     id="polyline10-0"
     style="vector-effect:non-scaling-stroke;fill:none;stroke:#000000;stroke-width:0.264583;stroke-dasharray:none;stroke-opacity:1;-inkscape-stroke:hairline"
     d="m 762.21035,515.77801 7.991,-4.44 2.428,4.37 -7.99,4.44 -2.429,-4.37 m -16.328,9.074 7.99,-4.44 2.428,4.37 -7.989,4.44 -2.429,-4.37 m -16.329,9.074 7.991,-4.44 2.428,4.371 -7.99,4.44 -2.429,-4.371 m -5.874,0.885 h -5 v -9.779 h 5 v 9.779 m 0,20.22699 v -10.04899 h -5 v 4.779 h -14.05 v -9.469 h -5.2 v -14.868 h 5.2 v -14.469 h -5.602 l 5.33,-2.208 14.122,14.12299 v -8.023 h 5.2 v -9.779 h -5.2 v -10.178 h 5.2 v -4.779 h 12.47 v -5.2 h 12.67 v 5.2 h 12.27 v -5.2 h 12.67 v 5.2 h 7.27 v 10 h 5.2 v 10.2 h -5.2 v 9.8 h 5.486 l -62.836,34.92" />
  <polyline
     z="0"
     points="489.404,549.883 489.404,540.755 494.604,540.755 494.604,532.028 489.404,532.028 489.404,522.9 494.604,522.9 494.604,513.973 687.604,513.973 687.604,522.9 692.804,522.9 692.804,532.028 687.604,532.028 687.604,540.755 692.804,540.755 692.804,549.883 687.604,549.883 687.604,558.61 692.804,558.61 692.804,567.738 687.604,567.738 687.604,576.665 494.604,576.665 494.604,567.738 489.404,567.738 489.404,558.61 494.604,558.61 494.604,549.883 489.404,549.883"
     fill="none"
     stroke="#000000"
     stroke-width="0.1mm"
     id="polyline11"
     transform="rotate(180,695.97401,499.44551)"
     style="vector-effect:non-scaling-stroke;fill:none;stroke:#000000;stroke-width:0.264583;stroke-dasharray:none;stroke-opacity:1;-inkscape-stroke:hairline" />
  <path
     id="polyline66"
     style="vector-effect:non-scaling-stroke;fill:none;stroke:#000000;stroke-width:0.264583;stroke-dasharray:none;stroke-opacity:1;-inkscape-stroke:hairline"
     d="m 872.52101,367.418 1.168,-2.02199 h 2.33399 l 1.168,2.02199 -1.168,2.022 h -2.33399 l -1.168,-2.022 m -24.67101,0 1.168,-2.02199 h 2.334 l 1.168,2.02199 -1.168,2.022 h -2.334 l -1.168,-2.022 m -24.66999,0 1.168,-2.02199 h 2.33399 l 1.168,2.02199 -1.168,2.022 h -2.33399 l -1.168,-2.022 m -24.67101,0 1.168,-2.02199 h 2.334 l 1.168,2.02199 -1.168,2.022 h -2.334 l -1.168,-2.022 m -24.671,0 1.168,-2.02199 h 2.334 l 1.168,2.02199 -1.168,2.022 h -2.334 l -1.168,-2.022 m -24.67,0 1.168,-2.02199 h 2.334 l 1.168,2.02199 -1.168,2.022 h -2.334 l -1.168,-2.022 m -20.001,0 -1.168,2.022 h -2.33399 l -1.168,-2.022 1.168,-2.02199 h 2.33399 l 1.168,2.02199 m 155.689,7.12201 1.168,-2.022 h 2.33401 l 1.168,2.022 -1.168,2.022 H 886.024 l -1.168,-2.022 m -24.671,0 1.168,-2.022 h 2.334 l 1.168,2.022 -1.168,2.022 h -2.334 l -1.168,-2.022 m -24.67,0 1.168,-2.022 h 2.334 l 1.168,2.022 -1.168,2.022 h -2.334 l -1.168,-2.022 m -24.671,0 1.168,-2.022 h 2.334 l 1.168,2.022 -1.168,2.022 h -2.334 l -1.168,-2.022 m -24.67,0 1.168,-2.022 h 2.334 l 1.168,2.022 -1.168,2.022 h -2.334 l -1.168,-2.022 m -24.671,0 1.168,-2.022 h 2.334 l 1.168,2.022 -1.168,2.022 h -2.334 l -1.168,-2.022 m -24.67,0 1.168,-2.022 h 2.334 l 1.168,2.022 -1.168,2.022 h -2.334 l -1.168,-2.022 m -20.001,0 -1.168,2.022 h -2.334 l -1.168,-2.022 1.168,-2.022 h 2.334 l 1.168,2.022 m 155.689,7.122 1.168,-2.022 h 2.334 l 1.167,2.022 -1.167,2.02099 h -2.334 l -1.168,-2.02099 m -24.671,0 1.168,-2.022 h 2.334 l 1.167,2.022 -1.167,2.02099 h -2.334 l -1.168,-2.02099 m -24.67,0 1.168,-2.022 h 2.334 l 1.167,2.022 -1.167,2.02099 h -2.334 l -1.168,-2.02099 m -24.671,0 1.168,-2.022 h 2.334 l 1.167,2.022 -1.167,2.02099 h -2.334 l -1.168,-2.02099 m -24.671,0 1.168,-2.022 h 2.334 l 1.167,2.022 -1.167,2.02099 h -2.334 l -1.168,-2.02099 m -24.67,0 1.168,-2.022 h 2.334 l 1.167,2.022 -1.167,2.02099 h -2.334 l -1.168,-2.02099 m -20.002,0 -1.167,2.02099 h -2.334 l -1.168,-2.02099 1.168,-2.022 h 2.334 l 1.167,2.022 m 155.69,7.121 1.168,-2.021 h 2.334 l 1.167,2.021 -1.167,2.02199 h -2.334 l -1.168,-2.02199 m -24.671,0 1.168,-2.021 h 2.334 l 1.167,2.021 -1.167,2.02199 h -2.334 l -1.168,-2.02199 m -24.67,0 1.168,-2.021 h 2.334 l 1.167,2.021 -1.167,2.02199 h -2.334 l -1.168,-2.02199 m -24.671,0 1.168,-2.021 h 2.334 l 1.167,2.021 -1.167,2.02199 h -2.334 l -1.168,-2.02199 m -24.67,0 1.168,-2.021 h 2.334 l 1.167,2.021 -1.167,2.02199 h -2.334 l -1.168,-2.02199 m -24.671,0 1.168,-2.021 h 2.334 l 1.167,2.021 -1.167,2.02199 h -2.334 l -1.168,-2.02199 m -24.67,0 1.168,-2.021 h 2.334 l 1.167,2.021 -1.167,2.02199 h -2.334 l -1.168,-2.02199 m -20.002,0 -1.167,2.02199 h -2.334 l -1.168,-2.02199 1.168,-2.021 h 2.334 l 1.167,2.021 m 155.69001,7.122 1.168,-2.022 h 2.33399 l 1.168,2.022 -1.168,2.022 h -2.33399 l -1.168,-2.022 m -24.67101,0 1.168,-2.022 h 2.334 l 1.168,2.022 -1.168,2.022 h -2.334 l -1.168,-2.022 m -24.66999,0 1.168,-2.022 h 2.33399 l 1.168,2.022 -1.168,2.022 h -2.33399 l -1.168,-2.022 m -24.67101,0 1.168,-2.022 h 2.334 l 1.168,2.022 -1.168,2.022 h -2.334 l -1.168,-2.022 m -24.671,0 1.168,-2.022 h 2.334 l 1.168,2.022 -1.168,2.022 h -2.334 l -1.168,-2.022 m -24.67,0 1.168,-2.022 h 2.334 l 1.168,2.022 -1.168,2.022 h -2.334 l -1.168,-2.022 m -20.001,0 -1.168,2.022 h -2.33399 l -1.168,-2.022 1.168,-2.022 h 2.33399 l 1.168,2.022 m 155.689,7.122 1.168,-2.022 h 2.33401 l 1.168,2.022 -1.168,2.022 H 886.024 l -1.168,-2.022 m -24.671,0 1.168,-2.022 h 2.334 l 1.168,2.022 -1.168,2.022 h -2.334 l -1.168,-2.022 m -24.67,0 1.168,-2.022 h 2.334 l 1.168,2.022 -1.168,2.022 h -2.334 l -1.168,-2.022 m -24.671,0 1.168,-2.022 h 2.334 l 1.168,2.022 -1.168,2.022 h -2.334 l -1.168,-2.022 m -24.67,0 1.168,-2.022 h 2.334 l 1.168,2.022 -1.168,2.022 h -2.334 l -1.168,-2.022 m -24.671,0 1.168,-2.022 h 2.334 l 1.168,2.022 -1.168,2.022 h -2.334 l -1.168,-2.022 m -24.67,0 1.168,-2.022 h 2.334 l 1.168,2.022 -1.168,2.022 h -2.334 l -1.168,-2.022 m -20.001,0 -1.168,2.022 h -2.334 l -1.168,-2.022 1.168,-2.022 h 2.334 l 1.168,2.022 m 155.689,7.122 1.168,-2.022 h 2.334 l 1.167,2.022 -1.167,2.021 h -2.334 l -1.168,-2.021 m -24.671,0 1.168,-2.022 h 2.334 l 1.167,2.022 -1.167,2.021 h -2.334 l -1.168,-2.021 m -24.67,0 1.168,-2.022 h 2.334 l 1.167,2.022 -1.167,2.021 h -2.334 l -1.168,-2.021 m -24.671,0 1.168,-2.022 h 2.334 l 1.167,2.022 -1.167,2.021 h -2.334 l -1.168,-2.021 m -24.671,0 1.168,-2.022 h 2.334 l 1.167,2.022 -1.167,2.021 h -2.334 l -1.168,-2.021 m -24.67,0 1.168,-2.022 h 2.334 l 1.167,2.022 -1.167,2.021 h -2.334 l -1.168,-2.021 m -21.169,-2.022 1.167,2.022 -1.167,2.021 h -2.334 l -1.168,-2.021 1.168,-2.022 h 2.334 m 9.274,-48.593 -0.44,0.762 1.168,2.022 h 2.334 l 1.167,-2.022 -0.44,-0.762 h 20.882 l -0.441,0.762 1.168,2.022 h 2.334 l 1.168,-2.022 -0.44,-0.762 h 20.881 l -0.44,0.762 1.168,2.022 h 2.334 l 1.167,-2.022 -0.44,-0.762 h 20.882 l -0.441,0.762 1.168,2.022 h 2.334 l 1.168,-2.022 -0.44,-0.762 h 20.881 l -0.44,0.762 1.168,2.022 h 2.334 l 1.167,-2.022 -0.44,-0.762 h 20.882 l -0.441,0.762 1.168,2.022 h 2.334 l 1.168,-2.022 -0.44,-0.762 h 20.881 l -0.44,0.762 1.168,2.022 h 2.334 l 1.167,-2.022 -0.44,-0.762 h 13.459 v 3.09 h -5.2 v 8.314 h 5.2 v 8.715 h -5.2 v 8.315 h 5.2 v 8.714 h -5.2 v 8.315 h 5.2 v 8.715 h -5.2 v 8.514 h -193 v -8.514 h -5.2 v -8.715 h 5.2 v -8.315 h -5.2 v -8.714 h 5.2 v -8.315 h -5.2 v -8.715 h 5.2 v -8.314 h -5.2 v -3.09 h 13.459 l -0.441,0.762 1.168,2.022 h 2.334 l 1.168,-2.022 -0.44,-0.762 h 20.881" />
  <polyline
     z="0"
     points="489.404,549.883 489.404,540.755 494.604,540.755 494.604,532.028 489.404,532.028 489.404,522.9 494.604,522.9 494.604,513.973 687.604,513.973 687.604,522.9 692.804,522.9 692.804,532.028 687.604,532.028 687.604,540.755 692.804,540.755 692.804,549.883 687.604,549.883 687.604,558.61 692.804,558.61 692.804,567.738 687.604,567.738 687.604,576.665 494.604,576.665 494.604,567.738 489.404,567.738 489.404,558.61 494.604,558.61 494.604,549.883 489.404,549.883"
     fill="none"
     stroke="#000000"
     stroke-width="0.1mm"
     id="polyline11-7"
     transform="translate(209.74,-279.82003)"
     style="vector-effect:non-scaling-stroke;fill:none;stroke:#000000;stroke-width:0.264583;stroke-dasharray:none;stroke-opacity:1;-inkscape-stroke:hairline" />
  <path
     id="polyline66-8"
     style="vector-effect:non-scaling-stroke;fill:none;stroke:#000000;stroke-width:0.264583;stroke-dasharray:none;stroke-opacity:1;-inkscape-stroke:hairline"
     d="m 729.16701,351.65296 -1.168,2.022 h -2.334 l -1.168,-2.022 1.168,-2.02199 h 2.334 l 1.168,2.02199 m 24.671,0 -1.168,2.022 h -2.334 l -1.168,-2.022 1.168,-2.02199 h 2.334 l 1.168,2.02199 m 24.67,0 -1.168,2.022 h -2.334 l -1.168,-2.022 1.168,-2.02199 h 2.334 l 1.168,2.02199 m 24.671,0 -1.168,2.022 h -2.334 l -1.168,-2.022 1.168,-2.02199 h 2.334 l 1.168,2.02199 m 24.67099,0 -1.16799,2.022 h -2.334 l -1.168,-2.022 1.168,-2.02199 h 2.334 l 1.16799,2.02199 m 24.67,0 -1.168,2.022 h -2.334 l -1.168,-2.022 1.168,-2.02199 h 2.334 l 1.168,2.02199 m 20.001,0 1.168,-2.02199 h 2.334 l 1.168,2.02199 -1.168,2.022 h -2.334 l -1.168,-2.022 m -155.68899,-7.122 -1.168,2.022 h -2.334 l -1.168,-2.022 1.168,-2.022 h 2.334 l 1.168,2.022 m 24.671,0 -1.168,2.022 h -2.334 l -1.168,-2.022 1.168,-2.022 h 2.334 l 1.168,2.022 m 24.67,0 -1.168,2.022 h -2.334 l -1.168,-2.022 1.168,-2.022 h 2.334 l 1.168,2.022 m 24.671,0 -1.168,2.022 h -2.334 l -1.168,-2.022 1.168,-2.022 h 2.334 l 1.168,2.022 m 24.67,0 -1.168,2.022 h -2.334 l -1.168,-2.022 1.168,-2.022 h 2.334 l 1.168,2.022 m 24.67099,0 -1.168,2.022 h -2.334 l -1.168,-2.022 1.168,-2.022 h 2.334 l 1.168,2.022 m 24.67,0 -1.168,2.022 h -2.334 l -1.168,-2.022 1.168,-2.022 h 2.334 l 1.168,2.022 m 20.001,0 1.168,-2.022 h 2.334 l 1.168,2.022 -1.168,2.022 h -2.334 l -1.168,-2.022 m -155.68899,-7.122 -1.168,2.022 h -2.334 l -1.167,-2.022 1.167,-2.021 h 2.334 l 1.168,2.021 m 24.671,0 -1.168,2.022 h -2.334 l -1.167,-2.022 1.167,-2.021 h 2.334 l 1.168,2.021 m 24.67,0 -1.168,2.022 h -2.334 l -1.167,-2.022 1.167,-2.021 h 2.334 l 1.168,2.021 m 24.671,0 -1.168,2.022 h -2.334 l -1.167,-2.022 1.167,-2.021 h 2.334 l 1.168,2.021 m 24.67099,0 -1.16799,2.022 h -2.334 l -1.167,-2.022 1.167,-2.021 h 2.334 l 1.16799,2.021 m 24.67,0 -1.168,2.022 h -2.334 l -1.167,-2.022 1.167,-2.021 h 2.334 l 1.168,2.021 m 20.002,0 1.167,-2.021 h 2.334 l 1.168,2.021 -1.168,2.022 h -2.334 l -1.167,-2.022 m -155.68999,-7.121 -1.168,2.021 h -2.334 l -1.167,-2.021 1.167,-2.022 h 2.334 l 1.168,2.022 m 24.671,0 -1.168,2.021 h -2.334 l -1.167,-2.021 1.167,-2.022 h 2.334 l 1.168,2.022 m 24.67,0 -1.168,2.021 h -2.334 l -1.167,-2.021 1.167,-2.022 h 2.334 l 1.168,2.022 m 24.671,0 -1.168,2.021 h -2.334 l -1.167,-2.021 1.167,-2.022 h 2.334 l 1.168,2.022 m 24.67,0 -1.168,2.021 H 812.012 l -1.167,-2.021 1.167,-2.022 h 2.33401 l 1.168,2.022 m 24.67099,0 -1.168,2.021 h -2.334 l -1.167,-2.021 1.167,-2.022 h 2.334 l 1.168,2.022 m 24.67,0 -1.168,2.021 h -2.334 l -1.167,-2.021 1.167,-2.022 h 2.334 l 1.168,2.022 m 20.002,0 1.167,-2.022 h 2.334 l 1.168,2.022 -1.168,2.021 h -2.334 l -1.167,-2.021 m -155.68999,-7.122 -1.168,2.022 h -2.334 l -1.168,-2.022 1.168,-2.022 h 2.334 l 1.168,2.022 m 24.671,0 -1.168,2.022 h -2.334 l -1.168,-2.022 1.168,-2.022 h 2.334 l 1.168,2.022 m 24.67,0 -1.168,2.022 H 775.006 l -1.168,-2.022 1.168,-2.022 h 2.33401 l 1.168,2.022 m 24.67099,0 -1.168,2.022 h -2.334 l -1.168,-2.022 1.168,-2.022 h 2.334 l 1.168,2.022 m 24.671,0 -1.168,2.022 h -2.334 l -1.168,-2.022 1.168,-2.022 h 2.334 l 1.168,2.022 m 24.67,0 -1.168,2.022 h -2.334 l -1.168,-2.022 1.168,-2.022 h 2.334 l 1.168,2.022 m 20.001,0 1.168,-2.022 h 2.334 l 1.168,2.022 -1.168,2.022 h -2.334 l -1.168,-2.022 m -155.68899,-7.122 -1.168,2.022 h -2.334 l -1.168,-2.022 1.168,-2.022 h 2.334 l 1.168,2.022 m 24.671,0 -1.168,2.022 h -2.334 l -1.16801,-2.022 1.16801,-2.022 h 2.334 l 1.168,2.022 m 24.67,0 -1.168,2.022 h -2.334 l -1.168,-2.022 1.168,-2.022 h 2.334 l 1.168,2.022 m 24.671,0 -1.168,2.022 h -2.334 l -1.168,-2.022 1.168,-2.022 h 2.334 l 1.168,2.022 m 24.67,0 -1.168,2.022 H 812.012 l -1.168,-2.022 1.168,-2.022 h 2.33401 l 1.168,2.022 m 24.67099,0 -1.168,2.022 h -2.334 l -1.168,-2.022 1.168,-2.022 h 2.334 l 1.168,2.022 m 24.67,0 -1.168,2.022 h -2.334 l -1.168,-2.022 1.168,-2.022 h 2.334 l 1.168,2.022 m 20.001,0 1.168,-2.022 h 2.334 l 1.168,2.022 -1.168,2.022 h -2.334 l -1.168,-2.022 m -155.68899,-7.122 -1.168,2.022 h -2.334 l -1.167,-2.022 1.167,-2.021 h 2.334 l 1.168,2.021 m 24.671,0 -1.168,2.022 h -2.334 l -1.167,-2.022 1.167,-2.021 h 2.334 l 1.168,2.021 m 24.67,0 -1.168,2.022 H 775.006 l -1.167,-2.022 1.167,-2.021 h 2.33401 l 1.168,2.021 m 24.67099,0 -1.168,2.022 h -2.334 l -1.167,-2.022 1.167,-2.021 h 2.334 l 1.168,2.021 m 24.671,0 -1.168,2.022 h -2.334 l -1.167,-2.022 1.167,-2.021 h 2.334 l 1.168,2.021 m 24.67,0 -1.168,2.022 h -2.334 l -1.167,-2.022 1.167,-2.021 h 2.334 l 1.168,2.021 m 21.169,2.022 -1.167,-2.022 1.167,-2.021 h 2.334 l 1.168,2.021 -1.168,2.022 h -2.334 m -9.274,48.593 0.44,-0.762 -1.168,-2.022 h -2.334 l -1.167,2.022 0.44,0.762 h -20.882 l 0.441,-0.762 -1.168,-2.022 h -2.334 l -1.168,2.022 0.44,0.762 h -20.881 l 0.44,-0.762 -1.168,-2.022 h -2.334 l -1.167,2.022 0.44,0.762 h -20.882 l 0.441,-0.762 -1.168,-2.022 h -2.334 l -1.168,2.022 0.44,0.762 h -20.881 l 0.44,-0.762 -1.168,-2.022 h -2.334 l -1.167,2.022 0.44,0.762 h -20.882 l 0.441,-0.762 -1.168,-2.022 h -2.334 l -1.168,2.022 0.44,0.762 h -20.881 l 0.44,-0.762 -1.168,-2.022 h -2.334 l -1.167,2.022 0.44,0.762 h -13.459 v -3.09 h 5.2 v -8.314 h -5.2 v -8.715 h 5.2 v -8.315 h -5.2 v -8.714 h 5.2 v -8.315 h -5.2 v -8.715 h 5.2 v -8.514 h 193 v 8.514 h 5.2 v 8.715 h -5.2 v 8.315 h 5.2 v 8.714 h -5.2 v 8.315 h 5.2 v 8.715 h -5.2 v 8.314 h 5.2 v 3.09 h -13.459 l 0.441,-0.762 -1.168,-2.022 h -2.334 l -1.168,2.022 0.44,0.762 h -20.881" />
  <polyline
     z="0"
     points="552.564,401.54 561.765,396.427 596.796,396.427 596.796,453.777 581.594,453.777 577.381,446.195 582.101,443.572 583.304,445.738 587.675,443.309 583.435,435.68 578.89,438.206 577.887,436.402 573.342,438.928 569.109,431.31 573.829,428.687 574.631,430.131 579.001,427.702 574.762,420.073 570.216,422.599 569.615,421.517 565.07,424.043 560.837,416.425 565.557,413.802 565.958,414.524 570.328,412.095 566.088,404.466 561.543,406.992 561.343,406.632 556.797,409.158 552.564,401.54"
     fill="none"
     stroke="#000000"
     stroke-width="0.1mm"
     id="polyline68-4"
     transform="rotate(-90,751.54298,448.82597)"
     style="vector-effect:non-scaling-stroke;fill:none;stroke:#000000;stroke-width:0.264583;stroke-dasharray:none;stroke-opacity:1;-inkscape-stroke:hairline" />
  <polyline
     z="0"
     points="692.804,519.315 727.835,519.315 737.036,524.428 732.803,532.046 728.257,529.52 728.057,529.88 723.512,527.354 719.272,534.983 723.642,537.412 724.043,536.69 728.763,539.313 724.53,546.931 719.985,544.405 719.384,545.487 714.838,542.961 710.599,550.59 714.969,553.019 715.771,551.575 720.491,554.198 716.258,561.816 711.713,559.29 710.71,561.094 706.165,558.568 701.925,566.197 706.296,568.626 707.499,566.46 712.219,569.083 708.006,576.665 692.804,576.665 692.804,519.315"
     fill="none"
     stroke="#000000"
     stroke-width="0.1mm"
     id="polyline131-4"
     transform="rotate(-90,797.91502,560.73601)"
     style="vector-effect:non-scaling-stroke;fill:none;stroke:#000000;stroke-width:0.264583;stroke-dasharray:none;stroke-opacity:1;-inkscape-stroke:hairline" />
  <polyline
     z="0"
     points="505.835,513.973 505.835,508.773 489.404,508.773 489.404,494.723 505.835,494.723 505.835,489.523 522.466,489.523 522.466,494.723 538.696,494.723 538.696,489.523 555.327,489.523 555.327,494.723 571.558,494.723 571.558,489.523 588.189,489.523 588.189,494.723 604.419,494.723 604.419,489.523 621.05,489.523 621.05,494.723 637.281,494.723 637.281,489.523 653.912,489.523 653.912,494.723 670.142,494.723 670.142,489.523 686.773,489.523 686.773,494.723 703.204,494.723 703.204,508.773 686.773,508.773 686.773,513.973 670.142,513.973 670.142,508.773 653.912,508.773 653.912,513.973 637.281,513.973 637.281,508.773 621.05,508.773 621.05,513.973 604.419,513.973 604.419,508.773 588.189,508.773 588.189,513.973 571.558,513.973 571.558,508.773 555.327,508.773 555.327,513.973 538.696,513.973 538.696,508.773 522.466,508.773 522.466,513.973 505.835,513.973"
     fill="none"
     stroke="#000000"
     stroke-width="0.1mm"
     id="polyline12"
     transform="rotate(-90,668.164,482.99298)"
     style="vector-effect:non-scaling-stroke;fill:none;stroke:#000000;stroke-width:0.264583;stroke-dasharray:none;stroke-opacity:1;-inkscape-stroke:hairline" />
  <polyline
     z="0"
     points="513.672,458.977 529.902,458.977 529.902,453.777 546.533,453.777 546.533,458.977 562.964,458.977 562.964,469.177 557.764,469.177 557.764,478.977 562.964,478.977 562.964,489.177 349.164,489.177 349.164,478.977 354.364,478.977 354.364,469.177 349.164,469.177 349.164,458.977 365.595,458.977 365.595,453.777 382.226,453.777 382.226,458.977 398.456,458.977 398.456,453.777 415.087,453.777 415.087,458.977 431.318,458.977 431.318,453.777 447.949,453.777 447.949,458.977 464.179,458.977 464.179,453.777 480.81,453.777 480.81,458.977 497.041,458.977 497.041,453.777 513.672,453.777 513.672,458.977"
     fill="none"
     stroke="#000000"
     stroke-width="0.1mm"
     id="polyline13"
     transform="rotate(90,514.84102,613.63)"
     style="vector-effect:non-scaling-stroke;fill:none;stroke:#000000;stroke-width:0.264583;stroke-dasharray:none;stroke-opacity:1;-inkscape-stroke:hairline" />
  <polyline
     z="0"
     points="382.026,391.085 382.026,385.885 365.795,385.885 365.795,391.085 349.164,391.085 349.164,378.415 354.364,378.415 354.364,366.145 349.164,366.145 349.164,353.475 354.364,353.475 354.364,341.205 349.164,341.205 349.164,328.535 365.595,328.535 365.595,323.335 382.226,323.335 382.226,328.535 398.456,328.535 398.456,323.335 415.087,323.335 415.087,328.535 431.318,328.535 431.318,323.335 447.949,323.335 447.949,328.535 464.179,328.535 464.179,323.335 480.81,323.335 480.81,328.535 497.041,328.535 497.041,323.335 513.672,323.335 513.672,328.535 529.902,328.535 529.902,323.335 546.533,323.335 546.533,328.535 562.964,328.535 562.964,341.205 557.764,341.205 557.764,353.475 562.964,353.475 562.964,366.145 557.764,366.145 557.764,378.415 562.964,378.415 562.964,391.085 546.333,391.085 546.333,385.885 530.102,385.885 530.102,391.085 513.472,391.085 513.472,385.885 497.241,385.885 497.241,391.085 480.61,391.085 480.61,385.885 464.379,385.885 464.379,391.085 447.749,391.085 447.749,385.885 431.518,385.885 431.518,391.085 414.887,391.085 414.887,385.885 398.656,385.885 398.656,391.085 382.026,391.085"
     fill="none"
     stroke="#000000"
     stroke-width="0.1mm"
     id="polyline67"
     transform="rotate(-90,542.519,468.39799)"
     style="vector-effect:non-scaling-stroke;fill:none;stroke:#000000;stroke-width:0.264583;stroke-dasharray:none;stroke-opacity:1;-inkscape-stroke:hairline" />
  <path
     id="polyline129"
     style="vector-effect:non-scaling-stroke;fill:none;stroke:#000000;stroke-width:0.264583;stroke-dasharray:none;stroke-opacity:1;-inkscape-stroke:hairline"
     d="m 632.75202,638.86499 2.022,1.168 v 2.334 l -2.022,1.168 -2.022,-1.168 v -2.334 l 2.022,-1.168 m 0,-24.67101 2.022,1.16801 v 2.33399 l -2.022,1.168 -2.022,-1.168 v -2.33399 l 2.022,-1.16801 m 0,-24.66999 2.022,1.168 v 2.33399 l -2.022,1.168 -2.022,-1.168 v -2.33399 l 2.022,-1.168 m 0,-24.67101 2.022,1.168 v 2.334 l -2.022,1.168 -2.022,-1.168 v -2.334 l 2.022,-1.168 m 0,-24.66999 2.022,1.168 v 2.33399 l -2.022,1.168 -2.022,-1.168 v -2.33399 l 2.022,-1.168 m 0,-24.67101 2.022,1.168 v 2.334 l -2.022,1.168 -2.022,-1.168 v -2.334 l 2.022,-1.168 m 0,-24.66999 2.022,1.168 v 2.33399 l -2.022,1.168 -2.022,-1.168 v -2.33399 l 2.022,-1.168 m 0,-20.001 -2.022,-1.168 v -2.334 l 2.022,-1.168 2.022,1.168 v 2.334 l -2.022,1.168 m -7.122,155.689 2.022,1.168 v 2.33399 l -2.022,1.168 -2.022,-1.168 v -2.33399 l 2.022,-1.168 m 0,-24.67101 2.022,1.168 v 2.334 l -2.022,1.168 -2.022,-1.168 v -2.334 l 2.022,-1.168 m 0,-24.66999 2.022,1.168 v 2.33399 l -2.022,1.168 -2.022,-1.168 v -2.33399 l 2.022,-1.168 m 0,-24.67101 2.022,1.168 v 2.334 l -2.022,1.168 -2.022,-1.168 v -2.334 l 2.022,-1.168 m 0,-24.671 2.022,1.168 v 2.334 l -2.022,1.168 -2.022,-1.168 v -2.334 l 2.022,-1.168 m 0,-24.67 2.022,1.168 v 2.334 l -2.022,1.168 -2.022,-1.168 v -2.334 l 2.022,-1.168 m 0,-20.001 -2.022,-1.168 v -2.33399 l 2.022,-1.168 2.022,1.168 v 2.33399 l -2.022,1.168 m -7.122,155.689 2.022,1.168 v 2.334 l -2.022,1.167 -2.021,-1.167 v -2.334 l 2.021,-1.168 m 0,-24.671 2.022,1.168 v 2.334 l -2.022,1.167 -2.021,-1.167 v -2.334 l 2.021,-1.168 m 0,-24.67 2.022,1.168 v 2.334 l -2.022,1.167 -2.021,-1.167 v -2.334 l 2.021,-1.168 m 0,-24.671 2.022,1.168 v 2.334 l -2.022,1.167 -2.021,-1.167 v -2.334 l 2.021,-1.168 m 0,-24.67 2.022,1.168 v 2.334 l -2.022,1.167 -2.021,-1.167 v -2.334 l 2.021,-1.168 m 0,-24.671 2.022,1.168 v 2.334 l -2.022,1.167 -2.021,-1.167 v -2.334 l 2.021,-1.168 m 0,-24.67 2.022,1.168 v 2.334 l -2.022,1.167 -2.021,-1.167 v -2.334 l 2.021,-1.168 m 0,-20.002 -2.021,-1.167 v -2.334 l 2.021,-1.168 2.022,1.168 v 2.334 l -2.022,1.167 m -7.121,155.69 2.021,1.168 v 2.334 l -2.021,1.167 -2.022,-1.167 v -2.334 l 2.022,-1.168 m 0,-24.671 2.021,1.168 v 2.334 l -2.021,1.167 -2.022,-1.167 v -2.334 l 2.022,-1.168 m 0,-24.67 2.021,1.168 v 2.334 l -2.021,1.167 -2.022,-1.167 v -2.334 l 2.022,-1.168 m 0,-24.671 2.021,1.168 v 2.334 l -2.021,1.167 -2.022,-1.167 v -2.334 l 2.022,-1.168 m 0,-24.671 2.021,1.168 v 2.334 l -2.021,1.167 -2.022,-1.167 v -2.334 l 2.022,-1.168 m 0,-24.67 2.021,1.168 v 2.334 l -2.021,1.167 -2.022,-1.167 v -2.334 l 2.022,-1.168 m 0,-20.002 -2.022,-1.167 v -2.334 l 2.022,-1.168 2.021,1.168 v 2.334 l -2.021,1.167 m -7.122,155.69 2.022,1.168 v 2.334 l -2.022,1.168 -2.022,-1.168 v -2.334 l 2.022,-1.168 m 0,-24.671 2.022,1.168 v 2.334 l -2.022,1.168 -2.022,-1.168 v -2.334 l 2.022,-1.168 m 0,-24.67 2.022,1.168 v 2.334 l -2.022,1.168 -2.022,-1.168 v -2.334 l 2.022,-1.168 m 0,-24.671 2.022,1.168 v 2.334 l -2.022,1.168 -2.022,-1.168 v -2.334 l 2.022,-1.168 m 0,-24.67 2.022,1.168 v 2.334 l -2.022,1.168 -2.022,-1.168 v -2.334 l 2.022,-1.168 m 0,-24.671 2.022,1.168 v 2.334 l -2.022,1.168 -2.022,-1.168 v -2.334 l 2.022,-1.168 m 0,-24.67 2.022,1.168 v 2.334 l -2.022,1.168 -2.022,-1.168 v -2.334 l 2.022,-1.168 m 0,-20.001 -2.022,-1.168 v -2.334 l 2.022,-1.168 2.022,1.168 v 2.334 l -2.022,1.168 m -7.122,155.689 2.022,1.168 v 2.334 l -2.022,1.168 -2.022,-1.168 v -2.334 l 2.022,-1.168 m 0,-24.671 2.022,1.168 v 2.334 l -2.022,1.168 -2.022,-1.168 v -2.334 l 2.022,-1.168 m 0,-24.67 2.022,1.168 v 2.334 l -2.022,1.168 -2.022,-1.168 v -2.334 l 2.022,-1.168 m 0,-24.671 2.022,1.168 v 2.334 l -2.022,1.168 -2.022,-1.168 v -2.334 l 2.022,-1.168 m 0,-24.671 2.022,1.168 v 2.334 l -2.022,1.168 -2.022,-1.168 v -2.334 l 2.022,-1.168 m 0,-24.67 2.022,1.168 v 2.334 l -2.022,1.168 -2.022,-1.168 v -2.334 l 2.022,-1.168 m 0,-20.001 -2.022,-1.168 v -2.334 l 2.022,-1.168 2.022,1.168 v 2.334 l -2.022,1.168 m -7.122,155.689 2.022,1.168 v 2.334 l -2.022,1.167 -2.021,-1.167 v -2.334 l 2.021,-1.168 m 0,-24.671 2.022,1.168 v 2.334 l -2.022,1.167 -2.021,-1.167 v -2.334 l 2.021,-1.168 m 0,-24.67 2.022,1.168 v 2.334 l -2.022,1.167 -2.021,-1.167 v -2.334 l 2.021,-1.168 m 0,-24.671 2.022,1.168 v 2.334 l -2.022,1.167 -2.021,-1.167 v -2.334 l 2.021,-1.168 m 0,-24.67 2.022,1.168 v 2.334 l -2.022,1.167 -2.021,-1.167 v -2.334 l 2.021,-1.168 m 0,-24.671 2.022,1.168 v 2.334 l -2.022,1.167 -2.021,-1.167 v -2.334 l 2.021,-1.168 m 0,-24.67 2.022,1.168 v 2.334 l -2.022,1.167 -2.021,-1.167 v -2.334 l 2.021,-1.168 m 0,-20.002 -2.021,-1.167 v -2.334 l 2.021,-1.168 2.022,1.168 v 2.334 l -2.022,1.167 m -7.121,155.69 2.021,1.168 v 2.334 l -2.021,1.167 -2.022,-1.167 v -2.334 l 2.022,-1.168 m 0,-24.671 2.021,1.168 v 2.334 l -2.021,1.167 -2.022,-1.167 v -2.334 l 2.022,-1.168 m 0,-24.67 2.021,1.168 v 2.334 l -2.021,1.167 -2.022,-1.167 v -2.334 l 2.022,-1.168 m 0,-24.671 2.021,1.168 v 2.334 l -2.021,1.167 -2.022,-1.167 v -2.334 l 2.022,-1.168 m 0,-24.671 2.021,1.168 v 2.334 l -2.021,1.167 -2.022,-1.167 v -2.334 l 2.022,-1.168 m 0,-24.67 2.021,1.168 v 2.334 l -2.021,1.167 -2.022,-1.167 v -2.334 l 2.022,-1.168 m 0,-20.002 -2.022,-1.167 v -2.334 l 2.022,-1.168 2.021,1.168 v 2.334 l -2.021,1.167 m 56.394,173.378 h -9.34 v 5.2 h -9.541 v -5.2 h -9.14 v 5.2 h -9.54 v -5.2 h -9.14 v 5.2 h -9.541 v -5.2 h -9.34 v -203.4 h 9.34 v -5.2 h 9.541 v 5.2 h 9.14 v -5.2 h 9.54 v 5.2 h 9.14 v -5.2 h 9.541 v 5.2 h 9.34 v 203.4" />
  <polyline
     z="0"
     points="596.796,401.575 613.427,401.575 613.427,406.775 629.658,406.775 629.658,401.575 646.288,401.575 646.288,406.775 662.519,406.775 662.519,401.575 679.15,401.575 679.15,406.775 695.381,406.775 695.381,401.575 712.011,401.575 712.011,406.775 728.242,406.775 728.242,401.575 744.873,401.575 744.873,406.775 761.104,406.775 761.104,401.575 777.734,401.575 777.734,406.775 793.965,406.775 793.965,401.575 810.596,401.575 810.596,411.753 805.396,411.753 805.396,421.532 810.596,421.532 810.596,431.71 805.396,431.71 805.396,441.489 810.596,441.489 810.596,451.667 805.396,451.667 805.396,453.777 601.996,453.777 601.996,451.667 596.796,451.667 596.796,441.489 601.996,441.489 601.996,431.71 596.796,431.71 596.796,421.532 601.996,421.532 601.996,411.753 596.796,411.753 596.796,401.575"
     fill="none"
     stroke="#000000"
     stroke-width="0.1mm"
     id="polyline130"
     transform="rotate(-90,661.08999,597.45898)"
     style="vector-effect:non-scaling-stroke;fill:none;stroke:#000000;stroke-width:0.264583;stroke-dasharray:none;stroke-opacity:1;-inkscape-stroke:hairline" />
  <polyline
     z="0"
     points="737.036,522.28 742.236,522.28 742.236,520.361 945.636,520.361 945.636,522.28 950.836,522.28 950.836,532.459 934.205,532.459 934.205,527.259 917.974,527.259 917.974,532.459 901.344,532.459 901.344,527.259 885.113,527.259 885.113,532.459 868.482,532.459 868.482,527.259 852.251,527.259 852.251,532.459 835.621,532.459 835.621,527.259 819.39,527.259 819.39,532.459 802.759,532.459 802.759,527.259 786.528,527.259 786.528,532.459 769.898,532.459 769.898,527.259 753.667,527.259 753.667,532.459 737.036,532.459 737.036,522.28"
     fill="none"
     stroke="#000000"
     stroke-width="0.1mm"
     id="polyline132"
     transform="rotate(-90,697.91799,700.87098)"
     style="vector-effect:non-scaling-stroke;fill:none;stroke:#000000;stroke-width:0.264583;stroke-dasharray:none;stroke-opacity:1;-inkscape-stroke:hairline" />
  <polyline
     z="0"
     points="737.036,532.459 950.836,532.459 950.836,547.328 945.636,547.328 945.636,561.796 950.836,561.796 950.836,576.665 934.205,576.665 934.205,571.465 917.974,571.465 917.974,576.665 901.344,576.665 901.344,571.465 885.113,571.465 885.113,576.665 868.482,576.665 868.482,571.465 852.251,571.465 852.251,576.665 835.621,576.665 835.621,571.465 819.39,571.465 819.39,576.665 802.759,576.665 802.759,571.465 786.528,571.465 786.528,576.665 769.898,576.665 769.898,571.465 753.667,571.465 753.667,576.665 737.036,576.665 737.036,561.796 742.236,561.796 742.236,547.328 737.036,547.328 737.036,532.459"
     fill="none"
     stroke="#000000"
     stroke-width="0.1mm"
     id="polyline133"
     transform="rotate(90,697.62701,408.544)"
     style="vector-effect:non-scaling-stroke;fill:none;stroke:#000000;stroke-width:0.264583;stroke-dasharray:none;stroke-opacity:1;-inkscape-stroke:hairline" />
  <polyline
     z="0"
     points="505.835,513.973 505.835,508.773 489.404,508.773 489.404,494.723 505.835,494.723 505.835,489.523 522.466,489.523 522.466,494.723 538.696,494.723 538.696,489.523 555.327,489.523 555.327,494.723 571.558,494.723 571.558,489.523 588.189,489.523 588.189,494.723 604.419,494.723 604.419,489.523 621.05,489.523 621.05,494.723 637.281,494.723 637.281,489.523 653.912,489.523 653.912,494.723 670.142,494.723 670.142,489.523 686.773,489.523 686.773,494.723 703.204,494.723 703.204,508.773 686.773,508.773 686.773,513.973 670.142,513.973 670.142,508.773 653.912,508.773 653.912,513.973 637.281,513.973 637.281,508.773 621.05,508.773 621.05,513.973 604.419,513.973 604.419,508.773 588.189,508.773 588.189,513.973 571.558,513.973 571.558,508.773 555.327,508.773 555.327,513.973 538.696,513.973 538.696,508.773 522.466,508.773 522.466,513.973 505.835,513.973"
     fill="none"
     stroke="#000000"
     stroke-width="0.1mm"
     id="polyline12-8"
     transform="rotate(-90,561.264,376.09299)"
     style="vector-effect:non-scaling-stroke;fill:none;stroke:#000000;stroke-width:0.264583;stroke-dasharray:none;stroke-opacity:1;-inkscape-stroke:hairline" />
  <polyline
     z="0"
     points="513.672,458.977 529.902,458.977 529.902,453.777 546.533,453.777 546.533,458.977 562.964,458.977 562.964,469.177 557.764,469.177 557.764,478.977 562.964,478.977 562.964,489.177 349.164,489.177 349.164,478.977 354.364,478.977 354.364,469.177 349.164,469.177 349.164,458.977 365.595,458.977 365.595,453.777 382.226,453.777 382.226,458.977 398.456,458.977 398.456,453.777 415.087,453.777 415.087,458.977 431.318,458.977 431.318,453.777 447.949,453.777 447.949,458.977 464.179,458.977 464.179,453.777 480.81,453.777 480.81,458.977 497.041,458.977 497.041,453.777 513.672,453.777 513.672,458.977"
     fill="none"
     stroke="#000000"
     stroke-width="0.1mm"
     id="polyline13-6"
     transform="rotate(90,621.74102,506.72998)"
     style="vector-effect:non-scaling-stroke;fill:none;stroke:#000000;stroke-width:0.264583;stroke-dasharray:none;stroke-opacity:1;-inkscape-stroke:hairline" />
  <polyline
     z="0"
     points="382.026,391.085 382.026,385.885 365.795,385.885 365.795,391.085 349.164,391.085 349.164,378.415 354.364,378.415 354.364,366.145 349.164,366.145 349.164,353.475 354.364,353.475 354.364,341.205 349.164,341.205 349.164,328.535 365.595,328.535 365.595,323.335 382.226,323.335 382.226,328.535 398.456,328.535 398.456,323.335 415.087,323.335 415.087,328.535 431.318,328.535 431.318,323.335 447.949,323.335 447.949,328.535 464.179,328.535 464.179,323.335 480.81,323.335 480.81,328.535 497.041,328.535 497.041,323.335 513.672,323.335 513.672,328.535 529.902,328.535 529.902,323.335 546.533,323.335 546.533,328.535 562.964,328.535 562.964,341.205 557.764,341.205 557.764,353.475 562.964,353.475 562.964,366.145 557.764,366.145 557.764,378.415 562.964,378.415 562.964,391.085 546.333,391.085 546.333,385.885 530.102,385.885 530.102,391.085 513.472,391.085 513.472,385.885 497.241,385.885 497.241,391.085 480.61,391.085 480.61,385.885 464.379,385.885 464.379,391.085 447.749,391.085 447.749,385.885 431.518,385.885 431.518,391.085 414.887,391.085 414.887,385.885 398.656,385.885 398.656,391.085 382.026,391.085"
     fill="none"
     stroke="#000000"
     stroke-width="0.1mm"
     id="polyline67-8"
     transform="rotate(-90,435.61898,361.49799)"
     style="vector-effect:non-scaling-stroke;fill:none;stroke:#000000;stroke-width:0.264583;stroke-dasharray:none;stroke-opacity:1;-inkscape-stroke:hairline" />
  <path
     id="polyline129-3"
     style="vector-effect:non-scaling-stroke;fill:none;stroke:#000000;stroke-width:0.264583;stroke-dasharray:none;stroke-opacity:1;-inkscape-stroke:hairline"
     d="m 632.752,425.06496 2.022,1.168 v 2.334 l -2.022,1.168 -2.022,-1.168 v -2.334 l 2.022,-1.168 m 0,-24.671 2.022,1.168 v 2.334 l -2.022,1.168 -2.022,-1.168 v -2.334 l 2.022,-1.168 m 0,-24.66999 2.022,1.168 v 2.334 l -2.022,1.168 -2.022,-1.168 v -2.334 l 2.022,-1.168 m 0,-24.671 2.022,1.168 v 2.334 l -2.022,1.168 -2.022,-1.168 v -2.334 l 2.022,-1.168 m 0,-24.67 2.022,1.168 v 2.334 l -2.022,1.168 -2.022,-1.168 v -2.334 l 2.022,-1.168 m 0,-24.671 2.022,1.168 v 2.334 l -2.022,1.168 -2.022,-1.168 v -2.334 l 2.022,-1.168 m 0,-24.67 2.022,1.168 v 2.334 l -2.022,1.168 -2.022,-1.168 v -2.334 l 2.022,-1.168 m 0,-20.001 -2.022,-1.168 v -2.334 l 2.022,-1.168 2.022,1.168 v 2.334 l -2.022,1.168 m -7.122,155.68899 2.022,1.168 v 2.334 l -2.022,1.168 -2.022,-1.168 v -2.334 l 2.022,-1.168 m 0,-24.67099 2.022,1.168 v 2.334 l -2.022,1.16799 -2.022,-1.16799 v -2.334 l 2.022,-1.168 m 0,-24.67 2.022,1.168 v 2.334 l -2.022,1.168 -2.022,-1.168 v -2.334 l 2.022,-1.168 m 0,-24.671 2.022,1.168 v 2.334 l -2.022,1.168 -2.022,-1.168 v -2.334 l 2.022,-1.168 m 0,-24.671 2.022,1.168 v 2.334 l -2.022,1.168 -2.022,-1.168 v -2.334 l 2.022,-1.168 m 0,-24.67 2.022,1.168 v 2.334 l -2.022,1.168 -2.022,-1.168 v -2.334 l 2.022,-1.168 m 0,-20.001 -2.022,-1.168 v -2.334 l 2.022,-1.168 2.022,1.168 v 2.334 l -2.022,1.168 m -7.122,155.68899 2.022,1.168 v 2.334 l -2.022,1.167 -2.021,-1.167 v -2.334 l 2.021,-1.168 m 0,-24.671 2.022,1.168 v 2.334 l -2.022,1.167 -2.021,-1.167 v -2.334 l 2.021,-1.168 m 0,-24.66999 2.022,1.168 v 2.334 l -2.022,1.167 -2.021,-1.167 v -2.334 l 2.021,-1.168 m 0,-24.671 2.022,1.168 v 2.334 l -2.022,1.167 -2.021,-1.167 v -2.334 l 2.021,-1.168 m 0,-24.67 2.022,1.168 v 2.334 l -2.022,1.167 -2.021,-1.167 v -2.334 l 2.021,-1.168 m 0,-24.671 2.022,1.168 v 2.334 l -2.022,1.167 -2.021,-1.167 v -2.334 l 2.021,-1.168 m 0,-24.67 2.022,1.168 v 2.334 l -2.022,1.167 -2.021,-1.167 v -2.334 l 2.021,-1.168 m 0,-20.002 -2.021,-1.167 v -2.334 l 2.021,-1.168 2.022,1.168 v 2.334 l -2.022,1.167 m -7.121,155.68999 2.021,1.168 v 2.334 l -2.021,1.167 -2.022,-1.167 v -2.334 l 2.022,-1.168 m 0,-24.67099 2.021,1.168 v 2.334 l -2.021,1.16699 -2.022,-1.16699 v -2.334 l 2.022,-1.168 m 0,-24.67 2.021,1.168 v 2.334 l -2.021,1.167 -2.022,-1.167 v -2.334 l 2.022,-1.168 m 0,-24.671 2.021,1.168 v 2.334 l -2.021,1.167 -2.022,-1.167 v -2.334 l 2.022,-1.168 m 0,-24.671 2.021,1.168 v 2.334 l -2.021,1.167 -2.022,-1.167 v -2.334 l 2.022,-1.168 m 0,-24.67 2.021,1.168 v 2.334 l -2.021,1.167 -2.022,-1.167 v -2.334 l 2.022,-1.168 m 0,-20.002 -2.022,-1.167 v -2.334 l 2.022,-1.168 2.021,1.168 v 2.334 l -2.021,1.167 m -7.122,155.68999 2.022,1.168 v 2.334 l -2.022,1.168 -2.022,-1.168 v -2.334 l 2.022,-1.168 m 0,-24.671 2.022,1.168 v 2.334 l -2.022,1.168 -2.022,-1.168 v -2.334 l 2.022,-1.168 m 0,-24.66999 2.022,1.168 v 2.334 l -2.022,1.168 -2.022,-1.168 v -2.334 l 2.022,-1.168 m 0,-24.671 2.022,1.168 v 2.334 l -2.022,1.168 -2.022,-1.168 v -2.334 l 2.022,-1.168 m 0,-24.67 2.022,1.168 v 2.334 l -2.022,1.168 -2.022,-1.168 v -2.334 l 2.022,-1.168 m 0,-24.671 2.022,1.168 v 2.334 l -2.022,1.168 -2.022,-1.168 v -2.334 l 2.022,-1.168 m 0,-24.67 2.022,1.168 v 2.334 l -2.022,1.168 -2.022,-1.168 v -2.334 l 2.022,-1.168 m 0,-20.001 -2.022,-1.168 v -2.334 l 2.022,-1.168 2.022,1.168 v 2.334 l -2.022,1.168 m -7.122,155.68899 2.022,1.168 v 2.334 l -2.022,1.168 -2.022,-1.168 v -2.334 l 2.022,-1.168 m 0,-24.67099 2.022,1.168 v 2.334 l -2.022,1.16799 -2.022,-1.16799 v -2.334 l 2.022,-1.168 m 0,-24.67 2.022,1.168 v 2.334 l -2.022,1.168 -2.022,-1.168 v -2.334 l 2.022,-1.168 m 0,-24.671 2.022,1.168 v 2.334 l -2.022,1.168 -2.022,-1.168 v -2.334 l 2.022,-1.168 m 0,-24.671 2.022,1.168 v 2.334 l -2.022,1.168 -2.022,-1.168 v -2.334 l 2.022,-1.168 m 0,-24.67 2.022,1.168 v 2.334 l -2.022,1.168 -2.022,-1.168 v -2.334 l 2.022,-1.168 m 0,-20.001 -2.022,-1.168 v -2.334 l 2.022,-1.168 2.022,1.168 v 2.334 l -2.022,1.168 m -7.122,155.68899 2.022,1.168 v 2.334 l -2.022,1.167 -2.021,-1.167 v -2.334 l 2.021,-1.168 m 0,-24.671 2.022,1.168 v 2.334 l -2.022,1.167 -2.021,-1.167 v -2.334 l 2.021,-1.168 m 0,-24.66999 2.022,1.168 v 2.334 l -2.022,1.167 -2.021,-1.167 v -2.334 l 2.021,-1.168 m 0,-24.671 2.022,1.168 v 2.334 l -2.022,1.167 -2.021,-1.167 v -2.334 l 2.021,-1.168 m 0,-24.67 2.022,1.168 v 2.334 l -2.022,1.167 -2.021,-1.167 v -2.334 l 2.021,-1.168 m 0,-24.671 2.022,1.168 v 2.334 l -2.022,1.167 -2.021,-1.167 v -2.334 l 2.021,-1.168 m 0,-24.67 2.022,1.168 v 2.334 l -2.022,1.167 -2.021,-1.167 v -2.334 l 2.021,-1.168 m 0,-20.002 -2.021,-1.167 v -2.334 l 2.021,-1.168 2.022,1.168 v 2.334 l -2.022,1.167 m -7.121,155.68999 2.021,1.168 v 2.334 l -2.021,1.167 -2.022,-1.167 v -2.334 l 2.022,-1.168 m 0,-24.67099 2.021,1.168 v 2.334 l -2.021,1.16699 -2.022,-1.16699 v -2.334 l 2.022,-1.168 m 0,-24.67 2.021,1.168 v 2.334 l -2.021,1.167 -2.022,-1.167 v -2.334 l 2.022,-1.168 m 0,-24.671 2.021,1.168 v 2.334 l -2.021,1.167 -2.022,-1.167 v -2.334 l 2.022,-1.168 m 0,-24.671 2.021,1.168 v 2.334 l -2.021,1.167 -2.022,-1.167 v -2.334 l 2.022,-1.168 m 0,-24.67 2.021,1.168 v 2.334 l -2.021,1.167 -2.022,-1.167 v -2.334 l 2.022,-1.168 m 0,-20.002 -2.022,-1.167 v -2.334 l 2.022,-1.168 2.021,1.168 v 2.334 l -2.021,1.167 m 56.394,173.37799 h -9.34 v 5.2 h -9.541 v -5.2 h -9.14 v 5.2 h -9.54 v -5.2 h -9.14 v 5.2 h -9.541 v -5.2 h -9.34 V 239.35297 h 9.34 v -5.2 h 9.541 v 5.2 h 9.14 v -5.2 h 9.54 v 5.2 h 9.14 v -5.2 h 9.541 v 5.2 h 9.34 v 203.39999" />
  <polyline
     z="0"
     points="596.796,401.575 613.427,401.575 613.427,406.775 629.658,406.775 629.658,401.575 646.288,401.575 646.288,406.775 662.519,406.775 662.519,401.575 679.15,401.575 679.15,406.775 695.381,406.775 695.381,401.575 712.011,401.575 712.011,406.775 728.242,406.775 728.242,401.575 744.873,401.575 744.873,406.775 761.104,406.775 761.104,401.575 777.734,401.575 777.734,406.775 793.965,406.775 793.965,401.575 810.596,401.575 810.596,411.753 805.396,411.753 805.396,421.532 810.596,421.532 810.596,431.71 805.396,431.71 805.396,441.489 810.596,441.489 810.596,451.667 805.396,451.667 805.396,453.777 601.996,453.777 601.996,451.667 596.796,451.667 596.796,441.489 601.996,441.489 601.996,431.71 596.796,431.71 596.796,421.532 601.996,421.532 601.996,411.753 596.796,411.753 596.796,401.575"
     fill="none"
     stroke="#000000"
     stroke-width="0.1mm"
     id="polyline130-1"
     transform="rotate(-90,554.18998,490.55898)"
     style="vector-effect:non-scaling-stroke;fill:none;stroke:#000000;stroke-width:0.264583;stroke-dasharray:none;stroke-opacity:1;-inkscape-stroke:hairline" />
  <polyline
     z="0"
     points="737.036,522.28 742.236,522.28 742.236,520.361 945.636,520.361 945.636,522.28 950.836,522.28 950.836,532.459 934.205,532.459 934.205,527.259 917.974,527.259 917.974,532.459 901.344,532.459 901.344,527.259 885.113,527.259 885.113,532.459 868.482,532.459 868.482,527.259 852.251,527.259 852.251,532.459 835.621,532.459 835.621,527.259 819.39,527.259 819.39,532.459 802.759,532.459 802.759,527.259 786.528,527.259 786.528,532.459 769.898,532.459 769.898,527.259 753.667,527.259 753.667,532.459 737.036,532.459 737.036,522.28"
     fill="none"
     stroke="#000000"
     stroke-width="0.1mm"
     id="polyline132-9"
     transform="rotate(-90,591.01798,593.97099)"
     style="vector-effect:non-scaling-stroke;fill:none;stroke:#000000;stroke-width:0.264583;stroke-dasharray:none;stroke-opacity:1;-inkscape-stroke:hairline" />
  <polyline
     z="0"
     points="737.036,532.459 950.836,532.459 950.836,547.328 945.636,547.328 945.636,561.796 950.836,561.796 950.836,576.665 934.205,576.665 934.205,571.465 917.974,571.465 917.974,576.665 901.344,576.665 901.344,571.465 885.113,571.465 885.113,576.665 868.482,576.665 868.482,571.465 852.251,571.465 852.251,576.665 835.621,576.665 835.621,571.465 819.39,571.465 819.39,576.665 802.759,576.665 802.759,571.465 786.528,571.465 786.528,576.665 769.898,576.665 769.898,571.465 753.667,571.465 753.667,576.665 737.036,576.665 737.036,561.796 742.236,561.796 742.236,547.328 737.036,547.328 737.036,532.459"
     fill="none"
     stroke="#000000"
     stroke-width="0.1mm"
     id="polyline133-2"
     transform="rotate(90,804.52701,301.64397)"
     style="vector-effect:non-scaling-stroke;fill:none;stroke:#000000;stroke-width:0.264583;stroke-dasharray:none;stroke-opacity:1;-inkscape-stroke:hairline" />
</svg>
