Cleat Wall Organization Equipment
Copyright (C) 2025  Corporate Hacks

This program is free software: you can redistribute it and/or modify
it under the terms of the GNU General Public License as published by
the Free Software Foundation, either version 3 of the License, or
(at your option) any later version.

This program is distributed in the hope that it will be useful,
but WITHOUT ANY WARRANTY; without even the implied warranty of
MERCHANTABILITY or FITNESS FOR A PARTICULAR PURPOSE.  See the
GNU General Public License for more details.

You should have received a copy of the GNU General Public License
along with this program.  If not, see <http://www.gnu.org/licenses/>.


<svg xmlns="http://www.w3.org/2000/svg" width="1300mm" height="900mm" viewBox="0 0 1300 900">
    <path fill="none" stroke="#000" stroke-width=".1mm" d="m552.564 401.54 9.201-5.113h35.031v57.35h-15.202l-4.213-7.582 4.72-2.623 1.203 2.166 4.371-2.429-4.24-7.629-4.545 2.526-1.003-1.804-4.545 2.526-4.233-7.618 4.72-2.623.802 1.444 4.37-2.429-4.239-7.629-4.546 2.526-.601-1.082-4.545 2.526-4.233-7.618 4.72-2.623.401.722 4.37-2.429-4.24-7.629-4.545 2.526-.2-.36-4.546 2.526-4.233-7.618" style="vector-effect:non-scaling-stroke;fill:none;stroke:#000;stroke-width:.264583;stroke-dasharray:none;stroke-opacity:1;-inkscape-stroke:hairline" transform="rotate(90 541.935 610.986)"/>
    <path fill="none" stroke="#000" stroke-width=".1mm" d="M692.804 519.315h35.031l9.201 5.113-4.233 7.618-4.546-2.526-.2.36-4.545-2.526-4.24 7.629 4.37 2.429.401-.722 4.72 2.623-4.233 7.618-4.545-2.526-.601 1.082-4.546-2.526-4.239 7.629 4.37 2.429.802-1.444 4.72 2.623-4.233 7.618-4.545-2.526-1.003 1.804-4.545-2.526-4.24 7.629 4.371 2.429 1.203-2.166 4.72 2.623-4.213 7.582h-15.202v-57.35" style="vector-effect:non-scaling-stroke;fill:none;stroke:#000;stroke-width:.264583;stroke-dasharray:none;stroke-opacity:1;-inkscape-stroke:hairline" transform="rotate(90 711.195 621.964)"/>
    <path d="m812.134 515.778-2.43 4.37-7.99-4.44 2.429-4.37 7.99 4.44m16.329 9.074-2.43 4.37-7.988-4.44 2.428-4.37 7.99 4.44m16.329 9.074-2.43 4.371-7.99-4.44 2.429-4.371 7.99 4.44m5.875-8.894h5v9.779h-5v-9.779m-57.35-34.914h7.27v-5.2h12.67v5.2h12.27v-5.2h12.67v5.2h12.47v4.779h5.2v10.178h-5.2v9.779h5.2v8.023l14.122-14.123 5.33 2.208h-5.602v14.469h5.2v14.868h-5.2v9.469h-14.05v-4.779h-5v10.049l-62.836-34.92h5.486v-9.8h-5.2v-10.2h5.2v-10M723.99 572.713l-7.992 4.44-2.428-4.37 7.99-4.44 2.43 4.37m16.327-9.074-7.99 4.44-2.428-4.37 7.99-4.44 2.428 4.37m16.33-9.074-7.992 4.44-2.428-4.371 7.99-4.44 2.43 4.37m5.873-.884h5v9.779h-5v-9.78m0-20.226v10.049h5v-4.78h14.05v9.47h5.2v14.868h-5.2v14.469h5.602l-5.33 2.208-14.122-14.123v8.023h-5.2v9.779h5.2v10.178h-5.2v4.779h-12.47v5.2h-12.67v-5.2h-12.27v5.2h-12.67v-5.2h-7.27v-10h-5.2v-10.2h5.2v-9.8h-5.486l62.836-34.92" style="vector-effect:non-scaling-stroke;fill:none;stroke:#000;stroke-width:.264583;stroke-dasharray:none;stroke-opacity:1;-inkscape-stroke:hairline"/>
    <path d="m850.355 572.713 2.43-4.37 7.99 4.44-2.429 4.37-7.99-4.44m-16.329-9.074 2.43-4.37 7.988 4.44-2.428 4.37-7.99-4.44m-16.329-9.074 2.43-4.371 7.99 4.44-2.429 4.37-7.99-4.44m-5.875 8.895h-5v-9.78h5v9.78m57.35 34.914h-7.27v5.2h-12.67v-5.2h-12.27v5.2h-12.67v-5.2h-12.47v-4.78h-5.2v-10.177h5.2v-9.78h-5.2v-8.022l-14.122 14.123-5.33-2.208h5.602v-14.47h-5.2v-14.867h5.2v-9.47h14.05v4.78h5v-10.05l62.836 34.92h-5.486v9.8h5.2v10.2h-5.2v10M762.21 515.778l7.991-4.44 2.428 4.37-7.99 4.44-2.429-4.37m-16.328 9.074 7.99-4.44 2.428 4.37-7.989 4.44-2.429-4.37m-16.329 9.074 7.991-4.44 2.428 4.371-7.99 4.44-2.429-4.371m-5.874.885h-5v-9.779h5v9.779m0 20.227v-10.049h-5v4.779h-14.05v-9.469h-5.2v-14.868h5.2v-14.469h-5.602l5.33-2.208 14.122 14.123v-8.023h5.2v-9.779h-5.2v-10.178h5.2v-4.779h12.47v-5.2h12.67v5.2h12.27v-5.2h12.67v5.2h7.27v10h5.2v10.2h-5.2v9.8h5.486l-62.836 34.92" style="vector-effect:non-scaling-stroke;fill:none;stroke:#000;stroke-width:.264583;stroke-dasharray:none;stroke-opacity:1;-inkscape-stroke:hairline"/>
    <path fill="none" stroke="#000" stroke-width=".1mm" d="M489.404 549.883v-9.128h5.2v-8.727h-5.2V522.9h5.2v-8.927h193v8.927h5.2v9.128h-5.2v8.727h5.2v9.128h-5.2v8.727h5.2v9.128h-5.2v8.927h-193v-8.927h-5.2v-9.128h5.2v-8.727h-5.2" style="vector-effect:non-scaling-stroke;fill:none;stroke:#000;stroke-width:.264583;stroke-dasharray:none;stroke-opacity:1;-inkscape-stroke:hairline" transform="rotate(180 695.974 499.446)"/>
    <path d="m872.521 367.418 1.168-2.022h2.334l1.168 2.022-1.168 2.022h-2.334l-1.168-2.022m-24.671 0 1.168-2.022h2.334l1.168 2.022-1.168 2.022h-2.334l-1.168-2.022m-24.67 0 1.168-2.022h2.334l1.168 2.022-1.168 2.022h-2.334l-1.168-2.022m-24.671 0 1.168-2.022h2.334l1.168 2.022-1.168 2.022h-2.334l-1.168-2.022m-24.671 0 1.168-2.022h2.334l1.168 2.022-1.168 2.022h-2.334l-1.168-2.022m-24.67 0 1.168-2.022h2.334l1.168 2.022-1.168 2.022h-2.334l-1.168-2.022m-20.001 0-1.168 2.022h-2.334l-1.168-2.022 1.168-2.022h2.334l1.168 2.022m155.689 7.122 1.168-2.022h2.334l1.168 2.022-1.168 2.022h-2.334l-1.168-2.022m-24.671 0 1.168-2.022h2.334l1.168 2.022-1.168 2.022h-2.334l-1.168-2.022m-24.67 0 1.168-2.022h2.334l1.168 2.022-1.168 2.022h-2.334l-1.168-2.022m-24.671 0 1.168-2.022h2.334l1.168 2.022-1.168 2.022h-2.334l-1.168-2.022m-24.67 0 1.168-2.022h2.334l1.168 2.022-1.168 2.022h-2.334l-1.168-2.022m-24.671 0 1.168-2.022h2.334l1.168 2.022-1.168 2.022h-2.334l-1.168-2.022m-24.67 0 1.168-2.022h2.334l1.168 2.022-1.168 2.022h-2.334l-1.168-2.022m-20.001 0-1.168 2.022h-2.334l-1.168-2.022 1.168-2.022h2.334l1.168 2.022m155.689 7.122 1.168-2.022h2.334l1.167 2.022-1.167 2.021h-2.334l-1.168-2.021m-24.671 0 1.168-2.022h2.334l1.167 2.022-1.167 2.021h-2.334l-1.168-2.021m-24.67 0 1.168-2.022h2.334l1.167 2.022-1.167 2.021h-2.334l-1.168-2.021m-24.671 0 1.168-2.022h2.334l1.167 2.022-1.167 2.021h-2.334l-1.168-2.021m-24.671 0 1.168-2.022h2.334l1.167 2.022-1.167 2.021h-2.334l-1.168-2.021m-24.67 0 1.168-2.022h2.334l1.167 2.022-1.167 2.021h-2.334l-1.168-2.021m-20.002 0-1.167 2.021h-2.334l-1.168-2.021 1.168-2.022h2.334l1.167 2.022m155.69 7.121 1.168-2.021h2.334l1.167 2.021-1.167 2.022h-2.334l-1.168-2.022m-24.671 0 1.168-2.021h2.334l1.167 2.021-1.167 2.022h-2.334l-1.168-2.022m-24.67 0 1.168-2.021h2.334l1.167 2.021-1.167 2.022h-2.334l-1.168-2.022m-24.671 0 1.168-2.021h2.334l1.167 2.021-1.167 2.022h-2.334l-1.168-2.022m-24.67 0 1.168-2.021h2.334l1.167 2.021-1.167 2.022h-2.334l-1.168-2.022m-24.671 0 1.168-2.021h2.334l1.167 2.021-1.167 2.022h-2.334l-1.168-2.022m-24.67 0 1.168-2.021h2.334l1.167 2.021-1.167 2.022h-2.334l-1.168-2.022m-20.002 0-1.167 2.022h-2.334l-1.168-2.022 1.168-2.021h2.334l1.167 2.021m155.69 7.122 1.168-2.022h2.334l1.168 2.022-1.168 2.022h-2.334l-1.168-2.022m-24.671 0 1.168-2.022h2.334l1.168 2.022-1.168 2.022h-2.334l-1.168-2.022m-24.67 0 1.168-2.022h2.334l1.168 2.022-1.168 2.022h-2.334l-1.168-2.022m-24.671 0 1.168-2.022h2.334l1.168 2.022-1.168 2.022h-2.334l-1.168-2.022m-24.671 0 1.168-2.022h2.334l1.168 2.022-1.168 2.022h-2.334l-1.168-2.022m-24.67 0 1.168-2.022h2.334l1.168 2.022-1.168 2.022h-2.334l-1.168-2.022m-20.001 0-1.168 2.022h-2.334l-1.168-2.022 1.168-2.022h2.334l1.168 2.022m155.689 7.122 1.168-2.022h2.334l1.168 2.022-1.168 2.022h-2.334l-1.168-2.022m-24.671 0 1.168-2.022h2.334l1.168 2.022-1.168 2.022h-2.334l-1.168-2.022m-24.67 0 1.168-2.022h2.334l1.168 2.022-1.168 2.022h-2.334l-1.168-2.022m-24.671 0 1.168-2.022h2.334l1.168 2.022-1.168 2.022h-2.334l-1.168-2.022m-24.67 0 1.168-2.022h2.334l1.168 2.022-1.168 2.022h-2.334l-1.168-2.022m-24.671 0 1.168-2.022h2.334l1.168 2.022-1.168 2.022h-2.334l-1.168-2.022m-24.67 0 1.168-2.022h2.334l1.168 2.022-1.168 2.022h-2.334l-1.168-2.022m-20.001 0-1.168 2.022h-2.334l-1.168-2.022 1.168-2.022h2.334l1.168 2.022m155.689 7.122 1.168-2.022h2.334l1.167 2.022-1.167 2.021h-2.334l-1.168-2.021m-24.671 0 1.168-2.022h2.334l1.167 2.022-1.167 2.021h-2.334l-1.168-2.021m-24.67 0 1.168-2.022h2.334l1.167 2.022-1.167 2.021h-2.334l-1.168-2.021m-24.671 0 1.168-2.022h2.334l1.167 2.022-1.167 2.021h-2.334l-1.168-2.021m-24.671 0 1.168-2.022h2.334l1.167 2.022-1.167 2.021h-2.334l-1.168-2.021m-24.67 0 1.168-2.022h2.334l1.167 2.022-1.167 2.021h-2.334l-1.168-2.021m-21.169-2.022 1.167 2.022-1.167 2.021h-2.334l-1.168-2.021 1.168-2.022h2.334m9.274-48.593-.44.762 1.168 2.022h2.334l1.167-2.022-.44-.762h20.882l-.441.762 1.168 2.022h2.334l1.168-2.022-.44-.762h20.881l-.44.762 1.168 2.022h2.334l1.167-2.022-.44-.762h20.882l-.441.762 1.168 2.022h2.334l1.168-2.022-.44-.762h20.881l-.44.762 1.168 2.022h2.334l1.167-2.022-.44-.762h20.882l-.441.762 1.168 2.022h2.334l1.168-2.022-.44-.762h20.881l-.44.762 1.168 2.022h2.334l1.167-2.022-.44-.762h13.459v3.09h-5.2v8.314h5.2v8.715h-5.2v8.315h5.2v8.714h-5.2v8.315h5.2v8.715h-5.2v8.514h-193v-8.514h-5.2v-8.715h5.2v-8.315h-5.2v-8.714h5.2v-8.315h-5.2v-8.715h5.2v-8.314h-5.2v-3.09h13.459l-.441.762 1.168 2.022h2.334l1.168-2.022-.44-.762h20.881" style="vector-effect:non-scaling-stroke;fill:none;stroke:#000;stroke-width:.264583;stroke-dasharray:none;stroke-opacity:1;-inkscape-stroke:hairline"/>
    <path fill="none" stroke="#000" stroke-width=".1mm" d="M489.404 549.883v-9.128h5.2v-8.727h-5.2V522.9h5.2v-8.927h193v8.927h5.2v9.128h-5.2v8.727h5.2v9.128h-5.2v8.727h5.2v9.128h-5.2v8.927h-193v-8.927h-5.2v-9.128h5.2v-8.727h-5.2" style="vector-effect:non-scaling-stroke;fill:none;stroke:#000;stroke-width:.264583;stroke-dasharray:none;stroke-opacity:1;-inkscape-stroke:hairline" transform="translate(209.74 -279.82)"/>
    <path d="m729.167 351.653-1.168 2.022h-2.334l-1.168-2.022 1.168-2.022h2.334l1.168 2.022m24.671 0-1.168 2.022h-2.334l-1.168-2.022 1.168-2.022h2.334l1.168 2.022m24.67 0-1.168 2.022h-2.334l-1.168-2.022 1.168-2.022h2.334l1.168 2.022m24.671 0-1.168 2.022h-2.334l-1.168-2.022 1.168-2.022h2.334l1.168 2.022m24.671 0-1.168 2.022h-2.334l-1.168-2.022 1.168-2.022h2.334l1.168 2.022m24.67 0-1.168 2.022h-2.334l-1.168-2.022 1.168-2.022h2.334l1.168 2.022m20.001 0 1.168-2.022h2.334l1.168 2.022-1.168 2.022h-2.334l-1.168-2.022m-155.689-7.122-1.168 2.022h-2.334l-1.168-2.022 1.168-2.022h2.334l1.168 2.022m24.671 0-1.168 2.022h-2.334l-1.168-2.022 1.168-2.022h2.334l1.168 2.022m24.67 0-1.168 2.022h-2.334l-1.168-2.022 1.168-2.022h2.334l1.168 2.022m24.671 0-1.168 2.022h-2.334l-1.168-2.022 1.168-2.022h2.334l1.168 2.022m24.67 0-1.168 2.022h-2.334l-1.168-2.022 1.168-2.022h2.334l1.168 2.022m24.671 0-1.168 2.022h-2.334l-1.168-2.022 1.168-2.022h2.334l1.168 2.022m24.67 0-1.168 2.022h-2.334l-1.168-2.022 1.168-2.022h2.334l1.168 2.022m20.001 0 1.168-2.022h2.334l1.168 2.022-1.168 2.022h-2.334l-1.168-2.022m-155.689-7.122-1.168 2.022h-2.334l-1.167-2.022 1.167-2.021h2.334l1.168 2.021m24.671 0-1.168 2.022h-2.334l-1.167-2.022 1.167-2.021h2.334l1.168 2.021m24.67 0-1.168 2.022h-2.334l-1.167-2.022 1.167-2.021h2.334l1.168 2.021m24.671 0-1.168 2.022h-2.334l-1.167-2.022 1.167-2.021h2.334l1.168 2.021m24.671 0-1.168 2.022h-2.334l-1.167-2.022 1.167-2.021h2.334l1.168 2.021m24.67 0-1.168 2.022h-2.334l-1.167-2.022 1.167-2.021h2.334l1.168 2.021m20.002 0 1.167-2.021h2.334l1.168 2.021-1.168 2.022h-2.334l-1.167-2.022m-155.69-7.121-1.168 2.021h-2.334l-1.167-2.021 1.167-2.022h2.334l1.168 2.022m24.671 0-1.168 2.021h-2.334l-1.167-2.021 1.167-2.022h2.334l1.168 2.022m24.67 0-1.168 2.021h-2.334l-1.167-2.021 1.167-2.022h2.334l1.168 2.022m24.671 0-1.168 2.021h-2.334l-1.167-2.021 1.167-2.022h2.334l1.168 2.022m24.67 0-1.168 2.021h-2.334l-1.167-2.021 1.167-2.022h2.334l1.168 2.022m24.671 0-1.168 2.021h-2.334l-1.167-2.021 1.167-2.022h2.334l1.168 2.022m24.67 0-1.168 2.021h-2.334l-1.167-2.021 1.167-2.022h2.334l1.168 2.022m20.002 0 1.167-2.022h2.334l1.168 2.022-1.168 2.021h-2.334l-1.167-2.021m-155.69-7.122-1.168 2.022h-2.334l-1.168-2.022 1.168-2.022h2.334l1.168 2.022m24.671 0-1.168 2.022h-2.334l-1.168-2.022 1.168-2.022h2.334l1.168 2.022m24.67 0-1.168 2.022h-2.334l-1.168-2.022 1.168-2.022h2.334l1.168 2.022m24.671 0-1.168 2.022h-2.334l-1.168-2.022 1.168-2.022h2.334l1.168 2.022m24.671 0-1.168 2.022h-2.334l-1.168-2.022 1.168-2.022h2.334l1.168 2.022m24.67 0-1.168 2.022h-2.334l-1.168-2.022 1.168-2.022h2.334l1.168 2.022m20.001 0 1.168-2.022h2.334l1.168 2.022-1.168 2.022h-2.334l-1.168-2.022m-155.689-7.122-1.168 2.022h-2.334l-1.168-2.022 1.168-2.022h2.334l1.168 2.022m24.671 0-1.168 2.022h-2.334l-1.168-2.022 1.168-2.022h2.334l1.168 2.022m24.67 0-1.168 2.022h-2.334l-1.168-2.022 1.168-2.022h2.334l1.168 2.022m24.671 0-1.168 2.022h-2.334l-1.168-2.022 1.168-2.022h2.334l1.168 2.022m24.67 0-1.168 2.022h-2.334l-1.168-2.022 1.168-2.022h2.334l1.168 2.022m24.671 0-1.168 2.022h-2.334l-1.168-2.022 1.168-2.022h2.334l1.168 2.022m24.67 0-1.168 2.022h-2.334l-1.168-2.022 1.168-2.022h2.334l1.168 2.022m20.001 0 1.168-2.022h2.334l1.168 2.022-1.168 2.022h-2.334l-1.168-2.022m-155.689-7.122-1.168 2.022h-2.334l-1.167-2.022 1.167-2.021h2.334l1.168 2.021m24.671 0-1.168 2.022h-2.334l-1.167-2.022 1.167-2.021h2.334l1.168 2.021m24.67 0-1.168 2.022h-2.334l-1.167-2.022 1.167-2.021h2.334l1.168 2.021m24.671 0-1.168 2.022h-2.334l-1.167-2.022 1.167-2.021h2.334l1.168 2.021m24.671 0-1.168 2.022h-2.334l-1.167-2.022 1.167-2.021h2.334l1.168 2.021m24.67 0-1.168 2.022h-2.334l-1.167-2.022 1.167-2.021h2.334l1.168 2.021m21.169 2.022-1.167-2.022 1.167-2.021h2.334l1.168 2.021-1.168 2.022h-2.334m-9.274 48.593.44-.762-1.168-2.022h-2.334l-1.167 2.022.44.762h-20.882l.441-.762-1.168-2.022h-2.334l-1.168 2.022.44.762h-20.881l.44-.762-1.168-2.022h-2.334l-1.167 2.022.44.762h-20.882l.441-.762-1.168-2.022h-2.334l-1.168 2.022.44.762h-20.881l.44-.762-1.168-2.022h-2.334l-1.167 2.022.44.762h-20.882l.441-.762-1.168-2.022h-2.334l-1.168 2.022.44.762h-20.881l.44-.762-1.168-2.022h-2.334l-1.167 2.022.44.762h-13.459v-3.09h5.2v-8.314h-5.2v-8.715h5.2v-8.315h-5.2v-8.714h5.2v-8.315h-5.2v-8.715h5.2v-8.514h193v8.514h5.2v8.715h-5.2v8.315h5.2v8.714h-5.2v8.315h5.2v8.715h-5.2v8.314h5.2v3.09h-13.459l.441-.762-1.168-2.022h-2.334l-1.168 2.022.44.762h-20.881" style="vector-effect:non-scaling-stroke;fill:none;stroke:#000;stroke-width:.264583;stroke-dasharray:none;stroke-opacity:1;-inkscape-stroke:hairline"/>
    <path fill="none" stroke="#000" stroke-width=".1mm" d="m552.564 401.54 9.201-5.113h35.031v57.35h-15.202l-4.213-7.582 4.72-2.623 1.203 2.166 4.371-2.429-4.24-7.629-4.545 2.526-1.003-1.804-4.545 2.526-4.233-7.618 4.72-2.623.802 1.444 4.37-2.429-4.239-7.629-4.546 2.526-.601-1.082-4.545 2.526-4.233-7.618 4.72-2.623.401.722 4.37-2.429-4.24-7.629-4.545 2.526-.2-.36-4.546 2.526-4.233-7.618" style="vector-effect:non-scaling-stroke;fill:none;stroke:#000;stroke-width:.264583;stroke-dasharray:none;stroke-opacity:1;-inkscape-stroke:hairline" transform="rotate(-90 751.543 448.826)"/>
    <path fill="none" stroke="#000" stroke-width=".1mm" d="M692.804 519.315h35.031l9.201 5.113-4.233 7.618-4.546-2.526-.2.36-4.545-2.526-4.24 7.629 4.37 2.429.401-.722 4.72 2.623-4.233 7.618-4.545-2.526-.601 1.082-4.546-2.526-4.239 7.629 4.37 2.429.802-1.444 4.72 2.623-4.233 7.618-4.545-2.526-1.003 1.804-4.545-2.526-4.24 7.629 4.371 2.429 1.203-2.166 4.72 2.623-4.213 7.582h-15.202v-57.35" style="vector-effect:non-scaling-stroke;fill:none;stroke:#000;stroke-width:.264583;stroke-dasharray:none;stroke-opacity:1;-inkscape-stroke:hairline" transform="rotate(-90 797.915 560.736)"/>
    <path fill="none" stroke="#000" stroke-width=".1mm" d="M505.835 513.973v-5.2h-16.431v-14.05h16.431v-5.2h16.631v5.2h16.23v-5.2h16.631v5.2h16.231v-5.2h16.631v5.2h16.23v-5.2h16.631v5.2h16.231v-5.2h16.631v5.2h16.23v-5.2h16.631v5.2h16.431v14.05h-16.431v5.2h-16.631v-5.2h-16.23v5.2h-16.631v-5.2H621.05v5.2h-16.631v-5.2h-16.23v5.2h-16.631v-5.2h-16.231v5.2h-16.631v-5.2h-16.23v5.2h-16.631" style="vector-effect:non-scaling-stroke;fill:none;stroke:#000;stroke-width:.264583;stroke-dasharray:none;stroke-opacity:1;-inkscape-stroke:hairline" transform="rotate(-90 668.164 482.993)"/>
    <path fill="none" stroke="#000" stroke-width=".1mm" d="M513.672 458.977h16.23v-5.2h16.631v5.2h16.431v10.2h-5.2v9.8h5.2v10.2h-213.8v-10.2h5.2v-9.8h-5.2v-10.2h16.431v-5.2h16.631v5.2h16.23v-5.2h16.631v5.2h16.231v-5.2h16.631v5.2h16.23v-5.2h16.631v5.2h16.231v-5.2h16.631v5.2" style="vector-effect:non-scaling-stroke;fill:none;stroke:#000;stroke-width:.264583;stroke-dasharray:none;stroke-opacity:1;-inkscape-stroke:hairline" transform="rotate(90 514.841 613.63)"/>
    <path fill="none" stroke="#000" stroke-width=".1mm" d="M382.026 391.085v-5.2h-16.231v5.2h-16.631v-12.67h5.2v-12.27h-5.2v-12.67h5.2v-12.27h-5.2v-12.67h16.431v-5.2h16.631v5.2h16.23v-5.2h16.631v5.2h16.231v-5.2h16.631v5.2h16.23v-5.2h16.631v5.2h16.231v-5.2h16.631v5.2h16.23v-5.2h16.631v5.2h16.431v12.67h-5.2v12.27h5.2v12.67h-5.2v12.27h5.2v12.67h-16.631v-5.2h-16.231v5.2h-16.63v-5.2h-16.231v5.2H480.61v-5.2h-16.231v5.2h-16.63v-5.2h-16.231v5.2h-16.631v-5.2h-16.231v5.2h-16.63" style="vector-effect:non-scaling-stroke;fill:none;stroke:#000;stroke-width:.264583;stroke-dasharray:none;stroke-opacity:1;-inkscape-stroke:hairline" transform="rotate(-90 542.519 468.398)"/>
    <path d="m632.752 638.865 2.022 1.168v2.334l-2.022 1.168-2.022-1.168v-2.334l2.022-1.168m0-24.671 2.022 1.168v2.334l-2.022 1.168-2.022-1.168v-2.334l2.022-1.168m0-24.67 2.022 1.168v2.334l-2.022 1.168-2.022-1.168v-2.334l2.022-1.168m0-24.671 2.022 1.168v2.334l-2.022 1.168-2.022-1.168v-2.334l2.022-1.168m0-24.67 2.022 1.168v2.334l-2.022 1.168-2.022-1.168v-2.334l2.022-1.168m0-24.671 2.022 1.168v2.334l-2.022 1.168-2.022-1.168v-2.334l2.022-1.168m0-24.67 2.022 1.168v2.334l-2.022 1.168-2.022-1.168v-2.334l2.022-1.168m0-20.001-2.022-1.168v-2.334l2.022-1.168 2.022 1.168v2.334l-2.022 1.168M625.63 626.53l2.022 1.168v2.334l-2.022 1.168-2.022-1.168v-2.334l2.022-1.168m0-24.671 2.022 1.168v2.334l-2.022 1.168-2.022-1.168v-2.334l2.022-1.168m0-24.67 2.022 1.168v2.334l-2.022 1.168-2.022-1.168v-2.334l2.022-1.168m0-24.671 2.022 1.168v2.334l-2.022 1.168-2.022-1.168v-2.334l2.022-1.168m0-24.671 2.022 1.168v2.334l-2.022 1.168-2.022-1.168v-2.334l2.022-1.168m0-24.67 2.022 1.168v2.334l-2.022 1.168-2.022-1.168v-2.334l2.022-1.168m0-20.001-2.022-1.168v-2.334l2.022-1.168 2.022 1.168v2.334l-2.022 1.168m-7.122 155.689 2.022 1.168v2.334l-2.022 1.167-2.021-1.167v-2.334l2.021-1.168m0-24.671 2.022 1.168v2.334l-2.022 1.167-2.021-1.167v-2.334l2.021-1.168m0-24.67 2.022 1.168v2.334l-2.022 1.167-2.021-1.167v-2.334l2.021-1.168m0-24.671 2.022 1.168v2.334l-2.022 1.167-2.021-1.167v-2.334l2.021-1.168m0-24.67 2.022 1.168v2.334l-2.022 1.167-2.021-1.167v-2.334l2.021-1.168m0-24.671 2.022 1.168v2.334l-2.022 1.167-2.021-1.167v-2.334l2.021-1.168m0-24.67 2.022 1.168v2.334l-2.022 1.167-2.021-1.167v-2.334l2.021-1.168m0-20.002-2.021-1.167v-2.334l2.021-1.168 2.022 1.168v2.334l-2.022 1.167m-7.121 155.69 2.021 1.168v2.334l-2.021 1.167-2.022-1.167v-2.334l2.022-1.168m0-24.671 2.021 1.168v2.334l-2.021 1.167-2.022-1.167v-2.334l2.022-1.168m0-24.67 2.021 1.168v2.334l-2.021 1.167-2.022-1.167v-2.334l2.022-1.168m0-24.671 2.021 1.168v2.334l-2.021 1.167-2.022-1.167v-2.334l2.022-1.168m0-24.671 2.021 1.168v2.334l-2.021 1.167-2.022-1.167v-2.334l2.022-1.168m0-24.67 2.021 1.168v2.334l-2.021 1.167-2.022-1.167v-2.334l2.022-1.168m0-20.002-2.022-1.167v-2.334l2.022-1.168 2.021 1.168v2.334l-2.021 1.167m-7.122 155.69 2.022 1.168v2.334l-2.022 1.168-2.022-1.168v-2.334l2.022-1.168m0-24.671 2.022 1.168v2.334l-2.022 1.168-2.022-1.168v-2.334l2.022-1.168m0-24.67 2.022 1.168v2.334l-2.022 1.168-2.022-1.168v-2.334l2.022-1.168m0-24.671 2.022 1.168v2.334l-2.022 1.168-2.022-1.168v-2.334l2.022-1.168m0-24.67 2.022 1.168v2.334l-2.022 1.168-2.022-1.168v-2.334l2.022-1.168m0-24.671 2.022 1.168v2.334l-2.022 1.168-2.022-1.168v-2.334l2.022-1.168m0-24.67 2.022 1.168v2.334l-2.022 1.168-2.022-1.168v-2.334l2.022-1.168m0-20.001-2.022-1.168v-2.334l2.022-1.168 2.022 1.168v2.334l-2.022 1.168m-7.122 155.689 2.022 1.168v2.334l-2.022 1.168-2.022-1.168v-2.334l2.022-1.168m0-24.671 2.022 1.168v2.334l-2.022 1.168-2.022-1.168v-2.334l2.022-1.168m0-24.67 2.022 1.168v2.334l-2.022 1.168-2.022-1.168v-2.334l2.022-1.168m0-24.671 2.022 1.168v2.334l-2.022 1.168-2.022-1.168v-2.334l2.022-1.168m0-24.671 2.022 1.168v2.334l-2.022 1.168-2.022-1.168v-2.334l2.022-1.168m0-24.67 2.022 1.168v2.334l-2.022 1.168-2.022-1.168v-2.334l2.022-1.168m0-20.001-2.022-1.168v-2.334l2.022-1.168 2.022 1.168v2.334l-2.022 1.168m-7.122 155.689 2.022 1.168v2.334l-2.022 1.167-2.021-1.167v-2.334l2.021-1.168m0-24.671 2.022 1.168v2.334l-2.022 1.167-2.021-1.167v-2.334l2.021-1.168m0-24.67 2.022 1.168v2.334l-2.022 1.167-2.021-1.167v-2.334l2.021-1.168m0-24.671 2.022 1.168v2.334l-2.022 1.167-2.021-1.167v-2.334l2.021-1.168m0-24.67 2.022 1.168v2.334l-2.022 1.167-2.021-1.167v-2.334l2.021-1.168m0-24.671 2.022 1.168v2.334l-2.022 1.167-2.021-1.167v-2.334l2.021-1.168m0-24.67 2.022 1.168v2.334l-2.022 1.167-2.021-1.167v-2.334l2.021-1.168m0-20.002L588 469.673v-2.334l2.021-1.168 2.022 1.168v2.334l-2.022 1.167M582.9 626.53l2.021 1.168v2.334l-2.021 1.167-2.022-1.167v-2.334l2.022-1.168m0-24.671 2.021 1.168v2.334l-2.021 1.167-2.022-1.167v-2.334l2.022-1.168m0-24.67 2.021 1.168v2.334l-2.021 1.167-2.022-1.167v-2.334l2.022-1.168m0-24.671 2.021 1.168v2.334l-2.021 1.167-2.022-1.167v-2.334l2.022-1.168m0-24.671 2.021 1.168v2.334l-2.021 1.167-2.022-1.167v-2.334l2.022-1.168m0-24.67 2.021 1.168v2.334l-2.021 1.167-2.022-1.167v-2.334l2.022-1.168m0-20.002-2.022-1.167v-2.334l2.022-1.168 2.021 1.168v2.334l-2.021 1.167m56.394 173.378h-9.34v5.2h-9.541v-5.2h-9.14v5.2h-9.54v-5.2h-9.14v5.2h-9.541v-5.2h-9.34v-203.4h9.34v-5.2h9.541v5.2h9.14v-5.2h9.54v5.2h9.14v-5.2h9.541v5.2h9.34v203.4" style="vector-effect:non-scaling-stroke;fill:none;stroke:#000;stroke-width:.264583;stroke-dasharray:none;stroke-opacity:1;-inkscape-stroke:hairline"/>
    <path fill="none" stroke="#000" stroke-width=".1mm" d="M596.796 401.575h16.631v5.2h16.231v-5.2h16.63v5.2h16.231v-5.2h16.631v5.2h16.231v-5.2h16.63v5.2h16.231v-5.2h16.631v5.2h16.231v-5.2h16.63v5.2h16.231v-5.2h16.631v10.178h-5.2v9.779h5.2v10.178h-5.2v9.779h5.2v10.178h-5.2v2.11h-203.4v-2.11h-5.2v-10.178h5.2v-9.779h-5.2v-10.178h5.2v-9.779h-5.2v-10.178" style="vector-effect:non-scaling-stroke;fill:none;stroke:#000;stroke-width:.264583;stroke-dasharray:none;stroke-opacity:1;-inkscape-stroke:hairline" transform="rotate(-90 661.09 597.459)"/>
    <path fill="none" stroke="#000" stroke-width=".1mm" d="M737.036 522.28h5.2v-1.919h203.4v1.919h5.2v10.179h-16.631v-5.2h-16.231v5.2h-16.63v-5.2h-16.231v5.2h-16.631v-5.2h-16.231v5.2h-16.63v-5.2H819.39v5.2h-16.631v-5.2h-16.231v5.2h-16.63v-5.2h-16.231v5.2h-16.631V522.28" style="vector-effect:non-scaling-stroke;fill:none;stroke:#000;stroke-width:.264583;stroke-dasharray:none;stroke-opacity:1;-inkscape-stroke:hairline" transform="rotate(-90 697.918 700.871)"/>
    <path fill="none" stroke="#000" stroke-width=".1mm" d="M737.036 532.459h213.8v14.869h-5.2v14.468h5.2v14.869h-16.631v-5.2h-16.231v5.2h-16.63v-5.2h-16.231v5.2h-16.631v-5.2h-16.231v5.2h-16.63v-5.2H819.39v5.2h-16.631v-5.2h-16.231v5.2h-16.63v-5.2h-16.231v5.2h-16.631v-14.869h5.2v-14.468h-5.2v-14.869" style="vector-effect:non-scaling-stroke;fill:none;stroke:#000;stroke-width:.264583;stroke-dasharray:none;stroke-opacity:1;-inkscape-stroke:hairline" transform="rotate(90 697.627 408.544)"/>
    <path fill="none" stroke="#000" stroke-width=".1mm" d="M505.835 513.973v-5.2h-16.431v-14.05h16.431v-5.2h16.631v5.2h16.23v-5.2h16.631v5.2h16.231v-5.2h16.631v5.2h16.23v-5.2h16.631v5.2h16.231v-5.2h16.631v5.2h16.23v-5.2h16.631v5.2h16.431v14.05h-16.431v5.2h-16.631v-5.2h-16.23v5.2h-16.631v-5.2H621.05v5.2h-16.631v-5.2h-16.23v5.2h-16.631v-5.2h-16.231v5.2h-16.631v-5.2h-16.23v5.2h-16.631" style="vector-effect:non-scaling-stroke;fill:none;stroke:#000;stroke-width:.264583;stroke-dasharray:none;stroke-opacity:1;-inkscape-stroke:hairline" transform="rotate(-90 561.264 376.093)"/>
    <path fill="none" stroke="#000" stroke-width=".1mm" d="M513.672 458.977h16.23v-5.2h16.631v5.2h16.431v10.2h-5.2v9.8h5.2v10.2h-213.8v-10.2h5.2v-9.8h-5.2v-10.2h16.431v-5.2h16.631v5.2h16.23v-5.2h16.631v5.2h16.231v-5.2h16.631v5.2h16.23v-5.2h16.631v5.2h16.231v-5.2h16.631v5.2" style="vector-effect:non-scaling-stroke;fill:none;stroke:#000;stroke-width:.264583;stroke-dasharray:none;stroke-opacity:1;-inkscape-stroke:hairline" transform="rotate(90 621.741 506.73)"/>
    <path fill="none" stroke="#000" stroke-width=".1mm" d="M382.026 391.085v-5.2h-16.231v5.2h-16.631v-12.67h5.2v-12.27h-5.2v-12.67h5.2v-12.27h-5.2v-12.67h16.431v-5.2h16.631v5.2h16.23v-5.2h16.631v5.2h16.231v-5.2h16.631v5.2h16.23v-5.2h16.631v5.2h16.231v-5.2h16.631v5.2h16.23v-5.2h16.631v5.2h16.431v12.67h-5.2v12.27h5.2v12.67h-5.2v12.27h5.2v12.67h-16.631v-5.2h-16.231v5.2h-16.63v-5.2h-16.231v5.2H480.61v-5.2h-16.231v5.2h-16.63v-5.2h-16.231v5.2h-16.631v-5.2h-16.231v5.2h-16.63" style="vector-effect:non-scaling-stroke;fill:none;stroke:#000;stroke-width:.264583;stroke-dasharray:none;stroke-opacity:1;-inkscape-stroke:hairline" transform="rotate(-90 435.619 361.498)"/>
    <path d="m632.752 425.065 2.022 1.168v2.334l-2.022 1.168-2.022-1.168v-2.334l2.022-1.168m0-24.671 2.022 1.168v2.334l-2.022 1.168-2.022-1.168v-2.334l2.022-1.168m0-24.67 2.022 1.168v2.334l-2.022 1.168-2.022-1.168v-2.334l2.022-1.168m0-24.671 2.022 1.168v2.334l-2.022 1.168-2.022-1.168v-2.334l2.022-1.168m0-24.67 2.022 1.168v2.334l-2.022 1.168-2.022-1.168v-2.334l2.022-1.168m0-24.671 2.022 1.168v2.334l-2.022 1.168-2.022-1.168v-2.334l2.022-1.168m0-24.67 2.022 1.168v2.334l-2.022 1.168-2.022-1.168v-2.334l2.022-1.168m0-20.001-2.022-1.168v-2.334l2.022-1.168 2.022 1.168v2.334l-2.022 1.168M625.63 412.73l2.022 1.168v2.334l-2.022 1.168-2.022-1.168v-2.334l2.022-1.168m0-24.671 2.022 1.168v2.334l-2.022 1.168-2.022-1.168v-2.334l2.022-1.168m0-24.67 2.022 1.168v2.334l-2.022 1.168-2.022-1.168v-2.334l2.022-1.168m0-24.671 2.022 1.168v2.334l-2.022 1.168-2.022-1.168v-2.334l2.022-1.168m0-24.671 2.022 1.168v2.334l-2.022 1.168-2.022-1.168v-2.334l2.022-1.168m0-24.67 2.022 1.168v2.334l-2.022 1.168-2.022-1.168v-2.334l2.022-1.168m0-20.001-2.022-1.168v-2.334l2.022-1.168 2.022 1.168v2.334l-2.022 1.168m-7.122 155.689 2.022 1.168v2.334l-2.022 1.167-2.021-1.167v-2.334l2.021-1.168m0-24.671 2.022 1.168v2.334l-2.022 1.167-2.021-1.167v-2.334l2.021-1.168m0-24.67 2.022 1.168v2.334l-2.022 1.167-2.021-1.167v-2.334l2.021-1.168m0-24.671 2.022 1.168v2.334l-2.022 1.167-2.021-1.167v-2.334l2.021-1.168m0-24.67 2.022 1.168v2.334l-2.022 1.167-2.021-1.167v-2.334l2.021-1.168m0-24.671 2.022 1.168v2.334l-2.022 1.167-2.021-1.167v-2.334l2.021-1.168m0-24.67 2.022 1.168v2.334l-2.022 1.167-2.021-1.167v-2.334l2.021-1.168m0-20.002-2.021-1.167v-2.334l2.021-1.168 2.022 1.168v2.334l-2.022 1.167m-7.121 155.69 2.021 1.168v2.334l-2.021 1.167-2.022-1.167v-2.334l2.022-1.168m0-24.671 2.021 1.168v2.334l-2.021 1.167-2.022-1.167v-2.334l2.022-1.168m0-24.67 2.021 1.168v2.334l-2.021 1.167-2.022-1.167v-2.334l2.022-1.168m0-24.671 2.021 1.168v2.334l-2.021 1.167-2.022-1.167v-2.334l2.022-1.168m0-24.671 2.021 1.168v2.334l-2.021 1.167-2.022-1.167v-2.334l2.022-1.168m0-24.67 2.021 1.168v2.334l-2.021 1.167-2.022-1.167v-2.334l2.022-1.168m0-20.002-2.022-1.167v-2.334l2.022-1.168 2.021 1.168v2.334l-2.021 1.167m-7.122 155.69 2.022 1.168v2.334l-2.022 1.168-2.022-1.168v-2.334l2.022-1.168m0-24.671 2.022 1.168v2.334l-2.022 1.168-2.022-1.168v-2.334l2.022-1.168m0-24.67 2.022 1.168v2.334l-2.022 1.168-2.022-1.168v-2.334l2.022-1.168m0-24.671 2.022 1.168v2.334l-2.022 1.168-2.022-1.168v-2.334l2.022-1.168m0-24.67 2.022 1.168v2.334l-2.022 1.168-2.022-1.168v-2.334l2.022-1.168m0-24.671 2.022 1.168v2.334l-2.022 1.168-2.022-1.168v-2.334l2.022-1.168m0-24.67 2.022 1.168v2.334l-2.022 1.168-2.022-1.168v-2.334l2.022-1.168m0-20.001-2.022-1.168v-2.334l2.022-1.168 2.022 1.168v2.334l-2.022 1.168m-7.122 155.689 2.022 1.168v2.334l-2.022 1.168-2.022-1.168v-2.334l2.022-1.168m0-24.671 2.022 1.168v2.334l-2.022 1.168-2.022-1.168v-2.334l2.022-1.168m0-24.67 2.022 1.168v2.334l-2.022 1.168-2.022-1.168v-2.334l2.022-1.168m0-24.671 2.022 1.168v2.334l-2.022 1.168-2.022-1.168v-2.334l2.022-1.168m0-24.671 2.022 1.168v2.334l-2.022 1.168-2.022-1.168v-2.334l2.022-1.168m0-24.67 2.022 1.168v2.334l-2.022 1.168-2.022-1.168v-2.334l2.022-1.168m0-20.001-2.022-1.168v-2.334l2.022-1.168 2.022 1.168v2.334l-2.022 1.168m-7.122 155.689 2.022 1.168v2.334l-2.022 1.167-2.021-1.167v-2.334l2.021-1.168m0-24.671 2.022 1.168v2.334l-2.022 1.167-2.021-1.167v-2.334l2.021-1.168m0-24.67 2.022 1.168v2.334l-2.022 1.167-2.021-1.167v-2.334l2.021-1.168m0-24.671 2.022 1.168v2.334l-2.022 1.167-2.021-1.167v-2.334l2.021-1.168m0-24.67 2.022 1.168v2.334l-2.022 1.167-2.021-1.167v-2.334l2.021-1.168m0-24.671 2.022 1.168v2.334l-2.022 1.167-2.021-1.167v-2.334l2.021-1.168m0-24.67 2.022 1.168v2.334l-2.022 1.167-2.021-1.167v-2.334l2.021-1.168m0-20.002L588 255.873v-2.334l2.021-1.168 2.022 1.168v2.334l-2.022 1.167M582.9 412.73l2.021 1.168v2.334l-2.021 1.167-2.022-1.167v-2.334l2.022-1.168m0-24.671 2.021 1.168v2.334l-2.021 1.167-2.022-1.167v-2.334l2.022-1.168m0-24.67 2.021 1.168v2.334l-2.021 1.167-2.022-1.167v-2.334l2.022-1.168m0-24.671 2.021 1.168v2.334l-2.021 1.167-2.022-1.167v-2.334l2.022-1.168m0-24.671 2.021 1.168v2.334l-2.021 1.167-2.022-1.167v-2.334l2.022-1.168m0-24.67 2.021 1.168v2.334l-2.021 1.167-2.022-1.167v-2.334l2.022-1.168m0-20.002-2.022-1.167v-2.334l2.022-1.168 2.021 1.168v2.334l-2.021 1.167m56.394 173.378h-9.34v5.2h-9.541v-5.2h-9.14v5.2h-9.54v-5.2h-9.14v5.2h-9.541v-5.2h-9.34v-203.4h9.34v-5.2h9.541v5.2h9.14v-5.2h9.54v5.2h9.14v-5.2h9.541v5.2h9.34v203.4" style="vector-effect:non-scaling-stroke;fill:none;stroke:#000;stroke-width:.264583;stroke-dasharray:none;stroke-opacity:1;-inkscape-stroke:hairline"/>
    <path fill="none" stroke="#000" stroke-width=".1mm" d="M596.796 401.575h16.631v5.2h16.231v-5.2h16.63v5.2h16.231v-5.2h16.631v5.2h16.231v-5.2h16.63v5.2h16.231v-5.2h16.631v5.2h16.231v-5.2h16.63v5.2h16.231v-5.2h16.631v10.178h-5.2v9.779h5.2v10.178h-5.2v9.779h5.2v10.178h-5.2v2.11h-203.4v-2.11h-5.2v-10.178h5.2v-9.779h-5.2v-10.178h5.2v-9.779h-5.2v-10.178" style="vector-effect:non-scaling-stroke;fill:none;stroke:#000;stroke-width:.264583;stroke-dasharray:none;stroke-opacity:1;-inkscape-stroke:hairline" transform="rotate(-90 554.19 490.559)"/>
    <path fill="none" stroke="#000" stroke-width=".1mm" d="M737.036 522.28h5.2v-1.919h203.4v1.919h5.2v10.179h-16.631v-5.2h-16.231v5.2h-16.63v-5.2h-16.231v5.2h-16.631v-5.2h-16.231v5.2h-16.63v-5.2H819.39v5.2h-16.631v-5.2h-16.231v5.2h-16.63v-5.2h-16.231v5.2h-16.631V522.28" style="vector-effect:non-scaling-stroke;fill:none;stroke:#000;stroke-width:.264583;stroke-dasharray:none;stroke-opacity:1;-inkscape-stroke:hairline" transform="rotate(-90 591.018 593.971)"/>
    <path fill="none" stroke="#000" stroke-width=".1mm" d="M737.036 532.459h213.8v14.869h-5.2v14.468h5.2v14.869h-16.631v-5.2h-16.231v5.2h-16.63v-5.2h-16.231v5.2h-16.631v-5.2h-16.231v5.2h-16.63v-5.2H819.39v5.2h-16.631v-5.2h-16.231v5.2h-16.63v-5.2h-16.231v5.2h-16.631v-14.869h5.2v-14.468h-5.2v-14.869" style="vector-effect:non-scaling-stroke;fill:none;stroke:#000;stroke-width:.264583;stroke-dasharray:none;stroke-opacity:1;-inkscape-stroke:hairline" transform="rotate(90 804.527 301.644)"/>
</svg>
