<?xml version="1.0" encoding="UTF-8" standalone="no"?>
<svg
   width="1300mm"
   height="900mm"
   viewBox="0 0 1300 900"
   version="1.1"
   id="svg123"
   sodipodi:docname="Driver0.25x52.svg"
   inkscape:version="1.3.2 (091e20ef0f, 2023-11-25)"
   xmlns:inkscape="http://www.inkscape.org/namespaces/inkscape"
   xmlns:sodipodi="http://sodipodi.sourceforge.net/DTD/sodipodi-0.dtd"
   xmlns="http://www.w3.org/2000/svg"
   xmlns:svg="http://www.w3.org/2000/svg">
  <defs
     id="defs123" />
  <sodipodi:namedview
     id="namedview123"
     pagecolor="#505050"
     bordercolor="#eeeeee"
     borderopacity="1"
     inkscape:showpageshadow="0"
     inkscape:pageopacity="0"
     inkscape:pagecheckerboard="0"
     inkscape:deskcolor="#505050"
     inkscape:document-units="mm"
     inkscape:zoom="0.15508653"
     inkscape:cx="1254.1386"
     inkscape:cy="1828.0118"
     inkscape:window-width="1920"
     inkscape:window-height="1011"
     inkscape:window-x="0"
     inkscape:window-y="32"
     inkscape:window-maximized="1"
     inkscape:current-layer="svg123" />
  <polyline
     z="0"
     points="562.002,366.693 571.682,362.573 608.195,362.573 608.195,438.973 592.77,438.973 588.319,428.516 593.287,426.401 594.03,428.146 598.631,426.189 594.199,415.778 589.414,417.814 588.795,416.36 584.012,418.396 579.547,407.909 584.515,405.793 585.011,406.957 589.611,404.999 585.18,394.588 580.396,396.625 580.024,395.752 575.239,397.789 570.774,387.301 575.743,385.185 575.991,385.767 580.591,383.81 576.159,373.399 571.376,375.435 571.252,375.144 566.467,377.181 562.002,366.693"
     fill="none"
     stroke="#000000"
     stroke-width="0.1mm"
     id="polyline118"
     style="vector-effect:non-scaling-stroke;stroke-width:0.264583;stroke-dasharray:none;-inkscape-stroke:hairline"
     transform="rotate(-90,413.57171,402.0227)" />
  <polyline
     z="0"
     points="691.805,531.902 701.484,527.781 737.998,527.781 737.998,604.181 722.573,604.181 718.122,593.725 723.09,591.61 723.833,593.355 728.434,591.398 724.002,580.987 719.217,583.023 718.598,581.569 713.814,583.605 709.35,573.118 714.318,571.002 714.814,572.166 719.414,570.208 714.982,559.797 710.198,561.834 709.826,560.961 705.041,562.998 700.577,552.51 705.546,550.394 705.794,550.976 710.394,549.019 705.962,538.608 701.178,540.644 701.054,540.353 696.269,542.39 691.805,531.902"
     fill="none"
     stroke="#000000"
     stroke-width="0.1mm"
     id="polyline121"
     style="vector-effect:non-scaling-stroke;stroke-width:0.264583;stroke-dasharray:none;-inkscape-stroke:hairline"
     transform="rotate(90,751.53222,267.12663)" />
  <polyline
     z="0"
     points="562.002,366.693 571.682,362.573 608.195,362.573 608.195,438.973 592.77,438.973 588.319,428.516 593.287,426.401 594.03,428.146 598.631,426.189 594.199,415.778 589.414,417.814 588.795,416.36 584.012,418.396 579.547,407.909 584.515,405.793 585.011,406.957 589.611,404.999 585.18,394.588 580.396,396.625 580.024,395.752 575.239,397.789 570.774,387.301 575.743,385.185 575.991,385.767 580.591,383.81 576.159,373.399 571.376,375.435 571.252,375.144 566.467,377.181 562.002,366.693"
     fill="none"
     stroke="#000000"
     stroke-width="0.1mm"
     id="polyline118-7"
     style="vector-effect:non-scaling-stroke;stroke-width:0.264583;stroke-dasharray:none;-inkscape-stroke:hairline"
     transform="matrix(0,1,1,0,128.30486,-354.60258)" />
  <polyline
     z="0"
     points="691.805,531.902 701.484,527.781 737.998,527.781 737.998,604.181 722.573,604.181 718.122,593.725 723.09,591.61 723.833,593.355 728.434,591.398 724.002,580.987 719.217,583.023 718.598,581.569 713.814,583.605 709.35,573.118 714.318,571.002 714.814,572.166 719.414,570.208 714.982,559.797 710.198,561.834 709.826,560.961 705.041,562.998 700.577,552.51 705.546,550.394 705.794,550.976 710.394,549.019 705.962,538.608 701.178,540.644 701.054,540.353 696.269,542.39 691.805,531.902"
     fill="none"
     stroke="#000000"
     stroke-width="0.1mm"
     id="polyline121-6"
     style="vector-effect:non-scaling-stroke;stroke-width:0.264583;stroke-dasharray:none;-inkscape-stroke:hairline"
     transform="matrix(0,-1,-1,0,1135.415,945.39742)" />
  <polyline
     z="0"
     points="516.267,604.181 516.267,609.381 532.497,609.381 532.497,604.181 549.128,604.181 549.128,609.381 565.359,609.381 565.359,604.181 581.99,604.181 581.99,609.381 598.22,609.381 598.22,604.181 614.851,604.181 614.851,609.381 631.082,609.381 631.082,604.181 647.713,604.181 647.713,609.381 663.943,609.381 663.943,604.181 680.574,604.181 680.574,609.381 691.805,609.381 691.805,623.431 680.574,623.431 680.574,628.631 663.943,628.631 663.943,623.431 647.713,623.431 647.713,628.631 631.082,628.631 631.082,623.431 614.851,623.431 614.851,628.631 598.22,628.631 598.22,623.431 581.99,623.431 581.99,628.631 565.359,628.631 565.359,623.431 549.128,623.431 549.128,628.631 532.497,628.631 532.497,623.431 516.267,623.431 516.267,628.631 499.636,628.631 499.636,623.431 488.405,623.431 488.405,609.381 499.636,609.381 499.636,604.181 516.267,604.181"
     fill="none"
     stroke="#000000"
     stroke-width="0.1mm"
     id="polyline62"
     style="vector-effect:non-scaling-stroke;stroke-width:0.264583;stroke-dasharray:none;-inkscape-stroke:hairline"
     transform="rotate(-90,357.66921,587.7282)" />
  <polyline
     z="0"
     points="516.267,604.181 516.267,609.381 532.497,609.381 532.497,604.181 549.128,604.181 549.128,609.381 565.359,609.381 565.359,604.181 581.99,604.181 581.99,609.381 598.22,609.381 598.22,604.181 614.851,604.181 614.851,609.381 631.082,609.381 631.082,604.181 647.713,604.181 647.713,609.381 663.943,609.381 663.943,604.181 680.574,604.181 680.574,609.381 691.805,609.381 691.805,623.431 680.574,623.431 680.574,628.631 663.943,628.631 663.943,623.431 647.713,623.431 647.713,628.631 631.082,628.631 631.082,623.431 614.851,623.431 614.851,628.631 598.22,628.631 598.22,623.431 581.99,623.431 581.99,628.631 565.359,628.631 565.359,623.431 549.128,623.431 549.128,628.631 532.497,628.631 532.497,623.431 516.267,623.431 516.267,628.631 499.636,628.631 499.636,623.431 488.405,623.431 488.405,609.381 499.636,609.381 499.636,604.181 516.267,604.181"
     fill="none"
     stroke="#000000"
     stroke-width="0.1mm"
     id="polyline62-0"
     style="vector-effect:non-scaling-stroke;stroke-width:0.264583;stroke-dasharray:none;-inkscape-stroke:hairline"
     transform="rotate(90,517.0828,485.67021)" />
  <path
     id="polyline4"
     style="vector-effect:non-scaling-stroke;fill:none;stroke:#000000;stroke-width:0.264583;-inkscape-stroke:hairline"
     d="m 741.96099,607.55187 -1.959,4.601 -10.701,-4.556 1.958,-4.6 10.702,4.555 m 21.772,9.268 -1.959,4.601 -10.702,-4.556 1.959,-4.601 10.702,4.556 m 11.069,4.712 10.702,4.556 -1.959,4.6 -10.701,-4.556 1.958,-4.6 m -52.196,-44.726 h 9.822 v 5.2 h 9.423 v -5.2 h 9.822 v 5.2 h 9.422 v -5.2 h 9.822 v 5.2 h 9.423 v -5.2 h 9.822 v 5.2 h 4.422 v 12.93 h 5.2 v 13.13 h -5.2 v 12.73 h 5 v -5.831 l 14.322,-14.323 5.33,2.208 h -5.602 v 14.469 h 5.2 v 14.868 h -5.2 v 14.669 h -14.05 v -11.303 h -5 v 11.35401 l -81.99,-34.901 h 5.59 v -9.8 h -5.2 v -10.2 h 5.2 v -10 h 4.422 v -5.2" />
  <path
     id="polyline8"
     style="vector-effect:non-scaling-stroke;fill:none;stroke:#000000;stroke-width:0.264583;-inkscape-stroke:hairline"
     d="m 846.64399,657.25359 1.959,4.601 -10.702,4.554 -1.958,-4.59901 10.701,-4.556 m 21.772,-9.268 1.959,4.601 -10.702,4.555 -1.959,-4.6 10.702,-4.556 m 21.771,-9.267 1.959,4.6 -10.702,4.555 -1.958,-4.599 10.701,-4.556 m 11.039,-16.22 v 11.355 h 5 v -11.303 h 14.05 v 14.669 h 5.2 v 14.868 h -5.2 v 14.469 h 5.602 l -5.33,2.208 -14.322,-14.323 v -5.831 h -5 v 12.73 h 5.2 v 13.13 h -5.2 v 12.93 h -4.422 v 5.2 h -9.822 v -5.2 h -9.423 v 5.2 h -9.822 v -5.2 h -9.422 v 5.2 h -9.822 v -5.2 h -9.423 v 5.2 h -9.822 v -5.2 h -4.422 v -10 h -5.2 v -10.2 h 5.2 v -9.8 h -5.59 l 81.99,-34.902" />
  <path
     id="polyline4-3"
     style="vector-effect:non-scaling-stroke;fill:none;stroke:#000000;stroke-width:0.264583;-inkscape-stroke:hairline"
     d="m 789.86899,661.85459 1.959,-4.601 10.701,4.556 -1.958,4.6 -10.702,-4.555 m -21.772,-9.268 1.959,-4.601 10.702,4.556 -1.959,4.601 -10.702,-4.556 m -11.069,-4.712 -10.702,-4.556 1.959,-4.6 10.701,4.556 -1.958,4.6 m 52.196,44.726 h -9.822 v -5.2 h -9.423 v 5.2 h -9.822 v -5.2 h -9.422 v 5.2 h -9.822 v -5.2 h -9.423 v 5.2 h -9.822 v -5.2 h -4.422 v -12.93 h -5.2 v -13.13 h 5.2 v -12.73 h -5 v 5.831 l -14.322,14.323 -5.33,-2.208 h 5.602 v -14.469 h -5.2 v -14.868 h 5.2 v -14.669 h 14.05 v 11.303 h 5 v -11.354 l 81.99,34.90099 h -5.59 v 9.8 h 5.2 v 10.2 h -5.2 v 10 h -4.422 v 5.20001" />
  <path
     id="polyline8-6"
     style="vector-effect:non-scaling-stroke;fill:none;stroke:#000000;stroke-width:0.264583;-inkscape-stroke:hairline"
     d="m 898.46999,612.15157 -1.959,-4.601 10.702,-4.554 1.958,4.59901 -10.701,4.556 m -21.772,9.268 -1.959,-4.601 10.702,-4.555 1.959,4.6 -10.702,4.556 m -21.771,9.267 -1.959,-4.6 10.702,-4.555 1.958,4.599 -10.701,4.556 m -11.039,16.22 v -11.355 h -5 v 11.303 h -14.05 v -14.669 h -5.2 v -14.868 h 5.2 v -14.469 h -5.602 l 5.33,-2.208 14.322,14.323 v 5.831 h 5 v -12.73 h -5.2 v -13.13 h 5.2 v -12.93 h 4.422 v -5.2 h 9.822 v 5.2 h 9.423 v -5.2 h 9.822 v 5.2 h 9.422 v -5.2 h 9.822 v 5.2 h 9.423 v -5.2 h 9.822 v 5.2 h 4.422 v 10 h 5.2 v 10.2 h -5.2 v 9.8 h 5.59 l -81.99,34.902" />
  <path
     id="polyline61"
     style="vector-effect:non-scaling-stroke;fill:none;stroke:#000000;stroke-width:0.264583;-inkscape-stroke:hairline"
     d="m 896.37254,422.39246 1.817,-3.148 h 3.635 l 1.817,3.148 -1.817,3.14801 h -3.635 l -1.817,-3.14801 m -28.57101,0 1.817,-3.148 h 3.635 l 1.817,3.148 -1.817,3.14801 h -3.635 l -1.817,-3.14801 m -28.57,0 1.817,-3.148 h 3.635 l 1.817,3.148 -1.817,3.14801 h -3.635 l -1.817,-3.14801 m -28.571,0 1.817,-3.148 h 3.635 l 1.817,3.148 -1.817,3.14801 h -3.635 l -1.817,-3.14801 m -28.571,0 1.817,-3.148 h 3.635 l 1.817,3.148 -1.817,3.14801 h -3.635 l -1.817,-3.14801 m -28.57,0 1.817,-3.148 h 3.635 l 1.817,3.148 -1.817,3.14801 h -3.635 l -1.817,-3.14801 m -21.302,0 -1.817,3.14801 h -3.635 l -1.817,-3.14801 1.817,-3.148 h 3.635 l 1.817,3.148 m 149.869,8.24801 1.817,-3.148 h 3.635 l 1.817,3.148 -1.817,3.147 h -3.635 l -1.817,-3.147 m -28.57,0 1.817,-3.148 h 3.635 l 1.817,3.148 -1.817,3.147 h -3.635 l -1.817,-3.147 m -28.571,0 1.817,-3.148 h 3.635 l 1.817,3.148 -1.817,3.147 h -3.635 l -1.817,-3.147 m -28.57,0 1.817,-3.148 h 3.635 l 1.817,3.148 -1.817,3.147 h -3.635 l -1.817,-3.147 m -28.571,0 1.817,-3.148 h 3.635 l 1.817,3.148 -1.817,3.147 h -3.635 l -1.817,-3.147 m -21.301,0 -1.817,3.147 h -3.635 l -1.817,-3.147 1.817,-3.148 h 3.635 l 1.817,3.148 m 149.86901,8.24699 1.817,-3.147 h 3.635 l 1.817,3.147 -1.817,3.14801 h -3.635 l -1.817,-3.14801 m -28.57101,0 1.817,-3.147 h 3.635 l 1.817,3.147 -1.817,3.14801 h -3.635 l -1.817,-3.14801 m -28.57,0 1.817,-3.147 h 3.635 l 1.817,3.147 -1.817,3.14801 h -3.635 l -1.817,-3.14801 m -28.571,0 1.817,-3.147 h 3.635 l 1.817,3.147 -1.817,3.14801 h -3.635 l -1.817,-3.14801 m -28.571,0 1.817,-3.147 h 3.635 l 1.817,3.147 -1.817,3.14801 h -3.635 l -1.817,-3.14801 m -28.57,0 1.817,-3.147 h 3.635 l 1.817,3.147 -1.817,3.14801 h -3.635 l -1.817,-3.14801 m -21.302,0 -1.817,3.14801 h -3.635 l -1.817,-3.14801 1.817,-3.147 h 3.635 l 1.817,3.147 m 149.869,8.24801 1.817,-3.148 h 3.635 l 1.817,3.148 -1.817,3.147 h -3.635 l -1.817,-3.147 m -28.57,0 1.817,-3.148 h 3.635 l 1.817,3.148 -1.817,3.147 h -3.635 l -1.817,-3.147 m -28.571,0 1.817,-3.148 h 3.635 l 1.817,3.148 -1.817,3.147 h -3.635 l -1.817,-3.147 m -28.57,0 1.817,-3.148 h 3.635 l 1.817,3.148 -1.817,3.147 h -3.635 l -1.817,-3.147 m -28.571,0 1.817,-3.148 h 3.635 l 1.817,3.148 -1.817,3.147 h -3.635 l -1.817,-3.147 m -21.301,0 -1.817,3.147 h -3.635 l -1.817,-3.147 1.817,-3.148 h 3.635 l 1.817,3.148 m 149.86901,8.247 1.817,-3.14701 h 3.635 l 1.817,3.14701 -1.817,3.148 h -3.635 l -1.817,-3.148 m -28.57101,0 1.817,-3.14701 h 3.635 l 1.817,3.14701 -1.817,3.148 h -3.635 l -1.817,-3.148 m -28.57,0 1.817,-3.14701 h 3.635 l 1.817,3.14701 -1.817,3.148 h -3.635 l -1.817,-3.148 m -28.571,0 1.817,-3.14701 h 3.635 l 1.817,3.14701 -1.817,3.148 h -3.635 l -1.817,-3.148 m -28.571,0 1.817,-3.14701 h 3.635 l 1.817,3.14701 -1.817,3.148 h -3.635 l -1.817,-3.148 m -28.57,0 1.817,-3.14701 h 3.635 l 1.817,3.14701 -1.817,3.148 h -3.635 l -1.817,-3.148 m -21.302,0 -1.817,3.148 h -3.635 l -1.817,-3.148 1.817,-3.14701 h 3.635 l 1.817,3.14701 m 149.869,8.248 1.817,-3.148 h 3.635 l 1.817,3.148 -1.817,3.148 h -3.635 l -1.817,-3.148 m -28.57,0 1.817,-3.148 h 3.635 l 1.817,3.148 -1.817,3.148 h -3.635 l -1.817,-3.148 m -28.571,0 1.817,-3.148 h 3.635 l 1.817,3.148 -1.817,3.148 h -3.635 l -1.817,-3.148 m -28.57,0 1.817,-3.148 h 3.635 l 1.817,3.148 -1.817,3.148 h -3.635 l -1.817,-3.148 m -28.571,0 1.817,-3.148 h 3.635 l 1.817,3.148 -1.817,3.148 h -3.635 l -1.817,-3.148 m -21.301,0 -1.817,3.148 h -3.635 l -1.817,-3.148 1.817,-3.148 h 3.635 l 1.817,3.148 m 149.86901,8.248 1.817,-3.148 h 3.635 l 1.817,3.148 -1.817,3.147 h -3.635 l -1.817,-3.147 m -28.57101,0 1.817,-3.148 h 3.635 l 1.817,3.148 -1.817,3.147 h -3.635 l -1.817,-3.147 m -28.57,0 1.817,-3.148 h 3.635 l 1.817,3.148 -1.817,3.147 h -3.635 l -1.817,-3.147 m -28.571,0 1.817,-3.148 h 3.635 l 1.817,3.148 -1.817,3.147 h -3.635 l -1.817,-3.147 m -28.571,0 1.817,-3.148 h 3.635 l 1.817,3.148 -1.817,3.147 h -3.635 l -1.817,-3.147 m -28.57,0 1.817,-3.148 h 3.635 l 1.817,3.148 -1.817,3.147 h -3.635 l -1.817,-3.147 m -21.302,0 -1.817,3.147 h -3.635 l -1.817,-3.147 1.817,-3.148 h 3.635 l 1.817,3.148 m 149.869,8.247 1.817,-3.147 h 3.635 l 1.817,3.147 -1.817,3.148 h -3.635 l -1.817,-3.148 m -28.57,0 1.817,-3.147 h 3.635 l 1.817,3.147 -1.817,3.148 h -3.635 l -1.817,-3.148 m -28.571,0 1.817,-3.147 h 3.635 l 1.817,3.147 -1.817,3.148 h -3.635 l -1.817,-3.148 m -28.57,0 1.817,-3.147 h 3.635 l 1.817,3.147 -1.817,3.148 h -3.635 l -1.817,-3.148 m -28.571,0 1.817,-3.147 h 3.635 l 1.817,3.147 -1.817,3.148 h -3.635 l -1.817,-3.148 m -21.301,0 -1.817,3.148 h -3.635 l -1.817,-3.148 1.817,-3.147 h 3.635 l 1.817,3.147 m 169.49101,-62.513 h -5.2 v 10.999 h 5.2 v 11.398 h -5.2 v 10.999 h 5.2 v 11.398 h -5.2 v 10.998 h 5.2 v 11.399 h -5.2 v 11.198 H 717.79453 v -11.198 h -5.2 v -11.399 h 5.2 v -10.998 h -5.2 v -11.398 h 5.2 v -10.999 h -5.2 v -11.398 h 5.2 v -10.999 h -5.2 v -2.413 h 203.40001 v 2.413" />
  <polyline
     z="0"
     points="353.402,352.173 353.402,340.658 348.202,340.658 348.202,328.943 353.402,328.943 353.402,317.628 348.202,317.628 348.202,305.914 353.402,305.914 353.402,294.599 348.202,294.599 348.202,282.884 353.402,282.884 353.402,271.37 546.402,271.369 546.402,282.884 551.602,282.884 551.602,294.599 546.402,294.599 546.402,305.914 551.602,305.914 551.602,317.628 546.402,317.628 546.402,328.943 551.602,328.943 551.602,340.658 546.402,340.658 546.402,352.172 353.402,352.173"
     fill="none"
     stroke="#000000"
     stroke-width="0.1mm"
     id="polyline117"
     style="vector-effect:non-scaling-stroke;stroke-width:0.264583;stroke-dasharray:none;-inkscape-stroke:hairline"
     transform="rotate(180,632.09827,424.08748)" />
  <path
     id="polyline61-1"
     style="vector-effect:non-scaling-stroke;fill:none;stroke:#000000;stroke-width:0.264583;-inkscape-stroke:hairline"
     d="m 732.21653,408.00592 -1.817,3.14801 h -3.635 l -1.817,-3.14801 1.817,-3.148 h 3.635 l 1.817,3.148 m 28.571,0 -1.817,3.14801 h -3.635 l -1.817,-3.14801 1.817,-3.148 h 3.635 l 1.817,3.148 m 28.57,0 -1.817,3.14801 h -3.635 l -1.817,-3.14801 1.817,-3.148 h 3.635 l 1.817,3.148 m 28.571,0 -1.817,3.14801 h -3.635 l -1.817,-3.14801 1.817,-3.148 h 3.635 l 1.817,3.148 m 28.571,0 -1.817,3.14801 h -3.635 l -1.817,-3.14801 1.817,-3.148 h 3.635 l 1.817,3.148 m 28.57,0 -1.817,3.14801 h -3.635 l -1.817,-3.14801 1.817,-3.148 h 3.635 l 1.817,3.148 m 21.30201,0 1.817,-3.148 h 3.635 l 1.817,3.148 -1.817,3.14801 h -3.635 l -1.817,-3.14801 m -149.86901,-8.248 -1.817,3.14801 h -3.635 l -1.817,-3.14801 1.817,-3.147 h 3.635 l 1.817,3.147 m 28.57,0 -1.817,3.14801 h -3.635 l -1.817,-3.14801 1.817,-3.147 h 3.635 l 1.817,3.147 m 28.571,0 -1.817,3.14801 h -3.635 l -1.817,-3.14801 1.817,-3.147 h 3.635 l 1.817,3.147 m 28.57,0 -1.817,3.14801 h -3.635 l -1.817,-3.14801 1.817,-3.147 h 3.635 l 1.817,3.147 m 28.571,0 -1.817,3.14801 h -3.635 l -1.817,-3.14801 1.817,-3.147 h 3.635 l 1.817,3.147 m 21.301,0 1.817,-3.147 h 3.635 l 1.817,3.147 -1.817,3.14801 h -3.635 l -1.817,-3.14801 m -149.869,-8.247 -1.817,3.14701 h -3.635 l -1.817,-3.14701 1.817,-3.148 h 3.635 l 1.817,3.148 m 28.571,0 -1.817,3.14701 h -3.635 l -1.817,-3.14701 1.817,-3.148 h 3.635 l 1.817,3.148 m 28.57,0 -1.817,3.14701 h -3.635 l -1.817,-3.14701 1.817,-3.148 h 3.635 l 1.817,3.148 m 28.571,0 -1.817,3.14701 h -3.635 l -1.817,-3.14701 1.817,-3.148 h 3.635 l 1.817,3.148 m 28.571,0 -1.817,3.14701 h -3.635 l -1.817,-3.14701 1.817,-3.148 h 3.635 l 1.817,3.148 m 28.57,0 -1.817,3.14701 h -3.635 l -1.817,-3.14701 1.817,-3.148 h 3.635 l 1.817,3.148 m 21.30201,0 1.817,-3.148 h 3.635 l 1.817,3.148 -1.817,3.14701 h -3.635 l -1.817,-3.14701 m -149.86901,-8.248 -1.817,3.14801 h -3.635 l -1.817,-3.14801 1.817,-3.147 h 3.635 l 1.817,3.147 m 28.57,0 -1.817,3.14801 h -3.635 l -1.817,-3.14801 1.817,-3.147 h 3.635 l 1.817,3.147 m 28.571,0 -1.817,3.14801 h -3.635 l -1.817,-3.14801 1.817,-3.147 h 3.635 l 1.817,3.147 m 28.57,0 -1.817,3.14801 h -3.635 l -1.817,-3.14801 1.817,-3.147 h 3.635 l 1.817,3.147 m 28.571,0 -1.817,3.14801 h -3.635 l -1.817,-3.14801 1.817,-3.147 h 3.635 l 1.817,3.147 m 21.301,0 1.817,-3.147 h 3.635 l 1.817,3.147 -1.817,3.14801 h -3.635 l -1.817,-3.14801 m -149.869,-8.247 -1.817,3.14701 h -3.635 l -1.817,-3.14701 1.817,-3.148 h 3.635 l 1.817,3.148 m 28.571,0 -1.817,3.14701 h -3.635 l -1.817,-3.14701 1.817,-3.148 h 3.635 l 1.817,3.148 m 28.57,0 -1.817,3.14701 h -3.635 l -1.817,-3.14701 1.817,-3.148 h 3.635 l 1.817,3.148 m 28.571,0 -1.817,3.14701 h -3.635 l -1.817,-3.14701 1.817,-3.148 h 3.635 l 1.817,3.148 m 28.571,0 -1.817,3.14701 h -3.635 l -1.817,-3.14701 1.817,-3.148 h 3.635 l 1.817,3.148 m 28.57,0 -1.817,3.14701 h -3.635 l -1.817,-3.14701 1.817,-3.148 h 3.635 l 1.817,3.148 m 21.30201,0 1.817,-3.148 h 3.635 l 1.817,3.148 -1.817,3.14701 h -3.635 l -1.817,-3.14701 m -149.86901,-8.248 -1.817,3.14801 h -3.635 l -1.817,-3.14801 1.817,-3.148 h 3.635 l 1.817,3.148 m 28.57,0 -1.817,3.14801 h -3.635 l -1.817,-3.14801 1.817,-3.148 h 3.635 l 1.817,3.148 m 28.571,0 -1.817,3.14801 h -3.635 l -1.817,-3.14801 1.817,-3.148 h 3.635 l 1.817,3.148 m 28.57,0 -1.817,3.14801 h -3.635 l -1.817,-3.14801 1.817,-3.148 h 3.635 l 1.817,3.148 m 28.571,0 -1.817,3.14801 h -3.635 l -1.817,-3.14801 1.817,-3.148 h 3.635 l 1.817,3.148 m 21.301,0 1.817,-3.148 h 3.635 l 1.817,3.148 -1.817,3.14801 h -3.635 l -1.817,-3.14801 m -149.869,-8.248 -1.817,3.14801 h -3.635 l -1.817,-3.14801 1.817,-3.147 h 3.635 l 1.817,3.147 m 28.571,0 -1.817,3.14801 h -3.635 l -1.817,-3.14801 1.817,-3.147 h 3.635 l 1.817,3.147 m 28.57,0 -1.817,3.14801 h -3.635 l -1.817,-3.14801 1.817,-3.147 h 3.635 l 1.817,3.147 m 28.571,0 -1.817,3.14801 h -3.635 l -1.817,-3.14801 1.817,-3.147 h 3.635 l 1.817,3.147 m 28.571,0 -1.817,3.14801 h -3.635 l -1.817,-3.14801 1.817,-3.147 h 3.635 l 1.817,3.147 m 28.57,0 -1.817,3.14801 h -3.635 l -1.817,-3.14801 1.817,-3.147 h 3.635 l 1.817,3.147 m 21.30201,0 1.817,-3.147 h 3.635 l 1.817,3.147 -1.817,3.14801 h -3.635 l -1.817,-3.14801 m -149.86901,-8.247 -1.817,3.147 h -3.635 l -1.817,-3.147 1.817,-3.148 h 3.635 l 1.817,3.148 m 28.57,0 -1.817,3.147 h -3.635 l -1.817,-3.147 1.817,-3.148 h 3.635 l 1.817,3.148 m 28.571,0 -1.817,3.147 h -3.635 l -1.817,-3.147 1.817,-3.148 h 3.635 l 1.817,3.148 m 28.57,0 -1.817,3.147 h -3.635 l -1.817,-3.147 1.817,-3.148 h 3.635 l 1.817,3.148 m 28.571,0 -1.817,3.147 h -3.635 l -1.817,-3.147 1.817,-3.148 h 3.635 l 1.817,3.148 m 21.301,0 1.817,-3.148 h 3.635 l 1.817,3.148 -1.817,3.147 h -3.635 l -1.817,-3.147 m -169.491,62.513 h 5.2 v -10.999 h -5.2 v -11.398 h 5.2 v -10.999 h -5.2 v -11.398 h 5.2 v -10.998 h -5.2 v -11.399 h 5.2 v -11.198 h 193.00001 v 11.198 h 5.2 v 11.399 h -5.2 v 10.998 h 5.2 v 11.398 h -5.2 v 10.999 h 5.2 v 11.398 h -5.2 v 10.999 h 5.2 v 2.413 H 712.59453 v -2.413" />
  <polyline
     z="0"
     points="353.402,352.173 353.402,340.658 348.202,340.658 348.202,328.943 353.402,328.943 353.402,317.628 348.202,317.628 348.202,305.914 353.402,305.914 353.402,294.599 348.202,294.599 348.202,282.884 353.402,282.884 353.402,271.37 546.402,271.369 546.402,282.884 551.602,282.884 551.602,294.599 546.402,294.599 546.402,305.914 551.602,305.914 551.602,317.628 546.402,317.628 546.402,328.943 551.602,328.943 551.602,340.658 546.402,340.658 546.402,352.172 353.402,352.173"
     fill="none"
     stroke="#000000"
     stroke-width="0.1mm"
     id="polyline117-2"
     style="vector-effect:non-scaling-stroke;stroke-width:0.264583;stroke-dasharray:none;-inkscape-stroke:hairline"
     transform="translate(364.39253,-17.776585)" />
  <path
     id="polyline115"
     style="vector-effect:non-scaling-stroke;fill:none;stroke:#000000;stroke-width:0.264583;-inkscape-stroke:hairline"
     d="m 454.39801,278.41543 -3.147,-1.81799 v -3.63401 l 3.147,-1.817 3.148,1.817 v 3.63401 l -3.148,1.81799 m 0,28.57101 -3.147,-1.818 v -3.634 l 3.147,-1.817 3.148,1.817 v 3.634 l -3.148,1.818 m 0,28.56999 -3.147,-1.818 v -3.634 l 3.147,-1.817 3.148,1.817 v 3.634 l -3.148,1.818 m 0,28.571 -3.147,-1.81799 v -3.634 l 3.147,-1.81701 3.148,1.81701 v 3.634 l -3.148,1.81799 m 0,28.57101 -3.147,-1.818 v -3.634 l 3.147,-1.817 3.148,1.817 v 3.634 l -3.148,1.818 m 0,28.57 -3.147,-1.818 v -3.634 l 3.147,-1.817 3.148,1.817 v 3.634 l -3.148,1.818 m 0,21.302 3.148,1.817 v 3.634 l -3.148,1.818 -3.147,-1.818 v -3.634 l 3.147,-1.817 m 8.248,-149.869 -3.148,-1.818 v -3.634 l 3.148,-1.817 3.148,1.817 v 3.634 l -3.148,1.818 m 0,28.57 -3.148,-1.818 v -3.634 l 3.148,-1.817 3.148,1.817 v 3.634 l -3.148,1.818 m 0,28.571 -3.148,-1.818 v -3.634 l 3.148,-1.817 3.148,1.817 v 3.634 l -3.148,1.818 m 0,28.57 -3.148,-1.818 v -3.634 l 3.148,-1.817 3.148,1.817 v 3.634 l -3.148,1.818 m 0,28.571 -3.148,-1.818 v -3.634 l 3.148,-1.817 3.148,1.817 v 3.634 l -3.148,1.818 m 0,21.301 3.148,1.817 v 3.634 l -3.148,1.818 -3.148,-1.818 v -3.634 l 3.148,-1.817 m 8.248,-149.869 -3.148,-1.818 v -3.634 l 3.148,-1.817 3.147,1.817 v 3.634 l -3.147,1.818 m 0,28.571 -3.148,-1.818 v -3.634 l 3.148,-1.817 3.147,1.817 v 3.634 l -3.147,1.818 m 0,28.57 -3.148,-1.818 v -3.634 l 3.148,-1.817 3.147,1.817 v 3.634 l -3.147,1.818 m 0,28.571 -3.148,-1.818 v -3.634 l 3.148,-1.817 3.147,1.817 v 3.634 l -3.147,1.818 m 0,28.571 -3.148,-1.818 v -3.634 l 3.148,-1.817 3.147,1.817 v 3.634 l -3.147,1.818 m 0,28.57 -3.148,-1.818 v -3.634 l 3.148,-1.817 3.147,1.817 v 3.634 l -3.147,1.818 m 0,21.302 3.147,1.817 v 3.634 l -3.147,1.818 -3.148,-1.818 v -3.634 l 3.148,-1.817 m 8.247,-149.869 -3.147,-1.818 v -3.634 l 3.147,-1.817 3.148,1.817 v 3.634 l -3.148,1.818 m 0,28.57 -3.147,-1.818 v -3.634 l 3.147,-1.817 3.148,1.817 v 3.634 l -3.148,1.818 m 0,28.571 -3.147,-1.818 v -3.634 l 3.147,-1.817 3.148,1.817 v 3.634 l -3.148,1.818 m 0,28.57 -3.147,-1.818 v -3.634 l 3.147,-1.817 3.148,1.817 v 3.634 l -3.148,1.818 m 0,28.571 -3.147,-1.818 v -3.634 l 3.147,-1.817 3.148,1.817 v 3.634 l -3.148,1.818 m 0,21.301 3.148,1.817 v 3.634 l -3.148,1.818 -3.147,-1.818 v -3.634 l 3.147,-1.817 m 8.248,-149.869 -3.148,-1.818 v -3.634 l 3.148,-1.817 3.147,1.817 v 3.634 l -3.147,1.818 m 0,28.571 -3.148,-1.818 v -3.634 l 3.148,-1.817 3.147,1.817 v 3.634 l -3.147,1.818 m 0,28.57 -3.148,-1.818 v -3.634 l 3.148,-1.817 3.147,1.817 v 3.634 l -3.147,1.818 m 0,28.571 -3.148,-1.818 v -3.634 l 3.148,-1.817 3.147,1.817 v 3.634 l -3.147,1.818 m 0,28.571 -3.148,-1.818 v -3.634 l 3.148,-1.817 3.147,1.817 v 3.634 l -3.147,1.818 m 0,28.57 -3.148,-1.818 v -3.634 l 3.148,-1.817 3.147,1.817 v 3.634 l -3.147,1.818 m 0,21.302 3.147,1.817 v 3.634 l -3.147,1.818 -3.148,-1.818 v -3.634 l 3.148,-1.817 m 8.247,-149.869 -3.147,-1.818 v -3.634 l 3.147,-1.817 3.148,1.817 v 3.634 l -3.148,1.818 m 0,28.57 -3.147,-1.818 v -3.634 l 3.147,-1.817 3.148,1.817 v 3.634 l -3.148,1.818 m 0,28.571 -3.147,-1.818 v -3.634 l 3.147,-1.817 3.148,1.817 v 3.634 l -3.148,1.818 m 0,28.57 -3.147,-1.818 v -3.634 l 3.147,-1.817 3.148,1.817 v 3.634 l -3.148,1.818 m 0,28.571 -3.147,-1.818 v -3.634 l 3.147,-1.817 3.148,1.817 v 3.634 l -3.148,1.818 m 0,21.301 3.148,1.817 v 3.634 l -3.148,1.818 -3.147,-1.818 v -3.634 l 3.147,-1.817 m 8.248,-149.869 -3.148,-1.818 v -3.634 l 3.148,-1.817 3.148,1.817 v 3.634 l -3.148,1.818 m 0,28.571 -3.148,-1.818 v -3.634 l 3.148,-1.817 3.148,1.817 v 3.634 l -3.148,1.818 m 0,28.57 -3.148,-1.818 v -3.634 l 3.148,-1.817 3.148,1.817 v 3.634 l -3.148,1.818 m 0,28.571 -3.148,-1.818 v -3.634 l 3.148,-1.817 3.148,1.817 v 3.634 l -3.148,1.818 m 0,28.571 -3.148,-1.818 v -3.634 l 3.148,-1.817 3.148,1.817 v 3.634 l -3.148,1.818 m 0,28.57 -3.148,-1.818 v -3.634 l 3.148,-1.817 3.148,1.817 v 3.634 l -3.148,1.818 m 0,21.302 3.148,1.817 v 3.634 l -3.148,1.818 -3.148,-1.818 v -3.634 l 3.148,-1.817 m 8.248,-149.869 -3.148,-1.818 v -3.634 l 3.148,-1.817 3.147,1.817 v 3.634 l -3.147,1.818 m 0,28.57 -3.148,-1.818 v -3.634 l 3.148,-1.817 3.147,1.817 v 3.634 l -3.147,1.818 m 0,28.571 -3.148,-1.818 v -3.634 l 3.148,-1.817 3.147,1.817 v 3.634 l -3.147,1.818 m 0,28.57 -3.148,-1.818 v -3.634 l 3.148,-1.817 3.147,1.817 v 3.634 l -3.147,1.818 m 0,28.571 -3.148,-1.818 v -3.634 l 3.148,-1.817 3.147,1.817 v 3.634 l -3.147,1.818 m -3.148,26.752 v -3.634 l 3.148,-1.817 3.147,1.817 v 3.634 l -3.147,1.818 -3.148,-1.818 m -66.206,28.457 v -203.4 h 11.831 v -5.2 h 12.031 v 5.2 h 11.631 v -5.2 h 12.03 v 5.2 h 11.631 v -5.2 h 12.031 v 5.2 h 11.831 v 203.4 h -11.831 v 5.2 h -12.031 v -5.2 h -11.631 v 5.2 h -12.03 v -5.2 h -11.631 v 5.2 h -12.031 v -5.2 h -11.831" />
  <polyline
     z="0"
     points="381.064,438.973 381.064,433.773 364.833,433.773 364.833,438.973 348.202,438.973 348.202,429.151 353.402,429.151 353.402,419.729 348.202,419.729 348.202,409.906 353.402,409.906 353.402,400.484 348.202,400.484 348.202,390.662 353.402,390.662 353.402,381.24 348.202,381.24 348.202,371.417 353.402,371.417 353.402,361.995 348.202,361.995 348.202,352.173 364.833,352.173 364.833,357.373 381.064,357.373 381.064,352.173 397.694,352.173 397.694,357.373 413.925,357.373 413.925,352.173 430.556,352.173 430.556,357.373 446.787,357.373 446.787,352.173 463.417,352.173 463.417,357.373 479.648,357.373 479.648,352.173 496.279,352.173 496.279,357.373 512.51,357.373 512.51,352.173 529.14,352.173 529.14,357.373 545.371,357.373 545.371,352.173 562.002,352.173 562.002,361.995 556.802,361.995 556.802,371.417 562.002,371.417 562.002,381.24 556.802,381.24 556.802,390.662 562.002,390.662 562.002,400.484 556.802,400.484 556.802,409.906 562.002,409.906 562.002,419.729 556.802,419.729 556.802,429.151 562.002,429.151 562.002,438.973 545.371,438.973 545.371,433.773 529.14,433.773 529.14,438.973 512.51,438.973 512.51,433.773 496.279,433.773 496.279,438.973 479.648,438.973 479.648,433.773 463.417,433.773 463.417,438.973 446.787,438.973 446.787,433.773 430.556,433.773 430.556,438.973 413.925,438.973 413.925,433.773 397.694,433.773 397.694,438.973 381.064,438.973"
     fill="none"
     stroke="#000000"
     stroke-width="0.1mm"
     id="polyline116"
     style="vector-effect:non-scaling-stroke;stroke-width:0.264583;stroke-dasharray:none;-inkscape-stroke:hairline"
     transform="rotate(90,579.68829,485.07871)" />
  <polyline
     z="0"
     points="608.195,391.077 624.626,391.077 624.626,385.877 641.257,385.877 641.257,391.077 657.487,391.077 657.487,385.877 674.118,385.877 674.118,391.077 690.349,391.077 690.349,385.877 706.98,385.877 706.98,391.077 723.21,391.077 723.21,385.877 739.841,385.877 739.841,391.077 756.072,391.077 756.072,385.877 772.703,385.877 772.703,391.077 788.933,391.077 788.933,385.877 805.564,385.877 805.564,391.077 821.995,391.077 821.995,404.207 816.795,404.207 816.795,416.937 821.995,416.937 821.995,430.067 816.795,430.067 816.795,438.973 613.395,438.973 613.395,430.067 608.195,430.067 608.195,416.937 613.395,416.937 613.395,404.207 608.195,404.207 608.195,391.077"
     fill="none"
     stroke="#000000"
     stroke-width="0.1mm"
     id="polyline119"
     style="vector-effect:non-scaling-stroke;stroke-width:0.264583;stroke-dasharray:none;-inkscape-stroke:hairline"
     transform="rotate(-90,625.45222,450.13521)" />
  <polyline
     z="0"
     points="611.294,486.589 627.925,486.589 627.925,491.789 644.156,491.789 644.156,486.589 660.787,486.589 660.787,491.789 677.017,491.789 677.017,486.589 693.648,486.589 693.648,491.789 709.879,491.789 709.879,486.589 726.51,486.589 726.51,491.789 742.74,491.789 742.74,486.589 759.371,486.589 759.371,491.789 775.802,491.789 775.802,501.989 770.602,501.989 770.602,511.789 775.802,511.789 775.802,521.989 562.002,521.989 562.002,511.789 567.202,511.789 567.202,501.989 562.002,501.989 562.002,491.789 578.433,491.789 578.433,486.589 595.064,486.589 595.064,491.789 611.294,491.789 611.294,486.589"
     fill="none"
     stroke="#000000"
     stroke-width="0.1mm"
     id="polyline120"
     style="vector-effect:non-scaling-stroke;stroke-width:0.264583;stroke-dasharray:none;-inkscape-stroke:hairline"
     transform="rotate(90,678.0963,369.68672)" />
  <polyline
     z="0"
     points="737.998,559.975 951.798,559.975 951.798,574.844 946.598,574.844 946.598,589.312 951.798,589.312 951.798,604.181 935.167,604.181 935.167,598.981 918.936,598.981 918.936,604.181 902.306,604.181 902.306,598.981 886.075,598.981 886.075,604.181 869.444,604.181 869.444,598.981 853.213,598.981 853.213,604.181 836.583,604.181 836.583,598.981 820.352,598.981 820.352,604.181 803.721,604.181 803.721,598.981 787.49,598.981 787.49,604.181 770.86,604.181 770.86,598.981 754.629,598.981 754.629,604.181 737.998,604.181 737.998,589.312 743.198,589.312 743.198,574.844 737.998,574.844 737.998,559.975"
     fill="none"
     stroke="#000000"
     stroke-width="0.1mm"
     id="polyline122"
     style="vector-effect:non-scaling-stroke;stroke-width:0.264583;stroke-dasharray:none;-inkscape-stroke:hairline"
     transform="rotate(90,743.5793,259.17371)" />
  <polyline
     z="0"
     points="741.297,623.431 741.297,628.631 724.667,628.631 724.667,623.431 708.436,623.431 708.436,628.631 691.805,628.631 691.805,617.127 905.605,617.127 905.605,628.631 888.974,628.631 888.974,623.431 872.743,623.431 872.743,628.631 856.113,628.631 856.113,623.431 839.882,623.431 839.882,628.631 823.251,628.631 823.251,623.431 807.02,623.431 807.02,628.631 790.39,628.631 790.39,623.431 774.159,623.431 774.159,628.631 757.528,628.631 757.528,623.431 741.297,623.431"
     fill="none"
     stroke="#000000"
     stroke-width="0.1mm"
     id="polyline123"
     style="vector-effect:non-scaling-stroke;stroke-width:0.264583;stroke-dasharray:none;-inkscape-stroke:hairline"
     transform="rotate(-90,578.18021,581.01721)" />
  <path
     id="polyline115-6"
     style="vector-effect:non-scaling-stroke;fill:none;stroke:#000000;stroke-width:0.264583;-inkscape-stroke:hairline"
     d="m 454.398,492.216 -3.147,-1.818 v -3.634 l 3.147,-1.817 3.148,1.817 v 3.634 l -3.148,1.818 m 0,28.57101 -3.147,-1.818 v -3.634 l 3.147,-1.817 3.148,1.817 v 3.634 l -3.148,1.818 m 0,28.57 -3.147,-1.818 v -3.634 l 3.147,-1.817 3.148,1.817 v 3.634 l -3.148,1.818 m 0,28.571 -3.147,-1.818 v -3.634 l 3.147,-1.817 3.148,1.817 v 3.634 l -3.148,1.818 m 0,28.571 -3.147,-1.818 v -3.634 l 3.147,-1.817 3.148,1.817 v 3.634 l -3.148,1.818 m 0,28.57 -3.147,-1.818 v -3.634 l 3.147,-1.817 3.148,1.817 v 3.634 l -3.148,1.818 m 0,21.302 3.148,1.817 v 3.634 l -3.148,1.818 -3.147,-1.818 v -3.634 l 3.147,-1.817 m 8.248,-149.869 -3.148,-1.818 v -3.634 l 3.148,-1.817 3.148,1.817 v 3.634 l -3.148,1.818 m 0,28.57 -3.148,-1.818 v -3.634 l 3.148,-1.817 3.148,1.817 v 3.634 l -3.148,1.818 m 0,28.571 -3.148,-1.818 v -3.634 l 3.148,-1.817 3.148,1.817 v 3.634 l -3.148,1.818 m 0,28.57 -3.148,-1.818 v -3.634 l 3.148,-1.817 3.148,1.817 v 3.634 l -3.148,1.818 m 0,28.571 -3.148,-1.818 v -3.634 l 3.148,-1.817 3.148,1.817 v 3.634 l -3.148,1.818 m 0,21.301 3.148,1.817 v 3.634 l -3.148,1.818 -3.148,-1.818 v -3.634 l 3.148,-1.817 m 8.248,-149.869 -3.148,-1.818 v -3.634 l 3.148,-1.817 3.147,1.817 v 3.634 l -3.147,1.818 m 0,28.571 -3.148,-1.818 v -3.634 l 3.148,-1.817 3.147,1.817 v 3.634 l -3.147,1.818 m 0,28.57 -3.148,-1.818 v -3.634 l 3.148,-1.817 3.147,1.817 v 3.634 l -3.147,1.818 m 0,28.571 -3.148,-1.818 v -3.634 l 3.148,-1.817 3.147,1.817 v 3.634 l -3.147,1.818 m 0,28.571 -3.148,-1.818 v -3.634 l 3.148,-1.817 3.147,1.817 v 3.634 l -3.147,1.818 m 0,28.57 -3.148,-1.818 v -3.634 l 3.148,-1.817 3.147,1.817 v 3.634 l -3.147,1.818 m 0,21.302 3.147,1.817 v 3.634 l -3.147,1.818 -3.148,-1.818 v -3.634 l 3.148,-1.817 m 8.247,-149.869 -3.147,-1.818 v -3.634 l 3.147,-1.817 3.148,1.817 v 3.634 l -3.148,1.818 m 0,28.57 -3.147,-1.818 v -3.634 l 3.147,-1.817 3.148,1.817 v 3.634 l -3.148,1.818 m 0,28.571 -3.147,-1.818 v -3.634 l 3.147,-1.817 3.148,1.817 v 3.634 l -3.148,1.818 m 0,28.57 -3.147,-1.818 v -3.634 l 3.147,-1.817 3.148,1.817 v 3.634 l -3.148,1.818 m 0,28.571 -3.147,-1.818 v -3.634 l 3.147,-1.817 3.148,1.817 v 3.634 l -3.148,1.818 m 0,21.301 3.148,1.817 v 3.634 l -3.148,1.818 -3.147,-1.818 v -3.634 l 3.147,-1.817 m 8.248,-149.869 -3.148,-1.818 v -3.634 l 3.148,-1.817 3.147,1.817 v 3.634 l -3.147,1.818 m 0,28.571 -3.148,-1.818 v -3.634 l 3.148,-1.817 3.147,1.817 v 3.634 l -3.147,1.818 m 0,28.57 -3.148,-1.818 v -3.634 l 3.148,-1.817 3.147,1.817 v 3.634 l -3.147,1.818 m 0,28.571 -3.148,-1.818 v -3.634 l 3.148,-1.817 3.147,1.817 v 3.634 l -3.147,1.818 m 0,28.571 -3.148,-1.818 v -3.634 l 3.148,-1.817 3.147,1.817 v 3.634 l -3.147,1.818 m 0,28.57 -3.148,-1.818 v -3.634 l 3.148,-1.817 3.147,1.817 v 3.634 l -3.147,1.818 m 0,21.302 3.147,1.817 v 3.634 l -3.147,1.818 -3.148,-1.818 v -3.634 l 3.148,-1.817 m 8.247,-149.869 -3.147,-1.818 v -3.634 l 3.147,-1.817 3.148,1.817 v 3.634 l -3.148,1.818 m 0,28.57 -3.147,-1.818 v -3.634 l 3.147,-1.817 3.148,1.817 v 3.634 l -3.148,1.818 m 0,28.571 -3.147,-1.818 v -3.634 l 3.147,-1.817 3.148,1.817 v 3.634 l -3.148,1.818 m 0,28.57 -3.147,-1.818 v -3.634 l 3.147,-1.817 3.148,1.817 v 3.634 l -3.148,1.818 m 0,28.571 -3.147,-1.818 v -3.634 l 3.147,-1.817 3.148,1.817 v 3.634 l -3.148,1.818 m 0,21.301 3.148,1.817 v 3.634 l -3.148,1.818 -3.147,-1.818 v -3.634 l 3.147,-1.817 m 8.248,-149.869 -3.148,-1.818 v -3.634 l 3.148,-1.817 3.148,1.817 v 3.634 l -3.148,1.818 m 0,28.571 -3.148,-1.818 v -3.634 l 3.148,-1.817 3.148,1.817 v 3.634 l -3.148,1.818 m 0,28.57 -3.148,-1.818 v -3.634 l 3.148,-1.817 3.148,1.817 v 3.634 l -3.148,1.818 m 0,28.571 -3.148,-1.818 v -3.634 l 3.148,-1.817 3.148,1.817 v 3.634 l -3.148,1.818 m 0,28.571 -3.148,-1.818 v -3.634 l 3.148,-1.817 3.148,1.817 v 3.634 l -3.148,1.818 m 0,28.57 -3.148,-1.818 v -3.634 l 3.148,-1.817 3.148,1.817 v 3.634 l -3.148,1.818 m 0,21.302 3.148,1.817 v 3.634 l -3.148,1.818 -3.148,-1.818 v -3.634 l 3.148,-1.817 m 8.248,-149.869 -3.148,-1.818 v -3.634 l 3.148,-1.817 3.147,1.817 v 3.634 l -3.147,1.818 m 0,28.57 -3.148,-1.818 v -3.634 l 3.148,-1.817 3.147,1.817 v 3.634 l -3.147,1.818 m 0,28.571 -3.148,-1.818 v -3.634 l 3.148,-1.817 3.147,1.817 v 3.634 l -3.147,1.818 m 0,28.57 -3.148,-1.818 v -3.634 l 3.148,-1.817 3.147,1.817 v 3.634 l -3.147,1.818 m 0,28.571 -3.148,-1.818 v -3.634 l 3.148,-1.817 3.147,1.817 v 3.634 l -3.147,1.818 m -3.148,26.752 v -3.634 l 3.148,-1.817 3.147,1.817 v 3.634 l -3.147,1.818 -3.148,-1.818 m -66.206,28.457 v -203.4 h 11.831 v -5.2 h 12.031 v 5.2 h 11.631 v -5.2 h 12.03 v 5.2 h 11.631 v -5.2 h 12.031 v 5.2 h 11.831 v 203.4 h -11.831 v 5.2 h -12.031 v -5.2 h -11.631 v 5.2 h -12.03 v -5.2 H 466.64 v 5.2 h -12.031 v -5.2 h -11.831" />
  <polyline
     z="0"
     points="381.064,438.973 381.064,433.773 364.833,433.773 364.833,438.973 348.202,438.973 348.202,429.151 353.402,429.151 353.402,419.729 348.202,419.729 348.202,409.906 353.402,409.906 353.402,400.484 348.202,400.484 348.202,390.662 353.402,390.662 353.402,381.24 348.202,381.24 348.202,371.417 353.402,371.417 353.402,361.995 348.202,361.995 348.202,352.173 364.833,352.173 364.833,357.373 381.064,357.373 381.064,352.173 397.694,352.173 397.694,357.373 413.925,357.373 413.925,352.173 430.556,352.173 430.556,357.373 446.787,357.373 446.787,352.173 463.417,352.173 463.417,357.373 479.648,357.373 479.648,352.173 496.279,352.173 496.279,357.373 512.51,357.373 512.51,352.173 529.14,352.173 529.14,357.373 545.371,357.373 545.371,352.173 562.002,352.173 562.002,361.995 556.802,361.995 556.802,371.417 562.002,371.417 562.002,381.24 556.802,381.24 556.802,390.662 562.002,390.662 562.002,400.484 556.802,400.484 556.802,409.906 562.002,409.906 562.002,419.729 556.802,419.729 556.802,429.151 562.002,429.151 562.002,438.973 545.371,438.973 545.371,433.773 529.14,433.773 529.14,438.973 512.51,438.973 512.51,433.773 496.279,433.773 496.279,438.973 479.648,438.973 479.648,433.773 463.417,433.773 463.417,438.973 446.787,438.973 446.787,433.773 430.556,433.773 430.556,438.973 413.925,438.973 413.925,433.773 397.694,433.773 397.694,438.973 381.064,438.973"
     fill="none"
     stroke="#000000"
     stroke-width="0.1mm"
     id="polyline116-3"
     style="vector-effect:non-scaling-stroke;stroke-width:0.264583;stroke-dasharray:none;-inkscape-stroke:hairline"
     transform="rotate(90,472.78802,591.97897)" />
  <polyline
     z="0"
     points="608.195,391.077 624.626,391.077 624.626,385.877 641.257,385.877 641.257,391.077 657.487,391.077 657.487,385.877 674.118,385.877 674.118,391.077 690.349,391.077 690.349,385.877 706.98,385.877 706.98,391.077 723.21,391.077 723.21,385.877 739.841,385.877 739.841,391.077 756.072,391.077 756.072,385.877 772.703,385.877 772.703,391.077 788.933,391.077 788.933,385.877 805.564,385.877 805.564,391.077 821.995,391.077 821.995,404.207 816.795,404.207 816.795,416.937 821.995,416.937 821.995,430.067 816.795,430.067 816.795,438.973 613.395,438.973 613.395,430.067 608.195,430.067 608.195,416.937 613.395,416.937 613.395,404.207 608.195,404.207 608.195,391.077"
     fill="none"
     stroke="#000000"
     stroke-width="0.1mm"
     id="polyline119-6"
     style="vector-effect:non-scaling-stroke;stroke-width:0.264583;stroke-dasharray:none;-inkscape-stroke:hairline"
     transform="rotate(-90,732.35248,557.03548)" />
  <polyline
     z="0"
     points="611.294,486.589 627.925,486.589 627.925,491.789 644.156,491.789 644.156,486.589 660.787,486.589 660.787,491.789 677.017,491.789 677.017,486.589 693.648,486.589 693.648,491.789 709.879,491.789 709.879,486.589 726.51,486.589 726.51,491.789 742.74,491.789 742.74,486.589 759.371,486.589 759.371,491.789 775.802,491.789 775.802,501.989 770.602,501.989 770.602,511.789 775.802,511.789 775.802,521.989 562.002,521.989 562.002,511.789 567.202,511.789 567.202,501.989 562.002,501.989 562.002,491.789 578.433,491.789 578.433,486.589 595.064,486.589 595.064,491.789 611.294,491.789 611.294,486.589"
     fill="none"
     stroke="#000000"
     stroke-width="0.1mm"
     id="polyline120-1"
     style="vector-effect:non-scaling-stroke;stroke-width:0.264583;stroke-dasharray:none;-inkscape-stroke:hairline"
     transform="rotate(90,571.19602,476.58701)" />
  <polyline
     z="0"
     points="737.998,559.975 951.798,559.975 951.798,574.844 946.598,574.844 946.598,589.312 951.798,589.312 951.798,604.181 935.167,604.181 935.167,598.981 918.936,598.981 918.936,604.181 902.306,604.181 902.306,598.981 886.075,598.981 886.075,604.181 869.444,604.181 869.444,598.981 853.213,598.981 853.213,604.181 836.583,604.181 836.583,598.981 820.352,598.981 820.352,604.181 803.721,604.181 803.721,598.981 787.49,598.981 787.49,604.181 770.86,604.181 770.86,598.981 754.629,598.981 754.629,604.181 737.998,604.181 737.998,589.312 743.198,589.312 743.198,574.844 737.998,574.844 737.998,559.975"
     fill="none"
     stroke="#000000"
     stroke-width="0.1mm"
     id="polyline122-5"
     style="vector-effect:non-scaling-stroke;stroke-width:0.264583;stroke-dasharray:none;-inkscape-stroke:hairline"
     transform="rotate(90,636.67903,366.07402)" />
  <polyline
     z="0"
     points="741.297,623.431 741.297,628.631 724.667,628.631 724.667,623.431 708.436,623.431 708.436,628.631 691.805,628.631 691.805,617.127 905.605,617.127 905.605,628.631 888.974,628.631 888.974,623.431 872.743,623.431 872.743,628.631 856.113,628.631 856.113,623.431 839.882,623.431 839.882,628.631 823.251,628.631 823.251,623.431 807.02,623.431 807.02,628.631 790.39,628.631 790.39,623.431 774.159,623.431 774.159,628.631 757.528,628.631 757.528,623.431 741.297,623.431"
     fill="none"
     stroke="#000000"
     stroke-width="0.1mm"
     id="polyline123-4"
     style="vector-effect:non-scaling-stroke;stroke-width:0.264583;stroke-dasharray:none;-inkscape-stroke:hairline"
     transform="rotate(-90,685.08047,687.91748)" />
</svg>
