Cleat Wall Organization Equipment
Copyright (C) 2025  Corporate Hacks

This program is free software: you can redistribute it and/or modify
it under the terms of the GNU General Public License as published by
the Free Software Foundation, either version 3 of the License, or
(at your option) any later version.

This program is distributed in the hope that it will be useful,
but WITHOUT ANY WARRANTY; without even the implied warranty of
MERCHANTABILITY or FITNESS FOR A PARTICULAR PURPOSE.  See the
GNU General Public License for more details.

You should have received a copy of the GNU General Public License
along with this program.  If not, see <http://www.gnu.org/licenses/>.


<svg xmlns="http://www.w3.org/2000/svg" width="1300mm" height="900mm" viewBox="0 0 1300 900">
    <path fill="none" stroke="#000" stroke-width=".1mm" d="M691.375 450h-5.302l-1.253-.061-1.243-.185-1.218-.305-1.182-.424-1.136-.537-1.078-.645-1.009-.749-.93-.843-.843-.93-.749-1.009-.645-1.078-.537-1.136-.424-1.182-.305-1.218-.185-1.243-.061-1.253v-58.299l-.031-.615-.089-.608-.149-.594-.207-.578-.262-.554-.315-.526-.365-.493-.413-.454-.454-.413-.493-.365-.526-.315-.554-.262-.578-.207-.594-.149-.608-.089-.615-.031h-38.094l-.615.031-.608.089-.594.149-.578.207-.554.262-.526.315-.493.365-.454.413-.413.454-.365.493-.315.526-.262.554-.207.578-.149.594-.089.608-.031.615v58.299l-.061 1.253-.185 1.243-.305 1.218-.424 1.182-.537 1.136-.645 1.078-.749 1.009-.843.93-.93.843-1.009.749-1.078.645-1.136.537-1.182.424-1.218.305-1.243.185-1.253.061h-5.302v-11.489h5.2v-11.089h-5.2v-11.489h5.2v-11.089h-5.2v-11.488h5.2v-11.089h-5.2v-11.489h5.2v-11.089h-5.2V348.2h9.822v5.2h9.422v-5.2h9.823v5.2h9.422v-5.2h9.822v5.2h9.422v-5.2h9.823v5.2h9.422v-5.2h9.822v11.489h-5.2v11.089h5.2v11.489h-5.2v11.089h5.2v11.488h-5.2v11.089h5.2v11.489h-5.2v11.089h5.2V450" style="vector-effect:non-scaling-stroke;stroke-width:.264583;stroke-dasharray:none;-inkscape-stroke:hairline" transform="rotate(90 700.52 399.48)"/>
    <path fill="none" stroke="#000" stroke-width=".1mm" d="M604.575 541.64v-10.36h5.2v-9.96h-5.2v-10.36h5.2V500.8h76.4v10.16h5.2v10.36h-5.2v9.96h5.2v10.36h-5.2v10.16h-76.4v-10.16h-5.2" style="vector-effect:non-scaling-stroke;stroke-width:.264583;stroke-dasharray:none;-inkscape-stroke:hairline" transform="rotate(90 619.558 524.648)"/>
    <path fill="none" stroke="#000" stroke-width=".1mm" d="M691.375 533.665v-13.136h5.2v-12.935h76.4v12.935h5.2v13.136h-5.2V546.6h-4.422v5.2h-9.822v-5.2h-9.423v5.2h-9.822v-5.2h-9.422v5.2h-9.822v-5.2h-9.423v5.2h-9.822v-5.2h-4.422v-12.935h-5.2" style="vector-effect:non-scaling-stroke;stroke-width:.264583;stroke-dasharray:none;-inkscape-stroke:hairline" transform="rotate(90 640.855 459.145)"/>
    <path fill="none" stroke="#000" stroke-width=".1mm" d="M604.575 541.64v-10.36h5.2v-9.96h-5.2v-10.36h5.2V500.8h76.4v10.16h5.2v10.36h-5.2v9.96h5.2v10.36h-5.2v10.16h-76.4v-10.16h-5.2" style="vector-effect:non-scaling-stroke;stroke-width:.264583;stroke-dasharray:none;-inkscape-stroke:hairline" transform="rotate(-90 671.823 529.217)"/>
    <path fill="none" stroke="#000" stroke-width=".1mm" d="M691.375 533.665v-13.136h5.2v-12.935h76.4v12.935h5.2v13.136h-5.2V546.6h-4.422v5.2h-9.822v-5.2h-9.423v5.2h-9.822v-5.2h-9.422v5.2h-9.822v-5.2h-9.423v5.2h-9.822v-5.2h-4.422v-12.935h-5.2" style="vector-effect:non-scaling-stroke;stroke-width:.264583;stroke-dasharray:none;-inkscape-stroke:hairline" transform="rotate(-90 737.326 550.514)"/>
    <path fill="none" stroke="#000" stroke-width=".1mm" d="M691.375 450h-5.302l-1.253-.061-1.243-.185-1.218-.305-1.182-.424-1.136-.537-1.078-.645-1.009-.749-.93-.843-.843-.93-.749-1.009-.645-1.078-.537-1.136-.424-1.182-.305-1.218-.185-1.243-.061-1.253v-58.299l-.031-.615-.089-.608-.149-.594-.207-.578-.262-.554-.315-.526-.365-.493-.413-.454-.454-.413-.493-.365-.526-.315-.554-.262-.578-.207-.594-.149-.608-.089-.615-.031h-38.094l-.615.031-.608.089-.594.149-.578.207-.554.262-.526.315-.493.365-.454.413-.413.454-.365.493-.315.526-.262.554-.207.578-.149.594-.089.608-.031.615v58.299l-.061 1.253-.185 1.243-.305 1.218-.424 1.182-.537 1.136-.645 1.078-.749 1.009-.843.93-.93.843-1.009.749-1.078.645-1.136.537-1.182.424-1.218.305-1.243.185-1.253.061h-5.302v-11.489h5.2v-11.089h-5.2v-11.489h5.2v-11.089h-5.2v-11.488h5.2v-11.089h-5.2v-11.489h5.2v-11.089h-5.2V348.2h9.822v5.2h9.422v-5.2h9.823v5.2h9.422v-5.2h9.822v5.2h9.422v-5.2h9.823v5.2h9.422v-5.2h9.822v11.489h-5.2v11.089h5.2v11.489h-5.2v11.089h5.2v11.488h-5.2v11.089h5.2v11.489h-5.2v11.089h5.2V450" style="vector-effect:non-scaling-stroke;stroke-width:.264583;stroke-dasharray:none;-inkscape-stroke:hairline" transform="rotate(-90 597.455 397.455)"/>
    <path fill="none" stroke="#000" stroke-width=".1mm" d="M527.025 551.8v-11.289h-5.2v-11.489h5.2v-11.089h-5.2v-11.489h5.2v-11.088h-5.2v-11.489h5.2v-11.089h-5.2v-11.489h5.2V450h13.135v5.2h12.736V450h13.102l2.041 4.927-14.123 14.123h10.019v5.2h9.96v-5.2h10.36v5.2h9.96v-5.2h10.36v5.337L537.171 551.8h-10.146" style="vector-effect:non-scaling-stroke;stroke-width:.264583;stroke-dasharray:none;-inkscape-stroke:hairline" transform="rotate(90 615.745 484.255)"/>
    <path fill="none" stroke="#000" stroke-width=".1mm" d="M604.575 438.711h-5.2V450h-10.146l-67.404-77.413v-5.337h10.36v5.2h9.96v-5.2h10.36v5.2h9.96v-5.2h10.019l-14.123-14.123 2.041-4.927h13.102v5.2h12.736v-5.2h13.135v11.289h5.2v11.489h-5.2v11.089h5.2v11.489h-5.2v11.088h5.2v11.489h-5.2v11.089h5.2v11.489" style="vector-effect:non-scaling-stroke;stroke-width:.264583;stroke-dasharray:none;-inkscape-stroke:hairline" transform="rotate(90 597.455 502.545)"/>
    <path fill="none" stroke="#000" stroke-width=".1mm" d="M527.025 551.8v-11.289h-5.2v-11.489h5.2v-11.089h-5.2v-11.489h5.2v-11.088h-5.2v-11.489h5.2v-11.089h-5.2v-11.489h5.2V450h13.135v5.2h12.736V450h13.102l2.041 4.927-14.123 14.123h10.019v5.2h9.96v-5.2h10.36v5.2h9.96v-5.2h10.36v5.337L537.171 551.8h-10.146" style="vector-effect:non-scaling-stroke;stroke-width:.264583;stroke-dasharray:none;-inkscape-stroke:hairline" transform="rotate(-90 564.845 466.645)"/>
    <path fill="none" stroke="#000" stroke-width=".1mm" d="M604.575 438.711h-5.2V450h-10.146l-67.404-77.413v-5.337h10.36v5.2h9.96v-5.2h10.36v5.2h9.96v-5.2h10.019l-14.123-14.123 2.041-4.927h13.102v5.2h12.736v-5.2h13.135v11.289h5.2v11.489h-5.2v11.089h5.2v11.489h-5.2v11.088h5.2v11.489h-5.2v11.089h5.2v11.489" style="vector-effect:non-scaling-stroke;stroke-width:.264583;stroke-dasharray:none;-inkscape-stroke:hairline" transform="rotate(-90 648.355 346.555)"/>
</svg>
