<?xml version="1.0" encoding="UTF-8" standalone="no"?>
<svg
   width="1300mm"
   height="900mm"
   viewBox="0 0 1300 900"
   version="1.1"
   id="svg5"
   sodipodi:docname="Hammer.svg"
   inkscape:version="1.3.2 (091e20ef0f, 2023-11-25)"
   xmlns:inkscape="http://www.inkscape.org/namespaces/inkscape"
   xmlns:sodipodi="http://sodipodi.sourceforge.net/DTD/sodipodi-0.dtd"
   xmlns="http://www.w3.org/2000/svg"
   xmlns:svg="http://www.w3.org/2000/svg">
  <defs
     id="defs5" />
  <sodipodi:namedview
     id="namedview5"
     pagecolor="#505050"
     bordercolor="#eeeeee"
     borderopacity="1"
     inkscape:showpageshadow="0"
     inkscape:pageopacity="0"
     inkscape:pagecheckerboard="0"
     inkscape:deskcolor="#505050"
     inkscape:document-units="mm"
     inkscape:zoom="0.15508654"
     inkscape:cx="1376.6508"
     inkscape:cy="2272.9245"
     inkscape:window-width="1920"
     inkscape:window-height="1011"
     inkscape:window-x="0"
     inkscape:window-y="32"
     inkscape:window-maximized="1"
     inkscape:current-layer="svg5" />
  <polyline
     z="0"
     points="691.375,450 686.073,450 684.82,449.939 683.577,449.754 682.359,449.449 681.177,449.025 680.041,448.488 678.963,447.843 677.954,447.094 677.024,446.251 676.181,445.321 675.432,444.312 674.787,443.234 674.25,442.098 673.826,440.916 673.521,439.698 673.336,438.455 673.275,437.202 673.275,378.903 673.244,378.288 673.155,377.68 673.006,377.086 672.799,376.508 672.537,375.954 672.222,375.428 671.857,374.935 671.444,374.481 670.99,374.068 670.497,373.703 669.971,373.388 669.417,373.126 668.839,372.919 668.245,372.77 667.637,372.681 667.022,372.65 628.928,372.65 628.313,372.681 627.705,372.77 627.111,372.919 626.533,373.126 625.979,373.388 625.453,373.703 624.96,374.068 624.506,374.481 624.093,374.935 623.728,375.428 623.413,375.954 623.151,376.508 622.944,377.086 622.795,377.68 622.706,378.288 622.675,378.903 622.675,437.202 622.614,438.455 622.429,439.698 622.124,440.916 621.7,442.098 621.163,443.234 620.518,444.312 619.769,445.321 618.926,446.251 617.996,447.094 616.987,447.843 615.909,448.488 614.773,449.025 613.591,449.449 612.373,449.754 611.13,449.939 609.877,450 604.575,450 604.575,438.511 609.775,438.511 609.775,427.422 604.575,427.422 604.575,415.933 609.775,415.933 609.775,404.844 604.575,404.844 604.575,393.356 609.775,393.356 609.775,382.267 604.575,382.267 604.575,370.778 609.775,370.778 609.775,359.689 604.575,359.689 604.575,348.2 614.397,348.2 614.397,353.4 623.819,353.4 623.819,348.2 633.642,348.2 633.642,353.4 643.064,353.4 643.064,348.2 652.886,348.2 652.886,353.4 662.308,353.4 662.308,348.2 672.131,348.2 672.131,353.4 681.553,353.4 681.553,348.2 691.375,348.2 691.375,359.689 686.175,359.689 686.175,370.778 691.375,370.778 691.375,382.267 686.175,382.267 686.175,393.356 691.375,393.356 691.375,404.844 686.175,404.844 686.175,415.933 691.375,415.933 691.375,427.422 686.175,427.422 686.175,438.511 691.375,438.511 691.375,450"
     fill="none"
     stroke="#000000"
     stroke-width="0.1mm"
     id="polyline4"
     style="vector-effect:non-scaling-stroke;stroke-width:0.264583;stroke-dasharray:none;-inkscape-stroke:hairline"
     transform="rotate(90,700.51998,399.48002)" />
  <polyline
     z="0"
     points="604.575,541.64 604.575,531.28 609.775,531.28 609.775,521.32 604.575,521.32 604.575,510.96 609.775,510.96 609.775,500.8 686.175,500.8 686.175,510.96 691.375,510.96 691.375,521.32 686.175,521.32 686.175,531.28 691.375,531.28 691.375,541.64 686.175,541.64 686.175,551.8 609.775,551.8 609.775,541.64 604.575,541.64"
     fill="none"
     stroke="#000000"
     stroke-width="0.1mm"
     id="polyline2"
     style="vector-effect:non-scaling-stroke;stroke-width:0.264583;stroke-dasharray:none;-inkscape-stroke:hairline"
     transform="rotate(90,619.55802,524.64798)" />
  <polyline
     z="0"
     points="691.375,533.665 691.375,520.529 696.575,520.529 696.575,507.594 772.975,507.594 772.975,520.529 778.175,520.529 778.175,533.665 772.975,533.665 772.975,546.6 768.553,546.6 768.553,551.8 758.731,551.8 758.731,546.6 749.308,546.6 749.308,551.8 739.486,551.8 739.486,546.6 730.064,546.6 730.064,551.8 720.242,551.8 720.242,546.6 710.819,546.6 710.819,551.8 700.997,551.8 700.997,546.6 696.575,546.6 696.575,533.665 691.375,533.665"
     fill="none"
     stroke="#000000"
     stroke-width="0.1mm"
     id="polyline3"
     style="vector-effect:non-scaling-stroke;stroke-width:0.264583;stroke-dasharray:none;-inkscape-stroke:hairline"
     transform="rotate(90,640.85502,459.14498)" />
  <polyline
     z="0"
     points="604.575,541.64 604.575,531.28 609.775,531.28 609.775,521.32 604.575,521.32 604.575,510.96 609.775,510.96 609.775,500.8 686.175,500.8 686.175,510.96 691.375,510.96 691.375,521.32 686.175,521.32 686.175,531.28 691.375,531.28 691.375,541.64 686.175,541.64 686.175,551.8 609.775,551.8 609.775,541.64 604.575,541.64"
     fill="none"
     stroke="#000000"
     stroke-width="0.1mm"
     id="polyline2-2"
     style="vector-effect:non-scaling-stroke;stroke-width:0.264583;stroke-dasharray:none;-inkscape-stroke:hairline"
     transform="rotate(-90,671.82298,529.21698)" />
  <polyline
     z="0"
     points="691.375,533.665 691.375,520.529 696.575,520.529 696.575,507.594 772.975,507.594 772.975,520.529 778.175,520.529 778.175,533.665 772.975,533.665 772.975,546.6 768.553,546.6 768.553,551.8 758.731,551.8 758.731,546.6 749.308,546.6 749.308,551.8 739.486,551.8 739.486,546.6 730.064,546.6 730.064,551.8 720.242,551.8 720.242,546.6 710.819,546.6 710.819,551.8 700.997,551.8 700.997,546.6 696.575,546.6 696.575,533.665 691.375,533.665"
     fill="none"
     stroke="#000000"
     stroke-width="0.1mm"
     id="polyline3-2"
     style="vector-effect:non-scaling-stroke;stroke-width:0.264583;stroke-dasharray:none;-inkscape-stroke:hairline"
     transform="rotate(-90,737.32598,550.51398)" />
  <polyline
     z="0"
     points="691.375,450 686.073,450 684.82,449.939 683.577,449.754 682.359,449.449 681.177,449.025 680.041,448.488 678.963,447.843 677.954,447.094 677.024,446.251 676.181,445.321 675.432,444.312 674.787,443.234 674.25,442.098 673.826,440.916 673.521,439.698 673.336,438.455 673.275,437.202 673.275,378.903 673.244,378.288 673.155,377.68 673.006,377.086 672.799,376.508 672.537,375.954 672.222,375.428 671.857,374.935 671.444,374.481 670.99,374.068 670.497,373.703 669.971,373.388 669.417,373.126 668.839,372.919 668.245,372.77 667.637,372.681 667.022,372.65 628.928,372.65 628.313,372.681 627.705,372.77 627.111,372.919 626.533,373.126 625.979,373.388 625.453,373.703 624.96,374.068 624.506,374.481 624.093,374.935 623.728,375.428 623.413,375.954 623.151,376.508 622.944,377.086 622.795,377.68 622.706,378.288 622.675,378.903 622.675,437.202 622.614,438.455 622.429,439.698 622.124,440.916 621.7,442.098 621.163,443.234 620.518,444.312 619.769,445.321 618.926,446.251 617.996,447.094 616.987,447.843 615.909,448.488 614.773,449.025 613.591,449.449 612.373,449.754 611.13,449.939 609.877,450 604.575,450 604.575,438.511 609.775,438.511 609.775,427.422 604.575,427.422 604.575,415.933 609.775,415.933 609.775,404.844 604.575,404.844 604.575,393.356 609.775,393.356 609.775,382.267 604.575,382.267 604.575,370.778 609.775,370.778 609.775,359.689 604.575,359.689 604.575,348.2 614.397,348.2 614.397,353.4 623.819,353.4 623.819,348.2 633.642,348.2 633.642,353.4 643.064,353.4 643.064,348.2 652.886,348.2 652.886,353.4 662.308,353.4 662.308,348.2 672.131,348.2 672.131,353.4 681.553,353.4 681.553,348.2 691.375,348.2 691.375,359.689 686.175,359.689 686.175,370.778 691.375,370.778 691.375,382.267 686.175,382.267 686.175,393.356 691.375,393.356 691.375,404.844 686.175,404.844 686.175,415.933 691.375,415.933 691.375,427.422 686.175,427.422 686.175,438.511 691.375,438.511 691.375,450"
     fill="none"
     stroke="#000000"
     stroke-width="0.1mm"
     id="polyline4-6"
     style="vector-effect:non-scaling-stroke;stroke-width:0.264583;stroke-dasharray:none;-inkscape-stroke:hairline"
     transform="rotate(-90,597.45502,397.45502)" />
  <polyline
     z="0"
     points="527.025,551.8 527.025,540.511 521.825,540.511 521.825,529.022 527.025,529.022 527.025,517.933 521.825,517.933 521.825,506.444 527.025,506.444 527.025,495.356 521.825,495.356 521.825,483.867 527.025,483.867 527.025,472.778 521.825,472.778 521.825,461.289 527.025,461.289 527.025,450 540.16,450 540.16,455.2 552.896,455.2 552.896,450 565.998,450 568.039,454.927 553.916,469.05 563.935,469.05 563.935,474.25 573.895,474.25 573.895,469.05 584.255,469.05 584.255,474.25 594.215,474.25 594.215,469.05 604.575,469.05 604.575,474.387 537.171,551.8 527.025,551.8"
     fill="none"
     stroke="#000000"
     stroke-width="0.1mm"
     id="polyline1"
     style="vector-effect:non-scaling-stroke;stroke-width:0.264583;stroke-dasharray:none;-inkscape-stroke:hairline"
     transform="rotate(90,615.74498,484.25502)" />
  <polyline
     z="0"
     points="604.575,438.711 599.375,438.711 599.375,450 589.229,450 521.825,372.587 521.825,367.25 532.185,367.25 532.185,372.45 542.145,372.45 542.145,367.25 552.505,367.25 552.505,372.45 562.465,372.45 562.465,367.25 572.484,367.25 558.361,353.127 560.402,348.2 573.504,348.2 573.504,353.4 586.24,353.4 586.24,348.2 599.375,348.2 599.375,359.489 604.575,359.489 604.575,370.978 599.375,370.978 599.375,382.067 604.575,382.067 604.575,393.556 599.375,393.556 599.375,404.644 604.575,404.644 604.575,416.133 599.375,416.133 599.375,427.222 604.575,427.222 604.575,438.711"
     fill="none"
     stroke="#000000"
     stroke-width="0.1mm"
     id="polyline5"
     style="vector-effect:non-scaling-stroke;stroke-width:0.264583;stroke-dasharray:none;-inkscape-stroke:hairline"
     transform="rotate(90,597.45502,502.54498)" />
  <polyline
     z="0"
     points="527.025,551.8 527.025,540.511 521.825,540.511 521.825,529.022 527.025,529.022 527.025,517.933 521.825,517.933 521.825,506.444 527.025,506.444 527.025,495.356 521.825,495.356 521.825,483.867 527.025,483.867 527.025,472.778 521.825,472.778 521.825,461.289 527.025,461.289 527.025,450 540.16,450 540.16,455.2 552.896,455.2 552.896,450 565.998,450 568.039,454.927 553.916,469.05 563.935,469.05 563.935,474.25 573.895,474.25 573.895,469.05 584.255,469.05 584.255,474.25 594.215,474.25 594.215,469.05 604.575,469.05 604.575,474.387 537.171,551.8 527.025,551.8"
     fill="none"
     stroke="#000000"
     stroke-width="0.1mm"
     id="polyline1-7"
     style="vector-effect:non-scaling-stroke;stroke-width:0.264583;stroke-dasharray:none;-inkscape-stroke:hairline"
     transform="rotate(-90,564.84498,466.64498)" />
  <polyline
     z="0"
     points="604.575,438.711 599.375,438.711 599.375,450 589.229,450 521.825,372.587 521.825,367.25 532.185,367.25 532.185,372.45 542.145,372.45 542.145,367.25 552.505,367.25 552.505,372.45 562.465,372.45 562.465,367.25 572.484,367.25 558.361,353.127 560.402,348.2 573.504,348.2 573.504,353.4 586.24,353.4 586.24,348.2 599.375,348.2 599.375,359.489 604.575,359.489 604.575,370.978 599.375,370.978 599.375,382.067 604.575,382.067 604.575,393.556 599.375,393.556 599.375,404.644 604.575,404.644 604.575,416.133 599.375,416.133 599.375,427.222 604.575,427.222 604.575,438.711"
     fill="none"
     stroke="#000000"
     stroke-width="0.1mm"
     id="polyline5-1"
     style="vector-effect:non-scaling-stroke;stroke-width:0.264583;stroke-dasharray:none;-inkscape-stroke:hairline"
     transform="rotate(-90,648.35502,346.55502)" />
</svg>
