<!--
Cleat Wall Organization Equipment
Copyright (C) 2025  Corporate Hacks

This program is free software: you can redistribute it and/or modify
it under the terms of the GNU General Public License as published by
the Free Software Foundation, either version 3 of the License, or
(at your option) any later version.

This program is distributed in the hope that it will be useful,
but WITHOUT ANY WARRANTY; without even the implied warranty of
MERCHANTABILITY or FITNESS FOR A PARTICULAR PURPOSE.  See the
GNU General Public License for more details.

You should have received a copy of the GNU General Public License
along with this program.  If not, see <http://www.gnu.org/licenses/>.
-->

<svg xmlns="http://www.w3.org/2000/svg" width="1300mm" height="900mm" viewBox="0 0 1300 900">
    <path fill="none" stroke="#000" stroke-width=".1mm" d="M366.425 384.514h8.919v-5.2h8.666v5.2h8.267v-5.2h8.667v5.2h8.266v-5.2h8.667v5.2h8.267v-5.2h8.666v5.2h8.267v-5.058l-14.264-14.264 2.208-5.33v5.601h7.561v-5.199h7.961v5.199h7.562v-5.199h7.961v5.199h7.761v1.359h5.2v6.758h-5.2v6.359h5.2v6.758h-5.2v6.358h5.2v6.758h-5.2v6.359h5.2v6.758h-5.2v1.359h-10v5.244l-93.402-35.019" style="vector-effect:non-scaling-stroke;fill:none;stroke:#000;stroke-width:.264583;stroke-dasharray:none;stroke-opacity:1;-inkscape-stroke:hairline" transform="rotate(90 486.393 650.92)"/>
    <path fill="none" stroke="#000" stroke-width=".1mm" d="M595.699 443.222h5.2v-1.359h7.761v-5.199h7.961v5.199h7.562v-5.199h7.961v5.199h7.561v-5.601l2.208 5.33-14.264 14.264v5.058h8.267v-5.2h8.666v5.2h8.267v-5.2h8.667v5.2h8.266v-5.2h8.667v5.2h8.267v-5.2h8.666v5.2h8.919l-93.402 35.019v-5.244h-10v-1.359h-5.2v-6.758h5.2v-6.359h-5.2v-6.758h5.2v-6.358h-5.2v-6.758h5.2v-6.359h-5.2v-6.758" style="vector-effect:non-scaling-stroke;fill:none;stroke:#000;stroke-width:.264583;stroke-dasharray:none;stroke-opacity:1;-inkscape-stroke:hairline" transform="rotate(90 774.483 439.23)"/>
    <path fill="none" stroke="#000" stroke-width=".1mm" d="M366.425 384.514h8.919v-5.2h8.666v5.2h8.267v-5.2h8.667v5.2h8.266v-5.2h8.667v5.2h8.267v-5.2h8.666v5.2h8.267v-5.058l-14.264-14.264 2.208-5.33v5.601h7.561v-5.199h7.961v5.199h7.562v-5.199h7.961v5.199h7.761v1.359h5.2v6.758h-5.2v6.359h5.2v6.758h-5.2v6.358h5.2v6.758h-5.2v6.359h5.2v6.758h-5.2v1.359h-10v5.244l-93.402-35.019" style="vector-effect:non-scaling-stroke;fill:none;stroke:#000;stroke-width:.264583;stroke-dasharray:none;stroke-opacity:1;-inkscape-stroke:hairline" transform="matrix(0 1 1 0 357.918 -25.027)"/>
    <path fill="none" stroke="#000" stroke-width=".1mm" d="M595.699 443.222h5.2v-1.359h7.761v-5.199h7.961v5.199h7.562v-5.199h7.961v5.199h7.561v-5.601l2.208 5.33-14.264 14.264v5.058h8.267v-5.2h8.666v5.2h8.267v-5.2h8.667v5.2h8.266v-5.2h8.667v5.2h8.267v-5.2h8.666v5.2h8.919l-93.402 35.019v-5.244h-10v-1.359h-5.2v-6.758h5.2v-6.359h-5.2v-6.758h5.2v-6.358h-5.2v-6.758h5.2v-6.359h-5.2v-6.758" style="vector-effect:non-scaling-stroke;fill:none;stroke:#000;stroke-width:.264583;stroke-dasharray:none;stroke-opacity:1;-inkscape-stroke:hairline" transform="matrix(0 1 1 0 281.518 -145.699)"/>
    <path fill="none" stroke="#000" stroke-width=".1mm" d="M366.425 534.939v-7.961h5.199v-7.561h-5.199v-7.962h5.199v-7.561h-5.199v-7.961h229.274v7.961H590.5v7.561h5.199v7.962H590.5v7.561h5.199v7.961h-17.621v5.2h-17.821v-5.2h-17.421v5.2h-17.821v-5.2h-17.421v5.2h-17.821v-5.2h-17.422v5.2H454.53v-5.2h-17.421v5.2h-17.821v-5.2h-17.421v5.2h-17.821v-5.2h-17.621" style="vector-effect:non-scaling-stroke;fill:none;stroke:#000;stroke-width:.264583;stroke-dasharray:none;stroke-opacity:1;-inkscape-stroke:hairline" transform="rotate(90 633.805 488.106)"/>
    <path fill="none" stroke="#000" stroke-width=".1mm" d="M366.425 495.933v-8.667h5.199V479h-5.199v-8.667h5.199v-8.267h-5.199V453.4h5.199v-8.267h-5.199v-8.667h5.199V428.2h-5.199v-8.667h229.274v8.667H590.5v8.266h5.199v8.667H590.5v8.267h5.199v8.666H590.5v8.267h5.199V479H590.5v8.266h5.199v8.667H366.425" style="vector-effect:non-scaling-stroke;fill:none;stroke:#000;stroke-width:.264583;stroke-dasharray:none;stroke-opacity:1;-inkscape-stroke:hairline" transform="rotate(90 633.805 488.106)"/>
    <path fill="none" stroke="#000" stroke-width=".1mm" d="M595.699 524.738h229.274v10.201h-17.621v5.2h-17.821v-5.2H772.11v5.2h-17.821v-5.2h-17.421v5.2h-17.821v-5.2h-17.422v5.2h-17.821v-5.2h-17.421v5.2h-17.821v-5.2h-17.421v5.2H613.32v-5.2h-17.621v-10.201" style="vector-effect:non-scaling-stroke;fill:none;stroke:#000;stroke-width:.264583;stroke-dasharray:none;stroke-opacity:1;-inkscape-stroke:hairline" transform="rotate(-90 611.67 434.03)"/>
    <path d="M522.55 220.726v17.821h5.198v17.42h-5.199v17.822h5.2v17.421h-5.2v17.82h5.2v17.422h-5.2v17.822h5.2v17.421h-5.2v17.82h5.2v17.422h-5.2v17.821h5.2v17.42h-5.2V450h6.758v-5.2h6.358v5.2h6.759v-5.2h6.358v5.2h6.758v-5.2h6.358v5.2h6.759v-5.2h6.358v5.2h6.758v-17.821h-5.199v-17.42h5.199v-17.822h-5.199v-17.421h5.199v-17.82h-5.199v-17.422h5.199v-17.822h-5.199V309.03h5.199v-17.82h-5.199v-17.422h5.199v-17.821h-5.199v-17.42h5.199v-17.822h-6.758v5.2h-6.358v-5.2h-6.759v5.2h-6.358v-5.2h-6.758v5.2h-6.358v-5.2h-6.759v5.2h-6.358v-5.2zm27.19 29.805h3.212l1.607 2.783-1.607 2.78h-3.211l-1.605-2.78zm.001 24.572h3.212l1.606 2.782-1.606 2.781h-3.212l-1.605-2.781zm0 25.366h3.212l1.606 2.782-1.606 2.781h-3.212l-1.605-2.781zm-.23 25.763h3.672l1.834 3.178-1.834 3.178h-3.671l-1.834-3.178zm-.228 26.556h4.129l2.063 3.575-2.063 3.575h-4.13l-2.063-3.575zm-.458 27.35h5.045l2.522 4.369-2.522 4.368h-5.045l-2.522-4.368zm-.458 28.938h5.961l2.98 5.162-2.98 5.162h-5.96l-2.982-5.162z" style="vector-effect:non-scaling-stroke;fill:none;stroke:#000;stroke-width:.264583;stroke-dasharray:none;stroke-opacity:1;-inkscape-stroke:hairline"/>
    <path fill="none" stroke="#000" stroke-width=".1mm" d="M366.425 534.939v-7.961h5.199v-7.561h-5.199v-7.962h5.199v-7.561h-5.199v-7.961h229.274v7.961H590.5v7.561h5.199v7.962H590.5v7.561h5.199v7.961h-17.621v5.2h-17.821v-5.2h-17.421v5.2h-17.821v-5.2h-17.421v5.2h-17.821v-5.2h-17.422v5.2H454.53v-5.2h-17.421v5.2h-17.821v-5.2h-17.421v5.2h-17.821v-5.2h-17.621" style="vector-effect:non-scaling-stroke;fill:none;stroke:#000;stroke-width:.264583;stroke-dasharray:none;stroke-opacity:1;-inkscape-stroke:hairline" transform="rotate(90 519.168 602.743)"/>
    <path fill="none" stroke="#000" stroke-width=".1mm" d="M366.425 495.933v-8.667h5.199V479h-5.199v-8.667h5.199v-8.267h-5.199V453.4h5.199v-8.267h-5.199v-8.667h5.199V428.2h-5.199v-8.667h229.274v8.667H590.5v8.266h5.199v8.667H590.5v8.267h5.199v8.666H590.5v8.267h5.199V479H590.5v8.266h5.199v8.667H366.425" style="vector-effect:non-scaling-stroke;fill:none;stroke:#000;stroke-width:.264583;stroke-dasharray:none;stroke-opacity:1;-inkscape-stroke:hairline" transform="rotate(90 519.168 602.743)"/>
    <path fill="none" stroke="#000" stroke-width=".1mm" d="M595.699 524.738h229.274v10.201h-17.621v5.2h-17.821v-5.2H772.11v5.2h-17.821v-5.2h-17.421v5.2h-17.821v-5.2h-17.422v5.2h-17.821v-5.2h-17.421v5.2h-17.821v-5.2h-17.421v5.2H613.32v-5.2h-17.621v-10.201" style="vector-effect:non-scaling-stroke;fill:none;stroke:#000;stroke-width:.264583;stroke-dasharray:none;stroke-opacity:1;-inkscape-stroke:hairline" transform="rotate(-90 726.307 548.666)"/>
    <path d="M522.55 450v17.821h5.198v17.42h-5.199v17.822h5.2v17.421h-5.2v17.82h5.2v17.422h-5.2v17.822h5.2v17.421h-5.2v17.82h5.2v17.422h-5.2v17.821h5.2v17.42h-5.2v17.822h6.758v-5.2h6.358v5.2h6.759v-5.2h6.358v5.2h6.758v-5.2h6.358v5.2h6.759v-5.2h6.358v5.2h6.758v-17.821h-5.199v-17.42h5.199V626.21h-5.199V608.79h5.199v-17.82h-5.199v-17.422h5.199v-17.822h-5.199v-17.421h5.199v-17.82h-5.199v-17.422h5.199v-17.821h-5.199v-17.42h5.199V450h-6.758v5.2h-6.358V450h-6.759v5.2h-6.358V450h-6.758v5.2h-6.358V450h-6.759v5.2h-6.358V450zm27.19 29.806h3.212l1.606 2.782-1.606 2.78h-3.211l-1.605-2.78zm.001 24.571h3.212l1.606 2.782-1.606 2.781h-3.212l-1.605-2.781zm0 25.366h3.212l1.606 2.782-1.606 2.781h-3.212l-1.605-2.781zm-.23 25.763h3.672l1.834 3.178-1.834 3.178h-3.671l-1.834-3.178zm-.228 26.556h4.129l2.063 3.575-2.063 3.575h-4.13l-2.063-3.575zm-.458 27.35h5.045l2.522 4.369-2.522 4.368h-5.045l-2.522-4.368zm-.458 28.938h5.961l2.98 5.162-2.98 5.162h-5.96l-2.982-5.162z" style="vector-effect:non-scaling-stroke;fill:none;stroke:#000;stroke-width:.264583;stroke-dasharray:none;stroke-opacity:1;-inkscape-stroke:hairline"/>
</svg>
