<?xml version="1.0" encoding="UTF-8" standalone="no"?>
<svg
   width="1300mm"
   height="900mm"
   viewBox="0 0 1300 900"
   version="1.1"
   id="svg13"
   sodipodi:docname="SAEAllen.svg"
   inkscape:version="1.4 (e7c3feb100, 2024-10-09)"
   xmlns:inkscape="http://www.inkscape.org/namespaces/inkscape"
   xmlns:sodipodi="http://sodipodi.sourceforge.net/DTD/sodipodi-0.dtd"
   xmlns="http://www.w3.org/2000/svg"
   xmlns:svg="http://www.w3.org/2000/svg">
  <defs
     id="defs13" />
  <sodipodi:namedview
     id="namedview13"
     pagecolor="#505050"
     bordercolor="#eeeeee"
     borderopacity="1"
     inkscape:showpageshadow="0"
     inkscape:pageopacity="0"
     inkscape:pagecheckerboard="0"
     inkscape:deskcolor="#505050"
     inkscape:document-units="mm"
     inkscape:zoom="0.32686218"
     inkscape:cx="2894.1862"
     inkscape:cy="1681.1367"
     inkscape:window-width="1920"
     inkscape:window-height="1011"
     inkscape:window-x="0"
     inkscape:window-y="32"
     inkscape:window-maximized="1"
     inkscape:current-layer="svg13" />
  <polyline
     z="0"
     points="366.425,384.514 375.344,384.514 375.344,379.314 384.01,379.314 384.01,384.514 392.277,384.514 392.277,379.314 400.944,379.314 400.944,384.514 409.21,384.514 409.21,379.314 417.877,379.314 417.877,384.514 426.144,384.514 426.144,379.314 434.81,379.314 434.81,384.514 443.077,384.514 443.077,379.456 428.813,365.192 431.021,359.862 431.021,365.463 438.582,365.463 438.582,360.264 446.543,360.264 446.543,365.463 454.105,365.463 454.105,360.264 462.066,360.264 462.066,365.463 469.827,365.463 469.827,366.822 475.027,366.822 475.027,373.58 469.827,373.58 469.827,379.939 475.027,379.939 475.027,386.697 469.827,386.697 469.827,393.055 475.027,393.055 475.027,399.813 469.827,399.813 469.827,406.172 475.027,406.172 475.027,412.93 469.827,412.93 469.827,414.289 459.827,414.289 459.827,419.533 366.425,384.514"
     fill="none"
     stroke="#000000"
     stroke-width="0.1mm"
     id="polyline3"
     transform="rotate(90,486.39326,650.91962)"
     style="vector-effect:non-scaling-stroke;fill:none;stroke:#000000;stroke-width:0.264583;stroke-dasharray:none;stroke-opacity:1;-inkscape-stroke:hairline" />
  <polyline
     z="0"
     points="595.699,443.222 600.899,443.222 600.899,441.863 608.66,441.863 608.66,436.664 616.621,436.664 616.621,441.863 624.183,441.863 624.183,436.664 632.144,436.664 632.144,441.863 639.705,441.863 639.705,436.262 641.913,441.592 627.649,455.856 627.649,460.914 635.916,460.914 635.916,455.714 644.582,455.714 644.582,460.914 652.849,460.914 652.849,455.714 661.516,455.714 661.516,460.914 669.782,460.914 669.782,455.714 678.449,455.714 678.449,460.914 686.716,460.914 686.716,455.714 695.382,455.714 695.382,460.914 704.301,460.914 610.899,495.933 610.899,490.689 600.899,490.689 600.899,489.33 595.699,489.33 595.699,482.572 600.899,482.572 600.899,476.213 595.699,476.213 595.699,469.455 600.899,469.455 600.899,463.097 595.699,463.097 595.699,456.339 600.899,456.339 600.899,449.98 595.699,449.98 595.699,443.222"
     fill="none"
     stroke="#000000"
     stroke-width="0.1mm"
     id="polyline4"
     transform="rotate(90,774.48262,439.23027)"
     style="vector-effect:non-scaling-stroke;fill:none;stroke:#000000;stroke-width:0.264583;stroke-dasharray:none;stroke-opacity:1;-inkscape-stroke:hairline" />
  <polyline
     z="0"
     points="366.425,384.514 375.344,384.514 375.344,379.314 384.01,379.314 384.01,384.514 392.277,384.514 392.277,379.314 400.944,379.314 400.944,384.514 409.21,384.514 409.21,379.314 417.877,379.314 417.877,384.514 426.144,384.514 426.144,379.314 434.81,379.314 434.81,384.514 443.077,384.514 443.077,379.456 428.813,365.192 431.021,359.862 431.021,365.463 438.582,365.463 438.582,360.264 446.543,360.264 446.543,365.463 454.105,365.463 454.105,360.264 462.066,360.264 462.066,365.463 469.827,365.463 469.827,366.822 475.027,366.822 475.027,373.58 469.827,373.58 469.827,379.939 475.027,379.939 475.027,386.697 469.827,386.697 469.827,393.055 475.027,393.055 475.027,399.813 469.827,399.813 469.827,406.172 475.027,406.172 475.027,412.93 469.827,412.93 469.827,414.289 459.827,414.289 459.827,419.533 366.425,384.514"
     fill="none"
     stroke="#000000"
     stroke-width="0.1mm"
     id="polyline3-2"
     transform="matrix(0,1,1,0,357.91788,-25.027005)"
     style="vector-effect:non-scaling-stroke;fill:none;stroke:#000000;stroke-width:0.264583;stroke-dasharray:none;stroke-opacity:1;-inkscape-stroke:hairline" />
  <polyline
     z="0"
     points="595.699,443.222 600.899,443.222 600.899,441.863 608.66,441.863 608.66,436.664 616.621,436.664 616.621,441.863 624.183,441.863 624.183,436.664 632.144,436.664 632.144,441.863 639.705,441.863 639.705,436.262 641.913,441.592 627.649,455.856 627.649,460.914 635.916,460.914 635.916,455.714 644.582,455.714 644.582,460.914 652.849,460.914 652.849,455.714 661.516,455.714 661.516,460.914 669.782,460.914 669.782,455.714 678.449,455.714 678.449,460.914 686.716,460.914 686.716,455.714 695.382,455.714 695.382,460.914 704.301,460.914 610.899,495.933 610.899,490.689 600.899,490.689 600.899,489.33 595.699,489.33 595.699,482.572 600.899,482.572 600.899,476.213 595.699,476.213 595.699,469.455 600.899,469.455 600.899,463.097 595.699,463.097 595.699,456.339 600.899,456.339 600.899,449.98 595.699,449.98 595.699,443.222"
     fill="none"
     stroke="#000000"
     stroke-width="0.1mm"
     id="polyline4-2"
     transform="matrix(0,1,1,0,281.51788,-145.699)"
     style="vector-effect:non-scaling-stroke;fill:none;stroke:#000000;stroke-width:0.264583;stroke-dasharray:none;stroke-opacity:1;-inkscape-stroke:hairline" />
  <polyline
     z="0"
     points="366.425,534.939 366.425,526.978 371.624,526.978 371.624,519.417 366.425,519.417 366.425,511.455 371.624,511.455 371.624,503.894 366.425,503.894 366.425,495.933 595.699,495.933 595.699,503.894 590.5,503.894 590.5,511.455 595.699,511.455 595.699,519.417 590.5,519.417 590.5,526.978 595.699,526.978 595.699,534.939 578.078,534.939 578.078,540.139 560.257,540.139 560.257,534.939 542.836,534.939 542.836,540.139 525.015,540.139 525.015,534.939 507.594,534.939 507.594,540.139 489.773,540.139 489.773,534.939 472.351,534.939 472.351,540.139 454.53,540.139 454.53,534.939 437.109,534.939 437.109,540.139 419.288,540.139 419.288,534.939 401.867,534.939 401.867,540.139 384.046,540.139 384.046,534.939 366.425,534.939"
     fill="none"
     stroke="#000000"
     stroke-width="0.1mm"
     id="polyline1"
     transform="rotate(90,633.80544,488.10644)"
     style="vector-effect:non-scaling-stroke;fill:none;stroke:#000000;stroke-width:0.264583;stroke-dasharray:none;stroke-opacity:1;-inkscape-stroke:hairline" />
  <polyline
     z="0"
     points="366.425,495.933 366.425,487.266 371.624,487.266 371.624,479 366.425,479 366.425,470.333 371.624,470.333 371.624,462.066 366.425,462.066 366.425,453.4 371.624,453.4 371.624,445.133 366.425,445.133 366.425,436.466 371.624,436.466 371.624,428.2 366.425,428.2 366.425,419.533 595.699,419.533 595.699,428.2 590.5,428.2 590.5,436.466 595.699,436.466 595.699,445.133 590.5,445.133 590.5,453.4 595.699,453.4 595.699,462.066 590.5,462.066 590.5,470.333 595.699,470.333 595.699,479 590.5,479 590.5,487.266 595.699,487.266 595.699,495.933 366.425,495.933"
     fill="none"
     stroke="#000000"
     stroke-width="0.1mm"
     id="polyline2"
     transform="rotate(90,633.80544,488.10644)"
     style="vector-effect:non-scaling-stroke;fill:none;stroke:#000000;stroke-width:0.264583;stroke-dasharray:none;stroke-opacity:1;-inkscape-stroke:hairline" />
  <polyline
     z="0"
     points="595.699,524.738 824.973,524.738 824.973,534.939 807.352,534.939 807.352,540.139 789.531,540.139 789.531,534.939 772.11,534.939 772.11,540.139 754.289,540.139 754.289,534.939 736.868,534.939 736.868,540.139 719.047,540.139 719.047,534.939 701.625,534.939 701.625,540.139 683.804,540.139 683.804,534.939 666.383,534.939 666.383,540.139 648.562,540.139 648.562,534.939 631.141,534.939 631.141,540.139 613.32,540.139 613.32,534.939 595.699,534.939 595.699,524.738"
     fill="none"
     stroke="#000000"
     stroke-width="0.1mm"
     id="polyline5"
     transform="rotate(-90,611.66995,434.02906)"
     style="vector-effect:non-scaling-stroke;fill:none;stroke:#000000;stroke-width:0.264583;stroke-dasharray:none;stroke-opacity:1;-inkscape-stroke:hairline" />
  <path
     id="polyline6"
     d="m 522.54912,220.72607 v 17.82115 h 5.19916 v 17.42064 h -5.19916 v 17.82113 h 5.19916 v 17.42116 h -5.19916 v 17.82061 h 5.19916 v 17.42116 h -5.19916 v 17.82218 h 5.19916 v 17.42115 h -5.19916 v 17.82061 h 5.19916 v 17.42116 h -5.19916 v 17.82114 h 5.19916 v 17.42065 h -5.19916 v 17.82113 h 6.75771 v -5.19916 h 6.35828 v 5.19916 h 6.75876 v -5.19916 h 6.35827 v 5.19916 h 6.75773 v -5.19916 h 6.35826 v 5.19916 h 6.75877 v -5.19916 h 6.35826 v 5.19916 h 6.75773 v -17.82113 h -5.19865 v -17.42065 h 5.19865 v -17.82114 h -5.19865 v -17.42116 h 5.19865 v -17.82061 h -5.19865 V 344.2741 h 5.19865 v -17.82218 h -5.19865 v -17.42116 h 5.19865 v -17.82061 h -5.19865 v -17.42116 h 5.19865 v -17.82113 h -5.19865 v -17.42064 h 5.19865 v -17.82115 h -6.75773 v 5.19919 h -6.35826 v -5.19919 h -6.75877 v 5.19919 h -6.35826 v -5.19919 h -6.75773 v 5.19919 h -6.35827 v -5.19919 h -6.75876 v 5.19919 h -6.35828 v -5.19919 z m 27.19162,29.80542 h 3.21169 l 1.6061,2.78228 -1.6061,2.7807 h -3.21169 l -1.60507,-2.7807 z m 5.1e-4,24.57163 h 3.21169 l 1.6061,2.78175 -1.6061,2.78121 h -3.21169 l -1.60507,-2.78121 z m 0,25.3659 h 3.21169 l 1.6061,2.78174 -1.6061,2.78123 h -3.21169 l -1.60507,-2.78123 z m -0.22944,25.76277 h 3.67109 l 1.834,3.1781 -1.834,3.1781 h -3.67109 l -1.834,-3.1781 z m -0.22893,26.55599 h 4.12895 l 2.06344,3.57498 -2.06344,3.5755 h -4.12895 l -2.06395,-3.5755 z m -0.45785,27.35028 h 5.04517 l 2.52181,4.36872 -2.52181,4.36821 h -5.04517 l -2.52181,-4.36821 z m -0.45785,28.93777 h 5.96087 l 2.98018,5.16195 -2.98018,5.16196 h -5.96087 l -2.98122,-5.16196 z"
     style="vector-effect:non-scaling-stroke;fill:none;stroke:#000000;stroke-width:0.264583;stroke-dasharray:none;stroke-opacity:1;-inkscape-stroke:hairline" />
  <polyline
     z="0"
     points="366.425,534.939 366.425,526.978 371.624,526.978 371.624,519.417 366.425,519.417 366.425,511.455 371.624,511.455 371.624,503.894 366.425,503.894 366.425,495.933 595.699,495.933 595.699,503.894 590.5,503.894 590.5,511.455 595.699,511.455 595.699,519.417 590.5,519.417 590.5,526.978 595.699,526.978 595.699,534.939 578.078,534.939 578.078,540.139 560.257,540.139 560.257,534.939 542.836,534.939 542.836,540.139 525.015,540.139 525.015,534.939 507.594,534.939 507.594,540.139 489.773,540.139 489.773,534.939 472.351,534.939 472.351,540.139 454.53,540.139 454.53,534.939 437.109,534.939 437.109,540.139 419.288,540.139 419.288,534.939 401.867,534.939 401.867,540.139 384.046,540.139 384.046,534.939 366.425,534.939"
     fill="none"
     stroke="#000000"
     stroke-width="0.1mm"
     id="polyline1-5"
     transform="rotate(90,519.16845,602.74345)"
     style="vector-effect:non-scaling-stroke;fill:none;stroke:#000000;stroke-width:0.264583;stroke-dasharray:none;stroke-opacity:1;-inkscape-stroke:hairline" />
  <polyline
     z="0"
     points="366.425,495.933 366.425,487.266 371.624,487.266 371.624,479 366.425,479 366.425,470.333 371.624,470.333 371.624,462.066 366.425,462.066 366.425,453.4 371.624,453.4 371.624,445.133 366.425,445.133 366.425,436.466 371.624,436.466 371.624,428.2 366.425,428.2 366.425,419.533 595.699,419.533 595.699,428.2 590.5,428.2 590.5,436.466 595.699,436.466 595.699,445.133 590.5,445.133 590.5,453.4 595.699,453.4 595.699,462.066 590.5,462.066 590.5,470.333 595.699,470.333 595.699,479 590.5,479 590.5,487.266 595.699,487.266 595.699,495.933 366.425,495.933"
     fill="none"
     stroke="#000000"
     stroke-width="0.1mm"
     id="polyline2-9"
     transform="rotate(90,519.16845,602.74345)"
     style="vector-effect:non-scaling-stroke;fill:none;stroke:#000000;stroke-width:0.264583;stroke-dasharray:none;stroke-opacity:1;-inkscape-stroke:hairline" />
  <polyline
     z="0"
     points="595.699,524.738 824.973,524.738 824.973,534.939 807.352,534.939 807.352,540.139 789.531,540.139 789.531,534.939 772.11,534.939 772.11,540.139 754.289,540.139 754.289,534.939 736.868,534.939 736.868,540.139 719.047,540.139 719.047,534.939 701.625,534.939 701.625,540.139 683.804,540.139 683.804,534.939 666.383,534.939 666.383,540.139 648.562,540.139 648.562,534.939 631.141,534.939 631.141,540.139 613.32,540.139 613.32,534.939 595.699,534.939 595.699,524.738"
     fill="none"
     stroke="#000000"
     stroke-width="0.1mm"
     id="polyline5-8"
     transform="rotate(-90,726.30694,548.66605)"
     style="vector-effect:non-scaling-stroke;fill:none;stroke:#000000;stroke-width:0.264583;stroke-dasharray:none;stroke-opacity:1;-inkscape-stroke:hairline" />
  <path
     id="polyline6-9"
     d="m 522.54912,450.00008 v 17.82114 h 5.19916 v 17.42063 h -5.19916 v 17.82114 h 5.19916 v 17.42116 h -5.19916 v 17.82061 h 5.19916 v 17.42116 h -5.19916 v 17.82218 h 5.19916 v 17.42115 h -5.19916 v 17.82061 h 5.19916 v 17.42116 h -5.19916 v 17.82114 h 5.19916 v 17.42065 h -5.19916 v 17.82112 h 6.75771 v -5.19916 h 6.35828 v 5.19916 h 6.75876 v -5.19916 h 6.35823 v 5.19916 h 6.7578 v -5.19916 h 6.3582 v 5.19916 h 6.7588 v -5.19916 h 6.3583 v 5.19916 h 6.7577 v -17.82112 h -5.1987 v -17.42065 h 5.1987 v -17.82114 h -5.1987 v -17.42116 h 5.1987 v -17.82061 h -5.1987 V 573.5481 h 5.1987 v -17.82218 h -5.1987 v -17.42116 h 5.1987 v -17.82061 h -5.1987 v -17.42116 h 5.1987 v -17.82114 h -5.1987 v -17.42063 h 5.1987 v -17.82114 h -6.7577 v 5.19917 h -6.3583 v -5.19917 h -6.7588 v 5.19917 h -6.3582 v -5.19917 h -6.7578 v 5.19917 h -6.35823 v -5.19917 h -6.75876 v 5.19917 h -6.35828 v -5.19917 z m 27.19158,29.80542 h 3.2117 l 1.60609,2.78226 -1.60609,2.78071 h -3.2117 l -1.605,-2.78071 z m 6e-4,24.57162 h 3.21159 l 1.6061,2.78175 -1.6061,2.78121 h -3.21159 l -1.6051,-2.78121 z m 0,25.3659 h 3.21159 l 1.6061,2.78174 -1.6061,2.78122 h -3.21159 l -1.6051,-2.78122 z m -0.22951,25.76277 h 3.67111 l 1.83399,3.1781 -1.83399,3.1781 h -3.67111 l -1.83399,-3.1781 z m -0.22889,26.55599 h 4.1289 l 2.0635,3.57498 -2.0635,3.57549 h -4.1289 l -2.064,-3.57549 z m -0.4579,27.35028 h 5.0452 l 2.5218,4.36871 -2.5218,4.36821 h -5.0452 l -2.5218,-4.36821 z m -0.4578,28.93777 h 5.9609 l 2.9801,5.16194 -2.9801,5.16196 h -5.9609 l -2.9812,-5.16196 z"
     style="vector-effect:non-scaling-stroke;fill:none;stroke:#000000;stroke-width:0.264583;stroke-dasharray:none;stroke-opacity:1;-inkscape-stroke:hairline" />
</svg>
