Cleat Wall Organization Equipment
Copyright (C) 2025  Corporate Hacks

This program is free software: you can redistribute it and/or modify
it under the terms of the GNU General Public License as published by
the Free Software Foundation, either version 3 of the License, or
(at your option) any later version.

This program is distributed in the hope that it will be useful,
but WITHOUT ANY WARRANTY; without even the implied warranty of
MERCHANTABILITY or FITNESS FOR A PARTICULAR PURPOSE.  See the
GNU General Public License for more details.

You should have received a copy of the GNU General Public License
along with this program.  If not, see <http://www.gnu.org/licenses/>.


<svg xmlns="http://www.w3.org/2000/svg" width="1300mm" height="900mm" viewBox="0 0 1300 900">
    <path fill="none" stroke="#000" stroke-width=".1mm" d="M364.639 533.803v-7.7h5.2v-7.3h-5.2v-7.7h5.2v-7.3h-5.2v-7.7h5.2v-2.3h7.761v-5.2h7.961v5.2h7.562v-5.2h7.961v5.2h7.561V488.2l2.208 5.33-14.264 14.264v5.059h8.267v-5.2h8.666v5.2h8.267v-5.2h8.667v5.2h8.266v-5.2h8.667v5.2h8.267v-5.2h8.666v5.2h9.039l-93.522 28.485v-5.235h-10v-2.3h-5.2" style="vector-effect:non-scaling-stroke;fill:none;stroke:#000;stroke-width:.264583;stroke-dasharray:none;stroke-opacity:1;-inkscape-stroke:hairline" transform="rotate(90 586.88 672.242)"/>
    <path fill="none" stroke="#000" stroke-width=".1mm" d="M364.639 383.315h9.039v-5.2h8.666v5.2h8.267v-5.2h8.667v5.2h8.266v-5.2h8.667v5.2h8.267v-5.2h8.666v5.2h8.267v-5.059l-14.264-14.264 2.208-5.33v5.603h7.561v-5.2h7.961v5.2h7.562v-5.2h7.961v5.2h7.761v2.3h5.2v7.7h-5.2v7.3h5.2v7.7h-5.2v7.3h5.2v7.7h-5.2v2.3h-10v5.235l-93.522-28.485" style="vector-effect:non-scaling-stroke;fill:none;stroke:#000;stroke-width:.264583;stroke-dasharray:none;stroke-opacity:1;-inkscape-stroke:hairline" transform="rotate(90 576.473 553.112)"/>
    <path fill="none" stroke="#000" stroke-width=".1mm" d="M364.639 533.803v-7.7h5.2v-7.3h-5.2v-7.7h5.2v-7.3h-5.2v-7.7h5.2v-2.3h7.761v-5.2h7.961v5.2h7.562v-5.2h7.961v5.2h7.561V488.2l2.208 5.33-14.264 14.264v5.059h8.267v-5.2h8.666v5.2h8.267v-5.2h8.667v5.2h8.266v-5.2h8.667v5.2h8.267v-5.2h8.666v5.2h9.039l-93.522 28.485v-5.235h-10v-2.3h-5.2" style="vector-effect:non-scaling-stroke;fill:none;stroke:#000;stroke-width:.264583;stroke-dasharray:none;stroke-opacity:1;-inkscape-stroke:hairline" transform="matrix(0 1 1 0 229.584 -119.502)"/>
    <path fill="none" stroke="#000" stroke-width=".1mm" d="M364.639 383.315h9.039v-5.2h8.666v5.2h8.267v-5.2h8.667v5.2h8.266v-5.2h8.667v5.2h8.267v-5.2h8.666v5.2h8.267v-5.059l-14.264-14.264 2.208-5.33v5.603h7.561v-5.2h7.961v5.2h7.562v-5.2h7.961v5.2h7.761v2.3h5.2v7.7h-5.2v7.3h5.2v7.7h-5.2v7.3h5.2v7.7h-5.2v2.3h-10v5.235l-93.522-28.485" style="vector-effect:non-scaling-stroke;fill:none;stroke:#000;stroke-width:.264583;stroke-dasharray:none;stroke-opacity:1;-inkscape-stroke:hairline" transform="matrix(0 1 1 0 359.122 181.502)"/>
    <path fill="none" stroke="#000" stroke-width=".1mm" d="M364.639 488.2v-8.667h5.2v-8.266h-5.2V462.6h5.2v-8.267h-5.2v-8.666h5.2V437.4h-5.2v-8.667h5.2v-8.266h-5.2V411.8h231v8.667h-5.2v8.266h5.2v8.667h-5.2v8.267h5.2v8.666h-5.2v8.267h5.2v8.667h-5.2v8.266h5.2v8.667h-231" style="vector-effect:non-scaling-stroke;fill:none;stroke:#000;stroke-width:.264583;stroke-dasharray:none;stroke-opacity:1;-inkscape-stroke:hairline" transform="rotate(90 629.912 484.273)"/>
    <path fill="none" stroke="#000" stroke-width=".1mm" d="M473.361 497.132h231v7.961h-5.2v7.561h5.2v7.962h-5.2v7.561h5.2v7.961h-17.754v5.2h-17.954v-5.2h-17.554v5.2h-17.953v-5.2h-17.554v5.2h-17.954v-5.2h-17.554v5.2H562.13v-5.2h-17.554v5.2h-17.953v-5.2h-17.554v5.2h-17.954v-5.2h-17.754v-7.961h5.2v-7.561h-5.2v-7.962h5.2v-7.561h-5.2v-7.961" style="vector-effect:non-scaling-stroke;fill:none;stroke:#000;stroke-width:.264583;stroke-dasharray:none;stroke-opacity:1;-inkscape-stroke:hairline" transform="rotate(90 688.739 434.378)"/>
    <path d="M529.078 219v17.954h5.2v17.554h-5.2v17.954h5.2v17.553h-5.2v17.954h5.2v17.554h-5.2v17.954h5.2v17.554h-5.2v17.954h5.2v17.553h-5.2v17.954h5.2v17.554h-5.2V450h7.7v-5.2h7.3v5.2h7.7v-5.2h7.3v5.2h7.7v-5.2h7.3v5.2h7.7v-17.954h-5.2v-17.554h5.2v-17.954h-5.2v-17.553h5.2v-17.954h-5.2v-17.554h5.2v-17.954h-5.2V307.97h5.2v-17.954h-5.2v-17.553h5.2v-17.954h-5.2v-17.554h5.2V219h-7.7v5.2h-7.3V219h-7.7v5.2h-7.3V219h-7.7v5.2h-7.3V219zM552 249.6h6.235l3.118 5.4-3.118 5.4H552l-3.118-5.4zm.578 31h5.08l2.541 4.4-2.54 4.4h-5.081l-2.542-4.4zm.288 29h4.503l2.252 3.9-2.252 3.9h-4.503l-2.252-3.9zm.289 28h3.925l1.964 3.4-1.964 3.4h-3.925l-1.964-3.4zm.289 27h3.348l1.675 2.9-1.675 2.9h-3.348l-1.676-2.9zm0 25.5h3.348l1.675 2.9-1.675 2.9h-3.348l-1.676-2.9zm0 24.5h3.348l1.675 2.9-1.675 2.9h-3.348l-1.676-2.9z" style="vector-effect:non-scaling-stroke;fill:none;stroke:#000;stroke-width:.264583;stroke-dasharray:none;stroke-opacity:1;-inkscape-stroke:hairline"/>
    <path fill="none" stroke="#000" stroke-width=".1mm" d="M793.13 536.138h-17.554v5.2h-17.953v-5.2h-17.554v5.2h-17.954v-5.2h-17.754v-10.2h231v10.2h-17.754v5.2h-17.954v-5.2h-17.554v5.2h-17.953v-5.2h-17.554v5.2h-17.954v-5.2h-17.554v5.2H793.13v-5.2" style="vector-effect:non-scaling-stroke;fill:none;stroke:#000;stroke-width:.264583;stroke-dasharray:none;stroke-opacity:1;-inkscape-stroke:hairline" transform="rotate(-90 665.404 488.957)"/>
    <path fill="none" stroke="#000" stroke-width=".1mm" d="M364.639 488.2v-8.667h5.2v-8.266h-5.2V462.6h5.2v-8.267h-5.2v-8.666h5.2V437.4h-5.2v-8.667h5.2v-8.266h-5.2V411.8h231v8.667h-5.2v8.266h5.2v8.667h-5.2v8.267h5.2v8.666h-5.2v8.267h5.2v8.667h-5.2v8.266h5.2v8.667h-231" style="vector-effect:non-scaling-stroke;fill:none;stroke:#000;stroke-width:.264583;stroke-dasharray:none;stroke-opacity:1;-inkscape-stroke:hairline" transform="rotate(90 514.412 599.773)"/>
    <path fill="none" stroke="#000" stroke-width=".1mm" d="M473.361 497.132h231v7.961h-5.2v7.561h5.2v7.962h-5.2v7.561h5.2v7.961h-17.754v5.2h-17.954v-5.2h-17.554v5.2h-17.953v-5.2h-17.554v5.2h-17.954v-5.2h-17.554v5.2H562.13v-5.2h-17.554v5.2h-17.953v-5.2h-17.554v5.2h-17.954v-5.2h-17.754v-7.961h5.2v-7.561h-5.2v-7.962h5.2v-7.561h-5.2v-7.961" style="vector-effect:non-scaling-stroke;fill:none;stroke:#000;stroke-width:.264583;stroke-dasharray:none;stroke-opacity:1;-inkscape-stroke:hairline" transform="rotate(90 573.239 549.878)"/>
    <path d="M529.078 450v17.954h5.2v17.554h-5.2v17.954h5.2v17.553h-5.2v17.954h5.2v17.554h-5.2v17.954h5.2v17.554h-5.2v17.954h5.2v17.553h-5.2v17.954h5.2v17.554h-5.2V681h7.7v-5.2h7.3v5.2h7.7v-5.2h7.3v5.2h7.7v-5.2h7.3v5.2h7.7v-17.954h-5.2v-17.554h5.2v-17.954h-5.2v-17.553h5.2v-17.954h-5.2v-17.554h5.2v-17.954h-5.2V538.97h5.2v-17.954h-5.2v-17.553h5.2v-17.954h-5.2v-17.554h5.2V450h-7.7v5.2h-7.3V450h-7.7v5.2h-7.3V450h-7.7v5.2h-7.3V450zM552 480.6h6.235l3.118 5.4-3.118 5.4H552l-3.118-5.4zm.578 31h5.08l2.541 4.4-2.54 4.4h-5.081l-2.542-4.4zm.288 29h4.503l2.252 3.9-2.252 3.9h-4.503l-2.252-3.9zm.289 28h3.925l1.964 3.4-1.964 3.4h-3.925l-1.964-3.4zm.289 27h3.348l1.675 2.9-1.675 2.9h-3.348l-1.676-2.9zm0 25.5h3.348l1.675 2.9-1.675 2.9h-3.348l-1.676-2.9zm0 24.5h3.348l1.675 2.9-1.675 2.9h-3.348l-1.676-2.9z" style="vector-effect:non-scaling-stroke;fill:none;stroke:#000;stroke-width:.264583;stroke-dasharray:none;stroke-opacity:1;-inkscape-stroke:hairline"/>
    <path fill="none" stroke="#000" stroke-width=".1mm" d="M793.13 536.138h-17.554v5.2h-17.953v-5.2h-17.554v5.2h-17.954v-5.2h-17.754v-10.2h231v10.2h-17.754v5.2h-17.954v-5.2h-17.554v5.2h-17.953v-5.2h-17.554v5.2h-17.954v-5.2h-17.554v5.2H793.13v-5.2" style="vector-effect:non-scaling-stroke;fill:none;stroke:#000;stroke-width:.264583;stroke-dasharray:none;stroke-opacity:1;-inkscape-stroke:hairline" transform="rotate(-90 780.904 604.457)"/>
</svg>
