<?xml version="1.0" encoding="UTF-8" standalone="no"?>
<svg
   width="1300mm"
   height="900mm"
   viewBox="0 0 1300 900"
   version="1.1"
   id="svg13"
   sodipodi:docname="MetricAllen.svg"
   inkscape:version="1.4 (e7c3feb100, 2024-10-09)"
   xmlns:inkscape="http://www.inkscape.org/namespaces/inkscape"
   xmlns:sodipodi="http://sodipodi.sourceforge.net/DTD/sodipodi-0.dtd"
   xmlns="http://www.w3.org/2000/svg"
   xmlns:svg="http://www.w3.org/2000/svg">
  <defs
     id="defs13" />
  <sodipodi:namedview
     id="namedview13"
     pagecolor="#505050"
     bordercolor="#eeeeee"
     borderopacity="1"
     inkscape:showpageshadow="0"
     inkscape:pageopacity="0"
     inkscape:pagecheckerboard="0"
     inkscape:deskcolor="#505050"
     inkscape:document-units="mm"
     inkscape:zoom="0.16343109"
     inkscape:cx="1590.8846"
     inkscape:cy="1961.0712"
     inkscape:window-width="1290"
     inkscape:window-height="1011"
     inkscape:window-x="50"
     inkscape:window-y="32"
     inkscape:window-maximized="0"
     inkscape:current-layer="svg13" />
  <polyline
     z="0"
     points="364.639,533.803 364.639,526.103 369.839,526.103 369.839,518.803 364.639,518.803 364.639,511.103 369.839,511.103 369.839,503.803 364.639,503.803 364.639,496.103 369.839,496.103 369.839,493.803 377.6,493.803 377.6,488.603 385.561,488.603 385.561,493.803 393.123,493.803 393.123,488.603 401.084,488.603 401.084,493.803 408.645,493.803 408.645,488.2 410.853,493.53 396.589,507.794 396.589,512.853 404.856,512.853 404.856,507.653 413.522,507.653 413.522,512.853 421.789,512.853 421.789,507.653 430.456,507.653 430.456,512.853 438.722,512.853 438.722,507.653 447.389,507.653 447.389,512.853 455.656,512.853 455.656,507.653 464.322,507.653 464.322,512.853 473.361,512.853 379.839,541.338 379.839,536.103 369.839,536.103 369.839,533.803 364.639,533.803"
     fill="none"
     stroke="#000000"
     stroke-width="0.1mm"
     id="polyline1"
     transform="rotate(90,586.88054,672.24154)"
     style="vector-effect:non-scaling-stroke;fill:none;stroke:#000000;stroke-width:0.264583;stroke-dasharray:none;stroke-opacity:1;-inkscape-stroke:hairline" />
  <polyline
     z="0"
     points="364.639,383.315 373.678,383.315 373.678,378.115 382.344,378.115 382.344,383.315 390.611,383.315 390.611,378.115 399.278,378.115 399.278,383.315 407.544,383.315 407.544,378.115 416.211,378.115 416.211,383.315 424.478,383.315 424.478,378.115 433.144,378.115 433.144,383.315 441.411,383.315 441.411,378.256 427.147,363.992 429.355,358.662 429.355,364.265 436.916,364.265 436.916,359.065 444.877,359.065 444.877,364.265 452.439,364.265 452.439,359.065 460.4,359.065 460.4,364.265 468.161,364.265 468.161,366.565 473.361,366.565 473.361,374.265 468.161,374.265 468.161,381.565 473.361,381.565 473.361,389.265 468.161,389.265 468.161,396.565 473.361,396.565 473.361,404.265 468.161,404.265 468.161,406.565 458.161,406.565 458.161,411.8 364.639,383.315"
     fill="none"
     stroke="#000000"
     stroke-width="0.1mm"
     id="polyline3"
     transform="rotate(90,576.47254,553.11154)"
     style="vector-effect:non-scaling-stroke;fill:none;stroke:#000000;stroke-width:0.264583;stroke-dasharray:none;stroke-opacity:1;-inkscape-stroke:hairline" />
  <polyline
     z="0"
     points="364.639,533.803 364.639,526.103 369.839,526.103 369.839,518.803 364.639,518.803 364.639,511.103 369.839,511.103 369.839,503.803 364.639,503.803 364.639,496.103 369.839,496.103 369.839,493.803 377.6,493.803 377.6,488.603 385.561,488.603 385.561,493.803 393.123,493.803 393.123,488.603 401.084,488.603 401.084,493.803 408.645,493.803 408.645,488.2 410.853,493.53 396.589,507.794 396.589,512.853 404.856,512.853 404.856,507.653 413.522,507.653 413.522,512.853 421.789,512.853 421.789,507.653 430.456,507.653 430.456,512.853 438.722,512.853 438.722,507.653 447.389,507.653 447.389,512.853 455.656,512.853 455.656,507.653 464.322,507.653 464.322,512.853 473.361,512.853 379.839,541.338 379.839,536.103 369.839,536.103 369.839,533.803 364.639,533.803"
     fill="none"
     stroke="#000000"
     stroke-width="0.1mm"
     id="polyline1-9"
     transform="matrix(0,1,1,0,229.58407,-119.50177)"
     style="vector-effect:non-scaling-stroke;fill:none;stroke:#000000;stroke-width:0.264583;stroke-dasharray:none;stroke-opacity:1;-inkscape-stroke:hairline" />
  <polyline
     z="0"
     points="364.639,383.315 373.678,383.315 373.678,378.115 382.344,378.115 382.344,383.315 390.611,383.315 390.611,378.115 399.278,378.115 399.278,383.315 407.544,383.315 407.544,378.115 416.211,378.115 416.211,383.315 424.478,383.315 424.478,378.115 433.144,378.115 433.144,383.315 441.411,383.315 441.411,378.256 427.147,363.992 429.355,358.662 429.355,364.265 436.916,364.265 436.916,359.065 444.877,359.065 444.877,364.265 452.439,364.265 452.439,359.065 460.4,359.065 460.4,364.265 468.161,364.265 468.161,366.565 473.361,366.565 473.361,374.265 468.161,374.265 468.161,381.565 473.361,381.565 473.361,389.265 468.161,389.265 468.161,396.565 473.361,396.565 473.361,404.265 468.161,404.265 468.161,406.565 458.161,406.565 458.161,411.8 364.639,383.315"
     fill="none"
     stroke="#000000"
     stroke-width="0.1mm"
     id="polyline3-0"
     transform="matrix(0,1,1,0,359.12207,181.50178)"
     style="vector-effect:non-scaling-stroke;fill:none;stroke:#000000;stroke-width:0.264583;stroke-dasharray:none;stroke-opacity:1;-inkscape-stroke:hairline" />
  <polyline
     z="0"
     points="364.639,488.2 364.639,479.533 369.839,479.533 369.839,471.267 364.639,471.267 364.639,462.6 369.839,462.6 369.839,454.333 364.639,454.333 364.639,445.667 369.839,445.667 369.839,437.4 364.639,437.4 364.639,428.733 369.839,428.733 369.839,420.467 364.639,420.467 364.639,411.8 595.639,411.8 595.639,420.467 590.439,420.467 590.439,428.733 595.639,428.733 595.639,437.4 590.439,437.4 590.439,445.667 595.639,445.667 595.639,454.333 590.439,454.333 590.439,462.6 595.639,462.6 595.639,471.267 590.439,471.267 590.439,479.533 595.639,479.533 595.639,488.2 364.639,488.2"
     fill="none"
     stroke="#000000"
     stroke-width="0.1mm"
     id="polyline2"
     transform="rotate(90,629.91154,484.27254)"
     style="vector-effect:non-scaling-stroke;fill:none;stroke:#000000;stroke-width:0.264583;stroke-dasharray:none;stroke-opacity:1;-inkscape-stroke:hairline" />
  <polyline
     z="0"
     points="473.361,497.132 704.361,497.132 704.361,505.093 699.161,505.093 699.161,512.654 704.361,512.654 704.361,520.616 699.161,520.616 699.161,528.177 704.361,528.177 704.361,536.138 686.607,536.138 686.607,541.338 668.653,541.338 668.653,536.138 651.099,536.138 651.099,541.338 633.146,541.338 633.146,536.138 615.592,536.138 615.592,541.338 597.638,541.338 597.638,536.138 580.084,536.138 580.084,541.338 562.13,541.338 562.13,536.138 544.576,536.138 544.576,541.338 526.623,541.338 526.623,536.138 509.069,536.138 509.069,541.338 491.115,541.338 491.115,536.138 473.361,536.138 473.361,528.177 478.561,528.177 478.561,520.616 473.361,520.616 473.361,512.654 478.561,512.654 478.561,505.093 473.361,505.093 473.361,497.132"
     fill="none"
     stroke="#000000"
     stroke-width="0.1mm"
     id="polyline4"
     transform="rotate(90,688.73854,434.37754)"
     style="vector-effect:non-scaling-stroke;fill:none;stroke:#000000;stroke-width:0.264583;stroke-dasharray:none;stroke-opacity:1;-inkscape-stroke:hairline" />
  <path
     id="polyline5"
     d="m 529.07792,219.00008 v 17.95394 h 5.2002 v 17.55397 h -5.2002 v 17.95394 h 5.2002 v 17.55293 h -5.2002 v 17.95446 h 5.2002 v 17.55397 h -5.2002 v 17.95394 h 5.2002 v 17.55397 h -5.2002 v 17.95394 h 5.2002 v 17.55294 h -5.2002 v 17.95394 h 5.2002 v 17.55397 h -5.2002 v 17.95394 h 7.70031 v -5.19968 h 7.29981 v 5.19968 h 7.69979 v -5.19968 h 7.30033 v 5.19968 h 7.69979 v -5.19968 h 7.29981 v 5.19968 h 7.70031 v -17.95394 h -5.2002 v -17.55397 h 5.2002 v -17.95394 h -5.2002 v -17.55294 h 5.2002 V 361.0312 h -5.2002 v -17.55397 h 5.2002 v -17.95394 h -5.2002 v -17.55397 h 5.2002 v -17.95446 h -5.2002 v -17.55293 h 5.2002 v -17.95394 h -5.2002 v -17.55397 h 5.2002 v -17.95394 h -7.70031 v 5.2002 h -7.29981 v -5.2002 h -7.69979 v 5.2002 h -7.30033 v -5.2002 h -7.69979 v 5.2002 h -7.29981 v -5.2002 z m 22.92316,30.6002 h 6.23475 l 3.11816,5.39967 -3.11816,5.40018 h -6.23475 l -3.11816,-5.40018 z m 0.57773,30.99965 h 5.08032 l 2.54093,4.40025 -2.54093,4.39973 h -5.08032 l -2.54196,-4.39973 z m 0.28836,29.0003 h 4.50257 l 2.25206,3.90002 -2.25206,3.90002 h -4.50257 l -2.25206,-3.90002 z m 0.28887,27.99984 h 3.92483 l 1.96422,3.3998 -1.96422,3.4003 h -3.92483 l -1.96422,-3.4003 z m 0.28887,26.99991 h 3.34812 l 1.67483,2.90008 -1.67483,2.90008 h -3.34812 l -1.67587,-2.90008 z m 0,25.50025 h 3.34812 l 1.67483,2.90008 -1.67483,2.89956 h -3.34812 l -1.67587,-2.89956 z m 0,24.49979 h 3.34812 l 1.67483,2.90009 -1.67483,2.90008 h -3.34812 l -1.67587,-2.90008 z"
     style="vector-effect:non-scaling-stroke;fill:none;stroke:#000000;stroke-width:0.264583;stroke-dasharray:none;stroke-opacity:1;-inkscape-stroke:hairline" />
  <polyline
     z="0"
     points="793.13,536.138 775.576,536.138 775.576,541.338 757.623,541.338 757.623,536.138 740.069,536.138 740.069,541.338 722.115,541.338 722.115,536.138 704.361,536.138 704.361,525.938 935.361,525.938 935.361,536.138 917.607,536.138 917.607,541.338 899.653,541.338 899.653,536.138 882.099,536.138 882.099,541.338 864.146,541.338 864.146,536.138 846.592,536.138 846.592,541.338 828.638,541.338 828.638,536.138 811.084,536.138 811.084,541.338 793.13,541.338 793.13,536.138"
     fill="none"
     stroke="#000000"
     stroke-width="0.1mm"
     id="polyline13"
     transform="rotate(-90,665.40354,488.95746)"
     style="vector-effect:non-scaling-stroke;fill:none;stroke:#000000;stroke-width:0.264583;stroke-dasharray:none;stroke-opacity:1;-inkscape-stroke:hairline" />
  <polyline
     z="0"
     points="364.639,488.2 364.639,479.533 369.839,479.533 369.839,471.267 364.639,471.267 364.639,462.6 369.839,462.6 369.839,454.333 364.639,454.333 364.639,445.667 369.839,445.667 369.839,437.4 364.639,437.4 364.639,428.733 369.839,428.733 369.839,420.467 364.639,420.467 364.639,411.8 595.639,411.8 595.639,420.467 590.439,420.467 590.439,428.733 595.639,428.733 595.639,437.4 590.439,437.4 590.439,445.667 595.639,445.667 595.639,454.333 590.439,454.333 590.439,462.6 595.639,462.6 595.639,471.267 590.439,471.267 590.439,479.533 595.639,479.533 595.639,488.2 364.639,488.2"
     fill="none"
     stroke="#000000"
     stroke-width="0.1mm"
     id="polyline2-2"
     transform="rotate(90,514.41154,599.77254)"
     style="vector-effect:non-scaling-stroke;fill:none;stroke:#000000;stroke-width:0.264583;stroke-dasharray:none;stroke-opacity:1;-inkscape-stroke:hairline" />
  <polyline
     z="0"
     points="473.361,497.132 704.361,497.132 704.361,505.093 699.161,505.093 699.161,512.654 704.361,512.654 704.361,520.616 699.161,520.616 699.161,528.177 704.361,528.177 704.361,536.138 686.607,536.138 686.607,541.338 668.653,541.338 668.653,536.138 651.099,536.138 651.099,541.338 633.146,541.338 633.146,536.138 615.592,536.138 615.592,541.338 597.638,541.338 597.638,536.138 580.084,536.138 580.084,541.338 562.13,541.338 562.13,536.138 544.576,536.138 544.576,541.338 526.623,541.338 526.623,536.138 509.069,536.138 509.069,541.338 491.115,541.338 491.115,536.138 473.361,536.138 473.361,528.177 478.561,528.177 478.561,520.616 473.361,520.616 473.361,512.654 478.561,512.654 478.561,505.093 473.361,505.093 473.361,497.132"
     fill="none"
     stroke="#000000"
     stroke-width="0.1mm"
     id="polyline4-2"
     transform="rotate(90,573.23854,549.87754)"
     style="vector-effect:non-scaling-stroke;fill:none;stroke:#000000;stroke-width:0.264583;stroke-dasharray:none;stroke-opacity:1;-inkscape-stroke:hairline" />
  <path
     id="polyline5-3"
     d="m 529.07792,450.00008 v 17.95394 h 5.2002 v 17.55397 h -5.2002 v 17.95394 h 5.2002 v 17.55293 h -5.2002 v 17.95446 h 5.2002 v 17.55397 h -5.2002 v 17.95394 h 5.2002 v 17.55397 h -5.2002 v 17.95394 h 5.2002 v 17.55294 h -5.2002 v 17.95394 h 5.2002 v 17.55397 h -5.2002 v 17.95394 h 7.70031 v -5.19968 h 7.29981 v 5.19968 h 7.69979 v -5.19968 h 7.30033 v 5.19968 h 7.69979 v -5.19968 h 7.29981 v 5.19968 h 7.70031 v -17.95394 h -5.2002 v -17.55397 h 5.2002 v -17.95394 h -5.2002 v -17.55294 h 5.2002 V 592.0312 h -5.2002 v -17.55397 h 5.2002 v -17.95394 h -5.2002 v -17.55397 h 5.2002 v -17.95446 h -5.2002 v -17.55293 h 5.2002 v -17.95394 h -5.2002 v -17.55397 h 5.2002 v -17.95394 h -7.70031 v 5.2002 h -7.29981 v -5.2002 h -7.69979 v 5.2002 h -7.30033 v -5.2002 h -7.69979 v 5.2002 h -7.29981 v -5.2002 z m 22.92316,30.6002 h 6.23475 l 3.11816,5.39967 -3.11816,5.40018 h -6.23475 l -3.11816,-5.40018 z m 0.57773,30.99965 h 5.08032 l 2.54093,4.40025 -2.54093,4.39973 h -5.08032 l -2.54196,-4.39973 z m 0.28836,29.0003 h 4.50257 l 2.25206,3.90002 -2.25206,3.90002 h -4.50257 l -2.25206,-3.90002 z m 0.28887,27.99984 h 3.92483 l 1.96422,3.3998 -1.96422,3.4003 h -3.92483 l -1.96422,-3.4003 z m 0.28887,26.99991 h 3.34812 l 1.67483,2.90008 -1.67483,2.90008 h -3.34812 l -1.67587,-2.90008 z m 0,25.50025 h 3.34812 l 1.67483,2.90008 -1.67483,2.89956 h -3.34812 l -1.67587,-2.89956 z m 0,24.49979 h 3.34812 l 1.67483,2.90009 -1.67483,2.90008 h -3.34812 l -1.67587,-2.90008 z"
     style="vector-effect:non-scaling-stroke;fill:none;stroke:#000000;stroke-width:0.264583;stroke-dasharray:none;stroke-opacity:1;-inkscape-stroke:hairline" />
  <polyline
     z="0"
     points="793.13,536.138 775.576,536.138 775.576,541.338 757.623,541.338 757.623,536.138 740.069,536.138 740.069,541.338 722.115,541.338 722.115,536.138 704.361,536.138 704.361,525.938 935.361,525.938 935.361,536.138 917.607,536.138 917.607,541.338 899.653,541.338 899.653,536.138 882.099,536.138 882.099,541.338 864.146,541.338 864.146,536.138 846.592,536.138 846.592,541.338 828.638,541.338 828.638,536.138 811.084,536.138 811.084,541.338 793.13,541.338 793.13,536.138"
     fill="none"
     stroke="#000000"
     stroke-width="0.1mm"
     id="polyline13-7"
     transform="rotate(-90,780.90354,604.45746)"
     style="vector-effect:non-scaling-stroke;fill:none;stroke:#000000;stroke-width:0.264583;stroke-dasharray:none;stroke-opacity:1;-inkscape-stroke:hairline" />
</svg>
