Cleat Wall Organization Equipment
Copyright (C) 2025  Corporate Hacks

This program is free software: you can redistribute it and/or modify
it under the terms of the GNU General Public License as published by
the Free Software Foundation, either version 3 of the License, or
(at your option) any later version.

This program is distributed in the hope that it will be useful,
but WITHOUT ANY WARRANTY; without even the implied warranty of
MERCHANTABILITY or FITNESS FOR A PARTICULAR PURPOSE.  See the
GNU General Public License for more details.

You should have received a copy of the GNU General Public License
along with this program.  If not, see <http://www.gnu.org/licenses/>.


<svg xmlns="http://www.w3.org/2000/svg" width="1300mm" height="900mm" viewBox="0 0 1300 900">
    <path fill="none" stroke="#000" stroke-width=".1mm" d="M395.8 504.6v-12.7h-5.2V479h5.2v-12.5h-5.2v-12.9h5.2v-12.5h-5.2v-12.9h5.2v-12.5h-5.2v-12.9h5.2v-7.5h12.935v-5.2h13.136v5.2h12.735v-5.603l2.208 5.33-14.264 14.264v5.059h10.686v-5.2h11.085v5.2h10.686v-5.2h11.086v5.2h10.686v-5.2h11.085v5.2h11.014l-82.934 90.25H395.8" style="vector-effect:non-scaling-stroke;stroke-width:.264583;stroke-dasharray:none;-inkscape-stroke:hairline" transform="rotate(-90 457.22 196.918)"/>
    <path fill="none" stroke="#000" stroke-width=".1mm" d="M493.678 389.697h-20.144l-82.934-90.25h11.014v-5.2h11.085v5.2h10.686v-5.2h11.086v5.2h10.686v-5.2h11.085v5.2h10.686v-5.059l-14.264-14.264 2.208-5.33v5.603h12.735v-5.2h13.136v5.2h12.935v7.5h5.2v12.9h-5.2v12.5h5.2v12.9h-5.2v12.5h5.2v12.9h-5.2v12.5h5.2v12.9h-5.2v12.7" style="vector-effect:non-scaling-stroke;stroke-width:.264583;stroke-dasharray:none;-inkscape-stroke:hairline" transform="rotate(-90 433.221 172.918)"/>
    <path fill="none" stroke="#000" stroke-width=".1mm" d="M395.8 504.6v-12.7h-5.2V479h5.2v-12.5h-5.2v-12.9h5.2v-12.5h-5.2v-12.9h5.2v-12.5h-5.2v-12.9h5.2v-7.5h12.935v-5.2h13.136v5.2h12.735v-5.603l2.208 5.33-14.264 14.264v5.059h10.686v-5.2h11.085v5.2h10.686v-5.2h11.086v5.2h10.686v-5.2h11.085v5.2h11.014l-82.934 90.25H395.8" style="vector-effect:non-scaling-stroke;stroke-width:.264583;stroke-dasharray:none;-inkscape-stroke:hairline" transform="rotate(90 718.97 435.63)"/>
    <path fill="none" stroke="#000" stroke-width=".1mm" d="M493.678 389.697h-20.144l-82.934-90.25h11.014v-5.2h11.085v5.2h10.686v-5.2h11.086v5.2h10.686v-5.2h11.085v5.2h10.686v-5.059l-14.264-14.264 2.208-5.33v5.603h12.735v-5.2h13.136v5.2h12.935v7.5h5.2v12.9h-5.2v12.5h5.2v12.9h-5.2v12.5h5.2v12.9h-5.2v12.5h5.2v12.9h-5.2v12.7" style="vector-effect:non-scaling-stroke;stroke-width:.264583;stroke-dasharray:none;-inkscape-stroke:hairline" transform="rotate(90 580.067 344.727)"/>
    <path fill="none" stroke="#000" stroke-width=".1mm" d="M390.6 620.006v-13.135h5.2v-12.736h-5.2V581h264.6v13.135H650v12.736h5.2v13.135h-17.627v5.2h-17.826v-5.2H602.32v5.2h-17.827v-5.2h-17.426v5.2H549.24v-5.2h-17.427v5.2h-17.826v-5.2H496.56v5.2h-17.827v-5.2h-17.426v5.2H443.48v-5.2h-17.427v5.2h-17.826v-5.2H390.6M390.6 581v-11.086h5.2v-10.685h-5.2v-11.086h5.2v-10.686h-5.2v-11.086h5.2v-10.685h-5.2V504.6h264.6v11.086H650v10.685h5.2v11.086H650v10.686h5.2v11.086H650v10.685h5.2V581H390.6" style="vector-effect:non-scaling-stroke;stroke-width:.264583;stroke-dasharray:none;-inkscape-stroke:hairline" transform="rotate(90 693.257 566.196)"/>
    <path d="m547.056 316.7-4.23-2.443v-4.885l4.23-2.442 4.23 2.442v4.885l-4.23 2.442m0 24.006-4.23-2.442v-4.885l4.23-2.442 4.23 2.442v4.885l-4.23 2.442m0 24.007-4.23-2.442v-4.885l4.23-2.442 4.23 2.442v4.885l-4.23 2.442m0 24.007-4.23-2.442v-4.885l4.23-2.442 4.23 2.442v4.885l-4.23 2.442m0 24.006-4.23-2.442v-4.885l4.23-2.442 4.23 2.442v4.885l-4.23 2.442m0 24.007-4.23-2.442v-4.885l4.23-2.442 4.23 2.442v4.885l-4.23 2.442m0 24.007-4.23-2.442v-4.885l4.23-2.442 4.23 2.442v4.885l-4.23 2.442m0 14.237 4.23 2.442v4.885l-4.23 2.442-4.23-2.442v-4.885l4.23-2.442m6.93-170.28-4.23-2.443v-4.885l4.23-2.442 4.23 2.442v4.885l-4.23 2.442m0 24.007-4.23-2.442v-4.885l4.23-2.442 4.23 2.442v4.885l-4.23 2.442m0 24.007-4.23-2.442v-4.885l4.23-2.442 4.23 2.442v4.885l-4.23 2.442m0 24.006-4.23-2.442v-4.885l4.23-2.442 4.23 2.442v4.885l-4.23 2.442m0 24.007-4.23-2.442v-4.885l4.23-2.442 4.23 2.442v4.885l-4.23 2.442m0 24.007-4.23-2.442v-4.885l4.23-2.442 4.23 2.442v4.885l-4.23 2.442m0 24.006-4.23-2.442v-4.885l4.23-2.442 4.23 2.442v4.885l-4.23 2.442m0 24.007-4.23-2.442v-4.885l4.23-2.442 4.23 2.442v4.885l-4.23 2.442m0 14.238 4.23 2.442v4.885l-4.23 2.442-4.23-2.442v-4.885l4.23-2.442m6.93-170.28-4.23-2.443v-4.885l4.23-2.442 4.23 2.442v4.885l-4.23 2.442m0 24.006-4.23-2.442v-4.885l4.23-2.442 4.23 2.442v4.885l-4.23 2.442m0 24.007-4.23-2.442v-4.885l4.23-2.442 4.23 2.442v4.885l-4.23 2.442m0 24.007-4.23-2.442v-4.885l4.23-2.442 4.23 2.442v4.885l-4.23 2.442m0 24.006-4.23-2.442v-4.885l4.23-2.442 4.23 2.442v4.885l-4.23 2.442m0 24.007-4.23-2.442v-4.885l4.23-2.442 4.23 2.442v4.885l-4.23 2.442m0 24.007-4.23-2.442v-4.885l4.23-2.442 4.23 2.442v4.885l-4.23 2.442m0 14.237 4.23 2.442v4.885l-4.23 2.442-4.23-2.442v-4.885l4.23-2.442m6.93-170.28-4.23-2.443v-4.885l4.23-2.442 4.23 2.442v4.885l-4.23 2.442m0 24.007-4.23-2.442v-4.885l4.23-2.442 4.23 2.442v4.885l-4.23 2.442m0 24.007-4.23-2.442v-4.885l4.23-2.442 4.23 2.442v4.885l-4.23 2.442m0 24.006-4.23-2.442v-4.885l4.23-2.442 4.23 2.442v4.885l-4.23 2.442m0 24.007-4.23-2.442v-4.885l4.23-2.442 4.23 2.442v4.885l-4.23 2.442m0 24.007-4.23-2.442v-4.885l4.23-2.442 4.23 2.442v4.885l-4.23 2.442m0 24.006-4.23-2.442v-4.885l4.23-2.442 4.23 2.442v4.885l-4.23 2.442m0 24.007-4.23-2.442v-4.885l4.23-2.442 4.23 2.442v4.885l-4.23 2.442m0 14.238 4.23 2.442v4.885l-4.23 2.442-4.23-2.442v-4.885l4.23-2.442m6.93-170.28-4.23-2.443v-4.885l4.23-2.442 4.231 2.442v4.885l-4.231 2.442m0 24.006-4.23-2.442v-4.885l4.23-2.442 4.231 2.442v4.885l-4.231 2.442m0 24.007-4.23-2.442v-4.885l4.23-2.442 4.231 2.442v4.885l-4.231 2.442m0 24.007-4.23-2.442v-4.885l4.23-2.442 4.231 2.442v4.885l-4.231 2.442m0 24.006-4.23-2.442v-4.885l4.23-2.442 4.231 2.442v4.885l-4.231 2.442m0 24.007-4.23-2.442v-4.885l4.23-2.442 4.231 2.442v4.885l-4.231 2.442m0 24.007-4.23-2.442v-4.885l4.23-2.442 4.231 2.442v4.885l-4.231 2.442m0 14.237 4.231 2.442v4.885l-4.231 2.442-4.23-2.442v-4.885l4.23-2.442m6.931-170.28-4.231-2.443v-4.885l4.231-2.442 4.23 2.442v4.885l-4.23 2.442m0 24.007-4.231-2.442v-4.885l4.231-2.442 4.23 2.442v4.885l-4.23 2.442m0 24.007-4.231-2.442v-4.885l4.231-2.442 4.23 2.442v4.885l-4.23 2.442m0 24.006-4.231-2.442v-4.885l4.231-2.442 4.23 2.442v4.885l-4.23 2.442m0 24.007-4.231-2.442v-4.885l4.231-2.442 4.23 2.442v4.885l-4.23 2.442m0 24.007-4.231-2.442v-4.885l4.231-2.442 4.23 2.442v4.885l-4.23 2.442m0 24.006-4.231-2.442v-4.885l4.231-2.442 4.23 2.442v4.885l-4.23 2.442m0 24.007-4.231-2.442v-4.885l4.231-2.442 4.23 2.442v4.885l-4.23 2.442m0 14.238 4.23 2.442v4.885l-4.23 2.442-4.231-2.442v-4.885l4.231-2.442m6.93-170.28-4.23-2.443v-4.885l4.23-2.442 4.23 2.442v4.885l-4.23 2.442m0 24.006-4.23-2.442v-4.885l4.23-2.442 4.23 2.442v4.885l-4.23 2.442m0 24.007-4.23-2.442v-4.885l4.23-2.442 4.23 2.442v4.885l-4.23 2.442m0 24.007-4.23-2.442v-4.885l4.23-2.442 4.23 2.442v4.885l-4.23 2.442m0 24.006-4.23-2.442v-4.885l4.23-2.442 4.23 2.442v4.885l-4.23 2.442m0 24.007-4.23-2.442v-4.885l4.23-2.442 4.23 2.442v4.885l-4.23 2.442m0 24.007-4.23-2.442v-4.885l4.23-2.442 4.23 2.442v4.885l-4.23 2.442m0 14.237 4.23 2.442v4.885l-4.23 2.442-4.23-2.442v-4.885l4.23-2.442m6.93-170.28-4.23-2.443v-4.885l4.23-2.442 4.23 2.442v4.885l-4.23 2.442m0 24.007-4.23-2.442v-4.885l4.23-2.442 4.23 2.442v4.885l-4.23 2.442m0 24.007-4.23-2.442v-4.885l4.23-2.442 4.23 2.442v4.885l-4.23 2.442m0 24.006-4.23-2.442v-4.885l4.23-2.442 4.23 2.442v4.885l-4.23 2.442m0 24.007-4.23-2.442v-4.885l4.23-2.442 4.23 2.442v4.885l-4.23 2.442m0 24.007-4.23-2.442v-4.885l4.23-2.442 4.23 2.442v4.885l-4.23 2.442m0 24.006-4.23-2.442v-4.885l4.23-2.442 4.23 2.442v4.885l-4.23 2.442m0 24.007-4.23-2.442v-4.885l4.23-2.442 4.23 2.442v4.885l-4.23 2.442m0 14.238 4.23 2.442v4.885l-4.23 2.442-4.23-2.442v-4.885l4.23-2.442m-75.82-223.442h12.9v5.2h12.5v-5.2h12.9v5.2h12.5v-5.2h12.9v5.2h12.5v-5.2h12.9v5.2h12.5v-5.2h12.9v17.827h-5.2v17.426h5.2v17.827h-5.2v17.427h5.2v17.826h-5.2v17.427h5.2v17.827h-5.2v17.426h5.2v17.827h-5.2v17.427h5.2v17.826h-5.2v17.427h5.2v17.827h-5.2v17.426h5.2v17.827h-12.9v-5.2h-12.5v5.2h-12.9v-5.2h-12.5v5.2h-12.9v-5.2h-12.5v5.2h-12.9v-5.2h-12.5v5.2h-12.9v-17.827h5.2v-17.426h-5.2v-17.827h5.2v-17.427h-5.2v-17.826h5.2v-17.427h-5.2v-17.827h5.2v-17.426h-5.2v-17.827h5.2v-17.427h-5.2v-17.826h5.2v-17.427h-5.2v-17.827h5.2v-17.426h-5.2v-17.827" style="vector-effect:non-scaling-stroke;fill:none;stroke:#000;stroke-width:.264583;stroke-dasharray:none;-inkscape-stroke:hairline"/>
    <path fill="none" stroke="#000" stroke-width=".1mm" d="M655.2 599.806h254.2v20.2h-12.427v5.2h-17.826v-5.2H861.72v5.2h-17.827v-5.2h-17.426v5.2H808.64v-5.2h-17.427v5.2h-17.826v-5.2H755.96v5.2h-17.827v-5.2h-17.426v5.2H702.88v-5.2h-17.427v5.2h-17.826v-5.2H655.2v-20.2" style="vector-effect:non-scaling-stroke;stroke-width:.264583;stroke-dasharray:none;-inkscape-stroke:hairline" transform="rotate(-90 666.593 511.546)"/>
    <path fill="none" stroke="#000" stroke-width=".1mm" d="M390.6 620.006v-13.135h5.2v-12.736h-5.2V581h264.6v13.135H650v12.736h5.2v13.135h-17.627v5.2h-17.826v-5.2H602.32v5.2h-17.827v-5.2h-17.426v5.2H549.24v-5.2h-17.427v5.2h-17.826v-5.2H496.56v5.2h-17.827v-5.2h-17.426v5.2H443.48v-5.2h-17.427v5.2h-17.826v-5.2H390.6M390.6 581v-11.086h5.2v-10.685h-5.2v-11.086h5.2v-10.686h-5.2v-11.086h5.2v-10.685h-5.2V504.6h264.6v11.086H650v10.685h5.2v11.086H650v10.686h5.2v11.086H650v10.685h5.2V581H390.6" style="vector-effect:non-scaling-stroke;stroke-width:.264583;stroke-dasharray:none;-inkscape-stroke:hairline" transform="rotate(90 560.957 698.496)"/>
    <path d="m547.056 581.3-4.23-2.443v-4.885l4.23-2.442 4.23 2.442v4.885l-4.23 2.442m0 24.006-4.23-2.442v-4.885l4.23-2.442 4.23 2.442v4.885l-4.23 2.442m0 24.007-4.23-2.442v-4.885l4.23-2.442 4.23 2.442v4.885l-4.23 2.442m0 24.007-4.23-2.442v-4.885l4.23-2.442 4.23 2.442v4.885l-4.23 2.442m0 24.006-4.23-2.442v-4.885l4.23-2.442 4.23 2.442v4.885l-4.23 2.442m0 24.007-4.23-2.442v-4.885l4.23-2.442 4.23 2.442v4.885l-4.23 2.442m0 24.007-4.23-2.442v-4.885l4.23-2.442 4.23 2.442v4.885l-4.23 2.442m0 14.237 4.23 2.442v4.885l-4.23 2.442-4.23-2.442v-4.885l4.23-2.442m6.93-170.28-4.23-2.443v-4.885l4.23-2.442 4.23 2.442v4.885l-4.23 2.442m0 24.007-4.23-2.442v-4.885l4.23-2.442 4.23 2.442v4.885l-4.23 2.442m0 24.007-4.23-2.442v-4.885l4.23-2.442 4.23 2.442v4.885l-4.23 2.442m0 24.006-4.23-2.442v-4.885l4.23-2.442 4.23 2.442v4.885l-4.23 2.442m0 24.007-4.23-2.442v-4.885l4.23-2.442 4.23 2.442v4.885l-4.23 2.442m0 24.007-4.23-2.442v-4.885l4.23-2.442 4.23 2.442v4.885l-4.23 2.442m0 24.006-4.23-2.442v-4.885l4.23-2.442 4.23 2.442v4.885l-4.23 2.442m0 24.007-4.23-2.442v-4.885l4.23-2.442 4.23 2.442v4.885l-4.23 2.442m0 14.238 4.23 2.442v4.885l-4.23 2.442-4.23-2.442v-4.885l4.23-2.442m6.93-170.28-4.23-2.443v-4.885l4.23-2.442 4.23 2.442v4.885l-4.23 2.442m0 24.006-4.23-2.442v-4.885l4.23-2.442 4.23 2.442v4.885l-4.23 2.442m0 24.007-4.23-2.442v-4.885l4.23-2.442 4.23 2.442v4.885l-4.23 2.442m0 24.007-4.23-2.442v-4.885l4.23-2.442 4.23 2.442v4.885l-4.23 2.442m0 24.006-4.23-2.442v-4.885l4.23-2.442 4.23 2.442v4.885l-4.23 2.442m0 24.007-4.23-2.442v-4.885l4.23-2.442 4.23 2.442v4.885l-4.23 2.442m0 24.007-4.23-2.442v-4.885l4.23-2.442 4.23 2.442v4.885l-4.23 2.442m0 14.237 4.23 2.442v4.885l-4.23 2.442-4.23-2.442v-4.885l4.23-2.442m6.93-170.28-4.23-2.443v-4.885l4.23-2.442 4.23 2.442v4.885l-4.23 2.442m0 24.007-4.23-2.442v-4.885l4.23-2.442 4.23 2.442v4.885l-4.23 2.442m0 24.007-4.23-2.442v-4.885l4.23-2.442 4.23 2.442v4.885l-4.23 2.442m0 24.006-4.23-2.442v-4.885l4.23-2.442 4.23 2.442v4.885l-4.23 2.442m0 24.007-4.23-2.442v-4.885l4.23-2.442 4.23 2.442v4.885l-4.23 2.442m0 24.007-4.23-2.442v-4.885l4.23-2.442 4.23 2.442v4.885l-4.23 2.442m0 24.006-4.23-2.442v-4.885l4.23-2.442 4.23 2.442v4.885l-4.23 2.442m0 24.007-4.23-2.442v-4.885l4.23-2.442 4.23 2.442v4.885l-4.23 2.442m0 14.238 4.23 2.442v4.885l-4.23 2.442-4.23-2.442v-4.885l4.23-2.442m6.93-170.28-4.23-2.443v-4.885l4.23-2.442 4.231 2.442v4.885l-4.231 2.442m0 24.006-4.23-2.442v-4.885l4.23-2.442 4.231 2.442v4.885l-4.231 2.442m0 24.007-4.23-2.442v-4.885l4.23-2.442 4.231 2.442v4.885l-4.231 2.442m0 24.007-4.23-2.442v-4.885l4.23-2.442 4.231 2.442v4.885l-4.231 2.442m0 24.006-4.23-2.442v-4.885l4.23-2.442 4.231 2.442v4.885l-4.231 2.442m0 24.007-4.23-2.442v-4.885l4.23-2.442 4.231 2.442v4.885l-4.231 2.442m0 24.007-4.23-2.442v-4.885l4.23-2.442 4.231 2.442v4.885l-4.231 2.442m0 14.237 4.231 2.442v4.885l-4.231 2.442-4.23-2.442v-4.885l4.23-2.442m6.931-170.28-4.231-2.443v-4.885l4.231-2.442 4.23 2.442v4.885l-4.23 2.442m0 24.007-4.231-2.442v-4.885l4.231-2.442 4.23 2.442v4.885l-4.23 2.442m0 24.007-4.231-2.442v-4.885l4.231-2.442 4.23 2.442v4.885l-4.23 2.442m0 24.006-4.231-2.442v-4.885l4.231-2.442 4.23 2.442v4.885l-4.23 2.442m0 24.007-4.231-2.442v-4.885l4.231-2.442 4.23 2.442v4.885l-4.23 2.442m0 24.007-4.231-2.442v-4.885l4.231-2.442 4.23 2.442v4.885l-4.23 2.442m0 24.006-4.231-2.442v-4.885l4.231-2.442 4.23 2.442v4.885l-4.23 2.442m0 24.007-4.231-2.442v-4.885l4.231-2.442 4.23 2.442v4.885l-4.23 2.442m0 14.238 4.23 2.442v4.885l-4.23 2.442-4.231-2.442v-4.885l4.231-2.442m6.93-170.28-4.23-2.443v-4.885l4.23-2.442 4.23 2.442v4.885l-4.23 2.442m0 24.006-4.23-2.442v-4.885l4.23-2.442 4.23 2.442v4.885l-4.23 2.442m0 24.007-4.23-2.442v-4.885l4.23-2.442 4.23 2.442v4.885l-4.23 2.442m0 24.007-4.23-2.442v-4.885l4.23-2.442 4.23 2.442v4.885l-4.23 2.442m0 24.006-4.23-2.442v-4.885l4.23-2.442 4.23 2.442v4.885l-4.23 2.442m0 24.007-4.23-2.442v-4.885l4.23-2.442 4.23 2.442v4.885l-4.23 2.442m0 24.007-4.23-2.442v-4.885l4.23-2.442 4.23 2.442v4.885l-4.23 2.442m0 14.237 4.23 2.442v4.885l-4.23 2.442-4.23-2.442v-4.885l4.23-2.442m6.93-170.28-4.23-2.443v-4.885l4.23-2.442 4.23 2.442v4.885l-4.23 2.442m0 24.007-4.23-2.442v-4.885l4.23-2.442 4.23 2.442v4.885l-4.23 2.442m0 24.007-4.23-2.442v-4.885l4.23-2.442 4.23 2.442v4.885l-4.23 2.442m0 24.006-4.23-2.442v-4.885l4.23-2.442 4.23 2.442v4.885l-4.23 2.442m0 24.007-4.23-2.442v-4.885l4.23-2.442 4.23 2.442v4.885l-4.23 2.442m0 24.007-4.23-2.442v-4.885l4.23-2.442 4.23 2.442v4.885l-4.23 2.442m0 24.006-4.23-2.442v-4.885l4.23-2.442 4.23 2.442v4.885l-4.23 2.442m0 24.007-4.23-2.442v-4.885l4.23-2.442 4.23 2.442v4.885l-4.23 2.442m0 14.238 4.23 2.442v4.885l-4.23 2.442-4.23-2.442v-4.885l4.23-2.442m-75.82-223.442h12.9v5.2h12.5v-5.2h12.9v5.2h12.5v-5.2h12.9v5.2h12.5v-5.2h12.9v5.2h12.5v-5.2h12.9v17.827h-5.2v17.426h5.2v17.827h-5.2v17.427h5.2v17.826h-5.2v17.427h5.2v17.827h-5.2v17.426h5.2v17.827h-5.2v17.427h5.2v17.826h-5.2v17.427h5.2v17.827h-5.2v17.426h5.2v17.827h-12.9v-5.2h-12.5v5.2h-12.9v-5.2h-12.5v5.2h-12.9v-5.2h-12.5v5.2h-12.9v-5.2h-12.5v5.2h-12.9v-17.827h5.2v-17.426h-5.2v-17.827h5.2v-17.427h-5.2v-17.826h5.2v-17.427h-5.2v-17.827h5.2v-17.426h-5.2v-17.827h5.2v-17.427h-5.2v-17.826h5.2v-17.427h-5.2v-17.827h5.2v-17.426h-5.2v-17.827" style="vector-effect:non-scaling-stroke;fill:none;stroke:#000;stroke-width:.264583;stroke-dasharray:none;-inkscape-stroke:hairline"/>
    <path fill="none" stroke="#000" stroke-width=".1mm" d="M655.2 599.806h254.2v20.2h-12.427v5.2h-17.826v-5.2H861.72v5.2h-17.827v-5.2h-17.426v5.2H808.64v-5.2h-17.427v5.2h-17.826v-5.2H755.96v5.2h-17.827v-5.2h-17.426v5.2H702.88v-5.2h-17.427v5.2h-17.826v-5.2H655.2v-20.2" style="vector-effect:non-scaling-stroke;stroke-width:.264583;stroke-dasharray:none;-inkscape-stroke:hairline" transform="rotate(-90 798.893 643.846)"/>
</svg>
