<?xml version="1.0" encoding="UTF-8" standalone="no"?>
<svg
   width="1300mm"
   height="900mm"
   viewBox="0 0 1300 900"
   version="1.1"
   id="svg74"
   sodipodi:docname="Screwdrivers.svg"
   inkscape:version="1.3.2 (091e20ef0f, 2023-11-25)"
   xmlns:inkscape="http://www.inkscape.org/namespaces/inkscape"
   xmlns:sodipodi="http://sodipodi.sourceforge.net/DTD/sodipodi-0.dtd"
   xmlns="http://www.w3.org/2000/svg"
   xmlns:svg="http://www.w3.org/2000/svg">
  <defs
     id="defs74" />
  <sodipodi:namedview
     id="namedview74"
     pagecolor="#505050"
     bordercolor="#eeeeee"
     borderopacity="1"
     inkscape:showpageshadow="0"
     inkscape:pageopacity="0"
     inkscape:pagecheckerboard="0"
     inkscape:deskcolor="#505050"
     inkscape:document-units="mm"
     inkscape:zoom="0.10966274"
     inkscape:cx="1490.9348"
     inkscape:cy="2028.948"
     inkscape:window-width="1920"
     inkscape:window-height="1011"
     inkscape:window-x="0"
     inkscape:window-y="32"
     inkscape:window-maximized="1"
     inkscape:current-layer="svg74" />
  <polyline
     z="0"
     points="395.8,504.6 395.8,491.9 390.6,491.9 390.6,479 395.8,479 395.8,466.5 390.6,466.5 390.6,453.6 395.8,453.6 395.8,441.1 390.6,441.1 390.6,428.2 395.8,428.2 395.8,415.7 390.6,415.7 390.6,402.8 395.8,402.8 395.8,395.3 408.735,395.3 408.735,390.1 421.871,390.1 421.871,395.3 434.606,395.3 434.606,389.697 436.814,395.027 422.55,409.291 422.55,414.35 433.236,414.35 433.236,409.15 444.321,409.15 444.321,414.35 455.007,414.35 455.007,409.15 466.093,409.15 466.093,414.35 476.779,414.35 476.779,409.15 487.864,409.15 487.864,414.35 498.878,414.35 415.944,504.6 395.8,504.6"
     fill="none"
     stroke="#000000"
     stroke-width="0.1mm"
     id="polyline3"
     style="vector-effect:non-scaling-stroke;stroke-width:0.264583;stroke-dasharray:none;-inkscape-stroke:hairline"
     transform="rotate(-90,457.22064,196.91764)" />
  <polyline
     z="0"
     points="493.678,389.697 473.534,389.697 390.6,299.447 401.614,299.447 401.614,294.247 412.699,294.247 412.699,299.447 423.385,299.447 423.385,294.247 434.471,294.247 434.471,299.447 445.157,299.447 445.157,294.247 456.242,294.247 456.242,299.447 466.928,299.447 466.928,294.388 452.664,280.124 454.872,274.794 454.872,280.397 467.607,280.397 467.607,275.197 480.743,275.197 480.743,280.397 493.678,280.397 493.678,287.897 498.878,287.897 498.878,300.797 493.678,300.797 493.678,313.297 498.878,313.297 498.878,326.197 493.678,326.197 493.678,338.697 498.878,338.697 498.878,351.597 493.678,351.597 493.678,364.097 498.878,364.097 498.878,376.997 493.678,376.997 493.678,389.697"
     fill="none"
     stroke="#000000"
     stroke-width="0.1mm"
     id="polyline73"
     style="vector-effect:non-scaling-stroke;stroke-width:0.264583;stroke-dasharray:none;-inkscape-stroke:hairline"
     transform="rotate(-90,433.22136,172.91836)" />
  <polyline
     z="0"
     points="395.8,504.6 395.8,491.9 390.6,491.9 390.6,479 395.8,479 395.8,466.5 390.6,466.5 390.6,453.6 395.8,453.6 395.8,441.1 390.6,441.1 390.6,428.2 395.8,428.2 395.8,415.7 390.6,415.7 390.6,402.8 395.8,402.8 395.8,395.3 408.735,395.3 408.735,390.1 421.871,390.1 421.871,395.3 434.606,395.3 434.606,389.697 436.814,395.027 422.55,409.291 422.55,414.35 433.236,414.35 433.236,409.15 444.321,409.15 444.321,414.35 455.007,414.35 455.007,409.15 466.093,409.15 466.093,414.35 476.779,414.35 476.779,409.15 487.864,409.15 487.864,414.35 498.878,414.35 415.944,504.6 395.8,504.6"
     fill="none"
     stroke="#000000"
     stroke-width="0.1mm"
     id="polyline3-8"
     style="vector-effect:non-scaling-stroke;stroke-width:0.264583;stroke-dasharray:none;-inkscape-stroke:hairline"
     transform="rotate(90,718.96913,435.63086)" />
  <polyline
     z="0"
     points="493.678,389.697 473.534,389.697 390.6,299.447 401.614,299.447 401.614,294.247 412.699,294.247 412.699,299.447 423.385,299.447 423.385,294.247 434.471,294.247 434.471,299.447 445.157,299.447 445.157,294.247 456.242,294.247 456.242,299.447 466.928,299.447 466.928,294.388 452.664,280.124 454.872,274.794 454.872,280.397 467.607,280.397 467.607,275.197 480.743,275.197 480.743,280.397 493.678,280.397 493.678,287.897 498.878,287.897 498.878,300.797 493.678,300.797 493.678,313.297 498.878,313.297 498.878,326.197 493.678,326.197 493.678,338.697 498.878,338.697 498.878,351.597 493.678,351.597 493.678,364.097 498.878,364.097 498.878,376.997 493.678,376.997 493.678,389.697"
     fill="none"
     stroke="#000000"
     stroke-width="0.1mm"
     id="polyline73-2"
     style="vector-effect:non-scaling-stroke;stroke-width:0.264583;stroke-dasharray:none;-inkscape-stroke:hairline"
     transform="rotate(90,580.06686,344.72713)" />
  <polyline
     z="0"
     points="390.6,620.006 390.6,606.871 395.8,606.871 395.8,594.135 390.6,594.135 390.6,581 655.2,581 655.2,594.135 650,594.135 650,606.871 655.2,606.871 655.2,620.006 637.573,620.006 637.573,625.206 619.747,625.206 619.747,620.006 602.32,620.006 602.32,625.206 584.493,625.206 584.493,620.006 567.067,620.006 567.067,625.206 549.24,625.206 549.24,620.006 531.813,620.006 531.813,625.206 513.987,625.206 513.987,620.006 496.56,620.006 496.56,625.206 478.733,625.206 478.733,620.006 461.307,620.006 461.307,625.206 443.48,625.206 443.48,620.006 426.053,620.006 426.053,625.206 408.227,625.206 408.227,620.006 390.6,620.006"
     fill="none"
     stroke="#000000"
     stroke-width="0.1mm"
     id="polyline1"
     style="vector-effect:non-scaling-stroke;stroke-width:0.264583;stroke-dasharray:none;-inkscape-stroke:hairline"
     transform="rotate(90,693.25736,566.19563)" />
  <polyline
     z="0"
     points="390.6,581 390.6,569.914 395.8,569.914 395.8,559.229 390.6,559.229 390.6,548.143 395.8,548.143 395.8,537.457 390.6,537.457 390.6,526.371 395.8,526.371 395.8,515.686 390.6,515.686 390.6,504.6 655.2,504.6 655.2,515.686 650,515.686 650,526.371 655.2,526.371 655.2,537.457 650,537.457 650,548.143 655.2,548.143 655.2,559.229 650,559.229 650,569.914 655.2,569.914 655.2,581 390.6,581"
     fill="none"
     stroke="#000000"
     stroke-width="0.1mm"
     id="polyline2"
     style="vector-effect:non-scaling-stroke;stroke-width:0.264583;stroke-dasharray:none;-inkscape-stroke:hairline"
     transform="rotate(90,693.25736,566.19563)" />
  <path
     id="polyline72"
     style="vector-effect:non-scaling-stroke;fill:none;stroke:#000000;stroke-width:0.264583;stroke-dasharray:none;-inkscape-stroke:hairline"
     d="m 547.05599,316.69927 -4.23,-2.442 v -4.885 l 4.23,-2.442 4.23,2.442 v 4.885 l -4.23,2.442 m 0,24.006 -4.23,-2.442 v -4.885 l 4.23,-2.442 4.23,2.442 v 4.885 l -4.23,2.442 m 0,24.007 -4.23,-2.442 v -4.885 l 4.23,-2.442 4.23,2.442 v 4.885 l -4.23,2.442 m 0,24.007 -4.23,-2.442 v -4.885 l 4.23,-2.442 4.23,2.442 v 4.885 l -4.23,2.442 m 0,24.006 -4.23,-2.442 v -4.885 l 4.23,-2.442 4.23,2.442 v 4.885 l -4.23,2.442 m 0,24.007 -4.23,-2.442 v -4.885 l 4.23,-2.442 4.23,2.442 v 4.885 l -4.23,2.442 m 0,24.007 -4.23,-2.442 v -4.885 l 4.23,-2.442 4.23,2.442 v 4.885 l -4.23,2.442 m 0,14.237 4.23,2.442 v 4.885 l -4.23,2.442 -4.23,-2.442 v -4.885 l 4.23,-2.442 m 6.93,-170.281 -4.23,-2.442 v -4.885 l 4.23,-2.442 4.23,2.442 v 4.885 l -4.23,2.442 m 0,24.007 -4.23,-2.442 v -4.885 l 4.23,-2.442 4.23,2.442 v 4.885 l -4.23,2.442 m 0,24.007 -4.23,-2.442 v -4.885 l 4.23,-2.442 4.23,2.442 v 4.885 l -4.23,2.442 m 0,24.006 -4.23,-2.442 v -4.885 l 4.23,-2.442 4.23,2.442 v 4.885 l -4.23,2.442 m 0,24.007 -4.23,-2.442 v -4.885 l 4.23,-2.442 4.23,2.442 v 4.885 l -4.23,2.442 m 0,24.007 -4.23,-2.442 v -4.885 l 4.23,-2.442 4.23,2.442 v 4.885 l -4.23,2.442 m 0,24.006 -4.23,-2.442 v -4.885 l 4.23,-2.442 4.23,2.442 v 4.885 l -4.23,2.442 m 0,24.007 -4.23,-2.442 v -4.885 l 4.23,-2.442 4.23,2.442 v 4.885 l -4.23,2.442 m 0,14.238 4.23,2.442 v 4.885 l -4.23,2.442 -4.23,-2.442 v -4.885 l 4.23,-2.442 m 6.93,-170.281 -4.23,-2.442 v -4.885 l 4.23,-2.442 4.23001,2.442 v 4.885 l -4.23001,2.442 m 0,24.006 -4.23,-2.442 v -4.885 l 4.23,-2.442 4.23001,2.442 v 4.885 l -4.23001,2.442 m 0,24.007 -4.23,-2.442 v -4.885 l 4.23,-2.442 4.23001,2.442 v 4.885 l -4.23001,2.442 m 0,24.007 -4.23,-2.442 v -4.885 l 4.23,-2.442 4.23001,2.442 v 4.885 l -4.23001,2.442 m 0,24.006 -4.23,-2.442 v -4.885 l 4.23,-2.442 4.23001,2.442 v 4.885 l -4.23001,2.442 m 0,24.007 -4.23,-2.442 v -4.885 l 4.23,-2.442 4.23001,2.442 v 4.885 l -4.23001,2.442 m 0,24.007 -4.23,-2.442 v -4.885 l 4.23,-2.442 4.23001,2.442 v 4.885 l -4.23001,2.442 m 0,14.237 4.23001,2.442 v 4.885 l -4.23001,2.442 -4.23,-2.442 v -4.885 l 4.23,-2.442 m 6.93,-170.281 -4.23,-2.442 v -4.885 l 4.23,-2.442 4.23001,2.442 v 4.885 l -4.23001,2.442 m 0,24.007 -4.23,-2.442 v -4.885 l 4.23,-2.442 4.23001,2.442 v 4.885 l -4.23001,2.442 m 0,24.007 -4.23,-2.442 v -4.885 l 4.23,-2.442 4.23001,2.442 v 4.885 l -4.23001,2.442 m 0,24.006 -4.23,-2.442 v -4.885 l 4.23,-2.442 4.23001,2.442 v 4.885 l -4.23001,2.442 m 0,24.007 -4.23,-2.442 v -4.885 l 4.23,-2.442 4.23001,2.442 v 4.885 l -4.23001,2.442 m 0,24.007 -4.23,-2.442 v -4.885 l 4.23,-2.442 4.23001,2.442 v 4.885 l -4.23001,2.442 m 0,24.006 -4.23,-2.442 v -4.885 l 4.23,-2.442 4.23001,2.442 v 4.885 l -4.23001,2.442 m 0,24.007 -4.23,-2.442 v -4.885 l 4.23,-2.442 4.23001,2.442 v 4.885 l -4.23001,2.442 m 0,14.238 4.23001,2.442 v 4.885 l -4.23001,2.442 -4.23,-2.442 v -4.885 l 4.23,-2.442 m 6.93,-170.281 -4.23,-2.442 v -4.885 l 4.23,-2.442 4.231,2.442 v 4.885 l -4.231,2.442 m 0,24.006 -4.23,-2.442 v -4.885 l 4.23,-2.442 4.231,2.442 v 4.885 l -4.231,2.442 m 0,24.007 -4.23,-2.442 v -4.885 l 4.23,-2.442 4.231,2.442 v 4.885 l -4.231,2.442 m 0,24.007 -4.23,-2.442 v -4.885 l 4.23,-2.442 4.231,2.442 v 4.885 l -4.231,2.442 m 0,24.006 -4.23,-2.442 v -4.885 l 4.23,-2.442 4.231,2.442 v 4.885 l -4.231,2.442 m 0,24.007 -4.23,-2.442 v -4.885 l 4.23,-2.442 4.231,2.442 v 4.885 l -4.231,2.442 m 0,24.007 -4.23,-2.442 v -4.885 l 4.23,-2.442 4.231,2.442 v 4.885 l -4.231,2.442 m 0,14.237 4.231,2.442 v 4.885 l -4.231,2.442 -4.23,-2.442 v -4.885 l 4.23,-2.442 m 6.931,-170.281 -4.231,-2.442 v -4.885 l 4.231,-2.442 4.23,2.442 v 4.885 l -4.23,2.442 m 0,24.007 -4.231,-2.442 v -4.885 l 4.231,-2.442 4.23,2.442 v 4.885 l -4.23,2.442 m 0,24.007 -4.231,-2.442 v -4.885 l 4.231,-2.442 4.23,2.442 v 4.885 l -4.23,2.442 m 0,24.006 -4.231,-2.442 v -4.885 l 4.231,-2.442 4.23,2.442 v 4.885 l -4.23,2.442 m 0,24.007 -4.231,-2.442 v -4.885 l 4.231,-2.442 4.23,2.442 v 4.885 l -4.23,2.442 m 0,24.007 -4.231,-2.442 v -4.885 l 4.231,-2.442 4.23,2.442 v 4.885 l -4.23,2.442 m 0,24.006 -4.231,-2.442 v -4.885 l 4.231,-2.442 4.23,2.442 v 4.885 l -4.23,2.442 m 0,24.007 -4.231,-2.442 v -4.885 l 4.231,-2.442 4.23,2.442 v 4.885 l -4.23,2.442 m 0,14.238 4.23,2.442 v 4.885 l -4.23,2.442 -4.231,-2.442 v -4.885 l 4.231,-2.442 m 6.93,-170.281 -4.23,-2.442 v -4.885 l 4.23,-2.442 4.23001,2.442 v 4.885 l -4.23001,2.442 m 0,24.006 -4.23,-2.442 v -4.885 l 4.23,-2.442 4.23001,2.442 v 4.885 l -4.23001,2.442 m 0,24.007 -4.23,-2.442 v -4.885 l 4.23,-2.442 4.23001,2.442 v 4.885 l -4.23001,2.442 m 0,24.007 -4.23,-2.442 v -4.885 l 4.23,-2.442 4.23001,2.442 v 4.885 l -4.23001,2.442 m 0,24.006 -4.23,-2.442 v -4.885 l 4.23,-2.442 4.23001,2.442 v 4.885 l -4.23001,2.442 m 0,24.007 -4.23,-2.442 v -4.885 l 4.23,-2.442 4.23001,2.442 v 4.885 l -4.23001,2.442 m 0,24.007 -4.23,-2.442 v -4.885 l 4.23,-2.442 4.23001,2.442 v 4.885 l -4.23001,2.442 m 0,14.237 4.23001,2.442 v 4.885 l -4.23001,2.442 -4.23,-2.442 v -4.885 l 4.23,-2.442 m 6.93,-170.281 -4.23,-2.442 v -4.885 l 4.23,-2.442 4.23001,2.442 v 4.885 l -4.23001,2.442 m 0,24.007 -4.23,-2.442 v -4.885 l 4.23,-2.442 4.23001,2.442 v 4.885 l -4.23001,2.442 m 0,24.007 -4.23,-2.442 v -4.885 l 4.23,-2.442 4.23001,2.442 v 4.885 l -4.23001,2.442 m 0,24.006 -4.23,-2.442 v -4.885 l 4.23,-2.442 4.23001,2.442 v 4.885 l -4.23001,2.442 m 0,24.007 -4.23,-2.442 v -4.885 l 4.23,-2.442 4.23001,2.442 v 4.885 l -4.23001,2.442 m 0,24.007 -4.23,-2.442 v -4.885 l 4.23,-2.442 4.23001,2.442 v 4.885 l -4.23001,2.442 m 0,24.006 -4.23,-2.442 v -4.885 l 4.23,-2.442 4.23001,2.442 v 4.885 l -4.23001,2.442 m 0,24.007 -4.23,-2.442 v -4.885 l 4.23,-2.442 4.23001,2.442 v 4.885 l -4.23001,2.442 m 0,14.238 4.23001,2.442 v 4.885 l -4.23001,2.442 -4.23,-2.442 v -4.885 l 4.23,-2.442 M 519.747,263.53827 h 12.89999 v 5.2 h 12.5 v -5.2 h 12.9 v 5.2 h 12.5 v -5.2 h 12.9 v 5.2 h 12.5 v -5.2 h 12.9 v 5.2 h 12.5 v -5.2 h 12.9 v 17.827 h -5.2 v 17.426 h 5.2 v 17.827 h -5.2 v 17.427 h 5.2 v 17.826 h -5.2 v 17.427 h 5.2 v 17.827 h -5.2 v 17.426 h 5.2 v 17.827 h -5.2 v 17.427 h 5.2 v 17.826 h -5.2 v 17.427 h 5.2 v 17.827 h -5.2 v 17.426 h 5.2 v 17.827 h -12.9 v -5.2 h -12.5 v 5.2 h -12.9 v -5.2 h -12.5 v 5.2 h -12.9 v -5.2 h -12.5 v 5.2 h -12.9 v -5.2 h -12.5 v 5.2 H 519.747 v -17.827 h 5.19999 v -17.426 H 519.747 v -17.827 h 5.19999 v -17.427 H 519.747 v -17.826 h 5.19999 v -17.427 H 519.747 v -17.827 h 5.19999 v -17.426 H 519.747 v -17.827 h 5.19999 v -17.427 H 519.747 v -17.826 h 5.19999 v -17.427 H 519.747 v -17.827 h 5.19999 v -17.426 H 519.747 v -17.827" />
  <polyline
     z="0"
     points="655.2,599.806 909.4,599.806 909.4,620.006 896.973,620.006 896.973,625.206 879.147,625.206 879.147,620.006 861.72,620.006 861.72,625.206 843.893,625.206 843.893,620.006 826.467,620.006 826.467,625.206 808.64,625.206 808.64,620.006 791.213,620.006 791.213,625.206 773.387,625.206 773.387,620.006 755.96,620.006 755.96,625.206 738.133,625.206 738.133,620.006 720.707,620.006 720.707,625.206 702.88,625.206 702.88,620.006 685.453,620.006 685.453,625.206 667.627,625.206 667.627,620.006 655.2,620.006 655.2,599.806"
     fill="none"
     stroke="#000000"
     stroke-width="0.1mm"
     id="polyline74"
     style="vector-effect:non-scaling-stroke;stroke-width:0.264583;stroke-dasharray:none;-inkscape-stroke:hairline"
     transform="rotate(-90,666.59264,511.54564)" />
  <polyline
     z="0"
     points="390.6,620.006 390.6,606.871 395.8,606.871 395.8,594.135 390.6,594.135 390.6,581 655.2,581 655.2,594.135 650,594.135 650,606.871 655.2,606.871 655.2,620.006 637.573,620.006 637.573,625.206 619.747,625.206 619.747,620.006 602.32,620.006 602.32,625.206 584.493,625.206 584.493,620.006 567.067,620.006 567.067,625.206 549.24,625.206 549.24,620.006 531.813,620.006 531.813,625.206 513.987,625.206 513.987,620.006 496.56,620.006 496.56,625.206 478.733,625.206 478.733,620.006 461.307,620.006 461.307,625.206 443.48,625.206 443.48,620.006 426.053,620.006 426.053,625.206 408.227,625.206 408.227,620.006 390.6,620.006"
     fill="none"
     stroke="#000000"
     stroke-width="0.1mm"
     id="polyline1-0"
     style="vector-effect:non-scaling-stroke;stroke-width:0.264583;stroke-dasharray:none;-inkscape-stroke:hairline"
     transform="rotate(90,560.95736,698.49563)" />
  <polyline
     z="0"
     points="390.6,581 390.6,569.914 395.8,569.914 395.8,559.229 390.6,559.229 390.6,548.143 395.8,548.143 395.8,537.457 390.6,537.457 390.6,526.371 395.8,526.371 395.8,515.686 390.6,515.686 390.6,504.6 655.2,504.6 655.2,515.686 650,515.686 650,526.371 655.2,526.371 655.2,537.457 650,537.457 650,548.143 655.2,548.143 655.2,559.229 650,559.229 650,569.914 655.2,569.914 655.2,581 390.6,581"
     fill="none"
     stroke="#000000"
     stroke-width="0.1mm"
     id="polyline2-6"
     style="vector-effect:non-scaling-stroke;stroke-width:0.264583;stroke-dasharray:none;-inkscape-stroke:hairline"
     transform="rotate(90,560.95736,698.49563)" />
  <path
     id="polyline72-9"
     style="vector-effect:non-scaling-stroke;fill:none;stroke:#000000;stroke-width:0.264583;stroke-dasharray:none;-inkscape-stroke:hairline"
     d="m 547.05599,581.29927 -4.23,-2.442 v -4.885 l 4.23,-2.442 4.23,2.442 v 4.885 l -4.23,2.442 m 0,24.006 -4.23,-2.442 v -4.885 l 4.23,-2.442 4.23,2.442 v 4.885 l -4.23,2.442 m 0,24.007 -4.23,-2.442 v -4.885 l 4.23,-2.442 4.23,2.442 v 4.885 l -4.23,2.442 m 0,24.007 -4.23,-2.442 v -4.885 l 4.23,-2.442 4.23,2.442 v 4.885 l -4.23,2.442 m 0,24.006 -4.23,-2.442 v -4.885 l 4.23,-2.442 4.23,2.442 v 4.885 l -4.23,2.442 m 0,24.007 -4.23,-2.442 v -4.885 l 4.23,-2.442 4.23,2.442 v 4.885 l -4.23,2.442 m 0,24.007 -4.23,-2.442 v -4.885 l 4.23,-2.442 4.23,2.442 v 4.885 l -4.23,2.442 m 0,14.237 4.23,2.442 v 4.885 l -4.23,2.442 -4.23,-2.442 v -4.885 l 4.23,-2.442 m 6.93,-170.281 -4.23,-2.442 v -4.885 l 4.23,-2.442 4.23,2.442 v 4.885 l -4.23,2.442 m 0,24.007 -4.23,-2.442 v -4.885 l 4.23,-2.442 4.23,2.442 v 4.885 l -4.23,2.442 m 0,24.007 -4.23,-2.442 v -4.885 l 4.23,-2.442 4.23,2.442 v 4.885 l -4.23,2.442 m 0,24.006 -4.23,-2.442 v -4.885 l 4.23,-2.442 4.23,2.442 v 4.885 l -4.23,2.442 m 0,24.007 -4.23,-2.442 v -4.885 l 4.23,-2.442 4.23,2.442 v 4.885 l -4.23,2.442 m 0,24.007 -4.23,-2.442 v -4.885 l 4.23,-2.442 4.23,2.442 v 4.885 l -4.23,2.442 m 0,24.006 -4.23,-2.442 v -4.885 l 4.23,-2.442 4.23,2.442 v 4.885 l -4.23,2.442 m 0,24.007 -4.23,-2.442 v -4.885 l 4.23,-2.442 4.23,2.442 v 4.885 l -4.23,2.442 m 0,14.238 4.23,2.442 v 4.885 l -4.23,2.442 -4.23,-2.442 v -4.885 l 4.23,-2.442 m 6.93,-170.281 -4.23,-2.442 v -4.885 l 4.23,-2.442 4.23001,2.442 v 4.885 l -4.23001,2.442 m 0,24.006 -4.23,-2.442 v -4.885 l 4.23,-2.442 4.23001,2.442 v 4.885 l -4.23001,2.442 m 0,24.007 -4.23,-2.442 v -4.885 l 4.23,-2.442 4.23001,2.442 v 4.885 l -4.23001,2.442 m 0,24.007 -4.23,-2.442 v -4.885 l 4.23,-2.442 4.23001,2.442 v 4.885 l -4.23001,2.442 m 0,24.006 -4.23,-2.442 v -4.885 l 4.23,-2.442 4.23001,2.442 v 4.885 l -4.23001,2.442 m 0,24.007 -4.23,-2.442 v -4.885 l 4.23,-2.442 4.23001,2.442 v 4.885 l -4.23001,2.442 m 0,24.007 -4.23,-2.442 v -4.885 l 4.23,-2.442 4.23001,2.442 v 4.885 l -4.23001,2.442 m 0,14.237 4.23001,2.442 v 4.885 l -4.23001,2.442 -4.23,-2.442 v -4.885 l 4.23,-2.442 m 6.93,-170.281 -4.23,-2.442 v -4.885 l 4.23,-2.442 4.23001,2.442 v 4.885 l -4.23001,2.442 m 0,24.007 -4.23,-2.442 v -4.885 l 4.23,-2.442 4.23001,2.442 v 4.885 l -4.23001,2.442 m 0,24.007 -4.23,-2.442 v -4.885 l 4.23,-2.442 4.23001,2.442 v 4.885 l -4.23001,2.442 m 0,24.006 -4.23,-2.442 v -4.885 l 4.23,-2.442 4.23001,2.442 v 4.885 l -4.23001,2.442 m 0,24.007 -4.23,-2.442 v -4.885 l 4.23,-2.442 4.23001,2.442 v 4.885 l -4.23001,2.442 m 0,24.007 -4.23,-2.442 v -4.885 l 4.23,-2.442 4.23001,2.442 v 4.885 l -4.23001,2.442 m 0,24.006 -4.23,-2.442 v -4.885 l 4.23,-2.442 4.23001,2.442 v 4.885 l -4.23001,2.442 m 0,24.007 -4.23,-2.442 v -4.885 l 4.23,-2.442 4.23001,2.442 v 4.885 l -4.23001,2.442 m 0,14.238 4.23001,2.442 v 4.885 l -4.23001,2.442 -4.23,-2.442 v -4.885 l 4.23,-2.442 m 6.93,-170.281 -4.23,-2.442 v -4.885 l 4.23,-2.442 4.231,2.442 v 4.885 l -4.231,2.442 m 0,24.006 -4.23,-2.442 v -4.885 l 4.23,-2.442 4.231,2.442 v 4.885 l -4.231,2.442 m 0,24.007 -4.23,-2.442 v -4.885 l 4.23,-2.442 4.231,2.442 v 4.885 l -4.231,2.442 m 0,24.007 -4.23,-2.442 v -4.885 l 4.23,-2.442 4.231,2.442 v 4.885 l -4.231,2.442 m 0,24.006 -4.23,-2.442 v -4.885 l 4.23,-2.442 4.231,2.442 v 4.885 l -4.231,2.442 m 0,24.007 -4.23,-2.442 v -4.885 l 4.23,-2.442 4.231,2.442 v 4.885 l -4.231,2.442 m 0,24.007 -4.23,-2.442 v -4.885 l 4.23,-2.442 4.231,2.442 v 4.885 l -4.231,2.442 m 0,14.237 4.231,2.442 v 4.885 l -4.231,2.442 -4.23,-2.442 v -4.885 l 4.23,-2.442 m 6.931,-170.281 -4.231,-2.442 v -4.885 l 4.231,-2.442 4.23,2.442 v 4.885 l -4.23,2.442 m 0,24.007 -4.231,-2.442 v -4.885 l 4.231,-2.442 4.23,2.442 v 4.885 l -4.23,2.442 m 0,24.007 -4.231,-2.442 v -4.885 l 4.231,-2.442 4.23,2.442 v 4.885 l -4.23,2.442 m 0,24.006 -4.231,-2.442 v -4.885 l 4.231,-2.442 4.23,2.442 v 4.885 l -4.23,2.442 m 0,24.007 -4.231,-2.442 v -4.885 l 4.231,-2.442 4.23,2.442 v 4.885 l -4.23,2.442 m 0,24.007 -4.231,-2.442 v -4.885 l 4.231,-2.442 4.23,2.442 v 4.885 l -4.23,2.442 m 0,24.006 -4.231,-2.442 v -4.885 l 4.231,-2.442 4.23,2.442 v 4.885 l -4.23,2.442 m 0,24.007 -4.231,-2.442 v -4.885 l 4.231,-2.442 4.23,2.442 v 4.885 l -4.23,2.442 m 0,14.238 4.23,2.442 v 4.885 l -4.23,2.442 -4.231,-2.442 v -4.885 l 4.231,-2.442 m 6.93,-170.281 -4.23,-2.442 v -4.885 l 4.23,-2.442 4.23001,2.442 v 4.885 l -4.23001,2.442 m 0,24.006 -4.23,-2.442 v -4.885 l 4.23,-2.442 4.23001,2.442 v 4.885 l -4.23001,2.442 m 0,24.007 -4.23,-2.442 v -4.885 l 4.23,-2.442 4.23001,2.442 v 4.885 l -4.23001,2.442 m 0,24.007 -4.23,-2.442 v -4.885 l 4.23,-2.442 4.23001,2.442 v 4.885 l -4.23001,2.442 m 0,24.006 -4.23,-2.442 v -4.885 l 4.23,-2.442 4.23001,2.442 v 4.885 l -4.23001,2.442 m 0,24.007 -4.23,-2.442 v -4.885 l 4.23,-2.442 4.23001,2.442 v 4.885 l -4.23001,2.442 m 0,24.007 -4.23,-2.442 v -4.885 l 4.23,-2.442 4.23001,2.442 v 4.885 l -4.23001,2.442 m 0,14.237 4.23001,2.442 v 4.885 l -4.23001,2.442 -4.23,-2.442 v -4.885 l 4.23,-2.442 m 6.93,-170.281 -4.23,-2.442 v -4.885 l 4.23,-2.442 4.23001,2.442 v 4.885 l -4.23001,2.442 m 0,24.007 -4.23,-2.442 v -4.885 l 4.23,-2.442 4.23001,2.442 v 4.885 l -4.23001,2.442 m 0,24.007 -4.23,-2.442 v -4.885 l 4.23,-2.442 4.23001,2.442 v 4.885 l -4.23001,2.442 m 0,24.006 -4.23,-2.442 v -4.885 l 4.23,-2.442 4.23001,2.442 v 4.885 l -4.23001,2.442 m 0,24.007 -4.23,-2.442 v -4.885 l 4.23,-2.442 4.23001,2.442 v 4.885 l -4.23001,2.442 m 0,24.007 -4.23,-2.442 v -4.885 l 4.23,-2.442 4.23001,2.442 v 4.885 l -4.23001,2.442 m 0,24.006 -4.23,-2.442 v -4.885 l 4.23,-2.442 4.23001,2.442 v 4.885 l -4.23001,2.442 m 0,24.007 -4.23,-2.442 v -4.885 l 4.23,-2.442 4.23001,2.442 v 4.885 l -4.23001,2.442 m 0,14.238 4.23001,2.442 v 4.885 l -4.23001,2.442 -4.23,-2.442 v -4.885 l 4.23,-2.442 M 519.747,528.13827 h 12.89999 v 5.2 h 12.5 v -5.2 h 12.9 v 5.2 h 12.5 v -5.2 h 12.9 v 5.2 h 12.5 v -5.2 h 12.9 v 5.2 h 12.5 v -5.2 h 12.9 v 17.827 h -5.2 v 17.426 h 5.2 v 17.827 h -5.2 v 17.427 h 5.2 v 17.826 h -5.2 v 17.427 h 5.2 v 17.827 h -5.2 v 17.426 h 5.2 v 17.827 h -5.2 v 17.427 h 5.2 v 17.826 h -5.2 v 17.427 h 5.2 v 17.827 h -5.2 v 17.426 h 5.2 v 17.827 h -12.9 v -5.2 h -12.5 v 5.2 h -12.9 v -5.2 h -12.5 v 5.2 h -12.9 v -5.2 h -12.5 v 5.2 h -12.9 v -5.2 h -12.5 v 5.2 H 519.747 v -17.827 h 5.19999 v -17.426 H 519.747 v -17.827 h 5.19999 v -17.427 H 519.747 v -17.826 h 5.19999 v -17.427 H 519.747 v -17.827 h 5.19999 v -17.426 H 519.747 v -17.827 h 5.19999 v -17.427 H 519.747 v -17.826 h 5.19999 v -17.427 H 519.747 v -17.827 h 5.19999 v -17.426 H 519.747 v -17.827" />
  <polyline
     z="0"
     points="655.2,599.806 909.4,599.806 909.4,620.006 896.973,620.006 896.973,625.206 879.147,625.206 879.147,620.006 861.72,620.006 861.72,625.206 843.893,625.206 843.893,620.006 826.467,620.006 826.467,625.206 808.64,625.206 808.64,620.006 791.213,620.006 791.213,625.206 773.387,625.206 773.387,620.006 755.96,620.006 755.96,625.206 738.133,625.206 738.133,620.006 720.707,620.006 720.707,625.206 702.88,625.206 702.88,620.006 685.453,620.006 685.453,625.206 667.627,625.206 667.627,620.006 655.2,620.006 655.2,599.806"
     fill="none"
     stroke="#000000"
     stroke-width="0.1mm"
     id="polyline74-6"
     style="vector-effect:non-scaling-stroke;stroke-width:0.264583;stroke-dasharray:none;-inkscape-stroke:hairline"
     transform="rotate(-90,798.89263,643.84562)" />
</svg>
