<?xml version="1.0" encoding="UTF-8" standalone="no"?>
<svg
   width="1300mm"
   height="900mm"
   viewBox="0 0 1300 900"
   version="1.1"
   id="svg35"
   sodipodi:docname="5CompSpraypaint.svg"
   inkscape:version="1.4 (e7c3feb100, 2024-10-09)"
   xmlns:inkscape="http://www.inkscape.org/namespaces/inkscape"
   xmlns:sodipodi="http://sodipodi.sourceforge.net/DTD/sodipodi-0.dtd"
   xmlns="http://www.w3.org/2000/svg"
   xmlns:svg="http://www.w3.org/2000/svg">
  <defs
     id="defs35" />
  <sodipodi:namedview
     id="namedview35"
     pagecolor="#505050"
     bordercolor="#eeeeee"
     borderopacity="1"
     inkscape:showpageshadow="0"
     inkscape:pageopacity="0"
     inkscape:pagecheckerboard="0"
     inkscape:deskcolor="#505050"
     inkscape:document-units="mm"
     inkscape:zoom="0.089958335"
     inkscape:cx="-1100.5095"
     inkscape:cy="3373.7841"
     inkscape:window-width="1920"
     inkscape:window-height="1011"
     inkscape:window-x="0"
     inkscape:window-y="32"
     inkscape:window-maximized="1"
     inkscape:current-layer="svg35" />
  <path
     id="polyline2-4"
     style="vector-effect:non-scaling-stroke;fill:none;stroke:#000000;stroke-width:0.264583;stroke-dasharray:none;stroke-opacity:1;-inkscape-stroke:hairline"
     d="m 456.83874,243.962 v 18.1224 h -5.2002 v 17.72089 h 5.2002 v 18.12189 h -5.2002 v 17.72191 h 5.2002 v 18.1219 h -5.2002 v 17.72139 h 5.2002 v 18.1219 h -5.2002 v 17.72191 h 5.2002 v 18.12189 h -5.2002 v 17.72088 h 5.2002 v 18.12241 h -5.2002 v 17.72193 h 5.2002 v 18.12189 h -5.2002 v 17.72088 h 5.2002 v 18.12189 h -5.2002 v 17.72244 h 5.2002 v 18.12189 h -5.2002 v 17.72088 h 5.2002 v 18.1219 h -5.2002 v 17.72191 h 5.2002 v 18.1224 h -5.2002 v 17.72089 h 5.2002 v 18.12189 h -12.19409 v -5.2002 h -11.79514 v 5.2002 h -12.19409 v -5.2002 h -11.79463 v 5.2002 H 396.6667 v -5.2002 h -11.79514 v 5.2002 h -12.19409 v -5.2002 h -11.79463 v 5.2002 h -12.19409 v -18.12189 h 5.19968 v -17.72088 h -5.19968 v -18.1224 h 5.19968 v -17.72192 h -5.19968 v -18.1219 h 5.19968 V 548.8323 h -5.19968 v -18.12189 h 5.19968 v -17.72244 h -5.19968 v -18.1219 h 5.19968 v -17.72088 h -5.19968 V 459.0233 h 5.19968 v -17.72193 h -5.19968 v -18.12241 h 5.19968 v -17.72088 h -5.19968 v -18.12189 h 5.19968 v -17.72191 h -5.19968 v -18.12189 h 5.19968 V 333.771 h -5.19968 v -18.12189 h 5.19968 v -17.72193 h -5.19968 v -18.12189 h 5.19968 V 262.0844 h -5.19968 V 243.962 h 12.19409 v 5.2002 h 11.79463 v -5.2002 h 12.19409 v 5.2002 h 11.79514 v -5.2002 h 12.19409 v 5.2002 h 11.79463 v -5.2002 h 12.19409 v 5.2002 h 11.79514 v -5.2002 z m -27.18904,81.60018 h -20.04012 v 5.00022 h 20.04012 z m -40.48125,0 h -20.0396 v 5.00022 h 20.0396 z m 41.52098,81.4002 h -18.99987 v 4.9997 h 18.99987 z m -38.40076,0 H 373.2888 v 4.9997 h 18.99987 z m 38.40076,81.39969 h -18.99987 v 5.00021 h 18.99987 z m -38.40076,0 H 373.2888 v 5.00021 h 18.99987 z m 37.36103,81.40022 h -20.04012 v 4.99968 h 20.04012 z m -40.48125,0 h -20.0396 v 4.99968 h 20.0396 z" />
  <polyline
     z="0"
     points="536.442,402.993 536.442,388.943 554.364,388.943 554.364,383.743 572.485,383.743 572.485,388.943 590.207,388.943 590.207,383.743 608.329,383.743 608.329,388.943 626.051,388.943 626.051,383.743 644.172,383.743 644.172,388.943 661.894,388.943 661.894,383.743 680.016,383.743 680.016,388.943 697.738,388.943 697.738,383.743 715.859,383.743 715.859,388.943 733.581,388.943 733.581,383.743 751.703,383.743 751.703,388.943 769.425,388.943 769.425,383.743 787.546,383.743 787.546,388.943 805.268,388.943 805.268,383.743 823.39,383.743 823.39,388.943 841.112,388.943 841.112,383.743 859.233,383.743 859.233,388.943 876.955,388.943 876.955,383.743 895.077,383.743 895.077,388.943 912.799,388.943 912.799,383.743 930.92,383.743 930.92,388.943 948.842,388.943 948.842,402.993 930.92,402.993 930.92,408.193 912.799,408.193 912.799,402.993 895.077,402.993 895.077,408.193 876.955,408.193 876.955,402.993 859.233,402.993 859.233,408.193 841.112,408.193 841.112,402.993 823.39,402.993 823.39,408.193 805.268,408.193 805.268,402.993 787.546,402.993 787.546,408.193 769.425,408.193 769.425,402.993 751.703,402.993 751.703,408.193 733.581,408.193 733.581,402.993 715.859,402.993 715.859,408.193 697.738,408.193 697.738,402.993 680.016,402.993 680.016,408.193 661.894,408.193 661.894,402.993 644.172,402.993 644.172,408.193 626.051,408.193 626.051,402.993 608.329,402.993 608.329,408.193 590.207,408.193 590.207,402.993 572.485,402.993 572.485,408.193 554.364,408.193 554.364,402.993 536.442,402.993"
     fill="none"
     stroke="#000000"
     stroke-width="0.1mm"
     id="polyline12-5"
     style="vector-effect:non-scaling-stroke;fill:none;stroke:#000000;stroke-width:0.264583;stroke-dasharray:none;stroke-opacity:1;-inkscape-stroke:hairline"
     transform="matrix(0,1,1,0,-146.30412,-292.47991)" />
  <path
     id="polyline13-2"
     style="vector-effect:non-scaling-stroke;fill:none;stroke:#000000;stroke-width:0.264583;stroke-dasharray:none;stroke-opacity:1;-inkscape-stroke:hairline"
     d="m 186.43892,243.962 v 412.40016 h 15.40007 v -5.2002 h 14.9996 v 5.2002 h 15.40009 v -17.92192 h 5.2002 v -18.12135 h -5.2002 v -17.72192 h 5.2002 v -18.12188 h -5.2002 v -17.72191 h 5.2002 v -18.12139 h -5.2002 v -17.7219 h 5.2002 v -18.1219 h -5.2002 v -17.72191 h 5.2002 v -18.12086 h -5.2002 v -17.72243 h 5.2002 v -18.1219 h -5.2002 v -17.72192 h 5.2002 v -18.12086 h -5.2002 v -17.7219 h 5.2002 V 369.4138 h -5.2002 v -17.72193 h 5.2002 v -18.12085 h -5.2002 V 315.8491 h 5.2002 v -18.12189 h -5.2002 v -17.72243 h 5.2002 v -18.12086 h -5.2002 v -17.9219 h -15.40009 v 5.2002 h -14.9996 v -5.2002 z m 14.71897,81.60018 h 7.57008 v 4.99971 h -7.57008 z m 15.54117,0 h 7.56957 v 4.99971 h -7.56957 z m -14.50144,81.3997 h 8.61033 v 5.0002 h -8.61033 z m 17.62115,0 h 8.61033 v 5.0002 h -8.61033 z m -17.62115,81.40019 h 8.61033 v 4.99969 h -8.61033 z m 17.62115,0 h 8.61033 v 4.99969 h -8.61033 z m -18.66088,81.39968 h 7.57008 v 5.00022 h -7.57008 z m 15.54117,0 h 7.56957 v 5.00022 h -7.56957 z" />
  <polyline
     z="0"
     points="627.506,321.393 627.506,316.193 609.784,316.193 609.784,321.393 591.662,321.393 591.662,316.193 573.941,316.193 573.941,321.393 555.819,321.393 555.819,316.193 538.097,316.193 538.097,321.393 519.975,321.393 519.975,316.193 502.254,316.193 502.254,321.393 484.132,321.393 484.132,316.193 466.41,316.193 466.41,321.393 448.288,321.393 448.288,316.193 430.567,316.193 430.567,321.393 412.445,321.393 412.445,316.193 394.723,316.193 394.723,321.393 376.601,321.393 376.601,316.193 358.88,316.193 358.88,321.393 340.758,321.393 340.758,306.524 345.958,306.524 345.958,292.056 340.758,292.056 340.758,277.187 753.158,277.187 753.158,292.056 747.958,292.056 747.958,306.524 753.158,306.524 753.158,321.393 735.036,321.393 735.036,316.193 717.315,316.193 717.315,321.393 699.193,321.393 699.193,316.193 681.471,316.193 681.471,321.393 663.349,321.393 663.349,316.193 645.628,316.193 645.628,321.393 627.506,321.393"
     fill="none"
     stroke="#000000"
     stroke-width="0.1mm"
     id="polyline22-0"
     style="vector-effect:non-scaling-stroke;fill:none;stroke:#000000;stroke-width:0.264583;stroke-dasharray:none;stroke-opacity:1;-inkscape-stroke:hairline"
     transform="rotate(90,280.21092,183.415)" />
  <path
     id="polyline25-2"
     style="vector-effect:non-scaling-stroke;fill:none;stroke:#000000;stroke-width:0.264583;stroke-dasharray:none;stroke-opacity:1;-inkscape-stroke:hairline"
     d="m 348.68875,243.962 v 18.12241 h -5.2002 v 17.72088 h 5.2002 v 18.12189 h -5.2002 v 17.72193 h 5.2002 V 333.771 h -5.2002 v 17.72141 h 5.2002 v 18.12189 h -5.2002 v 17.7219 h 5.2002 v 18.12188 h -5.2002 v 17.72089 h 5.2002 v 18.1224 h -5.2002 v 17.72193 h 5.2002 v 18.12189 h -5.2002 v 17.72087 h 5.2002 v 18.12189 h -5.2002 v 17.72244 h 5.2002 v 18.12189 h -5.2002 v 17.7209 h 5.2002 v 18.12189 h -5.2002 v 17.72191 h 5.2002 v 18.1224 h -5.2002 v 17.72088 h 5.2002 v 18.12189 h -11.82926 v -5.19967 h -11.42772 v 5.19967 h -11.82925 v -5.19967 h -11.42773 v 5.19967 h -11.82925 v -5.19967 h -11.42773 v 5.19967 h -11.82925 v -17.9219 h -5.19968 v -18.12086 h 5.19968 v -17.72243 h -5.19968 v -18.12189 h 5.19968 v -17.72191 h -5.19968 V 548.6323 h 5.19968 v -17.72193 h -5.19968 v -18.12238 h 5.19968 v -17.72193 h -5.19968 V 476.9452 h 5.19968 v -17.72191 h -5.19968 V 441.1014 h 5.19968 v -17.72244 h -5.19968 v -18.12085 h 5.19968 v -17.72193 h -5.19968 v -18.12189 h 5.19968 v -17.72191 h -5.19968 v -18.12137 h 5.19968 v -17.72193 h -5.19968 v -18.12189 h 5.19968 v -17.7219 h -5.19968 v -18.12086 h 5.19968 v -17.92242 h 11.82925 v 5.2002 h 11.42773 v -5.2002 h 11.82925 v 5.2002 h 11.42773 v -5.2002 h 11.82925 v 5.2002 h 11.42772 v -5.2002 z m -16.48013,81.60019 h -16.08016 v 5.00021 h 16.08016 z m -32.55977,0 h -16.08016 v 5.00021 h 16.08016 z m 27.35957,81.40019 h -16.07964 v 4.9997 h 16.07964 z m -32.55977,0 h -16.08016 v 4.9997 h 16.08016 z m 32.55977,81.39969 h -16.07964 v 5.00021 h 16.07964 z m -32.55977,0 h -16.08016 v 5.00021 h 16.08016 z m 37.75997,81.40022 h -16.08016 v 4.99968 h 16.08016 z m -32.55977,0 h -16.08016 v 4.99968 h 16.08016 z" />
  <polyline
     z="0"
     points="345.958,617.396 345.958,610.967 340.758,610.967 340.758,599.139 345.958,599.139 345.958,587.71 340.758,587.71 340.758,575.882 345.958,575.882 345.958,564.453 340.758,564.453 340.758,552.625 345.958,552.625 345.958,540.996 352.752,540.996 352.752,535.796 364.947,535.796 364.947,540.996 376.741,540.996 376.741,535.796 388.936,535.796 388.936,540.996 400.73,540.996 400.73,535.796 412.925,535.796 412.925,540.996 424.719,540.996 424.719,535.996 417.016,535.996 402.694,521.674 404.902,516.343 404.902,521.946 419.371,521.946 419.371,516.746 434.239,516.746 434.239,521.946 443.708,521.946 443.708,535.996 436.914,535.996 436.914,540.996 449,540.996 391.558,622.813 391.558,617.396 376.558,617.396 376.558,622.596 361.158,622.596 361.158,617.396 345.958,617.396"
     fill="none"
     stroke="#000000"
     stroke-width="0.1mm"
     id="polyline1"
     style="vector-effect:non-scaling-stroke;fill:none;stroke:#000000;stroke-width:0.264583;stroke-dasharray:none;stroke-opacity:1;-inkscape-stroke:hairline"
     transform="matrix(0,-1,-1,0,1674.1101,760.74642)" />
  <polyline
     z="0"
     points="758.45,415.477 767.919,415.477 767.919,410.277 782.787,410.277 782.787,415.477 797.256,415.477 797.256,409.874 799.464,415.204 785.141,429.527 777.439,429.527 777.439,434.527 789.233,434.527 789.233,429.327 801.428,429.327 801.428,434.527 813.222,434.527 813.222,429.327 825.417,429.327 825.417,434.527 837.211,434.527 837.211,429.327 849.406,429.327 849.406,434.527 856.2,434.527 856.2,446.156 861.4,446.156 861.4,457.984 856.2,457.984 856.2,469.413 861.4,469.413 861.4,481.241 856.2,481.241 856.2,492.67 861.4,492.67 861.4,504.498 856.2,504.498 856.2,510.927 841,510.927 841,516.127 825.6,516.127 825.6,510.927 810.6,510.927 810.6,516.343 753.158,434.527 765.244,434.527 765.244,429.527 758.45,429.527 758.45,415.477"
     fill="none"
     stroke="#000000"
     stroke-width="0.1mm"
     id="polyline23"
     style="vector-effect:non-scaling-stroke;fill:none;stroke:#000000;stroke-width:0.264583;stroke-dasharray:none;stroke-opacity:1;-inkscape-stroke:hairline"
     transform="matrix(0,-1,-1,0,1461.1716,1105.0378)" />
  <path
     id="polyline2"
     style="vector-effect:non-scaling-stroke;fill:none;stroke:#000000;stroke-width:0.264583;stroke-dasharray:none;stroke-opacity:1;-inkscape-stroke:hairline"
     d="m 456.83874,243.63787 v 18.1224 h 5.2002 v 17.72089 h -5.2002 v 18.12189 h 5.2002 v 17.72191 h -5.2002 v 18.1219 h 5.2002 v 17.72139 h -5.2002 v 18.1219 h 5.2002 v 17.72191 h -5.2002 v 18.12189 h 5.2002 v 17.72088 h -5.2002 v 18.12241 h 5.2002 v 17.72193 h -5.2002 v 18.12189 h 5.2002 v 17.72088 h -5.2002 v 18.12189 h 5.2002 v 17.72244 h -5.2002 v 18.12189 h 5.2002 v 17.72088 h -5.2002 v 18.1219 h 5.2002 v 17.72191 h -5.2002 v 18.1224 h 5.2002 v 17.72089 h -5.2002 v 18.12189 h 12.19409 v -5.2002 h 11.79514 v 5.2002 h 12.19409 v -5.2002 h 11.79463 v 5.2002 h 12.19409 v -5.2002 h 11.79514 v 5.2002 h 12.19409 v -5.2002 h 11.79463 v 5.2002 h 12.19409 v -18.12189 h -5.19968 v -17.72088 h 5.19968 v -18.1224 h -5.19968 v -17.72191 h 5.19968 v -18.1219 h -5.19968 v -17.72088 h 5.19968 v -18.12189 h -5.19968 v -17.72244 h 5.19968 v -18.1219 h -5.19968 v -17.72089 h 5.19968 v -18.12189 h -5.19968 v -17.72192 h 5.19968 v -18.1224 h -5.19968 v -17.72088 h 5.19968 v -18.1219 h -5.19968 v -17.7219 h 5.19968 v -18.12189 h -5.19968 v -17.72139 h 5.19968 v -18.1219 h -5.19968 v -17.72192 h 5.19968 v -18.12189 h -5.19968 v -17.72089 h 5.19968 v -18.12241 h -12.19409 v 5.2002 h -11.79463 v -5.2002 h -12.19409 v 5.2002 h -11.79514 v -5.2002 h -12.19409 v 5.2002 h -11.79463 v -5.2002 h -12.19409 v 5.2002 h -11.79514 v -5.2002 z m 27.18904,81.60019 h 20.04012 v 5.00022 h -20.04012 z m 40.48125,0 h 20.0396 v 5.00022 h -20.0396 z m -41.52098,81.4002 h 18.99987 v 4.9997 h -18.99987 z m 38.40076,0 h 18.99987 v 4.9997 h -18.99987 z m -38.40076,81.39969 h 18.99987 v 5.00021 h -18.99987 z m 38.40076,0 h 18.99987 v 5.00021 h -18.99987 z m -37.36103,81.40021 h 20.04012 v 4.99969 h -20.04012 z m 40.48125,0 h 20.0396 v 4.99969 h -20.0396 z" />
  <polyline
     z="0"
     points="536.442,402.993 536.442,388.943 554.364,388.943 554.364,383.743 572.485,383.743 572.485,388.943 590.207,388.943 590.207,383.743 608.329,383.743 608.329,388.943 626.051,388.943 626.051,383.743 644.172,383.743 644.172,388.943 661.894,388.943 661.894,383.743 680.016,383.743 680.016,388.943 697.738,388.943 697.738,383.743 715.859,383.743 715.859,388.943 733.581,388.943 733.581,383.743 751.703,383.743 751.703,388.943 769.425,388.943 769.425,383.743 787.546,383.743 787.546,388.943 805.268,388.943 805.268,383.743 823.39,383.743 823.39,388.943 841.112,388.943 841.112,383.743 859.233,383.743 859.233,388.943 876.955,388.943 876.955,383.743 895.077,383.743 895.077,388.943 912.799,388.943 912.799,383.743 930.92,383.743 930.92,388.943 948.842,388.943 948.842,402.993 930.92,402.993 930.92,408.193 912.799,408.193 912.799,402.993 895.077,402.993 895.077,408.193 876.955,408.193 876.955,402.993 859.233,402.993 859.233,408.193 841.112,408.193 841.112,402.993 823.39,402.993 823.39,408.193 805.268,408.193 805.268,402.993 787.546,402.993 787.546,408.193 769.425,408.193 769.425,402.993 751.703,402.993 751.703,408.193 733.581,408.193 733.581,402.993 715.859,402.993 715.859,408.193 697.738,408.193 697.738,402.993 680.016,402.993 680.016,408.193 661.894,408.193 661.894,402.993 644.172,402.993 644.172,408.193 626.051,408.193 626.051,402.993 608.329,402.993 608.329,408.193 590.207,408.193 590.207,402.993 572.485,402.993 572.485,408.193 554.364,408.193 554.364,402.993 536.442,402.993"
     fill="none"
     stroke="#000000"
     stroke-width="0.1mm"
     id="polyline12"
     style="vector-effect:non-scaling-stroke;fill:none;stroke:#000000;stroke-width:0.264583;stroke-dasharray:none;stroke-opacity:1;-inkscape-stroke:hairline"
     transform="rotate(90,676.39282,383.58878)" />
  <path
     id="polyline13"
     style="vector-effect:non-scaling-stroke;fill:none;stroke:#000000;stroke-width:0.264583;stroke-dasharray:none;stroke-opacity:1;-inkscape-stroke:hairline"
     d="m 727.23856,243.63787 v 412.40017 h -15.40007 v -5.2002 h -14.9996 v 5.2002 H 681.4388 v -17.92192 h -5.2002 v -18.12136 h 5.2002 v -17.72193 h -5.2002 v -18.12188 h 5.2002 v -17.72191 h -5.2002 v -18.12139 h 5.2002 v -17.7219 h -5.2002 v -18.1219 h 5.2002 v -17.72191 h -5.2002 v -18.12086 h 5.2002 v -17.72242 h -5.2002 v -18.1219 h 5.2002 v -17.72192 h -5.2002 v -18.12086 h 5.2002 v -17.7219 h -5.2002 v -18.12241 h 5.2002 v -17.72193 h -5.2002 v -18.12085 h 5.2002 v -17.72193 h -5.2002 v -18.12189 h 5.2002 v -17.72242 h -5.2002 v -18.12086 h 5.2002 v -17.92191 h 15.40009 v 5.2002 h 14.9996 v -5.2002 z m -14.71897,81.60019 h -7.57008 v 4.9997 h 7.57008 z m -15.54117,0 h -7.56957 v 4.9997 h 7.56957 z m 14.50144,81.39969 h -8.61033 v 5.00021 h 8.61033 z m -17.62115,0 h -8.61033 v 5.00021 h 8.61033 z m 17.62115,81.4002 h -8.61033 v 4.99969 h 8.61033 z m -17.62115,0 h -8.61033 v 4.99969 h 8.61033 z m 18.66088,81.39968 h -7.57008 v 5.00022 h 7.57008 z m -15.54117,0 h -7.56957 v 5.00022 h 7.56957 z" />
  <polyline
     z="0"
     points="627.506,321.393 627.506,316.193 609.784,316.193 609.784,321.393 591.662,321.393 591.662,316.193 573.941,316.193 573.941,321.393 555.819,321.393 555.819,316.193 538.097,316.193 538.097,321.393 519.975,321.393 519.975,316.193 502.254,316.193 502.254,321.393 484.132,321.393 484.132,316.193 466.41,316.193 466.41,321.393 448.288,321.393 448.288,316.193 430.567,316.193 430.567,321.393 412.445,321.393 412.445,316.193 394.723,316.193 394.723,321.393 376.601,321.393 376.601,316.193 358.88,316.193 358.88,321.393 340.758,321.393 340.758,306.524 345.958,306.524 345.958,292.056 340.758,292.056 340.758,277.187 753.158,277.187 753.158,292.056 747.958,292.056 747.958,306.524 753.158,306.524 753.158,321.393 735.036,321.393 735.036,316.193 717.315,316.193 717.315,321.393 699.193,321.393 699.193,316.193 681.471,316.193 681.471,321.393 663.349,321.393 663.349,316.193 645.628,316.193 645.628,321.393 627.506,321.393"
     fill="none"
     stroke="#000000"
     stroke-width="0.1mm"
     id="polyline22"
     style="vector-effect:non-scaling-stroke;fill:none;stroke:#000000;stroke-width:0.264583;stroke-dasharray:none;stroke-opacity:1;-inkscape-stroke:hairline"
     transform="matrix(0,1,1,0,450.05156,-97.12004)" />
  <path
     id="polyline25"
     style="vector-effect:non-scaling-stroke;fill:none;stroke:#000000;stroke-width:0.264583;stroke-dasharray:none;stroke-opacity:1;-inkscape-stroke:hairline"
     d="m 564.98873,243.63787 v 18.12241 h 5.2002 v 17.72089 h -5.2002 v 18.12189 h 5.2002 v 17.72193 h -5.2002 v 18.12189 h 5.2002 v 17.7214 h -5.2002 v 18.12189 h 5.2002 v 17.72191 h -5.2002 v 18.12188 h 5.2002 v 17.72088 h -5.2002 v 18.12241 h 5.2002 v 17.72193 h -5.2002 v 18.12189 h 5.2002 v 17.72087 h -5.2002 v 18.12188 h 5.2002 v 17.72244 h -5.2002 v 18.12189 h 5.2002 v 17.72091 h -5.2002 v 18.12189 h 5.2002 v 17.7219 h -5.2002 v 18.1224 h 5.2002 v 17.72088 h -5.2002 v 18.12189 h 11.82926 v -5.19967 h 11.42772 v 5.19967 h 11.82925 v -5.19967 h 11.42773 v 5.19967 h 11.82925 v -5.19967 h 11.42773 v 5.19967 h 11.82925 v -17.9219 h 5.19968 v -18.12086 h -5.19968 v -17.72243 h 5.19968 v -18.12189 h -5.19968 v -17.72191 h 5.19968 v -18.12086 h -5.19968 v -17.72193 h 5.19968 v -18.12238 h -5.19968 v -17.72193 h 5.19968 v -18.12085 h -5.19968 v -17.72191 h 5.19968 v -18.12189 h -5.19968 v -17.72244 h 5.19968 v -18.12086 h -5.19968 v -17.72192 h 5.19968 v -18.12189 h -5.19968 v -17.72191 h 5.19968 v -18.12137 h -5.19968 v -17.72193 h 5.19968 v -18.12189 h -5.19968 v -17.7219 h 5.19968 v -18.12086 h -5.19968 v -17.92243 h -11.82925 v 5.2002 h -11.42773 v -5.2002 h -11.82925 v 5.2002 h -11.42773 v -5.2002 h -11.82925 v 5.2002 h -11.42772 v -5.2002 z m 16.48013,81.60019 h 16.08016 v 5.00021 h -16.08016 z m 32.55977,0 h 16.08016 v 5.00021 h -16.08016 z m -27.35957,81.4002 h 16.07964 v 4.9997 h -16.07964 z m 32.55977,0 h 16.08016 v 4.9997 h -16.08016 z m -32.55977,81.39969 h 16.07964 v 5.00021 h -16.07964 z m 32.55977,0 h 16.08016 v 5.00021 h -16.08016 z m -37.75997,81.40021 h 16.08016 v 4.99969 h -16.08016 z m 32.55977,0 h 16.08016 v 4.99969 h -16.08016 z" />
  <polyline
     z="0"
     points="345.958,617.396 345.958,610.967 340.758,610.967 340.758,599.139 345.958,599.139 345.958,587.71 340.758,587.71 340.758,575.882 345.958,575.882 345.958,564.453 340.758,564.453 340.758,552.625 345.958,552.625 345.958,540.996 352.752,540.996 352.752,535.796 364.947,535.796 364.947,540.996 376.741,540.996 376.741,535.796 388.936,535.796 388.936,540.996 400.73,540.996 400.73,535.796 412.925,535.796 412.925,540.996 424.719,540.996 424.719,535.996 417.016,535.996 402.694,521.674 404.902,516.343 404.902,521.946 419.371,521.946 419.371,516.746 434.239,516.746 434.239,521.946 443.708,521.946 443.708,535.996 436.914,535.996 436.914,540.996 449,540.996 391.558,622.813 391.558,617.396 376.558,617.396 376.558,622.596 361.158,622.596 361.158,617.396 345.958,617.396"
     fill="none"
     stroke="#000000"
     stroke-width="0.1mm"
     id="polyline1-0"
     style="vector-effect:non-scaling-stroke;fill:none;stroke:#000000;stroke-width:0.264583;stroke-dasharray:none;stroke-opacity:1;-inkscape-stroke:hairline"
     transform="rotate(-90,594.61576,166.13063)" />
  <polyline
     z="0"
     points="758.45,415.477 767.919,415.477 767.919,410.277 782.787,410.277 782.787,415.477 797.256,415.477 797.256,409.874 799.464,415.204 785.141,429.527 777.439,429.527 777.439,434.527 789.233,434.527 789.233,429.327 801.428,429.327 801.428,434.527 813.222,434.527 813.222,429.327 825.417,429.327 825.417,434.527 837.211,434.527 837.211,429.327 849.406,429.327 849.406,434.527 856.2,434.527 856.2,446.156 861.4,446.156 861.4,457.984 856.2,457.984 856.2,469.413 861.4,469.413 861.4,481.241 856.2,481.241 856.2,492.67 861.4,492.67 861.4,504.498 856.2,504.498 856.2,510.927 841,510.927 841,516.127 825.6,516.127 825.6,510.927 810.6,510.927 810.6,516.343 753.158,434.527 765.244,434.527 765.244,429.527 758.45,429.527 758.45,415.477"
     fill="none"
     stroke="#000000"
     stroke-width="0.1mm"
     id="polyline23-1"
     style="vector-effect:non-scaling-stroke;fill:none;stroke:#000000;stroke-width:0.264583;stroke-dasharray:none;stroke-opacity:1;-inkscape-stroke:hairline"
     transform="rotate(-90,873.23073,231.8071)" />
  <polyline
     z="0"
     points="507.931,408.193 499.961,408.193 499.961,402.993 492.239,402.993 438.6,326.593 455.281,326.593 455.281,321.393 475.721,321.393 475.721,326.593 495.762,326.593 495.762,321.393 516.202,321.393 516.202,326.593 531.242,326.593 531.242,342.873 536.442,342.873 536.442,359.353 531.242,359.353 531.242,375.433 536.442,375.433 536.442,391.913 531.242,391.913 531.242,402.993 523.472,402.993 523.472,408.193 515.502,408.193 515.502,402.993 507.931,402.993 507.931,408.193"
     fill="none"
     stroke="#000000"
     stroke-width="0.1mm"
     id="polyline11"
     style="vector-effect:non-scaling-stroke;fill:none;stroke:#000000;stroke-width:0.264583;stroke-dasharray:none;stroke-opacity:1;-inkscape-stroke:hairline"
     transform="rotate(90,637.57581,628.86175)" />
  <polyline
     z="0"
     points="861.4,445.823 866.6,445.823 866.6,434.743 885.8,434.743 885.8,429.543 905.2,429.543 905.2,434.743 924.201,434.743 924.201,429.543 943.601,429.543 943.601,434.743 959.242,434.743 905.603,511.143 896.841,511.143 896.841,516.343 887.831,516.343 887.831,511.143 879.22,511.143 879.22,516.343 870.21,516.343 870.21,511.143 866.6,511.143 866.6,494.863 861.4,494.863 861.4,478.383 866.6,478.383 866.6,462.303 861.4,462.303 861.4,445.823"
     fill="none"
     stroke="#000000"
     stroke-width="0.1mm"
     id="polyline24"
     style="vector-effect:non-scaling-stroke;fill:none;stroke:#000000;stroke-width:0.264583;stroke-dasharray:none;stroke-opacity:1;-inkscape-stroke:hairline"
     transform="rotate(90,881.75231,406.03525)" />
  <polyline
     z="0"
     points="507.931,408.193 499.961,408.193 499.961,402.993 492.239,402.993 438.6,326.593 455.281,326.593 455.281,321.393 475.721,321.393 475.721,326.593 495.762,326.593 495.762,321.393 516.202,321.393 516.202,326.593 531.242,326.593 531.242,342.873 536.442,342.873 536.442,359.353 531.242,359.353 531.242,375.433 536.442,375.433 536.442,391.913 531.242,391.913 531.242,402.993 523.472,402.993 523.472,408.193 515.502,408.193 515.502,402.993 507.931,402.993 507.931,408.193"
     fill="none"
     stroke="#000000"
     stroke-width="0.1mm"
     id="polyline11-2"
     style="vector-effect:non-scaling-stroke;fill:none;stroke:#000000;stroke-width:0.264583;stroke-dasharray:none;stroke-opacity:1;-inkscape-stroke:hairline"
     transform="matrix(0,1,1,0,450.05156,-8.71407)" />
  <polyline
     z="0"
     points="861.4,445.823 866.6,445.823 866.6,434.743 885.8,434.743 885.8,429.543 905.2,429.543 905.2,434.743 924.201,434.743 924.201,429.543 943.601,429.543 943.601,434.743 959.242,434.743 905.603,511.143 896.841,511.143 896.841,516.343 887.831,516.343 887.831,511.143 879.22,511.143 879.22,516.343 870.21,516.343 870.21,511.143 866.6,511.143 866.6,494.863 861.4,494.863 861.4,478.383 866.6,478.383 866.6,462.303 861.4,462.303 861.4,445.823"
     fill="none"
     stroke="#000000"
     stroke-width="0.1mm"
     id="polyline24-0"
     style="vector-effect:non-scaling-stroke;fill:none;stroke:#000000;stroke-width:0.264583;stroke-dasharray:none;stroke-opacity:1;-inkscape-stroke:hairline"
     transform="matrix(0,1,1,0,428.70156,-475.71706)" />
  <polyline
     z="0"
     points="425.63,408.193 417.66,408.193 417.66,402.993 410.089,402.993 410.089,408.193 402.119,408.193 402.119,402.993 394.397,402.993 340.758,326.593 357.439,326.593 357.439,321.393 377.879,321.393 377.879,326.593 397.92,326.593 397.92,321.393 418.36,321.393 418.36,326.593 433.4,326.593 433.4,342.873 438.6,342.873 438.6,359.353 433.4,359.353 433.4,375.433 438.6,375.433 438.6,391.913 433.4,391.913 433.4,402.993 425.63,402.993 425.63,408.193"
     fill="none"
     stroke="#000000"
     stroke-width="0.1mm"
     id="polyline34"
     style="vector-effect:non-scaling-stroke;fill:none;stroke:#000000;stroke-width:0.264583;stroke-dasharray:none;stroke-opacity:1;-inkscape-stroke:hairline"
     transform="rotate(90,616.27728,563.36027)" />
  <polyline
     z="0"
     points="861.4,552.293 866.6,552.293 866.6,541.213 885.8,541.213 885.8,536.013 905.2,536.013 905.2,541.213 924.201,541.213 924.201,536.013 943.601,536.013 943.601,541.213 959.242,541.213 905.603,617.613 896.841,617.613 896.841,622.813 887.831,622.813 887.831,617.613 879.22,617.613 879.22,622.813 870.21,622.813 870.21,617.613 866.6,617.613 866.6,601.333 861.4,601.333 861.4,584.853 866.6,584.853 866.6,568.773 861.4,568.773 861.4,552.293"
     fill="none"
     stroke="#000000"
     stroke-width="0.1mm"
     id="polyline35"
     style="vector-effect:non-scaling-stroke;fill:none;stroke:#000000;stroke-width:0.264583;stroke-dasharray:none;stroke-opacity:1;-inkscape-stroke:hairline"
     transform="rotate(90,1049.4098,431.64773)" />
  <polyline
     z="0"
     points="425.63,408.193 417.66,408.193 417.66,402.993 410.089,402.993 410.089,408.193 402.119,408.193 402.119,402.993 394.397,402.993 340.758,326.593 357.439,326.593 357.439,321.393 377.879,321.393 377.879,326.593 397.92,326.593 397.92,321.393 418.36,321.393 418.36,326.593 433.4,326.593 433.4,342.873 438.6,342.873 438.6,359.353 433.4,359.353 433.4,375.433 438.6,375.433 438.6,391.913 433.4,391.913 433.4,402.993 425.63,402.993 425.63,408.193"
     fill="none"
     stroke="#000000"
     stroke-width="0.1mm"
     id="polyline34-5"
     style="vector-effect:non-scaling-stroke;fill:none;stroke:#000000;stroke-width:0.264583;stroke-dasharray:none;stroke-opacity:1;-inkscape-stroke:hairline"
     transform="matrix(0,1,1,0,536.85155,-52.91702)" />
  <polyline
     z="0"
     points="861.4,552.293 866.6,552.293 866.6,541.213 885.8,541.213 885.8,536.013 905.2,536.013 905.2,541.213 924.201,541.213 924.201,536.013 943.601,536.013 943.601,541.213 959.242,541.213 905.603,617.613 896.841,617.613 896.841,622.813 887.831,622.813 887.831,617.613 879.22,617.613 879.22,622.813 870.21,622.813 870.21,617.613 866.6,617.613 866.6,601.333 861.4,601.333 861.4,584.853 866.6,584.853 866.6,568.773 861.4,568.773 861.4,552.293"
     fill="none"
     stroke="#000000"
     stroke-width="0.1mm"
     id="polyline35-1"
     style="vector-effect:non-scaling-stroke;fill:none;stroke:#000000;stroke-width:0.264583;stroke-dasharray:none;stroke-opacity:1;-inkscape-stroke:hairline"
     transform="matrix(0,1,1,0,235.43155,-617.76202)" />
</svg>
