<?xml version="1.0" encoding="UTF-8" standalone="no"?>
<svg
   width="1300mm"
   height="900mm"
   viewBox="0 0 1300 900"
   version="1.1"
   id="svg35"
   sodipodi:docname="5CompCaulk.svg"
   inkscape:version="1.3.2 (091e20ef0f, 2023-11-25)"
   xmlns:inkscape="http://www.inkscape.org/namespaces/inkscape"
   xmlns:sodipodi="http://sodipodi.sourceforge.net/DTD/sodipodi-0.dtd"
   xmlns="http://www.w3.org/2000/svg"
   xmlns:svg="http://www.w3.org/2000/svg">
  <defs
     id="defs35" />
  <sodipodi:namedview
     id="namedview35"
     pagecolor="#505050"
     bordercolor="#eeeeee"
     borderopacity="1"
     inkscape:showpageshadow="0"
     inkscape:pageopacity="0"
     inkscape:pagecheckerboard="0"
     inkscape:deskcolor="#505050"
     inkscape:document-units="mm"
     inkscape:zoom="0.17991667"
     inkscape:cx="2131.5424"
     inkscape:cy="2576.1927"
     inkscape:window-width="1920"
     inkscape:window-height="1011"
     inkscape:window-x="0"
     inkscape:window-y="32"
     inkscape:window-maximized="1"
     inkscape:current-layer="svg35" />
  <path
     id="polyline1"
     style="vector-effect:non-scaling-stroke;stroke-width:0.264583;stroke-dasharray:none;-inkscape-stroke:hairline;fill:none;stroke:#000000;stroke-opacity:1"
     d="M 332.84977 617.21293 L 351.6941 617.21293 L 351.6941 612.01325 L 370.13794 612.01325 L 370.13794 617.21293 L 388.98175 617.21293 L 388.98175 612.01325 L 407.4261 612.01325 L 407.4261 617.21293 L 426.27094 617.21293 L 426.27094 612.01325 L 444.71478 612.01325 L 444.71478 617.21293 L 463.55911 617.21293 L 463.55911 612.01325 L 482.00294 612.01325 L 482.00294 617.21293 L 500.84675 617.21293 L 500.84675 612.01325 L 519.29111 612.01325 L 519.29111 617.21293 L 538.13492 617.21293 L 538.13492 612.01325 L 556.57875 612.01325 L 556.57875 617.21293 L 575.42411 617.21293 L 575.42411 612.01325 L 593.86795 612.01325 L 593.86795 617.21293 L 612.71176 617.21293 L 612.71176 612.01325 L 631.15611 612.01325 L 631.15611 617.21293 L 649.99992 617.21293 L 649.99992 600.78499 L 644.80024 600.78499 L 644.80024 584.75703 L 649.99992 584.75703 L 649.99992 568.33013 L 644.80024 568.33013 L 644.80024 552.30216 L 649.99992 552.30216 L 649.99992 535.87423 L 644.80024 535.87423 L 644.80024 519.84575 L 649.99992 519.84575 L 649.99992 503.41884 L 644.80024 503.41884 L 644.80024 487.39088 L 649.99992 487.39088 L 649.99992 470.96294 L 631.15611 470.96294 L 631.15611 476.16314 L 612.71176 476.16314 L 612.71176 470.96294 L 593.86795 470.96294 L 593.86795 476.16314 L 575.42411 476.16314 L 575.42411 470.96294 L 556.57875 470.96294 L 556.57875 476.16314 L 538.13492 476.16314 L 538.13492 470.96294 L 519.29111 470.96294 L 519.29111 476.16314 L 500.84675 476.16314 L 500.84675 470.96294 L 482.00294 470.96294 L 482.00294 476.16314 L 463.55911 476.16314 L 463.55911 470.96294 L 444.71478 470.96294 L 444.71478 476.16314 L 426.27094 476.16314 L 426.27094 470.96294 L 407.4261 470.96294 L 407.4261 476.16314 L 388.98175 476.16314 L 388.98175 470.96294 L 370.13794 470.96294 L 370.13794 476.16314 L 351.6941 476.16314 L 351.6941 470.96294 L 332.84977 470.96294 L 332.84977 487.39088 L 338.04997 487.39088 L 338.04997 503.41884 L 332.84977 503.41884 L 332.84977 519.84575 L 338.04997 519.84575 L 338.04997 535.87423 L 332.84977 535.87423 L 332.84977 552.30216 L 338.04997 552.30216 L 338.04997 568.33013 L 332.84977 568.33013 L 332.84977 584.75703 L 338.04997 584.75703 L 338.04997 600.78499 L 332.84977 600.78499 L 332.84977 617.21293 z M 395.39996 584.68313 L 395.39996 557.75299 L 400.40017 557.75299 L 400.40017 584.68313 L 395.39996 584.68313 z M 395.39996 530.42288 L 395.39996 503.49326 L 400.40017 503.49326 L 400.40017 530.42288 L 395.39996 530.42288 z M 457.75016 584.14312 L 457.75016 556.04819 L 462.74985 556.04819 L 462.74985 584.14312 L 457.75016 584.14312 z M 457.75016 527.55277 L 457.75016 499.45785 L 462.74985 499.45785 L 462.74985 527.55277 L 457.75016 527.55277 z M 520.09984 584.14312 L 520.09984 556.04819 L 525.10005 556.04819 L 525.10005 584.14312 L 520.09984 584.14312 z M 520.09984 527.55277 L 520.09984 499.45785 L 525.10005 499.45785 L 525.10005 527.55277 L 520.09984 527.55277 z M 582.45004 584.68313 L 582.45004 557.75299 L 587.45025 557.75299 L 587.45025 584.68313 L 582.45004 584.68313 z M 582.45004 530.42288 L 582.45004 503.49326 L 587.45025 503.49326 L 587.45025 530.42288 L 582.45004 530.42288 z "
     transform="rotate(90,650,450)" />
  <polyline
     z="0"
     points="398.364,470.84 387.279,470.84 387.279,465.64 376.593,465.64 376.593,470.84 365.507,470.84 365.507,465.64 354.821,465.64 354.821,470.84 343.736,470.84 343.736,465.64 338.05,465.64 338.05,454.21 332.85,454.21 332.85,442.58 338.05,442.58 338.05,431.35 332.85,431.35 332.85,419.72 338.05,419.72 338.05,408.29 349.078,408.29 349.078,403.09 365.506,403.09 365.506,408.29 381.533,408.29 381.533,403.09 397.961,403.09 397.961,408.29 413.989,408.29 413.989,403.09 430.417,403.09 430.417,408.29 446.444,408.29 446.444,403.09 447.009,403.09 432.886,388.967 435.094,383.637 435.094,389.24 449.563,389.24 449.563,384.04 464.431,384.04 464.431,389.24 479.1,389.24 479.1,403.29 462.872,403.29 462.872,408.29 479.262,408.29 409.05,470.963 409.05,465.64 398.364,465.64 398.364,470.84"
     fill="none"
     stroke="#000000"
     stroke-width="0.1mm"
     id="polyline10"
     style="vector-effect:non-scaling-stroke;stroke-width:0.264583;stroke-dasharray:none;-inkscape-stroke:hairline;fill:none;stroke:#000000;stroke-opacity:1"
     transform="rotate(90,650,450)" />
  <polyline
     z="0"
     points="402.426,383.637 383.582,383.637 383.582,378.437 365.138,378.437 365.138,383.637 346.294,383.637 346.294,378.437 332.85,378.437 332.85,364.387 346.294,364.387 346.294,359.187 365.138,359.187 365.138,364.387 383.582,364.387 383.582,359.187 402.426,359.187 402.426,364.387 420.871,364.387 420.871,359.187 439.715,359.187 439.715,364.387 458.159,364.387 458.159,359.187 477.003,359.187 477.003,364.387 495.447,364.387 495.447,359.187 514.291,359.187 514.291,364.387 532.735,364.387 532.735,359.187 551.579,359.187 551.579,364.387 570.024,364.387 570.024,359.187 588.868,359.187 588.868,364.387 607.312,364.387 607.312,359.187 626.156,359.187 626.156,364.387 639.6,364.387 639.6,378.437 626.156,378.437 626.156,383.637 607.312,383.637 607.312,378.437 588.868,378.437 588.868,383.637 570.024,383.637 570.024,378.437 551.579,378.437 551.579,383.637 532.735,383.637 532.735,378.437 514.291,378.437 514.291,383.637 495.447,383.637 495.447,378.437 477.003,378.437 477.003,383.637 458.159,383.637 458.159,378.437 439.715,378.437 439.715,383.637 420.871,383.637 420.871,378.437 402.426,378.437 402.426,383.637"
     fill="none"
     stroke="#000000"
     stroke-width="0.1mm"
     id="polyline11"
     style="vector-effect:non-scaling-stroke;stroke-width:0.264583;stroke-dasharray:none;-inkscape-stroke:hairline;fill:none;stroke:#000000;stroke-opacity:1"
     transform="rotate(90,650,450)" />
  <path
     id="polyline12"
     style="vector-effect:non-scaling-stroke;stroke-width:0.264583;stroke-dasharray:none;-inkscape-stroke:hairline;fill:none;stroke:#000000;stroke-opacity:1"
     d="M 332.84977 359.18682 L 649.99992 359.18682 L 649.99992 348.10119 L 644.80024 348.10119 L 644.80024 337.41606 L 649.99992 337.41606 L 649.99992 326.32991 L 644.80024 326.32991 L 644.80024 315.64374 L 649.99992 315.64374 L 649.99992 304.55811 L 644.80024 304.55811 L 644.80024 293.87298 L 649.99992 293.87298 L 649.99992 282.78683 L 631.15611 282.78683 L 631.15611 287.98703 L 612.71176 287.98703 L 612.71176 282.78683 L 593.86795 282.78683 L 593.86795 287.98703 L 575.42411 287.98703 L 575.42411 282.78683 L 556.57875 282.78683 L 556.57875 287.98703 L 538.13492 287.98703 L 538.13492 282.78683 L 519.29111 282.78683 L 519.29111 287.98703 L 500.84675 287.98703 L 500.84675 282.78683 L 482.00294 282.78683 L 482.00294 287.98703 L 463.55911 287.98703 L 463.55911 282.78683 L 444.71478 282.78683 L 444.71478 287.98703 L 426.27094 287.98703 L 426.27094 282.78683 L 407.4261 282.78683 L 407.4261 287.98703 L 388.98175 287.98703 L 388.98175 282.78683 L 370.13794 282.78683 L 370.13794 287.98703 L 351.6941 287.98703 L 351.6941 282.78683 L 332.84977 282.78683 L 332.84977 293.87298 L 338.04997 293.87298 L 338.04997 304.55811 L 332.84977 304.55811 L 332.84977 315.64374 L 338.04997 315.64374 L 338.04997 326.32991 L 332.84977 326.32991 L 332.84977 337.41606 L 338.04997 337.41606 L 338.04997 348.10119 L 332.84977 348.10119 L 332.84977 359.18682 z M 395.39996 341.12694 L 395.39996 328.04195 L 400.40017 328.04195 L 400.40017 341.12694 L 395.39996 341.12694 z M 395.39996 314.55699 L 395.39996 301.472 L 400.40017 301.472 L 400.40017 314.55699 L 395.39996 314.55699 z M 457.75016 340.08721 L 457.75016 325.96198 L 462.74985 325.96198 L 462.74985 340.08721 L 457.75016 340.08721 z M 457.75016 311.43676 L 457.75016 297.31204 L 462.74985 297.31204 L 462.74985 311.43676 L 457.75016 311.43676 z M 520.09984 340.08721 L 520.09984 325.96198 L 525.10005 325.96198 L 525.10005 340.08721 L 520.09984 340.08721 z M 520.09984 311.43676 L 520.09984 297.31204 L 525.10005 297.31204 L 525.10005 311.43676 L 520.09984 311.43676 z M 582.45004 341.12694 L 582.45004 328.04195 L 587.45025 328.04195 L 587.45025 341.12694 L 582.45004 341.12694 z M 582.45004 314.55699 L 582.45004 301.472 L 587.45025 301.472 L 587.45025 314.55699 L 582.45004 314.55699 z "
     transform="rotate(90,650,450)" />
  <polyline
     z="0"
     points="479.424,389.24 494.093,389.24 494.093,384.04 508.961,384.04 508.961,389.24 523.43,389.24 523.43,383.637 525.638,388.967 511.516,403.09 512.08,403.09 512.08,408.29 528.107,408.29 528.107,403.09 544.535,403.09 544.535,408.29 560.563,408.29 560.563,403.09 576.991,403.09 576.991,408.29 593.018,408.29 593.018,403.09 609.446,403.09 609.446,408.29 620.474,408.29 620.474,419.72 625.674,419.72 625.674,431.35 620.474,431.35 620.474,442.58 625.674,442.58 625.674,454.21 620.474,454.21 620.474,465.64 614.788,465.64 614.788,470.84 603.703,470.84 603.703,465.64 593.017,465.64 593.017,470.84 581.931,470.84 581.931,465.64 571.245,465.64 571.245,470.84 560.16,470.84 560.16,465.64 549.474,465.64 549.474,470.963 479.262,408.29 495.652,408.29 495.652,403.29 479.424,403.29 479.424,389.24"
     fill="none"
     stroke="#000000"
     stroke-width="0.1mm"
     id="polyline21"
     style="vector-effect:non-scaling-stroke;stroke-width:0.264583;stroke-dasharray:none;-inkscape-stroke:hairline;fill:none;stroke:#000000;stroke-opacity:1"
     transform="rotate(90,650,450)" />
  <polyline
     z="0"
     points="625.674,408.413 647.767,408.413 647.767,403.213 675.097,403.213 675.097,408.413 702.027,408.413 702.027,403.213 729.357,403.213 729.357,408.413 756.487,408.413 756.487,416.723 761.687,416.723 761.687,430.433 756.487,430.433 756.487,443.743 761.687,443.743 761.687,457.453 756.487,457.453 756.487,465.763 743.202,465.763 743.202,470.963 729.717,470.963 729.717,465.763 716.632,465.763 716.632,470.963 703.147,470.963 703.147,465.763 689.923,465.763 625.674,408.413"
     fill="none"
     stroke="#000000"
     stroke-width="0.1mm"
     id="polyline22"
     style="vector-effect:non-scaling-stroke;stroke-width:0.264583;stroke-dasharray:none;-inkscape-stroke:hairline;fill:none;stroke:#000000;stroke-opacity:1"
     transform="rotate(90,650,450)" />
  <polyline
     z="0"
     points="650,359.187 650,344.318 655.2,344.318 655.2,329.85 650,329.85 650,314.981 967.15,314.981 967.15,329.85 961.95,329.85 961.95,344.318 967.15,344.318 967.15,359.187 948.306,359.187 948.306,353.987 929.862,353.987 929.862,359.187 911.018,359.187 911.018,353.987 892.574,353.987 892.574,359.187 873.729,359.187 873.729,353.987 855.285,353.987 855.285,359.187 836.441,359.187 836.441,353.987 817.997,353.987 817.997,359.187 799.153,359.187 799.153,353.987 780.709,353.987 780.709,359.187 761.865,359.187 761.865,353.987 743.421,353.987 743.421,359.187 724.576,359.187 724.576,353.987 706.132,353.987 706.132,359.187 687.288,359.187 687.288,353.987 668.844,353.987 668.844,359.187 650,359.187"
     fill="none"
     stroke="#000000"
     stroke-width="0.1mm"
     id="polyline23"
     style="vector-effect:non-scaling-stroke;stroke-width:0.264583;stroke-dasharray:none;-inkscape-stroke:hairline;fill:none;stroke:#000000;stroke-opacity:1"
     transform="rotate(90,650,450)" />
  <polyline
     z="0"
     points="761.687,408.413 784.319,408.413 784.319,403.213 812.814,403.213 812.814,408.413 840.909,408.413 840.909,403.213 869.404,403.213 869.404,408.413 892.499,408.413 892.499,419.843 897.699,419.843 897.699,431.473 892.499,431.473 892.499,442.703 897.699,442.703 897.699,454.333 892.499,454.333 892.499,465.763 883.374,465.763 883.374,470.963 868.849,470.963 868.849,465.763 854.724,465.763 854.724,470.963 840.199,470.963 840.199,465.763 825.936,465.763 761.687,408.413"
     fill="none"
     stroke="#000000"
     stroke-width="0.1mm"
     id="polyline24"
     style="vector-effect:non-scaling-stroke;stroke-width:0.264583;stroke-dasharray:none;-inkscape-stroke:hairline;fill:none;stroke:#000000;stroke-opacity:1"
     transform="rotate(90,650,450)" />
  <polyline
     z="0"
     points="763.92,481.713 763.92,486.913 786.012,486.913 721.763,544.263 708.54,544.263 708.54,549.463 695.055,549.463 695.055,544.263 681.97,544.263 681.97,549.463 668.485,549.463 668.485,544.263 655.2,544.263 655.2,535.953 650,535.953 650,522.243 655.2,522.243 655.2,508.933 650,508.933 650,495.223 655.2,495.223 655.2,486.913 682.33,486.913 682.33,481.713 709.66,481.713 709.66,486.913 736.59,486.913 736.59,481.713 763.92,481.713"
     fill="none"
     stroke="#000000"
     stroke-width="0.1mm"
     id="polyline25"
     style="vector-effect:non-scaling-stroke;stroke-width:0.264583;stroke-dasharray:none;-inkscape-stroke:hairline;fill:none;stroke:#000000;stroke-opacity:1"
     transform="rotate(90,650,450)" />
  <polyline
     z="0"
     points="786.012,498.343 791.212,498.343 791.212,486.913 814.307,486.913 814.307,481.713 842.802,481.713 842.802,486.913 870.897,486.913 870.897,481.713 899.392,481.713 899.392,486.913 922.024,486.913 857.775,544.263 843.512,544.263 843.512,549.463 828.987,549.463 828.987,544.263 814.862,544.263 814.862,549.463 800.337,549.463 800.337,544.263 791.212,544.263 791.212,532.833 786.012,532.833 786.012,521.203 791.212,521.203 791.212,509.973 786.012,509.973 786.012,498.343"
     fill="none"
     stroke="#000000"
     stroke-width="0.1mm"
     id="polyline26"
     style="vector-effect:non-scaling-stroke;stroke-width:0.264583;stroke-dasharray:none;-inkscape-stroke:hairline;fill:none;stroke:#000000;stroke-opacity:1"
     transform="rotate(90,650,450)" />
  <path
     id="polyline27"
     style="vector-effect:non-scaling-stroke;stroke-width:0.264583;stroke-dasharray:none;-inkscape-stroke:hairline;fill:none;stroke:#000000;stroke-opacity:1"
     d="M 649.99992 612.01325 L 668.64375 612.01325 L 668.64375 617.21293 L 687.48807 617.21293 L 687.48807 612.01325 L 705.93191 612.01325 L 705.93191 617.21293 L 724.77624 617.21293 L 724.77624 612.01325 L 743.22111 612.01325 L 743.22111 617.21293 L 762.06492 617.21293 L 762.06492 612.01325 L 780.50875 612.01325 L 780.50875 617.21293 L 799.35308 617.21293 L 799.35308 612.01325 L 817.79692 612.01325 L 817.79692 617.21293 L 836.64124 617.21293 L 836.64124 612.01325 L 855.08508 612.01325 L 855.08508 617.21293 L 873.92889 617.21293 L 873.92889 612.01325 L 892.37376 612.01325 L 892.37376 617.21293 L 911.21809 617.21293 L 911.21809 612.01325 L 929.66192 612.01325 L 929.66192 617.21293 L 948.50625 617.21293 L 948.50625 612.01325 L 967.15007 612.01325 L 967.15007 600.38295 L 961.94987 600.38295 L 961.94987 589.15315 L 967.15007 589.15315 L 967.15007 577.52285 L 961.94987 577.52285 L 961.94987 566.29304 L 967.15007 566.29304 L 967.15007 554.66274 L 948.50625 554.66274 L 948.50625 549.46306 L 929.66192 549.46306 L 929.66192 554.66274 L 911.21809 554.66274 L 911.21809 549.46306 L 892.37376 549.46306 L 892.37376 554.66274 L 873.92889 554.66274 L 873.92889 549.46306 L 855.08508 549.46306 L 855.08508 554.66274 L 836.64124 554.66274 L 836.64124 549.46306 L 817.79692 549.46306 L 817.79692 554.66274 L 799.35308 554.66274 L 799.35308 549.46306 L 780.50875 549.46306 L 780.50875 554.66274 L 762.06492 554.66274 L 762.06492 549.46306 L 743.22111 549.46306 L 743.22111 554.66274 L 724.77624 554.66274 L 724.77624 549.46306 L 705.93191 549.46306 L 705.93191 554.66274 L 687.48807 554.66274 L 687.48807 549.46306 L 668.64375 549.46306 L 668.64375 554.66274 L 649.99992 554.66274 L 649.99992 566.29304 L 655.20012 566.29304 L 655.20012 577.52285 L 649.99992 577.52285 L 649.99992 589.15315 L 655.20012 589.15315 L 655.20012 600.38295 L 649.99992 600.38295 L 649.99992 612.01325 z M 712.55011 603.50317 L 712.55011 590.19288 L 717.5498 590.19288 L 717.5498 603.50317 L 712.55011 603.50317 z M 712.55011 576.48312 L 712.55011 563.17282 L 717.5498 563.17282 L 717.5498 576.48312 L 712.55011 576.48312 z M 774.89979 600.38295 L 774.89979 589.15315 L 779.9 589.15315 L 779.9 600.38295 L 774.89979 600.38295 z M 774.89979 577.52285 L 774.89979 566.29304 L 779.9 566.29304 L 779.9 577.52285 L 774.89979 577.52285 z M 837.24999 600.38295 L 837.24999 589.15315 L 842.2502 589.15315 L 842.2502 600.38295 L 837.24999 600.38295 z M 837.24999 577.52285 L 837.24999 566.29304 L 842.2502 566.29304 L 842.2502 577.52285 L 837.24999 577.52285 z M 899.60019 603.50317 L 899.60019 590.19288 L 904.59989 590.19288 L 904.59989 603.50317 L 899.60019 603.50317 z M 899.60019 576.48312 L 899.60019 563.17282 L 904.59989 563.17282 L 904.59989 576.48312 L 899.60019 576.48312 z "
     transform="rotate(90,650,450)" />
</svg>
