<?xml version="1.0" encoding="UTF-8" standalone="no"?>
<svg
   width="1300mm"
   height="900mm"
   viewBox="0 0 1300 900"
   version="1.1"
   id="svg35"
   sodipodi:docname="5CompSpraypaint.svg"
   inkscape:version="1.3.2 (091e20ef0f, 2023-11-25)"
   xmlns:inkscape="http://www.inkscape.org/namespaces/inkscape"
   xmlns:sodipodi="http://sodipodi.sourceforge.net/DTD/sodipodi-0.dtd"
   xmlns="http://www.w3.org/2000/svg"
   xmlns:svg="http://www.w3.org/2000/svg">
  <defs
     id="defs35" />
  <sodipodi:namedview
     id="namedview35"
     pagecolor="#505050"
     bordercolor="#eeeeee"
     borderopacity="1"
     inkscape:showpageshadow="0"
     inkscape:pageopacity="0"
     inkscape:pagecheckerboard="0"
     inkscape:deskcolor="#505050"
     inkscape:document-units="mm"
     inkscape:zoom="0.17991667"
     inkscape:cx="2339.9722"
     inkscape:cy="1603.5201"
     inkscape:window-width="1920"
     inkscape:window-height="1011"
     inkscape:window-x="0"
     inkscape:window-y="32"
     inkscape:window-maximized="1"
     inkscape:current-layer="svg35" />
  <polyline
     z="0"
     points="345.958,617.396 345.958,610.967 340.758,610.967 340.758,599.139 345.958,599.139 345.958,587.71 340.758,587.71 340.758,575.882 345.958,575.882 345.958,564.453 340.758,564.453 340.758,552.625 345.958,552.625 345.958,540.996 352.752,540.996 352.752,535.796 364.947,535.796 364.947,540.996 376.741,540.996 376.741,535.796 388.936,535.796 388.936,540.996 400.73,540.996 400.73,535.796 412.925,535.796 412.925,540.996 424.719,540.996 424.719,535.996 417.016,535.996 402.694,521.674 404.902,516.343 404.902,521.946 419.371,521.946 419.371,516.746 434.239,516.746 434.239,521.946 443.708,521.946 443.708,535.996 436.914,535.996 436.914,540.996 449,540.996 391.558,622.813 391.558,617.396 376.558,617.396 376.558,622.596 361.158,622.596 361.158,617.396 345.958,617.396"
     fill="none"
     stroke="#000000"
     stroke-width="0.1mm"
     id="polyline1"
     style="vector-effect:non-scaling-stroke;stroke-width:0.264583;stroke-dasharray:none;-inkscape-stroke:hairline;fill:none;stroke:#000000;stroke-opacity:1"
     transform="rotate(90,650,450)" />
  <path
     id="polyline2"
     style="vector-effect:non-scaling-stroke;stroke-width:0.264583;stroke-dasharray:none;-inkscape-stroke:hairline;fill:none;stroke:#000000;stroke-opacity:1"
     d="M 340.75782 516.34312 L 358.88022 516.34312 L 358.88022 511.14292 L 376.60111 511.14292 L 376.60111 516.34312 L 394.723 516.34312 L 394.723 511.14292 L 412.44491 511.14292 L 412.44491 516.34312 L 430.56681 516.34312 L 430.56681 511.14292 L 448.2882 511.14292 L 448.2882 516.34312 L 466.4101 516.34312 L 466.4101 511.14292 L 484.13201 511.14292 L 484.13201 516.34312 L 502.2539 516.34312 L 502.2539 511.14292 L 519.97478 511.14292 L 519.97478 516.34312 L 538.09719 516.34312 L 538.09719 511.14292 L 555.81911 511.14292 L 555.81911 516.34312 L 573.941 516.34312 L 573.941 511.14292 L 591.66188 511.14292 L 591.66188 516.34312 L 609.78377 516.34312 L 609.78377 511.14292 L 627.50621 511.14292 L 627.50621 516.34312 L 645.6281 516.34312 L 645.6281 511.14292 L 663.34898 511.14292 L 663.34898 516.34312 L 681.47087 516.34312 L 681.47087 511.14292 L 699.19279 511.14292 L 699.19279 516.34312 L 717.31519 516.34312 L 717.31519 511.14292 L 735.03608 511.14292 L 735.03608 516.34312 L 753.15797 516.34312 L 753.15797 504.14903 L 747.95777 504.14903 L 747.95777 492.35389 L 753.15797 492.35389 L 753.15797 480.1598 L 747.95777 480.1598 L 747.95777 468.36517 L 753.15797 468.36517 L 753.15797 456.17108 L 747.95777 456.17108 L 747.95777 444.37594 L 753.15797 444.37594 L 753.15797 432.18185 L 747.95777 432.18185 L 747.95777 420.38722 L 753.15797 420.38722 L 753.15797 408.19313 L 735.03608 408.19313 L 735.03608 413.39281 L 717.31519 413.39281 L 717.31519 408.19313 L 699.19279 408.19313 L 699.19279 413.39281 L 681.47087 413.39281 L 681.47087 408.19313 L 663.34898 408.19313 L 663.34898 413.39281 L 645.6281 413.39281 L 645.6281 408.19313 L 627.50621 408.19313 L 627.50621 413.39281 L 609.78377 413.39281 L 609.78377 408.19313 L 591.66188 408.19313 L 591.66188 413.39281 L 573.941 413.39281 L 573.941 408.19313 L 555.81911 408.19313 L 555.81911 413.39281 L 538.09719 413.39281 L 538.09719 408.19313 L 519.97478 408.19313 L 519.97478 413.39281 L 502.2539 413.39281 L 502.2539 408.19313 L 484.13201 408.19313 L 484.13201 413.39281 L 466.4101 413.39281 L 466.4101 408.19313 L 448.2882 408.19313 L 448.2882 413.39281 L 430.56681 413.39281 L 430.56681 408.19313 L 412.44491 408.19313 L 412.44491 413.39281 L 394.723 413.39281 L 394.723 408.19313 L 376.60111 408.19313 L 376.60111 413.39281 L 358.88022 413.39281 L 358.88022 408.19313 L 340.75782 408.19313 L 340.75782 420.38722 L 345.95802 420.38722 L 345.95802 432.18185 L 340.75782 432.18185 L 340.75782 444.37594 L 345.95802 444.37594 L 345.95802 456.17108 L 340.75782 456.17108 L 340.75782 468.36517 L 345.95802 468.36517 L 345.95802 480.1598 L 340.75782 480.1598 L 340.75782 492.35389 L 345.95802 492.35389 L 345.95802 504.14903 L 340.75782 504.14903 L 340.75782 516.34312 z M 422.358 489.15408 L 422.358 469.11396 L 427.35822 469.11396 L 427.35822 489.15408 L 422.358 489.15408 z M 422.358 448.67283 L 422.358 428.63323 L 427.35822 428.63323 L 427.35822 448.67283 L 422.358 448.67283 z M 503.7582 490.19381 L 503.7582 471.19394 L 508.7579 471.19394 L 508.7579 490.19381 L 503.7582 490.19381 z M 503.7582 451.79305 L 503.7582 432.79318 L 508.7579 432.79318 L 508.7579 451.79305 L 503.7582 451.79305 z M 585.15789 490.19381 L 585.15789 471.19394 L 590.1581 471.19394 L 590.1581 490.19381 L 585.15789 490.19381 z M 585.15789 451.79305 L 585.15789 432.79318 L 590.1581 432.79318 L 590.1581 451.79305 L 585.15789 451.79305 z M 666.55809 489.15408 L 666.55809 469.11396 L 671.55778 469.11396 L 671.55778 489.15408 L 666.55809 489.15408 z M 666.55809 448.67283 L 666.55809 428.63323 L 671.55778 428.63323 L 671.55778 448.67283 L 666.55809 448.67283 z "
     transform="rotate(90,650,450)" />
  <polyline
     z="0"
     points="507.931,408.193 499.961,408.193 499.961,402.993 492.239,402.993 438.6,326.593 455.281,326.593 455.281,321.393 475.721,321.393 475.721,326.593 495.762,326.593 495.762,321.393 516.202,321.393 516.202,326.593 531.242,326.593 531.242,342.873 536.442,342.873 536.442,359.353 531.242,359.353 531.242,375.433 536.442,375.433 536.442,391.913 531.242,391.913 531.242,402.993 523.472,402.993 523.472,408.193 515.502,408.193 515.502,402.993 507.931,402.993 507.931,408.193"
     fill="none"
     stroke="#000000"
     stroke-width="0.1mm"
     id="polyline11"
     style="vector-effect:non-scaling-stroke;stroke-width:0.264583;stroke-dasharray:none;-inkscape-stroke:hairline;fill:none;stroke:#000000;stroke-opacity:1"
     transform="rotate(90,650,450)" />
  <polyline
     z="0"
     points="536.442,402.993 536.442,388.943 554.364,388.943 554.364,383.743 572.485,383.743 572.485,388.943 590.207,388.943 590.207,383.743 608.329,383.743 608.329,388.943 626.051,388.943 626.051,383.743 644.172,383.743 644.172,388.943 661.894,388.943 661.894,383.743 680.016,383.743 680.016,388.943 697.738,388.943 697.738,383.743 715.859,383.743 715.859,388.943 733.581,388.943 733.581,383.743 751.703,383.743 751.703,388.943 769.425,388.943 769.425,383.743 787.546,383.743 787.546,388.943 805.268,388.943 805.268,383.743 823.39,383.743 823.39,388.943 841.112,388.943 841.112,383.743 859.233,383.743 859.233,388.943 876.955,388.943 876.955,383.743 895.077,383.743 895.077,388.943 912.799,388.943 912.799,383.743 930.92,383.743 930.92,388.943 948.842,388.943 948.842,402.993 930.92,402.993 930.92,408.193 912.799,408.193 912.799,402.993 895.077,402.993 895.077,408.193 876.955,408.193 876.955,402.993 859.233,402.993 859.233,408.193 841.112,408.193 841.112,402.993 823.39,402.993 823.39,408.193 805.268,408.193 805.268,402.993 787.546,402.993 787.546,408.193 769.425,408.193 769.425,402.993 751.703,402.993 751.703,408.193 733.581,408.193 733.581,402.993 715.859,402.993 715.859,408.193 697.738,408.193 697.738,402.993 680.016,402.993 680.016,408.193 661.894,408.193 661.894,402.993 644.172,402.993 644.172,408.193 626.051,408.193 626.051,402.993 608.329,402.993 608.329,408.193 590.207,408.193 590.207,402.993 572.485,402.993 572.485,408.193 554.364,408.193 554.364,402.993 536.442,402.993"
     fill="none"
     stroke="#000000"
     stroke-width="0.1mm"
     id="polyline12"
     style="vector-effect:non-scaling-stroke;stroke-width:0.264583;stroke-dasharray:none;-inkscape-stroke:hairline;fill:none;stroke:#000000;stroke-opacity:1"
     transform="rotate(90,650,450)" />
  <path
     id="polyline13"
     style="vector-effect:non-scaling-stroke;stroke-width:0.264583;stroke-dasharray:none;-inkscape-stroke:hairline;fill:none;stroke:#000000;stroke-opacity:1"
     d="M 536.442 383.74294 L 948.84215 383.74294 L 948.84215 368.34285 L 943.64195 368.34285 L 943.64195 353.34325 L 948.84215 353.34325 L 948.84215 337.94316 L 930.92024 337.94316 L 930.92024 332.74296 L 912.79887 332.74296 L 912.79887 337.94316 L 895.07695 337.94316 L 895.07695 332.74296 L 876.95506 332.74296 L 876.95506 337.94316 L 859.23315 337.94316 L 859.23315 332.74296 L 841.11177 332.74296 L 841.11177 337.94316 L 823.38986 337.94316 L 823.38986 332.74296 L 805.26796 332.74296 L 805.26796 337.94316 L 787.54605 337.94316 L 787.54605 332.74296 L 769.42519 332.74296 L 769.42519 337.94316 L 751.70276 337.94316 L 751.70276 332.74296 L 733.58087 332.74296 L 733.58087 337.94316 L 715.85895 337.94316 L 715.85895 332.74296 L 697.73809 332.74296 L 697.73809 337.94316 L 680.01618 337.94316 L 680.01618 332.74296 L 661.89377 332.74296 L 661.89377 337.94316 L 644.17185 337.94316 L 644.17185 332.74296 L 626.051 332.74296 L 626.051 337.94316 L 608.32908 337.94316 L 608.32908 332.74296 L 590.20719 332.74296 L 590.20719 337.94316 L 572.48476 337.94316 L 572.48476 332.74296 L 554.3639 332.74296 L 554.3639 337.94316 L 536.442 337.94316 L 536.442 353.34325 L 541.6422 353.34325 L 541.6422 368.34285 L 536.442 368.34285 L 536.442 383.74294 z M 618.04218 369.02395 L 618.04218 361.45387 L 623.04188 361.45387 L 623.04188 369.02395 L 618.04218 369.02395 z M 618.04218 353.48278 L 618.04218 345.91321 L 623.04188 345.91321 L 623.04188 353.48278 L 618.04218 353.48278 z M 699.44187 367.98422 L 699.44187 359.37389 L 704.44208 359.37389 L 704.44208 367.98422 L 699.44187 367.98422 z M 699.44187 350.36307 L 699.44187 341.75274 L 704.44208 341.75274 L 704.44208 350.36307 L 699.44187 350.36307 z M 780.84207 367.98422 L 780.84207 359.37389 L 785.84176 359.37389 L 785.84176 367.98422 L 780.84207 367.98422 z M 780.84207 350.36307 L 780.84207 341.75274 L 785.84176 341.75274 L 785.84176 350.36307 L 780.84207 350.36307 z M 862.24175 369.02395 L 862.24175 361.45387 L 867.24196 361.45387 L 867.24196 369.02395 L 862.24175 369.02395 z M 862.24175 353.48278 L 862.24175 345.91321 L 867.24196 345.91321 L 867.24196 353.48278 L 862.24175 353.48278 z "
     transform="rotate(90,650,450)" />
  <polyline
     z="0"
     points="627.506,321.393 627.506,316.193 609.784,316.193 609.784,321.393 591.662,321.393 591.662,316.193 573.941,316.193 573.941,321.393 555.819,321.393 555.819,316.193 538.097,316.193 538.097,321.393 519.975,321.393 519.975,316.193 502.254,316.193 502.254,321.393 484.132,321.393 484.132,316.193 466.41,316.193 466.41,321.393 448.288,321.393 448.288,316.193 430.567,316.193 430.567,321.393 412.445,321.393 412.445,316.193 394.723,316.193 394.723,321.393 376.601,321.393 376.601,316.193 358.88,316.193 358.88,321.393 340.758,321.393 340.758,306.524 345.958,306.524 345.958,292.056 340.758,292.056 340.758,277.187 753.158,277.187 753.158,292.056 747.958,292.056 747.958,306.524 753.158,306.524 753.158,321.393 735.036,321.393 735.036,316.193 717.315,316.193 717.315,321.393 699.193,321.393 699.193,316.193 681.471,316.193 681.471,321.393 663.349,321.393 663.349,316.193 645.628,316.193 645.628,321.393 627.506,321.393"
     fill="none"
     stroke="#000000"
     stroke-width="0.1mm"
     id="polyline22"
     style="vector-effect:non-scaling-stroke;stroke-width:0.264583;stroke-dasharray:none;-inkscape-stroke:hairline;fill:none;stroke:#000000;stroke-opacity:1"
     transform="rotate(90,650,450)" />
  <polyline
     z="0"
     points="758.45,415.477 767.919,415.477 767.919,410.277 782.787,410.277 782.787,415.477 797.256,415.477 797.256,409.874 799.464,415.204 785.141,429.527 777.439,429.527 777.439,434.527 789.233,434.527 789.233,429.327 801.428,429.327 801.428,434.527 813.222,434.527 813.222,429.327 825.417,429.327 825.417,434.527 837.211,434.527 837.211,429.327 849.406,429.327 849.406,434.527 856.2,434.527 856.2,446.156 861.4,446.156 861.4,457.984 856.2,457.984 856.2,469.413 861.4,469.413 861.4,481.241 856.2,481.241 856.2,492.67 861.4,492.67 861.4,504.498 856.2,504.498 856.2,510.927 841,510.927 841,516.127 825.6,516.127 825.6,510.927 810.6,510.927 810.6,516.343 753.158,434.527 765.244,434.527 765.244,429.527 758.45,429.527 758.45,415.477"
     fill="none"
     stroke="#000000"
     stroke-width="0.1mm"
     id="polyline23"
     style="vector-effect:non-scaling-stroke;stroke-width:0.264583;stroke-dasharray:none;-inkscape-stroke:hairline;fill:none;stroke:#000000;stroke-opacity:1"
     transform="rotate(90,650,450)" />
  <polyline
     z="0"
     points="861.4,445.823 866.6,445.823 866.6,434.743 885.8,434.743 885.8,429.543 905.2,429.543 905.2,434.743 924.201,434.743 924.201,429.543 943.601,429.543 943.601,434.743 959.242,434.743 905.603,511.143 896.841,511.143 896.841,516.343 887.831,516.343 887.831,511.143 879.22,511.143 879.22,516.343 870.21,516.343 870.21,511.143 866.6,511.143 866.6,494.863 861.4,494.863 861.4,478.383 866.6,478.383 866.6,462.303 861.4,462.303 861.4,445.823"
     fill="none"
     stroke="#000000"
     stroke-width="0.1mm"
     id="polyline24"
     style="vector-effect:non-scaling-stroke;stroke-width:0.264583;stroke-dasharray:none;-inkscape-stroke:hairline;fill:none;stroke:#000000;stroke-opacity:1"
     transform="rotate(90,650,450)" />
  <path
     id="polyline25"
     style="vector-effect:non-scaling-stroke;stroke-width:0.264583;stroke-dasharray:none;-inkscape-stroke:hairline;fill:none;stroke:#000000;stroke-opacity:1"
     d="M 448.99979 622.81311 L 467.1222 622.81311 L 467.1222 617.61291 L 484.84308 617.61291 L 484.84308 622.81311 L 502.96497 622.81311 L 502.96497 617.61291 L 520.68689 617.61291 L 520.68689 622.81311 L 538.80878 622.81311 L 538.80878 617.61291 L 556.53018 617.61291 L 556.53018 622.81311 L 574.65207 622.81311 L 574.65207 617.61291 L 592.37398 617.61291 L 592.37398 622.81311 L 610.49587 622.81311 L 610.49587 617.61291 L 628.21676 617.61291 L 628.21676 622.81311 L 646.33916 622.81311 L 646.33916 617.61291 L 664.06108 617.61291 L 664.06108 622.81311 L 682.18297 622.81311 L 682.18297 617.61291 L 699.90385 617.61291 L 699.90385 622.81311 L 718.02574 622.81311 L 718.02574 617.61291 L 735.74818 617.61291 L 735.74818 622.81311 L 753.87007 622.81311 L 753.87007 617.61291 L 771.59095 617.61291 L 771.59095 622.81311 L 789.71284 622.81311 L 789.71284 617.61291 L 807.43476 617.61291 L 807.43476 622.81311 L 825.55717 622.81311 L 825.55717 617.61291 L 843.27805 617.61291 L 843.27805 622.81311 L 861.39994 622.81311 L 861.39994 610.98385 L 856.20026 610.98385 L 856.20026 599.55613 L 861.39994 599.55613 L 861.39994 587.72688 L 856.20026 587.72688 L 856.20026 576.29915 L 861.39994 576.29915 L 861.39994 564.4699 L 856.20026 564.4699 L 856.20026 553.04217 L 861.39994 553.04217 L 861.39994 541.21292 L 843.47804 541.21292 L 843.47804 536.01324 L 825.35718 536.01324 L 825.35718 541.21292 L 807.63475 541.21292 L 807.63475 536.01324 L 789.51285 536.01324 L 789.51285 541.21292 L 771.79094 541.21292 L 771.79094 536.01324 L 753.67008 536.01324 L 753.67008 541.21292 L 735.94816 541.21292 L 735.94816 536.01324 L 717.82576 536.01324 L 717.82576 541.21292 L 700.10384 541.21292 L 700.10384 536.01324 L 681.98298 536.01324 L 681.98298 541.21292 L 664.26107 541.21292 L 664.26107 536.01324 L 646.13918 536.01324 L 646.13918 541.21292 L 628.41674 541.21292 L 628.41674 536.01324 L 610.29589 536.01324 L 610.29589 541.21292 L 592.57397 541.21292 L 592.57397 536.01324 L 574.45208 536.01324 L 574.45208 541.21292 L 556.73016 541.21292 L 556.73016 536.01324 L 538.60879 536.01324 L 538.60879 541.21292 L 520.88687 541.21292 L 520.88687 536.01324 L 502.76498 536.01324 L 502.76498 541.21292 L 485.04307 541.21292 L 485.04307 536.01324 L 466.92221 536.01324 L 466.92221 541.21292 L 448.99979 541.21292 L 448.99979 553.04217 L 454.19999 553.04217 L 454.19999 564.4699 L 448.99979 564.4699 L 448.99979 576.29915 L 454.19999 576.29915 L 454.19999 587.72688 L 448.99979 587.72688 L 448.99979 599.55613 L 454.19999 599.55613 L 454.19999 610.98385 L 448.99979 610.98385 L 448.99979 622.81311 z M 530.59998 606.33298 L 530.59998 590.25282 L 535.60019 590.25282 L 535.60019 606.33298 L 530.59998 606.33298 z M 530.59998 573.77321 L 530.59998 557.69305 L 535.60019 557.69305 L 535.60019 573.77321 L 530.59998 573.77321 z M 612.00017 601.13278 L 612.00017 585.05314 L 616.99987 585.05314 L 616.99987 601.13278 L 612.00017 601.13278 z M 612.00017 568.57301 L 612.00017 552.49285 L 616.99987 552.49285 L 616.99987 568.57301 L 612.00017 568.57301 z M 693.39986 601.13278 L 693.39986 585.05314 L 698.40007 585.05314 L 698.40007 601.13278 L 693.39986 601.13278 z M 693.39986 568.57301 L 693.39986 552.49285 L 698.40007 552.49285 L 698.40007 568.57301 L 693.39986 568.57301 z M 774.80006 606.33298 L 774.80006 590.25282 L 779.79975 590.25282 L 779.79975 606.33298 L 774.80006 606.33298 z M 774.80006 573.77321 L 774.80006 557.69305 L 779.79975 557.69305 L 779.79975 573.77321 L 774.80006 573.77321 z "
     transform="rotate(90,650,450)" />
  <polyline
     z="0"
     points="425.63,408.193 417.66,408.193 417.66,402.993 410.089,402.993 410.089,408.193 402.119,408.193 402.119,402.993 394.397,402.993 340.758,326.593 357.439,326.593 357.439,321.393 377.879,321.393 377.879,326.593 397.92,326.593 397.92,321.393 418.36,321.393 418.36,326.593 433.4,326.593 433.4,342.873 438.6,342.873 438.6,359.353 433.4,359.353 433.4,375.433 438.6,375.433 438.6,391.913 433.4,391.913 433.4,402.993 425.63,402.993 425.63,408.193"
     fill="none"
     stroke="#000000"
     stroke-width="0.1mm"
     id="polyline34"
     style="vector-effect:non-scaling-stroke;stroke-width:0.264583;stroke-dasharray:none;-inkscape-stroke:hairline;fill:none;stroke:#000000;stroke-opacity:1"
     transform="rotate(90,650,450)" />
  <polyline
     z="0"
     points="861.4,552.293 866.6,552.293 866.6,541.213 885.8,541.213 885.8,536.013 905.2,536.013 905.2,541.213 924.201,541.213 924.201,536.013 943.601,536.013 943.601,541.213 959.242,541.213 905.603,617.613 896.841,617.613 896.841,622.813 887.831,622.813 887.831,617.613 879.22,617.613 879.22,622.813 870.21,622.813 870.21,617.613 866.6,617.613 866.6,601.333 861.4,601.333 861.4,584.853 866.6,584.853 866.6,568.773 861.4,568.773 861.4,552.293"
     fill="none"
     stroke="#000000"
     stroke-width="0.1mm"
     id="polyline35"
     style="vector-effect:non-scaling-stroke;stroke-width:0.264583;stroke-dasharray:none;-inkscape-stroke:hairline;fill:none;stroke:#000000;stroke-opacity:1"
     transform="rotate(90,650,450)" />
</svg>
