<?xml version="1.0" encoding="UTF-8" standalone="no"?>
<svg
   width="1300mm"
   height="900mm"
   viewBox="0 0 1300 900"
   version="1.1"
   id="svg16"
   sodipodi:docname="6comp12x5.svg"
   inkscape:version="1.3.2 (091e20ef0f, 2023-11-25)"
   xmlns:inkscape="http://www.inkscape.org/namespaces/inkscape"
   xmlns:sodipodi="http://sodipodi.sourceforge.net/DTD/sodipodi-0.dtd"
   xmlns="http://www.w3.org/2000/svg"
   xmlns:svg="http://www.w3.org/2000/svg">
  <defs
     id="defs16" />
  <sodipodi:namedview
     id="namedview16"
     pagecolor="#505050"
     bordercolor="#eeeeee"
     borderopacity="1"
     inkscape:showpageshadow="0"
     inkscape:pageopacity="0"
     inkscape:pagecheckerboard="0"
     inkscape:deskcolor="#505050"
     inkscape:document-units="mm"
     inkscape:zoom="0.081715545"
     inkscape:cx="-189.68239"
     inkscape:cy="4056.7557"
     inkscape:window-width="1920"
     inkscape:window-height="1011"
     inkscape:window-x="0"
     inkscape:window-y="32"
     inkscape:window-maximized="1"
     inkscape:current-layer="svg16" />
  <path
     id="polyline1"
     d="m 488.58956,661.3199 v 5.2002 h -10.06708 v 9.99991 h -5.2002 v 10.19989 h 5.2002 v 9.79992 h -5.87613 l 133.07621,34.88004 v -12.95993 h 5.00019 v 12.92997 h 14.0498 v -14.66887 h 5.2002 V 701.8332 h -5.2002 v -14.46889 h 5.60271 l -5.3299,-2.20813 -14.3226,14.32315 v 5.83065 h -5.0002 v -12.72997 h 5.2002 v -13.12995 h -5.2002 V 666.5201 h -10.0671 v -5.2002 h -15.46585 v 5.2002 h -15.06725 v -5.2002 H 549.6556 v 5.2002 h -5.03328 v 14.04204 h -4.99969 V 666.5201 h -5.03329 v -5.2002 h -15.46676 v 5.2002 h -15.06729 v -5.2002 z m 51.03306,33.48323 h 4.99969 v 13.84205 h -4.99969 z"
     style="vector-effect:non-scaling-stroke;fill:none;stroke:#000000;stroke-width:0.264583;stroke-dasharray:none;stroke-opacity:1;-inkscape-stroke:hairline" />
  <polyline
     z="0"
     points="369.64,611.679 388.181,611.679 388.181,606.479 406.922,606.479 406.922,611.679 425.264,611.679 425.264,606.479 444.005,606.479 444.005,611.679 462.346,611.679 462.346,606.479 481.087,606.479 481.087,611.679 499.428,611.679 499.428,606.479 518.169,606.479 518.169,611.679 536.511,611.679 536.511,606.479 555.252,606.479 555.252,611.679 573.593,611.679 573.593,606.479 592.334,606.479 592.334,611.679 610.675,611.679 610.675,606.479 629.416,606.479 629.416,611.679 647.758,611.679 647.758,606.479 666.499,606.479 666.499,611.679 685.04,611.679 685.04,624.809 679.84,624.809 679.84,637.539 685.04,637.539 685.04,650.669 679.84,650.669 679.84,663.399 685.04,663.399 685.04,676.529 666.299,676.529 666.299,671.329 647.958,671.329 647.958,676.529 629.216,676.529 629.216,671.329 610.875,671.329 610.875,676.529 592.134,676.529 592.134,671.329 573.793,671.329 573.793,676.529 555.052,676.529 555.052,671.329 536.711,671.329 536.711,676.529 517.969,676.529 517.969,671.329 499.628,671.329 499.628,676.529 480.887,676.529 480.887,671.329 462.546,671.329 462.546,676.529 443.805,676.529 443.805,671.329 425.464,671.329 425.464,676.529 406.722,676.529 406.722,671.329 388.381,671.329 388.381,676.529 369.64,676.529 369.64,663.399 374.84,663.399 374.84,650.669 369.64,650.669 369.64,637.539 374.84,637.539 374.84,624.809 369.64,624.809 369.64,611.679"
     fill="none"
     stroke="#000000"
     stroke-width="0.1mm"
     id="polyline3"
     transform="matrix(0,1,1,0,-108.70672,-339.12048)"
     style="vector-effect:non-scaling-stroke;fill:none;stroke:#000000;stroke-width:0.264583;stroke-dasharray:none;stroke-opacity:1;-inkscape-stroke:hairline" />
  <polyline
     z="0"
     points="369.64,606.479 369.64,596.279 374.84,596.279 374.84,586.479 369.64,586.479 369.64,576.279 388.181,576.279 388.181,571.079 406.922,571.079 406.922,576.279 425.264,576.279 425.264,571.079 444.005,571.079 444.005,576.279 462.346,576.279 462.346,571.079 481.087,571.079 481.087,576.279 499.428,576.279 499.428,571.079 518.169,571.079 518.169,576.279 536.511,576.279 536.511,571.079 555.252,571.079 555.252,576.279 573.593,576.279 573.593,571.079 592.334,571.079 592.334,576.279 610.675,576.279 610.675,571.079 629.416,571.079 629.416,576.279 647.758,576.279 647.758,571.079 666.499,571.079 666.499,576.279 685.04,576.279 685.04,586.479 679.84,586.479 679.84,596.279 685.04,596.279 685.04,606.479 369.64,606.479"
     fill="none"
     stroke="#000000"
     stroke-width="0.1mm"
     id="polyline4"
     transform="rotate(90,868.77657,529.65606)"
     style="vector-effect:non-scaling-stroke;fill:none;stroke:#000000;stroke-width:0.264583;stroke-dasharray:none;stroke-opacity:1;-inkscape-stroke:hairline" />
  <polyline
     z="0"
     points="369.64,571.079 369.64,556.21 374.84,556.21 374.84,541.742 369.64,541.742 369.64,526.873 685.04,526.873 685.04,541.742 679.84,541.742 679.84,556.21 685.04,556.21 685.04,571.079 666.299,571.079 666.299,565.879 647.958,565.879 647.958,571.079 629.216,571.079 629.216,565.879 610.875,565.879 610.875,571.079 592.134,571.079 592.134,565.879 573.793,565.879 573.793,571.079 555.052,571.079 555.052,565.879 536.711,565.879 536.711,571.079 517.969,571.079 517.969,565.879 499.628,565.879 499.628,571.079 480.887,571.079 480.887,565.879 462.546,565.879 462.546,571.079 443.805,571.079 443.805,565.879 425.464,565.879 425.464,571.079 406.722,571.079 406.722,565.879 388.381,565.879 388.381,571.079 369.64,571.079"
     fill="none"
     stroke="#000000"
     stroke-width="0.1mm"
     id="polyline5"
     transform="rotate(90,807.81107,468.69057)"
     style="vector-effect:non-scaling-stroke;fill:none;stroke:#000000;stroke-width:0.264583;stroke-dasharray:none;stroke-opacity:1;-inkscape-stroke:hairline" />
  <path
     id="polyline6"
     d="m 567.82228,30.519515 v 18.74098 h 5.20019 v 18.341 h -5.20019 v 18.74201 h 5.20019 v 18.341005 h -5.20019 v 18.74097 h 5.20019 v 18.341 h -5.20019 v 18.74097 h 5.20019 v 18.341 h -5.20019 v 18.74201 h 5.20019 v 18.341 h -5.20019 v 18.74149 h 5.20019 v 18.341 h -5.20019 v 18.74098 h 5.20019 v 18.341 h -5.20019 v 18.74201 h 5.20019 v 18.341 h -5.20019 v 18.74097 h 15.46727 v -5.2002 h 15.0658 v 5.2002 h 15.4672 v -5.2002 h 15.06681 v 5.2002 h 15.4663 v -5.2002 h 15.0667 v 5.2002 h 15.4673 v -5.2002 h 15.0658 v 5.2002 h 15.4672 v -18.74097 h -5.2002 v -18.341 h 5.2002 v -18.74201 h -5.2002 v -18.341 h 5.2002 v -18.74099 h -5.2002 v -18.341 h 5.2002 v -18.74149 h -5.2002 v -18.341 h 5.2002 v -18.74201 h -5.2002 v -18.34099 h 5.2002 v -18.74098 h -5.2002 v -18.341 h 5.2002 v -18.74096 h -5.2002 V 86.343505 h 5.2002 v -18.74201 h -5.2002 v -18.341 h 5.2002 v -18.74098 h -15.4672 v 5.2002 h -15.0658 v -5.2002 h -15.4673 v 5.2002 h -15.0667 v -5.2002 h -15.4663 v 5.2002 h -15.06681 v -5.2002 h -15.4672 v 5.2002 h -15.0658 v -5.2002 z m 25.70027,103.533215 h 20.10001 v 5.00021 h -20.10001 z m 66.0998,0 h 20.1001 v 5.00021 h -20.1001 z m -66.0998,103.33375 h 20.10001 v 5.00022 h -20.10001 z m 66.0998,0 h 20.1001 v 5.00022 h -20.1001 z"
     style="vector-effect:non-scaling-stroke;fill:none;stroke:#000000;stroke-width:0.264583;stroke-dasharray:none;stroke-opacity:1;-inkscape-stroke:hairline" />
  <path
     id="polyline11"
     d="m 763.45086,702.98154 -133.0756,34.88005 h 5.87559 v 9.79991 h -5.1997 v 10.20042 h 5.1997 v 9.9999 h 10.0671 v 5.19968 h 15.46631 v -5.19968 h 15.06669 v 5.19968 h 15.46731 v -5.19968 h 5.03279 v -14.04204 h 5.0002 v 14.04204 h 5.0328 v 5.19968 h 15.4672 v -5.19968 h 15.0668 v 5.19968 h 15.4662 v -5.19968 h 10.0666 v -12.92996 h 5.2002 v -13.12995 h -5.2002 v -12.72996 h 5.0002 v 5.83065 l 14.3221,14.32316 5.331,-2.20813 h -5.6033 v -14.46889 h 5.2002 v -14.86783 h -5.2002 v -14.66939 h -14.0498 v 12.92996 h -5.0002 z m -66.0998,22.7552 h 5.0002 v 13.84205 h -5.0002 z"
     style="vector-effect:non-scaling-stroke;fill:none;stroke:#000000;stroke-width:0.264583;stroke-dasharray:none;stroke-opacity:1;-inkscape-stroke:hairline" />
  <polyline
     z="0"
     points="620.16,391.6 679.84,391.6 663.825,452.7 641.423,452.7 641.423,457.7 662.515,457.7 646.5,518.8 620.16,518.8 620.16,498.5 614.96,498.5 614.96,478 620.16,478 620.16,432.4 614.96,432.4 614.96,411.9 620.16,411.9 620.16,391.6"
     fill="none"
     stroke="#000000"
     stroke-width="0.1mm"
     id="polyline13"
     transform="rotate(90,416.67242,574.77392)"
     style="vector-effect:non-scaling-stroke;fill:none;stroke:#000000;stroke-width:0.264583;stroke-dasharray:none;stroke-opacity:1;-inkscape-stroke:hairline" />
  <polyline
     z="0"
     points="679.84,391.6 739.519,391.6 739.519,411.9 744.719,411.9 744.719,432.4 739.519,432.4 739.519,478 744.719,478 744.719,498.5 739.519,498.5 739.519,518.8 713.179,518.8 697.165,457.7 718.256,457.7 718.256,452.7 695.854,452.7 679.84,391.6"
     fill="none"
     stroke="#000000"
     stroke-width="0.1mm"
     id="polyline14"
     transform="rotate(90,496.94242,621.70393)"
     style="vector-effect:non-scaling-stroke;fill:none;stroke:#000000;stroke-width:0.264583;stroke-dasharray:none;stroke-opacity:1;-inkscape-stroke:hairline" />
  <path
     id="polyline1-9"
     d="m 772.16096,661.3199 v 5.2002 h 10.0671 v 9.99991 h 5.2002 v 10.19989 h -5.2002 v 9.79992 h 5.87609 l -133.0761,34.88004 v -12.95993 h -5.00019 v 12.92997 h -14.0498 v -14.66887 h -5.2002 V 701.8332 h 5.2002 v -14.46889 h -5.6028 l 5.32989,-2.20813 14.32271,14.32315 v 5.83065 h 5.00019 v -12.72997 h -5.2002 v -13.12995 h 5.2002 V 666.5201 h 10.0671 v -5.2002 h 15.4657 v 5.2002 h 15.0673 v -5.2002 h 15.4666 v 5.2002 h 5.0334 v 14.04204 h 4.9997 V 666.5201 h 5.0333 v -5.2002 h 15.46681 v 5.2002 h 15.06719 v -5.2002 z m -51.0331,33.48323 h -4.9997 v 13.84205 h 4.9997 z"
     style="vector-effect:non-scaling-stroke;fill:none;stroke:#000000;stroke-width:0.264583;stroke-dasharray:none;stroke-opacity:1;-inkscape-stroke:hairline" />
  <path
     id="polyline11-7"
     d="m 497.29962,702.98154 133.07563,34.88005 h -5.8756 v 9.79991 h 5.1997 v 10.20042 h -5.1997 v 9.9999 h -10.0671 v 5.19968 h -15.46619 v -5.19968 h -15.06681 v 5.19968 h -15.46732 v -5.19968 h -5.03277 v -14.04204 h -5.00021 v 14.04204 h -5.03277 v 5.19968 h -15.46727 v -5.19968 h -15.06677 v 5.19968 H 507.3662 v -5.19968 h -10.06657 v -12.92996 h -5.2002 v -13.12995 h 5.2002 v -12.72996 h -5.00021 v 5.83065 l -14.32212,14.32316 -5.33095,-2.20813 h 5.60328 v -14.46889 h -5.2002 v -14.86783 h 5.2002 v -14.66939 h 14.04979 v 12.92996 h 5.00021 z m 66.09984,22.7552 h -5.00021 v 13.84205 h 5.00021 z"
     style="vector-effect:non-scaling-stroke;fill:none;stroke:#000000;stroke-width:0.264583;stroke-dasharray:none;stroke-opacity:1;-inkscape-stroke:hairline" />
  <polyline
     z="0"
     points="620.16,391.6 679.84,391.6 663.825,452.7 641.423,452.7 641.423,457.7 662.515,457.7 646.5,518.8 620.16,518.8 620.16,498.5 614.96,498.5 614.96,478 620.16,478 620.16,432.4 614.96,432.4 614.96,411.9 620.16,411.9 620.16,391.6"
     fill="none"
     stroke="#000000"
     stroke-width="0.1mm"
     id="polyline13-7"
     transform="matrix(0,1,1,0,208.24633,158.1015)"
     style="vector-effect:non-scaling-stroke;fill:none;stroke:#000000;stroke-width:0.264583;stroke-dasharray:none;stroke-opacity:1;-inkscape-stroke:hairline" />
  <polyline
     z="0"
     points="679.84,391.6 739.519,391.6 739.519,411.9 744.719,411.9 744.719,432.4 739.519,432.4 739.519,478 744.719,478 744.719,498.5 739.519,498.5 739.519,518.8 713.179,518.8 697.165,457.7 718.256,457.7 718.256,452.7 695.854,452.7 679.84,391.6"
     fill="none"
     stroke="#000000"
     stroke-width="0.1mm"
     id="polyline14-6"
     transform="matrix(0,1,1,0,81.046345,124.76151)"
     style="vector-effect:non-scaling-stroke;fill:none;stroke:#000000;stroke-width:0.264583;stroke-dasharray:none;stroke-opacity:1;-inkscape-stroke:hairline" />
  <polyline
     z="0"
     points="685.04,609.754 788.573,609.754 788.573,630.817 793.573,630.817 793.573,609.754 891.907,609.754 891.907,630.817 896.907,630.817 896.907,609.754 1000.44,609.754 1000.44,623.996 995.24,623.996 995.24,637.838 1000.44,637.838 1000.44,652.079 685.04,652.079 685.04,637.838 690.24,637.838 690.24,623.996 685.04,623.996 685.04,609.754"
     fill="none"
     stroke="#000000"
     stroke-width="0.1mm"
     id="polyline15"
     transform="rotate(90,1028.1141,373.59356)"
     style="vector-effect:non-scaling-stroke;fill:none;stroke:#000000;stroke-width:0.264583;stroke-dasharray:none;stroke-opacity:1;-inkscape-stroke:hairline" />
  <polyline
     z="0"
     points="698.381,652.079 717.122,652.079 717.122,657.279 735.464,657.279 735.464,652.079 754.205,652.079 754.205,657.279 772.546,657.279 772.546,652.079 791.287,652.079 791.287,657.279 809.628,657.279 809.628,652.079 828.369,652.079 828.369,657.279 846.711,657.279 846.711,652.079 865.452,652.079 865.452,657.279 883.793,657.279 883.793,652.079 902.534,652.079 902.534,657.279 920.875,657.279 920.875,652.079 939.616,652.079 939.616,657.279 957.958,657.279 957.958,652.079 976.699,652.079 976.699,657.279 990.04,657.279 990.04,671.329 976.699,671.329 976.699,676.529 957.958,676.529 957.958,671.329 939.616,671.329 939.616,676.529 920.875,676.529 920.875,671.329 902.534,671.329 902.534,676.529 883.793,676.529 883.793,671.329 865.452,671.329 865.452,676.529 846.711,676.529 846.711,671.329 828.369,671.329 828.369,676.529 809.628,676.529 809.628,671.329 791.287,671.329 791.287,676.529 772.546,676.529 772.546,671.329 754.205,671.329 754.205,676.529 735.464,676.529 735.464,671.329 717.122,671.329 717.122,676.529 698.381,676.529 698.381,671.329 685.04,671.329 685.04,657.279 698.381,657.279 698.381,652.079"
     fill="none"
     stroke="#000000"
     stroke-width="0.1mm"
     id="polyline16"
     transform="rotate(90,899.58586,250.26539)"
     style="vector-effect:non-scaling-stroke;fill:none;stroke:#000000;stroke-width:0.264583;stroke-dasharray:none;stroke-opacity:1;-inkscape-stroke:hairline" />
  <polyline
     z="0"
     points="369.64,611.679 388.181,611.679 388.181,606.479 406.922,606.479 406.922,611.679 425.264,611.679 425.264,606.479 444.005,606.479 444.005,611.679 462.346,611.679 462.346,606.479 481.087,606.479 481.087,611.679 499.428,611.679 499.428,606.479 518.169,606.479 518.169,611.679 536.511,611.679 536.511,606.479 555.252,606.479 555.252,611.679 573.593,611.679 573.593,606.479 592.334,606.479 592.334,611.679 610.675,611.679 610.675,606.479 629.416,606.479 629.416,611.679 647.758,611.679 647.758,606.479 666.499,606.479 666.499,611.679 685.04,611.679 685.04,624.809 679.84,624.809 679.84,637.539 685.04,637.539 685.04,650.669 679.84,650.669 679.84,663.399 685.04,663.399 685.04,676.529 666.299,676.529 666.299,671.329 647.958,671.329 647.958,676.529 629.216,676.529 629.216,671.329 610.875,671.329 610.875,676.529 592.134,676.529 592.134,671.329 573.793,671.329 573.793,676.529 555.052,676.529 555.052,671.329 536.711,671.329 536.711,676.529 517.969,676.529 517.969,671.329 499.628,671.329 499.628,676.529 480.887,676.529 480.887,671.329 462.546,671.329 462.546,676.529 443.805,676.529 443.805,671.329 425.464,671.329 425.464,676.529 406.722,676.529 406.722,671.329 388.381,671.329 388.381,676.529 369.64,676.529 369.64,663.399 374.84,663.399 374.84,650.669 369.64,650.669 369.64,637.539 374.84,637.539 374.84,624.809 369.64,624.809 369.64,611.679"
     fill="none"
     stroke="#000000"
     stroke-width="0.1mm"
     id="polyline3-6"
     transform="matrix(0,1,1,0,-108.70672,-23.720095)"
     style="vector-effect:non-scaling-stroke;fill:none;stroke:#000000;stroke-width:0.264583;stroke-dasharray:none;stroke-opacity:1;-inkscape-stroke:hairline" />
  <polyline
     z="0"
     points="369.64,606.479 369.64,596.279 374.84,596.279 374.84,586.479 369.64,586.479 369.64,576.279 388.181,576.279 388.181,571.079 406.922,571.079 406.922,576.279 425.264,576.279 425.264,571.079 444.005,571.079 444.005,576.279 462.346,576.279 462.346,571.079 481.087,571.079 481.087,576.279 499.428,576.279 499.428,571.079 518.169,571.079 518.169,576.279 536.511,576.279 536.511,571.079 555.252,571.079 555.252,576.279 573.593,576.279 573.593,571.079 592.334,571.079 592.334,576.279 610.675,576.279 610.675,571.079 629.416,571.079 629.416,576.279 647.758,576.279 647.758,571.079 666.499,571.079 666.499,576.279 685.04,576.279 685.04,586.479 679.84,586.479 679.84,596.279 685.04,596.279 685.04,606.479 369.64,606.479"
     fill="none"
     stroke="#000000"
     stroke-width="0.1mm"
     id="polyline4-0"
     transform="rotate(90,711.07637,687.35628)"
     style="vector-effect:non-scaling-stroke;fill:none;stroke:#000000;stroke-width:0.264583;stroke-dasharray:none;stroke-opacity:1;-inkscape-stroke:hairline" />
  <polyline
     z="0"
     points="369.64,571.079 369.64,556.21 374.84,556.21 374.84,541.742 369.64,541.742 369.64,526.873 685.04,526.873 685.04,541.742 679.84,541.742 679.84,556.21 685.04,556.21 685.04,571.079 666.299,571.079 666.299,565.879 647.958,565.879 647.958,571.079 629.216,571.079 629.216,565.879 610.875,565.879 610.875,571.079 592.134,571.079 592.134,565.879 573.793,565.879 573.793,571.079 555.052,571.079 555.052,565.879 536.711,565.879 536.711,571.079 517.969,571.079 517.969,565.879 499.628,565.879 499.628,571.079 480.887,571.079 480.887,565.879 462.546,565.879 462.546,571.079 443.805,571.079 443.805,565.879 425.464,565.879 425.464,571.079 406.722,571.079 406.722,565.879 388.381,565.879 388.381,571.079 369.64,571.079"
     fill="none"
     stroke="#000000"
     stroke-width="0.1mm"
     id="polyline5-4"
     transform="rotate(90,650.11087,626.39076)"
     style="vector-effect:non-scaling-stroke;fill:none;stroke:#000000;stroke-width:0.264583;stroke-dasharray:none;stroke-opacity:1;-inkscape-stroke:hairline" />
  <path
     id="polyline6-8"
     d="m 567.82228,345.91991 v 18.74097 h 5.20019 v 18.34101 h -5.20019 v 18.742 h 5.20019 v 18.34101 h -5.20019 v 18.74097 h 5.20019 v 18.341 h -5.20019 v 18.74097 h 5.20019 v 18.34099 h -5.20019 v 18.74201 h 5.20019 v 18.341 h -5.20019 v 18.74149 h 5.20019 v 18.341 h -5.20019 v 18.74098 h 5.20019 v 18.341 h -5.20019 v 18.74202 h 5.20019 v 18.341 h -5.20019 v 18.74096 h 15.46727 v -5.2002 h 15.0658 v 5.2002 h 15.4672 v -5.2002 h 15.06681 v 5.2002 h 15.4663 v -5.2002 h 15.0667 v 5.2002 h 15.4673 v -5.2002 h 15.0658 v 5.2002 h 15.4672 v -18.74096 h -5.2002 v -18.341 h 5.2002 v -18.74202 h -5.2002 v -18.341 h 5.2002 v -18.74098 h -5.2002 v -18.341 h 5.2002 v -18.74149 h -5.2002 v -18.341 h 5.2002 v -18.74201 h -5.2002 v -18.34099 h 5.2002 v -18.74097 h -5.2002 v -18.341 h 5.2002 V 420.0849 h -5.2002 v -18.34101 h 5.2002 v -18.742 h -5.2002 v -18.34101 h 5.2002 v -18.74097 h -15.4672 v 5.2002 h -15.0658 v -5.2002 h -15.4673 v 5.2002 h -15.0667 v -5.2002 h -15.4663 v 5.2002 h -15.06681 v -5.2002 h -15.4672 v 5.2002 h -15.0658 v -5.2002 z m 25.70027,103.53322 h 20.10001 v 5.00021 h -20.10001 z m 66.0998,0 h 20.1001 v 5.00021 h -20.1001 z m -66.0998,103.33374 h 20.10001 v 5.00022 h -20.10001 z m 66.0998,0 h 20.1001 v 5.00022 h -20.1001 z"
     style="vector-effect:non-scaling-stroke;fill:none;stroke:#000000;stroke-width:0.264583;stroke-dasharray:none;stroke-opacity:1;-inkscape-stroke:hairline" />
  <polyline
     z="0"
     points="685.04,609.754 788.573,609.754 788.573,630.817 793.573,630.817 793.573,609.754 891.907,609.754 891.907,630.817 896.907,630.817 896.907,609.754 1000.44,609.754 1000.44,623.996 995.24,623.996 995.24,637.838 1000.44,637.838 1000.44,652.079 685.04,652.079 685.04,637.838 690.24,637.838 690.24,623.996 685.04,623.996 685.04,609.754"
     fill="none"
     stroke="#000000"
     stroke-width="0.1mm"
     id="polyline15-8"
     transform="rotate(90,870.41386,531.29377)"
     style="vector-effect:non-scaling-stroke;fill:none;stroke:#000000;stroke-width:0.264583;stroke-dasharray:none;stroke-opacity:1;-inkscape-stroke:hairline" />
  <polyline
     z="0"
     points="698.381,652.079 717.122,652.079 717.122,657.279 735.464,657.279 735.464,652.079 754.205,652.079 754.205,657.279 772.546,657.279 772.546,652.079 791.287,652.079 791.287,657.279 809.628,657.279 809.628,652.079 828.369,652.079 828.369,657.279 846.711,657.279 846.711,652.079 865.452,652.079 865.452,657.279 883.793,657.279 883.793,652.079 902.534,652.079 902.534,657.279 920.875,657.279 920.875,652.079 939.616,652.079 939.616,657.279 957.958,657.279 957.958,652.079 976.699,652.079 976.699,657.279 990.04,657.279 990.04,671.329 976.699,671.329 976.699,676.529 957.958,676.529 957.958,671.329 939.616,671.329 939.616,676.529 920.875,676.529 920.875,671.329 902.534,671.329 902.534,676.529 883.793,676.529 883.793,671.329 865.452,671.329 865.452,676.529 846.711,676.529 846.711,671.329 828.369,671.329 828.369,676.529 809.628,676.529 809.628,671.329 791.287,671.329 791.287,676.529 772.546,676.529 772.546,671.329 754.205,671.329 754.205,676.529 735.464,676.529 735.464,671.329 717.122,671.329 717.122,676.529 698.381,676.529 698.381,671.329 685.04,671.329 685.04,657.279 698.381,657.279 698.381,652.079"
     fill="none"
     stroke="#000000"
     stroke-width="0.1mm"
     id="polyline16-8"
     transform="rotate(90,741.88567,407.9656)"
     style="vector-effect:non-scaling-stroke;fill:none;stroke:#000000;stroke-width:0.264583;stroke-dasharray:none;stroke-opacity:1;-inkscape-stroke:hairline" />
</svg>
