<?xml version="1.0" encoding="UTF-8" standalone="no"?>
<svg
   width="1300mm"
   height="900mm"
   viewBox="0 0 1300 900"
   version="1.1"
   id="svg16"
   sodipodi:docname="6comp8x4.svg"
   inkscape:version="1.3.2 (091e20ef0f, 2023-11-25)"
   xmlns:inkscape="http://www.inkscape.org/namespaces/inkscape"
   xmlns:sodipodi="http://sodipodi.sourceforge.net/DTD/sodipodi-0.dtd"
   xmlns="http://www.w3.org/2000/svg"
   xmlns:svg="http://www.w3.org/2000/svg">
  <defs
     id="defs16" />
  <sodipodi:namedview
     id="namedview16"
     pagecolor="#505050"
     bordercolor="#eeeeee"
     borderopacity="1"
     inkscape:showpageshadow="0"
     inkscape:pageopacity="0"
     inkscape:pagecheckerboard="0"
     inkscape:deskcolor="#505050"
     inkscape:document-units="mm"
     inkscape:zoom="0.089958333"
     inkscape:cx="1167.207"
     inkscape:cy="2517.8323"
     inkscape:window-width="1920"
     inkscape:window-height="1011"
     inkscape:window-x="0"
     inkscape:window-y="32"
     inkscape:window-maximized="1"
     inkscape:current-layer="svg16" />
  <polyline
     z="0"
     points="334.5,607.217 334.5,594.087 339.7,594.087 339.7,581.357 334.5,581.357 334.5,568.227 339.7,568.227 339.7,555.497 334.5,555.497 334.5,542.367 350.931,542.367 350.931,537.167 367.562,537.167 367.562,542.367 383.792,542.367 383.792,537.167 400.423,537.167 400.423,542.367 416.654,542.367 416.654,537.167 433.285,537.167 433.285,542.367 449.515,542.367 449.515,537.167 466.146,537.167 466.146,542.367 482.377,542.367 482.377,537.167 499.008,537.167 499.008,542.367 515.238,542.367 515.238,537.167 531.869,537.167 531.869,542.367 548.3,542.367 548.3,555.497 543.1,555.497 543.1,568.227 548.3,568.227 548.3,581.357 543.1,581.357 543.1,594.087 548.3,594.087 548.3,607.217 531.669,607.217 531.669,602.017 515.438,602.017 515.438,607.217 498.808,607.217 498.808,602.017 482.577,602.017 482.577,607.217 465.946,607.217 465.946,602.017 449.715,602.017 449.715,607.217 433.085,607.217 433.085,602.017 416.854,602.017 416.854,607.217 400.223,607.217 400.223,602.017 383.992,602.017 383.992,607.217 367.362,607.217 367.362,602.017 351.131,602.017 351.131,607.217 334.5,607.217"
     fill="none"
     stroke="#000000"
     stroke-width="0.1mm"
     id="polyline1"
     transform="rotate(90,650,450.05833)"
     style="stroke-width:0.26458333;stroke-dasharray:none;vector-effect:non-scaling-stroke;-inkscape-stroke:hairline;fill:none;stroke:#000000;stroke-opacity:1" />
  <path
     id="polyline2"
     style="stroke-width:0.26458333;stroke-dasharray:none;vector-effect:non-scaling-stroke;-inkscape-stroke:hairline;fill:none;stroke:#000000;stroke-opacity:1"
     d="M 334.49986 537.16711 L 351.13089 537.16711 L 351.13089 531.96691 L 367.36194 531.96691 L 367.36194 537.16711 L 383.99193 537.16711 L 383.99193 531.96691 L 400.22299 531.96691 L 400.22299 537.16711 L 416.85401 537.16711 L 416.85401 531.96691 L 433.08506 531.96691 L 433.08506 537.16711 L 449.71505 537.16711 L 449.71505 531.96691 L 465.94611 531.96691 L 465.94611 537.16711 L 482.57713 537.16711 L 482.57713 531.96691 L 498.80818 531.96691 L 498.80818 537.16711 L 515.43817 537.16711 L 515.43817 531.96691 L 531.66923 531.96691 L 531.66923 537.16711 L 548.30025 537.16711 L 548.30025 524.52292 L 543.10005 524.52292 L 543.10005 512.27819 L 548.30025 512.27819 L 548.30025 499.634 L 543.10005 499.634 L 543.10005 487.38875 L 548.30025 487.38875 L 548.30025 474.74508 L 543.10005 474.74508 L 543.10005 462.49983 L 548.30025 462.49983 L 548.30025 449.85616 L 543.10005 449.85616 L 543.10005 437.61091 L 548.30025 437.61091 L 548.30025 424.96724 L 531.66923 424.96724 L 531.66923 430.16692 L 515.43817 430.16692 L 515.43817 424.96724 L 498.80818 424.96724 L 498.80818 430.16692 L 482.57713 430.16692 L 482.57713 424.96724 L 465.94611 424.96724 L 465.94611 430.16692 L 449.71505 430.16692 L 449.71505 424.96724 L 433.08506 424.96724 L 433.08506 430.16692 L 416.85401 430.16692 L 416.85401 424.96724 L 400.22299 424.96724 L 400.22299 430.16692 L 383.99193 430.16692 L 383.99193 424.96724 L 367.36194 424.96724 L 367.36194 430.16692 L 351.13089 430.16692 L 351.13089 424.96724 L 334.49986 424.96724 L 334.49986 437.61091 L 339.70006 437.61091 L 339.70006 449.85616 L 334.49986 449.85616 L 334.49986 462.49983 L 339.70006 462.49983 L 339.70006 474.74508 L 334.49986 474.74508 L 334.49986 487.38875 L 339.70006 487.38875 L 339.70006 499.634 L 334.49986 499.634 L 334.49986 512.27819 L 339.70006 512.27819 L 339.70006 524.52292 L 334.49986 524.52292 L 334.49986 537.16711 z M 404.16693 515.7002 L 404.16693 499.83399 L 409.16714 499.83399 L 409.16714 515.7002 L 404.16693 515.7002 z M 404.16693 462.29984 L 404.16693 446.43414 L 409.16714 446.43414 L 409.16714 462.29984 L 404.16693 462.29984 z M 473.63297 515.7002 L 473.63297 499.83399 L 478.63319 499.83399 L 478.63319 515.7002 L 473.63297 515.7002 z M 473.63297 462.29984 L 473.63297 446.43414 L 478.63319 446.43414 L 478.63319 462.29984 L 473.63297 462.29984 z "
     transform="rotate(90,650,450.05833)" />
  <path
     id="polyline7"
     style="stroke-width:0.26458333;stroke-dasharray:none;vector-effect:non-scaling-stroke;-inkscape-stroke:hairline;fill:none;stroke:#000000;stroke-opacity:1"
     d="M 404.58809 317.43478 L 439.47485 424.96724 L 439.47485 419.23477 L 449.27477 419.23477 L 449.27477 424.43497 L 459.47518 424.43497 L 459.47518 419.23477 L 469.47509 419.23477 L 469.47509 411.99077 L 474.67477 411.99077 L 474.67477 399.34606 L 469.47509 399.34606 L 469.47509 387.10185 L 474.67477 387.10185 L 474.67477 374.45714 L 469.47509 374.45714 L 469.47509 370.83514 L 455.43305 370.83514 L 455.43305 365.83493 L 469.47509 365.83493 L 469.47509 362.21293 L 474.67477 362.21293 L 474.67477 349.56822 L 469.47509 349.56822 L 469.47509 337.32401 L 474.67477 337.32401 L 474.67477 324.67878 L 469.47509 324.67878 L 469.47509 317.43478 L 456.54513 317.43478 L 456.54513 312.2351 L 443.41518 312.2351 L 443.41518 317.43478 L 430.68521 317.43478 L 430.68521 312.43509 L 436.51689 312.43509 L 450.83902 298.11296 L 448.63088 292.78306 L 448.63088 298.38478 L 434.162 298.38478 L 434.162 293.1851 L 419.29417 293.1851 L 419.29417 298.38478 L 404.62478 298.38478 L 404.62478 312.43509 L 417.55474 312.43509 L 417.55474 317.43478 L 404.58809 317.43478 z M 427.35001 370.83514 L 427.35001 365.83493 L 441.19206 365.83493 L 441.19206 370.83514 L 427.35001 370.83514 z "
     transform="rotate(90,650,450.05833)" />
  <path
     id="polyline9"
     style="stroke-width:0.26458333;stroke-dasharray:none;vector-effect:non-scaling-stroke;-inkscape-stroke:hairline;fill:none;stroke:#000000;stroke-opacity:1"
     d="M 334.49986 411.99077 L 339.70006 411.99077 L 339.70006 419.23477 L 349.69997 419.23477 L 349.69997 424.43497 L 359.89986 424.43497 L 359.89986 419.23477 L 369.69978 419.23477 L 369.69978 424.96724 L 404.58809 317.43478 L 391.61989 317.43478 L 391.61989 312.43509 L 404.54985 312.43509 L 404.54985 298.38478 L 389.88098 298.38478 L 389.88098 293.1851 L 375.01315 293.1851 L 375.01315 298.38478 L 360.54375 298.38478 L 360.54375 292.78306 L 358.33614 298.11296 L 372.65878 312.43509 L 378.48994 312.43509 L 378.48994 317.43478 L 365.75997 317.43478 L 365.75997 312.2351 L 352.63002 312.2351 L 352.63002 317.43478 L 339.70006 317.43478 L 339.70006 324.67878 L 334.49986 324.67878 L 334.49986 337.32401 L 339.70006 337.32401 L 339.70006 349.56822 L 334.49986 349.56822 L 334.49986 362.21293 L 339.70006 362.21293 L 339.70006 365.83493 L 353.7421 365.83493 L 353.7421 370.83514 L 339.70006 370.83514 L 339.70006 374.45714 L 334.49986 374.45714 L 334.49986 387.10185 L 339.70006 387.10185 L 339.70006 399.34606 L 334.49986 399.34606 L 334.49986 411.99077 z M 367.98309 370.83514 L 367.98309 365.83493 L 381.82514 365.83493 L 381.82514 370.83514 L 367.98309 370.83514 z "
     transform="rotate(90,650,450.05833)" />
  <polyline
     z="0"
     points="553.5,435.367 613.188,435.367 597.485,483.767 574.763,483.767 574.763,488.767 595.863,488.767 580.16,537.167 553.5,537.167 553.5,521.1 548.3,521.1 548.3,504.834 553.5,504.834 553.5,467.7 548.3,467.7 548.3,451.434 553.5,451.434 553.5,435.367"
     fill="none"
     stroke="#000000"
     stroke-width="0.1mm"
     id="polyline11"
     transform="rotate(90,650,450.05833)"
     style="stroke-width:0.26458333;stroke-dasharray:none;vector-effect:non-scaling-stroke;-inkscape-stroke:hairline;fill:none;stroke:#000000;stroke-opacity:1" />
  <polyline
     z="0"
     points="613.188,435.367 672.875,435.367 672.875,451.434 678.075,451.434 678.075,467.7 672.875,467.7 672.875,504.834 678.075,504.834 678.075,521.1 672.875,521.1 672.875,537.167 646.215,537.167 630.513,488.767 651.612,488.767 651.612,483.767 628.89,483.767 613.188,435.367"
     fill="none"
     stroke="#000000"
     stroke-width="0.1mm"
     id="polyline12"
     transform="rotate(90,650,450.05833)"
     style="stroke-width:0.26458333;stroke-dasharray:none;vector-effect:non-scaling-stroke;-inkscape-stroke:hairline;fill:none;stroke:#000000;stroke-opacity:1" />
  <polyline
     z="0"
     points="678.075,462.761 694.506,462.761 694.506,457.561 711.137,457.561 711.137,462.761 727.367,462.761 727.367,457.561 743.998,457.561 743.998,462.761 760.229,462.761 760.229,457.561 776.86,457.561 776.86,462.761 793.09,462.761 793.09,457.561 809.721,457.561 809.721,462.761 825.952,462.761 825.952,457.561 842.583,457.561 842.583,462.761 858.813,462.761 858.813,457.561 875.444,457.561 875.444,462.761 891.875,462.761 891.875,472.961 886.675,472.961 886.675,482.761 891.875,482.761 891.875,492.961 678.075,492.961 678.075,482.761 683.275,482.761 683.275,472.961 678.075,472.961 678.075,462.761"
     fill="none"
     stroke="#000000"
     stroke-width="0.1mm"
     id="polyline13"
     transform="rotate(90,650,450.05833)"
     style="stroke-width:0.26458333;stroke-dasharray:none;vector-effect:non-scaling-stroke;-inkscape-stroke:hairline;fill:none;stroke:#000000;stroke-opacity:1" />
  <polyline
     z="0"
     points="678.075,492.961 891.875,492.961 891.875,507.83 886.675,507.83 886.675,522.298 891.875,522.298 891.875,537.167 875.244,537.167 875.244,531.967 859.013,531.967 859.013,537.167 842.383,537.167 842.383,531.967 826.152,531.967 826.152,537.167 809.521,537.167 809.521,531.967 793.29,531.967 793.29,537.167 776.66,537.167 776.66,531.967 760.429,531.967 760.429,537.167 743.798,537.167 743.798,531.967 727.567,531.967 727.567,537.167 710.937,537.167 710.937,531.967 694.706,531.967 694.706,537.167 678.075,537.167 678.075,522.298 683.275,522.298 683.275,507.83 678.075,507.83 678.075,492.961"
     fill="none"
     stroke="#000000"
     stroke-width="0.1mm"
     id="polyline14"
     transform="rotate(90,650,450.05833)"
     style="stroke-width:0.26458333;stroke-dasharray:none;vector-effect:non-scaling-stroke;-inkscape-stroke:hairline;fill:none;stroke:#000000;stroke-opacity:1" />
  <polyline
     z="0"
     points="687.433,564.892 687.433,585.955 692.433,585.955 692.433,564.892 762.1,564.892 762.1,579.134 756.9,579.134 756.9,592.976 762.1,592.976 762.1,607.217 548.3,607.217 548.3,592.976 553.5,592.976 553.5,579.134 548.3,579.134 548.3,564.892 617.967,564.892 617.967,585.955 622.967,585.955 622.967,564.892 687.433,564.892"
     fill="none"
     stroke="#000000"
     stroke-width="0.1mm"
     id="polyline15"
     transform="rotate(90,650,450.05833)"
     style="stroke-width:0.26458333;stroke-dasharray:none;vector-effect:non-scaling-stroke;-inkscape-stroke:hairline;fill:none;stroke:#000000;stroke-opacity:1" />
  <polyline
     z="0"
     points="762.1,587.967 773.331,587.967 773.331,582.767 789.962,582.767 789.962,587.967 806.192,587.967 806.192,582.767 822.823,582.767 822.823,587.967 839.054,587.967 839.054,582.767 855.685,582.767 855.685,587.967 871.915,587.967 871.915,582.767 888.546,582.767 888.546,587.967 904.777,587.967 904.777,582.767 921.408,582.767 921.408,587.967 937.638,587.967 937.638,582.767 954.269,582.767 954.269,587.967 965.5,587.967 965.5,602.017 954.269,602.017 954.269,607.217 937.638,607.217 937.638,602.017 921.408,602.017 921.408,607.217 904.777,607.217 904.777,602.017 888.546,602.017 888.546,607.217 871.915,607.217 871.915,602.017 855.685,602.017 855.685,607.217 839.054,607.217 839.054,602.017 822.823,602.017 822.823,607.217 806.192,607.217 806.192,602.017 789.962,602.017 789.962,607.217 773.331,607.217 773.331,602.017 762.1,602.017 762.1,587.967"
     fill="none"
     stroke="#000000"
     stroke-width="0.1mm"
     id="polyline16"
     transform="rotate(90,650,450.05833)"
     style="stroke-width:0.26458333;stroke-dasharray:none;vector-effect:non-scaling-stroke;-inkscape-stroke:hairline;fill:none;stroke:#000000;stroke-opacity:1" />
</svg>
