<?xml version="1.0" standalone="no"?>
<!DOCTYPE svg PUBLIC "-//W3C//DTD SVG 1.1//EN" "http://www.w3.org/Graphics/SVG/1.1/DTD/svg11.dtd">
<svg width="1300mm" height="900mm" viewBox="0 0 1300 900" xmlns="http://www.w3.org/2000/svg" version="1.1">
<polyline z="0" points="467.85,669.675 467.85,646.418 462.65,646.418 462.65,622.961 467.85,622.961 467.85,599.904 462.65,599.904 462.65,576.446 467.85,576.446 467.85,553.389 462.65,553.389 462.65,529.932 467.85,529.932 467.85,511.875 490.71,511.875 490.71,506.675 513.77,506.675 513.77,511.875 536.43,511.875 536.43,506.675 559.49,506.675 559.49,511.875 582.35,511.875 582.35,529.932 587.55,529.932 587.55,553.389 582.35,553.389 582.35,576.446 587.55,576.446 587.55,599.904 582.35,599.904 582.35,622.961 587.55,622.961 587.55,646.418 582.35,646.418 582.35,669.675 467.85,669.675" fill="none" stroke="black" stroke-width="0.1mm" />
<polyline z="0" points="587.55,669.675 587.55,638.108 592.75,638.108 592.75,606.942 587.55,606.942 587.55,575.375 615.81,575.375 615.81,580.575 638.47,580.575 638.47,575.375 661.53,575.375 661.53,580.575 684.19,580.575 684.19,575.375 712.45,575.375 712.45,606.942 707.25,606.942 707.25,638.108 712.45,638.108 712.45,669.675 684.19,669.675 684.19,664.475 661.53,664.475 661.53,669.675 638.47,669.675 638.47,664.475 615.81,664.475 615.81,669.675 587.55,669.675" fill="none" stroke="black" stroke-width="0.1mm" />
<polyline z="0" points="712.45,651.156 712.45,632.438 717.65,632.438 717.65,613.919 832.15,613.919 832.15,632.438 837.35,632.438 837.35,651.156 832.15,651.156 832.15,669.675 717.65,669.675 717.65,651.156 712.45,651.156" fill="none" stroke="black" stroke-width="0.1mm" />
<polyline z="0" points="718.679,506.675 718.679,501.475 695.621,501.475 695.621,506.675 672.164,506.675 672.164,501.475 649.107,501.475 649.107,506.675 625.65,506.675 625.65,393.325 644.369,393.325 644.369,398.525 662.687,398.525 662.687,393.325 681.373,393.325 683.414,398.252 669.091,412.575 649.107,412.575 649.107,417.575 672.164,417.575 672.164,412.375 695.621,412.375 695.621,417.575 718.679,417.575 718.679,412.375 742.136,412.375 742.136,417.575 765.193,417.575 765.193,412.375 783.45,412.375 783.45,443.742 788.65,443.742 788.65,475.308 783.45,475.308 783.45,506.675 765.193,506.675 765.193,501.475 742.136,501.475 742.136,506.675 718.679,506.675" fill="none" stroke="black" stroke-width="0.1mm" />
<polyline z="0" points="625.65,506.675 602.193,506.675 602.193,501.475 579.136,501.475 579.136,506.675 555.679,506.675 555.679,501.475 532.621,501.475 532.621,506.675 509.164,506.675 509.164,501.475 486.107,501.475 486.107,506.675 467.85,506.675 467.85,475.308 462.65,475.308 462.65,443.742 467.85,443.742 467.85,412.375 486.107,412.375 486.107,417.575 509.164,417.575 509.164,412.375 532.621,412.375 532.621,417.575 555.679,417.575 555.679,412.375 579.136,412.375 579.136,417.575 602.193,417.575 602.193,412.575 582.209,412.575 567.886,398.252 569.927,393.325 588.613,393.325 588.613,398.525 606.931,398.525 606.931,393.325 625.65,393.325 625.65,506.675" fill="none" stroke="black" stroke-width="0.1mm" />
<polyline z="0" points="582.35,393.325 467.85,393.325 467.85,370.068 462.65,370.068 462.65,346.611 467.85,346.611 467.85,323.554 462.65,323.554 462.65,300.096 467.85,300.096 467.85,277.039 462.65,277.039 462.65,253.582 467.85,253.582 467.85,235.525 490.71,235.525 490.71,230.325 513.77,230.325 513.77,235.525 536.43,235.525 536.43,230.325 559.49,230.325 559.49,235.525 582.35,235.525 582.35,253.582 587.55,253.582 587.55,277.039 582.35,277.039 582.35,300.096 587.55,300.096 587.55,323.554 582.35,323.554 582.35,346.611 587.55,346.611 587.55,370.068 582.35,370.068 582.35,393.325" fill="none" stroke="black" stroke-width="0.1mm" />
</svg>