<?xml version="1.0" encoding="UTF-8" standalone="no"?>
<svg
   width="1300mm"
   height="900mm"
   viewBox="0 0 1300 900"
   version="1.1"
   id="svg14"
   sodipodi:docname="Box.svg"
   inkscape:version="1.3.2 (091e20ef0f, 2023-11-25)"
   xmlns:inkscape="http://www.inkscape.org/namespaces/inkscape"
   xmlns:sodipodi="http://sodipodi.sourceforge.net/DTD/sodipodi-0.dtd"
   xmlns="http://www.w3.org/2000/svg"
   xmlns:svg="http://www.w3.org/2000/svg">
  <defs
     id="defs14" />
  <sodipodi:namedview
     id="namedview14"
     pagecolor="#505050"
     bordercolor="#eeeeee"
     borderopacity="1"
     inkscape:showpageshadow="0"
     inkscape:pageopacity="0"
     inkscape:pagecheckerboard="0"
     inkscape:deskcolor="#505050"
     inkscape:document-units="mm"
     inkscape:zoom="0.21932549"
     inkscape:cx="2505.4088"
     inkscape:cy="2199.9267"
     inkscape:window-width="1920"
     inkscape:window-height="1011"
     inkscape:window-x="0"
     inkscape:window-y="32"
     inkscape:window-maximized="1"
     inkscape:current-layer="svg14" />
  <g
     id="g20"
     inkscape:label="Set 2"
     transform="translate(-49.634952)">
    <polyline
       z="0"
       points="400.2,609.35 400.2,601.517 405.4,601.517 405.4,594.083 400.2,594.083 400.2,586.25 405.4,586.25 405.4,578.817 400.2,578.817 400.2,570.983 405.4,570.983 405.4,563.55 400.2,563.55 400.2,555.717 405.4,555.717 405.4,548.283 400.2,548.283 400.2,540.45 415.991,540.45 415.991,545.65 426.182,545.65 426.182,540.45 436.773,540.45 436.773,545.65 446.964,545.65 446.964,540.45 457.555,540.45 457.555,545.65 467.745,545.65 467.745,540.45 478.336,540.45 478.336,545.65 488.527,545.65 488.527,540.45 499.118,540.45 499.118,545.65 509.309,545.65 509.309,540.45 525.1,540.45 525.1,548.283 519.9,548.283 519.9,555.717 525.1,555.717 525.1,563.55 519.9,563.55 519.9,570.983 525.1,570.983 525.1,578.817 519.9,578.817 519.9,586.25 525.1,586.25 525.1,594.083 519.9,594.083 519.9,601.517 525.1,601.517 525.1,609.35 509.309,609.35 509.309,604.15 499.118,604.15 499.118,609.35 488.527,609.35 488.527,604.15 478.336,604.15 478.336,609.35 467.745,609.35 467.745,604.15 457.555,604.15 457.555,609.35 446.964,609.35 446.964,604.15 436.773,604.15 436.773,609.35 426.182,609.35 426.182,604.15 415.991,604.15 415.991,609.35 400.2,609.35"
       fill="none"
       stroke="#000000"
       stroke-width="0.1mm"
       id="polyline1"
       transform="rotate(90,601.96535,526.86534)"
       inkscape:label="Bottom" />
    <path
       id="polyline10"
       style="fill:none;stroke:#000000;stroke-width:0.1mm"
       d="m 543.73072,552.22699 v 11.137 h -5 v -11.137 h 5 m 0,-22.672 v 11.136 h -5 v -11.136 h 5 m 0,-22.673 v 11.136 h -5 v -11.136 h 5 m 0,-22.673 v 11.136 h -5 v -11.136 h 5 m 0,-11.536 h -5 v -11.137 h 5 v 11.137 m -0.318,102.227 v -5.2 h -7.777 v 5.2 h -8.178 v -5.2 h -7.977 v -16.529 h 5.2 v -16.128 h -5.2 v -16.529 h 5.2 v -16.128 h -5.2 v -16.529 h 5.2 v -16.128 h -5.2 v -16.529 h 7.977 v -5.2 h 8.178 v 5.2 h 7.777 v -5.2 h 8.177 v 5.2 h 7.777 v -5.2 h 8.178 v 5.2 h 7.777 v -5.2 h 8.177 v 5.2 h 7.777 v -5.2 h 8.178 v 5.2 h 7.977 v 6.336 h -5.2 v 11.137 h 5.2 v 11.536 h -5.2 v 11.136 h 5.2 v 11.537 h -5.2 v 11.136 h 5.2 v 11.537 h -5.2 v 11.136 h 5.2 v 11.536 h -5.2 v 11.137 h 5.2 v 6.336 h -7.977 v 5.2 h -8.178 v -5.2 h -7.777 v 5.2 h -8.177 v -5.2 h -7.777 v 5.2 h -8.178 v -5.2 h -7.777 v 5.2 h -8.177"
       inkscape:label="Top" />
    <polyline
       z="0"
       points="644.8,563.12 644.8,571.11 650,571.11 650,579.301 644.8,579.301 644.8,587.092 650,587.092 650,595.283 644.8,595.283 644.8,603.073 650,603.073 650,609.35 644.6,609.35 644.6,604.15 628.471,604.15 628.471,609.35 611.943,609.35 611.943,604.15 595.814,604.15 595.814,609.35 579.286,609.35 579.286,604.15 563.157,604.15 563.157,609.35 546.629,609.35 546.629,604.15 530.5,604.15 530.5,609.35 525.1,609.35 525.1,603.073 530.3,603.073 530.3,595.283 525.1,595.283 525.1,587.092 530.3,587.092 530.3,579.301 525.1,579.301 525.1,571.11 530.3,571.11 530.3,563.12 644.8,563.12"
       fill="none"
       stroke="#000000"
       stroke-width="0.1mm"
       id="polyline11"
       transform="rotate(90,698.86535,498.86534)"
       inkscape:label="Rear Brace" />
    <polyline
       z="0"
       points="525.1,399.486 519.9,399.486 519.9,410.35 513.764,410.35 513.764,415.55 502.227,415.55 502.227,410.35 491.091,410.35 491.091,415.55 479.555,415.55 479.555,410.35 468.418,410.35 468.418,415.55 456.882,415.55 456.882,410.35 445.745,410.35 445.745,415.55 434.209,415.55 434.209,410.35 423.073,410.35 423.073,415.55 411.536,415.55 411.536,410.35 405.4,410.35 405.4,399.486 400.2,399.486 400.2,388.423 405.4,388.423 405.4,377.759 400.2,377.759 400.2,366.695 405.4,366.695 405.4,356.032 400.2,356.032 400.2,344.968 405.4,344.968 405.4,334.305 400.2,334.305 400.2,323.241 405.4,323.241 405.4,312.577 400.2,312.577 400.2,301.514 405.4,301.514 405.4,295.85 415.791,295.85 415.791,290.65 426.382,290.65 426.382,295.85 436.573,295.85 436.573,290.65 447.164,290.65 447.164,295.85 457.355,295.85 457.355,290.65 467.945,290.65 467.945,295.85 478.136,295.85 478.136,290.65 488.727,290.65 488.727,295.85 498.918,295.85 498.918,290.65 509.509,290.65 509.509,295.85 519.9,295.85 519.9,301.514 525.1,301.514 525.1,312.577 519.9,312.577 519.9,323.241 525.1,323.241 525.1,334.305 519.9,334.305 519.9,344.968 525.1,344.968 525.1,356.032 519.9,356.032 519.9,366.695 525.1,366.695 525.1,377.759 519.9,377.759 519.9,388.423 525.1,388.423 525.1,399.486"
       fill="none"
       stroke="#000000"
       stroke-width="0.1mm"
       id="polyline14"
       transform="translate(-5.61928,159.15199)"
       inkscape:label="Back" />
    <polyline
       z="0"
       points="411.536,540.45 411.536,535.25 405.4,535.25 405.4,524.386 400.2,524.386 400.2,513.323 405.4,513.323 405.4,502.659 400.2,502.659 400.2,491.595 405.4,491.595 405.4,480.932 400.2,480.932 400.2,469.868 405.4,469.868 405.4,459.205 400.2,459.205 400.2,448.141 405.4,448.141 405.4,437.477 400.2,437.477 400.2,426.414 405.4,426.414 405.4,420.75 415.791,420.75 415.791,415.55 426.382,415.55 426.382,420.75 436.573,420.75 436.573,415.55 447.164,415.55 447.164,420.75 457.355,420.75 457.355,415.55 467.945,415.55 467.945,420.75 478.136,420.75 478.136,415.55 488.727,415.55 488.727,420.75 498.918,420.75 498.918,415.55 509.509,415.55 509.509,420.75 519.9,420.75 519.9,426.414 525.1,426.414 525.1,437.477 519.9,437.477 519.9,448.141 525.1,448.141 525.1,459.205 519.9,459.205 519.9,469.868 525.1,469.868 525.1,480.932 519.9,480.932 519.9,491.595 525.1,491.595 525.1,502.659 519.9,502.659 519.9,513.323 525.1,513.323 525.1,524.386 519.9,524.386 519.9,535.25 513.764,535.25 513.764,540.45 502.227,540.45 502.227,535.25 491.091,535.25 491.091,540.45 479.555,540.45 479.555,535.25 468.418,535.25 468.418,540.45 456.882,540.45 456.882,535.25 445.745,535.25 445.745,540.45 434.209,540.45 434.209,535.25 423.073,535.25 423.073,540.45 411.536,540.45"
       fill="none"
       stroke="#000000"
       stroke-width="0.1mm"
       id="polyline2"
       transform="matrix(1,0,0,-1,-5.61931,865.54999)"
       inkscape:label="Front" />
  </g>
  <g
     id="g14"
     transform="translate(-70.688421,26.57528)"
     inkscape:label="Set 1">
    <polyline
       z="0"
       points="400.2,609.35 400.2,601.517 405.4,601.517 405.4,594.083 400.2,594.083 400.2,586.25 405.4,586.25 405.4,578.817 400.2,578.817 400.2,570.983 405.4,570.983 405.4,563.55 400.2,563.55 400.2,555.717 405.4,555.717 405.4,548.283 400.2,548.283 400.2,540.45 415.991,540.45 415.991,545.65 426.182,545.65 426.182,540.45 436.773,540.45 436.773,545.65 446.964,545.65 446.964,540.45 457.555,540.45 457.555,545.65 467.745,545.65 467.745,540.45 478.336,540.45 478.336,545.65 488.527,545.65 488.527,540.45 499.118,540.45 499.118,545.65 509.309,545.65 509.309,540.45 525.1,540.45 525.1,548.283 519.9,548.283 519.9,555.717 525.1,555.717 525.1,563.55 519.9,563.55 519.9,570.983 525.1,570.983 525.1,578.817 519.9,578.817 519.9,586.25 525.1,586.25 525.1,594.083 519.9,594.083 519.9,601.517 525.1,601.517 525.1,609.35 509.309,609.35 509.309,604.15 499.118,604.15 499.118,609.35 488.527,609.35 488.527,604.15 478.336,604.15 478.336,609.35 467.745,609.35 467.745,604.15 457.555,604.15 457.555,609.35 446.964,609.35 446.964,604.15 436.773,604.15 436.773,609.35 426.182,609.35 426.182,604.15 415.991,604.15 415.991,609.35 400.2,609.35"
       fill="none"
       stroke="#000000"
       stroke-width="0.1mm"
       id="polyline1-3"
       transform="rotate(-90,541.39444,407.13028)"
       inkscape:label="Bottom" />
    <path
       id="polyline10-6"
       style="fill:none;stroke:#000000;stroke-width:0.1mm"
       d="m 719.36416,321.19771 v -11.137 h 5 v 11.137 h -5 m 0,22.672 v -11.136 h 5 v 11.136 h -5 m 0,22.673 v -11.136 h 5 v 11.136 h -5 m 0,22.673 v -11.136 h 5 v 11.136 h -5 m 0,11.536 h 5 v 11.137 h -5 v -11.137 m 0.318,-102.227 v 5.2 h 7.777 v -5.2 h 8.178 v 5.2 h 7.977 v 16.529 h -5.2 v 16.128 h 5.2 v 16.529 h -5.2 v 16.128 h 5.2 v 16.529 h -5.2 v 16.128 h 5.2 v 16.529 h -7.977 v 5.2 h -8.178 v -5.2 h -7.777 v 5.2 h -8.177 v -5.2 h -7.777 v 5.2 h -8.178 v -5.2 h -7.777 v 5.2 h -8.177 v -5.2 h -7.777 v 5.2 h -8.178 v -5.2 h -7.977 v -6.336 h 5.2 v -11.137 h -5.2 v -11.536 h 5.2 v -11.136 h -5.2 v -11.537 h 5.2 v -11.136 h -5.2 v -11.537 h 5.2 v -11.136 h -5.2 v -11.536 h 5.2 v -11.137 h -5.2 v -6.336 h 7.977 v -5.2 h 8.178 v 5.2 h 7.777 v -5.2 h 8.177 v 5.2 h 7.777 v -5.2 h 8.178 v 5.2 h 7.777 v -5.2 h 8.177"
       inkscape:label="Top" />
    <polyline
       z="0"
       points="644.8,563.12 644.8,571.11 650,571.11 650,579.301 644.8,579.301 644.8,587.092 650,587.092 650,595.283 644.8,595.283 644.8,603.073 650,603.073 650,609.35 644.6,609.35 644.6,604.15 628.471,604.15 628.471,609.35 611.943,609.35 611.943,604.15 595.814,604.15 595.814,609.35 579.286,609.35 579.286,604.15 563.157,604.15 563.157,609.35 546.629,609.35 546.629,604.15 530.5,604.15 530.5,609.35 525.1,609.35 525.1,603.073 530.3,603.073 530.3,595.283 525.1,595.283 525.1,587.092 530.3,587.092 530.3,579.301 525.1,579.301 525.1,571.11 530.3,571.11 530.3,563.12 644.8,563.12"
       fill="none"
       stroke="#000000"
       stroke-width="0.1mm"
       id="polyline11-7"
       transform="rotate(-90,569.39446,504.03027)"
       inkscape:label="Rear Brace" />
    <polyline
       z="0"
       points="525.1,399.486 519.9,399.486 519.9,410.35 513.764,410.35 513.764,415.55 502.227,415.55 502.227,410.35 491.091,410.35 491.091,415.55 479.555,415.55 479.555,410.35 468.418,410.35 468.418,415.55 456.882,415.55 456.882,410.35 445.745,410.35 445.745,415.55 434.209,415.55 434.209,410.35 423.073,410.35 423.073,415.55 411.536,415.55 411.536,410.35 405.4,410.35 405.4,399.486 400.2,399.486 400.2,388.423 405.4,388.423 405.4,377.759 400.2,377.759 400.2,366.695 405.4,366.695 405.4,356.032 400.2,356.032 400.2,344.968 405.4,344.968 405.4,334.305 400.2,334.305 400.2,323.241 405.4,323.241 405.4,312.577 400.2,312.577 400.2,301.514 405.4,301.514 405.4,295.85 415.791,295.85 415.791,290.65 426.382,290.65 426.382,295.85 436.573,295.85 436.573,290.65 447.164,290.65 447.164,295.85 457.355,295.85 457.355,290.65 467.945,290.65 467.945,295.85 478.136,295.85 478.136,290.65 488.727,290.65 488.727,295.85 498.918,295.85 498.918,290.65 509.509,290.65 509.509,295.85 519.9,295.85 519.9,301.514 525.1,301.514 525.1,312.577 519.9,312.577 519.9,323.241 525.1,323.241 525.1,334.305 519.9,334.305 519.9,344.968 525.1,344.968 525.1,356.032 519.9,356.032 519.9,366.695 525.1,366.695 525.1,377.759 519.9,377.759 519.9,388.423 525.1,388.423 525.1,399.486"
       fill="none"
       stroke="#000000"
       stroke-width="0.1mm"
       id="polyline14-5"
       transform="rotate(180,634.35709,357.03737)"
       inkscape:label="Back" />
    <polyline
       z="0"
       points="411.536,540.45 411.536,535.25 405.4,535.25 405.4,524.386 400.2,524.386 400.2,513.323 405.4,513.323 405.4,502.659 400.2,502.659 400.2,491.595 405.4,491.595 405.4,480.932 400.2,480.932 400.2,469.868 405.4,469.868 405.4,459.205 400.2,459.205 400.2,448.141 405.4,448.141 405.4,437.477 400.2,437.477 400.2,426.414 405.4,426.414 405.4,420.75 415.791,420.75 415.791,415.55 426.382,415.55 426.382,420.75 436.573,420.75 436.573,415.55 447.164,415.55 447.164,420.75 457.355,420.75 457.355,415.55 467.945,415.55 467.945,420.75 478.136,420.75 478.136,415.55 488.727,415.55 488.727,420.75 498.918,420.75 498.918,415.55 509.509,415.55 509.509,420.75 519.9,420.75 519.9,426.414 525.1,426.414 525.1,437.477 519.9,437.477 519.9,448.141 525.1,448.141 525.1,459.205 519.9,459.205 519.9,469.868 525.1,469.868 525.1,480.932 519.9,480.932 519.9,491.595 525.1,491.595 525.1,502.659 519.9,502.659 519.9,513.323 525.1,513.323 525.1,524.386 519.9,524.386 519.9,535.25 513.764,535.25 513.764,540.45 502.227,540.45 502.227,535.25 491.091,535.25 491.091,540.45 479.555,540.45 479.555,535.25 468.418,535.25 468.418,540.45 456.882,540.45 456.882,535.25 445.745,535.25 445.745,540.45 434.209,540.45 434.209,535.25 423.073,535.25 423.073,540.45 411.536,540.45"
       fill="none"
       stroke="#000000"
       stroke-width="0.1mm"
       id="polyline2-3"
       transform="matrix(-1,0,0,1,1268.7142,7.8746976)"
       inkscape:label="Front" />
  </g>
  <g
     id="g19"
     transform="translate(-73.346829,22.350621)"
     inkscape:label="Sides">
    <g
       id="g18"
       transform="translate(-233.15781,-64.042851)"
       inkscape:label="Set 2">
      <path
         id="polyline4"
         style="fill:none;stroke:#000000;stroke-width:0.1mm"
         d="m 1197.8588,393.71923 h -5 v -10.663 h 5 v 10.663 m 56.067,97.973 h -7.834 v -5.2 h -7.433 v 5.2 h -7.833 v -5.2 h -7.434 v 5.2 h -7.833 v -5.2 h -7.433 v 5.2 h -7.834 v -5.2 h -7.633 v -5.864 h 5.2 v -10.663 h -5.2 v -11.064 h 5.2 v -10.664 h -5.2 v -11.063 h 5.2 v -10.664 h -5.2 v -11.063 h 5.2 v -10.664 h -5.2 v -3.875 l -14.123,14.123 -4.927,-2.041 v -8.158 h 5.2 v -7.791 h -5.2 v -8.19 h 5.2 v -7.791 h -5.2 v -8.191 h 5.2 v -6.077 h 2.977 v 5.2 h 7.778 v -5.2 h 8.177 v 5.2 h 7.777 v -5.2 h 8.177 v 5.2 h 7.778 v -5.2 h 8.177 v 5.2 h 7.777 v -5.2 h 8.177 v 5.2 h 7.778 v -5.2 h 8.177 v 16.264 h -5.2 v 10.663 h 5.2 v 11.064 h -5.2 v 10.664 h 5.2 v 11.063 h -5.2 v 10.664 h 5.2 v 11.063 h -5.2 v 10.664 h 5.2 v 11.064 h -5.2 v 10.663 h 5.2 v 5.864 h -7.633 v 5.2"
         inkscape:label="Left Side" />
      <path
         id="polyline13-5"
         style="fill:none;stroke:#000000;stroke-width:0.1mm"
         d="m 1197.8589,600.32823 h -5 v -10.663 h 5 v 10.663 m 63.7,16.264 h -8.177 v -5.2 h -7.778 v 5.2 h -8.177 v -5.2 h -7.777 v 5.2 h -8.177 v -5.2 h -7.778 v 5.2 h -8.177 v -5.2 h -7.777 v 5.2 h -8.177 v -5.2 h -7.778 v 5.2 h -2.977 v -6.077 h -5.2 v -8.191 h 5.2 v -7.791 h -5.2 v -8.19 h 5.2 v -7.791 h -5.2 v -8.158 l 4.927,-2.041 14.123,14.123 v -3.875 h 5.2 v -10.664 h -5.2 v -11.063 h 5.2 v -10.664 h -5.2 v -11.063 h 5.2 v -10.664 h -5.2 v -11.064 h 5.2 v -10.663 h -5.2 v -5.864 h 7.633 v -5.2 h 7.834 v 5.2 h 7.433 v -5.2 h 7.833 v 5.2 h 7.434 v -5.2 h 7.833 v 5.2 h 7.433 v -5.2 h 7.834 v 5.2 h 7.633 v 5.864 h -5.2 v 10.663 h 5.2 v 11.064 h -5.2 v 10.664 h 5.2 v 11.063 h -5.2 v 10.664 h 5.2 v 11.063 h -5.2 v 10.664 h 5.2 v 11.064 h -5.2 v 10.663 h 5.2 v 16.264"
         inkscape:label="Right Side" />
    </g>
    <g
       id="g17"
       transform="translate(-233.15781,-64.042851)"
       inkscape:label="Set 1">
      <path
         id="polyline13"
         style="fill:none;stroke:#000000;stroke-width:0.1mm"
         d="m 1168.4089,507.95623 h 5 v 10.663 h -5 v -10.663 m -63.7,-16.264 h 8.177 v 5.2 h 7.778 v -5.2 h 8.177 v 5.2 h 7.777 v -5.2 h 8.177 v 5.2 h 7.778 v -5.2 h 8.177 v 5.2 h 7.777 v -5.2 h 8.177 v 5.2 h 7.778 v -5.2 h 2.977 v 6.077 h 5.2 v 8.191 h -5.2 v 7.791 h 5.2 v 8.19 h -5.2 v 7.791 h 5.2 v 8.158 l -4.927,2.041 -14.123,-14.123 v 3.875 h -5.2 v 10.664 h 5.2 v 11.063 h -5.2 v 10.664 h 5.2 v 11.063 h -5.2 v 10.664 h 5.2 v 11.064 h -5.2 v 10.663 h 5.2 v 5.864 h -7.633 v 5.2 h -7.834 v -5.2 h -7.433 v 5.2 h -7.833 v -5.2 h -7.434 v 5.2 h -7.833 v -5.2 h -7.433 v 5.2 h -7.834 v -5.2 h -7.633 v -5.864 h 5.2 v -10.663 h -5.2 v -11.064 h 5.2 v -10.664 h -5.2 v -11.063 h 5.2 v -10.664 h -5.2 v -11.063 h 5.2 v -10.664 h -5.2 v -11.064 h 5.2 v -10.663 h -5.2 v -16.264"
         inkscape:label="Right Side" />
      <path
         id="polyline4-6"
         style="fill:none;stroke:#000000;stroke-width:0.1mm"
         d="m 1168.4088,464.76523 h 5 v 10.663 h -5 v -10.663 m -56.0669,-97.973 h 7.834 v 5.2 h 7.433 v -5.2 h 7.833 v 5.2 h 7.434 v -5.2 h 7.8329 v 5.2 h 7.433 v -5.2 h 7.834 v 5.2 h 7.633 v 5.864 h -5.2 v 10.663 h 5.2 v 11.064 h -5.2 v 10.664 h 5.2 v 11.063 h -5.2 v 10.664 h 5.2 v 11.063 h -5.2 v 10.664 h 5.2 v 3.875 l 14.123,-14.123 4.927,2.041 v 8.158 h -5.2 v 7.791 h 5.2 v 8.19 h -5.2 v 7.791 h 5.2 v 8.191 h -5.2 v 6.077 h -2.977 v -5.2 h -7.778 v 5.2 h -8.177 v -5.2 h -7.777 v 5.2 h -8.177 v -5.2 h -7.7779 v 5.2 h -8.177 v -5.2 h -7.777 v 5.2 h -8.177 v -5.2 h -7.778 v 5.2 h -8.177 v -16.264 h 5.2 v -10.663 h -5.2 v -11.064 h 5.2 v -10.664 h -5.2 v -11.063 h 5.2 v -10.664 h -5.2 v -11.063 h 5.2 v -10.664 h -5.2 v -11.064 h 5.2 v -10.663 h -5.2 v -5.864 h 7.633 v -5.2"
         inkscape:label="Left Side" />
    </g>
  </g>
</svg>
