<?xml version="1.0" standalone="no"?>
<!DOCTYPE svg PUBLIC "-//W3C//DTD SVG 1.1//EN" "http://www.w3.org/Graphics/SVG/1.1/DTD/svg11.dtd">
<svg width="1300mm" height="900mm" viewBox="0 0 1300 900" xmlns="http://www.w3.org/2000/svg" version="1.1">
<polyline z="0" points="400.2,609.35 400.2,601.517 405.4,601.517 405.4,594.083 400.2,594.083 400.2,586.25 405.4,586.25 405.4,578.817 400.2,578.817 400.2,570.983 405.4,570.983 405.4,563.55 400.2,563.55 400.2,555.717 405.4,555.717 405.4,548.283 400.2,548.283 400.2,540.45 415.991,540.45 415.991,545.65 426.182,545.65 426.182,540.45 436.773,540.45 436.773,545.65 446.964,545.65 446.964,540.45 457.555,540.45 457.555,545.65 467.745,545.65 467.745,540.45 478.336,540.45 478.336,545.65 488.527,545.65 488.527,540.45 499.118,540.45 499.118,545.65 509.309,545.65 509.309,540.45 525.1,540.45 525.1,548.283 519.9,548.283 519.9,555.717 525.1,555.717 525.1,563.55 519.9,563.55 519.9,570.983 525.1,570.983 525.1,578.817 519.9,578.817 519.9,586.25 525.1,586.25 525.1,594.083 519.9,594.083 519.9,601.517 525.1,601.517 525.1,609.35 509.309,609.35 509.309,604.15 499.118,604.15 499.118,609.35 488.527,609.35 488.527,604.15 478.336,604.15 478.336,609.35 467.745,609.35 467.745,604.15 457.555,604.15 457.555,609.35 446.964,609.35 446.964,604.15 436.773,604.15 436.773,609.35 426.182,609.35 426.182,604.15 415.991,604.15 415.991,609.35 400.2,609.35" fill="none" stroke="black" stroke-width="0.1mm" />
<polyline z="0" points="411.536,540.45 411.536,535.25 405.4,535.25 405.4,524.386 400.2,524.386 400.2,513.323 405.4,513.323 405.4,502.659 400.2,502.659 400.2,491.595 405.4,491.595 405.4,480.932 400.2,480.932 400.2,469.868 405.4,469.868 405.4,459.205 400.2,459.205 400.2,448.141 405.4,448.141 405.4,437.477 400.2,437.477 400.2,426.414 405.4,426.414 405.4,420.75 415.791,420.75 415.791,415.55 426.382,415.55 426.382,420.75 436.573,420.75 436.573,415.55 447.164,415.55 447.164,420.75 457.355,420.75 457.355,415.55 467.945,415.55 467.945,420.75 478.136,420.75 478.136,415.55 488.727,415.55 488.727,420.75 498.918,420.75 498.918,415.55 509.509,415.55 509.509,420.75 519.9,420.75 519.9,426.414 525.1,426.414 525.1,437.477 519.9,437.477 519.9,448.141 525.1,448.141 525.1,459.205 519.9,459.205 519.9,469.868 525.1,469.868 525.1,480.932 519.9,480.932 519.9,491.595 525.1,491.595 525.1,502.659 519.9,502.659 519.9,513.323 525.1,513.323 525.1,524.386 519.9,524.386 519.9,535.25 513.764,535.25 513.764,540.45 502.227,540.45 502.227,535.25 491.091,535.25 491.091,540.45 479.555,540.45 479.555,535.25 468.418,535.25 468.418,540.45 456.882,540.45 456.882,535.25 445.745,535.25 445.745,540.45 434.209,540.45 434.209,535.25 423.073,535.25 423.073,540.45 411.536,540.45" fill="none" stroke="black" stroke-width="0.1mm" />
<polyline z="0" points="525.1,532.817 525.1,524.983 530.3,524.983 530.3,517.55 525.1,517.55 525.1,509.717 530.3,509.717 530.3,502.283 525.1,502.283 525.1,494.45 530.3,494.45 530.3,487.017 525.1,487.017 525.1,479.183 530.3,479.183 530.3,471.55 536.164,471.55 536.164,476.75 546.827,476.75 546.827,471.55 557.891,471.55 557.891,476.75 568.555,476.75 568.555,471.55 579.618,471.55 579.618,476.75 590.282,476.75 590.282,471.55 601.345,471.55 601.345,476.75 612.009,476.75 612.009,471.55 615.884,471.55 601.761,457.427 603.802,452.5 611.96,452.5 611.96,457.7 619.751,457.7 619.751,452.5 627.941,452.5 627.941,457.7 635.732,457.7 635.732,452.5 643.923,452.5 643.923,457.7 650,457.7 650,460.677 644.8,460.677 644.8,468.455 650,468.455 650,476.632 644.8,476.632 644.8,484.409 650,484.409 650,492.586 644.8,492.586 644.8,500.364 650,500.364 650,508.541 644.8,508.541 644.8,516.318 650,516.318 650,524.495 644.8,524.495 644.8,532.273 650,532.273 650,540.45 633.736,540.45 633.736,535.25 623.073,535.25 623.073,540.45 612.009,540.45 612.009,535.25 601.345,535.25 601.345,540.45 590.282,540.45 590.282,535.25 579.618,535.25 579.618,540.45 568.555,540.45 568.555,535.25 557.891,535.25 557.891,540.45 546.827,540.45 546.827,535.25 536.164,535.25 536.164,540.45 530.3,540.45 530.3,532.817 525.1,532.817" fill="none" stroke="black" stroke-width="0.1mm" />
<polyline z="0" points="623.073,476.75 623.073,471.75 633.736,471.75 633.736,476.75 623.073,476.75" fill="none" stroke="black" stroke-width="0.1mm" />
<polyline z="0" points="650,476.432 655.2,476.432 655.2,468.655 650,468.655 650,460.477 655.2,460.477 655.2,452.5 671.729,452.5 671.729,457.7 687.857,457.7 687.857,452.5 704.386,452.5 704.386,457.7 720.514,457.7 720.514,452.5 737.043,452.5 737.043,457.7 753.171,457.7 753.171,452.5 769.7,452.5 769.7,460.477 774.9,460.477 774.9,468.655 769.7,468.655 769.7,476.432 774.9,476.432 774.9,484.609 769.7,484.609 769.7,492.386 774.9,492.386 774.9,500.564 769.7,500.564 769.7,508.341 774.9,508.341 774.9,516.518 769.7,516.518 769.7,524.295 774.9,524.295 774.9,532.473 769.7,532.473 769.7,540.45 763.364,540.45 763.364,535.25 752.227,535.25 752.227,540.45 740.691,540.45 740.691,535.25 729.555,535.25 729.555,540.45 718.018,540.45 718.018,535.25 706.882,535.25 706.882,540.45 695.345,540.45 695.345,535.25 684.209,535.25 684.209,540.45 672.673,540.45 672.673,535.25 661.536,535.25 661.536,540.45 655.2,540.45 655.2,532.473 650,532.473 650,524.295 655.2,524.295 655.2,516.518 650,516.518 650,508.341 655.2,508.341 655.2,500.564 650,500.564 650,492.386 655.2,492.386 655.2,484.609 650,484.609 650,476.432" fill="none" stroke="black" stroke-width="0.1mm" />
<polyline z="0" points="752.227,476.75 752.227,471.75 763.364,471.75 763.364,476.75 752.227,476.75" fill="none" stroke="black" stroke-width="0.1mm" />
<polyline z="0" points="740.691,476.75 729.555,476.75 729.555,471.75 740.691,471.75 740.691,476.75" fill="none" stroke="black" stroke-width="0.1mm" />
<polyline z="0" points="718.018,476.75 706.882,476.75 706.882,471.75 718.018,471.75 718.018,476.75" fill="none" stroke="black" stroke-width="0.1mm" />
<polyline z="0" points="695.345,476.75 684.209,476.75 684.209,471.75 695.345,471.75 695.345,476.75" fill="none" stroke="black" stroke-width="0.1mm" />
<polyline z="0" points="672.673,476.75 661.536,476.75 661.536,471.75 672.673,471.75 672.673,476.75" fill="none" stroke="black" stroke-width="0.1mm" />
<polyline z="0" points="644.8,563.12 644.8,571.11 650,571.11 650,579.301 644.8,579.301 644.8,587.092 650,587.092 650,595.283 644.8,595.283 644.8,603.073 650,603.073 650,609.35 644.6,609.35 644.6,604.15 628.471,604.15 628.471,609.35 611.943,609.35 611.943,604.15 595.814,604.15 595.814,609.35 579.286,609.35 579.286,604.15 563.157,604.15 563.157,609.35 546.629,609.35 546.629,604.15 530.5,604.15 530.5,609.35 525.1,609.35 525.1,603.073 530.3,603.073 530.3,595.283 525.1,595.283 525.1,587.092 530.3,587.092 530.3,579.301 525.1,579.301 525.1,571.11 530.3,571.11 530.3,563.12 644.8,563.12" fill="none" stroke="black" stroke-width="0.1mm" />
<polyline z="0" points="774.9,540.45 774.9,532.273 780.1,532.273 780.1,524.495 774.9,524.495 774.9,516.318 780.1,516.318 780.1,508.541 774.9,508.541 774.9,500.364 780.1,500.364 780.1,492.586 774.9,492.586 774.9,484.409 780.1,484.409 780.1,476.632 774.9,476.632 774.9,468.455 780.1,468.455 780.1,460.677 774.9,460.677 774.9,457.7 780.977,457.7 780.977,452.5 789.168,452.5 789.168,457.7 796.959,457.7 796.959,452.5 805.149,452.5 805.149,457.7 812.94,457.7 812.94,452.5 821.098,452.5 823.139,457.427 809.016,471.55 812.891,471.55 812.891,476.75 823.555,476.75 823.555,471.55 834.618,471.55 834.618,476.75 845.282,476.75 845.282,471.55 856.345,471.55 856.345,476.75 867.009,476.75 867.009,471.55 878.073,471.55 878.073,476.75 888.736,476.75 888.736,471.55 894.6,471.55 894.6,479.183 899.8,479.183 899.8,487.017 894.6,487.017 894.6,494.45 899.8,494.45 899.8,502.283 894.6,502.283 894.6,509.717 899.8,509.717 899.8,517.55 894.6,517.55 894.6,524.983 899.8,524.983 899.8,532.817 894.6,532.817 894.6,540.45 888.736,540.45 888.736,535.25 878.073,535.25 878.073,540.45 867.009,540.45 867.009,535.25 856.345,535.25 856.345,540.45 845.282,540.45 845.282,535.25 834.618,535.25 834.618,540.45 823.555,540.45 823.555,535.25 812.891,535.25 812.891,540.45 801.827,540.45 801.827,535.25 791.164,535.25 791.164,540.45 774.9,540.45" fill="none" stroke="black" stroke-width="0.1mm" />
<polyline z="0" points="791.164,476.75 791.164,471.75 801.827,471.75 801.827,476.75 791.164,476.75" fill="none" stroke="black" stroke-width="0.1mm" />
<polyline z="0" points="525.1,399.486 519.9,399.486 519.9,410.35 513.764,410.35 513.764,415.55 502.227,415.55 502.227,410.35 491.091,410.35 491.091,415.55 479.555,415.55 479.555,410.35 468.418,410.35 468.418,415.55 456.882,415.55 456.882,410.35 445.745,410.35 445.745,415.55 434.209,415.55 434.209,410.35 423.073,410.35 423.073,415.55 411.536,415.55 411.536,410.35 405.4,410.35 405.4,399.486 400.2,399.486 400.2,388.423 405.4,388.423 405.4,377.759 400.2,377.759 400.2,366.695 405.4,366.695 405.4,356.032 400.2,356.032 400.2,344.968 405.4,344.968 405.4,334.305 400.2,334.305 400.2,323.241 405.4,323.241 405.4,312.577 400.2,312.577 400.2,301.514 405.4,301.514 405.4,295.85 415.791,295.85 415.791,290.65 426.382,290.65 426.382,295.85 436.573,295.85 436.573,290.65 447.164,290.65 447.164,295.85 457.355,295.85 457.355,290.65 467.945,290.65 467.945,295.85 478.136,295.85 478.136,290.65 488.727,290.65 488.727,295.85 498.918,295.85 498.918,290.65 509.509,290.65 509.509,295.85 519.9,295.85 519.9,301.514 525.1,301.514 525.1,312.577 519.9,312.577 519.9,323.241 525.1,323.241 525.1,334.305 519.9,334.305 519.9,344.968 525.1,344.968 525.1,356.032 519.9,356.032 519.9,366.695 525.1,366.695 525.1,377.759 519.9,377.759 519.9,388.423 525.1,388.423 525.1,399.486" fill="none" stroke="black" stroke-width="0.1mm" />
</svg>