<?xml version="1.0" encoding="UTF-8" standalone="no"?>
<svg
   width="1300mm"
   height="900mm"
   viewBox="0 0 1300 900"
   version="1.1"
   id="svg8"
   sodipodi:docname="CircBlades.svg"
   inkscape:version="1.3.2 (091e20ef0f, 2023-11-25)"
   xmlns:inkscape="http://www.inkscape.org/namespaces/inkscape"
   xmlns:sodipodi="http://sodipodi.sourceforge.net/DTD/sodipodi-0.dtd"
   xmlns="http://www.w3.org/2000/svg"
   xmlns:svg="http://www.w3.org/2000/svg">
  <defs
     id="defs8" />
  <sodipodi:namedview
     id="namedview8"
     pagecolor="#505050"
     bordercolor="#eeeeee"
     borderopacity="1"
     inkscape:showpageshadow="0"
     inkscape:pageopacity="0"
     inkscape:pagecheckerboard="0"
     inkscape:deskcolor="#505050"
     inkscape:document-units="mm"
     inkscape:zoom="0.23112646"
     inkscape:cx="1815.0237"
     inkscape:cy="1680.898"
     inkscape:window-width="1920"
     inkscape:window-height="1011"
     inkscape:window-x="0"
     inkscape:window-y="32"
     inkscape:window-maximized="1"
     inkscape:current-layer="svg8" />
  <polyline
     z="0"
     points="334.5,638.5 334.5,629.264 329.3,629.264 329.3,619.827 334.5,619.827 334.5,610.791 329.3,610.791 329.3,601.355 334.5,601.355 334.5,592.318 329.3,592.318 329.3,582.882 334.5,582.882 334.5,573.845 329.3,573.845 329.3,564.409 334.5,564.409 334.5,555.373 329.3,555.373 329.3,545.936 334.5,545.936 334.5,536.7 348.718,536.7 348.718,531.5 368.336,531.5 368.336,536.7 387.555,536.7 387.555,531.5 407.173,531.5 407.173,536.7 426.391,536.7 426.391,531.5 446.009,531.5 446.009,536.7 465.227,536.7 465.227,531.5 484.845,531.5 484.845,536.7 504.064,536.7 504.064,531.5 523.682,531.5 523.682,536.7 537.9,536.7 537.9,545.936 543.1,545.936 543.1,555.373 537.9,555.373 537.9,564.409 543.1,564.409 543.1,573.845 537.9,573.845 537.9,582.882 543.1,582.882 543.1,592.318 537.9,592.318 537.9,601.355 543.1,601.355 543.1,610.791 537.9,610.791 537.9,619.827 543.1,619.827 543.1,629.264 537.9,629.264 537.9,638.5 527.361,638.5 517.958,629.977 507.799,622.443 496.952,615.941 485.519,610.533 473.611,606.273 461.343,603.2 448.832,601.345 436.2,600.724 423.568,601.345 411.057,603.2 398.789,606.273 386.881,610.533 375.448,615.941 364.601,622.443 354.442,629.977 345.039,638.5 334.5,638.5"
     fill="none"
     stroke="#000000"
     stroke-width="0.1mm"
     id="polyline1"
     transform="rotate(-90,472.64711,306.65289)"
     style="vector-effect:non-scaling-stroke;fill:none;fill-opacity:1;stroke:#000000;stroke-width:0.264583;stroke-dasharray:none;stroke-opacity:1;-inkscape-stroke:hairline" />
  <path
     id="polyline2"
     style="vector-effect:non-scaling-stroke;fill:none;fill-opacity:1;stroke:#000000;stroke-width:0.264583;stroke-dasharray:none;stroke-opacity:1;-inkscape-stroke:hairline"
     d="M 816.24142,450.00038 V 430.8553 h 5.2002 v -18.74614 h -5.00022 v 16.81602 h -5.72109 l -13.52889,-13.52889 v -8.1318 h 5.2002 v -7.79126 h -5.2002 V 391.282 h 5.2002 v -7.79074 h -5.2002 v -8.1902 h 5.2002 v -7.79074 h -5.2002 v -8.15816 l 4.92734,-2.0407 14.12266,14.12265 v -16.36076 h 5.2002 v -18.74613 h -5.2002 v -19.14509 h 5.2002 v -18.74614 h -5.2002 v -19.14457 h 5.2002 v -18.74614 h -5.2002 V 236.2 h 7.59023 v 5.2002 h 7.18974 V 236.2 h 7.59024 v 5.2002 h 7.18974 V 236.2 h 7.59023 v 14.63631 h -5.2002 v 9.03718 h 5.2002 v 9.4356 h -5.2002 v 9.03614 h 5.2002 v 9.43715 h -5.2002 v 9.03562 h 5.2002 v 9.43715 h -5.2002 v 9.03614 h 5.2002 v 9.43612 h -5.2002 v 9.03666 h 5.2002 v 9.35136 l -31.7748,106.88495 z m 0.19998,-57.03631 h 5.00022 v -18.74563 h -5.00022 z" />
  <polyline
     z="0"
     points="537.9,475.3 334.5,475.3 334.5,456.355 329.3,456.355 329.3,437.209 334.5,437.209 334.5,418.464 329.3,418.464 329.3,399.318 334.5,399.318 334.5,380.573 329.3,380.573 329.3,361.427 334.5,361.427 334.5,342.682 329.3,342.682 329.3,323.536 334.5,323.536 334.5,304.791 329.3,304.791 329.3,285.645 334.5,285.645 334.5,266.7 348.718,266.7 348.718,261.5 368.336,261.5 368.336,266.7 387.555,266.7 387.555,261.5 407.173,261.5 407.173,266.7 426.391,266.7 426.391,261.5 446.009,261.5 446.009,266.7 465.227,266.7 465.227,261.5 484.845,261.5 484.845,266.7 504.064,266.7 504.064,261.5 523.682,261.5 523.682,266.7 537.9,266.7 537.9,285.645 543.1,285.645 543.1,304.791 537.9,304.791 537.9,323.536 543.1,323.536 543.1,342.682 537.9,342.682 537.9,361.427 543.1,361.427 543.1,380.573 537.9,380.573 537.9,399.318 543.1,399.318 543.1,418.464 537.9,418.464 537.9,437.209 543.1,437.209 543.1,456.355 537.9,456.355 537.9,475.3"
     fill="none"
     stroke="#000000"
     stroke-width="0.1mm"
     id="polyline4"
     transform="rotate(90,526.04711,432.94711)"
     style="vector-effect:non-scaling-stroke;fill:none;fill-opacity:1;stroke:#000000;stroke-width:0.264583;stroke-dasharray:none;stroke-opacity:1;-inkscape-stroke:hairline" />
  <path
     id="polyline5"
     style="vector-effect:non-scaling-stroke;fill:none;fill-opacity:1;stroke:#000000;stroke-width:0.264583;stroke-dasharray:none;stroke-opacity:1;-inkscape-stroke:hairline"
     d="m 872.4416,639.07755 v -24.34477 h 5.2002 v -18.74614 h -5.2002 v -19.14508 h 5.2002 v -18.74614 h -5.2002 v -19.14509 h 5.2002 V 520.2047 h -5.2002 v -16.36127 l -14.12266,14.12317 -4.92733,-2.04122 v -8.15764 h 5.2002 v -7.79126 h -5.2002 v -8.1902 h 5.2002 v -7.79073 h -5.2002 v -8.19124 h 5.2002 v -7.79073 h -5.2002 v -8.13181 l 13.52889,-13.5294 h 5.72109 v 16.81602 h 5.00022 v -18.74562 h -5.2002 v -19.14509 h 5.37538 l 31.7748,106.88495 v 9.35085 h -5.2002 v 9.03718 h 5.2002 v 9.43611 h -5.2002 v 9.03563 h 5.2002 v 9.43715 h -5.2002 v 9.03614 h 5.2002 v 9.43663 h -5.2002 v 9.03614 h 5.2002 v 9.43612 h -5.2002 v 9.03717 h 5.2002 v 14.6358 h -7.59023 v -5.2002 h -7.18974 v 5.2002 h -7.59024 v -5.2002 h -7.18975 v 5.2002 z m 0.19998,-138.01793 h 5.00022 v -18.74614 h -5.00022 z" />
  <path
     id="polyline2-1"
     style="vector-effect:non-scaling-stroke;fill:none;fill-opacity:1;stroke:#000000;stroke-width:0.264583;stroke-dasharray:none;stroke-opacity:1;-inkscape-stroke:hairline"
     d="m 834.3416,425.2782 v 19.14509 h -5.2002 v 18.74613 h 5.00021 v -16.81601 h 5.72109 l 13.52891,13.5289 v 8.1318 h -5.2002 v 7.79125 h 5.2002 v 8.19123 h -5.2002 v 7.79075 h 5.2002 v 8.19019 h -5.2002 v 7.79074 h 5.2002 v 8.15816 l -4.92733,2.0407 -14.12266,-14.12265 v 16.36076 h -5.20019 v 18.74614 h 5.20019 v 19.14509 h -5.20019 v 18.74613 h 5.20019 v 19.14458 h -5.20019 v 18.74613 h 5.20019 v 24.34528 h -7.59023 v -5.2002 h -7.18975 v 5.2002 h -7.59024 v -5.2002 h -7.18975 v 5.2002 h -7.59024 v -14.6363 h 5.2002 v -9.03719 h -5.2002 v -9.4356 h 5.2002 v -9.03615 h -5.2002 v -9.43715 h 5.2002 v -9.03562 h -5.2002 v -9.43714 h 5.2002 v -9.03615 h -5.2002 v -9.43611 h 5.2002 v -9.03666 h -5.2002 v -9.35136 L 828.96622,425.2782 Z m -0.19999,57.03631 h -5.00021 v 18.74563 h 5.00021 z" />
  <path
     id="polyline5-1"
     style="vector-effect:non-scaling-stroke;fill:none;fill-opacity:1;stroke:#000000;stroke-width:0.264583;stroke-dasharray:none;stroke-opacity:1;-inkscape-stroke:hairline"
     d="m 890.54178,236.20002 v 24.34475 h -5.2002 v 18.74614 h 5.2002 v 19.14508 h -5.2002 v 18.74614 h 5.2002 v 19.14508 h -5.2002 v 18.74565 h 5.2002 v 16.36125 l 14.12266,-14.12315 4.92734,2.0412 v 8.15766 h -5.2002 v 7.79125 h 5.2002 v 8.1902 h -5.2002 v 7.79073 h 5.2002 v 8.19125 h -5.2002 v 7.79072 h 5.2002 v 8.13181 l -13.5289,13.5294 h -5.72109 v -16.81602 h -5.00021 v 18.74561 h 5.2002 v 19.14509 H 885.1664 L 853.3916,343.11492 v -9.35085 h 5.2002 v -9.03718 h -5.2002 v -9.4361 h 5.2002 v -9.03564 h -5.2002 V 296.818 h 5.2002 v -9.03613 h -5.2002 v -9.43663 h 5.2002 v -9.03614 h -5.2002 v -9.43612 h 5.2002 v -9.03717 h -5.2002 v -14.63579 h 7.59023 v 5.2002 h 7.18974 v -5.2002 h 7.59024 v 5.2002 h 7.18974 v -5.2002 z m -0.19998,138.01792 h -5.00022 v 18.74613 h 5.00022 z" />
  <polyline
     z="0"
     points="548.3,582.364 751.7,582.364 751.7,590.355 756.9,590.355 756.9,598.546 751.7,598.546 751.7,606.337 756.9,606.337 756.9,614.527 751.7,614.527 751.7,622.318 756.9,622.318 756.9,630.509 751.7,630.509 751.7,638.5 548.3,638.5 548.3,630.509 543.1,630.509 543.1,622.318 548.3,622.318 548.3,614.527 543.1,614.527 543.1,606.337 548.3,606.337 548.3,598.546 543.1,598.546 543.1,590.355 548.3,590.355 548.3,582.364"
     fill="none"
     stroke="#000000"
     stroke-width="0.1mm"
     id="polyline7"
     transform="rotate(90,686.47911,379.57911)"
     style="vector-effect:non-scaling-stroke;fill:none;fill-opacity:1;stroke:#000000;stroke-width:0.264583;stroke-dasharray:none;stroke-opacity:1;-inkscape-stroke:hairline" />
  <polyline
     z="0"
     points="756.9,608.74 762.1,608.74 762.1,601.35 776.518,601.35 776.518,606.55 795.736,606.55 795.736,601.35 815.355,601.35 815.355,606.55 834.573,606.55 834.573,601.35 854.191,601.35 854.191,606.55 873.409,606.55 873.409,601.35 893.027,601.35 893.027,606.55 912.245,606.55 912.245,601.35 931.864,601.35 931.864,606.55 951.082,606.55 951.082,601.35 965.5,601.35 965.5,608.74 970.7,608.74 970.7,616.33 965.5,616.33 965.5,623.52 970.7,623.52 970.7,631.11 965.5,631.11 965.5,638.5 951.082,638.5 951.082,633.3 931.864,633.3 931.864,638.5 912.245,638.5 912.245,633.3 893.027,633.3 893.027,638.5 873.409,638.5 873.409,633.3 854.191,633.3 854.191,638.5 834.573,638.5 834.573,633.3 815.355,633.3 815.355,638.5 795.736,638.5 795.736,633.3 776.518,633.3 776.518,638.5 762.1,638.5 762.1,631.11 756.9,631.11 756.9,623.52 762.1,623.52 762.1,616.33 756.9,616.33 756.9,608.74"
     fill="none"
     stroke="#000000"
     stroke-width="0.1mm"
     id="polyline8"
     transform="rotate(-90,497.97911,708.92089)"
     style="vector-effect:non-scaling-stroke;fill:none;fill-opacity:1;stroke:#000000;stroke-width:0.264583;stroke-dasharray:none;stroke-opacity:1;-inkscape-stroke:hairline" />
  <polyline
     z="0"
     points="334.5,638.5 334.5,629.264 329.3,629.264 329.3,619.827 334.5,619.827 334.5,610.791 329.3,610.791 329.3,601.355 334.5,601.355 334.5,592.318 329.3,592.318 329.3,582.882 334.5,582.882 334.5,573.845 329.3,573.845 329.3,564.409 334.5,564.409 334.5,555.373 329.3,555.373 329.3,545.936 334.5,545.936 334.5,536.7 348.718,536.7 348.718,531.5 368.336,531.5 368.336,536.7 387.555,536.7 387.555,531.5 407.173,531.5 407.173,536.7 426.391,536.7 426.391,531.5 446.009,531.5 446.009,536.7 465.227,536.7 465.227,531.5 484.845,531.5 484.845,536.7 504.064,536.7 504.064,531.5 523.682,531.5 523.682,536.7 537.9,536.7 537.9,545.936 543.1,545.936 543.1,555.373 537.9,555.373 537.9,564.409 543.1,564.409 543.1,573.845 537.9,573.845 537.9,582.882 543.1,582.882 543.1,592.318 537.9,592.318 537.9,601.355 543.1,601.355 543.1,610.791 537.9,610.791 537.9,619.827 543.1,619.827 543.1,629.264 537.9,629.264 537.9,638.5 527.361,638.5 517.958,629.977 507.799,622.443 496.952,615.941 485.519,610.533 473.611,606.273 461.343,603.2 448.832,601.345 436.2,600.724 423.568,601.345 411.057,603.2 398.789,606.273 386.881,610.533 375.448,615.941 364.601,622.443 354.442,629.977 345.039,638.5 334.5,638.5"
     fill="none"
     stroke="#000000"
     stroke-width="0.1mm"
     id="polyline1-5"
     transform="rotate(-90,579.54711,413.55289)"
     style="vector-effect:non-scaling-stroke;fill:none;fill-opacity:1;stroke:#000000;stroke-width:0.264583;stroke-dasharray:none;stroke-opacity:1;-inkscape-stroke:hairline" />
  <polyline
     z="0"
     points="537.9,475.3 334.5,475.3 334.5,456.355 329.3,456.355 329.3,437.209 334.5,437.209 334.5,418.464 329.3,418.464 329.3,399.318 334.5,399.318 334.5,380.573 329.3,380.573 329.3,361.427 334.5,361.427 334.5,342.682 329.3,342.682 329.3,323.536 334.5,323.536 334.5,304.791 329.3,304.791 329.3,285.645 334.5,285.645 334.5,266.7 348.718,266.7 348.718,261.5 368.336,261.5 368.336,266.7 387.555,266.7 387.555,261.5 407.173,261.5 407.173,266.7 426.391,266.7 426.391,261.5 446.009,261.5 446.009,266.7 465.227,266.7 465.227,261.5 484.845,261.5 484.845,266.7 504.064,266.7 504.064,261.5 523.682,261.5 523.682,266.7 537.9,266.7 537.9,285.645 543.1,285.645 543.1,304.791 537.9,304.791 537.9,323.536 543.1,323.536 543.1,342.682 537.9,342.682 537.9,361.427 543.1,361.427 543.1,380.573 537.9,380.573 537.9,399.318 543.1,399.318 543.1,418.464 537.9,418.464 537.9,437.209 543.1,437.209 543.1,456.355 537.9,456.355 537.9,475.3"
     fill="none"
     stroke="#000000"
     stroke-width="0.1mm"
     id="polyline4-9"
     transform="rotate(90,419.14711,539.84711)"
     style="vector-effect:non-scaling-stroke;fill:none;fill-opacity:1;stroke:#000000;stroke-width:0.264583;stroke-dasharray:none;stroke-opacity:1;-inkscape-stroke:hairline" />
  <polyline
     z="0"
     points="548.3,582.364 751.7,582.364 751.7,590.355 756.9,590.355 756.9,598.546 751.7,598.546 751.7,606.337 756.9,606.337 756.9,614.527 751.7,614.527 751.7,622.318 756.9,622.318 756.9,630.509 751.7,630.509 751.7,638.5 548.3,638.5 548.3,630.509 543.1,630.509 543.1,622.318 548.3,622.318 548.3,614.527 543.1,614.527 543.1,606.337 548.3,606.337 548.3,598.546 543.1,598.546 543.1,590.355 548.3,590.355 548.3,582.364"
     fill="none"
     stroke="#000000"
     stroke-width="0.1mm"
     id="polyline7-7"
     transform="rotate(90,579.57911,486.47911)"
     style="vector-effect:non-scaling-stroke;fill:none;fill-opacity:1;stroke:#000000;stroke-width:0.264583;stroke-dasharray:none;stroke-opacity:1;-inkscape-stroke:hairline" />
  <polyline
     z="0"
     points="756.9,608.74 762.1,608.74 762.1,601.35 776.518,601.35 776.518,606.55 795.736,606.55 795.736,601.35 815.355,601.35 815.355,606.55 834.573,606.55 834.573,601.35 854.191,601.35 854.191,606.55 873.409,606.55 873.409,601.35 893.027,601.35 893.027,606.55 912.245,606.55 912.245,601.35 931.864,601.35 931.864,606.55 951.082,606.55 951.082,601.35 965.5,601.35 965.5,608.74 970.7,608.74 970.7,616.33 965.5,616.33 965.5,623.52 970.7,623.52 970.7,631.11 965.5,631.11 965.5,638.5 951.082,638.5 951.082,633.3 931.864,633.3 931.864,638.5 912.245,638.5 912.245,633.3 893.027,633.3 893.027,638.5 873.409,638.5 873.409,633.3 854.191,633.3 854.191,638.5 834.573,638.5 834.573,633.3 815.355,633.3 815.355,638.5 795.736,638.5 795.736,633.3 776.518,633.3 776.518,638.5 762.1,638.5 762.1,631.11 756.9,631.11 756.9,623.52 762.1,623.52 762.1,616.33 756.9,616.33 756.9,608.74"
     fill="none"
     stroke="#000000"
     stroke-width="0.1mm"
     id="polyline8-7"
     transform="rotate(-90,604.87911,815.82089)"
     style="vector-effect:non-scaling-stroke;fill:none;fill-opacity:1;stroke:#000000;stroke-width:0.264583;stroke-dasharray:none;stroke-opacity:1;-inkscape-stroke:hairline" />
</svg>
