<?xml version="1.0" encoding="UTF-8" standalone="no"?>
<svg
   width="1300mm"
   height="900mm"
   viewBox="0 0 1300 900"
   version="1.1"
   id="svg8"
   sodipodi:docname="CircBlades.svg"
   inkscape:version="1.3.2 (091e20ef0f, 2023-11-25)"
   xmlns:inkscape="http://www.inkscape.org/namespaces/inkscape"
   xmlns:sodipodi="http://sodipodi.sourceforge.net/DTD/sodipodi-0.dtd"
   xmlns="http://www.w3.org/2000/svg"
   xmlns:svg="http://www.w3.org/2000/svg">
  <defs
     id="defs8" />
  <sodipodi:namedview
     id="namedview8"
     pagecolor="#505050"
     bordercolor="#eeeeee"
     borderopacity="1"
     inkscape:showpageshadow="0"
     inkscape:pageopacity="0"
     inkscape:pagecheckerboard="0"
     inkscape:deskcolor="#505050"
     inkscape:document-units="mm"
     inkscape:zoom="0.16343109"
     inkscape:cx="2453.6335"
     inkscape:cy="1697.9633"
     inkscape:window-width="1920"
     inkscape:window-height="1011"
     inkscape:window-x="0"
     inkscape:window-y="32"
     inkscape:window-maximized="1"
     inkscape:current-layer="svg8" />
  <polyline
     z="0"
     points="334.5,638.5 334.5,629.264 329.3,629.264 329.3,619.827 334.5,619.827 334.5,610.791 329.3,610.791 329.3,601.355 334.5,601.355 334.5,592.318 329.3,592.318 329.3,582.882 334.5,582.882 334.5,573.845 329.3,573.845 329.3,564.409 334.5,564.409 334.5,555.373 329.3,555.373 329.3,545.936 334.5,545.936 334.5,536.7 348.718,536.7 348.718,531.5 368.336,531.5 368.336,536.7 387.555,536.7 387.555,531.5 407.173,531.5 407.173,536.7 426.391,536.7 426.391,531.5 446.009,531.5 446.009,536.7 465.227,536.7 465.227,531.5 484.845,531.5 484.845,536.7 504.064,536.7 504.064,531.5 523.682,531.5 523.682,536.7 537.9,536.7 537.9,545.936 543.1,545.936 543.1,555.373 537.9,555.373 537.9,564.409 543.1,564.409 543.1,573.845 537.9,573.845 537.9,582.882 543.1,582.882 543.1,592.318 537.9,592.318 537.9,601.355 543.1,601.355 543.1,610.791 537.9,610.791 537.9,619.827 543.1,619.827 543.1,629.264 537.9,629.264 537.9,638.5 527.361,638.5 517.958,629.977 507.799,622.443 496.952,615.941 485.519,610.533 473.611,606.273 461.343,603.2 448.832,601.345 436.2,600.724 423.568,601.345 411.057,603.2 398.789,606.273 386.881,610.533 375.448,615.941 364.601,622.443 354.442,629.977 345.039,638.5 334.5,638.5"
     fill="none"
     stroke="#000000"
     stroke-width="0.1mm"
     id="polyline1"
     transform="rotate(-90,650,450)"
     style="fill:none;fill-opacity:1;stroke-width:0.26458333;stroke-dasharray:none;vector-effect:non-scaling-stroke;-inkscape-stroke:hairline;stroke:#000000;stroke-opacity:1" />
  <path
     id="polyline2"
     style="fill:none;fill-opacity:1;stroke-width:0.26458333;stroke-dasharray:none;vector-effect:non-scaling-stroke;-inkscape-stroke:hairline;stroke:#000000;stroke-opacity:1"
     d="M 543.10014 494.34987 L 523.95506 494.34987 L 523.95506 499.55007 L 505.20892 499.55007 L 505.20892 494.54985 L 522.02494 494.54985 L 522.02494 488.82876 L 508.49605 475.29987 L 500.36425 475.29987 L 500.36425 480.50007 L 492.57299 480.50007 L 492.57299 475.29987 L 484.38176 475.29987 L 484.38176 480.50007 L 476.59102 480.50007 L 476.59102 475.29987 L 468.40083 475.29987 L 468.40083 480.50007 L 460.61009 480.50007 L 460.61009 475.29987 L 452.45193 475.29987 L 450.41123 480.22721 L 464.53388 494.34987 L 448.17312 494.34987 L 448.17312 499.55007 L 429.42698 499.55007 L 429.42698 494.34987 L 410.28189 494.34987 L 410.28189 499.55007 L 391.53575 499.55007 L 391.53575 494.34987 L 372.39118 494.34987 L 372.39118 499.55007 L 353.64504 499.55007 L 353.64504 494.34987 L 329.29976 494.34987 L 329.29976 501.9401 L 334.49996 501.9401 L 334.49996 509.12984 L 329.29976 509.12984 L 329.29976 516.72008 L 334.49996 516.72008 L 334.49996 523.90982 L 329.29976 523.90982 L 329.29976 531.50005 L 343.93607 531.50005 L 343.93607 526.29985 L 352.97325 526.29985 L 352.97325 531.50005 L 362.40885 531.50005 L 362.40885 526.29985 L 371.44499 526.29985 L 371.44499 531.50005 L 380.88214 531.50005 L 380.88214 526.29985 L 389.91776 526.29985 L 389.91776 531.50005 L 399.35491 531.50005 L 399.35491 526.29985 L 408.39105 526.29985 L 408.39105 531.50005 L 417.82717 531.50005 L 417.82717 526.29985 L 426.86383 526.29985 L 426.86383 531.50005 L 436.21519 531.50005 L 543.10014 499.72525 L 543.10014 494.34987 z M 486.06383 494.54985 L 486.06383 499.55007 L 467.3182 499.55007 L 467.3182 494.54985 L 486.06383 494.54985 z "
     transform="rotate(-90,650,450)" />
  <polyline
     z="0"
     points="537.9,475.3 334.5,475.3 334.5,456.355 329.3,456.355 329.3,437.209 334.5,437.209 334.5,418.464 329.3,418.464 329.3,399.318 334.5,399.318 334.5,380.573 329.3,380.573 329.3,361.427 334.5,361.427 334.5,342.682 329.3,342.682 329.3,323.536 334.5,323.536 334.5,304.791 329.3,304.791 329.3,285.645 334.5,285.645 334.5,266.7 348.718,266.7 348.718,261.5 368.336,261.5 368.336,266.7 387.555,266.7 387.555,261.5 407.173,261.5 407.173,266.7 426.391,266.7 426.391,261.5 446.009,261.5 446.009,266.7 465.227,266.7 465.227,261.5 484.845,261.5 484.845,266.7 504.064,266.7 504.064,261.5 523.682,261.5 523.682,266.7 537.9,266.7 537.9,285.645 543.1,285.645 543.1,304.791 537.9,304.791 537.9,323.536 543.1,323.536 543.1,342.682 537.9,342.682 537.9,361.427 543.1,361.427 543.1,380.573 537.9,380.573 537.9,399.318 543.1,399.318 543.1,418.464 537.9,418.464 537.9,437.209 543.1,437.209 543.1,456.355 537.9,456.355 537.9,475.3"
     fill="none"
     stroke="#000000"
     stroke-width="0.1mm"
     id="polyline4"
     transform="rotate(-90,650,450)"
     style="fill:none;fill-opacity:1;stroke-width:0.26458333;stroke-dasharray:none;vector-effect:non-scaling-stroke;-inkscape-stroke:hairline;stroke:#000000;stroke-opacity:1" />
  <path
     id="polyline5"
     style="fill:none;fill-opacity:1;stroke-width:0.26458333;stroke-dasharray:none;vector-effect:non-scaling-stroke;-inkscape-stroke:hairline;stroke:#000000;stroke-opacity:1"
     d="M 756.90001 494.34987 L 732.55524 494.34987 L 732.55524 499.55007 L 713.8091 499.55007 L 713.8091 494.34987 L 694.66402 494.34987 L 694.66402 499.55007 L 675.91788 499.55007 L 675.91788 494.34987 L 656.77279 494.34987 L 656.77279 499.55007 L 638.02716 499.55007 L 638.02716 494.34987 L 621.66589 494.34987 L 635.78906 480.22721 L 633.74784 475.29987 L 625.5902 475.29987 L 625.5902 480.50007 L 617.79894 480.50007 L 617.79894 475.29987 L 609.60874 475.29987 L 609.60874 480.50007 L 601.81801 480.50007 L 601.81801 475.29987 L 593.62677 475.29987 L 593.62677 480.50007 L 585.83604 480.50007 L 585.83604 475.29987 L 577.70423 475.29987 L 564.17483 488.82876 L 564.17483 494.54985 L 580.99085 494.54985 L 580.99085 499.55007 L 562.24523 499.55007 L 562.24523 494.34987 L 543.10014 494.34987 L 543.10014 499.72525 L 649.98509 531.50005 L 659.33594 531.50005 L 659.33594 526.29985 L 668.37312 526.29985 L 668.37312 531.50005 L 677.80923 531.50005 L 677.80923 526.29985 L 686.84486 526.29985 L 686.84486 531.50005 L 696.28201 531.50005 L 696.28201 526.29985 L 705.31815 526.29985 L 705.31815 531.50005 L 714.75478 531.50005 L 714.75478 526.29985 L 723.79092 526.29985 L 723.79092 531.50005 L 733.22704 531.50005 L 733.22704 526.29985 L 742.26421 526.29985 L 742.26421 531.50005 L 756.90001 531.50005 L 756.90001 523.90982 L 751.69981 523.90982 L 751.69981 516.72008 L 756.90001 516.72008 L 756.90001 509.12984 L 751.69981 509.12984 L 751.69981 501.9401 L 756.90001 501.9401 L 756.90001 494.34987 z M 618.88208 494.54985 L 618.88208 499.55007 L 600.13594 499.55007 L 600.13594 494.54985 L 618.88208 494.54985 z "
     transform="rotate(-90,650,450)" />
  <polyline
     z="0"
     points="548.3,582.364 751.7,582.364 751.7,590.355 756.9,590.355 756.9,598.546 751.7,598.546 751.7,606.337 756.9,606.337 756.9,614.527 751.7,614.527 751.7,622.318 756.9,622.318 756.9,630.509 751.7,630.509 751.7,638.5 548.3,638.5 548.3,630.509 543.1,630.509 543.1,622.318 548.3,622.318 548.3,614.527 543.1,614.527 543.1,606.337 548.3,606.337 548.3,598.546 543.1,598.546 543.1,590.355 548.3,590.355 548.3,582.364"
     fill="none"
     stroke="#000000"
     stroke-width="0.1mm"
     id="polyline7"
     transform="rotate(-90,650,450)"
     style="fill:none;fill-opacity:1;stroke-width:0.26458333;stroke-dasharray:none;vector-effect:non-scaling-stroke;-inkscape-stroke:hairline;stroke:#000000;stroke-opacity:1" />
  <polyline
     z="0"
     points="756.9,608.74 762.1,608.74 762.1,601.35 776.518,601.35 776.518,606.55 795.736,606.55 795.736,601.35 815.355,601.35 815.355,606.55 834.573,606.55 834.573,601.35 854.191,601.35 854.191,606.55 873.409,606.55 873.409,601.35 893.027,601.35 893.027,606.55 912.245,606.55 912.245,601.35 931.864,601.35 931.864,606.55 951.082,606.55 951.082,601.35 965.5,601.35 965.5,608.74 970.7,608.74 970.7,616.33 965.5,616.33 965.5,623.52 970.7,623.52 970.7,631.11 965.5,631.11 965.5,638.5 951.082,638.5 951.082,633.3 931.864,633.3 931.864,638.5 912.245,638.5 912.245,633.3 893.027,633.3 893.027,638.5 873.409,638.5 873.409,633.3 854.191,633.3 854.191,638.5 834.573,638.5 834.573,633.3 815.355,633.3 815.355,638.5 795.736,638.5 795.736,633.3 776.518,633.3 776.518,638.5 762.1,638.5 762.1,631.11 756.9,631.11 756.9,623.52 762.1,623.52 762.1,616.33 756.9,616.33 756.9,608.74"
     fill="none"
     stroke="#000000"
     stroke-width="0.1mm"
     id="polyline8"
     transform="rotate(-90,650,450)"
     style="fill:none;fill-opacity:1;stroke-width:0.26458333;stroke-dasharray:none;vector-effect:non-scaling-stroke;-inkscape-stroke:hairline;stroke:#000000;stroke-opacity:1" />
</svg>
