<?xml version="1.0" standalone="no"?>
<!DOCTYPE svg PUBLIC "-//W3C//DTD SVG 1.1//EN" "http://www.w3.org/Graphics/SVG/1.1/DTD/svg11.dtd">
<svg width="1300mm" height="900mm" viewBox="0 0 1300 900" xmlns="http://www.w3.org/2000/svg" version="1.1">
<polyline z="0" points="245.827,901.302 245.827,867.83 251.027,867.83 251.027,834.757 245.827,834.757 245.827,801.284 251.027,801.284 251.027,768.211 245.827,768.211 245.827,734.739 251.027,734.739 251.027,701.666 245.827,701.666 245.827,668.193 251.027,668.193 251.027,635.12 245.827,635.12 245.827,601.648 251.027,601.648 251.027,573.575 260.263,573.575 260.263,568.375 269.7,568.375 269.7,573.575 278.736,573.575 278.736,568.375 288.172,568.375 288.172,573.575 297.209,573.575 297.209,568.375 306.645,568.375 306.645,573.575 315.682,573.575 315.682,568.375 325.118,568.375 325.118,573.575 334.154,573.575 334.154,568.375 343.591,568.375 343.591,573.575 352.827,573.575 352.827,601.648 358.027,601.648 358.027,635.12 352.827,635.12 352.827,668.193 358.027,668.193 358.027,701.666 352.827,701.666 352.827,734.739 358.027,734.739 358.027,768.211 352.827,768.211 352.827,801.284 358.027,801.284 358.027,834.757 352.827,834.757 352.827,867.83 358.027,867.83 358.027,901.302 352.827,901.302 352.827,929.375 343.591,929.375 343.591,934.575 334.154,934.575 334.154,929.375 325.118,929.375 325.118,934.575 315.682,934.575 315.682,929.375 306.645,929.375 306.645,934.575 297.209,934.575 297.209,929.375 288.172,929.375 288.172,934.575 278.736,934.575 278.736,929.375 269.7,929.375 269.7,934.575 260.263,934.575 260.263,929.375 251.027,929.375 251.027,901.302 245.827,901.302" fill="none" stroke="black" stroke-width="0.1mm" />
<polyline z="0" points="296.572,633.366 293.036,629.83 298.391,624.475 293.036,619.12 296.572,615.585 301.927,620.94 307.282,615.585 310.818,619.12 305.463,624.475 310.818,629.83 307.282,633.366 301.927,628.011 296.572,633.366" fill="none" stroke="black" stroke-width="0.1mm" />
<polyline z="0" points="296.572,869.585 301.927,874.94 307.282,869.585 310.818,873.12 305.463,878.475 310.818,883.83 307.282,887.366 301.927,882.011 296.572,887.366 293.036,883.83 298.391,878.475 293.036,873.12 296.572,869.585" fill="none" stroke="black" stroke-width="0.1mm" />
<polyline z="0" points="358.027,851.689 358.027,824.739 360.628,824.739 360.628,797.989 368.401,797.989 368.401,803.189 396.101,803.189 396.101,817.239 368.401,817.239 368.401,878.439 360.628,878.439 360.628,851.689 358.027,851.689" fill="none" stroke="black" stroke-width="0.1mm" />
<polyline z="0" points="363.227,878.439 465.027,878.439 465.027,897.084 470.227,897.084 470.227,915.93 465.027,915.93 465.027,934.575 363.227,934.575 363.227,915.93 358.027,915.93 358.027,897.084 363.227,897.084 363.227,878.439" fill="none" stroke="black" stroke-width="0.1mm" />
<polyline z="0" points="398.701,878.439 398.701,851.689 396.101,851.689 396.101,824.739 398.701,824.739 398.701,797.989 406.475,797.989 406.475,803.189 434.174,803.189 434.174,817.239 406.475,817.239 406.475,878.439 398.701,878.439" fill="none" stroke="black" stroke-width="0.1mm" />
<polyline z="0" points="461.875,878.439 461.875,817.239 434.174,817.239 434.174,803.189 461.875,803.189 461.875,797.989 469.648,797.989 469.648,824.739 472.248,824.739 472.248,851.689 469.648,851.689 469.648,878.439 461.875,878.439" fill="none" stroke="black" stroke-width="0.1mm" />
<polyline z="0" points="499.948,878.439 499.948,817.239 472.248,817.239 472.248,803.189 499.948,803.189 499.948,797.989 520.494,797.989 520.494,803.189 548.194,803.189 548.194,817.239 520.494,817.239 520.494,878.439 499.948,878.439" fill="none" stroke="black" stroke-width="0.1mm" />
<polyline z="0" points="507.721,851.489 507.721,824.939 512.721,824.939 512.721,851.489 507.721,851.489" fill="none" stroke="black" stroke-width="0.1mm" />
<polyline z="0" points="548.194,817.239 548.194,803.189 575.894,803.189 575.894,797.989 583.668,797.989 583.668,824.739 586.268,824.739 586.268,851.689 583.668,851.689 583.668,878.439 575.894,878.439 575.894,817.239 548.194,817.239" fill="none" stroke="black" stroke-width="0.1mm" />
<polyline z="0" points="539.937,947.075 539.937,952.275 558.382,952.275 558.382,947.075 577.169,947.075 590.698,960.604 590.698,966.125 621.428,966.125 621.428,971.325 654.5,971.325 654.5,966.125 682.773,966.125 682.773,974.208 687.973,974.208 687.973,982.492 682.773,982.492 682.773,990.575 654.5,990.575 654.5,985.375 621.428,985.375 621.428,990.575 587.955,990.575 587.955,985.375 554.882,985.375 554.882,990.575 521.409,990.575 521.409,985.375 488.337,985.375 488.337,990.575 454.864,990.575 454.864,985.375 421.791,985.375 421.791,990.575 388.318,990.575 388.318,985.375 355.246,985.375 355.246,990.575 326.973,990.575 326.973,982.492 321.773,982.492 321.773,974.208 326.973,974.208 326.973,966.125 355.246,966.125 355.246,971.325 388.318,971.325 388.318,966.125 421.791,966.125 421.791,971.325 454.864,971.325 454.864,966.125 488.337,966.125 488.337,971.325 521.409,971.325 521.409,966.125 533.207,966.125 519.084,952.003 521.125,947.075 539.937,947.075" fill="none" stroke="black" stroke-width="0.1mm" />
<polyline z="0" points="554.882,966.325 587.955,966.325 587.955,971.325 554.882,971.325 554.882,966.325" fill="none" stroke="black" stroke-width="0.1mm" />
<polyline z="0" points="546.173,990.575 546.173,998.858 540.973,998.858 540.973,1006.742 546.173,1006.742 546.173,1015.025 531.537,1015.025 531.537,1009.825 522.5,1009.825 522.5,1015.025 513.064,1015.025 513.064,1009.825 504.028,1009.825 504.028,1015.025 494.591,1015.025 494.591,1009.825 485.555,1009.825 485.555,1015.025 476.118,1015.025 476.118,1009.825 467.082,1009.825 467.082,1015.025 457.646,1015.025 457.646,1009.825 448.609,1009.825 448.609,1015.025 433.973,1015.025 433.973,1006.742 439.173,1006.742 439.173,998.858 433.973,998.858 433.973,990.575 448.609,990.575 448.609,995.775 457.646,995.775 457.646,990.575 467.082,990.575 467.082,995.775 476.118,995.775 476.118,990.575 485.555,990.575 485.555,995.775 494.591,995.775 494.591,990.575 504.028,990.575 504.028,995.775 513.064,995.775 513.064,990.575 522.5,990.575 522.5,995.775 531.537,995.775 531.537,990.575 546.173,990.575" fill="none" stroke="black" stroke-width="0.1mm" />
<polyline z="0" points="433.973,990.575 433.973,998.858 428.773,998.858 428.773,1006.742 433.973,1006.742 433.973,1015.025 419.337,1015.025 419.337,1009.825 410.3,1009.825 410.3,1015.025 400.864,1015.025 400.864,1009.825 391.828,1009.825 391.828,1015.025 382.391,1015.025 382.391,1009.825 373.355,1009.825 373.355,1015.025 363.918,1015.025 363.918,1009.825 354.882,1009.825 354.882,1015.025 345.446,1015.025 345.446,1009.825 336.409,1009.825 336.409,1015.025 321.773,1015.025 321.773,1006.742 326.973,1006.742 326.973,998.858 321.773,998.858 321.773,990.575 336.409,990.575 336.409,995.775 345.446,995.775 345.446,990.575 354.882,990.575 354.882,995.775 363.918,995.775 363.918,990.575 373.355,990.575 373.355,995.775 382.391,995.775 382.391,990.575 391.828,990.575 391.828,995.775 400.864,995.775 400.864,990.575 410.3,990.575 410.3,995.775 419.337,995.775 419.337,990.575 433.973,990.575" fill="none" stroke="black" stroke-width="0.1mm" />
<polyline z="0" points="321.773,953.825 294.073,953.825 294.073,1015.025 273.527,1015.025 273.527,953.825 245.827,953.825 245.827,939.775 273.527,939.775 273.527,934.575 294.073,934.575 294.073,939.775 321.773,939.775 321.773,953.825" fill="none" stroke="black" stroke-width="0.1mm" />
<polyline z="0" points="286.3,961.525 286.3,988.075 281.3,988.075 281.3,961.525 286.3,961.525" fill="none" stroke="black" stroke-width="0.1mm" />
<polyline z="0" points="277.427,568.375 274.329,568.223 271.262,567.768 268.254,567.015 265.334,565.97 262.531,564.644 259.871,563.049 257.38,561.202 255.082,559.12 253,556.822 251.153,554.331 249.558,551.671 248.233,548.868 247.187,545.948 246.434,542.94 245.979,539.873 245.827,536.777 245.827,282.773 245.979,279.677 246.434,276.61 247.187,273.602 248.233,270.682 249.558,267.879 251.153,265.219 253,262.728 255.082,260.43 257.38,258.348 259.871,256.501 262.531,254.906 265.334,253.581 268.254,252.535 271.262,251.782 274.329,251.327 277.427,251.175 280.525,251.327 283.592,251.782 286.6,252.535 289.52,253.581 292.323,254.906 294.983,256.501 297.474,258.348 299.772,260.43 301.854,262.728 303.701,265.219 305.296,267.879 306.622,270.682 307.667,273.602 308.42,276.61 308.875,279.677 309.027,282.773 309.027,536.777 308.875,539.873 308.42,542.94 307.667,545.948 306.622,548.868 305.296,551.671 303.701,554.331 301.854,556.822 299.772,559.12 297.474,561.202 294.983,563.049 292.323,564.644 289.52,565.97 286.6,567.015 283.592,567.768 280.525,568.223 277.427,568.375" fill="none" stroke="black" stroke-width="0.1mm" />
<polyline z="0" points="272.072,291.666 268.536,288.13 273.891,282.775 268.536,277.42 272.072,273.884 277.427,279.239 282.782,273.884 286.318,277.42 280.963,282.775 286.318,288.13 282.782,291.666 277.427,286.311 272.072,291.666" fill="none" stroke="black" stroke-width="0.1mm" />
<polyline z="0" points="272.072,527.884 277.427,533.239 282.782,527.884 286.318,531.42 280.963,536.775 286.318,542.13 282.782,545.666 277.427,540.311 272.072,545.666 268.536,542.13 273.891,536.775 268.536,531.42 272.072,527.884" fill="none" stroke="black" stroke-width="0.1mm" />
<polyline z="0" points="309.027,536.777 309.027,282.773 309.179,279.677 309.634,276.61 310.387,273.602 311.433,270.682 312.758,267.879 314.353,265.219 316.2,262.728 318.282,260.43 320.58,258.348 323.071,256.501 325.731,254.906 328.534,253.581 331.454,252.535 334.462,251.782 337.529,251.327 340.627,251.175 343.725,251.327 346.792,251.782 349.8,252.535 352.72,253.581 355.523,254.906 358.183,256.501 360.674,258.348 362.972,260.43 365.054,262.728 366.901,265.219 368.496,267.879 369.822,270.682 370.867,273.602 371.62,276.61 372.075,279.677 372.227,282.773 372.227,536.777 372.075,539.873 371.62,542.94 370.867,545.948 369.822,548.868 368.496,551.671 366.901,554.331 365.054,556.822 362.972,559.12 360.674,561.202 358.183,563.049 355.523,564.644 352.72,565.97 349.8,567.015 346.792,567.768 343.725,568.223 340.627,568.375 337.529,568.223 334.462,567.768 331.454,567.015 328.534,565.97 325.731,564.644 323.071,563.049 320.58,561.202 318.282,559.12 316.2,556.822 314.353,554.331 312.758,551.671 311.433,548.868 310.387,545.948 309.634,542.94 309.179,539.873 309.027,536.777" fill="none" stroke="black" stroke-width="0.1mm" />
<polyline z="0" points="306.645,251.175 297.209,251.175 297.209,245.975 288.172,245.975 288.172,251.175 278.736,251.175 278.736,245.975 269.7,245.975 269.7,251.175 260.263,251.175 260.263,245.975 251.027,245.975 251.027,217.902 245.827,217.902 245.827,184.43 251.027,184.43 251.027,151.357 245.827,151.357 245.827,117.884 251.027,117.884 251.027,84.811 245.827,84.811 245.827,51.339 251.027,51.339 251.027,18.266 245.827,18.266 245.827,-15.207 251.027,-15.207 251.027,-48.28 245.827,-48.28 245.827,-81.752 251.027,-81.752 251.027,-109.825 260.263,-109.825 260.263,-115.025 269.7,-115.025 269.7,-109.825 278.736,-109.825 278.736,-115.025 288.172,-115.025 288.172,-109.825 297.209,-109.825 297.209,-115.025 306.645,-115.025 306.645,-109.825 315.682,-109.825 315.682,-115.025 325.118,-115.025 325.118,-109.825 334.154,-109.825 334.154,-115.025 343.591,-115.025 343.591,-109.825 352.827,-109.825 352.827,-81.752 358.027,-81.752 358.027,-48.28 352.827,-48.28 352.827,-15.207 358.027,-15.207 358.027,18.266 352.827,18.266 352.827,51.339 358.027,51.339 358.027,84.811 352.827,84.811 352.827,117.884 358.027,117.884 358.027,151.357 352.827,151.357 352.827,184.43 358.027,184.43 358.027,217.902 352.827,217.902 352.827,245.975 343.591,245.975 343.591,251.175 334.154,251.175 334.154,245.975 325.118,245.975 325.118,251.175 315.682,251.175 315.682,245.975 306.645,245.975 306.645,251.175" fill="none" stroke="black" stroke-width="0.1mm" />
<polyline z="0" points="307.282,-50.035 301.927,-55.39 296.572,-50.035 293.036,-53.57 298.391,-58.925 293.036,-64.28 296.572,-67.816 301.927,-62.461 307.282,-67.816 310.818,-64.28 305.463,-58.925 310.818,-53.57 307.282,-50.035" fill="none" stroke="black" stroke-width="0.1mm" />
<polyline z="0" points="307.282,186.184 310.818,189.72 305.463,195.075 310.818,200.43 307.282,203.965 301.927,198.61 296.572,203.965 293.036,200.43 298.391,195.075 293.036,189.72 296.572,186.184 301.927,191.539 307.282,186.184" fill="none" stroke="black" stroke-width="0.1mm" />
<polyline z="0" points="693.173,966.125 721.446,966.125 721.446,971.325 754.518,971.325 754.518,966.125 785.248,966.125 785.248,960.604 798.777,947.075 817.564,947.075 817.564,952.275 836.009,952.275 836.009,947.075 854.821,947.075 856.862,952.003 842.739,966.125 854.537,966.125 854.537,971.325 887.609,971.325 887.609,966.125 921.082,966.125 921.082,971.325 954.155,971.325 954.155,966.125 987.628,966.125 987.628,971.325 1020.7,971.325 1020.7,966.125 1048.973,966.125 1048.973,974.208 1054.173,974.208 1054.173,982.492 1048.973,982.492 1048.973,990.575 1020.7,990.575 1020.7,985.375 987.628,985.375 987.628,990.575 954.155,990.575 954.155,985.375 921.082,985.375 921.082,990.575 887.609,990.575 887.609,985.375 854.537,985.375 854.537,990.575 821.064,990.575 821.064,985.375 787.991,985.375 787.991,990.575 754.518,990.575 754.518,985.375 721.446,985.375 721.446,990.575 693.173,990.575 693.173,982.492 687.973,982.492 687.973,974.208 693.173,974.208 693.173,966.125" fill="none" stroke="black" stroke-width="0.1mm" />
<polyline z="0" points="787.991,966.325 821.064,966.325 821.064,971.325 787.991,971.325 787.991,966.325" fill="none" stroke="black" stroke-width="0.1mm" />
</svg>