<?xml version="1.0" standalone="no"?>
<!DOCTYPE svg PUBLIC "-//W3C//DTD SVG 1.1//EN" "http://www.w3.org/Graphics/SVG/1.1/DTD/svg11.dtd">
<svg width="1300mm" height="900mm" viewBox="0 0 1300 900" xmlns="http://www.w3.org/2000/svg" version="1.1">
<polyline z="0" points="171.6,895.83 176.8,895.83 176.8,862.757 171.6,862.757 171.6,829.284 176.8,829.284 176.8,796.211 171.6,796.211 171.6,762.739 176.8,762.739 176.8,729.666 171.6,729.666 171.6,696.193 176.8,696.193 176.8,663.12 171.6,663.12 171.6,629.648 176.8,629.648 176.8,601.575 186.036,601.575 186.036,596.375 195.473,596.375 195.473,601.575 204.509,601.575 204.509,596.375 213.945,596.375 213.945,601.575 222.982,601.575 222.982,596.375 232.418,596.375 232.418,601.575 241.455,601.575 241.455,596.375 250.891,596.375 250.891,601.575 259.927,601.575 259.927,596.375 269.364,596.375 269.364,601.575 278.6,601.575 278.6,629.648 283.8,629.648 283.8,663.12 278.6,663.12 278.6,696.193 283.8,696.193 283.8,729.666 278.6,729.666 278.6,762.739 283.8,762.739 283.8,796.211 278.6,796.211 278.6,829.284 283.8,829.284 283.8,862.757 278.6,862.757 278.6,895.83 283.8,895.83 283.8,929.302 278.6,929.302 278.6,957.375 269.364,957.375 269.364,962.575 259.927,962.575 259.927,957.375 250.891,957.375 250.891,962.575 241.455,962.575 241.455,957.375 232.418,957.375 232.418,962.575 222.982,962.575 222.982,957.375 213.945,957.375 213.945,962.575 204.509,962.575 204.509,957.375 195.473,957.375 195.473,962.575 186.036,962.575 186.036,957.375 176.8,957.375 176.8,929.302 171.6,929.302 171.6,895.83" fill="none" stroke="black" stroke-width="0.1mm" />
<polyline z="0" points="222.345,661.366 218.809,657.83 224.164,652.475 218.809,647.12 222.345,643.585 227.7,648.94 233.055,643.585 236.591,647.12 231.236,652.475 236.591,657.83 233.055,661.366 227.7,656.011 222.345,661.366" fill="none" stroke="black" stroke-width="0.1mm" />
<polyline z="0" points="222.345,897.585 227.7,902.94 233.055,897.585 236.591,901.12 231.236,906.475 236.591,911.83 233.055,915.366 227.7,910.011 222.345,915.366 218.809,911.83 224.164,906.475 218.809,901.12 222.345,897.585" fill="none" stroke="black" stroke-width="0.1mm" />
<polyline z="0" points="223.182,962.575 223.182,967.775 232.218,967.775 232.218,962.575 241.655,962.575 241.655,967.775 250.691,967.775 250.691,962.575 260.127,962.575 260.127,967.775 269.164,967.775 269.164,962.575 283.8,962.575 283.8,970.858 278.6,970.858 278.6,978.742 283.8,978.742 283.8,987.025 269.164,987.025 269.164,981.825 260.127,981.825 260.127,987.025 250.691,987.025 250.691,981.825 241.655,981.825 241.655,987.025 232.218,987.025 232.218,981.825 223.182,981.825 223.182,987.025 213.745,987.025 213.745,981.825 204.709,981.825 204.709,987.025 195.273,987.025 195.273,981.825 186.236,981.825 186.236,987.025 171.6,987.025 171.6,978.742 176.8,978.742 176.8,970.858 171.6,970.858 171.6,962.575 186.236,962.575 186.236,967.775 195.273,967.775 195.273,962.575 204.709,962.575 204.709,967.775 213.745,967.775 213.745,962.575 223.182,962.575" fill="none" stroke="black" stroke-width="0.1mm" />
<polyline z="0" points="283.8,962.575 298.436,962.575 298.436,967.775 307.473,967.775 307.473,962.575 316.909,962.575 316.909,967.775 325.945,967.775 325.945,962.575 335.382,962.575 335.382,967.775 344.418,967.775 344.418,962.575 353.855,962.575 353.855,967.775 362.891,967.775 362.891,962.575 372.327,962.575 372.327,967.775 381.364,967.775 381.364,962.575 396,962.575 396,970.858 390.8,970.858 390.8,978.742 396,978.742 396,987.025 381.364,987.025 381.364,981.825 372.327,981.825 372.327,987.025 362.891,987.025 362.891,981.825 353.855,981.825 353.855,987.025 344.418,987.025 344.418,981.825 335.382,981.825 335.382,987.025 325.945,987.025 325.945,981.825 316.909,981.825 316.909,987.025 307.473,987.025 307.473,981.825 298.436,981.825 298.436,987.025 283.8,987.025 283.8,978.742 289,978.742 289,970.858 283.8,970.858 283.8,962.575" fill="none" stroke="black" stroke-width="0.1mm" />
<polyline z="0" points="289,962.575 289,943.93 283.8,943.93 283.8,925.084 289,925.084 289,906.439 390.8,906.439 390.8,925.084 396,925.084 396,943.93 390.8,943.93 390.8,962.575 289,962.575" fill="none" stroke="black" stroke-width="0.1mm" />
<polyline z="0" points="311.501,906.439 311.501,794.439 283.8,794.439 283.8,780.389 311.501,780.389 311.501,775.189 319.274,775.189 319.274,801.399 321.874,801.399 321.874,827.809 319.274,827.809 319.274,853.819 321.874,853.819 321.874,880.229 319.274,880.229 319.274,906.439 311.501,906.439" fill="none" stroke="black" stroke-width="0.1mm" />
<polyline z="0" points="349.574,906.439 349.574,794.439 321.874,794.439 321.874,780.389 349.574,780.389 349.574,775.189 370.12,775.189 370.12,780.389 397.82,780.389 397.82,794.439 370.12,794.439 370.12,906.439 349.574,906.439" fill="none" stroke="black" stroke-width="0.1mm" />
<polyline z="0" points="357.347,827.609 357.347,801.599 362.347,801.599 362.347,827.609 357.347,827.609" fill="none" stroke="black" stroke-width="0.1mm" />
<polyline z="0" points="357.347,854.019 362.347,854.019 362.347,880.029 357.347,880.029 357.347,854.019" fill="none" stroke="black" stroke-width="0.1mm" />
<polyline z="0" points="397.82,853.819 400.42,853.819 400.42,827.809 397.82,827.809 397.82,801.399 400.42,801.399 400.42,775.189 408.193,775.189 408.193,780.389 435.893,780.389 435.893,794.439 408.193,794.439 408.193,906.439 400.42,906.439 400.42,880.229 397.82,880.229 397.82,853.819" fill="none" stroke="black" stroke-width="0.1mm" />
<polyline z="0" points="435.893,853.819 438.494,853.819 438.494,827.809 435.893,827.809 435.893,801.399 438.494,801.399 438.494,775.189 446.267,775.189 446.267,780.389 473.967,780.389 473.967,794.439 446.267,794.439 446.267,906.439 438.494,906.439 438.494,880.229 435.893,880.229 435.893,853.819" fill="none" stroke="black" stroke-width="0.1mm" />
<polyline z="0" points="473.967,794.439 473.967,780.389 501.667,780.389 501.667,775.189 509.441,775.189 509.441,801.399 512.041,801.399 512.041,827.809 509.441,827.809 509.441,853.819 512.041,853.819 512.041,880.229 509.441,880.229 509.441,906.439 501.667,906.439 501.667,794.439 473.967,794.439" fill="none" stroke="black" stroke-width="0.1mm" />
<polyline z="0" points="512.041,794.439 512.041,780.389 539.741,780.389 539.741,775.189 560.287,775.189 560.287,780.389 587.987,780.389 587.987,794.439 560.287,794.439 560.287,906.439 539.741,906.439 539.741,794.439 512.041,794.439" fill="none" stroke="black" stroke-width="0.1mm" />
<polyline z="0" points="547.514,801.599 552.514,801.599 552.514,827.609 547.514,827.609 547.514,801.599" fill="none" stroke="black" stroke-width="0.1mm" />
<polyline z="0" points="547.514,854.019 552.514,854.019 552.514,880.029 547.514,880.029 547.514,854.019" fill="none" stroke="black" stroke-width="0.1mm" />
<polyline z="0" points="595.352,919.075 614.164,919.075 614.164,924.275 632.609,924.275 632.609,919.075 651.396,919.075 664.925,932.604 664.925,938.125 695.655,938.125 695.655,943.325 728.727,943.325 728.727,938.125 757,938.125 757,946.208 762.2,946.208 762.2,954.492 757,954.492 757,962.575 728.727,962.575 728.727,957.375 695.655,957.375 695.655,962.575 662.182,962.575 662.182,957.375 629.109,957.375 629.109,962.575 595.636,962.575 595.636,957.375 562.564,957.375 562.564,962.575 529.091,962.575 529.091,957.375 496.018,957.375 496.018,962.575 462.545,962.575 462.545,957.375 429.473,957.375 429.473,962.575 401.2,962.575 401.2,954.492 396,954.492 396,946.208 401.2,946.208 401.2,938.125 429.473,938.125 429.473,943.325 462.545,943.325 462.545,938.125 496.018,938.125 496.018,943.325 529.091,943.325 529.091,938.125 562.564,938.125 562.564,943.325 595.636,943.325 595.636,938.125 607.434,938.125 593.311,924.003 595.352,919.075" fill="none" stroke="black" stroke-width="0.1mm" />
<polyline z="0" points="629.109,938.325 662.182,938.325 662.182,943.325 629.109,943.325 629.109,938.325" fill="none" stroke="black" stroke-width="0.1mm" />
<polyline z="0" points="762.2,946.208 767.4,946.208 767.4,938.125 795.673,938.125 795.673,943.325 828.745,943.325 828.745,938.125 859.475,938.125 859.475,932.604 873.004,919.075 891.791,919.075 891.791,924.275 910.236,924.275 910.236,919.075 929.048,919.075 931.089,924.003 916.966,938.125 928.764,938.125 928.764,943.325 961.836,943.325 961.836,938.125 995.309,938.125 995.309,943.325 1028.382,943.325 1028.382,938.125 1061.855,938.125 1061.855,943.325 1094.927,943.325 1094.927,938.125 1123.2,938.125 1123.2,946.208 1128.4,946.208 1128.4,954.492 1123.2,954.492 1123.2,962.575 1094.927,962.575 1094.927,957.375 1061.855,957.375 1061.855,962.575 1028.382,962.575 1028.382,957.375 995.309,957.375 995.309,962.575 961.836,962.575 961.836,957.375 928.764,957.375 928.764,962.575 895.291,962.575 895.291,957.375 862.218,957.375 862.218,962.575 828.745,962.575 828.745,957.375 795.673,957.375 795.673,962.575 767.4,962.575 767.4,954.492 762.2,954.492 762.2,946.208" fill="none" stroke="black" stroke-width="0.1mm" />
<polyline z="0" points="862.218,943.325 862.218,938.325 895.291,938.325 895.291,943.325 862.218,943.325" fill="none" stroke="black" stroke-width="0.1mm" />
<polyline z="0" points="292.674,582.331 290.827,584.822 288.745,587.12 286.447,589.202 283.956,591.049 281.296,592.644 278.493,593.97 275.573,595.015 272.565,595.768 269.498,596.223 266.4,596.375 263.302,596.223 260.235,595.768 257.227,595.015 254.307,593.97 251.504,592.644 248.844,591.049 246.353,589.202 244.055,587.12 241.973,584.822 240.126,582.331 238.531,579.671 237.206,576.868 236.16,573.948 235.407,570.94 234.952,567.873 234.8,564.777 234.8,310.773 234.952,307.677 235.407,304.61 236.16,301.602 237.206,298.682 238.531,295.879 240.126,293.219 241.973,290.728 244.055,288.43 246.353,286.348 248.844,284.501 251.504,282.906 254.307,281.581 257.227,280.535 260.235,279.782 263.302,279.327 266.4,279.175 269.498,279.327 272.565,279.782 275.573,280.535 278.493,281.581 281.296,282.906 283.956,284.501 286.447,286.348 288.745,288.43 290.827,290.728 292.674,293.219 294.269,295.879 295.595,298.682 296.64,301.602 297.393,304.61 297.848,307.677 298,310.773 298,564.777 297.848,567.873 297.393,570.94 296.64,573.948 295.595,576.868 294.269,579.671 292.674,582.331" fill="none" stroke="black" stroke-width="0.1mm" />
<polyline z="0" points="271.755,319.666 266.4,314.311 261.045,319.666 257.509,316.13 262.864,310.775 257.509,305.42 261.045,301.884 266.4,307.239 271.755,301.884 275.291,305.42 269.936,310.775 275.291,316.13 271.755,319.666" fill="none" stroke="black" stroke-width="0.1mm" />
<polyline z="0" points="271.755,555.884 275.291,559.42 269.936,564.775 275.291,570.13 271.755,573.666 266.4,568.311 261.045,573.666 257.509,570.13 262.864,564.775 257.509,559.42 261.045,555.884 266.4,561.239 271.755,555.884" fill="none" stroke="black" stroke-width="0.1mm" />
<polyline z="0" points="234.8,564.777 234.648,567.873 234.193,570.94 233.44,573.948 232.395,576.868 231.069,579.671 229.474,582.331 227.627,584.822 225.545,587.12 223.247,589.202 220.756,591.049 218.096,592.644 215.293,593.97 212.373,595.015 209.365,595.768 206.298,596.223 203.2,596.375 200.102,596.223 197.035,595.768 194.027,595.015 191.107,593.97 188.304,592.644 185.644,591.049 183.153,589.202 180.855,587.12 178.773,584.822 176.926,582.331 175.331,579.671 174.006,576.868 172.96,573.948 172.207,570.94 171.752,567.873 171.6,564.777 171.6,310.773 171.752,307.677 172.207,304.61 172.96,301.602 174.006,298.682 175.331,295.879 176.926,293.219 178.773,290.728 180.855,288.43 183.153,286.348 185.644,284.501 188.304,282.906 191.107,281.581 194.027,280.535 197.035,279.782 200.102,279.327 203.2,279.175 206.298,279.327 209.365,279.782 212.373,280.535 215.293,281.581 218.096,282.906 220.756,284.501 223.247,286.348 225.545,288.43 227.627,290.728 229.474,293.219 231.069,295.879 232.395,298.682 233.44,301.602 234.193,304.61 234.648,307.677 234.8,310.773 234.8,564.777" fill="none" stroke="black" stroke-width="0.1mm" />
<polyline z="0" points="232.418,279.175 222.982,279.175 222.982,273.975 213.945,273.975 213.945,279.175 204.509,279.175 204.509,273.975 195.473,273.975 195.473,279.175 186.036,279.175 186.036,273.975 176.8,273.975 176.8,245.902 171.6,245.902 171.6,212.43 176.8,212.43 176.8,179.357 171.6,179.357 171.6,145.884 176.8,145.884 176.8,112.811 171.6,112.811 171.6,79.339 176.8,79.339 176.8,46.266 171.6,46.266 171.6,12.793 176.8,12.793 176.8,-20.28 171.6,-20.28 171.6,-53.752 176.8,-53.752 176.8,-81.825 186.036,-81.825 186.036,-87.025 195.473,-87.025 195.473,-81.825 204.509,-81.825 204.509,-87.025 213.945,-87.025 213.945,-81.825 222.982,-81.825 222.982,-87.025 232.418,-87.025 232.418,-81.825 241.455,-81.825 241.455,-87.025 250.891,-87.025 250.891,-81.825 259.927,-81.825 259.927,-87.025 269.364,-87.025 269.364,-81.825 278.6,-81.825 278.6,-53.752 283.8,-53.752 283.8,-20.28 278.6,-20.28 278.6,12.793 283.8,12.793 283.8,46.266 278.6,46.266 278.6,79.339 283.8,79.339 283.8,112.811 278.6,112.811 278.6,145.884 283.8,145.884 283.8,179.357 278.6,179.357 278.6,212.43 283.8,212.43 283.8,245.902 278.6,245.902 278.6,273.975 269.364,273.975 269.364,279.175 259.927,279.175 259.927,273.975 250.891,273.975 250.891,279.175 241.455,279.175 241.455,273.975 232.418,273.975 232.418,279.175" fill="none" stroke="black" stroke-width="0.1mm" />
<polyline z="0" points="233.055,-22.035 227.7,-27.39 222.345,-22.035 218.809,-25.57 224.164,-30.925 218.809,-36.28 222.345,-39.816 227.7,-34.461 233.055,-39.816 236.591,-36.28 231.236,-30.925 236.591,-25.57 233.055,-22.035" fill="none" stroke="black" stroke-width="0.1mm" />
<polyline z="0" points="233.055,214.184 236.591,217.72 231.236,223.075 236.591,228.43 233.055,231.965 227.7,226.61 222.345,231.965 218.809,228.43 224.164,223.075 218.809,217.72 222.345,214.184 227.7,219.539 233.055,214.184" fill="none" stroke="black" stroke-width="0.1mm" />
</svg>