<?xml version="1.0" standalone="no"?>
<!DOCTYPE svg PUBLIC "-//W3C//DTD SVG 1.1//EN" "http://www.w3.org/Graphics/SVG/1.1/DTD/svg11.dtd">
<svg width="1300mm" height="900mm" viewBox="0 0 1300 900" xmlns="http://www.w3.org/2000/svg" version="1.1">
<polyline z="0" points="270.919,863.484 270.919,855.711 279.319,855.711 279.319,853.111 287.919,853.111 287.919,855.711 296.119,855.711 296.119,853.111 304.719,853.111 304.719,855.711 313.119,855.711 313.119,863.482 276.119,863.952 276.119,863.484 270.919,863.484" fill="none" stroke="black" stroke-width="0.1mm" />
<polyline z="0" points="270.919,852.642 270.919,832.096 276.119,832.096 276.119,831.628 313.119,832.098 313.119,852.641 276.119,853.111 276.119,852.642 270.919,852.642" fill="none" stroke="black" stroke-width="0.1mm" />
<polyline z="0" points="296.319,844.869 296.319,839.869 304.519,839.869 304.519,844.869 296.319,844.869" fill="none" stroke="black" stroke-width="0.1mm" />
<polyline z="0" points="287.719,844.869 279.519,844.869 279.519,839.869 287.719,839.869 287.719,844.869" fill="none" stroke="black" stroke-width="0.1mm" />
<polyline z="0" points="293.961,830.457 290.975,829.454 288.103,828.158 285.375,826.583 282.817,824.744 280.455,822.66 278.313,820.35 276.41,817.839 274.767,815.151 273.4,812.313 272.323,809.353 271.546,806.3 271.077,803.184 270.919,800.038 271.077,796.892 271.546,793.776 272.323,790.724 273.4,787.763 274.767,784.925 276.41,782.237 278.313,779.726 280.455,777.416 282.817,775.332 285.375,773.493 288.103,771.918 290.975,770.622 293.961,769.619 297.032,768.918 300.158,768.526 303.307,768.448 306.449,768.683 309.551,769.23 312.583,770.083 315.516,771.235 318.319,772.671 320.966,774.381 323.429,776.345 325.684,778.545 327.709,780.958 329.484,783.561 330.991,786.328 332.213,789.23 333.142,792.24 333.766,795.328 334.08,798.462 334.119,800.038 334.08,801.614 333.766,804.748 333.142,807.836 332.213,810.846 330.991,813.749 329.484,816.515 327.709,819.119 325.684,821.531 323.429,823.731 320.966,825.695 318.319,827.405 315.516,828.841 312.583,829.993 309.551,830.846 306.449,831.393 303.307,831.628 300.158,831.55 297.032,831.158 293.961,830.457" fill="none" stroke="black" stroke-width="0.1mm" />
<polyline z="0" points="300.019,810.111 300.019,802.538 292.446,802.538 292.446,797.538 300.019,797.538 300.019,789.965 305.019,789.965 305.019,797.538 312.592,797.538 312.592,802.538 305.019,802.538 305.019,810.111 300.019,810.111" fill="none" stroke="black" stroke-width="0.1mm" />
<polyline z="0" points="313.119,832.096 318.319,832.096 318.319,831.628 355.319,832.098 355.319,852.641 318.319,853.111 318.319,852.642 313.119,852.642 313.119,832.096" fill="none" stroke="black" stroke-width="0.1mm" />
<polyline z="0" points="338.519,839.869 346.719,839.869 346.719,844.869 338.519,844.869 338.519,839.869" fill="none" stroke="black" stroke-width="0.1mm" />
<polyline z="0" points="329.919,839.869 329.919,844.869 321.719,844.869 321.719,839.869 329.919,839.869" fill="none" stroke="black" stroke-width="0.1mm" />
<polyline z="0" points="330.119,853.111 330.119,855.711 338.319,855.711 338.319,853.111 346.919,853.111 346.919,855.711 355.319,855.711 355.319,863.482 318.319,863.952 318.319,863.484 313.119,863.484 313.119,855.711 321.519,855.711 321.519,853.111 330.119,853.111" fill="none" stroke="black" stroke-width="0.1mm" />
<polyline z="0" points="355.319,852.642 355.319,832.096 360.519,832.096 360.519,831.628 397.519,832.098 397.519,852.641 360.519,853.111 360.519,852.642 355.319,852.642" fill="none" stroke="black" stroke-width="0.1mm" />
<polyline z="0" points="380.719,844.869 380.719,839.869 388.919,839.869 388.919,844.869 380.719,844.869" fill="none" stroke="black" stroke-width="0.1mm" />
<polyline z="0" points="372.119,844.869 363.919,844.869 363.919,839.869 372.119,839.869 372.119,844.869" fill="none" stroke="black" stroke-width="0.1mm" />
<polyline z="0" points="372.319,853.111 372.319,855.711 380.519,855.711 380.519,853.111 389.119,853.111 389.119,855.711 397.519,855.711 397.519,863.482 360.519,863.952 360.519,863.484 355.319,863.484 355.319,855.711 363.719,855.711 363.719,853.111 372.319,853.111" fill="none" stroke="black" stroke-width="0.1mm" />
<polyline z="0" points="368.041,831.55 364.892,831.628 361.751,831.393 358.648,830.846 355.615,829.993 352.683,828.841 349.879,827.405 347.233,825.695 344.77,823.731 342.515,821.531 340.491,819.119 338.716,816.515 337.209,813.749 335.985,810.846 335.056,807.836 334.432,804.748 334.119,801.613 334.119,798.463 334.432,795.328 335.056,792.24 335.985,789.23 337.209,786.328 338.716,783.561 340.491,780.958 342.515,778.545 344.77,776.345 347.233,774.381 349.879,772.671 352.683,771.235 355.615,770.083 358.648,769.23 361.751,768.683 364.892,768.448 368.041,768.526 371.167,768.918 374.238,769.619 377.225,770.622 380.096,771.918 382.825,773.493 385.382,775.332 387.744,777.416 389.887,779.726 391.789,782.237 393.431,784.925 394.799,787.763 395.876,790.724 396.653,793.776 397.123,796.892 397.279,800.038 397.123,803.184 396.653,806.3 395.876,809.353 394.799,812.313 393.431,815.151 391.789,817.839 389.887,820.35 387.744,822.66 385.382,824.744 382.825,826.583 380.096,828.158 377.225,829.454 374.238,830.457 371.167,831.158 368.041,831.55" fill="none" stroke="black" stroke-width="0.1mm" />
<polyline z="0" points="397.519,832.096 402.719,832.096 402.719,831.628 439.719,832.098 439.719,852.641 402.719,853.111 402.719,852.642 397.519,852.642 397.519,832.096" fill="none" stroke="black" stroke-width="0.1mm" />
<polyline z="0" points="422.919,839.869 431.119,839.869 431.119,844.869 422.919,844.869 422.919,839.869" fill="none" stroke="black" stroke-width="0.1mm" />
<polyline z="0" points="414.319,839.869 414.319,844.869 406.119,844.869 406.119,839.869 414.319,839.869" fill="none" stroke="black" stroke-width="0.1mm" />
<polyline z="0" points="418.776,829.993 415.843,828.841 413.039,827.405 410.393,825.695 407.93,823.731 405.675,821.531 403.651,819.119 401.876,816.515 400.369,813.749 399.145,810.846 398.216,807.836 397.592,804.748 397.279,801.613 397.279,798.463 397.592,795.328 398.216,792.24 399.145,789.23 400.369,786.328 401.876,783.561 403.651,780.958 405.675,778.545 407.93,776.345 410.393,774.381 413.039,772.671 415.843,771.235 418.776,770.083 421.808,769.23 424.911,768.683 428.052,768.448 431.201,768.526 434.327,768.918 437.399,769.619 440.385,770.622 443.256,771.918 445.985,773.493 448.542,775.332 450.904,777.416 453.047,779.726 454.949,782.237 456.591,784.925 457.959,787.763 459.036,790.724 459.814,793.776 460.283,796.892 460.44,800.038 460.283,803.184 459.814,806.3 459.036,809.353 457.959,812.313 456.591,815.151 454.949,817.839 453.047,820.35 450.904,822.66 448.542,824.744 445.985,826.583 443.256,828.158 440.385,829.454 437.399,830.457 434.327,831.158 431.201,831.55 428.052,831.628 424.911,831.393 421.808,830.846 418.776,829.993" fill="none" stroke="black" stroke-width="0.1mm" />
<polyline z="0" points="439.719,832.096 444.919,832.096 444.919,831.628 481.919,832.098 481.919,852.641 444.919,853.111 444.919,852.642 439.719,852.642 439.719,832.096" fill="none" stroke="black" stroke-width="0.1mm" />
<polyline z="0" points="465.119,839.869 473.319,839.869 473.319,844.869 465.119,844.869 465.119,839.869" fill="none" stroke="black" stroke-width="0.1mm" />
<polyline z="0" points="456.519,839.869 456.519,844.869 448.319,844.869 448.319,839.869 456.519,839.869" fill="none" stroke="black" stroke-width="0.1mm" />
<polyline z="0" points="456.719,853.111 456.719,855.711 464.919,855.711 464.919,853.111 473.519,853.111 473.519,855.711 481.919,855.711 481.919,863.482 444.919,863.952 444.919,863.484 439.719,863.484 439.719,855.711 448.119,855.711 448.119,853.111 456.719,853.111" fill="none" stroke="black" stroke-width="0.1mm" />
<polyline z="0" points="439.719,855.711 439.719,863.482 402.719,863.952 402.719,863.484 397.519,863.484 397.519,855.711 405.919,855.711 405.919,853.111 414.519,853.111 414.519,855.711 422.719,855.711 422.719,853.111 431.319,853.111 431.319,855.711 439.719,855.711" fill="none" stroke="black" stroke-width="0.1mm" />
<polyline z="0" points="481.919,855.711 490.319,855.711 490.319,853.111 498.919,853.111 498.919,855.711 507.119,855.711 507.119,853.111 515.719,853.111 515.719,855.711 524.119,855.711 524.119,863.482 487.119,863.952 487.119,863.484 481.919,863.484 481.919,855.711" fill="none" stroke="black" stroke-width="0.1mm" />
<polyline z="0" points="481.919,852.642 481.919,832.096 487.119,832.096 487.119,831.628 524.119,832.098 524.119,852.641 487.119,853.111 487.119,852.642 481.919,852.642" fill="none" stroke="black" stroke-width="0.1mm" />
<polyline z="0" points="507.319,844.869 507.319,839.869 515.519,839.869 515.519,844.869 507.319,844.869" fill="none" stroke="black" stroke-width="0.1mm" />
<polyline z="0" points="498.719,844.869 490.519,844.869 490.519,839.869 498.719,839.869 498.719,844.869" fill="none" stroke="black" stroke-width="0.1mm" />
<polyline z="0" points="495.969,831.393 492.827,831.628 489.678,831.55 486.552,831.158 483.482,830.457 480.495,829.454 477.623,828.158 474.895,826.583 472.337,824.744 469.976,822.66 467.833,820.35 465.93,817.839 464.288,815.151 462.92,812.313 461.843,809.353 461.067,806.3 460.597,803.184 460.44,800.038 460.597,796.892 461.067,793.776 461.843,790.724 462.92,787.763 464.288,784.925 465.93,782.237 467.833,779.726 469.976,777.416 472.337,775.332 474.895,773.493 477.623,771.918 480.495,770.622 483.482,769.619 486.552,768.918 489.678,768.526 492.827,768.448 495.969,768.683 499.071,769.23 502.104,770.083 505.037,771.235 507.84,772.671 510.486,774.381 512.949,776.345 515.204,778.545 517.23,780.958 519.004,783.561 520.511,786.328 521.734,789.23 522.663,792.24 523.287,795.328 523.601,798.462 523.64,800.038 523.601,801.614 523.287,804.748 522.663,807.836 521.734,810.846 520.511,813.749 519.004,816.515 517.23,819.119 515.204,821.531 512.949,823.731 510.486,825.695 507.84,827.405 505.037,828.841 502.104,829.993 499.071,830.846 495.969,831.393" fill="none" stroke="black" stroke-width="0.1mm" />
<polyline z="0" points="494.54,810.111 489.54,810.111 489.54,802.538 481.967,802.538 481.967,797.538 489.54,797.538 489.54,789.965 494.54,789.965 494.54,797.538 502.113,797.538 502.113,802.538 494.54,802.538 494.54,810.111" fill="none" stroke="black" stroke-width="0.1mm" />
<polyline z="0" points="524.267,806.3 523.797,803.184 523.64,800.038 523.797,796.892 524.267,793.776 525.043,790.724 526.121,787.763 527.488,784.925 529.13,782.237 531.033,779.726 533.176,777.416 535.537,775.332 538.096,773.493 540.823,771.918 543.695,770.622 546.682,769.619 549.752,768.918 552.878,768.526 556.027,768.448 559.169,768.683 562.271,769.23 565.304,770.083 568.237,771.235 571.04,772.671 573.686,774.381 576.149,776.345 578.404,778.545 580.43,780.958 582.204,783.561 583.711,786.328 584.934,789.23 585.863,792.24 586.487,795.328 586.801,798.462 586.84,800.038 586.801,801.614 586.487,804.748 585.863,807.836 584.934,810.846 583.711,813.749 582.204,816.515 580.43,819.119 578.404,821.531 576.149,823.731 573.686,825.695 571.04,827.405 568.237,828.841 565.304,829.993 562.271,830.846 559.169,831.393 556.027,831.628 552.878,831.55 549.752,831.158 546.682,830.457 543.695,829.454 540.823,828.158 538.096,826.583 535.537,824.744 533.176,822.66 531.033,820.35 529.13,817.839 527.488,815.151 526.121,812.313 525.043,809.353 524.267,806.3" fill="none" stroke="black" stroke-width="0.1mm" />
<polyline z="0" points="545.167,802.538 545.167,797.538 552.74,797.538 552.74,789.965 557.74,789.965 557.74,797.538 565.313,797.538 565.313,802.538 557.74,802.538 557.74,810.111 552.74,810.111 552.74,802.538 545.167,802.538" fill="none" stroke="black" stroke-width="0.1mm" />
<polyline z="0" points="586.84,801.613 586.84,798.463 587.153,795.328 587.777,792.24 588.706,789.23 589.93,786.328 591.436,783.561 593.211,780.958 595.235,778.545 597.491,776.345 599.953,774.381 602.6,772.671 605.404,771.235 608.336,770.083 611.369,769.23 614.471,768.683 617.612,768.448 620.761,768.526 623.887,768.918 626.959,769.619 629.945,770.622 632.817,771.918 635.545,773.493 638.102,775.332 640.465,777.416 642.608,779.726 644.51,782.237 646.152,784.925 647.519,787.763 648.597,790.724 649.374,793.776 649.844,796.892 650,800.038 649.844,803.184 649.374,806.3 648.597,809.353 647.519,812.313 646.152,815.151 644.51,817.839 642.608,820.35 640.465,822.66 638.102,824.744 635.545,826.583 632.817,828.158 629.945,829.454 626.959,830.457 623.887,831.158 620.761,831.55 617.612,831.628 614.471,831.393 611.369,830.846 608.336,829.993 605.404,828.841 602.6,827.405 599.953,825.695 597.491,823.731 595.235,821.531 593.211,819.119 591.436,816.515 589.93,813.749 588.706,810.846 587.777,807.836 587.153,804.748 586.84,801.613" fill="none" stroke="black" stroke-width="0.1mm" />
<polyline z="0" points="583.319,853.111 583.319,855.711 591.519,855.711 591.519,853.111 600.119,853.111 600.119,855.711 608.519,855.711 608.519,863.482 571.519,863.952 571.519,863.484 566.319,863.484 566.319,855.711 574.719,855.711 574.719,853.111 583.319,853.111" fill="none" stroke="black" stroke-width="0.1mm" />
<polyline z="0" points="566.319,855.711 566.319,863.482 529.319,863.952 529.319,863.484 524.119,863.484 524.119,855.711 532.519,855.711 532.519,853.111 541.119,853.111 541.119,855.711 549.319,855.711 549.319,853.111 557.919,853.111 557.919,855.711 566.319,855.711" fill="none" stroke="black" stroke-width="0.1mm" />
<polyline z="0" points="608.519,855.711 616.919,855.711 616.919,853.111 625.519,853.111 625.519,855.711 633.719,855.711 633.719,853.111 642.319,853.111 642.319,855.711 650.719,855.711 650.719,863.482 613.719,863.952 613.719,863.484 608.519,863.484 608.519,855.711" fill="none" stroke="black" stroke-width="0.1mm" />
<polyline z="0" points="650.719,855.711 659.119,855.711 659.119,853.111 667.719,853.111 667.719,855.711 675.919,855.711 675.919,853.111 684.519,853.111 684.519,855.711 692.919,855.711 692.919,863.482 655.919,863.952 655.919,863.484 650.719,863.484 650.719,855.711" fill="none" stroke="black" stroke-width="0.1mm" />
<polyline z="0" points="665.76,827.405 663.114,825.695 660.651,823.731 658.396,821.531 656.371,819.119 654.597,816.515 653.09,813.749 651.866,810.846 650.937,807.836 650.313,804.748 650,801.613 650,798.463 650.313,795.328 650.937,792.24 651.866,789.23 653.09,786.328 654.597,783.561 656.371,780.958 658.396,778.545 660.651,776.345 663.114,774.381 665.76,772.671 668.564,771.235 671.496,770.083 674.529,769.23 677.632,768.683 680.773,768.448 683.921,768.526 687.047,768.918 690.119,769.619 693.106,770.622 695.977,771.918 698.705,773.493 701.262,775.332 703.625,777.416 705.768,779.726 707.67,782.237 709.312,784.925 710.679,787.763 711.757,790.724 712.534,793.776 713.004,796.892 713.16,800.038 713.004,803.184 712.534,806.3 711.757,809.353 710.679,812.313 709.312,815.151 707.67,817.839 705.768,820.35 703.625,822.66 701.262,824.744 698.705,826.583 695.977,828.158 693.106,829.454 690.119,830.457 687.047,831.158 683.921,831.55 680.773,831.628 677.632,831.393 674.529,830.846 671.496,829.993 668.564,828.841 665.76,827.405" fill="none" stroke="black" stroke-width="0.1mm" />
<polyline z="0" points="692.919,855.711 701.319,855.711 701.319,853.111 709.919,853.111 709.919,855.711 718.119,855.711 718.119,853.111 726.719,853.111 726.719,855.711 735.119,855.711 735.119,863.482 698.119,863.952 698.119,863.484 692.919,863.484 692.919,855.711" fill="none" stroke="black" stroke-width="0.1mm" />
<polyline z="0" points="735.119,855.711 743.519,855.711 743.519,853.111 752.119,853.111 752.119,855.711 760.319,855.711 760.319,853.111 768.919,853.111 768.919,855.711 777.319,855.711 777.319,863.482 740.319,863.952 740.319,863.484 735.119,863.484 735.119,855.711" fill="none" stroke="black" stroke-width="0.1mm" />
<polyline z="0" points="739.273,831.158 736.202,830.457 733.216,829.454 730.344,828.158 727.616,826.583 725.058,824.744 722.696,822.66 720.554,820.35 718.651,817.839 717.008,815.151 715.641,812.313 714.564,809.353 713.787,806.3 713.318,803.184 713.16,800.038 713.318,796.892 713.787,793.776 714.564,790.724 715.641,787.763 717.008,784.925 718.651,782.237 720.554,779.726 722.696,777.416 725.058,775.332 727.616,773.493 730.344,771.918 733.216,770.622 736.202,769.619 739.273,768.918 742.399,768.526 745.548,768.448 748.69,768.683 751.792,769.23 754.824,770.083 757.757,771.235 760.56,772.671 763.207,774.381 765.67,776.345 767.925,778.545 769.95,780.958 771.725,783.561 773.231,786.328 774.454,789.23 775.383,792.24 776.007,795.328 776.321,798.462 776.36,800.038 776.321,801.614 776.007,804.748 775.383,807.836 774.454,810.846 773.231,813.749 771.725,816.515 769.95,819.119 767.925,821.531 765.67,823.731 763.207,825.695 760.56,827.405 757.757,828.841 754.824,829.993 751.792,830.846 748.69,831.393 745.548,831.628 742.399,831.55 739.273,831.158" fill="none" stroke="black" stroke-width="0.1mm" />
<polyline z="0" points="742.26,810.111 742.26,802.538 734.687,802.538 734.687,797.538 742.26,797.538 742.26,789.965 747.26,789.965 747.26,797.538 754.833,797.538 754.833,802.538 747.26,802.538 747.26,810.111 742.26,810.111" fill="none" stroke="black" stroke-width="0.1mm" />
<polyline z="0" points="776.987,806.3 776.518,803.184 776.36,800.038 776.518,796.892 776.987,793.776 777.764,790.724 778.841,787.763 780.208,784.925 781.851,782.237 783.754,779.726 785.897,777.416 788.258,775.332 790.816,773.493 793.544,771.918 796.416,770.622 799.402,769.619 802.473,768.918 805.599,768.526 808.748,768.448 811.89,768.683 814.992,769.23 818.024,770.083 820.958,771.235 823.76,772.671 826.407,774.381 828.87,776.345 831.125,778.545 833.15,780.958 834.925,783.561 836.432,786.328 837.655,789.23 838.583,792.24 839.207,795.328 839.521,798.462 839.56,800.038 839.521,801.614 839.207,804.748 838.583,807.836 837.655,810.846 836.432,813.749 834.925,816.515 833.15,819.119 831.125,821.531 828.87,823.731 826.407,825.695 823.76,827.405 820.958,828.841 818.024,829.993 814.992,830.846 811.89,831.393 808.748,831.628 805.599,831.55 802.473,831.158 799.402,830.457 796.416,829.454 793.544,828.158 790.816,826.583 788.258,824.744 785.897,822.66 783.754,820.35 781.851,817.839 780.208,815.151 778.841,812.313 777.764,809.353 776.987,806.3" fill="none" stroke="black" stroke-width="0.1mm" />
<polyline z="0" points="797.887,802.538 797.887,797.538 805.46,797.538 805.46,789.965 810.46,789.965 810.46,797.538 818.033,797.538 818.033,802.538 810.46,802.538 810.46,810.111 805.46,810.111 805.46,802.538 797.887,802.538" fill="none" stroke="black" stroke-width="0.1mm" />
<polyline z="0" points="839.56,801.613 839.56,798.463 839.873,795.328 840.497,792.24 841.426,789.23 842.65,786.328 844.157,783.561 845.932,780.958 847.956,778.545 850.211,776.345 852.674,774.381 855.32,772.671 858.124,771.235 861.057,770.083 864.089,769.23 867.192,768.683 870.333,768.448 873.482,768.526 876.608,768.918 879.68,769.619 882.666,770.622 885.537,771.918 888.266,773.493 890.823,775.332 893.185,777.416 895.328,779.726 897.23,782.237 898.872,784.925 900.24,787.763 901.317,790.724 902.095,793.776 902.564,796.892 902.721,800.038 902.564,803.184 902.095,806.3 901.317,809.353 900.24,812.313 898.872,815.151 897.23,817.839 895.328,820.35 893.185,822.66 890.823,824.744 888.266,826.583 885.537,828.158 882.666,829.454 879.68,830.457 876.608,831.158 873.482,831.55 870.333,831.628 867.192,831.393 864.089,830.846 861.057,829.993 858.124,828.841 855.32,827.405 852.674,825.695 850.211,823.731 847.956,821.531 845.932,819.119 844.157,816.515 842.65,813.749 841.426,810.846 840.497,807.836 839.873,804.748 839.56,801.613" fill="none" stroke="black" stroke-width="0.1mm" />
<polyline z="0" points="902.721,800.038 902.878,796.892 903.348,793.776 904.124,790.724 905.201,787.763 906.569,784.925 908.211,782.237 910.114,779.726 912.257,777.416 914.618,775.332 917.176,773.493 919.904,771.918 922.776,770.622 925.763,769.619 928.833,768.918 931.959,768.526 935.108,768.448 938.25,768.683 941.352,769.23 944.385,770.083 947.318,771.235 950.121,772.671 952.767,774.381 955.23,776.345 957.485,778.545 959.511,780.958 961.285,783.561 962.792,786.328 964.015,789.23 964.944,792.24 965.568,795.328 965.882,798.462 965.921,800.038 965.882,801.614 965.568,804.748 964.944,807.836 964.015,810.846 962.792,813.749 961.285,816.515 959.511,819.119 957.485,821.531 955.23,823.731 952.767,825.695 950.121,827.405 947.318,828.841 944.385,829.993 941.352,830.846 938.25,831.393 935.108,831.628 931.959,831.55 928.833,831.158 925.763,830.457 922.776,829.454 919.904,828.158 917.176,826.583 914.618,824.744 912.257,822.66 910.114,820.35 908.211,817.839 906.569,815.151 905.201,812.313 904.124,809.353 903.348,806.3 902.878,803.184 902.721,800.038" fill="none" stroke="black" stroke-width="0.1mm" />
<polyline z="0" points="924.248,802.538 924.248,797.538 931.821,797.538 931.821,789.965 936.821,789.965 936.821,797.538 944.394,797.538 944.394,802.538 936.821,802.538 936.821,810.111 931.821,810.111 931.821,802.538 924.248,802.538" fill="none" stroke="black" stroke-width="0.1mm" />
<polyline z="0" points="965.921,801.613 965.921,798.463 966.234,795.328 966.858,792.24 967.787,789.23 969.011,786.328 970.517,783.561 972.292,780.958 974.316,778.545 976.571,776.345 979.034,774.381 981.681,772.671 984.485,771.235 987.417,770.083 990.449,769.23 993.552,768.683 996.693,768.448 999.842,768.526 1002.968,768.918 1006.04,769.619 1009.026,770.622 1011.897,771.918 1014.626,773.493 1017.183,775.332 1019.546,777.416 1021.688,779.726 1023.59,782.237 1025.233,784.925 1026.6,787.763 1027.677,790.724 1028.455,793.776 1028.924,796.892 1029.081,800.038 1028.924,803.184 1028.455,806.3 1027.677,809.353 1026.6,812.313 1025.233,815.151 1023.59,817.839 1021.688,820.35 1019.546,822.66 1017.183,824.744 1014.626,826.583 1011.897,828.158 1009.026,829.454 1006.04,830.457 1002.968,831.158 999.842,831.55 996.693,831.628 993.552,831.393 990.449,830.846 987.417,829.993 984.485,828.841 981.681,827.405 979.034,825.695 976.571,823.731 974.316,821.531 972.292,819.119 970.517,816.515 969.011,813.749 967.787,810.846 966.858,807.836 966.234,804.748 965.921,801.613" fill="none" stroke="black" stroke-width="0.1mm" />
<polyline z="0" points="729.719,402.248 666.117,402.248 659.885,401.942 653.712,401.026 647.657,399.51 641.781,397.406 636.138,394.738 630.785,391.529 625.772,387.811 621.147,383.62 616.956,378.996 613.238,373.983 610.029,368.629 607.361,362.986 605.257,357.11 603.741,351.056 602.826,344.882 602.519,338.65 602.519,317.548 614.064,317.548 614.064,312.548 602.519,312.548 602.519,125.748 614.064,125.748 614.064,120.748 602.519,120.748 602.519,99.646 602.826,93.414 603.741,87.24 605.257,81.186 607.361,75.31 610.029,69.667 613.238,64.313 616.956,59.3 621.147,54.676 625.772,50.485 630.785,46.767 636.138,43.558 641.781,40.889 647.657,38.786 653.712,37.27 659.885,36.354 666.117,36.048 729.719,36.048 729.719,69.321 734.919,69.321 734.919,102.793 729.719,102.793 729.719,120.748 718.174,120.748 718.174,125.748 729.719,125.748 729.719,135.866 734.919,135.866 734.919,169.339 729.719,169.339 729.719,202.412 734.919,202.412 734.919,235.884 729.719,235.884 729.719,268.957 734.919,268.957 734.919,302.43 729.719,302.43 729.719,312.548 718.174,312.548 718.174,317.548 729.719,317.548 729.719,335.503 734.919,335.503 734.919,368.975 729.719,368.975 729.719,402.248" fill="none" stroke="black" stroke-width="0.1mm" />
<polyline z="0" points="669.031,111.083 667.878,111.316 666.706,111.433 666.119,111.448 665.532,111.433 664.36,111.316 663.208,111.083 662.083,110.736 661,110.28 659.966,109.717 658.995,109.054 658.093,108.298 657.272,107.456 656.538,106.537 655.9,105.548 655.363,104.501 654.934,103.406 654.615,102.274 654.411,101.116 654.323,99.943 654.352,98.766 654.499,97.599 654.761,96.452 655.135,95.337 655.619,94.265 656.207,93.246 656.893,92.29 657.672,91.409 658.535,90.609 659.472,89.899 660.476,89.285 661.536,88.774 662.641,88.373 663.781,88.082 664.944,87.907 666.119,87.848 667.294,87.907 668.457,88.082 669.598,88.373 670.702,88.774 671.762,89.285 672.767,89.899 673.704,90.609 674.567,91.409 675.345,92.29 676.031,93.246 676.619,94.265 677.103,95.337 677.478,96.452 677.74,97.599 677.886,98.766 677.915,99.943 677.828,101.116 677.624,102.274 677.304,103.406 676.875,104.501 676.338,105.548 675.7,106.537 674.966,107.456 674.145,108.298 673.244,109.054 672.272,109.717 671.239,110.28 670.155,110.736 669.031,111.083" fill="none" stroke="black" stroke-width="0.1mm" />
<polyline z="0" points="695.083,120.748 706.428,120.748 706.428,125.748 695.083,125.748 695.083,120.748" fill="none" stroke="black" stroke-width="0.1mm" />
<polyline z="0" points="683.337,120.748 683.337,125.748 671.992,125.748 671.992,120.748 683.337,120.748" fill="none" stroke="black" stroke-width="0.1mm" />
<polyline z="0" points="660.246,120.748 660.246,125.748 648.901,125.748 648.901,120.748 660.246,120.748" fill="none" stroke="black" stroke-width="0.1mm" />
<polyline z="0" points="637.155,120.748 637.155,125.748 625.81,125.748 625.81,120.748 637.155,120.748" fill="none" stroke="black" stroke-width="0.1mm" />
<polyline z="0" points="662.641,207.873 663.781,207.582 664.944,207.407 666.119,207.348 667.294,207.407 668.457,207.582 669.598,207.873 670.702,208.274 671.762,208.785 672.767,209.399 673.704,210.109 674.567,210.909 675.345,211.79 676.031,212.746 676.619,213.765 677.103,214.837 677.478,215.952 677.74,217.099 677.886,218.266 677.915,219.443 677.828,220.616 677.624,221.774 677.304,222.906 676.875,224.001 676.338,225.048 675.7,226.037 674.966,226.956 674.145,227.798 673.244,228.554 672.272,229.217 671.239,229.78 670.155,230.236 669.031,230.583 667.878,230.816 666.706,230.933 666.119,230.948 665.532,230.933 664.36,230.816 663.208,230.583 662.083,230.236 661,229.78 659.966,229.217 658.995,228.554 658.093,227.798 657.272,226.956 656.538,226.037 655.9,225.048 655.363,224.001 654.934,222.906 654.615,221.774 654.411,220.616 654.323,219.443 654.352,218.266 654.499,217.099 654.761,215.952 655.135,214.837 655.619,213.765 656.207,212.746 656.893,211.79 657.672,210.909 658.535,210.109 659.472,209.399 660.476,208.785 661.536,208.274 662.641,207.873" fill="none" stroke="black" stroke-width="0.1mm" />
<polyline z="0" points="695.083,312.548 706.428,312.548 706.428,317.548 695.083,317.548 695.083,312.548" fill="none" stroke="black" stroke-width="0.1mm" />
<polyline z="0" points="683.337,312.548 683.337,317.548 671.992,317.548 671.992,312.548 683.337,312.548" fill="none" stroke="black" stroke-width="0.1mm" />
<polyline z="0" points="660.246,312.548 660.246,317.548 648.901,317.548 648.901,312.548 660.246,312.548" fill="none" stroke="black" stroke-width="0.1mm" />
<polyline z="0" points="637.155,312.548 637.155,317.548 625.81,317.548 625.81,312.548 637.155,312.548" fill="none" stroke="black" stroke-width="0.1mm" />
<polyline z="0" points="657.672,330.409 658.535,329.609 659.472,328.899 660.476,328.285 661.536,327.774 662.641,327.373 663.781,327.082 664.944,326.907 666.119,326.848 667.294,326.907 668.457,327.082 669.598,327.373 670.702,327.774 671.762,328.285 672.767,328.899 673.704,329.609 674.567,330.409 675.345,331.29 676.031,332.246 676.619,333.265 677.103,334.337 677.478,335.452 677.74,336.599 677.886,337.766 677.915,338.943 677.828,340.116 677.624,341.274 677.304,342.406 676.875,343.501 676.338,344.548 675.7,345.537 674.966,346.456 674.145,347.298 673.244,348.054 672.272,348.717 671.239,349.28 670.155,349.736 669.031,350.083 667.878,350.316 666.706,350.433 666.119,350.448 665.532,350.433 664.36,350.316 663.208,350.083 662.083,349.736 661,349.28 659.966,348.717 658.995,348.054 658.093,347.298 657.272,346.456 656.538,345.537 655.9,344.548 655.363,343.501 654.934,342.406 654.615,341.274 654.411,340.116 654.323,338.943 654.352,337.766 654.499,336.599 654.761,335.452 655.135,334.337 655.619,333.265 656.207,332.246 656.893,331.29 657.672,330.409" fill="none" stroke="black" stroke-width="0.1mm" />
<polyline z="0" points="583.469,335.703 578.269,335.703 578.269,368.775 583.469,368.775 583.469,397.048 575.386,397.048 575.386,402.248 567.102,402.248 567.102,397.048 559.019,397.048 559.019,368.775 564.219,368.775 564.219,335.703 559.019,335.703 559.019,302.23 564.219,302.23 564.219,269.157 559.019,269.157 559.019,235.684 564.219,235.684 564.219,202.612 559.019,202.612 559.019,169.139 564.219,169.139 564.219,136.066 559.019,136.066 559.019,102.593 564.219,102.593 564.219,69.521 559.019,69.521 559.019,41.248 567.102,41.248 567.102,36.048 575.386,36.048 575.386,41.248 583.469,41.248 583.469,69.521 578.269,69.521 578.269,102.593 583.469,102.593 583.469,133.323 588.991,133.323 602.519,146.852 602.519,165.639 597.319,165.639 597.319,184.084 602.519,184.084 602.519,202.896 597.592,204.937 583.469,190.814 583.469,202.612 578.269,202.612 578.269,235.684 583.469,235.684 583.469,269.157 578.269,269.157 578.269,302.23 583.469,302.23 583.469,335.703" fill="none" stroke="black" stroke-width="0.1mm" />
<polyline z="0" points="583.269,169.139 578.269,169.139 578.269,136.066 583.269,136.066 583.269,169.139" fill="none" stroke="black" stroke-width="0.1mm" />
<polyline z="0" points="559.019,169.339 553.819,169.339 553.819,202.412 559.019,202.412 559.019,235.884 553.819,235.884 553.819,268.957 559.019,268.957 559.019,302.43 553.819,302.43 553.819,312.548 542.274,312.548 542.274,317.548 553.819,317.548 553.819,335.503 559.019,335.503 559.019,368.975 553.819,368.975 553.819,402.248 490.217,402.248 483.985,401.942 477.812,401.026 471.757,399.51 465.881,397.406 460.238,394.738 454.885,391.529 449.872,387.811 445.247,383.62 441.056,378.996 437.338,373.983 434.129,368.629 431.461,362.986 429.357,357.11 427.841,351.056 426.926,344.882 426.619,338.65 426.619,317.548 438.164,317.548 438.164,312.548 426.619,312.548 426.619,125.748 438.164,125.748 438.164,120.748 426.619,120.748 426.619,99.646 426.926,93.414 427.841,87.24 429.357,81.186 431.461,75.31 434.129,69.667 437.338,64.313 441.056,59.3 445.247,54.676 449.872,50.485 454.885,46.767 460.238,43.558 465.881,40.889 471.757,38.786 477.812,37.27 483.985,36.354 490.217,36.048 553.819,36.048 553.819,69.321 559.019,69.321 559.019,102.793 553.819,102.793 553.819,120.748 542.274,120.748 542.274,125.748 553.819,125.748 553.819,135.866 559.019,135.866 559.019,169.339" fill="none" stroke="black" stroke-width="0.1mm" />
<polyline z="0" points="498.245,108.298 497.344,109.054 496.372,109.717 495.339,110.28 494.255,110.736 493.131,111.083 491.978,111.316 490.806,111.433 490.219,111.448 489.632,111.433 488.46,111.316 487.308,111.083 486.183,110.736 485.1,110.28 484.066,109.717 483.095,109.054 482.193,108.298 481.372,107.456 480.638,106.537 480,105.548 479.463,104.501 479.034,103.406 478.715,102.274 478.511,101.116 478.423,99.943 478.452,98.766 478.599,97.599 478.861,96.452 479.235,95.337 479.719,94.265 480.307,93.246 480.993,92.29 481.772,91.409 482.635,90.609 483.572,89.899 484.576,89.285 485.636,88.774 486.741,88.373 487.881,88.082 489.044,87.907 490.219,87.848 491.394,87.907 492.557,88.082 493.698,88.373 494.802,88.774 495.862,89.285 496.867,89.899 497.804,90.609 498.667,91.409 499.445,92.29 500.131,93.246 500.719,94.265 501.203,95.337 501.578,96.452 501.84,97.599 501.986,98.766 502.015,99.943 501.928,101.116 501.724,102.274 501.404,103.406 500.975,104.501 500.438,105.548 499.8,106.537 499.066,107.456 498.245,108.298" fill="none" stroke="black" stroke-width="0.1mm" />
<polyline z="0" points="519.183,120.748 530.528,120.748 530.528,125.748 519.183,125.748 519.183,120.748" fill="none" stroke="black" stroke-width="0.1mm" />
<polyline z="0" points="507.437,120.748 507.437,125.748 496.092,125.748 496.092,120.748 507.437,120.748" fill="none" stroke="black" stroke-width="0.1mm" />
<polyline z="0" points="484.346,120.748 484.346,125.748 473.001,125.748 473.001,120.748 484.346,120.748" fill="none" stroke="black" stroke-width="0.1mm" />
<polyline z="0" points="461.255,120.748 461.255,125.748 449.91,125.748 449.91,120.748 461.255,120.748" fill="none" stroke="black" stroke-width="0.1mm" />
<polyline z="0" points="486.741,207.873 487.881,207.582 489.044,207.407 490.219,207.348 491.394,207.407 492.557,207.582 493.698,207.873 494.802,208.274 495.862,208.785 496.867,209.399 497.804,210.109 498.667,210.909 499.445,211.79 500.131,212.746 500.719,213.765 501.203,214.837 501.578,215.952 501.84,217.099 501.986,218.266 502.015,219.443 501.928,220.616 501.724,221.774 501.404,222.906 500.975,224.001 500.438,225.048 499.8,226.037 499.066,226.956 498.245,227.798 497.344,228.554 496.372,229.217 495.339,229.78 494.255,230.236 493.131,230.583 491.978,230.816 490.806,230.933 490.219,230.948 489.632,230.933 488.46,230.816 487.308,230.583 486.183,230.236 485.1,229.78 484.066,229.217 483.095,228.554 482.193,227.798 481.372,226.956 480.638,226.037 480,225.048 479.463,224.001 479.034,222.906 478.715,221.774 478.511,220.616 478.423,219.443 478.452,218.266 478.599,217.099 478.861,215.952 479.235,214.837 479.719,213.765 480.307,212.746 480.993,211.79 481.772,210.909 482.635,210.109 483.572,209.399 484.576,208.785 485.636,208.274 486.741,207.873" fill="none" stroke="black" stroke-width="0.1mm" />
<polyline z="0" points="519.183,312.548 530.528,312.548 530.528,317.548 519.183,317.548 519.183,312.548" fill="none" stroke="black" stroke-width="0.1mm" />
<polyline z="0" points="507.437,312.548 507.437,317.548 496.092,317.548 496.092,312.548 507.437,312.548" fill="none" stroke="black" stroke-width="0.1mm" />
<polyline z="0" points="484.346,312.548 484.346,317.548 473.001,317.548 473.001,312.548 484.346,312.548" fill="none" stroke="black" stroke-width="0.1mm" />
<polyline z="0" points="461.255,312.548 461.255,317.548 449.91,317.548 449.91,312.548 461.255,312.548" fill="none" stroke="black" stroke-width="0.1mm" />
<polyline z="0" points="481.772,330.409 482.635,329.609 483.572,328.899 484.576,328.285 485.636,327.774 486.741,327.373 487.881,327.082 489.044,326.907 490.219,326.848 491.394,326.907 492.557,327.082 493.698,327.373 494.802,327.774 495.862,328.285 496.867,328.899 497.804,329.609 498.667,330.409 499.445,331.29 500.131,332.246 500.719,333.265 501.203,334.337 501.578,335.452 501.84,336.599 501.986,337.766 502.015,338.943 501.928,340.116 501.724,341.274 501.404,342.406 500.975,343.501 500.438,344.548 499.8,345.537 499.066,346.456 498.245,347.298 497.344,348.054 496.372,348.717 495.339,349.28 494.255,349.736 493.131,350.083 491.978,350.316 490.806,350.433 490.219,350.448 489.632,350.433 488.46,350.316 487.308,350.083 486.183,349.736 485.1,349.28 484.066,348.717 483.095,348.054 482.193,347.298 481.372,346.456 480.638,345.537 480,344.548 479.463,343.501 479.034,342.406 478.715,341.274 478.511,340.116 478.423,338.943 478.452,337.766 478.599,336.599 478.861,335.452 479.235,334.337 479.719,333.265 480.307,332.246 480.993,331.29 481.772,330.409" fill="none" stroke="black" stroke-width="0.1mm" />
<polyline z="0" points="426.619,335.503 426.619,368.975 421.419,368.975 421.419,397.048 412.183,397.048 412.183,402.248 402.746,402.248 402.746,397.048 393.71,397.048 393.71,402.248 384.274,402.248 384.274,397.048 375.237,397.048 375.237,402.248 365.801,402.248 365.801,397.048 356.764,397.048 356.764,402.248 347.328,402.248 347.328,397.048 338.292,397.048 338.292,402.248 328.855,402.248 328.855,397.048 319.619,397.048 319.619,368.975 314.419,368.975 314.419,335.503 319.619,335.503 319.619,302.43 314.419,302.43 314.419,268.957 319.619,268.957 319.619,235.884 314.419,235.884 314.419,202.412 319.619,202.412 319.619,169.339 314.419,169.339 314.419,135.866 319.619,135.866 319.619,102.793 314.419,102.793 314.419,69.321 319.619,69.321 319.619,41.248 328.855,41.248 328.855,36.048 338.292,36.048 338.292,41.248 347.328,41.248 347.328,36.048 356.764,36.048 356.764,41.248 365.801,41.248 365.801,36.048 375.237,36.048 375.237,41.248 384.274,41.248 384.274,36.048 393.71,36.048 393.71,41.248 402.746,41.248 402.746,36.048 412.183,36.048 412.183,41.248 421.419,41.248 421.419,69.321 426.619,69.321 426.619,102.793 421.419,102.793 421.419,135.866 426.619,135.866 426.619,169.339 421.419,169.339 421.419,202.412 426.619,202.412 426.619,235.884 421.419,235.884 421.419,268.957 426.619,268.957 426.619,302.43 421.419,302.43 421.419,335.503 426.619,335.503" fill="none" stroke="black" stroke-width="0.1mm" />
<polyline z="0" points="377.919,407.448 377.919,435.521 383.119,435.521 383.119,468.993 377.919,468.993 377.919,502.066 383.119,502.066 383.119,535.539 377.919,535.539 377.919,568.612 383.119,568.612 383.119,602.084 377.919,602.084 377.919,635.157 383.119,635.157 383.119,668.63 377.919,668.63 377.919,701.703 383.119,701.703 383.119,735.175 377.919,735.175 377.919,763.248 368.683,763.248 368.683,768.448 359.246,768.448 359.246,763.248 350.21,763.248 350.21,768.448 340.774,768.448 340.774,763.248 331.737,763.248 331.737,768.448 322.301,768.448 322.301,763.248 313.264,763.248 313.264,768.448 303.828,768.448 303.828,763.248 294.792,763.248 294.792,768.448 285.355,768.448 285.355,763.248 276.119,763.248 276.119,735.175 270.919,735.175 270.919,701.703 276.119,701.703 276.119,668.63 270.919,668.63 270.919,635.157 276.119,635.157 276.119,602.084 270.919,602.084 270.919,568.612 276.119,568.612 276.119,535.539 270.919,535.539 270.919,502.066 276.119,502.066 276.119,468.993 270.919,468.993 270.919,435.521 276.119,435.521 276.119,407.448 285.355,407.448 285.355,402.248 294.792,402.248 294.792,407.448 303.828,407.448 303.828,402.248 313.264,402.248 313.264,407.448 322.301,407.448 322.301,402.248 331.737,402.248 331.737,407.448 340.774,407.448 340.774,402.248 350.21,402.248 350.21,407.448 359.246,407.448 359.246,402.248 368.683,402.248 368.683,407.448 377.919,407.448" fill="none" stroke="black" stroke-width="0.1mm" />
<polyline z="0" points="347.919,435.721 347.919,468.793 342.919,468.793 342.919,435.721 347.919,435.721" fill="none" stroke="black" stroke-width="0.1mm" />
<polyline z="0" points="311.119,435.721 311.119,468.793 306.119,468.793 306.119,435.721 311.119,435.721" fill="none" stroke="black" stroke-width="0.1mm" />
<polyline z="0" points="342.919,502.266 347.919,502.266 347.919,535.339 342.919,535.339 342.919,502.266" fill="none" stroke="black" stroke-width="0.1mm" />
<polyline z="0" points="311.119,502.266 311.119,535.339 306.119,535.339 306.119,502.266 311.119,502.266" fill="none" stroke="black" stroke-width="0.1mm" />
<polyline z="0" points="342.919,568.812 347.919,568.812 347.919,601.884 342.919,601.884 342.919,568.812" fill="none" stroke="black" stroke-width="0.1mm" />
<polyline z="0" points="311.119,568.812 311.119,601.884 306.119,601.884 306.119,568.812 311.119,568.812" fill="none" stroke="black" stroke-width="0.1mm" />
<polyline z="0" points="342.919,635.357 347.919,635.357 347.919,668.43 342.919,668.43 342.919,635.357" fill="none" stroke="black" stroke-width="0.1mm" />
<polyline z="0" points="311.119,635.357 311.119,668.43 306.119,668.43 306.119,635.357 311.119,635.357" fill="none" stroke="black" stroke-width="0.1mm" />
<polyline z="0" points="342.919,701.903 347.919,701.903 347.919,734.975 342.919,734.975 342.919,701.903" fill="none" stroke="black" stroke-width="0.1mm" />
<polyline z="0" points="311.119,701.903 311.119,734.975 306.119,734.975 306.119,701.903 311.119,701.903" fill="none" stroke="black" stroke-width="0.1mm" />
<polyline z="0" points="383.119,698.393 388.319,698.393 388.319,689.357 383.119,689.357 383.119,679.921 388.319,679.921 388.319,670.884 383.119,670.884 383.119,656.248 391.402,656.248 391.402,661.448 399.286,661.448 399.286,656.248 407.569,656.248 407.569,670.884 402.369,670.884 402.369,679.921 407.569,679.921 407.569,689.357 402.369,689.357 402.369,698.393 407.569,698.393 407.569,707.83 402.369,707.83 402.369,716.866 407.569,716.866 407.569,726.303 402.369,726.303 402.369,735.339 407.569,735.339 407.569,744.775 402.369,744.775 402.369,753.812 407.569,753.812 407.569,768.448 399.286,768.448 399.286,763.248 391.402,763.248 391.402,768.448 383.119,768.448 383.119,753.812 388.319,753.812 388.319,744.775 383.119,744.775 383.119,735.339 388.319,735.339 388.319,726.303 383.119,726.303 383.119,716.866 388.319,716.866 388.319,707.83 383.119,707.83 383.119,698.393" fill="none" stroke="black" stroke-width="0.1mm" />
<polyline z="0" points="407.569,698.393 412.769,698.393 412.769,689.357 407.569,689.357 407.569,679.921 412.769,679.921 412.769,670.884 407.569,670.884 407.569,656.248 415.852,656.248 415.852,661.448 423.736,661.448 423.736,656.248 432.019,656.248 432.019,670.884 426.819,670.884 426.819,679.921 432.019,679.921 432.019,689.357 426.819,689.357 426.819,698.393 432.019,698.393 432.019,707.83 426.819,707.83 426.819,716.866 432.019,716.866 432.019,726.303 426.819,726.303 426.819,735.339 432.019,735.339 432.019,744.775 426.819,744.775 426.819,753.812 432.019,753.812 432.019,768.448 423.736,768.448 423.736,763.248 415.852,763.248 415.852,768.448 407.569,768.448 407.569,753.812 412.769,753.812 412.769,744.775 407.569,744.775 407.569,735.339 412.769,735.339 412.769,726.303 407.569,726.303 407.569,716.866 412.769,716.866 412.769,707.83 407.569,707.83 407.569,698.393" fill="none" stroke="black" stroke-width="0.1mm" />
<polyline z="0" points="432.019,661.448 450.664,661.448 450.664,656.248 469.51,656.248 469.51,661.448 488.155,661.448 488.155,763.248 469.51,763.248 469.51,768.448 450.664,768.448 450.664,763.248 432.019,763.248 432.019,661.448" fill="none" stroke="black" stroke-width="0.1mm" />
<polyline z="0" points="425.319,656.248 425.319,644.503 430.519,644.503 430.519,633.157 425.319,633.157 425.319,621.412 430.519,621.412 430.519,610.066 425.319,610.066 425.319,598.321 430.519,598.321 430.519,586.975 425.319,586.975 425.319,575.23 430.519,575.23 430.519,563.884 425.319,563.884 425.319,552.139 430.519,552.139 430.519,540.793 425.319,540.793 425.319,529.048 467.519,529.048 467.519,540.793 462.319,540.793 462.319,552.139 467.519,552.139 467.519,563.884 462.319,563.884 462.319,575.23 467.519,575.23 467.519,586.975 462.319,586.975 462.319,598.321 467.519,598.321 467.519,610.066 462.319,610.066 462.319,621.412 467.519,621.412 467.519,633.157 462.319,633.157 462.319,644.503 467.519,644.503 467.519,656.248 425.319,656.248" fill="none" stroke="black" stroke-width="0.1mm" />
<polyline z="0" points="425.319,656.248 383.119,656.248 383.119,644.503 388.319,644.503 388.319,633.157 383.119,633.157 383.119,621.412 388.319,621.412 388.319,610.066 383.119,610.066 383.119,598.321 388.319,598.321 388.319,586.975 383.119,586.975 383.119,575.23 388.319,575.23 388.319,563.884 383.119,563.884 383.119,552.139 388.319,552.139 388.319,540.793 383.119,540.793 383.119,529.048 425.319,529.048 425.319,540.793 420.119,540.793 420.119,552.139 425.319,552.139 425.319,563.884 420.119,563.884 420.119,575.23 425.319,575.23 425.319,586.975 420.119,586.975 420.119,598.321 425.319,598.321 425.319,610.066 420.119,610.066 420.119,621.412 425.319,621.412 425.319,633.157 420.119,633.157 420.119,644.503 425.319,644.503 425.319,656.248" fill="none" stroke="black" stroke-width="0.1mm" />
<polyline z="0" points="287.286,402.248 279.002,402.248 279.002,397.048 270.919,397.048 270.919,368.775 276.119,368.775 276.119,335.703 270.919,335.703 270.919,302.23 276.119,302.23 276.119,269.157 270.919,269.157 270.919,235.684 276.119,235.684 276.119,202.612 270.919,202.612 270.919,169.139 276.119,169.139 276.119,136.066 270.919,136.066 270.919,102.593 276.119,102.593 276.119,69.521 270.919,69.521 270.919,41.248 279.002,41.248 279.002,36.048 287.286,36.048 287.286,41.248 295.369,41.248 295.369,69.521 290.169,69.521 290.169,102.593 295.369,102.593 295.369,136.066 290.169,136.066 290.169,169.139 295.369,169.139 295.369,202.612 290.169,202.612 290.169,235.684 295.369,235.684 295.369,247.482 309.492,233.359 314.419,235.4 314.419,254.212 309.219,254.212 309.219,272.657 314.419,272.657 314.419,291.444 300.891,304.973 295.369,304.973 295.369,335.703 290.169,335.703 290.169,368.775 295.369,368.775 295.369,397.048 287.286,397.048 287.286,402.248" fill="none" stroke="black" stroke-width="0.1mm" />
<polyline z="0" points="290.169,302.23 290.169,269.157 295.169,269.157 295.169,302.23 290.169,302.23" fill="none" stroke="black" stroke-width="0.1mm" />
</svg>