<?xml version="1.0" standalone="no"?>
<!DOCTYPE svg PUBLIC "-//W3C//DTD SVG 1.1//EN" "http://www.w3.org/Graphics/SVG/1.1/DTD/svg11.dtd">
<svg width="1300mm" height="900mm" viewBox="0 0 1300 900" xmlns="http://www.w3.org/2000/svg" version="1.1">
<polyline z="0" points="448.8,551.166 448.8,543.083 443.6,543.083 443.6,534.799 448.8,534.799 448.8,526.716 461.614,526.716 461.614,531.916 479.229,531.916 479.229,526.716 497.243,526.716 497.243,531.916 514.857,531.916 514.857,526.716 532.871,526.716 532.871,531.916 550.486,531.916 550.486,526.916 534.584,526.916 520.261,512.594 522.469,507.264 522.469,512.866 540.914,512.866 540.914,507.666 559.759,507.666 559.759,512.866 568.5,512.866 568.5,557.419 568.469,558.048 568.376,558.675 568.223,559.288 568.009,559.885 567.738,560.457 567.413,561 567.036,561.508 566.611,561.977 566.142,562.403 565.634,562.78 565.09,563.105 564.518,563.376 563.922,563.589 563.308,563.743 562.682,563.835 562.052,563.866 540.109,563.866 533.605,563.589 527.147,562.757 520.786,561.379 491.268,553.649 484.919,552.273 478.477,551.443 471.987,551.166 448.8,551.166" fill="none" stroke="black" stroke-width="0.1mm" />
<polyline z="0" points="443.6,507.264 443.6,498.324 448.8,498.324 448.8,479.879 443.6,479.879 443.6,461.034 606.6,461.034 606.6,479.879 601.4,479.879 601.4,498.324 606.6,498.324 606.6,507.264 443.6,507.264" fill="none" stroke="black" stroke-width="0.1mm" />
<polyline z="0" points="448.8,461.034 448.8,443.22 443.6,443.22 443.6,425.205 448.8,425.205 448.8,407.591 443.6,407.591 443.6,389.577 448.8,389.577 448.8,371.963 443.6,371.963 443.6,353.948 448.8,353.948 448.8,341.334 470.571,341.334 470.571,336.134 492.543,336.134 492.543,341.334 514.114,341.334 514.114,336.134 536.086,336.134 536.086,341.334 557.657,341.334 557.657,336.134 579.629,336.134 579.629,341.334 601.4,341.334 601.4,353.948 606.6,353.948 606.6,371.963 601.4,371.963 601.4,389.577 606.6,389.577 606.6,407.591 601.4,407.591 601.4,425.205 606.6,425.205 606.6,443.22 601.4,443.22 601.4,461.034 448.8,461.034" fill="none" stroke="black" stroke-width="0.1mm" />
<polyline z="0" points="581.044,430.673 581.017,430.551 581.001,430.427 580.998,430.302 581.007,430.178 581.029,430.055 581.063,429.935 581.108,429.819 581.166,429.708 581.233,429.602 581.311,429.505 581.398,429.416 581.493,429.335 581.597,429.265 581.707,429.205 581.821,429.157 581.941,429.12 582.063,429.096 582.188,429.083 582.312,429.083 582.437,429.096 582.559,429.12 582.679,429.157 582.793,429.205 582.903,429.265 583.007,429.335 583.102,429.416 583.189,429.505 583.267,429.602 583.334,429.708 583.392,429.819 583.437,429.935 583.471,430.055 583.493,430.178 583.502,430.302 583.499,430.427 583.483,430.551 583.456,430.673 583.416,430.791 583.365,430.905 583.302,431.013 583.229,431.114 583.146,431.208 583.054,431.293 582.955,431.369 582.849,431.434 582.736,431.487 582.619,431.53 582.498,431.562 582.375,431.58 582.25,431.587 582.125,431.58 582.002,431.562 581.881,431.53 581.764,431.487 581.651,431.434 581.545,431.369 581.446,431.293 581.354,431.208 581.271,431.114 581.198,431.013 581.135,430.905 581.084,430.791 581.044,430.673" fill="none" stroke="black" stroke-width="0.1mm" />
<polyline z="0" points="469.202,430.302 469.199,430.427 469.183,430.551 469.156,430.673 469.116,430.791 469.065,430.905 469.002,431.013 468.929,431.114 468.846,431.208 468.754,431.293 468.655,431.369 468.549,431.434 468.436,431.487 468.319,431.53 468.198,431.562 468.075,431.58 467.95,431.587 467.825,431.58 467.702,431.562 467.581,431.53 467.464,431.487 467.351,431.434 467.245,431.369 467.146,431.293 467.054,431.208 466.971,431.114 466.898,431.013 466.835,430.905 466.784,430.791 466.744,430.673 466.717,430.551 466.701,430.427 466.698,430.302 466.707,430.178 466.729,430.055 466.763,429.935 466.808,429.819 466.866,429.708 466.933,429.602 467.011,429.505 467.098,429.416 467.193,429.335 467.297,429.265 467.407,429.205 467.521,429.157 467.641,429.12 467.763,429.096 467.888,429.083 468.012,429.083 468.137,429.096 468.259,429.12 468.379,429.157 468.493,429.205 468.603,429.265 468.707,429.335 468.802,429.416 468.889,429.505 468.967,429.602 469.034,429.708 469.092,429.819 469.137,429.935 469.171,430.055 469.193,430.178 469.202,430.302" fill="none" stroke="black" stroke-width="0.1mm" />
<polyline z="0" points="568.5,512.866 577.241,512.866 577.241,507.666 596.086,507.666 596.086,512.866 614.531,512.866 614.531,507.264 616.739,512.594 602.416,526.916 586.514,526.916 586.514,531.916 604.129,531.916 604.129,526.716 622.143,526.716 622.143,531.916 639.757,531.916 639.757,526.716 657.771,526.716 657.771,531.916 675.386,531.916 675.386,526.716 688.2,526.716 688.2,534.799 693.4,534.799 693.4,543.083 688.2,543.083 688.2,551.166 665.013,551.166 658.523,551.443 652.081,552.273 645.732,553.649 616.214,561.379 609.853,562.757 603.395,563.589 596.891,563.866 574.948,563.866 574.318,563.835 573.692,563.743 573.078,563.589 572.482,563.376 571.91,563.105 571.366,562.78 570.858,562.403 570.389,561.977 569.964,561.508 569.587,561 569.262,560.457 568.991,559.885 568.777,559.288 568.624,558.675 568.531,558.048 568.5,557.419 568.5,512.866" fill="none" stroke="black" stroke-width="0.1mm" />
<polyline z="0" points="693.4,539.416 720.571,539.416 720.571,544.616 742.143,544.616 742.143,539.616 736.7,539.616 736.7,525.664 736.725,525.147 736.802,524.633 736.928,524.128 737.103,523.638 737.326,523.168 737.593,522.722 737.903,522.304 738.252,521.919 738.637,521.569 739.055,521.259 739.502,520.992 739.972,520.77 740.462,520.595 740.966,520.468 741.48,520.392 741.998,520.366 807.802,520.366 808.32,520.392 808.834,520.468 809.338,520.595 809.828,520.77 810.298,520.992 810.745,521.259 811.163,521.569 811.548,521.919 811.897,522.304 812.207,522.722 812.474,523.168 812.697,523.638 812.872,524.128 812.998,524.633 813.075,525.147 813.1,525.664 813.1,539.616 807.657,539.616 807.657,544.616 821.491,544.616 821.491,547.889 821.499,548.037 821.52,548.182 821.555,548.323 821.604,548.461 821.667,548.592 821.742,548.718 821.829,548.835 821.927,548.944 822.034,549.041 822.153,549.128 822.277,549.203 822.409,549.266 822.547,549.315 822.689,549.35 822.833,549.372 822.981,549.378 827.739,549.378 827.887,549.372 828.031,549.35 828.173,549.315 828.311,549.266 828.442,549.203 828.567,549.128 828.685,549.041 828.793,548.944 828.891,548.835 828.978,548.718 829.053,548.592 829.115,548.461 829.164,548.323 829.2,548.182 829.221,548.037 829.229,547.889 829.229,539.416 856.4,539.416 856.4,547.699 851.2,547.699 851.2,555.583 856.4,555.583 856.4,563.866 693.4,563.866 693.4,555.583 698.6,555.583 698.6,547.699 693.4,547.699 693.4,539.416" fill="none" stroke="black" stroke-width="0.1mm" />
<polyline z="0" points="764.114,539.616 785.686,539.616 785.686,544.616 764.114,544.616 764.114,539.616" fill="none" stroke="black" stroke-width="0.1mm" />
</svg>