<?xml version="1.0" standalone="no"?>
<!DOCTYPE svg PUBLIC "-//W3C//DTD SVG 1.1//EN" "http://www.w3.org/Graphics/SVG/1.1/DTD/svg11.dtd">
<svg width="1300mm" height="900mm" viewBox="0 0 1300 900" xmlns="http://www.w3.org/2000/svg" version="1.1">
<polyline z="0" points="461.5,551.166 461.5,543.083 456.3,543.083 456.3,534.799 461.5,534.799 461.5,526.716 474.314,526.716 474.314,531.916 491.929,531.916 491.929,526.716 509.943,526.716 509.943,531.916 527.557,531.916 527.557,526.716 545.571,526.716 545.571,531.916 563.186,531.916 563.186,526.916 547.284,526.916 532.961,512.594 535.169,507.264 535.169,512.866 553.614,512.866 553.614,507.666 572.459,507.666 572.459,512.866 581.2,512.866 581.2,557.419 581.169,558.048 581.076,558.675 580.923,559.288 580.709,559.885 580.438,560.457 580.113,561 579.736,561.508 579.311,561.977 578.842,562.403 578.334,562.78 577.79,563.105 577.218,563.376 576.622,563.589 576.008,563.743 575.382,563.835 574.752,563.866 552.809,563.866 546.305,563.589 539.847,562.757 533.486,561.379 503.968,553.649 497.619,552.273 491.177,551.443 484.687,551.166 461.5,551.166" fill="none" stroke="black" stroke-width="0.1mm" />
<polyline z="0" points="456.3,507.264 456.3,498.324 461.5,498.324 461.5,479.879 456.3,479.879 456.3,461.034 593.9,461.034 593.9,479.879 588.7,479.879 588.7,498.324 593.9,498.324 593.9,507.264 456.3,507.264" fill="none" stroke="black" stroke-width="0.1mm" />
<polyline z="0" points="461.5,461.034 461.5,443.22 456.3,443.22 456.3,425.205 461.5,425.205 461.5,407.591 456.3,407.591 456.3,389.577 461.5,389.577 461.5,371.963 456.3,371.963 456.3,353.948 461.5,353.948 461.5,341.334 479.643,341.334 479.643,336.134 497.986,336.134 497.986,341.334 515.929,341.334 515.929,336.134 534.271,336.134 534.271,341.334 552.214,341.334 552.214,336.134 570.557,336.134 570.557,341.334 588.7,341.334 588.7,353.948 593.9,353.948 593.9,371.963 588.7,371.963 588.7,389.577 593.9,389.577 593.9,407.591 588.7,407.591 588.7,425.205 593.9,425.205 593.9,443.22 588.7,443.22 588.7,461.034 461.5,461.034" fill="none" stroke="black" stroke-width="0.1mm" />
<polyline z="0" points="574.694,430.673 574.667,430.551 574.651,430.427 574.648,430.302 574.657,430.178 574.679,430.055 574.713,429.935 574.758,429.819 574.816,429.708 574.883,429.602 574.961,429.505 575.048,429.416 575.143,429.335 575.247,429.265 575.357,429.205 575.471,429.157 575.591,429.12 575.713,429.096 575.838,429.083 575.962,429.083 576.087,429.096 576.209,429.12 576.329,429.157 576.443,429.205 576.553,429.265 576.657,429.335 576.752,429.416 576.839,429.505 576.917,429.602 576.984,429.708 577.042,429.819 577.087,429.935 577.121,430.055 577.143,430.178 577.152,430.302 577.149,430.427 577.133,430.551 577.106,430.673 577.066,430.791 577.015,430.905 576.952,431.013 576.879,431.114 576.796,431.208 576.704,431.293 576.605,431.369 576.499,431.434 576.386,431.487 576.269,431.53 576.148,431.562 576.025,431.58 575.9,431.587 575.775,431.58 575.652,431.562 575.531,431.53 575.414,431.487 575.301,431.434 575.195,431.369 575.096,431.293 575.004,431.208 574.921,431.114 574.848,431.013 574.785,430.905 574.734,430.791 574.694,430.673" fill="none" stroke="black" stroke-width="0.1mm" />
<polyline z="0" points="475.552,430.302 475.549,430.427 475.533,430.551 475.506,430.673 475.466,430.791 475.415,430.905 475.352,431.013 475.279,431.114 475.196,431.208 475.104,431.293 475.005,431.369 474.899,431.434 474.786,431.487 474.669,431.53 474.548,431.562 474.425,431.58 474.3,431.587 474.175,431.58 474.052,431.562 473.931,431.53 473.814,431.487 473.701,431.434 473.595,431.369 473.496,431.293 473.404,431.208 473.321,431.114 473.248,431.013 473.185,430.905 473.134,430.791 473.094,430.673 473.067,430.551 473.051,430.427 473.048,430.302 473.057,430.178 473.079,430.055 473.113,429.935 473.158,429.819 473.216,429.708 473.283,429.602 473.361,429.505 473.448,429.416 473.543,429.335 473.647,429.265 473.757,429.205 473.871,429.157 473.991,429.12 474.113,429.096 474.238,429.083 474.362,429.083 474.487,429.096 474.609,429.12 474.729,429.157 474.843,429.205 474.953,429.265 475.057,429.335 475.152,429.416 475.239,429.505 475.317,429.602 475.384,429.708 475.442,429.819 475.487,429.935 475.521,430.055 475.543,430.178 475.552,430.302" fill="none" stroke="black" stroke-width="0.1mm" />
<polyline z="0" points="581.2,512.866 589.941,512.866 589.941,507.666 608.786,507.666 608.786,512.866 627.231,512.866 627.231,507.264 629.439,512.594 615.116,526.916 599.214,526.916 599.214,531.916 616.829,531.916 616.829,526.716 634.843,526.716 634.843,531.916 652.457,531.916 652.457,526.716 670.471,526.716 670.471,531.916 688.086,531.916 688.086,526.716 700.9,526.716 700.9,534.799 706.1,534.799 706.1,543.083 700.9,543.083 700.9,551.166 677.713,551.166 671.223,551.443 664.781,552.273 658.432,553.649 628.914,561.379 622.553,562.757 616.095,563.589 609.591,563.866 587.648,563.866 587.018,563.835 586.392,563.743 585.778,563.589 585.182,563.376 584.61,563.105 584.066,562.78 583.558,562.403 583.089,561.977 582.664,561.508 582.287,561 581.962,560.457 581.691,559.885 581.477,559.288 581.324,558.675 581.231,558.048 581.2,557.419 581.2,512.866" fill="none" stroke="black" stroke-width="0.1mm" />
<polyline z="0" points="706.1,539.416 729.643,539.416 729.643,544.616 747.586,544.616 747.586,539.616 736.7,539.616 736.7,525.664 736.725,525.147 736.802,524.633 736.928,524.128 737.104,523.638 737.326,523.168 737.593,522.722 737.903,522.304 738.252,521.919 738.637,521.569 739.055,521.259 739.502,520.992 739.972,520.77 740.462,520.595 740.966,520.468 741.48,520.392 741.998,520.366 807.802,520.366 808.32,520.392 808.834,520.468 809.338,520.595 809.828,520.77 810.298,520.992 810.745,521.259 811.163,521.569 811.548,521.919 811.897,522.304 812.207,522.722 812.474,523.168 812.697,523.638 812.872,524.128 812.998,524.633 813.075,525.147 813.1,525.664 813.1,539.616 802.214,539.616 802.214,544.616 812.42,544.616 812.42,547.889 812.427,548.038 812.448,548.182 812.484,548.323 812.533,548.461 812.595,548.592 812.67,548.718 812.757,548.835 812.856,548.944 812.964,549.041 813.081,549.128 813.206,549.203 813.338,549.266 813.475,549.315 813.617,549.35 813.762,549.372 813.909,549.378 818.668,549.378 818.815,549.372 818.959,549.35 819.101,549.315 819.239,549.266 819.371,549.203 819.496,549.128 819.613,549.041 819.721,548.944 819.82,548.835 819.907,548.718 819.982,548.592 820.044,548.461 820.093,548.323 820.129,548.182 820.149,548.038 820.157,547.889 820.157,539.416 843.7,539.416 843.7,547.699 838.5,547.699 838.5,555.583 843.7,555.583 843.7,563.866 706.1,563.866 706.1,555.583 711.3,555.583 711.3,547.699 706.1,547.699 706.1,539.416" fill="none" stroke="black" stroke-width="0.1mm" />
<polyline z="0" points="765.929,539.616 783.871,539.616 783.871,544.616 765.929,544.616 765.929,539.616" fill="none" stroke="black" stroke-width="0.1mm" />
</svg>