<?xml version="1.0" standalone="no"?>
<!DOCTYPE svg PUBLIC "-//W3C//DTD SVG 1.1//EN" "http://www.w3.org/Graphics/SVG/1.1/DTD/svg11.dtd">
<svg width="1300mm" height="900mm" viewBox="0 0 1300 900" xmlns="http://www.w3.org/2000/svg" version="1.1">
<polyline z="0" points="523.701,499.75 534.01,499.75 534.01,494.55 544.37,494.55 544.37,499.75 554.33,499.75 554.33,494.55 564.69,494.55 564.69,499.75 574.65,499.75 574.65,494.691 560.386,480.427 562.427,475.5 575.529,475.5 575.529,480.7 588.265,480.7 588.265,475.5 601.4,475.5 601.4,485.378 606.6,485.378 606.6,495.456 601.4,495.456 601.4,505.133 606.6,505.133 606.6,515.211 601.4,515.211 601.4,524.889 606.6,524.889 606.6,534.967 601.4,534.967 601.4,544.644 606.6,544.644 606.6,554.722 601.4,554.722 601.4,564.6 591.26,564.6 523.701,499.75" fill="none" stroke="black" stroke-width="0.1mm" />
<polyline z="0" points="523.701,475.5 523.701,465.14 528.901,465.14 528.901,455.18 523.701,455.18 523.701,444.82 528.901,444.82 528.901,434.86 523.701,434.86 523.701,424.5 610.501,424.5 610.501,434.86 605.301,434.86 605.301,444.82 610.501,444.82 610.501,455.18 605.301,455.18 605.301,465.14 610.501,465.14 610.501,475.5 523.701,475.5" fill="none" stroke="black" stroke-width="0.1mm" />
<polyline z="0" points="523.701,424.5 523.701,414.422 528.901,414.422 528.901,404.744 523.701,404.744 523.701,394.667 528.901,394.667 528.901,384.989 523.701,384.989 523.701,374.911 528.901,374.911 528.901,365.233 523.701,365.233 523.701,355.156 528.901,355.156 528.901,345.478 523.701,345.478 523.701,335.4 533.523,335.4 533.523,340.6 542.945,340.6 542.945,335.4 552.768,335.4 552.768,340.6 562.19,340.6 562.19,335.4 572.012,335.4 572.012,340.6 581.434,340.6 581.434,335.4 591.257,335.4 591.257,340.6 600.679,340.6 600.679,335.4 610.501,335.4 610.501,345.478 605.301,345.478 605.301,355.156 610.501,355.156 610.501,365.233 605.301,365.233 605.301,374.911 610.501,374.911 610.501,384.989 605.301,384.989 605.301,394.667 610.501,394.667 610.501,404.744 605.301,404.744 605.301,414.422 610.501,414.422 610.501,424.5 605.199,424.5 603.636,424.424 602.085,424.193 600.564,423.812 599.088,423.285 597.671,422.614 596.326,421.808 595.067,420.874 593.906,419.821 592.852,418.66 591.918,417.401 591.113,416.055 590.442,414.638 589.915,413.162 589.533,411.642 589.303,410.091 589.226,408.527 589.226,391.502 589.166,390.265 588.984,389.042 588.684,387.842 588.267,386.678 587.738,385.56 587.103,384.5 586.366,383.507 585.536,382.591 584.62,381.76 583.627,381.023 582.566,380.388 581.448,379.86 580.284,379.443 579.085,379.142 577.862,378.961 576.624,378.9 557.579,378.9 556.341,378.961 555.118,379.142 553.919,379.443 552.755,379.86 551.637,380.388 550.576,381.023 549.583,381.76 548.667,382.591 547.837,383.507 547.1,384.5 546.465,385.56 545.936,386.678 545.519,387.842 545.219,389.042 545.037,390.265 544.976,391.502 544.976,408.527 544.9,410.091 544.67,411.642 544.288,413.162 543.761,414.638 543.091,416.055 542.285,417.401 541.351,418.66 540.297,419.821 539.136,420.874 537.877,421.808 536.532,422.614 535.115,423.285 533.638,423.812 532.118,424.193 530.567,424.424 529.004,424.5 523.701,424.5" fill="none" stroke="black" stroke-width="0.1mm" />
<polyline z="0" points="611.8,475.5 624.935,475.5 624.935,480.7 637.671,480.7 637.671,475.5 650.773,475.5 652.814,480.427 638.55,494.691 638.55,499.75 648.51,499.75 648.51,494.55 658.87,494.55 658.87,499.75 668.83,499.75 668.83,494.55 679.19,494.55 679.19,499.75 689.499,499.75 621.94,564.6 611.8,564.6 611.8,554.722 606.6,554.722 606.6,544.644 611.8,544.644 611.8,534.967 606.6,534.967 606.6,524.889 611.8,524.889 611.8,515.211 606.6,515.211 606.6,505.133 611.8,505.133 611.8,495.456 606.6,495.456 606.6,485.378 611.8,485.378 611.8,475.5" fill="none" stroke="black" stroke-width="0.1mm" />
<polyline z="0" points="694.699,520.394 771.099,520.394 771.099,533.329 776.299,533.329 776.299,546.465 771.099,546.465 771.099,559.4 766.677,559.4 766.677,564.6 756.855,564.6 756.855,559.4 747.432,559.4 747.432,564.6 737.61,564.6 737.61,559.4 728.188,559.4 728.188,564.6 718.366,564.6 718.366,559.4 708.943,559.4 708.943,564.6 699.121,564.6 699.121,559.4 694.699,559.4 694.699,546.465 689.499,546.465 689.499,533.329 694.699,533.329 694.699,520.394" fill="none" stroke="black" stroke-width="0.1mm" />
</svg>