<?xml version="1.0" standalone="no"?>
<!DOCTYPE svg PUBLIC "-//W3C//DTD SVG 1.1//EN" "http://www.w3.org/Graphics/SVG/1.1/DTD/svg11.dtd">
<svg width="1300mm" height="900mm" viewBox="0 0 1300 900" xmlns="http://www.w3.org/2000/svg" version="1.1">
<polyline z="0" points="354.364,571.179 354.364,563.909 349.164,563.909 349.164,551.239 354.364,551.239 354.364,538.969 349.164,538.969 349.164,526.299 354.364,526.299 354.364,513.829 359.143,513.829 359.143,508.629 369.321,508.629 369.321,513.829 379.1,513.829 379.1,508.629 387.123,508.629 373,494.507 375.208,489.177 375.208,494.779 389.677,494.779 389.677,489.579 404.545,489.579 404.545,494.779 414.014,494.779 414.014,508.829 409.235,508.829 409.235,513.829 419.284,513.829 384.364,576.665 384.364,571.179 374.564,571.179 374.564,576.379 364.364,576.379 364.364,571.179 354.364,571.179" fill="none" stroke="black" stroke-width="0.1mm" />
<polyline z="0" points="389.278,513.829 389.278,508.829 399.057,508.829 399.057,513.829 389.278,513.829" fill="none" stroke="black" stroke-width="0.1mm" />
<polyline z="0" points="398.172,519.703 402.543,522.132 398.103,530.122 393.732,527.694 398.172,519.703" fill="none" stroke="black" stroke-width="0.1mm" />
<polyline z="0" points="389.098,536.032 393.468,538.461 389.028,546.45 384.658,544.022 389.098,536.032" fill="none" stroke="black" stroke-width="0.1mm" />
<polyline z="0" points="380.024,552.36 384.394,554.789 379.954,562.779 375.584,560.351 380.024,552.36" fill="none" stroke="black" stroke-width="0.1mm" />
<polyline z="0" points="419.284,513.829 429.333,513.829 429.333,508.829 424.554,508.829 424.554,494.779 434.023,494.779 434.023,489.579 448.891,489.579 448.891,494.779 463.36,494.779 463.36,489.177 465.568,494.507 451.445,508.629 459.468,508.629 459.468,513.829 469.247,513.829 469.247,508.629 479.425,508.629 479.425,513.829 484.204,513.829 484.204,526.299 489.404,526.299 489.404,538.969 484.204,538.969 484.204,551.239 489.404,551.239 489.404,563.909 484.204,563.909 484.204,571.179 474.204,571.179 474.204,576.379 464.004,576.379 464.004,571.179 454.204,571.179 454.204,576.665 419.284,513.829" fill="none" stroke="black" stroke-width="0.1mm" />
<polyline z="0" points="439.511,513.829 439.511,508.829 449.29,508.829 449.29,513.829 439.511,513.829" fill="none" stroke="black" stroke-width="0.1mm" />
<polyline z="0" points="440.396,519.703 444.836,527.694 440.465,530.122 436.025,522.132 440.396,519.703" fill="none" stroke="black" stroke-width="0.1mm" />
<polyline z="0" points="449.47,536.032 453.91,544.022 449.54,546.45 445.1,538.461 449.47,536.032" fill="none" stroke="black" stroke-width="0.1mm" />
<polyline z="0" points="458.544,552.36 462.984,560.351 458.614,562.779 454.174,554.789 458.544,552.36" fill="none" stroke="black" stroke-width="0.1mm" />
<polyline z="0" points="489.404,549.883 489.404,540.755 494.604,540.755 494.604,532.028 489.404,532.028 489.404,522.9 494.604,522.9 494.604,513.973 687.604,513.973 687.604,522.9 692.804,522.9 692.804,532.028 687.604,532.028 687.604,540.755 692.804,540.755 692.804,549.883 687.604,549.883 687.604,558.61 692.804,558.61 692.804,567.738 687.604,567.738 687.604,576.665 494.604,576.665 494.604,567.738 489.404,567.738 489.404,558.61 494.604,558.61 494.604,549.883 489.404,549.883" fill="none" stroke="black" stroke-width="0.1mm" />
<polyline z="0" points="505.835,513.973 505.835,508.773 489.404,508.773 489.404,494.723 505.835,494.723 505.835,489.523 522.466,489.523 522.466,494.723 538.696,494.723 538.696,489.523 555.327,489.523 555.327,494.723 571.558,494.723 571.558,489.523 588.189,489.523 588.189,494.723 604.419,494.723 604.419,489.523 621.05,489.523 621.05,494.723 637.281,494.723 637.281,489.523 653.912,489.523 653.912,494.723 670.142,494.723 670.142,489.523 686.773,489.523 686.773,494.723 703.204,494.723 703.204,508.773 686.773,508.773 686.773,513.973 670.142,513.973 670.142,508.773 653.912,508.773 653.912,513.973 637.281,513.973 637.281,508.773 621.05,508.773 621.05,513.973 604.419,513.973 604.419,508.773 588.189,508.773 588.189,513.973 571.558,513.973 571.558,508.773 555.327,508.773 555.327,513.973 538.696,513.973 538.696,508.773 522.466,508.773 522.466,513.973 505.835,513.973" fill="none" stroke="black" stroke-width="0.1mm" />
<polyline z="0" points="513.672,458.977 529.902,458.977 529.902,453.777 546.533,453.777 546.533,458.977 562.964,458.977 562.964,469.177 557.764,469.177 557.764,478.977 562.964,478.977 562.964,489.177 349.164,489.177 349.164,478.977 354.364,478.977 354.364,469.177 349.164,469.177 349.164,458.977 365.595,458.977 365.595,453.777 382.226,453.777 382.226,458.977 398.456,458.977 398.456,453.777 415.087,453.777 415.087,458.977 431.318,458.977 431.318,453.777 447.949,453.777 447.949,458.977 464.179,458.977 464.179,453.777 480.81,453.777 480.81,458.977 497.041,458.977 497.041,453.777 513.672,453.777 513.672,458.977" fill="none" stroke="black" stroke-width="0.1mm" />
<polyline z="0" points="514.435,453.777 514.875,453.015 513.707,450.993 511.373,450.993 510.206,453.015 510.646,453.777 489.764,453.777 490.205,453.015 489.037,450.993 486.703,450.993 485.535,453.015 485.975,453.777 465.094,453.777 465.534,453.015 464.366,450.993 462.032,450.993 460.865,453.015 461.305,453.777 440.423,453.777 440.864,453.015 439.696,450.993 437.362,450.993 436.194,453.015 436.634,453.777 415.753,453.777 416.193,453.015 415.025,450.993 412.691,450.993 411.524,453.015 411.964,453.777 391.082,453.777 391.523,453.015 390.355,450.993 388.021,450.993 386.853,453.015 387.293,453.777 366.412,453.777 366.852,453.015 365.684,450.993 363.35,450.993 362.183,453.015 362.623,453.777 349.164,453.777 349.164,450.687 354.364,450.687 354.364,442.373 349.164,442.373 349.164,433.658 354.364,433.658 354.364,425.343 349.164,425.343 349.164,416.629 354.364,416.629 354.364,408.314 349.164,408.314 349.164,399.599 354.364,399.599 354.364,391.085 547.364,391.085 547.364,399.599 552.564,399.599 552.564,408.314 547.364,408.314 547.364,416.629 552.564,416.629 552.564,425.343 547.364,425.343 547.364,433.658 552.564,433.658 552.564,442.373 547.364,442.373 547.364,450.687 552.564,450.687 552.564,453.777 539.105,453.777 539.546,453.015 538.378,450.993 536.044,450.993 534.876,453.015 535.316,453.777 514.435,453.777" fill="none" stroke="black" stroke-width="0.1mm" />
<polyline z="0" points="523.709,405.184 522.542,403.162 523.709,401.141 526.043,401.141 527.211,403.162 526.043,405.184 523.709,405.184" fill="none" stroke="black" stroke-width="0.1mm" />
<polyline z="0" points="502.54,403.162 501.372,405.184 499.038,405.184 497.871,403.162 499.038,401.141 501.372,401.141 502.54,403.162" fill="none" stroke="black" stroke-width="0.1mm" />
<polyline z="0" points="477.87,403.162 476.702,405.184 474.368,405.184 473.201,403.162 474.368,401.141 476.702,401.141 477.87,403.162" fill="none" stroke="black" stroke-width="0.1mm" />
<polyline z="0" points="453.199,403.162 452.031,405.184 449.697,405.184 448.53,403.162 449.697,401.141 452.031,401.141 453.199,403.162" fill="none" stroke="black" stroke-width="0.1mm" />
<polyline z="0" points="428.528,403.162 427.36,405.184 425.026,405.184 423.859,403.162 425.026,401.141 427.36,401.141 428.528,403.162" fill="none" stroke="black" stroke-width="0.1mm" />
<polyline z="0" points="403.858,403.162 402.69,405.184 400.356,405.184 399.189,403.162 400.356,401.141 402.69,401.141 403.858,403.162" fill="none" stroke="black" stroke-width="0.1mm" />
<polyline z="0" points="379.187,403.162 378.019,405.184 375.685,405.184 374.518,403.162 375.685,401.141 378.019,401.141 379.187,403.162" fill="none" stroke="black" stroke-width="0.1mm" />
<polyline z="0" points="534.876,410.284 536.044,408.262 538.378,408.262 539.546,410.284 538.378,412.306 536.044,412.306 534.876,410.284" fill="none" stroke="black" stroke-width="0.1mm" />
<polyline z="0" points="514.875,410.284 513.707,412.306 511.373,412.306 510.205,410.284 511.373,408.262 513.707,408.262 514.875,410.284" fill="none" stroke="black" stroke-width="0.1mm" />
<polyline z="0" points="490.205,410.284 489.037,412.306 486.703,412.306 485.535,410.284 486.703,408.262 489.037,408.262 490.205,410.284" fill="none" stroke="black" stroke-width="0.1mm" />
<polyline z="0" points="465.534,410.284 464.366,412.306 462.032,412.306 460.864,410.284 462.032,408.262 464.366,408.262 465.534,410.284" fill="none" stroke="black" stroke-width="0.1mm" />
<polyline z="0" points="440.864,410.284 439.696,412.306 437.362,412.306 436.194,410.284 437.362,408.262 439.696,408.262 440.864,410.284" fill="none" stroke="black" stroke-width="0.1mm" />
<polyline z="0" points="416.193,410.284 415.025,412.306 412.691,412.306 411.523,410.284 412.691,408.262 415.025,408.262 416.193,410.284" fill="none" stroke="black" stroke-width="0.1mm" />
<polyline z="0" points="391.523,410.284 390.355,412.306 388.021,412.306 386.853,410.284 388.021,408.262 390.355,408.262 391.523,410.284" fill="none" stroke="black" stroke-width="0.1mm" />
<polyline z="0" points="366.852,410.284 365.684,412.306 363.35,412.306 362.182,410.284 363.35,408.262 365.684,408.262 366.852,410.284" fill="none" stroke="black" stroke-width="0.1mm" />
<polyline z="0" points="522.541,417.406 523.709,415.384 526.043,415.384 527.211,417.406 526.043,419.428 523.709,419.428 522.541,417.406" fill="none" stroke="black" stroke-width="0.1mm" />
<polyline z="0" points="502.54,417.406 501.372,419.428 499.038,419.428 497.87,417.406 499.038,415.384 501.372,415.384 502.54,417.406" fill="none" stroke="black" stroke-width="0.1mm" />
<polyline z="0" points="477.87,417.406 476.702,419.428 474.368,419.428 473.2,417.406 474.368,415.384 476.702,415.384 477.87,417.406" fill="none" stroke="black" stroke-width="0.1mm" />
<polyline z="0" points="453.199,417.406 452.031,419.428 449.697,419.428 448.529,417.406 449.697,415.384 452.031,415.384 453.199,417.406" fill="none" stroke="black" stroke-width="0.1mm" />
<polyline z="0" points="428.528,417.406 427.36,419.428 425.026,419.428 423.858,417.406 425.026,415.384 427.36,415.384 428.528,417.406" fill="none" stroke="black" stroke-width="0.1mm" />
<polyline z="0" points="403.858,417.406 402.69,419.428 400.356,419.428 399.188,417.406 400.356,415.384 402.69,415.384 403.858,417.406" fill="none" stroke="black" stroke-width="0.1mm" />
<polyline z="0" points="379.187,417.406 378.019,419.428 375.685,419.428 374.517,417.406 375.685,415.384 378.019,415.384 379.187,417.406" fill="none" stroke="black" stroke-width="0.1mm" />
<polyline z="0" points="534.877,424.528 536.044,422.506 538.378,422.506 539.546,424.528 538.378,426.549 536.044,426.549 534.877,424.528" fill="none" stroke="black" stroke-width="0.1mm" />
<polyline z="0" points="514.875,424.528 513.707,426.549 511.373,426.549 510.206,424.528 511.373,422.506 513.707,422.506 514.875,424.528" fill="none" stroke="black" stroke-width="0.1mm" />
<polyline z="0" points="490.205,424.528 489.037,426.549 486.703,426.549 485.536,424.528 486.703,422.506 489.037,422.506 490.205,424.528" fill="none" stroke="black" stroke-width="0.1mm" />
<polyline z="0" points="465.534,424.528 464.366,426.549 462.032,426.549 460.865,424.528 462.032,422.506 464.366,422.506 465.534,424.528" fill="none" stroke="black" stroke-width="0.1mm" />
<polyline z="0" points="440.864,424.528 439.696,426.549 437.362,426.549 436.195,424.528 437.362,422.506 439.696,422.506 440.864,424.528" fill="none" stroke="black" stroke-width="0.1mm" />
<polyline z="0" points="416.193,424.528 415.025,426.549 412.691,426.549 411.524,424.528 412.691,422.506 415.025,422.506 416.193,424.528" fill="none" stroke="black" stroke-width="0.1mm" />
<polyline z="0" points="391.523,424.528 390.355,426.549 388.021,426.549 386.854,424.528 388.021,422.506 390.355,422.506 391.523,424.528" fill="none" stroke="black" stroke-width="0.1mm" />
<polyline z="0" points="366.852,424.528 365.684,426.549 363.35,426.549 362.183,424.528 363.35,422.506 365.684,422.506 366.852,424.528" fill="none" stroke="black" stroke-width="0.1mm" />
<polyline z="0" points="522.542,431.649 523.709,429.628 526.043,429.628 527.211,431.649 526.043,433.671 523.709,433.671 522.542,431.649" fill="none" stroke="black" stroke-width="0.1mm" />
<polyline z="0" points="502.54,431.649 501.372,433.671 499.038,433.671 497.871,431.649 499.038,429.628 501.372,429.628 502.54,431.649" fill="none" stroke="black" stroke-width="0.1mm" />
<polyline z="0" points="477.87,431.649 476.702,433.671 474.368,433.671 473.201,431.649 474.368,429.628 476.702,429.628 477.87,431.649" fill="none" stroke="black" stroke-width="0.1mm" />
<polyline z="0" points="453.199,431.649 452.031,433.671 449.697,433.671 448.53,431.649 449.697,429.628 452.031,429.628 453.199,431.649" fill="none" stroke="black" stroke-width="0.1mm" />
<polyline z="0" points="428.528,431.649 427.36,433.671 425.026,433.671 423.859,431.649 425.026,429.628 427.36,429.628 428.528,431.649" fill="none" stroke="black" stroke-width="0.1mm" />
<polyline z="0" points="403.858,431.649 402.69,433.671 400.356,433.671 399.189,431.649 400.356,429.628 402.69,429.628 403.858,431.649" fill="none" stroke="black" stroke-width="0.1mm" />
<polyline z="0" points="379.187,431.649 378.019,433.671 375.685,433.671 374.518,431.649 375.685,429.628 378.019,429.628 379.187,431.649" fill="none" stroke="black" stroke-width="0.1mm" />
<polyline z="0" points="534.876,438.771 536.044,436.749 538.378,436.749 539.546,438.771 538.378,440.793 536.044,440.793 534.876,438.771" fill="none" stroke="black" stroke-width="0.1mm" />
<polyline z="0" points="514.875,438.771 513.707,440.793 511.373,440.793 510.205,438.771 511.373,436.749 513.707,436.749 514.875,438.771" fill="none" stroke="black" stroke-width="0.1mm" />
<polyline z="0" points="490.205,438.771 489.037,440.793 486.703,440.793 485.535,438.771 486.703,436.749 489.037,436.749 490.205,438.771" fill="none" stroke="black" stroke-width="0.1mm" />
<polyline z="0" points="465.534,438.771 464.366,440.793 462.032,440.793 460.864,438.771 462.032,436.749 464.366,436.749 465.534,438.771" fill="none" stroke="black" stroke-width="0.1mm" />
<polyline z="0" points="440.864,438.771 439.696,440.793 437.362,440.793 436.194,438.771 437.362,436.749 439.696,436.749 440.864,438.771" fill="none" stroke="black" stroke-width="0.1mm" />
<polyline z="0" points="416.193,438.771 415.025,440.793 412.691,440.793 411.523,438.771 412.691,436.749 415.025,436.749 416.193,438.771" fill="none" stroke="black" stroke-width="0.1mm" />
<polyline z="0" points="391.523,438.771 390.355,440.793 388.021,440.793 386.853,438.771 388.021,436.749 390.355,436.749 391.523,438.771" fill="none" stroke="black" stroke-width="0.1mm" />
<polyline z="0" points="366.852,438.771 365.684,440.793 363.35,440.793 362.182,438.771 363.35,436.749 365.684,436.749 366.852,438.771" fill="none" stroke="black" stroke-width="0.1mm" />
<polyline z="0" points="522.541,445.893 523.709,443.871 526.043,443.871 527.211,445.893 526.043,447.915 523.709,447.915 522.541,445.893" fill="none" stroke="black" stroke-width="0.1mm" />
<polyline z="0" points="502.54,445.893 501.372,447.915 499.038,447.915 497.87,445.893 499.038,443.871 501.372,443.871 502.54,445.893" fill="none" stroke="black" stroke-width="0.1mm" />
<polyline z="0" points="477.87,445.893 476.702,447.915 474.368,447.915 473.2,445.893 474.368,443.871 476.702,443.871 477.87,445.893" fill="none" stroke="black" stroke-width="0.1mm" />
<polyline z="0" points="453.199,445.893 452.031,447.915 449.697,447.915 448.529,445.893 449.697,443.871 452.031,443.871 453.199,445.893" fill="none" stroke="black" stroke-width="0.1mm" />
<polyline z="0" points="428.528,445.893 427.36,447.915 425.026,447.915 423.858,445.893 425.026,443.871 427.36,443.871 428.528,445.893" fill="none" stroke="black" stroke-width="0.1mm" />
<polyline z="0" points="403.858,445.893 402.69,447.915 400.356,447.915 399.188,445.893 400.356,443.871 402.69,443.871 403.858,445.893" fill="none" stroke="black" stroke-width="0.1mm" />
<polyline z="0" points="379.187,445.893 378.019,447.915 375.685,447.915 374.517,445.893 375.685,443.871 378.019,443.871 379.187,445.893" fill="none" stroke="black" stroke-width="0.1mm" />
<polyline z="0" points="382.026,391.085 382.026,385.885 365.795,385.885 365.795,391.085 349.164,391.085 349.164,378.415 354.364,378.415 354.364,366.145 349.164,366.145 349.164,353.475 354.364,353.475 354.364,341.205 349.164,341.205 349.164,328.535 365.595,328.535 365.595,323.335 382.226,323.335 382.226,328.535 398.456,328.535 398.456,323.335 415.087,323.335 415.087,328.535 431.318,328.535 431.318,323.335 447.949,323.335 447.949,328.535 464.179,328.535 464.179,323.335 480.81,323.335 480.81,328.535 497.041,328.535 497.041,323.335 513.672,323.335 513.672,328.535 529.902,328.535 529.902,323.335 546.533,323.335 546.533,328.535 562.964,328.535 562.964,341.205 557.764,341.205 557.764,353.475 562.964,353.475 562.964,366.145 557.764,366.145 557.764,378.415 562.964,378.415 562.964,391.085 546.333,391.085 546.333,385.885 530.102,385.885 530.102,391.085 513.472,391.085 513.472,385.885 497.241,385.885 497.241,391.085 480.61,391.085 480.61,385.885 464.379,385.885 464.379,391.085 447.749,391.085 447.749,385.885 431.518,385.885 431.518,391.085 414.887,391.085 414.887,385.885 398.656,385.885 398.656,391.085 382.026,391.085" fill="none" stroke="black" stroke-width="0.1mm" />
<polyline z="0" points="552.564,401.54 561.765,396.427 596.796,396.427 596.796,453.777 581.594,453.777 577.381,446.195 582.101,443.572 583.304,445.738 587.675,443.309 583.435,435.68 578.89,438.206 577.887,436.402 573.342,438.928 569.109,431.31 573.829,428.687 574.631,430.131 579.001,427.702 574.762,420.073 570.216,422.599 569.615,421.517 565.07,424.043 560.837,416.425 565.557,413.802 565.958,414.524 570.328,412.095 566.088,404.466 561.543,406.992 561.343,406.632 556.797,409.158 552.564,401.54" fill="none" stroke="black" stroke-width="0.1mm" />
<polyline z="0" points="568.164,391.085 568.164,381.745 562.964,381.745 562.964,372.204 568.164,372.204 568.164,363.064 562.964,363.064 562.964,353.524 568.164,353.524 568.164,344.384 562.964,344.384 562.964,334.843 568.164,334.843 568.164,325.503 771.564,325.503 771.564,334.843 776.764,334.843 776.764,344.384 771.564,344.384 771.564,353.524 776.764,353.524 776.764,363.064 771.564,363.064 771.564,372.204 776.764,372.204 776.764,381.745 771.564,381.745 771.564,391.085 568.164,391.085" fill="none" stroke="black" stroke-width="0.1mm" />
<polyline z="0" points="741.542,334.691 742.709,332.669 745.043,332.669 746.211,334.691 745.043,336.712 742.709,336.712 741.542,334.691" fill="none" stroke="black" stroke-width="0.1mm" />
<polyline z="0" points="721.54,334.691 720.372,336.712 718.038,336.712 716.871,334.691 718.038,332.669 720.372,332.669 721.54,334.691" fill="none" stroke="black" stroke-width="0.1mm" />
<polyline z="0" points="696.87,334.691 695.702,336.712 693.368,336.712 692.201,334.691 693.368,332.669 695.702,332.669 696.87,334.691" fill="none" stroke="black" stroke-width="0.1mm" />
<polyline z="0" points="672.199,334.691 671.031,336.712 668.697,336.712 667.53,334.691 668.697,332.669 671.031,332.669 672.199,334.691" fill="none" stroke="black" stroke-width="0.1mm" />
<polyline z="0" points="647.528,334.691 646.36,336.712 644.026,336.712 642.859,334.691 644.026,332.669 646.36,332.669 647.528,334.691" fill="none" stroke="black" stroke-width="0.1mm" />
<polyline z="0" points="622.858,334.691 621.69,336.712 619.356,336.712 618.189,334.691 619.356,332.669 621.69,332.669 622.858,334.691" fill="none" stroke="black" stroke-width="0.1mm" />
<polyline z="0" points="598.187,334.691 597.019,336.712 594.685,336.712 593.518,334.691 594.685,332.669 597.019,332.669 598.187,334.691" fill="none" stroke="black" stroke-width="0.1mm" />
<polyline z="0" points="753.877,341.812 755.044,339.791 757.378,339.791 758.546,341.812 757.378,343.834 755.044,343.834 753.877,341.812" fill="none" stroke="black" stroke-width="0.1mm" />
<polyline z="0" points="733.875,341.812 732.707,343.834 730.373,343.834 729.206,341.812 730.373,339.791 732.707,339.791 733.875,341.812" fill="none" stroke="black" stroke-width="0.1mm" />
<polyline z="0" points="709.205,341.812 708.037,343.834 705.703,343.834 704.536,341.812 705.703,339.791 708.037,339.791 709.205,341.812" fill="none" stroke="black" stroke-width="0.1mm" />
<polyline z="0" points="684.534,341.812 683.366,343.834 681.032,343.834 679.865,341.812 681.032,339.791 683.366,339.791 684.534,341.812" fill="none" stroke="black" stroke-width="0.1mm" />
<polyline z="0" points="659.864,341.812 658.696,343.834 656.362,343.834 655.195,341.812 656.362,339.791 658.696,339.791 659.864,341.812" fill="none" stroke="black" stroke-width="0.1mm" />
<polyline z="0" points="635.193,341.812 634.025,343.834 631.691,343.834 630.524,341.812 631.691,339.791 634.025,339.791 635.193,341.812" fill="none" stroke="black" stroke-width="0.1mm" />
<polyline z="0" points="610.523,341.812 609.355,343.834 607.021,343.834 605.854,341.812 607.021,339.791 609.355,339.791 610.523,341.812" fill="none" stroke="black" stroke-width="0.1mm" />
<polyline z="0" points="585.852,341.812 584.684,343.834 582.35,343.834 581.183,341.812 582.35,339.791 584.684,339.791 585.852,341.812" fill="none" stroke="black" stroke-width="0.1mm" />
<polyline z="0" points="741.541,348.934 742.709,346.912 745.043,346.912 746.211,348.934 745.043,350.956 742.709,350.956 741.541,348.934" fill="none" stroke="black" stroke-width="0.1mm" />
<polyline z="0" points="721.54,348.934 720.372,350.956 718.038,350.956 716.87,348.934 718.038,346.912 720.372,346.912 721.54,348.934" fill="none" stroke="black" stroke-width="0.1mm" />
<polyline z="0" points="696.87,348.934 695.702,350.956 693.368,350.956 692.2,348.934 693.368,346.912 695.702,346.912 696.87,348.934" fill="none" stroke="black" stroke-width="0.1mm" />
<polyline z="0" points="672.199,348.934 671.031,350.956 668.697,350.956 667.529,348.934 668.697,346.912 671.031,346.912 672.199,348.934" fill="none" stroke="black" stroke-width="0.1mm" />
<polyline z="0" points="647.528,348.934 646.36,350.956 644.026,350.956 642.858,348.934 644.026,346.912 646.36,346.912 647.528,348.934" fill="none" stroke="black" stroke-width="0.1mm" />
<polyline z="0" points="622.858,348.934 621.69,350.956 619.356,350.956 618.188,348.934 619.356,346.912 621.69,346.912 622.858,348.934" fill="none" stroke="black" stroke-width="0.1mm" />
<polyline z="0" points="598.187,348.934 597.019,350.956 594.685,350.956 593.517,348.934 594.685,346.912 597.019,346.912 598.187,348.934" fill="none" stroke="black" stroke-width="0.1mm" />
<polyline z="0" points="753.876,356.056 755.044,354.034 757.378,354.034 758.546,356.056 757.378,358.078 755.044,358.078 753.876,356.056" fill="none" stroke="black" stroke-width="0.1mm" />
<polyline z="0" points="733.875,356.056 732.707,358.078 730.373,358.078 729.205,356.056 730.373,354.034 732.707,354.034 733.875,356.056" fill="none" stroke="black" stroke-width="0.1mm" />
<polyline z="0" points="709.205,356.056 708.037,358.078 705.703,358.078 704.535,356.056 705.703,354.034 708.037,354.034 709.205,356.056" fill="none" stroke="black" stroke-width="0.1mm" />
<polyline z="0" points="684.534,356.056 683.366,358.078 681.032,358.078 679.864,356.056 681.032,354.034 683.366,354.034 684.534,356.056" fill="none" stroke="black" stroke-width="0.1mm" />
<polyline z="0" points="659.864,356.056 658.696,358.078 656.362,358.078 655.194,356.056 656.362,354.034 658.696,354.034 659.864,356.056" fill="none" stroke="black" stroke-width="0.1mm" />
<polyline z="0" points="635.193,356.056 634.025,358.078 631.691,358.078 630.523,356.056 631.691,354.034 634.025,354.034 635.193,356.056" fill="none" stroke="black" stroke-width="0.1mm" />
<polyline z="0" points="610.523,356.056 609.355,358.078 607.021,358.078 605.853,356.056 607.021,354.034 609.355,354.034 610.523,356.056" fill="none" stroke="black" stroke-width="0.1mm" />
<polyline z="0" points="585.852,356.056 584.684,358.078 582.35,358.078 581.182,356.056 582.35,354.034 584.684,354.034 585.852,356.056" fill="none" stroke="black" stroke-width="0.1mm" />
<polyline z="0" points="741.542,363.178 742.709,361.156 745.043,361.156 746.211,363.178 745.043,365.199 742.709,365.199 741.542,363.178" fill="none" stroke="black" stroke-width="0.1mm" />
<polyline z="0" points="721.54,363.178 720.372,365.199 718.038,365.199 716.871,363.178 718.038,361.156 720.372,361.156 721.54,363.178" fill="none" stroke="black" stroke-width="0.1mm" />
<polyline z="0" points="696.87,363.178 695.702,365.199 693.368,365.199 692.201,363.178 693.368,361.156 695.702,361.156 696.87,363.178" fill="none" stroke="black" stroke-width="0.1mm" />
<polyline z="0" points="672.199,363.178 671.031,365.199 668.697,365.199 667.53,363.178 668.697,361.156 671.031,361.156 672.199,363.178" fill="none" stroke="black" stroke-width="0.1mm" />
<polyline z="0" points="647.528,363.178 646.36,365.199 644.026,365.199 642.859,363.178 644.026,361.156 646.36,361.156 647.528,363.178" fill="none" stroke="black" stroke-width="0.1mm" />
<polyline z="0" points="622.858,363.178 621.69,365.199 619.356,365.199 618.189,363.178 619.356,361.156 621.69,361.156 622.858,363.178" fill="none" stroke="black" stroke-width="0.1mm" />
<polyline z="0" points="598.187,363.178 597.019,365.199 594.685,365.199 593.518,363.178 594.685,361.156 597.019,361.156 598.187,363.178" fill="none" stroke="black" stroke-width="0.1mm" />
<polyline z="0" points="753.877,370.299 755.044,368.278 757.378,368.278 758.546,370.299 757.378,372.321 755.044,372.321 753.877,370.299" fill="none" stroke="black" stroke-width="0.1mm" />
<polyline z="0" points="733.875,370.299 732.707,372.321 730.373,372.321 729.206,370.299 730.373,368.278 732.707,368.278 733.875,370.299" fill="none" stroke="black" stroke-width="0.1mm" />
<polyline z="0" points="709.205,370.299 708.037,372.321 705.703,372.321 704.536,370.299 705.703,368.278 708.037,368.278 709.205,370.299" fill="none" stroke="black" stroke-width="0.1mm" />
<polyline z="0" points="684.534,370.299 683.366,372.321 681.032,372.321 679.865,370.299 681.032,368.278 683.366,368.278 684.534,370.299" fill="none" stroke="black" stroke-width="0.1mm" />
<polyline z="0" points="659.864,370.299 658.696,372.321 656.362,372.321 655.195,370.299 656.362,368.278 658.696,368.278 659.864,370.299" fill="none" stroke="black" stroke-width="0.1mm" />
<polyline z="0" points="635.193,370.299 634.025,372.321 631.691,372.321 630.524,370.299 631.691,368.278 634.025,368.278 635.193,370.299" fill="none" stroke="black" stroke-width="0.1mm" />
<polyline z="0" points="610.523,370.299 609.355,372.321 607.021,372.321 605.854,370.299 607.021,368.278 609.355,368.278 610.523,370.299" fill="none" stroke="black" stroke-width="0.1mm" />
<polyline z="0" points="585.852,370.299 584.684,372.321 582.35,372.321 581.183,370.299 582.35,368.278 584.684,368.278 585.852,370.299" fill="none" stroke="black" stroke-width="0.1mm" />
<polyline z="0" points="741.541,377.421 742.709,375.399 745.043,375.399 746.211,377.421 745.043,379.443 742.709,379.443 741.541,377.421" fill="none" stroke="black" stroke-width="0.1mm" />
<polyline z="0" points="721.54,377.421 720.372,379.443 718.038,379.443 716.87,377.421 718.038,375.399 720.372,375.399 721.54,377.421" fill="none" stroke="black" stroke-width="0.1mm" />
<polyline z="0" points="696.87,377.421 695.702,379.443 693.368,379.443 692.2,377.421 693.368,375.399 695.702,375.399 696.87,377.421" fill="none" stroke="black" stroke-width="0.1mm" />
<polyline z="0" points="672.199,377.421 671.031,379.443 668.697,379.443 667.529,377.421 668.697,375.399 671.031,375.399 672.199,377.421" fill="none" stroke="black" stroke-width="0.1mm" />
<polyline z="0" points="647.528,377.421 646.36,379.443 644.026,379.443 642.858,377.421 644.026,375.399 646.36,375.399 647.528,377.421" fill="none" stroke="black" stroke-width="0.1mm" />
<polyline z="0" points="622.858,377.421 621.69,379.443 619.356,379.443 618.188,377.421 619.356,375.399 621.69,375.399 622.858,377.421" fill="none" stroke="black" stroke-width="0.1mm" />
<polyline z="0" points="598.187,377.421 597.019,379.443 594.685,379.443 593.517,377.421 594.685,375.399 597.019,375.399 598.187,377.421" fill="none" stroke="black" stroke-width="0.1mm" />
<polyline z="0" points="753.876,384.543 755.044,382.521 757.378,382.521 758.546,384.543 757.378,386.565 755.044,386.565 753.876,384.543" fill="none" stroke="black" stroke-width="0.1mm" />
<polyline z="0" points="733.875,384.543 732.707,386.565 730.373,386.565 729.205,384.543 730.373,382.521 732.707,382.521 733.875,384.543" fill="none" stroke="black" stroke-width="0.1mm" />
<polyline z="0" points="709.205,384.543 708.037,386.565 705.703,386.565 704.535,384.543 705.703,382.521 708.037,382.521 709.205,384.543" fill="none" stroke="black" stroke-width="0.1mm" />
<polyline z="0" points="684.534,384.543 683.366,386.565 681.032,386.565 679.864,384.543 681.032,382.521 683.366,382.521 684.534,384.543" fill="none" stroke="black" stroke-width="0.1mm" />
<polyline z="0" points="659.864,384.543 658.696,386.565 656.362,386.565 655.194,384.543 656.362,382.521 658.696,382.521 659.864,384.543" fill="none" stroke="black" stroke-width="0.1mm" />
<polyline z="0" points="635.193,384.543 634.025,386.565 631.691,386.565 630.523,384.543 631.691,382.521 634.025,382.521 635.193,384.543" fill="none" stroke="black" stroke-width="0.1mm" />
<polyline z="0" points="610.523,384.543 609.355,386.565 607.021,386.565 605.853,384.543 607.021,382.521 609.355,382.521 610.523,384.543" fill="none" stroke="black" stroke-width="0.1mm" />
<polyline z="0" points="585.852,384.543 584.684,386.565 582.35,386.565 581.182,384.543 582.35,382.521 584.684,382.521 585.852,384.543" fill="none" stroke="black" stroke-width="0.1mm" />
<polyline z="0" points="596.796,401.575 613.427,401.575 613.427,406.775 629.658,406.775 629.658,401.575 646.288,401.575 646.288,406.775 662.519,406.775 662.519,401.575 679.15,401.575 679.15,406.775 695.381,406.775 695.381,401.575 712.011,401.575 712.011,406.775 728.242,406.775 728.242,401.575 744.873,401.575 744.873,406.775 761.104,406.775 761.104,401.575 777.734,401.575 777.734,406.775 793.965,406.775 793.965,401.575 810.596,401.575 810.596,411.753 805.396,411.753 805.396,421.532 810.596,421.532 810.596,431.71 805.396,431.71 805.396,441.489 810.596,441.489 810.596,451.667 805.396,451.667 805.396,453.777 601.996,453.777 601.996,451.667 596.796,451.667 596.796,441.489 601.996,441.489 601.996,431.71 596.796,431.71 596.796,421.532 601.996,421.532 601.996,411.753 596.796,411.753 596.796,401.575" fill="none" stroke="black" stroke-width="0.1mm" />
<polyline z="0" points="692.804,519.315 727.835,519.315 737.036,524.428 732.803,532.046 728.257,529.52 728.057,529.88 723.512,527.354 719.272,534.983 723.642,537.412 724.043,536.69 728.763,539.313 724.53,546.931 719.985,544.405 719.384,545.487 714.838,542.961 710.599,550.59 714.969,553.019 715.771,551.575 720.491,554.198 716.258,561.816 711.713,559.29 710.71,561.094 706.165,558.568 701.925,566.197 706.296,568.626 707.499,566.46 712.219,569.083 708.006,576.665 692.804,576.665 692.804,519.315" fill="none" stroke="black" stroke-width="0.1mm" />
<polyline z="0" points="737.036,522.28 742.236,522.28 742.236,520.361 945.636,520.361 945.636,522.28 950.836,522.28 950.836,532.459 934.205,532.459 934.205,527.259 917.974,527.259 917.974,532.459 901.344,532.459 901.344,527.259 885.113,527.259 885.113,532.459 868.482,532.459 868.482,527.259 852.251,527.259 852.251,532.459 835.621,532.459 835.621,527.259 819.39,527.259 819.39,532.459 802.759,532.459 802.759,527.259 786.528,527.259 786.528,532.459 769.898,532.459 769.898,527.259 753.667,527.259 753.667,532.459 737.036,532.459 737.036,522.28" fill="none" stroke="black" stroke-width="0.1mm" />
<polyline z="0" points="737.036,532.459 950.836,532.459 950.836,547.328 945.636,547.328 945.636,561.796 950.836,561.796 950.836,576.665 934.205,576.665 934.205,571.465 917.974,571.465 917.974,576.665 901.344,576.665 901.344,571.465 885.113,571.465 885.113,576.665 868.482,576.665 868.482,571.465 852.251,571.465 852.251,576.665 835.621,576.665 835.621,571.465 819.39,571.465 819.39,576.665 802.759,576.665 802.759,571.465 786.528,571.465 786.528,576.665 769.898,576.665 769.898,571.465 753.667,571.465 753.667,576.665 737.036,576.665 737.036,561.796 742.236,561.796 742.236,547.328 737.036,547.328 737.036,532.459" fill="none" stroke="black" stroke-width="0.1mm" />
</svg>