<?xml version="1.0" encoding="UTF-8" standalone="no"?>
<svg
   width="1300mm"
   height="900mm"
   viewBox="0 0 1300 900"
   version="1.1"
   id="svg133"
   sodipodi:docname="Driver4x60.svg"
   inkscape:version="1.3.2 (091e20ef0f, 2023-11-25)"
   xmlns:inkscape="http://www.inkscape.org/namespaces/inkscape"
   xmlns:sodipodi="http://sodipodi.sourceforge.net/DTD/sodipodi-0.dtd"
   xmlns="http://www.w3.org/2000/svg"
   xmlns:svg="http://www.w3.org/2000/svg">
  <defs
     id="defs133" />
  <sodipodi:namedview
     id="namedview133"
     pagecolor="#505050"
     bordercolor="#eeeeee"
     borderopacity="1"
     inkscape:showpageshadow="0"
     inkscape:pageopacity="0"
     inkscape:pagecheckerboard="0"
     inkscape:deskcolor="#505050"
     inkscape:document-units="mm"
     inkscape:zoom="0.32686218"
     inkscape:cx="2282.3075"
     inkscape:cy="1567.9391"
     inkscape:window-width="1920"
     inkscape:window-height="1011"
     inkscape:window-x="0"
     inkscape:window-y="32"
     inkscape:window-maximized="1"
     inkscape:current-layer="svg133" />
  <polyline
     z="0"
     points="418.454,598.955 414.241,591.373 418.961,588.75 420.164,590.916 424.535,588.487 420.295,580.858 415.75,583.383 414.747,581.579 410.202,584.106 405.969,576.488 410.689,573.865 411.491,575.309 415.861,572.88 411.622,565.25 407.076,567.777 406.475,566.695 401.93,569.22 397.697,561.603 402.417,558.98 402.818,559.702 407.188,557.273 402.948,549.643 398.403,552.17 398.203,551.809 393.657,554.335 389.424,546.718 398.625,541.605 433.656,541.605 433.656,598.955 418.454,598.955"
     fill="none"
     stroke="#000000"
     stroke-width="0.1mm"
     id="polyline1"
     transform="rotate(90,649.96788,450)"
     style="fill:none;stroke:#000000;stroke-opacity:1;vector-effect:non-scaling-stroke;-inkscape-stroke:hairline;stroke-width:0.26458333;stroke-dasharray:none" />
  <polyline
     z="0"
     points="433.656,598.955 433.656,584.086 438.856,584.086 438.856,569.618 433.656,569.618 433.656,554.749 647.456,554.749 647.456,569.618 642.256,569.618 642.256,584.086 647.456,584.086 647.456,598.955 630.825,598.955 630.825,593.755 614.594,593.755 614.594,598.955 597.964,598.955 597.964,593.755 581.733,593.755 581.733,598.955 565.102,598.955 565.102,593.755 548.871,593.755 548.871,598.955 532.241,598.955 532.241,593.755 516.01,593.755 516.01,598.955 499.379,598.955 499.379,593.755 483.148,593.755 483.148,598.955 466.518,598.955 466.518,593.755 450.287,593.755 450.287,598.955 433.656,598.955"
     fill="none"
     stroke="#000000"
     stroke-width="0.1mm"
     id="polyline2"
     transform="rotate(90,649.96788,450)"
     style="fill:none;stroke:#000000;stroke-opacity:1;vector-effect:non-scaling-stroke;-inkscape-stroke:hairline;stroke-width:0.26458333;stroke-dasharray:none" />
  <polyline
     z="0"
     points="438.856,554.749 438.856,552.83 433.656,552.83 433.656,542.651 450.287,542.651 450.287,547.851 466.518,547.851 466.518,542.651 483.148,542.651 483.148,547.851 499.379,547.851 499.379,542.651 516.01,542.651 516.01,547.851 532.241,547.851 532.241,542.651 548.871,542.651 548.871,547.851 565.102,547.851 565.102,542.651 581.733,542.651 581.733,547.851 597.964,547.851 597.964,542.651 614.594,542.651 614.594,547.851 630.825,547.851 630.825,542.651 647.456,542.651 647.456,552.83 642.256,552.83 642.256,554.749 438.856,554.749"
     fill="none"
     stroke="#000000"
     stroke-width="0.1mm"
     id="polyline3"
     transform="rotate(90,649.96788,450)"
     style="fill:none;stroke:#000000;stroke-opacity:1;vector-effect:non-scaling-stroke;-inkscape-stroke:hairline;stroke-width:0.26458333;stroke-dasharray:none" />
  <path
     id="polyline4"
     d="M 389.42402 528.84925 L 394.62422 528.84925 L 394.62422 536.11909 L 404.62412 536.11909 L 404.62412 541.31878 L 414.82402 541.31878 L 414.82402 536.11909 L 424.62393 536.11909 L 424.62393 541.60506 L 459.54377 478.7691 L 449.49477 478.7691 L 449.49477 473.76889 L 454.2738 473.76889 L 454.2738 459.7191 L 444.80513 459.7191 L 444.80513 454.51891 L 429.93679 454.51891 L 429.93679 459.7191 L 415.4679 459.7191 L 415.4679 454.11583 L 413.25977 459.44625 L 427.38294 473.56891 L 419.36017 473.56891 L 419.36017 478.7691 L 409.58093 478.7691 L 409.58093 473.56891 L 399.40325 473.56891 L 399.40325 478.7691 L 394.62422 478.7691 L 394.62422 491.23914 L 389.42402 491.23914 L 389.42402 503.90917 L 394.62422 503.90917 L 394.62422 516.17922 L 389.42402 516.17922 L 389.42402 528.84925 z M 415.84411 525.28978 L 420.28415 517.30009 L 424.65391 519.72888 L 420.21387 527.71909 L 415.84411 525.28978 z M 424.91797 508.96106 L 429.35801 500.97188 L 433.72777 503.40119 L 429.28825 511.38985 L 424.91797 508.96106 z M 429.53785 478.7691 L 429.53785 473.76889 L 439.31709 473.76889 L 439.31709 478.7691 L 429.53785 478.7691 z M 433.99184 492.63286 L 438.43188 484.64316 L 442.80319 487.07196 L 438.36315 495.06217 L 433.99184 492.63286 z "
     transform="rotate(90,649.96788,450)"
     style="fill:none;stroke:#000000;stroke-opacity:1;vector-effect:non-scaling-stroke;-inkscape-stroke:hairline;stroke-width:0.26458333;stroke-dasharray:none" />
  <path
     id="polyline9"
     d="M 459.54377 541.60506 L 475.41102 541.60506 L 476.4802 539.75401 L 478.56379 539.75401 L 479.63298 541.60506 L 499.33204 541.60506 L 500.40122 539.75401 L 502.48482 539.75401 L 503.554 541.60506 L 523.25202 541.60506 L 524.32121 539.75401 L 526.4048 539.75401 L 527.47399 541.60506 L 547.17304 541.60506 L 548.24223 539.75401 L 550.32582 539.75401 L 551.39501 541.60506 L 571.09303 541.60506 L 572.16222 539.75401 L 574.24581 539.75401 L 575.315 541.60506 L 595.01405 541.60506 L 596.08324 539.75401 L 598.16683 539.75401 L 599.23602 541.60506 L 618.93507 541.60506 L 620.00322 539.75401 L 622.08682 539.75401 L 623.156 541.60506 L 642.85506 541.60506 L 643.92424 539.75401 L 646.00784 539.75401 L 647.07702 541.60506 L 662.94375 541.60506 L 662.94375 538.51481 L 657.74407 538.51481 L 657.74407 530.20111 L 662.94375 530.20111 L 662.94375 521.48588 L 657.74407 521.48588 L 657.74407 513.17114 L 662.94375 513.17114 L 662.94375 504.45694 L 657.74407 504.45694 L 657.74407 496.1422 L 662.94375 496.1422 L 662.94375 487.42697 L 657.74407 487.42697 L 657.74407 478.91277 L 464.74397 478.91277 L 464.74397 487.42801 L 459.54377 487.42801 L 459.54377 496.1422 L 464.74397 496.1422 L 464.74397 504.45694 L 459.54377 504.45694 L 459.54377 513.17217 L 464.74397 513.17217 L 464.74397 521.48588 L 459.54377 521.48588 L 459.54377 530.20111 L 464.74397 530.20111 L 464.74397 538.51585 L 459.54377 538.51585 L 459.54377 541.60506 z M 475.43685 527.74906 L 476.4802 525.944 L 478.56379 525.944 L 479.60714 527.74906 L 478.56379 529.55412 L 476.4802 529.55412 L 475.43685 527.74906 z M 475.43685 513.93802 L 476.4802 512.13296 L 478.56379 512.13296 L 479.60714 513.93802 L 478.56379 515.74411 L 476.4802 515.74411 L 475.43685 513.93802 z M 475.43685 500.12801 L 476.4802 498.32295 L 478.56379 498.32295 L 479.60714 500.12801 L 478.56379 501.93307 L 476.4802 501.93307 L 475.43685 500.12801 z M 487.39685 520.84302 L 488.44019 519.03796 L 490.52379 519.03796 L 491.56714 520.84302 L 490.52379 522.64911 L 488.44019 522.64911 L 487.39685 520.84302 z M 487.39685 507.03301 L 488.44019 505.22795 L 490.52379 505.22795 L 491.56714 507.03301 L 490.52379 508.83807 L 488.44019 508.83807 L 487.39685 507.03301 z M 487.39685 493.22197 L 488.44019 491.41691 L 490.52379 491.41691 L 491.56714 493.22197 L 490.52379 495.02806 L 488.44019 495.02806 L 487.39685 493.22197 z M 487.39788 534.65407 L 488.44123 532.84901 L 490.52482 532.84901 L 491.56817 534.65407 L 490.52482 536.45912 L 488.44123 536.45912 L 487.39788 534.65407 z M 499.35787 527.74906 L 500.40122 525.944 L 502.48482 525.944 L 503.52816 527.74906 L 502.48482 529.55412 L 500.40122 529.55412 L 499.35787 527.74906 z M 499.35787 513.93802 L 500.40122 512.13296 L 502.48482 512.13296 L 503.52816 513.93802 L 502.48482 515.74411 L 500.40122 515.74411 L 499.35787 513.93802 z M 499.35787 500.12801 L 500.40122 498.32295 L 502.48482 498.32295 L 503.52816 500.12801 L 502.48482 501.93307 L 500.40122 501.93307 L 499.35787 500.12801 z M 511.31787 534.65407 L 512.36121 532.84901 L 514.44481 532.84901 L 515.48816 534.65407 L 514.44481 536.45912 L 512.36121 536.45912 L 511.31787 534.65407 z M 511.31787 520.84302 L 512.36121 519.03796 L 514.44481 519.03796 L 515.48816 520.84302 L 514.44481 522.64911 L 512.36121 522.64911 L 511.31787 520.84302 z M 511.31787 507.03301 L 512.36121 505.22795 L 514.44481 505.22795 L 515.48816 507.03301 L 514.44481 508.83807 L 512.36121 508.83807 L 511.31787 507.03301 z M 511.31787 493.22197 L 512.36121 491.41691 L 514.44481 491.41691 L 515.48816 493.22197 L 514.44481 495.02806 L 512.36121 495.02806 L 511.31787 493.22197 z M 523.27786 527.74906 L 524.32121 525.944 L 526.4048 525.944 L 527.44815 527.74906 L 526.4048 529.55412 L 524.32121 529.55412 L 523.27786 527.74906 z M 523.27786 513.93802 L 524.32121 512.13296 L 526.4048 512.13296 L 527.44815 513.93802 L 526.4048 515.74308 L 524.32121 515.74308 L 523.27786 513.93802 z M 523.27786 500.12697 L 524.32121 498.32192 L 526.4048 498.32192 L 527.44815 500.12697 L 526.4048 501.93307 L 524.32121 501.93307 L 523.27786 500.12697 z M 535.23785 507.03301 L 536.2812 505.22795 L 538.3648 505.22795 L 539.40814 507.03301 L 538.3648 508.83807 L 536.2812 508.83807 L 535.23785 507.03301 z M 535.23785 493.22197 L 536.2812 491.41691 L 538.3648 491.41691 L 539.40814 493.22197 L 538.3648 495.02806 L 536.2812 495.02806 L 535.23785 493.22197 z M 535.23889 534.65407 L 536.28224 532.84901 L 538.36583 532.84901 L 539.40918 534.65407 L 538.36583 536.45912 L 536.28224 536.45912 L 535.23889 534.65407 z M 535.23889 520.84302 L 536.2812 519.03796 L 538.36583 519.03796 L 539.40918 520.84302 L 538.36583 522.64911 L 536.28224 522.64911 L 535.23889 520.84302 z M 547.19888 527.74803 L 548.24223 525.94297 L 550.32582 525.94297 L 551.36917 527.74803 L 550.32582 529.55412 L 548.24223 529.55412 L 547.19888 527.74803 z M 547.19888 513.93802 L 548.24223 512.13296 L 550.32582 512.13296 L 551.36917 513.93802 L 550.32582 515.74308 L 548.24223 515.74308 L 547.19888 513.93802 z M 547.19888 500.12697 L 548.24223 498.32192 L 550.32582 498.32192 L 551.36917 500.12697 L 550.32582 501.93307 L 548.24223 501.93307 L 547.19888 500.12697 z M 559.15888 534.65407 L 560.20222 532.84901 L 562.28582 532.84901 L 563.32916 534.65407 L 562.28582 536.45912 L 560.20222 536.45912 L 559.15888 534.65407 z M 559.15888 520.84302 L 560.20222 519.03796 L 562.28582 519.03796 L 563.32916 520.84302 L 562.28582 522.64911 L 560.20222 522.64911 L 559.15888 520.84302 z M 559.15888 507.03301 L 560.20222 505.22795 L 562.28582 505.22795 L 563.32916 507.03301 L 562.28582 508.83807 L 560.20222 508.83807 L 559.15888 507.03301 z M 559.15888 493.22197 L 560.20222 491.41691 L 562.28582 491.41691 L 563.32916 493.22197 L 562.28582 495.02806 L 560.20222 495.02806 L 559.15888 493.22197 z M 571.11887 527.74803 L 572.16222 525.94297 L 574.24581 525.94297 L 575.28916 527.74803 L 574.24581 529.55412 L 572.16222 529.55412 L 571.11887 527.74803 z M 571.11887 513.93802 L 572.16222 512.13296 L 574.24581 512.13296 L 575.28916 513.93802 L 574.24581 515.74308 L 572.16222 515.74308 L 571.11887 513.93802 z M 571.11887 500.12697 L 572.16222 498.32192 L 574.24581 498.32192 L 575.28916 500.12697 L 574.24581 501.93307 L 572.16222 501.93307 L 571.11887 500.12697 z M 583.07886 507.03301 L 584.12221 505.22795 L 586.2058 505.22795 L 587.24915 507.03301 L 586.2058 508.83807 L 584.12221 508.83807 L 583.07886 507.03301 z M 583.07886 493.22197 L 584.12221 491.41691 L 586.2058 491.41691 L 587.24915 493.22197 L 586.2058 495.02806 L 584.12221 495.02806 L 583.07886 493.22197 z M 583.0799 534.65407 L 584.12324 532.84901 L 586.20684 532.84901 L 587.25018 534.65407 L 586.20684 536.45912 L 584.12324 536.45912 L 583.0799 534.65407 z M 583.0799 520.84302 L 584.12324 519.03796 L 586.20684 519.03796 L 587.25018 520.84302 L 586.20684 522.64911 L 584.12324 522.64911 L 583.0799 520.84302 z M 595.03989 527.74803 L 596.08324 525.94297 L 598.16683 525.94297 L 599.21018 527.74803 L 598.16683 529.55412 L 596.08324 529.55412 L 595.03989 527.74803 z M 595.03989 513.93802 L 596.08324 512.13296 L 598.16683 512.13296 L 599.21018 513.93802 L 598.16683 515.74308 L 596.08324 515.74308 L 595.03989 513.93802 z M 595.03989 500.12697 L 596.08324 498.32192 L 598.16683 498.32192 L 599.21018 500.12697 L 598.16683 501.93307 L 596.08324 501.93307 L 595.03989 500.12697 z M 606.99988 534.65407 L 608.04323 532.84901 L 610.12682 532.84901 L 611.17017 534.65407 L 610.12682 536.45912 L 608.04323 536.45912 L 606.99988 534.65407 z M 606.99988 520.84302 L 608.04323 519.03796 L 610.12682 519.03796 L 611.17017 520.84302 L 610.12682 522.64911 L 608.04323 522.64911 L 606.99988 520.84302 z M 606.99988 507.03301 L 608.04323 505.22795 L 610.12682 505.22795 L 611.17017 507.03301 L 610.12682 508.83807 L 608.04323 508.83807 L 606.99988 507.03301 z M 606.99988 493.22197 L 608.04323 491.41691 L 610.12682 491.41691 L 611.17017 493.22197 L 610.12682 495.02806 L 608.04323 495.02806 L 606.99988 493.22197 z M 618.95988 527.74803 L 620.00322 525.94297 L 622.08682 525.94297 L 623.13016 527.74803 L 622.08682 529.55412 L 620.00322 529.55412 L 618.95988 527.74803 z M 618.95988 513.93802 L 620.00322 512.13296 L 622.08682 512.13296 L 623.13016 513.93802 L 622.08682 515.74308 L 620.00322 515.74308 L 618.95988 513.93802 z M 618.95988 500.12697 L 620.00322 498.32192 L 622.08682 498.32192 L 623.13016 500.12697 L 622.08682 501.93307 L 620.00322 501.93307 L 618.95988 500.12697 z M 630.91987 493.22197 L 631.96322 491.41691 L 634.04681 491.41691 L 635.09016 493.22197 L 634.04681 495.02806 L 631.96322 495.02806 L 630.91987 493.22197 z M 630.9209 534.65407 L 631.96425 532.84901 L 634.04784 532.84901 L 635.09119 534.65407 L 634.04784 536.45912 L 631.96425 536.45912 L 630.9209 534.65407 z M 630.9209 520.84302 L 631.96425 519.03796 L 634.04784 519.03796 L 635.09119 520.84302 L 634.04784 522.64911 L 631.96425 522.64911 L 630.9209 520.84302 z M 630.9209 507.03198 L 631.96322 505.22795 L 634.04681 505.22795 L 635.09119 507.03301 L 634.04784 508.83807 L 631.96425 508.83807 L 630.9209 507.03198 z M 642.8809 527.74803 L 643.92424 525.94297 L 646.00784 525.94297 L 647.05118 527.74803 L 646.00784 529.55412 L 643.92424 529.55412 L 642.8809 527.74803 z M 642.8809 513.93802 L 643.92424 512.13296 L 646.00784 512.13296 L 647.05118 513.93802 L 646.00784 515.74308 L 643.92424 515.74308 L 642.8809 513.93802 z M 642.8809 500.12697 L 643.92424 498.32192 L 646.00784 498.32192 L 647.05118 500.12697 L 646.00784 501.93307 L 643.92424 501.93307 L 642.8809 500.12697 z "
     transform="rotate(90,649.96788,450)"
     style="fill:none;stroke:#000000;stroke-opacity:1;vector-effect:non-scaling-stroke;-inkscape-stroke:hairline;stroke-width:0.26458333;stroke-dasharray:none" />
  <polyline
     z="0"
     points="492.606,478.913 475.975,478.913 475.975,473.713 459.544,473.713 459.544,459.663 475.975,459.663 475.975,454.463 492.606,454.463 492.606,459.663 508.836,459.663 508.836,454.463 525.467,454.463 525.467,459.663 541.698,459.663 541.698,454.463 558.329,454.463 558.329,459.663 574.559,459.663 574.559,454.463 591.19,454.463 591.19,459.663 607.421,459.663 607.421,454.463 624.052,454.463 624.052,459.663 640.282,459.663 640.282,454.463 656.913,454.463 656.913,459.663 673.344,459.663 673.344,473.713 656.913,473.713 656.913,478.913 640.282,478.913 640.282,473.713 624.052,473.713 624.052,478.913 607.421,478.913 607.421,473.713 591.19,473.713 591.19,478.913 574.559,478.913 574.559,473.713 558.329,473.713 558.329,478.913 541.698,478.913 541.698,473.713 525.467,473.713 525.467,478.913 508.836,478.913 508.836,473.713 492.606,473.713 492.606,478.913"
     fill="none"
     stroke="#000000"
     stroke-width="0.1mm"
     id="polyline62"
     transform="rotate(90,649.96788,450)"
     style="fill:none;stroke:#000000;stroke-opacity:1;vector-effect:non-scaling-stroke;-inkscape-stroke:hairline;stroke-width:0.26458333;stroke-dasharray:none" />
  <polyline
     z="0"
     points="492.406,454.116 492.406,448.916 476.175,448.916 476.175,454.116 459.544,454.116 459.544,441.446 464.744,441.446 464.744,429.176 459.544,429.176 459.544,416.506 464.744,416.506 464.744,404.236 459.544,404.236 459.544,391.566 475.975,391.566 475.975,386.366 492.606,386.366 492.606,391.566 508.836,391.566 508.836,386.366 525.467,386.366 525.467,391.566 541.698,391.566 541.698,386.366 558.329,386.366 558.329,391.566 574.559,391.566 574.559,386.366 591.19,386.366 591.19,391.566 607.421,391.566 607.421,386.366 624.052,386.366 624.052,391.566 640.282,391.566 640.282,386.366 656.913,386.366 656.913,391.566 673.344,391.566 673.344,404.236 668.144,404.236 668.144,416.506 673.344,416.506 673.344,429.176 668.144,429.176 668.144,441.446 673.344,441.446 673.344,454.116 656.713,454.116 656.713,448.916 640.482,448.916 640.482,454.116 623.852,454.116 623.852,448.916 607.621,448.916 607.621,454.116 590.99,454.116 590.99,448.916 574.759,448.916 574.759,454.116 558.129,454.116 558.129,448.916 541.898,448.916 541.898,454.116 525.267,454.116 525.267,448.916 509.036,448.916 509.036,454.116 492.406,454.116"
     fill="none"
     stroke="#000000"
     stroke-width="0.1mm"
     id="polyline63"
     transform="rotate(90,649.96788,450)"
     style="fill:none;stroke:#000000;stroke-opacity:1;vector-effect:non-scaling-stroke;-inkscape-stroke:hairline;stroke-width:0.26458333;stroke-dasharray:none" />
  <path
     id="polyline64"
     d="M 389.42402 391.27987 L 424.34385 454.11583 L 424.34385 448.62986 L 434.14377 448.62986 L 434.14377 453.83006 L 444.34418 453.83006 L 444.34418 448.62986 L 454.34408 448.62986 L 454.34408 441.36002 L 459.54377 441.36002 L 459.54377 428.68999 L 454.34408 428.68999 L 454.34408 416.41994 L 459.54377 416.41994 L 459.54377 403.74991 L 454.34408 403.74991 L 454.34408 391.27987 L 449.56505 391.27987 L 449.56505 386.08019 L 439.38686 386.08019 L 439.38686 391.27987 L 429.60813 391.27987 L 429.60813 386.08019 L 421.58484 386.08019 L 435.70801 371.95805 L 433.49988 366.62711 L 433.49988 372.22987 L 419.03099 372.22987 L 419.03099 367.03019 L 404.16317 367.03019 L 404.16317 372.22987 L 394.69398 372.22987 L 394.69398 386.28018 L 399.47302 386.28018 L 399.47302 391.27987 L 389.42402 391.27987 z M 406.16511 399.58324 L 410.53591 397.15393 L 414.97594 405.14414 L 410.60515 407.57293 L 406.16511 399.58324 z M 409.65121 391.27987 L 409.65121 386.28018 L 419.42994 386.28018 L 419.42994 391.27987 L 409.65121 391.27987 z M 415.24001 415.91196 L 419.60977 413.48317 L 424.04981 421.47183 L 419.68005 423.90114 L 415.24001 415.91196 z M 424.31388 432.24016 L 428.68415 429.81085 L 433.12419 437.80106 L 428.75392 440.22986 L 424.31388 432.24016 z "
     transform="rotate(90,649.96788,450)"
     style="fill:none;stroke:#000000;stroke-opacity:1;vector-effect:non-scaling-stroke;-inkscape-stroke:hairline;stroke-width:0.26458333;stroke-dasharray:none" />
  <path
     id="polyline69"
     d="M 389.42402 357.28711 L 394.62422 357.28711 L 394.62422 366.62711 L 598.0242 366.62711 L 598.0242 357.28711 L 603.22389 357.28711 L 603.22389 347.74609 L 598.0242 347.74609 L 598.0242 338.60608 L 603.22389 338.60608 L 603.22389 329.0661 L 598.0242 329.0661 L 598.0242 319.92505 L 603.22389 319.92505 L 603.22389 310.38507 L 598.0242 310.38507 L 598.0242 301.04507 L 394.62422 301.04507 L 394.62422 310.38507 L 389.42402 310.38507 L 389.42402 319.92609 L 394.62422 319.92609 L 394.62422 329.0661 L 389.42402 329.0661 L 389.42402 338.60608 L 394.62422 338.60608 L 394.62422 347.74713 L 389.42402 347.74713 L 389.42402 357.28711 z M 410.51679 360.80215 L 411.56013 358.99605 L 413.64424 358.99605 L 414.68707 360.80215 L 413.64424 362.6072 L 411.56013 362.6072 L 410.51679 360.80215 z M 410.51679 333.18006 L 411.56013 331.375 L 413.64424 331.375 L 414.68707 333.18006 L 413.64424 334.98615 L 411.56013 334.98615 L 410.51679 333.18006 z M 410.51782 346.9911 L 411.56013 345.18604 L 413.64424 345.18604 L 414.68707 346.9911 L 413.64424 348.79616 L 411.56013 348.79616 L 410.51782 346.9911 z M 410.51782 319.37005 L 411.56013 317.56499 L 413.64424 317.56499 L 414.68707 319.37005 L 413.64424 321.17511 L 411.56013 321.17511 L 410.51782 319.37005 z M 422.47678 353.89611 L 423.52013 352.09105 L 425.60424 352.09105 L 426.64707 353.89611 L 425.60424 355.70116 L 423.52013 355.70116 L 422.47678 353.89611 z M 422.47678 340.0861 L 423.52013 338.28001 L 425.60424 338.28001 L 426.64707 340.0861 L 425.60424 341.89115 L 423.52013 341.89115 L 422.47678 340.0861 z M 422.47678 326.27505 L 423.52013 324.47 L 425.60424 324.47 L 426.64707 326.27505 L 425.60424 328.08011 L 423.52013 328.08011 L 422.47678 326.27505 z M 422.47678 312.46504 L 423.52013 310.65895 L 425.60424 310.65895 L 426.64707 312.46504 L 425.60424 314.2701 L 423.52013 314.2701 L 422.47678 312.46504 z M 434.43781 360.80215 L 435.48115 358.99605 L 437.56475 358.99605 L 438.60809 360.80215 L 437.56475 362.6072 L 435.48115 362.6072 L 434.43781 360.80215 z M 434.43781 333.18006 L 435.48115 331.375 L 437.56475 331.375 L 438.60809 333.18006 L 437.56475 334.98615 L 435.48115 334.98615 L 434.43781 333.18006 z M 434.43884 346.9911 L 435.48115 345.18604 L 437.56475 345.18604 L 438.60809 346.9911 L 437.56475 348.79616 L 435.48115 348.79616 L 434.43884 346.9911 z M 434.43884 319.37005 L 435.48115 317.56499 L 437.56475 317.56499 L 438.60809 319.37005 L 437.56475 321.17511 L 435.48115 321.17511 L 434.43884 319.37005 z M 446.3978 340.0861 L 447.44115 338.28001 L 449.52526 338.28001 L 450.56809 340.0861 L 449.52526 341.89115 L 447.44115 341.89115 L 446.3978 340.0861 z M 446.3978 312.46504 L 447.44115 310.65895 L 449.52526 310.65895 L 450.56809 312.46504 L 449.52526 314.2701 L 447.44115 314.2701 L 446.3978 312.46504 z M 446.39883 353.89611 L 447.44115 352.09105 L 449.52526 352.09105 L 450.56809 353.89611 L 449.52526 355.70116 L 447.44115 355.70116 L 446.39883 353.89611 z M 446.39883 326.27505 L 447.44115 324.47 L 449.52526 324.47 L 450.56809 326.27505 L 449.52526 328.08011 L 447.44115 328.08011 L 446.39883 326.27505 z M 458.35779 360.80215 L 459.40114 358.99605 L 461.48525 358.99605 L 462.52808 360.80215 L 461.48525 362.6072 L 459.40114 362.6072 L 458.35779 360.80215 z M 458.35779 333.18006 L 459.40114 331.375 L 461.48525 331.375 L 462.52808 333.18006 L 461.48525 334.98615 L 459.40114 334.98615 L 458.35779 333.18006 z M 458.35883 346.9911 L 459.40114 345.18604 L 461.48525 345.18604 L 462.52808 346.9911 L 461.48525 348.79616 L 459.40114 348.79616 L 458.35883 346.9911 z M 458.35883 319.37005 L 459.40114 317.56499 L 461.48525 317.56499 L 462.52808 319.37005 L 461.48525 321.17511 L 459.40114 321.17511 L 458.35883 319.37005 z M 470.31779 340.0861 L 471.36113 338.28001 L 473.44524 338.28001 L 474.48807 340.0861 L 473.44524 341.89115 L 471.36113 341.89115 L 470.31779 340.0861 z M 470.31779 312.46504 L 471.36113 310.65895 L 473.44524 310.65895 L 474.48807 312.46504 L 473.44524 314.2701 L 471.36113 314.2701 L 470.31779 312.46504 z M 470.31882 353.89611 L 471.36113 352.09105 L 473.44576 352.09105 L 474.48807 353.89611 L 473.44576 355.70116 L 471.36113 355.70116 L 470.31882 353.89611 z M 470.31882 326.27505 L 471.36113 324.47 L 473.44524 324.47 L 474.48807 326.27505 L 473.44524 328.08011 L 471.36113 328.08011 L 470.31882 326.27505 z M 482.27881 360.80215 L 483.32216 358.99605 L 485.40575 358.99605 L 486.4491 360.80215 L 485.40575 362.6072 L 483.32216 362.6072 L 482.27881 360.80215 z M 482.27881 333.18006 L 483.32216 331.375 L 485.40575 331.375 L 486.4491 333.18006 L 485.40575 334.98615 L 483.32216 334.98615 L 482.27881 333.18006 z M 482.27985 346.9911 L 483.32216 345.18604 L 485.40575 345.18604 L 486.4491 346.9911 L 485.40575 348.79616 L 483.32216 348.79616 L 482.27985 346.9911 z M 482.27985 319.37005 L 483.32216 317.56499 L 485.40575 317.56499 L 486.4491 319.37005 L 485.40575 321.17511 L 483.32216 321.17511 L 482.27985 319.37005 z M 494.23881 340.0861 L 495.28215 338.28001 L 497.36575 338.28001 L 498.4091 340.0861 L 497.36575 341.89115 L 495.28215 341.89115 L 494.23881 340.0861 z M 494.23881 312.46504 L 495.28215 310.65895 L 497.36575 310.65895 L 498.4091 312.46504 L 497.36575 314.2701 L 495.28215 314.2701 L 494.23881 312.46504 z M 494.23984 353.89611 L 495.28215 352.09105 L 497.36575 352.09105 L 498.4091 353.89611 L 497.36575 355.70116 L 495.28215 355.70116 L 494.23984 353.89611 z M 494.23984 326.27505 L 495.28215 324.47 L 497.36575 324.47 L 498.4091 326.27505 L 497.36575 328.08011 L 495.28215 328.08011 L 494.23984 326.27505 z M 506.1988 360.80215 L 507.24215 358.99605 L 509.32626 358.99605 L 510.36909 360.80215 L 509.32626 362.6072 L 507.24215 362.6072 L 506.1988 360.80215 z M 506.1988 333.18006 L 507.24215 331.375 L 509.32626 331.375 L 510.36909 333.18006 L 509.32626 334.98615 L 507.24215 334.98615 L 506.1988 333.18006 z M 506.19983 346.9911 L 507.24215 345.18604 L 509.32626 345.18604 L 510.36909 346.9911 L 509.32626 348.79616 L 507.24215 348.79616 L 506.19983 346.9911 z M 506.19983 319.37005 L 507.24215 317.56499 L 509.32626 317.56499 L 510.36909 319.37005 L 509.32626 321.17511 L 507.24215 321.17511 L 506.19983 319.37005 z M 518.15983 353.89611 L 519.20317 352.09105 L 521.28677 352.09105 L 522.33012 353.89611 L 521.28677 355.70116 L 519.20317 355.70116 L 518.15983 353.89611 z M 518.15983 340.0861 L 519.20317 338.28001 L 521.28677 338.28001 L 522.33012 340.0861 L 521.28677 341.89115 L 519.20317 341.89115 L 518.15983 340.0861 z M 518.15983 326.27505 L 519.20317 324.47 L 521.28677 324.47 L 522.33012 326.27505 L 521.28677 328.08011 L 519.20317 328.08011 L 518.15983 326.27505 z M 518.15983 312.46504 L 519.20317 310.65895 L 521.28677 310.65895 L 522.33012 312.46504 L 521.28677 314.2701 L 519.20317 314.2701 L 518.15983 312.46504 z M 530.11982 360.80215 L 531.16317 358.99605 L 533.24676 358.99605 L 534.29011 360.80215 L 533.24676 362.6072 L 531.16317 362.6072 L 530.11982 360.80215 z M 530.11982 333.18006 L 531.16317 331.375 L 533.24676 331.375 L 534.29011 333.18006 L 533.24676 334.98615 L 531.16317 334.98615 L 530.11982 333.18006 z M 530.12085 346.9911 L 531.16317 345.18604 L 533.24676 345.18604 L 534.29011 346.9911 L 533.24676 348.79616 L 531.16317 348.79616 L 530.12085 346.9911 z M 530.12085 319.37005 L 531.16317 317.56499 L 533.24676 317.56499 L 534.29011 319.37005 L 533.24676 321.17511 L 531.16317 321.17511 L 530.12085 319.37005 z M 542.07981 340.0861 L 543.12316 338.28001 L 545.20676 338.28001 L 546.2501 340.0861 L 545.20676 341.89115 L 543.12316 341.89115 L 542.07981 340.0861 z M 542.07981 312.46504 L 543.12316 310.65895 L 545.20676 310.65895 L 546.2501 312.46504 L 545.20676 314.2701 L 543.12316 314.2701 L 542.07981 312.46504 z M 542.08085 353.89611 L 543.12316 352.09105 L 545.20676 352.09105 L 546.2501 353.89611 L 545.20676 355.70116 L 543.12316 355.70116 L 542.08085 353.89611 z M 542.08085 326.27505 L 543.12316 324.47 L 545.20676 324.47 L 546.2501 326.27505 L 545.20676 328.08011 L 543.12316 328.08011 L 542.08085 326.27505 z M 554.03981 360.80215 L 555.08316 358.99605 L 557.16675 358.99605 L 558.2101 360.80215 L 557.16675 362.6072 L 555.08316 362.6072 L 554.03981 360.80215 z M 554.03981 333.18006 L 555.08316 331.375 L 557.16675 331.375 L 558.2101 333.18006 L 557.16675 334.98615 L 555.08316 334.98615 L 554.03981 333.18006 z M 554.04084 346.9911 L 555.08316 345.18604 L 557.16675 345.18604 L 558.2101 346.9911 L 557.16675 348.79616 L 555.08316 348.79616 L 554.04084 346.9911 z M 554.04084 319.37005 L 555.08316 317.56499 L 557.16675 317.56499 L 558.2101 319.37005 L 557.16675 321.17511 L 555.08316 321.17511 L 554.04084 319.37005 z M 566.00083 340.0861 L 567.04418 338.28001 L 569.12778 338.28001 L 570.17112 340.0861 L 569.12778 341.89115 L 567.04418 341.89115 L 566.00083 340.0861 z M 566.00083 312.46504 L 567.04418 310.65895 L 569.12778 310.65895 L 570.17112 312.46504 L 569.12778 314.2701 L 567.04418 314.2701 L 566.00083 312.46504 z M 566.00187 353.89611 L 567.04418 352.09105 L 569.12778 352.09105 L 570.17112 353.89611 L 569.12778 355.70116 L 567.04418 355.70116 L 566.00187 353.89611 z M 566.00187 326.27505 L 567.04418 324.47 L 569.12778 324.47 L 570.17112 326.27505 L 569.12778 328.08011 L 567.04418 328.08011 L 566.00187 326.27505 z M 577.96083 360.80215 L 579.00418 358.99605 L 581.08777 358.99605 L 582.13112 360.80215 L 581.08777 362.6072 L 579.00418 362.6072 L 577.96083 360.80215 z M 577.96083 333.18006 L 579.00418 331.375 L 581.08777 331.375 L 582.13112 333.18006 L 581.08777 334.98615 L 579.00418 334.98615 L 577.96083 333.18006 z M 577.96186 346.9911 L 579.00418 345.18604 L 581.08777 345.18604 L 582.13112 346.9911 L 581.08777 348.79616 L 579.00418 348.79616 L 577.96186 346.9911 z M 577.96186 319.37005 L 579.00418 317.56499 L 581.08777 317.56499 L 582.13112 319.37005 L 581.08777 321.17511 L 579.00418 321.17511 L 577.96186 319.37005 z "
     transform="rotate(90,649.96788,450)"
     style="fill:none;stroke:#000000;stroke-opacity:1;vector-effect:non-scaling-stroke;-inkscape-stroke:hairline;stroke-width:0.26458333;stroke-dasharray:none" />
  <polyline
     z="0"
     points="673.344,401.914 689.975,401.914 689.975,407.114 706.206,407.114 706.206,401.914 722.836,401.914 722.836,407.114 739.067,407.114 739.067,401.914 755.698,401.914 755.698,407.114 771.929,407.114 771.929,401.914 788.559,401.914 788.559,407.114 804.79,407.114 804.79,401.914 821.421,401.914 821.421,407.114 837.652,407.114 837.652,401.914 854.282,401.914 854.282,407.114 870.513,407.114 870.513,401.914 887.144,401.914 887.144,412.092 881.944,412.092 881.944,421.871 887.144,421.871 887.144,432.049 881.944,432.049 881.944,441.828 887.144,441.828 887.144,452.006 881.944,452.006 881.944,454.116 678.544,454.116 678.544,452.006 673.344,452.006 673.344,441.828 678.544,441.828 678.544,432.049 673.344,432.049 673.344,421.871 678.544,421.871 678.544,412.092 673.344,412.092 673.344,401.914"
     fill="none"
     stroke="#000000"
     stroke-width="0.1mm"
     id="polyline130"
     transform="rotate(90,649.96788,450)"
     style="fill:none;stroke:#000000;stroke-opacity:1;vector-effect:non-scaling-stroke;-inkscape-stroke:hairline;stroke-width:0.26458333;stroke-dasharray:none" />
  <polyline
     z="0"
     points="668.144,478.913 861.144,478.913 861.144,487.84 866.344,487.84 866.344,496.968 861.144,496.968 861.144,505.695 866.344,505.695 866.344,514.823 861.144,514.823 861.144,523.55 866.344,523.55 866.344,532.678 861.144,532.678 861.144,541.605 668.144,541.605 668.144,532.678 662.944,532.678 662.944,523.55 668.144,523.55 668.144,514.823 662.944,514.823 662.944,505.695 668.144,505.695 668.144,496.968 662.944,496.968 662.944,487.84 668.144,487.84 668.144,478.913"
     fill="none"
     stroke="#000000"
     stroke-width="0.1mm"
     id="polyline131"
     transform="rotate(90,649.96788,450)"
     style="fill:none;stroke:#000000;stroke-opacity:1;vector-effect:non-scaling-stroke;-inkscape-stroke:hairline;stroke-width:0.26458333;stroke-dasharray:none" />
  <polyline
     z="0"
     points="663.887,563.555 680.518,563.555 680.518,568.755 696.748,568.755 696.748,563.555 713.379,563.555 713.379,568.755 729.61,568.755 729.61,563.555 746.241,563.555 746.241,568.755 762.471,568.755 762.471,563.555 779.102,563.555 779.102,568.755 795.333,568.755 795.333,563.555 811.964,563.555 811.964,568.755 828.194,568.755 828.194,563.555 844.825,563.555 844.825,568.755 861.256,568.755 861.256,578.955 856.056,578.955 856.056,588.755 861.256,588.755 861.256,598.955 647.456,598.955 647.456,588.755 652.656,588.755 652.656,578.955 647.456,578.955 647.456,568.755 663.887,568.755 663.887,563.555"
     fill="none"
     stroke="#000000"
     stroke-width="0.1mm"
     id="polyline132"
     transform="rotate(90,649.96788,450)"
     style="fill:none;stroke:#000000;stroke-opacity:1;vector-effect:non-scaling-stroke;-inkscape-stroke:hairline;stroke-width:0.26458333;stroke-dasharray:none" />
  <polyline
     z="0"
     points="866.344,541.605 866.344,484.255 901.375,484.255 910.576,489.368 906.343,496.985 901.797,494.459 901.597,494.819 897.052,492.294 892.812,499.923 897.182,502.352 897.583,501.63 902.303,504.253 898.07,511.871 893.525,509.345 892.924,510.427 888.378,507.9 884.139,515.53 888.509,517.959 889.311,516.515 894.031,519.138 889.798,526.756 885.253,524.229 884.25,526.033 879.705,523.507 875.465,531.137 879.836,533.566 881.039,531.4 885.759,534.023 881.546,541.605 866.344,541.605"
     fill="none"
     stroke="#000000"
     stroke-width="0.1mm"
     id="polyline133"
     transform="rotate(90,649.96788,450)"
     style="fill:none;stroke:#000000;stroke-opacity:1;vector-effect:non-scaling-stroke;-inkscape-stroke:hairline;stroke-width:0.26458333;stroke-dasharray:none" />
</svg>
