<?xml version="1.0" standalone="no"?>
<!DOCTYPE svg PUBLIC "-//W3C//DTD SVG 1.1//EN" "http://www.w3.org/Graphics/SVG/1.1/DTD/svg11.dtd">
<svg width="1300mm" height="900mm" viewBox="0 0 1300 900" xmlns="http://www.w3.org/2000/svg" version="1.1">
<polyline z="0" points="348.202,618.619 348.202,608.797 353.402,608.797 353.402,599.374 348.202,599.374 348.202,589.552 353.402,589.552 353.402,580.13 348.202,580.13 348.202,570.308 353.402,570.308 353.402,560.885 348.202,560.885 348.202,551.063 353.402,551.063 353.402,546.641 366.332,546.641 366.332,541.441 379.462,541.441 379.462,546.641 392.192,546.641 392.192,541.641 386.361,541.641 372.038,527.319 374.246,521.989 374.246,527.591 388.715,527.591 388.715,522.391 403.583,522.391 403.583,527.591 418.252,527.591 418.252,541.641 406.949,541.641 406.949,546.641 418.303,546.641 383.402,628.631 383.402,623.041 373.602,623.041 373.602,628.241 363.402,628.241 363.402,623.041 353.402,623.041 353.402,618.619 348.202,618.619" fill="none" stroke="black" stroke-width="0.1mm" />
<polyline z="0" points="392.928,566.423 397.484,555.721 402.084,557.68 397.528,568.381 392.928,566.423" fill="none" stroke="black" stroke-width="0.1mm" />
<polyline z="0" points="388.216,577.492 392.817,579.451 388.261,590.153 383.66,588.194 388.216,577.492" fill="none" stroke="black" stroke-width="0.1mm" />
<polyline z="0" points="378.948,599.264 383.549,601.223 378.993,611.924 374.393,609.966 378.948,599.264" fill="none" stroke="black" stroke-width="0.1mm" />
<polyline z="0" points="418.303,546.641 429.658,546.641 429.658,541.641 418.355,541.641 418.355,527.591 433.024,527.591 433.024,522.391 447.892,522.391 447.892,527.591 462.361,527.591 462.361,521.989 464.569,527.319 450.246,541.641 444.415,541.641 444.415,546.641 457.145,546.641 457.145,541.441 470.275,541.441 470.275,546.641 483.205,546.641 483.205,551.063 488.405,551.063 488.405,560.885 483.205,560.885 483.205,570.308 488.405,570.308 488.405,580.13 483.205,580.13 483.205,589.552 488.405,589.552 488.405,599.374 483.205,599.374 483.205,608.797 488.405,608.797 488.405,618.619 483.205,618.619 483.205,623.041 473.205,623.041 473.205,628.241 463.005,628.241 463.005,623.041 453.205,623.041 453.205,628.631 418.303,546.641" fill="none" stroke="black" stroke-width="0.1mm" />
<polyline z="0" points="434.523,557.68 439.123,555.721 443.678,566.423 439.079,568.381 434.523,557.68" fill="none" stroke="black" stroke-width="0.1mm" />
<polyline z="0" points="443.79,579.451 448.391,577.492 452.946,588.194 448.346,590.153 443.79,579.451" fill="none" stroke="black" stroke-width="0.1mm" />
<polyline z="0" points="453.058,601.223 457.659,599.264 462.213,609.966 457.614,611.924 453.058,601.223" fill="none" stroke="black" stroke-width="0.1mm" />
<polyline z="0" points="488.405,601.768 493.605,601.768 493.605,590.769 488.405,590.769 488.405,579.371 493.605,579.371 493.605,568.372 488.405,568.372 488.405,556.974 493.605,556.974 493.605,545.976 488.405,545.976 488.405,534.577 493.605,534.577 493.605,523.379 686.605,523.379 686.605,534.577 691.805,534.577 691.805,545.976 686.605,545.976 686.605,556.974 691.805,556.974 691.805,568.372 686.605,568.372 686.605,579.371 691.805,579.371 691.805,590.769 686.605,590.769 686.605,601.768 691.805,601.768 691.805,604.181 488.405,604.181 488.405,601.768" fill="none" stroke="black" stroke-width="0.1mm" />
<polyline z="0" points="657.896,539.255 659.713,536.107 663.348,536.107 665.165,539.255 663.348,542.402 659.713,542.402 657.896,539.255" fill="none" stroke="black" stroke-width="0.1mm" />
<polyline z="0" points="636.595,539.255 634.778,542.402 631.143,542.402 629.326,539.255 631.143,536.107 634.778,536.107 636.595,539.255" fill="none" stroke="black" stroke-width="0.1mm" />
<polyline z="0" points="608.024,539.255 606.207,542.402 602.572,542.402 600.755,539.255 602.572,536.107 606.207,536.107 608.024,539.255" fill="none" stroke="black" stroke-width="0.1mm" />
<polyline z="0" points="579.454,539.255 577.637,542.402 574.002,542.402 572.185,539.255 574.002,536.107 577.637,536.107 579.454,539.255" fill="none" stroke="black" stroke-width="0.1mm" />
<polyline z="0" points="550.883,539.255 549.066,542.402 545.431,542.402 543.614,539.255 545.431,536.107 549.066,536.107 550.883,539.255" fill="none" stroke="black" stroke-width="0.1mm" />
<polyline z="0" points="522.313,539.255 520.496,542.402 516.861,542.402 515.044,539.255 516.861,536.107 520.496,536.107 522.313,539.255" fill="none" stroke="black" stroke-width="0.1mm" />
<polyline z="0" points="672.182,547.502 673.999,544.355 677.634,544.355 679.451,547.502 677.634,550.65 673.999,550.65 672.182,547.502" fill="none" stroke="black" stroke-width="0.1mm" />
<polyline z="0" points="650.88,547.502 649.063,550.65 645.428,550.65 643.611,547.502 645.428,544.355 649.063,544.355 650.88,547.502" fill="none" stroke="black" stroke-width="0.1mm" />
<polyline z="0" points="622.31,547.502 620.493,550.65 616.858,550.65 615.041,547.502 616.858,544.355 620.493,544.355 622.31,547.502" fill="none" stroke="black" stroke-width="0.1mm" />
<polyline z="0" points="593.739,547.502 591.922,550.65 588.287,550.65 586.47,547.502 588.287,544.355 591.922,544.355 593.739,547.502" fill="none" stroke="black" stroke-width="0.1mm" />
<polyline z="0" points="565.168,547.502 563.351,550.65 559.716,550.65 557.899,547.502 559.716,544.355 563.351,544.355 565.168,547.502" fill="none" stroke="black" stroke-width="0.1mm" />
<polyline z="0" points="536.598,547.502 534.781,550.65 531.146,550.65 529.329,547.502 531.146,544.355 534.781,544.355 536.598,547.502" fill="none" stroke="black" stroke-width="0.1mm" />
<polyline z="0" points="508.027,547.502 506.21,550.65 502.575,550.65 500.758,547.502 502.575,544.355 506.21,544.355 508.027,547.502" fill="none" stroke="black" stroke-width="0.1mm" />
<polyline z="0" points="657.896,555.75 659.713,552.602 663.348,552.602 665.165,555.75 663.348,558.898 659.713,558.898 657.896,555.75" fill="none" stroke="black" stroke-width="0.1mm" />
<polyline z="0" points="636.595,555.75 634.778,558.898 631.143,558.898 629.326,555.75 631.143,552.602 634.778,552.602 636.595,555.75" fill="none" stroke="black" stroke-width="0.1mm" />
<polyline z="0" points="608.024,555.75 606.207,558.898 602.572,558.898 600.755,555.75 602.572,552.602 606.207,552.602 608.024,555.75" fill="none" stroke="black" stroke-width="0.1mm" />
<polyline z="0" points="579.454,555.75 577.637,558.898 574.002,558.898 572.185,555.75 574.002,552.602 577.637,552.602 579.454,555.75" fill="none" stroke="black" stroke-width="0.1mm" />
<polyline z="0" points="550.883,555.75 549.066,558.898 545.431,558.898 543.614,555.75 545.431,552.602 549.066,552.602 550.883,555.75" fill="none" stroke="black" stroke-width="0.1mm" />
<polyline z="0" points="522.313,555.75 520.496,558.898 516.861,558.898 515.044,555.75 516.861,552.602 520.496,552.602 522.313,555.75" fill="none" stroke="black" stroke-width="0.1mm" />
<polyline z="0" points="672.182,563.998 673.999,560.85 677.634,560.85 679.451,563.998 677.634,567.145 673.999,567.145 672.182,563.998" fill="none" stroke="black" stroke-width="0.1mm" />
<polyline z="0" points="650.88,563.998 649.063,567.145 645.428,567.145 643.611,563.998 645.428,560.85 649.063,560.85 650.88,563.998" fill="none" stroke="black" stroke-width="0.1mm" />
<polyline z="0" points="622.31,563.998 620.493,567.145 616.858,567.145 615.041,563.998 616.858,560.85 620.493,560.85 622.31,563.998" fill="none" stroke="black" stroke-width="0.1mm" />
<polyline z="0" points="593.739,563.998 591.922,567.145 588.287,567.145 586.47,563.998 588.287,560.85 591.922,560.85 593.739,563.998" fill="none" stroke="black" stroke-width="0.1mm" />
<polyline z="0" points="565.168,563.998 563.351,567.145 559.716,567.145 557.899,563.998 559.716,560.85 563.351,560.85 565.168,563.998" fill="none" stroke="black" stroke-width="0.1mm" />
<polyline z="0" points="536.598,563.998 534.781,567.145 531.146,567.145 529.329,563.998 531.146,560.85 534.781,560.85 536.598,563.998" fill="none" stroke="black" stroke-width="0.1mm" />
<polyline z="0" points="508.027,563.998 506.21,567.145 502.575,567.145 500.758,563.998 502.575,560.85 506.21,560.85 508.027,563.998" fill="none" stroke="black" stroke-width="0.1mm" />
<polyline z="0" points="657.896,572.245 659.713,569.098 663.348,569.098 665.165,572.245 663.348,575.393 659.713,575.393 657.896,572.245" fill="none" stroke="black" stroke-width="0.1mm" />
<polyline z="0" points="636.595,572.245 634.778,575.393 631.143,575.393 629.326,572.245 631.143,569.098 634.778,569.098 636.595,572.245" fill="none" stroke="black" stroke-width="0.1mm" />
<polyline z="0" points="608.024,572.245 606.207,575.393 602.572,575.393 600.755,572.245 602.572,569.098 606.207,569.098 608.024,572.245" fill="none" stroke="black" stroke-width="0.1mm" />
<polyline z="0" points="579.454,572.245 577.637,575.393 574.002,575.393 572.185,572.245 574.002,569.098 577.637,569.098 579.454,572.245" fill="none" stroke="black" stroke-width="0.1mm" />
<polyline z="0" points="550.883,572.245 549.066,575.393 545.431,575.393 543.614,572.245 545.431,569.098 549.066,569.098 550.883,572.245" fill="none" stroke="black" stroke-width="0.1mm" />
<polyline z="0" points="522.313,572.245 520.496,575.393 516.861,575.393 515.044,572.245 516.861,569.098 520.496,569.098 522.313,572.245" fill="none" stroke="black" stroke-width="0.1mm" />
<polyline z="0" points="672.182,580.493 673.999,577.345 677.634,577.345 679.451,580.493 677.634,583.64 673.999,583.64 672.182,580.493" fill="none" stroke="black" stroke-width="0.1mm" />
<polyline z="0" points="650.88,580.493 649.063,583.64 645.428,583.64 643.611,580.493 645.428,577.345 649.063,577.345 650.88,580.493" fill="none" stroke="black" stroke-width="0.1mm" />
<polyline z="0" points="622.31,580.493 620.493,583.64 616.858,583.64 615.041,580.493 616.858,577.345 620.493,577.345 622.31,580.493" fill="none" stroke="black" stroke-width="0.1mm" />
<polyline z="0" points="593.739,580.493 591.922,583.64 588.287,583.64 586.47,580.493 588.287,577.345 591.922,577.345 593.739,580.493" fill="none" stroke="black" stroke-width="0.1mm" />
<polyline z="0" points="565.168,580.493 563.351,583.64 559.716,583.64 557.899,580.493 559.716,577.345 563.351,577.345 565.168,580.493" fill="none" stroke="black" stroke-width="0.1mm" />
<polyline z="0" points="536.598,580.493 534.781,583.64 531.146,583.64 529.329,580.493 531.146,577.345 534.781,577.345 536.598,580.493" fill="none" stroke="black" stroke-width="0.1mm" />
<polyline z="0" points="508.027,580.493 506.21,583.64 502.575,583.64 500.758,580.493 502.575,577.345 506.21,577.345 508.027,580.493" fill="none" stroke="black" stroke-width="0.1mm" />
<polyline z="0" points="657.896,588.74 659.713,585.593 663.348,585.593 665.165,588.74 663.348,591.888 659.713,591.888 657.896,588.74" fill="none" stroke="black" stroke-width="0.1mm" />
<polyline z="0" points="636.595,588.74 634.778,591.888 631.143,591.888 629.326,588.74 631.143,585.593 634.778,585.593 636.595,588.74" fill="none" stroke="black" stroke-width="0.1mm" />
<polyline z="0" points="608.024,588.74 606.207,591.888 602.572,591.888 600.755,588.74 602.572,585.593 606.207,585.593 608.024,588.74" fill="none" stroke="black" stroke-width="0.1mm" />
<polyline z="0" points="579.454,588.74 577.637,591.888 574.002,591.888 572.185,588.74 574.002,585.593 577.637,585.593 579.454,588.74" fill="none" stroke="black" stroke-width="0.1mm" />
<polyline z="0" points="550.883,588.74 549.066,591.888 545.431,591.888 543.614,588.74 545.431,585.593 549.066,585.593 550.883,588.74" fill="none" stroke="black" stroke-width="0.1mm" />
<polyline z="0" points="522.313,588.74 520.496,591.888 516.861,591.888 515.044,588.74 516.861,585.593 520.496,585.593 522.313,588.74" fill="none" stroke="black" stroke-width="0.1mm" />
<polyline z="0" points="672.182,596.988 673.999,593.84 677.634,593.84 679.451,596.988 677.634,600.136 673.999,600.136 672.182,596.988" fill="none" stroke="black" stroke-width="0.1mm" />
<polyline z="0" points="650.88,596.988 649.063,600.136 645.428,600.136 643.611,596.988 645.428,593.84 649.063,593.84 650.88,596.988" fill="none" stroke="black" stroke-width="0.1mm" />
<polyline z="0" points="622.31,596.988 620.493,600.136 616.858,600.136 615.041,596.988 616.858,593.84 620.493,593.84 622.31,596.988" fill="none" stroke="black" stroke-width="0.1mm" />
<polyline z="0" points="593.739,596.988 591.922,600.136 588.287,600.136 586.47,596.988 588.287,593.84 591.922,593.84 593.739,596.988" fill="none" stroke="black" stroke-width="0.1mm" />
<polyline z="0" points="565.168,596.988 563.351,600.136 559.716,600.136 557.899,596.988 559.716,593.84 563.351,593.84 565.168,596.988" fill="none" stroke="black" stroke-width="0.1mm" />
<polyline z="0" points="536.598,596.988 534.781,600.136 531.146,600.136 529.329,596.988 531.146,593.84 534.781,593.84 536.598,596.988" fill="none" stroke="black" stroke-width="0.1mm" />
<polyline z="0" points="508.027,596.988 506.21,600.136 502.575,600.136 500.758,596.988 502.575,593.84 506.21,593.84 508.027,596.988" fill="none" stroke="black" stroke-width="0.1mm" />
<polyline z="0" points="516.267,604.181 516.267,609.381 532.497,609.381 532.497,604.181 549.128,604.181 549.128,609.381 565.359,609.381 565.359,604.181 581.99,604.181 581.99,609.381 598.22,609.381 598.22,604.181 614.851,604.181 614.851,609.381 631.082,609.381 631.082,604.181 647.713,604.181 647.713,609.381 663.943,609.381 663.943,604.181 680.574,604.181 680.574,609.381 691.805,609.381 691.805,623.431 680.574,623.431 680.574,628.631 663.943,628.631 663.943,623.431 647.713,623.431 647.713,628.631 631.082,628.631 631.082,623.431 614.851,623.431 614.851,628.631 598.22,628.631 598.22,623.431 581.99,623.431 581.99,628.631 565.359,628.631 565.359,623.431 549.128,623.431 549.128,628.631 532.497,628.631 532.497,623.431 516.267,623.431 516.267,628.631 499.636,628.631 499.636,623.431 488.405,623.431 488.405,609.381 499.636,609.381 499.636,604.181 516.267,604.181" fill="none" stroke="black" stroke-width="0.1mm" />
<polyline z="0" points="556.802,521.989 353.402,521.989 353.402,510.158 348.202,510.158 348.202,498.127 353.402,498.127 353.402,486.496 348.202,486.496 348.202,474.466 353.402,474.466 353.402,462.835 348.202,462.835 348.202,450.804 353.402,450.804 353.402,438.973 556.802,438.973 556.802,450.804 562.002,450.804 562.002,462.835 556.802,462.835 556.802,474.466 562.002,474.466 562.002,486.496 556.802,486.496 556.802,498.127 562.002,498.127 562.002,510.158 556.802,510.158 556.802,521.989" fill="none" stroke="black" stroke-width="0.1mm" />
<polyline z="0" points="528.345,455.783 524.711,455.783 522.894,452.635 524.711,449.488 528.345,449.488 530.163,452.635 528.345,455.783" fill="none" stroke="black" stroke-width="0.1mm" />
<polyline z="0" points="501.593,452.635 499.775,455.783 496.141,455.783 494.324,452.635 496.141,449.488 499.775,449.488 501.593,452.635" fill="none" stroke="black" stroke-width="0.1mm" />
<polyline z="0" points="473.022,452.635 471.204,455.783 467.57,455.783 465.753,452.635 467.57,449.488 471.204,449.488 473.022,452.635" fill="none" stroke="black" stroke-width="0.1mm" />
<polyline z="0" points="444.452,452.635 442.634,455.783 439,455.783 437.183,452.635 439,449.488 442.634,449.488 444.452,452.635" fill="none" stroke="black" stroke-width="0.1mm" />
<polyline z="0" points="415.881,452.635 414.063,455.783 410.429,455.783 408.612,452.635 410.429,449.488 414.063,449.488 415.881,452.635" fill="none" stroke="black" stroke-width="0.1mm" />
<polyline z="0" points="387.311,452.635 385.493,455.783 381.859,455.783 380.042,452.635 381.859,449.488 385.493,449.488 387.311,452.635" fill="none" stroke="black" stroke-width="0.1mm" />
<polyline z="0" points="537.18,460.883 538.997,457.735 542.631,457.735 544.449,460.883 542.631,464.031 538.997,464.031 537.18,460.883" fill="none" stroke="black" stroke-width="0.1mm" />
<polyline z="0" points="515.878,460.883 514.06,464.031 510.426,464.031 508.609,460.883 510.426,457.735 514.06,457.735 515.878,460.883" fill="none" stroke="black" stroke-width="0.1mm" />
<polyline z="0" points="487.308,460.883 485.49,464.031 481.856,464.031 480.039,460.883 481.856,457.735 485.49,457.735 487.308,460.883" fill="none" stroke="black" stroke-width="0.1mm" />
<polyline z="0" points="458.737,460.883 456.919,464.031 453.285,464.031 451.468,460.883 453.285,457.735 456.919,457.735 458.737,460.883" fill="none" stroke="black" stroke-width="0.1mm" />
<polyline z="0" points="430.166,460.883 428.348,464.031 424.714,464.031 422.897,460.883 424.714,457.735 428.348,457.735 430.166,460.883" fill="none" stroke="black" stroke-width="0.1mm" />
<polyline z="0" points="401.596,460.883 399.778,464.031 396.144,464.031 394.327,460.883 396.144,457.735 399.778,457.735 401.596,460.883" fill="none" stroke="black" stroke-width="0.1mm" />
<polyline z="0" points="373.025,460.883 371.207,464.031 367.573,464.031 365.756,460.883 367.573,457.735 371.207,457.735 373.025,460.883" fill="none" stroke="black" stroke-width="0.1mm" />
<polyline z="0" points="522.894,469.131 524.711,465.983 528.345,465.983 530.163,469.131 528.345,472.278 524.711,472.278 522.894,469.131" fill="none" stroke="black" stroke-width="0.1mm" />
<polyline z="0" points="501.593,469.131 499.775,472.278 496.141,472.278 494.324,469.131 496.141,465.983 499.775,465.983 501.593,469.131" fill="none" stroke="black" stroke-width="0.1mm" />
<polyline z="0" points="473.022,469.131 471.204,472.278 467.57,472.278 465.753,469.131 467.57,465.983 471.204,465.983 473.022,469.131" fill="none" stroke="black" stroke-width="0.1mm" />
<polyline z="0" points="444.452,469.131 442.634,472.278 439,472.278 437.183,469.131 439,465.983 442.634,465.983 444.452,469.131" fill="none" stroke="black" stroke-width="0.1mm" />
<polyline z="0" points="415.881,469.131 414.063,472.278 410.429,472.278 408.612,469.131 410.429,465.983 414.063,465.983 415.881,469.131" fill="none" stroke="black" stroke-width="0.1mm" />
<polyline z="0" points="387.311,469.131 385.493,472.278 381.859,472.278 380.042,469.131 381.859,465.983 385.493,465.983 387.311,469.131" fill="none" stroke="black" stroke-width="0.1mm" />
<polyline z="0" points="537.18,477.378 538.997,474.231 542.631,474.231 544.449,477.378 542.631,480.526 538.997,480.526 537.18,477.378" fill="none" stroke="black" stroke-width="0.1mm" />
<polyline z="0" points="515.878,477.378 514.06,480.526 510.426,480.526 508.609,477.378 510.426,474.231 514.06,474.231 515.878,477.378" fill="none" stroke="black" stroke-width="0.1mm" />
<polyline z="0" points="487.308,477.378 485.49,480.526 481.856,480.526 480.039,477.378 481.856,474.231 485.49,474.231 487.308,477.378" fill="none" stroke="black" stroke-width="0.1mm" />
<polyline z="0" points="458.737,477.378 456.919,480.526 453.285,480.526 451.468,477.378 453.285,474.231 456.919,474.231 458.737,477.378" fill="none" stroke="black" stroke-width="0.1mm" />
<polyline z="0" points="430.166,477.378 428.348,480.526 424.714,480.526 422.897,477.378 424.714,474.231 428.348,474.231 430.166,477.378" fill="none" stroke="black" stroke-width="0.1mm" />
<polyline z="0" points="401.596,477.378 399.778,480.526 396.144,480.526 394.327,477.378 396.144,474.231 399.778,474.231 401.596,477.378" fill="none" stroke="black" stroke-width="0.1mm" />
<polyline z="0" points="373.025,477.378 371.207,480.526 367.573,480.526 365.756,477.378 367.573,474.231 371.207,474.231 373.025,477.378" fill="none" stroke="black" stroke-width="0.1mm" />
<polyline z="0" points="522.894,485.626 524.711,482.478 528.345,482.478 530.163,485.626 528.345,488.773 524.711,488.773 522.894,485.626" fill="none" stroke="black" stroke-width="0.1mm" />
<polyline z="0" points="501.593,485.626 499.775,488.773 496.141,488.773 494.324,485.626 496.141,482.478 499.775,482.478 501.593,485.626" fill="none" stroke="black" stroke-width="0.1mm" />
<polyline z="0" points="473.022,485.626 471.204,488.773 467.57,488.773 465.753,485.626 467.57,482.478 471.204,482.478 473.022,485.626" fill="none" stroke="black" stroke-width="0.1mm" />
<polyline z="0" points="444.452,485.626 442.634,488.773 439,488.773 437.183,485.626 439,482.478 442.634,482.478 444.452,485.626" fill="none" stroke="black" stroke-width="0.1mm" />
<polyline z="0" points="415.881,485.626 414.063,488.773 410.429,488.773 408.612,485.626 410.429,482.478 414.063,482.478 415.881,485.626" fill="none" stroke="black" stroke-width="0.1mm" />
<polyline z="0" points="387.311,485.626 385.493,488.773 381.859,488.773 380.042,485.626 381.859,482.478 385.493,482.478 387.311,485.626" fill="none" stroke="black" stroke-width="0.1mm" />
<polyline z="0" points="537.18,493.873 538.997,490.726 542.631,490.726 544.449,493.873 542.631,497.021 538.997,497.021 537.18,493.873" fill="none" stroke="black" stroke-width="0.1mm" />
<polyline z="0" points="515.878,493.873 514.06,497.021 510.426,497.021 508.609,493.873 510.426,490.726 514.06,490.726 515.878,493.873" fill="none" stroke="black" stroke-width="0.1mm" />
<polyline z="0" points="487.308,493.873 485.49,497.021 481.856,497.021 480.039,493.873 481.856,490.726 485.49,490.726 487.308,493.873" fill="none" stroke="black" stroke-width="0.1mm" />
<polyline z="0" points="458.737,493.873 456.919,497.021 453.285,497.021 451.468,493.873 453.285,490.726 456.919,490.726 458.737,493.873" fill="none" stroke="black" stroke-width="0.1mm" />
<polyline z="0" points="430.166,493.873 428.348,497.021 424.714,497.021 422.897,493.873 424.714,490.726 428.348,490.726 430.166,493.873" fill="none" stroke="black" stroke-width="0.1mm" />
<polyline z="0" points="401.596,493.873 399.778,497.021 396.144,497.021 394.327,493.873 396.144,490.726 399.778,490.726 401.596,493.873" fill="none" stroke="black" stroke-width="0.1mm" />
<polyline z="0" points="373.025,493.873 371.207,497.021 367.573,497.021 365.756,493.873 367.573,490.726 371.207,490.726 373.025,493.873" fill="none" stroke="black" stroke-width="0.1mm" />
<polyline z="0" points="522.894,502.121 524.711,498.973 528.345,498.973 530.163,502.121 528.345,505.269 524.711,505.269 522.894,502.121" fill="none" stroke="black" stroke-width="0.1mm" />
<polyline z="0" points="501.593,502.121 499.775,505.269 496.141,505.269 494.324,502.121 496.141,498.973 499.775,498.973 501.593,502.121" fill="none" stroke="black" stroke-width="0.1mm" />
<polyline z="0" points="473.022,502.121 471.204,505.269 467.57,505.269 465.753,502.121 467.57,498.973 471.204,498.973 473.022,502.121" fill="none" stroke="black" stroke-width="0.1mm" />
<polyline z="0" points="444.452,502.121 442.634,505.269 439,505.269 437.183,502.121 439,498.973 442.634,498.973 444.452,502.121" fill="none" stroke="black" stroke-width="0.1mm" />
<polyline z="0" points="415.881,502.121 414.063,505.269 410.429,505.269 408.612,502.121 410.429,498.973 414.063,498.973 415.881,502.121" fill="none" stroke="black" stroke-width="0.1mm" />
<polyline z="0" points="387.311,502.121 385.493,505.269 381.859,505.269 380.042,502.121 381.859,498.973 385.493,498.973 387.311,502.121" fill="none" stroke="black" stroke-width="0.1mm" />
<polyline z="0" points="537.18,510.369 538.997,507.221 542.631,507.221 544.449,510.369 542.631,513.516 538.997,513.516 537.18,510.369" fill="none" stroke="black" stroke-width="0.1mm" />
<polyline z="0" points="515.878,510.369 514.06,513.516 510.426,513.516 508.609,510.369 510.426,507.221 514.06,507.221 515.878,510.369" fill="none" stroke="black" stroke-width="0.1mm" />
<polyline z="0" points="487.308,510.369 485.49,513.516 481.856,513.516 480.039,510.369 481.856,507.221 485.49,507.221 487.308,510.369" fill="none" stroke="black" stroke-width="0.1mm" />
<polyline z="0" points="458.737,510.369 456.919,513.516 453.285,513.516 451.468,510.369 453.285,507.221 456.919,507.221 458.737,510.369" fill="none" stroke="black" stroke-width="0.1mm" />
<polyline z="0" points="430.166,510.369 428.348,513.516 424.714,513.516 422.897,510.369 424.714,507.221 428.348,507.221 430.166,510.369" fill="none" stroke="black" stroke-width="0.1mm" />
<polyline z="0" points="401.596,510.369 399.778,513.516 396.144,513.516 394.327,510.369 396.144,507.221 399.778,507.221 401.596,510.369" fill="none" stroke="black" stroke-width="0.1mm" />
<polyline z="0" points="373.025,510.369 371.207,513.516 367.573,513.516 365.756,510.369 367.573,507.221 371.207,507.221 373.025,510.369" fill="none" stroke="black" stroke-width="0.1mm" />
<polyline z="0" points="381.064,438.973 381.064,433.773 364.833,433.773 364.833,438.973 348.202,438.973 348.202,429.151 353.402,429.151 353.402,419.729 348.202,419.729 348.202,409.906 353.402,409.906 353.402,400.484 348.202,400.484 348.202,390.662 353.402,390.662 353.402,381.24 348.202,381.24 348.202,371.417 353.402,371.417 353.402,361.995 348.202,361.995 348.202,352.173 364.833,352.173 364.833,357.373 381.064,357.373 381.064,352.173 397.694,352.173 397.694,357.373 413.925,357.373 413.925,352.173 430.556,352.173 430.556,357.373 446.787,357.373 446.787,352.173 463.417,352.173 463.417,357.373 479.648,357.373 479.648,352.173 496.279,352.173 496.279,357.373 512.51,357.373 512.51,352.173 529.14,352.173 529.14,357.373 545.371,357.373 545.371,352.173 562.002,352.173 562.002,361.995 556.802,361.995 556.802,371.417 562.002,371.417 562.002,381.24 556.802,381.24 556.802,390.662 562.002,390.662 562.002,400.484 556.802,400.484 556.802,409.906 562.002,409.906 562.002,419.729 556.802,419.729 556.802,429.151 562.002,429.151 562.002,438.973 545.371,438.973 545.371,433.773 529.14,433.773 529.14,438.973 512.51,438.973 512.51,433.773 496.279,433.773 496.279,438.973 479.648,438.973 479.648,433.773 463.417,433.773 463.417,438.973 446.787,438.973 446.787,433.773 430.556,433.773 430.556,438.973 413.925,438.973 413.925,433.773 397.694,433.773 397.694,438.973 381.064,438.973" fill="none" stroke="black" stroke-width="0.1mm" />
<polyline z="0" points="353.402,352.173 353.402,340.658 348.202,340.658 348.202,328.943 353.402,328.943 353.402,317.628 348.202,317.628 348.202,305.914 353.402,305.914 353.402,294.599 348.202,294.599 348.202,282.884 353.402,282.884 353.402,271.37 546.402,271.369 546.402,282.884 551.602,282.884 551.602,294.599 546.402,294.599 546.402,305.914 551.602,305.914 551.602,317.628 546.402,317.628 546.402,328.943 551.602,328.943 551.602,340.658 546.402,340.658 546.402,352.172 353.402,352.173" fill="none" stroke="black" stroke-width="0.1mm" />
<polyline z="0" points="562.002,366.693 571.682,362.573 608.195,362.573 608.195,438.973 592.77,438.973 588.319,428.516 593.287,426.401 594.03,428.146 598.631,426.189 594.199,415.778 589.414,417.814 588.795,416.36 584.012,418.396 579.547,407.909 584.515,405.793 585.011,406.957 589.611,404.999 585.18,394.588 580.396,396.625 580.024,395.752 575.239,397.789 570.774,387.301 575.743,385.185 575.991,385.767 580.591,383.81 576.159,373.399 571.376,375.435 571.252,375.144 566.467,377.181 562.002,366.693" fill="none" stroke="black" stroke-width="0.1mm" />
<polyline z="0" points="608.195,391.077 624.626,391.077 624.626,385.877 641.257,385.877 641.257,391.077 657.487,391.077 657.487,385.877 674.118,385.877 674.118,391.077 690.349,391.077 690.349,385.877 706.98,385.877 706.98,391.077 723.21,391.077 723.21,385.877 739.841,385.877 739.841,391.077 756.072,391.077 756.072,385.877 772.703,385.877 772.703,391.077 788.933,391.077 788.933,385.877 805.564,385.877 805.564,391.077 821.995,391.077 821.995,404.207 816.795,404.207 816.795,416.937 821.995,416.937 821.995,430.067 816.795,430.067 816.795,438.973 613.395,438.973 613.395,430.067 608.195,430.067 608.195,416.937 613.395,416.937 613.395,404.207 608.195,404.207 608.195,391.077" fill="none" stroke="black" stroke-width="0.1mm" />
<polyline z="0" points="611.294,486.589 627.925,486.589 627.925,491.789 644.156,491.789 644.156,486.589 660.787,486.589 660.787,491.789 677.017,491.789 677.017,486.589 693.648,486.589 693.648,491.789 709.879,491.789 709.879,486.589 726.51,486.589 726.51,491.789 742.74,491.789 742.74,486.589 759.371,486.589 759.371,491.789 775.802,491.789 775.802,501.989 770.602,501.989 770.602,511.789 775.802,511.789 775.802,521.989 562.002,521.989 562.002,511.789 567.202,511.789 567.202,501.989 562.002,501.989 562.002,491.789 578.433,491.789 578.433,486.589 595.064,486.589 595.064,491.789 611.294,491.789 611.294,486.589" fill="none" stroke="black" stroke-width="0.1mm" />
<polyline z="0" points="691.805,531.902 701.484,527.781 737.998,527.781 737.998,604.181 722.573,604.181 718.122,593.725 723.09,591.61 723.833,593.355 728.434,591.398 724.002,580.987 719.217,583.023 718.598,581.569 713.814,583.605 709.35,573.118 714.318,571.002 714.814,572.166 719.414,570.208 714.982,559.797 710.198,561.834 709.826,560.961 705.041,562.998 700.577,552.51 705.546,550.394 705.794,550.976 710.394,549.019 705.962,538.608 701.178,540.644 701.054,540.353 696.269,542.39 691.805,531.902" fill="none" stroke="black" stroke-width="0.1mm" />
<polyline z="0" points="737.998,559.975 951.798,559.975 951.798,574.844 946.598,574.844 946.598,589.312 951.798,589.312 951.798,604.181 935.167,604.181 935.167,598.981 918.936,598.981 918.936,604.181 902.306,604.181 902.306,598.981 886.075,598.981 886.075,604.181 869.444,604.181 869.444,598.981 853.213,598.981 853.213,604.181 836.583,604.181 836.583,598.981 820.352,598.981 820.352,604.181 803.721,604.181 803.721,598.981 787.49,598.981 787.49,604.181 770.86,604.181 770.86,598.981 754.629,598.981 754.629,604.181 737.998,604.181 737.998,589.312 743.198,589.312 743.198,574.844 737.998,574.844 737.998,559.975" fill="none" stroke="black" stroke-width="0.1mm" />
<polyline z="0" points="741.297,623.431 741.297,628.631 724.667,628.631 724.667,623.431 708.436,623.431 708.436,628.631 691.805,628.631 691.805,617.127 905.605,617.127 905.605,628.631 888.974,628.631 888.974,623.431 872.743,623.431 872.743,628.631 856.113,628.631 856.113,623.431 839.882,623.431 839.882,628.631 823.251,628.631 823.251,623.431 807.02,623.431 807.02,628.631 790.39,628.631 790.39,623.431 774.159,623.431 774.159,628.631 757.528,628.631 757.528,623.431 741.297,623.431" fill="none" stroke="black" stroke-width="0.1mm" />
</svg>