<?xml version="1.0" encoding="UTF-8" standalone="no"?>
<svg
   width="1300mm"
   height="900mm"
   viewBox="0 0 1300 900"
   version="1.1"
   id="svg123"
   sodipodi:docname="DriverQuarter52.svg"
   inkscape:version="1.3.2 (091e20ef0f, 2023-11-25)"
   xmlns:inkscape="http://www.inkscape.org/namespaces/inkscape"
   xmlns:sodipodi="http://sodipodi.sourceforge.net/DTD/sodipodi-0.dtd"
   xmlns="http://www.w3.org/2000/svg"
   xmlns:svg="http://www.w3.org/2000/svg">
  <defs
     id="defs123" />
  <sodipodi:namedview
     id="namedview123"
     pagecolor="#505050"
     bordercolor="#eeeeee"
     borderopacity="1"
     inkscape:showpageshadow="0"
     inkscape:pageopacity="0"
     inkscape:pagecheckerboard="0"
     inkscape:deskcolor="#505050"
     inkscape:document-units="mm"
     inkscape:zoom="0.46225293"
     inkscape:cx="2236.8706"
     inkscape:cy="1173.5999"
     inkscape:window-width="1920"
     inkscape:window-height="1011"
     inkscape:window-x="0"
     inkscape:window-y="32"
     inkscape:window-maximized="1"
     inkscape:current-layer="svg123" />
  <path
     id="polyline1"
     d="M 348.20195 546.64012 L 383.10318 628.62995 L 383.10318 623.04011 L 392.9031 623.04011 L 392.9031 628.23979 L 403.10299 628.23979 L 403.10299 623.04011 L 413.1029 623.04011 L 413.1029 618.61816 L 418.3031 618.61816 L 418.3031 608.79602 L 413.1029 608.79602 L 413.1029 599.37282 L 418.3031 599.37282 L 418.3031 589.5512 L 413.1029 589.5512 L 413.1029 580.12904 L 418.3031 580.12904 L 418.3031 570.3069 L 413.1029 570.3069 L 413.1029 560.88422 L 418.3031 560.88422 L 418.3031 551.06208 L 413.1029 551.06208 L 413.1029 546.64012 L 400.17294 546.64012 L 400.17294 541.43992 L 387.04299 541.43992 L 387.04299 546.64012 L 374.31302 546.64012 L 374.31302 541.63991 L 380.14522 541.63991 L 394.46683 527.31779 L 392.25921 521.98788 L 392.25921 527.59012 L 377.78981 527.59012 L 377.78981 522.38992 L 362.92198 522.38992 L 362.92198 527.59012 L 348.25311 527.59012 L 348.25311 541.63991 L 359.55578 541.63991 L 359.55578 546.64012 L 348.20195 546.64012 z M 364.42215 557.67924 L 369.02187 555.72019 L 373.57715 566.42186 L 368.97691 568.37988 L 364.42215 557.67924 z M 373.68877 579.45001 L 378.29004 577.49095 L 382.8448 588.19314 L 378.24405 590.1522 L 373.68877 579.45001 z M 382.95694 601.22181 L 387.55821 599.26275 L 392.11193 609.96494 L 387.51221 611.92296 L 382.95694 601.22181 z "
     transform="rotate(90,649.95157,450)"
     style="fill:none;stroke:#000000;stroke-opacity:1;vector-effect:non-scaling-stroke;-inkscape-stroke:hairline;stroke-width:0.26458333;stroke-dasharray:none" />
  <path
     id="polyline5"
     d="M 418.3031 546.64012 L 453.20485 628.62995 L 453.20485 623.04011 L 463.00476 623.04011 L 463.00476 628.23979 L 473.20518 628.23979 L 473.20518 623.04011 L 483.20508 623.04011 L 483.20508 618.61816 L 488.40476 618.61816 L 488.40476 608.79602 L 483.20508 608.79602 L 483.20508 599.37282 L 488.40476 599.37282 L 488.40476 589.5512 L 483.20508 589.5512 L 483.20508 580.12904 L 488.40476 580.12904 L 488.40476 570.3069 L 483.20508 570.3069 L 483.20508 560.88422 L 488.40476 560.88422 L 488.40476 551.06208 L 483.20508 551.06208 L 483.20508 546.64012 L 470.27512 546.64012 L 470.27512 541.43992 L 457.14517 541.43992 L 457.14517 546.64012 L 444.4152 546.64012 L 444.4152 541.63991 L 450.24585 541.63991 L 464.56901 527.31779 L 462.36088 521.98788 L 462.36088 527.59012 L 447.89199 527.59012 L 447.89199 522.38992 L 433.02417 522.38992 L 433.02417 527.59012 L 418.35478 527.59012 L 418.35478 541.63991 L 429.65796 541.63991 L 429.65796 546.64012 L 418.3031 546.64012 z M 434.52278 557.67924 L 439.12302 555.72019 L 443.67778 566.42186 L 439.07909 568.37988 L 434.52278 557.67924 z M 443.78992 579.45001 L 448.39119 577.49095 L 452.94595 588.19314 L 448.34623 590.1522 L 443.78992 579.45001 z M 453.05808 601.22181 L 457.65884 599.26275 L 462.21308 609.96494 L 457.61388 611.92296 L 453.05808 601.22181 z "
     transform="rotate(90,649.95157,450)"
     style="fill:none;stroke:#000000;stroke-opacity:1;vector-effect:non-scaling-stroke;-inkscape-stroke:hairline;stroke-width:0.26458333;stroke-dasharray:none" />
  <path
     id="polyline9"
     d="M 488.40476 604.17925 L 691.80475 604.17976 L 691.80475 601.76596 L 686.60507 601.76596 L 686.60507 590.76715 L 691.80475 590.76715 L 691.80475 579.36888 L 686.60507 579.36888 L 686.60507 568.3711 L 691.80475 568.3711 L 691.80475 556.97179 L 686.60507 556.97179 L 686.60507 545.97401 L 691.80475 545.97401 L 691.80475 534.57523 L 686.60507 534.57523 L 686.60507 523.37694 L 493.60496 523.37591 L 493.60496 534.57523 L 488.40476 534.57523 L 488.40476 545.97298 L 493.60496 545.97298 L 493.60496 556.97179 L 488.40476 556.97179 L 488.40476 568.37006 L 493.60496 568.37006 L 493.60496 579.36888 L 488.40476 579.36888 L 488.40476 590.76715 L 493.60496 590.76715 L 493.60496 601.76596 L 488.40476 601.76596 L 488.40476 604.17925 z M 504.50817 598.06076 L 506.13805 595.23819 L 509.3978 595.23819 L 511.02716 598.06076 L 509.3978 600.88384 L 506.13805 600.88384 L 504.50817 598.06076 z M 504.50817 582.21521 L 506.13805 579.39213 L 509.3978 579.39213 L 511.02716 582.21521 L 509.3978 585.03778 L 506.13805 585.03778 L 504.50817 582.21521 z M 504.50817 566.36915 L 506.13805 563.54607 L 509.3978 563.54607 L 511.02716 566.36915 L 509.3978 569.19224 L 506.13805 569.19224 L 504.50817 566.36915 z M 504.50817 550.52412 L 506.13805 547.70104 L 509.3978 547.70104 L 511.02716 550.52412 L 509.3978 553.34617 L 506.13805 553.34617 L 504.50817 550.52412 z M 518.23085 590.13824 L 519.86124 587.31516 L 523.12099 587.31516 L 524.74983 590.13824 L 523.12099 592.96081 L 519.86124 592.96081 L 518.23085 590.13824 z M 518.23085 574.29218 L 519.86124 571.4691 L 523.12099 571.4691 L 524.74983 574.29218 L 523.12099 577.11475 L 519.86124 577.11475 L 518.23085 574.29218 z M 518.23085 558.44612 L 519.86124 555.62407 L 523.12099 555.62407 L 524.74983 558.44612 L 523.12099 561.26921 L 519.86124 561.26921 L 518.23085 558.44612 z M 518.23085 542.60109 L 519.86124 539.77801 L 523.12099 539.77801 L 524.74983 542.60109 L 523.12099 545.42418 L 519.86124 545.42418 L 518.23085 542.60109 z M 531.95404 598.06076 L 533.58289 595.23819 L 536.84315 595.23819 L 538.47303 598.06076 L 536.84315 600.88384 L 533.58289 600.88384 L 531.95404 598.06076 z M 531.95404 582.21521 L 533.58289 579.39213 L 536.84315 579.39213 L 538.47303 582.21521 L 536.84315 585.03778 L 533.58289 585.03778 L 531.95404 582.21521 z M 531.95404 566.36915 L 533.58289 563.54607 L 536.84315 563.5471 L 538.47303 566.36915 L 536.84315 569.19224 L 533.58289 569.19224 L 531.95404 566.36915 z M 531.95404 550.52412 L 533.58289 547.70104 L 536.84315 547.70104 L 538.47303 550.52412 L 536.84315 553.34617 L 533.58289 553.34617 L 531.95404 550.52412 z M 545.67724 590.13824 L 547.30608 587.31516 L 550.56583 587.31516 L 552.19622 590.13824 L 550.56583 592.96081 L 547.30608 592.96081 L 545.67724 590.13824 z M 545.67724 574.29218 L 547.30608 571.4691 L 550.56583 571.4691 L 552.19622 574.29218 L 550.56583 577.11475 L 547.30608 577.11475 L 545.67724 574.29218 z M 545.67724 558.44716 L 547.30608 555.62407 L 550.56583 555.62407 L 552.19622 558.44716 L 550.56583 561.26921 L 547.30608 561.26921 L 545.67724 558.44716 z M 545.67724 542.60109 L 547.30608 539.77801 L 550.56583 539.77801 L 552.19622 542.60109 L 550.56583 545.42418 L 547.30608 545.42418 L 545.67724 542.60109 z M 559.39888 598.06076 L 561.02876 595.23819 L 564.28902 595.23819 L 565.91786 598.06076 L 564.28902 600.88384 L 561.02876 600.88384 L 559.39888 598.06076 z M 559.39888 582.21521 L 561.02876 579.39213 L 564.28902 579.39213 L 565.91786 582.21521 L 564.28902 585.03778 L 561.02876 585.03778 L 559.39888 582.21521 z M 559.39888 566.36915 L 561.02876 563.5471 L 564.28902 563.5471 L 565.91786 566.36915 L 564.28902 569.19224 L 561.02876 569.19224 L 559.39888 566.36915 z M 559.39888 550.52412 L 561.02876 547.70104 L 564.28902 547.70104 L 565.91786 550.52412 L 564.28902 553.34721 L 561.02876 553.34721 L 559.39888 550.52412 z M 573.12207 590.13824 L 574.75195 587.31516 L 578.01221 587.31516 L 579.64106 590.13824 L 578.01221 592.96081 L 574.75195 592.96081 L 573.12207 590.13824 z M 573.12207 574.29218 L 574.75195 571.4691 L 578.01221 571.4691 L 579.64106 574.29218 L 578.01221 577.11475 L 574.75195 577.11475 L 573.12207 574.29218 z M 573.12207 558.44716 L 574.75195 555.62407 L 578.01221 555.62407 L 579.64106 558.44716 L 578.01221 561.26921 L 574.75195 561.26921 L 573.12207 558.44716 z M 573.12207 542.60109 L 574.75195 539.77801 L 578.01221 539.77801 L 579.64106 542.60109 L 578.01221 545.42418 L 574.75195 545.42418 L 573.12207 542.60109 z M 586.84475 598.06076 L 588.47411 595.23819 L 591.73386 595.23819 L 593.36425 598.06076 L 591.73386 600.88384 L 588.47411 600.88384 L 586.84475 598.06076 z M 586.84475 582.21521 L 588.47411 579.39213 L 591.73386 579.39213 L 593.36425 582.21521 L 591.73386 585.03778 L 588.47411 585.03778 L 586.84475 582.21521 z M 586.84475 566.36915 L 588.47514 563.5471 L 591.73489 563.5471 L 593.36425 566.36915 L 591.73489 569.19224 L 588.47514 569.19224 L 586.84475 566.36915 z M 586.84475 550.52412 L 588.47514 547.70104 L 591.73489 547.70104 L 593.36425 550.52412 L 591.73489 553.34721 L 588.47514 553.34721 L 586.84475 550.52412 z M 600.56794 590.13824 L 602.19678 587.31516 L 605.45705 587.31516 L 607.08693 590.13824 L 605.45705 592.96081 L 602.19678 592.96081 L 600.56794 590.13824 z M 600.56794 574.29218 L 602.19678 571.4691 L 605.45705 571.4691 L 607.08693 574.29218 L 605.45705 577.11475 L 602.19678 577.11475 L 600.56794 574.29218 z M 600.56794 558.44716 L 602.19678 555.62407 L 605.45705 555.62407 L 607.08693 558.44716 L 605.45705 561.26921 L 602.19678 561.26921 L 600.56794 558.44716 z M 600.56794 542.60109 L 602.19678 539.77801 L 605.45705 539.77801 L 607.08693 542.60109 L 605.45705 545.42418 L 602.19678 545.42418 L 600.56794 542.60109 z M 614.29114 598.06076 L 615.91998 595.23819 L 619.18024 595.23819 L 620.81012 598.06076 L 619.18024 600.88384 L 615.91998 600.88384 L 614.29114 598.06076 z M 614.29114 582.21521 L 615.91998 579.39213 L 619.18024 579.39213 L 620.81012 582.21521 L 619.18024 585.03778 L 615.91998 585.03778 L 614.29114 582.21521 z M 614.29114 566.36915 L 615.91998 563.5471 L 619.18024 563.5471 L 620.81012 566.36915 L 619.18024 569.19224 L 615.91998 569.19224 L 614.29114 566.36915 z M 614.29114 550.52412 L 615.91998 547.70104 L 619.18024 547.70104 L 620.81012 550.52412 L 619.18024 553.34721 L 615.91998 553.34721 L 614.29114 550.52412 z M 628.01278 590.13824 L 629.64317 587.31516 L 632.90292 587.31516 L 634.53176 590.13824 L 632.90292 592.96081 L 629.64317 592.96081 L 628.01278 590.13824 z M 628.01278 574.29218 L 629.64317 571.4691 L 632.90292 571.4691 L 634.53176 574.29218 L 632.90292 577.11475 L 629.64317 577.11475 L 628.01278 574.29218 z M 628.01278 558.44716 L 629.64317 555.62407 L 632.90292 555.62407 L 634.53176 558.44716 L 632.90292 561.26921 L 629.64317 561.26921 L 628.01278 558.44716 z M 628.01278 542.60109 L 629.64317 539.77801 L 632.90292 539.77801 L 634.53176 542.60109 L 632.90292 545.42418 L 629.64317 545.42418 L 628.01278 542.60109 z M 641.73597 598.06076 L 643.36585 595.23819 L 646.62611 595.23819 L 648.25496 598.06076 L 646.62611 600.88384 L 643.36585 600.88384 L 641.73597 598.06076 z M 641.73597 582.21521 L 643.36585 579.39213 L 646.62611 579.39213 L 648.25496 582.21521 L 646.62611 585.03778 L 643.36585 585.03778 L 641.73597 582.21521 z M 641.73597 566.36915 L 643.36585 563.5471 L 646.62611 563.5471 L 648.25496 566.36915 L 646.62611 569.19224 L 643.36585 569.19224 L 641.73597 566.36915 z M 641.73597 550.52412 L 643.36585 547.70104 L 646.62611 547.70104 L 648.25496 550.52412 L 646.62611 553.34721 L 643.36585 553.34721 L 641.73597 550.52412 z M 655.45917 590.13824 L 657.08801 587.31516 L 660.34776 587.31516 L 661.97815 590.13824 L 660.34776 592.96081 L 657.08801 592.96081 L 655.45917 590.13824 z M 655.45917 574.29218 L 657.08801 571.4691 L 660.34776 571.4691 L 661.97815 574.29218 L 660.34776 577.11475 L 657.08801 577.11475 L 655.45917 574.29218 z M 655.45917 558.44716 L 657.08801 555.62407 L 660.34776 555.62407 L 661.97815 558.44716 L 660.34776 561.26921 L 657.08801 561.26921 L 655.45917 558.44716 z M 655.45917 542.60109 L 657.08801 539.77801 L 660.34776 539.77801 L 661.97815 542.60109 L 660.34776 545.42418 L 657.08801 545.42418 L 655.45917 542.60109 z M 669.18184 598.06076 L 670.8112 595.23819 L 674.07095 595.23819 L 675.70083 598.06076 L 674.07095 600.88384 L 670.8112 600.88384 L 669.18184 598.06076 z M 669.18184 582.21521 L 670.8112 579.39213 L 674.07095 579.39213 L 675.70083 582.21521 L 674.07095 585.03778 L 670.8112 585.03778 L 669.18184 582.21521 z M 669.18184 566.36915 L 670.8112 563.5471 L 674.07095 563.5471 L 675.70083 566.36915 L 674.07095 569.19224 L 670.8112 569.19224 L 669.18184 566.36915 z M 669.18184 550.52412 L 670.8112 547.70104 L 674.07095 547.70104 L 675.70083 550.52412 L 674.07095 553.34721 L 670.8112 553.34721 L 669.18184 550.52412 z "
     transform="rotate(90,649.95157,450)"
     style="fill:none;stroke:#000000;stroke-opacity:1;vector-effect:non-scaling-stroke;-inkscape-stroke:hairline;stroke-width:0.26458333;stroke-dasharray:none" />
  <polyline
     z="0"
     points="516.267,604.18 516.267,609.38 532.497,609.38 532.497,604.18 549.128,604.18 549.128,609.38 565.359,609.38 565.359,604.18 581.99,604.18 581.99,609.38 598.22,609.38 598.22,604.18 614.851,604.18 614.851,609.38 631.082,609.38 631.082,604.18 647.713,604.18 647.713,609.38 663.943,609.38 663.943,604.18 680.574,604.18 680.574,609.38 691.805,609.38 691.805,623.43 680.574,623.43 680.574,628.63 663.943,628.63 663.943,623.43 647.713,623.43 647.713,628.63 631.082,628.63 631.082,623.43 614.851,623.43 614.851,628.63 598.22,628.63 598.22,623.43 581.99,623.43 581.99,628.63 565.359,628.63 565.359,623.43 549.128,623.43 549.128,628.63 532.497,628.63 532.497,623.43 516.267,623.43 516.267,628.63 499.636,628.63 499.636,623.43 488.405,623.43 488.405,609.38 499.636,609.38 499.636,604.18 516.267,604.18"
     fill="none"
     stroke="#000000"
     stroke-width="0.1mm"
     id="polyline62"
     transform="rotate(90,649.95157,450)"
     style="fill:none;stroke:#000000;stroke-opacity:1;vector-effect:non-scaling-stroke;-inkscape-stroke:hairline;stroke-width:0.26458333;stroke-dasharray:none" />
  <path
     id="polyline63"
     d="M 348.20195 510.15708 L 353.40215 510.15708 L 353.40215 521.98788 L 556.80214 521.98788 L 556.80214 510.15708 L 562.00182 510.15708 L 562.00182 498.12577 L 556.80214 498.12577 L 556.80214 486.49496 L 562.00182 486.49496 L 562.00182 474.4652 L 556.80214 474.4652 L 556.80214 462.83387 L 562.00182 462.83387 L 562.00182 450.80308 L 556.80214 450.80308 L 556.80214 438.97176 L 353.40215 438.97176 L 353.40215 450.80308 L 348.20195 450.80308 L 348.20195 462.83387 L 353.40215 462.83387 L 353.40215 474.4652 L 348.20195 474.4652 L 348.20195 486.49496 L 353.40215 486.49496 L 353.40215 498.12577 L 348.20195 498.12577 L 348.20195 510.15708 z M 369.50608 511.44176 L 371.13595 508.62022 L 374.39519 508.62022 L 376.02506 511.44176 L 374.39519 514.26484 L 371.13595 514.26484 L 369.50608 511.44176 z M 369.50608 495.59724 L 371.13595 492.77416 L 374.39519 492.77416 L 376.02506 495.59724 L 374.39519 498.41981 L 371.13595 498.41981 L 369.50608 495.59724 z M 369.50608 479.75118 L 371.13595 476.9281 L 374.39519 476.9281 L 376.02506 479.75118 L 374.39519 482.57375 L 371.13595 482.57375 L 369.50608 479.75118 z M 369.50608 463.90512 L 371.13595 461.08307 L 374.39519 461.08307 L 376.02506 463.90512 L 374.39519 466.72821 L 371.13595 466.72821 L 369.50608 463.90512 z M 383.22876 503.51976 L 384.85915 500.69719 L 388.11786 500.69719 L 389.74825 503.51976 L 388.11786 506.34181 L 384.85915 506.34181 L 383.22876 503.51976 z M 383.22876 487.67421 L 384.85915 484.85113 L 388.11786 484.85113 L 389.74825 487.67421 L 388.11786 490.49678 L 384.85915 490.49678 L 383.22876 487.67421 z M 383.22876 471.82815 L 384.85915 469.00507 L 388.11786 469.00507 L 389.74825 471.82815 L 388.11786 474.65124 L 384.85915 474.65124 L 383.22876 471.82815 z M 383.22876 455.98313 L 384.85915 453.16004 L 388.11786 453.16004 L 389.74825 455.98313 L 388.11786 458.80518 L 384.85915 458.80518 L 383.22876 455.98313 z M 396.95195 511.44176 L 398.58079 508.62022 L 401.84002 508.62022 L 403.47093 511.44176 L 401.84002 514.26484 L 398.58079 514.26484 L 396.95195 511.44176 z M 396.95195 495.59724 L 398.58079 492.77416 L 401.84002 492.77416 L 403.47093 495.59724 L 401.84002 498.41981 L 398.58079 498.41981 L 396.95195 495.59724 z M 396.95195 479.75118 L 398.58079 476.9281 L 401.84002 476.9281 L 403.47093 479.75118 L 401.84002 482.57375 L 398.58079 482.57375 L 396.95195 479.75118 z M 396.95195 463.90512 L 398.58079 461.08307 L 401.84002 461.08307 L 403.47093 463.90512 L 401.84002 466.72821 L 398.58079 466.72821 L 396.95195 463.90512 z M 410.67514 503.51976 L 412.30398 500.69719 L 415.56322 500.69719 L 417.19412 503.51976 L 415.56322 506.34181 L 412.30398 506.34181 L 410.67514 503.51976 z M 410.67514 487.67421 L 412.30398 484.85113 L 415.56322 484.85113 L 417.19412 487.67421 L 415.56322 490.49678 L 412.30398 490.49678 L 410.67514 487.67421 z M 410.67514 471.82815 L 412.30398 469.00507 L 415.56322 469.00507 L 417.19412 471.82815 L 415.56322 474.65124 L 412.30398 474.65124 L 410.67514 471.82815 z M 410.67514 455.98313 L 412.30398 453.16004 L 415.56322 453.16004 L 417.19412 455.98313 L 415.56322 458.80518 L 412.30398 458.80518 L 410.67514 455.98313 z M 424.39678 511.44176 L 426.02718 508.62022 L 429.28589 508.62022 L 430.91577 511.44176 L 429.28589 514.26484 L 426.02718 514.26484 L 424.39678 511.44176 z M 424.39678 495.59724 L 426.02718 492.77416 L 429.28589 492.77416 L 430.91577 495.59724 L 429.28589 498.41981 L 426.02718 498.41981 L 424.39678 495.59724 z M 424.39678 479.75118 L 426.02718 476.9281 L 429.28589 476.9281 L 430.91577 479.75118 L 429.28589 482.57375 L 426.02718 482.57375 L 424.39678 479.75118 z M 424.39678 463.90512 L 426.02718 461.08307 L 429.28589 461.08307 L 430.91577 463.90512 L 429.28589 466.72821 L 426.02718 466.72821 L 424.39678 463.90512 z M 438.11998 503.51976 L 439.74985 500.69719 L 443.00909 500.69719 L 444.63896 503.51976 L 443.00909 506.34181 L 439.74985 506.34181 L 438.11998 503.51976 z M 438.11998 487.67421 L 439.74985 484.85113 L 443.00909 484.85113 L 444.63896 487.67421 L 443.00909 490.49678 L 439.74985 490.49678 L 438.11998 487.67421 z M 438.11998 471.82815 L 439.74985 469.00507 L 443.00909 469.00507 L 444.63896 471.82815 L 443.00909 474.65124 L 439.74985 474.65124 L 438.11998 471.82815 z M 438.11998 455.98313 L 439.74985 453.16004 L 443.00909 453.16004 L 444.63896 455.98313 L 443.00909 458.80518 L 439.74985 458.80518 L 438.11998 455.98313 z M 451.84317 511.44176 L 453.47305 508.62022 L 456.73176 508.62022 L 458.36215 511.44176 L 456.73176 514.26484 L 453.47305 514.26484 L 451.84317 511.44176 z M 451.84317 495.59724 L 453.47305 492.77416 L 456.73176 492.77416 L 458.36215 495.59724 L 456.73176 498.41981 L 453.47305 498.41981 L 451.84317 495.59724 z M 451.84317 479.75118 L 453.47305 476.9281 L 456.73176 476.9281 L 458.36215 479.75118 L 456.73176 482.57375 L 453.47305 482.57375 L 451.84317 479.75118 z M 451.84317 463.90512 L 453.47305 461.08307 L 456.73176 461.08307 L 458.36215 463.90512 L 456.73176 466.72821 L 453.47305 466.72821 L 451.84317 463.90512 z M 465.56585 503.51976 L 467.19521 500.69719 L 470.45392 500.69719 L 472.08483 503.51976 L 470.45392 506.34181 L 467.19521 506.34181 L 465.56585 503.51976 z M 465.56585 487.67421 L 467.19521 484.85113 L 470.45392 484.85113 L 472.08483 487.67421 L 470.45392 490.49678 L 467.19521 490.49678 L 465.56585 487.67421 z M 465.56585 471.82815 L 467.19521 469.00507 L 470.45392 469.00507 L 472.08483 471.82815 L 470.45392 474.65124 L 467.19521 474.65124 L 465.56585 471.82815 z M 465.56585 455.98313 L 467.19521 453.16004 L 470.45392 453.16004 L 472.08483 455.98313 L 470.45392 458.80518 L 467.19521 458.80518 L 465.56585 455.98313 z M 479.28904 511.44176 L 480.91788 508.62022 L 484.17712 508.62022 L 485.80802 511.44176 L 484.17712 514.26484 L 480.91788 514.26484 L 479.28904 511.44176 z M 479.28904 495.59724 L 480.91788 492.77416 L 484.17712 492.77416 L 485.80802 495.59724 L 484.17712 498.41981 L 480.91788 498.41981 L 479.28904 495.59724 z M 479.28904 479.75118 L 480.91788 476.9281 L 484.17712 476.9281 L 485.80802 479.75118 L 484.17712 482.57375 L 480.91788 482.57375 L 479.28904 479.75118 z M 479.28904 463.90512 L 480.91788 461.08307 L 484.17712 461.08307 L 485.80802 463.90512 L 484.17712 466.72821 L 480.91788 466.72821 L 479.28904 463.90512 z M 493.0112 503.51976 L 494.64108 500.69719 L 497.89979 500.69719 L 499.53018 503.51976 L 497.89979 506.34181 L 494.64108 506.34181 L 493.0112 503.51976 z M 493.0112 487.67421 L 494.64108 484.85113 L 497.89979 484.85113 L 499.53018 487.67421 L 497.89979 490.49678 L 494.64108 490.49678 L 493.0112 487.67421 z M 493.0112 471.82815 L 494.64108 469.00507 L 497.89979 469.00507 L 499.53018 471.82815 L 497.89979 474.65124 L 494.64108 474.65124 L 493.0112 471.82815 z M 493.0112 455.98313 L 494.64108 453.16004 L 497.89979 453.16004 L 499.53018 455.98313 L 497.89979 458.80518 L 494.64108 458.80518 L 493.0112 455.98313 z M 506.73388 511.44176 L 508.36375 508.62022 L 511.62299 508.62022 L 513.25286 511.44176 L 511.62299 514.26484 L 508.36375 514.26484 L 506.73388 511.44176 z M 506.73388 495.59724 L 508.36375 492.77416 L 511.62299 492.77416 L 513.25286 495.59724 L 511.62299 498.41981 L 508.36375 498.41981 L 506.73388 495.59724 z M 506.73388 479.75118 L 508.36375 476.9281 L 511.62299 476.9281 L 513.25286 479.75118 L 511.62299 482.57375 L 508.36375 482.57375 L 506.73388 479.75118 z M 506.73388 463.90512 L 508.36375 461.08307 L 511.62299 461.08307 L 513.25286 463.90512 L 511.62299 466.72821 L 508.36375 466.72821 L 506.73388 463.90512 z M 520.45707 503.51976 L 522.08591 500.69719 L 525.34515 500.69719 L 526.97605 503.51976 L 525.34515 506.34181 L 522.08591 506.34181 L 520.45707 503.51976 z M 520.45707 487.67421 L 522.08591 484.85113 L 525.34515 484.85113 L 526.97605 487.67421 L 525.34515 490.49678 L 522.08591 490.49678 L 520.45707 487.67421 z M 520.45707 471.82815 L 522.08591 469.00507 L 525.34515 469.00507 L 526.97605 471.82815 L 525.34515 474.65124 L 522.08591 474.65124 L 520.45707 471.82815 z M 520.45707 455.98313 L 522.08591 453.16004 L 525.34515 453.16004 L 526.97605 455.98313 L 525.34515 458.80518 L 522.08591 458.80518 L 520.45707 455.98313 z M 534.17975 511.44176 L 535.80911 508.62022 L 539.06782 508.62022 L 540.69925 511.44176 L 539.06782 514.26484 L 535.80911 514.26484 L 534.17975 511.44176 z M 534.17975 495.59724 L 535.80911 492.77416 L 539.06782 492.77416 L 540.69925 495.59724 L 539.06782 498.41981 L 535.80911 498.41981 L 534.17975 495.59724 z M 534.17975 479.75118 L 535.80911 476.9281 L 539.06782 476.9281 L 540.69925 479.75118 L 539.06782 482.57375 L 535.80911 482.57375 L 534.17975 479.75118 z M 534.17975 463.90512 L 535.80911 461.08307 L 539.06782 461.08307 L 540.69925 463.90512 L 539.06782 466.72821 L 535.80911 466.72821 L 534.17975 463.90512 z "
     transform="rotate(90,649.95157,450)"
     style="fill:none;stroke:#000000;stroke-opacity:1;vector-effect:non-scaling-stroke;-inkscape-stroke:hairline;stroke-width:0.26458333;stroke-dasharray:none" />
  <polyline
     z="0"
     points="353.402,438.972 353.402,427.458 348.202,427.458 348.202,415.743 353.402,415.743 353.402,404.428 348.202,404.428 348.202,392.714 353.402,392.714 353.402,381.399 348.202,381.399 348.202,369.684 353.402,369.684 353.402,358.17 546.402,358.17 546.402,369.684 551.602,369.684 551.602,381.399 546.402,381.399 546.402,392.714 551.602,392.714 551.602,404.428 546.402,404.428 546.402,415.743 551.602,415.743 551.602,427.458 546.402,427.458 546.402,438.972 353.402,438.972"
     fill="none"
     stroke="#000000"
     stroke-width="0.1mm"
     id="polyline116"
     transform="rotate(90,649.95157,450)"
     style="fill:none;stroke:#000000;stroke-opacity:1;vector-effect:non-scaling-stroke;-inkscape-stroke:hairline;stroke-width:0.26458333;stroke-dasharray:none" />
  <polyline
     z="0"
     points="348.202,358.17 348.202,348.348 353.402,348.348 353.402,338.926 348.202,338.926 348.202,329.103 353.402,329.103 353.402,319.681 348.202,319.681 348.202,309.859 353.402,309.859 353.402,300.437 348.202,300.437 348.202,290.614 353.402,290.614 353.402,281.192 348.202,281.192 348.202,271.37 364.833,271.37 364.833,276.57 381.064,276.57 381.064,271.37 397.694,271.37 397.694,276.57 413.925,276.57 413.925,271.37 430.556,271.37 430.556,276.57 446.787,276.57 446.787,271.37 463.417,271.37 463.417,276.57 479.648,276.57 479.648,271.37 496.279,271.37 496.279,276.57 512.51,276.57 512.51,271.37 529.14,271.37 529.14,276.57 545.371,276.57 545.371,271.37 562.002,271.37 562.002,281.192 556.802,281.192 556.802,290.614 562.002,290.614 562.002,300.437 556.802,300.437 556.802,309.859 562.002,309.859 562.002,319.681 556.802,319.681 556.802,329.103 562.002,329.103 562.002,338.926 556.802,338.926 556.802,348.348 562.002,348.348 562.002,358.17 545.371,358.17 545.371,352.97 529.14,352.97 529.14,358.17 512.51,358.17 512.51,352.97 496.279,352.97 496.279,358.17 479.648,358.17 479.648,352.97 463.417,352.97 463.417,358.17 446.787,358.17 446.787,352.97 430.556,352.97 430.556,358.17 413.925,358.17 413.925,352.97 397.694,352.97 397.694,358.17 381.064,358.17 381.064,352.97 364.833,352.97 364.833,358.17 348.202,358.17"
     fill="none"
     stroke="#000000"
     stroke-width="0.1mm"
     id="polyline117"
     transform="rotate(90,649.95157,450)"
     style="fill:none;stroke:#000000;stroke-opacity:1;vector-effect:non-scaling-stroke;-inkscape-stroke:hairline;stroke-width:0.26458333;stroke-dasharray:none" />
  <polyline
     z="0"
     points="551.602,366.692 561.282,362.572 597.795,362.572 597.795,438.972 582.37,438.972 577.919,428.515 582.887,426.4 583.63,428.145 588.231,426.188 583.799,415.777 579.014,417.813 578.395,416.359 573.612,418.395 569.147,407.908 574.115,405.792 574.611,406.956 579.211,404.998 574.78,394.587 569.996,396.624 569.624,395.751 564.839,397.788 560.374,387.3 565.343,385.184 565.591,385.766 570.191,383.809 565.759,373.398 560.976,375.434 560.852,375.143 556.067,377.18 551.602,366.692"
     fill="none"
     stroke="#000000"
     stroke-width="0.1mm"
     id="polyline118"
     transform="rotate(90,649.95157,450)"
     style="fill:none;stroke:#000000;stroke-opacity:1;vector-effect:non-scaling-stroke;-inkscape-stroke:hairline;stroke-width:0.26458333;stroke-dasharray:none" />
  <polyline
     z="0"
     points="597.795,391.076 614.226,391.076 614.226,385.876 630.857,385.876 630.857,391.076 647.087,391.076 647.087,385.876 663.718,385.876 663.718,391.076 679.949,391.076 679.949,385.876 696.58,385.876 696.58,391.076 712.81,391.076 712.81,385.876 729.441,385.876 729.441,391.076 745.672,391.076 745.672,385.876 762.303,385.876 762.303,391.076 778.533,391.076 778.533,385.876 795.164,385.876 795.164,391.076 811.595,391.076 811.595,404.206 806.395,404.206 806.395,416.936 811.595,416.936 811.595,430.066 806.395,430.066 806.395,438.972 602.995,438.972 602.995,430.066 597.795,430.066 597.795,416.936 602.995,416.936 602.995,404.206 597.795,404.206 597.795,391.076"
     fill="none"
     stroke="#000000"
     stroke-width="0.1mm"
     id="polyline119"
     transform="rotate(90,649.95157,450)"
     style="fill:none;stroke:#000000;stroke-opacity:1;vector-effect:non-scaling-stroke;-inkscape-stroke:hairline;stroke-width:0.26458333;stroke-dasharray:none" />
  <polyline
     z="0"
     points="595.064,486.588 595.064,491.788 611.294,491.788 611.294,486.588 627.925,486.588 627.925,491.788 644.156,491.788 644.156,486.588 660.787,486.588 660.787,491.788 677.017,491.788 677.017,486.588 693.648,486.588 693.648,491.788 709.879,491.788 709.879,486.588 726.51,486.588 726.51,491.788 742.74,491.788 742.74,486.588 759.371,486.588 759.371,491.788 775.802,491.788 775.802,501.988 770.602,501.988 770.602,511.788 775.802,511.788 775.802,521.988 562.002,521.988 562.002,511.788 567.202,511.788 567.202,501.988 562.002,501.988 562.002,491.788 578.433,491.788 578.433,486.588 595.064,486.588"
     fill="none"
     stroke="#000000"
     stroke-width="0.1mm"
     id="polyline120"
     transform="rotate(90,649.95157,450)"
     style="fill:none;stroke:#000000;stroke-opacity:1;vector-effect:non-scaling-stroke;-inkscape-stroke:hairline;stroke-width:0.26458333;stroke-dasharray:none" />
  <polyline
     z="0"
     points="691.805,527.78 728.318,527.78 737.998,531.901 733.534,542.389 728.748,540.352 728.624,540.643 723.841,538.607 719.409,549.018 724.009,550.975 724.257,550.393 729.226,552.509 724.762,562.997 719.976,560.96 719.604,561.833 714.821,559.796 710.389,570.207 714.989,572.165 715.485,571.001 720.453,573.117 715.989,583.604 711.205,581.568 710.586,583.022 705.801,580.986 701.369,591.397 705.97,593.354 706.713,591.609 711.681,593.724 707.23,604.18 691.805,604.18 691.805,527.78"
     fill="none"
     stroke="#000000"
     stroke-width="0.1mm"
     id="polyline121"
     transform="rotate(90,649.95157,450)"
     style="fill:none;stroke:#000000;stroke-opacity:1;vector-effect:non-scaling-stroke;-inkscape-stroke:hairline;stroke-width:0.26458333;stroke-dasharray:none" />
  <polyline
     z="0"
     points="737.998,559.974 951.798,559.974 951.798,574.843 946.598,574.843 946.598,589.311 951.798,589.311 951.798,604.18 935.167,604.18 935.167,598.98 918.936,598.98 918.936,604.18 902.306,604.18 902.306,598.98 886.075,598.98 886.075,604.18 869.444,604.18 869.444,598.98 853.213,598.98 853.213,604.18 836.583,604.18 836.583,598.98 820.352,598.98 820.352,604.18 803.721,604.18 803.721,598.98 787.49,598.98 787.49,604.18 770.86,604.18 770.86,598.98 754.629,598.98 754.629,604.18 737.998,604.18 737.998,589.311 743.198,589.311 743.198,574.843 737.998,574.843 737.998,559.974"
     fill="none"
     stroke="#000000"
     stroke-width="0.1mm"
     id="polyline122"
     transform="rotate(90,649.95157,450)"
     style="fill:none;stroke:#000000;stroke-opacity:1;vector-effect:non-scaling-stroke;-inkscape-stroke:hairline;stroke-width:0.26458333;stroke-dasharray:none" />
  <polyline
     z="0"
     points="741.297,623.43 741.297,628.63 724.667,628.63 724.667,623.43 708.436,623.43 708.436,628.63 691.805,628.63 691.805,617.126 905.605,617.126 905.605,628.63 888.974,628.63 888.974,623.43 872.743,623.43 872.743,628.63 856.113,628.63 856.113,623.43 839.882,623.43 839.882,628.63 823.251,628.63 823.251,623.43 807.02,623.43 807.02,628.63 790.39,628.63 790.39,623.43 774.159,623.43 774.159,628.63 757.528,628.63 757.528,623.43 741.297,623.43"
     fill="none"
     stroke="#000000"
     stroke-width="0.1mm"
     id="polyline123"
     transform="rotate(90,649.95157,450)"
     style="fill:none;stroke:#000000;stroke-opacity:1;vector-effect:non-scaling-stroke;-inkscape-stroke:hairline;stroke-width:0.26458333;stroke-dasharray:none" />
</svg>
