<?xml version="1.0" standalone="no"?>
<!DOCTYPE svg PUBLIC "-//W3C//DTD SVG 1.1//EN" "http://www.w3.org/Graphics/SVG/1.1/DTD/svg11.dtd">
<svg width="1300mm" height="900mm" viewBox="0 0 1300 900" xmlns="http://www.w3.org/2000/svg" version="1.1">
<polyline z="0" points="415.974,642.526 415.974,628.476 427.306,628.476 427.306,623.276 444.038,623.276 444.038,628.476 460.369,628.476 460.369,623.276 477.101,623.276 477.101,628.476 493.433,628.476 493.433,623.276 510.165,623.276 510.165,628.476 526.497,628.476 526.497,623.276 543.229,623.276 543.229,628.476 559.56,628.476 559.56,623.276 576.292,623.276 576.292,628.476 587.624,628.476 587.624,642.526 576.292,642.526 576.292,647.726 559.56,647.726 559.56,642.526 543.229,642.526 543.229,647.726 526.497,647.726 526.497,642.526 510.165,642.526 510.165,647.726 493.433,647.726 493.433,642.526 477.101,642.526 477.101,647.726 460.369,647.726 460.369,642.526 444.038,642.526 444.038,647.726 427.306,647.726 427.306,642.526 415.974,642.526" fill="none" stroke="black" stroke-width="0.1mm" />
<polyline z="0" points="450.894,623.276 415.974,560.44 426.023,560.44 426.023,555.44 416.044,555.44 416.044,541.39 430.713,541.39 430.713,536.19 445.581,536.19 445.581,541.39 460.05,541.39 460.05,535.787 462.258,541.117 448.135,555.24 456.158,555.24 456.158,560.44 465.937,560.44 465.937,555.24 476.115,555.24 476.115,560.44 480.894,560.44 480.894,572.91 486.094,572.91 486.094,585.58 480.894,585.58 480.894,597.85 486.094,597.85 486.094,610.52 480.894,610.52 480.894,617.79 470.894,617.79 470.894,622.99 460.694,622.99 460.694,617.79 450.894,617.79 450.894,623.276" fill="none" stroke="black" stroke-width="0.1mm" />
<polyline z="0" points="445.98,560.44 436.201,560.44 436.201,555.44 445.98,555.44 445.98,560.44" fill="none" stroke="black" stroke-width="0.1mm" />
<polyline z="0" points="437.086,566.314 441.526,574.304 437.155,576.733 432.715,568.743 437.086,566.314" fill="none" stroke="black" stroke-width="0.1mm" />
<polyline z="0" points="446.16,582.643 450.6,590.632 446.23,593.061 441.79,585.072 446.16,582.643" fill="none" stroke="black" stroke-width="0.1mm" />
<polyline z="0" points="455.234,598.971 459.674,606.961 455.304,609.39 450.864,601.4 455.234,598.971" fill="none" stroke="black" stroke-width="0.1mm" />
<polyline z="0" points="486.094,596.494 486.094,587.366 491.294,587.366 491.294,578.639 486.094,578.639 486.094,569.511 491.294,569.511 491.294,560.584 652.544,560.584 652.544,569.511 657.744,569.511 657.744,578.639 652.544,578.639 652.544,587.366 657.744,587.366 657.744,596.494 652.544,596.494 652.544,605.221 657.744,605.221 657.744,614.349 652.544,614.349 652.544,623.276 491.294,623.276 491.294,614.349 486.094,614.349 486.094,605.221 491.294,605.221 491.294,596.494 486.094,596.494" fill="none" stroke="black" stroke-width="0.1mm" />
<polyline z="0" points="482.101,535.787 482.101,530.587 465.769,530.587 465.769,535.787 449.038,535.787 449.038,530.587 432.706,530.587 432.706,535.787 415.974,535.787 415.974,523.117 421.174,523.117 421.174,510.847 415.974,510.847 415.974,498.177 421.174,498.177 421.174,485.907 415.974,485.907 415.974,473.237 432.506,473.237 432.506,468.037 449.238,468.037 449.238,473.237 465.569,473.237 465.569,468.037 482.301,468.037 482.301,473.237 498.633,473.237 498.633,468.037 515.365,468.037 515.365,473.237 531.697,473.237 531.697,468.037 548.429,468.037 548.429,473.237 564.76,473.237 564.76,468.037 581.492,468.037 581.492,473.237 598.024,473.237 598.024,485.907 592.824,485.907 592.824,498.177 598.024,498.177 598.024,510.847 592.824,510.847 592.824,523.117 598.024,523.117 598.024,535.787 581.292,535.787 581.292,530.587 564.96,530.587 564.96,535.787 548.229,535.787 548.229,530.587 531.897,530.587 531.897,535.787 515.165,535.787 515.165,530.587 498.833,530.587 498.833,535.787 482.101,535.787" fill="none" stroke="black" stroke-width="0.1mm" />
<polyline z="0" points="479.023,468.037 479.463,467.275 478.295,465.253 475.961,465.253 474.794,467.275 475.234,468.037 454.352,468.037 454.793,467.275 453.625,465.253 451.291,465.253 450.123,467.275 450.563,468.037 429.682,468.037 430.122,467.275 428.954,465.253 426.62,465.253 425.453,467.275 425.893,468.037 415.974,468.037 415.974,464.947 421.174,464.947 421.174,456.633 415.974,456.633 415.974,447.918 421.174,447.918 421.174,439.603 415.974,439.603 415.974,430.889 421.174,430.889 421.174,422.574 415.974,422.574 415.974,413.859 421.174,413.859 421.174,405.345 582.424,405.345 582.424,413.859 587.624,413.859 587.624,422.574 582.424,422.574 582.424,430.889 587.624,430.889 587.624,439.603 582.424,439.603 582.424,447.918 587.624,447.918 587.624,456.633 582.424,456.633 582.424,464.947 587.624,464.947 587.624,468.037 577.705,468.037 578.146,467.275 576.978,465.253 574.644,465.253 573.476,467.275 573.916,468.037 553.035,468.037 553.475,467.275 552.307,465.253 549.973,465.253 548.806,467.275 549.246,468.037 528.364,468.037 528.805,467.275 527.637,465.253 525.303,465.253 524.135,467.275 524.575,468.037 503.694,468.037 504.134,467.275 502.966,465.253 500.632,465.253 499.464,467.275 499.904,468.037 479.023,468.037" fill="none" stroke="black" stroke-width="0.1mm" />
<polyline z="0" points="562.308,419.444 561.14,417.422 562.308,415.401 564.642,415.401 565.81,417.422 564.642,419.444 562.308,419.444" fill="none" stroke="black" stroke-width="0.1mm" />
<polyline z="0" points="541.14,417.422 539.972,419.444 537.638,419.444 536.47,417.422 537.638,415.401 539.972,415.401 541.14,417.422" fill="none" stroke="black" stroke-width="0.1mm" />
<polyline z="0" points="516.469,417.422 515.301,419.444 512.967,419.444 511.799,417.422 512.967,415.401 515.301,415.401 516.469,417.422" fill="none" stroke="black" stroke-width="0.1mm" />
<polyline z="0" points="491.799,417.422 490.631,419.444 488.297,419.444 487.129,417.422 488.297,415.401 490.631,415.401 491.799,417.422" fill="none" stroke="black" stroke-width="0.1mm" />
<polyline z="0" points="467.128,417.422 465.96,419.444 463.626,419.444 462.458,417.422 463.626,415.401 465.96,415.401 467.128,417.422" fill="none" stroke="black" stroke-width="0.1mm" />
<polyline z="0" points="442.458,417.422 441.29,419.444 438.956,419.444 437.788,417.422 438.956,415.401 441.29,415.401 442.458,417.422" fill="none" stroke="black" stroke-width="0.1mm" />
<polyline z="0" points="573.476,424.544 574.644,422.522 576.978,422.522 578.146,424.544 576.978,426.566 574.644,426.566 573.476,424.544" fill="none" stroke="black" stroke-width="0.1mm" />
<polyline z="0" points="553.475,424.544 552.307,426.566 549.973,426.566 548.805,424.544 549.973,422.522 552.307,422.522 553.475,424.544" fill="none" stroke="black" stroke-width="0.1mm" />
<polyline z="0" points="528.805,424.544 527.637,426.566 525.303,426.566 524.135,424.544 525.303,422.522 527.637,422.522 528.805,424.544" fill="none" stroke="black" stroke-width="0.1mm" />
<polyline z="0" points="504.134,424.544 502.966,426.566 500.632,426.566 499.464,424.544 500.632,422.522 502.966,422.522 504.134,424.544" fill="none" stroke="black" stroke-width="0.1mm" />
<polyline z="0" points="479.463,424.544 478.295,426.566 475.961,426.566 474.793,424.544 475.961,422.522 478.295,422.522 479.463,424.544" fill="none" stroke="black" stroke-width="0.1mm" />
<polyline z="0" points="454.793,424.544 453.625,426.566 451.291,426.566 450.123,424.544 451.291,422.522 453.625,422.522 454.793,424.544" fill="none" stroke="black" stroke-width="0.1mm" />
<polyline z="0" points="430.122,424.544 428.954,426.566 426.62,426.566 425.452,424.544 426.62,422.522 428.954,422.522 430.122,424.544" fill="none" stroke="black" stroke-width="0.1mm" />
<polyline z="0" points="561.14,431.666 562.308,429.644 564.642,429.644 565.81,431.666 564.642,433.688 562.308,433.688 561.14,431.666" fill="none" stroke="black" stroke-width="0.1mm" />
<polyline z="0" points="541.14,431.666 539.972,433.688 537.638,433.688 536.47,431.666 537.638,429.644 539.972,429.644 541.14,431.666" fill="none" stroke="black" stroke-width="0.1mm" />
<polyline z="0" points="516.469,431.666 515.301,433.688 512.967,433.688 511.799,431.666 512.967,429.644 515.301,429.644 516.469,431.666" fill="none" stroke="black" stroke-width="0.1mm" />
<polyline z="0" points="491.799,431.666 490.631,433.688 488.297,433.688 487.129,431.666 488.297,429.644 490.631,429.644 491.799,431.666" fill="none" stroke="black" stroke-width="0.1mm" />
<polyline z="0" points="467.128,431.666 465.96,433.688 463.626,433.688 462.458,431.666 463.626,429.644 465.96,429.644 467.128,431.666" fill="none" stroke="black" stroke-width="0.1mm" />
<polyline z="0" points="442.458,431.666 441.29,433.688 438.956,433.688 437.788,431.666 438.956,429.644 441.29,429.644 442.458,431.666" fill="none" stroke="black" stroke-width="0.1mm" />
<polyline z="0" points="573.476,438.788 574.644,436.766 576.978,436.766 578.146,438.788 576.978,440.809 574.644,440.809 573.476,438.788" fill="none" stroke="black" stroke-width="0.1mm" />
<polyline z="0" points="553.475,438.788 552.307,440.809 549.973,440.809 548.805,438.788 549.973,436.766 552.307,436.766 553.475,438.788" fill="none" stroke="black" stroke-width="0.1mm" />
<polyline z="0" points="528.805,438.788 527.637,440.809 525.303,440.809 524.135,438.788 525.303,436.766 527.637,436.766 528.805,438.788" fill="none" stroke="black" stroke-width="0.1mm" />
<polyline z="0" points="504.134,438.788 502.966,440.809 500.632,440.809 499.464,438.788 500.632,436.766 502.966,436.766 504.134,438.788" fill="none" stroke="black" stroke-width="0.1mm" />
<polyline z="0" points="479.463,438.788 478.295,440.809 475.961,440.809 474.793,438.788 475.961,436.766 478.295,436.766 479.463,438.788" fill="none" stroke="black" stroke-width="0.1mm" />
<polyline z="0" points="454.793,438.788 453.625,440.809 451.291,440.809 450.123,438.788 451.291,436.766 453.625,436.766 454.793,438.788" fill="none" stroke="black" stroke-width="0.1mm" />
<polyline z="0" points="430.122,438.788 428.954,440.809 426.62,440.809 425.452,438.788 426.62,436.766 428.954,436.766 430.122,438.788" fill="none" stroke="black" stroke-width="0.1mm" />
<polyline z="0" points="561.14,445.909 562.308,443.888 564.642,443.888 565.81,445.909 564.642,447.931 562.308,447.931 561.14,445.909" fill="none" stroke="black" stroke-width="0.1mm" />
<polyline z="0" points="541.14,445.909 539.972,447.931 537.638,447.931 536.47,445.909 537.638,443.888 539.972,443.888 541.14,445.909" fill="none" stroke="black" stroke-width="0.1mm" />
<polyline z="0" points="516.469,445.909 515.301,447.931 512.967,447.931 511.799,445.909 512.967,443.888 515.301,443.888 516.469,445.909" fill="none" stroke="black" stroke-width="0.1mm" />
<polyline z="0" points="491.799,445.909 490.631,447.931 488.297,447.931 487.129,445.909 488.297,443.888 490.631,443.888 491.799,445.909" fill="none" stroke="black" stroke-width="0.1mm" />
<polyline z="0" points="467.128,445.909 465.96,447.931 463.626,447.931 462.458,445.909 463.626,443.888 465.96,443.888 467.128,445.909" fill="none" stroke="black" stroke-width="0.1mm" />
<polyline z="0" points="442.458,445.909 441.29,447.931 438.956,447.931 437.788,445.909 438.956,443.888 441.29,443.888 442.458,445.909" fill="none" stroke="black" stroke-width="0.1mm" />
<polyline z="0" points="573.476,453.031 574.644,451.009 576.978,451.009 578.146,453.031 576.978,455.053 574.644,455.053 573.476,453.031" fill="none" stroke="black" stroke-width="0.1mm" />
<polyline z="0" points="553.475,453.031 552.307,455.053 549.973,455.053 548.805,453.031 549.973,451.009 552.307,451.009 553.475,453.031" fill="none" stroke="black" stroke-width="0.1mm" />
<polyline z="0" points="528.805,453.031 527.637,455.053 525.303,455.053 524.135,453.031 525.303,451.009 527.637,451.009 528.805,453.031" fill="none" stroke="black" stroke-width="0.1mm" />
<polyline z="0" points="504.134,453.031 502.966,455.053 500.632,455.053 499.464,453.031 500.632,451.009 502.966,451.009 504.134,453.031" fill="none" stroke="black" stroke-width="0.1mm" />
<polyline z="0" points="479.463,453.031 478.295,455.053 475.961,455.053 474.793,453.031 475.961,451.009 478.295,451.009 479.463,453.031" fill="none" stroke="black" stroke-width="0.1mm" />
<polyline z="0" points="454.793,453.031 453.625,455.053 451.291,455.053 450.123,453.031 451.291,451.009 453.625,451.009 454.793,453.031" fill="none" stroke="black" stroke-width="0.1mm" />
<polyline z="0" points="430.122,453.031 428.954,455.053 426.62,455.053 425.452,453.031 426.62,451.009 428.954,451.009 430.122,453.031" fill="none" stroke="black" stroke-width="0.1mm" />
<polyline z="0" points="561.14,460.153 562.308,458.131 564.642,458.131 565.81,460.153 564.642,462.175 562.308,462.175 561.14,460.153" fill="none" stroke="black" stroke-width="0.1mm" />
<polyline z="0" points="541.14,460.153 539.972,462.175 537.638,462.175 536.47,460.153 537.638,458.131 539.972,458.131 541.14,460.153" fill="none" stroke="black" stroke-width="0.1mm" />
<polyline z="0" points="516.469,460.153 515.301,462.175 512.967,462.175 511.799,460.153 512.967,458.131 515.301,458.131 516.469,460.153" fill="none" stroke="black" stroke-width="0.1mm" />
<polyline z="0" points="491.799,460.153 490.631,462.175 488.297,462.175 487.129,460.153 488.297,458.131 490.631,458.131 491.799,460.153" fill="none" stroke="black" stroke-width="0.1mm" />
<polyline z="0" points="467.128,460.153 465.96,462.175 463.626,462.175 462.458,460.153 463.626,458.131 465.96,458.131 467.128,460.153" fill="none" stroke="black" stroke-width="0.1mm" />
<polyline z="0" points="442.458,460.153 441.29,462.175 438.956,462.175 437.788,460.153 438.956,458.131 441.29,458.131 442.458,460.153" fill="none" stroke="black" stroke-width="0.1mm" />
<polyline z="0" points="421.174,405.345 421.174,396.005 415.974,396.005 415.974,386.464 421.174,386.464 421.174,377.324 415.974,377.324 415.974,367.784 421.174,367.784 421.174,358.644 415.974,358.644 415.974,349.103 421.174,349.103 421.174,339.763 592.824,339.763 592.824,349.103 598.024,349.103 598.024,358.644 592.824,358.644 592.824,367.784 598.024,367.784 598.024,377.324 592.824,377.324 592.824,386.464 598.024,386.464 598.024,396.005 592.824,396.005 592.824,405.345 421.174,405.345" fill="none" stroke="black" stroke-width="0.1mm" />
<polyline z="0" points="566.34,348.951 567.508,346.929 569.842,346.929 571.01,348.951 569.842,350.972 567.508,350.972 566.34,348.951" fill="none" stroke="black" stroke-width="0.1mm" />
<polyline z="0" points="546.34,348.951 545.172,350.972 542.838,350.972 541.67,348.951 542.838,346.929 545.172,346.929 546.34,348.951" fill="none" stroke="black" stroke-width="0.1mm" />
<polyline z="0" points="521.669,348.951 520.501,350.972 518.167,350.972 516.999,348.951 518.167,346.929 520.501,346.929 521.669,348.951" fill="none" stroke="black" stroke-width="0.1mm" />
<polyline z="0" points="496.999,348.951 495.831,350.972 493.497,350.972 492.329,348.951 493.497,346.929 495.831,346.929 496.999,348.951" fill="none" stroke="black" stroke-width="0.1mm" />
<polyline z="0" points="472.328,348.951 471.16,350.972 468.826,350.972 467.658,348.951 468.826,346.929 471.16,346.929 472.328,348.951" fill="none" stroke="black" stroke-width="0.1mm" />
<polyline z="0" points="447.658,348.951 446.49,350.972 444.156,350.972 442.988,348.951 444.156,346.929 446.49,346.929 447.658,348.951" fill="none" stroke="black" stroke-width="0.1mm" />
<polyline z="0" points="578.676,356.072 579.844,354.051 582.178,354.051 583.346,356.072 582.178,358.094 579.844,358.094 578.676,356.072" fill="none" stroke="black" stroke-width="0.1mm" />
<polyline z="0" points="558.675,356.072 557.507,358.094 555.173,358.094 554.005,356.072 555.173,354.051 557.507,354.051 558.675,356.072" fill="none" stroke="black" stroke-width="0.1mm" />
<polyline z="0" points="534.005,356.072 532.837,358.094 530.503,358.094 529.335,356.072 530.503,354.051 532.837,354.051 534.005,356.072" fill="none" stroke="black" stroke-width="0.1mm" />
<polyline z="0" points="509.334,356.072 508.166,358.094 505.832,358.094 504.664,356.072 505.832,354.051 508.166,354.051 509.334,356.072" fill="none" stroke="black" stroke-width="0.1mm" />
<polyline z="0" points="484.663,356.072 483.495,358.094 481.161,358.094 479.993,356.072 481.161,354.051 483.495,354.051 484.663,356.072" fill="none" stroke="black" stroke-width="0.1mm" />
<polyline z="0" points="459.993,356.072 458.825,358.094 456.491,358.094 455.323,356.072 456.491,354.051 458.825,354.051 459.993,356.072" fill="none" stroke="black" stroke-width="0.1mm" />
<polyline z="0" points="435.322,356.072 434.154,358.094 431.82,358.094 430.652,356.072 431.82,354.051 434.154,354.051 435.322,356.072" fill="none" stroke="black" stroke-width="0.1mm" />
<polyline z="0" points="566.34,363.194 567.508,361.172 569.842,361.172 571.01,363.194 569.842,365.216 567.508,365.216 566.34,363.194" fill="none" stroke="black" stroke-width="0.1mm" />
<polyline z="0" points="546.34,363.194 545.172,365.216 542.838,365.216 541.67,363.194 542.838,361.172 545.172,361.172 546.34,363.194" fill="none" stroke="black" stroke-width="0.1mm" />
<polyline z="0" points="521.669,363.194 520.501,365.216 518.167,365.216 516.999,363.194 518.167,361.172 520.501,361.172 521.669,363.194" fill="none" stroke="black" stroke-width="0.1mm" />
<polyline z="0" points="496.999,363.194 495.831,365.216 493.497,365.216 492.329,363.194 493.497,361.172 495.831,361.172 496.999,363.194" fill="none" stroke="black" stroke-width="0.1mm" />
<polyline z="0" points="472.328,363.194 471.16,365.216 468.826,365.216 467.658,363.194 468.826,361.172 471.16,361.172 472.328,363.194" fill="none" stroke="black" stroke-width="0.1mm" />
<polyline z="0" points="447.658,363.194 446.49,365.216 444.156,365.216 442.988,363.194 444.156,361.172 446.49,361.172 447.658,363.194" fill="none" stroke="black" stroke-width="0.1mm" />
<polyline z="0" points="578.676,370.316 579.844,368.294 582.178,368.294 583.346,370.316 582.178,372.338 579.844,372.338 578.676,370.316" fill="none" stroke="black" stroke-width="0.1mm" />
<polyline z="0" points="558.675,370.316 557.507,372.338 555.173,372.338 554.005,370.316 555.173,368.294 557.507,368.294 558.675,370.316" fill="none" stroke="black" stroke-width="0.1mm" />
<polyline z="0" points="534.005,370.316 532.837,372.338 530.503,372.338 529.335,370.316 530.503,368.294 532.837,368.294 534.005,370.316" fill="none" stroke="black" stroke-width="0.1mm" />
<polyline z="0" points="509.334,370.316 508.166,372.338 505.832,372.338 504.664,370.316 505.832,368.294 508.166,368.294 509.334,370.316" fill="none" stroke="black" stroke-width="0.1mm" />
<polyline z="0" points="484.663,370.316 483.495,372.338 481.161,372.338 479.993,370.316 481.161,368.294 483.495,368.294 484.663,370.316" fill="none" stroke="black" stroke-width="0.1mm" />
<polyline z="0" points="459.993,370.316 458.825,372.338 456.491,372.338 455.323,370.316 456.491,368.294 458.825,368.294 459.993,370.316" fill="none" stroke="black" stroke-width="0.1mm" />
<polyline z="0" points="435.322,370.316 434.154,372.338 431.82,372.338 430.652,370.316 431.82,368.294 434.154,368.294 435.322,370.316" fill="none" stroke="black" stroke-width="0.1mm" />
<polyline z="0" points="566.34,377.438 567.508,375.416 569.842,375.416 571.01,377.438 569.842,379.459 567.508,379.459 566.34,377.438" fill="none" stroke="black" stroke-width="0.1mm" />
<polyline z="0" points="546.34,377.438 545.172,379.459 542.838,379.459 541.67,377.438 542.838,375.416 545.172,375.416 546.34,377.438" fill="none" stroke="black" stroke-width="0.1mm" />
<polyline z="0" points="521.669,377.438 520.501,379.459 518.167,379.459 516.999,377.438 518.167,375.416 520.501,375.416 521.669,377.438" fill="none" stroke="black" stroke-width="0.1mm" />
<polyline z="0" points="496.999,377.438 495.831,379.459 493.497,379.459 492.329,377.438 493.497,375.416 495.831,375.416 496.999,377.438" fill="none" stroke="black" stroke-width="0.1mm" />
<polyline z="0" points="472.328,377.438 471.16,379.459 468.826,379.459 467.658,377.438 468.826,375.416 471.16,375.416 472.328,377.438" fill="none" stroke="black" stroke-width="0.1mm" />
<polyline z="0" points="447.658,377.438 446.49,379.459 444.156,379.459 442.988,377.438 444.156,375.416 446.49,375.416 447.658,377.438" fill="none" stroke="black" stroke-width="0.1mm" />
<polyline z="0" points="578.676,384.559 579.844,382.538 582.178,382.538 583.346,384.559 582.178,386.581 579.844,386.581 578.676,384.559" fill="none" stroke="black" stroke-width="0.1mm" />
<polyline z="0" points="558.675,384.559 557.507,386.581 555.173,386.581 554.005,384.559 555.173,382.538 557.507,382.538 558.675,384.559" fill="none" stroke="black" stroke-width="0.1mm" />
<polyline z="0" points="534.005,384.559 532.837,386.581 530.503,386.581 529.335,384.559 530.503,382.538 532.837,382.538 534.005,384.559" fill="none" stroke="black" stroke-width="0.1mm" />
<polyline z="0" points="509.334,384.559 508.166,386.581 505.832,386.581 504.664,384.559 505.832,382.538 508.166,382.538 509.334,384.559" fill="none" stroke="black" stroke-width="0.1mm" />
<polyline z="0" points="484.663,384.559 483.495,386.581 481.161,386.581 479.993,384.559 481.161,382.538 483.495,382.538 484.663,384.559" fill="none" stroke="black" stroke-width="0.1mm" />
<polyline z="0" points="459.993,384.559 458.825,386.581 456.491,386.581 455.323,384.559 456.491,382.538 458.825,382.538 459.993,384.559" fill="none" stroke="black" stroke-width="0.1mm" />
<polyline z="0" points="435.322,384.559 434.154,386.581 431.82,386.581 430.652,384.559 431.82,382.538 434.154,382.538 435.322,384.559" fill="none" stroke="black" stroke-width="0.1mm" />
<polyline z="0" points="566.34,391.681 567.508,389.659 569.842,389.659 571.01,391.681 569.842,393.703 567.508,393.703 566.34,391.681" fill="none" stroke="black" stroke-width="0.1mm" />
<polyline z="0" points="546.34,391.681 545.172,393.703 542.838,393.703 541.67,391.681 542.838,389.659 545.172,389.659 546.34,391.681" fill="none" stroke="black" stroke-width="0.1mm" />
<polyline z="0" points="521.669,391.681 520.501,393.703 518.167,393.703 516.999,391.681 518.167,389.659 520.501,389.659 521.669,391.681" fill="none" stroke="black" stroke-width="0.1mm" />
<polyline z="0" points="496.999,391.681 495.831,393.703 493.497,393.703 492.329,391.681 493.497,389.659 495.831,389.659 496.999,391.681" fill="none" stroke="black" stroke-width="0.1mm" />
<polyline z="0" points="472.328,391.681 471.16,393.703 468.826,393.703 467.658,391.681 468.826,389.659 471.16,389.659 472.328,391.681" fill="none" stroke="black" stroke-width="0.1mm" />
<polyline z="0" points="447.658,391.681 446.49,393.703 444.156,393.703 442.988,391.681 444.156,389.659 446.49,389.659 447.658,391.681" fill="none" stroke="black" stroke-width="0.1mm" />
<polyline z="0" points="578.676,398.803 579.844,396.781 582.178,396.781 583.346,398.803 582.178,400.825 579.844,400.825 578.676,398.803" fill="none" stroke="black" stroke-width="0.1mm" />
<polyline z="0" points="558.675,398.803 557.507,400.825 555.173,400.825 554.005,398.803 555.173,396.781 557.507,396.781 558.675,398.803" fill="none" stroke="black" stroke-width="0.1mm" />
<polyline z="0" points="534.005,398.803 532.837,400.825 530.503,400.825 529.335,398.803 530.503,396.781 532.837,396.781 534.005,398.803" fill="none" stroke="black" stroke-width="0.1mm" />
<polyline z="0" points="509.334,398.803 508.166,400.825 505.832,400.825 504.664,398.803 505.832,396.781 508.166,396.781 509.334,398.803" fill="none" stroke="black" stroke-width="0.1mm" />
<polyline z="0" points="484.663,398.803 483.495,400.825 481.161,400.825 479.993,398.803 481.161,396.781 483.495,396.781 484.663,398.803" fill="none" stroke="black" stroke-width="0.1mm" />
<polyline z="0" points="459.993,398.803 458.825,400.825 456.491,400.825 455.323,398.803 456.491,396.781 458.825,396.781 459.993,398.803" fill="none" stroke="black" stroke-width="0.1mm" />
<polyline z="0" points="435.322,398.803 434.154,400.825 431.82,400.825 430.652,398.803 431.82,396.781 434.154,396.781 435.322,398.803" fill="none" stroke="black" stroke-width="0.1mm" />
<polyline z="0" points="431.174,339.477 431.174,334.277 421.174,334.277 421.174,327.007 415.974,327.007 415.974,314.337 421.174,314.337 421.174,302.067 415.974,302.067 415.974,289.397 421.174,289.397 421.174,276.927 425.953,276.927 425.953,271.727 436.131,271.727 436.131,276.927 445.91,276.927 445.91,271.727 453.933,271.727 439.81,257.605 442.018,252.274 442.018,257.877 456.487,257.877 456.487,252.677 471.355,252.677 471.355,257.877 486.024,257.877 486.024,271.927 476.045,271.927 476.045,276.927 486.094,276.927 451.174,339.763 451.174,334.277 441.374,334.277 441.374,339.477 431.174,339.477" fill="none" stroke="black" stroke-width="0.1mm" />
<polyline z="0" points="456.088,276.927 456.088,271.927 465.867,271.927 465.867,276.927 456.088,276.927" fill="none" stroke="black" stroke-width="0.1mm" />
<polyline z="0" points="464.982,282.801 469.353,285.23 464.913,293.22 460.542,290.791 464.982,282.801" fill="none" stroke="black" stroke-width="0.1mm" />
<polyline z="0" points="455.908,299.13 460.278,301.559 455.838,309.548 451.468,307.119 455.908,299.13" fill="none" stroke="black" stroke-width="0.1mm" />
<polyline z="0" points="446.834,315.458 451.204,317.887 446.764,325.877 442.394,323.448 446.834,315.458" fill="none" stroke="black" stroke-width="0.1mm" />
<polyline z="0" points="598.024,347.995 633.055,347.995 642.256,353.108 638.023,360.726 633.477,358.2 633.277,358.56 628.732,356.034 624.492,363.663 628.862,366.092 629.263,365.37 633.983,367.993 629.75,375.611 625.205,373.085 624.604,374.167 620.058,371.641 615.819,379.27 620.189,381.699 620.991,380.255 625.711,382.878 621.478,390.496 616.933,387.97 615.93,389.774 611.385,387.248 607.145,394.877 611.516,397.306 612.719,395.14 617.439,397.763 613.226,405.345 598.024,405.345 598.024,347.995" fill="none" stroke="black" stroke-width="0.1mm" />
<polyline z="0" points="604.356,415.835 604.356,421.035 620.688,421.035 620.688,415.835 637.419,415.835 637.419,421.035 653.751,421.035 653.751,415.835 670.483,415.835 670.483,421.035 686.815,421.035 686.815,415.835 703.547,415.835 703.547,421.035 719.879,421.035 719.879,415.835 736.61,415.835 736.61,421.035 752.942,421.035 752.942,415.835 769.674,415.835 769.674,426.013 764.474,426.013 764.474,435.792 769.674,435.792 769.674,445.97 764.474,445.97 764.474,455.749 769.674,455.749 769.674,465.927 764.474,465.927 764.474,468.037 592.824,468.037 592.824,465.927 587.624,465.927 587.624,455.749 592.824,455.749 592.824,445.97 587.624,445.97 587.624,435.792 592.824,435.792 592.824,426.013 587.624,426.013 587.624,415.835 604.356,415.835" fill="none" stroke="black" stroke-width="0.1mm" />
<polyline z="0" points="598.024,491.581 780.074,491.581 780.074,506.45 774.874,506.45 774.874,520.918 780.074,520.918 780.074,535.787 763.342,535.787 763.342,530.587 747.01,530.587 747.01,535.787 730.279,535.787 730.279,530.587 713.947,530.587 713.947,535.787 697.215,535.787 697.215,530.587 680.883,530.587 680.883,535.787 664.151,535.787 664.151,530.587 647.819,530.587 647.819,535.787 631.088,535.787 631.088,530.587 614.756,530.587 614.756,535.787 598.024,535.787 598.024,520.918 603.224,520.918 603.224,506.45 598.024,506.45 598.024,491.581" fill="none" stroke="black" stroke-width="0.1mm" />
<polyline z="0" points="657.744,571.039 666.945,565.926 701.976,565.926 701.976,623.276 686.774,623.276 682.561,615.694 687.281,613.071 688.484,615.237 692.855,612.808 688.615,605.179 684.07,607.704 683.067,605.9 678.522,608.427 674.289,600.809 679.009,598.186 679.811,599.63 684.181,597.201 679.942,589.571 675.396,592.098 674.795,591.016 670.25,593.542 666.017,585.924 670.737,583.301 671.138,584.023 675.508,581.594 671.268,573.965 666.723,576.491 666.523,576.13 661.977,578.656 657.744,571.039" fill="none" stroke="black" stroke-width="0.1mm" />
<polyline z="0" points="701.976,593.076 718.508,593.076 718.508,587.876 735.24,587.876 735.24,593.076 751.571,593.076 751.571,587.876 768.303,587.876 768.303,593.076 784.635,593.076 784.635,587.876 801.367,587.876 801.367,593.076 817.699,593.076 817.699,587.876 834.431,587.876 834.431,593.076 850.762,593.076 850.762,587.876 867.494,587.876 867.494,593.076 884.026,593.076 884.026,603.276 878.826,603.276 878.826,613.076 884.026,613.076 884.026,623.276 701.976,623.276 701.976,613.076 707.176,613.076 707.176,603.276 701.976,603.276 701.976,593.076" fill="none" stroke="black" stroke-width="0.1mm" />
<polyline z="0" points="703.547,642.526 703.547,647.726 686.815,647.726 686.815,642.526 670.483,642.526 670.483,647.726 653.751,647.726 653.751,642.526 637.419,642.526 637.419,647.726 620.688,647.726 620.688,642.526 604.356,642.526 604.356,647.726 587.624,647.726 587.624,637.547 592.824,637.547 592.824,635.628 764.474,635.628 764.474,637.547 769.674,637.547 769.674,647.726 752.942,647.726 752.942,642.526 736.61,642.526 736.61,647.726 719.879,647.726 719.879,642.526 703.547,642.526" fill="none" stroke="black" stroke-width="0.1mm" />
</svg>