<?xml version="1.0" encoding="UTF-8" standalone="no"?>
<svg
   width="1300mm"
   height="900mm"
   viewBox="0 0 1300 900"
   version="1.1"
   id="svg118"
   sodipodi:docname="Driver4x52.svg"
   inkscape:version="1.3.2 (091e20ef0f, 2023-11-25)"
   xmlns:inkscape="http://www.inkscape.org/namespaces/inkscape"
   xmlns:sodipodi="http://sodipodi.sourceforge.net/DTD/sodipodi-0.dtd"
   xmlns="http://www.w3.org/2000/svg"
   xmlns:svg="http://www.w3.org/2000/svg">
  <defs
     id="defs118" />
  <sodipodi:namedview
     id="namedview118"
     pagecolor="#505050"
     bordercolor="#eeeeee"
     borderopacity="1"
     inkscape:showpageshadow="0"
     inkscape:pageopacity="0"
     inkscape:pagecheckerboard="0"
     inkscape:deskcolor="#505050"
     inkscape:document-units="mm"
     inkscape:zoom="0.32686218"
     inkscape:cx="2386.3269"
     inkscape:cy="1702.5524"
     inkscape:window-width="1920"
     inkscape:window-height="1011"
     inkscape:window-x="0"
     inkscape:window-y="32"
     inkscape:window-maximized="1"
     inkscape:current-layer="svg118" />
  <polyline
     z="0"
     points="403.03,596.11 403.03,582.06 414.362,582.06 414.362,576.86 431.094,576.86 431.094,582.06 447.425,582.06 447.425,576.86 464.157,576.86 464.157,582.06 480.489,582.06 480.489,576.86 497.221,576.86 497.221,582.06 513.553,582.06 513.553,576.86 530.285,576.86 530.285,582.06 546.616,582.06 546.616,576.86 563.348,576.86 563.348,582.06 574.68,582.06 574.68,596.11 563.348,596.11 563.348,601.31 546.616,601.31 546.616,596.11 530.285,596.11 530.285,601.31 513.553,601.31 513.553,596.11 497.221,596.11 497.221,601.31 480.489,601.31 480.489,596.11 464.157,596.11 464.157,601.31 447.425,601.31 447.425,596.11 431.094,596.11 431.094,601.31 414.362,601.31 414.362,596.11 403.03,596.11"
     fill="none"
     stroke="#000000"
     stroke-width="0.1mm"
     id="polyline1"
     transform="rotate(90,650,450)"
     style="stroke-width:0.26458333;stroke-dasharray:none;vector-effect:non-scaling-stroke;-inkscape-stroke:hairline;fill:none;stroke:#000000;stroke-opacity:1" />
  <polyline
     z="0"
     points="403.03,576.86 403.03,519.51 438.061,519.51 447.262,524.623 443.029,532.241 438.483,529.715 438.283,530.075 433.738,527.549 429.498,535.178 433.868,537.607 434.269,536.885 438.989,539.508 434.756,547.126 430.211,544.6 429.61,545.682 425.064,543.156 420.825,550.785 425.195,553.214 425.997,551.77 430.717,554.393 426.484,562.011 421.939,559.485 420.936,561.289 416.391,558.763 412.151,566.392 416.522,568.821 417.725,566.655 422.445,569.278 418.232,576.86 403.03,576.86"
     fill="none"
     stroke="#000000"
     stroke-width="0.1mm"
     id="polyline2"
     transform="rotate(90,650,450)"
     style="stroke-width:0.26458333;stroke-dasharray:none;vector-effect:non-scaling-stroke;-inkscape-stroke:hairline;fill:none;stroke:#000000;stroke-opacity:1" />
  <path
     id="polyline3"
     style="stroke-width:0.26458333;stroke-dasharray:none;vector-effect:non-scaling-stroke;-inkscape-stroke:hairline;fill:none;stroke:#000000;stroke-opacity:1"
     d="M 403.02998 506.75404 L 408.23018 506.75404 L 408.23018 514.02388 L 418.23009 514.02388 L 418.23009 519.22408 L 428.42998 519.22408 L 428.42998 514.02388 L 438.2299 514.02388 L 438.2299 519.50985 L 473.15025 456.67389 L 463.10125 456.67389 L 463.10125 451.6742 L 473.07997 451.6742 L 473.07997 437.62389 L 458.4111 437.62389 L 458.4111 432.42421 L 443.54276 432.42421 L 443.54276 437.62389 L 429.07387 437.62389 L 429.07387 432.02217 L 426.86626 437.35208 L 440.98891 451.47421 L 432.96614 451.47421 L 432.96614 456.67389 L 423.18689 456.67389 L 423.18689 451.47421 L 413.00922 451.47421 L 413.00922 456.67389 L 408.23018 456.67389 L 408.23018 469.14393 L 403.02998 469.14393 L 403.02998 481.81396 L 408.23018 481.81396 L 408.23018 494.08401 L 403.02998 494.08401 L 403.02998 506.75404 z M 429.45008 503.19612 L 433.89012 495.20487 L 438.25988 497.63418 L 433.81984 505.62388 L 429.45008 503.19612 z M 438.52394 486.86688 L 442.96398 478.87719 L 447.33426 481.30598 L 442.89422 489.29516 L 438.52394 486.86688 z M 443.14382 456.67389 L 443.14382 451.6742 L 452.92306 451.6742 L 452.92306 456.67389 L 443.14382 456.67389 z M 447.59781 470.5392 L 452.03785 462.54795 L 456.40916 464.97675 L 451.96912 472.96696 L 447.59781 470.5392 z "
     transform="rotate(90,650,450)" />
  <polyline
     z="0"
     points="447.262,524.623 456.463,519.51 491.494,519.51 491.494,576.86 476.292,576.86 472.079,569.278 476.799,566.655 478.002,568.821 482.373,566.392 478.133,558.763 473.588,561.289 472.585,559.485 468.04,562.011 463.807,554.393 468.527,551.77 469.329,553.214 473.699,550.785 469.46,543.156 464.914,545.682 464.313,544.6 459.768,547.126 455.535,539.508 460.255,536.885 460.656,537.607 465.026,535.178 460.786,527.549 456.241,530.075 456.041,529.715 451.495,532.241 447.262,524.623"
     fill="none"
     stroke="#000000"
     stroke-width="0.1mm"
     id="polyline8"
     transform="rotate(90,650,450)"
     style="stroke-width:0.26458333;stroke-dasharray:none;vector-effect:non-scaling-stroke;-inkscape-stroke:hairline;fill:none;stroke:#000000;stroke-opacity:1" />
  <polyline
     z="0"
     points="491.494,546.66 508.026,546.66 508.026,541.46 524.758,541.46 524.758,546.66 541.089,546.66 541.089,541.46 557.821,541.46 557.821,546.66 574.153,546.66 574.153,541.46 590.885,541.46 590.885,546.66 607.217,546.66 607.217,541.46 623.949,541.46 623.949,546.66 640.28,546.66 640.28,541.46 657.012,541.46 657.012,546.66 673.544,546.66 673.544,556.86 668.344,556.86 668.344,566.66 673.544,566.66 673.544,576.86 491.494,576.86 491.494,566.66 496.694,566.66 496.694,556.86 491.494,556.86 491.494,546.66"
     fill="none"
     stroke="#000000"
     stroke-width="0.1mm"
     id="polyline9"
     transform="rotate(90,650,450)"
     style="stroke-width:0.26458333;stroke-dasharray:none;vector-effect:non-scaling-stroke;-inkscape-stroke:hairline;fill:none;stroke:#000000;stroke-opacity:1" />
  <path
     id="polyline10"
     style="stroke-width:0.26458333;stroke-dasharray:none;vector-effect:non-scaling-stroke;-inkscape-stroke:hairline;fill:none;stroke:#000000;stroke-opacity:1"
     d="M 473.15025 456.67389 L 508.07008 519.50985 L 508.07008 514.02388 L 517.87 514.02388 L 517.87 519.22408 L 528.0699 519.22408 L 528.0699 514.02388 L 538.0698 514.02388 L 538.0698 506.75404 L 543.27 506.75404 L 543.27 494.08401 L 538.0698 494.08401 L 538.0698 481.81396 L 543.27 481.81396 L 543.27 469.14393 L 538.0698 469.14393 L 538.0698 456.67389 L 533.29077 456.67389 L 533.29077 451.47421 L 523.11309 451.47421 L 523.11309 456.67389 L 513.33385 456.67389 L 513.33385 451.47421 L 505.31108 451.47421 L 519.43425 437.35208 L 517.22611 432.02217 L 517.22611 437.62389 L 502.75723 437.62389 L 502.75723 432.42421 L 487.88889 432.42421 L 487.88889 437.62389 L 473.22002 437.62389 L 473.22002 451.6742 L 483.19925 451.6742 L 483.19925 456.67389 L 473.15025 456.67389 z M 489.89083 464.97675 L 494.26214 462.54795 L 498.70218 470.5392 L 494.33087 472.96696 L 489.89083 464.97675 z M 493.37692 456.67389 L 493.37692 451.6742 L 503.15617 451.6742 L 503.15617 456.67389 L 493.37692 456.67389 z M 498.96625 481.30598 L 503.33601 478.87719 L 507.77605 486.86688 L 503.40577 489.29516 L 498.96625 481.30598 z M 508.04011 497.63418 L 512.40987 495.20487 L 516.84991 503.19612 L 512.48015 505.62388 L 508.04011 497.63418 z "
     transform="rotate(90,650,450)" />
  <polyline
     z="0"
     points="543.27,492.728 543.27,483.6 548.47,483.6 548.47,474.873 543.27,474.873 543.27,465.745 548.47,465.745 548.47,456.818 709.72,456.818 709.72,465.745 714.92,465.745 714.92,474.873 709.72,474.873 709.72,483.6 714.92,483.6 714.92,492.728 709.72,492.728 709.72,501.455 714.92,501.455 714.92,510.583 709.72,510.583 709.72,519.51 548.47,519.51 548.47,510.583 543.27,510.583 543.27,501.455 548.47,501.455 548.47,492.728 543.27,492.728"
     fill="none"
     stroke="#000000"
     stroke-width="0.1mm"
     id="polyline15"
     transform="rotate(90,650,450)"
     style="stroke-width:0.26458333;stroke-dasharray:none;vector-effect:non-scaling-stroke;-inkscape-stroke:hairline;fill:none;stroke:#000000;stroke-opacity:1" />
  <polyline
     z="0"
     points="535.285,432.022 535.285,426.822 518.953,426.822 518.953,432.022 502.221,432.022 502.221,426.822 485.889,426.822 485.889,432.022 469.157,432.022 469.157,426.822 452.825,426.822 452.825,432.022 436.094,432.022 436.094,426.822 419.762,426.822 419.762,432.022 403.03,432.022 403.03,419.352 408.23,419.352 408.23,407.082 403.03,407.082 403.03,394.412 408.23,394.412 408.23,382.142 403.03,382.142 403.03,369.472 419.562,369.472 419.562,364.272 436.294,364.272 436.294,369.472 452.625,369.472 452.625,364.272 469.357,364.272 469.357,369.472 485.689,369.472 485.689,364.272 502.421,364.272 502.421,369.472 518.753,369.472 518.753,364.272 535.485,364.272 535.485,369.472 551.816,369.472 551.816,364.272 568.548,364.272 568.548,369.472 585.08,369.472 585.08,382.142 579.88,382.142 579.88,394.412 585.08,394.412 585.08,407.082 579.88,407.082 579.88,419.352 585.08,419.352 585.08,432.022 568.348,432.022 568.348,426.822 552.016,426.822 552.016,432.022 535.285,432.022"
     fill="none"
     stroke="#000000"
     stroke-width="0.1mm"
     id="polyline16"
     transform="rotate(90,650,450)"
     style="stroke-width:0.26458333;stroke-dasharray:none;vector-effect:non-scaling-stroke;-inkscape-stroke:hairline;fill:none;stroke:#000000;stroke-opacity:1" />
  <polyline
     z="0"
     points="585.08,429.912 585.08,419.734 590.28,419.734 590.28,409.955 585.08,409.955 585.08,399.777 590.28,399.777 590.28,389.998 585.08,389.998 585.08,379.82 601.812,379.82 601.812,385.02 618.144,385.02 618.144,379.82 634.875,379.82 634.875,385.02 651.207,385.02 651.207,379.82 667.939,379.82 667.939,385.02 684.271,385.02 684.271,379.82 701.003,379.82 701.003,385.02 717.335,385.02 717.335,379.82 734.066,379.82 734.066,385.02 750.398,385.02 750.398,379.82 767.13,379.82 767.13,389.998 761.93,389.998 761.93,399.777 767.13,399.777 767.13,409.955 761.93,409.955 761.93,419.734 767.13,419.734 767.13,429.912 761.93,429.912 761.93,432.022 590.28,432.022 590.28,429.912 585.08,429.912"
     fill="none"
     stroke="#000000"
     stroke-width="0.1mm"
     id="polyline17"
     transform="rotate(90,650,450)"
     style="stroke-width:0.26458333;stroke-dasharray:none;vector-effect:non-scaling-stroke;-inkscape-stroke:hairline;fill:none;stroke:#000000;stroke-opacity:1" />
  <path
     id="polyline18"
     style="stroke-width:0.26458333;stroke-dasharray:none;vector-effect:non-scaling-stroke;-inkscape-stroke:hairline;fill:none;stroke:#000000;stroke-opacity:1"
     d="M 585.07985 364.27178 L 597.03313 364.27178 L 598.10076 362.42125 L 600.18488 362.42125 L 601.25406 364.27178 L 620.95312 364.27178 L 622.02179 362.42125 L 624.1059 362.42125 L 625.17508 364.27178 L 644.87414 364.27178 L 645.94177 362.42125 L 648.02588 362.42125 L 649.09507 364.27178 L 668.79412 364.27178 L 669.86279 362.42125 L 671.9469 362.42125 L 673.01609 364.27178 L 692.71514 364.27178 L 693.78381 362.42125 L 695.86792 362.42125 L 696.93608 364.27178 L 716.63513 364.27178 L 717.7038 362.42125 L 719.78791 362.42125 L 720.8571 364.27178 L 740.55615 364.27178 L 741.62482 362.42125 L 743.70893 362.42125 L 744.77708 364.27178 L 756.72984 364.27178 L 756.72984 361.18205 L 751.53016 361.18205 L 751.53016 352.86783 L 756.72984 352.86783 L 756.72984 344.15311 L 751.53016 344.15311 L 751.53016 335.83786 L 756.72984 335.83786 L 756.72984 327.12418 L 751.53016 327.12418 L 751.53016 318.80892 L 756.72984 318.80892 L 756.72984 310.09421 L 751.53016 310.09421 L 751.53016 301.58 L 590.28005 301.58 L 590.28005 310.09421 L 585.07985 310.09421 L 585.07985 318.80892 L 590.28005 318.80892 L 590.28005 327.12418 L 585.07985 327.12418 L 585.07985 335.83786 L 590.28005 335.83786 L 590.28005 344.15311 L 585.07985 344.15311 L 585.07985 352.86783 L 590.28005 352.86783 L 590.28005 361.18205 L 585.07985 361.18205 L 585.07985 364.27178 z M 597.05793 350.41578 L 598.10076 348.61021 L 600.18488 348.61021 L 601.22822 350.41578 L 600.18488 352.22084 L 598.10076 352.22084 L 597.05793 350.41578 z M 597.05793 322.79524 L 598.10076 320.98915 L 600.18488 320.98915 L 601.22822 322.79524 L 600.18488 324.59978 L 598.10076 324.59978 L 597.05793 322.79524 z M 597.05897 336.60525 L 598.10076 334.8002 L 600.18488 334.8002 L 601.22822 336.60525 L 600.18488 338.40979 L 598.10076 338.40979 L 597.05897 336.60525 z M 609.01896 343.51026 L 610.06179 341.7052 L 612.1459 341.7052 L 613.18925 343.51026 L 612.1459 345.31583 L 610.06179 345.31583 L 609.01896 343.51026 z M 609.01896 315.8892 L 610.06179 314.08415 L 612.1459 314.08415 L 613.18925 315.8892 L 612.1459 317.69478 L 610.06179 317.69478 L 609.01896 315.8892 z M 609.02 357.32078 L 610.06179 355.51624 L 612.1459 355.51624 L 613.18925 357.32078 L 612.1459 359.12584 L 610.06179 359.12584 L 609.02 357.32078 z M 609.02 329.70025 L 610.06179 327.89519 L 612.1459 327.89519 L 613.18925 329.70025 L 612.1459 331.50479 L 610.06179 331.50479 L 609.02 329.70025 z M 620.97896 350.41578 L 622.02179 348.61021 L 624.1059 348.61021 L 625.14924 350.41578 L 624.1059 352.22084 L 622.02179 352.22084 L 620.97896 350.41578 z M 620.97896 322.79524 L 622.02179 320.98915 L 624.1059 320.98915 L 625.14924 322.79524 L 624.1059 324.59978 L 622.02179 324.59978 L 620.97896 322.79524 z M 620.97999 336.60525 L 622.02179 334.8002 L 624.1059 334.8002 L 625.14924 336.60525 L 624.1059 338.40979 L 622.02179 338.40979 L 620.97999 336.60525 z M 632.93895 343.51026 L 633.98178 341.7052 L 636.06589 341.7052 L 637.10924 343.51026 L 636.06589 345.31583 L 633.98178 345.31583 L 632.93895 343.51026 z M 632.93895 315.8892 L 633.98178 314.08415 L 636.06589 314.08415 L 637.10924 315.8892 L 636.06589 317.69478 L 633.98178 317.69478 L 632.93895 315.8892 z M 632.93998 357.32078 L 633.98178 355.51624 L 636.06589 355.51624 L 637.10924 357.32078 L 636.06589 359.12584 L 633.98178 359.12584 L 632.93998 357.32078 z M 632.93998 329.70025 L 633.98178 327.89519 L 636.06589 327.89519 L 637.10924 329.70025 L 636.06589 331.50479 L 633.98178 331.50479 L 632.93998 329.70025 z M 644.89894 350.41578 L 645.94177 348.61021 L 648.02588 348.61021 L 649.06923 350.41578 L 648.02588 352.22084 L 645.94177 352.22084 L 644.89894 350.41578 z M 644.89894 322.79524 L 645.94177 320.98915 L 648.02588 320.98915 L 649.06923 322.79524 L 648.02588 324.59978 L 645.94177 324.59978 L 644.89894 322.79524 z M 644.89998 336.60525 L 645.94177 334.8002 L 648.02588 334.8002 L 649.06923 336.60525 L 648.02588 338.40979 L 645.94177 338.40979 L 644.89998 336.60525 z M 656.85997 343.51026 L 657.9028 341.7052 L 659.98691 341.7052 L 661.03026 343.51026 L 659.98691 345.31583 L 657.9028 345.31583 L 656.85997 343.51026 z M 656.85997 315.8892 L 657.9028 314.08415 L 659.98691 314.08415 L 661.03026 315.8892 L 659.98691 317.69478 L 657.9028 317.69478 L 656.85997 315.8892 z M 656.861 357.32078 L 657.9028 355.51624 L 659.98691 355.51624 L 661.03026 357.32078 L 659.98691 359.12584 L 657.9028 359.12584 L 656.861 357.32078 z M 656.861 329.70025 L 657.9028 327.89519 L 659.98691 327.89519 L 661.03026 329.70025 L 659.98691 331.50479 L 657.9028 331.50479 L 656.861 329.70025 z M 668.81996 350.41578 L 669.86279 348.61021 L 671.9469 348.61021 L 672.99025 350.41578 L 671.9469 352.22084 L 669.86279 352.22084 L 668.81996 350.41578 z M 668.81996 322.79524 L 669.86279 320.98915 L 671.9469 320.98915 L 672.99025 322.79524 L 671.9469 324.59978 L 669.86279 324.59978 L 668.81996 322.79524 z M 668.821 336.60525 L 669.86279 334.8002 L 671.9469 334.8002 L 672.99025 336.60525 L 671.9469 338.40979 L 669.86279 338.40979 L 668.821 336.60525 z M 680.77996 343.51026 L 681.82279 341.7052 L 683.9069 341.7052 L 684.95024 343.51026 L 683.9069 345.31583 L 681.82279 345.31583 L 680.77996 343.51026 z M 680.77996 315.8892 L 681.82279 314.08415 L 683.9069 314.08415 L 684.95024 315.8892 L 683.9069 317.69478 L 681.82279 317.69478 L 680.77996 315.8892 z M 680.78099 357.32078 L 681.82279 355.51624 L 683.9069 355.51624 L 684.95024 357.32078 L 683.9069 359.12584 L 681.82279 359.12584 L 680.78099 357.32078 z M 680.78099 329.70025 L 681.82279 327.89519 L 683.9069 327.89519 L 684.95024 329.70025 L 683.9069 331.50479 L 681.82279 331.50479 L 680.78099 329.70025 z M 692.74098 350.41578 L 693.78381 348.61021 L 695.86792 348.61021 L 696.91075 350.41578 L 695.86792 352.22084 L 693.78381 352.22084 L 692.74098 350.41578 z M 692.74098 322.79524 L 693.78381 320.98915 L 695.86792 320.98915 L 696.91075 322.79524 L 695.86792 324.59978 L 693.78381 324.59978 L 692.74098 322.79524 z M 692.74202 336.60525 L 693.78381 334.8002 L 695.86792 334.8002 L 696.91075 336.60525 L 695.86792 338.40979 L 693.78381 338.40979 L 692.74202 336.60525 z M 704.70098 343.51026 L 705.74381 341.7052 L 707.82792 341.7052 L 708.87075 343.51026 L 707.82792 345.31583 L 705.74381 345.31583 L 704.70098 343.51026 z M 704.70098 315.8892 L 705.74381 314.08415 L 707.82792 314.08415 L 708.87075 315.8892 L 707.82792 317.69478 L 705.74381 317.69478 L 704.70098 315.8892 z M 704.70201 357.32078 L 705.74381 355.51624 L 707.82792 355.51624 L 708.87075 357.32078 L 707.82792 359.12584 L 705.74381 359.12584 L 704.70201 357.32078 z M 704.70201 329.70025 L 705.74381 327.89519 L 707.82792 327.89519 L 708.87075 329.70025 L 707.82792 331.50479 L 705.74381 331.50479 L 704.70201 329.70025 z M 716.66097 350.41578 L 717.7038 348.61021 L 719.78791 348.61021 L 720.83126 350.41578 L 719.78791 352.22084 L 717.7038 352.22084 L 716.66097 350.41578 z M 716.66097 322.79524 L 717.7038 320.98915 L 719.78791 320.98915 L 720.83126 322.79524 L 719.78791 324.59978 L 717.7038 324.59978 L 716.66097 322.79524 z M 716.662 336.60525 L 717.7038 334.8002 L 719.78791 334.8002 L 720.83126 336.60525 L 719.78791 338.40979 L 717.7038 338.40979 L 716.662 336.60525 z M 728.62096 343.51026 L 729.66379 341.7052 L 731.7479 341.7052 L 732.79125 343.51026 L 731.7479 345.31583 L 729.66379 345.31583 L 728.62096 343.51026 z M 728.62096 315.8892 L 729.66379 314.08415 L 731.7479 314.08415 L 732.79125 315.8892 L 731.7479 317.69478 L 729.66379 317.69478 L 728.62096 315.8892 z M 728.622 357.32078 L 729.66379 355.51624 L 731.7479 355.51624 L 732.79125 357.32078 L 731.7479 359.12584 L 729.66379 359.12584 L 728.622 357.32078 z M 728.622 329.70025 L 729.66379 327.89519 L 731.7479 327.89519 L 732.79125 329.70025 L 731.7479 331.50479 L 729.66379 331.50479 L 728.622 329.70025 z M 740.58199 350.41578 L 741.62482 348.61021 L 743.70893 348.61021 L 744.75176 350.41578 L 743.70893 352.22084 L 741.62482 352.22084 L 740.58199 350.41578 z M 740.58199 322.79524 L 741.62482 320.98915 L 743.70893 320.98915 L 744.75176 322.79524 L 743.70893 324.59978 L 741.62482 324.59978 L 740.58199 322.79524 z M 740.58302 336.60525 L 741.62482 334.8002 L 743.70893 334.8002 L 744.75176 336.60525 L 743.70893 338.40979 L 741.62482 338.40979 L 740.58302 336.60525 z "
     transform="rotate(90,650,450)" />
  <path
     id="polyline64"
     style="stroke-width:0.26458333;stroke-dasharray:none;vector-effect:non-scaling-stroke;-inkscape-stroke:hairline;fill:none;stroke:#000000;stroke-opacity:1"
     d="M 403.02998 354.93178 L 408.23018 354.93178 L 408.23018 364.27178 L 579.88017 364.27178 L 579.88017 354.93178 L 585.07985 354.93178 L 585.07985 345.39076 L 579.88017 345.39076 L 579.88017 336.25075 L 585.07985 336.25075 L 585.07985 326.71077 L 579.88017 326.71077 L 579.88017 317.57076 L 585.07985 317.57076 L 585.07985 308.03025 L 579.88017 308.03025 L 579.88017 298.69025 L 408.23018 298.69025 L 408.23018 308.03025 L 403.02998 308.03025 L 403.02998 317.57076 L 408.23018 317.57076 L 408.23018 326.71077 L 403.02998 326.71077 L 403.02998 336.25075 L 408.23018 336.25075 L 408.23018 345.39076 L 403.02998 345.39076 L 403.02998 354.93178 z M 420.20775 358.44578 L 421.25109 356.64124 L 423.33521 356.64124 L 424.37804 358.44578 L 423.33521 360.25187 L 421.25109 360.25187 L 420.20775 358.44578 z M 420.20775 330.82524 L 421.25109 329.02019 L 423.33521 329.02019 L 424.37804 330.82524 L 423.33521 332.63082 L 421.25109 332.63082 L 420.20775 330.82524 z M 420.20878 344.63577 L 421.25109 342.83123 L 423.33521 342.83123 L 424.37804 344.63577 L 423.33521 346.44083 L 421.25109 346.44083 L 420.20878 344.63577 z M 420.20878 317.01523 L 421.25109 315.21018 L 423.33521 315.21018 L 424.37804 317.01523 L 423.33521 318.81978 L 421.25109 318.81978 L 420.20878 317.01523 z M 432.16877 337.73077 L 433.21212 335.92519 L 435.29623 335.92519 L 436.33906 337.73077 L 435.29623 339.53582 L 433.21212 339.53582 L 432.16877 337.73077 z M 432.16877 310.11023 L 433.21212 308.30414 L 435.29623 308.30414 L 436.33906 310.11023 L 435.29623 311.91477 L 433.21212 311.91477 L 432.16877 310.11023 z M 432.16981 351.54078 L 433.21212 349.73623 L 435.29623 349.73623 L 436.33906 351.54078 L 435.29623 353.34583 L 433.21212 353.34583 L 432.16981 351.54078 z M 432.16981 323.92024 L 433.21212 322.11518 L 435.29623 322.11518 L 436.33906 323.92024 L 435.29623 325.72478 L 433.21212 325.72478 L 432.16981 323.92024 z M 444.12877 358.44578 L 445.17212 356.64124 L 447.25623 356.64124 L 448.29906 358.44578 L 447.25623 360.25187 L 445.17212 360.25187 L 444.12877 358.44578 z M 444.12877 330.82524 L 445.17212 329.02019 L 447.25623 329.02019 L 448.29906 330.82524 L 447.25623 332.63082 L 445.17212 332.63082 L 444.12877 330.82524 z M 444.1298 344.63577 L 445.17212 342.83123 L 447.25623 342.83123 L 448.29906 344.63577 L 447.25623 346.44083 L 445.17212 346.44083 L 444.1298 344.63577 z M 444.1298 317.01523 L 445.17212 315.21018 L 447.25623 315.21018 L 448.29906 317.01523 L 447.25623 318.81978 L 445.17212 318.81978 L 444.1298 317.01523 z M 456.08876 337.73077 L 457.13211 335.92519 L 459.21622 335.92519 L 460.25905 337.73077 L 459.21622 339.53582 L 457.13211 339.53582 L 456.08876 337.73077 z M 456.08876 310.11023 L 457.13211 308.30414 L 459.21622 308.30414 L 460.25905 310.11023 L 459.21622 311.91477 L 457.13211 311.91477 L 456.08876 310.11023 z M 456.08979 351.54078 L 457.13211 349.73623 L 459.21622 349.73623 L 460.25905 351.54078 L 459.21622 353.34583 L 457.13211 353.34583 L 456.08979 351.54078 z M 456.08979 323.92024 L 457.13211 322.11518 L 459.21622 322.11518 L 460.25905 323.92024 L 459.21622 325.72478 L 457.13211 325.72478 L 456.08979 323.92024 z M 468.04875 358.44578 L 469.0921 356.64124 L 471.17621 356.64124 L 472.21904 358.44578 L 471.17621 360.25187 L 469.0921 360.25187 L 468.04875 358.44578 z M 468.04875 330.82524 L 469.0921 329.02019 L 471.17621 329.02019 L 472.21904 330.82524 L 471.17621 332.63082 L 469.0921 332.63082 L 468.04875 330.82524 z M 468.04979 344.63577 L 469.0921 342.83123 L 471.17621 342.83123 L 472.21904 344.63577 L 471.17621 346.44083 L 469.0921 346.44083 L 468.04979 344.63577 z M 468.04979 317.01523 L 469.0921 315.21018 L 471.17621 315.21018 L 472.21904 317.01523 L 471.17621 318.81978 L 469.0921 318.81978 L 468.04979 317.01523 z M 480.00978 337.73077 L 481.05313 335.92519 L 483.13724 335.92519 L 484.18007 337.73077 L 483.13724 339.53582 L 481.05313 339.53582 L 480.00978 337.73077 z M 480.00978 310.11023 L 481.05313 308.30414 L 483.13724 308.30414 L 484.18007 310.11023 L 483.13724 311.91477 L 481.05313 311.91477 L 480.00978 310.11023 z M 480.01082 351.54078 L 481.05313 349.73623 L 483.13724 349.73623 L 484.18007 351.54078 L 483.13724 353.34583 L 481.05313 353.34583 L 480.01082 351.54078 z M 480.01082 323.92024 L 481.05313 322.11518 L 483.13724 322.11518 L 484.18007 323.92024 L 483.13724 325.72478 L 481.05313 325.72478 L 480.01082 323.92024 z M 491.96978 358.44578 L 493.01312 356.64124 L 495.09723 356.64124 L 496.14006 358.44578 L 495.09723 360.25187 L 493.01312 360.25187 L 491.96978 358.44578 z M 491.96978 330.82524 L 493.01312 329.02019 L 495.09723 329.02019 L 496.14006 330.82524 L 495.09723 332.63082 L 493.01312 332.63082 L 491.96978 330.82524 z M 491.97081 344.63577 L 493.01312 342.83123 L 495.09723 342.83123 L 496.14006 344.63577 L 495.09723 346.44083 L 493.01312 346.44083 L 491.97081 344.63577 z M 491.97081 317.01523 L 493.01312 315.21018 L 495.09723 315.21018 L 496.14006 317.01523 L 495.09723 318.81978 L 493.01312 318.81978 L 491.97081 317.01523 z M 503.92977 337.73077 L 504.97312 335.92519 L 507.05723 335.92519 L 508.10006 337.73077 L 507.05723 339.53582 L 504.97312 339.53582 L 503.92977 337.73077 z M 503.92977 310.11023 L 504.97312 308.30414 L 507.05723 308.30414 L 508.10006 310.11023 L 507.05723 311.91477 L 504.97312 311.91477 L 503.92977 310.11023 z M 503.9308 351.54078 L 504.97312 349.73623 L 507.05723 349.73623 L 508.10006 351.54078 L 507.05723 353.34583 L 504.97312 353.34583 L 503.9308 351.54078 z M 503.9308 323.92024 L 504.97312 322.11518 L 507.05723 322.11518 L 508.10006 323.92024 L 507.05723 325.72478 L 504.97312 325.72478 L 503.9308 323.92024 z M 515.8908 358.44578 L 516.93414 356.64124 L 519.01825 356.64124 L 520.06108 358.44578 L 519.01825 360.25187 L 516.93414 360.25187 L 515.8908 358.44578 z M 515.8908 344.63577 L 516.93414 342.83123 L 519.01825 342.83123 L 520.06108 344.63577 L 519.01825 346.44083 L 516.93414 346.44083 L 515.8908 344.63577 z M 515.8908 330.82524 L 516.93414 329.02019 L 519.01825 329.02019 L 520.06108 330.82524 L 519.01825 332.63082 L 516.93414 332.63082 L 515.8908 330.82524 z M 515.8908 317.01523 L 516.93414 315.21018 L 519.01825 315.21018 L 520.06108 317.01523 L 519.01825 318.81978 L 516.93414 318.81978 L 515.8908 317.01523 z M 527.85079 337.73077 L 528.89414 335.92519 L 530.97825 335.92519 L 532.02108 337.73077 L 530.97825 339.53582 L 528.89414 339.53582 L 527.85079 337.73077 z M 527.85079 310.11023 L 528.89414 308.30414 L 530.97825 308.30414 L 532.02108 310.11023 L 530.97825 311.91477 L 528.89414 311.91477 L 527.85079 310.11023 z M 527.85182 351.54078 L 528.89414 349.73623 L 530.97825 349.73623 L 532.02108 351.54078 L 530.97825 353.34583 L 528.89414 353.34583 L 527.85182 351.54078 z M 527.85182 323.92024 L 528.89414 322.11518 L 530.97825 322.11518 L 532.02108 323.92024 L 530.97825 325.72478 L 528.89414 325.72478 L 527.85182 323.92024 z M 539.81078 358.44578 L 540.85413 356.64124 L 542.93824 356.64124 L 543.98107 358.44578 L 542.93824 360.25187 L 540.85413 360.25187 L 539.81078 358.44578 z M 539.81078 330.82524 L 540.85413 329.02019 L 542.93824 329.02019 L 543.98107 330.82524 L 542.93824 332.63082 L 540.85413 332.63082 L 539.81078 330.82524 z M 539.81182 344.63577 L 540.85413 342.83123 L 542.93824 342.83123 L 543.98107 344.63577 L 542.93824 346.44083 L 540.85413 346.44083 L 539.81182 344.63577 z M 539.81182 317.01523 L 540.85413 315.21018 L 542.93824 315.21018 L 543.98107 317.01523 L 542.93824 318.81978 L 540.85413 318.81978 L 539.81182 317.01523 z M 551.77078 337.73077 L 552.81412 335.92519 L 554.89823 335.92519 L 555.94106 337.73077 L 554.89823 339.53582 L 552.81412 339.53582 L 551.77078 337.73077 z M 551.77078 310.11023 L 552.81412 308.30414 L 554.89823 308.30414 L 555.94106 310.11023 L 554.89823 311.91477 L 552.81412 311.91477 L 551.77078 310.11023 z M 551.77181 351.54078 L 552.81412 349.73623 L 554.89823 349.73623 L 555.94106 351.54078 L 554.89823 353.34583 L 552.81412 353.34583 L 551.77181 351.54078 z M 551.77181 323.92024 L 552.81412 322.11518 L 554.89823 322.11518 L 555.94106 323.92024 L 554.89823 325.72478 L 552.81412 325.72478 L 551.77181 323.92024 z M 563.7318 358.44578 L 564.77515 356.64124 L 566.85874 356.64124 L 567.90209 358.44578 L 566.85874 360.25187 L 564.77515 360.25187 L 563.7318 358.44578 z M 563.7318 330.82524 L 564.77515 329.02019 L 566.85874 329.02019 L 567.90209 330.82524 L 566.85874 332.63082 L 564.77515 332.63082 L 563.7318 330.82524 z M 563.73284 344.63577 L 564.77515 342.83123 L 566.85874 342.83123 L 567.90209 344.63577 L 566.85874 346.44083 L 564.77515 346.44083 L 563.73284 344.63577 z M 563.73284 317.01523 L 564.77515 315.21018 L 566.85874 315.21018 L 567.90209 317.01523 L 566.85874 318.81978 L 564.77515 318.81978 L 563.73284 317.01523 z "
     transform="rotate(90,650,450)" />
  <polyline
     z="0"
     points="574.68,591.131 579.88,591.131 579.88,589.212 751.53,589.212 751.53,591.131 756.73,591.131 756.73,601.31 739.998,601.31 739.998,596.11 723.666,596.11 723.666,601.31 706.935,601.31 706.935,596.11 690.603,596.11 690.603,601.31 673.871,601.31 673.871,596.11 657.539,596.11 657.539,601.31 640.807,601.31 640.807,596.11 624.475,596.11 624.475,601.31 607.744,601.31 607.744,596.11 591.412,596.11 591.412,601.31 574.68,601.31 574.68,591.131"
     fill="none"
     stroke="#000000"
     stroke-width="0.1mm"
     id="polyline117"
     transform="rotate(90,650,450)"
     style="stroke-width:0.26458333;stroke-dasharray:none;vector-effect:non-scaling-stroke;-inkscape-stroke:hairline;fill:none;stroke:#000000;stroke-opacity:1" />
  <polyline
     z="0"
     points="714.92,519.51 714.92,504.641 720.12,504.641 720.12,490.173 714.92,490.173 714.92,475.304 896.97,475.304 896.97,490.173 891.77,490.173 891.77,504.641 896.97,504.641 896.97,519.51 880.238,519.51 880.238,514.31 863.906,514.31 863.906,519.51 847.175,519.51 847.175,514.31 830.843,514.31 830.843,519.51 814.111,519.51 814.111,514.31 797.779,514.31 797.779,519.51 781.047,519.51 781.047,514.31 764.715,514.31 764.715,519.51 747.984,519.51 747.984,514.31 731.652,514.31 731.652,519.51 714.92,519.51"
     fill="none"
     stroke="#000000"
     stroke-width="0.1mm"
     id="polyline118"
     transform="rotate(90,650,450)"
     style="stroke-width:0.26458333;stroke-dasharray:none;vector-effect:non-scaling-stroke;-inkscape-stroke:hairline;fill:none;stroke:#000000;stroke-opacity:1" />
</svg>
