<?xml version="1.0" encoding="UTF-8" standalone="no"?>
<svg
   width="1300mm"
   height="900mm"
   viewBox="0 0 1300 900"
   version="1.1"
   id="svg118"
   sodipodi:docname="Driver4x52.svg"
   inkscape:version="1.3.2 (091e20ef0f, 2023-11-25)"
   xmlns:inkscape="http://www.inkscape.org/namespaces/inkscape"
   xmlns:sodipodi="http://sodipodi.sourceforge.net/DTD/sodipodi-0.dtd"
   xmlns="http://www.w3.org/2000/svg"
   xmlns:svg="http://www.w3.org/2000/svg">
  <defs
     id="defs118" />
  <sodipodi:namedview
     id="namedview118"
     pagecolor="#505050"
     bordercolor="#eeeeee"
     borderopacity="1"
     inkscape:showpageshadow="0"
     inkscape:pageopacity="0"
     inkscape:pagecheckerboard="0"
     inkscape:deskcolor="#505050"
     inkscape:document-units="mm"
     inkscape:zoom="0.10966274"
     inkscape:cx="1810.0951"
     inkscape:cy="1782.7385"
     inkscape:window-width="1920"
     inkscape:window-height="1011"
     inkscape:window-x="0"
     inkscape:window-y="32"
     inkscape:window-maximized="1"
     inkscape:current-layer="svg118" />
  <polyline
     z="0"
     points="598.024,347.995 633.055,347.995 642.256,353.108 638.023,360.726 633.477,358.2 633.277,358.56 628.732,356.034 624.492,363.663 628.862,366.092 629.263,365.37 633.983,367.993 629.75,375.611 625.205,373.085 624.604,374.167 620.058,371.641 615.819,379.27 620.189,381.699 620.991,380.255 625.711,382.878 621.478,390.496 616.933,387.97 615.93,389.774 611.385,387.248 607.145,394.877 611.516,397.306 612.719,395.14 617.439,397.763 613.226,405.345 598.024,405.345 598.024,347.995"
     fill="none"
     stroke="#000000"
     stroke-width="0.1mm"
     id="polyline113"
     style="vector-effect:non-scaling-stroke;stroke-width:0.264583;stroke-dasharray:none;-inkscape-stroke:hairline"
     transform="rotate(90,647.3784,292.34336)" />
  <polyline
     z="0"
     points="657.744,571.039 666.945,565.926 701.976,565.926 701.976,623.276 686.774,623.276 682.561,615.694 687.281,613.071 688.484,615.237 692.855,612.808 688.615,605.179 684.07,607.704 683.067,605.9 678.522,608.427 674.289,600.809 679.009,598.186 679.811,599.63 684.181,597.201 679.942,589.571 675.396,592.098 674.795,591.016 670.25,593.542 666.017,585.924 670.737,583.301 671.138,584.023 675.508,581.594 671.268,573.965 666.723,576.491 666.523,576.13 661.977,578.656 657.744,571.039"
     fill="none"
     stroke="#000000"
     stroke-width="0.1mm"
     id="polyline116"
     style="vector-effect:non-scaling-stroke;stroke-width:0.264583;stroke-dasharray:none;-inkscape-stroke:hairline"
     transform="rotate(90,741.29588,326.54084)" />
  <polyline
     z="0"
     points="598.024,347.995 633.055,347.995 642.256,353.108 638.023,360.726 633.477,358.2 633.277,358.56 628.732,356.034 624.492,363.663 628.862,366.092 629.263,365.37 633.983,367.993 629.75,375.611 625.205,373.085 624.604,374.167 620.058,371.641 615.819,379.27 620.189,381.699 620.991,380.255 625.711,382.878 621.478,390.496 616.933,387.97 615.93,389.774 611.385,387.248 607.145,394.877 611.516,397.306 612.719,395.14 617.439,397.763 613.226,405.345 598.024,405.345 598.024,347.995"
     fill="none"
     stroke="#000000"
     stroke-width="0.1mm"
     id="polyline113-5"
     style="vector-effect:non-scaling-stroke;stroke-width:0.264583;stroke-dasharray:none;-inkscape-stroke:hairline"
     transform="rotate(-90,519.58034,365.66462)" />
  <polyline
     z="0"
     points="657.744,571.039 666.945,565.926 701.976,565.926 701.976,623.276 686.774,623.276 682.561,615.694 687.281,613.071 688.484,615.237 692.855,612.808 688.615,605.179 684.07,607.704 683.067,605.9 678.522,608.427 674.289,600.809 679.009,598.186 679.811,599.63 684.181,597.201 679.942,589.571 675.396,592.098 674.795,591.016 670.25,593.542 666.017,585.924 670.737,583.301 671.138,584.023 675.508,581.594 671.268,573.965 666.723,576.491 666.523,576.13 661.977,578.656 657.744,571.039"
     fill="none"
     stroke="#000000"
     stroke-width="0.1mm"
     id="polyline116-6"
     style="vector-effect:non-scaling-stroke;stroke-width:0.264583;stroke-dasharray:none;-inkscape-stroke:hairline"
     transform="rotate(-90,395.56682,549.39814)" />
  <path
     id="polyline6"
     style="vector-effect:non-scaling-stroke;fill:none;stroke:#000000;stroke-width:0.264583;-inkscape-stroke:hairline"
     d="m 824.72132,626.15104 -7.99,4.44 -2.429,-4.37 7.99,-4.44001 2.429,4.37001 m 16.328,-9.074 -7.989,4.44 -2.429,-4.37 7.989,-4.44 2.429,4.37 m 16.329,-9.074 -7.99,4.44 -2.429,-4.371 7.99,-4.44 2.429,4.371 m 5.874,8.894 v -9.779 h 5 v 9.779 h -5 m -62.836,4.914 62.836,-34.92 v 10.049 h 5 v -9.979 h 14.05 v 14.669 h 5.2 v 14.868 h -5.2 v 14.469 h 5.603 l -5.33,2.208 -14.123,-14.123 v 8.023 h -5.2 v 9.779 h 5.2 v 10.178 h -5.2 v 4.779 h -12.47 v 5.2 h -12.67 v -5.2 h -12.27 v 5.2 h -12.67 v -5.2 h -7.27 v -10 h -5.2 v -10.2 h 5.2 v -9.8 h -5.486" />
  <path
     id="polyline112"
     style="vector-effect:non-scaling-stroke;fill:none;stroke:#000000;stroke-width:0.264583;-inkscape-stroke:hairline"
     d="m 737.80432,568.85056 -2.429,4.37001 -7.99,-4.44 2.429,-4.37001 7.99,4.44 m 16.328,9.07401 -2.429,4.36999 -7.989,-4.44 2.429,-4.37 7.989,4.44001 m 16.329,9.07399 -2.429,4.371 -7.99,-4.44 2.429,-4.371 7.99,4.44 m 5.874,-8.894 h 5 v 9.779 h -5 v -9.779 m -62.55,-24.914 h 5.2 v -10 h 7.27 v -5.2 h 12.67 v 5.2 h 12.27 v -5.2 h 12.67 v 5.2 h 12.47 v 4.779 h 5.2 v 10.178 h -5.2 v 9.779 h 5.2 v 8.023 l 14.122,-14.123 5.331,2.208 h -5.603 v 14.469 h 5.2 v 14.868 h -5.2 v 14.66901 h -14.05 v -9.97901 h -5 v 10.049 l -62.836,-34.92 h 5.486 v -9.8 h -5.2 v -10.2" />
  <path
     id="polyline6-9"
     style="vector-effect:non-scaling-stroke;fill:none;stroke:#000000;stroke-width:0.264583;-inkscape-stroke:hairline"
     d="m 863.60032,568.85056 7.99,-4.44 2.429,4.37001 -7.99,4.44 -2.429,-4.37001 m -16.328,9.07401 7.989,-4.44001 2.429,4.37 -7.989,4.44 -2.429,-4.36999 m -16.329,9.07399 7.99,-4.44 2.429,4.371 -7.99,4.44 -2.429,-4.371 m -5.874,-8.894 v 9.779 h -5 v -9.779 h 5 m 62.836,-4.914 -62.836,34.92 v -10.049 h -5 v 9.97901 h -14.05 v -14.66901 h -5.2 v -14.868 h 5.2 v -14.469 h -5.603 l 5.33,-2.208 14.123,14.123 v -8.023 h 5.2 v -9.779 h -5.2 v -10.178 h 5.2 v -4.779 h 12.47 v -5.2 h 12.67 v 5.2 h 12.27 v -5.2 h 12.67 v 5.2 h 7.27 v 10 h 5.2 v 10.2 h -5.2 v 9.8 h 5.486" />
  <path
     id="polyline112-3"
     style="vector-effect:non-scaling-stroke;fill:none;stroke:#000000;stroke-width:0.264583;-inkscape-stroke:hairline"
     d="m 776.68332,626.15104 2.429,-4.37001 7.99,4.44001 -2.429,4.37 -7.99,-4.44 m -16.328,-9.074 2.429,-4.37 7.989,4.44 -2.429,4.37 -7.989,-4.44 m -16.329,-9.074 2.429,-4.371 7.99,4.44 -2.429,4.371 -7.99,-4.44 m -5.874,8.894 h -5 v -9.779 h 5 v 9.779 m 62.55,24.914 h -5.2 v 10 h -7.27 v 5.2 h -12.67 v -5.2 h -12.27 v 5.2 h -12.67 v -5.2 h -12.47 v -4.779 h -5.2 v -10.178 h 5.2 v -9.779 h -5.2 v -8.023 l -14.122,14.123 -5.331,-2.208 h 5.603 v -14.469 h -5.2 v -14.868 h 5.2 v -14.669 h 14.05 v 9.979 h 5 v -10.049 l 62.836,34.92 h -5.486 v 9.8 h 5.2 v 10.2" />
  <polyline
     z="0"
     points="415.974,642.526 415.974,628.476 427.306,628.476 427.306,623.276 444.038,623.276 444.038,628.476 460.369,628.476 460.369,623.276 477.101,623.276 477.101,628.476 493.433,628.476 493.433,623.276 510.165,623.276 510.165,628.476 526.497,628.476 526.497,623.276 543.229,623.276 543.229,628.476 559.56,628.476 559.56,623.276 576.292,623.276 576.292,628.476 587.624,628.476 587.624,642.526 576.292,642.526 576.292,647.726 559.56,647.726 559.56,642.526 543.229,642.526 543.229,647.726 526.497,647.726 526.497,642.526 510.165,642.526 510.165,647.726 493.433,647.726 493.433,642.526 477.101,642.526 477.101,647.726 460.369,647.726 460.369,642.526 444.038,642.526 444.038,647.726 427.306,647.726 427.306,642.526 415.974,642.526"
     fill="none"
     stroke="#000000"
     stroke-width="0.1mm"
     id="polyline1"
     style="vector-effect:non-scaling-stroke;stroke-width:0.264583;stroke-dasharray:none;-inkscape-stroke:hairline"
     transform="rotate(-90,331.83182,543.01314)" />
  <polyline
     z="0"
     points="415.974,642.526 415.974,628.476 427.306,628.476 427.306,623.276 444.038,623.276 444.038,628.476 460.369,628.476 460.369,623.276 477.101,623.276 477.101,628.476 493.433,628.476 493.433,623.276 510.165,623.276 510.165,628.476 526.497,628.476 526.497,623.276 543.229,623.276 543.229,628.476 559.56,628.476 559.56,623.276 576.292,623.276 576.292,628.476 587.624,628.476 587.624,642.526 576.292,642.526 576.292,647.726 559.56,647.726 559.56,642.526 543.229,642.526 543.229,647.726 526.497,647.726 526.497,642.526 510.165,642.526 510.165,647.726 493.433,647.726 493.433,642.526 477.101,642.526 477.101,647.726 460.369,647.726 460.369,642.526 444.038,642.526 444.038,647.726 427.306,647.726 427.306,642.526 415.974,642.526"
     fill="none"
     stroke="#000000"
     stroke-width="0.1mm"
     id="polyline1-7"
     style="vector-effect:non-scaling-stroke;stroke-width:0.264583;stroke-dasharray:none;-inkscape-stroke:hairline"
     transform="rotate(90,508.46186,551.35882)" />
  <polyline
     z="0"
     points="486.094,596.494 486.094,587.366 491.294,587.366 491.294,578.639 486.094,578.639 486.094,569.511 491.294,569.511 491.294,560.584 652.544,560.584 652.544,569.511 657.744,569.511 657.744,578.639 652.544,578.639 652.544,587.366 657.744,587.366 657.744,596.494 652.544,596.494 652.544,605.221 657.744,605.221 657.744,614.349 652.544,614.349 652.544,623.276 491.294,623.276 491.294,614.349 486.094,614.349 486.094,605.221 491.294,605.221 491.294,596.494 486.094,596.494"
     fill="none"
     stroke="#000000"
     stroke-width="0.1mm"
     id="polyline7"
     style="vector-effect:non-scaling-stroke;stroke-width:0.264583;stroke-dasharray:none;-inkscape-stroke:hairline"
     transform="rotate(180,685.76466,549.28728)" />
  <path
     id="polyline54"
     style="vector-effect:non-scaling-stroke;fill:none;stroke:#000000;stroke-width:0.264583;-inkscape-stroke:hairline"
     d="m 858.95132,420.49003 1.168,-2.022 h 2.334 l 1.168,2.022 -1.168,2.02199 h -2.334 l -1.168,-2.02199 m -24.67,0 1.168,-2.022 h 2.334 l 1.168,2.022 -1.168,2.02199 h -2.334 l -1.168,-2.02199 m -24.671,0 1.168,-2.022 h 2.334 l 1.168,2.022 -1.168,2.02199 h -2.334 l -1.168,-2.02199 m -24.67,0 1.168,-2.022 h 2.334 l 1.168,2.022 -1.168,2.02199 h -2.334 l -1.168,-2.02199 m -24.671,0 1.168,-2.022 h 2.334 l 1.168,2.022 -1.168,2.02199 h -2.334 l -1.168,-2.02199 m -20,0 -1.168,2.02199 h -2.334 l -1.168,-2.02199 1.168,-2.022 h 2.334 l 1.168,2.022 m 131.018,7.122 1.168,-2.022 h 2.334 l 1.168,2.022 -1.168,2.022 h -2.334 l -1.168,-2.022 m -24.671,0 1.168,-2.022 h 2.334 l 1.168,2.022 -1.168,2.022 h -2.334 l -1.168,-2.022 m -24.67,0 1.168,-2.022 h 2.334 l 1.168,2.022 -1.168,2.022 h -2.334 l -1.168,-2.022 m -24.671,0 1.168,-2.022 h 2.334 l 1.168,2.022 -1.168,2.022 h -2.334 l -1.168,-2.022 m -24.671,0 1.168,-2.022 h 2.334 l 1.168,2.022 -1.168,2.022 h -2.334 l -1.168,-2.022 m -24.67,0 1.168,-2.022 h 2.334 l 1.168,2.022 -1.168,2.022 h -2.334 l -1.168,-2.022 m -20.001,0 -1.168,2.022 h -2.334 l -1.168,-2.022 1.168,-2.022 h 2.334 l 1.168,2.022 m 131.018,7.122 1.168,-2.022 h 2.334 l 1.168,2.022 -1.168,2.021 h -2.334 l -1.168,-2.021 m -24.67,0 1.168,-2.022 h 2.334 l 1.168,2.022 -1.168,2.021 h -2.334 l -1.168,-2.021 m -24.671,0 1.168,-2.022 h 2.334 l 1.168,2.022 -1.168,2.021 h -2.334 l -1.168,-2.021 m -24.67,0 1.168,-2.022 h 2.334 l 1.168,2.022 -1.168,2.021 h -2.334 l -1.168,-2.021 m -24.671,0 1.168,-2.022 h 2.334 l 1.168,2.022 -1.168,2.021 h -2.334 l -1.168,-2.021 m -20,0 -1.168,2.021 h -2.334 l -1.168,-2.021 1.168,-2.022 h 2.334 l 1.168,2.022 m 131.018,7.121 1.168,-2.02101 h 2.334 l 1.168,2.02101 -1.168,2.022 h -2.334 l -1.168,-2.022 m -24.671,0 1.168,-2.02101 h 2.334 l 1.168,2.02101 -1.168,2.022 h -2.334 l -1.168,-2.022 m -24.67,0 1.168,-2.02101 h 2.334 l 1.168,2.02101 -1.168,2.022 h -2.334 l -1.168,-2.022 m -24.671,0 1.168,-2.02101 h 2.334 l 1.168,2.02101 -1.168,2.022 h -2.334 l -1.168,-2.022 m -24.671,0 1.168,-2.02101 h 2.334 l 1.168,2.02101 -1.168,2.022 h -2.334 l -1.168,-2.022 m -24.67,0 1.168,-2.02101 h 2.334 l 1.168,2.02101 -1.168,2.022 h -2.334 l -1.168,-2.022 m -20.001,0 -1.168,2.022 h -2.334 l -1.168,-2.022 1.168,-2.02101 h 2.334 l 1.168,2.02101 m 131.018,7.122 1.168,-2.022 h 2.334 l 1.168,2.022 -1.168,2.022 h -2.334 l -1.168,-2.022 m -24.67,0 1.168,-2.022 h 2.334 l 1.168,2.022 -1.168,2.022 h -2.334 l -1.168,-2.022 m -24.671,0 1.168,-2.022 h 2.334 l 1.168,2.022 -1.168,2.022 h -2.334 l -1.168,-2.022 m -24.67,0 1.168,-2.022 h 2.334 l 1.168,2.022 -1.168,2.022 h -2.334 l -1.168,-2.022 m -24.671,0 1.168,-2.022 h 2.334 l 1.168,2.022 -1.168,2.022 h -2.334 l -1.168,-2.022 m -20,0 -1.168,2.022 h -2.334 l -1.168,-2.022 1.168,-2.022 h 2.334 l 1.168,2.022 m 131.018,7.122 1.168,-2.022 h 2.334 l 1.168,2.022 -1.168,2.022 h -2.334 l -1.168,-2.022 m -24.671,0 1.168,-2.022 h 2.334 l 1.168,2.022 -1.168,2.022 h -2.334 l -1.168,-2.022 m -24.67,0 1.168,-2.022 h 2.334 l 1.168,2.022 -1.168,2.022 h -2.334 l -1.168,-2.022 m -24.671,0 1.168,-2.022 h 2.334 l 1.168,2.022 -1.168,2.022 h -2.334 l -1.168,-2.022 m -24.671,0 1.168,-2.022 h 2.334 l 1.168,2.022 -1.168,2.022 h -2.334 l -1.168,-2.022 m -24.67,0 1.168,-2.022 h 2.334 l 1.168,2.022 -1.168,2.022 h -2.334 l -1.168,-2.022 m -20.001,0 -1.168,2.022 h -2.334 l -1.168,-2.022 1.168,-2.022 h 2.334 l 1.168,2.022 m 131.018,7.122 1.168,-2.022 h 2.334 l 1.168,2.022 -1.168,2.021 h -2.334 l -1.168,-2.021 m -24.67,0 1.168,-2.022 h 2.334 l 1.168,2.022 -1.168,2.021 h -2.334 l -1.168,-2.021 m -24.671,0 1.168,-2.022 h 2.334 l 1.168,2.022 -1.168,2.021 h -2.334 l -1.168,-2.021 m -24.67,0 1.168,-2.022 h 2.334 l 1.168,2.022 -1.168,2.021 h -2.334 l -1.168,-2.021 m -24.671,0 1.168,-2.022 h 2.334 l 1.168,2.022 -1.168,2.021 h -2.334 l -1.168,-2.021 m -21.168,-2.022 1.168,2.022 -1.168,2.021 h -2.334 l -1.168,-2.021 1.168,-2.022 h 2.334 m 83.285,-48.593 -0.44,0.762 1.168,2.022 h 2.334 l 1.167,-2.022 -0.44,-0.762 h 20.882 l -0.441,0.762 1.168,2.022 h 2.334 l 1.168,-2.022 -0.44,-0.762 h 20.881 l -0.44,0.762 1.168,2.022 h 2.334 l 1.167,-2.022 -0.44,-0.762 h 9.919 v 3.09 h -5.2 v 8.314 h 5.2 v 8.715 h -5.2 v 8.315 h 5.2 v 8.714 h -5.2 v 8.315 h 5.2 v 8.71499 h -5.2 v 8.514 h -161.25 v -8.514 h -5.2 v -8.71499 h 5.2 v -8.315 h -5.2 v -8.714 h 5.2 v -8.315 h -5.2 v -8.715 h 5.2 v -8.314 h -5.2 v -3.09 h 9.919 l -0.441,0.762 1.168,2.022 h 2.334 l 1.168,-2.022 -0.44,-0.762 h 20.881 l -0.44,0.762 1.168,2.022 h 2.334 l 1.167,-2.022 -0.44,-0.762 h 20.882 l -0.441,0.762 1.168,2.022 h 2.334 l 1.168,-2.022 -0.44,-0.762 h 20.881 l -0.44,0.762 1.168,2.022 h 2.334 l 1.168,-2.022 -0.44,-0.762 h 20.881" />
  <polyline
     z="0"
     points="486.094,596.494 486.094,587.366 491.294,587.366 491.294,578.639 486.094,578.639 486.094,569.511 491.294,569.511 491.294,560.584 652.544,560.584 652.544,569.511 657.744,569.511 657.744,578.639 652.544,578.639 652.544,587.366 657.744,587.366 657.744,596.494 652.544,596.494 652.544,605.221 657.744,605.221 657.744,614.349 652.544,614.349 652.544,623.276 491.294,623.276 491.294,614.349 486.094,614.349 486.094,605.221 491.294,605.221 491.294,596.494 486.094,596.494"
     fill="none"
     stroke="#000000"
     stroke-width="0.1mm"
     id="polyline7-4"
     style="vector-effect:non-scaling-stroke;stroke-width:0.264583;stroke-dasharray:none;-inkscape-stroke:hairline"
     transform="translate(227.69132,-273.36303)" />
  <path
     id="polyline54-2"
     style="vector-effect:non-scaling-stroke;fill:none;stroke:#000000;stroke-width:0.264583;-inkscape-stroke:hairline"
     d="m 740.26931,404.7215 -1.168,2.022 h -2.334 l -1.168,-2.022 1.168,-2.022 h 2.334 l 1.168,2.022 m 24.67,0 -1.168,2.022 h -2.334 l -1.168,-2.022 1.168,-2.022 h 2.334 l 1.168,2.022 m 24.671,0 -1.168,2.022 h -2.334 l -1.168,-2.022 1.168,-2.022 h 2.334 l 1.168,2.022 m 24.67,0 -1.168,2.022 h -2.334 l -1.168,-2.022 1.168,-2.022 h 2.334 l 1.168,2.022 m 24.671,0 -1.168,2.022 h -2.334 l -1.168,-2.022 1.168,-2.022 h 2.334 l 1.168,2.022 m 20,0 1.168,-2.022 h 2.334 l 1.168,2.022 -1.168,2.022 h -2.334 l -1.168,-2.022 m -131.018,-7.122 -1.168,2.022 h -2.334 l -1.168,-2.022 1.168,-2.022 h 2.334 l 1.168,2.022 m 24.671,0 -1.168,2.022 h -2.334 l -1.168,-2.022 1.168,-2.022 h 2.334 l 1.168,2.022 m 24.67,0 -1.168,2.022 h -2.334 l -1.168,-2.022 1.168,-2.022 h 2.334 l 1.168,2.022 m 24.671,0 -1.168,2.022 h -2.334 l -1.168,-2.022 1.168,-2.022 h 2.334 l 1.168,2.022 m 24.671,0 -1.168,2.022 h -2.334 l -1.168,-2.022 1.168,-2.022 h 2.334 l 1.168,2.022 m 24.67,0 -1.168,2.022 h -2.334 l -1.168,-2.022 1.168,-2.022 h 2.334 l 1.168,2.022 m 20.001,0 1.168,-2.022 h 2.334 l 1.168,2.022 -1.168,2.022 h -2.334 l -1.168,-2.022 m -131.018,-7.122 -1.168,2.022 h -2.334 l -1.168,-2.022 1.168,-2.021 h 2.334 l 1.168,2.021 m 24.67,0 -1.168,2.022 h -2.334 l -1.168,-2.022 1.168,-2.021 h 2.334 l 1.168,2.021 m 24.671,0 -1.168,2.022 h -2.334 l -1.168,-2.022 1.168,-2.021 h 2.334 l 1.168,2.021 m 24.67,0 -1.168,2.022 h -2.334 l -1.168,-2.022 1.168,-2.021 h 2.334 l 1.168,2.021 m 24.671,0 -1.168,2.022 h -2.334 l -1.168,-2.022 1.168,-2.021 h 2.334 l 1.168,2.021 m 20,0 1.168,-2.021 h 2.334 l 1.168,2.021 -1.168,2.022 h -2.334 l -1.168,-2.022 m -131.018,-7.121 -1.168,2.021 h -2.334 l -1.168,-2.021 1.168,-2.022 h 2.334 l 1.168,2.022 m 24.671,0 -1.168,2.021 h -2.334 l -1.168,-2.021 1.168,-2.022 h 2.334 l 1.168,2.022 m 24.67,0 -1.168,2.021 h -2.334 l -1.168,-2.021 1.168,-2.022 h 2.334 l 1.168,2.022 m 24.671,0 -1.168,2.021 h -2.334 l -1.168,-2.021 1.168,-2.022 h 2.334 l 1.168,2.022 m 24.671,0 -1.168,2.021 h -2.334 l -1.168,-2.021 1.168,-2.022 h 2.334 l 1.168,2.022 m 24.67,0 -1.168,2.021 h -2.334 l -1.168,-2.021 1.168,-2.022 h 2.334 l 1.168,2.022 m 20.001,0 1.168,-2.022 h 2.334 l 1.168,2.022 -1.168,2.021 h -2.334 l -1.168,-2.021 m -131.018,-7.122 -1.168,2.022 h -2.334 l -1.168,-2.022 1.168,-2.022 h 2.334 l 1.168,2.022 m 24.67,0 -1.168,2.022 h -2.334 l -1.168,-2.022 1.168,-2.022 h 2.334 l 1.168,2.022 m 24.671,0 -1.168,2.022 h -2.334 l -1.168,-2.022 1.168,-2.022 h 2.334 l 1.168,2.022 m 24.67,0 -1.168,2.022 h -2.334 l -1.168,-2.022 1.168,-2.022 h 2.334 l 1.168,2.022 m 24.671,0 -1.168,2.022 h -2.334 l -1.168,-2.022 1.168,-2.022 h 2.334 l 1.168,2.022 m 20,0 1.168,-2.022 h 2.334 l 1.168,2.022 -1.168,2.022 h -2.334 l -1.168,-2.022 m -131.018,-7.122 -1.168,2.022 h -2.334 l -1.168,-2.022 1.168,-2.022 h 2.334 l 1.168,2.022 m 24.671,0 -1.168,2.022 h -2.334 l -1.168,-2.022 1.168,-2.022 h 2.334 l 1.168,2.022 m 24.67,0 -1.168,2.022 h -2.334 l -1.168,-2.022 1.168,-2.022 h 2.334 l 1.168,2.022 m 24.671,0 -1.168,2.022 h -2.334 l -1.168,-2.022 1.168,-2.022 h 2.334 l 1.168,2.022 m 24.671,0 -1.168,2.022 h -2.334 l -1.168,-2.022 1.168,-2.022 h 2.334 l 1.168,2.022 m 24.67,0 -1.168,2.022 h -2.334 l -1.168,-2.022 1.168,-2.022 h 2.334 l 1.168,2.022 m 20.001,0 1.168,-2.022 h 2.334 l 1.168,2.022 -1.168,2.022 h -2.334 l -1.168,-2.022 m -131.018,-7.122 -1.168,2.022 h -2.334 l -1.168,-2.022 1.168,-2.021 h 2.334 l 1.168,2.021 m 24.67,0 -1.168,2.022 h -2.334 l -1.168,-2.022 1.168,-2.021 h 2.334 l 1.168,2.021 m 24.671,0 -1.168,2.022 h -2.334 l -1.168,-2.022 1.168,-2.021 h 2.334 l 1.168,2.021 m 24.67,0 -1.168,2.022 h -2.334 l -1.168,-2.022 1.168,-2.021 h 2.334 l 1.168,2.021 m 24.671,0 -1.168,2.022 h -2.334 l -1.168,-2.022 1.168,-2.021 h 2.334 l 1.168,2.021 m 21.168,2.022 -1.168,-2.022 1.168,-2.021 h 2.334 l 1.168,2.021 -1.168,2.022 h -2.334 m -83.285,48.593 0.44,-0.762 -1.168,-2.022 h -2.334 l -1.167,2.022 0.44,0.762 h -20.882 l 0.441,-0.762 -1.168,-2.022 h -2.33399 l -1.168,2.022 0.44,0.762 h -20.881 l 0.44,-0.762 -1.168,-2.022 h -2.334 l -1.167,2.022 0.44,0.762 h -9.919 v -3.09 h 5.2 v -8.314 h -5.2 v -8.715 h 5.2 v -8.315 h -5.2 v -8.714 h 5.2 v -8.315 h -5.2 v -8.715 h 5.2 v -8.514 h 161.25 v 8.514 h 5.2 v 8.715 h -5.2 v 8.315 h 5.2 v 8.714 h -5.2 v 8.315 h 5.2 v 8.715 h -5.2 v 8.314 h 5.2 v 3.09 h -9.919 l 0.441,-0.762 -1.168,-2.022 h -2.334 l -1.168,2.022 0.44,0.762 h -20.881 l 0.44,-0.762 -1.168,-2.022 h -2.334 l -1.167,2.022 0.44,0.762 h -20.882 l 0.441,-0.762 -1.168,-2.022 h -2.334 l -1.168,2.022 0.44,0.762 h -20.881 l 0.44,-0.762 -1.168,-2.022 h -2.334 l -1.168,2.022 0.44,0.762 h -20.881" />
  <polyline
     z="0"
     points="482.101,535.787 482.101,530.587 465.769,530.587 465.769,535.787 449.038,535.787 449.038,530.587 432.706,530.587 432.706,535.787 415.974,535.787 415.974,523.117 421.174,523.117 421.174,510.847 415.974,510.847 415.974,498.177 421.174,498.177 421.174,485.907 415.974,485.907 415.974,473.237 432.506,473.237 432.506,468.037 449.238,468.037 449.238,473.237 465.569,473.237 465.569,468.037 482.301,468.037 482.301,473.237 498.633,473.237 498.633,468.037 515.365,468.037 515.365,473.237 531.697,473.237 531.697,468.037 548.429,468.037 548.429,473.237 564.76,473.237 564.76,468.037 581.492,468.037 581.492,473.237 598.024,473.237 598.024,485.907 592.824,485.907 592.824,498.177 598.024,498.177 598.024,510.847 592.824,510.847 592.824,523.117 598.024,523.117 598.024,535.787 581.292,535.787 581.292,530.587 564.96,530.587 564.96,535.787 548.229,535.787 548.229,530.587 531.897,530.587 531.897,535.787 515.165,535.787 515.165,530.587 498.833,530.587 498.833,535.787 482.101,535.787"
     fill="none"
     stroke="#000000"
     stroke-width="0.1mm"
     id="polyline8"
     style="vector-effect:non-scaling-stroke;stroke-width:0.264583;stroke-dasharray:none;-inkscape-stroke:hairline"
     transform="rotate(-90,459.66758,425.57738)" />
  <path
     id="polyline107"
     style="vector-effect:non-scaling-stroke;fill:none;stroke:#000000;stroke-width:0.264583;-inkscape-stroke:hairline"
     d="m 443.08668,306.56896 -2.022,-1.168 v -2.334 l 2.022,-1.168 2.022,1.168 v 2.334 l -2.022,1.168 m 0,24.671 -2.022,-1.168 v -2.334 l 2.022,-1.168 2.022,1.168 v 2.334 l -2.022,1.168 m 0,24.67001 -2.022,-1.16801 v -2.334 l 2.022,-1.168 2.022,1.168 v 2.334 l -2.022,1.16801 m 0,24.67099 -2.022,-1.168 v -2.334 l 2.022,-1.168 2.022,1.168 v 2.334 l -2.022,1.168 m 0,24.671 -2.022,-1.168 v -2.334 l 2.022,-1.168 2.022,1.168 v 2.334 l -2.022,1.168 m 0,24.67001 -2.022,-1.16801 v -2.334 l 2.022,-1.168 2.022,1.168 v 2.334 l -2.022,1.16801 m 0,20.00099 2.022,1.168 v 2.334 l -2.022,1.168 -2.022,-1.168 v -2.334 l 2.022,-1.168 m 7.122,-131.01799 -2.022,-1.16801 v -2.334 l 2.022,-1.168 2.022,1.168 v 2.334 l -2.022,1.16801 m 0,24.67 -2.022,-1.168 v -2.334 l 2.022,-1.168 2.022,1.168 v 2.334 l -2.022,1.168 m 0,24.671 -2.022,-1.168 v -2.334 l 2.022,-1.16801 2.022,1.16801 v 2.334 l -2.022,1.168 m 0,24.67 -2.022,-1.168 v -2.334 l 2.022,-1.168 2.022,1.168 v 2.334 l -2.022,1.168 m 0,24.671 -2.022,-1.168 v -2.334 l 2.022,-1.168 2.022,1.168 v 2.334 l -2.022,1.168 m 0,20 2.022,1.168 v 2.334 l -2.022,1.168 -2.022,-1.168 v -2.334 l 2.022,-1.168 m 7.122,-131.01801 -2.022,-1.168 v -2.334 l 2.022,-1.168 2.021,1.168 v 2.334 l -2.021,1.168 m 0,24.671 -2.022,-1.168 v -2.334 l 2.022,-1.168 2.021,1.168 v 2.334 l -2.021,1.168 m 0,24.67001 -2.022,-1.16801 v -2.334 l 2.022,-1.168 2.021,1.168 v 2.334 l -2.021,1.16801 m 0,24.67099 -2.022,-1.168 v -2.334 l 2.022,-1.168 2.021,1.168 v 2.334 l -2.021,1.168 m 0,24.671 -2.022,-1.168 v -2.334 l 2.022,-1.168 2.021,1.168 v 2.334 l -2.021,1.168 m 0,24.67001 -2.022,-1.16801 v -2.334 l 2.022,-1.168 2.021,1.168 v 2.334 l -2.021,1.16801 m 0,20.00099 2.021,1.168 v 2.334 l -2.021,1.168 -2.022,-1.168 v -2.334 l 2.022,-1.168 m 7.121,-131.01799 -2.021,-1.16801 v -2.334 l 2.021,-1.168 2.022,1.168 v 2.334 l -2.022,1.16801 m 0,24.67 -2.021,-1.168 v -2.334 l 2.021,-1.168 2.022,1.168 v 2.334 l -2.022,1.168 m 0,24.671 -2.021,-1.168 v -2.334 l 2.021,-1.16801 2.022,1.16801 v 2.334 l -2.022,1.168 m 0,24.67 -2.021,-1.168 v -2.334 l 2.021,-1.168 2.022,1.168 v 2.334 l -2.022,1.168 m 0,24.671 -2.021,-1.168 v -2.334 l 2.021,-1.168 2.022,1.168 v 2.334 l -2.022,1.168 m 0,20 2.022,1.168 v 2.334 l -2.022,1.168 -2.021,-1.168 v -2.334 l 2.021,-1.168 m 7.122,-131.01801 -2.022,-1.168 v -2.334 l 2.022,-1.168 2.022,1.168 v 2.334 l -2.022,1.168 m 0,24.671 -2.022,-1.168 v -2.334 l 2.022,-1.168 2.022,1.168 v 2.334 l -2.022,1.168 m 0,24.67001 -2.022,-1.16801 v -2.334 l 2.022,-1.168 2.022,1.168 v 2.334 l -2.022,1.16801 m 0,24.67099 -2.022,-1.168 v -2.334 l 2.022,-1.168 2.022,1.168 v 2.334 l -2.022,1.168 m 0,24.671 -2.022,-1.168 v -2.334 l 2.022,-1.168 2.022,1.168 v 2.334 l -2.022,1.168 m 0,24.67001 -2.022,-1.16801 v -2.334 l 2.022,-1.168 2.022,1.168 v 2.334 l -2.022,1.16801 m 0,20.00099 2.022,1.168 v 2.334 l -2.022,1.168 -2.022,-1.168 v -2.334 l 2.022,-1.168 m 7.122,-131.01799 -2.022,-1.16801 v -2.334 l 2.022,-1.168 2.022,1.168 v 2.334 l -2.022,1.16801 m 0,24.67 -2.022,-1.168 v -2.334 l 2.022,-1.168 2.022,1.168 v 2.334 l -2.022,1.168 m 0,24.671 -2.022,-1.168 v -2.334 l 2.022,-1.16801 2.022,1.16801 v 2.334 l -2.022,1.168 m 0,24.67 -2.022,-1.168 v -2.334 l 2.022,-1.168 2.022,1.168 v 2.334 l -2.022,1.168 m 0,24.671 -2.022,-1.168 v -2.334 l 2.022,-1.168 2.022,1.168 v 2.334 l -2.022,1.168 m 0,20 2.022,1.168 v 2.334 l -2.022,1.168 -2.022,-1.168 v -2.334 l 2.022,-1.168 m 7.122,-131.01801 -2.022,-1.168 v -2.334 l 2.022,-1.168 2.021,1.168 v 2.334 l -2.021,1.168 m 0,24.671 -2.022,-1.168 v -2.334 l 2.022,-1.168 2.021,1.168 v 2.334 l -2.021,1.168 m 0,24.67001 -2.022,-1.16801 v -2.334 l 2.022,-1.168 2.021,1.168 v 2.334 l -2.021,1.16801 m 0,24.67099 -2.022,-1.168 v -2.334 l 2.022,-1.168 2.021,1.168 v 2.334 l -2.021,1.168 m 0,24.671 -2.022,-1.168 v -2.334 l 2.022,-1.168 2.021,1.168 v 2.334 l -2.021,1.168 m 0,24.67001 -2.022,-1.16801 v -2.334 l 2.022,-1.168 2.021,1.168 v 2.334 l -2.021,1.16801 m 0,20.00099 2.021,1.168 v 2.334 l -2.021,1.168 -2.022,-1.168 v -2.334 l 2.022,-1.168 m 7.121,-131.01799 -2.021,-1.16801 v -2.334 l 2.021,-1.168 2.022,1.168 v 2.334 l -2.022,1.16801 m 0,24.67 -2.021,-1.168 v -2.334 l 2.021,-1.168 2.022,1.168 v 2.334 l -2.022,1.168 m 0,24.671 -2.021,-1.168 v -2.334 l 2.021,-1.16801 2.022,1.16801 v 2.334 l -2.022,1.168 m 0,24.67 -2.021,-1.168 v -2.334 l 2.021,-1.168 2.022,1.168 v 2.334 l -2.022,1.168 m 0,24.671 -2.021,-1.168 v -2.334 l 2.021,-1.168 2.022,1.168 v 2.334 l -2.022,1.168 m 0,20 2.022,1.168 v 2.334 l -2.022,1.168 -2.021,-1.168 v -2.334 l 2.021,-1.168 m -56.394,-145.166 h 9.34 v -5.2 h 9.541 v 5.2 h 9.14 v -5.2 h 9.54 v 5.2 h 9.14 v -5.2 h 9.541 v 5.2 h 9.34 v 171.65 h -9.34 v 5.2 h -9.541 v -5.2 h -9.14 v 5.2 h -9.54 v -5.2 h -9.14 v 5.2 h -9.541 v -5.2 h -9.34 v -171.65" />
  <polyline
     z="0"
     points="604.356,415.835 604.356,421.035 620.688,421.035 620.688,415.835 637.419,415.835 637.419,421.035 653.751,421.035 653.751,415.835 670.483,415.835 670.483,421.035 686.815,421.035 686.815,415.835 703.547,415.835 703.547,421.035 719.879,421.035 719.879,415.835 736.61,415.835 736.61,421.035 752.942,421.035 752.942,415.835 769.674,415.835 769.674,426.013 764.474,426.013 764.474,435.792 769.674,435.792 769.674,445.97 764.474,445.97 764.474,455.749 769.674,455.749 769.674,465.927 764.474,465.927 764.474,468.037 592.824,468.037 592.824,465.927 587.624,465.927 587.624,455.749 592.824,455.749 592.824,445.97 587.624,445.97 587.624,435.792 592.824,435.792 592.824,426.013 587.624,426.013 587.624,415.835 604.356,415.835"
     fill="none"
     stroke="#000000"
     stroke-width="0.1mm"
     id="polyline114"
     style="vector-effect:non-scaling-stroke;stroke-width:0.264583;stroke-dasharray:none;-inkscape-stroke:hairline"
     transform="rotate(90,675.20815,374.80511)" />
  <polyline
     z="0"
     points="598.024,491.581 780.074,491.581 780.074,506.45 774.874,506.45 774.874,520.918 780.074,520.918 780.074,535.787 763.342,535.787 763.342,530.587 747.01,530.587 747.01,535.787 730.279,535.787 730.279,530.587 713.947,530.587 713.947,535.787 697.215,535.787 697.215,530.587 680.883,530.587 680.883,535.787 664.151,535.787 664.151,530.587 647.819,530.587 647.819,535.787 631.088,535.787 631.088,530.587 614.756,530.587 614.756,535.787 598.024,535.787 598.024,520.918 603.224,520.918 603.224,506.45 598.024,506.45 598.024,491.581"
     fill="none"
     stroke="#000000"
     stroke-width="0.1mm"
     id="polyline115"
     style="vector-effect:non-scaling-stroke;stroke-width:0.264583;stroke-dasharray:none;-inkscape-stroke:hairline"
     transform="rotate(90,740.38442,429.58138)" />
  <polyline
     z="0"
     points="701.976,593.076 718.508,593.076 718.508,587.876 735.24,587.876 735.24,593.076 751.571,593.076 751.571,587.876 768.303,587.876 768.303,593.076 784.635,593.076 784.635,587.876 801.367,587.876 801.367,593.076 817.699,593.076 817.699,587.876 834.431,587.876 834.431,593.076 850.762,593.076 850.762,587.876 867.494,587.876 867.494,593.076 884.026,593.076 884.026,603.276 878.826,603.276 878.826,613.076 884.026,613.076 884.026,623.276 701.976,623.276 701.976,613.076 707.176,613.076 707.176,603.276 701.976,603.276 701.976,593.076"
     fill="none"
     stroke="#000000"
     stroke-width="0.1mm"
     id="polyline117"
     style="vector-effect:non-scaling-stroke;stroke-width:0.264583;stroke-dasharray:none;-inkscape-stroke:hairline"
     transform="rotate(90,858.20818,443.45314)" />
  <polyline
     z="0"
     points="703.547,642.526 703.547,647.726 686.815,647.726 686.815,642.526 670.483,642.526 670.483,647.726 653.751,647.726 653.751,642.526 637.419,642.526 637.419,647.726 620.688,647.726 620.688,642.526 604.356,642.526 604.356,647.726 587.624,647.726 587.624,637.547 592.824,637.547 592.824,635.628 764.474,635.628 764.474,637.547 769.674,637.547 769.674,647.726 752.942,647.726 752.942,642.526 736.61,642.526 736.61,647.726 719.879,647.726 719.879,642.526 703.547,642.526"
     fill="none"
     stroke="#000000"
     stroke-width="0.1mm"
     id="polyline118"
     style="vector-effect:non-scaling-stroke;stroke-width:0.264583;stroke-dasharray:none;-inkscape-stroke:hairline"
     transform="rotate(90,759.00339,458.60035)" />
  <polyline
     z="0"
     points="482.101,535.787 482.101,530.587 465.769,530.587 465.769,535.787 449.038,535.787 449.038,530.587 432.706,530.587 432.706,535.787 415.974,535.787 415.974,523.117 421.174,523.117 421.174,510.847 415.974,510.847 415.974,498.177 421.174,498.177 421.174,485.907 415.974,485.907 415.974,473.237 432.506,473.237 432.506,468.037 449.238,468.037 449.238,473.237 465.569,473.237 465.569,468.037 482.301,468.037 482.301,473.237 498.633,473.237 498.633,468.037 515.365,468.037 515.365,473.237 531.697,473.237 531.697,468.037 548.429,468.037 548.429,473.237 564.76,473.237 564.76,468.037 581.492,468.037 581.492,473.237 598.024,473.237 598.024,485.907 592.824,485.907 592.824,498.177 598.024,498.177 598.024,510.847 592.824,510.847 592.824,523.117 598.024,523.117 598.024,535.787 581.292,535.787 581.292,530.587 564.96,530.587 564.96,535.787 548.229,535.787 548.229,530.587 531.897,530.587 531.897,535.787 515.165,535.787 515.165,530.587 498.833,530.587 498.833,535.787 482.101,535.787"
     fill="none"
     stroke="#000000"
     stroke-width="0.1mm"
     id="polyline8-5"
     style="vector-effect:non-scaling-stroke;stroke-width:0.264583;stroke-dasharray:none;-inkscape-stroke:hairline"
     transform="rotate(-90,550.69258,516.60238)" />
  <path
     id="polyline107-5"
     style="vector-effect:non-scaling-stroke;fill:none;stroke:#000000;stroke-width:0.264583;-inkscape-stroke:hairline"
     d="m 443.08668,488.61894 -2.022,-1.168 v -2.334 l 2.022,-1.168 2.022,1.168 v 2.334 l -2.022,1.168 m 0,24.67101 -2.022,-1.168 v -2.334 l 2.022,-1.168 2.022,1.168 v 2.334 l -2.022,1.168 m 0,24.67 -2.022,-1.16801 v -2.33399 l 2.022,-1.168 2.022,1.168 v 2.33399 l -2.022,1.16801 m 0,24.671 -2.022,-1.16801 v -2.33399 l 2.022,-1.168 2.022,1.168 v 2.33399 l -2.022,1.16801 m 0,24.671 -2.022,-1.168 v -2.334 l 2.022,-1.168 2.022,1.168 v 2.334 l -2.022,1.168 m 0,24.67 -2.022,-1.168 v -2.334 l 2.022,-1.168 2.022,1.168 v 2.334 l -2.022,1.168 m 0,20.00099 2.022,1.16801 v 2.33399 l -2.022,1.16801 -2.022,-1.16801 v -2.33399 l 2.022,-1.16801 m 7.122,-131.01799 -2.022,-1.168 v -2.334 l 2.022,-1.16801 2.022,1.16801 v 2.334 l -2.022,1.168 m 0,24.66999 -2.022,-1.168 v -2.33399 l 2.022,-1.168 2.022,1.168 v 2.33399 l -2.022,1.168 m 0,24.67101 -2.022,-1.16801 v -2.33399 l 2.022,-1.168 2.022,1.168 v 2.33399 l -2.022,1.16801 m 0,24.66999 -2.022,-1.16799 v -2.33401 l 2.022,-1.16799 2.022,1.16799 v 2.33401 l -2.022,1.16799 m 0,24.671 -2.022,-1.16799 v -2.334 l 2.022,-1.168 2.022,1.168 v 2.334 l -2.022,1.16799 m 0,20 2.022,1.16801 v 2.33399 l -2.022,1.16801 -2.022,-1.16801 v -2.33399 l 2.022,-1.16801 m 7.122,-131.018 -2.022,-1.168 v -2.334 l 2.022,-1.168 2.021,1.168 v 2.334 l -2.021,1.168 m 0,24.67101 -2.022,-1.168 v -2.334 l 2.022,-1.168 2.021,1.168 v 2.334 l -2.021,1.168 m 0,24.67 -2.022,-1.16801 v -2.33399 l 2.022,-1.168 2.021,1.168 v 2.33399 l -2.021,1.16801 m 0,24.671 -2.022,-1.16801 v -2.33399 l 2.022,-1.168 2.021,1.168 v 2.33399 l -2.021,1.16801 m 0,24.671 -2.022,-1.168 v -2.334 l 2.022,-1.168 2.021,1.168 v 2.334 l -2.021,1.168 m 0,24.67 -2.022,-1.168 v -2.334 l 2.022,-1.168 2.021,1.168 v 2.334 l -2.021,1.168 m 0,20.00099 2.021,1.16801 v 2.33399 l -2.021,1.16801 -2.022,-1.16801 v -2.33399 l 2.022,-1.16801 m 7.121,-131.01799 -2.021,-1.168 v -2.334 l 2.021,-1.16801 2.022,1.16801 v 2.334 l -2.022,1.168 m 0,24.66999 -2.021,-1.168 v -2.33399 l 2.021,-1.168 2.022,1.168 v 2.33399 l -2.022,1.168 m 0,24.67101 -2.021,-1.16801 v -2.33399 l 2.021,-1.168 2.022,1.168 v 2.33399 l -2.022,1.16801 m 0,24.66999 -2.021,-1.16799 v -2.33401 l 2.021,-1.16799 2.022,1.16799 v 2.33401 l -2.022,1.16799 m 0,24.671 -2.021,-1.16799 v -2.334 l 2.021,-1.168 2.022,1.168 v 2.334 l -2.022,1.16799 m 0,20 2.022,1.16801 v 2.33399 l -2.022,1.16801 -2.021,-1.16801 v -2.33399 l 2.021,-1.16801 m 7.122,-131.018 -2.022,-1.168 v -2.334 l 2.022,-1.168 2.022,1.168 v 2.334 l -2.022,1.168 m 0,24.67101 -2.022,-1.168 v -2.334 l 2.022,-1.168 2.022,1.168 v 2.334 l -2.022,1.168 m 0,24.67 -2.022,-1.16801 v -2.33399 l 2.022,-1.168 2.022,1.168 v 2.33399 l -2.022,1.16801 m 0,24.671 -2.022,-1.16801 v -2.33399 l 2.022,-1.168 2.022,1.168 v 2.33399 l -2.022,1.16801 m 0,24.671 -2.022,-1.168 v -2.334 l 2.022,-1.168 2.022,1.168 v 2.334 l -2.022,1.168 m 0,24.67 -2.022,-1.168 v -2.334 l 2.022,-1.168 2.022,1.168 v 2.334 l -2.022,1.168 m 0,20.00099 2.022,1.16801 v 2.33399 l -2.022,1.16801 -2.022,-1.16801 v -2.33399 l 2.022,-1.16801 m 7.122,-131.01799 -2.022,-1.168 v -2.334 l 2.022,-1.16801 2.022,1.16801 v 2.334 l -2.022,1.168 m 0,24.66999 -2.022,-1.168 v -2.33399 l 2.022,-1.168 2.022,1.168 v 2.33399 l -2.022,1.168 m 0,24.67101 -2.022,-1.16801 v -2.33399 l 2.022,-1.168 2.022,1.168 v 2.33399 l -2.022,1.16801 m 0,24.66999 -2.022,-1.16799 v -2.33401 l 2.022,-1.16799 2.022,1.16799 v 2.33401 l -2.022,1.16799 m 0,24.671 -2.022,-1.16799 v -2.334 l 2.022,-1.168 2.022,1.168 v 2.334 l -2.022,1.16799 m 0,20 2.022,1.16801 v 2.33399 l -2.022,1.16801 -2.022,-1.16801 v -2.33399 l 2.022,-1.16801 m 7.122,-131.018 -2.022,-1.168 v -2.334 l 2.022,-1.168 2.021,1.168 v 2.334 l -2.021,1.168 m 0,24.67101 -2.022,-1.168 v -2.334 l 2.022,-1.168 2.021,1.168 v 2.334 l -2.021,1.168 m 0,24.67 -2.022,-1.16801 v -2.33399 l 2.022,-1.168 2.021,1.168 v 2.33399 l -2.021,1.16801 m 0,24.671 -2.022,-1.16801 v -2.33399 l 2.022,-1.168 2.021,1.168 v 2.33399 l -2.021,1.16801 m 0,24.671 -2.022,-1.168 v -2.334 l 2.022,-1.168 2.021,1.168 v 2.334 l -2.021,1.168 m 0,24.67 -2.022,-1.168 v -2.334 l 2.022,-1.168 2.021,1.168 v 2.334 l -2.021,1.168 m 0,20.00099 2.021,1.16801 v 2.33399 l -2.021,1.16801 -2.022,-1.16801 v -2.33399 l 2.022,-1.16801 m 7.121,-131.01799 -2.021,-1.168 v -2.334 l 2.021,-1.16801 2.022,1.16801 v 2.334 l -2.022,1.168 m 0,24.66999 -2.021,-1.168 v -2.33399 l 2.021,-1.168 2.022,1.168 v 2.33399 l -2.022,1.168 m 0,24.67101 -2.021,-1.16801 v -2.33399 l 2.021,-1.168 2.022,1.168 v 2.33399 l -2.022,1.16801 m 0,24.66999 -2.021,-1.16799 v -2.33401 l 2.021,-1.16799 2.022,1.16799 v 2.33401 l -2.022,1.16799 m 0,24.671 -2.021,-1.16799 v -2.334 l 2.021,-1.168 2.022,1.168 v 2.334 l -2.022,1.16799 m 0,20 2.022,1.16801 v 2.33399 l -2.022,1.16801 -2.021,-1.16801 v -2.33399 l 2.021,-1.16801 m -56.394,-145.16599 h 9.34 v -5.2 h 9.541 v 5.2 h 9.14 v -5.2 h 9.54 v 5.2 h 9.14 v -5.2 h 9.541 v 5.2 h 9.34 v 171.65 h -9.34 v 5.2 h -9.541 v -5.2 h -9.14 v 5.2 h -9.54 v -5.2 h -9.14 v 5.2 h -9.541 v -5.2 h -9.34 v -171.65" />
  <polyline
     z="0"
     points="604.356,415.835 604.356,421.035 620.688,421.035 620.688,415.835 637.419,415.835 637.419,421.035 653.751,421.035 653.751,415.835 670.483,415.835 670.483,421.035 686.815,421.035 686.815,415.835 703.547,415.835 703.547,421.035 719.879,421.035 719.879,415.835 736.61,415.835 736.61,421.035 752.942,421.035 752.942,415.835 769.674,415.835 769.674,426.013 764.474,426.013 764.474,435.792 769.674,435.792 769.674,445.97 764.474,445.97 764.474,455.749 769.674,455.749 769.674,465.927 764.474,465.927 764.474,468.037 592.824,468.037 592.824,465.927 587.624,465.927 587.624,455.749 592.824,455.749 592.824,445.97 587.624,445.97 587.624,435.792 592.824,435.792 592.824,426.013 587.624,426.013 587.624,415.835 604.356,415.835"
     fill="none"
     stroke="#000000"
     stroke-width="0.1mm"
     id="polyline114-4"
     style="vector-effect:non-scaling-stroke;stroke-width:0.264583;stroke-dasharray:none;-inkscape-stroke:hairline"
     transform="rotate(90,584.18315,465.8301)" />
  <polyline
     z="0"
     points="598.024,491.581 780.074,491.581 780.074,506.45 774.874,506.45 774.874,520.918 780.074,520.918 780.074,535.787 763.342,535.787 763.342,530.587 747.01,530.587 747.01,535.787 730.279,535.787 730.279,530.587 713.947,530.587 713.947,535.787 697.215,535.787 697.215,530.587 680.883,530.587 680.883,535.787 664.151,535.787 664.151,530.587 647.819,530.587 647.819,535.787 631.088,535.787 631.088,530.587 614.756,530.587 614.756,535.787 598.024,535.787 598.024,520.918 603.224,520.918 603.224,506.45 598.024,506.45 598.024,491.581"
     fill="none"
     stroke="#000000"
     stroke-width="0.1mm"
     id="polyline115-7"
     style="vector-effect:non-scaling-stroke;stroke-width:0.264583;stroke-dasharray:none;-inkscape-stroke:hairline"
     transform="rotate(90,649.35942,520.60638)" />
  <polyline
     z="0"
     points="701.976,593.076 718.508,593.076 718.508,587.876 735.24,587.876 735.24,593.076 751.571,593.076 751.571,587.876 768.303,587.876 768.303,593.076 784.635,593.076 784.635,587.876 801.367,587.876 801.367,593.076 817.699,593.076 817.699,587.876 834.431,587.876 834.431,593.076 850.762,593.076 850.762,587.876 867.494,587.876 867.494,593.076 884.026,593.076 884.026,603.276 878.826,603.276 878.826,613.076 884.026,613.076 884.026,623.276 701.976,623.276 701.976,613.076 707.176,613.076 707.176,603.276 701.976,603.276 701.976,593.076"
     fill="none"
     stroke="#000000"
     stroke-width="0.1mm"
     id="polyline117-4"
     style="vector-effect:non-scaling-stroke;stroke-width:0.264583;stroke-dasharray:none;-inkscape-stroke:hairline"
     transform="rotate(90,767.18318,534.47814)" />
  <polyline
     z="0"
     points="703.547,642.526 703.547,647.726 686.815,647.726 686.815,642.526 670.483,642.526 670.483,647.726 653.751,647.726 653.751,642.526 637.419,642.526 637.419,647.726 620.688,647.726 620.688,642.526 604.356,642.526 604.356,647.726 587.624,647.726 587.624,637.547 592.824,637.547 592.824,635.628 764.474,635.628 764.474,637.547 769.674,637.547 769.674,647.726 752.942,647.726 752.942,642.526 736.61,642.526 736.61,647.726 719.879,647.726 719.879,642.526 703.547,642.526"
     fill="none"
     stroke="#000000"
     stroke-width="0.1mm"
     id="polyline118-4"
     style="vector-effect:non-scaling-stroke;stroke-width:0.264583;stroke-dasharray:none;-inkscape-stroke:hairline"
     transform="rotate(90,667.9784,549.62535)" />
</svg>
