<?xml version="1.0" encoding="UTF-8" standalone="no"?>
<svg
   width="1300mm"
   height="900mm"
   viewBox="0 0 1300 900"
   version="1.1"
   id="svg8"
   sodipodi:docname="Exhaust.svg"
   inkscape:version="1.4 (e7c3feb100, 2024-10-09)"
   xmlns:inkscape="http://www.inkscape.org/namespaces/inkscape"
   xmlns:sodipodi="http://sodipodi.sourceforge.net/DTD/sodipodi-0.dtd"
   xmlns="http://www.w3.org/2000/svg"
   xmlns:svg="http://www.w3.org/2000/svg">
  <defs
     id="defs8" />
  <sodipodi:namedview
     id="namedview8"
     pagecolor="#505050"
     bordercolor="#eeeeee"
     borderopacity="1"
     inkscape:showpageshadow="0"
     inkscape:pageopacity="0"
     inkscape:pagecheckerboard="0"
     inkscape:deskcolor="#505050"
     inkscape:document-units="mm"
     inkscape:zoom="0.33445697"
     inkscape:cx="1970.3581"
     inkscape:cy="1897.105"
     inkscape:window-width="1920"
     inkscape:window-height="1011"
     inkscape:window-x="0"
     inkscape:window-y="32"
     inkscape:window-maximized="1"
     inkscape:current-layer="svg8" />
  <polyline
     z="0"
     points="487,546.325 487,535.725 571.434,535.725 557.311,521.602 559.352,516.675 570.706,516.675 570.706,521.875 581.693,521.875 581.693,516.675 593.08,516.675 593.08,521.875 604.068,521.875 604.068,516.675 615.396,516.675 628.925,530.204 628.925,535.725 650,535.725 650,546.325 635,546.325 635,541.125 620.4,541.125 620.4,546.325 605.4,546.325 605.4,541.125 590.8,541.125 590.8,546.325 575.8,546.325 575.8,541.125 561.2,541.125 561.2,546.325 546.2,546.325 546.2,541.125 531.6,541.125 531.6,546.325 516.6,546.325 516.6,541.125 502,541.125 502,546.325 487,546.325"
     fill="none"
     stroke="#000000"
     stroke-width="0.1mm"
     id="polyline1"
     style="vector-effect:non-scaling-stroke;stroke-width:0.264583;stroke-dasharray:none;-inkscape-stroke:hairline"
     transform="rotate(-90,506.3035,512.1965)" />
  <path
     id="polyline6"
     style="vector-effect:non-scaling-stroke;fill:none;stroke:#000000;stroke-width:0.264583;-inkscape-stroke:hairline"
     d="m 621.48,398.477 -0.244,-0.006 -0.242,-0.031 -0.239,-0.054 -0.232,-0.078 -0.222,-0.1 -0.212,-0.123 -0.199,-0.142 -0.183,-0.163 -0.166,-0.178 -0.148,-0.195 -0.127,-0.209 -0.107,-0.22 -0.083,-0.231 -0.061,-0.236 -0.036,-0.242 -0.012,-0.244 0.012,-0.244 0.036,-0.242 0.061,-0.236 0.083,-0.231 0.107,-0.22 0.127,-0.209 0.148,-0.195 0.166,-0.178 0.183,-0.163 0.199,-0.142 0.212,-0.123 0.222,-0.1 0.232,-0.078 0.239,-0.054 0.242,-0.031 0.244,-0.006 0.245,0.018 0.241,0.043 0.234,0.066 0.228,0.089 0.218,0.112 0.205,0.132 0.192,0.153 0.174,0.171 0.157,0.188 0.139,0.201 0.116,0.214 0.095,0.226 0.072,0.234 0.049,0.24 0.024,0.243 v 0.244 l -0.024,0.243 -0.049,0.24 -0.072,0.234 -0.095,0.226 -0.116,0.214 -0.139,0.201 -0.157,0.188 -0.174,0.171 -0.192,0.153 -0.205,0.132 -0.218,0.112 -0.228,0.089 -0.234,0.066 -0.241,0.043 -0.245,0.018 m 1.166,103.374 0.205,0.132 0.192,0.153 0.174,0.171 0.157,0.188 0.139,0.201 0.116,0.214 0.095,0.226 0.072,0.234 0.049,0.24 0.024,0.243 v 0.244 l -0.024,0.243 -0.049,0.24 -0.072,0.234 -0.095,0.226 -0.116,0.214 -0.139,0.201 -0.157,0.188 -0.174,0.171 -0.192,0.153 -0.205,0.132 -0.218,0.112 -0.228,0.089 -0.234,0.066 -0.241,0.043 -0.245,0.018 -0.244,-0.006 -0.242,-0.031 -0.239,-0.054 -0.232,-0.078 -0.222,-0.1 -0.212,-0.123 -0.199,-0.142 -0.183,-0.163 -0.166,-0.178 -0.148,-0.195 -0.127,-0.209 -0.107,-0.22 -0.083,-0.231 -0.061,-0.236 -0.036,-0.242 -0.012,-0.244 0.012,-0.244 0.036,-0.242 0.061,-0.236 0.083,-0.231 0.107,-0.22 0.127,-0.209 0.148,-0.195 0.166,-0.178 0.183,-0.163 0.199,-0.142 0.212,-0.123 0.222,-0.1 0.232,-0.078 0.239,-0.054 0.242,-0.031 0.244,-0.006 0.245,0.018 0.241,0.043 0.234,0.066 0.228,0.089 0.218,0.112 m 59.159,-103.374 -0.244,-0.006 -0.242,-0.031 -0.239,-0.054 -0.232,-0.078 -0.222,-0.1 -0.212,-0.123 -0.199,-0.142 -0.183,-0.163 -0.166,-0.178 -0.148,-0.195 -0.127,-0.209 -0.107,-0.22 -0.083,-0.231 -0.061,-0.236 -0.036,-0.242 -0.012,-0.244 0.012,-0.244 0.036,-0.242 0.061,-0.236 0.083,-0.231 0.107,-0.22 0.127,-0.209 0.148,-0.195 0.166,-0.178 0.183,-0.163 0.199,-0.142 0.212,-0.123 0.222,-0.1 0.232,-0.078 0.239,-0.054 0.242,-0.031 0.244,-0.006 0.245,0.018 0.241,0.043 0.234,0.066 0.228,0.089 0.218,0.112 0.205,0.132 0.192,0.153 0.174,0.171 0.157,0.188 0.139,0.201 0.116,0.214 0.095,0.226 0.072,0.234 0.049,0.24 0.024,0.243 v 0.244 l -0.024,0.243 -0.049,0.24 -0.072,0.234 -0.095,0.226 -0.116,0.214 -0.139,0.201 -0.157,0.188 -0.174,0.171 -0.192,0.153 -0.205,0.132 -0.218,0.112 -0.228,0.089 -0.234,0.066 -0.241,0.043 -0.245,0.018 m -1.773,103.743 0.183,-0.163 0.199,-0.142 0.212,-0.123 0.222,-0.1 0.232,-0.078 0.239,-0.054 0.242,-0.031 0.244,-0.006 0.245,0.018 0.241,0.043 0.234,0.066 0.228,0.089 0.218,0.112 0.205,0.132 0.192,0.153 0.174,0.171 0.157,0.188 0.139,0.201 0.116,0.214 0.095,0.226 0.072,0.234 0.049,0.24 0.024,0.243 v 0.244 l -0.024,0.243 -0.049,0.24 -0.072,0.234 -0.095,0.226 -0.116,0.214 -0.139,0.201 -0.157,0.188 -0.174,0.171 -0.192,0.153 -0.205,0.132 -0.218,0.112 -0.228,0.089 -0.234,0.066 -0.241,0.043 -0.245,0.018 -0.244,-0.006 -0.242,-0.031 -0.239,-0.054 -0.232,-0.078 -0.222,-0.1 -0.212,-0.123 -0.199,-0.142 -0.183,-0.163 -0.166,-0.178 -0.148,-0.195 -0.127,-0.209 -0.107,-0.22 -0.083,-0.231 -0.061,-0.236 -0.036,-0.242 -0.012,-0.244 0.012,-0.244 0.036,-0.242 0.061,-0.236 0.083,-0.231 0.107,-0.22 0.127,-0.209 0.148,-0.195 0.166,-0.178 M 570.082,380.05 h 14.8 v -5.2 h 15 v 5.2 h 14.6 v -5.2 h 15 v 5.2 h 14.6 v -5.2 h 15 v 5.2 h 14.6 v -5.2 h 15 v 5.2 h 14.6 v -5.2 h 15 v 5.2 h 14.8 v 139.9 h -14.8 v 5.2 h -15 v -5.2 h -14.6 v 5.2 h -15 v -5.2 h -14.6 v 5.2 h -15 v -5.2 h -14.6 v 5.2 h -15 v -5.2 h -14.6 v 5.2 h -15 v -5.2 h -14.8 v -139.9" />
  <polyline
     z="0"
     points="637.3,471.726 642.5,471.726 642.5,460.539 782.4,460.539 782.4,471.726 787.6,471.726 787.6,483.113 782.4,483.113 782.4,494.101 787.6,494.101 787.6,505.488 782.4,505.488 782.4,516.675 642.5,516.675 642.5,505.488 637.3,505.488 637.3,494.101 642.5,494.101 642.5,483.113 637.3,483.113 637.3,471.726"
     fill="none"
     stroke="#000000"
     stroke-width="0.1mm"
     id="polyline7"
     style="vector-effect:non-scaling-stroke;stroke-width:0.264583;stroke-dasharray:none;-inkscape-stroke:hairline"
     transform="rotate(90,756.1035,493.6535)" />
  <polyline
     z="0"
     points="650,535.725 671.075,535.725 671.075,530.204 684.604,516.675 695.932,516.675 695.932,521.875 706.92,521.875 706.92,516.675 718.307,516.675 718.307,521.875 729.294,521.875 729.294,516.675 740.648,516.675 742.689,521.602 728.566,535.725 813,535.725 813,546.325 798,546.325 798,541.125 783.4,541.125 783.4,546.325 768.4,546.325 768.4,541.125 753.8,541.125 753.8,546.325 738.8,546.325 738.8,541.125 724.2,541.125 724.2,546.325 709.2,546.325 709.2,541.125 694.6,541.125 694.6,546.325 679.6,546.325 679.6,541.125 665,541.125 665,546.325 650,546.325 650,535.725"
     fill="none"
     stroke="#000000"
     stroke-width="0.1mm"
     id="polyline8"
     style="vector-effect:non-scaling-stroke;stroke-width:0.264583;stroke-dasharray:none;-inkscape-stroke:hairline"
     transform="rotate(90,684.1285,402.6285)" />
</svg>
