<?xml version="1.0" standalone="no"?>
<!DOCTYPE svg PUBLIC "-//W3C//DTD SVG 1.1//EN" "http://www.w3.org/Graphics/SVG/1.1/DTD/svg11.dtd">
<svg width="1300mm" height="900mm" viewBox="0 0 1300 900" xmlns="http://www.w3.org/2000/svg" version="1.1">
<polyline z="0" points="487,546.325 487,535.725 571.434,535.725 557.311,521.602 559.352,516.675 570.706,516.675 570.706,521.875 581.693,521.875 581.693,516.675 593.08,516.675 593.08,521.875 604.068,521.875 604.068,516.675 615.396,516.675 628.925,530.204 628.925,535.725 650,535.725 650,546.325 635,546.325 635,541.125 620.4,541.125 620.4,546.325 605.4,546.325 605.4,541.125 590.8,541.125 590.8,546.325 575.8,546.325 575.8,541.125 561.2,541.125 561.2,546.325 546.2,546.325 546.2,541.125 531.6,541.125 531.6,546.325 516.6,546.325 516.6,541.125 502,541.125 502,546.325 487,546.325" fill="none" stroke="black" stroke-width="0.1mm" />
<polyline z="0" points="492.2,516.675 492.2,501.875 487,501.875 487,486.875 492.2,486.875 492.2,472.275 487,472.275 487,457.275 492.2,457.275 492.2,442.675 487,442.675 487,427.675 492.2,427.675 492.2,413.075 487,413.075 487,398.075 492.2,398.075 492.2,383.475 487,383.475 487,368.475 492.2,368.475 492.2,353.675 632.1,353.675 632.1,368.475 637.3,368.475 637.3,383.475 632.1,383.475 632.1,398.075 637.3,398.075 637.3,413.075 632.1,413.075 632.1,427.675 637.3,427.675 637.3,442.675 632.1,442.675 632.1,457.275 637.3,457.275 637.3,472.275 632.1,472.275 632.1,486.875 637.3,486.875 637.3,501.875 632.1,501.875 632.1,516.675 492.2,516.675" fill="none" stroke="black" stroke-width="0.1mm" />
<polyline z="0" points="614.37,406.725 614.207,406.542 614.065,406.343 613.942,406.131 613.842,405.909 613.764,405.677 613.71,405.438 613.679,405.196 613.673,404.952 613.691,404.707 613.734,404.466 613.8,404.232 613.889,404.004 614.001,403.786 614.133,403.581 614.286,403.389 614.457,403.215 614.645,403.058 614.846,402.919 615.06,402.803 615.286,402.708 615.52,402.636 615.76,402.587 616.003,402.563 616.247,402.563 616.49,402.587 616.73,402.636 616.964,402.708 617.19,402.803 617.404,402.919 617.605,403.058 617.793,403.215 617.964,403.389 618.117,403.581 618.249,403.786 618.361,404.004 618.45,404.232 618.516,404.466 618.559,404.707 618.577,404.952 618.571,405.196 618.54,405.438 618.486,405.677 618.408,405.909 618.308,406.131 618.185,406.343 618.043,406.542 617.88,406.725 617.702,406.891 617.507,407.039 617.298,407.166 617.078,407.273 616.847,407.356 616.611,407.417 616.369,407.453 616.125,407.465 615.881,407.453 615.639,407.417 615.403,407.356 615.172,407.273 614.952,407.166 614.743,407.039 614.548,406.891 614.37,406.725" fill="none" stroke="black" stroke-width="0.1mm" />
<polyline z="0" points="510.627,404.952 510.621,405.196 510.59,405.438 510.536,405.677 510.458,405.909 510.358,406.131 510.235,406.343 510.093,406.542 509.93,406.725 509.752,406.891 509.557,407.039 509.348,407.166 509.128,407.273 508.897,407.356 508.661,407.417 508.419,407.453 508.175,407.465 507.931,407.453 507.689,407.417 507.453,407.356 507.222,407.273 507.002,407.166 506.793,407.039 506.598,406.891 506.42,406.725 506.257,406.542 506.115,406.343 505.992,406.131 505.892,405.909 505.814,405.677 505.76,405.438 505.729,405.196 505.723,404.952 505.741,404.707 505.784,404.466 505.85,404.232 505.939,404.004 506.051,403.786 506.183,403.581 506.336,403.389 506.507,403.215 506.695,403.058 506.896,402.919 507.11,402.803 507.336,402.708 507.57,402.636 507.81,402.587 508.053,402.563 508.297,402.563 508.54,402.587 508.78,402.636 509.014,402.708 509.24,402.803 509.454,402.919 509.655,403.058 509.843,403.215 510.014,403.389 510.167,403.581 510.299,403.786 510.411,404.004 510.5,404.232 510.566,404.466 510.609,404.707 510.627,404.952" fill="none" stroke="black" stroke-width="0.1mm" />
<polyline z="0" points="614.001,464.111 614.133,463.906 614.286,463.714 614.457,463.54 614.645,463.383 614.846,463.244 615.06,463.128 615.286,463.033 615.52,462.961 615.76,462.912 616.003,462.888 616.247,462.888 616.49,462.912 616.73,462.961 616.964,463.033 617.19,463.128 617.404,463.244 617.605,463.383 617.793,463.54 617.964,463.714 618.117,463.906 618.249,464.111 618.361,464.329 618.45,464.557 618.516,464.791 618.559,465.032 618.577,465.277 618.571,465.521 618.54,465.763 618.486,466.002 618.408,466.234 618.308,466.456 618.185,466.668 618.043,466.867 617.88,467.05 617.702,467.216 617.507,467.364 617.298,467.491 617.078,467.598 616.847,467.681 616.611,467.742 616.369,467.778 616.125,467.79 615.881,467.778 615.639,467.742 615.403,467.681 615.172,467.598 614.952,467.491 614.743,467.364 614.548,467.216 614.37,467.05 614.207,466.867 614.065,466.668 613.942,466.456 613.842,466.234 613.764,466.002 613.71,465.763 613.679,465.521 613.673,465.277 613.691,465.032 613.734,464.791 613.8,464.557 613.889,464.329 614.001,464.111" fill="none" stroke="black" stroke-width="0.1mm" />
<polyline z="0" points="510.627,465.277 510.621,465.521 510.59,465.763 510.536,466.002 510.458,466.234 510.358,466.456 510.235,466.668 510.093,466.867 509.93,467.05 509.752,467.216 509.557,467.364 509.348,467.491 509.128,467.598 508.897,467.681 508.661,467.742 508.419,467.778 508.175,467.79 507.931,467.778 507.689,467.742 507.453,467.681 507.222,467.598 507.002,467.491 506.793,467.364 506.598,467.216 506.42,467.05 506.257,466.867 506.115,466.668 505.992,466.456 505.892,466.234 505.814,466.002 505.76,465.763 505.729,465.521 505.723,465.277 505.741,465.032 505.784,464.791 505.85,464.557 505.939,464.329 506.051,464.111 506.183,463.906 506.336,463.714 506.507,463.54 506.695,463.383 506.896,463.244 507.11,463.128 507.336,463.033 507.57,462.961 507.81,462.912 508.053,462.888 508.297,462.888 508.54,462.912 508.78,462.961 509.014,463.033 509.24,463.128 509.454,463.244 509.655,463.383 509.843,463.54 510.014,463.714 510.167,463.906 510.299,464.111 510.411,464.329 510.5,464.557 510.566,464.791 510.609,465.032 510.627,465.277" fill="none" stroke="black" stroke-width="0.1mm" />
<polyline z="0" points="637.3,471.726 642.5,471.726 642.5,460.539 782.4,460.539 782.4,471.726 787.6,471.726 787.6,483.113 782.4,483.113 782.4,494.101 787.6,494.101 787.6,505.488 782.4,505.488 782.4,516.675 642.5,516.675 642.5,505.488 637.3,505.488 637.3,494.101 642.5,494.101 642.5,483.113 637.3,483.113 637.3,471.726" fill="none" stroke="black" stroke-width="0.1mm" />
<polyline z="0" points="650,535.725 671.075,535.725 671.075,530.204 684.604,516.675 695.932,516.675 695.932,521.875 706.92,521.875 706.92,516.675 718.307,516.675 718.307,521.875 729.294,521.875 729.294,516.675 740.648,516.675 742.689,521.602 728.566,535.725 813,535.725 813,546.325 798,546.325 798,541.125 783.4,541.125 783.4,546.325 768.4,546.325 768.4,541.125 753.8,541.125 753.8,546.325 738.8,546.325 738.8,541.125 724.2,541.125 724.2,546.325 709.2,546.325 709.2,541.125 694.6,541.125 694.6,546.325 679.6,546.325 679.6,541.125 665,541.125 665,546.325 650,546.325 650,535.725" fill="none" stroke="black" stroke-width="0.1mm" />
</svg>