<?xml version="1.0" standalone="no"?>
<!DOCTYPE svg PUBLIC "-//W3C//DTD SVG 1.1//EN" "http://www.w3.org/Graphics/SVG/1.1/DTD/svg11.dtd">
<svg width="1300mm" height="900mm" viewBox="0 0 1300 900" xmlns="http://www.w3.org/2000/svg" version="1.1">
<polyline z="0" points="229.887,724.326 229.887,717.046 224.687,717.046 224.687,709.566 229.887,709.566 229.887,702.486 224.687,702.486 224.687,695.006 229.887,695.006 229.887,687.726 251.896,687.726 251.896,692.926 278.705,692.926 278.705,687.726 305.914,687.726 305.914,692.926 332.723,692.926 332.723,687.726 359.932,687.726 359.932,692.926 386.742,692.926 386.742,687.726 413.951,687.726 413.951,692.926 440.76,692.926 440.76,687.726 467.969,687.726 467.969,692.926 494.778,692.926 494.778,687.726 516.787,687.726 516.787,695.006 521.987,695.006 521.987,702.486 516.787,702.486 516.787,709.566 521.987,709.566 521.987,717.046 516.787,717.046 516.787,724.326 494.778,724.326 494.778,719.126 467.969,719.126 467.969,724.326 440.76,724.326 440.76,719.126 413.951,719.126 413.951,724.326 386.742,724.326 386.742,719.126 359.932,719.126 359.932,724.326 332.723,724.326 332.723,719.126 305.914,719.126 305.914,724.326 278.705,724.326 278.705,719.126 251.896,719.126 251.896,724.326 229.887,724.326" fill="none" stroke="black" stroke-width="0.1mm" />
<polyline z="0" points="229.887,682.525 229.887,660.214 224.687,660.214 224.687,637.703 229.887,637.703 229.887,615.591 224.687,615.591 224.687,593.08 229.887,593.08 229.887,570.969 224.687,570.969 224.687,548.457 229.887,548.457 229.887,526.346 224.687,526.346 224.687,503.835 229.887,503.835 229.887,481.723 224.687,481.723 224.687,459.212 229.887,459.212 229.887,436.9 251.696,436.9 251.696,431.7 278.905,431.7 278.905,436.9 305.714,436.9 305.714,431.7 332.923,431.7 332.923,436.9 359.732,436.9 359.732,431.7 386.942,431.7 386.942,436.9 413.751,436.9 413.751,431.7 440.96,431.7 440.96,436.9 467.769,436.9 467.769,431.7 494.978,431.7 494.978,436.9 516.787,436.9 516.787,459.212 521.987,459.212 521.987,481.723 516.787,481.723 516.787,503.835 521.987,503.835 521.987,526.346 516.787,526.346 516.787,548.457 521.987,548.457 521.987,570.969 516.787,570.969 516.787,593.08 521.987,593.08 521.987,615.591 516.787,615.591 516.787,637.703 521.987,637.703 521.987,660.214 516.787,660.214 516.787,682.525 494.978,682.525 494.978,687.726 467.769,687.726 467.769,682.525 440.96,682.525 440.96,687.726 413.751,687.726 413.751,682.525 386.942,682.525 386.942,687.726 359.732,687.726 359.732,682.525 332.923,682.525 332.923,687.726 305.714,687.726 305.714,682.525 278.905,682.525 278.905,687.726 251.696,687.726 251.696,682.525 229.887,682.525" fill="none" stroke="black" stroke-width="0.1mm" />
<polyline z="0" points="241.981,670.431 241.644,670.06 241.346,669.658 241.089,669.23 240.876,668.777 240.707,668.306 240.585,667.821 240.512,667.325 240.487,666.823 240.487,452.602 240.512,452.101 240.585,451.605 240.707,451.12 240.876,450.649 241.089,450.196 241.346,449.768 241.644,449.366 241.981,448.995 242.352,448.658 242.754,448.36 243.183,448.102 243.635,447.889 244.107,447.72 244.592,447.598 245.087,447.526 245.59,447.5 501.084,447.5 501.587,447.526 502.082,447.598 502.567,447.72 503.039,447.889 503.491,448.102 503.92,448.36 504.322,448.658 504.693,448.995 505.03,449.366 505.328,449.768 505.585,450.196 505.799,450.649 505.967,451.12 506.089,451.605 506.162,452.101 506.187,452.602 506.187,666.823 506.162,667.325 506.089,667.821 505.967,668.306 505.799,668.777 505.585,669.23 505.328,669.658 505.03,670.06 504.693,670.431 504.322,670.768 503.92,671.066 503.491,671.323 503.039,671.538 502.567,671.706 502.082,671.828 501.587,671.9 501.085,671.925 245.589,671.925 245.087,671.9 244.592,671.828 244.107,671.706 243.635,671.538 243.183,671.323 242.754,671.066 242.352,670.768 241.981,670.431" fill="none" stroke="black" stroke-width="0.1mm" />
<polyline z="0" points="251.696,431.7 251.696,426.499 229.887,426.499 229.887,404.188 224.687,404.188 224.687,381.677 229.887,381.677 229.887,359.565 224.687,359.565 224.687,337.054 229.887,337.054 229.887,314.943 224.687,314.943 224.687,292.431 229.887,292.431 229.887,270.32 224.687,270.32 224.687,247.809 229.887,247.809 229.887,225.697 224.687,225.697 224.687,203.186 229.887,203.186 229.887,180.874 251.696,180.874 251.696,175.674 278.905,175.674 278.905,180.874 305.714,180.874 305.714,175.674 332.923,175.674 332.923,180.874 359.732,180.874 359.732,175.674 386.942,175.674 386.942,180.874 413.751,180.874 413.751,175.674 440.96,175.674 440.96,180.874 467.769,180.874 467.769,175.674 494.978,175.674 494.978,180.874 516.787,180.874 516.787,203.186 521.987,203.186 521.987,225.697 516.787,225.697 516.787,247.809 521.987,247.809 521.987,270.32 516.787,270.32 516.787,292.431 521.987,292.431 521.987,314.943 516.787,314.943 516.787,337.054 521.987,337.054 521.987,359.565 516.787,359.565 516.787,381.677 521.987,381.677 521.987,404.188 516.787,404.188 516.787,426.499 494.978,426.499 494.978,431.7 467.769,431.7 467.769,426.499 440.96,426.499 440.96,431.7 413.751,431.7 413.751,426.499 386.942,426.499 386.942,431.7 359.732,431.7 359.732,426.499 332.923,426.499 332.923,431.7 305.714,431.7 305.714,426.499 278.905,426.499 278.905,431.7 251.696,431.7" fill="none" stroke="black" stroke-width="0.1mm" />
<polyline z="0" points="521.987,594.99 549.699,594.99 549.699,600.19 571.81,600.19 571.81,595.19 564.175,595.19 564.175,589.469 577.845,575.799 577.845,581.14 596.291,581.14 596.291,575.94 615.136,575.94 615.136,581.14 633.581,581.14 633.581,575.537 635.789,580.867 621.666,594.99 638.944,594.99 638.944,600.19 661.056,600.19 661.056,594.99 683.567,594.99 683.567,600.19 705.678,600.19 705.678,594.99 728.19,594.99 728.19,600.19 750.301,600.19 750.301,594.99 778.013,594.99 778.013,602.47 772.813,602.47 772.813,609.55 778.013,609.55 778.013,617.03 772.813,617.03 772.813,624.11 778.013,624.11 778.013,631.59 750.301,631.59 750.301,626.39 728.19,626.39 728.19,631.59 705.678,631.59 705.678,626.39 683.567,626.39 683.567,631.59 661.056,631.59 661.056,626.39 638.944,626.39 638.944,631.59 616.433,631.59 616.433,626.39 594.322,626.39 594.322,631.59 571.81,631.59 571.81,626.39 549.699,626.39 549.699,631.59 521.987,631.59 521.987,624.11 527.188,624.11 527.188,617.03 521.987,617.03 521.987,609.55 527.188,609.55 527.188,602.47 521.987,602.47 521.987,594.99" fill="none" stroke="black" stroke-width="0.1mm" />
<polyline z="0" points="594.322,595.19 616.433,595.19 616.433,600.19 594.322,600.19 594.322,595.19" fill="none" stroke="black" stroke-width="0.1mm" />
<polyline z="0" points="521.987,631.59 819.287,631.59 819.287,650.435 814.087,650.435 814.087,668.881 819.287,668.881 819.287,687.726 521.987,687.726 521.987,668.881 527.187,668.881 527.187,650.435 521.987,650.435 521.987,631.59" fill="none" stroke="black" stroke-width="0.1mm" />
<polyline z="0" points="527.187,687.726 549.196,687.726 549.196,692.926 576.005,692.926 576.005,687.726 603.214,687.726 603.214,692.926 630.023,692.926 630.023,687.726 657.232,687.726 657.232,692.926 684.042,692.926 684.042,687.726 711.251,687.726 711.251,692.926 738.06,692.926 738.06,687.726 765.269,687.726 765.269,692.926 792.078,692.926 792.078,687.726 814.087,687.726 814.087,695.006 819.287,695.006 819.287,702.486 814.087,702.486 814.087,709.566 819.287,709.566 819.287,717.046 814.087,717.046 814.087,724.326 792.078,724.326 792.078,719.126 765.269,719.126 765.269,724.326 738.06,724.326 738.06,719.126 711.251,719.126 711.251,724.326 684.042,724.326 684.042,719.126 657.232,719.126 657.232,724.326 630.023,724.326 630.023,719.126 603.214,719.126 603.214,724.326 576.005,724.326 576.005,719.126 549.196,719.126 549.196,724.326 527.187,724.326 527.187,717.046 521.987,717.046 521.987,709.566 527.187,709.566 527.187,702.486 521.987,702.486 521.987,695.006 527.187,695.006 527.187,687.726" fill="none" stroke="black" stroke-width="0.1mm" />
<polyline z="0" points="819.287,687.726 819.287,680.246 824.487,680.246 824.487,673.166 819.287,673.166 819.287,665.686 824.487,665.686 824.487,658.606 819.287,658.606 819.287,651.126 846.999,651.126 846.999,656.326 869.11,656.326 869.11,651.126 891.622,651.126 891.622,656.326 913.733,656.326 913.733,651.126 936.244,651.126 936.244,656.326 958.356,656.326 958.356,651.126 975.634,651.126 961.511,637.003 963.719,631.673 963.719,637.276 982.164,637.276 982.164,632.076 1001.009,632.076 1001.009,637.276 1019.455,637.276 1019.455,631.935 1033.125,645.605 1033.125,651.326 1025.49,651.326 1025.49,656.326 1047.601,656.326 1047.601,651.126 1075.313,651.126 1075.313,658.606 1070.112,658.606 1070.112,665.686 1075.313,665.686 1075.313,673.166 1070.112,673.166 1070.112,680.246 1075.313,680.246 1075.313,687.726 1047.601,687.726 1047.601,682.526 1025.49,682.526 1025.49,687.726 1002.978,687.726 1002.978,682.526 980.867,682.526 980.867,687.726 958.356,687.726 958.356,682.526 936.244,682.526 936.244,687.726 913.733,687.726 913.733,682.526 891.622,682.526 891.622,687.726 869.11,687.726 869.11,682.526 846.999,682.526 846.999,687.726 819.287,687.726" fill="none" stroke="black" stroke-width="0.1mm" />
<polyline z="0" points="980.867,656.326 980.867,651.326 1002.978,651.326 1002.978,656.326 980.867,656.326" fill="none" stroke="black" stroke-width="0.1mm" />
</svg>