<?xml version="1.0" standalone="no"?>
<!DOCTYPE svg PUBLIC "-//W3C//DTD SVG 1.1//EN" "http://www.w3.org/Graphics/SVG/1.1/DTD/svg11.dtd">
<svg width="1300mm" height="900mm" viewBox="0 0 1300 900" xmlns="http://www.w3.org/2000/svg" version="1.1">
<polyline z="0" points="289.2,682.771 289.2,675.291 294.4,675.291 294.4,668.211 289.2,668.211 289.2,660.731 294.4,660.731 294.4,653.651 289.2,653.651 289.2,646.171 320.664,646.171 320.664,651.371 346.527,651.371 346.527,646.171 372.791,646.171 372.791,651.371 398.655,651.371 398.655,646.171 424.918,646.171 424.918,651.371 450.782,651.371 450.782,646.171 466.184,646.171 452.061,632.048 454.269,626.718 454.269,632.321 472.714,632.321 472.714,627.121 491.559,627.121 491.559,632.321 510.005,632.321 510.005,626.979 523.675,640.649 523.675,646.171 529.173,646.171 529.173,651.371 555.036,651.371 555.036,646.171 586.5,646.171 586.5,653.651 581.3,653.651 581.3,660.731 586.5,660.731 586.5,668.211 581.3,668.211 581.3,675.291 586.5,675.291 586.5,682.771 555.036,682.771 555.036,677.571 529.173,677.571 529.173,682.771 502.909,682.771 502.909,677.571 477.045,677.571 477.045,682.771 450.782,682.771 450.782,677.571 424.918,677.571 424.918,682.771 398.655,682.771 398.655,677.571 372.791,677.571 372.791,682.771 346.527,682.771 346.527,677.571 320.664,677.571 320.664,682.771 289.2,682.771" fill="none" stroke="black" stroke-width="0.1mm" />
<polyline z="0" points="477.045,651.371 477.045,646.371 502.909,646.371 502.909,651.371 477.045,651.371" fill="none" stroke="black" stroke-width="0.1mm" />
<polyline z="0" points="486.091,570.582 453.109,570.582 453.109,565.382 420.527,565.382 420.527,570.582 387.545,570.582 387.545,565.382 354.964,565.382 354.964,570.582 321.982,570.582 321.982,565.382 294.4,565.382 294.4,539.318 289.2,539.318 289.2,513.055 294.4,513.055 294.4,487.191 289.2,487.191 289.2,460.927 294.4,460.927 294.4,435.064 289.2,435.064 289.2,408.8 294.4,408.8 294.4,382.937 289.2,382.937 289.2,356.673 294.4,356.673 294.4,330.809 289.2,330.809 289.2,304.546 294.4,304.546 294.4,278.482 321.982,278.482 321.982,273.282 354.964,273.282 354.964,278.482 387.545,278.482 387.545,273.282 420.527,273.282 420.527,278.482 453.109,278.482 453.109,273.282 486.091,273.282 486.091,278.482 518.673,278.482 518.673,273.282 551.655,273.282 551.655,278.482 584.236,278.482 584.236,273.282 617.218,273.282 617.218,278.482 644.8,278.482 644.8,304.546 650,304.546 650,330.809 644.8,330.809 644.8,356.673 650,356.673 650,382.937 644.8,382.937 644.8,408.8 650,408.8 650,435.064 644.8,435.064 644.8,460.927 650,460.927 650,487.191 644.8,487.191 644.8,513.055 650,513.055 650,539.318 644.8,539.318 644.8,565.382 617.218,565.382 617.218,570.582 584.236,570.582 584.236,565.382 551.655,565.382 551.655,570.582 518.673,570.582 518.673,565.382 486.091,565.382 486.091,570.582" fill="none" stroke="black" stroke-width="0.1mm" />
<polyline z="0" points="591.7,646.171 619.482,646.171 619.482,651.371 652.064,651.371 652.064,646.171 685.045,646.171 685.045,651.371 717.627,651.371 717.627,646.171 750.609,646.171 750.609,651.371 783.191,651.371 783.191,646.171 816.173,646.171 816.173,651.371 848.755,651.371 848.755,646.171 881.736,646.171 881.736,651.371 914.318,651.371 914.318,646.171 942.1,646.171 942.1,653.451 947.3,653.451 947.3,660.931 942.1,660.931 942.1,668.011 947.3,668.011 947.3,675.491 942.1,675.491 942.1,682.771 914.318,682.771 914.318,677.571 881.736,677.571 881.736,682.771 848.755,682.771 848.755,677.571 816.173,677.571 816.173,682.771 783.191,682.771 783.191,677.571 750.609,677.571 750.609,682.771 717.627,682.771 717.627,677.571 685.045,677.571 685.045,682.771 652.064,682.771 652.064,677.571 619.482,677.571 619.482,682.771 591.7,682.771 591.7,675.491 586.5,675.491 586.5,668.011 591.7,668.011 591.7,660.931 586.5,660.931 586.5,653.451 591.7,653.451 591.7,646.171" fill="none" stroke="black" stroke-width="0.1mm" />
<polyline z="0" points="650,626.718 289.2,626.718 289.2,607.873 294.4,607.873 294.4,589.427 289.2,589.427 289.2,570.582 650,570.582 650,589.427 644.8,589.427 644.8,607.873 650,607.873 650,626.718" fill="none" stroke="black" stroke-width="0.1mm" />
<polyline z="0" points="655.2,626.718 655.2,619.438 650,619.438 650,611.958 655.2,611.958 655.2,604.878 650,604.878 650,597.398 655.2,597.398 655.2,590.118 682.982,590.118 682.982,595.318 715.564,595.318 715.564,590.118 748.545,590.118 748.545,595.318 781.127,595.318 781.127,590.118 814.109,590.118 814.109,595.318 846.691,595.318 846.691,590.118 879.673,590.118 879.673,595.318 912.255,595.318 912.255,590.118 945.236,590.118 945.236,595.318 977.818,595.318 977.818,590.118 1005.6,590.118 1005.6,597.398 1010.8,597.398 1010.8,604.878 1005.6,604.878 1005.6,611.958 1010.8,611.958 1010.8,619.438 1005.6,619.438 1005.6,626.718 977.818,626.718 977.818,621.518 945.236,621.518 945.236,626.718 912.255,626.718 912.255,621.518 879.673,621.518 879.673,626.718 846.691,626.718 846.691,621.518 814.109,621.518 814.109,626.718 781.127,626.718 781.127,621.518 748.545,621.518 748.545,626.718 715.564,626.718 715.564,621.518 682.982,621.518 682.982,626.718 655.2,626.718" fill="none" stroke="black" stroke-width="0.1mm" />
<polyline z="0" points="655.2,565.382 655.2,539.318 650,539.318 650,513.055 655.2,513.055 655.2,487.191 650,487.191 650,460.927 655.2,460.927 655.2,435.064 650,435.064 650,408.8 655.2,408.8 655.2,382.937 650,382.937 650,356.673 655.2,356.673 655.2,330.809 650,330.809 650,304.546 655.2,304.546 655.2,278.482 682.782,278.482 682.782,273.282 715.764,273.282 715.764,278.482 748.345,278.482 748.345,273.282 781.327,273.282 781.327,278.482 813.909,278.482 813.909,273.282 846.891,273.282 846.891,278.482 879.473,278.482 879.473,273.282 912.455,273.282 912.455,278.482 945.036,278.482 945.036,273.282 978.018,273.282 978.018,278.482 1005.6,278.482 1005.6,304.546 1010.8,304.546 1010.8,330.809 1005.6,330.809 1005.6,356.673 1010.8,356.673 1010.8,382.937 1005.6,382.937 1005.6,408.8 1010.8,408.8 1010.8,435.064 1005.6,435.064 1005.6,460.927 1010.8,460.927 1010.8,487.191 1005.6,487.191 1005.6,513.055 1010.8,513.055 1010.8,539.318 1005.6,539.318 1005.6,565.382 978.018,565.382 978.018,570.582 945.036,570.582 945.036,565.382 912.455,565.382 912.455,570.582 879.473,570.582 879.473,565.382 846.891,565.382 846.891,570.582 813.909,570.582 813.909,565.382 781.327,565.382 781.327,570.582 748.345,570.582 748.345,565.382 715.764,565.382 715.764,570.582 682.782,570.582 682.782,565.382 655.2,565.382" fill="none" stroke="black" stroke-width="0.1mm" />
<polyline z="0" points="667.294,553.288 666.957,552.917 666.659,552.515 666.402,552.086 666.189,551.634 666.02,551.163 665.898,550.677 665.825,550.182 665.8,549.68 665.8,294.184 665.825,293.682 665.898,293.188 666.02,292.702 666.189,292.23 666.402,291.778 666.659,291.349 666.957,290.947 667.294,290.576 667.665,290.239 668.067,289.941 668.496,289.684 668.948,289.471 669.42,289.302 669.906,289.18 670.4,289.107 670.902,289.082 989.898,289.082 990.4,289.107 990.894,289.18 991.38,289.302 991.852,289.471 992.304,289.684 992.733,289.941 993.135,290.239 993.506,290.576 993.843,290.947 994.141,291.349 994.398,291.778 994.612,292.23 994.78,292.702 994.902,293.188 994.975,293.682 995,294.184 995,549.68 994.975,550.182 994.902,550.677 994.78,551.163 994.612,551.634 994.398,552.086 994.141,552.515 993.843,552.917 993.506,553.288 993.135,553.625 992.733,553.923 992.304,554.18 991.852,554.394 991.38,554.562 990.894,554.684 990.4,554.757 989.898,554.782 670.902,554.782 670.4,554.757 669.906,554.684 669.42,554.562 668.948,554.394 668.496,554.18 668.067,553.923 667.665,553.625 667.294,553.288" fill="none" stroke="black" stroke-width="0.1mm" />
<polyline z="0" points="586.5,273.282 555.036,273.282 555.036,268.082 529.173,268.082 529.173,273.282 502.909,273.282 502.909,268.082 477.045,268.082 477.045,273.282 450.782,273.282 450.782,268.082 424.918,268.082 424.918,273.282 398.655,273.282 398.655,268.082 372.791,268.082 372.791,273.282 346.527,273.282 346.527,268.082 320.664,268.082 320.664,273.282 289.2,273.282 289.2,265.802 294.4,265.802 294.4,258.722 289.2,258.722 289.2,251.242 294.4,251.242 294.4,244.162 289.2,244.162 289.2,236.682 320.664,236.682 320.664,241.882 346.527,241.882 346.527,236.682 352.025,236.682 352.025,231.161 365.695,217.491 365.695,222.832 384.141,222.832 384.141,217.632 402.986,217.632 402.986,222.832 421.431,222.832 421.431,217.229 423.639,222.559 409.516,236.682 424.918,236.682 424.918,241.882 450.782,241.882 450.782,236.682 477.045,236.682 477.045,241.882 502.909,241.882 502.909,236.682 529.173,236.682 529.173,241.882 555.036,241.882 555.036,236.682 586.5,236.682 586.5,244.162 581.3,244.162 581.3,251.242 586.5,251.242 586.5,258.722 581.3,258.722 581.3,265.802 586.5,265.802 586.5,273.282" fill="none" stroke="black" stroke-width="0.1mm" />
<polyline z="0" points="398.655,241.882 372.791,241.882 372.791,236.882 398.655,236.882 398.655,241.882" fill="none" stroke="black" stroke-width="0.1mm" />
</svg>