<?xml version="1.0" encoding="UTF-8" standalone="no"?>
<svg
   width="1300mm"
   height="900mm"
   viewBox="0 0 1300 900"
   version="1.1"
   id="svg10"
   sodipodi:docname="FrameLetterPortrait.svg"
   inkscape:version="1.4 (e7c3feb100, 2024-10-09)"
   xmlns:inkscape="http://www.inkscape.org/namespaces/inkscape"
   xmlns:sodipodi="http://sodipodi.sourceforge.net/DTD/sodipodi-0.dtd"
   xmlns="http://www.w3.org/2000/svg"
   xmlns:svg="http://www.w3.org/2000/svg">
  <defs
     id="defs10" />
  <sodipodi:namedview
     id="namedview10"
     pagecolor="#505050"
     bordercolor="#eeeeee"
     borderopacity="1"
     inkscape:showpageshadow="0"
     inkscape:pageopacity="0"
     inkscape:pagecheckerboard="0"
     inkscape:deskcolor="#505050"
     inkscape:document-units="mm"
     inkscape:zoom="0.23649679"
     inkscape:cx="2198.7613"
     inkscape:cy="1887.9748"
     inkscape:window-width="1920"
     inkscape:window-height="1011"
     inkscape:window-x="0"
     inkscape:window-y="32"
     inkscape:window-maximized="1"
     inkscape:current-layer="svg10" />
  <polyline
     z="0"
     points="326.15,606.858 326.15,574.549 320.95,574.549 320.95,542.04 326.15,542.04 326.15,509.931 320.95,509.931 320.95,477.422 326.15,477.422 326.15,445.313 320.95,445.313 320.95,412.803 326.15,412.803 326.15,380.694 320.95,380.694 320.95,348.185 326.15,348.185 326.15,316.076 320.95,316.076 320.95,283.567 326.15,283.567 326.15,256.458 352.214,256.458 352.214,251.258 378.477,251.258 378.477,256.458 404.341,256.458 404.341,251.258 430.605,251.258 430.605,256.458 456.468,256.458 456.468,251.258 482.732,251.258 482.732,256.458 508.595,256.458 508.595,251.258 534.859,251.258 534.859,256.458 560.723,256.458 560.723,251.258 586.986,251.258 586.986,256.458 613.05,256.458 613.05,283.567 618.25,283.567 618.25,316.076 613.05,316.076 613.05,348.185 618.25,348.185 618.25,380.694 613.05,380.694 613.05,412.803 618.25,412.803 618.25,445.313 613.05,445.313 613.05,477.422 618.25,477.422 618.25,509.931 613.05,509.931 613.05,542.04 618.25,542.04 618.25,574.549 613.05,574.549 613.05,606.858 591.241,606.858 591.241,612.058 564.032,612.058 564.032,606.858 537.223,606.858 537.223,612.058 510.014,612.058 510.014,606.858 483.205,606.858 483.205,612.058 455.995,612.058 455.995,606.858 429.186,606.858 429.186,612.058 401.977,612.058 401.977,606.858 375.168,606.858 375.168,612.058 347.959,612.058 347.959,606.858 326.15,606.858"
     fill="none"
     stroke="#000000"
     stroke-width="0.1mm"
     id="polyline3"
     style="vector-effect:non-scaling-stroke;stroke-width:0.264583;stroke-dasharray:none;-inkscape-stroke:hairline"
     transform="matrix(1,0,0,-1,124.402,701.258)" />
  <path
     id="polyline6"
     style="vector-effect:non-scaling-stroke;fill:none;stroke:#000000;stroke-width:0.264583;-inkscape-stroke:hairline"
     d="m 759.946,106.493 -0.337,0.371 -0.298,0.402 -0.257,0.43 -0.213,0.452 -0.169,0.471 -0.122,0.486 -0.073,0.494 -0.025,0.503 v 318.995 l 0.025,0.503 0.073,0.494 0.122,0.486 0.169,0.471 0.213,0.452 0.257,0.43 0.298,0.402 0.337,0.371 0.371,0.336 0.402,0.298 0.429,0.257 0.452,0.214 0.472,0.169 0.486,0.121 0.494,0.074 0.502,0.025 h 255.496 l 0.502,-0.025 0.494,-0.074 0.486,-0.121 0.472,-0.169 0.452,-0.214 0.429,-0.257 0.402,-0.298 0.371,-0.336 0.337,-0.371 0.298,-0.402 0.257,-0.43 0.214,-0.452 0.168,-0.471 0.122,-0.486 0.073,-0.494 0.025,-0.503 V 110.102 l -0.025,-0.503 -0.073,-0.494 -0.122,-0.486 -0.168,-0.471 -0.214,-0.452 -0.257,-0.43 -0.298,-0.402 -0.337,-0.371 -0.371,-0.336 -0.402,-0.298 -0.429,-0.257 -0.452,-0.214 -0.472,-0.169 -0.486,-0.121 -0.494,-0.074 L 1019.05,105 H 763.554 l -0.502,0.024 -0.494,0.074 -0.486,0.121 -0.472,0.169 -0.452,0.214 -0.429,0.257 -0.402,0.298 -0.371,0.336 M 747.852,94.4 v 32.309 h -5.2 v 32.509 h 5.2 v 32.109 h -5.2 v 32.509 h 5.2 v 32.109 h -5.2 v 32.51 h 5.2 v 32.109 h -5.2 v 32.509 h 5.2 v 32.109 h -5.2 v 32.509 h 5.2 V 444.8 h 26.064 v 5.2 h 26.263 v -5.2 h 25.86401 v 5.2 h 26.264 v -5.2 h 25.863 v 5.2 h 26.264 v -5.2 H 930.297 v 5.2 h 26.264 v -5.2 h 25.864 v 5.2 h 26.263 v -5.2 h 26.064 v -27.109 h 5.2 v -32.509 h -5.2 v -32.109 h 5.2 v -32.509 h -5.2 v -32.109 h 5.2 v -32.51 h -5.2 v -32.109 h 5.2 v -32.509 h -5.2 v -32.109 h 5.2 v -32.509 h -5.2 V 94.4 h -21.809 v -5.2 h -27.209 v 5.2 h -26.809 v -5.2 h -27.209 v 5.2 h -26.80899 v -5.2 h -27.21 v 5.2 h -26.809 v -5.2 h -27.209 v 5.2 H 796.87 v -5.2 h -27.209 v 5.2 h -21.809" />
  <polyline
     z="0"
     points="326.15,606.858 326.15,574.549 320.95,574.549 320.95,542.04 326.15,542.04 326.15,509.931 320.95,509.931 320.95,477.422 326.15,477.422 326.15,445.313 320.95,445.313 320.95,412.803 326.15,412.803 326.15,380.694 320.95,380.694 320.95,348.185 326.15,348.185 326.15,316.076 320.95,316.076 320.95,283.567 326.15,283.567 326.15,256.458 352.214,256.458 352.214,251.258 378.477,251.258 378.477,256.458 404.341,256.458 404.341,251.258 430.605,251.258 430.605,256.458 456.468,256.458 456.468,251.258 482.732,251.258 482.732,256.458 508.595,256.458 508.595,251.258 534.859,251.258 534.859,256.458 560.723,256.458 560.723,251.258 586.986,251.258 586.986,256.458 613.05,256.458 613.05,283.567 618.25,283.567 618.25,316.076 613.05,316.076 613.05,348.185 618.25,348.185 618.25,380.694 613.05,380.694 613.05,412.803 618.25,412.803 618.25,445.313 613.05,445.313 613.05,477.422 618.25,477.422 618.25,509.931 613.05,509.931 613.05,542.04 618.25,542.04 618.25,574.549 613.05,574.549 613.05,606.858 591.241,606.858 591.241,612.058 564.032,612.058 564.032,606.858 537.223,606.858 537.223,612.058 510.014,612.058 510.014,606.858 483.205,606.858 483.205,612.058 455.995,612.058 455.995,606.858 429.186,606.858 429.186,612.058 401.977,612.058 401.977,606.858 375.168,606.858 375.168,612.058 347.959,612.058 347.959,606.858 326.15,606.858"
     fill="none"
     stroke="#000000"
     stroke-width="0.1mm"
     id="polyline3-5"
     style="vector-effect:non-scaling-stroke;stroke-width:0.264583;stroke-dasharray:none;-inkscape-stroke:hairline"
     transform="translate(124.402,198.742)" />
  <polyline
     z="0"
     points="320.95,704.794 320.95,685.949 326.15,685.949 326.15,667.503 320.95,667.503 320.95,648.658 618.25,648.658 618.25,667.503 613.05,667.503 613.05,685.949 618.25,685.949 618.25,704.794 320.95,704.794"
     fill="none"
     stroke="#000000"
     stroke-width="0.1mm"
     id="polyline1"
     style="vector-effect:non-scaling-stroke;stroke-width:0.264583;stroke-dasharray:none;-inkscape-stroke:hairline"
     transform="rotate(-90,709.67924,390.32124)" />
  <polyline
     z="0"
     points="320.95,648.658 320.95,641.178 326.15,641.178 326.15,634.098 320.95,634.098 320.95,626.618 326.15,626.618 326.15,619.538 320.95,619.538 320.95,612.058 352.414,612.058 352.414,617.258 378.277,617.258 378.277,612.058 404.541,612.058 404.541,617.258 430.405,617.258 430.405,612.058 456.668,612.058 456.668,617.258 482.532,617.258 482.532,612.058 508.795,612.058 508.795,617.258 534.659,617.258 534.659,612.058 560.923,612.058 560.923,617.258 586.786,617.258 586.786,612.058 618.25,612.058 618.25,619.538 613.05,619.538 613.05,626.618 618.25,626.618 618.25,634.098 613.05,634.098 613.05,641.178 618.25,641.178 618.25,648.658 586.786,648.658 586.786,643.458 560.923,643.458 560.923,648.658 534.659,648.658 534.659,643.458 508.795,643.458 508.795,648.658 482.532,648.658 482.532,643.458 456.668,643.458 456.668,648.658 430.405,648.658 430.405,643.458 404.541,643.458 404.541,648.658 378.277,648.658 378.277,643.458 352.414,643.458 352.414,648.658 320.95,648.658"
     fill="none"
     stroke="#000000"
     stroke-width="0.1mm"
     id="polyline2"
     style="vector-effect:non-scaling-stroke;stroke-width:0.264583;stroke-dasharray:none;-inkscape-stroke:hairline"
     transform="rotate(-90,669.56525,430.43524)" />
  <polyline
     z="0"
     points="618.25,619.338 623.45,619.338 623.45,612.058 645.459,612.058 645.459,617.258 672.268,617.258 672.268,612.058 699.477,612.058 699.477,617.258 726.286,617.258 726.286,612.058 753.495,612.058 753.495,617.258 780.305,617.258 780.305,612.058 807.514,612.058 807.514,617.258 834.323,617.258 834.323,612.058 861.532,612.058 861.532,617.258 888.341,617.258 888.341,612.058 910.35,612.058 910.35,619.338 915.55,619.338 915.55,626.818 910.35,626.818 910.35,633.898 915.55,633.898 915.55,641.378 910.35,641.378 910.35,648.658 888.341,648.658 888.341,643.458 861.532,643.458 861.532,648.658 834.323,648.658 834.323,643.458 807.514,643.458 807.514,648.658 780.305,648.658 780.305,643.458 753.495,643.458 753.495,648.658 726.286,648.658 726.286,643.458 699.477,643.458 699.477,648.658 672.268,648.658 672.268,643.458 645.459,643.458 645.459,648.658 623.45,648.658 623.45,641.378 618.25,641.378 618.25,633.898 623.45,633.898 623.45,626.818 618.25,626.818 618.25,619.338"
     fill="none"
     stroke="#000000"
     stroke-width="0.1mm"
     id="polyline4"
     style="vector-effect:non-scaling-stroke;stroke-width:0.264583;stroke-dasharray:none;-inkscape-stroke:hairline"
     transform="rotate(-90,858.32924,538.97124)" />
  <polyline
     z="0"
     points="320.95,704.794 320.95,685.949 326.15,685.949 326.15,667.503 320.95,667.503 320.95,648.658 618.25,648.658 618.25,667.503 613.05,667.503 613.05,685.949 618.25,685.949 618.25,704.794 320.95,704.794"
     fill="none"
     stroke="#000000"
     stroke-width="0.1mm"
     id="polyline1-7"
     style="vector-effect:non-scaling-stroke;stroke-width:0.264583;stroke-dasharray:none;-inkscape-stroke:hairline"
     transform="matrix(0,-1,-1,0,1463.246,1100.0005)" />
  <polyline
     z="0"
     points="320.95,648.658 320.95,641.178 326.15,641.178 326.15,634.098 320.95,634.098 320.95,626.618 326.15,626.618 326.15,619.538 320.95,619.538 320.95,612.058 352.414,612.058 352.414,617.258 378.277,617.258 378.277,612.058 404.541,612.058 404.541,617.258 430.405,617.258 430.405,612.058 456.668,612.058 456.668,617.258 482.532,617.258 482.532,612.058 508.795,612.058 508.795,617.258 534.659,617.258 534.659,612.058 560.923,612.058 560.923,617.258 586.786,617.258 586.786,612.058 618.25,612.058 618.25,619.538 613.05,619.538 613.05,626.618 618.25,626.618 618.25,634.098 613.05,634.098 613.05,641.178 618.25,641.178 618.25,648.658 586.786,648.658 586.786,643.458 560.923,643.458 560.923,648.658 534.659,648.658 534.659,643.458 508.795,643.458 508.795,648.658 482.532,648.658 482.532,643.458 456.668,643.458 456.668,648.658 430.405,648.658 430.405,643.458 404.541,643.458 404.541,648.658 378.277,648.658 378.277,643.458 352.414,643.458 352.414,648.658 320.95,648.658"
     fill="none"
     stroke="#000000"
     stroke-width="0.1mm"
     id="polyline2-6"
     style="vector-effect:non-scaling-stroke;stroke-width:0.264583;stroke-dasharray:none;-inkscape-stroke:hairline"
     transform="matrix(0,-1,-1,0,1463.246,1100.0005)" />
  <polyline
     z="0"
     points="618.25,619.338 623.45,619.338 623.45,612.058 645.459,612.058 645.459,617.258 672.268,617.258 672.268,612.058 699.477,612.058 699.477,617.258 726.286,617.258 726.286,612.058 753.495,612.058 753.495,617.258 780.305,617.258 780.305,612.058 807.514,612.058 807.514,617.258 834.323,617.258 834.323,612.058 861.532,612.058 861.532,617.258 888.341,617.258 888.341,612.058 910.35,612.058 910.35,619.338 915.55,619.338 915.55,626.818 910.35,626.818 910.35,633.898 915.55,633.898 915.55,641.378 910.35,641.378 910.35,648.658 888.341,648.658 888.341,643.458 861.532,643.458 861.532,648.658 834.323,648.658 834.323,643.458 807.514,643.458 807.514,648.658 780.305,648.658 780.305,643.458 753.495,643.458 753.495,648.658 726.286,648.658 726.286,643.458 699.477,643.458 699.477,648.658 672.268,648.658 672.268,643.458 645.459,643.458 645.459,648.658 623.45,648.658 623.45,641.378 618.25,641.378 618.25,633.898 623.45,633.898 623.45,626.818 618.25,626.818 618.25,619.338"
     fill="none"
     stroke="#000000"
     stroke-width="0.1mm"
     id="polyline4-6"
     style="vector-effect:non-scaling-stroke;stroke-width:0.264583;stroke-dasharray:none;-inkscape-stroke:hairline"
     transform="matrix(0,-1,-1,0,1543.474,1397.3005)" />
  <path
     id="polyline6-9"
     style="vector-effect:non-scaling-stroke;fill:none;stroke:#000000;stroke-width:0.264583;-inkscape-stroke:hairline"
     d="m 759.94601,793.507 -0.337,-0.371 -0.298,-0.402 -0.257,-0.43004 -0.213,-0.452 -0.169,-0.471 -0.122,-0.486 -0.073,-0.494 -0.025,-0.503 V 470.903 l 0.025,-0.503 0.073,-0.494 0.122,-0.486 0.169,-0.471 0.213,-0.452 0.257,-0.43 0.298,-0.402 0.337,-0.371 0.371,-0.336 0.402,-0.298 0.429,-0.257 0.452,-0.214 0.472,-0.169 0.486,-0.121 0.494,-0.074 0.502,-0.025 H 1019.05 l 0.502,0.025 0.494,0.074 0.486,0.121 0.472,0.169 0.452,0.214 0.429,0.257 0.402,0.298 0.371,0.336 0.337,0.371 0.298,0.402 0.257,0.43 0.214,0.452 0.168,0.471 0.122,0.486 0.073,0.494 0.025,0.503 v 318.99496 l -0.025,0.503 -0.073,0.494 -0.122,0.486 -0.168,0.471 -0.214,0.452 -0.257,0.43004 -0.298,0.402 -0.337,0.371 -0.371,0.336 -0.402,0.298 -0.429,0.257 -0.452,0.214 -0.472,0.169 -0.486,0.121 -0.494,0.074 -0.502,0.024 H 763.55401 l -0.502,-0.024 -0.494,-0.074 -0.486,-0.121 -0.472,-0.169 -0.452,-0.214 -0.429,-0.257 -0.402,-0.298 -0.371,-0.336 m -12.094,12.093 v -32.309 h -5.2 v -32.509 h 5.2 v -32.109 h -5.2 v -32.509 h 5.2 v -32.109 h -5.2 v -32.51 h 5.2 v -32.109 h -5.2 v -32.509 h 5.2 v -32.109 h -5.2 v -32.509 h 5.2 V 455.2 h 26.064 V 450 h 26.263 v 5.2 h 25.864 V 450 h 26.264 v 5.2 h 25.863 V 450 h 26.264 v 5.2 H 930.297 V 450 h 26.264 v 5.2 h 25.864 V 450 h 26.263 v 5.2 h 26.064 v 27.109 h 5.2 v 32.509 h -5.2 v 32.109 h 5.2 v 32.509 h -5.2 v 32.109 h 5.2 v 32.51 h -5.2 v 32.109 h 5.2 v 32.509 h -5.2 v 32.109 h 5.2 v 32.509 h -5.2 V 805.6 h -21.809 v 5.2 h -27.209 v -5.2 h -26.809 v 5.2 h -27.209 v -5.2 h -26.80899 v 5.2 h -27.21 v -5.2 h -26.809 v 5.2 h -27.209 v -5.2 h -26.809 v 5.2 h -27.209 v -5.2 h -21.809" />
  <path
     id="polyline8"
     style="vector-effect:non-scaling-stroke;fill:none;stroke:#000000;stroke-width:0.264583;-inkscape-stroke:hairline"
     d="m 316.3,708.473 v -32.109 h 5 v 32.109 h -5 M 316.09999,810.8 V 773.091 H 321.3 v -32.109 h -5.20001 V 716.225 H 310.579 l -13.67,-13.67 h 5.341 v -18.446 h -5.2 v -18.845 h 5.2 v -18.445 h -5.602 l 5.33,-2.208 14.122,14.123 v -14.879 h 5.2 v -32.11 h -5.2 v -32.509 h 5.2 v -32.109 h -5.2 v -32.509 h 5.2 v -32.109 h -5.2 V 455.2 h 7.28 V 450 h 7.48 v 5.2 h 7.08 V 450 h 7.48 v 5.2 h 7.28 v 27.309 h -5.2 v 32.109 h 5.2 v 32.509 h -5.2 v 32.109 h 5.2 v 32.509 h -5.2 v 32.11 h 5.2 v 32.509 h -5.2 v 32.109 h 5.2 v 32.509 h -5.2 v 32.109 h 5.2 V 810.8 h -7.48 v -5.2 h -7.08 v 5.2 h -7.48 v -5.2 h -7.08001 v 5.2 h -7.48" />
  <path
     id="polyline10"
     style="vector-effect:non-scaling-stroke;fill:none;stroke:#000000;stroke-width:0.264583;-inkscape-stroke:hairline"
     d="m 413.952,552.327 v 32.109 h -5 v -32.109 h 5 M 445.352,450 v 37.709 h -5.2 v 32.109 h 5.2 v 32.509 h -5.2 v 32.109 h 5.2 v 32.509 h -5.2 v 32.11 h 5.2 v 32.509 h -5.2 v 32.109 h 5.2 v 32.509 h -5.2 v 32.109 h 5.2 V 805.6 h -7.28 v 5.2 h -7.48 v -5.2 h -7.08 v 5.2 h -7.48 v -5.2 h -7.28 v -27.309 h 5.2 v -32.109 h -5.2 v -32.509 h 5.2 v -32.109 h -5.2 v -32.509 h 5.2 v -32.11 h -5.2 v -14.879 l -14.122,14.123 -5.33,-2.208 h 5.602 v -18.445 h -5.2 v -18.845 h 5.2 v -18.446 h -5.341 l 13.67,-13.67 h 5.521 v -24.757 h 5.2 v -32.109 h -5.2 V 450 h 7.48 v 5.2 h 7.08 V 450 h 7.48 v 5.2 h 7.08 V 450 h 7.48" />
  <path
     id="polyline8-3"
     style="vector-effect:non-scaling-stroke;fill:none;stroke:#000000;stroke-width:0.264583;-inkscape-stroke:hairline"
     d="m 389.1,708.473 v -32.109 h -5 v 32.109 h 5 M 389.30001,810.8 V 773.091 H 384.1 v -32.109 h 5.20001 v -24.757 h 5.52099 l 13.67,-13.67 h -5.341 v -18.446 h 5.2 v -18.845 h -5.2 v -18.445 h 5.602 l -5.33,-2.208 -14.122,14.123 v -14.879 h -5.2 v -32.11 h 5.2 v -32.509 h -5.2 v -32.109 h 5.2 v -32.509 h -5.2 v -32.109 h 5.2 V 455.2 h -7.28 V 450 h -7.48 v 5.2 h -7.08 V 450 h -7.48 v 5.2 h -7.28 v 27.309 h 5.2 v 32.109 h -5.2 v 32.509 h 5.2 v 32.109 h -5.2 v 32.509 h 5.2 v 32.11 h -5.2 v 32.509 h 5.2 v 32.109 h -5.2 v 32.509 h 5.2 v 32.109 h -5.2 V 810.8 h 7.48 v -5.2 h 7.08 v 5.2 h 7.48 v -5.2 h 7.08001 v 5.2 h 7.48" />
  <path
     id="polyline10-7"
     style="vector-effect:non-scaling-stroke;fill:none;stroke:#000000;stroke-width:0.264583;-inkscape-stroke:hairline"
     d="m 291.448,552.327 v 32.109 h 5 v -32.109 h -5 M 260.048,450 v 37.709 h 5.2 v 32.109 h -5.2 v 32.509 h 5.2 v 32.109 h -5.2 v 32.509 h 5.2 v 32.11 h -5.2 v 32.509 h 5.2 v 32.109 h -5.2 v 32.509 h 5.2 v 32.109 h -5.2 V 805.6 h 7.28 v 5.2 h 7.48 v -5.2 h 7.08 v 5.2 h 7.48 v -5.2 h 7.28 v -27.309 h -5.2 v -32.109 h 5.2 v -32.509 h -5.2 v -32.109 h 5.2 v -32.509 h -5.2 v -32.11 h 5.2 v -14.879 l 14.122,14.123 5.33,-2.208 h -5.602 v -18.445 h 5.2 v -18.845 h -5.2 v -18.446 h 5.341 l -13.67,-13.67 h -5.521 v -24.757 h -5.2 v -32.109 h 5.2 V 450 h -7.48 v 5.2 h -7.08 V 450 h -7.48 v 5.2 h -7.08 V 450 h -7.48" />
</svg>
