<?xml version="1.0" standalone="no"?>
<!DOCTYPE svg PUBLIC "-//W3C//DTD SVG 1.1//EN" "http://www.w3.org/Graphics/SVG/1.1/DTD/svg11.dtd">
<svg width="1300mm" height="900mm" viewBox="0 0 1300 900" xmlns="http://www.w3.org/2000/svg" version="1.1">
<polyline z="0" points="377.9,596.794 377.9,588.133 383.1,588.133 383.1,579.872 377.9,579.872 377.9,571.211 383.1,571.211 383.1,562.95 377.9,562.95 377.9,560.194 382.775,560.194 382.775,554.673 396.445,541.003 396.445,546.344 414.891,546.344 414.891,541.144 433.736,541.144 433.736,546.344 452.181,546.344 452.181,540.742 454.389,546.072 440.066,560.394 431.3,560.394 431.3,565.394 447.1,565.394 447.1,560.194 463.3,560.194 463.3,565.394 479.1,565.394 479.1,560.194 495.3,560.194 495.3,565.394 511.1,565.394 511.1,560.194 527.3,560.194 527.3,565.394 543.1,565.394 543.1,560.194 554.1,560.194 554.1,567.474 559.3,567.474 559.3,574.954 554.1,574.954 554.1,582.034 559.3,582.034 559.3,589.514 554.1,589.514 554.1,596.794 543.1,596.794 543.1,591.594 527.3,591.594 527.3,596.794 511.1,596.794 511.1,591.594 495.3,591.594 495.3,596.794 479.1,596.794 479.1,591.594 463.3,591.594 463.3,596.794 447.1,596.794 447.1,591.594 431.3,591.594 431.3,596.794 415.1,596.794 415.1,591.594 399.3,591.594 399.3,596.794 377.9,596.794" fill="none" stroke="black" stroke-width="0.1mm" />
<polyline z="0" points="399.3,565.394 399.3,560.394 415.1,560.394 415.1,565.394 399.3,565.394" fill="none" stroke="black" stroke-width="0.1mm" />
<polyline z="0" points="377.9,540.742 377.9,521.897 383.1,521.897 383.1,503.451 377.9,503.451 377.9,484.606 559.3,484.606 559.3,503.451 554.1,503.451 554.1,521.897 559.3,521.897 559.3,540.742 377.9,540.742" fill="none" stroke="black" stroke-width="0.1mm" />
<polyline z="0" points="394.373,484.606 394.373,479.406 383.1,479.406 383.1,463.406 377.9,463.406 377.9,447.206 383.1,447.206 383.1,431.406 377.9,431.406 377.9,415.206 383.1,415.206 383.1,399.406 377.9,399.406 377.9,383.206 383.1,383.206 383.1,367.406 377.9,367.406 377.9,351.206 383.1,351.206 383.1,335.406 377.9,335.406 377.9,319.206 383.1,319.206 383.1,308.406 398.627,308.406 398.627,303.206 414.355,303.206 414.355,308.406 429.682,308.406 429.682,303.206 445.409,303.206 445.409,308.406 460.736,308.406 460.736,303.206 476.464,303.206 476.464,308.406 491.791,308.406 491.791,303.206 507.518,303.206 507.518,308.406 522.845,308.406 522.845,303.206 538.573,303.206 538.573,308.406 554.1,308.406 554.1,319.206 559.3,319.206 559.3,335.406 554.1,335.406 554.1,351.206 559.3,351.206 559.3,367.406 554.1,367.406 554.1,383.206 559.3,383.206 559.3,399.406 554.1,399.406 554.1,415.206 559.3,415.206 559.3,431.406 554.1,431.406 554.1,447.206 559.3,447.206 559.3,463.406 554.1,463.406 554.1,479.406 542.827,479.406 542.827,484.606 526.155,484.606 526.155,479.406 509.882,479.406 509.882,484.606 493.209,484.606 493.209,479.406 476.936,479.406 476.936,484.606 460.264,484.606 460.264,479.406 443.991,479.406 443.991,484.606 427.318,484.606 427.318,479.406 411.045,479.406 411.045,484.606 394.373,484.606" fill="none" stroke="black" stroke-width="0.1mm" />
<polyline z="0" points="397.806,468.707 397.32,468.586 396.848,468.417 396.396,468.203 395.967,467.946 395.565,467.648 395.194,467.312 394.857,466.941 394.559,466.539 394.302,466.109 394.088,465.657 393.92,465.186 393.798,464.7 393.725,464.206 393.7,463.703 393.7,324.108 393.725,323.605 393.798,323.111 393.92,322.626 394.088,322.154 394.302,321.702 394.559,321.272 394.857,320.87 395.194,320.499 395.565,320.163 395.967,319.865 396.396,319.608 396.848,319.394 397.32,319.225 397.806,319.104 398.3,319.03 398.802,319.006 538.398,319.006 538.9,319.03 539.394,319.104 539.88,319.225 540.352,319.394 540.804,319.608 541.233,319.865 541.635,320.163 542.006,320.499 542.343,320.87 542.641,321.272 542.898,321.702 543.112,322.154 543.28,322.626 543.402,323.111 543.475,323.605 543.5,324.108 543.5,463.703 543.475,464.206 543.402,464.7 543.28,465.186 543.112,465.657 542.898,466.109 542.641,466.539 542.343,466.941 542.006,467.312 541.635,467.648 541.233,467.946 540.804,468.203 540.352,468.417 539.88,468.586 539.394,468.707 538.9,468.781 538.398,468.806 398.802,468.806 398.3,468.781 397.806,468.707" fill="none" stroke="black" stroke-width="0.1mm" />
<polyline z="0" points="559.3,463.406 559.3,447.206 564.5,447.206 564.5,431.406 559.3,431.406 559.3,415.206 564.5,415.206 564.5,399.406 559.3,399.406 559.3,383.206 564.5,383.206 564.5,367.406 559.3,367.406 559.3,351.206 564.5,351.206 564.5,335.406 559.3,335.406 559.3,319.206 564.5,319.206 564.5,308.406 580.027,308.406 580.027,303.206 595.755,303.206 595.755,308.406 611.082,308.406 611.082,303.206 626.809,303.206 626.809,308.406 642.136,308.406 642.136,303.206 657.864,303.206 657.864,308.406 673.191,308.406 673.191,303.206 688.918,303.206 688.918,308.406 704.245,308.406 704.245,303.206 719.973,303.206 719.973,308.406 735.5,308.406 735.5,319.206 740.7,319.206 740.7,335.406 735.5,335.406 735.5,351.206 740.7,351.206 740.7,367.406 735.5,367.406 735.5,383.206 740.7,383.206 740.7,399.406 735.5,399.406 735.5,415.206 740.7,415.206 740.7,431.406 735.5,431.406 735.5,447.206 740.7,447.206 740.7,463.406 735.5,463.406 735.5,479.406 724.227,479.406 724.227,484.606 707.555,484.606 707.555,479.406 691.282,479.406 691.282,484.606 674.609,484.606 674.609,479.406 658.336,479.406 658.336,484.606 641.664,484.606 641.664,479.406 625.391,479.406 625.391,484.606 608.718,484.606 608.718,479.406 592.445,479.406 592.445,484.606 575.773,484.606 575.773,479.406 564.5,479.406 564.5,463.406 559.3,463.406" fill="none" stroke="black" stroke-width="0.1mm" />
<polyline z="0" points="564.5,504.142 575.5,504.142 575.5,509.342 591.3,509.342 591.3,504.142 607.5,504.142 607.5,509.342 623.3,509.342 623.3,504.142 639.5,504.142 639.5,509.342 655.3,509.342 655.3,504.142 671.5,504.142 671.5,509.342 687.3,509.342 687.3,504.342 678.534,504.342 664.211,490.019 666.419,484.689 666.419,490.292 684.864,490.292 684.864,485.092 703.709,485.092 703.709,490.292 722.155,490.292 722.155,484.95 735.825,498.62 735.825,504.142 740.7,504.142 740.7,506.898 735.5,506.898 735.5,515.159 740.7,515.159 740.7,523.82 735.5,523.82 735.5,532.081 740.7,532.081 740.7,540.742 719.3,540.742 719.3,535.542 703.5,535.542 703.5,540.742 687.3,540.742 687.3,535.542 671.5,535.542 671.5,540.742 655.3,540.742 655.3,535.542 639.5,535.542 639.5,540.742 623.3,540.742 623.3,535.542 607.5,535.542 607.5,540.742 591.3,540.742 591.3,535.542 575.5,535.542 575.5,540.742 564.5,540.742 564.5,533.462 559.3,533.462 559.3,525.982 564.5,525.982 564.5,518.902 559.3,518.902 559.3,511.422 564.5,511.422 564.5,504.142" fill="none" stroke="black" stroke-width="0.1mm" />
<polyline z="0" points="703.5,504.342 719.3,504.342 719.3,509.342 703.5,509.342 703.5,504.342" fill="none" stroke="black" stroke-width="0.1mm" />
<polyline z="0" points="735.5,554.29 735.5,562.751 740.7,562.751 740.7,571.412 735.5,571.412 735.5,579.672 740.7,579.672 740.7,588.333 735.5,588.333 735.5,596.794 724.027,596.794 724.027,591.594 707.755,591.594 707.755,596.794 691.082,596.794 691.082,591.594 674.809,591.594 674.809,596.794 658.136,596.794 658.136,591.594 641.864,591.594 641.864,596.794 625.191,596.794 625.191,591.594 608.918,591.594 608.918,596.794 592.245,596.794 592.245,591.594 575.973,591.594 575.973,596.794 564.5,596.794 564.5,588.333 559.3,588.333 559.3,579.672 564.5,579.672 564.5,571.412 559.3,571.412 559.3,562.751 564.5,562.751 564.5,554.29 735.5,554.29" fill="none" stroke="black" stroke-width="0.1mm" />
<polyline z="0" points="724.027,560.394 724.027,565.394 707.755,565.394 707.755,560.394 724.027,560.394" fill="none" stroke="black" stroke-width="0.1mm" />
<polyline z="0" points="691.082,560.394 691.082,565.394 674.809,565.394 674.809,560.394 691.082,560.394" fill="none" stroke="black" stroke-width="0.1mm" />
<polyline z="0" points="658.136,560.394 658.136,565.394 641.864,565.394 641.864,560.394 658.136,560.394" fill="none" stroke="black" stroke-width="0.1mm" />
<polyline z="0" points="625.191,560.394 625.191,565.394 608.918,565.394 608.918,560.394 625.191,560.394" fill="none" stroke="black" stroke-width="0.1mm" />
<polyline z="0" points="592.245,560.394 592.245,565.394 575.973,565.394 575.973,560.394 592.245,560.394" fill="none" stroke="black" stroke-width="0.1mm" />
<polyline z="0" points="740.7,560.194 761.627,560.194 761.627,565.394 776.955,565.394 776.955,560.194 792.682,560.194 792.682,565.394 808.009,565.394 808.009,560.194 823.736,560.194 823.736,565.394 839.064,565.394 839.064,560.194 854.791,560.194 854.791,565.394 870.118,565.394 870.118,560.194 885.845,560.194 885.845,565.394 901.173,565.394 901.173,560.194 922.1,560.194 922.1,567.674 916.9,567.674 916.9,574.754 922.1,574.754 922.1,582.234 916.9,582.234 916.9,589.314 922.1,589.314 922.1,596.794 901.173,596.794 901.173,591.594 885.845,591.594 885.845,596.794 870.118,596.794 870.118,591.594 854.791,591.594 854.791,596.794 839.064,596.794 839.064,591.594 823.736,591.594 823.736,596.794 808.009,596.794 808.009,591.594 792.682,591.594 792.682,596.794 776.955,596.794 776.955,591.594 761.627,591.594 761.627,596.794 740.7,596.794 740.7,589.314 745.9,589.314 745.9,582.234 740.7,582.234 740.7,574.754 745.9,574.754 745.9,567.674 740.7,567.674 740.7,560.194" fill="none" stroke="black" stroke-width="0.1mm" />
</svg>