<?xml version="1.0" standalone="no"?>
<!DOCTYPE svg PUBLIC "-//W3C//DTD SVG 1.1//EN" "http://www.w3.org/Graphics/SVG/1.1/DTD/svg11.dtd">
<svg width="1300mm" height="900mm" viewBox="0 0 1300 900" xmlns="http://www.w3.org/2000/svg" version="1.1">
<polyline z="0" points="320.95,704.794 320.95,685.949 326.15,685.949 326.15,667.503 320.95,667.503 320.95,648.658 618.25,648.658 618.25,667.503 613.05,667.503 613.05,685.949 618.25,685.949 618.25,704.794 320.95,704.794" fill="none" stroke="black" stroke-width="0.1mm" />
<polyline z="0" points="320.95,648.658 320.95,641.178 326.15,641.178 326.15,634.098 320.95,634.098 320.95,626.618 326.15,626.618 326.15,619.538 320.95,619.538 320.95,612.058 352.414,612.058 352.414,617.258 378.277,617.258 378.277,612.058 404.541,612.058 404.541,617.258 430.405,617.258 430.405,612.058 456.668,612.058 456.668,617.258 482.532,617.258 482.532,612.058 508.795,612.058 508.795,617.258 534.659,617.258 534.659,612.058 560.923,612.058 560.923,617.258 586.786,617.258 586.786,612.058 618.25,612.058 618.25,619.538 613.05,619.538 613.05,626.618 618.25,626.618 618.25,634.098 613.05,634.098 613.05,641.178 618.25,641.178 618.25,648.658 586.786,648.658 586.786,643.458 560.923,643.458 560.923,648.658 534.659,648.658 534.659,643.458 508.795,643.458 508.795,648.658 482.532,648.658 482.532,643.458 456.668,643.458 456.668,648.658 430.405,648.658 430.405,643.458 404.541,643.458 404.541,648.658 378.277,648.658 378.277,643.458 352.414,643.458 352.414,648.658 320.95,648.658" fill="none" stroke="black" stroke-width="0.1mm" />
<polyline z="0" points="326.15,606.858 326.15,574.549 320.95,574.549 320.95,542.04 326.15,542.04 326.15,509.931 320.95,509.931 320.95,477.422 326.15,477.422 326.15,445.313 320.95,445.313 320.95,412.803 326.15,412.803 326.15,380.694 320.95,380.694 320.95,348.185 326.15,348.185 326.15,316.076 320.95,316.076 320.95,283.567 326.15,283.567 326.15,256.458 352.214,256.458 352.214,251.258 378.477,251.258 378.477,256.458 404.341,256.458 404.341,251.258 430.605,251.258 430.605,256.458 456.468,256.458 456.468,251.258 482.732,251.258 482.732,256.458 508.595,256.458 508.595,251.258 534.859,251.258 534.859,256.458 560.723,256.458 560.723,251.258 586.986,251.258 586.986,256.458 613.05,256.458 613.05,283.567 618.25,283.567 618.25,316.076 613.05,316.076 613.05,348.185 618.25,348.185 618.25,380.694 613.05,380.694 613.05,412.803 618.25,412.803 618.25,445.313 613.05,445.313 613.05,477.422 618.25,477.422 618.25,509.931 613.05,509.931 613.05,542.04 618.25,542.04 618.25,574.549 613.05,574.549 613.05,606.858 591.241,606.858 591.241,612.058 564.032,612.058 564.032,606.858 537.223,606.858 537.223,612.058 510.014,612.058 510.014,606.858 483.205,606.858 483.205,612.058 455.995,612.058 455.995,606.858 429.186,606.858 429.186,612.058 401.977,612.058 401.977,606.858 375.168,606.858 375.168,612.058 347.959,612.058 347.959,606.858 326.15,606.858" fill="none" stroke="black" stroke-width="0.1mm" />
<polyline z="0" points="618.25,619.338 623.45,619.338 623.45,612.058 645.459,612.058 645.459,617.258 672.268,617.258 672.268,612.058 699.477,612.058 699.477,617.258 726.286,617.258 726.286,612.058 753.495,612.058 753.495,617.258 780.305,617.258 780.305,612.058 807.514,612.058 807.514,617.258 834.323,617.258 834.323,612.058 861.532,612.058 861.532,617.258 888.341,617.258 888.341,612.058 910.35,612.058 910.35,619.338 915.55,619.338 915.55,626.818 910.35,626.818 910.35,633.898 915.55,633.898 915.55,641.378 910.35,641.378 910.35,648.658 888.341,648.658 888.341,643.458 861.532,643.458 861.532,648.658 834.323,648.658 834.323,643.458 807.514,643.458 807.514,648.658 780.305,648.658 780.305,643.458 753.495,643.458 753.495,648.658 726.286,648.658 726.286,643.458 699.477,643.458 699.477,648.658 672.268,648.658 672.268,643.458 645.459,643.458 645.459,648.658 623.45,648.658 623.45,641.378 618.25,641.378 618.25,633.898 623.45,633.898 623.45,626.818 618.25,626.818 618.25,619.338" fill="none" stroke="black" stroke-width="0.1mm" />
<polyline z="0" points="623.45,606.858 623.45,574.549 618.25,574.549 618.25,542.04 623.45,542.04 623.45,509.931 618.25,509.931 618.25,477.422 623.45,477.422 623.45,445.313 618.25,445.313 618.25,412.803 623.45,412.803 623.45,380.694 618.25,380.694 618.25,348.185 623.45,348.185 623.45,316.076 618.25,316.076 618.25,283.567 623.45,283.567 623.45,256.458 649.514,256.458 649.514,251.258 675.777,251.258 675.777,256.458 701.641,256.458 701.641,251.258 727.905,251.258 727.905,256.458 753.768,256.458 753.768,251.258 780.032,251.258 780.032,256.458 805.895,256.458 805.895,251.258 832.159,251.258 832.159,256.458 858.023,256.458 858.023,251.258 884.286,251.258 884.286,256.458 910.35,256.458 910.35,283.567 915.55,283.567 915.55,316.076 910.35,316.076 910.35,348.185 915.55,348.185 915.55,380.694 910.35,380.694 910.35,412.803 915.55,412.803 915.55,445.313 910.35,445.313 910.35,477.422 915.55,477.422 915.55,509.931 910.35,509.931 910.35,542.04 915.55,542.04 915.55,574.549 910.35,574.549 910.35,606.858 888.541,606.858 888.541,612.058 861.332,612.058 861.332,606.858 834.523,606.858 834.523,612.058 807.314,612.058 807.314,606.858 780.505,606.858 780.505,612.058 753.295,612.058 753.295,606.858 726.486,606.858 726.486,612.058 699.277,612.058 699.277,606.858 672.468,606.858 672.468,612.058 645.259,612.058 645.259,606.858 623.45,606.858" fill="none" stroke="black" stroke-width="0.1mm" />
<polyline z="0" points="635.544,594.765 635.207,594.394 634.909,593.992 634.652,593.562 634.439,593.11 634.27,592.639 634.148,592.153 634.075,591.659 634.05,591.156 634.05,272.161 634.075,271.658 634.148,271.164 634.27,270.678 634.439,270.207 634.652,269.755 634.909,269.325 635.207,268.923 635.544,268.552 635.915,268.216 636.317,267.918 636.746,267.661 637.198,267.447 637.67,267.278 638.156,267.157 638.65,267.083 639.152,267.058 894.648,267.058 895.15,267.083 895.644,267.157 896.13,267.278 896.602,267.447 897.054,267.661 897.483,267.918 897.885,268.216 898.256,268.552 898.593,268.923 898.891,269.325 899.148,269.755 899.362,270.207 899.53,270.678 899.652,271.164 899.725,271.658 899.75,272.161 899.75,591.156 899.725,591.659 899.652,592.153 899.53,592.639 899.362,593.11 899.148,593.562 898.891,593.992 898.593,594.394 898.256,594.765 897.885,595.101 897.483,595.399 897.054,595.656 896.602,595.87 896.13,596.039 895.644,596.16 895.15,596.234 894.648,596.258 639.152,596.258 638.65,596.234 638.156,596.16 637.67,596.039 637.198,595.87 636.746,595.656 636.317,595.399 635.915,595.101 635.544,594.765" fill="none" stroke="black" stroke-width="0.1mm" />
<polyline z="0" points="618.25,668.194 655.959,668.194 655.959,673.394 688.068,673.394 688.068,668.194 712.825,668.194 712.825,662.673 726.495,649.003 726.495,654.344 744.941,654.344 744.941,649.144 763.786,649.144 763.786,654.344 782.231,654.344 782.231,648.742 784.439,654.072 770.316,668.194 785.195,668.194 785.195,673.394 817.305,673.394 817.305,668.194 849.814,668.194 849.814,673.394 881.923,673.394 881.923,668.194 914.432,668.194 914.432,673.394 946.541,673.394 946.541,668.194 973.85,668.194 973.85,675.474 979.05,675.474 979.05,682.954 973.85,682.954 973.85,690.034 979.05,690.034 979.05,697.514 973.85,697.514 973.85,704.794 946.541,704.794 946.541,699.594 914.432,699.594 914.432,704.794 881.923,704.794 881.923,699.594 849.814,699.594 849.814,704.794 817.305,704.794 817.305,699.594 785.195,699.594 785.195,704.794 752.686,704.794 752.686,699.594 720.577,699.594 720.577,704.794 688.068,704.794 688.068,699.594 655.959,699.594 655.959,704.794 618.25,704.794 618.25,697.314 623.45,697.314 623.45,690.234 618.25,690.234 618.25,682.754 623.45,682.754 623.45,675.674 618.25,675.674 618.25,668.194" fill="none" stroke="black" stroke-width="0.1mm" />
<polyline z="0" points="720.577,668.394 752.686,668.394 752.686,673.394 720.577,673.394 720.577,668.394" fill="none" stroke="black" stroke-width="0.1mm" />
<polyline z="0" points="681.75,251.258 644.041,251.258 644.041,246.058 611.932,246.058 611.932,251.258 579.423,251.258 579.423,246.058 547.314,246.058 547.314,251.258 514.805,251.258 514.805,246.058 482.695,246.058 482.695,251.258 450.186,251.258 450.186,246.058 418.077,246.058 418.077,251.258 385.568,251.258 385.568,246.058 353.459,246.058 353.459,251.258 326.15,251.258 326.15,243.978 320.95,243.978 320.95,236.498 326.15,236.498 326.15,229.418 320.95,229.418 320.95,221.938 326.15,221.938 326.15,214.658 353.459,214.658 353.459,219.858 385.568,219.858 385.568,214.658 418.077,214.658 418.077,219.858 450.186,219.858 450.186,214.658 482.695,214.658 482.695,219.858 514.805,219.858 514.805,214.658 529.684,214.658 515.561,200.536 517.769,195.206 517.769,200.808 536.214,200.808 536.214,195.608 555.059,195.608 555.059,200.808 573.505,200.808 573.505,195.467 587.175,209.137 587.175,214.658 611.932,214.658 611.932,219.858 644.041,219.858 644.041,214.658 681.75,214.658 681.75,222.138 676.55,222.138 676.55,229.218 681.75,229.218 681.75,236.698 676.55,236.698 676.55,243.778 681.75,243.778 681.75,251.258" fill="none" stroke="black" stroke-width="0.1mm" />
<polyline z="0" points="579.423,219.858 547.314,219.858 547.314,214.858 579.423,214.858 579.423,219.858" fill="none" stroke="black" stroke-width="0.1mm" />
</svg>