<?xml version="1.0" encoding="UTF-8" standalone="no"?>
<svg
   width="1300mm"
   height="900mm"
   viewBox="0 0 1300 900"
   version="1.1"
   id="svg6"
   sodipodi:docname="Box-0-117.svg"
   inkscape:version="1.4 (e7c3feb100, 2024-10-09)"
   xmlns:inkscape="http://www.inkscape.org/namespaces/inkscape"
   xmlns:sodipodi="http://sodipodi.sourceforge.net/DTD/sodipodi-0.dtd"
   xmlns="http://www.w3.org/2000/svg"
   xmlns:svg="http://www.w3.org/2000/svg">
  <defs
     id="defs6" />
  <sodipodi:namedview
     id="namedview6"
     pagecolor="#505050"
     bordercolor="#eeeeee"
     borderopacity="1"
     inkscape:showpageshadow="0"
     inkscape:pageopacity="0"
     inkscape:pagecheckerboard="0"
     inkscape:deskcolor="#505050"
     inkscape:document-units="mm"
     inkscape:zoom="0.47299359"
     inkscape:cx="2061.3387"
     inkscape:cy="1648.0139"
     inkscape:window-width="1920"
     inkscape:window-height="1011"
     inkscape:window-x="0"
     inkscape:window-y="32"
     inkscape:window-maximized="1"
     inkscape:current-layer="svg6" />
  <polyline
     z="0"
     points="583.586,494.518 583.586,483.331 578.386,483.331 578.386,471.944 583.586,471.944 583.586,460.956 578.386,460.956 578.386,449.569 583.586,449.569 583.586,438.382 609.186,438.382 609.186,449.569 614.386,449.569 614.386,460.956 609.186,460.956 609.186,471.944 614.386,471.944 614.386,483.331 609.186,483.331 609.186,494.518 583.586,494.518"
     fill="none"
     stroke="#000000"
     stroke-width="0.1mm"
     id="polyline2"
     style="vector-effect:non-scaling-stroke;stroke-width:0.264583;stroke-dasharray:none;-inkscape-stroke:hairline"
     transform="translate(52.564,4.486)" />
  <path
     id="polyline5"
     style="vector-effect:non-scaling-stroke;fill:none;stroke:#000000;stroke-width:0.264583;stroke-dasharray:none;-inkscape-stroke:hairline"
     d="m 643.65,419.808 h -5 v -11.23 h 5 v 11.23 m 25.6,0 v -11.23 h 5 v 11.23 h -5 m -33.002,23.06 -0.518,-0.025 -0.514,-0.077 -0.504,-0.126 -0.49,-0.175 -0.47,-0.223 -0.447,-0.267 -0.417,-0.31 -0.386,-0.349 -0.349,-0.385 -0.31,-0.418 -0.267,-0.447 -0.222,-0.47 -0.176,-0.49 -0.126,-0.504 -0.077,-0.514 -0.025,-0.518 v -46.754 l 0.025,-0.518 0.077,-0.514 0.126,-0.504 0.176,-0.49 0.222,-0.47 0.267,-0.447 0.31,-0.418 0.349,-0.385 0.386,-0.349 0.417,-0.31 0.447,-0.267 0.47,-0.222 0.49,-0.176 0.504,-0.126 0.514,-0.077 0.518,-0.025 h 2.402 v 11.43 h 5 v -11.43 h 25.6 v 11.43 h 5 v -11.43 h 2.402 l 0.518,0.025 0.514,0.077 0.504,0.126 0.49,0.176 0.47,0.222 0.447,0.267 0.418,0.31 0.385,0.349 0.349,0.385 0.31,0.418 0.267,0.447 0.223,0.47 0.175,0.49 0.126,0.504 0.077,0.514 0.025,0.518 v 46.754 l -0.025,0.518 -0.077,0.514 -0.126,0.504 -0.175,0.49 -0.223,0.47 -0.267,0.447 -0.31,0.418 -0.349,0.385 -0.385,0.349 -0.418,0.31 -0.447,0.267 -0.47,0.223 -0.49,0.175 -0.504,0.126 -0.514,0.077 -0.518,0.025 h -2.402 v -11.43 h -5 v 11.43 h -25.6 v -11.43 h -5 v 11.43 h -2.402" />
  <polyline
     z="0"
     points="583.586,494.518 583.586,483.331 578.386,483.331 578.386,471.944 583.586,471.944 583.586,460.956 578.386,460.956 578.386,449.569 583.586,449.569 583.586,438.382 609.186,438.382 609.186,449.569 614.386,449.569 614.386,460.956 609.186,460.956 609.186,471.944 614.386,471.944 614.386,483.331 609.186,483.331 609.186,494.518 583.586,494.518"
     fill="none"
     stroke="#000000"
     stroke-width="0.1mm"
     id="polyline2-6"
     style="vector-effect:non-scaling-stroke;stroke-width:0.264583;stroke-dasharray:none;-inkscape-stroke:hairline"
     transform="rotate(180,648.168,440.625)" />
  <path
     id="polyline5-2"
     style="vector-effect:non-scaling-stroke;fill:none;stroke:#000000;stroke-width:0.264583;stroke-dasharray:none;-inkscape-stroke:hairline"
     d="m 705.25,465.928 h 5 v 11.23 h -5 v -11.23 m -25.6,0 v 11.23 h -5 v -11.23 h 5 m 33.002,-23.06 0.518,0.025 0.514,0.077 0.504,0.126 0.49,0.175 0.47,0.223 0.447,0.267 0.417,0.31 0.386,0.349 0.349,0.385 0.31,0.418 0.267,0.447 0.222,0.47 0.176,0.49 0.126,0.504 0.077,0.514 0.025,0.518 v 46.754 l -0.025,0.518 -0.077,0.51401 -0.126,0.504 -0.176,0.49 -0.222,0.47 -0.267,0.447 -0.31,0.418 -0.349,0.385 -0.386,0.349 -0.417,0.31 -0.447,0.267 -0.47,0.222 -0.49,0.176 -0.504,0.126 -0.514,0.077 -0.518,0.025 h -2.402 v -11.43 h -5 v 11.43 h -25.6 v -11.43 h -5 v 11.43 h -2.402 l -0.518,-0.025 -0.514,-0.077 -0.504,-0.126 -0.49,-0.176 -0.47,-0.222 -0.447,-0.267 -0.41801,-0.31 -0.38499,-0.349 -0.349,-0.385 -0.31,-0.418 -0.267,-0.447 -0.223,-0.47 -0.175,-0.49 -0.126,-0.504 -0.077,-0.51401 -0.025,-0.518 v -46.754 l 0.025,-0.518 0.077,-0.514 0.126,-0.504 0.175,-0.49 0.223,-0.47 0.267,-0.447 0.31,-0.418 0.349,-0.385 0.38499,-0.349 0.41801,-0.31 0.447,-0.267 0.47,-0.223 0.49,-0.175 0.504,-0.126 0.514,-0.077 0.518,-0.025 h 2.402 v 11.43 h 5 v -11.43 h 25.6 v 11.43 h 5 v -11.43 h 2.402" />
  <polyline
     z="0"
     points="578.386,499.445 580.427,494.518 591.781,494.518 591.781,499.718 602.768,499.718 602.768,494.518 614.155,494.518 614.155,499.718 625.142,499.718 625.142,494.518 636.471,494.518 650,508.047 650,518.968 638.37,518.968 638.37,513.768 627.14,513.768 627.14,518.968 615.51,518.968 615.51,513.768 604.28,513.768 604.28,518.968 592.65,518.968 592.65,513.709 578.386,499.445"
     fill="none"
     stroke="#000000"
     stroke-width="0.1mm"
     id="polyline1"
     style="vector-effect:non-scaling-stroke;stroke-width:0.264583;stroke-dasharray:none;-inkscape-stroke:hairline"
     transform="rotate(-90,573.75,461.768)" />
  <polyline
     z="0"
     points="663.529,494.518 674.858,494.518 674.858,499.718 685.845,499.718 685.845,494.518 697.232,494.518 697.232,499.718 708.219,499.718 708.219,494.518 719.573,494.518 721.614,499.445 707.35,513.709 707.35,518.968 695.72,518.968 695.72,513.768 684.49,513.768 684.49,518.968 672.86,518.968 672.86,513.768 661.63,513.768 661.63,518.968 650,518.968 650,508.047 663.529,494.518"
     fill="none"
     stroke="#000000"
     stroke-width="0.1mm"
     id="polyline6"
     style="vector-effect:non-scaling-stroke;stroke-width:0.264583;stroke-dasharray:none;-inkscape-stroke:hairline"
     transform="rotate(90,682.75,418.268)" />
  <polyline
     z="0"
     points="578.386,499.445 580.427,494.518 591.781,494.518 591.781,499.718 602.768,499.718 602.768,494.518 614.155,494.518 614.155,499.718 625.142,499.718 625.142,494.518 636.471,494.518 650,508.047 650,518.968 638.37,518.968 638.37,513.768 627.14,513.768 627.14,518.968 615.51,518.968 615.51,513.768 604.28,513.768 604.28,518.968 592.65,518.968 592.65,513.709 578.386,499.445"
     fill="none"
     stroke="#000000"
     stroke-width="0.1mm"
     id="polyline1-9"
     style="vector-effect:non-scaling-stroke;stroke-width:0.264583;stroke-dasharray:none;-inkscape-stroke:hairline"
     transform="rotate(90,630.493,494.975)" />
  <polyline
     z="0"
     points="663.529,494.518 674.858,494.518 674.858,499.718 685.845,499.718 685.845,494.518 697.232,494.518 697.232,499.718 708.219,499.718 708.219,494.518 719.573,494.518 721.614,499.445 707.35,513.709 707.35,518.968 695.72,518.968 695.72,513.768 684.49,513.768 684.49,518.968 672.86,518.968 672.86,513.768 661.63,513.768 661.63,518.968 650,518.968 650,508.047 663.529,494.518"
     fill="none"
     stroke="#000000"
     stroke-width="0.1mm"
     id="polyline6-1"
     style="vector-effect:non-scaling-stroke;stroke-width:0.264583;stroke-dasharray:none;-inkscape-stroke:hairline"
     transform="rotate(-90,626.007,538.475)" />
</svg>
