<?xml version="1.0" standalone="no"?>
<!DOCTYPE svg PUBLIC "-//W3C//DTD SVG 1.1//EN" "http://www.w3.org/Graphics/SVG/1.1/DTD/svg11.dtd">
<svg width="1300mm" height="900mm" viewBox="0 0 1300 900" xmlns="http://www.w3.org/2000/svg" version="1.1">
<polyline z="0" points="334.5,557.575 334.5,544.875 329.3,544.875 329.3,531.975 334.5,531.975 334.5,519.475 329.3,519.475 329.3,506.575 334.5,506.575 334.5,493.875 435.959,493.875 421.836,479.752 423.877,474.825 461.7,474.825 461.7,486.618 466.9,486.618 466.9,498.611 461.7,498.611 461.7,510.204 466.9,510.204 466.9,522.196 461.7,522.196 461.7,533.789 466.9,533.789 466.9,545.782 461.7,545.782 461.7,557.575 451.633,557.575 451.633,562.775 436.167,562.775 436.167,557.575 421.1,557.575 421.1,562.775 405.633,562.775 405.633,557.575 390.567,557.575 390.567,562.775 375.1,562.775 375.1,557.575 360.033,557.575 360.033,562.775 344.567,562.775 344.567,557.575 334.5,557.575" fill="none" stroke="black" stroke-width="0.1mm" />
<polyline z="0" points="329.3,474.825 329.3,459.358 334.5,459.358 334.5,444.292 329.3,444.292 329.3,428.825 334.5,428.825 334.5,413.758 329.3,413.758 329.3,398.292 334.5,398.292 334.5,383.225 329.3,383.225 329.3,367.758 334.5,367.758 334.5,352.692 329.3,352.692 329.3,337.225 357.467,337.225 357.467,342.425 385.233,342.425 385.233,337.225 413.4,337.225 413.4,342.425 441.167,342.425 441.167,337.225 469.333,337.225 469.333,342.425 497.1,342.425 497.1,337.225 525.267,337.225 525.267,342.425 553.033,342.425 553.033,337.225 581.2,337.225 581.2,352.692 576,352.692 576,367.758 581.2,367.758 581.2,383.225 576,383.225 576,398.292 581.2,398.292 581.2,413.758 576,413.758 576,428.825 581.2,428.825 581.2,444.292 576,444.292 576,459.358 581.2,459.358 581.2,474.825 553.033,474.825 553.033,469.625 525.267,469.625 525.267,474.825 497.1,474.825 497.1,469.625 469.333,469.625 469.333,474.825 441.167,474.825 441.167,469.625 413.4,469.625 413.4,474.825 385.233,474.825 385.233,469.625 357.467,469.625 357.467,474.825 329.3,474.825" fill="none" stroke="black" stroke-width="0.1mm" />
<polyline z="0" points="394.717,419.87 393.979,418.876 393.342,417.815 392.811,416.697 392.394,415.531 392.093,414.329 391.911,413.105 391.85,411.866 391.85,400.184 391.911,398.945 392.093,397.721 392.394,396.519 392.811,395.353 393.342,394.235 393.979,393.174 394.717,392.18 395.55,391.263 396.468,390.432 397.463,389.696 398.526,389.061 404.447,386.297 412.882,383.343 419.73,381.54 422.085,381.088 424.468,380.816 426.865,380.725 483.635,380.725 486.032,380.816 488.415,381.088 490.769,381.539 501.162,384.47 508.549,387.376 511.973,389.061 513.037,389.696 514.032,390.432 514.95,391.263 515.783,392.18 516.521,393.174 517.158,394.235 517.689,395.353 518.106,396.519 518.407,397.721 518.589,398.945 518.65,400.184 518.65,411.866 518.589,413.105 518.407,414.329 518.106,415.531 517.689,416.697 517.158,417.815 516.521,418.876 515.783,419.87 514.95,420.787 514.032,421.618 513.037,422.354 511.974,422.989 506.053,425.753 497.618,428.707 490.77,430.51 488.415,430.962 486.032,431.234 483.635,431.325 426.865,431.325 424.468,431.234 422.085,430.962 419.731,430.511 409.338,427.58 401.951,424.674 398.527,422.989 397.463,422.354 396.468,421.618 395.55,420.787 394.717,419.87" fill="none" stroke="black" stroke-width="0.1mm" />
<polyline z="0" points="466.9,493.875 718.8,493.875 718.8,506.775 713.6,506.775 713.6,519.275 718.8,519.275 718.8,532.175 713.6,532.175 713.6,544.675 718.8,544.675 718.8,557.575 690.833,557.575 690.833,562.775 662.667,562.775 662.667,557.575 634.9,557.575 634.9,562.775 606.733,562.775 606.733,557.575 578.967,557.575 578.967,562.775 550.8,562.775 550.8,557.575 523.033,557.575 523.033,562.775 494.867,562.775 494.867,557.575 466.9,557.575 466.9,544.675 472.1,544.675 472.1,532.175 466.9,532.175 466.9,519.275 472.1,519.275 472.1,506.775 466.9,506.775 466.9,493.875" fill="none" stroke="black" stroke-width="0.1mm" />
<polyline z="0" points="581.2,469.625 581.2,457.632 586.4,457.632 586.4,446.039 581.2,446.039 581.2,434.046 586.4,434.046 586.4,422.454 581.2,422.454 581.2,410.461 586.4,410.461 586.4,398.868 581.2,398.868 581.2,386.875 833.1,386.875 833.1,398.868 827.9,398.868 827.9,410.461 833.1,410.461 833.1,422.454 827.9,422.454 827.9,434.046 833.1,434.046 833.1,446.039 827.9,446.039 827.9,457.632 833.1,457.632 833.1,469.625 805.133,469.625 805.133,474.825 776.967,474.825 776.967,469.625 749.2,469.625 749.2,474.825 721.033,474.825 721.033,469.625 693.267,469.625 693.267,474.825 665.1,474.825 665.1,469.625 637.333,469.625 637.333,474.825 609.167,474.825 609.167,469.625 581.2,469.625" fill="none" stroke="black" stroke-width="0.1mm" />
<polyline z="0" points="833.1,457.832 833.1,445.839 838.3,445.839 838.3,434.246 833.1,434.246 833.1,422.254 838.3,422.254 838.3,410.661 833.1,410.661 833.1,398.668 838.3,398.668 838.3,386.875 876.123,386.875 878.164,391.802 864.041,405.925 965.5,405.925 965.5,418.625 970.7,418.625 970.7,431.525 965.5,431.525 965.5,444.025 970.7,444.025 970.7,456.925 965.5,456.925 965.5,469.625 955.433,469.625 955.433,474.825 939.967,474.825 939.967,469.625 924.9,469.625 924.9,474.825 909.433,474.825 909.433,469.625 894.367,469.625 894.367,474.825 878.9,474.825 878.9,469.625 863.833,469.625 863.833,474.825 848.367,474.825 848.367,469.625 838.3,469.625 838.3,457.832 833.1,457.832" fill="none" stroke="black" stroke-width="0.1mm" />
</svg>