<?xml version="1.0" encoding="UTF-8" standalone="no"?>
<svg
   width="1300mm"
   height="900mm"
   viewBox="0 0 1300 900"
   version="1.1"
   id="svg13"
   sodipodi:docname="MetricAllen.svg"
   inkscape:version="1.3.2 (091e20ef0f, 2023-11-25)"
   xmlns:inkscape="http://www.inkscape.org/namespaces/inkscape"
   xmlns:sodipodi="http://sodipodi.sourceforge.net/DTD/sodipodi-0.dtd"
   xmlns="http://www.w3.org/2000/svg"
   xmlns:svg="http://www.w3.org/2000/svg">
  <defs
     id="defs13" />
  <sodipodi:namedview
     id="namedview13"
     pagecolor="#505050"
     bordercolor="#eeeeee"
     borderopacity="1"
     inkscape:showpageshadow="0"
     inkscape:pageopacity="0"
     inkscape:pagecheckerboard="0"
     inkscape:deskcolor="#505050"
     inkscape:document-units="mm"
     inkscape:zoom="0.23112646"
     inkscape:cx="2349.3632"
     inkscape:cy="2204.4209"
     inkscape:window-width="1920"
     inkscape:window-height="1011"
     inkscape:window-x="0"
     inkscape:window-y="32"
     inkscape:window-maximized="1"
     inkscape:current-layer="svg13" />
  <polyline
     z="0"
     points="364.639,533.803 364.639,526.103 369.839,526.103 369.839,518.803 364.639,518.803 364.639,511.103 369.839,511.103 369.839,503.803 364.639,503.803 364.639,496.103 369.839,496.103 369.839,493.803 377.6,493.803 377.6,488.603 385.561,488.603 385.561,493.803 393.123,493.803 393.123,488.603 401.084,488.603 401.084,493.803 408.645,493.803 408.645,488.2 410.853,493.53 396.589,507.794 396.589,512.853 404.856,512.853 404.856,507.653 413.522,507.653 413.522,512.853 421.789,512.853 421.789,507.653 430.456,507.653 430.456,512.853 438.722,512.853 438.722,507.653 447.389,507.653 447.389,512.853 455.656,512.853 455.656,507.653 464.322,507.653 464.322,512.853 473.361,512.853 379.839,541.338 379.839,536.103 369.839,536.103 369.839,533.803 364.639,533.803"
     fill="none"
     stroke="#000000"
     stroke-width="0.1mm"
     id="polyline1"
     transform="rotate(90,650,450.09139)"
     style="fill:none;stroke:#000000;stroke-opacity:1;vector-effect:non-scaling-stroke;-inkscape-stroke:hairline;stroke-width:0.26458333;stroke-dasharray:none" />
  <polyline
     z="0"
     points="364.639,488.2 364.639,479.533 369.839,479.533 369.839,471.267 364.639,471.267 364.639,462.6 369.839,462.6 369.839,454.333 364.639,454.333 364.639,445.667 369.839,445.667 369.839,437.4 364.639,437.4 364.639,428.733 369.839,428.733 369.839,420.467 364.639,420.467 364.639,411.8 595.639,411.8 595.639,420.467 590.439,420.467 590.439,428.733 595.639,428.733 595.639,437.4 590.439,437.4 590.439,445.667 595.639,445.667 595.639,454.333 590.439,454.333 590.439,462.6 595.639,462.6 595.639,471.267 590.439,471.267 590.439,479.533 595.639,479.533 595.639,488.2 364.639,488.2"
     fill="none"
     stroke="#000000"
     stroke-width="0.1mm"
     id="polyline2"
     transform="rotate(90,650,450.09139)"
     style="fill:none;stroke:#000000;stroke-opacity:1;vector-effect:non-scaling-stroke;-inkscape-stroke:hairline;stroke-width:0.26458333;stroke-dasharray:none" />
  <polyline
     z="0"
     points="364.639,383.315 373.678,383.315 373.678,378.115 382.344,378.115 382.344,383.315 390.611,383.315 390.611,378.115 399.278,378.115 399.278,383.315 407.544,383.315 407.544,378.115 416.211,378.115 416.211,383.315 424.478,383.315 424.478,378.115 433.144,378.115 433.144,383.315 441.411,383.315 441.411,378.256 427.147,363.992 429.355,358.662 429.355,364.265 436.916,364.265 436.916,359.065 444.877,359.065 444.877,364.265 452.439,364.265 452.439,359.065 460.4,359.065 460.4,364.265 468.161,364.265 468.161,366.565 473.361,366.565 473.361,374.265 468.161,374.265 468.161,381.565 473.361,381.565 473.361,389.265 468.161,389.265 468.161,396.565 473.361,396.565 473.361,404.265 468.161,404.265 468.161,406.565 458.161,406.565 458.161,411.8 364.639,383.315"
     fill="none"
     stroke="#000000"
     stroke-width="0.1mm"
     id="polyline3"
     transform="rotate(90,650,450.09139)"
     style="fill:none;stroke:#000000;stroke-opacity:1;vector-effect:non-scaling-stroke;-inkscape-stroke:hairline;stroke-width:0.26458333;stroke-dasharray:none" />
  <polyline
     z="0"
     points="473.361,497.132 704.361,497.132 704.361,505.093 699.161,505.093 699.161,512.654 704.361,512.654 704.361,520.616 699.161,520.616 699.161,528.177 704.361,528.177 704.361,536.138 686.607,536.138 686.607,541.338 668.653,541.338 668.653,536.138 651.099,536.138 651.099,541.338 633.146,541.338 633.146,536.138 615.592,536.138 615.592,541.338 597.638,541.338 597.638,536.138 580.084,536.138 580.084,541.338 562.13,541.338 562.13,536.138 544.576,536.138 544.576,541.338 526.623,541.338 526.623,536.138 509.069,536.138 509.069,541.338 491.115,541.338 491.115,536.138 473.361,536.138 473.361,528.177 478.561,528.177 478.561,520.616 473.361,520.616 473.361,512.654 478.561,512.654 478.561,505.093 473.361,505.093 473.361,497.132"
     fill="none"
     stroke="#000000"
     stroke-width="0.1mm"
     id="polyline4"
     transform="rotate(90,650,450.09139)"
     style="fill:none;stroke:#000000;stroke-opacity:1;vector-effect:non-scaling-stroke;-inkscape-stroke:hairline;stroke-width:0.26458333;stroke-dasharray:none" />
  <path
     id="polyline5"
     d="M 595.63898 488.20006 L 613.59292 488.20006 L 613.59292 482.99986 L 631.14689 482.99986 L 631.14689 488.20006 L 649.10083 488.20006 L 649.10083 482.99986 L 666.65376 482.99986 L 666.65376 488.20006 L 684.60822 488.20006 L 684.60822 482.99986 L 702.16219 482.99986 L 702.16219 488.20006 L 720.11613 488.20006 L 720.11613 482.99986 L 737.6701 482.99986 L 737.6701 488.20006 L 755.62404 488.20006 L 755.62404 482.99986 L 773.17698 482.99986 L 773.17698 488.20006 L 791.13092 488.20006 L 791.13092 482.99986 L 808.68489 482.99986 L 808.68489 488.20006 L 826.63883 488.20006 L 826.63883 480.49975 L 821.43915 480.49975 L 821.43915 473.19994 L 826.63883 473.19994 L 826.63883 465.50015 L 821.43915 465.50015 L 821.43915 458.19982 L 826.63883 458.19982 L 826.63883 450.50003 L 821.43915 450.50003 L 821.43915 443.20022 L 826.63883 443.20022 L 826.63883 435.49991 L 808.68489 435.49991 L 808.68489 440.70011 L 791.13092 440.70011 L 791.13092 435.49991 L 773.17698 435.49991 L 773.17698 440.70011 L 755.62404 440.70011 L 755.62404 435.49991 L 737.6701 435.49991 L 737.6701 440.70011 L 720.11613 440.70011 L 720.11613 435.49991 L 702.16219 435.49991 L 702.16219 440.70011 L 684.60822 440.70011 L 684.60822 435.49991 L 666.65376 435.49991 L 666.65376 440.70011 L 649.10083 440.70011 L 649.10083 435.49991 L 631.14689 435.49991 L 631.14689 440.70011 L 613.59292 440.70011 L 613.59292 435.49991 L 595.63898 435.49991 L 595.63898 443.20022 L 600.83918 443.20022 L 600.83918 450.50003 L 595.63898 450.50003 L 595.63898 458.19982 L 600.83918 458.19982 L 600.83918 465.50015 L 595.63898 465.50015 L 595.63898 473.19994 L 600.83918 473.19994 L 600.83918 480.49975 L 595.63898 480.49975 L 595.63898 488.20006 z M 626.23918 465.27691 L 626.23918 459.04215 L 631.63885 455.92399 L 637.03903 459.04215 L 637.03903 465.27691 L 631.63885 468.39506 L 626.23918 465.27691 z M 657.23883 464.69917 L 657.23883 459.61886 L 661.63908 457.07793 L 666.03881 459.61886 L 666.03881 464.69917 L 661.63908 467.24113 L 657.23883 464.69917 z M 686.23913 464.41081 L 686.23913 459.90824 L 690.13915 457.65618 L 694.03917 459.90824 L 694.03917 464.41081 L 690.13915 466.66287 L 686.23913 464.41081 z M 714.23897 464.12194 L 714.23897 460.19712 L 717.63877 458.23289 L 721.03907 460.19712 L 721.03907 464.12194 L 717.63877 466.08616 L 714.23897 464.12194 z M 741.23888 463.83307 L 741.23888 460.48495 L 744.13896 458.81012 L 747.03904 460.48495 L 747.03904 463.83307 L 744.13896 465.50894 L 741.23888 463.83307 z M 766.73913 463.83307 L 766.73913 460.48495 L 769.63921 458.81012 L 772.53877 460.48495 L 772.53877 463.83307 L 769.63921 465.50894 L 766.73913 463.83307 z M 791.23892 463.83307 L 791.23892 460.48495 L 794.13901 458.81012 L 797.03909 460.48495 L 797.03909 463.83307 L 794.13901 465.50894 L 791.23892 463.83307 z "
     transform="rotate(90,650,450.09139)"
     style="fill:none;stroke:#000000;stroke-opacity:1;vector-effect:non-scaling-stroke;-inkscape-stroke:hairline;stroke-width:0.26458333;stroke-dasharray:none" />
  <polyline
     z="0"
     points="793.13,536.138 775.576,536.138 775.576,541.338 757.623,541.338 757.623,536.138 740.069,536.138 740.069,541.338 722.115,541.338 722.115,536.138 704.361,536.138 704.361,525.938 935.361,525.938 935.361,536.138 917.607,536.138 917.607,541.338 899.653,541.338 899.653,536.138 882.099,536.138 882.099,541.338 864.146,541.338 864.146,536.138 846.592,536.138 846.592,541.338 828.638,541.338 828.638,536.138 811.084,536.138 811.084,541.338 793.13,541.338 793.13,536.138"
     fill="none"
     stroke="#000000"
     stroke-width="0.1mm"
     id="polyline13"
     transform="rotate(90,650,450.09139)"
     style="fill:none;stroke:#000000;stroke-opacity:1;vector-effect:non-scaling-stroke;-inkscape-stroke:hairline;stroke-width:0.26458333;stroke-dasharray:none" />
</svg>
