<?xml version="1.0" standalone="no"?>
<!DOCTYPE svg PUBLIC "-//W3C//DTD SVG 1.1//EN" "http://www.w3.org/Graphics/SVG/1.1/DTD/svg11.dtd">
<svg width="1300mm" height="900mm" viewBox="0 0 1300 900" xmlns="http://www.w3.org/2000/svg" version="1.1">
<polyline z="0" points="314.4,705.65 314.4,690.641 309.2,690.641 309.2,675.432 314.4,675.432 314.4,660.623 309.2,660.623 309.2,645.414 314.4,645.414 314.4,630.605 309.2,630.605 309.2,615.395 314.4,615.395 314.4,600.586 309.2,600.586 309.2,585.377 314.4,585.377 314.4,570.568 309.2,570.568 309.2,555.359 314.4,555.359 314.4,540.35 340.164,540.35 340.164,535.15 371.327,535.15 371.327,540.35 402.091,540.35 402.091,535.15 433.255,535.15 433.255,540.35 464.018,540.35 464.018,535.15 495.182,535.15 495.182,540.35 525.945,540.35 525.945,535.15 557.109,535.15 557.109,540.35 587.873,540.35 587.873,535.15 619.036,535.15 619.036,540.35 644.8,540.35 644.8,555.359 650,555.359 650,570.568 644.8,570.568 644.8,585.377 650,585.377 650,600.586 644.8,600.586 644.8,615.395 650,615.395 650,630.605 644.8,630.605 644.8,645.414 650,645.414 650,660.623 644.8,660.623 644.8,675.432 650,675.432 650,690.641 644.8,690.641 644.8,705.65 634.261,705.65 618.328,691.209 601.091,678.425 582.685,667.392 563.285,658.217 543.079,650.988 522.263,645.773 501.034,642.625 479.6,641.571 458.166,642.625 436.937,645.773 416.121,650.988 395.915,658.217 376.515,667.392 358.109,678.425 340.872,691.209 324.939,705.65 314.4,705.65" fill="none" stroke="black" stroke-width="0.1mm" />
<polyline z="0" points="314.4,535.15 314.4,504.659 309.2,504.659 309.2,473.968 314.4,473.968 314.4,443.677 309.2,443.677 309.2,412.986 314.4,412.986 314.4,382.695 309.2,382.695 309.2,352.005 314.4,352.005 314.4,321.714 309.2,321.714 309.2,291.023 314.4,291.023 314.4,260.732 309.2,260.732 309.2,230.041 314.4,230.041 314.4,199.55 340.164,199.55 340.164,194.35 371.327,194.35 371.327,199.55 402.091,199.55 402.091,194.35 433.255,194.35 433.255,199.55 464.018,199.55 464.018,194.35 495.182,194.35 495.182,199.55 525.945,199.55 525.945,194.35 557.109,194.35 557.109,199.55 587.873,199.55 587.873,194.35 619.036,194.35 619.036,199.55 644.8,199.55 644.8,230.041 650,230.041 650,260.732 644.8,260.732 644.8,291.023 650,291.023 650,321.714 644.8,321.714 644.8,352.005 650,352.005 650,382.695 644.8,382.695 644.8,412.986 650,412.986 650,443.677 644.8,443.677 644.8,473.968 650,473.968 650,504.659 644.8,504.659 644.8,535.15 314.4,535.15" fill="none" stroke="black" stroke-width="0.1mm" />
<polyline z="0" points="650,527.76 650,520.17 655.2,520.17 655.2,512.98 650,512.98 650,505.39 655.2,505.39 655.2,498 681.164,498 681.164,503.2 711.927,503.2 711.927,498 743.091,498 743.091,503.2 773.855,503.2 773.855,498 805.018,498 805.018,503.2 835.782,503.2 835.782,498 866.945,498 866.945,503.2 897.709,503.2 897.709,498 928.873,498 928.873,503.2 959.636,503.2 959.636,498 985.6,498 985.6,505.39 990.8,505.39 990.8,512.98 985.6,512.98 985.6,520.17 990.8,520.17 990.8,527.76 985.6,527.76 985.6,535.15 959.636,535.15 959.636,529.95 928.873,529.95 928.873,535.15 897.709,535.15 897.709,529.95 866.945,529.95 866.945,535.15 835.782,535.15 835.782,529.95 805.018,529.95 805.018,535.15 773.855,535.15 773.855,529.95 743.091,529.95 743.091,535.15 711.927,535.15 711.927,529.95 681.164,529.95 681.164,535.15 655.2,535.15 655.2,527.76 650,527.76" fill="none" stroke="black" stroke-width="0.1mm" />
<polyline z="0" points="650,556.164 680.691,556.164 680.691,561.364 710.982,561.364 710.982,556.164 734.575,556.164 734.575,550.643 748.104,537.114 756.236,537.114 756.236,542.314 764.027,542.314 764.027,537.114 772.218,537.114 772.218,542.314 780.009,542.314 780.009,537.114 788.199,537.114 788.199,542.314 795.99,542.314 795.99,537.114 804.148,537.114 806.189,542.041 792.066,556.164 802.655,556.164 802.655,561.364 832.945,561.364 832.945,556.164 863.636,556.164 863.636,561.364 893.927,561.364 893.927,556.164 924.618,556.164 924.618,561.364 954.909,561.364 954.909,556.164 990.8,556.164 990.8,563.754 985.6,563.754 985.6,570.944 990.8,570.944 990.8,578.534 985.6,578.534 985.6,585.724 990.8,585.724 990.8,593.314 970.391,593.314 970.391,588.114 955.582,588.114 955.582,593.314 940.373,593.314 940.373,588.114 925.564,588.114 925.564,593.314 910.355,593.314 910.355,588.114 895.545,588.114 895.545,593.314 880.336,593.314 880.336,588.114 865.527,588.114 865.527,593.314 850.318,593.314 850.318,588.114 835.509,588.114 835.509,593.314 820.391,593.314 650,561.547 650,556.164" fill="none" stroke="black" stroke-width="0.1mm" />
<polyline z="0" points="741.673,556.364 771.964,556.364 771.964,561.364 741.673,561.364 741.673,556.364" fill="none" stroke="black" stroke-width="0.1mm" />
<polyline z="0" points="746.873,612.364 746.873,617.564 777.164,617.564 777.164,612.364 807.855,612.364 807.855,617.564 838.145,617.564 838.145,612.364 848.734,612.364 834.611,598.241 836.652,593.314 844.81,593.314 844.81,598.514 852.601,598.514 852.601,593.314 860.791,593.314 860.791,598.514 868.582,598.514 868.582,593.314 876.773,593.314 876.773,598.514 884.564,598.514 884.564,593.314 892.696,593.314 906.225,606.843 906.225,612.364 929.818,612.364 929.818,617.564 960.109,617.564 960.109,612.364 990.8,612.364 990.8,617.747 820.409,649.514 805.291,649.514 805.291,644.314 790.482,644.314 790.482,649.514 775.273,649.514 775.273,644.314 760.464,644.314 760.464,649.514 745.255,649.514 745.255,644.314 730.445,644.314 730.445,649.514 715.236,649.514 715.236,644.314 700.427,644.314 700.427,649.514 685.218,649.514 685.218,644.314 670.409,644.314 670.409,649.514 650,649.514 650,641.924 655.2,641.924 655.2,634.734 650,634.734 650,627.144 655.2,627.144 655.2,619.954 650,619.954 650,612.364 685.891,612.364 685.891,617.564 716.182,617.564 716.182,612.364 746.873,612.364" fill="none" stroke="black" stroke-width="0.1mm" />
<polyline z="0" points="868.836,612.564 899.127,612.564 899.127,617.564 868.836,617.564 868.836,612.564" fill="none" stroke="black" stroke-width="0.1mm" />
<polyline z="0" points="985.6,649.514 985.6,657.505 990.8,657.505 990.8,665.696 985.6,665.696 985.6,673.487 990.8,673.487 990.8,681.677 985.6,681.677 985.6,689.468 990.8,689.468 990.8,697.659 985.6,697.659 985.6,705.65 655.2,705.65 655.2,697.659 650,697.659 650,689.468 655.2,689.468 655.2,681.677 650,681.677 650,673.487 655.2,673.487 655.2,665.696 650,665.696 650,657.505 655.2,657.505 655.2,649.514 985.6,649.514" fill="none" stroke="black" stroke-width="0.1mm" />
</svg>