<?xml version="1.0" encoding="UTF-8" standalone="no"?>
<svg
   width="1300mm"
   height="900mm"
   viewBox="0 0 1300 900"
   version="1.1"
   id="svg12"
   sodipodi:docname="Plier6x22.svg"
   inkscape:version="1.4 (e7c3feb100, 2024-10-09)"
   xmlns:inkscape="http://www.inkscape.org/namespaces/inkscape"
   xmlns:sodipodi="http://sodipodi.sourceforge.net/DTD/sodipodi-0.dtd"
   xmlns="http://www.w3.org/2000/svg"
   xmlns:svg="http://www.w3.org/2000/svg">
  <defs
     id="defs12" />
  <sodipodi:namedview
     id="namedview12"
     pagecolor="#505050"
     bordercolor="#eeeeee"
     borderopacity="1"
     inkscape:showpageshadow="0"
     inkscape:pageopacity="0"
     inkscape:pagecheckerboard="0"
     inkscape:deskcolor="#505050"
     inkscape:document-units="mm"
     inkscape:zoom="0.1182484"
     inkscape:cx="1902.7742"
     inkscape:cy="1974.6568"
     inkscape:window-width="1290"
     inkscape:window-height="1011"
     inkscape:window-x="50"
     inkscape:window-y="32"
     inkscape:window-maximized="0"
     inkscape:current-layer="svg12" />
  <polyline
     z="0"
     points="377,485.001 385.792,485.001 385.792,479.801 394.458,479.801 394.458,485.001 402.725,485.001 402.725,479.801 411.392,479.801 411.392,485.001 419.658,485.001 419.658,479.801 428.325,479.801 428.325,485.001 436.592,485.001 436.592,479.801 445.258,479.801 445.258,485.001 453.525,485.001 453.525,479.943 439.261,465.679 441.469,460.349 441.469,465.951 449.03,465.951 449.03,460.751 456.991,460.751 456.991,465.951 464.553,465.951 464.553,460.751 472.514,460.751 472.514,465.951 480.275,465.951 480.275,468.584 485.475,468.584 485.475,476.618 480.275,476.618 480.275,484.251 485.475,484.251 485.475,492.284 480.275,492.284 480.275,499.918 485.475,499.918 485.475,507.951 480.275,507.951 480.275,515.584 485.475,515.584 485.475,523.618 480.275,523.618 480.275,531.451 470.151,531.451 377,485.001"
     fill="none"
     stroke="#000000"
     stroke-width="0.1mm"
     id="polyline1"
     style="vector-effect:non-scaling-stroke;stroke-width:0.264583;stroke-dasharray:none;-inkscape-stroke:hairline"
     transform="matrix(0,1,1,0,257.45299,137.7602)" />
  <polyline
     z="0"
     points="485.475,468.584 490.675,468.584 490.675,465.951 498.436,465.951 498.436,460.751 506.397,460.751 506.397,465.951 513.959,465.951 513.959,460.751 521.92,460.751 521.92,465.951 529.481,465.951 529.481,460.349 531.689,465.679 517.425,479.943 517.425,485.001 525.692,485.001 525.692,479.801 534.358,479.801 534.358,485.001 542.625,485.001 542.625,479.801 551.292,479.801 551.292,485.001 559.558,485.001 559.558,479.801 568.225,479.801 568.225,485.001 576.492,485.001 576.492,479.801 585.158,479.801 585.158,485.001 593.949,485.001 500.798,531.451 490.675,531.451 490.675,523.618 485.475,523.618 485.475,515.584 490.675,515.584 490.675,507.951 485.475,507.951 485.475,499.918 490.675,499.918 490.675,492.284 485.475,492.284 485.475,484.251 490.675,484.251 490.675,476.618 485.475,476.618 485.475,468.584"
     fill="none"
     stroke="#000000"
     stroke-width="0.1mm"
     id="polyline4"
     style="vector-effect:non-scaling-stroke;stroke-width:0.264583;stroke-dasharray:none;-inkscape-stroke:hairline"
     transform="matrix(0,1,1,0,257.45299,-208.7102)" />
  <polyline
     z="0"
     points="377,485.001 385.792,485.001 385.792,479.801 394.458,479.801 394.458,485.001 402.725,485.001 402.725,479.801 411.392,479.801 411.392,485.001 419.658,485.001 419.658,479.801 428.325,479.801 428.325,485.001 436.592,485.001 436.592,479.801 445.258,479.801 445.258,485.001 453.525,485.001 453.525,479.943 439.261,465.679 441.469,460.349 441.469,465.951 449.03,465.951 449.03,460.751 456.991,460.751 456.991,465.951 464.553,465.951 464.553,460.751 472.514,460.751 472.514,465.951 480.275,465.951 480.275,468.584 485.475,468.584 485.475,476.618 480.275,476.618 480.275,484.251 485.475,484.251 485.475,492.284 480.275,492.284 480.275,499.918 485.475,499.918 485.475,507.951 480.275,507.951 480.275,515.584 485.475,515.584 485.475,523.618 480.275,523.618 480.275,531.451 470.151,531.451 377,485.001"
     fill="none"
     stroke="#000000"
     stroke-width="0.1mm"
     id="polyline1-7"
     style="vector-effect:non-scaling-stroke;stroke-width:0.264583;stroke-dasharray:none;-inkscape-stroke:hairline"
     transform="rotate(90,642.364,606.889)" />
  <polyline
     z="0"
     points="485.475,468.584 490.675,468.584 490.675,465.951 498.436,465.951 498.436,460.751 506.397,460.751 506.397,465.951 513.959,465.951 513.959,460.751 521.92,460.751 521.92,465.951 529.481,465.951 529.481,460.349 531.689,465.679 517.425,479.943 517.425,485.001 525.692,485.001 525.692,479.801 534.358,479.801 534.358,485.001 542.625,485.001 542.625,479.801 551.292,479.801 551.292,485.001 559.558,485.001 559.558,479.801 568.225,479.801 568.225,485.001 576.492,485.001 576.492,479.801 585.158,479.801 585.158,485.001 593.949,485.001 500.798,531.451 490.675,531.451 490.675,523.618 485.475,523.618 485.475,515.584 490.675,515.584 490.675,507.951 485.475,507.951 485.475,499.918 490.675,499.918 490.675,492.284 485.475,492.284 485.475,484.251 490.675,484.251 490.675,476.618 485.475,476.618 485.475,468.584"
     fill="none"
     stroke="#000000"
     stroke-width="0.1mm"
     id="polyline4-1"
     style="vector-effect:non-scaling-stroke;stroke-width:0.264583;stroke-dasharray:none;-inkscape-stroke:hairline"
     transform="rotate(90,642.364,606.889)" />
  <polyline
     z="0"
     points="389.987,460.349 389.987,455.149 377,455.149 377,444.949 639.6,444.949 639.6,455.149 626.613,455.149 626.613,460.349 608.227,460.349 608.227,455.149 590.24,455.149 590.24,460.349 571.853,460.349 571.853,455.149 553.867,455.149 553.867,460.349 535.48,460.349 535.48,455.149 517.493,455.149 517.493,460.349 499.107,460.349 499.107,455.149 481.12,455.149 481.12,460.349 462.733,460.349 462.733,455.149 444.747,455.149 444.747,460.349 426.36,460.349 426.36,455.149 408.373,455.149 408.373,460.349 389.987,460.349"
     fill="none"
     stroke="#000000"
     stroke-width="0.1mm"
     id="polyline2"
     style="vector-effect:non-scaling-stroke;stroke-width:0.264583;stroke-dasharray:none;-inkscape-stroke:hairline"
     transform="matrix(0,1,1,0,257.45299,-194.8)" />
  <polyline
     z="0"
     points="377,444.949 377,436.282 382.2,436.282 382.2,428.016 377,428.016 377,419.349 382.2,419.349 382.2,411.082 377,411.082 377,402.416 382.2,402.416 382.2,394.149 377,394.149 377,385.482 382.2,385.482 382.2,377.216 377,377.216 377,368.549 650,368.549 650,377.216 644.8,377.216 644.8,385.482 650,385.482 650,394.149 644.8,394.149 644.8,402.416 650,402.416 650,411.082 644.8,411.082 644.8,419.349 650,419.349 650,428.016 644.8,428.016 644.8,436.282 650,436.282 650,444.949 377,444.949"
     fill="none"
     stroke="#000000"
     stroke-width="0.1mm"
     id="polyline3"
     style="vector-effect:non-scaling-stroke;stroke-width:0.264583;stroke-dasharray:none;-inkscape-stroke:hairline"
     transform="rotate(90,635.47549,435.47549)" />
  <path
     id="polyline11"
     style="vector-effect:non-scaling-stroke;fill:none;stroke:#000000;stroke-width:0.264583;-inkscape-stroke:hairline"
     d="m 551.03699,407.2 6.293,10.9 -6.293,10.9 h -12.587 l -6.292,-10.9 6.292,-10.9 h 12.587 m 0,-42 6.293,10.9 -6.293,10.9 h -12.587 l -6.292,-10.9 6.292,-10.9 h 12.587 m 0,-42 6.293,10.9 -6.293,10.9 h -12.587 l -6.292,-10.9 6.292,-10.9 h 12.587 m 0,-42 6.293,10.9 -6.293,10.9 h -12.587 l -6.292,-10.9 6.292,-10.9 h 12.587 m 0,-42 6.293,10.9 -6.293,10.9 h -12.587 l -6.292,-10.9 6.292,-10.9 h 12.587 m 0,-42 6.293,10.9 -6.293,10.9 h -12.587 l -6.292,-10.9 6.292,-10.9 h 12.587 m 22.726,-20.2 h 8.033 v 18.387 h -5.2 v 17.986 h 5.2 v 18.387 h -5.2 v 17.987 h 5.2 v 18.386 h -5.2 v 17.987 h 5.2 v 18.387 h -5.2 v 17.986 h 5.2 v 18.387 h -5.2 v 17.987 h 5.2 v 18.386 h -5.2 v 17.987 h 5.2 v 18.387 h -5.2 v 17.986 h 5.2 V 450 h -8.033 v -5.2 h -7.634 v 5.2 h -8.033 v -5.2 h -7.633 v 5.2 h -8.034 v -5.2 h -7.633 v 5.2 h -8.033 v -5.2 h -7.634 v 5.2 h -8.033 v -18.387 h 5.2 v -17.986 h -5.2 V 395.24 h 5.2 v -17.987 h -5.2 v -18.386 h 5.2 V 340.88 h -5.2 v -18.387 h 5.2 v -17.986 h -5.2 V 286.12 h 5.2 v -17.987 h -5.2 v -18.386 h 5.2 V 231.76 h -5.2 v -18.387 h 5.2 v -17.986 h -5.2 V 177 h 8.033 v 5.2 h 7.634 V 177 h 8.033 v 5.2 h 7.633 V 177 h 8.034 v 5.2 h 7.633 V 177 h 8.033 v 5.2 h 7.634 V 177" />
  <polyline
     z="0"
     points="832.067,444.949 813.68,444.949 813.68,439.749 795.693,439.749 795.693,444.949 777.307,444.949 777.307,439.749 759.32,439.749 759.32,444.949 740.933,444.949 740.933,439.749 722.947,439.749 722.947,444.949 704.56,444.949 704.56,439.749 686.573,439.749 686.573,444.949 668.187,444.949 668.187,439.749 650,439.749 650,431.788 655.2,431.788 655.2,424.227 650,424.227 650,416.265 655.2,416.265 655.2,408.704 650,408.704 650,400.743 923,400.743 923,408.704 917.8,408.704 917.8,416.265 923,416.265 923,424.227 917.8,424.227 917.8,431.788 923,431.788 923,439.749 904.813,439.749 904.813,444.949 886.427,444.949 886.427,439.749 868.44,439.749 868.44,444.949 850.053,444.949 850.053,439.749 832.067,439.749 832.067,444.949"
     fill="none"
     stroke="#000000"
     stroke-width="0.1mm"
     id="polyline12"
     style="vector-effect:non-scaling-stroke;stroke-width:0.264583;stroke-dasharray:none;-inkscape-stroke:hairline"
     transform="rotate(90,749.87249,276.87249)" />
  <polyline
     z="0"
     points="389.987,460.349 389.987,455.149 377,455.149 377,444.949 639.6,444.949 639.6,455.149 626.613,455.149 626.613,460.349 608.227,460.349 608.227,455.149 590.24,455.149 590.24,460.349 571.853,460.349 571.853,455.149 553.867,455.149 553.867,460.349 535.48,460.349 535.48,455.149 517.493,455.149 517.493,460.349 499.107,460.349 499.107,455.149 481.12,455.149 481.12,460.349 462.733,460.349 462.733,455.149 444.747,455.149 444.747,460.349 426.36,460.349 426.36,455.149 408.373,455.149 408.373,460.349 389.987,460.349"
     fill="none"
     stroke="#000000"
     stroke-width="0.1mm"
     id="polyline2-3"
     style="vector-effect:non-scaling-stroke;stroke-width:0.264583;stroke-dasharray:none;-inkscape-stroke:hairline"
     transform="matrix(0,1,1,0,257.45299,78.2)" />
  <polyline
     z="0"
     points="377,444.949 377,436.282 382.2,436.282 382.2,428.016 377,428.016 377,419.349 382.2,419.349 382.2,411.082 377,411.082 377,402.416 382.2,402.416 382.2,394.149 377,394.149 377,385.482 382.2,385.482 382.2,377.216 377,377.216 377,368.549 650,368.549 650,377.216 644.8,377.216 644.8,385.482 650,385.482 650,394.149 644.8,394.149 644.8,402.416 650,402.416 650,411.082 644.8,411.082 644.8,419.349 650,419.349 650,428.016 644.8,428.016 644.8,436.282 650,436.282 650,444.949 377,444.949"
     fill="none"
     stroke="#000000"
     stroke-width="0.1mm"
     id="polyline3-6"
     style="vector-effect:non-scaling-stroke;stroke-width:0.264583;stroke-dasharray:none;-inkscape-stroke:hairline"
     transform="rotate(90,498.97549,571.97549)" />
  <path
     id="polyline11-2"
     style="vector-effect:non-scaling-stroke;fill:none;stroke:#000000;stroke-width:0.264583;-inkscape-stroke:hairline"
     d="m 551.03699,680.2 6.293,10.9 -6.293,10.9 h -12.587 l -6.292,-10.9 6.292,-10.9 h 12.587 m 0,-42 6.293,10.9 -6.293,10.9 h -12.587 l -6.292,-10.9 6.292,-10.9 h 12.587 m 0,-42 6.293,10.9 -6.293,10.9 h -12.587 l -6.292,-10.9 6.292,-10.9 h 12.587 m 0,-42 6.293,10.9 -6.293,10.9 h -12.587 l -6.292,-10.9 6.292,-10.9 h 12.587 m 0,-42 6.293,10.9 -6.293,10.9 h -12.587 l -6.292,-10.9 6.292,-10.9 h 12.587 m 0,-42 6.293,10.9 -6.293,10.9 h -12.587 l -6.292,-10.9 6.292,-10.9 h 12.587 m 22.726,-20.2 h 8.033 v 18.387 h -5.2 v 17.986 h 5.2 v 18.387 h -5.2 v 17.987 h 5.2 v 18.386 h -5.2 v 17.987 h 5.2 v 18.387 h -5.2 v 17.986 h 5.2 v 18.387 h -5.2 v 17.987 h 5.2 v 18.386 h -5.2 v 17.987 h 5.2 v 18.387 h -5.2 v 17.986 h 5.2 V 723 h -8.033 v -5.2 h -7.634 v 5.2 h -8.033 v -5.2 h -7.633 v 5.2 h -8.034 v -5.2 h -7.633 v 5.2 h -8.033 v -5.2 h -7.634 v 5.2 h -8.033 v -18.387 h 5.2 v -17.986 h -5.2 V 668.24 h 5.2 v -17.987 h -5.2 v -18.386 h 5.2 V 613.88 h -5.2 v -18.387 h 5.2 v -17.986 h -5.2 V 559.12 h 5.2 v -17.987 h -5.2 v -18.386 h 5.2 V 504.76 h -5.2 v -18.387 h 5.2 v -17.986 h -5.2 V 450 h 8.033 v 5.2 h 7.634 V 450 h 8.033 v 5.2 h 7.633 V 450 h 8.034 v 5.2 h 7.633 V 450 h 8.033 v 5.2 h 7.634 V 450" />
  <polyline
     z="0"
     points="832.067,444.949 813.68,444.949 813.68,439.749 795.693,439.749 795.693,444.949 777.307,444.949 777.307,439.749 759.32,439.749 759.32,444.949 740.933,444.949 740.933,439.749 722.947,439.749 722.947,444.949 704.56,444.949 704.56,439.749 686.573,439.749 686.573,444.949 668.187,444.949 668.187,439.749 650,439.749 650,431.788 655.2,431.788 655.2,424.227 650,424.227 650,416.265 655.2,416.265 655.2,408.704 650,408.704 650,400.743 923,400.743 923,408.704 917.8,408.704 917.8,416.265 923,416.265 923,424.227 917.8,424.227 917.8,431.788 923,431.788 923,439.749 904.813,439.749 904.813,444.949 886.427,444.949 886.427,439.749 868.44,439.749 868.44,444.949 850.053,444.949 850.053,439.749 832.067,439.749 832.067,444.949"
     fill="none"
     stroke="#000000"
     stroke-width="0.1mm"
     id="polyline12-9"
     style="vector-effect:non-scaling-stroke;stroke-width:0.264583;stroke-dasharray:none;-inkscape-stroke:hairline"
     transform="rotate(90,613.37249,413.37249)" />
</svg>
