<?xml version="1.0" standalone="no"?>
<!DOCTYPE svg PUBLIC "-//W3C//DTD SVG 1.1//EN" "http://www.w3.org/Graphics/SVG/1.1/DTD/svg11.dtd">
<svg width="1300mm" height="900mm" viewBox="0 0 1300 900" xmlns="http://www.w3.org/2000/svg" version="1.1">
<polyline z="0" points="377,485.001 385.792,485.001 385.792,479.801 394.458,479.801 394.458,485.001 402.725,485.001 402.725,479.801 411.392,479.801 411.392,485.001 419.658,485.001 419.658,479.801 428.325,479.801 428.325,485.001 436.592,485.001 436.592,479.801 445.258,479.801 445.258,485.001 453.525,485.001 453.525,479.943 439.261,465.679 441.469,460.349 441.469,465.951 449.03,465.951 449.03,460.751 456.991,460.751 456.991,465.951 464.553,465.951 464.553,460.751 472.514,460.751 472.514,465.951 480.275,465.951 480.275,468.584 485.475,468.584 485.475,476.618 480.275,476.618 480.275,484.251 485.475,484.251 485.475,492.284 480.275,492.284 480.275,499.918 485.475,499.918 485.475,507.951 480.275,507.951 480.275,515.584 485.475,515.584 485.475,523.618 480.275,523.618 480.275,531.451 470.151,531.451 377,485.001" fill="none" stroke="black" stroke-width="0.1mm" />
<polyline z="0" points="389.987,460.349 389.987,455.149 377,455.149 377,444.949 639.6,444.949 639.6,455.149 626.613,455.149 626.613,460.349 608.227,460.349 608.227,455.149 590.24,455.149 590.24,460.349 571.853,460.349 571.853,455.149 553.867,455.149 553.867,460.349 535.48,460.349 535.48,455.149 517.493,455.149 517.493,460.349 499.107,460.349 499.107,455.149 481.12,455.149 481.12,460.349 462.733,460.349 462.733,455.149 444.747,455.149 444.747,460.349 426.36,460.349 426.36,455.149 408.373,455.149 408.373,460.349 389.987,460.349" fill="none" stroke="black" stroke-width="0.1mm" />
<polyline z="0" points="377,444.949 377,436.282 382.2,436.282 382.2,428.016 377,428.016 377,419.349 382.2,419.349 382.2,411.082 377,411.082 377,402.416 382.2,402.416 382.2,394.149 377,394.149 377,385.482 382.2,385.482 382.2,377.216 377,377.216 377,368.549 650,368.549 650,377.216 644.8,377.216 644.8,385.482 650,385.482 650,394.149 644.8,394.149 644.8,402.416 650,402.416 650,411.082 644.8,411.082 644.8,419.349 650,419.349 650,428.016 644.8,428.016 644.8,436.282 650,436.282 650,444.949 377,444.949" fill="none" stroke="black" stroke-width="0.1mm" />
<polyline z="0" points="485.475,468.584 490.675,468.584 490.675,465.951 498.436,465.951 498.436,460.751 506.397,460.751 506.397,465.951 513.959,465.951 513.959,460.751 521.92,460.751 521.92,465.951 529.481,465.951 529.481,460.349 531.689,465.679 517.425,479.943 517.425,485.001 525.692,485.001 525.692,479.801 534.358,479.801 534.358,485.001 542.625,485.001 542.625,479.801 551.292,479.801 551.292,485.001 559.558,485.001 559.558,479.801 568.225,479.801 568.225,485.001 576.492,485.001 576.492,479.801 585.158,479.801 585.158,485.001 593.949,485.001 500.798,531.451 490.675,531.451 490.675,523.618 485.475,523.618 485.475,515.584 490.675,515.584 490.675,507.951 485.475,507.951 485.475,499.918 490.675,499.918 490.675,492.284 485.475,492.284 485.475,484.251 490.675,484.251 490.675,476.618 485.475,476.618 485.475,468.584" fill="none" stroke="black" stroke-width="0.1mm" />
<polyline z="0" points="593.949,468.784 593.949,460.751 612.336,460.751 612.336,465.951 630.322,465.951 630.322,460.751 648.709,460.751 648.709,465.951 666.696,465.951 666.696,460.751 685.082,460.751 685.082,465.951 703.069,465.951 703.069,460.751 721.456,460.751 721.456,465.951 739.442,465.951 739.442,460.751 757.829,460.751 757.829,465.951 775.816,465.951 775.816,460.751 794.202,460.751 794.202,465.951 812.189,465.951 812.189,460.751 830.576,460.751 830.576,465.951 848.562,465.951 848.562,460.751 866.949,460.751 866.949,468.784 861.749,468.784 861.749,476.418 866.949,476.418 866.949,484.451 861.749,484.451 861.749,492.084 866.949,492.084 866.949,500.118 861.749,500.118 861.749,507.751 866.949,507.751 866.949,515.784 861.749,515.784 861.749,523.418 866.949,523.418 866.949,531.451 848.562,531.451 848.562,526.251 830.576,526.251 830.576,531.451 812.189,531.451 812.189,526.251 794.202,526.251 794.202,531.451 775.816,531.451 775.816,526.251 757.829,526.251 757.829,531.451 739.442,531.451 739.442,526.251 721.456,526.251 721.456,531.451 703.069,531.451 703.069,526.251 685.082,526.251 685.082,531.451 666.696,531.451 666.696,526.251 648.709,526.251 648.709,531.451 630.322,531.451 630.322,526.251 612.336,526.251 612.336,531.451 593.949,531.451 593.949,523.418 599.149,523.418 599.149,515.784 593.949,515.784 593.949,507.751 599.149,507.751 599.149,500.118 593.949,500.118 593.949,492.084 599.149,492.084 599.149,484.451 593.949,484.451 593.949,476.418 599.149,476.418 599.149,468.784 593.949,468.784" fill="none" stroke="black" stroke-width="0.1mm" />
<polyline z="0" points="614.149,491.51 625.049,485.217 635.949,491.51 635.949,504.097 625.049,510.389 614.149,504.097 614.149,491.51" fill="none" stroke="black" stroke-width="0.1mm" />
<polyline z="0" points="656.149,491.51 667.049,485.217 677.949,491.51 677.949,504.097 667.049,510.389 656.149,504.097 656.149,491.51" fill="none" stroke="black" stroke-width="0.1mm" />
<polyline z="0" points="698.149,491.51 709.049,485.217 719.949,491.51 719.949,504.097 709.049,510.389 698.149,504.097 698.149,491.51" fill="none" stroke="black" stroke-width="0.1mm" />
<polyline z="0" points="740.149,491.51 751.049,485.217 761.949,491.51 761.949,504.097 751.049,510.389 740.149,504.097 740.149,491.51" fill="none" stroke="black" stroke-width="0.1mm" />
<polyline z="0" points="782.149,491.51 793.049,485.217 803.949,491.51 803.949,504.097 793.049,510.389 782.149,504.097 782.149,491.51" fill="none" stroke="black" stroke-width="0.1mm" />
<polyline z="0" points="824.149,491.51 835.049,485.217 845.949,491.51 845.949,504.097 835.049,510.389 824.149,504.097 824.149,491.51" fill="none" stroke="black" stroke-width="0.1mm" />
<polyline z="0" points="832.067,444.949 813.68,444.949 813.68,439.749 795.693,439.749 795.693,444.949 777.307,444.949 777.307,439.749 759.32,439.749 759.32,444.949 740.933,444.949 740.933,439.749 722.947,439.749 722.947,444.949 704.56,444.949 704.56,439.749 686.573,439.749 686.573,444.949 668.187,444.949 668.187,439.749 650,439.749 650,431.788 655.2,431.788 655.2,424.227 650,424.227 650,416.265 655.2,416.265 655.2,408.704 650,408.704 650,400.743 923,400.743 923,408.704 917.8,408.704 917.8,416.265 923,416.265 923,424.227 917.8,424.227 917.8,431.788 923,431.788 923,439.749 904.813,439.749 904.813,444.949 886.427,444.949 886.427,439.749 868.44,439.749 868.44,444.949 850.053,444.949 850.053,439.749 832.067,439.749 832.067,444.949" fill="none" stroke="black" stroke-width="0.1mm" />
</svg>