<?xml version="1.0" standalone="no"?>
<!DOCTYPE svg PUBLIC "-//W3C//DTD SVG 1.1//EN" "http://www.w3.org/Graphics/SVG/1.1/DTD/svg11.dtd">
<svg width="1300mm" height="900mm" viewBox="0 0 1300 900" xmlns="http://www.w3.org/2000/svg" version="1.1">
<polyline z="0" points="329.723,512.783 329.723,505.638 334.923,505.638 334.923,498.894 329.723,498.894 329.723,491.749 334.923,491.749 334.923,485.005 329.723,485.005 329.723,477.86 334.923,477.86 334.923,471.116 329.723,471.116 329.723,463.971 334.923,463.971 334.923,462.227 342.684,462.227 342.684,457.027 350.645,457.027 350.645,462.227 358.207,462.227 358.207,457.027 366.168,457.027 366.168,462.227 373.729,462.227 373.729,456.624 375.937,461.954 361.673,476.218 361.673,481.277 369.94,481.277 369.94,476.077 378.606,476.077 378.606,481.277 384.923,481.277 384.923,487.652 389.923,487.652 389.923,481.477 386.873,481.477 386.873,476.077 395.54,476.077 395.54,481.277 403.806,481.277 403.806,476.077 412.473,476.077 412.473,481.277 420.74,481.277 420.74,476.077 429.406,476.077 429.406,481.277 438.277,481.277 344.923,519.776 344.923,514.527 334.923,514.527 334.923,512.783 329.723,512.783" fill="none" stroke="black" stroke-width="0.1mm" />
<polyline z="0" points="384.923,500.402 384.923,494.227 389.923,494.227 389.923,500.402 384.923,500.402" fill="none" stroke="black" stroke-width="0.1mm" />
<polyline z="0" points="438.277,499.054 438.277,491.092 443.477,491.092 443.477,483.531 438.277,483.531 438.277,475.57 704.277,475.57 704.277,483.531 699.077,483.531 699.077,491.092 704.277,491.092 704.277,499.054 699.077,499.054 699.077,506.615 704.277,506.615 704.277,514.576 686.557,514.576 686.557,519.776 668.637,519.776 668.637,514.576 651.117,514.576 651.117,519.776 633.197,519.776 633.197,514.576 615.677,514.576 615.677,519.776 597.757,519.776 597.757,514.576 580.237,514.576 580.237,519.776 562.317,519.776 562.317,514.576 544.797,514.576 544.797,519.776 526.877,519.776 526.877,514.576 509.357,514.576 509.357,519.776 491.437,519.776 491.437,514.576 473.917,514.576 473.917,519.776 455.997,519.776 455.997,514.576 438.277,514.576 438.277,506.615 443.477,506.615 443.477,499.054 438.277,499.054" fill="none" stroke="black" stroke-width="0.1mm" />
<polyline z="0" points="334.923,447.957 334.923,439.691 329.723,439.691 329.723,431.024 334.923,431.024 334.923,422.757 329.723,422.757 329.723,414.091 334.923,414.091 334.923,405.824 329.723,405.824 329.723,397.157 334.923,397.157 334.923,388.891 329.723,388.891 329.723,380.224 595.723,380.224 595.723,388.891 590.523,388.891 590.523,397.157 595.723,397.157 595.723,405.824 590.523,405.824 590.523,414.091 595.723,414.091 595.723,422.757 590.523,422.757 590.523,431.024 595.723,431.024 595.723,439.691 590.523,439.691 590.523,447.957 595.723,447.957 595.723,456.624 329.723,456.624 329.723,447.957 334.923,447.957" fill="none" stroke="black" stroke-width="0.1mm" />
<polyline z="0" points="560.283,433.174 560.283,428.174 577.803,428.174 577.803,433.174 560.283,433.174" fill="none" stroke="black" stroke-width="0.1mm" />
<polyline z="0" points="542.363,433.174 524.843,433.174 524.843,428.174 542.363,428.174 542.363,433.174" fill="none" stroke="black" stroke-width="0.1mm" />
<polyline z="0" points="506.923,433.174 489.403,433.174 489.403,428.174 506.923,428.174 506.923,433.174" fill="none" stroke="black" stroke-width="0.1mm" />
<polyline z="0" points="471.483,433.174 453.963,433.174 453.963,428.174 471.483,428.174 471.483,433.174" fill="none" stroke="black" stroke-width="0.1mm" />
<polyline z="0" points="436.043,433.174 418.523,433.174 418.523,428.174 436.043,428.174 436.043,433.174" fill="none" stroke="black" stroke-width="0.1mm" />
<polyline z="0" points="400.603,433.174 383.083,433.174 383.083,428.174 400.603,428.174 400.603,433.174" fill="none" stroke="black" stroke-width="0.1mm" />
<polyline z="0" points="365.163,433.174 347.643,433.174 347.643,428.174 365.163,428.174 365.163,433.174" fill="none" stroke="black" stroke-width="0.1mm" />
<polyline z="0" points="595.723,418.125 604.594,418.125 604.594,412.925 613.26,412.925 613.26,418.125 621.527,418.125 621.527,412.925 630.194,412.925 630.194,418.125 638.46,418.125 638.46,412.925 647.127,412.925 647.127,418.325 644.077,418.325 644.077,424.5 649.077,424.5 649.077,418.125 655.394,418.125 655.394,412.925 664.06,412.925 664.06,418.125 672.327,418.125 672.327,413.066 658.063,398.802 660.271,393.472 660.271,399.075 667.832,399.075 667.832,393.875 675.793,393.875 675.793,399.075 683.355,399.075 683.355,393.875 691.316,393.875 691.316,399.075 699.077,399.075 699.077,400.819 704.277,400.819 704.277,407.964 699.077,407.964 699.077,414.708 704.277,414.708 704.277,421.853 699.077,421.853 699.077,428.597 704.277,428.597 704.277,435.742 699.077,435.742 699.077,442.486 704.277,442.486 704.277,449.631 699.077,449.631 699.077,451.375 689.077,451.375 689.077,456.624 595.723,418.125" fill="none" stroke="black" stroke-width="0.1mm" />
<polyline z="0" points="644.077,431.075 649.077,431.075 649.077,437.25 644.077,437.25 644.077,431.075" fill="none" stroke="black" stroke-width="0.1mm" />
<polyline z="0" points="704.277,428.846 704.277,421.702 709.477,421.702 709.477,414.957 704.277,414.957 704.277,407.813 709.477,407.813 709.477,401.068 704.277,401.068 704.277,393.924 722.197,393.924 722.197,399.124 739.717,399.124 739.717,393.924 757.637,393.924 757.637,399.124 775.157,399.124 775.157,393.924 793.077,393.924 793.077,399.124 810.597,399.124 810.597,393.924 828.517,393.924 828.517,399.124 846.037,399.124 846.037,393.924 863.957,393.924 863.957,399.124 881.477,399.124 881.477,393.924 899.397,393.924 899.397,399.124 916.917,399.124 916.917,393.924 934.837,393.924 934.837,399.124 952.357,399.124 952.357,393.924 970.277,393.924 970.277,401.068 965.077,401.068 965.077,407.813 970.277,407.813 970.277,414.957 965.077,414.957 965.077,421.702 970.277,421.702 970.277,428.846 965.077,428.846 965.077,435.591 970.277,435.591 970.277,442.735 965.077,442.735 965.077,449.48 970.277,449.48 970.277,456.624 952.357,456.624 952.357,451.424 934.837,451.424 934.837,456.624 916.917,456.624 916.917,451.424 899.397,451.424 899.397,456.624 881.477,456.624 881.477,451.424 863.957,451.424 863.957,456.624 846.037,456.624 846.037,451.424 828.517,451.424 828.517,456.624 810.597,456.624 810.597,451.424 793.077,451.424 793.077,456.624 775.157,456.624 775.157,451.424 757.637,451.424 757.637,456.624 739.717,456.624 739.717,451.424 722.197,451.424 722.197,456.624 704.277,456.624 704.277,449.48 709.477,449.48 709.477,442.735 704.277,442.735 704.277,435.591 709.477,435.591 709.477,428.846 704.277,428.846" fill="none" stroke="black" stroke-width="0.1mm" />
<polyline z="0" points="719.677,429.257 719.677,421.291 726.577,417.306 733.477,421.291 733.477,429.257 726.577,433.241 719.677,429.257" fill="none" stroke="black" stroke-width="0.1mm" />
<polyline z="0" points="743.677,428.391 743.677,422.157 749.077,419.038 754.477,422.157 754.477,428.391 749.077,431.509 743.677,428.391" fill="none" stroke="black" stroke-width="0.1mm" />
<polyline z="0" points="764.677,428.391 764.677,422.157 770.077,419.038 775.477,422.157 775.477,428.391 770.077,431.509 764.677,428.391" fill="none" stroke="black" stroke-width="0.1mm" />
<polyline z="0" points="785.677,428.391 785.677,422.157 791.077,419.038 796.477,422.157 796.477,428.391 791.077,431.509 785.677,428.391" fill="none" stroke="black" stroke-width="0.1mm" />
<polyline z="0" points="806.677,428.391 806.677,422.157 812.077,419.038 817.477,422.157 817.477,428.391 812.077,431.509 806.677,428.391" fill="none" stroke="black" stroke-width="0.1mm" />
<polyline z="0" points="827.677,428.391 827.677,422.157 833.077,419.038 838.477,422.157 838.477,428.391 833.077,431.509 827.677,428.391" fill="none" stroke="black" stroke-width="0.1mm" />
<polyline z="0" points="848.677,428.391 848.677,422.157 854.077,419.038 859.477,422.157 859.477,428.391 854.077,431.509 848.677,428.391" fill="none" stroke="black" stroke-width="0.1mm" />
<polyline z="0" points="870.077,427.814 870.077,422.734 874.477,420.193 878.877,422.734 878.877,427.814 874.477,430.354 870.077,427.814" fill="none" stroke="black" stroke-width="0.1mm" />
<polyline z="0" points="889.077,427.814 889.077,422.734 893.477,420.193 897.877,422.734 897.877,427.814 893.477,430.354 889.077,427.814" fill="none" stroke="black" stroke-width="0.1mm" />
<polyline z="0" points="908.077,427.814 908.077,422.734 912.477,420.193 916.877,422.734 916.877,427.814 912.477,430.354 908.077,427.814" fill="none" stroke="black" stroke-width="0.1mm" />
<polyline z="0" points="927.077,427.814 927.077,422.734 931.477,420.193 935.877,422.734 935.877,427.814 931.477,430.354 927.077,427.814" fill="none" stroke="black" stroke-width="0.1mm" />
<polyline z="0" points="946.077,427.814 946.077,422.734 950.477,420.193 954.877,422.734 954.877,427.814 950.477,430.354 946.077,427.814" fill="none" stroke="black" stroke-width="0.1mm" />
<polyline z="0" points="970.277,479.85 970.277,490.05 952.557,490.05 952.557,495.25 934.637,495.25 934.637,490.05 917.117,490.05 917.117,495.25 899.197,495.25 899.197,490.05 881.677,490.05 881.677,495.25 863.757,495.25 863.757,490.05 846.237,490.05 846.237,495.25 828.317,495.25 828.317,490.05 810.797,490.05 810.797,495.25 792.877,495.25 792.877,490.05 775.357,490.05 775.357,495.25 757.437,495.25 757.437,490.05 739.917,490.05 739.917,495.25 721.997,495.25 721.997,490.05 704.277,490.05 704.277,479.85 970.277,479.85" fill="none" stroke="black" stroke-width="0.1mm" />
<polyline z="0" points="970.277,500.45 970.277,507.025 965.077,507.025 965.077,513.201 970.277,513.201 970.277,519.776 704.277,519.776 704.277,513.201 709.477,513.201 709.477,507.025 704.277,507.025 704.277,500.45 721.997,500.45 721.997,495.25 739.917,495.25 739.917,500.45 757.437,500.45 757.437,495.25 775.357,495.25 775.357,500.45 792.877,500.45 792.877,495.25 810.797,495.25 810.797,500.45 828.317,500.45 828.317,495.25 846.237,495.25 846.237,500.45 863.757,500.45 863.757,495.25 881.677,495.25 881.677,500.45 899.197,500.45 899.197,495.25 917.117,495.25 917.117,500.45 934.637,500.45 934.637,495.25 952.557,495.25 952.557,500.45 970.277,500.45" fill="none" stroke="black" stroke-width="0.1mm" />
</svg>