<?xml version="1.0" standalone="no"?>
<!DOCTYPE svg PUBLIC "-//W3C//DTD SVG 1.1//EN" "http://www.w3.org/Graphics/SVG/1.1/DTD/svg11.dtd">
<svg width="1300mm" height="900mm" viewBox="0 0 1300 900" xmlns="http://www.w3.org/2000/svg" version="1.1">
<polyline z="0" points="384,505.103 384,497.142 389.2,497.142 389.2,489.581 384,489.581 384,481.619 389.2,481.619 389.2,474.058 384,474.058 384,466.097 650,466.097 650,474.058 644.8,474.058 644.8,481.619 650,481.619 650,489.581 644.8,489.581 644.8,497.142 650,497.142 650,505.103 632.28,505.103 632.28,510.303 614.36,510.303 614.36,505.103 596.84,505.103 596.84,510.303 578.92,510.303 578.92,505.103 561.4,505.103 561.4,510.303 543.48,510.303 543.48,505.103 525.96,505.103 525.96,510.303 508.04,510.303 508.04,505.103 490.52,505.103 490.52,510.303 472.6,510.303 472.6,505.103 455.08,505.103 455.08,510.303 437.16,510.303 437.16,505.103 419.64,505.103 419.64,510.303 401.72,510.303 401.72,505.103 384,505.103" fill="none" stroke="black" stroke-width="0.1mm" />
<polyline z="0" points="384,466.097 384,457.43 389.2,457.43 389.2,449.164 384,449.164 384,440.497 389.2,440.497 389.2,432.23 384,432.23 384,423.564 389.2,423.564 389.2,415.297 384,415.297 384,406.63 389.2,406.63 389.2,398.364 384,398.364 384,389.697 650,389.697 650,398.364 644.8,398.364 644.8,406.63 650,406.63 650,415.297 644.8,415.297 644.8,423.564 650,423.564 650,432.23 644.8,432.23 644.8,440.497 650,440.497 650,449.164 644.8,449.164 644.8,457.43 650,457.43 650,466.097 384,466.097" fill="none" stroke="black" stroke-width="0.1mm" />
<polyline z="0" points="614.56,442.647 614.56,437.647 632.08,437.647 632.08,442.647 614.56,442.647" fill="none" stroke="black" stroke-width="0.1mm" />
<polyline z="0" points="596.64,442.647 579.12,442.647 579.12,437.647 596.64,437.647 596.64,442.647" fill="none" stroke="black" stroke-width="0.1mm" />
<polyline z="0" points="561.2,442.647 543.68,442.647 543.68,437.647 561.2,437.647 561.2,442.647" fill="none" stroke="black" stroke-width="0.1mm" />
<polyline z="0" points="525.76,442.647 508.24,442.647 508.24,437.647 525.76,437.647 525.76,442.647" fill="none" stroke="black" stroke-width="0.1mm" />
<polyline z="0" points="490.32,442.647 472.8,442.647 472.8,437.647 490.32,437.647 490.32,442.647" fill="none" stroke="black" stroke-width="0.1mm" />
<polyline z="0" points="454.88,442.647 437.36,442.647 437.36,437.647 454.88,437.647 454.88,442.647" fill="none" stroke="black" stroke-width="0.1mm" />
<polyline z="0" points="419.44,442.647 401.92,442.647 401.92,437.647 419.44,437.647 419.44,442.647" fill="none" stroke="black" stroke-width="0.1mm" />
<polyline z="0" points="650,490.977 667.72,490.977 667.72,485.777 685.64,485.777 685.64,490.977 703.16,490.977 703.16,485.777 721.08,485.777 721.08,490.977 738.6,490.977 738.6,485.777 756.52,485.777 756.52,490.977 774.04,490.977 774.04,485.777 791.96,485.777 791.96,490.977 809.48,490.977 809.48,485.777 827.4,485.777 827.4,490.977 844.92,490.977 844.92,485.777 862.84,485.777 862.84,490.977 880.36,490.977 880.36,485.777 898.28,485.777 898.28,490.977 916,490.977 916,497.552 910.8,497.552 910.8,503.728 916,503.728 916,510.303 650,510.303 650,503.728 655.2,503.728 655.2,497.552 650,497.552 650,490.977" fill="none" stroke="black" stroke-width="0.1mm" />
</svg>