<?xml version="1.0" encoding="UTF-8" standalone="no"?>
<svg
   width="1300mm"
   height="900mm"
   viewBox="0 0 1300 900"
   version="1.1"
   id="svg13"
   sodipodi:docname="SAEAllen.svg"
   inkscape:version="1.3.2 (091e20ef0f, 2023-11-25)"
   xmlns:inkscape="http://www.inkscape.org/namespaces/inkscape"
   xmlns:sodipodi="http://sodipodi.sourceforge.net/DTD/sodipodi-0.dtd"
   xmlns="http://www.w3.org/2000/svg"
   xmlns:svg="http://www.w3.org/2000/svg">
  <defs
     id="defs13" />
  <sodipodi:namedview
     id="namedview13"
     pagecolor="#505050"
     bordercolor="#eeeeee"
     borderopacity="1"
     inkscape:showpageshadow="0"
     inkscape:pageopacity="0"
     inkscape:pagecheckerboard="0"
     inkscape:deskcolor="#505050"
     inkscape:document-units="mm"
     inkscape:zoom="0.32686218"
     inkscape:cx="2927.8395"
     inkscape:cy="1681.1367"
     inkscape:window-width="1920"
     inkscape:window-height="1011"
     inkscape:window-x="0"
     inkscape:window-y="32"
     inkscape:window-maximized="1"
     inkscape:current-layer="svg13" />
  <polyline
     z="0"
     points="366.425,534.939 366.425,526.978 371.624,526.978 371.624,519.417 366.425,519.417 366.425,511.455 371.624,511.455 371.624,503.894 366.425,503.894 366.425,495.933 595.699,495.933 595.699,503.894 590.5,503.894 590.5,511.455 595.699,511.455 595.699,519.417 590.5,519.417 590.5,526.978 595.699,526.978 595.699,534.939 578.078,534.939 578.078,540.139 560.257,540.139 560.257,534.939 542.836,534.939 542.836,540.139 525.015,540.139 525.015,534.939 507.594,534.939 507.594,540.139 489.773,540.139 489.773,534.939 472.351,534.939 472.351,540.139 454.53,540.139 454.53,534.939 437.109,534.939 437.109,540.139 419.288,540.139 419.288,534.939 401.867,534.939 401.867,540.139 384.046,540.139 384.046,534.939 366.425,534.939"
     fill="none"
     stroke="#000000"
     stroke-width="0.1mm"
     id="polyline1"
     transform="rotate(90,650,450.05883)"
     style="fill:none;stroke:#000000;stroke-opacity:1;vector-effect:non-scaling-stroke;-inkscape-stroke:hairline;stroke-width:0.26458333;stroke-dasharray:none" />
  <polyline
     z="0"
     points="366.425,495.933 366.425,487.266 371.624,487.266 371.624,479 366.425,479 366.425,470.333 371.624,470.333 371.624,462.066 366.425,462.066 366.425,453.4 371.624,453.4 371.624,445.133 366.425,445.133 366.425,436.466 371.624,436.466 371.624,428.2 366.425,428.2 366.425,419.533 595.699,419.533 595.699,428.2 590.5,428.2 590.5,436.466 595.699,436.466 595.699,445.133 590.5,445.133 590.5,453.4 595.699,453.4 595.699,462.066 590.5,462.066 590.5,470.333 595.699,470.333 595.699,479 590.5,479 590.5,487.266 595.699,487.266 595.699,495.933 366.425,495.933"
     fill="none"
     stroke="#000000"
     stroke-width="0.1mm"
     id="polyline2"
     transform="rotate(90,650,450.05883)"
     style="fill:none;stroke:#000000;stroke-opacity:1;vector-effect:non-scaling-stroke;-inkscape-stroke:hairline;stroke-width:0.26458333;stroke-dasharray:none" />
  <polyline
     z="0"
     points="366.425,384.514 375.344,384.514 375.344,379.314 384.01,379.314 384.01,384.514 392.277,384.514 392.277,379.314 400.944,379.314 400.944,384.514 409.21,384.514 409.21,379.314 417.877,379.314 417.877,384.514 426.144,384.514 426.144,379.314 434.81,379.314 434.81,384.514 443.077,384.514 443.077,379.456 428.813,365.192 431.021,359.862 431.021,365.463 438.582,365.463 438.582,360.264 446.543,360.264 446.543,365.463 454.105,365.463 454.105,360.264 462.066,360.264 462.066,365.463 469.827,365.463 469.827,366.822 475.027,366.822 475.027,373.58 469.827,373.58 469.827,379.939 475.027,379.939 475.027,386.697 469.827,386.697 469.827,393.055 475.027,393.055 475.027,399.813 469.827,399.813 469.827,406.172 475.027,406.172 475.027,412.93 469.827,412.93 469.827,414.289 459.827,414.289 459.827,419.533 366.425,384.514"
     fill="none"
     stroke="#000000"
     stroke-width="0.1mm"
     id="polyline3"
     transform="rotate(90,650,450.05883)"
     style="fill:none;stroke:#000000;stroke-opacity:1;vector-effect:non-scaling-stroke;-inkscape-stroke:hairline;stroke-width:0.26458333;stroke-dasharray:none" />
  <polyline
     z="0"
     points="595.699,443.222 600.899,443.222 600.899,441.863 608.66,441.863 608.66,436.664 616.621,436.664 616.621,441.863 624.183,441.863 624.183,436.664 632.144,436.664 632.144,441.863 639.705,441.863 639.705,436.262 641.913,441.592 627.649,455.856 627.649,460.914 635.916,460.914 635.916,455.714 644.582,455.714 644.582,460.914 652.849,460.914 652.849,455.714 661.516,455.714 661.516,460.914 669.782,460.914 669.782,455.714 678.449,455.714 678.449,460.914 686.716,460.914 686.716,455.714 695.382,455.714 695.382,460.914 704.301,460.914 610.899,495.933 610.899,490.689 600.899,490.689 600.899,489.33 595.699,489.33 595.699,482.572 600.899,482.572 600.899,476.213 595.699,476.213 595.699,469.455 600.899,469.455 600.899,463.097 595.699,463.097 595.699,456.339 600.899,456.339 600.899,449.98 595.699,449.98 595.699,443.222"
     fill="none"
     stroke="#000000"
     stroke-width="0.1mm"
     id="polyline4"
     transform="rotate(90,650,450.05883)"
     style="fill:none;stroke:#000000;stroke-opacity:1;vector-effect:non-scaling-stroke;-inkscape-stroke:hairline;stroke-width:0.26458333;stroke-dasharray:none" />
  <polyline
     z="0"
     points="595.699,524.738 824.973,524.738 824.973,534.939 807.352,534.939 807.352,540.139 789.531,540.139 789.531,534.939 772.11,534.939 772.11,540.139 754.289,540.139 754.289,534.939 736.868,534.939 736.868,540.139 719.047,540.139 719.047,534.939 701.625,534.939 701.625,540.139 683.804,540.139 683.804,534.939 666.383,534.939 666.383,540.139 648.562,540.139 648.562,534.939 631.141,534.939 631.141,540.139 613.32,540.139 613.32,534.939 595.699,534.939 595.699,524.738"
     fill="none"
     stroke="#000000"
     stroke-width="0.1mm"
     id="polyline5"
     transform="rotate(90,650,450.05883)"
     style="fill:none;stroke:#000000;stroke-opacity:1;vector-effect:non-scaling-stroke;-inkscape-stroke:hairline;stroke-width:0.26458333;stroke-dasharray:none" />
  <path
     id="polyline6"
     d="M 704.30108 495.93291 L 722.12222 495.93291 L 722.12222 490.73375 L 739.54286 490.73375 L 739.54286 495.93291 L 757.36399 495.93291 L 757.36399 490.73375 L 774.78515 490.73375 L 774.78515 495.93291 L 792.60577 495.93291 L 792.60577 490.73375 L 810.02693 490.73375 L 810.02693 495.93291 L 827.8491 495.93291 L 827.8491 490.73375 L 845.27026 490.73375 L 845.27026 495.93291 L 863.09087 495.93291 L 863.09087 490.73375 L 880.51203 490.73375 L 880.51203 495.93291 L 898.33317 495.93291 L 898.33317 490.73375 L 915.75381 490.73375 L 915.75381 495.93291 L 933.57494 495.93291 L 933.57494 489.17519 L 928.37578 489.17519 L 928.37578 482.81692 L 933.57494 482.81692 L 933.57494 476.05816 L 928.37578 476.05816 L 928.37578 469.69989 L 933.57494 469.69989 L 933.57494 462.94216 L 928.37578 462.94216 L 928.37578 456.5839 L 933.57494 456.5839 L 933.57494 449.82513 L 928.37578 449.82513 L 928.37578 443.46687 L 933.57494 443.46687 L 933.57494 436.70914 L 915.75381 436.70914 L 915.75381 441.90779 L 898.33317 441.90779 L 898.33317 436.70914 L 880.51203 436.70914 L 880.51203 441.90779 L 863.09087 441.90779 L 863.09087 436.70914 L 845.27026 436.70914 L 845.27026 441.90779 L 827.8491 441.90779 L 827.8491 436.70914 L 810.02693 436.70914 L 810.02693 441.90779 L 792.60577 441.90779 L 792.60577 436.70914 L 774.78515 436.70914 L 774.78515 441.90779 L 757.36399 441.90779 L 757.36399 436.70914 L 739.54286 436.70914 L 739.54286 441.90779 L 722.12222 441.90779 L 722.12222 436.70914 L 704.30108 436.70914 L 704.30108 443.46687 L 709.50025 443.46687 L 709.50025 449.82513 L 704.30108 449.82513 L 704.30108 456.5839 L 709.50025 456.5839 L 709.50025 462.94216 L 704.30108 462.94216 L 704.30108 469.69989 L 709.50025 469.69989 L 709.50025 476.05816 L 704.30108 476.05816 L 704.30108 482.81692 L 709.50025 482.81692 L 709.50025 489.17519 L 704.30108 489.17519 L 704.30108 495.93291 z M 734.1065 468.74129 L 734.1065 465.5296 L 736.88876 463.9235 L 739.66947 465.5296 L 739.66947 468.74129 L 736.88876 470.34636 L 734.1065 468.74129 z M 758.67812 468.74078 L 758.67812 465.52909 L 761.45987 463.92298 L 764.24109 465.52909 L 764.24109 468.74078 L 761.45987 470.34585 L 758.67812 468.74078 z M 784.04402 468.74078 L 784.04402 465.52909 L 786.82576 463.92298 L 789.60699 465.52909 L 789.60699 468.74078 L 786.82576 470.34585 L 784.04402 468.74078 z M 809.80679 468.97022 L 809.80679 465.29913 L 812.98489 463.46513 L 816.16299 465.29913 L 816.16299 468.97022 L 812.98489 470.80422 L 809.80679 468.97022 z M 836.36279 469.19915 L 836.36279 465.0702 L 839.93776 463.00676 L 843.51326 465.0702 L 843.51326 469.19915 L 839.93776 471.2631 L 836.36279 469.19915 z M 863.71306 469.657 L 863.71306 464.61183 L 868.08178 462.09002 L 872.44999 464.61183 L 872.44999 469.657 L 868.08178 472.17881 L 863.71306 469.657 z M 892.65083 470.11485 L 892.65083 464.15398 L 897.81278 461.1738 L 902.97474 464.15398 L 902.97474 470.11485 L 897.81278 473.09607 L 892.65083 470.11485 z "
     transform="rotate(90,650,450.05883)"
     style="fill:none;stroke:#000000;stroke-opacity:1;vector-effect:non-scaling-stroke;-inkscape-stroke:hairline;stroke-width:0.26458333;stroke-dasharray:none" />
</svg>
