<?xml version="1.0" standalone="no"?>
<!DOCTYPE svg PUBLIC "-//W3C//DTD SVG 1.1//EN" "http://www.w3.org/Graphics/SVG/1.1/DTD/svg11.dtd">
<svg width="1300mm" height="900mm" viewBox="0 0 1300 900" xmlns="http://www.w3.org/2000/svg" version="1.1">
<polyline z="0" points="290.05,676.166 290.05,666.006 284.85,666.006 284.85,655.646 290.05,655.646 290.05,645.686 284.85,645.686 284.85,635.326 290.05,635.326 290.05,625.366 284.85,625.366 284.85,615.006 290.05,615.006 290.05,605.046 284.85,605.046 284.85,594.686 290.05,594.686 290.05,584.726 284.85,584.726 284.85,574.366 290.05,574.366 290.05,564.206 307.385,564.206 307.385,559.006 330.121,559.006 330.121,564.206 352.456,564.206 352.456,559.006 375.192,559.006 375.192,564.206 397.527,564.206 397.527,559.006 420.263,559.006 420.263,564.206 442.598,564.206 442.598,559.006 465.334,559.006 465.334,564.206 487.669,564.206 487.669,559.006 510.405,559.006 510.405,564.206 527.74,564.206 527.74,574.366 532.94,574.366 532.94,584.726 527.74,584.726 527.74,594.686 532.94,594.686 532.94,605.046 527.74,605.046 527.74,615.006 532.94,615.006 532.94,625.366 527.74,625.366 527.74,635.326 532.94,635.326 532.94,645.686 527.74,645.686 527.74,655.646 532.94,655.646 532.94,666.006 527.74,666.006 527.74,676.166 517.201,676.166 506.035,666.046 493.965,657.095 481.077,649.369 467.493,642.944 453.344,637.882 438.768,634.231 423.903,632.026 408.895,631.288 393.887,632.026 379.022,634.231 364.446,637.882 350.297,642.944 336.713,649.369 323.825,657.095 311.755,666.046 300.589,676.166 290.05,676.166" fill="none" stroke="black" stroke-width="0.1mm" />
<polyline z="0" points="401.88,559.006 284.85,482.761 284.85,477.406 305.843,477.406 305.843,482.606 326.435,482.606 326.435,477.606 316.085,477.606 316.085,471.885 329.755,458.215 329.755,463.556 337.546,463.556 337.546,458.356 345.737,458.356 345.737,463.556 353.528,463.556 353.528,458.356 361.719,458.356 361.719,463.556 369.509,463.556 369.509,458.356 377.7,458.356 377.7,463.556 385.491,463.556 385.491,457.954 387.699,463.284 373.576,477.406 389.014,477.406 389.014,482.606 409.606,482.606 409.606,477.406 430.599,477.406 430.599,482.606 451.192,482.606 451.192,477.406 472.185,477.406 472.185,482.606 492.777,482.606 492.777,477.406 518.97,477.406 518.97,485.006 513.77,485.006 513.77,492.206 518.97,492.206 518.97,499.806 513.77,499.806 513.77,507.006 518.97,507.006 518.97,514.606 513.77,514.606 513.77,521.806 518.97,521.806 518.97,529.406 513.77,529.406 513.77,536.606 518.97,536.606 518.97,544.206 513.77,544.206 513.77,551.406 518.97,551.406 518.97,559.006 503.41,559.006 503.41,553.806 493.45,553.806 493.45,559.006 483.09,559.006 483.09,553.806 473.13,553.806 473.13,559.006 462.77,559.006 462.77,553.806 452.81,553.806 452.81,559.006 442.45,559.006 442.45,553.806 432.49,553.806 432.49,559.006 422.13,559.006 422.13,553.806 412.17,553.806 412.17,559.006 401.88,559.006" fill="none" stroke="black" stroke-width="0.1mm" />
<polyline z="0" points="368.021,482.606 347.428,482.606 347.428,477.606 368.021,477.606 368.021,482.606" fill="none" stroke="black" stroke-width="0.1mm" />
<polyline z="0" points="290.05,457.954 290.05,437.161 284.85,437.161 284.85,416.169 290.05,416.169 290.05,395.576 284.85,395.576 284.85,374.583 290.05,374.583 290.05,353.99 284.85,353.99 284.85,332.998 290.05,332.998 290.05,312.405 284.85,312.405 284.85,291.412 290.05,291.412 290.05,270.819 284.85,270.819 284.85,249.827 290.05,249.827 290.05,229.034 307.385,229.034 307.385,223.834 330.121,223.834 330.121,229.034 352.456,229.034 352.456,223.834 375.192,223.834 375.192,229.034 397.527,229.034 397.527,223.834 420.263,223.834 420.263,229.034 442.598,229.034 442.598,223.834 465.334,223.834 465.334,229.034 487.669,229.034 487.669,223.834 510.405,223.834 510.405,229.034 527.74,229.034 527.74,249.827 532.94,249.827 532.94,270.819 527.74,270.819 527.74,291.412 532.94,291.412 532.94,312.405 527.74,312.405 527.74,332.998 532.94,332.998 532.94,353.99 527.74,353.99 527.74,374.583 532.94,374.583 532.94,395.576 527.74,395.576 527.74,416.169 532.94,416.169 532.94,437.161 527.74,437.161 527.74,457.954 290.05,457.954" fill="none" stroke="black" stroke-width="0.1mm" />
<polyline z="0" points="518.97,484.806 524.17,484.806 524.17,477.406 541.705,477.406 541.705,482.606 564.041,482.606 564.041,477.406 586.776,477.406 586.776,482.606 609.112,482.606 609.112,477.406 631.847,477.406 631.847,482.606 654.183,482.606 654.183,477.406 676.918,477.406 676.918,482.606 699.254,482.606 699.254,477.406 721.989,477.406 721.989,482.606 744.325,482.606 744.325,477.406 761.86,477.406 761.86,484.806 767.06,484.806 767.06,492.406 761.86,492.406 761.86,499.606 767.06,499.606 767.06,507.206 761.86,507.206 761.86,514.406 767.06,514.406 767.06,522.006 761.86,522.006 761.86,529.206 767.06,529.206 767.06,536.806 761.86,536.806 761.86,544.006 767.06,544.006 767.06,551.606 761.86,551.606 761.86,559.006 744.325,559.006 744.325,553.806 721.989,553.806 721.989,559.006 699.254,559.006 699.254,553.806 676.918,553.806 676.918,559.006 654.183,559.006 654.183,553.806 631.847,553.806 631.847,559.006 609.112,559.006 609.112,553.806 586.776,553.806 586.776,559.006 564.041,559.006 564.041,553.806 541.705,553.806 541.705,559.006 524.17,559.006 524.17,551.606 518.97,551.606 518.97,544.006 524.17,544.006 524.17,536.806 518.97,536.806 518.97,529.206 524.17,529.206 524.17,522.006 518.97,522.006 518.97,514.406 524.17,514.406 524.17,507.206 518.97,507.206 518.97,499.606 524.17,499.606 524.17,492.406 518.97,492.406 518.97,484.806" fill="none" stroke="black" stroke-width="0.1mm" />
<polyline z="0" points="532.94,594.566 559.133,594.566 559.133,599.766 579.725,599.766 579.725,594.566 600.718,594.566 600.718,599.766 621.311,599.766 621.311,594.566 642.304,594.566 642.304,599.766 662.896,599.766 662.896,594.566 678.334,594.566 664.211,580.444 666.419,575.114 666.419,580.716 674.21,580.716 674.21,575.516 682.401,575.516 682.401,580.716 690.191,580.716 690.191,575.516 698.382,575.516 698.382,580.716 706.173,580.716 706.173,575.516 714.364,575.516 714.364,580.716 722.155,580.716 722.155,575.375 735.825,589.045 735.825,594.766 725.475,594.766 725.475,599.766 746.067,599.766 746.067,594.566 767.06,594.566 767.06,599.921 650.03,676.166 639.74,676.166 639.74,670.966 629.78,670.966 629.78,676.166 619.42,676.166 619.42,670.966 609.46,670.966 609.46,676.166 599.1,676.166 599.1,670.966 589.14,670.966 589.14,676.166 578.78,676.166 578.78,670.966 568.82,670.966 568.82,676.166 558.46,676.166 558.46,670.966 548.5,670.966 548.5,676.166 532.94,676.166 532.94,668.566 538.14,668.566 538.14,661.366 532.94,661.366 532.94,653.766 538.14,653.766 538.14,646.566 532.94,646.566 532.94,638.966 538.14,638.966 538.14,631.766 532.94,631.766 532.94,624.166 538.14,624.166 538.14,616.966 532.94,616.966 532.94,609.366 538.14,609.366 538.14,602.166 532.94,602.166 532.94,594.566" fill="none" stroke="black" stroke-width="0.1mm" />
<polyline z="0" points="683.889,594.766 704.482,594.766 704.482,599.766 683.889,599.766 683.889,594.766" fill="none" stroke="black" stroke-width="0.1mm" />
<polyline z="0" points="767.06,620.03 1015.15,620.03 1015.15,628.221 1009.95,628.221 1009.95,636.012 1015.15,636.012 1015.15,644.203 1009.95,644.203 1009.95,651.993 1015.15,651.993 1015.15,660.184 1009.95,660.184 1009.95,667.975 1015.15,667.975 1015.15,676.166 767.06,676.166 767.06,667.975 772.26,667.975 772.26,660.184 767.06,660.184 767.06,651.993 772.26,651.993 772.26,644.203 767.06,644.203 767.06,636.012 772.26,636.012 772.26,628.221 767.06,628.221 767.06,620.03" fill="none" stroke="black" stroke-width="0.1mm" />
</svg>