<?xml version="1.0" encoding="UTF-8" standalone="no"?>
<svg
   width="1300mm"
   height="900mm"
   viewBox="0 0 1300 900"
   version="1.1"
   id="svg8"
   sodipodi:docname="SandpaperThirdSheet.svg"
   inkscape:version="1.3.2 (091e20ef0f, 2023-11-25)"
   xmlns:inkscape="http://www.inkscape.org/namespaces/inkscape"
   xmlns:sodipodi="http://sodipodi.sourceforge.net/DTD/sodipodi-0.dtd"
   xmlns="http://www.w3.org/2000/svg"
   xmlns:svg="http://www.w3.org/2000/svg">
  <defs
     id="defs8" />
  <sodipodi:namedview
     id="namedview8"
     pagecolor="#505050"
     bordercolor="#eeeeee"
     borderopacity="1"
     inkscape:showpageshadow="0"
     inkscape:pageopacity="0"
     inkscape:pagecheckerboard="0"
     inkscape:deskcolor="#505050"
     inkscape:document-units="mm"
     inkscape:zoom="0.15508654"
     inkscape:cx="1228.3465"
     inkscape:cy="2176.2044"
     inkscape:window-width="1920"
     inkscape:window-height="1011"
     inkscape:window-x="0"
     inkscape:window-y="32"
     inkscape:window-maximized="1"
     inkscape:current-layer="svg8" />
  <path
     id="polyline2"
     style="vector-effect:non-scaling-stroke;fill:none;stroke:#000000;stroke-width:0.264583;stroke-dasharray:none;-inkscape-stroke:hairline"
     d="m 520.0485,313.6716 h 5 v 16.448 h -5 v -16.448 m -0.147,-16.847 h 5.347 v 5.835 h 5.522 l 13.67,13.67 h -5.342 v 7.791 h 5.2 v 8.191 h -5.2 v 7.791 h 5.2 v 8.191 h -5.2 v 7.79 h 5.2 v 8.191 h -5.2 v 7.791 h 5.603 l -5.33,2.208 -14.323,-14.323 v -12.984 h -5 v 16.447 h 5.2 v 16.847 h -5.2 v 16.448 h 5.2 v 16.847 h -5.2 v 16.447 h 5.2 v 16.847 h -5.2 v 16.448 h 5.2 v 11.647 h -6.927 v 5.2 h -7.128 v -5.2 h -6.727 v 5.2 h -7.127 v -5.2 h -6.727 v 5.2 h -7.128 v -5.2 h -6.727 v 5.2 h -7.127 v -5.2 h -6.727 v 5.2 h -7.128 v -5.2 h -6.927 v -3.124 h -5.2 v -8.523 h 5.2 v -8.124 h -5.2 v -8.524 h 5.2 v -8.123 h -5.2 v -8.524 h 5.2 v -8.123 h -5.2 v -8.524 h 5.2 v -8.124 h -5.2 v -8.523 h 5.2 v -8.124 h -5.313 l 76.366,-91.76" />
  <polyline
     z="0"
     points="512.899,587.54 497.16,587.54 497.16,579.016 502.36,579.016 502.36,570.893 497.16,570.893 497.16,562.369 502.36,562.369 502.36,554.245 497.16,554.245 497.16,545.722 502.36,545.722 502.36,537.598 497.16,537.598 497.16,529.075 502.36,529.075 502.36,520.951 497.16,520.951 497.16,512.427 502.36,512.427 502.36,504.304 497.16,504.304 497.16,500.98 508.265,500.98 508.265,495.78 519.571,495.78 519.571,500.98 530.476,500.98 530.476,495.78 541.782,495.78 541.782,500.98 552.687,500.98 552.687,495.78 563.993,495.78 563.993,500.98 574.898,500.98 574.898,495.78 586.204,495.78 586.204,500.98 597.109,500.98 597.109,495.78 608.415,495.78 608.415,500.98 619.52,500.98 619.52,504.304 614.32,504.304 614.32,512.427 619.52,512.427 619.52,520.951 614.32,520.951 614.32,529.075 619.52,529.075 619.52,537.598 614.32,537.598 614.32,545.722 619.52,545.722 619.52,554.245 614.32,554.245 614.32,562.369 619.52,562.369 619.52,570.893 614.32,570.893 614.32,579.016 619.52,579.016 619.52,587.54 603.781,587.54 599.079,583.278 594.017,579.524 588.612,576.284 582.916,573.591 576.982,571.467 570.869,569.935 564.634,569.011 558.34,568.702 552.046,569.011 545.811,569.935 539.698,571.467 533.764,573.591 528.068,576.284 522.663,579.524 517.601,583.278 512.899,587.54"
     fill="none"
     stroke="#000000"
     stroke-width="0.1mm"
     id="polyline3"
     transform="matrix(0,1,1,0,268.9245,-17.01542)"
     style="vector-effect:non-scaling-stroke;stroke-width:0.264583;stroke-dasharray:none;-inkscape-stroke:hairline" />
  <path
     id="polyline5"
     style="vector-effect:non-scaling-stroke;fill:none;stroke:#000000;stroke-width:0.264583;stroke-dasharray:none;-inkscape-stroke:hairline"
     d="m 620.9885,325.16041 h 5 v 16.448 h -5 v -16.448 m -76.4,-133.178 v -8.523 h 5.2 v -3.124 h 6.927 v -5.2 h 7.128 v 5.2 h 6.727 v -5.2 h 7.127 v 5.2 h 6.727 v -5.2 h 7.128 v 5.2 h 6.727 v -5.2 h 7.127 v 5.2 h 6.727 v -5.2 h 7.128 v 5.2 h 6.927 v 11.647 h -5.2 v 16.448 h 5.2 v 16.847 h -5.2 v 16.447 h 5.2 v 16.847 h -5.2 v 16.448 h 5.2 v 16.847 h -5.2 v 16.447 h 5 v -12.984 l 14.323,-14.323 5.33,2.208 h -5.603 v 7.791 h 5.2 v 8.191 h -5.2 v 7.79 h 5.2 v 8.191 h -5.2 v 7.791 h 5.2 v 8.191 h -5.2 v 7.791 h 5.342 l -13.67,13.67 h -5.522 v 5.835 h -5.347 l -76.366,-91.76 h 5.313 v -8.124 h -5.2 v -8.523 h 5.2 v -8.124 h -5.2 v -8.524 h 5.2 v -8.123 h -5.2 v -8.524 h 5.2 v -8.123 h -5.2 v -8.524 h 5.2 v -8.124 h -5.2" />
  <polyline
     z="0"
     points="614.32,394.614 502.36,394.614 502.36,377.967 497.16,377.967 497.16,361.119 502.36,361.119 502.36,344.672 497.16,344.672 497.16,327.825 502.36,327.825 502.36,311.378 497.16,311.378 497.16,294.53 502.36,294.53 502.36,278.083 497.16,278.083 497.16,261.236 502.36,261.236 502.36,244.789 497.16,244.789 497.16,227.941 502.36,227.941 502.36,216.494 512.52,216.494 512.52,211.294 522.88,211.294 522.88,216.494 532.84,216.494 532.84,211.294 543.2,211.294 543.2,216.494 553.16,216.494 553.16,211.294 563.52,211.294 563.52,216.494 573.48,216.494 573.48,211.294 583.84,211.294 583.84,216.494 593.8,216.494 593.8,211.294 604.16,211.294 604.16,216.494 614.32,216.494 614.32,227.941 619.52,227.941 619.52,244.789 614.32,244.789 614.32,261.236 619.52,261.236 619.52,278.083 614.32,278.083 614.32,294.53 619.52,294.53 619.52,311.378 614.32,311.378 614.32,327.825 619.52,327.825 619.52,344.672 614.32,344.672 614.32,361.119 619.52,361.119 619.52,377.967 614.32,377.967 614.32,394.614"
     fill="none"
     stroke="#000000"
     stroke-width="0.1mm"
     id="polyline6"
     transform="rotate(90,455.70696,438.69154)"
     style="vector-effect:non-scaling-stroke;stroke-width:0.264583;stroke-dasharray:none;-inkscape-stroke:hairline" />
  <polyline
     z="0"
     points="619.52,505.94 635.08,505.94 635.08,511.14 645.04,511.14 645.04,505.94 655.4,505.94 655.4,511.14 665.36,511.14 665.36,505.94 675.72,505.94 675.72,511.14 685.68,511.14 685.68,505.94 696.04,505.94 696.04,511.14 706,511.14 706,505.94 716.36,505.94 716.36,511.14 726.32,511.14 726.32,505.94 741.88,505.94 741.88,513.067 736.68,513.067 736.68,519.795 741.88,519.795 741.88,526.922 736.68,526.922 736.68,533.649 741.88,533.649 741.88,540.776 736.68,540.776 736.68,547.504 741.88,547.504 741.88,554.631 736.68,554.631 736.68,561.358 741.88,561.358 741.88,568.485 736.68,568.485 736.68,575.213 741.88,575.213 741.88,587.54 730.575,587.54 730.575,582.34 719.669,582.34 719.669,587.54 708.364,587.54 708.364,582.34 697.458,582.34 697.458,587.54 686.153,587.54 686.153,582.34 675.247,582.34 675.247,587.54 663.942,587.54 663.942,582.34 653.036,582.34 653.036,587.54 641.731,587.54 641.731,582.34 630.825,582.34 630.825,587.54 619.52,587.54 619.52,575.213 624.72,575.213 624.72,568.485 619.52,568.485 619.52,561.358 624.72,561.358 624.72,554.631 619.52,554.631 619.52,547.504 624.72,547.504 624.72,540.776 619.52,540.776 619.52,533.649 624.72,533.649 624.72,526.922 619.52,526.922 619.52,519.795 624.72,519.795 624.72,513.067 619.52,513.067 619.52,505.94"
     fill="none"
     stroke="#000000"
     stroke-width="0.1mm"
     id="polyline7"
     transform="matrix(0,1,1,0,177.1645,-139.37542)"
     style="vector-effect:non-scaling-stroke;stroke-width:0.264583;stroke-dasharray:none;-inkscape-stroke:hairline" />
  <polyline
     z="0"
     points="680.48,632.57 802.84,632.57 802.84,640.761 797.64,640.761 797.64,648.552 802.84,648.552 802.84,656.743 797.64,656.743 797.64,664.533 802.84,664.533 802.84,672.724 797.64,672.724 797.64,680.515 802.84,680.515 802.84,688.706 680.48,688.706 680.48,680.515 685.68,680.515 685.68,672.724 680.48,672.724 680.48,664.533 685.68,664.533 685.68,656.743 680.48,656.743 680.48,648.552 685.68,648.552 685.68,640.761 680.48,640.761 680.48,632.57"
     fill="none"
     stroke="#000000"
     stroke-width="0.1mm"
     id="polyline8"
     transform="rotate(90,605.16495,527.18954)"
     style="vector-effect:non-scaling-stroke;stroke-width:0.264583;stroke-dasharray:none;-inkscape-stroke:hairline" />
  <path
     id="polyline2-2"
     style="vector-effect:non-scaling-stroke;fill:none;stroke:#000000;stroke-width:0.264583;stroke-dasharray:none;-inkscape-stroke:hairline"
     d="m 468.1885,341.93837 h -5 v -16.448 h 5 v 16.448 m 0.147,16.847 h -5.347 v -5.835 h -5.522 l -13.67,-13.67 h 5.342 v -7.791 h -5.2 v -8.191 h 5.2 v -7.791 h -5.2 v -8.191 h 5.2 v -7.79 h -5.2 v -8.191 h 5.2 v -7.791 h -5.603 l 5.33,-2.208 14.323,14.323 v 12.984 h 5 v -16.447 h -5.2 v -16.847 h 5.2 v -16.448 h -5.2 v -16.847 h 5.2 v -16.447 h -5.2 v -16.847 h 5.2 v -16.448 h -5.2 v -11.647 h 6.927 v -5.2 h 7.128 v 5.2 h 6.727 v -5.2 h 7.127 v 5.2 h 6.727 v -5.2 h 7.128 v 5.2 h 6.727 v -5.2 h 7.127 v 5.2 h 6.727 v -5.2 h 7.128 v 5.2 h 6.927 v 3.124 h 5.2 v 8.523 h -5.2 v 8.124 h 5.2 v 8.524 h -5.2 v 8.123 h 5.2 v 8.524 h -5.2 v 8.123 h 5.2 v 8.524 h -5.2 v 8.124 h 5.2 v 8.523 h -5.2 v 8.124 h 5.313 l -76.366,91.76" />
  <polyline
     z="0"
     points="512.899,587.54 497.16,587.54 497.16,579.016 502.36,579.016 502.36,570.893 497.16,570.893 497.16,562.369 502.36,562.369 502.36,554.245 497.16,554.245 497.16,545.722 502.36,545.722 502.36,537.598 497.16,537.598 497.16,529.075 502.36,529.075 502.36,520.951 497.16,520.951 497.16,512.427 502.36,512.427 502.36,504.304 497.16,504.304 497.16,500.98 508.265,500.98 508.265,495.78 519.571,495.78 519.571,500.98 530.476,500.98 530.476,495.78 541.782,495.78 541.782,500.98 552.687,500.98 552.687,495.78 563.993,495.78 563.993,500.98 574.898,500.98 574.898,495.78 586.204,495.78 586.204,500.98 597.109,500.98 597.109,495.78 608.415,495.78 608.415,500.98 619.52,500.98 619.52,504.304 614.32,504.304 614.32,512.427 619.52,512.427 619.52,520.951 614.32,520.951 614.32,529.075 619.52,529.075 619.52,537.598 614.32,537.598 614.32,545.722 619.52,545.722 619.52,554.245 614.32,554.245 614.32,562.369 619.52,562.369 619.52,570.893 614.32,570.893 614.32,579.016 619.52,579.016 619.52,587.54 603.781,587.54 599.079,583.278 594.017,579.524 588.612,576.284 582.916,573.591 576.982,571.467 570.869,569.935 564.634,569.011 558.34,568.702 552.046,569.011 545.811,569.935 539.698,571.467 533.764,573.591 528.068,576.284 522.663,579.524 517.601,583.278 512.899,587.54"
     fill="none"
     stroke="#000000"
     stroke-width="0.1mm"
     id="polyline3-1"
     transform="rotate(-90,745.47454,476.55004)"
     style="vector-effect:non-scaling-stroke;stroke-width:0.264583;stroke-dasharray:none;-inkscape-stroke:hairline" />
  <path
     id="polyline5-7"
     style="vector-effect:non-scaling-stroke;fill:none;stroke:#000000;stroke-width:0.264583;stroke-dasharray:none;-inkscape-stroke:hairline"
     d="m 569.1285,329.78964 h -5 v -16.448 h 5 v 16.448 m 76.4,133.178 v 8.523 h -5.2 v 3.124 h -6.927 v 5.2 h -7.128 v -5.2 h -6.727 v 5.2 h -7.127 v -5.2 h -6.727 v 5.2 h -7.128 v -5.2 h -6.727 v 5.2 h -7.127 v -5.2 h -6.727 v 5.2 h -7.128 v -5.2 h -6.927 v -11.647 h 5.2 v -16.448 h -5.2 v -16.847 h 5.2 v -16.447 h -5.2 v -16.847 h 5.2 v -16.448 h -5.2 v -16.847 h 5.2 v -16.447 h -5 v 12.984 l -14.323,14.323 -5.33,-2.208 h 5.603 v -7.791 h -5.2 v -8.191 h 5.2 v -7.79 h -5.2 v -8.191 h 5.2 v -7.791 h -5.2 v -8.191 h 5.2 v -7.791 h -5.342 l 13.67,-13.67 h 5.522 v -5.835 h 5.347 l 76.366,91.76 h -5.313 v 8.124 h 5.2 v 8.523 h -5.2 v 8.124 h 5.2 v 8.524 h -5.2 v 8.123 h 5.2 v 8.524 h -5.2 v 8.123 h 5.2 v 8.524 h -5.2 v 8.124 h 5.2" />
  <polyline
     z="0"
     points="614.32,394.614 502.36,394.614 502.36,377.967 497.16,377.967 497.16,361.119 502.36,361.119 502.36,344.672 497.16,344.672 497.16,327.825 502.36,327.825 502.36,311.378 497.16,311.378 497.16,294.53 502.36,294.53 502.36,278.083 497.16,278.083 497.16,261.236 502.36,261.236 502.36,244.789 497.16,244.789 497.16,227.941 502.36,227.941 502.36,216.494 512.52,216.494 512.52,211.294 522.88,211.294 522.88,216.494 532.84,216.494 532.84,211.294 543.2,211.294 543.2,216.494 553.16,216.494 553.16,211.294 563.52,211.294 563.52,216.494 573.48,216.494 573.48,211.294 583.84,211.294 583.84,216.494 593.8,216.494 593.8,211.294 604.16,211.294 604.16,216.494 614.32,216.494 614.32,227.941 619.52,227.941 619.52,244.789 614.32,244.789 614.32,261.236 619.52,261.236 619.52,278.083 614.32,278.083 614.32,294.53 619.52,294.53 619.52,311.378 614.32,311.378 614.32,327.825 619.52,327.825 619.52,344.672 614.32,344.672 614.32,361.119 619.52,361.119 619.52,377.967 614.32,377.967 614.32,394.614"
     fill="none"
     stroke="#000000"
     stroke-width="0.1mm"
     id="polyline6-8"
     transform="matrix(0,-1,-1,0,894.3985,1222.0246)"
     style="vector-effect:non-scaling-stroke;stroke-width:0.264583;stroke-dasharray:none;-inkscape-stroke:hairline" />
  <polyline
     z="0"
     points="619.52,505.94 635.08,505.94 635.08,511.14 645.04,511.14 645.04,505.94 655.4,505.94 655.4,511.14 665.36,511.14 665.36,505.94 675.72,505.94 675.72,511.14 685.68,511.14 685.68,505.94 696.04,505.94 696.04,511.14 706,511.14 706,505.94 716.36,505.94 716.36,511.14 726.32,511.14 726.32,505.94 741.88,505.94 741.88,513.067 736.68,513.067 736.68,519.795 741.88,519.795 741.88,526.922 736.68,526.922 736.68,533.649 741.88,533.649 741.88,540.776 736.68,540.776 736.68,547.504 741.88,547.504 741.88,554.631 736.68,554.631 736.68,561.358 741.88,561.358 741.88,568.485 736.68,568.485 736.68,575.213 741.88,575.213 741.88,587.54 730.575,587.54 730.575,582.34 719.669,582.34 719.669,587.54 708.364,587.54 708.364,582.34 697.458,582.34 697.458,587.54 686.153,587.54 686.153,582.34 675.247,582.34 675.247,587.54 663.942,587.54 663.942,582.34 653.036,582.34 653.036,587.54 641.731,587.54 641.731,582.34 630.825,582.34 630.825,587.54 619.52,587.54 619.52,575.213 624.72,575.213 624.72,568.485 619.52,568.485 619.52,561.358 624.72,561.358 624.72,554.631 619.52,554.631 619.52,547.504 624.72,547.504 624.72,540.776 619.52,540.776 619.52,533.649 624.72,533.649 624.72,526.922 619.52,526.922 619.52,519.795 624.72,519.795 624.72,513.067 619.52,513.067 619.52,505.94"
     fill="none"
     stroke="#000000"
     stroke-width="0.1mm"
     id="polyline7-5"
     transform="matrix(0,-1,-1,0,1270.6446,1344.3846)"
     style="vector-effect:non-scaling-stroke;stroke-width:0.264583;stroke-dasharray:none;-inkscape-stroke:hairline" />
  <polyline
     z="0"
     points="680.48,632.57 802.84,632.57 802.84,640.761 797.64,640.761 797.64,648.552 802.84,648.552 802.84,656.743 797.64,656.743 797.64,664.533 802.84,664.533 802.84,672.724 797.64,672.724 797.64,680.515 802.84,680.515 802.84,688.706 680.48,688.706 680.48,680.515 685.68,680.515 685.68,672.724 680.48,672.724 680.48,664.533 685.68,664.533 685.68,656.743 680.48,656.743 680.48,648.552 685.68,648.552 685.68,640.761 680.48,640.761 680.48,632.57"
     fill="none"
     stroke="#000000"
     stroke-width="0.1mm"
     id="polyline8-7"
     transform="rotate(-90,547.03155,735.95305)"
     style="vector-effect:non-scaling-stroke;stroke-width:0.264583;stroke-dasharray:none;-inkscape-stroke:hairline" />
</svg>
