<?xml version="1.0" encoding="UTF-8" standalone="no"?>
<svg
   width="1300mm"
   height="900mm"
   viewBox="0 0 1300 900"
   version="1.1"
   id="svg8"
   sodipodi:docname="SandpaperFullSheet.svg"
   inkscape:version="1.3.2 (091e20ef0f, 2023-11-25)"
   xmlns:inkscape="http://www.inkscape.org/namespaces/inkscape"
   xmlns:sodipodi="http://sodipodi.sourceforge.net/DTD/sodipodi-0.dtd"
   xmlns="http://www.w3.org/2000/svg"
   xmlns:svg="http://www.w3.org/2000/svg">
  <defs
     id="defs8" />
  <sodipodi:namedview
     id="namedview8"
     pagecolor="#505050"
     bordercolor="#eeeeee"
     borderopacity="1"
     inkscape:showpageshadow="0"
     inkscape:pageopacity="0"
     inkscape:pagecheckerboard="0"
     inkscape:deskcolor="#505050"
     inkscape:document-units="mm"
     inkscape:zoom="0.31017308"
     inkscape:cx="2045.6321"
     inkscape:cy="1968.2559"
     inkscape:window-width="1920"
     inkscape:window-height="1011"
     inkscape:window-x="0"
     inkscape:window-y="32"
     inkscape:window-maximized="1"
     inkscape:current-layer="svg8" />
  <polyline
     z="0"
     points="290.05,676.166 290.05,666.006 284.85,666.006 284.85,655.646 290.05,655.646 290.05,645.686 284.85,645.686 284.85,635.326 290.05,635.326 290.05,625.366 284.85,625.366 284.85,615.006 290.05,615.006 290.05,605.046 284.85,605.046 284.85,594.686 290.05,594.686 290.05,584.726 284.85,584.726 284.85,574.366 290.05,574.366 290.05,564.206 307.385,564.206 307.385,559.006 330.121,559.006 330.121,564.206 352.456,564.206 352.456,559.006 375.192,559.006 375.192,564.206 397.527,564.206 397.527,559.006 420.263,559.006 420.263,564.206 442.598,564.206 442.598,559.006 465.334,559.006 465.334,564.206 487.669,564.206 487.669,559.006 510.405,559.006 510.405,564.206 527.74,564.206 527.74,574.366 532.94,574.366 532.94,584.726 527.74,584.726 527.74,594.686 532.94,594.686 532.94,605.046 527.74,605.046 527.74,615.006 532.94,615.006 532.94,625.366 527.74,625.366 527.74,635.326 532.94,635.326 532.94,645.686 527.74,645.686 527.74,655.646 532.94,655.646 532.94,666.006 527.74,666.006 527.74,676.166 517.201,676.166 506.035,666.046 493.965,657.095 481.077,649.369 467.493,642.944 453.344,637.882 438.768,634.231 423.903,632.026 408.895,631.288 393.887,632.026 379.022,634.231 364.446,637.882 350.297,642.944 336.713,649.369 323.825,657.095 311.755,666.046 300.589,676.166 290.05,676.166"
     fill="none"
     stroke="#000000"
     stroke-width="0.1mm"
     id="polyline1"
     style="vector-effect:non-scaling-stroke;stroke-width:0.264583;stroke-dasharray:none;-inkscape-stroke:hairline"
     transform="rotate(-90,430.52142,304.32858)" />
  <path
     id="polyline3"
     style="vector-effect:non-scaling-stroke;fill:none;stroke:#000000;stroke-width:0.264583;-inkscape-stroke:hairline"
     d="m 910.25716,461.02994 v -20.593 h -5.00003 v 20.593 h 5.00003 m 76.4,33.859 -76.245,-117.03 h -5.35503 v 20.993 h 5.20003 v 20.592 h -5.00003 v -10.35 h -5.721 l -13.67,13.67 h 5.341 v 7.791 h -5.2 v 8.191 h 5.2 v 7.791 h -5.2 v 8.191 h 5.2 v 7.79 h -5.2 v 8.191 h 5.2 v 7.791 h -5.602 l 5.33,2.208 14.122,-14.123 v 15.438 h 5.20003 v 20.592 h -5.20003 v 20.993 h 5.20003 v 20.593 h -5.20003 v 20.993 h 5.20003 v 20.592 h -5.20003 v 26.193 h 7.60003 v -5.2 h 7.2 v 5.2 h 7.6 v -5.2 h 7.2 v 5.2 h 7.6 v -5.2 h 7.2 v 5.2 h 7.6 v -5.2 h 7.2 v 5.2 h 7.6 v -5.2 h 7.2 v 5.2 h 7.6 v -15.56 h -5.2 v -9.96 h 5.2 v -10.36 h -5.2 v -9.96 h 5.2 v -10.36 h -5.2 v -9.96 h 5.2 v -10.36 h -5.2 v -9.96 h 5.2 v -10.36 h -5.2 v -9.96 h 5.2 v -10.29" />
  <polyline
     z="0"
     points="290.05,457.954 290.05,437.161 284.85,437.161 284.85,416.169 290.05,416.169 290.05,395.576 284.85,395.576 284.85,374.583 290.05,374.583 290.05,353.99 284.85,353.99 284.85,332.998 290.05,332.998 290.05,312.405 284.85,312.405 284.85,291.412 290.05,291.412 290.05,270.819 284.85,270.819 284.85,249.827 290.05,249.827 290.05,229.034 307.385,229.034 307.385,223.834 330.121,223.834 330.121,229.034 352.456,229.034 352.456,223.834 375.192,223.834 375.192,229.034 397.527,229.034 397.527,223.834 420.263,223.834 420.263,229.034 442.598,229.034 442.598,223.834 465.334,223.834 465.334,229.034 487.669,229.034 487.669,223.834 510.405,223.834 510.405,229.034 527.74,229.034 527.74,249.827 532.94,249.827 532.94,270.819 527.74,270.819 527.74,291.412 532.94,291.412 532.94,312.405 527.74,312.405 527.74,332.998 532.94,332.998 532.94,353.99 527.74,353.99 527.74,374.583 532.94,374.583 532.94,395.576 527.74,395.576 527.74,416.169 532.94,416.169 532.94,437.161 527.74,437.161 527.74,457.954 290.05,457.954"
     fill="none"
     stroke="#000000"
     stroke-width="0.1mm"
     id="polyline4"
     style="vector-effect:non-scaling-stroke;stroke-width:0.264583;stroke-dasharray:none;-inkscape-stroke:hairline"
     transform="matrix(0,-1,-1,0,909.03284,734.85001)" />
  <polyline
     z="0"
     points="518.97,484.806 524.17,484.806 524.17,477.406 541.705,477.406 541.705,482.606 564.041,482.606 564.041,477.406 586.776,477.406 586.776,482.606 609.112,482.606 609.112,477.406 631.847,477.406 631.847,482.606 654.183,482.606 654.183,477.406 676.918,477.406 676.918,482.606 699.254,482.606 699.254,477.406 721.989,477.406 721.989,482.606 744.325,482.606 744.325,477.406 761.86,477.406 761.86,484.806 767.06,484.806 767.06,492.406 761.86,492.406 761.86,499.606 767.06,499.606 767.06,507.206 761.86,507.206 761.86,514.406 767.06,514.406 767.06,522.006 761.86,522.006 761.86,529.206 767.06,529.206 767.06,536.806 761.86,536.806 761.86,544.006 767.06,544.006 767.06,551.606 761.86,551.606 761.86,559.006 744.325,559.006 744.325,553.806 721.989,553.806 721.989,559.006 699.254,559.006 699.254,553.806 676.918,553.806 676.918,559.006 654.183,559.006 654.183,553.806 631.847,553.806 631.847,559.006 609.112,559.006 609.112,553.806 586.776,553.806 586.776,559.006 564.041,559.006 564.041,553.806 541.705,553.806 541.705,559.006 524.17,559.006 524.17,551.606 518.97,551.606 518.97,544.006 524.17,544.006 524.17,536.806 518.97,536.806 518.97,529.206 524.17,529.206 524.17,522.006 518.97,522.006 518.97,514.406 524.17,514.406 524.17,507.206 518.97,507.206 518.97,499.606 524.17,499.606 524.17,492.406 518.97,492.406 518.97,484.806"
     fill="none"
     stroke="#000000"
     stroke-width="0.1mm"
     id="polyline5"
     style="vector-effect:non-scaling-stroke;stroke-width:0.264583;stroke-dasharray:none;-inkscape-stroke:hairline"
     transform="matrix(0,-1,-1,0,872.34884,968.97001)" />
  <path
     id="polyline7"
     style="vector-effect:non-scaling-stroke;fill:none;stroke:#000000;stroke-width:0.264583;-inkscape-stroke:hairline"
     d="m 804.20513,373.64117 v 20.593 h 5 v -20.593 h -5 m -0.2,-150.949 v 26.193 h 5.2 v 20.592 h -5.2 v 20.993 h 5.2 v 20.593 h -5.2 v 20.993 h 5.2 v 20.592 h -5.2 v 15.438 l -14.122,-14.123 -5.33,2.208 h 5.602 v 7.791 h -5.2 v 8.191 h 5.2 v 7.79 h -5.2 v 8.191 h 5.2 v 7.791 h -5.2 v 8.191 h 5.2 v 7.791 h -5.341 l 13.67,13.67 h 5.721 v -10.35 h 5 v 20.592 h -5.2 v 20.993 h 5.355 l 76.245,-117.03 v -10.29 h -5.2 v -9.96 h 5.2 v -10.36 h -5.2 v -9.96 h 5.2 v -10.36 h -5.2 v -9.96 h 5.2 v -10.36 h -5.2 v -9.96 h 5.2 v -10.36 h -5.2 v -9.96 h 5.2 v -15.56 h -7.6 v 5.2 h -7.2 v -5.2 h -7.6 v 5.2 h -7.2 v -5.2 h -7.6 v 5.2 h -7.2 v -5.2 h -7.6 v 5.2 h -7.2 v -5.2 h -7.6 v 5.2 h -7.2 v -5.2 h -7.6" />
  <path
     id="polyline3-3"
     style="vector-effect:non-scaling-stroke;fill:none;stroke:#000000;stroke-width:0.264583;-inkscape-stroke:hairline"
     d="m 962.00516,373.64117 v 20.593 h 5 v -20.593 h -5 m -76.40003,-33.859 76.24503,117.03 h 5.355 v -20.993 h -5.2 v -20.592 h 5 v 10.35 h 5.721 l 13.67,-13.67 h -5.341 v -7.791 h 5.2 v -8.191 h -5.2 v -7.791 h 5.2 v -8.191 h -5.2 v -7.79 h 5.2 v -8.191 h -5.2 v -7.791 h 5.602 l -5.33,-2.208 -14.122,14.123 v -15.438 h -5.2 v -20.592 h 5.2 v -20.993 h -5.2 v -20.593 h 5.2 v -20.993 h -5.2 v -20.592 h 5.2 v -26.193 h -7.6 v 5.2 h -7.2 v -5.2 h -7.6 v 5.2 h -7.2 v -5.2 h -7.6 v 5.2 h -7.2 v -5.2 h -7.6 v 5.2 h -7.20002 v -5.2 h -7.60001 v 5.2 h -7.2 v -5.2 h -7.6 v 15.56 h 5.2 v 9.96 h -5.2 v 10.36 h 5.2 v 9.96 h -5.2 v 10.36 h 5.2 v 9.96 h -5.2 v 10.36 h 5.2 v 9.96 h -5.2 v 10.36 h 5.2 v 9.96 h -5.2 v 10.29" />
  <path
     id="polyline7-1"
     style="vector-effect:non-scaling-stroke;fill:none;stroke:#000000;stroke-width:0.264583;-inkscape-stroke:hairline"
     d="m 865.95313,461.02994 v -20.593 h -5 v 20.593 h 5 m 0.2,150.949 v -26.193 h -5.2 v -20.592 h 5.2 v -20.993 h -5.2 v -20.593 h 5.2 v -20.993 h -5.2 v -20.592 h 5.2 v -15.438 l 14.122,14.123 5.33,-2.208 h -5.602 v -7.791 h 5.2 v -8.191 h -5.2 v -7.79 h 5.2 v -8.191 h -5.2 v -7.791 h 5.2 v -8.191 h -5.2 v -7.791 h 5.341 l -13.67,-13.67 h -5.721 v 10.35 h -5 v -20.592 h 5.2 v -20.993 h -5.355 l -76.245,117.03 v 10.29 h 5.2 v 9.96 h -5.2 v 10.36 h 5.2 v 9.96 h -5.2 v 10.36 h 5.2 v 9.96 h -5.2 v 10.36 h 5.2 v 9.96 h -5.2 v 10.36 h 5.2 v 9.96 h -5.2 v 15.56 h 7.6 v -5.2 h 7.2 v 5.2 h 7.6 v -5.2 h 7.2 v 5.2 h 7.6 v -5.2 h 7.2 v 5.2 h 7.6 v -5.2 h 7.2 v 5.2 h 7.6 v -5.2 h 7.2 v 5.2 h 7.6" />
  <polyline
     z="0"
     points="767.06,620.03 1015.15,620.03 1015.15,628.221 1009.95,628.221 1009.95,636.012 1015.15,636.012 1015.15,644.203 1009.95,644.203 1009.95,651.993 1015.15,651.993 1015.15,660.184 1009.95,660.184 1009.95,667.975 1015.15,667.975 1015.15,676.166 767.06,676.166 767.06,667.975 772.26,667.975 772.26,660.184 767.06,660.184 767.06,651.993 772.26,651.993 772.26,644.203 767.06,644.203 767.06,636.012 772.26,636.012 772.26,628.221 767.06,628.221 767.06,620.03"
     fill="none"
     stroke="#000000"
     stroke-width="0.1mm"
     id="polyline8"
     style="vector-effect:non-scaling-stroke;stroke-width:0.264583;stroke-dasharray:none;-inkscape-stroke:hairline"
     transform="matrix(0,-1,-1,0,1071.1088,1217.06)" />
  <polyline
     z="0"
     points="290.05,676.166 290.05,666.006 284.85,666.006 284.85,655.646 290.05,655.646 290.05,645.686 284.85,645.686 284.85,635.326 290.05,635.326 290.05,625.366 284.85,625.366 284.85,615.006 290.05,615.006 290.05,605.046 284.85,605.046 284.85,594.686 290.05,594.686 290.05,584.726 284.85,584.726 284.85,574.366 290.05,574.366 290.05,564.206 307.385,564.206 307.385,559.006 330.121,559.006 330.121,564.206 352.456,564.206 352.456,559.006 375.192,559.006 375.192,564.206 397.527,564.206 397.527,559.006 420.263,559.006 420.263,564.206 442.598,564.206 442.598,559.006 465.334,559.006 465.334,564.206 487.669,564.206 487.669,559.006 510.405,559.006 510.405,564.206 527.74,564.206 527.74,574.366 532.94,574.366 532.94,584.726 527.74,584.726 527.74,594.686 532.94,594.686 532.94,605.046 527.74,605.046 527.74,615.006 532.94,615.006 532.94,625.366 527.74,625.366 527.74,635.326 532.94,635.326 532.94,645.686 527.74,645.686 527.74,655.646 532.94,655.646 532.94,666.006 527.74,666.006 527.74,676.166 517.201,676.166 506.035,666.046 493.965,657.095 481.077,649.369 467.493,642.944 453.344,637.882 438.768,634.231 423.903,632.026 408.895,631.288 393.887,632.026 379.022,634.231 364.446,637.882 350.297,642.944 336.713,649.369 323.825,657.095 311.755,666.046 300.589,676.166 290.05,676.166"
     fill="none"
     stroke="#000000"
     stroke-width="0.1mm"
     id="polyline1-7"
     style="vector-effect:non-scaling-stroke;stroke-width:0.264583;stroke-dasharray:none;-inkscape-stroke:hairline"
     transform="rotate(-90,554.56641,428.37359)" />
  <polyline
     z="0"
     points="290.05,457.954 290.05,437.161 284.85,437.161 284.85,416.169 290.05,416.169 290.05,395.576 284.85,395.576 284.85,374.583 290.05,374.583 290.05,353.99 284.85,353.99 284.85,332.998 290.05,332.998 290.05,312.405 284.85,312.405 284.85,291.412 290.05,291.412 290.05,270.819 284.85,270.819 284.85,249.827 290.05,249.827 290.05,229.034 307.385,229.034 307.385,223.834 330.121,223.834 330.121,229.034 352.456,229.034 352.456,223.834 375.192,223.834 375.192,229.034 397.527,229.034 397.527,223.834 420.263,223.834 420.263,229.034 442.598,229.034 442.598,223.834 465.334,223.834 465.334,229.034 487.669,229.034 487.669,223.834 510.405,223.834 510.405,229.034 527.74,229.034 527.74,249.827 532.94,249.827 532.94,270.819 527.74,270.819 527.74,291.412 532.94,291.412 532.94,312.405 527.74,312.405 527.74,332.998 532.94,332.998 532.94,353.99 527.74,353.99 527.74,374.583 532.94,374.583 532.94,395.576 527.74,395.576 527.74,416.169 532.94,416.169 532.94,437.161 527.74,437.161 527.74,457.954 290.05,457.954"
     fill="none"
     stroke="#000000"
     stroke-width="0.1mm"
     id="polyline4-5"
     style="vector-effect:non-scaling-stroke;stroke-width:0.264583;stroke-dasharray:none;-inkscape-stroke:hairline"
     transform="matrix(0,-1,-1,0,909.03284,982.94001)" />
  <polyline
     z="0"
     points="518.97,484.806 524.17,484.806 524.17,477.406 541.705,477.406 541.705,482.606 564.041,482.606 564.041,477.406 586.776,477.406 586.776,482.606 609.112,482.606 609.112,477.406 631.847,477.406 631.847,482.606 654.183,482.606 654.183,477.406 676.918,477.406 676.918,482.606 699.254,482.606 699.254,477.406 721.989,477.406 721.989,482.606 744.325,482.606 744.325,477.406 761.86,477.406 761.86,484.806 767.06,484.806 767.06,492.406 761.86,492.406 761.86,499.606 767.06,499.606 767.06,507.206 761.86,507.206 761.86,514.406 767.06,514.406 767.06,522.006 761.86,522.006 761.86,529.206 767.06,529.206 767.06,536.806 761.86,536.806 761.86,544.006 767.06,544.006 767.06,551.606 761.86,551.606 761.86,559.006 744.325,559.006 744.325,553.806 721.989,553.806 721.989,559.006 699.254,559.006 699.254,553.806 676.918,553.806 676.918,559.006 654.183,559.006 654.183,553.806 631.847,553.806 631.847,559.006 609.112,559.006 609.112,553.806 586.776,553.806 586.776,559.006 564.041,559.006 564.041,553.806 541.705,553.806 541.705,559.006 524.17,559.006 524.17,551.606 518.97,551.606 518.97,544.006 524.17,544.006 524.17,536.806 518.97,536.806 518.97,529.206 524.17,529.206 524.17,522.006 518.97,522.006 518.97,514.406 524.17,514.406 524.17,507.206 518.97,507.206 518.97,499.606 524.17,499.606 524.17,492.406 518.97,492.406 518.97,484.806"
     fill="none"
     stroke="#000000"
     stroke-width="0.1mm"
     id="polyline5-9"
     style="vector-effect:non-scaling-stroke;stroke-width:0.264583;stroke-dasharray:none;-inkscape-stroke:hairline"
     transform="matrix(0,-1,-1,0,872.34884,1217.06)" />
  <polyline
     z="0"
     points="767.06,620.03 1015.15,620.03 1015.15,628.221 1009.95,628.221 1009.95,636.012 1015.15,636.012 1015.15,644.203 1009.95,644.203 1009.95,651.993 1015.15,651.993 1015.15,660.184 1009.95,660.184 1009.95,667.975 1015.15,667.975 1015.15,676.166 767.06,676.166 767.06,667.975 772.26,667.975 772.26,660.184 767.06,660.184 767.06,651.993 772.26,651.993 772.26,644.203 767.06,644.203 767.06,636.012 772.26,636.012 772.26,628.221 767.06,628.221 767.06,620.03"
     fill="none"
     stroke="#000000"
     stroke-width="0.1mm"
     id="polyline8-6"
     style="vector-effect:non-scaling-stroke;stroke-width:0.264583;stroke-dasharray:none;-inkscape-stroke:hairline"
     transform="matrix(0,-1,-1,0,1071.1088,1465.15)" />
</svg>
