<?xml version="1.0" standalone="no"?>
<!DOCTYPE svg PUBLIC "-//W3C//DTD SVG 1.1//EN" "http://www.w3.org/Graphics/SVG/1.1/DTD/svg11.dtd">
<svg width="1300mm" height="900mm" viewBox="0 0 1300 900" xmlns="http://www.w3.org/2000/svg" version="1.1">
<polyline z="0" points="497.16,612.34 497.16,606.993 502.995,606.993 502.995,601.471 516.665,587.801 516.665,593.143 524.456,593.143 524.456,587.943 532.647,587.943 532.647,593.143 540.438,593.143 540.438,587.943 548.629,587.943 548.629,593.143 556.419,593.143 556.419,587.943 564.61,587.943 564.61,593.143 572.401,593.143 572.401,587.54 574.609,592.87 560.286,607.193 547.302,607.193 547.302,612.193 563.749,612.193 563.749,606.993 580.596,606.993 580.596,612.193 597.044,612.193 597.044,606.993 613.891,606.993 613.891,612.193 630.338,612.193 630.338,606.993 647.185,606.993 647.185,612.193 663.633,612.193 663.633,606.993 675.28,606.993 675.28,613.92 680.48,613.92 680.48,621.048 675.28,621.048 675.28,627.775 680.48,627.775 680.48,634.902 675.28,634.902 675.28,641.629 680.48,641.629 680.48,648.757 675.28,648.757 675.28,655.484 680.48,655.484 680.48,662.611 675.28,662.611 675.28,669.338 680.48,669.338 680.48,676.466 675.28,676.466 675.28,683.393 672.156,683.393 672.156,688.593 663.633,688.593 663.633,683.393 655.509,683.393 655.509,688.593 646.985,688.593 646.985,683.393 638.862,683.393 638.862,688.593 630.338,688.593 630.338,683.393 622.215,683.393 622.215,688.593 613.691,688.593 613.691,683.393 605.567,683.393 605.567,688.593 597.044,688.593 597.044,683.393 588.92,683.393 588.92,688.706 497.16,612.34" fill="none" stroke="black" stroke-width="0.1mm" />
<polyline z="0" points="514.007,612.193 514.007,607.193 530.455,607.193 530.455,612.193 514.007,612.193" fill="none" stroke="black" stroke-width="0.1mm" />
<polyline z="0" points="512.899,587.54 497.16,587.54 497.16,579.016 502.36,579.016 502.36,570.893 497.16,570.893 497.16,562.369 502.36,562.369 502.36,554.245 497.16,554.245 497.16,545.722 502.36,545.722 502.36,537.598 497.16,537.598 497.16,529.075 502.36,529.075 502.36,520.951 497.16,520.951 497.16,512.427 502.36,512.427 502.36,504.304 497.16,504.304 497.16,500.98 508.265,500.98 508.265,495.78 519.571,495.78 519.571,500.98 530.476,500.98 530.476,495.78 541.782,495.78 541.782,500.98 552.687,500.98 552.687,495.78 563.993,495.78 563.993,500.98 574.898,500.98 574.898,495.78 586.204,495.78 586.204,500.98 597.109,500.98 597.109,495.78 608.415,495.78 608.415,500.98 619.52,500.98 619.52,504.304 614.32,504.304 614.32,512.427 619.52,512.427 619.52,520.951 614.32,520.951 614.32,529.075 619.52,529.075 619.52,537.598 614.32,537.598 614.32,545.722 619.52,545.722 619.52,554.245 614.32,554.245 614.32,562.369 619.52,562.369 619.52,570.893 614.32,570.893 614.32,579.016 619.52,579.016 619.52,587.54 603.781,587.54 599.079,583.278 594.017,579.524 588.612,576.284 582.916,573.591 576.982,571.467 570.869,569.935 564.634,569.011 558.34,568.702 552.046,569.011 545.811,569.935 539.698,571.467 533.764,573.591 528.068,576.284 522.663,579.524 517.601,583.278 512.899,587.54" fill="none" stroke="black" stroke-width="0.1mm" />
<polyline z="0" points="514.007,495.667 505.484,495.667 505.484,490.467 502.36,490.467 502.36,483.54 497.16,483.54 497.16,476.412 502.36,476.412 502.36,469.685 497.16,469.685 497.16,462.558 502.36,462.558 502.36,455.831 497.16,455.831 497.16,448.703 502.36,448.703 502.36,441.976 497.16,441.976 497.16,434.849 502.36,434.849 502.36,428.122 497.16,428.122 497.16,420.994 502.36,420.994 502.36,414.067 514.007,414.067 514.007,419.267 530.455,419.267 530.455,414.067 547.302,414.067 547.302,419.267 563.749,419.267 563.749,414.067 580.596,414.067 580.596,419.267 597.044,419.267 597.044,414.067 613.891,414.067 613.891,419.267 630.338,419.267 630.338,414.267 617.354,414.267 603.031,399.944 605.239,394.614 605.239,400.217 613.03,400.217 613.03,395.017 621.221,395.017 621.221,400.217 629.011,400.217 629.011,395.017 637.202,395.017 637.202,400.217 644.993,400.217 644.993,395.017 653.184,395.017 653.184,400.217 660.975,400.217 660.975,394.875 674.645,408.545 674.645,414.067 680.48,414.067 680.48,419.414 588.72,495.78 588.72,490.467 580.596,490.467 580.596,495.667 572.073,495.667 572.073,490.467 563.949,490.467 563.949,495.667 555.425,495.667 555.425,490.467 547.302,490.467 547.302,495.667 538.778,495.667 538.778,490.467 530.655,490.467 530.655,495.667 522.131,495.667 522.131,490.467 514.007,490.467 514.007,495.667" fill="none" stroke="black" stroke-width="0.1mm" />
<polyline z="0" points="647.185,419.267 647.185,414.267 663.633,414.267 663.633,419.267 647.185,419.267" fill="none" stroke="black" stroke-width="0.1mm" />
<polyline z="0" points="614.32,394.614 502.36,394.614 502.36,377.967 497.16,377.967 497.16,361.119 502.36,361.119 502.36,344.672 497.16,344.672 497.16,327.825 502.36,327.825 502.36,311.378 497.16,311.378 497.16,294.53 502.36,294.53 502.36,278.083 497.16,278.083 497.16,261.236 502.36,261.236 502.36,244.789 497.16,244.789 497.16,227.941 502.36,227.941 502.36,216.494 512.52,216.494 512.52,211.294 522.88,211.294 522.88,216.494 532.84,216.494 532.84,211.294 543.2,211.294 543.2,216.494 553.16,216.494 553.16,211.294 563.52,211.294 563.52,216.494 573.48,216.494 573.48,211.294 583.84,211.294 583.84,216.494 593.8,216.494 593.8,211.294 604.16,211.294 604.16,216.494 614.32,216.494 614.32,227.941 619.52,227.941 619.52,244.789 614.32,244.789 614.32,261.236 619.52,261.236 619.52,278.083 614.32,278.083 614.32,294.53 619.52,294.53 619.52,311.378 614.32,311.378 614.32,327.825 619.52,327.825 619.52,344.672 614.32,344.672 614.32,361.119 619.52,361.119 619.52,377.967 614.32,377.967 614.32,394.614" fill="none" stroke="black" stroke-width="0.1mm" />
<polyline z="0" points="619.52,505.94 635.08,505.94 635.08,511.14 645.04,511.14 645.04,505.94 655.4,505.94 655.4,511.14 665.36,511.14 665.36,505.94 675.72,505.94 675.72,511.14 685.68,511.14 685.68,505.94 696.04,505.94 696.04,511.14 706,511.14 706,505.94 716.36,505.94 716.36,511.14 726.32,511.14 726.32,505.94 741.88,505.94 741.88,513.067 736.68,513.067 736.68,519.795 741.88,519.795 741.88,526.922 736.68,526.922 736.68,533.649 741.88,533.649 741.88,540.776 736.68,540.776 736.68,547.504 741.88,547.504 741.88,554.631 736.68,554.631 736.68,561.358 741.88,561.358 741.88,568.485 736.68,568.485 736.68,575.213 741.88,575.213 741.88,587.54 730.575,587.54 730.575,582.34 719.669,582.34 719.669,587.54 708.364,587.54 708.364,582.34 697.458,582.34 697.458,587.54 686.153,587.54 686.153,582.34 675.247,582.34 675.247,587.54 663.942,587.54 663.942,582.34 653.036,582.34 653.036,587.54 641.731,587.54 641.731,582.34 630.825,582.34 630.825,587.54 619.52,587.54 619.52,575.213 624.72,575.213 624.72,568.485 619.52,568.485 619.52,561.358 624.72,561.358 624.72,554.631 619.52,554.631 619.52,547.504 624.72,547.504 624.72,540.776 619.52,540.776 619.52,533.649 624.72,533.649 624.72,526.922 619.52,526.922 619.52,519.795 624.72,519.795 624.72,513.067 619.52,513.067 619.52,505.94" fill="none" stroke="black" stroke-width="0.1mm" />
<polyline z="0" points="680.48,632.57 802.84,632.57 802.84,640.761 797.64,640.761 797.64,648.552 802.84,648.552 802.84,656.743 797.64,656.743 797.64,664.533 802.84,664.533 802.84,672.724 797.64,672.724 797.64,680.515 802.84,680.515 802.84,688.706 680.48,688.706 680.48,680.515 685.68,680.515 685.68,672.724 680.48,672.724 680.48,664.533 685.68,664.533 685.68,656.743 680.48,656.743 680.48,648.552 685.68,648.552 685.68,640.761 680.48,640.761 680.48,632.57" fill="none" stroke="black" stroke-width="0.1mm" />
</svg>