<?xml version="1.0" standalone="no"?>
<!DOCTYPE svg PUBLIC "-//W3C//DTD SVG 1.1//EN" "http://www.w3.org/Graphics/SVG/1.1/DTD/svg11.dtd">
<svg width="1300mm" height="900mm" viewBox="0 0 1300 900" xmlns="http://www.w3.org/2000/svg" version="1.1">
<polyline z="0" points="471.76,599.849 471.76,592.298 476.96,592.298 476.96,585.147 471.76,585.147 471.76,577.596 476.96,577.596 476.96,570.445 471.76,570.445 471.76,562.893 476.96,562.893 476.96,555.742 471.76,555.742 471.76,548.191 476.96,548.191 476.96,541.04 471.76,541.04 471.76,533.489 492.4,533.489 492.4,538.689 507.44,538.689 507.44,533.489 522.88,533.489 522.88,538.689 537.92,538.689 537.92,533.489 553.36,533.489 553.36,538.689 568.4,538.689 568.4,533.489 583.84,533.489 583.84,538.689 598.88,538.689 598.88,533.489 614.32,533.489 614.32,538.689 629.36,538.689 629.36,533.489 650,533.489 650,541.04 644.8,541.04 644.8,548.191 650,548.191 650,555.742 644.8,555.742 644.8,562.893 650,562.893 650,570.445 644.8,570.445 644.8,577.596 650,577.596 650,585.147 644.8,585.147 644.8,592.298 650,592.298 650,599.849 634.261,599.849 626.686,592.983 618.51,586.919 609.779,581.686 600.577,577.333 590.992,573.904 581.117,571.431 571.047,569.936 560.88,569.437 550.713,569.936 540.643,571.431 530.768,573.904 521.183,577.333 511.981,581.686 503.25,586.919 495.074,592.983 487.499,599.849 471.76,599.849" fill="none" stroke="black" stroke-width="0.1mm" />
<polyline z="0" points="538.12,533.489 471.76,457.058 471.76,432.671 473.856,432.671 473.856,437.871 481.647,437.871 481.647,432.671 489.838,432.671 489.838,437.871 497.629,437.871 497.629,432.671 505.819,432.671 505.819,437.871 513.61,437.871 513.61,432.671 521.768,432.671 523.809,437.599 509.486,451.921 506.629,451.921 506.629,456.921 517.985,456.921 517.985,451.721 529.742,451.721 529.742,456.921 541.098,456.921 541.098,451.721 552.855,451.721 552.855,456.921 564.211,456.921 564.211,451.721 575.967,451.721 575.967,456.921 587.324,456.921 587.324,451.721 604.28,451.721 604.28,459.321 599.08,459.321 599.08,466.521 604.28,466.521 604.28,474.121 599.08,474.121 599.08,481.321 604.28,481.321 604.28,488.921 599.08,488.921 599.08,496.121 604.28,496.121 604.28,503.721 599.08,503.721 599.08,510.921 604.28,510.921 604.28,518.521 599.08,518.521 599.08,525.721 604.28,525.721 604.28,528.121 596.929,528.121 596.929,533.321 589.378,533.321 589.378,528.121 582.227,528.121 582.227,533.321 574.676,533.321 574.676,528.121 567.524,528.121 567.524,533.321 559.973,533.321 559.973,528.121 552.822,528.121 552.822,533.321 545.271,533.321 545.271,528.121 538.12,528.121 538.12,533.489" fill="none" stroke="black" stroke-width="0.1mm" />
<polyline z="0" points="494.873,456.921 483.516,456.921 483.516,451.921 494.873,451.921 494.873,456.921" fill="none" stroke="black" stroke-width="0.1mm" />
<polyline z="0" points="476.96,432.671 476.96,421.115 471.76,421.115 471.76,409.358 476.96,409.358 476.96,398.002 471.76,398.002 471.76,386.246 476.96,386.246 476.96,374.889 471.76,374.889 471.76,363.133 476.96,363.133 476.96,351.776 471.76,351.776 471.76,340.02 476.96,340.02 476.96,328.664 471.76,328.664 471.76,316.907 476.96,316.907 476.96,305.351 487.945,305.351 487.945,300.151 504.331,300.151 504.331,305.351 520.316,305.351 520.316,300.151 536.702,300.151 536.702,305.351 552.687,305.351 552.687,300.151 569.073,300.151 569.073,305.351 585.058,305.351 585.058,300.151 601.444,300.151 601.444,305.351 617.429,305.351 617.429,300.151 633.815,300.151 633.815,305.351 644.8,305.351 644.8,316.907 650,316.907 650,328.664 644.8,328.664 644.8,340.02 650,340.02 650,351.776 644.8,351.776 644.8,363.133 650,363.133 650,374.889 644.8,374.889 644.8,386.246 650,386.246 650,398.002 644.8,398.002 644.8,409.358 650,409.358 650,421.115 644.8,421.115 644.8,432.671 476.96,432.671" fill="none" stroke="black" stroke-width="0.1mm" />
<polyline z="0" points="604.28,459.289 609.48,459.289 609.48,451.889 620.665,451.889 620.665,457.089 636.651,457.089 636.651,451.889 653.036,451.889 653.036,457.089 669.022,457.089 669.022,451.889 685.407,451.889 685.407,457.089 701.393,457.089 701.393,451.889 717.778,451.889 717.778,457.089 733.764,457.089 733.764,451.889 750.149,451.889 750.149,457.089 766.135,457.089 766.135,451.889 777.32,451.889 777.32,459.289 782.52,459.289 782.52,466.889 777.32,466.889 777.32,474.089 782.52,474.089 782.52,481.689 777.32,481.689 777.32,488.889 782.52,488.889 782.52,496.489 777.32,496.489 777.32,503.689 782.52,503.689 782.52,511.289 777.32,511.289 777.32,518.489 782.52,518.489 782.52,526.089 777.32,526.089 777.32,528.289 762.08,528.289 762.08,533.489 746.64,533.489 746.64,528.289 731.6,528.289 731.6,533.489 716.16,533.489 716.16,528.289 701.12,528.289 701.12,533.489 685.68,533.489 685.68,528.289 670.64,528.289 670.64,533.489 655.2,533.489 655.2,528.289 640.16,528.289 640.16,533.489 624.72,533.489 624.72,528.289 609.48,528.289 609.48,526.089 604.28,526.089 604.28,518.489 609.48,518.489 609.48,511.289 604.28,511.289 604.28,503.689 609.48,503.689 609.48,496.489 604.28,496.489 604.28,488.889 609.48,488.889 609.48,481.689 604.28,481.689 604.28,474.089 609.48,474.089 609.48,466.889 604.28,466.889 604.28,459.289" fill="none" stroke="black" stroke-width="0.1mm" />
<polyline z="0" points="650,427.303 650,424.903 655.2,424.903 655.2,417.703 650,417.703 650,410.103 655.2,410.103 655.2,402.903 650,402.903 650,395.303 655.2,395.303 655.2,388.103 650,388.103 650,380.503 655.2,380.503 655.2,373.303 650,373.303 650,365.703 655.2,365.703 655.2,358.503 650,358.503 650,350.903 666.956,350.903 666.956,356.103 678.313,356.103 678.313,350.903 690.069,350.903 690.069,356.103 701.425,356.103 701.425,350.903 713.182,350.903 713.182,356.103 724.538,356.103 724.538,350.903 736.295,350.903 736.295,356.103 747.651,356.103 747.651,351.103 744.794,351.103 730.471,336.781 732.512,331.853 740.67,331.853 740.67,337.053 748.461,337.053 748.461,331.853 756.651,331.853 756.651,337.053 764.442,337.053 764.442,331.853 772.633,331.853 772.633,337.053 780.424,337.053 780.424,331.853 782.52,331.853 782.52,356.241 716.16,432.671 716.16,427.303 709.009,427.303 709.009,432.503 701.458,432.503 701.458,427.303 694.307,427.303 694.307,432.503 686.756,432.503 686.756,427.303 679.604,427.303 679.604,432.503 672.053,432.503 672.053,427.303 664.902,427.303 664.902,432.503 657.351,432.503 657.351,427.303 650,427.303" fill="none" stroke="black" stroke-width="0.1mm" />
<polyline z="0" points="759.407,356.103 759.407,351.103 770.764,351.103 770.764,356.103 759.407,356.103" fill="none" stroke="black" stroke-width="0.1mm" />
<polyline z="0" points="823.04,549.809 823.04,557.799 828.24,557.799 828.24,565.99 823.04,565.99 823.04,573.781 828.24,573.781 828.24,581.972 823.04,581.972 823.04,589.762 828.24,589.762 828.24,597.953 823.04,597.953 823.04,599.849 655.2,599.849 655.2,597.953 650,597.953 650,589.762 655.2,589.762 655.2,581.972 650,581.972 650,573.781 655.2,573.781 655.2,565.99 650,565.99 650,557.799 655.2,557.799 655.2,549.809 823.04,549.809" fill="none" stroke="black" stroke-width="0.1mm" />
</svg>