<?xml version="1.0" standalone="no"?>
<!DOCTYPE svg PUBLIC "-//W3C//DTD SVG 1.1//EN" "http://www.w3.org/Graphics/SVG/1.1/DTD/svg11.dtd">
<svg width="1300mm" height="900mm" viewBox="0 0 1300 900" xmlns="http://www.w3.org/2000/svg" version="1.1">
<polyline z="0" points="390.6,620.006 390.6,606.871 395.8,606.871 395.8,594.135 390.6,594.135 390.6,581 655.2,581 655.2,594.135 650,594.135 650,606.871 655.2,606.871 655.2,620.006 637.573,620.006 637.573,625.206 619.747,625.206 619.747,620.006 602.32,620.006 602.32,625.206 584.493,625.206 584.493,620.006 567.067,620.006 567.067,625.206 549.24,625.206 549.24,620.006 531.813,620.006 531.813,625.206 513.987,625.206 513.987,620.006 496.56,620.006 496.56,625.206 478.733,625.206 478.733,620.006 461.307,620.006 461.307,625.206 443.48,625.206 443.48,620.006 426.053,620.006 426.053,625.206 408.227,625.206 408.227,620.006 390.6,620.006" fill="none" stroke="black" stroke-width="0.1mm" />
<polyline z="0" points="390.6,581 390.6,569.914 395.8,569.914 395.8,559.229 390.6,559.229 390.6,548.143 395.8,548.143 395.8,537.457 390.6,537.457 390.6,526.371 395.8,526.371 395.8,515.686 390.6,515.686 390.6,504.6 655.2,504.6 655.2,515.686 650,515.686 650,526.371 655.2,526.371 655.2,537.457 650,537.457 650,548.143 655.2,548.143 655.2,559.229 650,559.229 650,569.914 655.2,569.914 655.2,581 390.6,581" fill="none" stroke="black" stroke-width="0.1mm" />
<polyline z="0" points="395.8,504.6 395.8,491.9 390.6,491.9 390.6,479 395.8,479 395.8,466.5 390.6,466.5 390.6,453.6 395.8,453.6 395.8,441.1 390.6,441.1 390.6,428.2 395.8,428.2 395.8,415.7 390.6,415.7 390.6,402.8 395.8,402.8 395.8,395.3 408.735,395.3 408.735,390.1 421.871,390.1 421.871,395.3 434.606,395.3 434.606,389.697 436.814,395.027 422.55,409.291 422.55,414.35 433.236,414.35 433.236,409.15 444.321,409.15 444.321,414.35 455.007,414.35 455.007,409.15 466.093,409.15 466.093,414.35 476.779,414.35 476.779,409.15 487.864,409.15 487.864,414.35 498.878,414.35 415.944,504.6 395.8,504.6" fill="none" stroke="black" stroke-width="0.1mm" />
<polyline z="0" points="498.878,504.6 498.878,491.7 504.078,491.7 504.078,479.2 498.878,479.2 498.878,466.3 504.078,466.3 504.078,453.8 498.878,453.8 498.878,440.9 504.078,440.9 504.078,428.4 498.878,428.4 498.878,415.5 504.078,415.5 504.078,403 498.878,403 498.878,390.1 516.705,390.1 516.705,395.3 534.131,395.3 534.131,390.1 551.958,390.1 551.958,395.3 569.385,395.3 569.385,390.1 587.211,390.1 587.211,395.3 604.638,395.3 604.638,390.1 622.465,390.1 622.465,395.3 639.891,395.3 639.891,390.1 657.718,390.1 657.718,395.3 675.145,395.3 675.145,390.1 692.971,390.1 692.971,395.3 710.398,395.3 710.398,390.1 728.225,390.1 728.225,395.3 745.651,395.3 745.651,390.1 763.478,390.1 763.478,403 758.278,403 758.278,415.5 763.478,415.5 763.478,428.4 758.278,428.4 758.278,440.9 763.478,440.9 763.478,453.8 758.278,453.8 758.278,466.3 763.478,466.3 763.478,479.2 758.278,479.2 758.278,491.7 763.478,491.7 763.478,504.6 745.651,504.6 745.651,499.4 728.225,499.4 728.225,504.6 710.398,504.6 710.398,499.4 692.971,499.4 692.971,504.6 675.145,504.6 675.145,499.4 657.718,499.4 657.718,504.6 639.891,504.6 639.891,499.4 622.465,499.4 622.465,504.6 604.638,504.6 604.638,499.4 587.211,499.4 587.211,504.6 569.385,504.6 569.385,499.4 551.958,499.4 551.958,504.6 534.131,504.6 534.131,499.4 516.705,499.4 516.705,504.6 498.878,504.6" fill="none" stroke="black" stroke-width="0.1mm" />
<polyline z="0" points="722.32,428.78 724.762,424.55 729.647,424.55 732.089,428.78 729.647,433.01 724.762,433.01 722.32,428.78" fill="none" stroke="black" stroke-width="0.1mm" />
<polyline z="0" points="708.082,428.78 705.64,433.01 700.755,433.01 698.313,428.78 700.755,424.55 705.64,424.55 708.082,428.78" fill="none" stroke="black" stroke-width="0.1mm" />
<polyline z="0" points="684.075,428.78 681.633,433.01 676.748,433.01 674.306,428.78 676.748,424.55 681.633,424.55 684.075,428.78" fill="none" stroke="black" stroke-width="0.1mm" />
<polyline z="0" points="660.069,428.78 657.627,433.01 652.742,433.01 650.3,428.78 652.742,424.55 657.627,424.55 660.069,428.78" fill="none" stroke="black" stroke-width="0.1mm" />
<polyline z="0" points="636.062,428.78 633.62,433.01 628.735,433.01 626.293,428.78 628.735,424.55 633.62,424.55 636.062,428.78" fill="none" stroke="black" stroke-width="0.1mm" />
<polyline z="0" points="612.055,428.78 609.613,433.01 604.728,433.01 602.286,428.78 604.728,424.55 609.613,424.55 612.055,428.78" fill="none" stroke="black" stroke-width="0.1mm" />
<polyline z="0" points="588.049,428.78 585.607,433.01 580.722,433.01 578.28,428.78 580.722,424.55 585.607,424.55 588.049,428.78" fill="none" stroke="black" stroke-width="0.1mm" />
<polyline z="0" points="564.042,428.78 561.6,433.01 556.715,433.01 554.273,428.78 556.715,424.55 561.6,424.55 564.042,428.78" fill="none" stroke="black" stroke-width="0.1mm" />
<polyline z="0" points="540.035,428.78 537.593,433.01 532.708,433.01 530.266,428.78 532.708,424.55 537.593,424.55 540.035,428.78" fill="none" stroke="black" stroke-width="0.1mm" />
<polyline z="0" points="710.316,435.71 712.758,431.48 717.643,431.48 720.085,435.71 717.643,439.94 712.758,439.94 710.316,435.71" fill="none" stroke="black" stroke-width="0.1mm" />
<polyline z="0" points="696.079,435.71 693.637,439.94 688.752,439.94 686.31,435.71 688.752,431.48 693.637,431.48 696.079,435.71" fill="none" stroke="black" stroke-width="0.1mm" />
<polyline z="0" points="672.072,435.71 669.63,439.94 664.745,439.94 662.303,435.71 664.745,431.48 669.63,431.48 672.072,435.71" fill="none" stroke="black" stroke-width="0.1mm" />
<polyline z="0" points="648.065,435.71 645.623,439.94 640.738,439.94 638.296,435.71 640.738,431.48 645.623,431.48 648.065,435.71" fill="none" stroke="black" stroke-width="0.1mm" />
<polyline z="0" points="624.059,435.71 621.617,439.94 616.732,439.94 614.29,435.71 616.732,431.48 621.617,431.48 624.059,435.71" fill="none" stroke="black" stroke-width="0.1mm" />
<polyline z="0" points="600.052,435.71 597.61,439.94 592.725,439.94 590.283,435.71 592.725,431.48 597.61,431.48 600.052,435.71" fill="none" stroke="black" stroke-width="0.1mm" />
<polyline z="0" points="576.045,435.71 573.603,439.94 568.718,439.94 566.276,435.71 568.718,431.48 573.603,431.48 576.045,435.71" fill="none" stroke="black" stroke-width="0.1mm" />
<polyline z="0" points="552.039,435.71 549.597,439.94 544.712,439.94 542.27,435.71 544.712,431.48 549.597,431.48 552.039,435.71" fill="none" stroke="black" stroke-width="0.1mm" />
<polyline z="0" points="722.32,442.64 724.762,438.41 729.647,438.41 732.089,442.64 729.647,446.871 724.762,446.871 722.32,442.64" fill="none" stroke="black" stroke-width="0.1mm" />
<polyline z="0" points="708.082,442.64 705.64,446.871 700.755,446.871 698.313,442.64 700.755,438.41 705.64,438.41 708.082,442.64" fill="none" stroke="black" stroke-width="0.1mm" />
<polyline z="0" points="684.075,442.64 681.633,446.871 676.748,446.871 674.306,442.64 676.748,438.41 681.633,438.41 684.075,442.64" fill="none" stroke="black" stroke-width="0.1mm" />
<polyline z="0" points="660.069,442.64 657.627,446.871 652.742,446.871 650.3,442.64 652.742,438.41 657.627,438.41 660.069,442.64" fill="none" stroke="black" stroke-width="0.1mm" />
<polyline z="0" points="636.062,442.64 633.62,446.871 628.735,446.871 626.293,442.64 628.735,438.41 633.62,438.41 636.062,442.64" fill="none" stroke="black" stroke-width="0.1mm" />
<polyline z="0" points="612.055,442.64 609.613,446.871 604.728,446.871 602.286,442.64 604.728,438.41 609.613,438.41 612.055,442.64" fill="none" stroke="black" stroke-width="0.1mm" />
<polyline z="0" points="588.049,442.64 585.607,446.871 580.722,446.871 578.28,442.64 580.722,438.41 585.607,438.41 588.049,442.64" fill="none" stroke="black" stroke-width="0.1mm" />
<polyline z="0" points="564.042,442.64 561.6,446.871 556.715,446.871 554.273,442.64 556.715,438.41 561.6,438.41 564.042,442.64" fill="none" stroke="black" stroke-width="0.1mm" />
<polyline z="0" points="540.035,442.64 537.593,446.871 532.708,446.871 530.266,442.64 532.708,438.41 537.593,438.41 540.035,442.64" fill="none" stroke="black" stroke-width="0.1mm" />
<polyline z="0" points="710.316,449.571 712.758,445.34 717.643,445.34 720.085,449.571 717.643,453.801 712.758,453.801 710.316,449.571" fill="none" stroke="black" stroke-width="0.1mm" />
<polyline z="0" points="696.079,449.571 693.637,453.801 688.752,453.801 686.31,449.571 688.752,445.34 693.637,445.34 696.079,449.571" fill="none" stroke="black" stroke-width="0.1mm" />
<polyline z="0" points="672.072,449.571 669.63,453.801 664.745,453.801 662.303,449.571 664.745,445.34 669.63,445.34 672.072,449.571" fill="none" stroke="black" stroke-width="0.1mm" />
<polyline z="0" points="648.065,449.571 645.623,453.801 640.738,453.801 638.296,449.571 640.738,445.34 645.623,445.34 648.065,449.571" fill="none" stroke="black" stroke-width="0.1mm" />
<polyline z="0" points="624.059,449.571 621.617,453.801 616.732,453.801 614.29,449.571 616.732,445.34 621.617,445.34 624.059,449.571" fill="none" stroke="black" stroke-width="0.1mm" />
<polyline z="0" points="600.052,449.571 597.61,453.801 592.725,453.801 590.283,449.571 592.725,445.34 597.61,445.34 600.052,449.571" fill="none" stroke="black" stroke-width="0.1mm" />
<polyline z="0" points="576.045,449.571 573.603,453.801 568.718,453.801 566.276,449.571 568.718,445.34 573.603,445.34 576.045,449.571" fill="none" stroke="black" stroke-width="0.1mm" />
<polyline z="0" points="552.039,449.571 549.597,453.801 544.712,453.801 542.27,449.571 544.712,445.34 549.597,445.34 552.039,449.571" fill="none" stroke="black" stroke-width="0.1mm" />
<polyline z="0" points="722.32,456.501 724.762,452.271 729.647,452.271 732.089,456.501 729.647,460.731 724.762,460.731 722.32,456.501" fill="none" stroke="black" stroke-width="0.1mm" />
<polyline z="0" points="708.082,456.501 705.64,460.731 700.755,460.731 698.313,456.501 700.755,452.271 705.64,452.271 708.082,456.501" fill="none" stroke="black" stroke-width="0.1mm" />
<polyline z="0" points="684.075,456.501 681.633,460.731 676.748,460.731 674.306,456.501 676.748,452.271 681.633,452.271 684.075,456.501" fill="none" stroke="black" stroke-width="0.1mm" />
<polyline z="0" points="660.069,456.501 657.627,460.731 652.742,460.731 650.3,456.501 652.742,452.271 657.627,452.271 660.069,456.501" fill="none" stroke="black" stroke-width="0.1mm" />
<polyline z="0" points="636.062,456.501 633.62,460.731 628.735,460.731 626.293,456.501 628.735,452.271 633.62,452.271 636.062,456.501" fill="none" stroke="black" stroke-width="0.1mm" />
<polyline z="0" points="612.055,456.501 609.613,460.731 604.728,460.731 602.286,456.501 604.728,452.271 609.613,452.271 612.055,456.501" fill="none" stroke="black" stroke-width="0.1mm" />
<polyline z="0" points="588.049,456.501 585.607,460.731 580.722,460.731 578.28,456.501 580.722,452.271 585.607,452.271 588.049,456.501" fill="none" stroke="black" stroke-width="0.1mm" />
<polyline z="0" points="564.042,456.501 561.6,460.731 556.715,460.731 554.273,456.501 556.715,452.271 561.6,452.271 564.042,456.501" fill="none" stroke="black" stroke-width="0.1mm" />
<polyline z="0" points="540.035,456.501 537.593,460.731 532.708,460.731 530.266,456.501 532.708,452.271 537.593,452.271 540.035,456.501" fill="none" stroke="black" stroke-width="0.1mm" />
<polyline z="0" points="710.316,463.431 712.758,459.201 717.643,459.201 720.085,463.431 717.643,467.661 712.758,467.661 710.316,463.431" fill="none" stroke="black" stroke-width="0.1mm" />
<polyline z="0" points="696.079,463.431 693.637,467.661 688.752,467.661 686.31,463.431 688.752,459.201 693.637,459.201 696.079,463.431" fill="none" stroke="black" stroke-width="0.1mm" />
<polyline z="0" points="672.072,463.431 669.63,467.661 664.745,467.661 662.303,463.431 664.745,459.201 669.63,459.201 672.072,463.431" fill="none" stroke="black" stroke-width="0.1mm" />
<polyline z="0" points="648.065,463.431 645.623,467.661 640.738,467.661 638.296,463.431 640.738,459.201 645.623,459.201 648.065,463.431" fill="none" stroke="black" stroke-width="0.1mm" />
<polyline z="0" points="624.059,463.431 621.617,467.661 616.732,467.661 614.29,463.431 616.732,459.201 621.617,459.201 624.059,463.431" fill="none" stroke="black" stroke-width="0.1mm" />
<polyline z="0" points="600.052,463.431 597.61,467.661 592.725,467.661 590.283,463.431 592.725,459.201 597.61,459.201 600.052,463.431" fill="none" stroke="black" stroke-width="0.1mm" />
<polyline z="0" points="576.045,463.431 573.603,467.661 568.718,467.661 566.276,463.431 568.718,459.201 573.603,459.201 576.045,463.431" fill="none" stroke="black" stroke-width="0.1mm" />
<polyline z="0" points="552.039,463.431 549.597,467.661 544.712,467.661 542.27,463.431 544.712,459.201 549.597,459.201 552.039,463.431" fill="none" stroke="black" stroke-width="0.1mm" />
<polyline z="0" points="722.32,470.361 724.762,466.131 729.647,466.131 732.089,470.361 729.647,474.591 724.762,474.591 722.32,470.361" fill="none" stroke="black" stroke-width="0.1mm" />
<polyline z="0" points="708.082,470.361 705.64,474.591 700.755,474.591 698.313,470.361 700.755,466.131 705.64,466.131 708.082,470.361" fill="none" stroke="black" stroke-width="0.1mm" />
<polyline z="0" points="684.075,470.361 681.633,474.591 676.748,474.591 674.306,470.361 676.748,466.131 681.633,466.131 684.075,470.361" fill="none" stroke="black" stroke-width="0.1mm" />
<polyline z="0" points="660.069,470.361 657.627,474.591 652.742,474.591 650.3,470.361 652.742,466.131 657.627,466.131 660.069,470.361" fill="none" stroke="black" stroke-width="0.1mm" />
<polyline z="0" points="636.062,470.361 633.62,474.591 628.735,474.591 626.293,470.361 628.735,466.131 633.62,466.131 636.062,470.361" fill="none" stroke="black" stroke-width="0.1mm" />
<polyline z="0" points="612.055,470.361 609.613,474.591 604.728,474.591 602.286,470.361 604.728,466.131 609.613,466.131 612.055,470.361" fill="none" stroke="black" stroke-width="0.1mm" />
<polyline z="0" points="588.049,470.361 585.607,474.591 580.722,474.591 578.28,470.361 580.722,466.131 585.607,466.131 588.049,470.361" fill="none" stroke="black" stroke-width="0.1mm" />
<polyline z="0" points="564.042,470.361 561.6,474.591 556.715,474.591 554.273,470.361 556.715,466.131 561.6,466.131 564.042,470.361" fill="none" stroke="black" stroke-width="0.1mm" />
<polyline z="0" points="540.035,470.361 537.593,474.591 532.708,474.591 530.266,470.361 532.708,466.131 537.593,466.131 540.035,470.361" fill="none" stroke="black" stroke-width="0.1mm" />
<polyline z="0" points="710.316,477.291 712.758,473.061 717.643,473.061 720.085,477.291 717.643,481.521 712.758,481.521 710.316,477.291" fill="none" stroke="black" stroke-width="0.1mm" />
<polyline z="0" points="696.079,477.291 693.637,481.521 688.752,481.521 686.31,477.291 688.752,473.061 693.637,473.061 696.079,477.291" fill="none" stroke="black" stroke-width="0.1mm" />
<polyline z="0" points="672.072,477.291 669.63,481.521 664.745,481.521 662.303,477.291 664.745,473.061 669.63,473.061 672.072,477.291" fill="none" stroke="black" stroke-width="0.1mm" />
<polyline z="0" points="648.065,477.291 645.623,481.521 640.738,481.521 638.296,477.291 640.738,473.061 645.623,473.061 648.065,477.291" fill="none" stroke="black" stroke-width="0.1mm" />
<polyline z="0" points="624.059,477.291 621.617,481.521 616.732,481.521 614.29,477.291 616.732,473.061 621.617,473.061 624.059,477.291" fill="none" stroke="black" stroke-width="0.1mm" />
<polyline z="0" points="600.052,477.291 597.61,481.521 592.725,481.521 590.283,477.291 592.725,473.061 597.61,473.061 600.052,477.291" fill="none" stroke="black" stroke-width="0.1mm" />
<polyline z="0" points="576.045,477.291 573.603,481.521 568.718,481.521 566.276,477.291 568.718,473.061 573.603,473.061 576.045,477.291" fill="none" stroke="black" stroke-width="0.1mm" />
<polyline z="0" points="552.039,477.291 549.597,481.521 544.712,481.521 542.27,477.291 544.712,473.061 549.597,473.061 552.039,477.291" fill="none" stroke="black" stroke-width="0.1mm" />
<polyline z="0" points="493.678,389.697 473.534,389.697 390.6,299.447 401.614,299.447 401.614,294.247 412.699,294.247 412.699,299.447 423.385,299.447 423.385,294.247 434.471,294.247 434.471,299.447 445.157,299.447 445.157,294.247 456.242,294.247 456.242,299.447 466.928,299.447 466.928,294.388 452.664,280.124 454.872,274.794 454.872,280.397 467.607,280.397 467.607,275.197 480.743,275.197 480.743,280.397 493.678,280.397 493.678,287.897 498.878,287.897 498.878,300.797 493.678,300.797 493.678,313.297 498.878,313.297 498.878,326.197 493.678,326.197 493.678,338.697 498.878,338.697 498.878,351.597 493.678,351.597 493.678,364.097 498.878,364.097 498.878,376.997 493.678,376.997 493.678,389.697" fill="none" stroke="black" stroke-width="0.1mm" />
<polyline z="0" points="655.2,599.806 909.4,599.806 909.4,620.006 896.973,620.006 896.973,625.206 879.147,625.206 879.147,620.006 861.72,620.006 861.72,625.206 843.893,625.206 843.893,620.006 826.467,620.006 826.467,625.206 808.64,625.206 808.64,620.006 791.213,620.006 791.213,625.206 773.387,625.206 773.387,620.006 755.96,620.006 755.96,625.206 738.133,625.206 738.133,620.006 720.707,620.006 720.707,625.206 702.88,625.206 702.88,620.006 685.453,620.006 685.453,625.206 667.627,625.206 667.627,620.006 655.2,620.006 655.2,599.806" fill="none" stroke="black" stroke-width="0.1mm" />
</svg>