<?xml version="1.0" standalone="no"?>
<!DOCTYPE svg PUBLIC "-//W3C//DTD SVG 1.1//EN" "http://www.w3.org/Graphics/SVG/1.1/DTD/svg11.dtd">
<svg width="1300mm" height="900mm" viewBox="0 0 1300 900" xmlns="http://www.w3.org/2000/svg" version="1.1">
<polyline z="0" points="394.725,647.05 394.725,629.155 389.525,629.155 389.525,611.059 394.725,611.059 394.725,593.364 389.525,593.364 389.525,575.268 394.725,575.268 394.725,557.573 389.525,557.573 389.525,539.477 394.725,539.477 394.725,521.782 389.525,521.782 389.525,503.686 394.725,503.686 394.725,485.991 389.525,485.991 389.525,467.895 394.725,467.895 394.725,450 407.86,450 407.86,455.2 420.596,455.2 420.596,450 433.698,450 435.739,454.927 421.616,469.05 432.361,469.05 432.361,474.25 443.046,474.25 443.046,469.05 454.132,469.05 454.132,474.25 464.818,474.25 464.818,469.05 475.904,469.05 475.904,474.25 486.589,474.25 486.589,469.05 497.675,469.05 497.675,474.375 404.885,647.05 394.725,647.05" fill="none" stroke="black" stroke-width="0.1mm" />
<polyline z="0" points="497.675,647.05 497.675,628.955 502.875,628.955 502.875,611.259 497.675,611.259 497.675,593.164 502.875,593.164 502.875,575.468 497.675,575.468 497.675,557.373 502.875,557.373 502.875,539.677 497.675,539.677 497.675,521.582 502.875,521.582 502.875,503.886 497.675,503.886 497.675,485.791 502.875,485.791 502.875,468.095 497.675,468.095 497.675,450 513.142,450 513.142,455.2 528.208,455.2 528.208,450 543.675,450 543.675,455.2 558.742,455.2 558.742,450 574.208,450 574.208,455.2 589.275,455.2 589.275,450 604.742,450 604.742,455.2 619.808,455.2 619.808,450 635.275,450 635.275,468.095 630.075,468.095 630.075,485.791 635.275,485.791 635.275,503.886 630.075,503.886 630.075,521.582 635.275,521.582 635.275,539.677 630.075,539.677 630.075,557.373 635.275,557.373 635.275,575.468 630.075,575.468 630.075,593.164 635.275,593.164 635.275,611.259 630.075,611.259 630.075,628.955 635.275,628.955 635.275,647.05 619.808,647.05 619.808,641.85 604.742,641.85 604.742,647.05 589.275,647.05 589.275,641.85 574.208,641.85 574.208,647.05 558.742,647.05 558.742,641.85 543.675,641.85 543.675,647.05 528.208,647.05 528.208,641.85 513.142,641.85 513.142,647.05 497.675,647.05" fill="none" stroke="black" stroke-width="0.1mm" />
<polyline z="0" points="635.275,641.85 635.275,631.65 762.475,631.65 762.475,641.85 752.408,641.85 752.408,647.05 736.942,647.05 736.942,641.85 721.875,641.85 721.875,647.05 706.408,647.05 706.408,641.85 691.342,641.85 691.342,647.05 675.875,647.05 675.875,641.85 660.808,641.85 660.808,647.05 645.342,647.05 645.342,641.85 635.275,641.85" fill="none" stroke="black" stroke-width="0.1mm" />
<polyline z="0" points="640.475,631.65 640.475,620.764 635.275,620.764 635.275,609.679 640.475,609.679 640.475,598.993 635.275,598.993 635.275,587.907 640.475,587.907 640.475,577.221 635.275,577.221 635.275,566.136 640.475,566.136 640.475,555.25 767.675,555.25 767.675,566.136 772.875,566.136 772.875,577.221 767.675,577.221 767.675,587.907 772.875,587.907 772.875,598.993 767.675,598.993 767.675,609.679 772.875,609.679 772.875,620.764 767.675,620.764 767.675,631.65 640.475,631.65" fill="none" stroke="black" stroke-width="0.1mm" />
<polyline z="0" points="772.875,613.515 772.875,600.379 778.075,600.379 778.075,587.444 905.275,587.444 905.275,600.379 910.475,600.379 910.475,613.515 905.275,613.515 905.275,626.45 895.208,626.45 895.208,631.65 879.742,631.65 879.742,626.45 864.675,626.45 864.675,631.65 849.208,631.65 849.208,626.45 834.142,626.45 834.142,631.65 818.675,631.65 818.675,626.45 803.608,626.45 803.608,631.65 788.142,631.65 788.142,626.45 778.075,626.45 778.075,613.515 772.875,613.515" fill="none" stroke="black" stroke-width="0.1mm" />
<polyline z="0" points="492.475,450 482.315,450 389.525,277.325 389.525,272 400.611,272 400.611,277.2 411.296,277.2 411.296,272 422.382,272 422.382,277.2 433.068,277.2 433.068,272 444.154,272 444.154,277.2 454.839,277.2 454.839,272 465.584,272 451.461,257.877 453.502,252.95 466.604,252.95 466.604,258.15 479.34,258.15 479.34,252.95 492.475,252.95 492.475,270.845 497.675,270.845 497.675,288.941 492.475,288.941 492.475,306.636 497.675,306.636 497.675,324.732 492.475,324.732 492.475,342.427 497.675,342.427 497.675,360.523 492.475,360.523 492.475,378.218 497.675,378.218 497.675,396.314 492.475,396.314 492.475,414.009 497.675,414.009 497.675,432.105 492.475,432.105 492.475,450" fill="none" stroke="black" stroke-width="0.1mm" />
</svg>