<?xml version="1.0" encoding="UTF-8" standalone="no"?>
<svg
   width="1300mm"
   height="900mm"
   viewBox="0 0 1300 900"
   version="1.1"
   id="svg6"
   sodipodi:docname="Shelf15x4.25.svg"
   inkscape:version="1.3.2 (091e20ef0f, 2023-11-25)"
   xmlns:inkscape="http://www.inkscape.org/namespaces/inkscape"
   xmlns:sodipodi="http://sodipodi.sourceforge.net/DTD/sodipodi-0.dtd"
   xmlns="http://www.w3.org/2000/svg"
   xmlns:svg="http://www.w3.org/2000/svg">
  <defs
     id="defs6" />
  <sodipodi:namedview
     id="namedview6"
     pagecolor="#505050"
     bordercolor="#eeeeee"
     borderopacity="1"
     inkscape:showpageshadow="0"
     inkscape:pageopacity="0"
     inkscape:pagecheckerboard="0"
     inkscape:deskcolor="#505050"
     inkscape:document-units="mm"
     inkscape:zoom="0.16343109"
     inkscape:cx="2453.6335"
     inkscape:cy="1697.9633"
     inkscape:window-width="1920"
     inkscape:window-height="1011"
     inkscape:window-x="0"
     inkscape:window-y="32"
     inkscape:window-maximized="1"
     inkscape:current-layer="svg6" />
  <polyline
     z="0"
     points="438.856,585.101 345.925,482.151 356.936,482.151 356.936,476.951 368.021,476.951 368.021,482.151 378.707,482.151 378.707,476.951 389.793,476.951 389.793,482.151 400.479,482.151 400.479,476.951 411.564,476.951 411.564,482.151 422.25,482.151 422.25,477.093 407.986,462.829 410.194,457.499 410.194,463.101 422.929,463.101 422.929,457.901 436.065,457.901 436.065,463.101 449,463.101 449,472.012 454.2,472.012 454.2,486.323 449,486.323 449,500.234 454.2,500.234 454.2,514.545 449,514.545 449,528.457 454.2,528.457 454.2,542.768 449,542.768 449,556.679 454.2,556.679 454.2,570.99 449,570.99 449,585.101 438.856,585.101"
     fill="none"
     stroke="#000000"
     stroke-width="0.1mm"
     id="polyline1"
     transform="rotate(90,649.88191,450)"
     style="stroke-width:0.26458333;stroke-dasharray:none;vector-effect:non-scaling-stroke;-inkscape-stroke:hairline" />
  <polyline
     z="0"
     points="459.4,585.101 459.4,570.99 454.2,570.99 454.2,556.679 459.4,556.679 459.4,542.768 454.2,542.768 454.2,528.457 459.4,528.457 459.4,514.545 454.2,514.545 454.2,500.234 459.4,500.234 459.4,486.323 454.2,486.323 454.2,472.012 459.4,472.012 459.4,463.101 472.335,463.101 472.335,457.901 485.471,457.901 485.471,463.101 498.206,463.101 498.206,457.499 500.414,462.829 486.15,477.093 486.15,482.151 496.836,482.151 496.836,476.951 507.921,476.951 507.921,482.151 518.607,482.151 518.607,476.951 529.693,476.951 529.693,482.151 540.379,482.151 540.379,476.951 551.464,476.951 551.464,482.151 562.475,482.151 469.544,585.101 459.4,585.101"
     fill="none"
     stroke="#000000"
     stroke-width="0.1mm"
     id="polyline2"
     transform="rotate(90,649.88191,450)"
     style="stroke-width:0.26458333;stroke-dasharray:none;vector-effect:non-scaling-stroke;-inkscape-stroke:hairline" />
  <polyline
     z="0"
     points="562.475,585.101 562.475,574.015 567.675,574.015 567.675,563.33 562.475,563.33 562.475,552.244 567.675,552.244 567.675,541.558 562.475,541.558 562.475,530.472 567.675,530.472 567.675,519.787 562.475,519.787 562.475,508.701 954.075,508.701 954.075,519.787 948.875,519.787 948.875,530.472 954.075,530.472 954.075,541.558 948.875,541.558 948.875,552.244 954.075,552.244 954.075,563.33 948.875,563.33 948.875,574.015 954.075,574.015 954.075,585.101 562.475,585.101"
     fill="none"
     stroke="#000000"
     stroke-width="0.1mm"
     id="polyline3"
     transform="rotate(90,649.88191,450)"
     style="stroke-width:0.26458333;stroke-dasharray:none;vector-effect:non-scaling-stroke;-inkscape-stroke:hairline" />
  <polyline
     z="0"
     points="581.113,508.701 581.113,503.501 562.475,503.501 562.475,490.366 567.675,490.366 567.675,477.63 562.475,477.63 562.475,464.495 954.075,464.495 954.075,477.63 948.875,477.63 948.875,490.366 954.075,490.366 954.075,503.501 935.437,503.501 935.437,508.701 916.599,508.701 916.599,503.501 898.161,503.501 898.161,508.701 879.323,508.701 879.323,503.501 860.885,503.501 860.885,508.701 842.046,508.701 842.046,503.501 823.608,503.501 823.608,508.701 804.77,508.701 804.77,503.501 786.332,503.501 786.332,508.701 767.494,508.701 767.494,503.501 749.056,503.501 749.056,508.701 730.218,508.701 730.218,503.501 711.78,503.501 711.78,508.701 692.942,508.701 692.942,503.501 674.504,503.501 674.504,508.701 655.665,508.701 655.665,503.501 637.227,503.501 637.227,508.701 618.389,508.701 618.389,503.501 599.951,503.501 599.951,508.701 581.113,508.701"
     fill="none"
     stroke="#000000"
     stroke-width="0.1mm"
     id="polyline4"
     transform="rotate(90,649.88191,450)"
     style="stroke-width:0.26458333;stroke-dasharray:none;vector-effect:non-scaling-stroke;-inkscape-stroke:hairline" />
  <polyline
     z="0"
     points="583.02,457.499 583.02,452.299 564.582,452.299 564.582,457.499 545.744,457.499 545.744,452.299 527.306,452.299 527.306,457.499 508.468,457.499 508.468,452.299 490.03,452.299 490.03,457.499 471.192,457.499 471.192,452.299 452.754,452.299 452.754,457.499 433.915,457.499 433.915,452.299 415.477,452.299 415.477,457.499 396.639,457.499 396.639,452.299 378.201,452.299 378.201,457.499 359.363,457.499 359.363,452.299 345.925,452.299 345.925,442.099 727.125,442.099 727.125,452.299 713.687,452.299 713.687,457.499 694.849,457.499 694.849,452.299 676.411,452.299 676.411,457.499 657.573,457.499 657.573,452.299 639.135,452.299 639.135,457.499 620.296,457.499 620.296,452.299 601.858,452.299 601.858,457.499 583.02,457.499"
     fill="none"
     stroke="#000000"
     stroke-width="0.1mm"
     id="polyline5"
     transform="rotate(90,649.88191,450)"
     style="stroke-width:0.26458333;stroke-dasharray:none;vector-effect:non-scaling-stroke;-inkscape-stroke:hairline" />
  <polyline
     z="0"
     points="588.42,442.099 569.582,442.099 569.582,436.899 551.144,436.899 551.144,442.099 532.306,442.099 532.306,436.899 513.868,436.899 513.868,442.099 495.03,442.099 495.03,436.899 476.592,436.899 476.592,442.099 457.754,442.099 457.754,436.899 439.315,436.899 439.315,442.099 420.477,442.099 420.477,436.899 402.039,436.899 402.039,442.099 383.201,442.099 383.201,436.899 364.763,436.899 364.763,442.099 345.925,442.099 345.925,427.788 351.125,427.788 351.125,413.877 345.925,413.877 345.925,399.566 351.125,399.566 351.125,385.655 345.925,385.655 345.925,371.343 351.125,371.343 351.125,357.432 345.925,357.432 345.925,343.121 351.125,343.121 351.125,329.21 345.925,329.21 345.925,314.899 364.763,314.899 364.763,320.099 383.201,320.099 383.201,314.899 402.039,314.899 402.039,320.099 420.477,320.099 420.477,314.899 439.315,314.899 439.315,320.099 457.754,320.099 457.754,314.899 476.592,314.899 476.592,320.099 495.03,320.099 495.03,314.899 513.868,314.899 513.868,320.099 532.306,320.099 532.306,314.899 551.144,314.899 551.144,320.099 569.582,320.099 569.582,314.899 588.42,314.899 588.42,320.099 606.858,320.099 606.858,314.899 625.696,314.899 625.696,320.099 644.135,320.099 644.135,314.899 662.973,314.899 662.973,320.099 681.411,320.099 681.411,314.899 700.249,314.899 700.249,320.099 718.687,320.099 718.687,314.899 737.525,314.899 737.525,329.21 732.325,329.21 732.325,343.121 737.525,343.121 737.525,357.432 732.325,357.432 732.325,371.343 737.525,371.343 737.525,385.655 732.325,385.655 732.325,399.566 737.525,399.566 737.525,413.877 732.325,413.877 732.325,427.788 737.525,427.788 737.525,442.099 718.687,442.099 718.687,436.899 700.249,436.899 700.249,442.099 681.411,442.099 681.411,436.899 662.973,436.899 662.973,442.099 644.135,442.099 644.135,436.899 625.696,436.899 625.696,442.099 606.858,442.099 606.858,436.899 588.42,436.899 588.42,442.099"
     fill="none"
     stroke="#000000"
     stroke-width="0.1mm"
     id="polyline6"
     transform="rotate(90,649.88191,450)"
     style="stroke-width:0.26458333;stroke-dasharray:none;vector-effect:non-scaling-stroke;-inkscape-stroke:hairline" />
</svg>
