<?xml version="1.0" standalone="no"?>
<!DOCTYPE svg PUBLIC "-//W3C//DTD SVG 1.1//EN" "http://www.w3.org/Graphics/SVG/1.1/DTD/svg11.dtd">
<svg width="1300mm" height="900mm" viewBox="0 0 1300 900" xmlns="http://www.w3.org/2000/svg" version="1.1">
<polyline z="0" points="387.337,591.814 387.337,580.325 392.537,580.325 392.537,569.236 387.337,569.236 387.337,557.747 392.537,557.747 392.537,546.659 387.337,546.659 387.337,535.17 392.537,535.17 392.537,524.081 387.337,524.081 387.337,512.592 392.537,512.592 392.537,506.503 405.472,506.503 405.472,501.303 418.608,501.303 418.608,506.503 431.343,506.503 431.343,500.9 433.551,506.23 419.287,520.494 419.287,525.553 429.973,525.553 429.973,520.353 441.058,520.353 441.058,525.553 451.744,525.553 451.744,520.353 462.83,520.353 462.83,525.553 473.516,525.553 473.516,520.353 484.601,520.353 484.601,525.553 495.663,525.553 402.537,603.216 402.537,597.903 392.537,597.903 392.537,591.814 387.337,591.814" fill="none" stroke="black" stroke-width="0.1mm" />
<polyline z="0" points="387.337,500.9 387.337,489.411 392.537,489.411 392.537,478.322 387.337,478.322 387.337,466.833 392.537,466.833 392.537,455.744 387.337,455.744 387.337,444.256 392.537,444.256 392.537,433.167 387.337,433.167 387.337,421.678 392.537,421.678 392.537,410.589 387.337,410.589 387.337,399.1 405.659,399.1 405.659,404.3 423.58,404.3 423.58,399.1 441.902,399.1 441.902,404.3 459.824,404.3 459.824,399.1 478.146,399.1 478.146,404.3 496.067,404.3 496.067,399.1 514.389,399.1 514.389,404.3 532.311,404.3 532.311,399.1 550.633,399.1 550.633,404.3 568.554,404.3 568.554,399.1 586.876,399.1 586.876,404.3 604.798,404.3 604.798,399.1 623.12,399.1 623.12,404.3 641.041,404.3 641.041,399.1 659.363,399.1 659.363,404.3 677.285,404.3 677.285,399.1 695.607,399.1 695.607,404.3 713.528,404.3 713.528,399.1 731.85,399.1 731.85,404.3 749.772,404.3 749.772,399.1 768.094,399.1 768.094,404.3 786.015,404.3 786.015,399.1 804.337,399.1 804.337,410.589 799.137,410.589 799.137,421.678 804.337,421.678 804.337,433.167 799.137,433.167 799.137,444.256 804.337,444.256 804.337,455.744 799.137,455.744 799.137,466.833 804.337,466.833 804.337,478.322 799.137,478.322 799.137,489.411 804.337,489.411 804.337,500.9 786.015,500.9 786.015,495.7 768.094,495.7 768.094,500.9 749.772,500.9 749.772,495.7 731.85,495.7 731.85,500.9 713.528,500.9 713.528,495.7 695.607,495.7 695.607,500.9 677.285,500.9 677.285,495.7 659.363,495.7 659.363,500.9 641.041,500.9 641.041,495.7 623.12,495.7 623.12,500.9 604.798,500.9 604.798,495.7 586.876,495.7 586.876,500.9 568.554,500.9 568.554,495.7 550.633,495.7 550.633,500.9 532.311,500.9 532.311,495.7 514.389,495.7 514.389,500.9 496.067,500.9 496.067,495.7 478.146,495.7 478.146,500.9 459.824,500.9 459.824,495.7 441.902,495.7 441.902,500.9 423.58,500.9 423.58,495.7 405.659,495.7 405.659,500.9 387.337,500.9" fill="none" stroke="black" stroke-width="0.1mm" />
<polyline z="0" points="495.663,511.416 912.663,511.416 912.663,522.502 907.463,522.502 907.463,533.187 912.663,533.187 912.663,544.273 907.463,544.273 907.463,554.959 912.663,554.959 912.663,566.045 907.463,566.045 907.463,576.73 912.663,576.73 912.663,587.816 495.663,587.816 495.663,576.73 500.863,576.73 500.863,566.045 495.663,566.045 495.663,554.959 500.863,554.959 500.863,544.273 495.663,544.273 495.663,533.187 500.863,533.187 500.863,522.502 495.663,522.502 495.663,511.416" fill="none" stroke="black" stroke-width="0.1mm" />
<polyline z="0" points="513.785,587.816 532.106,587.816 532.106,593.016 550.028,593.016 550.028,587.816 568.35,587.816 568.35,593.016 586.272,593.016 586.272,587.816 604.593,587.816 604.593,593.016 622.515,593.016 622.515,587.816 640.837,587.816 640.837,593.016 658.759,593.016 658.759,587.816 677.08,587.816 677.08,593.016 695.002,593.016 695.002,587.816 713.324,587.816 713.324,593.016 731.246,593.016 731.246,587.816 749.567,587.816 749.567,593.016 767.489,593.016 767.489,587.816 785.811,587.816 785.811,593.016 803.733,593.016 803.733,587.816 822.054,587.816 822.054,593.016 839.976,593.016 839.976,587.816 858.298,587.816 858.298,593.016 876.22,593.016 876.22,587.816 894.541,587.816 894.541,593.016 912.663,593.016 912.663,603.216 495.663,603.216 495.663,593.016 513.785,593.016 513.785,587.816" fill="none" stroke="black" stroke-width="0.1mm" />
<polyline z="0" points="513.785,399.1 513.785,393.9 495.663,393.9 495.663,380.765 500.863,380.765 500.863,368.029 495.663,368.029 495.663,354.894 912.663,354.894 912.663,368.029 907.463,368.029 907.463,380.765 912.663,380.765 912.663,393.9 894.541,393.9 894.541,399.1 876.22,399.1 876.22,393.9 858.298,393.9 858.298,399.1 839.976,399.1 839.976,393.9 822.054,393.9 822.054,399.1 803.733,399.1 803.733,393.9 785.811,393.9 785.811,399.1 767.489,399.1 767.489,393.9 749.567,393.9 749.567,399.1 731.246,399.1 731.246,393.9 713.324,393.9 713.324,399.1 695.002,399.1 695.002,393.9 677.08,393.9 677.08,399.1 658.759,399.1 658.759,393.9 640.837,393.9 640.837,399.1 622.515,399.1 622.515,393.9 604.593,393.9 604.593,399.1 586.272,399.1 586.272,393.9 568.35,393.9 568.35,399.1 550.028,399.1 550.028,393.9 532.106,393.9 532.106,399.1 513.785,399.1" fill="none" stroke="black" stroke-width="0.1mm" />
<polyline z="0" points="495.663,387.697 490.463,387.697 490.463,393.786 480.463,393.786 480.463,399.1 387.337,321.436 398.399,321.436 398.399,316.236 409.484,316.236 409.484,321.436 420.17,321.436 420.17,316.236 431.256,316.236 431.256,321.436 441.942,321.436 441.942,316.236 453.027,316.236 453.027,321.436 463.713,321.436 463.713,316.378 449.449,302.114 451.657,296.784 451.657,302.386 464.392,302.386 464.392,297.186 477.528,297.186 477.528,302.386 490.463,302.386 490.463,308.475 495.663,308.475 495.663,319.964 490.463,319.964 490.463,331.053 495.663,331.053 495.663,342.542 490.463,342.542 490.463,353.63 495.663,353.63 495.663,365.119 490.463,365.119 490.463,376.208 495.663,376.208 495.663,387.697" fill="none" stroke="black" stroke-width="0.1mm" />
</svg>