<?xml version="1.0" encoding="UTF-8" standalone="no"?>
<svg
   width="1300mm"
   height="900mm"
   viewBox="0 0 1300 900"
   version="1.1"
   id="svg6"
   sodipodi:docname="Shelf-0-121.svg"
   inkscape:version="1.4 (e7c3feb100, 2024-10-09)"
   xmlns:inkscape="http://www.inkscape.org/namespaces/inkscape"
   xmlns:sodipodi="http://sodipodi.sourceforge.net/DTD/sodipodi-0.dtd"
   xmlns="http://www.w3.org/2000/svg"
   xmlns:svg="http://www.w3.org/2000/svg">
  <defs
     id="defs6" />
  <sodipodi:namedview
     id="namedview6"
     pagecolor="#505050"
     bordercolor="#eeeeee"
     borderopacity="1"
     inkscape:showpageshadow="0"
     inkscape:pageopacity="0"
     inkscape:pagecheckerboard="0"
     inkscape:deskcolor="#505050"
     inkscape:document-units="mm"
     inkscape:zoom="0.1182484"
     inkscape:cx="1124.751"
     inkscape:cy="1923.9161"
     inkscape:window-width="1920"
     inkscape:window-height="1011"
     inkscape:window-x="0"
     inkscape:window-y="32"
     inkscape:window-maximized="1"
     inkscape:current-layer="svg6" />
  <polyline
     z="0"
     points="559.109,647.453 559.109,636.367 564.309,636.367 564.309,625.682 559.109,625.682 559.109,614.596 564.309,614.596 564.309,603.91 559.109,603.91 559.109,592.824 564.309,592.824 564.309,582.139 559.109,582.139 559.109,571.053 849.109,571.053 849.109,582.139 843.909,582.139 843.909,592.824 849.109,592.824 849.109,603.91 843.909,603.91 843.909,614.596 849.109,614.596 849.109,625.682 843.909,625.682 843.909,636.367 849.109,636.367 849.109,647.453 559.109,647.453"
     fill="none"
     stroke="#000000"
     stroke-width="0.1mm"
     id="polyline2"
     transform="rotate(90,738.52621,407.79879)"
     style="stroke-width:0.26458333;stroke-dasharray:none;vector-effect:non-scaling-stroke;-inkscape-stroke:hairline" />
  <polyline
     z="0"
     points="559.109,571.053 559.109,557.918 564.309,557.918 564.309,545.182 559.109,545.182 559.109,532.047 576.156,532.047 576.156,526.847 593.403,526.847 593.403,532.047 610.25,532.047 610.25,526.847 627.497,526.847 627.497,532.047 644.344,532.047 644.344,526.847 661.591,526.847 661.591,532.047 678.438,532.047 678.438,526.847 695.685,526.847 695.685,532.047 712.533,532.047 712.533,526.847 729.78,526.847 729.78,532.047 746.627,532.047 746.627,526.847 763.874,526.847 763.874,532.047 780.721,532.047 780.721,526.847 797.968,526.847 797.968,532.047 814.815,532.047 814.815,526.847 832.062,526.847 832.062,532.047 849.109,532.047 849.109,545.182 843.909,545.182 843.909,557.918 849.109,557.918 849.109,571.053 559.109,571.053"
     fill="none"
     stroke="#000000"
     stroke-width="0.1mm"
     id="polyline3"
     transform="rotate(90,738.52621,407.79879)"
     style="stroke-width:0.26458333;stroke-dasharray:none;vector-effect:non-scaling-stroke;-inkscape-stroke:hairline" />
  <polyline
     z="0"
     points="559.109,526.847 559.109,516.647 570.956,516.647 570.956,511.447 588.203,511.447 588.203,516.647 605.05,516.647 605.05,511.447 622.297,511.447 622.297,516.647 639.144,516.647 639.144,511.447 656.391,511.447 656.391,516.647 673.238,516.647 673.238,511.447 690.485,511.447 690.485,516.647 707.333,516.647 707.333,511.447 724.58,511.447 724.58,516.647 741.427,516.647 741.427,511.447 758.674,511.447 758.674,516.647 775.521,516.647 775.521,511.447 792.768,511.447 792.768,516.647 809.615,516.647 809.615,511.447 826.862,511.447 826.862,516.647 838.709,516.647 838.709,526.847 559.109,526.847"
     fill="none"
     stroke="#000000"
     stroke-width="0.1mm"
     id="polyline4"
     transform="matrix(0,1,1,0,-27.974993,-325.52742)"
     style="stroke-width:0.26458333;stroke-dasharray:none;vector-effect:non-scaling-stroke;-inkscape-stroke:hairline" />
  <polyline
     z="0"
     points="559.109,450 559.109,431.905 564.309,431.905 564.309,414.209 559.109,414.209 559.109,396.114 564.309,396.114 564.309,378.418 559.109,378.418 559.109,360.323 564.309,360.323 564.309,342.627 559.109,342.627 559.109,324.532 564.309,324.532 564.309,306.836 559.109,306.836 559.109,288.741 564.309,288.741 564.309,271.045 559.109,271.045 559.109,252.95 576.356,252.95 576.356,258.15 593.203,258.15 593.203,252.95 610.45,252.95 610.45,258.15 627.297,258.15 627.297,252.95 644.544,252.95 644.544,258.15 661.391,258.15 661.391,252.95 678.638,252.95 678.638,258.15 695.485,258.15 695.485,252.95 712.733,252.95 712.733,258.15 729.58,258.15 729.58,252.95 746.827,252.95 746.827,258.15 763.674,258.15 763.674,252.95 780.921,252.95 780.921,258.15 797.768,258.15 797.768,252.95 815.015,252.95 815.015,258.15 831.862,258.15 831.862,252.95 849.109,252.95 849.109,271.045 843.909,271.045 843.909,288.741 849.109,288.741 849.109,306.836 843.909,306.836 843.909,324.532 849.109,324.532 849.109,342.627 843.909,342.627 843.909,360.323 849.109,360.323 849.109,378.418 843.909,378.418 843.909,396.114 849.109,396.114 849.109,414.209 843.909,414.209 843.909,431.905 849.109,431.905 849.109,450 831.862,450 831.862,444.8 815.015,444.8 815.015,450 797.768,450 797.768,444.8 780.921,444.8 780.921,450 763.674,450 763.674,444.8 746.827,444.8 746.827,450 729.58,450 729.58,444.8 712.733,444.8 712.733,450 695.485,450 695.485,444.8 678.638,444.8 678.638,450 661.391,450 661.391,444.8 644.544,444.8 644.544,450 627.297,450 627.297,444.8 610.45,444.8 610.45,450 593.203,450 593.203,444.8 576.356,444.8 576.356,450 559.109,450"
     fill="none"
     stroke="#000000"
     stroke-width="0.1mm"
     id="polyline5"
     transform="rotate(90,700.10271,369.37529)"
     style="stroke-width:0.26458333;stroke-dasharray:none;vector-effect:non-scaling-stroke;-inkscape-stroke:hairline" />
  <polyline
     z="0"
     points="559.109,647.453 559.109,636.367 564.309,636.367 564.309,625.682 559.109,625.682 559.109,614.596 564.309,614.596 564.309,603.91 559.109,603.91 559.109,592.824 564.309,592.824 564.309,582.139 559.109,582.139 559.109,571.053 849.109,571.053 849.109,582.139 843.909,582.139 843.909,592.824 849.109,592.824 849.109,603.91 843.909,603.91 843.909,614.596 849.109,614.596 849.109,625.682 843.909,625.682 843.909,636.367 849.109,636.367 849.109,647.453 559.109,647.453"
     fill="none"
     stroke="#000000"
     stroke-width="0.1mm"
     id="polyline2-6"
     transform="rotate(90,593.52621,552.79879)"
     style="stroke-width:0.26458333;stroke-dasharray:none;vector-effect:non-scaling-stroke;-inkscape-stroke:hairline" />
  <polyline
     z="0"
     points="559.109,571.053 559.109,557.918 564.309,557.918 564.309,545.182 559.109,545.182 559.109,532.047 576.156,532.047 576.156,526.847 593.403,526.847 593.403,532.047 610.25,532.047 610.25,526.847 627.497,526.847 627.497,532.047 644.344,532.047 644.344,526.847 661.591,526.847 661.591,532.047 678.438,532.047 678.438,526.847 695.685,526.847 695.685,532.047 712.533,532.047 712.533,526.847 729.78,526.847 729.78,532.047 746.627,532.047 746.627,526.847 763.874,526.847 763.874,532.047 780.721,532.047 780.721,526.847 797.968,526.847 797.968,532.047 814.815,532.047 814.815,526.847 832.062,526.847 832.062,532.047 849.109,532.047 849.109,545.182 843.909,545.182 843.909,557.918 849.109,557.918 849.109,571.053 559.109,571.053"
     fill="none"
     stroke="#000000"
     stroke-width="0.1mm"
     id="polyline3-7"
     transform="rotate(90,593.52621,552.79879)"
     style="stroke-width:0.26458333;stroke-dasharray:none;vector-effect:non-scaling-stroke;-inkscape-stroke:hairline" />
  <polyline
     z="0"
     points="559.109,526.847 559.109,516.647 570.956,516.647 570.956,511.447 588.203,511.447 588.203,516.647 605.05,516.647 605.05,511.447 622.297,511.447 622.297,516.647 639.144,516.647 639.144,511.447 656.391,511.447 656.391,516.647 673.238,516.647 673.238,511.447 690.485,511.447 690.485,516.647 707.333,516.647 707.333,511.447 724.58,511.447 724.58,516.647 741.427,516.647 741.427,511.447 758.674,511.447 758.674,516.647 775.521,516.647 775.521,511.447 792.768,511.447 792.768,516.647 809.615,516.647 809.615,511.447 826.862,511.447 826.862,516.647 838.709,516.647 838.709,526.847 559.109,526.847"
     fill="none"
     stroke="#000000"
     stroke-width="0.1mm"
     id="polyline4-5"
     transform="matrix(0,1,1,0,-27.975007,-35.52753)"
     style="stroke-width:0.26458333;stroke-dasharray:none;vector-effect:non-scaling-stroke;-inkscape-stroke:hairline" />
  <polyline
     z="0"
     points="559.109,450 559.109,431.905 564.309,431.905 564.309,414.209 559.109,414.209 559.109,396.114 564.309,396.114 564.309,378.418 559.109,378.418 559.109,360.323 564.309,360.323 564.309,342.627 559.109,342.627 559.109,324.532 564.309,324.532 564.309,306.836 559.109,306.836 559.109,288.741 564.309,288.741 564.309,271.045 559.109,271.045 559.109,252.95 576.356,252.95 576.356,258.15 593.203,258.15 593.203,252.95 610.45,252.95 610.45,258.15 627.297,258.15 627.297,252.95 644.544,252.95 644.544,258.15 661.391,258.15 661.391,252.95 678.638,252.95 678.638,258.15 695.485,258.15 695.485,252.95 712.733,252.95 712.733,258.15 729.58,258.15 729.58,252.95 746.827,252.95 746.827,258.15 763.674,258.15 763.674,252.95 780.921,252.95 780.921,258.15 797.768,258.15 797.768,252.95 815.015,252.95 815.015,258.15 831.862,258.15 831.862,252.95 849.109,252.95 849.109,271.045 843.909,271.045 843.909,288.741 849.109,288.741 849.109,306.836 843.909,306.836 843.909,324.532 849.109,324.532 849.109,342.627 843.909,342.627 843.909,360.323 849.109,360.323 849.109,378.418 843.909,378.418 843.909,396.114 849.109,396.114 849.109,414.209 843.909,414.209 843.909,431.905 849.109,431.905 849.109,450 831.862,450 831.862,444.8 815.015,444.8 815.015,450 797.768,450 797.768,444.8 780.921,444.8 780.921,450 763.674,450 763.674,444.8 746.827,444.8 746.827,450 729.58,450 729.58,444.8 712.733,444.8 712.733,450 695.485,450 695.485,444.8 678.638,444.8 678.638,450 661.391,450 661.391,444.8 644.544,444.8 644.544,450 627.297,450 627.297,444.8 610.45,444.8 610.45,450 593.203,450 593.203,444.8 576.356,444.8 576.356,450 559.109,450"
     fill="none"
     stroke="#000000"
     stroke-width="0.1mm"
     id="polyline5-3"
     transform="rotate(90,555.10271,514.37528)"
     style="stroke-width:0.26458333;stroke-dasharray:none;vector-effect:non-scaling-stroke;-inkscape-stroke:hairline" />
  <polyline
     z="0"
     points="456.091,647.453 456.091,629.558 450.891,629.558 450.891,611.462 456.091,611.462 456.091,593.767 450.891,593.767 450.891,575.671 456.091,575.671 456.091,557.976 450.891,557.976 450.891,539.88 456.091,539.88 456.091,522.185 450.891,522.185 450.891,504.089 456.091,504.089 456.091,486.394 450.891,486.394 450.891,468.298 456.091,468.298 456.091,455.603 469.026,455.603 469.026,450.403 482.162,450.403 482.162,455.603 494.897,455.603 494.897,450 497.105,455.33 482.841,469.594 482.841,474.653 493.527,474.653 493.527,469.453 504.612,469.453 504.612,474.653 515.298,474.653 515.298,469.453 526.384,469.453 526.384,474.653 537.07,474.653 537.07,469.453 548.155,469.453 548.155,474.653 559.109,474.653 466.251,647.453 456.091,647.453"
     fill="none"
     stroke="#000000"
     stroke-width="0.1mm"
     id="polyline1"
     transform="rotate(90,828.42112,469.14854)"
     style="stroke-width:0.26458333;stroke-dasharray:none;vector-effect:non-scaling-stroke;-inkscape-stroke:hairline" />
  <polyline
     z="0"
     points="553.909,450 543.749,450 450.891,277.2 461.845,277.2 461.845,272 472.93,272 472.93,277.2 483.616,277.2 483.616,272 494.702,272 494.702,277.2 505.388,277.2 505.388,272 516.473,272 516.473,277.2 527.159,277.2 527.159,272.141 512.895,257.877 515.103,252.547 515.103,258.15 527.838,258.15 527.838,252.95 540.974,252.95 540.974,258.15 553.909,258.15 553.909,270.845 559.109,270.845 559.109,288.941 553.909,288.941 553.909,306.636 559.109,306.636 559.109,324.732 553.909,324.732 553.909,342.427 559.109,342.427 559.109,360.523 553.909,360.523 553.909,378.218 559.109,378.218 559.109,396.314 553.909,396.314 553.909,414.009 559.109,414.009 559.109,432.105 553.909,432.105 553.909,450"
     fill="none"
     stroke="#000000"
     stroke-width="0.1mm"
     id="polyline6"
     transform="rotate(90,616.63721,285.90979)"
     style="stroke-width:0.26458333;stroke-dasharray:none;vector-effect:non-scaling-stroke;-inkscape-stroke:hairline" />
  <polyline
     z="0"
     points="456.091,647.453 456.091,629.558 450.891,629.558 450.891,611.462 456.091,611.462 456.091,593.767 450.891,593.767 450.891,575.671 456.091,575.671 456.091,557.976 450.891,557.976 450.891,539.88 456.091,539.88 456.091,522.185 450.891,522.185 450.891,504.089 456.091,504.089 456.091,486.394 450.891,486.394 450.891,468.298 456.091,468.298 456.091,455.603 469.026,455.603 469.026,450.403 482.162,450.403 482.162,455.603 494.897,455.603 494.897,450 497.105,455.33 482.841,469.594 482.841,474.653 493.527,474.653 493.527,469.453 504.612,469.453 504.612,474.653 515.298,474.653 515.298,469.453 526.384,469.453 526.384,474.653 537.07,474.653 537.07,469.453 548.155,469.453 548.155,474.653 559.109,474.653 466.251,647.453 456.091,647.453"
     fill="none"
     stroke="#000000"
     stroke-width="0.1mm"
     id="polyline1-3"
     transform="rotate(-90,439.63629,239.63629)"
     style="stroke-width:0.26458333;stroke-dasharray:none;vector-effect:non-scaling-stroke;-inkscape-stroke:hairline" />
  <polyline
     z="0"
     points="553.909,450 543.749,450 450.891,277.2 461.845,277.2 461.845,272 472.93,272 472.93,277.2 483.616,277.2 483.616,272 494.702,272 494.702,277.2 505.388,277.2 505.388,272 516.473,272 516.473,277.2 527.159,277.2 527.159,272.141 512.895,257.877 515.103,252.547 515.103,258.15 527.838,258.15 527.838,252.95 540.974,252.95 540.974,258.15 553.909,258.15 553.909,270.845 559.109,270.845 559.109,288.941 553.909,288.941 553.909,306.636 559.109,306.636 559.109,324.732 553.909,324.732 553.909,342.427 559.109,342.427 559.109,360.523 553.909,360.523 553.909,378.218 559.109,378.218 559.109,396.314 553.909,396.314 553.909,414.009 559.109,414.009 559.109,432.105 553.909,432.105 553.909,450"
     fill="none"
     stroke="#000000"
     stroke-width="0.1mm"
     id="polyline6-5"
     transform="rotate(-90,425.30538,225.42204)"
     style="stroke-width:0.26458333;stroke-dasharray:none;vector-effect:non-scaling-stroke;-inkscape-stroke:hairline" />
</svg>
