<?xml version="1.0" encoding="UTF-8" standalone="no"?>
<svg
   width="1300mm"
   height="900mm"
   viewBox="0 0 1300 900"
   version="1.1"
   id="svg6"
   sodipodi:docname="Shelf6x6.svg"
   inkscape:version="1.3.2 (091e20ef0f, 2023-11-25)"
   xmlns:inkscape="http://www.inkscape.org/namespaces/inkscape"
   xmlns:sodipodi="http://sodipodi.sourceforge.net/DTD/sodipodi-0.dtd"
   xmlns="http://www.w3.org/2000/svg"
   xmlns:svg="http://www.w3.org/2000/svg">
  <defs
     id="defs6" />
  <sodipodi:namedview
     id="namedview6"
     pagecolor="#505050"
     bordercolor="#eeeeee"
     borderopacity="1"
     inkscape:showpageshadow="0"
     inkscape:pageopacity="0"
     inkscape:pagecheckerboard="0"
     inkscape:deskcolor="#505050"
     inkscape:document-units="mm"
     inkscape:zoom="0.16343109"
     inkscape:cx="2453.6335"
     inkscape:cy="1697.9633"
     inkscape:window-width="1920"
     inkscape:window-height="1011"
     inkscape:window-x="0"
     inkscape:window-y="32"
     inkscape:window-maximized="1"
     inkscape:current-layer="svg6" />
  <polyline
     z="0"
     points="443.277,602.6 443.277,585.667 438.077,585.667 438.077,568.533 443.277,568.533 443.277,551.8 438.077,551.8 438.077,534.667 443.277,534.667 443.277,517.933 438.077,517.933 438.077,500.8 443.277,500.8 443.277,484.067 438.077,484.067 438.077,466.933 443.277,466.933 443.277,450 456.412,450 456.412,455.2 469.148,455.2 469.148,450 482.25,450 484.291,454.927 470.027,469.191 470.027,474.25 480.713,474.25 480.713,469.05 491.798,469.05 491.798,474.25 502.484,474.25 502.484,469.05 513.57,469.05 513.57,474.25 524.256,474.25 524.256,469.05 535.341,469.05 535.341,474.25 546.323,474.25 453.428,602.6 443.277,602.6"
     fill="none"
     stroke="#000000"
     stroke-width="0.1mm"
     id="polyline1"
     transform="rotate(90,649.90946,450)"
     style="fill:none;fill-opacity:1;stroke-width:0.26458333;stroke-dasharray:none;vector-effect:non-scaling-stroke;-inkscape-stroke:hairline" />
  <polyline
     z="0"
     points="546.323,584.465 546.323,571.329 551.523,571.329 551.523,558.394 704.123,558.394 704.123,571.329 709.323,571.329 709.323,584.465 704.123,584.465 704.123,597.4 691.234,597.4 691.234,602.6 672.945,602.6 672.945,597.4 655.056,597.4 655.056,602.6 636.767,602.6 636.767,597.4 618.879,597.4 618.879,602.6 600.59,602.6 600.59,597.4 582.701,597.4 582.701,602.6 564.412,602.6 564.412,597.4 551.523,597.4 551.523,584.465 546.323,584.465"
     fill="none"
     stroke="#000000"
     stroke-width="0.1mm"
     id="polyline2"
     transform="rotate(90,649.90946,450)"
     style="fill:none;fill-opacity:1;stroke-width:0.26458333;stroke-dasharray:none;vector-effect:non-scaling-stroke;-inkscape-stroke:hairline" />
  <polyline
     z="0"
     points="546.323,558.394 546.323,547.308 551.523,547.308 551.523,536.623 546.323,536.623 546.323,525.537 551.523,525.537 551.523,514.851 546.323,514.851 546.323,503.765 551.523,503.765 551.523,493.08 546.323,493.08 546.323,481.994 709.323,481.994 709.323,493.08 704.123,493.08 704.123,503.765 709.323,503.765 709.323,514.851 704.123,514.851 704.123,525.537 709.323,525.537 709.323,536.623 704.123,536.623 704.123,547.308 709.323,547.308 709.323,558.394 546.323,558.394"
     fill="none"
     stroke="#000000"
     stroke-width="0.1mm"
     id="polyline3"
     transform="rotate(90,649.90946,450)"
     style="fill:none;fill-opacity:1;stroke-width:0.26458333;stroke-dasharray:none;vector-effect:non-scaling-stroke;-inkscape-stroke:hairline" />
  <polyline
     z="0"
     points="546.323,450 546.323,432.867 551.523,432.867 551.523,416.133 546.323,416.133 546.323,399 551.523,399 551.523,382.267 546.323,382.267 546.323,365.133 551.523,365.133 551.523,348.4 546.323,348.4 546.323,331.267 551.523,331.267 551.523,314.533 546.323,314.533 546.323,297.4 564.612,297.4 564.612,302.6 582.501,302.6 582.501,297.4 600.79,297.4 600.79,302.6 618.679,302.6 618.679,297.4 636.967,297.4 636.967,302.6 654.856,302.6 654.856,297.4 673.145,297.4 673.145,302.6 691.034,302.6 691.034,297.4 709.323,297.4 709.323,314.533 704.123,314.533 704.123,331.267 709.323,331.267 709.323,348.4 704.123,348.4 704.123,365.133 709.323,365.133 709.323,382.267 704.123,382.267 704.123,399 709.323,399 709.323,416.133 704.123,416.133 704.123,432.867 709.323,432.867 709.323,450 691.034,450 691.034,444.8 673.145,444.8 673.145,450 654.856,450 654.856,444.8 636.967,444.8 636.967,450 618.679,450 618.679,444.8 600.79,444.8 600.79,450 582.501,450 582.501,444.8 564.612,444.8 564.612,450 546.323,450"
     fill="none"
     stroke="#000000"
     stroke-width="0.1mm"
     id="polyline4"
     transform="rotate(90,649.90946,450)"
     style="fill:none;fill-opacity:1;stroke-width:0.26458333;stroke-dasharray:none;vector-effect:non-scaling-stroke;-inkscape-stroke:hairline" />
  <polyline
     z="0"
     points="541.123,450 530.972,450 438.077,321.65 449.059,321.65 449.059,316.45 460.144,316.45 460.144,321.65 470.83,321.65 470.83,316.45 481.916,316.45 481.916,321.65 492.602,321.65 492.602,316.45 503.687,316.45 503.687,321.65 514.373,321.65 514.373,316.591 500.109,302.327 502.15,297.4 515.252,297.4 515.252,302.6 527.988,302.6 527.988,297.4 541.123,297.4 541.123,314.333 546.323,314.333 546.323,331.467 541.123,331.467 541.123,348.2 546.323,348.2 546.323,365.333 541.123,365.333 541.123,382.067 546.323,382.067 546.323,399.2 541.123,399.2 541.123,415.933 546.323,415.933 546.323,433.067 541.123,433.067 541.123,450"
     fill="none"
     stroke="#000000"
     stroke-width="0.1mm"
     id="polyline5"
     transform="rotate(90,649.90946,450)"
     style="fill:none;fill-opacity:1;stroke-width:0.26458333;stroke-dasharray:none;vector-effect:non-scaling-stroke;-inkscape-stroke:hairline" />
  <polyline
     z="0"
     points="709.323,587.2 861.923,587.2 861.923,597.4 849.034,597.4 849.034,602.6 830.745,602.6 830.745,597.4 812.856,597.4 812.856,602.6 794.567,602.6 794.567,597.4 776.679,597.4 776.679,602.6 758.39,602.6 758.39,597.4 740.501,597.4 740.501,602.6 722.212,602.6 722.212,597.4 709.323,597.4 709.323,587.2"
     fill="none"
     stroke="#000000"
     stroke-width="0.1mm"
     id="polyline6"
     transform="rotate(90,649.90946,450)"
     style="fill:none;fill-opacity:1;stroke-width:0.26458333;stroke-dasharray:none;vector-effect:non-scaling-stroke;-inkscape-stroke:hairline" />
</svg>
