<?xml version="1.0" encoding="UTF-8" standalone="no"?>
<svg
   width="1300mm"
   height="900mm"
   viewBox="0 0 1300 900"
   version="1.1"
   id="svg6"
   sodipodi:docname="Shelf5x3.svg"
   inkscape:version="1.3.2 (091e20ef0f, 2023-11-25)"
   xmlns:inkscape="http://www.inkscape.org/namespaces/inkscape"
   xmlns:sodipodi="http://sodipodi.sourceforge.net/DTD/sodipodi-0.dtd"
   xmlns="http://www.w3.org/2000/svg"
   xmlns:svg="http://www.w3.org/2000/svg">
  <defs
     id="defs6" />
  <sodipodi:namedview
     id="namedview6"
     pagecolor="#505050"
     bordercolor="#eeeeee"
     borderopacity="1"
     inkscape:showpageshadow="0"
     inkscape:pageopacity="0"
     inkscape:pagecheckerboard="0"
     inkscape:deskcolor="#505050"
     inkscape:document-units="mm"
     inkscape:zoom="0.16343109"
     inkscape:cx="2453.6335"
     inkscape:cy="1697.9633"
     inkscape:window-width="1920"
     inkscape:window-height="1011"
     inkscape:window-x="0"
     inkscape:window-y="32"
     inkscape:window-maximized="1"
     inkscape:current-layer="svg6" />
  <polyline
     z="0"
     points="404.055,474.451 415.136,474.451 415.136,469.251 426.221,469.251 426.221,474.451 436.907,474.451 436.907,469.251 447.993,469.251 447.993,474.451 458.679,474.451 458.679,469.251 469.764,469.251 469.764,474.451 480.45,474.451 480.45,469.393 466.186,455.129 468.394,449.799 468.394,455.401 481.129,455.401 481.129,450.201 494.265,450.201 494.265,455.401 507.2,455.401 507.2,460.784 512.4,460.784 512.4,471.568 507.2,471.568 507.2,481.951 512.4,481.951 512.4,492.734 507.2,492.734 507.2,503.118 512.4,503.118 512.4,513.901 507.2,513.901 507.2,524.284 512.4,524.284 512.4,535.068 507.2,535.068 507.2,545.651 497.066,545.651 404.055,474.451"
     fill="none"
     stroke="#000000"
     stroke-width="0.1mm"
     id="polyline1"
     transform="rotate(90,650,450)"
     style="stroke-width:0.26458333;stroke-dasharray:none;vector-effect:non-scaling-stroke;-inkscape-stroke:hairline" />
  <polyline
     z="0"
     points="404.055,449.799 404.055,439.016 409.255,439.016 409.255,428.632 404.055,428.632 404.055,417.849 409.255,417.849 409.255,407.466 404.055,407.466 404.055,396.682 409.255,396.682 409.255,386.299 404.055,386.299 404.055,375.516 409.255,375.516 409.255,365.132 404.055,365.132 404.055,354.349 419.522,354.349 419.522,359.549 434.588,359.549 434.588,354.349 450.055,354.349 450.055,359.549 465.122,359.549 465.122,354.349 480.588,354.349 480.588,359.549 495.655,359.549 495.655,354.349 511.122,354.349 511.122,359.549 526.188,359.549 526.188,354.349 541.655,354.349 541.655,365.132 536.455,365.132 536.455,375.516 541.655,375.516 541.655,386.299 536.455,386.299 536.455,396.682 541.655,396.682 541.655,407.466 536.455,407.466 536.455,417.849 541.655,417.849 541.655,428.632 536.455,428.632 536.455,439.016 541.655,439.016 541.655,449.799 526.188,449.799 526.188,444.599 511.122,444.599 511.122,449.799 495.655,449.799 495.655,444.599 480.588,444.599 480.588,449.799 465.122,449.799 465.122,444.599 450.055,444.599 450.055,449.799 434.588,449.799 434.588,444.599 419.522,444.599 419.522,449.799 404.055,449.799"
     fill="none"
     stroke="#000000"
     stroke-width="0.1mm"
     id="polyline2"
     transform="rotate(90,650,450)"
     style="stroke-width:0.26458333;stroke-dasharray:none;vector-effect:non-scaling-stroke;-inkscape-stroke:hairline" />
  <polyline
     z="0"
     points="512.4,460.784 517.6,460.784 517.6,455.401 530.535,455.401 530.535,450.201 543.671,450.201 543.671,455.401 556.406,455.401 556.406,449.799 558.614,455.129 544.35,469.393 544.35,474.451 555.036,474.451 555.036,469.251 566.121,469.251 566.121,474.451 576.807,474.451 576.807,469.251 587.893,469.251 587.893,474.451 598.579,474.451 598.579,469.251 609.664,469.251 609.664,474.451 620.745,474.451 527.734,545.651 517.6,545.651 517.6,535.068 512.4,535.068 512.4,524.284 517.6,524.284 517.6,513.901 512.4,513.901 512.4,503.118 517.6,503.118 517.6,492.734 512.4,492.734 512.4,481.951 517.6,481.951 517.6,471.568 512.4,471.568 512.4,460.784"
     fill="none"
     stroke="#000000"
     stroke-width="0.1mm"
     id="polyline3"
     transform="rotate(90,650,450)"
     style="stroke-width:0.26458333;stroke-dasharray:none;vector-effect:non-scaling-stroke;-inkscape-stroke:hairline" />
  <polyline
     z="0"
     points="620.745,464.937 620.745,453.851 758.345,453.851 758.345,464.937 753.145,464.937 753.145,475.622 758.345,475.622 758.345,486.708 753.145,486.708 753.145,497.394 758.345,497.394 758.345,508.48 753.145,508.48 753.145,519.165 758.345,519.165 758.345,530.251 620.745,530.251 620.745,519.165 625.945,519.165 625.945,508.48 620.745,508.48 620.745,497.394 625.945,497.394 625.945,486.708 620.745,486.708 620.745,475.622 625.945,475.622 625.945,464.937 620.745,464.937"
     fill="none"
     stroke="#000000"
     stroke-width="0.1mm"
     id="polyline4"
     transform="rotate(90,650,450)"
     style="stroke-width:0.26458333;stroke-dasharray:none;vector-effect:non-scaling-stroke;-inkscape-stroke:hairline" />
  <polyline
     z="0"
     points="620.745,530.251 747.945,530.251 747.945,540.451 737.878,540.451 737.878,545.651 722.412,545.651 722.412,540.451 707.345,540.451 707.345,545.651 691.878,545.651 691.878,540.451 676.812,540.451 676.812,545.651 661.345,545.651 661.345,540.451 646.278,540.451 646.278,545.651 630.812,545.651 630.812,540.451 620.745,540.451 620.745,530.251"
     fill="none"
     stroke="#000000"
     stroke-width="0.1mm"
     id="polyline5"
     transform="rotate(90,650,450)"
     style="stroke-width:0.26458333;stroke-dasharray:none;vector-effect:non-scaling-stroke;-inkscape-stroke:hairline" />
  <polyline
     z="0"
     points="758.345,525.051 758.345,511.916 763.545,511.916 763.545,499.18 758.345,499.18 758.345,486.045 895.945,486.045 895.945,499.18 890.745,499.18 890.745,511.916 895.945,511.916 895.945,525.051 880.678,525.051 880.678,530.251 865.212,530.251 865.212,525.051 850.145,525.051 850.145,530.251 834.678,530.251 834.678,525.051 819.612,525.051 819.612,530.251 804.145,530.251 804.145,525.051 789.078,525.051 789.078,530.251 773.612,530.251 773.612,525.051 758.345,525.051"
     fill="none"
     stroke="#000000"
     stroke-width="0.1mm"
     id="polyline6"
     transform="rotate(90,650,450)"
     style="stroke-width:0.26458333;stroke-dasharray:none;vector-effect:non-scaling-stroke;-inkscape-stroke:hairline" />
</svg>
