<?xml version="1.0" encoding="UTF-8" standalone="no"?>
<svg
   width="1300mm"
   height="900mm"
   viewBox="0 0 1300 900"
   version="1.1"
   id="svg8"
   sodipodi:docname="TableBlades.svg"
   inkscape:version="1.3.2 (091e20ef0f, 2023-11-25)"
   xmlns:inkscape="http://www.inkscape.org/namespaces/inkscape"
   xmlns:sodipodi="http://sodipodi.sourceforge.net/DTD/sodipodi-0.dtd"
   xmlns="http://www.w3.org/2000/svg"
   xmlns:svg="http://www.w3.org/2000/svg">
  <defs
     id="defs8" />
  <sodipodi:namedview
     id="namedview8"
     pagecolor="#505050"
     bordercolor="#eeeeee"
     borderopacity="1"
     inkscape:showpageshadow="0"
     inkscape:pageopacity="0"
     inkscape:pagecheckerboard="0"
     inkscape:deskcolor="#505050"
     inkscape:document-units="mm"
     inkscape:zoom="0.16343109"
     inkscape:cx="2453.6335"
     inkscape:cy="1697.9633"
     inkscape:window-width="1920"
     inkscape:window-height="1011"
     inkscape:window-x="0"
     inkscape:window-y="32"
     inkscape:window-maximized="1"
     inkscape:current-layer="svg8" />
  <path
     id="polyline1"
     d="M 360.00005 663.87985 L 504.98914 695.65 L 517.80024 695.65 L 517.80024 690.4498 L 530.30025 690.4498 L 530.30025 695.65 L 543.20024 695.65 L 543.20024 690.4498 L 555.70025 690.4498 L 555.70025 695.65 L 568.60024 695.65 L 568.60024 690.4498 L 581.10025 690.4498 L 581.10025 695.65 L 594.00024 695.65 L 594.00024 690.4498 L 606.50025 690.4498 L 606.50025 695.65 L 619.40024 695.65 L 619.40024 690.4498 L 631.90025 690.4498 L 631.90025 695.65 L 649.99992 695.65 L 649.99992 688.05977 L 644.80024 688.05977 L 644.80024 680.87003 L 649.99992 680.87003 L 649.99992 673.27979 L 644.80024 673.27979 L 644.80024 666.09005 L 649.99992 666.09005 L 649.99992 658.49982 L 618.7269 658.49982 L 618.7269 663.70002 L 593.05508 663.70002 L 593.05508 658.49982 L 566.98225 658.49982 L 566.98225 663.70002 L 541.30888 663.70002 L 541.30888 658.49982 L 515.23606 658.49982 L 515.23606 663.70002 L 489.56424 663.70002 L 489.56424 658.49982 L 476.6658 658.49982 L 490.78897 644.37716 L 488.74775 639.44982 L 480.59011 639.44982 L 480.59011 644.65002 L 472.79885 644.65002 L 472.79885 639.44982 L 464.60917 639.44982 L 464.60917 644.65002 L 456.81792 644.65002 L 456.81792 639.44982 L 448.6272 639.44982 L 448.6272 644.65002 L 440.83595 644.65002 L 440.83595 639.44982 L 432.70414 639.44982 L 419.17525 652.97922 L 419.17525 658.49982 L 411.74521 658.49982 L 411.74521 663.70002 L 386.07288 663.70002 L 386.07288 658.49982 L 360.00005 658.49982 L 360.00005 663.87985 z M 437.81804 663.70002 L 437.81804 658.6998 L 463.49089 658.6998 L 463.49089 663.70002 L 437.81804 663.70002 z "
     transform="rotate(90,650,450)"
     style="fill:none;stroke:#000000;stroke-opacity:1;vector-effect:non-scaling-stroke;-inkscape-stroke:hairline;stroke-width:0.26458333;stroke-dasharray:none" />
  <polyline
     z="0"
     points="403.466,616.692 389.06,627.376 375.739,639.45 365.2,639.45 365.2,626.75 360,626.75 360,613.85 365.2,613.85 365.2,601.35 360,601.35 360,588.45 365.2,588.45 365.2,575.95 360,575.95 360,563.05 365.2,563.05 365.2,550.55 360,550.55 360,537.65 365.2,537.65 365.2,525.15 360,525.15 360,512.25 365.2,512.25 365.2,499.55 386.345,499.55 386.345,494.35 412.891,494.35 412.891,499.55 439.036,499.55 439.036,494.35 465.582,494.35 465.582,499.55 491.727,499.55 491.727,494.35 518.273,494.35 518.273,499.55 544.418,499.55 544.418,494.35 570.964,494.35 570.964,499.55 597.109,499.55 597.109,494.35 623.655,494.35 623.655,499.55 644.8,499.55 644.8,512.25 650,512.25 650,525.15 644.8,525.15 644.8,537.65 650,537.65 650,550.55 644.8,550.55 644.8,563.05 650,563.05 650,575.95 644.8,575.95 644.8,588.45 650,588.45 650,601.35 644.8,601.35 644.8,613.85 650,613.85 650,626.75 644.8,626.75 644.8,639.45 634.261,639.45 620.94,627.376 606.534,616.692 591.152,607.472 574.939,599.804 558.052,593.762 540.655,589.404 522.913,586.773 505,585.892 487.087,586.773 469.345,589.404 451.948,593.762 435.061,599.804 418.848,607.472 403.466,616.692"
     fill="none"
     stroke="#000000"
     stroke-width="0.1mm"
     id="polyline3"
     transform="rotate(90,650,450)"
     style="fill:none;stroke:#000000;stroke-opacity:1;vector-effect:non-scaling-stroke;-inkscape-stroke:hairline;stroke-width:0.26458333;stroke-dasharray:none" />
  <polyline
     z="0"
     points="365.2,494.35 365.2,468.477 360,468.477 360,442.405 365.2,442.405 365.2,416.732 360,416.732 360,390.659 365.2,390.659 365.2,364.986 360,364.986 360,338.914 365.2,338.914 365.2,313.241 360,313.241 360,287.168 365.2,287.168 365.2,261.495 360,261.495 360,235.423 365.2,235.423 365.2,209.55 386.345,209.55 386.345,204.35 412.891,204.35 412.891,209.55 439.036,209.55 439.036,204.35 465.582,204.35 465.582,209.55 491.727,209.55 491.727,204.35 518.273,204.35 518.273,209.55 544.418,209.55 544.418,204.35 570.964,204.35 570.964,209.55 597.109,209.55 597.109,204.35 623.655,204.35 623.655,209.55 644.8,209.55 644.8,235.423 650,235.423 650,261.495 644.8,261.495 644.8,287.168 650,287.168 650,313.241 644.8,313.241 644.8,338.914 650,338.914 650,364.986 644.8,364.986 644.8,390.659 650,390.659 650,416.732 644.8,416.732 644.8,442.405 650,442.405 650,468.477 644.8,468.477 644.8,494.35 365.2,494.35"
     fill="none"
     stroke="#000000"
     stroke-width="0.1mm"
     id="polyline4"
     transform="rotate(90,650,450)"
     style="fill:none;stroke:#000000;stroke-opacity:1;vector-effect:non-scaling-stroke;-inkscape-stroke:hairline;stroke-width:0.26458333;stroke-dasharray:none" />
  <polyline
     z="0"
     points="650,553.49 655.2,553.49 655.2,546.1 676.545,546.1 676.545,551.3 702.691,551.3 702.691,546.1 729.236,546.1 729.236,551.3 755.382,551.3 755.382,546.1 781.927,546.1 781.927,551.3 808.073,551.3 808.073,546.1 834.618,546.1 834.618,551.3 860.764,551.3 860.764,546.1 887.309,546.1 887.309,551.3 913.455,551.3 913.455,546.1 934.8,546.1 934.8,553.49 940,553.49 940,561.08 934.8,561.08 934.8,568.27 940,568.27 940,575.86 934.8,575.86 934.8,583.25 913.455,583.25 913.455,578.05 887.309,578.05 887.309,583.25 860.764,583.25 860.764,578.05 834.618,578.05 834.618,583.25 808.073,583.25 808.073,578.05 781.927,578.05 781.927,583.25 755.382,583.25 755.382,578.05 729.236,578.05 729.236,583.25 702.691,583.25 702.691,578.05 676.545,578.05 676.545,583.25 655.2,583.25 655.2,575.86 650,575.86 650,568.27 655.2,568.27 655.2,561.08 650,561.08 650,553.49"
     fill="none"
     stroke="#000000"
     stroke-width="0.1mm"
     id="polyline5"
     transform="rotate(90,650,450)"
     style="fill:none;stroke:#000000;stroke-opacity:1;vector-effect:non-scaling-stroke;-inkscape-stroke:hairline;stroke-width:0.26458333;stroke-dasharray:none" />
  <path
     id="polyline6"
     d="M 649.99992 639.44982 L 668.10011 639.44982 L 668.10011 634.25013 L 680.60012 634.25013 L 680.60012 639.44982 L 693.50011 639.44982 L 693.50011 634.25013 L 706.00012 634.25013 L 706.00012 639.44982 L 718.90011 639.44982 L 718.90011 634.25013 L 731.40012 634.25013 L 731.40012 639.44982 L 744.30011 639.44982 L 744.30011 634.25013 L 756.80012 634.25013 L 756.80012 639.44982 L 769.70011 639.44982 L 769.70011 634.25013 L 782.20012 634.25013 L 782.20012 639.44982 L 795.01123 639.44982 L 939.99979 607.68018 L 939.99979 602.30015 L 913.92697 602.30015 L 913.92697 607.49983 L 888.25515 607.49983 L 888.25515 602.30015 L 880.82511 602.30015 L 880.82511 596.77904 L 867.29622 583.25015 L 859.1639 583.25015 L 859.1639 588.44983 L 851.37316 588.44983 L 851.37316 583.25015 L 843.18193 583.25015 L 843.18193 588.44983 L 835.39119 588.44983 L 835.39119 583.25015 L 827.20099 583.25015 L 827.20099 588.44983 L 819.41025 588.44983 L 819.41025 583.25015 L 811.2521 583.25015 L 809.21088 588.17698 L 823.33405 602.30015 L 810.43612 602.30015 L 810.43612 607.49983 L 784.76379 607.49983 L 784.76379 602.30015 L 758.69096 602.30015 L 758.69096 607.49983 L 733.01811 607.49983 L 733.01811 602.30015 L 706.94477 602.30015 L 706.94477 607.49983 L 681.27295 607.49983 L 681.27295 602.30015 L 649.99992 602.30015 L 649.99992 609.88986 L 655.20012 609.88986 L 655.20012 617.08012 L 649.99992 617.08012 L 649.99992 624.66984 L 655.20012 624.66984 L 655.20012 631.8601 L 649.99992 631.8601 L 649.99992 639.44982 z M 836.50895 607.49983 L 836.50895 602.50013 L 862.1818 602.50013 L 862.1818 607.49983 L 836.50895 607.49983 z "
     transform="rotate(90,650,450)"
     style="fill:none;stroke:#000000;stroke-opacity:1;vector-effect:non-scaling-stroke;-inkscape-stroke:hairline;stroke-width:0.26458333;stroke-dasharray:none" />
  <polyline
     z="0"
     points="934.8,639.514 934.8,647.505 940,647.505 940,655.696 934.8,655.696 934.8,663.487 940,663.487 940,671.677 934.8,671.677 934.8,679.468 940,679.468 940,687.659 934.8,687.659 934.8,695.65 655.2,695.65 655.2,687.659 650,687.659 650,679.468 655.2,679.468 655.2,671.677 650,671.677 650,663.487 655.2,663.487 655.2,655.696 650,655.696 650,647.505 655.2,647.505 655.2,639.514 934.8,639.514"
     fill="none"
     stroke="#000000"
     stroke-width="0.1mm"
     id="polyline8"
     transform="rotate(90,650,450)"
     style="fill:none;stroke:#000000;stroke-opacity:1;vector-effect:non-scaling-stroke;-inkscape-stroke:hairline;stroke-width:0.26458333;stroke-dasharray:none" />
</svg>
