<?xml version="1.0" encoding="UTF-8" standalone="no"?>
<svg
   width="1300mm"
   height="900mm"
   viewBox="0 0 1300 900"
   version="1.1"
   id="svg6"
   sodipodi:docname="TissueDispenser.svg"
   inkscape:version="1.3.2 (091e20ef0f, 2023-11-25)"
   xmlns:inkscape="http://www.inkscape.org/namespaces/inkscape"
   xmlns:sodipodi="http://sodipodi.sourceforge.net/DTD/sodipodi-0.dtd"
   xmlns="http://www.w3.org/2000/svg"
   xmlns:svg="http://www.w3.org/2000/svg">
  <defs
     id="defs6" />
  <sodipodi:namedview
     id="namedview6"
     pagecolor="#505050"
     bordercolor="#eeeeee"
     borderopacity="1"
     inkscape:showpageshadow="0"
     inkscape:pageopacity="0"
     inkscape:pagecheckerboard="0"
     inkscape:deskcolor="#505050"
     inkscape:document-units="mm"
     inkscape:zoom="0.16343109"
     inkscape:cx="2456.6929"
     inkscape:cy="2450.5741"
     inkscape:window-width="1920"
     inkscape:window-height="1011"
     inkscape:window-x="0"
     inkscape:window-y="32"
     inkscape:window-maximized="1"
     inkscape:current-layer="svg6" />
  <polyline
     z="0"
     points="448.8,614.25 448.8,603.667 443.6,603.667 443.6,592.883 448.8,592.883 448.8,582.5 443.6,582.5 443.6,571.717 448.8,571.717 448.8,561.333 443.6,561.333 443.6,550.55 448.8,550.55 448.8,540.167 443.6,540.167 443.6,529.383 448.8,529.383 448.8,518.8 486.623,518.8 488.664,523.727 474.541,537.85 581.2,537.85 581.2,548.936 576,548.936 576,559.621 581.2,559.621 581.2,570.707 576,570.707 576,581.393 581.2,581.393 581.2,592.479 576,592.479 576,603.164 581.2,603.164 581.2,614.25 565.933,614.25 565.933,619.45 550.467,619.45 550.467,614.25 535.4,614.25 535.4,619.45 519.933,619.45 519.933,614.25 504.867,614.25 504.867,619.45 489.4,619.45 489.4,614.25 474.333,614.25 474.333,619.45 458.867,619.45 458.867,614.25 448.8,614.25"
     fill="none"
     stroke="#000000"
     stroke-width="0.1mm"
     id="polyline1"
     transform="rotate(-90,427.72489,465.97509)"
     style="vector-effect:non-scaling-stroke;fill:none;stroke:#000000;stroke-width:0.264583;stroke-dasharray:none;stroke-opacity:1;-inkscape-stroke:hairline" />
  <polyline
     z="0"
     points="458.867,518.8 458.867,513.6 443.6,513.6 443.6,502.514 448.8,502.514 448.8,491.829 443.6,491.829 443.6,480.743 448.8,480.743 448.8,470.057 443.6,470.057 443.6,458.971 448.8,458.971 448.8,448.286 443.6,448.286 443.6,437.2 550.259,437.2 536.136,423.077 538.177,418.15 576,418.15 576,428.733 581.2,428.733 581.2,439.517 576,439.517 576,449.9 581.2,449.9 581.2,460.683 576,460.683 576,471.067 581.2,471.067 581.2,481.85 576,481.85 576,492.233 581.2,492.233 581.2,503.017 576,503.017 576,513.6 565.933,513.6 565.933,518.8 550.467,518.8 550.467,513.6 535.4,513.6 535.4,518.8 519.933,518.8 519.933,513.6 504.867,513.6 504.867,518.8 489.4,518.8 489.4,513.6 474.333,513.6 474.333,518.8 458.867,518.8"
     fill="none"
     stroke="#000000"
     stroke-width="0.1mm"
     id="polyline2"
     transform="rotate(-90,546.8499,484.45009)"
     style="vector-effect:non-scaling-stroke;fill:none;stroke:#000000;stroke-width:0.264583;stroke-dasharray:none;stroke-opacity:1;-inkscape-stroke:hairline" />
  <path
     id="polyline3"
     d="m 581.1998,312.49999 v 15.46675 H 586.4 v 15.06627 h -5.2002 v 15.46675 H 586.4 v 15.0673 h -5.2002 v 15.46572 H 586.4 v 15.0673 h -5.2002 v 15.46676 H 586.4 v 15.06626 h -5.2002 v 15.46676 h 15.46728 v -5.2002 h 15.06574 v 5.2002 h 15.46728 v -5.2002 h 15.06678 v 5.2002 h 15.46624 v -5.2002 h 15.06678 v 5.2002 h 15.46727 v -5.2002 h 15.06575 v 5.2002 h 15.46727 V 434.6331 h -5.2002 v -15.06626 h 5.2002 v -15.46676 h -5.2002 v -15.0673 h 5.2002 v -15.46572 h -5.2002 v -15.0673 h 5.2002 v -15.46675 h -5.2002 v -15.06627 h 5.2002 v -15.46675 h -15.46727 v 5.19968 h -15.06575 v -5.19968 H 672.7999 v 5.19968 h -15.06678 v -5.19968 h -15.46624 v 5.19968 H 627.2001 v -5.19968 h -15.46728 v 5.19968 h -15.06574 v -5.19968 z m 62.13936,18.09967 h 13.32168 l 1.25419,0.063 1.23815,0.18501 1.21389,0.30902 1.17668,0.42633 1.12913,0.54157 1.07022,0.65216 0.99992,0.75396 0.91881,0.84904 0.832,0.93793 0.73432,1.01441 2.44068,4.21886 2.51406,5.5578 2.04019,5.89008 0.59583,2.39624 0.36018,2.44171 0.12092,2.46806 v 43.99008 l -0.12092,2.46807 -0.36018,2.44171 -0.59583,2.3952 -2.45102,6.90397 -2.50889,5.31803 -2.03502,3.44578 -0.73432,1.01389 -0.83199,0.93845 -0.91881,0.84904 -0.99993,0.75396 -1.07022,0.65164 -1.12913,0.54208 -1.17668,0.42634 -1.21388,0.3085 -1.23816,0.18501 -1.25419,0.063 h -13.32167 l -1.25418,-0.063 -1.23817,-0.18501 -1.21388,-0.3085 -1.17719,-0.42634 -1.12861,-0.54208 -1.07022,-0.65164 -0.99994,-0.75396 -0.91881,-0.84904 -0.83199,-0.93845 -0.73432,-1.01389 -2.44068,-4.21886 -2.51406,-5.5578 -2.04018,-5.89008 -0.59583,-2.39624 -0.36019,-2.44171 -0.12092,-2.46807 v -43.99008 l 0.12092,-2.46806 0.36019,-2.44171 0.59583,-2.39521 2.45101,-6.90397 2.50889,-5.31802 2.03502,-3.44578 0.73432,-1.01441 0.83199,-0.93793 0.91881,-0.84904 0.99994,-0.75396 1.07022,-0.65216 1.12861,-0.54157 1.17719,-0.42633 1.21388,-0.30902 1.23817,-0.18501 z"
     style="vector-effect:non-scaling-stroke;fill:none;stroke:#000000;stroke-width:0.264583;stroke-dasharray:none;stroke-opacity:1;-inkscape-stroke:hairline" />
  <polyline
     z="0"
     points="581.2,518.8 718.8,518.8 718.8,529.583 713.6,529.583 713.6,539.967 718.8,539.967 718.8,550.75 713.6,550.75 713.6,561.133 718.8,561.133 718.8,571.917 713.6,571.917 713.6,582.3 718.8,582.3 718.8,593.083 713.6,593.083 713.6,603.467 718.8,603.467 718.8,614.25 703.533,614.25 703.533,619.45 688.067,619.45 688.067,614.25 673,614.25 673,619.45 657.533,619.45 657.533,614.25 642.467,614.25 642.467,619.45 627,619.45 627,614.25 611.933,614.25 611.933,619.45 596.467,619.45 596.467,614.25 581.2,614.25 581.2,603.467 586.4,603.467 586.4,593.083 581.2,593.083 581.2,582.3 586.4,582.3 586.4,571.917 581.2,571.917 581.2,561.133 586.4,561.133 586.4,550.75 581.2,550.75 581.2,539.967 586.4,539.967 586.4,529.583 581.2,529.583 581.2,518.8"
     fill="none"
     stroke="#000000"
     stroke-width="0.1mm"
     id="polyline5"
     transform="rotate(90,803.57509,534.6751)"
     style="vector-effect:non-scaling-stroke;fill:none;stroke:#000000;stroke-width:0.264583;stroke-dasharray:none;stroke-opacity:1;-inkscape-stroke:hairline" />
  <polyline
     z="0"
     points="718.8,548.736 724,548.736 724,537.85 851.2,537.85 851.2,548.736 856.4,548.736 856.4,559.821 851.2,559.821 851.2,570.507 856.4,570.507 856.4,581.593 851.2,581.593 851.2,592.279 856.4,592.279 856.4,603.364 851.2,603.364 851.2,614.25 841.133,614.25 841.133,619.45 825.667,619.45 825.667,614.25 810.6,614.25 810.6,619.45 795.133,619.45 795.133,614.25 780.067,614.25 780.067,619.45 764.6,619.45 764.6,614.25 749.533,614.25 749.533,619.45 734.067,619.45 734.067,614.25 724,614.25 724,603.364 718.8,603.364 718.8,592.279 724,592.279 724,581.593 718.8,581.593 718.8,570.507 724,570.507 724,559.821 718.8,559.821 718.8,548.736"
     fill="none"
     stroke="#000000"
     stroke-width="0.1mm"
     id="polyline6"
     transform="rotate(-90,725.15011,443.54991)"
     style="vector-effect:non-scaling-stroke;fill:none;stroke:#000000;stroke-width:0.264583;stroke-dasharray:none;stroke-opacity:1;-inkscape-stroke:hairline" />
  <polyline
     z="0"
     points="448.8,614.25 448.8,603.667 443.6,603.667 443.6,592.883 448.8,592.883 448.8,582.5 443.6,582.5 443.6,571.717 448.8,571.717 448.8,561.333 443.6,561.333 443.6,550.55 448.8,550.55 448.8,540.167 443.6,540.167 443.6,529.383 448.8,529.383 448.8,518.8 486.623,518.8 488.664,523.727 474.541,537.85 581.2,537.85 581.2,548.936 576,548.936 576,559.621 581.2,559.621 581.2,570.707 576,570.707 576,581.393 581.2,581.393 581.2,592.479 576,592.479 576,603.164 581.2,603.164 581.2,614.25 565.933,614.25 565.933,619.45 550.467,619.45 550.467,614.25 535.4,614.25 535.4,619.45 519.933,619.45 519.933,614.25 504.867,614.25 504.867,619.45 489.4,619.45 489.4,614.25 474.333,614.25 474.333,619.45 458.867,619.45 458.867,614.25 448.8,614.25"
     fill="none"
     stroke="#000000"
     stroke-width="0.1mm"
     id="polyline1-4"
     transform="rotate(90,574.74991,443.6499)"
     style="vector-effect:non-scaling-stroke;fill:none;stroke:#000000;stroke-width:0.264583;stroke-dasharray:none;stroke-opacity:1;-inkscape-stroke:hairline" />
  <polyline
     z="0"
     points="458.867,518.8 458.867,513.6 443.6,513.6 443.6,502.514 448.8,502.514 448.8,491.829 443.6,491.829 443.6,480.743 448.8,480.743 448.8,470.057 443.6,470.057 443.6,458.971 448.8,458.971 448.8,448.286 443.6,448.286 443.6,437.2 550.259,437.2 536.136,423.077 538.177,418.15 576,418.15 576,428.733 581.2,428.733 581.2,439.517 576,439.517 576,449.9 581.2,449.9 581.2,460.683 576,460.683 576,471.067 581.2,471.067 581.2,481.85 576,481.85 576,492.233 581.2,492.233 581.2,503.017 576,503.017 576,513.6 565.933,513.6 565.933,518.8 550.467,518.8 550.467,513.6 535.4,513.6 535.4,518.8 519.933,518.8 519.933,513.6 504.867,513.6 504.867,518.8 489.4,518.8 489.4,513.6 474.333,513.6 474.333,518.8 458.867,518.8"
     fill="none"
     stroke="#000000"
     stroke-width="0.1mm"
     id="polyline2-1"
     transform="rotate(90,455.62491,462.12489)"
     style="vector-effect:non-scaling-stroke;fill:none;stroke:#000000;stroke-width:0.264583;stroke-dasharray:none;stroke-opacity:1;-inkscape-stroke:hairline" />
  <path
     id="polyline3-8"
     d="m 581.1998,450.1 v 15.46675 H 586.4 v 15.06627 h -5.2002 v 15.46675 H 586.4 v 15.0673 h -5.2002 v 15.46572 H 586.4 v 15.0673 h -5.2002 v 15.46676 H 586.4 v 15.06626 h -5.2002 v 15.46676 h 15.46728 v -5.2002 h 15.06574 v 5.2002 h 15.46728 v -5.2002 h 15.06678 v 5.2002 h 15.46624 v -5.2002 h 15.06678 v 5.2002 h 15.46727 v -5.2002 h 15.06575 v 5.2002 h 15.46727 v -15.46676 h -5.2002 v -15.06626 h 5.2002 v -15.46676 h -5.2002 v -15.0673 h 5.2002 v -15.46572 h -5.2002 v -15.0673 h 5.2002 v -15.46675 h -5.2002 v -15.06627 h 5.2002 V 450.1 h -15.46727 v 5.19967 H 688.26717 V 450.1 H 672.7999 v 5.19967 H 657.73312 V 450.1 h -15.46624 v 5.19967 H 627.2001 V 450.1 h -15.46728 v 5.19967 H 596.66708 V 450.1 Z m 62.13936,18.09966 h 13.32168 l 1.25419,0.063 1.23815,0.18501 1.21389,0.30903 1.17668,0.42633 1.12913,0.54157 1.07022,0.65215 0.99992,0.75396 0.91881,0.84904 0.832,0.93793 0.73432,1.01441 2.44068,4.21886 2.51406,5.5578 2.04019,5.89008 0.59583,2.39625 0.36018,2.4417 0.12092,2.46807 v 43.99008 l -0.12092,2.46807 -0.36018,2.44171 -0.59583,2.3952 -2.45102,6.90397 -2.50889,5.31803 -2.03502,3.44578 -0.73432,1.01388 -0.83199,0.93845 -0.91881,0.84904 -0.99993,0.75396 -1.07022,0.65164 -1.12913,0.54209 -1.17668,0.42634 -1.21388,0.30849 -1.23816,0.18502 -1.25419,0.063 h -13.32167 l -1.25418,-0.063 -1.23817,-0.18502 -1.21388,-0.30849 -1.17719,-0.42634 -1.12861,-0.54209 -1.07022,-0.65164 -0.99994,-0.75396 -0.91881,-0.84904 -0.83199,-0.93845 -0.73432,-1.01388 -2.44068,-4.21886 -2.51406,-5.5578 -2.04018,-5.89008 -0.59583,-2.39624 -0.36019,-2.44171 -0.12092,-2.46807 v -43.99008 l 0.12092,-2.46807 0.36019,-2.4417 0.59583,-2.39521 2.45101,-6.90397 2.50889,-5.31802 2.03502,-3.44579 0.73432,-1.01441 0.83199,-0.93793 0.91881,-0.84904 0.99994,-0.75396 1.07022,-0.65215 1.12861,-0.54157 1.17719,-0.42633 1.21388,-0.30903 1.23817,-0.18501 z"
     style="vector-effect:non-scaling-stroke;fill:none;stroke:#000000;stroke-width:0.264583;stroke-dasharray:none;stroke-opacity:1;-inkscape-stroke:hairline" />
  <polyline
     z="0"
     points="581.2,518.8 718.8,518.8 718.8,529.583 713.6,529.583 713.6,539.967 718.8,539.967 718.8,550.75 713.6,550.75 713.6,561.133 718.8,561.133 718.8,571.917 713.6,571.917 713.6,582.3 718.8,582.3 718.8,593.083 713.6,593.083 713.6,603.467 718.8,603.467 718.8,614.25 703.533,614.25 703.533,619.45 688.067,619.45 688.067,614.25 673,614.25 673,619.45 657.533,619.45 657.533,614.25 642.467,614.25 642.467,619.45 627,619.45 627,614.25 611.933,614.25 611.933,619.45 596.467,619.45 596.467,614.25 581.2,614.25 581.2,603.467 586.4,603.467 586.4,593.083 581.2,593.083 581.2,582.3 586.4,582.3 586.4,571.917 581.2,571.917 581.2,561.133 586.4,561.133 586.4,550.75 581.2,550.75 581.2,539.967 586.4,539.967 586.4,529.583 581.2,529.583 581.2,518.8"
     fill="none"
     stroke="#000000"
     stroke-width="0.1mm"
     id="polyline5-5"
     transform="rotate(90,734.77509,603.47511)"
     style="vector-effect:non-scaling-stroke;fill:none;stroke:#000000;stroke-width:0.264583;stroke-dasharray:none;stroke-opacity:1;-inkscape-stroke:hairline" />
  <polyline
     z="0"
     points="718.8,548.736 724,548.736 724,537.85 851.2,537.85 851.2,548.736 856.4,548.736 856.4,559.821 851.2,559.821 851.2,570.507 856.4,570.507 856.4,581.593 851.2,581.593 851.2,592.279 856.4,592.279 856.4,603.364 851.2,603.364 851.2,614.25 841.133,614.25 841.133,619.45 825.667,619.45 825.667,614.25 810.6,614.25 810.6,619.45 795.133,619.45 795.133,614.25 780.067,614.25 780.067,619.45 764.6,619.45 764.6,614.25 749.533,614.25 749.533,619.45 734.067,619.45 734.067,614.25 724,614.25 724,603.364 718.8,603.364 718.8,592.279 724,592.279 724,581.593 718.8,581.593 718.8,570.507 724,570.507 724,559.821 718.8,559.821 718.8,548.736"
     fill="none"
     stroke="#000000"
     stroke-width="0.1mm"
     id="polyline6-9"
     transform="rotate(-90,793.9501,512.34991)"
     style="vector-effect:non-scaling-stroke;fill:none;stroke:#000000;stroke-width:0.264583;stroke-dasharray:none;stroke-opacity:1;-inkscape-stroke:hairline" />
</svg>
