<?xml version="1.0" encoding="UTF-8" standalone="no"?>
<svg
   width="1300mm"
   height="900mm"
   viewBox="0 0 1300 900"
   version="1.1"
   id="svg6"
   sodipodi:docname="TissureDispenser.svg"
   inkscape:version="1.3.2 (091e20ef0f, 2023-11-25)"
   xmlns:inkscape="http://www.inkscape.org/namespaces/inkscape"
   xmlns:sodipodi="http://sodipodi.sourceforge.net/DTD/sodipodi-0.dtd"
   xmlns="http://www.w3.org/2000/svg"
   xmlns:svg="http://www.w3.org/2000/svg">
  <defs
     id="defs6" />
  <sodipodi:namedview
     id="namedview6"
     pagecolor="#505050"
     bordercolor="#eeeeee"
     borderopacity="1"
     inkscape:showpageshadow="0"
     inkscape:pageopacity="0"
     inkscape:pagecheckerboard="0"
     inkscape:deskcolor="#505050"
     inkscape:document-units="mm"
     inkscape:zoom="0.16343109"
     inkscape:cx="2453.6335"
     inkscape:cy="1697.9633"
     inkscape:window-width="1920"
     inkscape:window-height="1011"
     inkscape:window-x="0"
     inkscape:window-y="32"
     inkscape:window-maximized="1"
     inkscape:current-layer="svg6" />
  <polyline
     z="0"
     points="448.8,614.25 448.8,603.667 443.6,603.667 443.6,592.883 448.8,592.883 448.8,582.5 443.6,582.5 443.6,571.717 448.8,571.717 448.8,561.333 443.6,561.333 443.6,550.55 448.8,550.55 448.8,540.167 443.6,540.167 443.6,529.383 448.8,529.383 448.8,518.8 486.623,518.8 488.664,523.727 474.541,537.85 581.2,537.85 581.2,548.936 576,548.936 576,559.621 581.2,559.621 581.2,570.707 576,570.707 576,581.393 581.2,581.393 581.2,592.479 576,592.479 576,603.164 581.2,603.164 581.2,614.25 565.933,614.25 565.933,619.45 550.467,619.45 550.467,614.25 535.4,614.25 535.4,619.45 519.933,619.45 519.933,614.25 504.867,614.25 504.867,619.45 489.4,619.45 489.4,614.25 474.333,614.25 474.333,619.45 458.867,619.45 458.867,614.25 448.8,614.25"
     fill="none"
     stroke="#000000"
     stroke-width="0.1mm"
     id="polyline1"
     transform="rotate(90,650,450)"
     style="fill:none;stroke:#000000;stroke-opacity:1;vector-effect:non-scaling-stroke;-inkscape-stroke:hairline;stroke-width:0.26458333;stroke-dasharray:none" />
  <polyline
     z="0"
     points="458.867,518.8 458.867,513.6 443.6,513.6 443.6,502.514 448.8,502.514 448.8,491.829 443.6,491.829 443.6,480.743 448.8,480.743 448.8,470.057 443.6,470.057 443.6,458.971 448.8,458.971 448.8,448.286 443.6,448.286 443.6,437.2 550.259,437.2 536.136,423.077 538.177,418.15 576,418.15 576,428.733 581.2,428.733 581.2,439.517 576,439.517 576,449.9 581.2,449.9 581.2,460.683 576,460.683 576,471.067 581.2,471.067 581.2,481.85 576,481.85 576,492.233 581.2,492.233 581.2,503.017 576,503.017 576,513.6 565.933,513.6 565.933,518.8 550.467,518.8 550.467,513.6 535.4,513.6 535.4,518.8 519.933,518.8 519.933,513.6 504.867,513.6 504.867,518.8 489.4,518.8 489.4,513.6 474.333,513.6 474.333,518.8 458.867,518.8"
     fill="none"
     stroke="#000000"
     stroke-width="0.1mm"
     id="polyline2"
     transform="rotate(90,650,450)"
     style="fill:none;stroke:#000000;stroke-opacity:1;vector-effect:non-scaling-stroke;-inkscape-stroke:hairline;stroke-width:0.26458333;stroke-dasharray:none" />
  <path
     id="polyline3"
     d="M 443.60012 418.15015 L 459.06687 418.15015 L 459.06687 412.94995 L 474.13314 412.94995 L 474.13314 418.15015 L 489.59989 418.15015 L 489.59989 412.94995 L 504.66719 412.94995 L 504.66719 418.15015 L 520.13291 418.15015 L 520.13291 412.94995 L 535.20021 412.94995 L 535.20021 418.15015 L 550.66697 418.15015 L 550.66697 412.94995 L 565.73323 412.94995 L 565.73323 418.15015 L 581.19999 418.15015 L 581.19999 402.68287 L 575.99979 402.68287 L 575.99979 387.61713 L 581.19999 387.61713 L 581.19999 372.14985 L 575.99979 372.14985 L 575.99979 357.08307 L 581.19999 357.08307 L 581.19999 341.61683 L 575.99979 341.61683 L 575.99979 326.55005 L 581.19999 326.55005 L 581.19999 311.08278 L 575.99979 311.08278 L 575.99979 296.01703 L 581.19999 296.01703 L 581.19999 280.54976 L 565.73323 280.54976 L 565.73323 285.74996 L 550.66697 285.74996 L 550.66697 280.54976 L 535.20021 280.54976 L 535.20021 285.74996 L 520.13291 285.74996 L 520.13291 280.54976 L 504.66719 280.54976 L 504.66719 285.74996 L 489.59989 285.74996 L 489.59989 280.54976 L 474.13314 280.54976 L 474.13314 285.74996 L 459.06687 285.74996 L 459.06687 280.54976 L 443.60012 280.54976 L 443.60012 296.01703 L 448.7998 296.01703 L 448.7998 311.08278 L 443.60012 311.08278 L 443.60012 326.55005 L 448.7998 326.55005 L 448.7998 341.61683 L 443.60012 341.61683 L 443.60012 357.08307 L 448.7998 357.08307 L 448.7998 372.14985 L 443.60012 372.14985 L 443.60012 387.61713 L 448.7998 387.61713 L 448.7998 402.68287 L 443.60012 402.68287 L 443.60012 418.15015 z M 461.69979 356.01079 L 461.69979 342.68912 L 461.76283 341.43493 L 461.94784 340.19677 L 462.25686 338.98289 L 462.68319 337.80621 L 463.22476 336.67708 L 463.87692 335.60686 L 464.63088 334.60693 L 465.47992 333.68812 L 466.41785 332.85613 L 467.43226 332.12181 L 471.65112 329.68113 L 477.20892 327.16707 L 483.099 325.12688 L 485.49524 324.53105 L 487.93695 324.17087 L 490.40501 324.04995 L 534.39509 324.04995 L 536.86316 324.17087 L 539.30487 324.53105 L 541.70007 325.12688 L 548.60404 327.5779 L 553.92207 330.08679 L 557.36785 332.12181 L 558.38174 332.85613 L 559.32019 333.68812 L 560.16923 334.60693 L 560.92319 335.60686 L 561.57483 336.67708 L 562.11691 337.80621 L 562.54325 338.98289 L 562.85175 340.19677 L 563.03676 341.43493 L 563.0998 342.68912 L 563.0998 356.01079 L 563.03676 357.26497 L 562.85175 358.50314 L 562.54325 359.71702 L 562.11691 360.89421 L 561.57483 362.02282 L 560.92319 363.09304 L 560.16923 364.09298 L 559.32019 365.01179 L 558.38174 365.84378 L 557.36785 366.5781 L 553.14899 369.01878 L 547.59119 371.53284 L 541.70111 373.57302 L 539.30487 374.16885 L 536.86316 374.52904 L 534.39509 374.64996 L 490.40501 374.64996 L 487.93695 374.52904 L 485.49524 374.16885 L 483.10003 373.57302 L 476.19606 371.12201 L 470.87804 368.61312 L 467.43226 366.5781 L 466.41785 365.84378 L 465.47992 365.01179 L 464.63088 364.09298 L 463.87692 363.09304 L 463.22476 362.02282 L 462.68319 360.89421 L 462.25686 359.71702 L 461.94784 358.50314 L 461.76283 357.26497 L 461.69979 356.01079 z "
     transform="rotate(90,650,450)"
     style="fill:none;stroke:#000000;stroke-opacity:1;vector-effect:non-scaling-stroke;-inkscape-stroke:hairline;stroke-width:0.26458333;stroke-dasharray:none" />
  <polyline
     z="0"
     points="581.2,518.8 718.8,518.8 718.8,529.583 713.6,529.583 713.6,539.967 718.8,539.967 718.8,550.75 713.6,550.75 713.6,561.133 718.8,561.133 718.8,571.917 713.6,571.917 713.6,582.3 718.8,582.3 718.8,593.083 713.6,593.083 713.6,603.467 718.8,603.467 718.8,614.25 703.533,614.25 703.533,619.45 688.067,619.45 688.067,614.25 673,614.25 673,619.45 657.533,619.45 657.533,614.25 642.467,614.25 642.467,619.45 627,619.45 627,614.25 611.933,614.25 611.933,619.45 596.467,619.45 596.467,614.25 581.2,614.25 581.2,603.467 586.4,603.467 586.4,593.083 581.2,593.083 581.2,582.3 586.4,582.3 586.4,571.917 581.2,571.917 581.2,561.133 586.4,561.133 586.4,550.75 581.2,550.75 581.2,539.967 586.4,539.967 586.4,529.583 581.2,529.583 581.2,518.8"
     fill="none"
     stroke="#000000"
     stroke-width="0.1mm"
     id="polyline5"
     transform="rotate(90,650,450)"
     style="fill:none;stroke:#000000;stroke-opacity:1;vector-effect:non-scaling-stroke;-inkscape-stroke:hairline;stroke-width:0.26458333;stroke-dasharray:none" />
  <polyline
     z="0"
     points="718.8,548.736 724,548.736 724,537.85 851.2,537.85 851.2,548.736 856.4,548.736 856.4,559.821 851.2,559.821 851.2,570.507 856.4,570.507 856.4,581.593 851.2,581.593 851.2,592.279 856.4,592.279 856.4,603.364 851.2,603.364 851.2,614.25 841.133,614.25 841.133,619.45 825.667,619.45 825.667,614.25 810.6,614.25 810.6,619.45 795.133,619.45 795.133,614.25 780.067,614.25 780.067,619.45 764.6,619.45 764.6,614.25 749.533,614.25 749.533,619.45 734.067,619.45 734.067,614.25 724,614.25 724,603.364 718.8,603.364 718.8,592.279 724,592.279 724,581.593 718.8,581.593 718.8,570.507 724,570.507 724,559.821 718.8,559.821 718.8,548.736"
     fill="none"
     stroke="#000000"
     stroke-width="0.1mm"
     id="polyline6"
     transform="rotate(90,650,450)"
     style="fill:none;stroke:#000000;stroke-opacity:1;vector-effect:non-scaling-stroke;-inkscape-stroke:hairline;stroke-width:0.26458333;stroke-dasharray:none" />
</svg>
