<?xml version="1.0" encoding="UTF-8" standalone="no"?>
<svg
   width="1300mm"
   height="900mm"
   viewBox="0 0 1300 900"
   version="1.1"
   id="svg7"
   sodipodi:docname="Tray-0-119.svg"
   inkscape:version="1.4 (e7c3feb100, 2024-10-09)"
   xmlns:inkscape="http://www.inkscape.org/namespaces/inkscape"
   xmlns:sodipodi="http://sodipodi.sourceforge.net/DTD/sodipodi-0.dtd"
   xmlns="http://www.w3.org/2000/svg"
   xmlns:svg="http://www.w3.org/2000/svg">
  <defs
     id="defs7" />
  <sodipodi:namedview
     id="namedview7"
     pagecolor="#505050"
     bordercolor="#eeeeee"
     borderopacity="1"
     inkscape:showpageshadow="0"
     inkscape:pageopacity="0"
     inkscape:pagecheckerboard="0"
     inkscape:deskcolor="#505050"
     inkscape:document-units="mm"
     inkscape:zoom="0.1182484"
     inkscape:cx="2477.8348"
     inkscape:cy="2000.0271"
     inkscape:window-width="1920"
     inkscape:window-height="1011"
     inkscape:window-x="0"
     inkscape:window-y="32"
     inkscape:window-maximized="1"
     inkscape:current-layer="svg7" />
  <polyline
     z="0"
     points="400.6,429.463 400.6,424.263 390.6,424.263 390.6,414.196 385.4,414.196 385.4,398.73 390.6,398.73 390.6,383.663 385.4,383.663 385.4,368.196 390.6,368.196 390.6,353.13 385.4,353.13 385.4,337.663 390.6,337.663 390.6,322.596 385.4,322.596 385.4,307.13 390.6,307.13 390.6,297.063 403.53,297.063 403.53,291.863 416.66,291.863 416.66,297.063 429.39,297.063 429.39,292.063 423.559,292.063 409.236,277.741 411.444,272.411 411.444,278.013 425.913,278.013 425.913,272.813 440.781,272.813 440.781,278.013 455.45,278.013 455.45,292.063 442.52,292.063 442.52,297.063 455.48,297.063 420.6,430.139 420.6,424.263 410.8,424.263 410.8,429.463 400.6,429.463"
     fill="none"
     stroke="#000000"
     stroke-width="0.1mm"
     id="polyline4"
     transform="rotate(90,622.69402,534.43425)"
     style="vector-effect:non-scaling-stroke;stroke-width:0.264583;stroke-dasharray:none;-inkscape-stroke:hairline" />
  <polyline
     z="0"
     points="490.359,430.139 455.48,297.063 468.439,297.063 468.439,292.063 455.509,292.063 455.509,278.013 470.178,278.013 470.178,272.813 485.046,272.813 485.046,278.013 499.515,278.013 499.515,272.411 501.723,277.741 487.401,292.063 481.569,292.063 481.569,297.063 494.299,297.063 494.299,291.863 507.429,291.863 507.429,297.063 520.359,297.063 520.359,307.13 525.559,307.13 525.559,322.596 520.359,322.596 520.359,337.663 525.559,337.663 525.559,353.13 520.359,353.13 520.359,368.196 525.559,368.196 525.559,383.663 520.359,383.663 520.359,398.73 525.559,398.73 525.559,414.196 520.359,414.196 520.359,424.263 510.359,424.263 510.359,429.463 500.159,429.463 500.159,424.263 490.359,424.263 490.359,430.139"
     fill="none"
     stroke="#000000"
     stroke-width="0.1mm"
     id="polyline5"
     transform="rotate(90,692.77352,464.35476)"
     style="vector-effect:non-scaling-stroke;stroke-width:0.264583;stroke-dasharray:none;-inkscape-stroke:hairline" />
  <polyline
     z="0"
     points="400.6,429.463 400.6,424.263 390.6,424.263 390.6,414.196 385.4,414.196 385.4,398.73 390.6,398.73 390.6,383.663 385.4,383.663 385.4,368.196 390.6,368.196 390.6,353.13 385.4,353.13 385.4,337.663 390.6,337.663 390.6,322.596 385.4,322.596 385.4,307.13 390.6,307.13 390.6,297.063 403.53,297.063 403.53,291.863 416.66,291.863 416.66,297.063 429.39,297.063 429.39,292.063 423.559,292.063 409.236,277.741 411.444,272.411 411.444,278.013 425.913,278.013 425.913,272.813 440.781,272.813 440.781,278.013 455.45,278.013 455.45,292.063 442.52,292.063 442.52,297.063 455.48,297.063 420.6,430.139 420.6,424.263 410.8,424.263 410.8,429.463 400.6,429.463"
     fill="none"
     stroke="#000000"
     stroke-width="0.1mm"
     id="polyline4-5"
     transform="rotate(-90,624.42997,169.85171)"
     style="vector-effect:non-scaling-stroke;stroke-width:0.264583;stroke-dasharray:none;-inkscape-stroke:hairline" />
  <polyline
     z="0"
     points="490.359,430.139 455.48,297.063 468.439,297.063 468.439,292.063 455.509,292.063 455.509,278.013 470.178,278.013 470.178,272.813 485.046,272.813 485.046,278.013 499.515,278.013 499.515,272.411 501.723,277.741 487.401,292.063 481.569,292.063 481.569,297.063 494.299,297.063 494.299,291.863 507.429,291.863 507.429,297.063 520.359,297.063 520.359,307.13 525.559,307.13 525.559,322.596 520.359,322.596 520.359,337.663 525.559,337.663 525.559,353.13 520.359,353.13 520.359,368.196 525.559,368.196 525.559,383.663 520.359,383.663 520.359,398.73 525.559,398.73 525.559,414.196 520.359,414.196 520.359,424.263 510.359,424.263 510.359,429.463 500.159,429.463 500.159,424.263 490.359,424.263 490.359,430.139"
     fill="none"
     stroke="#000000"
     stroke-width="0.1mm"
     id="polyline5-9"
     transform="rotate(-90,582.76864,128.19037)"
     style="vector-effect:non-scaling-stroke;stroke-width:0.264583;stroke-dasharray:none;-inkscape-stroke:hairline" />
  <polyline
     z="0"
     points="385.4,622.389 385.4,608.339 397.827,608.339 397.827,603.139 415.653,603.139 415.653,608.339 433.08,608.339 433.08,603.139 450.907,603.139 450.907,608.339 468.333,608.339 468.333,603.139 486.16,603.139 486.16,608.339 503.587,608.339 503.587,603.139 521.413,603.139 521.413,608.339 538.84,608.339 538.84,603.139 556.667,603.139 556.667,608.339 574.093,608.339 574.093,603.139 591.92,603.139 591.92,608.339 609.347,608.339 609.347,603.139 627.173,603.139 627.173,608.339 639.6,608.339 639.6,622.389 627.173,622.389 627.173,627.589 609.347,627.589 609.347,622.389 591.92,622.389 591.92,627.589 574.093,627.589 574.093,622.389 556.667,622.389 556.667,627.589 538.84,627.589 538.84,622.389 521.413,622.389 521.413,627.589 503.587,627.589 503.587,622.389 486.16,622.389 486.16,627.589 468.333,627.589 468.333,622.389 450.907,622.389 450.907,627.589 433.08,627.589 433.08,622.389 415.653,622.389 415.653,627.589 397.827,627.589 397.827,622.389 385.4,622.389"
     fill="none"
     stroke="#000000"
     stroke-width="0.1mm"
     id="polyline1"
     transform="rotate(90,521.56087,591.36086)"
     style="vector-effect:non-scaling-stroke;stroke-width:0.264583;stroke-dasharray:none;-inkscape-stroke:hairline" />
  <polyline
     z="0"
     points="385.4,603.139 385.4,587.672 390.6,587.672 390.6,572.606 385.4,572.606 385.4,557.139 390.6,557.139 390.6,542.072 385.4,542.072 385.4,526.606 390.6,526.606 390.6,511.539 385.4,511.539 385.4,496.072 390.6,496.072 390.6,481.006 385.4,481.006 385.4,465.539 403.227,465.539 403.227,470.739 420.653,470.739 420.653,465.539 438.48,465.539 438.48,470.739 455.907,470.739 455.907,465.539 473.733,465.539 473.733,470.739 491.16,470.739 491.16,465.539 508.987,465.539 508.987,470.739 526.413,470.739 526.413,465.539 544.24,465.539 544.24,470.739 561.667,470.739 561.667,465.539 579.493,465.539 579.493,470.739 596.92,470.739 596.92,465.539 614.747,465.539 614.747,470.739 632.173,470.739 632.173,465.539 650,465.539 650,481.006 644.8,481.006 644.8,496.072 650,496.072 650,511.539 644.8,511.539 644.8,526.606 650,526.606 650,542.072 644.8,542.072 644.8,557.139 650,557.139 650,572.606 644.8,572.606 644.8,587.672 650,587.672 650,603.139 632.173,603.139 632.173,597.939 614.747,597.939 614.747,603.139 596.92,603.139 596.92,597.939 579.493,597.939 579.493,603.139 561.667,603.139 561.667,597.939 544.24,597.939 544.24,603.139 526.413,603.139 526.413,597.939 508.987,597.939 508.987,603.139 491.16,603.139 491.16,597.939 473.733,597.939 473.733,603.139 455.907,603.139 455.907,597.939 438.48,597.939 438.48,603.139 420.653,603.139 420.653,597.939 403.227,597.939 403.227,603.139 385.4,603.139"
     fill="none"
     stroke="#000000"
     stroke-width="0.1mm"
     id="polyline2"
     transform="rotate(90,563.96386,628.56386)"
     style="vector-effect:non-scaling-stroke;stroke-width:0.264583;stroke-dasharray:none;-inkscape-stroke:hairline" />
  <polyline
     z="0"
     points="403.027,465.539 403.027,460.339 385.4,460.339 385.4,450.139 390.6,450.139 390.6,440.339 385.4,440.339 385.4,430.139 650,430.139 650,440.339 644.8,440.339 644.8,450.139 650,450.139 650,460.339 632.373,460.339 632.373,465.539 614.547,465.539 614.547,460.339 597.12,460.339 597.12,465.539 579.293,465.539 579.293,460.339 561.867,460.339 561.867,465.539 544.04,465.539 544.04,460.339 526.613,460.339 526.613,465.539 508.787,465.539 508.787,460.339 491.36,460.339 491.36,465.539 473.533,465.539 473.533,460.339 456.107,460.339 456.107,465.539 438.28,465.539 438.28,460.339 420.853,460.339 420.853,465.539 403.027,465.539"
     fill="none"
     stroke="#000000"
     stroke-width="0.1mm"
     id="polyline3"
     transform="rotate(90,455.36086,519.96086)"
     style="vector-effect:non-scaling-stroke;stroke-width:0.264583;stroke-dasharray:none;-inkscape-stroke:hairline" />
  <polyline
     z="0"
     points="650,488.883 667.827,488.883 667.827,494.083 685.253,494.083 685.253,488.883 703.08,488.883 703.08,494.083 720.507,494.083 720.507,488.883 738.333,488.883 738.333,494.083 755.76,494.083 755.76,488.883 773.587,488.883 773.587,494.083 791.013,494.083 791.013,488.883 808.84,488.883 808.84,494.083 826.267,494.083 826.267,488.883 844.093,488.883 844.093,494.083 861.52,494.083 861.52,488.883 879.347,488.883 879.347,494.083 896.773,494.083 896.773,488.883 914.6,488.883 914.6,503.752 909.4,503.752 909.4,518.22 914.6,518.22 914.6,533.089 650,533.089 650,518.22 655.2,518.22 655.2,503.752 650,503.752 650,488.883"
     fill="none"
     stroke="#000000"
     stroke-width="0.1mm"
     id="polyline6"
     transform="rotate(90,639.13586,439.13586)"
     style="vector-effect:non-scaling-stroke;stroke-width:0.264583;stroke-dasharray:none;-inkscape-stroke:hairline" />
  <polyline
     z="0"
     points="650,533.089 667.827,533.089 667.827,538.289 685.253,538.289 685.253,533.089 703.08,533.089 703.08,538.289 720.507,538.289 720.507,533.089 738.333,533.089 738.333,538.289 755.76,538.289 755.76,533.089 773.587,533.089 773.587,538.289 791.013,538.289 791.013,533.089 808.84,533.089 808.84,538.289 826.267,538.289 826.267,533.089 844.093,533.089 844.093,538.289 861.52,538.289 861.52,533.089 879.347,533.089 879.347,538.289 896.773,538.289 896.773,533.089 914.6,533.089 914.6,546.219 909.4,546.219 909.4,558.949 914.6,558.949 914.6,572.079 909.4,572.079 909.4,584.809 914.6,584.809 914.6,597.939 896.973,597.939 896.973,603.139 879.147,603.139 879.147,597.939 861.72,597.939 861.72,603.139 843.893,603.139 843.893,597.939 826.467,597.939 826.467,603.139 808.64,603.139 808.64,597.939 791.213,597.939 791.213,603.139 773.387,603.139 773.387,597.939 755.96,597.939 755.96,603.139 738.133,603.139 738.133,597.939 720.707,597.939 720.707,603.139 702.88,603.139 702.88,597.939 685.453,597.939 685.453,603.139 667.627,603.139 667.627,597.939 650,597.939 650,584.809 655.2,584.809 655.2,572.079 650,572.079 650,558.949 655.2,558.949 655.2,546.219 650,546.219 650,533.089"
     fill="none"
     stroke="#000000"
     stroke-width="0.1mm"
     id="polyline7"
     transform="matrix(0,1,1,0,-117.80627,-200)"
     style="vector-effect:non-scaling-stroke;stroke-width:0.264583;stroke-dasharray:none;-inkscape-stroke:hairline" />
  <polyline
     z="0"
     points="385.4,622.389 385.4,608.339 397.827,608.339 397.827,603.139 415.653,603.139 415.653,608.339 433.08,608.339 433.08,603.139 450.907,603.139 450.907,608.339 468.333,608.339 468.333,603.139 486.16,603.139 486.16,608.339 503.587,608.339 503.587,603.139 521.413,603.139 521.413,608.339 538.84,608.339 538.84,603.139 556.667,603.139 556.667,608.339 574.093,608.339 574.093,603.139 591.92,603.139 591.92,608.339 609.347,608.339 609.347,603.139 627.173,603.139 627.173,608.339 639.6,608.339 639.6,622.389 627.173,622.389 627.173,627.589 609.347,627.589 609.347,622.389 591.92,622.389 591.92,627.589 574.093,627.589 574.093,622.389 556.667,622.389 556.667,627.589 538.84,627.589 538.84,622.389 521.413,622.389 521.413,627.589 503.587,627.589 503.587,622.389 486.16,622.389 486.16,627.589 468.333,627.589 468.333,622.389 450.907,622.389 450.907,627.589 433.08,627.589 433.08,622.389 415.653,622.389 415.653,627.589 397.827,627.589 397.827,622.389 385.4,622.389"
     fill="none"
     stroke="#000000"
     stroke-width="0.1mm"
     id="polyline1-2"
     transform="rotate(90,653.86086,459.06087)"
     style="vector-effect:non-scaling-stroke;stroke-width:0.264583;stroke-dasharray:none;-inkscape-stroke:hairline" />
  <polyline
     z="0"
     points="385.4,603.139 385.4,587.672 390.6,587.672 390.6,572.606 385.4,572.606 385.4,557.139 390.6,557.139 390.6,542.072 385.4,542.072 385.4,526.606 390.6,526.606 390.6,511.539 385.4,511.539 385.4,496.072 390.6,496.072 390.6,481.006 385.4,481.006 385.4,465.539 403.227,465.539 403.227,470.739 420.653,470.739 420.653,465.539 438.48,465.539 438.48,470.739 455.907,470.739 455.907,465.539 473.733,465.539 473.733,470.739 491.16,470.739 491.16,465.539 508.987,465.539 508.987,470.739 526.413,470.739 526.413,465.539 544.24,465.539 544.24,470.739 561.667,470.739 561.667,465.539 579.493,465.539 579.493,470.739 596.92,470.739 596.92,465.539 614.747,465.539 614.747,470.739 632.173,470.739 632.173,465.539 650,465.539 650,481.006 644.8,481.006 644.8,496.072 650,496.072 650,511.539 644.8,511.539 644.8,526.606 650,526.606 650,542.072 644.8,542.072 644.8,557.139 650,557.139 650,572.606 644.8,572.606 644.8,587.672 650,587.672 650,603.139 632.173,603.139 632.173,597.939 614.747,597.939 614.747,603.139 596.92,603.139 596.92,597.939 579.493,597.939 579.493,603.139 561.667,603.139 561.667,597.939 544.24,597.939 544.24,603.139 526.413,603.139 526.413,597.939 508.987,597.939 508.987,603.139 491.16,603.139 491.16,597.939 473.733,597.939 473.733,603.139 455.907,603.139 455.907,597.939 438.48,597.939 438.48,603.139 420.653,603.139 420.653,597.939 403.227,597.939 403.227,603.139 385.4,603.139"
     fill="none"
     stroke="#000000"
     stroke-width="0.1mm"
     id="polyline2-0"
     transform="rotate(90,696.26386,496.26387)"
     style="vector-effect:non-scaling-stroke;stroke-width:0.264583;stroke-dasharray:none;-inkscape-stroke:hairline" />
  <polyline
     z="0"
     points="403.027,465.539 403.027,460.339 385.4,460.339 385.4,450.139 390.6,450.139 390.6,440.339 385.4,440.339 385.4,430.139 650,430.139 650,440.339 644.8,440.339 644.8,450.139 650,450.139 650,460.339 632.373,460.339 632.373,465.539 614.547,465.539 614.547,460.339 597.12,460.339 597.12,465.539 579.293,465.539 579.293,460.339 561.867,460.339 561.867,465.539 544.04,465.539 544.04,460.339 526.613,460.339 526.613,465.539 508.787,465.539 508.787,460.339 491.36,460.339 491.36,465.539 473.533,465.539 473.533,460.339 456.107,460.339 456.107,465.539 438.28,465.539 438.28,460.339 420.853,460.339 420.853,465.539 403.027,465.539"
     fill="none"
     stroke="#000000"
     stroke-width="0.1mm"
     id="polyline3-2"
     transform="rotate(90,587.66086,387.66087)"
     style="vector-effect:non-scaling-stroke;stroke-width:0.264583;stroke-dasharray:none;-inkscape-stroke:hairline" />
  <polyline
     z="0"
     points="650,488.883 667.827,488.883 667.827,494.083 685.253,494.083 685.253,488.883 703.08,488.883 703.08,494.083 720.507,494.083 720.507,488.883 738.333,488.883 738.333,494.083 755.76,494.083 755.76,488.883 773.587,488.883 773.587,494.083 791.013,494.083 791.013,488.883 808.84,488.883 808.84,494.083 826.267,494.083 826.267,488.883 844.093,488.883 844.093,494.083 861.52,494.083 861.52,488.883 879.347,488.883 879.347,494.083 896.773,494.083 896.773,488.883 914.6,488.883 914.6,503.752 909.4,503.752 909.4,518.22 914.6,518.22 914.6,533.089 650,533.089 650,518.22 655.2,518.22 655.2,503.752 650,503.752 650,488.883"
     fill="none"
     stroke="#000000"
     stroke-width="0.1mm"
     id="polyline6-3"
     transform="rotate(90,771.43587,306.83588)"
     style="vector-effect:non-scaling-stroke;stroke-width:0.264583;stroke-dasharray:none;-inkscape-stroke:hairline" />
  <polyline
     z="0"
     points="650,533.089 667.827,533.089 667.827,538.289 685.253,538.289 685.253,533.089 703.08,533.089 703.08,538.289 720.507,538.289 720.507,533.089 738.333,533.089 738.333,538.289 755.76,538.289 755.76,533.089 773.587,533.089 773.587,538.289 791.013,538.289 791.013,533.089 808.84,533.089 808.84,538.289 826.267,538.289 826.267,533.089 844.093,533.089 844.093,538.289 861.52,538.289 861.52,533.089 879.347,533.089 879.347,538.289 896.773,538.289 896.773,533.089 914.6,533.089 914.6,546.219 909.4,546.219 909.4,558.949 914.6,558.949 914.6,572.079 909.4,572.079 909.4,584.809 914.6,584.809 914.6,597.939 896.973,597.939 896.973,603.139 879.147,603.139 879.147,597.939 861.72,597.939 861.72,603.139 843.893,603.139 843.893,597.939 826.467,597.939 826.467,603.139 808.64,603.139 808.64,597.939 791.213,597.939 791.213,603.139 773.387,603.139 773.387,597.939 755.96,597.939 755.96,603.139 738.133,603.139 738.133,597.939 720.707,597.939 720.707,603.139 702.88,603.139 702.88,597.939 685.453,597.939 685.453,603.139 667.627,603.139 667.627,597.939 650,597.939 650,584.809 655.2,584.809 655.2,572.079 650,572.079 650,558.949 655.2,558.949 655.2,546.219 650,546.219 650,533.089"
     fill="none"
     stroke="#000000"
     stroke-width="0.1mm"
     id="polyline7-7"
     transform="matrix(0,1,1,0,-117.80627,-464.6)"
     style="vector-effect:non-scaling-stroke;stroke-width:0.264583;stroke-dasharray:none;-inkscape-stroke:hairline" />
</svg>
