<?xml version="1.0" encoding="UTF-8" standalone="no"?>
<svg
   width="1300mm"
   height="900mm"
   viewBox="0 0 1300 900"
   version="1.1"
   id="svg7"
   sodipodi:docname="Tray-0-118.svg"
   inkscape:version="1.4 (e7c3feb100, 2024-10-09)"
   xmlns:inkscape="http://www.inkscape.org/namespaces/inkscape"
   xmlns:sodipodi="http://sodipodi.sourceforge.net/DTD/sodipodi-0.dtd"
   xmlns="http://www.w3.org/2000/svg"
   xmlns:svg="http://www.w3.org/2000/svg">
  <defs
     id="defs7" />
  <sodipodi:namedview
     id="namedview7"
     pagecolor="#505050"
     bordercolor="#eeeeee"
     borderopacity="1"
     inkscape:showpageshadow="0"
     inkscape:pageopacity="0"
     inkscape:pagecheckerboard="0"
     inkscape:deskcolor="#505050"
     inkscape:document-units="mm"
     inkscape:zoom="0.23649679"
     inkscape:cx="1856.2619"
     inkscape:cy="602.54516"
     inkscape:window-width="1920"
     inkscape:window-height="1011"
     inkscape:window-x="0"
     inkscape:window-y="32"
     inkscape:window-maximized="1"
     inkscape:current-layer="svg7" />
  <polyline
     z="0"
     points="400.6,425.132 400.6,419.932 390.6,419.932 390.6,412.688 385.4,412.688 385.4,400.043 390.6,400.043 390.6,387.799 385.4,387.799 385.4,375.154 390.6,375.154 390.6,362.91 385.4,362.91 385.4,350.265 390.6,350.265 390.6,338.021 385.4,338.021 385.4,325.376 390.6,325.376 390.6,318.132 403.53,318.132 403.53,312.932 416.66,312.932 416.66,318.132 429.39,318.132 429.39,313.132 423.559,313.132 409.236,298.81 411.444,293.48 411.444,299.082 425.913,299.082 425.913,293.882 440.781,293.882 440.781,299.082 455.45,299.082 455.45,313.132 442.52,313.132 442.52,318.132 455.488,318.132 420.6,425.664 420.6,419.932 410.8,419.932 410.8,425.132 400.6,425.132"
     fill="none"
     stroke="#000000"
     stroke-width="0.1mm"
     id="polyline4"
     transform="rotate(90,676.36263,476.36263)"
     style="vector-effect:non-scaling-stroke;fill:none;fill-opacity:1;stroke:#000000;stroke-width:0.264583;stroke-dasharray:none;stroke-opacity:1;-inkscape-stroke:hairline" />
  <polyline
     z="0"
     points="490.375,425.664 455.488,318.132 468.455,318.132 468.455,313.132 455.525,313.132 455.525,299.082 470.194,299.082 470.194,293.882 485.062,293.882 485.062,299.082 499.531,299.082 499.531,293.48 501.739,298.81 487.417,313.132 481.585,313.132 481.585,318.132 494.315,318.132 494.315,312.932 507.445,312.932 507.445,318.132 520.375,318.132 520.375,325.376 525.575,325.376 525.575,338.021 520.375,338.021 520.375,350.265 525.575,350.265 525.575,362.91 520.375,362.91 520.375,375.154 525.575,375.154 525.575,387.799 520.375,387.799 520.375,400.043 525.575,400.043 525.575,412.688 520.375,412.688 520.375,419.932 510.375,419.932 510.375,425.132 500.175,425.132 500.175,419.932 490.375,419.932 490.375,425.664"
     fill="none"
     stroke="#000000"
     stroke-width="0.1mm"
     id="polyline5"
     transform="rotate(90,633.16457,519.56069)"
     style="vector-effect:non-scaling-stroke;fill:none;fill-opacity:1;stroke:#000000;stroke-width:0.264583;stroke-dasharray:none;stroke-opacity:1;-inkscape-stroke:hairline" />
  <polyline
     z="0"
     points="400.6,425.132 400.6,419.932 390.6,419.932 390.6,412.688 385.4,412.688 385.4,400.043 390.6,400.043 390.6,387.799 385.4,387.799 385.4,375.154 390.6,375.154 390.6,362.91 385.4,362.91 385.4,350.265 390.6,350.265 390.6,338.021 385.4,338.021 385.4,325.376 390.6,325.376 390.6,318.132 403.53,318.132 403.53,312.932 416.66,312.932 416.66,318.132 429.39,318.132 429.39,313.132 423.559,313.132 409.236,298.81 411.444,293.48 411.444,299.082 425.913,299.082 425.913,293.882 440.781,293.882 440.781,299.082 455.45,299.082 455.45,313.132 442.52,313.132 442.52,318.132 455.488,318.132 420.6,425.664 420.6,419.932 410.8,419.932 410.8,425.132 400.6,425.132"
     fill="none"
     stroke="#000000"
     stroke-width="0.1mm"
     id="polyline4-6"
     transform="rotate(-90,558.83372,125.25245)"
     style="vector-effect:non-scaling-stroke;fill:none;fill-opacity:1;stroke:#000000;stroke-width:0.264583;stroke-dasharray:none;stroke-opacity:1;-inkscape-stroke:hairline" />
  <polyline
     z="0"
     points="490.375,425.664 455.488,318.132 468.455,318.132 468.455,313.132 455.525,313.132 455.525,299.082 470.194,299.082 470.194,293.882 485.062,293.882 485.062,299.082 499.531,299.082 499.531,293.48 501.739,298.81 487.417,313.132 481.585,313.132 481.585,318.132 494.315,318.132 494.315,312.932 507.445,312.932 507.445,318.132 520.375,318.132 520.375,325.376 525.575,325.376 525.575,338.021 520.375,338.021 520.375,350.265 525.575,350.265 525.575,362.91 520.375,362.91 520.375,375.154 525.575,375.154 525.575,387.799 520.375,387.799 520.375,400.043 525.575,400.043 525.575,412.688 520.375,412.688 520.375,419.932 510.375,419.932 510.375,425.132 500.175,425.132 500.175,419.932 490.375,419.932 490.375,425.664"
     fill="none"
     stroke="#000000"
     stroke-width="0.1mm"
     id="polyline5-0"
     transform="rotate(-90,628.92122,195.33995)"
     style="vector-effect:non-scaling-stroke;fill:none;fill-opacity:1;stroke:#000000;stroke-width:0.264583;stroke-dasharray:none;stroke-opacity:1;-inkscape-stroke:hairline" />
  <polyline
     z="0"
     points="385.4,601.32 385.4,587.27 397.827,587.27 397.827,582.07 415.653,582.07 415.653,587.27 433.08,587.27 433.08,582.07 450.907,582.07 450.907,587.27 468.333,587.27 468.333,582.07 486.16,582.07 486.16,587.27 503.587,587.27 503.587,582.07 521.413,582.07 521.413,587.27 538.84,587.27 538.84,582.07 556.667,582.07 556.667,587.27 574.093,587.27 574.093,582.07 591.92,582.07 591.92,587.27 609.347,587.27 609.347,582.07 627.173,582.07 627.173,587.27 639.6,587.27 639.6,601.32 627.173,601.32 627.173,606.52 609.347,606.52 609.347,601.32 591.92,601.32 591.92,606.52 574.093,606.52 574.093,601.32 556.667,601.32 556.667,606.52 538.84,606.52 538.84,601.32 521.413,601.32 521.413,606.52 503.587,606.52 503.587,601.32 486.16,601.32 486.16,606.52 468.333,606.52 468.333,601.32 450.907,601.32 450.907,606.52 433.08,606.52 433.08,601.32 415.653,601.32 415.653,606.52 397.827,606.52 397.827,601.32 385.4,601.32"
     fill="none"
     stroke="#000000"
     stroke-width="0.1mm"
     id="polyline1"
     transform="rotate(90,523.76236,593.56237)"
     style="vector-effect:non-scaling-stroke;fill:none;fill-opacity:1;stroke:#000000;stroke-width:0.264583;stroke-dasharray:none;stroke-opacity:1;-inkscape-stroke:hairline" />
  <polyline
     z="0"
     points="385.4,582.07 385.4,569.426 390.6,569.426 390.6,557.181 385.4,557.181 385.4,544.537 390.6,544.537 390.6,532.292 385.4,532.292 385.4,519.648 390.6,519.648 390.6,507.403 385.4,507.403 385.4,494.759 390.6,494.759 390.6,482.514 385.4,482.514 385.4,469.87 403.227,469.87 403.227,475.07 420.653,475.07 420.653,469.87 438.48,469.87 438.48,475.07 455.907,475.07 455.907,469.87 473.733,469.87 473.733,475.07 491.16,475.07 491.16,469.87 508.987,469.87 508.987,475.07 526.413,475.07 526.413,469.87 544.24,469.87 544.24,475.07 561.667,475.07 561.667,469.87 579.493,469.87 579.493,475.07 596.92,475.07 596.92,469.87 614.747,469.87 614.747,475.07 632.173,475.07 632.173,469.87 650,469.87 650,482.514 644.8,482.514 644.8,494.759 650,494.759 650,507.403 644.8,507.403 644.8,519.648 650,519.648 650,532.292 644.8,532.292 644.8,544.537 650,544.537 650,557.181 644.8,557.181 644.8,569.426 650,569.426 650,582.07 632.173,582.07 632.173,576.87 614.747,576.87 614.747,582.07 596.92,582.07 596.92,576.87 579.493,576.87 579.493,582.07 561.667,582.07 561.667,576.87 544.24,576.87 544.24,582.07 526.413,582.07 526.413,576.87 508.987,576.87 508.987,582.07 491.16,582.07 491.16,576.87 473.733,576.87 473.733,582.07 455.907,582.07 455.907,576.87 438.48,576.87 438.48,582.07 420.653,582.07 420.653,576.87 403.227,576.87 403.227,582.07 385.4,582.07"
     fill="none"
     stroke="#000000"
     stroke-width="0.1mm"
     id="polyline2"
     transform="rotate(90,566.16536,630.76537)"
     style="vector-effect:non-scaling-stroke;fill:none;fill-opacity:1;stroke:#000000;stroke-width:0.264583;stroke-dasharray:none;stroke-opacity:1;-inkscape-stroke:hairline" />
  <polyline
     z="0"
     points="385.4,469.87 385.4,455.001 390.6,455.001 390.6,440.533 385.4,440.533 385.4,425.664 403.227,425.664 403.227,430.864 420.653,430.864 420.653,425.664 438.48,425.664 438.48,430.864 455.907,430.864 455.907,425.664 473.733,425.664 473.733,430.864 491.16,430.864 491.16,425.664 508.987,425.664 508.987,430.864 526.413,430.864 526.413,425.664 544.24,425.664 544.24,430.864 561.667,430.864 561.667,425.664 579.493,425.664 579.493,430.864 596.92,430.864 596.92,425.664 614.747,425.664 614.747,430.864 632.173,430.864 632.173,425.664 650,425.664 650,440.533 644.8,440.533 644.8,455.001 650,455.001 650,469.87 385.4,469.87"
     fill="none"
     stroke="#000000"
     stroke-width="0.1mm"
     id="polyline3"
     transform="rotate(90,487.96236,552.56237)"
     style="vector-effect:non-scaling-stroke;fill:none;fill-opacity:1;stroke:#000000;stroke-width:0.264583;stroke-dasharray:none;stroke-opacity:1;-inkscape-stroke:hairline" />
  <polyline
     z="0"
     points="650,476.62 914.6,476.62 914.6,486.82 909.4,486.82 909.4,496.62 914.6,496.62 914.6,506.82 896.973,506.82 896.973,512.02 879.147,512.02 879.147,506.82 861.72,506.82 861.72,512.02 843.893,512.02 843.893,506.82 826.467,506.82 826.467,512.02 808.64,512.02 808.64,506.82 791.213,506.82 791.213,512.02 773.387,512.02 773.387,506.82 755.96,506.82 755.96,512.02 738.133,512.02 738.133,506.82 720.707,506.82 720.707,512.02 702.88,512.02 702.88,506.82 685.453,506.82 685.453,512.02 667.627,512.02 667.627,506.82 650,506.82 650,496.62 655.2,496.62 655.2,486.82 650,486.82 650,476.62"
     fill="none"
     stroke="#000000"
     stroke-width="0.1mm"
     id="polyline6"
     transform="rotate(90,623.63736,423.63737)"
     style="vector-effect:non-scaling-stroke;fill:none;fill-opacity:1;stroke:#000000;stroke-width:0.264583;stroke-dasharray:none;stroke-opacity:1;-inkscape-stroke:hairline" />
  <polyline
     z="0"
     points="650,512.02 667.827,512.02 667.827,517.22 685.253,517.22 685.253,512.02 703.08,512.02 703.08,517.22 720.507,517.22 720.507,512.02 738.333,512.02 738.333,517.22 755.76,517.22 755.76,512.02 773.587,512.02 773.587,517.22 791.013,517.22 791.013,512.02 808.84,512.02 808.84,517.22 826.267,517.22 826.267,512.02 844.093,512.02 844.093,517.22 861.52,517.22 861.52,512.02 879.347,512.02 879.347,517.22 896.773,517.22 896.773,512.02 914.6,512.02 914.6,525.15 909.4,525.15 909.4,537.88 914.6,537.88 914.6,551.01 909.4,551.01 909.4,563.74 914.6,563.74 914.6,576.87 896.973,576.87 896.973,582.07 879.147,582.07 879.147,576.87 861.72,576.87 861.72,582.07 843.893,582.07 843.893,576.87 826.467,576.87 826.467,582.07 808.64,582.07 808.64,576.87 791.213,576.87 791.213,582.07 773.387,582.07 773.387,576.87 755.96,576.87 755.96,582.07 738.133,582.07 738.133,576.87 720.707,576.87 720.707,582.07 702.88,582.07 702.88,576.87 685.453,576.87 685.453,582.07 667.627,582.07 667.627,576.87 650,576.87 650,563.74 655.2,563.74 655.2,551.01 650,551.01 650,537.88 655.2,537.88 655.2,525.15 650,525.15 650,512.02"
     fill="none"
     stroke="#000000"
     stroke-width="0.1mm"
     id="polyline7"
     transform="matrix(0,1,1,0,-71.26527,-199.99999)"
     style="vector-effect:non-scaling-stroke;fill:none;fill-opacity:1;stroke:#000000;stroke-width:0.264583;stroke-dasharray:none;stroke-opacity:1;-inkscape-stroke:hairline" />
  <polyline
     z="0"
     points="385.4,601.32 385.4,587.27 397.827,587.27 397.827,582.07 415.653,582.07 415.653,587.27 433.08,587.27 433.08,582.07 450.907,582.07 450.907,587.27 468.333,587.27 468.333,582.07 486.16,582.07 486.16,587.27 503.587,587.27 503.587,582.07 521.413,582.07 521.413,587.27 538.84,587.27 538.84,582.07 556.667,582.07 556.667,587.27 574.093,587.27 574.093,582.07 591.92,582.07 591.92,587.27 609.347,587.27 609.347,582.07 627.173,582.07 627.173,587.27 639.6,587.27 639.6,601.32 627.173,601.32 627.173,606.52 609.347,606.52 609.347,601.32 591.92,601.32 591.92,606.52 574.093,606.52 574.093,601.32 556.667,601.32 556.667,606.52 538.84,606.52 538.84,601.32 521.413,601.32 521.413,606.52 503.587,606.52 503.587,601.32 486.16,601.32 486.16,606.52 468.333,606.52 468.333,601.32 450.907,601.32 450.907,606.52 433.08,606.52 433.08,601.32 415.653,601.32 415.653,606.52 397.827,606.52 397.827,601.32 385.4,601.32"
     fill="none"
     stroke="#000000"
     stroke-width="0.1mm"
     id="polyline1-2"
     transform="rotate(90,656.06236,461.26236)"
     style="vector-effect:non-scaling-stroke;fill:none;fill-opacity:1;stroke:#000000;stroke-width:0.264583;stroke-dasharray:none;stroke-opacity:1;-inkscape-stroke:hairline" />
  <polyline
     z="0"
     points="385.4,582.07 385.4,569.426 390.6,569.426 390.6,557.181 385.4,557.181 385.4,544.537 390.6,544.537 390.6,532.292 385.4,532.292 385.4,519.648 390.6,519.648 390.6,507.403 385.4,507.403 385.4,494.759 390.6,494.759 390.6,482.514 385.4,482.514 385.4,469.87 403.227,469.87 403.227,475.07 420.653,475.07 420.653,469.87 438.48,469.87 438.48,475.07 455.907,475.07 455.907,469.87 473.733,469.87 473.733,475.07 491.16,475.07 491.16,469.87 508.987,469.87 508.987,475.07 526.413,475.07 526.413,469.87 544.24,469.87 544.24,475.07 561.667,475.07 561.667,469.87 579.493,469.87 579.493,475.07 596.92,475.07 596.92,469.87 614.747,469.87 614.747,475.07 632.173,475.07 632.173,469.87 650,469.87 650,482.514 644.8,482.514 644.8,494.759 650,494.759 650,507.403 644.8,507.403 644.8,519.648 650,519.648 650,532.292 644.8,532.292 644.8,544.537 650,544.537 650,557.181 644.8,557.181 644.8,569.426 650,569.426 650,582.07 632.173,582.07 632.173,576.87 614.747,576.87 614.747,582.07 596.92,582.07 596.92,576.87 579.493,576.87 579.493,582.07 561.667,582.07 561.667,576.87 544.24,576.87 544.24,582.07 526.413,582.07 526.413,576.87 508.987,576.87 508.987,582.07 491.16,582.07 491.16,576.87 473.733,576.87 473.733,582.07 455.907,582.07 455.907,576.87 438.48,576.87 438.48,582.07 420.653,582.07 420.653,576.87 403.227,576.87 403.227,582.07 385.4,582.07"
     fill="none"
     stroke="#000000"
     stroke-width="0.1mm"
     id="polyline2-7"
     transform="rotate(90,698.46536,498.46537)"
     style="vector-effect:non-scaling-stroke;fill:none;fill-opacity:1;stroke:#000000;stroke-width:0.264583;stroke-dasharray:none;stroke-opacity:1;-inkscape-stroke:hairline" />
  <polyline
     z="0"
     points="385.4,469.87 385.4,455.001 390.6,455.001 390.6,440.533 385.4,440.533 385.4,425.664 403.227,425.664 403.227,430.864 420.653,430.864 420.653,425.664 438.48,425.664 438.48,430.864 455.907,430.864 455.907,425.664 473.733,425.664 473.733,430.864 491.16,430.864 491.16,425.664 508.987,425.664 508.987,430.864 526.413,430.864 526.413,425.664 544.24,425.664 544.24,430.864 561.667,430.864 561.667,425.664 579.493,425.664 579.493,430.864 596.92,430.864 596.92,425.664 614.747,425.664 614.747,430.864 632.173,430.864 632.173,425.664 650,425.664 650,440.533 644.8,440.533 644.8,455.001 650,455.001 650,469.87 385.4,469.87"
     fill="none"
     stroke="#000000"
     stroke-width="0.1mm"
     id="polyline3-0"
     transform="rotate(90,620.26236,420.26236)"
     style="vector-effect:non-scaling-stroke;fill:none;fill-opacity:1;stroke:#000000;stroke-width:0.264583;stroke-dasharray:none;stroke-opacity:1;-inkscape-stroke:hairline" />
  <polyline
     z="0"
     points="650,476.62 914.6,476.62 914.6,486.82 909.4,486.82 909.4,496.62 914.6,496.62 914.6,506.82 896.973,506.82 896.973,512.02 879.147,512.02 879.147,506.82 861.72,506.82 861.72,512.02 843.893,512.02 843.893,506.82 826.467,506.82 826.467,512.02 808.64,512.02 808.64,506.82 791.213,506.82 791.213,512.02 773.387,512.02 773.387,506.82 755.96,506.82 755.96,512.02 738.133,512.02 738.133,506.82 720.707,506.82 720.707,512.02 702.88,512.02 702.88,506.82 685.453,506.82 685.453,512.02 667.627,512.02 667.627,506.82 650,506.82 650,496.62 655.2,496.62 655.2,486.82 650,486.82 650,476.62"
     fill="none"
     stroke="#000000"
     stroke-width="0.1mm"
     id="polyline6-9"
     transform="rotate(90,755.93736,291.33737)"
     style="vector-effect:non-scaling-stroke;fill:none;fill-opacity:1;stroke:#000000;stroke-width:0.264583;stroke-dasharray:none;stroke-opacity:1;-inkscape-stroke:hairline" />
  <polyline
     z="0"
     points="650,512.02 667.827,512.02 667.827,517.22 685.253,517.22 685.253,512.02 703.08,512.02 703.08,517.22 720.507,517.22 720.507,512.02 738.333,512.02 738.333,517.22 755.76,517.22 755.76,512.02 773.587,512.02 773.587,517.22 791.013,517.22 791.013,512.02 808.84,512.02 808.84,517.22 826.267,517.22 826.267,512.02 844.093,512.02 844.093,517.22 861.52,517.22 861.52,512.02 879.347,512.02 879.347,517.22 896.773,517.22 896.773,512.02 914.6,512.02 914.6,525.15 909.4,525.15 909.4,537.88 914.6,537.88 914.6,551.01 909.4,551.01 909.4,563.74 914.6,563.74 914.6,576.87 896.973,576.87 896.973,582.07 879.147,582.07 879.147,576.87 861.72,576.87 861.72,582.07 843.893,582.07 843.893,576.87 826.467,576.87 826.467,582.07 808.64,582.07 808.64,576.87 791.213,576.87 791.213,582.07 773.387,582.07 773.387,576.87 755.96,576.87 755.96,582.07 738.133,582.07 738.133,576.87 720.707,576.87 720.707,582.07 702.88,582.07 702.88,576.87 685.453,576.87 685.453,582.07 667.627,582.07 667.627,576.87 650,576.87 650,563.74 655.2,563.74 655.2,551.01 650,551.01 650,537.88 655.2,537.88 655.2,525.15 650,525.15 650,512.02"
     fill="none"
     stroke="#000000"
     stroke-width="0.1mm"
     id="polyline7-3"
     transform="matrix(0,1,1,0,-71.26527,-464.59999)"
     style="vector-effect:non-scaling-stroke;fill:none;fill-opacity:1;stroke:#000000;stroke-width:0.264583;stroke-dasharray:none;stroke-opacity:1;-inkscape-stroke:hairline" />
</svg>
