<?xml version="1.0" standalone="no"?>
<!DOCTYPE svg PUBLIC "-//W3C//DTD SVG 1.1//EN" "http://www.w3.org/Graphics/SVG/1.1/DTD/svg11.dtd">
<svg width="1300mm" height="900mm" viewBox="0 0 1300 900" xmlns="http://www.w3.org/2000/svg" version="1.1">
<polyline z="0" points="447.626,629.751 447.626,615.701 460.053,615.701 460.053,610.501 477.879,610.501 477.879,615.701 495.306,615.701 495.306,610.501 513.133,610.501 513.133,615.701 530.559,615.701 530.559,610.501 548.386,610.501 548.386,615.701 565.813,615.701 565.813,610.501 583.639,610.501 583.639,615.701 601.066,615.701 601.066,610.501 618.893,610.501 618.893,615.701 636.319,615.701 636.319,610.501 654.146,610.501 654.146,615.701 671.573,615.701 671.573,610.501 689.399,610.501 689.399,615.701 701.826,615.701 701.826,629.751 689.399,629.751 689.399,634.951 671.573,634.951 671.573,629.751 654.146,629.751 654.146,634.951 636.319,634.951 636.319,629.751 618.893,629.751 618.893,634.951 601.066,634.951 601.066,629.751 583.639,629.751 583.639,634.951 565.813,634.951 565.813,629.751 548.386,629.751 548.386,634.951 530.559,634.951 530.559,629.751 513.133,629.751 513.133,634.951 495.306,634.951 495.306,629.751 477.879,629.751 477.879,634.951 460.053,634.951 460.053,629.751 447.626,629.751" fill="none" stroke="black" stroke-width="0.1mm" />
<polyline z="0" points="452.826,610.501 452.826,592.412 447.626,592.412 447.626,574.123 452.826,574.123 452.826,556.234 447.626,556.234 447.626,537.945 452.826,537.945 452.826,520.057 447.626,520.057 447.626,501.768 452.826,501.768 452.826,483.879 447.626,483.879 447.626,465.59 452.826,465.59 452.826,452.701 465.756,452.701 465.756,447.501 478.886,447.501 478.886,452.701 491.616,452.701 491.616,447.701 485.784,447.701 471.462,433.379 473.67,428.049 473.67,433.651 488.139,433.651 488.139,428.451 503.007,428.451 503.007,433.651 517.676,433.651 517.676,447.701 504.746,447.701 504.746,452.701 517.7,452.701 483.006,610.501 472.826,610.501 472.826,605.301 463.026,605.301 463.026,610.501 452.826,610.501" fill="none" stroke="black" stroke-width="0.1mm" />
<polyline z="0" points="552.394,610.501 517.7,452.701 530.654,452.701 530.654,447.701 517.724,447.701 517.724,433.651 532.393,433.651 532.393,428.451 547.261,428.451 547.261,433.651 561.73,433.651 561.73,428.049 563.938,433.379 549.616,447.701 543.784,447.701 543.784,452.701 556.514,452.701 556.514,447.501 569.644,447.501 569.644,452.701 582.574,452.701 582.574,465.59 587.774,465.59 587.774,483.879 582.574,483.879 582.574,501.768 587.774,501.768 587.774,520.057 582.574,520.057 582.574,537.945 587.774,537.945 587.774,556.234 582.574,556.234 582.574,574.123 587.774,574.123 587.774,592.412 582.574,592.412 582.574,610.501 572.374,610.501 572.374,605.301 562.574,605.301 562.574,610.501 552.394,610.501" fill="none" stroke="black" stroke-width="0.1mm" />
<polyline z="0" points="587.774,610.501 587.774,597.371 592.974,597.371 592.974,584.641 587.774,584.641 587.774,571.511 592.974,571.511 592.974,558.781 587.774,558.781 587.774,545.651 605.401,545.651 605.401,540.451 623.227,540.451 623.227,545.651 640.654,545.651 640.654,540.451 658.481,540.451 658.481,545.651 675.907,545.651 675.907,540.451 693.734,540.451 693.734,545.651 711.161,545.651 711.161,540.451 728.987,540.451 728.987,545.651 746.414,545.651 746.414,540.451 764.241,540.451 764.241,545.651 781.667,545.651 781.667,540.451 799.494,540.451 799.494,545.651 816.921,545.651 816.921,540.451 834.747,540.451 834.747,545.651 852.374,545.651 852.374,558.781 847.174,558.781 847.174,571.511 852.374,571.511 852.374,584.641 847.174,584.641 847.174,597.371 852.374,597.371 852.374,610.501 834.547,610.501 834.547,605.301 817.121,605.301 817.121,610.501 799.294,610.501 799.294,605.301 781.867,605.301 781.867,610.501 764.041,610.501 764.041,605.301 746.614,605.301 746.614,610.501 728.787,610.501 728.787,605.301 711.361,605.301 711.361,610.501 693.534,610.501 693.534,605.301 676.107,605.301 676.107,610.501 658.281,610.501 658.281,605.301 640.854,605.301 640.854,610.501 623.027,610.501 623.027,605.301 605.601,605.301 605.601,610.501 587.774,610.501" fill="none" stroke="black" stroke-width="0.1mm" />
<polyline z="0" points="587.774,540.451 587.774,525.582 592.974,525.582 592.974,511.114 587.774,511.114 587.774,496.245 852.374,496.245 852.374,511.114 847.174,511.114 847.174,525.582 852.374,525.582 852.374,540.451 834.547,540.451 834.547,535.251 817.121,535.251 817.121,540.451 799.294,540.451 799.294,535.251 781.867,535.251 781.867,540.451 764.041,540.451 764.041,535.251 746.614,535.251 746.614,540.451 728.787,540.451 728.787,535.251 711.361,535.251 711.361,540.451 693.534,540.451 693.534,535.251 676.107,535.251 676.107,540.451 658.281,540.451 658.281,535.251 640.854,535.251 640.854,540.451 623.027,540.451 623.027,535.251 605.601,535.251 605.601,540.451 587.774,540.451" fill="none" stroke="black" stroke-width="0.1mm" />
<polyline z="0" points="592.974,496.245 592.974,486.245 587.774,486.245 587.774,476.045 592.974,476.045 592.974,466.045 605.401,466.045 605.401,460.845 623.227,460.845 623.227,466.045 640.654,466.045 640.654,460.845 658.481,460.845 658.481,466.045 675.907,466.045 675.907,460.845 693.734,460.845 693.734,466.045 711.161,466.045 711.161,460.845 728.987,460.845 728.987,466.045 746.414,466.045 746.414,460.845 764.241,460.845 764.241,466.045 781.667,466.045 781.667,460.845 799.494,460.845 799.494,466.045 816.921,466.045 816.921,460.845 834.747,460.845 834.747,466.045 847.174,466.045 847.174,476.045 852.374,476.045 852.374,486.245 847.174,486.245 847.174,496.245 592.974,496.245" fill="none" stroke="black" stroke-width="0.1mm" />
<polyline z="0" points="588.639,428.049 588.639,422.849 571.213,422.849 571.213,428.049 553.386,428.049 553.386,422.849 535.959,422.849 535.959,428.049 518.133,428.049 518.133,422.849 500.706,422.849 500.706,428.049 482.879,428.049 482.879,422.849 465.453,422.849 465.453,428.049 447.626,428.049 447.626,409.76 452.826,409.76 452.826,391.871 447.626,391.871 447.626,373.582 452.826,373.582 452.826,355.693 447.626,355.693 447.626,337.405 452.826,337.405 452.826,319.516 447.626,319.516 447.626,301.227 452.826,301.227 452.826,283.338 447.626,283.338 447.626,265.049 465.453,265.049 465.453,270.249 482.879,270.249 482.879,265.049 500.706,265.049 500.706,270.249 518.133,270.249 518.133,265.049 535.959,265.049 535.959,270.249 553.386,270.249 553.386,265.049 571.213,265.049 571.213,270.249 588.639,270.249 588.639,265.049 606.466,265.049 606.466,270.249 623.893,270.249 623.893,265.049 641.719,265.049 641.719,270.249 659.146,270.249 659.146,265.049 676.973,265.049 676.973,270.249 694.399,270.249 694.399,265.049 712.226,265.049 712.226,283.338 707.026,283.338 707.026,301.227 712.226,301.227 712.226,319.516 707.026,319.516 707.026,337.405 712.226,337.405 712.226,355.693 707.026,355.693 707.026,373.582 712.226,373.582 712.226,391.871 707.026,391.871 707.026,409.76 712.226,409.76 712.226,428.049 694.399,428.049 694.399,422.849 676.973,422.849 676.973,428.049 659.146,428.049 659.146,422.849 641.719,422.849 641.719,428.049 623.893,428.049 623.893,422.849 606.466,422.849 606.466,428.049 588.639,428.049" fill="none" stroke="black" stroke-width="0.1mm" />
</svg>