<?xml version="1.0" encoding="UTF-8" standalone="no"?>
<svg
   width="1300mm"
   height="900mm"
   viewBox="0 0 1300 900"
   version="1.1"
   id="svg7"
   sodipodi:docname="Tray12x4.svg"
   inkscape:version="1.3.2 (091e20ef0f, 2023-11-25)"
   xmlns:inkscape="http://www.inkscape.org/namespaces/inkscape"
   xmlns:sodipodi="http://sodipodi.sourceforge.net/DTD/sodipodi-0.dtd"
   xmlns="http://www.w3.org/2000/svg"
   xmlns:svg="http://www.w3.org/2000/svg">
  <defs
     id="defs7" />
  <sodipodi:namedview
     id="namedview7"
     pagecolor="#505050"
     bordercolor="#eeeeee"
     borderopacity="1"
     inkscape:showpageshadow="0"
     inkscape:pageopacity="0"
     inkscape:pagecheckerboard="0"
     inkscape:deskcolor="#505050"
     inkscape:document-units="mm"
     inkscape:zoom="0.16343109"
     inkscape:cx="2453.6335"
     inkscape:cy="1697.9633"
     inkscape:window-width="1920"
     inkscape:window-height="1011"
     inkscape:window-x="0"
     inkscape:window-y="32"
     inkscape:window-maximized="1"
     inkscape:current-layer="svg7" />
  <polyline
     z="0"
     points="334.6,611.995 334.6,601.795 339.8,601.795 339.8,591.995 334.6,591.995 334.6,581.795 353.141,581.795 353.141,576.595 371.882,576.595 371.882,581.795 390.224,581.795 390.224,576.595 408.965,576.595 408.965,581.795 427.306,581.795 427.306,576.595 446.047,576.595 446.047,581.795 464.388,581.795 464.388,576.595 483.129,576.595 483.129,581.795 501.471,581.795 501.471,576.595 520.212,576.595 520.212,581.795 538.553,581.795 538.553,576.595 557.294,576.595 557.294,581.795 575.635,581.795 575.635,576.595 594.376,576.595 594.376,581.795 612.718,581.795 612.718,576.595 631.459,576.595 631.459,581.795 650,581.795 650,591.995 644.8,591.995 644.8,601.795 650,601.795 650,611.995 334.6,611.995"
     fill="none"
     stroke="#000000"
     stroke-width="0.1mm"
     id="polyline1"
     transform="rotate(90,650,450.05833)"
     style="stroke-width:0.26458333;stroke-dasharray:none;vector-effect:non-scaling-stroke;-inkscape-stroke:hairline" />
  <polyline
     z="0"
     points="334.6,576.595 334.6,561.726 339.8,561.726 339.8,547.258 334.6,547.258 334.6,532.389 650,532.389 650,547.258 644.8,547.258 644.8,561.726 650,561.726 650,576.595 631.259,576.595 631.259,571.395 612.918,571.395 612.918,576.595 594.176,576.595 594.176,571.395 575.835,571.395 575.835,576.595 557.094,576.595 557.094,571.395 538.753,571.395 538.753,576.595 520.012,576.595 520.012,571.395 501.671,571.395 501.671,576.595 482.929,576.595 482.929,571.395 464.588,571.395 464.588,576.595 445.847,576.595 445.847,571.395 427.506,571.395 427.506,576.595 408.765,576.595 408.765,571.395 390.424,571.395 390.424,576.595 371.682,576.595 371.682,571.395 353.341,571.395 353.341,576.595 334.6,576.595"
     fill="none"
     stroke="#000000"
     stroke-width="0.1mm"
     id="polyline2"
     transform="rotate(90,650,450.05833)"
     style="stroke-width:0.26458333;stroke-dasharray:none;vector-effect:non-scaling-stroke;-inkscape-stroke:hairline" />
  <polyline
     z="0"
     points="334.6,532.389 334.6,519.745 339.8,519.745 339.8,507.5 334.6,507.5 334.6,494.856 339.8,494.856 339.8,482.611 334.6,482.611 334.6,469.967 339.8,469.967 339.8,457.722 334.6,457.722 334.6,445.078 339.8,445.078 339.8,432.833 334.6,432.833 334.6,420.189 353.341,420.189 353.341,425.389 371.682,425.389 371.682,420.189 390.424,420.189 390.424,425.389 408.765,425.389 408.765,420.189 427.506,420.189 427.506,425.389 445.847,425.389 445.847,420.189 464.588,420.189 464.588,425.389 482.929,425.389 482.929,420.189 501.671,420.189 501.671,425.389 520.012,425.389 520.012,420.189 538.753,420.189 538.753,425.389 557.094,425.389 557.094,420.189 575.835,420.189 575.835,425.389 594.176,425.389 594.176,420.189 612.918,420.189 612.918,425.389 631.259,425.389 631.259,420.189 650,420.189 650,432.833 644.8,432.833 644.8,445.078 650,445.078 650,457.722 644.8,457.722 644.8,469.967 650,469.967 650,482.611 644.8,482.611 644.8,494.856 650,494.856 650,507.5 644.8,507.5 644.8,519.745 650,519.745 650,532.389 631.259,532.389 631.259,527.189 612.918,527.189 612.918,532.389 594.176,532.389 594.176,527.189 575.835,527.189 575.835,532.389 557.094,532.389 557.094,527.189 538.753,527.189 538.753,532.389 520.012,532.389 520.012,527.189 501.671,527.189 501.671,532.389 482.929,532.389 482.929,527.189 464.588,527.189 464.588,532.389 445.847,532.389 445.847,527.189 427.506,527.189 427.506,532.389 408.765,532.389 408.765,527.189 390.424,527.189 390.424,532.389 371.682,532.389 371.682,527.189 353.341,527.189 353.341,532.389 334.6,532.389"
     fill="none"
     stroke="#000000"
     stroke-width="0.1mm"
     id="polyline3"
     transform="rotate(90,650,450.05833)"
     style="stroke-width:0.26458333;stroke-dasharray:none;vector-effect:non-scaling-stroke;-inkscape-stroke:hairline" />
  <polyline
     z="0"
     points="349.8,419.657 349.8,414.457 339.8,414.457 339.8,407.213 334.6,407.213 334.6,394.568 339.8,394.568 339.8,382.324 334.6,382.324 334.6,369.679 339.8,369.679 339.8,357.435 334.6,357.435 334.6,344.79 339.8,344.79 339.8,332.546 334.6,332.546 334.6,319.901 339.8,319.901 339.8,312.657 352.73,312.657 352.73,307.457 365.86,307.457 365.86,312.657 378.59,312.657 378.59,307.657 372.759,307.657 358.436,293.335 360.644,288.005 360.644,293.607 375.113,293.607 375.113,288.407 389.981,288.407 389.981,293.607 399.45,293.607 399.45,307.657 391.72,307.657 391.72,312.657 404.688,312.657 369.8,420.189 369.8,414.457 360,414.457 360,419.657 349.8,419.657"
     fill="none"
     stroke="#000000"
     stroke-width="0.1mm"
     id="polyline4"
     transform="rotate(90,650,450.05833)"
     style="stroke-width:0.26458333;stroke-dasharray:none;vector-effect:non-scaling-stroke;-inkscape-stroke:hairline" />
  <polyline
     z="0"
     points="439.575,420.189 404.688,312.657 417.655,312.657 417.655,307.657 409.925,307.657 409.925,293.607 419.394,293.607 419.394,288.407 434.262,288.407 434.262,293.607 448.731,293.607 448.731,288.005 450.939,293.335 436.617,307.657 430.785,307.657 430.785,312.657 443.515,312.657 443.515,307.457 456.645,307.457 456.645,312.657 469.575,312.657 469.575,319.901 474.775,319.901 474.775,332.546 469.575,332.546 469.575,344.79 474.775,344.79 474.775,357.435 469.575,357.435 469.575,369.679 474.775,369.679 474.775,382.324 469.575,382.324 469.575,394.568 474.775,394.568 474.775,407.213 469.575,407.213 469.575,414.457 459.575,414.457 459.575,419.657 449.375,419.657 449.375,414.457 439.575,414.457 439.575,420.189"
     fill="none"
     stroke="#000000"
     stroke-width="0.1mm"
     id="polyline5"
     transform="rotate(90,650,450.05833)"
     style="stroke-width:0.26458333;stroke-dasharray:none;vector-effect:non-scaling-stroke;-inkscape-stroke:hairline" />
  <polyline
     z="0"
     points="650,467.539 668.541,467.539 668.541,462.339 687.282,462.339 687.282,467.539 705.624,467.539 705.624,462.339 724.365,462.339 724.365,467.539 742.706,467.539 742.706,462.339 761.447,462.339 761.447,467.539 779.788,467.539 779.788,462.339 798.529,462.339 798.529,467.539 816.871,467.539 816.871,462.339 835.612,462.339 835.612,467.539 853.953,467.539 853.953,462.339 872.694,462.339 872.694,467.539 891.035,467.539 891.035,462.339 909.776,462.339 909.776,467.539 928.118,467.539 928.118,462.339 946.859,462.339 946.859,467.539 965.4,467.539 965.4,480.669 960.2,480.669 960.2,493.399 965.4,493.399 965.4,506.529 960.2,506.529 960.2,519.259 965.4,519.259 965.4,532.389 946.659,532.389 946.659,527.189 928.318,527.189 928.318,532.389 909.576,532.389 909.576,527.189 891.235,527.189 891.235,532.389 872.494,532.389 872.494,527.189 854.153,527.189 854.153,532.389 835.412,532.389 835.412,527.189 817.071,527.189 817.071,532.389 798.329,532.389 798.329,527.189 779.988,527.189 779.988,532.389 761.247,532.389 761.247,527.189 742.906,527.189 742.906,532.389 724.165,532.389 724.165,527.189 705.824,527.189 705.824,532.389 687.082,532.389 687.082,527.189 668.741,527.189 668.741,532.389 650,532.389 650,519.259 655.2,519.259 655.2,506.529 650,506.529 650,493.399 655.2,493.399 655.2,480.669 650,480.669 650,467.539"
     fill="none"
     stroke="#000000"
     stroke-width="0.1mm"
     id="polyline6"
     transform="rotate(90,650,450.05833)"
     style="stroke-width:0.26458333;stroke-dasharray:none;vector-effect:non-scaling-stroke;-inkscape-stroke:hairline" />
  <polyline
     z="0"
     points="668.541,587.545 687.282,587.545 687.282,592.745 705.624,592.745 705.624,587.545 724.365,587.545 724.365,592.745 742.706,592.745 742.706,587.545 761.447,587.545 761.447,592.745 779.788,592.745 779.788,587.545 798.529,587.545 798.529,592.745 816.871,592.745 816.871,587.545 835.612,587.545 835.612,592.745 853.953,592.745 853.953,587.545 872.694,587.545 872.694,592.745 891.035,592.745 891.035,587.545 909.776,587.545 909.776,592.745 928.118,592.745 928.118,587.545 946.859,587.545 946.859,592.745 965.4,592.745 965.4,606.795 946.859,606.795 946.859,611.995 928.118,611.995 928.118,606.795 909.776,606.795 909.776,611.995 891.035,611.995 891.035,606.795 872.694,606.795 872.694,611.995 853.953,611.995 853.953,606.795 835.612,606.795 835.612,611.995 816.871,611.995 816.871,606.795 798.529,606.795 798.529,611.995 779.788,611.995 779.788,606.795 761.447,606.795 761.447,611.995 742.706,611.995 742.706,606.795 724.365,606.795 724.365,611.995 705.624,611.995 705.624,606.795 687.282,606.795 687.282,611.995 668.541,611.995 668.541,606.795 650,606.795 650,592.745 668.541,592.745 668.541,587.545"
     fill="none"
     stroke="#000000"
     stroke-width="0.1mm"
     id="polyline7"
     transform="rotate(90,650,450.05833)"
     style="stroke-width:0.26458333;stroke-dasharray:none;vector-effect:non-scaling-stroke;-inkscape-stroke:hairline" />
</svg>
