<?xml version="1.0" encoding="UTF-8" standalone="no"?>
<svg
   width="1300mm"
   height="900mm"
   viewBox="0 0 1300 900"
   version="1.1"
   id="svg7"
   sodipodi:docname="Tray-0-120.svg"
   inkscape:version="1.4 (e7c3feb100, 2024-10-09)"
   xmlns:inkscape="http://www.inkscape.org/namespaces/inkscape"
   xmlns:sodipodi="http://sodipodi.sourceforge.net/DTD/sodipodi-0.dtd"
   xmlns="http://www.w3.org/2000/svg"
   xmlns:svg="http://www.w3.org/2000/svg">
  <defs
     id="defs7" />
  <sodipodi:namedview
     id="namedview7"
     pagecolor="#505050"
     bordercolor="#eeeeee"
     borderopacity="1"
     inkscape:showpageshadow="0"
     inkscape:pageopacity="0"
     inkscape:pagecheckerboard="0"
     inkscape:deskcolor="#505050"
     inkscape:document-units="mm"
     inkscape:zoom="0.16722849"
     inkscape:cx="1213.908"
     inkscape:cy="1485.9908"
     inkscape:window-width="1920"
     inkscape:window-height="1011"
     inkscape:window-x="0"
     inkscape:window-y="32"
     inkscape:window-maximized="1"
     inkscape:current-layer="svg7" />
  <polyline
     z="0"
     points="451.4,424.435 451.4,419.235 441.4,419.235 441.4,411.991 436.2,411.991 436.2,399.346 441.4,399.346 441.4,387.102 436.2,387.102 436.2,374.457 441.4,374.457 441.4,362.213 436.2,362.213 436.2,349.568 441.4,349.568 441.4,337.324 436.2,337.324 436.2,324.679 441.4,324.679 441.4,317.435 454.33,317.435 454.33,312.235 467.46,312.235 467.46,317.435 480.19,317.435 480.19,312.435 474.359,312.435 460.036,298.113 462.244,292.783 462.244,298.385 476.713,298.385 476.713,293.185 491.581,293.185 491.581,298.385 506.25,298.385 506.25,312.435 493.32,312.435 493.32,317.435 506.288,317.435 471.4,424.967 471.4,419.235 461.6,419.235 461.6,424.435 451.4,424.435"
     fill="none"
     stroke="#000000"
     stroke-width="0.1mm"
     id="polyline3"
     transform="rotate(90,619.37152,532.65647)"
     style="vector-effect:non-scaling-stroke;stroke-width:0.264583;stroke-dasharray:none;-inkscape-stroke:hairline" />
  <polyline
     z="0"
     points="541.175,424.967 506.288,317.435 519.255,317.435 519.255,312.435 506.325,312.435 506.325,298.385 520.994,298.385 520.994,293.185 535.862,293.185 535.862,298.385 550.331,298.385 550.331,292.783 552.539,298.113 538.217,312.435 532.385,312.435 532.385,317.435 545.115,317.435 545.115,312.235 558.245,312.235 558.245,317.435 571.175,317.435 571.175,324.679 576.375,324.679 576.375,337.324 571.175,337.324 571.175,349.568 576.375,349.568 576.375,362.213 571.175,362.213 571.175,374.457 576.375,374.457 576.375,387.102 571.175,387.102 571.175,399.346 576.375,399.346 576.375,411.991 571.175,411.991 571.175,419.235 561.175,419.235 561.175,424.435 550.975,424.435 550.975,419.235 541.175,419.235 541.175,424.967"
     fill="none"
     stroke="#000000"
     stroke-width="0.1mm"
     id="polyline4"
     transform="rotate(90,689.45902,462.56897)"
     style="vector-effect:non-scaling-stroke;stroke-width:0.264583;stroke-dasharray:none;-inkscape-stroke:hairline" />
  <polyline
     z="0"
     points="451.4,424.435 451.4,419.235 441.4,419.235 441.4,411.991 436.2,411.991 436.2,399.346 441.4,399.346 441.4,387.102 436.2,387.102 436.2,374.457 441.4,374.457 441.4,362.213 436.2,362.213 436.2,349.568 441.4,349.568 441.4,337.324 436.2,337.324 436.2,324.679 441.4,324.679 441.4,317.435 454.33,317.435 454.33,312.235 467.46,312.235 467.46,317.435 480.19,317.435 480.19,312.435 474.359,312.435 460.036,298.113 462.244,292.783 462.244,298.385 476.713,298.385 476.713,293.185 491.581,293.185 491.581,298.385 506.25,298.385 506.25,312.435 493.32,312.435 493.32,317.435 506.288,317.435 471.4,424.967 471.4,419.235 461.6,419.235 461.6,424.435 451.4,424.435"
     fill="none"
     stroke="#000000"
     stroke-width="0.1mm"
     id="polyline3-6"
     transform="rotate(-90,666.62455,232.34656)"
     style="vector-effect:non-scaling-stroke;stroke-width:0.264583;stroke-dasharray:none;-inkscape-stroke:hairline" />
  <polyline
     z="0"
     points="541.175,424.967 506.288,317.435 519.255,317.435 519.255,312.435 506.325,312.435 506.325,298.385 520.994,298.385 520.994,293.185 535.862,293.185 535.862,298.385 550.331,298.385 550.331,292.783 552.539,298.113 538.217,312.435 532.385,312.435 532.385,317.435 545.115,317.435 545.115,312.235 558.245,312.235 558.245,317.435 571.175,317.435 571.175,324.679 576.375,324.679 576.375,337.324 571.175,337.324 571.175,349.568 576.375,349.568 576.375,362.213 571.175,362.213 571.175,374.457 576.375,374.457 576.375,387.102 571.175,387.102 571.175,399.346 576.375,399.346 576.375,411.991 571.175,411.991 571.175,419.235 561.175,419.235 561.175,424.435 550.975,424.435 550.975,419.235 541.175,419.235 541.175,424.967"
     fill="none"
     stroke="#000000"
     stroke-width="0.1mm"
     id="polyline4-1"
     transform="rotate(-90,623.4265,189.1485)"
     style="vector-effect:non-scaling-stroke;stroke-width:0.264583;stroke-dasharray:none;-inkscape-stroke:hairline" />
  <polyline
     z="0"
     points="436.2,602.017 436.2,588.887 441.4,588.887 441.4,576.157 436.2,576.157 436.2,563.027 441.4,563.027 441.4,550.297 436.2,550.297 436.2,537.167 452.831,537.167 452.831,542.367 469.062,542.367 469.062,537.167 485.692,537.167 485.692,542.367 501.923,542.367 501.923,537.167 518.554,537.167 518.554,542.367 534.785,542.367 534.785,537.167 551.415,537.167 551.415,542.367 567.646,542.367 567.646,537.167 584.277,537.167 584.277,542.367 600.508,542.367 600.508,537.167 617.138,537.167 617.138,542.367 633.369,542.367 633.369,537.167 650,537.167 650,550.297 644.8,550.297 644.8,563.027 650,563.027 650,576.157 644.8,576.157 644.8,588.887 650,588.887 650,602.017 633.569,602.017 633.569,607.217 616.938,607.217 616.938,602.017 600.708,602.017 600.708,607.217 584.077,607.217 584.077,602.017 567.846,602.017 567.846,607.217 551.215,607.217 551.215,602.017 534.985,602.017 534.985,607.217 518.354,607.217 518.354,602.017 502.123,602.017 502.123,607.217 485.492,607.217 485.492,602.017 469.262,602.017 469.262,607.217 452.631,607.217 452.631,602.017 436.2,602.017"
     fill="none"
     stroke="#000000"
     stroke-width="0.1mm"
     id="polyline1"
     transform="matrix(0,1,1,0,119.84401,13.800005)"
     style="vector-effect:non-scaling-stroke;stroke-width:0.264583;stroke-dasharray:none;-inkscape-stroke:hairline" />
  <polyline
     z="0"
     points="436.2,537.167 436.2,524.523 441.4,524.523 441.4,512.278 436.2,512.278 436.2,499.634 441.4,499.634 441.4,487.389 436.2,487.389 436.2,474.745 441.4,474.745 441.4,462.5 436.2,462.5 436.2,449.856 441.4,449.856 441.4,437.611 436.2,437.611 436.2,424.967 452.831,424.967 452.831,430.167 469.062,430.167 469.062,424.967 485.692,424.967 485.692,430.167 501.923,430.167 501.923,424.967 518.554,424.967 518.554,430.167 534.785,430.167 534.785,424.967 551.415,424.967 551.415,430.167 567.646,430.167 567.646,424.967 584.277,424.967 584.277,430.167 600.508,430.167 600.508,424.967 617.138,424.967 617.138,430.167 633.369,430.167 633.369,424.967 650,424.967 650,437.611 644.8,437.611 644.8,449.856 650,449.856 650,462.5 644.8,462.5 644.8,474.745 650,474.745 650,487.389 644.8,487.389 644.8,499.634 650,499.634 650,512.278 644.8,512.278 644.8,524.523 650,524.523 650,537.167 633.369,537.167 633.369,531.967 617.138,531.967 617.138,537.167 600.508,537.167 600.508,531.967 584.277,531.967 584.277,537.167 567.646,537.167 567.646,531.967 551.415,531.967 551.415,537.167 534.785,537.167 534.785,531.967 518.554,531.967 518.554,537.167 501.923,537.167 501.923,531.967 485.692,531.967 485.692,537.167 469.062,537.167 469.062,531.967 452.831,531.967 452.831,537.167 436.2,537.167"
     fill="none"
     stroke="#000000"
     stroke-width="0.1mm"
     id="polyline2"
     transform="rotate(90,534.089,547.889)"
     style="vector-effect:non-scaling-stroke;stroke-width:0.264583;stroke-dasharray:none;-inkscape-stroke:hairline" />
  <polyline
     z="0"
     points="650,492.961 666.631,492.961 666.631,498.161 682.862,498.161 682.862,492.961 699.492,492.961 699.492,498.161 715.723,498.161 715.723,492.961 732.354,492.961 732.354,498.161 748.585,498.161 748.585,492.961 765.215,492.961 765.215,498.161 781.446,498.161 781.446,492.961 798.077,492.961 798.077,498.161 814.308,498.161 814.308,492.961 830.938,492.961 830.938,498.161 847.169,498.161 847.169,492.961 863.8,492.961 863.8,507.83 858.6,507.83 858.6,522.298 863.8,522.298 863.8,537.167 650,537.167 650,522.298 655.2,522.298 655.2,507.83 650,507.83 650,492.961"
     fill="none"
     stroke="#000000"
     stroke-width="0.1mm"
     id="polyline5"
     transform="rotate(90,618.886,418.886)"
     style="vector-effect:non-scaling-stroke;stroke-width:0.264583;stroke-dasharray:none;-inkscape-stroke:hairline" />
  <polyline
     z="0"
     points="650,547.367 863.8,547.367 863.8,557.567 858.6,557.567 858.6,567.367 863.8,567.367 863.8,577.567 847.369,577.567 847.369,582.767 830.738,582.767 830.738,577.567 814.508,577.567 814.508,582.767 797.877,582.767 797.877,577.567 781.646,577.567 781.646,582.767 765.015,582.767 765.015,577.567 748.785,577.567 748.785,582.767 732.154,582.767 732.154,577.567 715.923,577.567 715.923,582.767 699.292,582.767 699.292,577.567 683.062,577.567 683.062,582.767 666.431,582.767 666.431,577.567 650,577.567 650,567.367 655.2,567.367 655.2,557.567 650,557.567 650,547.367"
     fill="none"
     stroke="#000000"
     stroke-width="0.1mm"
     id="polyline6"
     transform="rotate(90,623.98601,423.986)"
     style="vector-effect:non-scaling-stroke;stroke-width:0.264583;stroke-dasharray:none;-inkscape-stroke:hairline" />
  <polyline
     z="0"
     points="661.231,582.767 677.862,582.767 677.862,587.967 694.092,587.967 694.092,582.767 710.723,582.767 710.723,587.967 726.954,587.967 726.954,582.767 743.585,582.767 743.585,587.967 759.815,587.967 759.815,582.767 776.446,582.767 776.446,587.967 792.677,587.967 792.677,582.767 809.308,582.767 809.308,587.967 825.538,587.967 825.538,582.767 842.169,582.767 842.169,587.967 853.4,587.967 853.4,602.017 842.169,602.017 842.169,607.217 825.538,607.217 825.538,602.017 809.308,602.017 809.308,607.217 792.677,607.217 792.677,602.017 776.446,602.017 776.446,607.217 759.815,607.217 759.815,602.017 743.585,602.017 743.585,607.217 726.954,607.217 726.954,602.017 710.723,602.017 710.723,607.217 694.092,607.217 694.092,602.017 677.862,602.017 677.862,607.217 661.231,607.217 661.231,602.017 650,602.017 650,587.967 661.231,587.967 661.231,582.767"
     fill="none"
     stroke="#000000"
     stroke-width="0.1mm"
     id="polyline7"
     transform="rotate(90,621.386,426.586)"
     style="vector-effect:non-scaling-stroke;stroke-width:0.264583;stroke-dasharray:none;-inkscape-stroke:hairline" />
  <polyline
     z="0"
     points="436.2,602.017 436.2,588.887 441.4,588.887 441.4,576.157 436.2,576.157 436.2,563.027 441.4,563.027 441.4,550.297 436.2,550.297 436.2,537.167 452.831,537.167 452.831,542.367 469.062,542.367 469.062,537.167 485.692,537.167 485.692,542.367 501.923,542.367 501.923,537.167 518.554,537.167 518.554,542.367 534.785,542.367 534.785,537.167 551.415,537.167 551.415,542.367 567.646,542.367 567.646,537.167 584.277,537.167 584.277,542.367 600.508,542.367 600.508,537.167 617.138,537.167 617.138,542.367 633.369,542.367 633.369,537.167 650,537.167 650,550.297 644.8,550.297 644.8,563.027 650,563.027 650,576.157 644.8,576.157 644.8,588.887 650,588.887 650,602.017 633.569,602.017 633.569,607.217 616.938,607.217 616.938,602.017 600.708,602.017 600.708,607.217 584.077,607.217 584.077,602.017 567.846,602.017 567.846,607.217 551.215,607.217 551.215,602.017 534.985,602.017 534.985,607.217 518.354,607.217 518.354,602.017 502.123,602.017 502.123,607.217 485.492,607.217 485.492,602.017 469.262,602.017 469.262,607.217 452.631,607.217 452.631,602.017 436.2,602.017"
     fill="none"
     stroke="#000000"
     stroke-width="0.1mm"
     id="polyline1-6"
     transform="rotate(-90,503.02199,383.178)"
     style="vector-effect:non-scaling-stroke;stroke-width:0.264583;stroke-dasharray:none;-inkscape-stroke:hairline" />
  <polyline
     z="0"
     points="436.2,537.167 436.2,524.523 441.4,524.523 441.4,512.278 436.2,512.278 436.2,499.634 441.4,499.634 441.4,487.389 436.2,487.389 436.2,474.745 441.4,474.745 441.4,462.5 436.2,462.5 436.2,449.856 441.4,449.856 441.4,437.611 436.2,437.611 436.2,424.967 452.831,424.967 452.831,430.167 469.062,430.167 469.062,424.967 485.692,424.967 485.692,430.167 501.923,430.167 501.923,424.967 518.554,424.967 518.554,430.167 534.785,430.167 534.785,424.967 551.415,424.967 551.415,430.167 567.646,430.167 567.646,424.967 584.277,424.967 584.277,430.167 600.508,430.167 600.508,424.967 617.138,424.967 617.138,430.167 633.369,430.167 633.369,424.967 650,424.967 650,437.611 644.8,437.611 644.8,449.856 650,449.856 650,462.5 644.8,462.5 644.8,474.745 650,474.745 650,487.389 644.8,487.389 644.8,499.634 650,499.634 650,512.278 644.8,512.278 644.8,524.523 650,524.523 650,537.167 633.369,537.167 633.369,531.967 617.138,531.967 617.138,537.167 600.508,537.167 600.508,531.967 584.277,531.967 584.277,537.167 567.646,537.167 567.646,531.967 551.415,531.967 551.415,537.167 534.785,537.167 534.785,531.967 518.554,531.967 518.554,537.167 501.923,537.167 501.923,531.967 485.692,531.967 485.692,537.167 469.062,537.167 469.062,531.967 452.831,531.967 452.831,537.167 436.2,537.167"
     fill="none"
     stroke="#000000"
     stroke-width="0.1mm"
     id="polyline2-2"
     transform="matrix(0,-1,-1,0,1081.978,886.20001)"
     style="vector-effect:non-scaling-stroke;stroke-width:0.264583;stroke-dasharray:none;-inkscape-stroke:hairline" />
  <polyline
     z="0"
     points="650,492.961 666.631,492.961 666.631,498.161 682.862,498.161 682.862,492.961 699.492,492.961 699.492,498.161 715.723,498.161 715.723,492.961 732.354,492.961 732.354,498.161 748.585,498.161 748.585,492.961 765.215,492.961 765.215,498.161 781.446,498.161 781.446,492.961 798.077,492.961 798.077,498.161 814.308,498.161 814.308,492.961 830.938,492.961 830.938,498.161 847.169,498.161 847.169,492.961 863.8,492.961 863.8,507.83 858.6,507.83 858.6,522.298 863.8,522.298 863.8,537.167 650,537.167 650,522.298 655.2,522.298 655.2,507.83 650,507.83 650,492.961"
     fill="none"
     stroke="#000000"
     stroke-width="0.1mm"
     id="polyline5-8"
     transform="matrix(0,-1,-1,0,1037.772,1100)"
     style="vector-effect:non-scaling-stroke;stroke-width:0.264583;stroke-dasharray:none;-inkscape-stroke:hairline" />
  <polyline
     z="0"
     points="650,547.367 863.8,547.367 863.8,557.567 858.6,557.567 858.6,567.367 863.8,567.367 863.8,577.567 847.369,577.567 847.369,582.767 830.738,582.767 830.738,577.567 814.508,577.567 814.508,582.767 797.877,582.767 797.877,577.567 781.646,577.567 781.646,582.767 765.015,582.767 765.015,577.567 748.785,577.567 748.785,582.767 732.154,582.767 732.154,577.567 715.923,577.567 715.923,582.767 699.292,582.767 699.292,577.567 683.062,577.567 683.062,582.767 666.431,582.767 666.431,577.567 650,577.567 650,567.367 655.2,567.367 655.2,557.567 650,557.567 650,547.367"
     fill="none"
     stroke="#000000"
     stroke-width="0.1mm"
     id="polyline6-7"
     transform="matrix(0,-1,-1,0,1047.972,1100)"
     style="vector-effect:non-scaling-stroke;stroke-width:0.264583;stroke-dasharray:none;-inkscape-stroke:hairline" />
  <polyline
     z="0"
     points="661.231,582.767 677.862,582.767 677.862,587.967 694.092,587.967 694.092,582.767 710.723,582.767 710.723,587.967 726.954,587.967 726.954,582.767 743.585,582.767 743.585,587.967 759.815,587.967 759.815,582.767 776.446,582.767 776.446,587.967 792.677,587.967 792.677,582.767 809.308,582.767 809.308,587.967 825.538,587.967 825.538,582.767 842.169,582.767 842.169,587.967 853.4,587.967 853.4,602.017 842.169,602.017 842.169,607.217 825.538,607.217 825.538,602.017 809.308,602.017 809.308,607.217 792.677,607.217 792.677,602.017 776.446,602.017 776.446,607.217 759.815,607.217 759.815,602.017 743.585,602.017 743.585,607.217 726.954,607.217 726.954,602.017 710.723,602.017 710.723,607.217 694.092,607.217 694.092,602.017 677.862,602.017 677.862,607.217 661.231,607.217 661.231,602.017 650,602.017 650,587.967 661.231,587.967 661.231,582.767"
     fill="none"
     stroke="#000000"
     stroke-width="0.1mm"
     id="polyline7-9"
     transform="matrix(0,-1,-1,0,1047.972,1094.8)"
     style="vector-effect:non-scaling-stroke;stroke-width:0.264583;stroke-dasharray:none;-inkscape-stroke:hairline" />
</svg>
