<?xml version="1.0" encoding="UTF-8" standalone="no"?>
<svg
   width="1300mm"
   height="900mm"
   viewBox="0 0 1300 900"
   version="1.1"
   id="svg7"
   sodipodi:docname="Tray6x4.svg"
   inkscape:version="1.3.2 (091e20ef0f, 2023-11-25)"
   xmlns:inkscape="http://www.inkscape.org/namespaces/inkscape"
   xmlns:sodipodi="http://sodipodi.sourceforge.net/DTD/sodipodi-0.dtd"
   xmlns="http://www.w3.org/2000/svg"
   xmlns:svg="http://www.w3.org/2000/svg">
  <defs
     id="defs7" />
  <sodipodi:namedview
     id="namedview7"
     pagecolor="#505050"
     bordercolor="#eeeeee"
     borderopacity="1"
     inkscape:showpageshadow="0"
     inkscape:pageopacity="0"
     inkscape:pagecheckerboard="0"
     inkscape:deskcolor="#505050"
     inkscape:document-units="mm"
     inkscape:zoom="0.32686217"
     inkscape:cx="1231.4059"
     inkscape:cy="1653.6022"
     inkscape:window-width="1920"
     inkscape:window-height="1011"
     inkscape:window-x="0"
     inkscape:window-y="32"
     inkscape:window-maximized="1"
     inkscape:current-layer="svg7" />
  <polyline
     z="0"
     points="603.544,667.578 603.544,653.528 616.433,653.528 616.433,648.328 634.722,648.328 634.722,653.528 652.611,653.528 652.611,648.328 670.9,648.328 670.9,653.528 688.788,653.528 688.788,648.328 707.077,648.328 707.077,653.528 724.966,653.528 724.966,648.328 743.255,648.328 743.255,653.528 756.144,653.528 756.144,667.578 743.255,667.578 743.255,672.778 724.966,672.778 724.966,667.578 707.077,667.578 707.077,672.778 688.788,672.778 688.788,667.578 670.9,667.578 670.9,672.778 652.611,672.778 652.611,667.578 634.722,667.578 634.722,672.778 616.433,672.778 616.433,667.578 603.544,667.578"
     fill="none"
     stroke="#000000"
     stroke-width="0.1mm"
     id="polyline2"
     transform="rotate(90,888.06233,601.32168)"
     style="vector-effect:non-scaling-stroke;stroke-width:0.264583;stroke-dasharray:none;-inkscape-stroke:hairline" />
  <polyline
     z="0"
     points="608.744,648.328 608.744,638.328 603.544,638.328 603.544,628.128 608.744,628.128 608.744,618.128 621.633,618.128 621.633,612.928 639.922,612.928 639.922,618.128 657.811,618.128 657.811,612.928 676.1,612.928 676.1,618.128 693.988,618.128 693.988,612.928 712.277,612.928 712.277,618.128 730.166,618.128 730.166,612.928 748.455,612.928 748.455,618.128 761.344,618.128 761.344,628.128 766.544,628.128 766.544,638.328 761.344,638.328 761.344,648.328 608.744,648.328"
     fill="none"
     stroke="#000000"
     stroke-width="0.1mm"
     id="polyline3"
     transform="rotate(90,920.58732,628.64667)"
     style="vector-effect:non-scaling-stroke;stroke-width:0.264583;stroke-dasharray:none;-inkscape-stroke:hairline" />
  <polyline
     z="0"
     points="603.544,612.928 603.544,598.059 608.744,598.059 608.744,583.591 603.544,583.591 603.544,568.722 766.544,568.722 766.544,583.591 761.344,583.591 761.344,598.059 766.544,598.059 766.544,612.928 748.255,612.928 748.255,607.728 730.366,607.728 730.366,612.928 712.077,612.928 712.077,607.728 694.188,607.728 694.188,612.928 675.9,612.928 675.9,607.728 658.011,607.728 658.011,612.928 639.722,612.928 639.722,607.728 621.833,607.728 621.833,612.928 603.544,612.928"
     fill="none"
     stroke="#000000"
     stroke-width="0.1mm"
     id="polyline4"
     transform="rotate(90,725.40632,433.46567)"
     style="vector-effect:non-scaling-stroke;stroke-width:0.264583;stroke-dasharray:none;-inkscape-stroke:hairline" />
  <polyline
     z="0"
     points="605.812,541.125 605.812,535.925 587.923,535.925 587.923,541.125 569.634,541.125 569.634,535.925 551.745,535.925 551.745,541.125 533.456,541.125 533.456,527.995 538.656,527.995 538.656,515.265 533.456,515.265 533.456,502.135 538.656,502.135 538.656,489.405 533.456,489.405 533.456,476.275 551.545,476.275 551.545,471.075 569.834,471.075 569.834,476.275 587.723,476.275 587.723,471.075 606.012,471.075 606.012,476.275 623.9,476.275 623.9,471.075 642.189,471.075 642.189,476.275 660.078,476.275 660.078,471.075 678.367,471.075 678.367,476.275 696.456,476.275 696.456,489.405 691.256,489.405 691.256,502.135 696.456,502.135 696.456,515.265 691.256,515.265 691.256,527.995 696.456,527.995 696.456,541.125 678.167,541.125 678.167,535.925 660.278,535.925 660.278,541.125 641.989,541.125 641.989,535.925 624.1,535.925 624.1,541.125 605.812,541.125"
     fill="none"
     stroke="#000000"
     stroke-width="0.1mm"
     id="polyline5"
     transform="rotate(90,754.76683,532.91417)"
     style="vector-effect:non-scaling-stroke;stroke-width:0.264583;stroke-dasharray:none;-inkscape-stroke:hairline" />
  <polyline
     z="0"
     points="605.812,471.075 605.812,465.875 587.923,465.875 587.923,471.075 569.634,471.075 569.634,465.875 551.745,465.875 551.745,471.075 533.456,471.075 533.456,458.431 538.656,458.431 538.656,446.186 533.456,446.186 533.456,433.542 538.656,433.542 538.656,421.297 533.456,421.297 533.456,408.653 538.656,408.653 538.656,396.408 533.456,396.408 533.456,383.764 538.656,383.764 538.656,371.519 533.456,371.519 533.456,358.875 551.745,358.875 551.745,364.075 569.634,364.075 569.634,358.875 587.923,358.875 587.923,364.075 605.812,364.075 605.812,358.875 624.1,358.875 624.1,364.075 641.989,364.075 641.989,358.875 660.278,358.875 660.278,364.075 678.167,364.075 678.167,358.875 696.456,358.875 696.456,371.519 691.256,371.519 691.256,383.764 696.456,383.764 696.456,396.408 691.256,396.408 691.256,408.653 696.456,408.653 696.456,421.297 691.256,421.297 691.256,433.542 696.456,433.542 696.456,446.186 691.256,446.186 691.256,458.431 696.456,458.431 696.456,471.075 678.167,471.075 678.167,465.875 660.278,465.875 660.278,471.075 641.989,471.075 641.989,465.875 624.1,465.875 624.1,471.075 605.812,471.075"
     fill="none"
     stroke="#000000"
     stroke-width="0.1mm"
     id="polyline6"
     transform="rotate(90,663.64183,441.78917)"
     style="vector-effect:non-scaling-stroke;stroke-width:0.264583;stroke-dasharray:none;-inkscape-stroke:hairline" />
  <polyline
     z="0"
     points="603.544,667.578 603.544,653.528 616.433,653.528 616.433,648.328 634.722,648.328 634.722,653.528 652.611,653.528 652.611,648.328 670.9,648.328 670.9,653.528 688.788,653.528 688.788,648.328 707.077,648.328 707.077,653.528 724.966,653.528 724.966,648.328 743.255,648.328 743.255,653.528 756.144,653.528 756.144,667.578 743.255,667.578 743.255,672.778 724.966,672.778 724.966,667.578 707.077,667.578 707.077,672.778 688.788,672.778 688.788,667.578 670.9,667.578 670.9,672.778 652.611,672.778 652.611,667.578 634.722,667.578 634.722,672.778 616.433,672.778 616.433,667.578 603.544,667.578"
     fill="none"
     stroke="#000000"
     stroke-width="0.1mm"
     id="polyline2-6"
     transform="rotate(-90,632.83767,440.10967)"
     style="vector-effect:non-scaling-stroke;stroke-width:0.264583;stroke-dasharray:none;-inkscape-stroke:hairline" />
  <polyline
     z="0"
     points="608.744,648.328 608.744,638.328 603.544,638.328 603.544,628.128 608.744,628.128 608.744,618.128 621.633,618.128 621.633,612.928 639.922,612.928 639.922,618.128 657.811,618.128 657.811,612.928 676.1,612.928 676.1,618.128 693.988,618.128 693.988,612.928 712.277,612.928 712.277,618.128 730.166,618.128 730.166,612.928 748.455,612.928 748.455,618.128 761.344,618.128 761.344,628.128 766.544,628.128 766.544,638.328 761.344,638.328 761.344,648.328 608.744,648.328"
     fill="none"
     stroke="#000000"
     stroke-width="0.1mm"
     id="polyline3-7"
     transform="rotate(-90,665.36267,412.78467)"
     style="vector-effect:non-scaling-stroke;stroke-width:0.264583;stroke-dasharray:none;-inkscape-stroke:hairline" />
  <polyline
     z="0"
     points="603.544,612.928 603.544,598.059 608.744,598.059 608.744,583.591 603.544,583.591 603.544,568.722 766.544,568.722 766.544,583.591 761.344,583.591 761.344,598.059 766.544,598.059 766.544,612.928 748.255,612.928 748.255,607.728 730.366,607.728 730.366,612.928 712.077,612.928 712.077,607.728 694.188,607.728 694.188,612.928 675.9,612.928 675.9,607.728 658.011,607.728 658.011,612.928 639.722,612.928 639.722,607.728 621.833,607.728 621.833,612.928 603.544,612.928"
     fill="none"
     stroke="#000000"
     stroke-width="0.1mm"
     id="polyline4-5"
     transform="rotate(-90,549.78768,528.35967)"
     style="vector-effect:non-scaling-stroke;stroke-width:0.264583;stroke-dasharray:none;-inkscape-stroke:hairline" />
  <polyline
     z="0"
     points="605.812,541.125 605.812,535.925 587.923,535.925 587.923,541.125 569.634,541.125 569.634,535.925 551.745,535.925 551.745,541.125 533.456,541.125 533.456,527.995 538.656,527.995 538.656,515.265 533.456,515.265 533.456,502.135 538.656,502.135 538.656,489.405 533.456,489.405 533.456,476.275 551.545,476.275 551.545,471.075 569.834,471.075 569.834,476.275 587.723,476.275 587.723,471.075 606.012,471.075 606.012,476.275 623.9,476.275 623.9,471.075 642.189,471.075 642.189,476.275 660.078,476.275 660.078,471.075 678.367,471.075 678.367,476.275 696.456,476.275 696.456,489.405 691.256,489.405 691.256,502.135 696.456,502.135 696.456,515.265 691.256,515.265 691.256,527.995 696.456,527.995 696.456,541.125 678.167,541.125 678.167,535.925 660.278,535.925 660.278,541.125 641.989,541.125 641.989,535.925 624.1,535.925 624.1,541.125 605.812,541.125"
     fill="none"
     stroke="#000000"
     stroke-width="0.1mm"
     id="polyline5-3"
     transform="rotate(-90,450.33917,557.72017)"
     style="vector-effect:non-scaling-stroke;stroke-width:0.264583;stroke-dasharray:none;-inkscape-stroke:hairline" />
  <polyline
     z="0"
     points="605.812,471.075 605.812,465.875 587.923,465.875 587.923,471.075 569.634,471.075 569.634,465.875 551.745,465.875 551.745,471.075 533.456,471.075 533.456,458.431 538.656,458.431 538.656,446.186 533.456,446.186 533.456,433.542 538.656,433.542 538.656,421.297 533.456,421.297 533.456,408.653 538.656,408.653 538.656,396.408 533.456,396.408 533.456,383.764 538.656,383.764 538.656,371.519 533.456,371.519 533.456,358.875 551.745,358.875 551.745,364.075 569.634,364.075 569.634,358.875 587.923,358.875 587.923,364.075 605.812,364.075 605.812,358.875 624.1,358.875 624.1,364.075 641.989,364.075 641.989,358.875 660.278,358.875 660.278,364.075 678.167,364.075 678.167,358.875 696.456,358.875 696.456,371.519 691.256,371.519 691.256,383.764 696.456,383.764 696.456,396.408 691.256,396.408 691.256,408.653 696.456,408.653 696.456,421.297 691.256,421.297 691.256,433.542 696.456,433.542 696.456,446.186 691.256,446.186 691.256,458.431 696.456,458.431 696.456,471.075 678.167,471.075 678.167,465.875 660.278,465.875 660.278,471.075 641.989,471.075 641.989,465.875 624.1,465.875 624.1,471.075 605.812,471.075"
     fill="none"
     stroke="#000000"
     stroke-width="0.1mm"
     id="polyline6-5"
     transform="rotate(-90,541.46418,466.59517)"
     style="vector-effect:non-scaling-stroke;stroke-width:0.264583;stroke-dasharray:none;-inkscape-stroke:hairline" />
  <polyline
     z="0"
     points="568.171,672.778 533.456,565.778 546.424,565.778 546.424,560.778 533.494,560.778 533.494,546.728 548.163,546.728 548.163,541.528 563.031,541.528 563.031,546.728 577.5,546.728 577.5,541.125 579.708,546.455 565.385,560.778 559.554,560.778 559.554,565.778 572.284,565.778 572.284,560.578 585.414,560.578 585.414,565.778 598.344,565.778 598.344,573.022 603.544,573.022 603.544,585.667 598.344,585.667 598.344,597.911 603.544,597.911 603.544,610.556 598.344,610.556 598.344,622.8 603.544,622.8 603.544,635.445 598.344,635.445 598.344,647.689 603.544,647.689 603.544,660.334 598.344,660.334 598.344,672.778 588.144,672.778 588.144,667.578 578.344,667.578 578.344,672.778 568.171,672.778"
     fill="none"
     stroke="#000000"
     stroke-width="0.1mm"
     id="polyline1"
     transform="rotate(90,591.80313,576.32187)"
     style="vector-effect:non-scaling-stroke;stroke-width:0.264583;stroke-dasharray:none;-inkscape-stroke:hairline" />
  <polyline
     z="0"
     points="568.829,358.875 558.656,358.875 558.656,353.675 548.856,353.675 548.856,358.875 538.656,358.875 538.656,346.431 533.456,346.431 533.456,333.786 538.656,333.786 538.656,321.542 533.456,321.542 533.456,308.897 538.656,308.897 538.656,296.653 533.456,296.653 533.456,284.008 538.656,284.008 538.656,271.764 533.456,271.764 533.456,259.119 538.656,259.119 538.656,251.875 551.586,251.875 551.586,246.675 564.716,246.675 564.716,251.875 577.446,251.875 577.446,246.875 571.615,246.875 557.292,232.552 559.5,227.222 559.5,232.825 573.969,232.825 573.969,227.625 588.837,227.625 588.837,232.825 603.506,232.825 603.506,246.875 590.576,246.875 590.576,251.875 603.544,251.875 568.829,358.875"
     fill="none"
     stroke="#000000"
     stroke-width="0.1mm"
     id="polyline7"
     transform="rotate(90,390.71082,331.85818)"
     style="vector-effect:non-scaling-stroke;stroke-width:0.264583;stroke-dasharray:none;-inkscape-stroke:hairline" />
  <polyline
     z="0"
     points="568.171,672.778 533.456,565.778 546.424,565.778 546.424,560.778 533.494,560.778 533.494,546.728 548.163,546.728 548.163,541.528 563.031,541.528 563.031,546.728 577.5,546.728 577.5,541.125 579.708,546.455 565.385,560.778 559.554,560.778 559.554,565.778 572.284,565.778 572.284,560.578 585.414,560.578 585.414,565.778 598.344,565.778 598.344,573.022 603.544,573.022 603.544,585.667 598.344,585.667 598.344,597.911 603.544,597.911 603.544,610.556 598.344,610.556 598.344,622.8 603.544,622.8 603.544,635.445 598.344,635.445 598.344,647.689 603.544,647.689 603.544,660.334 598.344,660.334 598.344,672.778 588.144,672.778 588.144,667.578 578.344,667.578 578.344,672.778 568.171,672.778"
     fill="none"
     stroke="#000000"
     stroke-width="0.1mm"
     id="polyline1-3"
     transform="rotate(-90,516.18466,561.96268)"
     style="vector-effect:non-scaling-stroke;stroke-width:0.264583;stroke-dasharray:none;-inkscape-stroke:hairline" />
  <polyline
     z="0"
     points="568.829,358.875 558.656,358.875 558.656,353.675 548.856,353.675 548.856,358.875 538.656,358.875 538.656,346.431 533.456,346.431 533.456,333.786 538.656,333.786 538.656,321.542 533.456,321.542 533.456,308.897 538.656,308.897 538.656,296.653 533.456,296.653 533.456,284.008 538.656,284.008 538.656,271.764 533.456,271.764 533.456,259.119 538.656,259.119 538.656,251.875 551.586,251.875 551.586,246.675 564.716,246.675 564.716,251.875 577.446,251.875 577.446,246.875 571.615,246.875 557.292,232.552 559.5,227.222 559.5,232.825 573.969,232.825 573.969,227.625 588.837,227.625 588.837,232.825 603.506,232.825 603.506,246.875 590.576,246.875 590.576,251.875 603.544,251.875 568.829,358.875"
     fill="none"
     stroke="#000000"
     stroke-width="0.1mm"
     id="polyline7-6"
     transform="rotate(-90,628.99537,492.52337)"
     style="vector-effect:non-scaling-stroke;stroke-width:0.264583;stroke-dasharray:none;-inkscape-stroke:hairline" />
</svg>
