<?xml version="1.0" standalone="no"?>
<!DOCTYPE svg PUBLIC "-//W3C//DTD SVG 1.1//EN" "http://www.w3.org/Graphics/SVG/1.1/DTD/svg11.dtd">
<svg width="1300mm" height="900mm" viewBox="0 0 1300 900" xmlns="http://www.w3.org/2000/svg" version="1.1">
<polyline z="0" points="473.9,575 473.9,499.75 485.21,499.75 485.21,504.95 496.121,504.95 496.121,499.75 507.398,499.75 509.439,504.677 495.116,519 493.96,519 493.96,524 513.62,524 513.62,518.8 533.68,518.8 533.68,524 553.34,524 553.34,518.8 568.2,518.8 568.2,537.467 573.4,537.467 573.4,556.333 568.2,556.333 568.2,575 553.34,575 553.34,569.8 533.68,569.8 533.68,575 513.62,575 513.62,569.8 493.96,569.8 493.96,575 473.9,575" fill="none" stroke="black" stroke-width="0.1mm" />
<polyline z="0" points="479.1,499.75 479.1,479.89 473.9,479.89 473.9,459.83 479.1,459.83 479.1,440.17 473.9,440.17 473.9,420.11 479.1,420.11 479.1,400.25 496.233,400.25 496.233,405.45 512.967,405.45 512.967,400.25 530.1,400.25 530.1,420.11 535.1,420.11 535.1,400.25 552.233,400.25 552.233,405.45 568.967,405.45 568.967,400.25 586.1,400.25 586.1,420.11 591.3,420.11 591.3,440.17 586.1,440.17 586.1,459.83 591.3,459.83 591.3,479.89 586.1,479.89 586.1,499.75 535.1,499.75 535.1,479.89 530.1,479.89 530.1,499.75 479.1,499.75" fill="none" stroke="black" stroke-width="0.1mm" />
<polyline z="0" points="530.1,459.83 530.1,440.17 535.1,440.17 535.1,459.83 530.1,459.83" fill="none" stroke="black" stroke-width="0.1mm" />
<polyline z="0" points="533.68,400.25 513.62,400.25 513.62,395.05 493.96,395.05 493.96,400.25 479.1,400.25 479.1,381.583 473.9,381.583 473.9,362.717 479.1,362.717 479.1,344.05 493.96,344.05 493.96,349.25 513.62,349.25 513.62,344.05 533.68,344.05 533.68,349.25 553.34,349.25 553.34,344.25 552.184,344.25 537.861,329.927 539.902,325 551.179,325 551.179,330.2 562.09,330.2 562.09,325 573.4,325 573.4,400.25 553.34,400.25 553.34,395.05 533.68,395.05 533.68,400.25" fill="none" stroke="black" stroke-width="0.1mm" />
<polyline z="0" points="591.3,420.11 596.5,420.11 596.5,400.25 613.633,400.25 613.633,405.45 630.367,405.45 630.367,400.25 647.5,400.25 647.5,420.11 652.5,420.11 652.5,400.25 669.633,400.25 669.633,405.45 686.367,405.45 686.367,400.25 703.5,400.25 703.5,420.11 708.7,420.11 708.7,440.17 703.5,440.17 703.5,459.83 708.7,459.83 708.7,479.89 703.5,479.89 703.5,499.75 652.5,499.75 652.5,479.89 647.5,479.89 647.5,499.75 596.5,499.75 596.5,479.89 591.3,479.89 591.3,459.83 596.5,459.83 596.5,440.17 591.3,440.17 591.3,420.11" fill="none" stroke="black" stroke-width="0.1mm" />
<polyline z="0" points="647.5,440.17 652.5,440.17 652.5,459.83 647.5,459.83 647.5,440.17" fill="none" stroke="black" stroke-width="0.1mm" />
<polyline z="0" points="708.7,443.55 714.1,443.55 714.1,448.75 730.833,448.75 730.833,443.55 747.967,443.55 747.967,448.75 764.7,448.75 764.7,443.55 770.1,443.55 770.1,448.75 786.833,448.75 786.833,443.55 803.967,443.55 803.967,448.75 820.7,448.75 820.7,443.55 826.1,443.55 826.1,462.417 820.9,462.417 820.9,480.883 826.1,480.883 826.1,499.75 820.7,499.75 820.7,494.55 803.967,494.55 803.967,499.75 786.833,499.75 786.833,494.55 770.1,494.55 770.1,499.75 764.7,499.75 764.7,494.55 747.967,494.55 747.967,499.75 730.833,499.75 730.833,494.55 714.1,494.55 714.1,499.75 708.7,499.75 708.7,480.883 713.9,480.883 713.9,462.417 708.7,462.417 708.7,443.55" fill="none" stroke="black" stroke-width="0.1mm" />
<polyline z="0" points="764.9,462.417 769.9,462.417 769.9,480.883 764.9,480.883 764.9,462.417" fill="none" stroke="black" stroke-width="0.1mm" />
<polyline z="0" points="785.1,541.47 785.1,552.58 790.3,552.58 790.3,563.89 785.1,563.89 785.1,575 678.1,575 678.1,563.89 672.9,563.89 672.9,552.58 678.1,552.58 678.1,541.47 785.1,541.47" fill="none" stroke="black" stroke-width="0.1mm" />
<polyline z="0" points="672.9,537.467 672.9,556.333 667.7,556.333 667.7,575 652.84,575 652.84,569.8 633.18,569.8 633.18,575 613.12,575 613.12,569.8 593.46,569.8 593.46,575 573.4,575 573.4,518.8 593.46,518.8 593.46,524 613.12,524 613.12,518.8 633.18,518.8 633.18,524 652.84,524 652.84,518.8 667.7,518.8 667.7,537.467 672.9,537.467" fill="none" stroke="black" stroke-width="0.1mm" />
</svg>