<?xml version="1.0" encoding="UTF-8" standalone="no"?>
<svg
   width="1300mm"
   height="900mm"
   viewBox="0 0 1300 900"
   version="1.1"
   id="svg17"
   sodipodi:docname="TwoComp8in.svg"
   inkscape:version="1.3.2 (091e20ef0f, 2023-11-25)"
   xmlns:inkscape="http://www.inkscape.org/namespaces/inkscape"
   xmlns:sodipodi="http://sodipodi.sourceforge.net/DTD/sodipodi-0.dtd"
   xmlns="http://www.w3.org/2000/svg"
   xmlns:svg="http://www.w3.org/2000/svg">
  <defs
     id="defs17" />
  <sodipodi:namedview
     id="namedview17"
     pagecolor="#505050"
     bordercolor="#eeeeee"
     borderopacity="1"
     inkscape:showpageshadow="0"
     inkscape:pageopacity="0"
     inkscape:pagecheckerboard="0"
     inkscape:deskcolor="#505050"
     inkscape:document-units="mm"
     inkscape:zoom="0.15508654"
     inkscape:cx="1363.7547"
     inkscape:cy="1563.6431"
     inkscape:window-width="1920"
     inkscape:window-height="1011"
     inkscape:window-x="0"
     inkscape:window-y="32"
     inkscape:window-maximized="1"
     inkscape:current-layer="svg17" />
  <polyline
     z="0"
     points="730.833,551.464 747.967,551.464 747.967,556.664 764.9,556.664 764.9,570.131 769.9,570.131 769.9,556.664 786.833,556.664 786.833,551.464 803.967,551.464 803.967,556.664 820.9,556.664 820.9,570.131 826.1,570.131 826.1,588.997 820.9,588.997 820.9,602.464 803.967,602.464 803.967,607.664 786.833,607.664 786.833,602.464 769.9,602.464 769.9,588.997 764.9,588.997 764.9,602.464 747.967,602.464 747.967,607.664 730.833,607.664 730.833,602.464 713.9,602.464 713.9,588.997 708.7,588.997 708.7,570.131 713.9,570.131 713.9,556.664 730.833,556.664 730.833,551.464"
     fill="none"
     stroke="#000000"
     stroke-width="0.1mm"
     id="polyline11"
     transform="rotate(90,603.11951,499.51949)"
     style="vector-effect:non-scaling-stroke;stroke-width:0.264583;stroke-dasharray:none;-inkscape-stroke:hairline" />
  <polyline
     z="0"
     points="607.1,607.664 607.1,626.309 612.3,626.309 612.3,645.155 607.1,645.155 607.1,663.8 500.1,663.8 500.1,645.155 494.9,645.155 494.9,626.309 500.1,626.309 500.1,607.664 607.1,607.664"
     fill="none"
     stroke="#000000"
     stroke-width="0.1mm"
     id="polyline12"
     transform="rotate(90,580.45549,690.65549)"
     style="vector-effect:non-scaling-stroke;stroke-width:0.264583;stroke-dasharray:none;-inkscape-stroke:hairline" />
  <polyline
     z="0"
     points="730.833,551.464 747.967,551.464 747.967,556.664 764.9,556.664 764.9,570.131 769.9,570.131 769.9,556.664 786.833,556.664 786.833,551.464 803.967,551.464 803.967,556.664 820.9,556.664 820.9,570.131 826.1,570.131 826.1,588.997 820.9,588.997 820.9,602.464 803.967,602.464 803.967,607.664 786.833,607.664 786.833,602.464 769.9,602.464 769.9,588.997 764.9,588.997 764.9,602.464 747.967,602.464 747.967,607.664 730.833,607.664 730.833,602.464 713.9,602.464 713.9,588.997 708.7,588.997 708.7,570.131 713.9,570.131 713.9,556.664 730.833,556.664 730.833,551.464"
     fill="none"
     stroke="#000000"
     stroke-width="0.1mm"
     id="polyline11-8"
     transform="matrix(0,1,1,0,-112.68902,-103.6)"
     style="vector-effect:non-scaling-stroke;stroke-width:0.264583;stroke-dasharray:none;-inkscape-stroke:hairline" />
  <polyline
     z="0"
     points="607.1,607.664 607.1,626.309 612.3,626.309 612.3,645.155 607.1,645.155 607.1,663.8 500.1,663.8 500.1,645.155 494.9,645.155 494.9,626.309 500.1,626.309 500.1,607.664 607.1,607.664"
     fill="none"
     stroke="#000000"
     stroke-width="0.1mm"
     id="polyline12-4"
     transform="matrix(0,1,1,0,-56.48902,110.2)"
     style="vector-effect:non-scaling-stroke;stroke-width:0.264583;stroke-dasharray:none;-inkscape-stroke:hairline" />
  <path
     id="polyline5"
     style="vector-effect:non-scaling-stroke;fill:none;stroke:#000000;stroke-width:0.264583;stroke-dasharray:none;-inkscape-stroke:hairline"
     d="m 612.37498,449.555 h 5 v -19.219 h -5 v 19.219 m 0,38.836 h 5 v -19.218 h -5 v 19.218 m 0,38.836 h 5 v -19.218 h -5 v 19.218 m 0,19.618 v 19.219 h 5 v -19.219 h -5 m -51,-155.545 v 19.418 h -5.2 v 19.618 h 5.2 v 19.219 h -5.2 v 19.618 h 5.2 v 19.218 h -5.2 v 19.618 h 5.2 v 19.218 h -5.2 v 19.618 h 5.2 v 19.219 h -5.2 v 19.618 h 5.2 V 605.1 h 17.133 v -5.2 h 16.734 v 5.2 h 17.133 v -19.418 h 5 V 605.1 h 17.133 v -5.2 h 16.734 v 5.2 h 17.133 v -19.418 h 5.2 v -19.618 h -5.2 v -19.219 h 5.2 v -19.618 h -5.2 v -19.218 h 5.2 v -19.618 h -5.2 v -19.218 h 5.2 v -19.618 h -5.2 v -19.219 h 5.2 v -19.618 h -5.2 V 391.3 h -51 v 19.418 h -5 V 391.3 h -51" />
  <path
     id="polyline7"
     style="vector-effect:non-scaling-stroke;fill:none;stroke:#000000;stroke-width:0.264583;stroke-dasharray:none;-inkscape-stroke:hairline"
     d="m 780.77502,449.75501 h 5 v 19.218 h -5 v -19.218 m -51.00004,-58.455 h 56.20004 v 19.618 h -5.2 v 19.218 h 5 v -17.761 h 5.721 l 13.529,13.529 v 18.787 h -5.2 v 18.445 h 5.2 v 18.812 l -4.927,2.041 -14.123,-14.123 v 18.725 h -5.2 v 19.218 h 5.2 v 19.618 h -5.2 v 19.218 h 5.2 v 19.619 h -5.2 v 19.218 h 5.2 v 19.618 h -18.86704 v -5.2 h -18.466 v 5.2 h -18.867 v -19.618 h 5.2 v -19.218 h -5.2 v -19.619 h 5.2 v -19.218 h -5.2 v -19.618 h 5.2 v -19.218 h -5.2 v -19.618 h 5.2 v -19.218 h -5.2 v -19.619 h 5.2 v -19.218 h -5.2 v -19.618" />
  <path
     id="polyline9"
     style="vector-effect:non-scaling-stroke;fill:none;stroke:#000000;stroke-width:0.264583;stroke-dasharray:none;-inkscape-stroke:hairline"
     d="m 780.77502,313.62701 h 5 v 19.218 h -5 v -19.218 m -51.00002,-77.672 v -19.619 h 5.2 v -19.218 h -5.2 v -19.618 h 18.867 v 5.2 h 18.466 v -5.2 h 18.86702 v 19.618 h -5.2 v 19.218 h 5.2 v 19.619 h -5.2 v 19.218 h 5.2 v 19.618 h -5.2 v 19.218 h 5.2 v 18.725 l 14.123,-14.123 4.927,2.041 v 18.812 h -5.2 v 18.445 h 5.2 v 18.787 l -13.529,13.529 h -5.721 v -17.761 h -5 v 19.218 h 5.2 v 19.618 H 729.775 v -19.618 h 5.2 v -19.218 h -5.2 v -19.619 h 5.2 v -19.218 h -5.2 v -19.618 h 5.2 v -19.218 h -5.2 v -19.618 h 5.2 v -19.218 h -5.2" />
  <polyline
     z="0"
     points="708.7,476.214 728.318,476.214 728.318,481.414 747.536,481.414 747.536,476.214 767.155,476.214 767.155,481.414 786.373,481.414 786.373,476.214 805.991,476.214 805.991,481.414 825.209,481.414 825.209,476.214 844.827,476.214 844.827,481.414 864.045,481.414 864.045,476.214 883.664,476.214 883.664,481.414 902.882,481.414 902.882,476.214 922.5,476.214 922.5,532.414 902.882,532.414 902.882,527.214 883.664,527.214 883.664,532.414 864.045,532.414 864.045,527.214 844.827,527.214 844.827,532.414 825.209,532.414 825.209,527.214 805.991,527.214 805.991,532.414 786.373,532.414 786.373,527.214 767.155,527.214 767.155,532.414 747.536,532.414 747.536,527.214 728.318,527.214 728.318,532.414 708.7,532.414 708.7,513.547 713.9,513.547 713.9,495.081 708.7,495.081 708.7,476.214"
     fill="none"
     stroke="#000000"
     stroke-width="0.1mm"
     id="polyline10"
     transform="rotate(90,761.69449,444.29449)"
     style="vector-effect:non-scaling-stroke;stroke-width:0.264583;stroke-dasharray:none;-inkscape-stroke:hairline" />
  <path
     id="polyline17"
     style="vector-effect:non-scaling-stroke;fill:none;stroke:#000000;stroke-width:0.264583;stroke-dasharray:none;-inkscape-stroke:hairline"
     d="m 617.37498,333.045 v 19.219 h -5 v -19.219 h 5 m 0,-38.836 v 19.218 h -5 v -19.218 h 5 m 0,-38.836 v 19.218 h -5 v -19.218 h 5 m 0,-19.618 h -5 v -19.219 h 5 v 19.219 m 51,155.545 h -51 v -19.418 h -5 V 391.3 h -51 v -19.418 h -5.2 v -19.618 h 5.2 v -19.219 h -5.2 v -19.618 h 5.2 v -19.218 h -5.2 v -19.618 h 5.2 v -19.218 h -5.2 v -19.618 h 5.2 v -19.219 h -5.2 v -19.618 h 5.2 V 177.5 h 17.133 v 5.2 h 16.734 v -5.2 h 17.133 v 19.418 h 5 V 177.5 h 17.133 v 5.2 h 16.734 v -5.2 h 17.133 v 19.418 h 5.2 v 19.618 h -5.2 v 19.219 h 5.2 v 19.618 h -5.2 v 19.218 h 5.2 v 19.618 h -5.2 v 19.218 h 5.2 v 19.618 h -5.2 v 19.219 h 5.2 v 19.618 h -5.2 V 391.3" />
  <path
     id="polyline5-5"
     style="vector-effect:non-scaling-stroke;fill:none;stroke:#000000;stroke-width:0.264583;stroke-dasharray:none;-inkscape-stroke:hairline"
     d="m 499.97498,449.555 h -5 v -19.219 h 5 v 19.219 m 0,38.836 h -5 v -19.218 h 5 v 19.218 m 0,38.836 h -5 v -19.218 h 5 v 19.218 m 0,19.618 v 19.219 h -5 v -19.219 h 5 m 51,-155.545 v 19.418 h 5.2 v 19.618 h -5.2 v 19.219 h 5.2 v 19.618 h -5.2 v 19.218 h 5.2 v 19.618 h -5.2 v 19.218 h 5.2 v 19.618 h -5.2 v 19.219 h 5.2 v 19.618 h -5.2 V 605.1 h -17.133 v -5.2 h -16.734 v 5.2 h -17.133 v -19.418 h -5 V 605.1 h -17.133 v -5.2 h -16.734 v 5.2 h -17.133 v -19.418 h -5.2 v -19.618 h 5.2 v -19.219 h -5.2 v -19.618 h 5.2 v -19.218 h -5.2 v -19.618 h 5.2 v -19.218 h -5.2 v -19.618 h 5.2 v -19.219 h -5.2 v -19.618 h 5.2 V 391.3 h 51 v 19.418 h 5 V 391.3 h 51" />
  <path
     id="polyline7-1"
     style="vector-effect:non-scaling-stroke;fill:none;stroke:#000000;stroke-width:0.264583;stroke-dasharray:none;-inkscape-stroke:hairline"
     d="m 810.22502,235.95501 h -5 v 19.218 h 5 v -19.218 m 51,-58.455 h -56.2 v 19.618 h 5.2 v 19.218 h -5 v -17.761 h -5.721 l -13.529,13.529 v 18.787 h 5.2 v 18.445 h -5.2 v 18.812 l 4.927,2.041 14.123,-14.123 v 18.725 h 5.2 v 19.218 h -5.2 v 19.618 h 5.2 v 19.218 h -5.2 v 19.619 h 5.2 v 19.218 h -5.2 v 19.618 h 18.867 v -5.2 h 18.466 v 5.2 h 18.867 v -19.618 h -5.2 v -19.218 h 5.2 v -19.619 h -5.2 v -19.218 h 5.2 v -19.618 h -5.2 v -19.218 h 5.2 v -19.618 h -5.2 v -19.218 h 5.2 v -19.619 h -5.2 v -19.218 h 5.2 v -19.618" />
  <path
     id="polyline9-5"
     style="vector-effect:non-scaling-stroke;fill:none;stroke:#000000;stroke-width:0.264583;stroke-dasharray:none;-inkscape-stroke:hairline"
     d="m 810.225,527.42701 h -5 v 19.218 h 5 v -19.218 m 51,-77.672 v -19.619 h -5.2 v -19.218 h 5.2 v -19.618 h -18.867 v 5.2 h -18.466 v -5.2 h -18.867 v 19.618 h 5.2 v 19.218 h -5.2 v 19.619 h 5.2 v 19.218 h -5.2 v 19.618 h 5.2 v 19.218 h -5.2 v 18.725 l -14.123,-14.123 -4.927,2.041 v 18.812 h 5.2 v 18.445 h -5.2 v 18.787 l 13.529,13.529 h 5.721 v -17.761 h 5 v 19.218 h -5.2 v 19.618 h 56.2 v -19.618 h -5.2 v -19.218 h 5.2 v -19.619 h -5.2 v -19.218 h 5.2 v -19.618 h -5.2 v -19.218 h 5.2 v -19.618 h -5.2 v -19.218 h 5.2" />
  <polyline
     z="0"
     points="708.7,476.214 728.318,476.214 728.318,481.414 747.536,481.414 747.536,476.214 767.155,476.214 767.155,481.414 786.373,481.414 786.373,476.214 805.991,476.214 805.991,481.414 825.209,481.414 825.209,476.214 844.827,476.214 844.827,481.414 864.045,481.414 864.045,476.214 883.664,476.214 883.664,481.414 902.882,481.414 902.882,476.214 922.5,476.214 922.5,532.414 902.882,532.414 902.882,527.214 883.664,527.214 883.664,532.414 864.045,532.414 864.045,527.214 844.827,527.214 844.827,532.414 825.209,532.414 825.209,527.214 805.991,527.214 805.991,532.414 786.373,532.414 786.373,527.214 767.155,527.214 767.155,532.414 747.536,532.414 747.536,527.214 728.318,527.214 728.318,532.414 708.7,532.414 708.7,513.547 713.9,513.547 713.9,495.081 708.7,495.081 708.7,476.214"
     fill="none"
     stroke="#000000"
     stroke-width="0.1mm"
     id="polyline10-9"
     transform="matrix(0,1,1,0,197.361,-531.19999)"
     style="vector-effect:non-scaling-stroke;stroke-width:0.264583;stroke-dasharray:none;-inkscape-stroke:hairline" />
  <path
     id="polyline17-0"
     style="vector-effect:non-scaling-stroke;fill:none;stroke:#000000;stroke-width:0.264583;stroke-dasharray:none;-inkscape-stroke:hairline"
     d="m 494.97498,333.045 v 19.219 h 5 v -19.219 h -5 m 0,-38.836 v 19.218 h 5 v -19.218 h -5 m 0,-38.836 v 19.218 h 5 v -19.218 h -5 m 0,-19.618 h 5 v -19.219 h -5 v 19.219 m -51,155.545 h 51 v -19.418 h 5 V 391.3 h 51 v -19.418 h 5.2 v -19.618 h -5.2 v -19.219 h 5.2 v -19.618 h -5.2 v -19.218 h 5.2 v -19.618 h -5.2 v -19.218 h 5.2 v -19.618 h -5.2 v -19.219 h 5.2 v -19.618 h -5.2 V 177.5 h -17.133 v 5.2 h -16.734 v -5.2 h -17.133 v 19.418 h -5 V 177.5 h -17.133 v 5.2 h -16.734 v -5.2 h -17.133 v 19.418 h -5.2 v 19.618 h 5.2 v 19.219 h -5.2 v 19.618 h 5.2 v 19.218 h -5.2 v 19.618 h 5.2 v 19.218 h -5.2 v 19.618 h 5.2 v 19.219 h -5.2 v 19.618 h 5.2 V 391.3" />
</svg>
