<?xml version="1.0" standalone="no"?>
<!DOCTYPE svg PUBLIC "-//W3C//DTD SVG 1.1//EN" "http://www.w3.org/Graphics/SVG/1.1/DTD/svg11.dtd">
<svg width="1300mm" height="900mm" viewBox="0 0 1300 900" xmlns="http://www.w3.org/2000/svg" version="1.1">
<polyline z="0" points="458.9,582.715 458.9,565.255 453.7,565.255 453.7,547.595 458.9,547.595 458.9,530.135 565.9,530.135 565.9,547.595 571.1,547.595 571.1,565.255 565.9,565.255 565.9,582.715 458.9,582.715" fill="none" stroke="black" stroke-width="0.1mm" />
<polyline z="0" points="453.7,530.135 453.7,454.885 471.36,454.885 471.36,460.085 488.621,460.085 488.621,454.885 506.248,454.885 508.289,459.812 494.166,473.935 512.786,473.935 512.786,479.135 532.214,479.135 532.214,473.935 552.043,473.935 552.043,479.135 571.471,479.135 571.471,473.935 591.3,473.935 591.3,492.802 586.1,492.802 586.1,511.268 591.3,511.268 591.3,530.135 571.471,530.135 571.471,524.935 552.043,524.935 552.043,530.135 532.214,530.135 532.214,524.935 512.786,524.935 512.786,530.135 492.957,530.135 492.957,524.935 473.529,524.935 473.529,530.135 453.7,530.135" fill="none" stroke="black" stroke-width="0.1mm" />
<polyline z="0" points="473.529,479.135 473.529,474.135 492.957,474.135 492.957,479.135 473.529,479.135" fill="none" stroke="black" stroke-width="0.1mm" />
<polyline z="0" points="458.9,454.885 458.9,435.256 453.7,435.256 453.7,415.428 458.9,415.428 458.9,395.999 453.7,395.999 453.7,376.171 458.9,376.171 458.9,356.742 453.7,356.742 453.7,336.914 458.9,336.914 458.9,317.285 476.033,317.285 476.033,322.485 492.767,322.485 492.767,317.285 509.9,317.285 509.9,336.914 514.9,336.914 514.9,317.285 532.033,317.285 532.033,322.485 548.767,322.485 548.767,317.285 565.9,317.285 565.9,336.914 571.1,336.914 571.1,356.742 565.9,356.742 565.9,376.171 571.1,376.171 571.1,395.999 565.9,395.999 565.9,415.428 571.1,415.428 571.1,435.256 565.9,435.256 565.9,454.885 514.9,454.885 514.9,435.256 509.9,435.256 509.9,454.885 458.9,454.885" fill="none" stroke="black" stroke-width="0.1mm" />
<polyline z="0" points="509.9,376.171 509.9,356.742 514.9,356.742 514.9,376.171 509.9,376.171" fill="none" stroke="black" stroke-width="0.1mm" />
<polyline z="0" points="509.9,395.999 514.9,395.999 514.9,415.428 509.9,415.428 509.9,395.999" fill="none" stroke="black" stroke-width="0.1mm" />
<polyline z="0" points="571.1,395.999 571.1,376.171 576.3,376.171 576.3,356.742 571.1,356.742 571.1,336.914 576.3,336.914 576.3,317.285 593.433,317.285 593.433,322.485 610.167,322.485 610.167,317.285 627.3,317.285 627.3,336.914 632.3,336.914 632.3,317.285 649.433,317.285 649.433,322.485 666.167,322.485 666.167,317.285 683.3,317.285 683.3,336.914 688.5,336.914 688.5,356.742 683.3,356.742 683.3,376.171 688.5,376.171 688.5,395.999 683.3,395.999 683.3,415.428 688.5,415.428 688.5,435.256 683.3,435.256 683.3,454.885 632.3,454.885 632.3,435.256 627.3,435.256 627.3,454.885 576.3,454.885 576.3,435.256 571.1,435.256 571.1,415.428 576.3,415.428 576.3,395.999 571.1,395.999" fill="none" stroke="black" stroke-width="0.1mm" />
<polyline z="0" points="627.3,376.171 627.3,356.742 632.3,356.742 632.3,376.171 627.3,376.171" fill="none" stroke="black" stroke-width="0.1mm" />
<polyline z="0" points="627.3,395.999 632.3,395.999 632.3,415.428 627.3,415.428 627.3,395.999" fill="none" stroke="black" stroke-width="0.1mm" />
<polyline z="0" points="688.5,398.685 708.329,398.685 708.329,403.885 727.757,403.885 727.757,398.685 747.586,398.685 747.586,403.885 767.014,403.885 767.014,398.685 785.634,398.685 771.511,384.562 773.552,379.635 791.179,379.635 791.179,384.835 808.44,384.835 808.44,379.635 826.1,379.635 826.1,454.885 806.271,454.885 806.271,449.685 786.843,449.685 786.843,454.885 767.014,454.885 767.014,449.685 747.586,449.685 747.586,454.885 727.757,454.885 727.757,449.685 708.329,449.685 708.329,454.885 688.5,454.885 688.5,436.018 693.7,436.018 693.7,417.552 688.5,417.552 688.5,398.685" fill="none" stroke="black" stroke-width="0.1mm" />
<polyline z="0" points="786.843,398.885 806.271,398.885 806.271,403.885 786.843,403.885 786.843,398.885" fill="none" stroke="black" stroke-width="0.1mm" />
<polyline z="0" points="768.167,473.935 768.167,479.135 785.1,479.135 785.1,492.602 790.1,492.602 790.1,479.135 807.033,479.135 807.033,473.935 824.167,473.935 824.167,479.135 841.1,479.135 841.1,492.602 846.3,492.602 846.3,511.468 841.1,511.468 841.1,524.935 824.167,524.935 824.167,530.135 807.033,530.135 807.033,524.935 790.1,524.935 790.1,511.468 785.1,511.468 785.1,524.935 768.167,524.935 768.167,530.135 751.033,530.135 751.033,524.935 734.1,524.935 734.1,511.468 728.9,511.468 728.9,492.602 734.1,492.602 734.1,479.135 751.033,479.135 751.033,473.935 768.167,473.935" fill="none" stroke="black" stroke-width="0.1mm" />
<polyline z="0" points="728.9,473.935 728.9,492.802 723.7,492.802 723.7,511.268 728.9,511.268 728.9,530.135 709.071,530.135 709.071,524.935 689.643,524.935 689.643,530.135 669.814,530.135 669.814,524.935 650.386,524.935 650.386,530.135 630.557,530.135 630.557,524.935 611.129,524.935 611.129,530.135 591.3,530.135 591.3,473.935 611.129,473.935 611.129,479.135 630.557,479.135 630.557,473.935 650.386,473.935 650.386,479.135 669.814,479.135 669.814,473.935 689.643,473.935 689.643,479.135 709.071,479.135 709.071,473.935 728.9,473.935" fill="none" stroke="black" stroke-width="0.1mm" />
</svg>