<?xml version="1.0" standalone="no"?>
<!DOCTYPE svg PUBLIC "-//W3C//DTD SVG 1.1//EN" "http://www.w3.org/Graphics/SVG/1.1/DTD/svg11.dtd">
<svg width="1300mm" height="900mm" viewBox="0 0 1300 900" xmlns="http://www.w3.org/2000/svg" version="1.1">
<polyline z="0" points="382.7,663.8 382.7,644.382 377.5,644.382 377.5,624.764 382.7,624.764 382.7,605.545 377.5,605.545 377.5,585.927 382.7,585.927 382.7,566.709 377.5,566.709 377.5,547.091 382.7,547.091 382.7,527.873 377.5,527.873 377.5,508.255 382.7,508.255 382.7,489.036 377.5,489.036 377.5,469.418 382.7,469.418 382.7,450 399.833,450 399.833,455.2 416.567,455.2 416.567,450 433.7,450 433.7,469.418 438.7,469.418 438.7,450 455.833,450 455.833,455.2 472.567,455.2 472.567,450 489.7,450 489.7,469.418 494.9,469.418 494.9,489.036 489.7,489.036 489.7,508.255 494.9,508.255 494.9,527.873 489.7,527.873 489.7,547.091 494.9,547.091 494.9,566.709 489.7,566.709 489.7,585.927 494.9,585.927 494.9,605.545 489.7,605.545 489.7,624.764 494.9,624.764 494.9,644.382 489.7,644.382 489.7,663.8 438.7,663.8 438.7,644.382 433.7,644.382 433.7,663.8 382.7,663.8" fill="none" stroke="black" stroke-width="0.1mm" />
<polyline z="0" points="433.7,508.255 433.7,489.036 438.7,489.036 438.7,508.255 433.7,508.255" fill="none" stroke="black" stroke-width="0.1mm" />
<polyline z="0" points="433.7,527.873 438.7,527.873 438.7,547.091 433.7,547.091 433.7,527.873" fill="none" stroke="black" stroke-width="0.1mm" />
<polyline z="0" points="433.7,566.709 438.7,566.709 438.7,585.927 433.7,585.927 433.7,566.709" fill="none" stroke="black" stroke-width="0.1mm" />
<polyline z="0" points="433.7,605.545 438.7,605.545 438.7,624.764 433.7,624.764 433.7,605.545" fill="none" stroke="black" stroke-width="0.1mm" />
<polyline z="0" points="494.9,607.664 494.9,551.464 514.518,551.464 514.518,556.664 533.736,556.664 533.736,551.664 515.975,551.664 515.975,545.943 529.504,532.414 548.291,532.414 548.291,537.614 566.736,537.614 566.736,532.414 585.548,532.414 587.589,537.341 573.466,551.464 592.191,551.464 592.191,556.664 611.409,556.664 611.409,551.464 631.027,551.464 631.027,556.664 650.245,556.664 650.245,551.464 669.864,551.464 669.864,556.664 689.082,556.664 689.082,551.464 708.7,551.464 708.7,570.331 703.5,570.331 703.5,588.797 708.7,588.797 708.7,607.664 689.082,607.664 689.082,602.464 669.864,602.464 669.864,607.664 650.245,607.664 650.245,602.464 631.027,602.464 631.027,607.664 611.409,607.664 611.409,602.464 592.191,602.464 592.191,607.664 572.573,607.664 572.573,602.464 553.355,602.464 553.355,607.664 533.736,607.664 533.736,602.464 514.518,602.464 514.518,607.664 494.9,607.664" fill="none" stroke="black" stroke-width="0.1mm" />
<polyline z="0" points="553.355,556.664 553.355,551.664 572.573,551.664 572.573,556.664 553.355,556.664" fill="none" stroke="black" stroke-width="0.1mm" />
<polyline z="0" points="553.355,532.414 533.736,532.414 533.736,527.214 514.518,527.214 514.518,532.414 494.9,532.414 494.9,513.547 500.1,513.547 500.1,495.081 494.9,495.081 494.9,476.214 514.518,476.214 514.518,481.414 533.736,481.414 533.736,476.214 553.355,476.214 553.355,481.414 572.573,481.414 572.573,476.214 592.191,476.214 592.191,481.414 611.409,481.414 611.409,476.214 630.134,476.214 616.011,462.091 618.052,457.164 636.864,457.164 636.864,462.364 655.309,462.364 655.309,457.164 674.096,457.164 687.625,470.693 687.625,476.414 669.864,476.414 669.864,481.414 689.082,481.414 689.082,476.214 708.7,476.214 708.7,532.414 689.082,532.414 689.082,527.214 669.864,527.214 669.864,532.414 650.245,532.414 650.245,527.214 631.027,527.214 631.027,532.414 611.409,532.414 611.409,527.214 592.191,527.214 592.191,532.414 572.573,532.414 572.573,527.214 553.355,527.214 553.355,532.414" fill="none" stroke="black" stroke-width="0.1mm" />
<polyline z="0" points="631.027,481.414 631.027,476.414 650.245,476.414 650.245,481.414 631.027,481.414" fill="none" stroke="black" stroke-width="0.1mm" />
<polyline z="0" points="708.7,476.214 728.318,476.214 728.318,481.414 747.536,481.414 747.536,476.214 767.155,476.214 767.155,481.414 786.373,481.414 786.373,476.214 805.991,476.214 805.991,481.414 825.209,481.414 825.209,476.214 844.827,476.214 844.827,481.414 864.045,481.414 864.045,476.214 883.664,476.214 883.664,481.414 902.882,481.414 902.882,476.214 922.5,476.214 922.5,532.414 902.882,532.414 902.882,527.214 883.664,527.214 883.664,532.414 864.045,532.414 864.045,527.214 844.827,527.214 844.827,532.414 825.209,532.414 825.209,527.214 805.991,527.214 805.991,532.414 786.373,532.414 786.373,527.214 767.155,527.214 767.155,532.414 747.536,532.414 747.536,527.214 728.318,527.214 728.318,532.414 708.7,532.414 708.7,513.547 713.9,513.547 713.9,495.081 708.7,495.081 708.7,476.214" fill="none" stroke="black" stroke-width="0.1mm" />
<polyline z="0" points="730.833,551.464 747.967,551.464 747.967,556.664 764.9,556.664 764.9,570.131 769.9,570.131 769.9,556.664 786.833,556.664 786.833,551.464 803.967,551.464 803.967,556.664 820.9,556.664 820.9,570.131 826.1,570.131 826.1,588.997 820.9,588.997 820.9,602.464 803.967,602.464 803.967,607.664 786.833,607.664 786.833,602.464 769.9,602.464 769.9,588.997 764.9,588.997 764.9,602.464 747.967,602.464 747.967,607.664 730.833,607.664 730.833,602.464 713.9,602.464 713.9,588.997 708.7,588.997 708.7,570.131 713.9,570.131 713.9,556.664 730.833,556.664 730.833,551.464" fill="none" stroke="black" stroke-width="0.1mm" />
<polyline z="0" points="607.1,607.664 607.1,626.309 612.3,626.309 612.3,645.155 607.1,645.155 607.1,663.8 500.1,663.8 500.1,645.155 494.9,645.155 494.9,626.309 500.1,626.309 500.1,607.664 607.1,607.664" fill="none" stroke="black" stroke-width="0.1mm" />
<polyline z="0" points="489.7,450 438.7,450 438.7,430.582 433.7,430.582 433.7,450 382.7,450 382.7,430.582 377.5,430.582 377.5,410.964 382.7,410.964 382.7,391.745 377.5,391.745 377.5,372.127 382.7,372.127 382.7,352.909 377.5,352.909 377.5,333.291 382.7,333.291 382.7,314.073 377.5,314.073 377.5,294.455 382.7,294.455 382.7,275.236 377.5,275.236 377.5,255.618 382.7,255.618 382.7,236.2 399.833,236.2 399.833,241.4 416.567,241.4 416.567,236.2 433.7,236.2 433.7,255.618 438.7,255.618 438.7,236.2 455.833,236.2 455.833,241.4 472.567,241.4 472.567,236.2 489.7,236.2 489.7,255.618 494.9,255.618 494.9,275.236 489.7,275.236 489.7,294.455 494.9,294.455 494.9,314.073 489.7,314.073 489.7,333.291 494.9,333.291 494.9,352.909 489.7,352.909 489.7,372.127 494.9,372.127 494.9,391.745 489.7,391.745 489.7,410.964 494.9,410.964 494.9,430.582 489.7,430.582 489.7,450" fill="none" stroke="black" stroke-width="0.1mm" />
<polyline z="0" points="438.7,294.455 433.7,294.455 433.7,275.236 438.7,275.236 438.7,294.455" fill="none" stroke="black" stroke-width="0.1mm" />
<polyline z="0" points="438.7,314.073 438.7,333.291 433.7,333.291 433.7,314.073 438.7,314.073" fill="none" stroke="black" stroke-width="0.1mm" />
<polyline z="0" points="438.7,352.909 438.7,372.127 433.7,372.127 433.7,352.909 438.7,352.909" fill="none" stroke="black" stroke-width="0.1mm" />
<polyline z="0" points="438.7,391.745 438.7,410.964 433.7,410.964 433.7,391.745 438.7,391.745" fill="none" stroke="black" stroke-width="0.1mm" />
</svg>